g areaRamp01
v 1.1401045 1.4660919 -7.9710855
v 2.2132392 0.90522885 -6.9800653
v 2.3288789 1.5439385 -7.098112
v 1.0766768 0.8333319 -7.8070965
v 2.0476387 -4.973943 -7.0833173
v -1.3035624 1.4696246 -7.931462
v 1.0472872 -4.973943 -7.902907
v -1.3035624 0.83005977 -7.807394
v -2.7480385 1.514483 -7.2375016
v -1.1775614 -4.973943 -7.892487
v -2.6283755 0.8488128 -7.1678925
v -2.2463834 -4.973943 -7.520529
v 2.3684394 0.82996947 -5.4255047
v 2.3288789 1.5439385 -7.098112
v 2.2132392 0.90522885 -6.9800653
v 2.6050386 1.3297577 -5.2262177
v 2.852065 0.33623716 -1.6795034
v 2.7172287 -0.101002194 -1.8242056
v 2.5921211 -1.081991 1.5720931
v 2.5217452 -1.6281054 1.3937533
v 2.8447385 -2.9073305 3.9406526
v 2.785207 -2.3050692 4.1296954
v 2.108376 -3.5460403 6.0772247
v 2.1850264 -2.859117 6.144871
v 0.72713095 -3.5586772 6.6252227
v 0.72713095 -2.8613741 6.7484646
v -1.141331 -3.5444908 6.495135
v -1.2335428 -2.8613741 6.7484646
v -2.183278 -3.5219526 6.1197343
v -2.3947234 -2.8592682 6.1857305
v -2.9888833 -2.949997 4.0996127
v -2.909723 -2.3751452 4.290897
v -3.1045668 -1.2004608 1.6838461
v -3.120104 -1.666618 1.5216489
v -2.8441567 0.20246276 -1.6028042
v -2.7960756 -0.25825012 -1.7808071
v -2.9647086 0.80392027 -5.390817
v -3.1400309 1.3012232 -5.1605825
v -2.6283755 0.8488128 -7.1678925
v -2.7480385 1.514483 -7.2375016
v -2.9647086 0.80392027 -5.390817
v -2.2463834 -4.973943 -7.520529
v -2.6283755 0.8488128 -7.1678925
v -2.7673502 -4.973943 -5.4793034
v -2.4733024 -4.973943 -1.9644887
v -2.7960756 -0.25825012 -1.7808071
v -2.6961489 -4.973943 1.207474
v -3.120104 -1.666618 1.5216489
v -2.9888833 -2.949997 4.0996127
v -2.5796938 -4.973943 3.7505405
v -2.183278 -3.5219526 6.1197343
v -2.138195 -4.9739447 5.237342
v -1.141331 -3.5444908 6.495135
v -1.1387284 -4.9739447 5.610457
v 0.72713095 -3.5586772 6.6252227
v 0.6537618 -4.9739447 5.6326346
v 2.108376 -3.5460403 6.0772247
v 2.0601728 -4.9739447 5.314002
v 2.8447385 -2.9073305 3.9406526
v 2.4551778 -4.973943 3.644969
v 2.1697235 -4.973943 1.167391
v 2.5217452 -1.6281054 1.3937533
v 2.4027412 -4.973943 -1.9812564
v 2.7172287 -0.101002194 -1.8242056
v 2.3684394 0.82996947 -5.4255047
v 2.1290255 -4.973943 -5.4439273
v 2.2132392 0.90522885 -6.9800653
v 2.0476387 -4.973943 -7.0833173
v -2.2054703 -2.4885004 5.9705157
v -2.5932975 -2.0427465 4.2990756
v -1.1426346 -1.851618 4.2100472
v -1.1426346 -2.4786725 6.3431134
v -1.3420585 -0.7315399 1.6827865
v -2.710192 -0.88823605 1.7437484
v 0.6567892 -1.851618 4.2100472
v 0.6567892 -2.470193 6.3431525
v 1.9091328 -2.5413744 5.834959
v 2.4687812 -1.9720422 4.1576986
v 2.183874 -0.8192175 1.6271468
v 0.5514522 -0.7315399 1.6827865
v 2.4174433 0.6463153 -1.5462807
v 0.96459186 0.70124817 -1.4873648
v 2.1448262 1.5648444 -4.9877796
v -1.0230106 0.70124817 -1.4873648
v -2.4877849 0.5789831 -1.4544595
v 1.0511104 1.5648444 -4.9222865
v 2.0592306 1.812536 -6.7996745
v -1.124661 1.5648444 -4.9222865
v -2.7827115 1.5648444 -4.9454994
v -2.4348454 1.812536 -6.9860415
v 1.0511104 1.812536 -6.7955923
v 1.0511104 1.812536 -7.598444
v -1.1653239 1.812536 -6.7859683
v -1.1827518 1.812536 -7.584689
v 2.4745674 -0.91341245 1.6242416
v 2.852065 0.33623716 -1.6795034
v 2.5921211 -1.081991 1.5720931
v 2.785207 -2.3050692 4.1296954
v 2.7299411 0.49729368 -1.6100552
v 2.6050386 1.3297577 -5.2262177
v 2.6722188 -2.1289732 4.1645494
v 2.1850264 -2.859117 6.144871
v 2.183874 -0.8192175 1.6271468
v 2.4174433 0.6463153 -1.5462807
v 2.4687812 -1.9720422 4.1576986
v 2.0865107 -2.6833117 6.034451
v 0.72713095 -2.8613741 6.7484646
v 1.9091328 -2.5413744 5.834959
v 2.473774 1.4757733 -5.1221695
v 2.1448262 1.5648444 -4.9877796
v 2.0592306 1.812536 -6.7996745
v 0.7020138 -2.6854427 6.6038847
v -1.2335428 -2.8613741 6.7484646
v 0.6567892 -2.470193 6.3431525
v 2.2325947 1.729278 -6.994367
v 2.3288789 1.5439385 -7.098112
v 1.0511104 1.812536 -7.598444
v -1.2010819 -2.6854427 6.6038847
v -2.3947234 -2.8592682 6.1857305
v -1.1426346 -2.4786725 6.3431134
v 1.1083273 1.653692 -7.8419843
v 1.1401045 1.4660919 -7.9710855
v -1.1827518 1.812536 -7.584689
v -2.3033805 -2.6834679 6.077166
v -2.2054703 -2.4885004 5.9705157
v -2.909723 -2.3751452 4.290897
v -1.2604276 1.6563617 -7.8120575
v -1.3035624 1.4696246 -7.931462
v -2.4348454 1.812536 -6.9860415
v -2.7967348 -2.1964993 4.319881
v -2.5932975 -2.0427465 4.2990756
v -2.710192 -0.88823605 1.7437484
v -2.6362076 1.698261 -7.151266
v -2.7480385 1.514483 -7.2375016
v -2.7827115 1.5648444 -4.9454994
v -2.9202015 -1.0297118 1.7309995
v -3.1045668 -1.2004608 1.6838461
v -2.4877849 0.5789831 -1.4544595
v -3.0124428 1.4482788 -5.0589223
v -3.1400309 1.3012232 -5.1605825
v -2.7043667 0.44978333 -1.5007632
v -2.8441567 0.20246276 -1.6028042
vt 0.5416667 0.5
vt 0.625 0.64583325
vt 0.625 0.5
vt 0.5416667 0.64583325
vt 0.625 0.74999994
vt 0.45833334 0.5
vt 0.5416667 0.74999994
vt 0.45833334 0.64583325
vt 0.375 0.5
vt 0.45833334 0.74999994
vt 0.375 0.64583325
vt 0.375 0.74999994
vt 0.7916667 0.10416667
vt 0.875 0.25
vt 0.875 0.10416667
vt 0.7916667 0.25
vt 0.75 0.25
vt 0.75 0.10416667
vt 0.7291667 0.25
vt 0.7291667 0.10416667
vt 0.7083334 0.10416667
vt 0.7083334 0.25
vt 0.625 0.10416667
vt 0.625 0.25
vt 0.5416667 0.10416667
vt 0.5416667 0.25
vt 0.45833334 0.10416667
vt 0.45833334 0.25
vt 0.375 0.10416667
vt 0.375 0.25
vt 0.2916667 0.10416667
vt 0.2916667 0.25
vt 0.27083334 0.25
vt 0.27083334 0.10416667
vt 0.25 0.25
vt 0.25 0.10416667
vt 0.20833334 0.10416667
vt 0.20833334 0.25
vt 0.125 0.10416667
vt 0.125 0.25
vt 0.375 0.83333325
vt 0.375 0.74999994
vt 0.375 0.64583325
vt 0.375 0.83333325
vt 0.375 0.8749999
vt 0.375 0.8749999
vt 0.375 0.89583325
vt 0.375 0.89583325
vt 0.375 0.91666657
vt 0.375 0.91666657
vt 0.375 0.9999999
vt 0.375 0.9999999
vt 0.45833334 0.9999999
vt 0.45833334 0.9999999
vt 0.5416667 0.9999999
vt 0.5416667 0.9999999
vt 0.625 0.9999999
vt 0.625 0.9999999
vt 0.625 0.91666657
vt 0.625 0.91666657
vt 0.625 0.89583325
vt 0.625 0.89583325
vt 0.625 0.8749999
vt 0.625 0.8749999
vt 0.625 0.83333325
vt 0.625 0.83333325
vt 0.625 0.64583325
vt 0.625 0.74999994
vt 0.375 0.25
vt 0.375 0.33333334
vt 0.45833334 0.33333334
vt 0.45833334 0.25
vt 0.45833334 0.3541667
vt 0.375 0.3541667
vt 0.5416667 0.33333334
vt 0.5416667 0.25
vt 0.625 0.25
vt 0.625 0.33333334
vt 0.625 0.3541667
vt 0.5416667 0.3541667
vt 0.625 0.375
vt 0.5416667 0.375
vt 0.625 0.4166667
vt 0.45833334 0.375
vt 0.375 0.375
vt 0.5416667 0.4166667
vt 0.625 0.5
vt 0.45833334 0.4166667
vt 0.375 0.4166667
vt 0.375 0.5
vt 0.5416667 0.47500002
vt 0.5416667 0.5
vt 0.4583333 0.47500002
vt 0.45833334 0.5
vt 0.625 0.3541667
vt 0.625 0.375
vt 0.625 0.3541667
vt 0.625 0.33333334
vt 0.625 0.375
vt 0.625 0.4166667
vt 0.625 0.33333334
vt 0.625 0.25
vt 0.625 0.3541667
vt 0.625 0.375
vt 0.625 0.33333334
vt 0.625 0.25
vt 0.5416667 0.25
vt 0.625 0.25
vt 0.625 0.4166667
vt 0.625 0.4166667
vt 0.625 0.5
vt 0.5416667 0.25
vt 0.45833334 0.25
vt 0.5416667 0.25
vt 0.625 0.5
vt 0.625 0.5
vt 0.5416667 0.5
vt 0.45833334 0.25
vt 0.375 0.25
vt 0.45833334 0.25
vt 0.5416667 0.5
vt 0.5416667 0.5
vt 0.45833334 0.5
vt 0.375 0.25
vt 0.375 0.25
vt 0.375 0.33333334
vt 0.45833334 0.5
vt 0.45833334 0.5
vt 0.375 0.5
vt 0.375 0.33333334
vt 0.375 0.33333334
vt 0.375 0.3541667
vt 0.375 0.5
vt 0.375 0.5
vt 0.375 0.4166667
vt 0.375 0.3541667
vt 0.375 0.3541667
vt 0.375 0.375
vt 0.375 0.4166667
vt 0.375 0.4166667
vt 0.375 0.375
vt 0.375 0.375
vn 0.2305514 -0.047214184 -0.9719141
vn 0.8972425 -0.05072052 -0.43861526
vn 0.8587832 -0.043563705 -0.5104837
vn 0.24148744 -0.016495636 -0.9702637
vn 0.8943469 -0.018092083 -0.44700816
vn -0.17889325 -0.020326573 -0.9836585
vn 0.23482709 0.011634199 -0.97196746
vn -0.15216267 -0.008069735 -0.98832256
vn -0.81970614 0.013105727 -0.5726343
vn -0.14172493 0.016608087 -0.9897668
vn -0.83730817 -0.042565588 -0.5450717
vn -0.81512254 -0.017701635 -0.57901794
vn 0.992987 -0.071261294 -0.09433275
vn 0.8587832 -0.043563705 -0.5104837
vn 0.8972425 -0.05072052 -0.43861526
vn 0.9923625 -0.056876887 -0.10946029
vn 0.99982256 -0.016273247 -0.009489645
vn 0.99499655 -0.08324219 -0.055249773
vn 0.99703777 0.0710138 0.02954274
vn 0.99577075 -0.091419585 -0.009113064
vn 0.99277323 -0.11934895 -0.012533593
vn 0.98721457 0.09744366 0.1261429
vn 0.74024075 -0.3078805 0.5977067
vn 0.79310155 0.024111856 0.60861194
vn 0.10983683 -0.4425841 0.88997483
vn 0.15143722 -0.020031402 0.98826385
vn -0.13966706 -0.4588448 0.87747055
vn -0.17773432 -0.06532276 0.981908
vn -0.74898285 -0.33352673 0.57252467
vn -0.8331134 -0.06721733 0.54900265
vn -0.9830566 -0.15092538 0.10402463
vn -0.96932644 0.10467793 0.2223713
vn -0.97523695 0.20842259 0.07397865
vn -0.9942762 -0.08576173 -0.063715495
vn -0.99247617 0.1138794 0.04497202
vn -0.99762887 -0.06881994 0.00065477734
vn -0.99575007 -0.066389404 -0.0638291
vn -0.99984145 0.006550297 -0.016554225
vn -0.83730817 -0.042565588 -0.5450717
vn -0.81970614 0.013105727 -0.5726343
vn -0.99575007 -0.066389404 -0.0638291
vn -0.81512254 -0.017701635 -0.57901794
vn -0.83730817 -0.042565588 -0.5450717
vn -0.99768436 -0.047303244 -0.048870303
vn -0.99784946 -0.06517305 -0.0069901394
vn -0.99762887 -0.06881994 0.00065477734
vn -0.99185634 -0.10850834 -0.06668586
vn -0.9942762 -0.08576173 -0.063715495
vn -0.9830566 -0.15092538 0.10402463
vn -0.9797126 -0.17756456 0.092920065
vn -0.74898285 -0.33352673 0.57252467
vn -0.8259109 -0.3215763 0.46309796
vn -0.13966706 -0.4588448 0.87747055
vn -0.14296383 -0.5356143 0.8322732
vn 0.10983683 -0.4425841 0.88997483
vn 0.09398452 -0.5405952 0.83601665
vn 0.74024075 -0.3078805 0.5977067
vn 0.80809164 -0.33405033 0.48517853
vn 0.99277323 -0.11934895 -0.012533593
vn 0.98898053 -0.14547303 -0.02748124
vn 0.9952715 -0.09554274 -0.017500369
vn 0.99577075 -0.091419585 -0.009113064
vn 0.9972812 -0.06340424 -0.037551276
vn 0.99499655 -0.08324219 -0.055249773
vn 0.992987 -0.071261294 -0.09433275
vn 0.9951441 -0.044643924 -0.087722324
vn 0.8972425 -0.05072052 -0.43861526
vn 0.8943469 -0.018092083 -0.44700816
vn -0.25948194 0.8939083 0.36550945
vn -0.19351538 0.90225446 0.38534224
vn -0.034518868 0.930886 0.36367548
vn -0.0352448 0.9369585 0.34765878
vn -0.03740703 0.91154444 0.4094967
vn -0.15916224 0.90059155 0.4044776
vn 0.031658206 0.930529 0.3648475
vn 0.045936596 0.93936414 0.3398308
vn 0.20532656 0.90883976 0.36311325
vn 0.14030959 0.9100282 0.3900793
vn 0.111892916 0.9045163 0.41149762
vn 0.027247664 0.91136134 0.4107045
vn 0.118666045 0.9335147 0.33833212
vn 0.020173427 0.9426494 0.33317438
vn 0.12235712 0.96749073 0.22133799
vn -0.022283534 0.94480085 0.32688653
vn -0.1229995 0.93519163 0.33209607
vn 0.00961822 0.9771022 0.21255319
vn 0.17199355 0.984683 0.02859375
vn -0.011902303 0.97670096 0.21427475
vn -0.12828657 0.96527827 0.227553
vn -0.1695961 0.98544943 -0.011242966
vn 0.00023323503 0.9957628 0.09195806
vn 0.035467092 0.98188317 -0.18613848
vn -0.0034476407 0.99564606 0.09315015
vn -0.028076826 0.9808246 -0.19286002
vn 0.5939768 0.73011994 0.3378112
vn 0.99982256 -0.016273247 -0.009489645
vn 0.99703777 0.0710138 0.02954274
vn 0.98721457 0.09744366 0.1261429
vn 0.5765506 0.7707244 0.27124375
vn 0.9923625 -0.056876887 -0.10946029
vn 0.64239043 0.693783 0.32557577
vn 0.79310155 0.024111856 0.60861194
vn 0.111892916 0.9045163 0.41149762
vn 0.118666045 0.9335147 0.33833212
vn 0.14030959 0.9100282 0.3900793
vn 0.48857167 0.7010757 0.51941377
vn 0.15143722 -0.020031402 0.98826385
vn 0.20532656 0.90883976 0.36311325
vn 0.5841554 0.8007505 0.13251813
vn 0.12235712 0.96749073 0.22133799
vn 0.17199355 0.984683 0.02859375
vn 0.11443244 0.73035306 0.67341644
vn -0.17773432 -0.06532276 0.981908
vn 0.045936596 0.93936414 0.3398308
vn 0.553222 0.79491323 -0.24911533
vn 0.8587832 -0.043563705 -0.5104837
vn 0.035467092 0.98188317 -0.18613848
vn -0.115522005 0.7044212 0.700318
vn -0.8331134 -0.06721733 0.54900265
vn -0.0352448 0.9369585 0.34765878
vn 0.13657144 0.7293398 -0.6703818
vn 0.2305514 -0.047214184 -0.9719141
vn -0.028076826 0.9808246 -0.19286002
vn -0.57136273 0.640878 0.51265985
vn -0.25948194 0.8939083 0.36550945
vn -0.96932644 0.10467793 0.2223713
vn -0.11596746 0.71941286 -0.6848334
vn -0.17889325 -0.020326573 -0.9836585
vn -0.1695961 0.98544943 -0.011242966
vn -0.6845019 0.64293784 0.34363946
vn -0.19351538 0.90225446 0.38534224
vn -0.15916224 0.90059155 0.4044776
vn -0.53991973 0.7805528 -0.3149985
vn -0.81970614 0.013105727 -0.5726343
vn -0.12828657 0.96527827 0.227553
vn -0.68092245 0.6726726 0.28957924
vn -0.97523695 0.20842259 0.07397865
vn -0.1229995 0.93519163 0.33209607
vn -0.7091466 0.68846124 0.15209296
vn -0.99984145 0.006550297 -0.016554225
vn -0.69318604 0.6742385 0.254746
vn -0.99247617 0.1138794 0.04497202
g areaRamp01_0
f 3/3/3 2/2/2 1/1/1
f 2/2/2 4/4/4 1/1/1
f 2/2/2 5/5/5 4/4/4
f 1/1/1 4/4/4 6/6/6
f 5/5/5 7/7/7 4/4/4
f 4/4/4 8/8/8 6/6/6
f 4/4/4 7/7/7 8/8/8
f 6/6/6 8/8/8 9/9/9
f 7/7/7 10/10/10 8/8/8
f 8/8/8 11/11/11 9/9/9
f 8/8/8 10/10/10 11/11/11
f 10/10/10 12/12/12 11/11/11
f 15/15/15 14/14/14 13/13/13
f 14/14/14 16/16/16 13/13/13
f 13/13/13 16/16/16 17/17/17
f 18/18/18 13/13/13 17/17/17
f 18/18/18 17/17/17 19/19/19
f 20/20/20 18/18/18 19/19/19
f 20/20/20 19/19/19 21/21/21
f 19/19/19 22/22/22 21/21/21
f 21/21/21 22/22/22 23/23/23
f 22/22/22 24/24/24 23/23/23
f 23/23/23 24/24/24 25/25/25
f 24/24/24 26/26/26 25/25/25
f 25/25/25 26/26/26 27/27/27
f 26/26/26 28/28/28 27/27/27
f 27/27/27 28/28/28 29/29/29
f 28/28/28 30/30/30 29/29/29
f 29/29/29 30/30/30 31/31/31
f 30/30/30 32/32/32 31/31/31
f 31/31/31 32/32/32 33/33/33
f 34/34/34 31/31/31 33/33/33
f 34/34/34 33/33/33 35/35/35
f 36/36/36 34/34/34 35/35/35
f 36/36/36 35/35/35 37/37/37
f 35/35/35 38/38/38 37/37/37
f 37/37/37 38/38/38 39/39/39
f 38/38/38 40/40/40 39/39/39
f 43/43/43 42/42/42 41/41/41
f 42/42/42 44/44/44 41/41/41
f 41/41/41 44/44/44 45/45/45
f 46/46/46 41/41/41 45/45/45
f 46/46/46 45/45/45 47/47/47
f 48/48/48 46/46/46 47/47/47
f 48/48/48 47/47/47 49/49/49
f 47/47/47 50/50/50 49/49/49
f 49/49/49 50/50/50 51/51/51
f 50/50/50 52/52/52 51/51/51
f 51/51/51 52/52/52 53/53/53
f 52/52/52 54/54/54 53/53/53
f 53/53/53 54/54/54 55/55/55
f 54/54/54 56/56/56 55/55/55
f 55/55/55 56/56/56 57/57/57
f 56/56/56 58/58/58 57/57/57
f 57/57/57 58/58/58 59/59/59
f 58/58/58 60/60/60 59/59/59
f 59/59/59 60/60/60 61/61/61
f 62/62/62 59/59/59 61/61/61
f 62/62/62 61/61/61 63/63/63
f 64/64/64 62/62/62 63/63/63
f 64/64/64 63/63/63 65/65/65
f 63/63/63 66/66/66 65/65/65
f 65/65/65 66/66/66 67/67/67
f 66/66/66 68/68/68 67/67/67
f 71/71/71 70/70/70 69/69/69
f 72/72/72 71/71/71 69/69/69
f 71/71/71 73/73/73 70/70/70
f 73/73/73 74/74/74 70/70/70
f 75/75/75 71/71/71 72/72/72
f 76/76/76 75/75/75 72/72/72
f 77/77/77 75/75/75 76/76/76
f 77/77/77 78/78/78 75/75/75
f 78/78/78 79/79/79 75/75/75
f 75/75/75 80/80/80 71/71/71
f 79/79/79 80/80/80 75/75/75
f 80/80/80 73/73/73 71/71/71
f 79/79/79 81/81/81 80/80/80
f 81/81/81 82/82/82 80/80/80
f 80/80/80 82/82/82 73/73/73
f 81/81/81 83/83/83 82/82/82
f 73/73/73 84/84/84 74/74/74
f 82/82/82 84/84/84 73/73/73
f 84/84/84 85/85/85 74/74/74
f 83/83/83 86/86/86 82/82/82
f 82/82/82 86/86/86 84/84/84
f 83/83/83 87/87/87 86/86/86
f 84/84/84 88/88/88 85/85/85
f 86/86/86 88/88/88 84/84/84
f 88/88/88 89/89/89 85/85/85
f 88/88/88 90/90/90 89/89/89
f 87/87/87 91/91/91 86/86/86
f 86/86/86 91/91/91 88/88/88
f 87/87/87 92/92/92 91/91/91
f 88/88/88 93/93/93 90/90/90
f 91/91/91 93/93/93 88/88/88
f 91/91/91 92/92/92 93/93/93
f 93/93/93 94/94/94 90/90/90
f 92/92/92 94/94/94 93/93/93
f 97/97/97 96/96/96 95/95/95
f 97/97/97 95/95/95 98/98/98
f 96/96/96 99/99/99 95/95/95
f 96/96/96 100/100/100 99/99/99
f 95/95/95 101/101/101 98/98/98
f 98/98/98 101/101/101 102/102/102
f 95/95/95 99/99/99 103/103/103
f 95/95/95 103/103/103 101/101/101
f 99/99/99 104/104/104 103/103/103
f 103/103/103 105/105/105 101/101/101
f 101/101/101 106/106/106 102/102/102
f 101/101/101 105/105/105 106/106/106
f 102/102/102 106/106/106 107/107/107
f 105/105/105 108/108/108 106/106/106
f 99/99/99 109/109/109 104/104/104
f 100/100/100 109/109/109 99/99/99
f 109/109/109 110/110/110 104/104/104
f 111/111/111 110/110/110 109/109/109
f 106/106/106 112/112/112 107/107/107
f 106/106/106 108/108/108 112/112/112
f 107/107/107 112/112/112 113/113/113
f 108/108/108 114/114/114 112/112/112
f 115/115/115 109/109/109 100/100/100
f 115/115/115 111/111/111 109/109/109
f 116/116/116 115/115/115 100/100/100
f 117/117/117 111/111/111 115/115/115
f 112/112/112 118/118/118 113/113/113
f 112/112/112 114/114/114 118/118/118
f 113/113/113 118/118/118 119/119/119
f 114/114/114 120/120/120 118/118/118
f 121/121/121 115/115/115 116/116/116
f 121/121/121 117/117/117 115/115/115
f 122/122/122 121/121/121 116/116/116
f 123/123/123 117/117/117 121/121/121
f 118/118/118 124/124/124 119/119/119
f 118/118/118 120/120/120 124/124/124
f 120/120/120 125/125/125 124/124/124
f 119/119/119 124/124/124 126/126/126
f 127/127/127 121/121/121 122/122/122
f 127/127/127 123/123/123 121/121/121
f 128/128/128 127/127/127 122/122/122
f 129/129/129 123/123/123 127/127/127
f 124/124/124 125/125/125 130/130/130
f 124/124/124 130/130/130 126/126/126
f 125/125/125 131/131/131 130/130/130
f 130/130/130 131/131/131 132/132/132
f 133/133/133 127/127/127 128/128/128
f 133/133/133 129/129/129 127/127/127
f 134/134/134 133/133/133 128/128/128
f 135/135/135 129/129/129 133/133/133
f 126/126/126 130/130/130 136/136/136
f 136/136/136 130/130/130 132/132/132
f 137/137/137 126/126/126 136/136/136
f 136/136/136 132/132/132 138/138/138
f 139/139/139 133/133/133 134/134/134
f 139/139/139 135/135/135 133/133/133
f 138/138/138 135/135/135 139/139/139
f 140/140/140 139/139/139 134/134/134
f 137/137/137 136/136/136 141/141/141
f 141/141/141 136/136/136 138/138/138
f 141/141/141 138/138/138 139/139/139
f 141/141/141 139/139/139 140/140/140
f 142/142/142 137/137/137 141/141/141
f 142/142/142 141/141/141 140/140/140
