g areaBridge01
v 0.66496116 -0.29236695 -4.981897
v 1.7380934 -0.8682782 -4.044612
v 1.8537331 -0.29236695 -4.105461
v 0.60153335 -0.86643434 -4.8747582
v -0.9394748 -0.29236695 -4.9421167
v 1.5724952 -1.1218731 -3.7555542
v -0.9394748 -0.8696661 -4.875349
v -2.38395 -0.29236695 -4.4370823
v -2.2642844 -0.8908307 -4.4268775
v 0.57214373 -1.3325915 -4.5576344
v -0.81347144 -1.3325915 -4.546272
v -1.8822972 -1.2819995 -4.162683
v 0.57214373 -1.3481448 -0.95506096
v 1.6538819 -1.1337359 -1.0021117
v 2.2206984 -1.2399701 1.2884252
v -0.7556272 -1.3819277 -0.95506096
v -2.403264 -1.3306887 -0.95506096
v 0.41928485 -1.3344733 1.2884252
v 1.8256959 -1.3159933 3.569343
v 0.41928485 -1.3095711 3.9139867
v -0.5339744 -1.354464 1.2884252
v -1.7957761 -1.2966559 1.4454956
v -0.5339744 -1.3651984 3.9139867
v -1.5334398 -1.2692889 3.4654565
v 1.893296 -0.83657897 -1.1112133
v 1.8537331 -0.29236695 -4.105461
v 1.7380934 -0.8682782 -4.044612
v 2.03729 -0.29236695 -1.1277026
v 2.6102567 -0.9087823 1.466853
v 2.5507276 -0.29236695 1.4001147
v 2.0100758 -0.9087823 3.8013792
v 1.950547 -0.29236695 3.734641
v 0.492654 -0.91936946 4.2176147
v 0.492654 -0.29236695 4.338249
v -0.5365794 -0.90566707 4.087473
v -0.62878644 -0.29236695 4.338249
v -1.5785252 -0.88453674 3.7119994
v -1.7899705 -0.29236695 3.7755053
v -2.2049632 -0.88453674 1.629641
v -2.125803 -0.29236695 1.5758862
v -2.6006198 -0.8466388 -1.069016
v -2.775942 -0.29236695 -1.0561303
v -2.2642844 -0.8908307 -4.4268775
v -2.38395 -0.29236695 -4.4370823
v -2.6006198 -0.8466388 -1.069016
v -1.8822972 -1.2819995 -4.162683
v -2.2642844 -0.8908307 -4.4268775
v -2.403264 -1.3306887 -0.95506096
v -2.2049632 -0.88453674 1.629641
v -1.7957761 -1.2966559 1.4454956
v -1.5785252 -0.88453674 3.7119994
v -1.5334398 -1.2692889 3.4654565
v -0.5365794 -0.90566707 4.087473
v -0.5339744 -1.3651984 3.9139867
v 0.492654 -0.91936946 4.2176147
v 0.41928485 -1.3095711 3.9139867
v 2.0100758 -0.9087823 3.8013792
v 1.8256959 -1.3159933 3.569343
v 2.6102567 -0.9087823 1.466853
v 2.2206984 -1.2399701 1.2884252
v 1.893296 -0.83657897 -1.1112133
v 1.6538819 -1.1337359 -1.0021117
v 1.7380934 -0.8682782 -4.044612
v 1.5724952 -1.1218731 -3.7555542
v -1.60072 0 3.558899
v -1.8093797 6.1035155E-07 1.4508618
v -0.5378831 0 1.29302
v -0.5378831 -6.1035155E-07 3.931472
v -0.76057106 0 -0.95923084
v -2.4186227 0 -0.95923084
v -2.070759 0 -4.1508226
v -0.8186643 6.1035155E-07 -4.56259
v 0.57596695 6.1035155E-07 -4.5751243
v 0.57596695 0 -0.95923084
v 1.584087 -6.1035155E-07 -3.769978
v 1.6696827 -6.1035155E-07 -1.0235033
v 0.4223073 0 1.29302
v 0.4223073 0 3.931472
v 2.2343018 0 1.29302
v 1.6746534 0 3.4235473
v -2.125803 -0.29236695 1.5758862
v -2.0128171 -0.13039002 1.5312426
v -1.6986277 -0.13039002 3.6662865
v -1.7899705 -0.29236695 3.7755053
v -2.775942 -0.29236695 -1.0561303
v -0.5963279 -0.13039002 4.1929955
v -0.62878644 -0.29236695 4.338249
v -2.6483517 -0.13039002 -1.0215306
v -2.38395 -0.29236695 -4.4370823
v 0.46753436 -0.13039002 4.1929955
v 0.492654 -0.29236695 4.338249
v -2.2721164 -0.13039002 -4.3348656
v -0.9394748 -0.29236695 -4.9421167
v 1.8520314 -0.13039002 3.623557
v 1.950547 -0.29236695 3.734641
v -0.8963352 -0.13039002 -4.806599
v 0.66496116 -0.29236695 -4.981897
v 2.4377394 -0.13039002 1.3618726
v 2.5507276 -0.29236695 1.4001147
v 0.6331838 -0.13039002 -4.836648
v 1.8537331 -0.29236695 -4.105461
v 1.9060255 -0.13039002 -1.0904955
v 2.03729 -0.29236695 -1.1277026
v 1.7574488 -0.13039002 -3.9856665
v 1.6746534 0 3.4235473
v 0.4223073 0 3.931472
v 2.2343018 0 1.29302
v 1.6696827 -6.1035155E-07 -1.0235033
v -0.5378831 -6.1035155E-07 3.931472
v 1.584087 -6.1035155E-07 -3.769978
v 0.57596695 6.1035155E-07 -4.5751243
v -1.60072 0 3.558899
v -0.8186643 6.1035155E-07 -4.56259
v -1.8093797 6.1035155E-07 1.4508618
v -2.070759 0 -4.1508226
v -2.4186227 0 -0.95923084
vt 0.5416667 0.5
vt 0.625 0.64583325
vt 0.625 0.5
vt 0.5416667 0.64583325
vt 0.45833334 0.5
vt 0.625 0.74999994
vt 0.45833334 0.64583325
vt 0.375 0.5
vt 0.375 0.64583325
vt 0.5416667 0.74999994
vt 0.45833334 0.74999994
vt 0.375 0.74999994
vt 0.5416667 0.83333325
vt 0.625 0.83333325
vt 0.625 0.91666657
vt 0.45833334 0.83333325
vt 0.375 0.83333325
vt 0.5416667 0.91666657
vt 0.625 0.9999999
vt 0.5416667 0.9999999
vt 0.45833334 0.91666657
vt 0.375 0.91666657
vt 0.45833334 0.9999999
vt 0.375 0.9999999
vt 0.7916667 0.10416667
vt 0.875 0.25
vt 0.875 0.10416667
vt 0.7916667 0.25
vt 0.7083334 0.10416667
vt 0.7083334 0.25
vt 0.625 0.10416667
vt 0.625 0.25
vt 0.5416667 0.10416667
vt 0.5416667 0.25
vt 0.45833334 0.10416667
vt 0.45833334 0.25
vt 0.375 0.10416667
vt 0.375 0.25
vt 0.2916667 0.10416667
vt 0.2916667 0.25
vt 0.20833334 0.10416667
vt 0.20833334 0.25
vt 0.125 0.10416667
vt 0.125 0.25
vt 0.375 0.83333325
vt 0.375 0.74999994
vt 0.375 0.64583325
vt 0.375 0.83333325
vt 0.375 0.91666657
vt 0.375 0.91666657
vt 0.375 0.9999999
vt 0.375 0.9999999
vt 0.45833334 0.9999999
vt 0.45833334 0.9999999
vt 0.5416667 0.9999999
vt 0.5416667 0.9999999
vt 0.625 0.9999999
vt 0.625 0.9999999
vt 0.625 0.91666657
vt 0.625 0.91666657
vt 0.625 0.83333325
vt 0.625 0.83333325
vt 0.625 0.64583325
vt 0.625 0.74999994
vt 0.375 0.25
vt 0.375 0.33333334
vt 0.45833334 0.33333334
vt 0.45833334 0.25
vt 0.45833334 0.4166667
vt 0.375 0.4166667
vt 0.375 0.5
vt 0.45833334 0.5
vt 0.5416667 0.5
vt 0.5416667 0.4166667
vt 0.625 0.5
vt 0.625 0.4166667
vt 0.5416667 0.33333334
vt 0.5416667 0.25
vt 0.625 0.33333334
vt 0.625 0.25
vt 0.375 0.33333334
vt 0.375 0.33333334
vt 0.375 0.25
vt 0.375 0.25
vt 0.375 0.4166667
vt 0.45833334 0.25
vt 0.45833334 0.25
vt 0.375 0.4166667
vt 0.375 0.5
vt 0.5416667 0.25
vt 0.5416667 0.25
vt 0.375 0.5
vt 0.45833334 0.5
vt 0.625 0.25
vt 0.625 0.25
vt 0.45833334 0.5
vt 0.5416667 0.5
vt 0.625 0.33333334
vt 0.625 0.33333334
vt 0.5416667 0.5
vt 0.625 0.5
vt 0.625 0.4166667
vt 0.625 0.4166667
vt 0.625 0.5
vt 0.625 0.25
vt 0.5416667 0.25
vt 0.625 0.33333334
vt 0.625 0.4166667
vt 0.45833334 0.25
vt 0.625 0.5
vt 0.5416667 0.5
vt 0.375 0.25
vt 0.45833334 0.5
vt 0.375 0.33333334
vt 0.375 0.5
vt 0.375 0.4166667
vn 0.29599762 0.03599483 -0.9545102
vn 0.85785913 -0.38072544 -0.34514618
vn 0.93697596 -0.036814813 -0.34744906
vn 0.25525826 -0.3777889 -0.8900106
vn -0.1677654 0.082633875 -0.9823576
vn 0.4655479 -0.87950474 -0.09867453
vn -0.1573743 -0.3542097 -0.921829
vn -0.9167998 -0.032148212 -0.39805096
vn -0.8286191 -0.40631464 -0.38509578
vn 0.09224436 -0.981478 -0.16790426
vn -0.02641597 -0.9837945 -0.17734319
vn -0.408307 -0.89474 -0.18090281
vn 0.06452928 -0.9978503 -0.011437655
vn 0.31897107 -0.945932 -0.05890853
vn 0.32579258 -0.944523 -0.041660815
vn -0.0073972703 -0.9999727 4.8873746E-05
vn -0.36836094 -0.9295801 0.013822347
vn 0.05481239 -0.99845827 -0.008767222
vn 0.30751967 -0.9280941 0.20993596
vn 0.045559857 -0.97438216 0.22023581
vn -0.003356424 -0.99992824 0.011502405
vn -0.3190354 -0.9448327 0.07421299
vn -0.051284872 -0.9757568 0.21276402
vn -0.4513594 -0.8674226 0.20941024
vn 0.919658 -0.36874476 -0.13511607
vn 0.93697596 -0.036814813 -0.34744906
vn 0.85785913 -0.38072544 -0.34514618
vn 0.9898318 0.034711562 -0.13794243
vn 0.95913815 -0.2820579 0.022301221
vn 0.9882975 0.15253219 -0.0014517832
vn 0.77003634 -0.25508663 0.58478624
vn 0.789986 0.20326822 0.57844967
vn 0.15172195 -0.31735745 0.9360902
vn 0.17736913 0.06054135 0.98228043
vn -0.21510334 -0.37255508 0.90273654
vn -0.24185996 -0.07304295 0.967558
vn -0.76949096 -0.34344667 0.5384496
vn -0.8671857 -0.004011319 0.49796882
vn -0.93005955 -0.31190425 0.19417755
vn -0.9758906 0.08389107 0.20149393
vn -0.9293112 -0.3691585 0.010134163
vn -0.9993318 0.026468333 0.025207976
vn -0.8286191 -0.40631464 -0.38509578
vn -0.9167998 -0.032148212 -0.39805096
vn -0.9293112 -0.3691585 0.010134163
vn -0.408307 -0.89474 -0.18090281
vn -0.8286191 -0.40631464 -0.38509578
vn -0.36836094 -0.9295801 0.013822347
vn -0.93005955 -0.31190425 0.19417755
vn -0.3190354 -0.9448327 0.07421299
vn -0.76949096 -0.34344667 0.5384496
vn -0.4513594 -0.8674226 0.20941024
vn -0.21510334 -0.37255508 0.90273654
vn -0.051284872 -0.9757568 0.21276402
vn 0.15172195 -0.31735745 0.9360902
vn 0.045559857 -0.97438216 0.22023581
vn 0.77003634 -0.25508663 0.58478624
vn 0.30751967 -0.9280941 0.20993596
vn 0.95913815 -0.2820579 0.022301221
vn 0.32579258 -0.944523 -0.041660815
vn 0.919658 -0.36874476 -0.13511607
vn 0.31897107 -0.945932 -0.05890853
vn 0.85785913 -0.38072544 -0.34514618
vn 0.4655479 -0.87950474 -0.09867453
vn -0.17113753 0.9817234 0.08325342
vn -0.09683726 0.9951132 0.019296397
vn -0 1 0
vn -0.014916346 0.99734133 0.07132821
vn -0 1 0
vn -0.11810947 0.9929599 0.008984338
vn -0.14402865 0.98755205 -0.063219264
vn -0.008125069 0.998588 -0.052496623
vn 0.01951852 0.9981665 -0.05729461
vn 1.4379495E-07 1 0
vn 0.16945681 0.9846427 -0.041991647
vn 0.10044273 0.9948494 -0.01363264
vn -0 1 0
vn 0.017542137 0.99701595 0.075176165
vn 0.12079863 0.9926698 -0.0037757365
vn 0.12910642 0.98802096 0.08453498
vn -0.9758906 0.08389107 0.20149393
vn -0.68202496 0.7188255 0.13465455
vn -0.60541385 0.7296089 0.318033
vn -0.8671857 -0.004011319 0.49796882
vn -0.9993318 0.026468333 0.025207976
vn -0.14292875 0.7778158 0.6120244
vn -0.24185996 -0.07304295 0.967558
vn -0.65271485 0.7570798 0.028169408
vn -0.9167998 -0.032148212 -0.39805096
vn 0.13649072 0.7979668 0.5870428
vn 0.17736913 0.06054135 0.98228043
vn -0.5654737 0.78185874 -0.26255748
vn -0.1677654 0.082633875 -0.9823576
vn 0.5168559 0.77655923 0.36029944
vn 0.789986 0.20326822 0.57844967
vn -0.104182936 0.78973585 -0.6045355
vn 0.29599762 0.03599483 -0.9545102
vn 0.6652623 0.7465527 0.009232698
vn 0.9882975 0.15253219 -0.0014517832
vn 0.17749068 0.79925835 -0.57418036
vn 0.93697596 -0.036814813 -0.34744906
vn 0.652311 0.75344265 -0.08254966
vn 0.9898318 0.034711562 -0.13794243
vn 0.61504066 0.7597842 -0.21083872
vn 0.12910642 0.98802096 0.08453498
vn 0.017542137 0.99701595 0.075176165
vn 0.12079863 0.9926698 -0.0037757365
vn 0.10044273 0.9948494 -0.01363264
vn -0.014916346 0.99734133 0.07132821
vn 0.16945681 0.9846427 -0.041991647
vn 0.01951852 0.9981665 -0.05729461
vn -0.17113753 0.9817234 0.08325342
vn -0.008125069 0.998588 -0.052496623
vn -0.09683726 0.9951132 0.019296397
vn -0.14402865 0.98755205 -0.063219264
vn -0.11810947 0.9929599 0.008984338
g areaBridge01_0
f 3/3/3 2/2/2 1/1/1
f 2/2/2 4/4/4 1/1/1
f 1/1/1 4/4/4 5/5/5
f 2/2/2 6/6/6 4/4/4
f 4/4/4 7/7/7 5/5/5
f 5/5/5 7/7/7 8/8/8
f 7/7/7 9/9/9 8/8/8
f 6/6/6 10/10/10 4/4/4
f 4/4/4 10/10/10 7/7/7
f 7/7/7 11/11/11 9/9/9
f 10/10/10 11/11/11 7/7/7
f 11/11/11 12/12/12 9/9/9
f 6/6/6 13/13/13 10/10/10
f 10/10/10 13/13/13 11/11/11
f 6/6/6 14/14/14 13/13/13
f 14/14/14 15/15/15 13/13/13
f 11/11/11 16/16/16 12/12/12
f 13/13/13 16/16/16 11/11/11
f 16/16/16 17/17/17 12/12/12
f 15/15/15 18/18/18 13/13/13
f 13/13/13 18/18/18 16/16/16
f 15/15/15 19/19/19 18/18/18
f 19/19/19 20/20/20 18/18/18
f 16/16/16 21/21/21 17/17/17
f 18/18/18 21/21/21 16/16/16
f 18/18/18 20/20/20 21/21/21
f 21/21/21 22/22/22 17/17/17
f 20/20/20 23/23/23 21/21/21
f 21/21/21 24/24/24 22/22/22
f 21/21/21 23/23/23 24/24/24
f 27/27/27 26/26/26 25/25/25
f 26/26/26 28/28/28 25/25/25
f 25/25/25 28/28/28 29/29/29
f 28/28/28 30/30/30 29/29/29
f 29/29/29 30/30/30 31/31/31
f 30/30/30 32/32/32 31/31/31
f 31/31/31 32/32/32 33/33/33
f 32/32/32 34/34/34 33/33/33
f 33/33/33 34/34/34 35/35/35
f 34/34/34 36/36/36 35/35/35
f 35/35/35 36/36/36 37/37/37
f 36/36/36 38/38/38 37/37/37
f 37/37/37 38/38/38 39/39/39
f 38/38/38 40/40/40 39/39/39
f 39/39/39 40/40/40 41/41/41
f 40/40/40 42/42/42 41/41/41
f 41/41/41 42/42/42 43/43/43
f 42/42/42 44/44/44 43/43/43
f 47/47/47 46/46/46 45/45/45
f 46/46/46 48/48/48 45/45/45
f 45/45/45 48/48/48 49/49/49
f 48/48/48 50/50/50 49/49/49
f 49/49/49 50/50/50 51/51/51
f 50/50/50 52/52/52 51/51/51
f 51/51/51 52/52/52 53/53/53
f 52/52/52 54/54/54 53/53/53
f 53/53/53 54/54/54 55/55/55
f 54/54/54 56/56/56 55/55/55
f 55/55/55 56/56/56 57/57/57
f 56/56/56 58/58/58 57/57/57
f 57/57/57 58/58/58 59/59/59
f 58/58/58 60/60/60 59/59/59
f 59/59/59 60/60/60 61/61/61
f 60/60/60 62/62/62 61/61/61
f 61/61/61 62/62/62 63/63/63
f 62/62/62 64/64/64 63/63/63
f 67/67/67 66/66/66 65/65/65
f 68/68/68 67/67/67 65/65/65
f 67/67/67 69/69/69 66/66/66
f 69/69/69 70/70/70 66/66/66
f 69/69/69 71/71/71 70/70/70
f 69/69/69 72/72/72 71/71/71
f 73/73/73 72/72/72 69/69/69
f 74/74/74 73/73/73 69/69/69
f 74/74/74 69/69/69 67/67/67
f 75/75/75 73/73/73 74/74/74
f 76/76/76 75/75/75 74/74/74
f 77/77/77 67/67/67 68/68/68
f 77/77/77 74/74/74 67/67/67
f 76/76/76 74/74/74 77/77/77
f 78/78/78 77/77/77 68/68/68
f 79/79/79 76/76/76 77/77/77
f 80/80/80 77/77/77 78/78/78
f 80/80/80 79/79/79 77/77/77
f 83/83/83 82/82/82 81/81/81
f 84/84/84 83/83/83 81/81/81
f 81/81/81 82/82/82 85/85/85
f 86/86/86 83/83/83 84/84/84
f 87/87/87 86/86/86 84/84/84
f 82/82/82 88/88/88 85/85/85
f 85/85/85 88/88/88 89/89/89
f 90/90/90 86/86/86 87/87/87
f 91/91/91 90/90/90 87/87/87
f 88/88/88 92/92/92 89/89/89
f 89/89/89 92/92/92 93/93/93
f 94/94/94 90/90/90 91/91/91
f 95/95/95 94/94/94 91/91/91
f 92/92/92 96/96/96 93/93/93
f 93/93/93 96/96/96 97/97/97
f 98/98/98 94/94/94 95/95/95
f 99/99/99 98/98/98 95/95/95
f 96/96/96 100/100/100 97/97/97
f 97/97/97 100/100/100 101/101/101
f 102/102/102 98/98/98 99/99/99
f 103/103/103 102/102/102 99/99/99
f 101/101/101 104/104/104 103/103/103
f 100/100/100 104/104/104 101/101/101
f 104/104/104 102/102/102 103/103/103
f 94/94/94 105/105/105 90/90/90
f 105/105/105 106/106/106 90/90/90
f 107/107/107 105/105/105 94/94/94
f 98/98/98 107/107/107 94/94/94
f 90/90/90 106/106/106 86/86/86
f 108/108/108 107/107/107 98/98/98
f 102/102/102 108/108/108 98/98/98
f 106/106/106 109/109/109 86/86/86
f 110/110/110 108/108/108 102/102/102
f 104/104/104 110/110/110 102/102/102
f 86/86/86 109/109/109 83/83/83
f 111/111/111 110/110/110 104/104/104
f 100/100/100 111/111/111 104/104/104
f 109/109/109 112/112/112 83/83/83
f 113/113/113 111/111/111 100/100/100
f 83/83/83 112/112/112 82/82/82
f 96/96/96 113/113/113 100/100/100
f 112/112/112 114/114/114 82/82/82
f 115/115/115 113/113/113 96/96/96
f 82/82/82 114/114/114 88/88/88
f 92/92/92 115/115/115 96/96/96
f 114/114/114 116/116/116 88/88/88
f 116/116/116 115/115/115 92/92/92
f 88/88/88 116/116/116 92/92/92
