g areaBridge03
v 0.859773 -0.7841937 -8.217746
v 1.9329077 -1.4308624 -7.280461
v 2.0485473 -0.7841937 -7.34131
v 0.7963453 -1.4290185 -8.110607
v -0.74466056 -0.7841937 -8.177965
v 1.767307 -1.6844573 -6.991403
v -0.74466056 -1.4322504 -8.111197
v -2.189137 -0.7841937 -7.672931
v -2.0694737 -1.4534149 -7.6627264
v 0.7669556 -1.8951757 -7.7934833
v -0.6186596 -1.8951757 -7.7821207
v -1.6874828 -1.8445837 -7.398532
v 0.7669556 -1.7840643 -5.2588983
v 1.8486938 -1.4495026 -5.305949
v 2.1224096 -1.1340716 -1.6673551
v -0.56081784 -1.6976947 -5.2588983
v -2.2084484 -1.6464556 -5.2588983
v 0.68083256 -1.5299329 -1.6438296
v 1.889392 -1.2601416 1.8207455
v -0.459685 -1.4428375 -1.6438296
v -1.9144018 -1.3268024 -1.5652945
v 0.267898 -1.5120441 1.8325131
v 2.1748462 -1.6123168 4.6754084
v -0.7789916 -1.5354828 1.8325131
v -2.1372473 -1.4576514 1.9503158
v 0.3734302 -1.70682 4.6754084
v 1.7798413 -1.8785776 6.956326
v 0.3734302 -1.8721554 7.3009744
v -0.5798266 -1.7268109 4.6754084
v -1.8416284 -1.7088488 4.832479
v -0.5798266 -1.9277825 7.3009744
v -1.5792944 -1.8318732 6.8524394
v 2.0881078 -1.1523455 -5.4150505
v 2.0485473 -0.7841937 -7.34131
v 1.9329077 -1.4308624 -7.280461
v 2.324707 -0.61454284 -5.43154
v 2.5717332 -0.3612213 -1.6743082
v 2.4368968 -0.81989926 -1.6326967
v 2.3117895 -0.3655255 1.8731185
v 2.2414136 -0.93746215 1.9272884
v 2.5644066 -1.2811291 4.853836
v 2.5048754 -0.6534332 4.787098
v 1.8280444 -1.4713665 7.0565605
v 1.9046948 -0.7841937 7.1216288
v 0.44679934 -1.4819537 7.6045976
v 0.44679934 -0.7841937 7.7252326
v -0.5824292 -1.4682513 7.474461
v -0.674641 -0.7841937 7.7252326
v -1.6243774 -1.4471209 7.0989823
v -1.8358227 -0.7841937 7.1624885
v -2.2508166 -1.2568835 5.016629
v -2.1716564 -0.6534332 4.9628696
v -2.5456653 -0.42962036 2.0228353
v -2.5612023 -0.92179257 2.0599349
v -2.2852552 -0.4533264 -1.5506363
v -2.237174 -0.9468066 -1.5302017
v -2.4058068 -1.1624054 -5.3728533
v -2.581129 -0.61454284 -5.3599677
v -2.0694737 -1.4534149 -7.6627264
v -2.189137 -0.7841937 -7.672931
v -2.4058068 -1.1624054 -5.3728533
v -1.6874828 -1.8445837 -7.398532
v -2.0694737 -1.4534149 -7.6627264
v -2.2084484 -1.6464556 -5.2588983
v -1.9144018 -1.3268024 -1.5652945
v -2.237174 -0.9468066 -1.5302017
v -2.1372473 -1.4576514 1.9503158
v -2.5612023 -0.92179257 2.0599349
v -2.2508166 -1.2568835 5.016629
v -1.8416284 -1.7088488 4.832479
v -1.6243774 -1.4471209 7.0989823
v -1.5792944 -1.8318732 6.8524394
v -0.5824292 -1.4682513 7.474461
v -0.5798266 -1.9277825 7.3009744
v 0.44679934 -1.4819537 7.6045976
v 0.3734302 -1.8721554 7.3009744
v 1.8280444 -1.4713665 7.0565605
v 1.7798413 -1.8785776 6.956326
v 2.5644066 -1.2811291 4.853836
v 2.1748462 -1.6123168 4.6754084
v 1.889392 -1.2601416 1.8207455
v 2.2414136 -0.93746215 1.9272884
v 2.1224096 -1.1340716 -1.6673551
v 2.4368968 -0.81989926 -1.6326967
v 2.0881078 -1.1523455 -5.4150505
v 1.8486938 -1.4495026 -5.305949
v 1.9329077 -1.4308624 -7.280461
v 1.767307 -1.6844573 -6.991403
v -1.6465697 -0.4142328 6.9458866
v -1.8552319 -0.34533262 4.83785
v -0.58373284 -0.2055426 4.680008
v -0.58373284 -0.40301147 7.318455
v -0.78315663 0 1.8349154
v -2.1512902 -0.119400024 1.9532943
v 0.37645754 -0.2055426 4.680008
v 0.37645754 -0.39453125 7.318455
v 1.6288012 -0.4676129 6.810535
v 2.1884496 -0.33685303 4.680008
v 1.9035424 -0.10258911 1.8188461
v 0.27112067 0 1.8349154
v 2.1371117 -0.023738403 -1.6757535
v 0.6842603 0.050129395 -1.6436197
v 1.8644946 -0.25615904 -5.3273406
v -0.46410882 0.050129395 -1.6436197
v -1.9288843 -0.048880614 -1.5646988
v 0.7707789 -0.23973387 -5.263068
v 1.7788988 -0.38204893 -7.005827
v 0.7707789 -0.4180194 -7.810973
v -0.56575924 -0.23973387 -5.263068
v -2.2238097 -0.29796264 -5.263068
v -0.62385005 -0.43231568 -7.798439
v -1.8759447 -0.40508482 -7.3866715
v 2.1942358 -0.19013366 1.8537338
v 2.5717332 -0.3612213 -1.6743082
v 2.3117895 -0.3655255 1.8731185
v 2.5048754 -0.6534332 4.787098
v 2.4496093 -0.18582946 -1.6748257
v 2.324707 -0.61454284 -5.43154
v 2.3918872 -0.47804198 4.7488556
v 1.9046948 -0.7841937 7.1216288
v 1.9035424 -0.10258911 1.8188461
v 2.1371117 -0.023738403 -1.6757535
v 2.1884496 -0.33685303 4.680008
v 1.8061792 -0.60880184 7.010545
v 0.44679934 -0.7841937 7.7252326
v 1.6288012 -0.4676129 6.810535
v 2.1934423 -0.43915161 -5.394333
v 1.8644946 -0.25615904 -5.3273406
v 1.7788988 -0.38204893 -7.005827
v 0.42168215 -0.60880184 7.579988
v -0.674641 -0.7841937 7.7252326
v 0.37645754 -0.39453125 7.318455
v 1.9522631 -0.60880184 -7.221515
v 2.0485473 -0.7841937 -7.34131
v 0.7707789 -0.4180194 -7.810973
v -0.6421801 -0.60880184 7.579988
v -1.8358227 -0.7841937 7.1624885
v -0.58373284 -0.40301147 7.318455
v 0.82799566 -0.60880184 -8.072496
v 0.859773 -0.7841937 -8.217746
v -0.62385005 -0.43231568 -7.798439
v -1.7444799 -0.60880184 7.0532694
v -1.6465697 -0.4142328 6.9458866
v -2.1716564 -0.6534332 4.9628696
v -0.7015258 -0.60880184 -8.042448
v -0.74466056 -0.7841937 -8.177965
v -1.8759447 -0.40508482 -7.3866715
v -2.0586681 -0.47804198 4.918231
v -1.8552319 -0.34533262 4.83785
v -2.1512902 -0.119400024 1.9532943
v -2.0773058 -0.60880184 -7.5707145
v -2.189137 -0.7841937 -7.672931
v -2.2238097 -0.29796264 -5.263068
v -2.3613 -0.25422913 1.9980062
v -2.5456653 -0.42962036 2.0228353
v -1.9288843 -0.048880614 -1.5646988
v -2.4535413 -0.43915161 -5.325368
v -2.581129 -0.61454284 -5.3599677
v -2.1454651 -0.18582946 -1.5556558
v -2.2852552 -0.4533264 -1.5506363
vt 0.5416667 0.5
vt 0.625 0.64583325
vt 0.625 0.5
vt 0.5416667 0.64583325
vt 0.45833334 0.5
vt 0.625 0.74999994
vt 0.45833334 0.64583325
vt 0.375 0.5
vt 0.375 0.64583325
vt 0.5416667 0.74999994
vt 0.45833334 0.74999994
vt 0.375 0.74999994
vt 0.5416667 0.83333325
vt 0.625 0.83333325
vt 0.625 0.8749999
vt 0.45833334 0.83333325
vt 0.375 0.83333325
vt 0.5416667 0.8749999
vt 0.625 0.89583325
vt 0.45833334 0.8749999
vt 0.375 0.8749999
vt 0.5416667 0.89583325
vt 0.625 0.91666657
vt 0.45833334 0.89583325
vt 0.375 0.89583325
vt 0.5416667 0.91666657
vt 0.625 0.9999999
vt 0.5416667 0.9999999
vt 0.45833334 0.91666657
vt 0.375 0.91666657
vt 0.45833334 0.9999999
vt 0.375 0.9999999
vt 0.7916667 0.10416667
vt 0.875 0.25
vt 0.875 0.10416667
vt 0.7916667 0.25
vt 0.75 0.25
vt 0.75 0.10416667
vt 0.7291667 0.25
vt 0.7291667 0.10416667
vt 0.7083334 0.10416667
vt 0.7083334 0.25
vt 0.625 0.10416667
vt 0.625 0.25
vt 0.5416667 0.10416667
vt 0.5416667 0.25
vt 0.45833334 0.10416667
vt 0.45833334 0.25
vt 0.375 0.10416667
vt 0.375 0.25
vt 0.2916667 0.10416667
vt 0.2916667 0.25
vt 0.27083334 0.25
vt 0.27083334 0.10416667
vt 0.25 0.25
vt 0.25 0.10416667
vt 0.20833334 0.10416667
vt 0.20833334 0.25
vt 0.125 0.10416667
vt 0.125 0.25
vt 0.375 0.83333325
vt 0.375 0.74999994
vt 0.375 0.64583325
vt 0.375 0.83333325
vt 0.375 0.8749999
vt 0.375 0.8749999
vt 0.375 0.89583325
vt 0.375 0.89583325
vt 0.375 0.91666657
vt 0.375 0.91666657
vt 0.375 0.9999999
vt 0.375 0.9999999
vt 0.45833334 0.9999999
vt 0.45833334 0.9999999
vt 0.5416667 0.9999999
vt 0.5416667 0.9999999
vt 0.625 0.9999999
vt 0.625 0.9999999
vt 0.625 0.91666657
vt 0.625 0.91666657
vt 0.625 0.89583325
vt 0.625 0.89583325
vt 0.625 0.8749999
vt 0.625 0.8749999
vt 0.625 0.83333325
vt 0.625 0.83333325
vt 0.625 0.64583325
vt 0.625 0.74999994
vt 0.375 0.25
vt 0.375 0.33333334
vt 0.45833334 0.33333334
vt 0.45833334 0.25
vt 0.45833334 0.3541667
vt 0.375 0.3541667
vt 0.5416667 0.33333334
vt 0.5416667 0.25
vt 0.625 0.25
vt 0.625 0.33333334
vt 0.625 0.3541667
vt 0.5416667 0.3541667
vt 0.625 0.375
vt 0.5416667 0.375
vt 0.625 0.4166667
vt 0.45833334 0.375
vt 0.375 0.375
vt 0.5416667 0.4166667
vt 0.625 0.5
vt 0.5416667 0.5
vt 0.45833334 0.4166667
vt 0.375 0.4166667
vt 0.45833334 0.5
vt 0.375 0.5
vt 0.625 0.3541667
vt 0.625 0.375
vt 0.625 0.3541667
vt 0.625 0.33333334
vt 0.625 0.375
vt 0.625 0.4166667
vt 0.625 0.33333334
vt 0.625 0.25
vt 0.625 0.3541667
vt 0.625 0.375
vt 0.625 0.33333334
vt 0.625 0.25
vt 0.5416667 0.25
vt 0.625 0.25
vt 0.625 0.4166667
vt 0.625 0.4166667
vt 0.625 0.5
vt 0.5416667 0.25
vt 0.45833334 0.25
vt 0.5416667 0.25
vt 0.625 0.5
vt 0.625 0.5
vt 0.5416667 0.5
vt 0.45833334 0.25
vt 0.375 0.25
vt 0.45833334 0.25
vt 0.5416667 0.5
vt 0.5416667 0.5
vt 0.45833334 0.5
vt 0.375 0.25
vt 0.375 0.25
vt 0.375 0.33333334
vt 0.45833334 0.5
vt 0.45833334 0.5
vt 0.375 0.5
vt 0.375 0.33333334
vt 0.375 0.33333334
vt 0.375 0.3541667
vt 0.375 0.5
vt 0.375 0.5
vt 0.375 0.4166667
vt 0.375 0.3541667
vt 0.375 0.3541667
vt 0.375 0.375
vt 0.375 0.4166667
vt 0.375 0.4166667
vt 0.375 0.375
vt 0.375 0.375
vn 0.2954664 0.032741647 -0.9547919
vn 0.80524635 -0.40429053 -0.43373665
vn 0.8866796 -0.06670152 -0.45754805
vn 0.25878614 -0.3545804 -0.8985002
vn -0.16775905 0.07459618 -0.98300165
vn 0.47059408 -0.87885624 -0.07844092
vn -0.15858176 -0.33257446 -0.9296483
vn -0.8551861 -0.01923112 -0.5179642
vn -0.7781556 -0.39739618 -0.48636407
vn 0.073297985 -0.9826865 -0.17016044
vn -0.055184115 -0.98307854 -0.1746753
vn -0.3779924 -0.9108555 -0.16572273
vn 0.089220464 -0.9935901 0.06941503
vn 0.43188703 -0.9000667 0.057910077
vn 0.37490717 -0.9266481 0.0277128
vn -0.049832538 -0.99603844 0.07364886
vn -0.33841443 -0.9384449 0.06925924
vn 0.11447235 -0.99286604 0.03336443
vn 0.28226638 -0.95804155 -0.04982082
vn -0.055972412 -0.9979754 0.030201765
vn -0.28525314 -0.9581863 0.022572093
vn 0.08739652 -0.9952178 -0.04362802
vn 0.29619658 -0.9505992 -0.092891924
vn -0.038684715 -0.99818265 -0.046206094
vn -0.3259781 -0.9440571 -0.0499456
vn 0.05839354 -0.9945479 -0.08639793
vn 0.3132916 -0.93721515 0.1532194
vn 0.04706387 -0.9859207 0.16045353
vn -0.004670207 -0.9975311 -0.07007139
vn -0.35523292 -0.9344469 -0.024872052
vn -0.044150855 -0.98727524 0.15276903
vn -0.46172044 -0.8733139 0.15536097
vn 0.88787055 -0.45894617 -0.032471526
vn 0.8866796 -0.06670152 -0.45754805
vn 0.80524635 -0.40429053 -0.43373665
vn 0.9922598 -0.094678394 -0.08035298
vn 0.99956876 -0.028974485 -0.0047773016
vn 0.88303924 -0.46924597 0.007067967
vn 0.9966472 0.081668004 0.004959865
vn 0.910589 -0.41041642 -0.048846733
vn 0.9554823 -0.287556 0.066068694
vn 0.98893553 0.12313218 0.08273463
vn 0.76841444 -0.2722945 0.579133
vn 0.7978117 0.08331553 0.5971223
vn 0.18203746 -0.3024336 0.93562615
vn 0.20155385 -0.0018175701 0.9794758
vn -0.2173101 -0.35082543 0.9108775
vn -0.24160315 -0.06594665 0.96813166
vn -0.7791788 -0.33239606 0.5314068
vn -0.8639459 -0.009313497 0.50349844
vn -0.94011855 -0.31781346 0.12317373
vn -0.970618 0.17655338 0.16349165
vn -0.9738539 0.22647007 0.017886896
vn -0.9415056 -0.33699402 -0.0014796153
vn -0.9935727 0.1131853 -0.001552991
vn -0.92912686 -0.36976102 1.2286375E-05
vn -0.92837924 -0.37157366 -0.00671114
vn -0.99981207 0.00044277133 -0.019381119
vn -0.7781556 -0.39739618 -0.48636407
vn -0.8551861 -0.01923112 -0.5179642
vn -0.92837924 -0.37157366 -0.00671114
vn -0.3779924 -0.9108555 -0.16572273
vn -0.7781556 -0.39739618 -0.48636407
vn -0.33841443 -0.9384449 0.06925924
vn -0.28525314 -0.9581863 0.022572093
vn -0.92912686 -0.36976102 1.2286375E-05
vn -0.3259781 -0.9440571 -0.0499456
vn -0.9415056 -0.33699402 -0.0014796153
vn -0.94011855 -0.31781346 0.12317373
vn -0.35523292 -0.9344469 -0.024872052
vn -0.7791788 -0.33239606 0.5314068
vn -0.46172044 -0.8733139 0.15536097
vn -0.2173101 -0.35082543 0.9108775
vn -0.044150855 -0.98727524 0.15276903
vn 0.18203746 -0.3024336 0.93562615
vn 0.04706387 -0.9859207 0.16045353
vn 0.76841444 -0.2722945 0.579133
vn 0.3132916 -0.93721515 0.1532194
vn 0.9554823 -0.287556 0.066068694
vn 0.29619658 -0.9505992 -0.092891924
vn 0.28226638 -0.95804155 -0.04982082
vn 0.910589 -0.41041642 -0.048846733
vn 0.37490717 -0.9266481 0.0277128
vn 0.88303924 -0.46924597 0.007067967
vn 0.88787055 -0.45894617 -0.032471526
vn 0.43188703 -0.9000667 0.057910077
vn 0.80524635 -0.40429053 -0.43373665
vn 0.47059408 -0.87885624 -0.07844092
vn -0.24352309 0.95493996 0.16966474
vn -0.19149847 0.97798586 0.08289762
vn -0.043659724 0.9963076 0.07392522
vn -0.035122804 0.9843471 0.17270584
vn -0.04834099 0.9980313 0.03995719
vn -0.16039081 0.98609215 0.043555193
vn 0.03870677 0.99657404 0.07308909
vn 0.046296883 0.9849783 0.16635638
vn 0.19524121 0.96693915 0.16404149
vn 0.14393626 0.98638994 0.07948121
vn 0.11102587 0.992728 0.046524018
vn 0.03641024 0.99837554 0.043823417
vn 0.12797423 0.9914868 -0.024012877
vn 0.026190339 0.999288 -0.027157968
vn 0.15469353 0.9845728 -0.08176988
vn -0.034001496 0.99879825 -0.035299428
vn -0.12936686 0.9911466 -0.029875383
vn 0.011213172 0.9971258 -0.07492877
vn 0.23758678 0.9587924 -0.15578741
vn 0.0389627 0.9842626 -0.17236307
vn -0.023588927 0.9970657 -0.07282593
vn -0.15029316 0.9863722 -0.06694805
vn -0.020040609 0.98629737 -0.16375566
vn -0.17933139 0.9684541 -0.17302266
vn 0.5883097 0.807588 0.041150257
vn 0.99956876 -0.028974485 -0.0047773016
vn 0.9966472 0.081668004 0.004959865
vn 0.98893553 0.12313218 0.08273463
vn 0.5983994 0.800709 -0.027985562
vn 0.9922598 -0.094678394 -0.08035298
vn 0.6584272 0.7447917 0.1084391
vn 0.7978117 0.08331553 0.5971223
vn 0.11102587 0.992728 0.046524018
vn 0.12797423 0.9914868 -0.024012877
vn 0.14393626 0.98638994 0.07948121
vn 0.5336375 0.7380871 0.41286612
vn 0.20155385 -0.0018175701 0.9794758
vn 0.19524121 0.96693915 0.16404149
vn 0.638025 0.7623005 -0.10872935
vn 0.15469353 0.9845728 -0.08176988
vn 0.23758678 0.9587924 -0.15578741
vn 0.15373072 0.7347823 0.6606526
vn -0.24160315 -0.06594665 0.96813166
vn 0.046296883 0.9849783 0.16635638
vn 0.595878 0.7226364 -0.35032278
vn 0.8866796 -0.06670152 -0.45754805
vn 0.0389627 0.9842626 -0.17236307
vn -0.16060056 0.69974643 0.6961051
vn -0.8639459 -0.009313497 0.50349844
vn -0.035122804 0.9843471 0.17270584
vn 0.2021148 0.7363237 -0.6457375
vn 0.2954664 0.032741647 -0.9547919
vn -0.020040609 0.98629737 -0.16375566
vn -0.63328195 0.67564285 0.37743956
vn -0.24352309 0.95493996 0.16966474
vn -0.970618 0.17655338 0.16349165
vn -0.116992876 0.7258174 -0.67786574
vn -0.16775905 0.07459618 -0.98300165
vn -0.17933139 0.9684541 -0.17302266
vn -0.69366825 0.70801514 0.1324345
vn -0.19149847 0.97798586 0.08289762
vn -0.16039081 0.98609215 0.043555193
vn -0.54134214 0.7415237 -0.3963475
vn -0.8551861 -0.01923112 -0.5179642
vn -0.15029316 0.9863722 -0.06694805
vn -0.6744519 0.7374398 0.036014985
vn -0.9738539 0.22647007 0.017886896
vn -0.12936686 0.9911466 -0.029875383
vn -0.71576905 0.6966037 -0.04917246
vn -0.99981207 0.00044277133 -0.019381119
vn -0.69496906 0.7189571 -0.010890749
vn -0.9935727 0.1131853 -0.001552991
g areaBridge03_0
f 3/3/3 2/2/2 1/1/1
f 2/2/2 4/4/4 1/1/1
f 1/1/1 4/4/4 5/5/5
f 2/2/2 6/6/6 4/4/4
f 4/4/4 7/7/7 5/5/5
f 5/5/5 7/7/7 8/8/8
f 7/7/7 9/9/9 8/8/8
f 6/6/6 10/10/10 4/4/4
f 4/4/4 10/10/10 7/7/7
f 7/7/7 11/11/11 9/9/9
f 10/10/10 11/11/11 7/7/7
f 11/11/11 12/12/12 9/9/9
f 6/6/6 13/13/13 10/10/10
f 10/10/10 13/13/13 11/11/11
f 6/6/6 14/14/14 13/13/13
f 14/14/14 15/15/15 13/13/13
f 11/11/11 16/16/16 12/12/12
f 13/13/13 16/16/16 11/11/11
f 16/16/16 17/17/17 12/12/12
f 15/15/15 18/18/18 13/13/13
f 13/13/13 18/18/18 16/16/16
f 15/15/15 19/19/19 18/18/18
f 16/16/16 20/20/20 17/17/17
f 18/18/18 20/20/20 16/16/16
f 20/20/20 21/21/21 17/17/17
f 19/19/19 22/22/22 18/18/18
f 18/18/18 22/22/22 20/20/20
f 19/19/19 23/23/23 22/22/22
f 20/20/20 24/24/24 21/21/21
f 22/22/22 24/24/24 20/20/20
f 24/24/24 25/25/25 21/21/21
f 23/23/23 26/26/26 22/22/22
f 22/22/22 26/26/26 24/24/24
f 23/23/23 27/27/27 26/26/26
f 27/27/27 28/28/28 26/26/26
f 24/24/24 29/29/29 25/25/25
f 26/26/26 29/29/29 24/24/24
f 26/26/26 28/28/28 29/29/29
f 29/29/29 30/30/30 25/25/25
f 28/28/28 31/31/31 29/29/29
f 29/29/29 32/32/32 30/30/30
f 29/29/29 31/31/31 32/32/32
f 35/35/35 34/34/34 33/33/33
f 34/34/34 36/36/36 33/33/33
f 33/33/33 36/36/36 37/37/37
f 38/38/38 33/33/33 37/37/37
f 38/38/38 37/37/37 39/39/39
f 40/40/40 38/38/38 39/39/39
f 40/40/40 39/39/39 41/41/41
f 39/39/39 42/42/42 41/41/41
f 41/41/41 42/42/42 43/43/43
f 42/42/42 44/44/44 43/43/43
f 43/43/43 44/44/44 45/45/45
f 44/44/44 46/46/46 45/45/45
f 45/45/45 46/46/46 47/47/47
f 46/46/46 48/48/48 47/47/47
f 47/47/47 48/48/48 49/49/49
f 48/48/48 50/50/50 49/49/49
f 49/49/49 50/50/50 51/51/51
f 50/50/50 52/52/52 51/51/51
f 51/51/51 52/52/52 53/53/53
f 54/54/54 51/51/51 53/53/53
f 54/54/54 53/53/53 55/55/55
f 56/56/56 54/54/54 55/55/55
f 56/56/56 55/55/55 57/57/57
f 55/55/55 58/58/58 57/57/57
f 57/57/57 58/58/58 59/59/59
f 58/58/58 60/60/60 59/59/59
f 63/63/63 62/62/62 61/61/61
f 62/62/62 64/64/64 61/61/61
f 61/61/61 64/64/64 65/65/65
f 66/66/66 61/61/61 65/65/65
f 66/66/66 65/65/65 67/67/67
f 68/68/68 66/66/66 67/67/67
f 68/68/68 67/67/67 69/69/69
f 67/67/67 70/70/70 69/69/69
f 69/69/69 70/70/70 71/71/71
f 70/70/70 72/72/72 71/71/71
f 71/71/71 72/72/72 73/73/73
f 72/72/72 74/74/74 73/73/73
f 73/73/73 74/74/74 75/75/75
f 74/74/74 76/76/76 75/75/75
f 75/75/75 76/76/76 77/77/77
f 76/76/76 78/78/78 77/77/77
f 77/77/77 78/78/78 79/79/79
f 78/78/78 80/80/80 79/79/79
f 79/79/79 80/80/80 81/81/81
f 82/82/82 79/79/79 81/81/81
f 82/82/82 81/81/81 83/83/83
f 84/84/84 82/82/82 83/83/83
f 84/84/84 83/83/83 85/85/85
f 83/83/83 86/86/86 85/85/85
f 85/85/85 86/86/86 87/87/87
f 86/86/86 88/88/88 87/87/87
f 91/91/91 90/90/90 89/89/89
f 92/92/92 91/91/91 89/89/89
f 91/91/91 93/93/93 90/90/90
f 93/93/93 94/94/94 90/90/90
f 95/95/95 91/91/91 92/92/92
f 96/96/96 95/95/95 92/92/92
f 97/97/97 95/95/95 96/96/96
f 97/97/97 98/98/98 95/95/95
f 98/98/98 99/99/99 95/95/95
f 95/95/95 100/100/100 91/91/91
f 99/99/99 100/100/100 95/95/95
f 100/100/100 93/93/93 91/91/91
f 99/99/99 101/101/101 100/100/100
f 101/101/101 102/102/102 100/100/100
f 100/100/100 102/102/102 93/93/93
f 101/101/101 103/103/103 102/102/102
f 93/93/93 104/104/104 94/94/94
f 102/102/102 104/104/104 93/93/93
f 104/104/104 105/105/105 94/94/94
f 103/103/103 106/106/106 102/102/102
f 102/102/102 106/106/106 104/104/104
f 103/103/103 107/107/107 106/106/106
f 107/107/107 108/108/108 106/106/106
f 104/104/104 109/109/109 105/105/105
f 106/106/106 109/109/109 104/104/104
f 106/106/106 108/108/108 109/109/109
f 109/109/109 110/110/110 105/105/105
f 108/108/108 111/111/111 109/109/109
f 109/109/109 112/112/112 110/110/110
f 109/109/109 111/111/111 112/112/112
f 115/115/115 114/114/114 113/113/113
f 115/115/115 113/113/113 116/116/116
f 114/114/114 117/117/117 113/113/113
f 114/114/114 118/118/118 117/117/117
f 113/113/113 119/119/119 116/116/116
f 116/116/116 119/119/119 120/120/120
f 113/113/113 117/117/117 121/121/121
f 113/113/113 121/121/121 119/119/119
f 117/117/117 122/122/122 121/121/121
f 121/121/121 123/123/123 119/119/119
f 119/119/119 124/124/124 120/120/120
f 119/119/119 123/123/123 124/124/124
f 120/120/120 124/124/124 125/125/125
f 123/123/123 126/126/126 124/124/124
f 117/117/117 127/127/127 122/122/122
f 118/118/118 127/127/127 117/117/117
f 127/127/127 128/128/128 122/122/122
f 129/129/129 128/128/128 127/127/127
f 124/124/124 130/130/130 125/125/125
f 124/124/124 126/126/126 130/130/130
f 125/125/125 130/130/130 131/131/131
f 126/126/126 132/132/132 130/130/130
f 133/133/133 127/127/127 118/118/118
f 133/133/133 129/129/129 127/127/127
f 134/134/134 133/133/133 118/118/118
f 135/135/135 129/129/129 133/133/133
f 130/130/130 136/136/136 131/131/131
f 130/130/130 132/132/132 136/136/136
f 131/131/131 136/136/136 137/137/137
f 132/132/132 138/138/138 136/136/136
f 139/139/139 133/133/133 134/134/134
f 139/139/139 135/135/135 133/133/133
f 140/140/140 139/139/139 134/134/134
f 141/141/141 135/135/135 139/139/139
f 136/136/136 142/142/142 137/137/137
f 136/136/136 138/138/138 142/142/142
f 138/138/138 143/143/143 142/142/142
f 137/137/137 142/142/142 144/144/144
f 145/145/145 139/139/139 140/140/140
f 145/145/145 141/141/141 139/139/139
f 146/146/146 145/145/145 140/140/140
f 147/147/147 141/141/141 145/145/145
f 142/142/142 143/143/143 148/148/148
f 142/142/142 148/148/148 144/144/144
f 143/143/143 149/149/149 148/148/148
f 148/148/148 149/149/149 150/150/150
f 151/151/151 145/145/145 146/146/146
f 151/151/151 147/147/147 145/145/145
f 152/152/152 151/151/151 146/146/146
f 153/153/153 147/147/147 151/151/151
f 144/144/144 148/148/148 154/154/154
f 154/154/154 148/148/148 150/150/150
f 155/155/155 144/144/144 154/154/154
f 154/154/154 150/150/150 156/156/156
f 157/157/157 151/151/151 152/152/152
f 157/157/157 153/153/153 151/151/151
f 156/156/156 153/153/153 157/157/157
f 158/158/158 157/157/157 152/152/152
f 155/155/155 154/154/154 159/159/159
f 159/159/159 154/154/154 156/156/156
f 159/159/159 156/156/156 157/157/157
f 159/159/159 157/157/157 158/158/158
f 160/160/160 155/155/155 159/159/159
f 160/160/160 159/159/159 158/158/158
