g areaSlab04
v 3.1054199 -0.28065062 -2.2562158
v 3.1054199 -1.7121692 -2.2562158
v 3.6506348 -1.7121692 -1.186167
v 3.6506348 -0.28065062 -1.186167
v 2.2562206 -0.28065062 -3.1054199
v 2.2562206 -1.7121692 -3.1054199
v 3.1054199 -1.7121692 -2.2562158
v 3.1054199 -0.28065062 -2.2562158
v 1.186167 -0.28065062 -3.6506395
v 1.186167 -1.7121692 -3.6506395
v 2.2562206 -1.7121692 -3.1054199
v 2.2562206 -0.28065062 -3.1054199
v -0 -0.28065062 -3.8385108
v -0 -1.7121692 -3.8385108
v 1.186167 -1.7121692 -3.6506395
v 1.186167 -0.28065062 -3.6506395
v -1.1861572 -0.28065062 -3.6506395
v -1.1861572 -1.7121692 -3.6506395
v -0 -1.7121692 -3.8385108
v -0 -0.28065062 -3.8385108
v -2.2562108 -0.28065062 -3.1054199
v -2.2562108 -1.7121692 -3.1054199
v -1.1861572 -1.7121692 -3.6506395
v -1.1861572 -0.28065062 -3.6506395
v -3.1054149 -0.28065062 -2.2562158
v -3.1054149 -1.7121692 -2.2562158
v -2.2562108 -1.7121692 -3.1054199
v -2.2562108 -0.28065062 -3.1054199
v -3.6506298 -0.28065062 -1.186167
v -3.6506298 -1.7121692 -1.186167
v -3.1054149 -1.7121692 -2.2562158
v -3.1054149 -0.28065062 -2.2562158
v -3.838501 -0.28065062 0
v -3.838501 -1.7121692 0
v -3.6506298 -1.7121692 -1.186167
v -3.6506298 -0.28065062 -1.186167
v -3.6506298 -0.28065062 1.1861572
v -3.6506298 -1.7121692 1.1861572
v -3.838501 -1.7121692 0
v -3.838501 -0.28065062 0
v -3.1054149 -0.28065062 2.2562108
v -3.1054149 -1.7121692 2.2562108
v -3.6506298 -1.7121692 1.1861572
v -3.6506298 -0.28065062 1.1861572
v -2.2562108 -0.28065062 3.105405
v -2.2562108 -1.7121692 3.105405
v -3.1054149 -1.7121692 2.2562108
v -3.1054149 -0.28065062 2.2562108
v -1.1861572 -0.28065062 3.650625
v -1.1861572 -1.7121692 3.650625
v -2.2562108 -1.7121692 3.105405
v -2.2562108 -0.28065062 3.105405
v -0 -0.28065062 3.838496
v -0 -1.7121692 3.838496
v -1.1861572 -1.7121692 3.650625
v -1.1861572 -0.28065062 3.650625
v 1.186167 -0.28065062 3.650625
v 1.186167 -1.7121692 3.650625
v -0 -1.7121692 3.838496
v -0 -0.28065062 3.838496
v 2.2562158 -0.28065062 3.105405
v 2.2562158 -1.7121692 3.105405
v 1.186167 -1.7121692 3.650625
v 1.186167 -0.28065062 3.650625
v 3.1054199 -0.28065062 2.2562108
v 3.1054199 -1.7121692 2.2562108
v 2.2562158 -1.7121692 3.105405
v 2.2562158 -0.28065062 3.105405
v 3.6506348 -0.28065062 1.1861572
v 3.6506348 -1.7121692 1.1861572
v 3.1054199 -1.7121692 2.2562108
v 3.1054199 -0.28065062 2.2562108
v 3.8385057 -0.28065062 0
v 3.8385057 -1.7121692 0
v 3.6506348 -1.7121692 1.1861572
v 3.6506348 -0.28065062 1.1861572
v 3.6506348 -0.28065062 -1.186167
v 3.6506348 -1.7121692 -1.186167
v 3.8385057 -1.7121692 0
v 3.8385057 -0.28065062 0
v 3.427993 0 -1.1138085
v -0 0 0
v 2.9160254 0 -2.1186082
v 3.6044238 0 0
v 2.1186082 0 -2.9160204
v 3.4279883 0 1.1138037
v 1.1138183 0 -3.427993
v 2.9160204 0 2.1185937
v -0 0 -3.6044285
v 2.1186082 0 2.9160156
v -1.1138085 0 -3.427993
v 1.1138183 0 3.4279833
v -2.1185987 0 -2.9160204
v -0 0 3.6044188
v -2.9160204 0 -2.1186082
v -1.1138085 0 3.4279833
v -3.4279833 0 -1.1138085
v -2.1185987 0 2.9160106
v -3.6044188 0 0
v -2.9160204 0 2.1185937
v -3.4279833 0 1.1138037
v 3.6506348 -0.28065062 -1.186167
v 3.544746 -0.12384582 -1.1517578
v 3.0153418 -0.12384582 -2.190781
v 3.1054199 -0.28065062 -2.2562158
v 3.8385057 -0.28065062 0
v 2.1907763 -0.12384582 -3.0153418
v 2.2562206 -0.28065062 -3.1054199
v 3.7271678 -0.12384582 0
v 3.6506348 -0.28065062 1.1861572
v 1.1517578 -0.12384582 -3.544751
v 1.186167 -0.28065062 -3.6506395
v 3.5447412 -0.12384582 1.151753
v 3.1054199 -0.28065062 2.2562108
v -0 -0.12384582 -3.7271729
v -0 -0.28065062 -3.8385108
v 3.0153368 -0.12384582 2.1907616
v 2.2562158 -0.28065062 3.105405
v -1.151753 -0.12384582 -3.544751
v -1.1861572 -0.28065062 -3.6506395
v 2.1907763 -0.12384582 3.015327
v 1.186167 -0.28065062 3.650625
v -2.1907666 -0.12384582 -3.0153418
v -2.2562108 -0.28065062 -3.1054199
v 1.1517578 -0.12384582 3.5447361
v -0 -0.28065062 3.838496
v -3.015327 -0.12384582 -2.190781
v -3.1054149 -0.28065062 -2.2562158
v -0 -0.12384582 3.727163
v -1.1861572 -0.28065062 3.650625
v -3.5447412 -0.12384582 -1.1517578
v -3.6506298 -0.28065062 -1.186167
v -1.151753 -0.12384582 3.5447361
v -2.2562108 -0.28065062 3.105405
v -3.727158 -0.12384582 0
v -3.838501 -0.28065062 0
v -2.1907666 -0.12384582 3.015327
v -3.1054149 -0.28065062 2.2562108
v -3.5447412 -0.12384582 1.151753
v -3.6506298 -0.28065062 1.1861572
v -3.015327 -0.12384582 2.1907616
v -3.4279833 0 -1.1138085
v -2.9160204 0 -2.1186082
v -3.6044188 0 0
v -3.4279833 0 1.1138037
v -2.1185987 0 -2.9160204
v -2.9160204 0 2.1185937
v -2.1185987 0 2.9160106
v -1.1138085 0 -3.427993
v -1.1138085 0 3.4279833
v -0 0 -3.6044285
v -0 0 3.6044188
v 1.1138183 0 -3.427993
v 1.1138183 0 3.4279833
v 2.1186082 0 -2.9160204
v 2.1186082 0 2.9160156
v 2.9160254 0 -2.1186082
v 2.9160204 0 2.1185937
v 3.427993 0 -1.1138085
v 3.4279883 0 1.1138037
v 3.6044238 0 0
v 3.1054199 -1.7121692 -2.2562158
v 3.1054199 -19.37956 -2.2562158
v 3.6506348 -19.37956 -1.186167
v 3.6506348 -1.7121692 -1.186167
v 2.2562206 -1.7121692 -3.1054199
v 3.8385057 -19.37956 0
v 2.2562206 -19.37956 -3.1054199
v 3.8385057 -1.7121692 0
v 1.186167 -1.7121692 -3.6506395
v 3.6506348 -19.37956 1.1861572
v 1.186167 -19.37956 -3.6506395
v 3.6506348 -1.7121692 1.1861572
v -0 -1.7121692 -3.8385108
v 3.1054199 -19.37956 2.2562108
v -0 -19.37956 -3.8385108
v 3.1054199 -1.7121692 2.2562108
v -1.1861572 -1.7121692 -3.6506395
v 2.2562158 -19.37956 3.105405
v -1.1861572 -19.37956 -3.6506395
v 2.2562158 -1.7121692 3.105405
v -2.2562108 -1.7121692 -3.1054199
v 1.186167 -19.37956 3.650625
v -2.2562108 -19.37956 -3.1054199
v 1.186167 -1.7121692 3.650625
v -3.1054149 -1.7121692 -2.2562158
v -0 -19.37956 3.838496
v -3.1054149 -19.37956 -2.2562158
v -0 -1.7121692 3.838496
v -3.6506298 -1.7121692 -1.186167
v -1.1861572 -19.37956 3.650625
v -3.6506298 -19.37956 -1.186167
v -1.1861572 -1.7121692 3.650625
v -3.838501 -1.7121692 0
v -2.2562108 -19.37956 3.105405
v -3.838501 -19.37956 0
v -2.2562108 -1.7121692 3.105405
v -3.6506298 -1.7121692 1.1861572
v -3.1054149 -19.37956 2.2562108
v -3.6506298 -19.37956 1.1861572
v -3.1054149 -1.7121692 2.2562108
vt 0 0
vt 0 1
vt 1 1
vt 1 0
vt 0 0
vt 0 1
vt 1 1
vt 1 0
vt 0 0
vt 0 1
vt 1 1
vt 1 0
vt 0 0
vt 0 1
vt 1 1
vt 1 0
vt 0 0
vt 0 1
vt 1 1
vt 1 0
vt 0 0
vt 0 1
vt 1 1
vt 1 0
vt 0 0
vt 0 1
vt 1 1
vt 1 0
vt 0 0
vt 0 1
vt 1 1
vt 1 0
vt 0 0
vt 0 1
vt 1 1
vt 1 0
vt 0 0
vt 0 1
vt 1 1
vt 1 0
vt 0 0
vt 0 1
vt 1 1
vt 1 0
vt 0 0
vt 0 1
vt 1 1
vt 1 0
vt 0 0
vt 0 1
vt 1 1
vt 1 0
vt 0 0
vt 0 1
vt 1 1
vt 1 0
vt 0 0
vt 0 1
vt 1 1
vt 1 0
vt 0 0
vt 0 1
vt 1 1
vt 1 0
vt 0 0
vt 0 1
vt 1 1
vt 1 0
vt 0 0
vt 0 1
vt 1 1
vt 1 0
vt 0 0
vt 0 1
vt 1 1
vt 1 0
vt 0 0
vt 0 1
vt 1 1
vt 1 0
vt 0.6486026 0.89203393
vt 0.5 0.8375
vt 0.62640893 0.93559146
vt 0.65625 0.84375
vt 0.59184146 0.97015893
vt 0.64860266 0.79546607
vt 0.5482839 0.9923526
vt 0.626409 0.7519085
vt 0.5 1
vt 0.5918415 0.717341
vt 0.4517161 0.9923526
vt 0.54828393 0.69514734
vt 0.40815854 0.97015893
vt 0.5 0.68749994
vt 0.37359107 0.93559146
vt 0.45171607 0.69514734
vt 0.3513974 0.89203393
vt 0.4081585 0.71734107
vt 0.34374997 0.84375
vt 0.37359107 0.75190854
vt 0.3513974 0.79546607
vt 0.6486026 0.89203393
vt 0.6486026 0.89203393
vt 0.62640893 0.93559146
vt 0.62640893 0.93559146
vt 0.65625 0.84375
vt 0.59184146 0.97015893
vt 0.59184146 0.97015893
vt 0.65625 0.84375
vt 0.64860266 0.79546607
vt 0.5482839 0.9923526
vt 0.5482839 0.9923526
vt 0.64860266 0.79546607
vt 0.626409 0.7519085
vt 0.5 1
vt 0.5 1
vt 0.626409 0.7519085
vt 0.5918415 0.717341
vt 0.4517161 0.9923526
vt 0.4517161 0.9923526
vt 0.5918415 0.717341
vt 0.54828393 0.69514734
vt 0.40815854 0.97015893
vt 0.40815854 0.97015893
vt 0.54828393 0.69514734
vt 0.5 0.68749994
vt 0.37359107 0.93559146
vt 0.37359107 0.93559146
vt 0.5 0.68749994
vt 0.45171607 0.69514734
vt 0.3513974 0.89203393
vt 0.3513974 0.89203393
vt 0.45171607 0.69514734
vt 0.4081585 0.71734107
vt 0.34374997 0.84375
vt 0.34374997 0.84375
vt 0.4081585 0.71734107
vt 0.37359107 0.75190854
vt 0.3513974 0.79546607
vt 0.3513974 0.79546607
vt 0.37359107 0.75190854
vt 0.3513974 0.89203393
vt 0.37359107 0.93559146
vt 0.34374997 0.84375
vt 0.3513974 0.79546607
vt 0.40815854 0.97015893
vt 0.37359107 0.75190854
vt 0.4081585 0.71734107
vt 0.4517161 0.9923526
vt 0.45171607 0.69514734
vt 0.5 1
vt 0.5 0.68749994
vt 0.5482839 0.9923526
vt 0.54828393 0.69514734
vt 0.59184146 0.97015893
vt 0.5918415 0.717341
vt 0.62640893 0.93559146
vt 0.626409 0.7519085
vt 0.6486026 0.89203393
vt 0.64860266 0.79546607
vt 0.65625 0.84375
vt 0 1
vt 0 1
vt 0 1
vt 0 1
vt 0 1
vt 0 1
vt 0 1
vt 0 1
vt 0 1
vt 0 1
vt 0 1
vt 0 1
vt 0 1
vt 0 1
vt 0 1
vt 0 1
vt 0 1
vt 0 1
vt 0 1
vt 0 1
vt 0 1
vt 0 1
vt 0 1
vt 0 1
vt 0 1
vt 0 1
vt 0 1
vt 0 1
vt 0 1
vt 0 1
vt 0 1
vt 0 1
vt 0 1
vt 0 1
vt 0 1
vt 0 1
vt 0 1
vt 0 1
vt 0 1
vt 0 1
vn 0.80728513 0.065415174 -0.5865249
vn 0.809018 0 -0.58778393
vn 0.951057 0 -0.3090155
vn 0.9490198 0.065414496 -0.3083545
vn 0.58652765 0.06541512 -0.80728316
vn 0.58778614 0 -0.80901635
vn 0.809018 0 -0.58778393
vn 0.80728513 0.065415174 -0.5865249
vn 0.30835652 0.06541467 -0.949019
vn 0.30901712 0 -0.9510565
vn 0.58778614 0 -0.80901635
vn 0.58652765 0.06541512 -0.80728316
vn -0 0.06541418 -0.9978582
vn -0 0 -1
vn 0.30901712 0 -0.9510565
vn 0.30835652 0.06541467 -0.949019
vn -0.30835745 0.06541411 -0.94901884
vn -0.30901834 0 -0.9510561
vn -0 0 -1
vn -0 0.06541418 -0.9978582
vn -0.58652675 0.065415 -0.8072838
vn -0.5877851 0 -0.80901706
vn -0.30901834 0 -0.9510561
vn -0.30835745 0.06541411 -0.94901884
vn -0.8072843 0.06541726 -0.586526
vn -0.80901706 0 -0.5877852
vn -0.5877851 0 -0.80901706
vn -0.58652675 0.065415 -0.8072838
vn -0.94901955 0.06541822 -0.3083543
vn -0.951057 0 -0.3090155
vn -0.80901706 0 -0.5877852
vn -0.8072843 0.06541726 -0.586526
vn -0.997858 0.0654176 0
vn -1 0 0
vn -0.951057 0 -0.3090155
vn -0.94901955 0.06541822 -0.3083543
vn -0.94901955 0.06541793 0.3083543
vn -0.95105654 0 0.30901682
vn -1 0 0
vn -0.997858 0.0654176 0
vn -0.80728316 0.065417655 0.5865273
vn -0.80901617 0 0.5877863
vn -0.95105654 0 0.30901682
vn -0.94901955 0.06541793 0.3083543
vn -0.58652335 0.06541635 0.8072862
vn -0.5877834 0 0.8090183
vn -0.80901617 0 0.5877863
vn -0.80728316 0.065417655 0.5865273
vn -0.30835783 0.06541348 0.9490187
vn -0.30901834 0 0.9510561
vn -0.5877834 0 0.8090183
vn -0.58652335 0.06541635 0.8072862
vn -0 0.06541289 0.9978582
vn -0 0 1
vn -0.30901834 0 0.9510561
vn -0.30835783 0.06541348 0.9490187
vn 0.30835745 0.06541403 0.94901884
vn 0.30901772 0 0.95105624
vn -0 0 1
vn -0 0.06541289 0.9978582
vn 0.5865241 0.06541709 0.8072856
vn 0.5877844 0 0.8090176
vn 0.30901772 0 0.95105624
vn 0.30835745 0.06541403 0.94901884
vn 0.80728316 0.065418065 0.58652735
vn 0.8090163 0 0.5877863
vn 0.5877844 0 0.8090176
vn 0.5865241 0.06541709 0.8072856
vn 0.9490197 0.0654159 0.30835432
vn 0.95105654 0 0.30901682
vn 0.8090163 0 0.5877863
vn 0.80728316 0.065418065 0.58652735
vn 0.9978582 0.06541439 1.077759E-07
vn 1 0 0
vn 0.95105654 0 0.30901682
vn 0.9490197 0.0654159 0.30835432
vn 0.9490198 0.065414496 -0.3083545
vn 0.951057 0 -0.3090155
vn 1 0 0
vn 0.9978582 0.06541439 1.077759E-07
vn 0.07281204 0.997065 -0.0236581
vn -0 1 0
vn 0.061938025 0.997065 -0.045000125
vn 0.07656086 0.9970649 1.5999063E-07
vn 0.044999596 0.9970651 -0.06193728
vn 0.07281131 0.9970651 0.023657639
vn 0.023658397 0.9970651 -0.07281139
vn 0.061937734 0.997065 0.044999678
vn -0 0.9970649 -0.07656048
vn 0.045000456 0.997065 0.061938517
vn -0.023658404 0.997065 -0.07281186
vn 0.023658505 0.997065 0.07281182
vn -0.044999957 0.997065 -0.061937634
vn -0 0.9970649 0.076560766
vn -0.06193843 0.997065 -0.04499992
vn -0.023658698 0.997065 0.07281175
vn -0.07281214 0.997065 -0.023658285
vn -0.044999946 0.997065 0.061937425
vn -0.07656148 0.9970649 3.7001163E-07
vn -0.061937597 0.997065 0.04499977
vn -0.07281162 0.997065 0.023658723
vn 0.9490198 0.065414496 -0.3083545
vn 0.73429424 0.63552094 -0.23858976
vn 0.6246143 0.63553977 -0.45381296
vn 0.80728513 0.065415174 -0.5865249
vn 0.9978582 0.06541439 1.077759E-07
vn 0.45380864 0.63554627 -0.62461084
vn 0.58652765 0.06541512 -0.80728316
vn 0.77208835 0.63551515 1.1586056E-06
vn 0.9490197 0.0654159 0.30835432
vn 0.2385863 0.6355318 -0.734286
vn 0.30835652 0.06541467 -0.949019
vn 0.73428243 0.6355344 0.23859012
vn 0.80728316 0.065418065 0.58652735
vn -1.0406595E-07 0.6355186 -0.7720855
vn -0 0.06541418 -0.9978582
vn 0.624608 0.6355497 0.45380765
vn 0.5865241 0.06541709 0.8072856
vn -0.23858957 0.6355287 -0.7342877
vn -0.30835745 0.06541411 -0.94901884
vn 0.4538132 0.6355403 0.6246135
vn 0.30835745 0.06541403 0.94901884
vn -0.45381093 0.635541 -0.62461436
vn -0.58652675 0.065415 -0.8072838
vn 0.23859133 0.6355206 0.7342941
vn -0 0.06541289 0.9978582
vn -0.62460905 0.6355443 -0.45381382
vn -0.8072843 0.06541726 -0.586526
vn -0 0.63551116 0.7720917
vn -0.30835783 0.06541348 0.9490187
vn -0.73428565 0.63553214 -0.23858652
vn -0.94901955 0.06541822 -0.3083543
vn -0.23859462 0.635523 0.7342909
vn -0.58652335 0.06541635 0.8072862
vn -0.7720839 0.63552064 0
vn -0.997858 0.0654176 0
vn -0.45381123 0.6355418 0.62461346
vn -0.80728316 0.065417655 0.5865273
vn -0.734283 0.63553435 0.23858869
vn -0.94901955 0.06541793 0.3083543
vn -0.62460804 0.63554734 0.45381084
vn -0.07281214 0.997065 -0.023658285
vn -0.06193843 0.997065 -0.04499992
vn -0.07656148 0.9970649 3.7001163E-07
vn -0.07281162 0.997065 0.023658723
vn -0.044999957 0.997065 -0.061937634
vn -0.061937597 0.997065 0.04499977
vn -0.044999946 0.997065 0.061937425
vn -0.023658404 0.997065 -0.07281186
vn -0.023658698 0.997065 0.07281175
vn -0 0.9970649 -0.07656048
vn -0 0.9970649 0.076560766
vn 0.023658397 0.9970651 -0.07281139
vn 0.023658505 0.997065 0.07281182
vn 0.044999596 0.9970651 -0.06193728
vn 0.045000456 0.997065 0.061938517
vn 0.061938025 0.997065 -0.045000125
vn 0.061937734 0.997065 0.044999678
vn 0.07281204 0.997065 -0.0236581
vn 0.07281131 0.9970651 0.023657639
vn 0.07656086 0.9970649 1.5999063E-07
vn 0.809018 0 -0.58778393
vn 0.809018 0 -0.58778393
vn 0.951057 0 -0.30901545
vn 0.951057 0 -0.3090155
vn 0.58778614 0 -0.80901635
vn 1 0 0
vn 0.5877861 0 -0.80901635
vn 1 0 0
vn 0.30901712 0 -0.9510565
vn 0.95105654 0 0.30901688
vn 0.30901706 0 -0.95105654
vn 0.95105654 0 0.30901682
vn -0 0 -1
vn 0.80901617 0 0.5877863
vn -0 0 -1
vn 0.8090163 0 0.5877863
vn -0.30901834 0 -0.9510561
vn 0.5877846 0 0.80901754
vn -0.30901825 0 -0.9510561
vn 0.5877844 0 0.8090176
vn -0.5877851 0 -0.80901706
vn 0.30901766 0 0.95105636
vn -0.5877851 0 -0.80901706
vn 0.30901772 0 0.95105624
vn -0.80901706 0 -0.5877852
vn -0 0 1
vn -0.80901706 0 -0.5877852
vn -0 0 1
vn -0.951057 0 -0.3090155
vn -0.30901825 0 0.9510561
vn -0.951057 0 -0.30901545
vn -0.30901834 0 0.9510561
vn -1 0 0
vn -0.5877836 0 0.80901814
vn -1 0 0
vn -0.5877834 0 0.8090183
vn -0.95105654 0 0.30901682
vn -0.80901617 0 0.5877863
vn -0.95105654 0 0.30901688
vn -0.80901617 0 0.5877863
g areaSlab04_0
f 3/3/3 2/2/2 1/1/1
f 4/4/4 3/3/3 1/1/1
f 7/7/7 6/6/6 5/5/5
f 8/8/8 7/7/7 5/5/5
f 11/11/11 10/10/10 9/9/9
f 12/12/12 11/11/11 9/9/9
f 15/15/15 14/14/14 13/13/13
f 16/16/16 15/15/15 13/13/13
f 19/19/19 18/18/18 17/17/17
f 20/20/20 19/19/19 17/17/17
f 23/23/23 22/22/22 21/21/21
f 24/24/24 23/23/23 21/21/21
f 27/27/27 26/26/26 25/25/25
f 28/28/28 27/27/27 25/25/25
f 31/31/31 30/30/30 29/29/29
f 32/32/32 31/31/31 29/29/29
f 35/35/35 34/34/34 33/33/33
f 36/36/36 35/35/35 33/33/33
f 39/39/39 38/38/38 37/37/37
f 40/40/40 39/39/39 37/37/37
f 43/43/43 42/42/42 41/41/41
f 44/44/44 43/43/43 41/41/41
f 47/47/47 46/46/46 45/45/45
f 48/48/48 47/47/47 45/45/45
f 51/51/51 50/50/50 49/49/49
f 52/52/52 51/51/51 49/49/49
f 55/55/55 54/54/54 53/53/53
f 56/56/56 55/55/55 53/53/53
f 59/59/59 58/58/58 57/57/57
f 60/60/60 59/59/59 57/57/57
f 63/63/63 62/62/62 61/61/61
f 64/64/64 63/63/63 61/61/61
f 67/67/67 66/66/66 65/65/65
f 68/68/68 67/67/67 65/65/65
f 71/71/71 70/70/70 69/69/69
f 72/72/72 71/71/71 69/69/69
f 75/75/75 74/74/74 73/73/73
f 76/76/76 75/75/75 73/73/73
f 79/79/79 78/78/78 77/77/77
f 80/80/80 79/79/79 77/77/77
f 83/83/83 82/82/82 81/81/81
f 81/81/81 82/82/82 84/84/84
f 85/85/85 82/82/82 83/83/83
f 84/84/84 82/82/82 86/86/86
f 87/87/87 82/82/82 85/85/85
f 86/86/86 82/82/82 88/88/88
f 89/89/89 82/82/82 87/87/87
f 88/88/88 82/82/82 90/90/90
f 91/91/91 82/82/82 89/89/89
f 90/90/90 82/82/82 92/92/92
f 93/93/93 82/82/82 91/91/91
f 92/92/92 82/82/82 94/94/94
f 95/95/95 82/82/82 93/93/93
f 94/94/94 82/82/82 96/96/96
f 97/97/97 82/82/82 95/95/95
f 96/96/96 82/82/82 98/98/98
f 99/99/99 82/82/82 97/97/97
f 98/98/98 82/82/82 100/100/100
f 101/101/101 82/82/82 99/99/99
f 100/100/100 82/82/82 101/101/101
f 104/104/104 103/103/103 102/102/102
f 105/105/105 104/104/104 102/102/102
f 102/102/102 103/103/103 106/106/106
f 107/107/107 104/104/104 105/105/105
f 108/108/108 107/107/107 105/105/105
f 103/103/103 109/109/109 106/106/106
f 106/106/106 109/109/109 110/110/110
f 111/111/111 107/107/107 108/108/108
f 112/112/112 111/111/111 108/108/108
f 109/109/109 113/113/113 110/110/110
f 110/110/110 113/113/113 114/114/114
f 115/115/115 111/111/111 112/112/112
f 116/116/116 115/115/115 112/112/112
f 113/113/113 117/117/117 114/114/114
f 114/114/114 117/117/117 118/118/118
f 119/119/119 115/115/115 116/116/116
f 120/120/120 119/119/119 116/116/116
f 117/117/117 121/121/121 118/118/118
f 118/118/118 121/121/121 122/122/122
f 123/123/123 119/119/119 120/120/120
f 124/124/124 123/123/123 120/120/120
f 121/121/121 125/125/125 122/122/122
f 122/122/122 125/125/125 126/126/126
f 127/127/127 123/123/123 124/124/124
f 128/128/128 127/127/127 124/124/124
f 125/125/125 129/129/129 126/126/126
f 126/126/126 129/129/129 130/130/130
f 131/131/131 127/127/127 128/128/128
f 132/132/132 131/131/131 128/128/128
f 129/129/129 133/133/133 130/130/130
f 130/130/130 133/133/133 134/134/134
f 135/135/135 131/131/131 132/132/132
f 136/136/136 135/135/135 132/132/132
f 133/133/133 137/137/137 134/134/134
f 134/134/134 137/137/137 138/138/138
f 139/139/139 135/135/135 136/136/136
f 140/140/140 139/139/139 136/136/136
f 138/138/138 141/141/141 140/140/140
f 137/137/137 141/141/141 138/138/138
f 141/141/141 139/139/139 140/140/140
f 131/131/131 142/142/142 127/127/127
f 142/142/142 143/143/143 127/127/127
f 144/144/144 142/142/142 131/131/131
f 135/135/135 144/144/144 131/131/131
f 127/127/127 143/143/143 123/123/123
f 145/145/145 144/144/144 135/135/135
f 139/139/139 145/145/145 135/135/135
f 143/143/143 146/146/146 123/123/123
f 147/147/147 145/145/145 139/139/139
f 141/141/141 147/147/147 139/139/139
f 123/123/123 146/146/146 119/119/119
f 148/148/148 147/147/147 141/141/141
f 137/137/137 148/148/148 141/141/141
f 146/146/146 149/149/149 119/119/119
f 150/150/150 148/148/148 137/137/137
f 119/119/119 149/149/149 115/115/115
f 133/133/133 150/150/150 137/137/137
f 149/149/149 151/151/151 115/115/115
f 152/152/152 150/150/150 133/133/133
f 115/115/115 151/151/151 111/111/111
f 129/129/129 152/152/152 133/133/133
f 151/151/151 153/153/153 111/111/111
f 154/154/154 152/152/152 129/129/129
f 111/111/111 153/153/153 107/107/107
f 125/125/125 154/154/154 129/129/129
f 153/153/153 155/155/155 107/107/107
f 156/156/156 154/154/154 125/125/125
f 107/107/107 155/155/155 104/104/104
f 121/121/121 156/156/156 125/125/125
f 155/155/155 157/157/157 104/104/104
f 158/158/158 156/156/156 121/121/121
f 104/104/104 157/157/157 103/103/103
f 117/117/117 158/158/158 121/121/121
f 157/157/157 159/159/159 103/103/103
f 160/160/160 158/158/158 117/117/117
f 103/103/103 159/159/159 109/109/109
f 113/113/113 160/160/160 117/117/117
f 159/159/159 161/161/161 109/109/109
f 161/161/161 160/160/160 113/113/113
f 109/109/109 161/161/161 113/113/113
f 164/164/164 163/163/163 162/162/162
f 165/165/165 164/164/164 162/162/162
f 162/162/162 163/163/163 166/166/166
f 167/167/167 164/164/164 165/165/165
f 163/163/163 168/168/168 166/166/166
f 169/169/169 167/167/167 165/165/165
f 166/166/166 168/168/168 170/170/170
f 171/171/171 167/167/167 169/169/169
f 168/168/168 172/172/172 170/170/170
f 173/173/173 171/171/171 169/169/169
f 170/170/170 172/172/172 174/174/174
f 175/175/175 171/171/171 173/173/173
f 172/172/172 176/176/176 174/174/174
f 177/177/177 175/175/175 173/173/173
f 174/174/174 176/176/176 178/178/178
f 179/179/179 175/175/175 177/177/177
f 176/176/176 180/180/180 178/178/178
f 181/181/181 179/179/179 177/177/177
f 178/178/178 180/180/180 182/182/182
f 183/183/183 179/179/179 181/181/181
f 180/180/180 184/184/184 182/182/182
f 185/185/185 183/183/183 181/181/181
f 182/182/182 184/184/184 186/186/186
f 187/187/187 183/183/183 185/185/185
f 184/184/184 188/188/188 186/186/186
f 189/189/189 187/187/187 185/185/185
f 186/186/186 188/188/188 190/190/190
f 191/191/191 187/187/187 189/189/189
f 188/188/188 192/192/192 190/190/190
f 193/193/193 191/191/191 189/189/189
f 190/190/190 192/192/192 194/194/194
f 195/195/195 191/191/191 193/193/193
f 192/192/192 196/196/196 194/194/194
f 197/197/197 195/195/195 193/193/193
f 194/194/194 196/196/196 198/198/198
f 199/199/199 195/195/195 197/197/197
f 196/196/196 200/200/200 198/198/198
f 201/201/201 199/199/199 197/197/197
f 198/198/198 200/200/200 201/201/201
f 200/200/200 199/199/199 201/201/201
