g blockRough
v -1.0474157 -0.8960242 1.0022119
v -0.8246875 -0.9193292 1.0642236
v -0.9948242 -0.9679054 0.99929196
v -1.0332409 0.8662574 1.0151514
v -0.91637695 0.9119154 1.058789
v -1.034624 0.9368548 0.94305664
v -0.8478833 1.0486115 0.99370605
v -0.016611328 0.95425797 1.0138623
v -0.035283204 0.017756943 1.0707324
v -0.6408948 -1.0309879 0.98999995
v -0.03160278 -0.9774732 1.0373633
v -1.0353014 -0.9747537 0.9087939
v -1.0474157 -0.8960242 1.0022119
v -0.9948242 -0.9679054 0.99929196
v -0.9498181 -1.0440763 0.93657714
v -0.8246875 -0.9193292 1.0642236
v -1.073241 -0.91387045 -0.062338866
v -0.6408948 -1.0309879 0.98999995
v -1.0034729 -1.024467 0.04998535
v -1.0014637 -1.0411539 -0.6663965
v -1.0517005 -0.9581528 -0.9181787
v -0.014069824 -1.0670092 0.887539
v -0.03160278 -0.9774732 1.0373633
v 0.79812133 -0.98916084 1.0454687
v 0.95070064 -1.050695 0.794165
v 1.0358056 -0.8869171 0.93259764
v 1.0129712 -0.9881895 0.572334
v 0.14816894 -1.0654049 -0.31331053
v 0.9174707 -1.0765626 0.037890624
v 1.0259728 -0.920605 -0.019414062
v 1.0102563 -1.0362239 -0.780835
v -0.9487829 -1.0487503 -0.9017578
v -1.0594629 -0.8632175 -0.9971191
v -0.95849365 -0.8471969 -1.0667334
v -0.43595335 -0.926314 -1.0707324
v -0.476156 -1.0409472 -0.9971533
v -0.37680176 -0.90256935 -1.0299121
v -0.41749877 -1.0462085 -0.9432861
v 0.76786864 -1.0298651 -0.8918164
v 0.9034448 -0.8974316 -1.0008594
v 1.055597 -0.8637528 -0.8846338
v 0.80873287 -1.0707129 -0.8142236
v -0.8478833 1.0486115 0.99370605
v -1.034624 0.9368548 0.94305664
v -0.8657971 1.0644224 0.92233396
v -1.029784 1.0340278 0.39730468
v -1.0542896 0.05593132 -0.48904297
v -1.0369323 0.97463924 -0.3363037
v -1.0237085 1.0369992 -0.17987792
v -0.9826367 0.99316466 -0.38264647
v -0.9621692 0.9393041 -0.94554687
v -0.9808325 0.29757854 -0.97955567
v -1.0444006 0.21988423 -1.0106689
v -1.0729626 -0.87561333 0.84614253
v -1.073241 -0.91387045 -0.062338866
v -1.0517005 -0.9581528 -0.9181787
v -1.0594629 -0.8632175 -0.9971191
v -1.0353014 -0.9747537 0.9087939
v -1.0474157 -0.8960242 1.0022119
v -1.0332409 0.8662574 1.0151514
v -0.82528317 1.0078354 -0.9629443
v -0.9826367 0.99316466 -0.38264647
v -0.9621692 0.9393041 -0.94554687
v -0.84923214 1.0553913 -0.090009764
v -1.0369323 0.97463924 -0.3363037
v -1.0237085 1.0369992 -0.17987792
v -0.5929248 1.0524888 -0.99890137
v -1.029784 1.0340278 0.39730468
v -0.055852048 1.0727671 -0.17286132
v -0.08180786 1.0702425 -0.97622067
v -0.36354735 1.0765626 0.7488379
v -0.8657971 1.0644224 0.92233396
v -0.016611328 0.95425797 1.0138623
v -0.8478833 1.0486115 0.99370605
v 0.2050647 1.0221996 1.0104247
v 0.4015698 1.0573773 0.8951953
v 0.9255957 1.0611359 -0.509248
v 0.67963624 1.0606312 -0.96639645
v 0.8817102 1.0529956 0.6854736
v 1.0147644 0.8912108 0.90464354
v 1.0454845 0.94620305 0.741499
v 1.0385876 0.9784579 0.23538086
v 1.0578173 0.96995527 -0.630625
v 0.9242932 1.0635267 -0.8544775
v 1.053844 0.97202724 -0.9339551
v 0.976853 1.0303489 -0.96398926
v 0.961947 0.99951476 -1.0401367
v 1.0474169 0.9221797 -1.0022315
v 1.055597 -0.8637528 -0.8846338
v 1.0574231 -0.62144196 -0.845498
v 1.0520153 -0.63489074 -0.94100094
v 1.0259728 -0.920605 -0.019414062
v 1.0102563 -1.0362239 -0.780835
v 1.0609558 -0.48355484 0.9365283
v 1.0129712 -0.9881895 0.572334
v 1.0358056 -0.8869171 0.93259764
v 1.0717138 0.14087829 0.86542964
v 1.0317309 0.1617526 0.97798824
v 1.0301551 -0.26242438 -0.8747412
v 1.0340551 -0.038574412 -0.8508154
v 1.0065552 -0.36640084 -0.9365478
v 0.9916064 -0.05131065 -0.96006835
v 1.0149524 -0.3411243 -0.99117184
v 1.0318884 -0.21398357 -1.0030762
v -0.035283204 0.017756943 1.0707324
v 0.79812133 -0.98916084 1.0454687
v -0.03160278 -0.9774732 1.0373633
v 0.8025476 -0.51111865 1.0565039
v 0.981062 -0.5151133 1.0397314
v 1.0358056 -0.8869171 0.93259764
v 1.0609558 -0.48355484 0.9365283
v 0.96087766 -0.4768428 1.009497
v 0.72581786 0.4570009 1.0420996
v 1.0317309 0.1617526 0.97798824
v 1.0732471 0.5888354 0.92316407
v 0.62330806 0.8425627 1.0498583
v 1.0147644 0.8912108 0.90464354
v 0.4015698 1.0573773 0.8951953
v 0.40799072 0.90609956 1.0595117
v -0.016611328 0.95425797 1.0138623
v 0.2050647 1.0221996 1.0104247
v 1.0420935 0.06423208 -0.90644044
v 0.9916064 -0.05131065 -0.96006835
v 1.0340551 -0.038574412 -0.8508154
v 1.0717138 0.14087829 0.86542964
v 1.0383459 0.6870534 -0.92489743
v 0.98386717 0.72450775 -1.0431494
v 1.0637646 0.7276498 -0.9637793
v 1.0411938 0.74566877 -1.0142382
v 1.0474169 0.9221797 -1.0022315
v 1.053844 0.97202724 -0.9339551
v 1.0578173 0.96995527 -0.630625
v 1.0385876 0.9784579 0.23538086
v 1.0454845 0.94620305 0.741499
v 1.0732471 0.5888354 0.92316407
v 1.0147644 0.8912108 0.90464354
v 1.0317309 0.1617526 0.97798824
v 0.961947 0.99951476 -1.0401367
v 0.9302063 0.9259612 -1.0699023
v 1.0474169 0.9221797 -1.0022315
v 1.0411938 0.74566877 -1.0142382
v 0.98386717 0.72450775 -1.0431494
v 0.03133667 0.9975002 -1.0390185
v 0.67963624 1.0606312 -0.96639645
v -0.08180786 1.0702425 -0.97622067
v 0.92139405 0.06978704 -1.0646337
v 1.0420935 0.06423208 -0.90644044
v 0.9916064 -0.05131065 -0.96006835
v 0.6137134 -0.06985099 -1.0672803
v -0.06755249 -0.26207915 -1.0417285
v -0.58307004 0.9655084 -1.0597509
v -0.5929248 1.0524888 -0.99890137
v -0.82528317 1.0078354 -0.9629443
v -0.927196 0.3233764 -1.0523828
v -0.8194116 0.9204524 -1.013999
v -0.9621692 0.9393041 -0.94554687
v -0.9808325 0.29757854 -0.97955567
v -1.0444006 0.21988423 -1.0106689
v -1.0594629 -0.8632175 -0.9971191
v -0.95849365 -0.8471969 -1.0667334
v -0.43595335 -0.926314 -1.0707324
v -0.37680176 -0.90256935 -1.0299121
v 0.9685193 -0.3842453 -1.0010204
v 0.9034448 -0.8974316 -1.0008594
v 1.0318884 -0.21398357 -1.0030762
v 1.0149524 -0.3411243 -0.99117184
v 1.0065552 -0.36640084 -0.9365478
v 1.0574231 -0.62144196 -0.845498
v 0.9582678 -0.58086705 -1.0021728
v 1.055597 -0.8637528 -0.8846338
v 1.0520153 -0.63489074 -0.94100094
v 0.95713985 -0.15396199 -1.0678418
vt 0.365878 0.025439
vt 0.369531 0.066822
vt 0.378854 0.034478
vt 0.048038 0.025196
vt 0.040597 0.047401
vt 0.030455 0.020273
vt 0.013606 0.058026
vt 0.030663 0.209356
vt 0.199667 0.207517
vt 0.390505 0.101636
vt 0.37831 0.211357
vt 0.383368 0.258123
vt 0.391042 0.238762
vt 0.376264 0.241878
vt 0.364639 0.2555
vt 0.347571 0.224145
vt 0.3976 0.426406
vt 0.313103 0.244942
vt 0.374901 0.407193
vt 0.37133 0.530627
vt 0.385572 0.57664
vt 0.20441 0.262136
vt 0.207439 0.232239
vt 0.063497 0.234182
vt 0.040086 0.278587
vt 0.014782 0.249028
vt 0.023117 0.315284
vt 0.175132 0.469168
vt 0.042787 0.40733
vt 0.010019 0.416456
vt 0.025745 0.549648
vt 0.363109 0.569107
vt 0.388669 0.598131
vt 0.371507 0.610991
vt 0.277279 0.610195
vt 0.283421 0.587377
vt 0.264289 0.60829
vt 0.27234 0.579119
vt 0.068073 0.567964
vt 0.043111 0.595566
vt 0.012569 0.582852
vt 0.060853 0.553133
vt 0.389853 0.621754
vt 0.351688 0.634369
vt 0.389944 0.635285
vt 0.369807 0.732501
vt 0.194684 0.894978
vt 0.360344 0.864372
vt 0.371562 0.836278
vt 0.36481 0.876814
vt 0.355362 0.977759
vt 0.240432 0.983426
vt 0.222635 0.98951
vt 0.025359 0.654638
vt 0.019586 0.818053
vt 0.010789 0.971949
vt 0.027873 0.986198
vt 0.006442 0.643052
vt 0.021143 0.626393
vt 0.338866 0.621518
vt 0.411769 0.270491
vt 0.51519 0.241298
vt 0.414106 0.243072
vt 0.56825 0.266354
vt 0.523188 0.230889
vt 0.553073 0.234561
vt 0.405792 0.312815
vt 0.655471 0.2341
vt 0.553934 0.408293
vt 0.410219 0.40424
vt 0.719305 0.352719
vt 0.749223 0.262398
vt 0.772389 0.413945
vt 0.76229 0.265425
vt 0.766222 0.454824
vt 0.74475 0.489895
vt 0.494545 0.584221
vt 0.41242 0.540831
vt 0.706906 0.575077
vt 0.751608 0.604467
vt 0.720224 0.608586
vt 0.627631 0.607453
vt 0.472901 0.613151
vt 0.433441 0.584014
vt 0.417719 0.611658
vt 0.413603 0.594061
vt 0.398804 0.593592
vt 0.402944 0.614884
vt 0.960386 0.576159
vt 0.916369 0.569512
vt 0.919085 0.586773
vt 0.970532 0.419465
vt 0.992539 0.557042
vt 0.890526 0.24635
vt 0.982561 0.312233
vt 0.963559 0.247081
vt 0.777282 0.258626
vt 0.773678 0.236908
vt 0.85078 0.575893
vt 0.809847 0.571629
vt 0.86995 0.587647
vt 0.812515 0.592869
vt 0.865295 0.597512
vt 0.842542 0.599576
vt 0.60361 0.021604
vt 0.781233 0.175023
vt 0.782253 0.025444
vt 0.695564 0.173697
vt 0.697481 0.204318
vt 0.763501 0.222478
vt 0.689841 0.2261
vt 0.688254 0.20353
vt 0.523248 0.156805
vt 0.574116 0.214014
vt 0.496724 0.221035
vt 0.455422 0.136986
vt 0.442422 0.210023
vt 0.404765 0.101738
vt 0.444253 0.098977
vt 0.434606 0.023443
vt 0.422188 0.063371
vt 0.948138 0.954834
vt 0.969662 0.966092
vt 0.966994 0.944852
vt 0.934428 0.631849
vt 0.834413 0.960291
vt 0.830281 0.985181
vt 0.824375 0.966358
vt 0.822218 0.976399
vt 0.789572 0.969322
vt 0.781737 0.955822
vt 0.78414 0.904051
vt 0.782384 0.746758
vt 0.788351 0.65396
vt 0.853219 0.620998
vt 0.797234 0.623528
vt 0.930825 0.610132
vt 0.735845 0.639282
vt 0.730083 0.652932
vt 0.753118 0.652144
vt 0.752221 0.683145
vt 0.741295 0.687409
vt 0.574018 0.643018
vt 0.686391 0.623833
vt 0.55417 0.626604
vt 0.732445 0.801318
vt 0.767143 0.800964
vt 0.756501 0.821724
vt 0.678393 0.827845
vt 0.560006 0.863566
vt 0.46774 0.650233
vt 0.464757 0.632002
vt 0.423374 0.640272
vt 0.408655 0.761961
vt 0.426506 0.65749
vt 0.3995 0.652862
vt 0.392338 0.763469
vt 0.387166 0.780698
vt 0.383237 0.968425
vt 0.404491 0.96572
vt 0.494876 0.97922
vt 0.507654 0.976179
vt 0.742276 0.884313
vt 0.73009 0.974688
vt 0.751548 0.853732
vt 0.749992 0.875863
vt 0.756239 0.883673
vt 0.773901 0.925713
vt 0.740965 0.919048
vt 0.763499 0.971757
vt 0.758635 0.931953
vt 0.738063 0.838743
vn -0.56081176 -0.011744003 0.8278601
vn -0.05865432 -0.04479902 0.9972727
vn -0.2309254 -0.60839915 0.7592917
vn -0.493614 0.021075008 0.8694257
vn -0.05219607 0.040212996 0.9978269
vn -0.9985287 0.05252901 0.013458523
vn 0.032185707 0.8368628 0.5464657
vn -0.011427098 0.09813397 0.99510765
vn 0.015591021 0.009626 0.99983215
vn 0.0013728973 -0.60956126 0.7927379
vn 0.0134010855 -0.26669404 0.9636881
vn -0.8083254 -0.588147 0.026327603
vn -0.56081176 -0.011744003 0.8278601
vn -0.2309254 -0.60839915 0.7592917
vn -0.25448984 -0.96025664 0.11463929
vn -0.05865432 -0.04479902 0.9972727
vn -0.9983558 -0.057161007 -0.0042628353
vn 0.0013728973 -0.60956126 0.7927379
vn -0.17555605 -0.9844679 0.001725678
vn -0.20344995 -0.9789331 0.017262276
vn -0.99844307 -0.036823016 -0.041899566
vn -0.012085723 -0.997566 0.06867311
vn 0.0134010855 -0.26669404 0.9636881
vn 0.07215872 -0.49400917 0.8664572
vn 0.04681598 -0.99689543 0.063306056
vn 0.95659363 -0.16374499 0.24107261
vn 0.9810083 -0.19387208 -0.0060228743
vn -0.012880884 -0.9999008 -0.0057050595
vn 0.06939288 -0.9975431 0.009618053
vn 0.98978454 -0.14199197 0.012838631
vn 0.6788435 -0.7291227 -0.08689918
vn -0.13489635 -0.89033896 -0.43485585
vn -0.98848826 -0.011222007 -0.15088072
vn -0.07649581 -0.04645802 -0.995987
vn 0.017349316 -0.048472017 -0.9986739
vn -0.03194258 -0.8697684 -0.49242535
vn 0.080499925 -0.329815 -0.94060713
vn 0.0020787767 -0.98170084 -0.1904181
vn 0.02020127 -0.82934225 -0.55837566
vn 0.08035819 -0.18720496 -0.9790285
vn 0.98990446 -0.11486299 -0.0830396
vn 0.0026380862 -0.997241 -0.07418528
vn 0.032185707 0.8368628 0.5464657
vn -0.9985287 0.05252901 0.013458523
vn -0.08270499 0.98762894 0.13322529
vn -0.9884552 0.15150703 0.0013943742
vn -0.9995253 0.028058985 -0.012724973
vn -0.9963342 0.06796604 -0.051950052
vn -0.9933891 0.11472498 -0.0040392326
vn -0.90382534 0.40877387 -0.12650594
vn -0.9506773 0.25250813 -0.18014541
vn -0.9839544 0.099292964 -0.14823857
vn -0.9244362 0.046079002 -0.37854245
vn -0.9998273 0.0032620004 0.018298771
vn -0.9983558 -0.057161007 -0.0042628353
vn -0.99844307 -0.036823016 -0.041899566
vn -0.98848826 -0.011222007 -0.15088072
vn -0.8083254 -0.588147 0.026327603
vn -0.56081176 -0.011744003 0.8278601
vn -0.493614 0.021075008 0.8694257
vn -0.28962943 0.9412627 -0.17360678
vn -0.90382534 0.40877387 -0.12650594
vn -0.9506773 0.25250813 -0.18014541
vn -0.052115787 0.99859065 -0.010035217
vn -0.9963342 0.06796604 -0.051950052
vn -0.9933891 0.11472498 -0.0040392326
vn -0.050071757 0.9938719 -0.09854575
vn -0.9884552 0.15150703 0.0013943742
vn -0.0028557219 0.9999927 -0.0025264383
vn -0.0074055474 0.99647456 -0.083568074
vn 0.012173326 0.99783164 0.0646817
vn -0.08270499 0.98762894 0.13322529
vn -0.011427098 0.09813397 0.99510765
vn 0.032185707 0.8368628 0.5464657
vn -2.6602367E-05 0.83809614 0.5455226
vn 0.05066556 0.9913601 0.12098785
vn 0.073012434 0.99732983 0.0015407183
vn 0.0111493515 0.992892 -0.11849518
vn 0.09333587 0.9928524 0.07438057
vn 0.41465837 0.36303496 0.8344243
vn 0.9951402 0.09828304 0.0060373703
vn 0.860456 0.5094378 0.009413714
vn 0.9831649 0.18125094 0.023126967
vn 0.2580833 0.965643 -0.030443987
vn 0.93669736 0.35009697 0.005488963
vn 0.42593947 0.89233184 -0.1493974
vn 0.10259727 0.60149074 -0.79226434
vn 0.7293727 0.12154003 -0.6732336
vn 0.98990446 -0.11486299 -0.0830396
vn 0.99983644 -0.014758002 -0.01045111
vn 0.7014619 -0.03435201 -0.7118786
vn 0.98978454 -0.14199197 0.012838631
vn 0.6788435 -0.7291227 -0.08689918
vn 0.9902552 -0.013153002 0.1386421
vn 0.9810083 -0.19387208 -0.0060228743
vn 0.95659363 -0.16374499 0.24107261
vn 0.9998307 0.018400995 7.2068874E-06
vn 0.45776805 0.019315 0.8888618
vn 0.99975866 0.011593 -0.018663125
vn 0.9985959 -0.04095899 -0.033594187
vn 0.9180601 -0.032601 -0.3950985
vn 0.9072886 0.064463034 -0.4155381
vn 0.885988 -0.2598359 -0.38407102
vn 0.25022644 -0.086221 -0.9643405
vn 0.015591021 0.009626 0.99983215
vn 0.07215872 -0.49400917 0.8664572
vn 0.0134010855 -0.26669404 0.9636881
vn 0.053718537 0.007337998 0.9985292
vn 0.48373342 -0.082615994 0.87130743
vn 0.95659363 -0.16374499 0.24107261
vn 0.9902552 -0.013153002 0.1386421
vn 0.14518619 0.025920007 0.9890648
vn 0.12348453 0.023814 0.9920608
vn 0.45776805 0.019315 0.8888618
vn 0.633573 0.08478803 0.7690228
vn 0.13216464 0.13892601 0.9814439
vn 0.41465837 0.36303496 0.8344243
vn 0.05066556 0.9913601 0.12098785
vn 0.03430662 0.13112003 0.9907727
vn -0.011427098 0.09813397 0.99510765
vn -2.6602367E-05 0.83809614 0.5455226
vn 0.99699175 -0.010745997 -0.076759085
vn 0.9072886 0.064463034 -0.4155381
vn 0.9985959 -0.04095899 -0.033594187
vn 0.9998307 0.018400995 7.2068874E-06
vn 0.9993767 -0.00010199998 -0.035301648
vn 0.6327266 -0.028916996 -0.7738351
vn 0.9933646 -0.11409197 -0.014491372
vn 0.60103875 -0.137239 -0.7873487
vn 0.7293727 0.12154003 -0.6732336
vn 0.93669736 0.35009697 0.005488963
vn 0.9831649 0.18125094 0.023126967
vn 0.860456 0.5094378 0.009413714
vn 0.9951402 0.09828304 0.0060373703
vn 0.633573 0.08478803 0.7690228
vn 0.41465837 0.36303496 0.8344243
vn 0.45776805 0.019315 0.8888618
vn 0.10259727 0.60149074 -0.79226434
vn -0.0039209174 0.042364 -0.9990945
vn 0.7293727 0.12154003 -0.6732336
vn 0.60103875 -0.137239 -0.7873487
vn 0.6327266 -0.028916996 -0.7738351
vn -0.0013859735 0.08555504 -0.99633247
vn 0.0111493515 0.992892 -0.11849518
vn -0.0074055474 0.99647456 -0.083568074
vn 0.2486147 -0.014123998 -0.9684995
vn 0.99699175 -0.010745997 -0.076759085
vn 0.9072886 0.064463034 -0.4155381
vn -0.017578712 -0.049831007 -0.9986029
vn 0.012006835 -0.00318 -0.9999229
vn 0.00456765 0.040840007 -0.9991553
vn -0.050071757 0.9938719 -0.09854575
vn -0.28962943 0.9412627 -0.17360678
vn -0.049316872 0.011837006 -0.998713
vn -0.37377658 0.17209204 -0.911414
vn -0.9506773 0.25250813 -0.18014541
vn -0.9839544 0.099292964 -0.14823857
vn -0.9244362 0.046079002 -0.37854245
vn -0.98848826 -0.011222007 -0.15088072
vn -0.07649581 -0.04645802 -0.995987
vn 0.017349316 -0.048472017 -0.9986739
vn 0.080499925 -0.329815 -0.94060713
vn 0.058170117 -0.018208995 -0.9981406
vn 0.08035819 -0.18720496 -0.9790285
vn 0.25022644 -0.086221 -0.9643405
vn 0.885988 -0.2598359 -0.38407102
vn 0.9180601 -0.032601 -0.3950985
vn 0.99983644 -0.014758002 -0.01045111
vn 0.07519359 -0.009100999 -0.9971275
vn 0.98990446 -0.11486299 -0.0830396
vn 0.7014619 -0.03435201 -0.7118786
vn 0.16966611 -0.26960406 -0.9479067
g blockRough_0
f 3/3/3 2/2/2 1/1/1
f 4/4/4 1/1/1 2/2/2
f 5/5/5 4/4/4 2/2/2
f 4/4/4 5/5/5 6/6/6
f 5/5/5 7/7/7 6/6/6
f 5/5/5 8/8/8 7/7/7
f 5/5/5 2/2/2 8/8/8
f 2/2/2 9/9/9 8/8/8
f 2/2/2 10/10/10 9/9/9
f 10/10/10 11/11/11 9/9/9
f 14/14/14 13/13/13 12/12/12
f 15/15/15 14/14/14 12/12/12
f 14/14/14 15/15/15 16/16/16
f 15/15/15 12/12/12 17/17/17
f 15/15/15 18/18/18 16/16/16
f 19/19/19 15/15/15 17/17/17
f 15/15/15 19/19/19 18/18/18
f 19/19/19 17/17/17 20/20/20
f 21/21/21 20/20/20 17/17/17
f 22/22/22 18/18/18 19/19/19
f 22/22/22 23/23/23 18/18/18
f 23/23/23 22/22/22 24/24/24
f 22/22/22 25/25/25 24/24/24
f 26/26/26 24/24/24 25/25/25
f 27/27/27 26/26/26 25/25/25
f 22/22/22 19/19/19 28/28/28
f 25/25/25 22/22/22 28/28/28
f 27/27/27 25/25/25 29/29/29
f 29/29/29 25/25/25 28/28/28
f 29/29/29 30/30/30 27/27/27
f 29/29/29 31/31/31 30/30/30
f 32/32/32 20/20/20 21/21/21
f 32/32/32 21/21/21 33/33/33
f 34/34/34 32/32/32 33/33/33
f 32/32/32 34/34/34 35/35/35
f 36/36/36 32/32/32 35/35/35
f 32/32/32 36/36/36 20/20/20
f 36/36/36 35/35/35 37/37/37
f 19/19/19 20/20/20 38/38/38
f 36/36/36 38/38/38 20/20/20
f 38/38/38 36/36/36 37/37/37
f 28/28/28 19/19/19 38/38/38
f 39/39/39 38/38/38 37/37/37
f 39/39/39 28/28/28 38/38/38
f 40/40/40 39/39/39 37/37/37
f 39/39/39 40/40/40 31/31/31
f 31/31/31 40/40/40 41/41/41
f 31/31/31 29/29/29 42/42/42
f 42/42/42 29/29/29 28/28/28
f 31/31/31 42/42/42 39/39/39
f 42/42/42 28/28/28 39/39/39
f 45/45/45 44/44/44 43/43/43
f 44/44/44 45/45/45 46/46/46
f 44/44/44 46/46/46 47/47/47
f 48/48/48 47/47/47 46/46/46
f 49/49/49 48/48/48 46/46/46
f 48/48/48 50/50/50 47/47/47
f 47/47/47 50/50/50 51/51/51
f 52/52/52 47/47/47 51/51/51
f 52/52/52 53/53/53 47/47/47
f 54/54/54 44/44/44 47/47/47
f 53/53/53 55/55/55 47/47/47
f 54/54/54 47/47/47 55/55/55
f 56/56/56 55/55/55 53/53/53
f 57/57/57 56/56/56 53/53/53
f 58/58/58 54/54/54 55/55/55
f 58/58/58 59/59/59 54/54/54
f 44/44/44 54/54/54 59/59/59
f 60/60/60 44/44/44 59/59/59
f 63/63/63 62/62/62 61/61/61
f 62/62/62 64/64/64 61/61/61
f 65/65/65 64/64/64 62/62/62
f 65/65/65 66/66/66 64/64/64
f 61/61/61 64/64/64 67/67/67
f 66/66/66 68/68/68 64/64/64
f 64/64/64 69/69/69 67/67/67
f 69/69/69 70/70/70 67/67/67
f 64/64/64 68/68/68 71/71/71
f 64/64/64 71/71/71 69/69/69
f 72/72/72 71/71/71 68/68/68
f 73/73/73 71/71/71 72/72/72
f 74/74/74 73/73/73 72/72/72
f 73/73/73 75/75/75 71/71/71
f 75/75/75 76/76/76 71/71/71
f 71/71/71 76/76/76 69/69/69
f 69/69/69 77/77/77 70/70/70
f 77/77/77 78/78/78 70/70/70
f 76/76/76 79/79/79 69/69/69
f 69/69/69 79/79/79 77/77/77
f 76/76/76 80/80/80 79/79/79
f 80/80/80 81/81/81 79/79/79
f 79/79/79 81/81/81 82/82/82
f 79/79/79 82/82/82 77/77/77
f 82/82/82 83/83/83 77/77/77
f 84/84/84 77/77/77 83/83/83
f 84/84/84 78/78/78 77/77/77
f 84/84/84 83/83/83 85/85/85
f 86/86/86 78/78/78 84/84/84
f 86/86/86 84/84/84 85/85/85
f 86/86/86 87/87/87 78/78/78
f 87/87/87 86/86/86 85/85/85
f 87/87/87 85/85/85 88/88/88
f 91/91/91 90/90/90 89/89/89
f 89/89/89 90/90/90 92/92/92
f 93/93/93 89/89/89 92/92/92
f 90/90/90 94/94/94 92/92/92
f 95/95/95 92/92/92 94/94/94
f 96/96/96 95/95/95 94/94/94
f 94/94/94 90/90/90 97/97/97
f 98/98/98 94/94/94 97/97/97
f 90/90/90 99/99/99 97/97/97
f 99/99/99 100/100/100 97/97/97
f 101/101/101 99/99/99 90/90/90
f 99/99/99 102/102/102 100/100/100
f 103/103/103 99/99/99 101/101/101
f 104/104/104 102/102/102 99/99/99
f 104/104/104 99/99/99 103/103/103
f 107/107/107 106/106/106 105/105/105
f 105/105/105 106/106/106 108/108/108
f 109/109/109 108/108/108 106/106/106
f 106/106/106 110/110/110 109/109/109
f 110/110/110 111/111/111 109/109/109
f 112/112/112 108/108/108 109/109/109
f 109/109/109 111/111/111 112/112/112
f 112/112/112 113/113/113 108/108/108
f 113/113/113 112/112/112 111/111/111
f 113/113/113 105/105/105 108/108/108
f 114/114/114 113/113/113 111/111/111
f 113/113/113 114/114/114 115/115/115
f 116/116/116 113/113/113 115/115/115
f 113/113/113 116/116/116 105/105/105
f 117/117/117 116/116/116 115/115/115
f 116/116/116 117/117/117 118/118/118
f 116/116/116 119/119/119 105/105/105
f 119/119/119 116/116/116 118/118/118
f 120/120/120 105/105/105 119/119/119
f 121/121/121 119/119/119 118/118/118
f 120/120/120 119/119/119 121/121/121
f 124/124/124 123/123/123 122/122/122
f 124/124/124 122/122/122 125/125/125
f 122/122/122 126/126/126 125/125/125
f 122/122/122 127/127/127 126/126/126
f 126/126/126 127/127/127 128/128/128
f 127/127/127 129/129/129 128/128/128
f 130/130/130 128/128/128 129/129/129
f 130/130/130 131/131/131 128/128/128
f 126/126/126 128/128/128 131/131/131
f 132/132/132 126/126/126 131/131/131
f 133/133/133 126/126/126 132/132/132
f 134/134/134 126/126/126 133/133/133
f 125/125/125 126/126/126 134/134/134
f 135/135/135 125/125/125 134/134/134
f 136/136/136 135/135/135 134/134/134
f 137/137/137 125/125/125 135/135/135
f 140/140/140 139/139/139 138/138/138
f 140/140/140 141/141/141 139/139/139
f 141/141/141 142/142/142 139/139/139
f 138/138/138 139/139/139 143/143/143
f 144/144/144 138/138/138 143/143/143
f 145/145/145 144/144/144 143/143/143
f 139/139/139 142/142/142 146/146/146
f 146/146/146 142/142/142 147/147/147
f 146/146/146 147/147/147 148/148/148
f 139/139/139 146/146/146 149/149/149
f 143/143/143 139/139/139 149/149/149
f 150/150/150 143/143/143 149/149/149
f 145/145/145 143/143/143 151/151/151
f 151/151/151 143/143/143 150/150/150
f 152/152/152 145/145/145 151/151/151
f 153/153/153 152/152/152 151/151/151
f 154/154/154 151/151/151 150/150/150
f 155/155/155 151/151/151 154/154/154
f 155/155/155 153/153/153 151/151/151
f 156/156/156 153/153/153 155/155/155
f 156/156/156 155/155/155 154/154/154
f 157/157/157 156/156/156 154/154/154
f 158/158/158 157/157/157 154/154/154
f 159/159/159 158/158/158 154/154/154
f 160/160/160 159/159/159 154/154/154
f 160/160/160 154/154/154 161/161/161
f 154/154/154 150/150/150 161/161/161
f 161/161/161 150/150/150 162/162/162
f 150/150/150 163/163/163 162/162/162
f 164/164/164 162/162/162 163/163/163
f 150/150/150 165/165/165 163/163/163
f 150/150/150 149/149/149 165/165/165
f 166/166/166 163/163/163 165/165/165
f 167/167/167 163/163/163 166/166/166
f 163/163/163 167/167/167 168/168/168
f 169/169/169 164/164/164 163/163/163
f 169/169/169 163/163/163 168/168/168
f 164/164/164 169/169/169 170/170/170
f 169/169/169 168/168/168 171/171/171
f 169/169/169 171/171/171 170/170/170
f 165/165/165 149/149/149 172/172/172
f 172/172/172 149/149/149 146/146/146
f 165/165/165 172/172/172 148/148/148
f 172/172/172 146/146/146 148/148/148
