g bridge_y6_A
v -0.24019596 5.513751 -5.9999995
v -0.24019596 5.513751 -7.999999
v -0.26925245 5.369167 -8
v -0.26925245 5.369167 -6.0000005
v -0.24019596 5.513751 -3.9999995
v -0.3519983 5.2465944 -7.999999
v -0.26925245 5.369167 -3.9999998
v -0.24019596 5.513751 -1.9999993
v -0.3519983 5.2465944 -5.999999
v -0.47583628 5.164693 -8
v -0.26925245 5.369167 -1.9999999
v -0.24019596 5.513751 3.0867523E-07
v -0.26925245 5.3691673 3.1292439E-07
v -0.3519983 5.2465944 -3.9999995
v -0.47583628 5.164693 -6.0000005
v -0.6302137 5.136743 -8
v -0.3519983 5.2465944 -1.9999995
v -0.3519983 5.2465944 2.9802322E-07
v -0.47583628 5.164693 -3.9999998
v -0.6302137 5.136743 -6.0000005
v -2.2500005 5.1375513 -8
v -0.47583628 5.164693 -2
v -0.47583628 5.164693 2.9802322E-07
v -0.6302137 5.136743 -4
v -2.2500005 5.1375513 -6.0000005
v -3.9999995 5.1375513 -7.9999995
v -0.6302137 5.136743 -1.9999999
v -0.6302137 5.1367426 2.9802322E-07
v -2.2500005 5.137552 -3.9999998
v -3.9999995 5.1375513 -5.9999995
v -5.749999 5.1375513 -7.9999995
v -2.2500005 5.1375513 -1.9999999
v -2.2500005 5.1375513 2.9802322E-07
v -3.9999995 5.1375513 -3.9999993
v -5.749999 5.1375513 -5.9999995
v -7.3697853 5.136742 -7.999999
v -3.9999995 5.1375513 -1.9999995
v -3.9999995 5.1375513 2.9802322E-07
v -5.749999 5.1375513 -3.9999993
v -7.3697853 5.136742 -5.999999
v -7.524163 5.164693 -7.9999995
v -5.749999 5.1375513 -1.9999995
v -5.749999 5.1375513 2.9802322E-07
v -7.3697853 5.136742 -3.9999995
v -7.524163 5.164693 -5.9999995
v -7.648002 5.2465944 -7.999999
v -7.3697853 5.136742 -1.9999995
v -7.3697853 5.1367416 2.9802322E-07
v -7.524163 5.164693 -3.9999993
v -7.648002 5.2465944 -5.999999
v -7.7307487 5.3691664 -7.9999995
v -7.524163 5.164693 -1.9999995
v -7.524163 5.164693 2.9802322E-07
v -7.648002 5.2465944 -3.9999995
v -7.7307487 5.3691664 -5.9999995
v -7.7598047 5.513751 -8
v -7.7598047 5.513751 -6.0000005
v -7.648002 5.2465944 -1.9999995
v -7.648002 5.2465944 2.9802322E-07
v -7.7307487 5.3691664 -3.9999995
v -7.7598047 5.513751 -4
v -7.7307487 5.3691664 -1.9999994
v -7.7307487 5.3691664 3.1292439E-07
v -7.7598047 5.513751 -1.9999998
v -7.7598047 5.513751 3.0867523E-07
v -7.7598047 5.513751 -6.0000005
v -7.7598047 5.513751 -8
v -7.7307487 5.6583357 -8
v -7.7307487 5.6583357 -6.0000005
v -7.7598047 5.513751 -4
v -7.648002 5.7809086 -7.9999995
v -7.7307487 5.6583357 -4
v -7.7598047 5.513751 -1.9999998
v -7.648002 5.7809086 -5.9999995
v -7.5241637 5.862809 -7.9999995
v -7.7307487 5.6583357 -1.9999998
v -7.7598047 5.513751 3.0867523E-07
v -7.7307487 5.6583357 3.1292439E-07
v -7.648002 5.780908 -3.9999995
v -7.5241637 5.862809 -5.9999995
v -7.3697853 5.8907604 -8
v -7.648002 5.7809086 -1.9999995
v -7.648002 5.7809086 2.9802322E-07
v -7.5241637 5.862809 -3.9999995
v -7.3697853 5.8907604 -6.0000005
v -5.749999 5.8899508 -7.9999995
v -7.5241637 5.862809 -1.9999993
v -7.5241637 5.862809 2.9802322E-07
v -7.3697853 5.8907604 -4
v -5.749999 5.889951 -5.9999995
v -3.9999995 5.8899508 -8
v -7.3697853 5.8907604 -2
v -7.3697853 5.8907604 2.9802322E-07
v -5.749999 5.889951 -3.9999995
v -3.9999995 5.889951 -6.0000005
v -2.2500002 5.8899508 -8
v -5.749999 5.8899508 -1.9999993
v -5.749999 5.8899508 2.9802322E-07
v -3.9999995 5.889951 -4
v -2.2500002 5.889951 -6.0000005
v -0.6302137 5.8907604 -8
v -3.9999995 5.8899508 -1.9999998
v -3.9999995 5.8899508 2.9802322E-07
v -2.2500002 5.889951 -4
v -0.6302137 5.8907604 -6.0000005
v -0.47583628 5.862809 -8
v -2.2500002 5.8899508 -1.9999998
v -2.2500002 5.8899508 2.9802322E-07
v -0.6302137 5.8907604 -4
v -0.47583628 5.862809 -6.0000005
v -0.3519983 5.7809086 -7.999999
v -0.6302137 5.8907604 -2
v -0.6302137 5.8907604 2.9802322E-07
v -0.47583628 5.862809 -4
v -0.3519983 5.7809086 -5.9999995
v -0.26925245 5.6583357 -8
v -0.47583628 5.862809 -1.9999998
v -0.47583628 5.862809 2.9802322E-07
v -0.3519983 5.7809086 -3.9999995
v -0.26925245 5.6583357 -6.0000005
v -0.24019596 5.513751 -7.999999
v -0.24019596 5.513751 -5.9999995
v -0.3519983 5.7809086 -1.9999995
v -0.3519983 5.7809086 2.9802322E-07
v -0.26925245 5.6583357 -4
v -0.24019596 5.513751 -3.9999995
v -0.26925245 5.6583357 -1.9999998
v -0.26925245 5.6583357 3.1292439E-07
v -0.24019596 5.513751 -1.9999993
v -0.24019596 5.513751 3.0867523E-07
vt 0.9699755 0.75
vt 0.9699755 0.9999999
vt 0.9663434 1
vt 0.9663434 0.75
vt 0.9699755 0.49999994
vt 0.9560002 1
vt 0.9663434 0.5
vt 0.9699755 0.24999994
vt 0.9560002 0.75
vt 0.9405205 1
vt 0.9663434 0.25000006
vt 0.9699755 0
vt 0.9663434 5.9604645E-08
vt 0.9560002 0.5
vt 0.9405205 0.75
vt 0.9212233 1
vt 0.9560002 0.25
vt 0.9560002 5.9604645E-08
vt 0.9405205 0.5
vt 0.9212233 0.75
vt 0.71875 1
vt 0.9405205 0.25000006
vt 0.9405205 5.9604645E-08
vt 0.9212233 0.5
vt 0.71875 0.75
vt 0.5000001 1
vt 0.9212233 0.25000006
vt 0.9212233 5.9604645E-08
vt 0.71875 0.5
vt 0.5000001 0.75
vt 0.28125012 1
vt 0.71875 0.25000006
vt 0.71875 5.9604645E-08
vt 0.5000001 0.5
vt 0.28125012 0.75
vt 0.078776896 1
vt 0.5000001 0.25
vt 0.5000001 5.9604645E-08
vt 0.28125012 0.5
vt 0.078776896 0.75
vt 0.059479773 1
vt 0.28125012 0.25
vt 0.28125012 5.9604645E-08
vt 0.078776896 0.5
vt 0.059479773 0.75
vt 0.04399985 1
vt 0.078776896 0.25
vt 0.078776896 5.9604645E-08
vt 0.059479773 0.5
vt 0.04399985 0.75
vt 0.033656478 1
vt 0.059479773 0.25
vt 0.059479773 5.9604645E-08
vt 0.04399985 0.5
vt 0.033656478 0.75
vt 0.030024529 1
vt 0.030024529 0.75
vt 0.04399985 0.25
vt 0.04399985 5.9604645E-08
vt 0.033656478 0.5
vt 0.030024529 0.5
vt 0.033656478 0.25
vt 0.033656478 5.9604645E-08
vt 0.030024529 0.25
vt 0.030024529 0
vt 0.030024529 0.75
vt 0.030024529 1
vt 0.033656478 1
vt 0.033656478 0.75
vt 0.030024529 0.5
vt 0.04399985 0.9999999
vt 0.033656478 0.5
vt 0.030024529 0.25
vt 0.04399985 0.75
vt 0.059479654 0.9999999
vt 0.033656478 0.25
vt 0.030024529 0
vt 0.033656478 0
vt 0.04399985 0.49999994
vt 0.059479654 0.75
vt 0.078776896 1
vt 0.04399985 0.24999994
vt 0.04399985 0
vt 0.059479654 0.49999994
vt 0.078776896 0.75
vt 0.28125012 0.9999999
vt 0.059479654 0.24999994
vt 0.059479654 0
vt 0.078776896 0.5
vt 0.28125012 0.75
vt 0.5000001 1
vt 0.078776896 0.25
vt 0.078776896 0
vt 0.28125012 0.49999994
vt 0.5000001 0.75
vt 0.71875 1
vt 0.28125012 0.24999994
vt 0.28125012 0
vt 0.5000001 0.5
vt 0.71875 0.75
vt 0.9212233 1
vt 0.5000001 0.25
vt 0.5000001 0
vt 0.71875 0.5
vt 0.9212233 0.75
vt 0.9405205 1
vt 0.71875 0.25
vt 0.71875 0
vt 0.9212233 0.5
vt 0.9405205 0.75
vt 0.9560002 0.9999999
vt 0.9212233 0.25
vt 0.9212233 0
vt 0.9405205 0.5
vt 0.9560002 0.75
vt 0.9663434 1
vt 0.9405205 0.25
vt 0.9405205 0
vt 0.9560002 0.49999994
vt 0.9663434 0.75
vt 0.9699755 0.9999999
vt 0.9699755 0.75
vt 0.9560002 0.24999994
vt 0.9560002 0
vt 0.9663434 0.5
vt 0.9699755 0.49999994
vt 0.9663434 0.25
vt 0.9663434 0
vt 0.9699755 0.24999994
vt 0.9699755 0
vn 1 0 0
vn 1 0 0
vn 0.9224786 -0.38604814 0
vn 0.9224787 -0.38604805 0
vn 1 0 0
vn 0.7034681 -0.71072686 0
vn 0.9224787 -0.38604796 0
vn 1 0 0
vn 0.70346814 -0.71072686 0
vn 0.36725152 -0.9301217 0
vn 0.9224787 -0.38604802 0
vn 1 0 0
vn 0.9224787 -0.3860479 0
vn 0.70346814 -0.7107268 0
vn 0.3672519 -0.93012154 0
vn 0.0152964415 -0.99988306 0
vn 0.7034684 -0.7107266 0
vn 0.7034686 -0.7107264 0
vn 0.36725187 -0.93012154 0
vn 0.01529637 -0.99988306 0
vn -0.00023984878 -1 0
vn 0.3672522 -0.9301214 0
vn 0.3672525 -0.93012124 0
vn 0.015296306 -0.99988306 0
vn -0.0002398488 -1 0
vn -0 -1 0
vn 0.015296374 -0.99988306 0
vn 0.015296436 -0.99988306 0
vn -0.00023984884 -1 0
vn -0 -1 0
vn 0.00024013178 -1 0
vn -0.00023988416 -1 0
vn -0.00023991955 -1 0
vn -0 -1 0
vn 0.00024013175 -1 0
vn -0.015296479 -0.99988306 0
vn -0 -1 0
vn -0 -1 0
vn 0.00024013176 -1 0
vn -0.015296455 -0.99988306 0
vn -0.36725283 -0.9301211 0
vn 0.00024016718 -1 0
vn 0.00024020256 -1 0
vn -0.015296445 -0.99988306 0
vn -0.36725283 -0.93012124 0
vn -0.7034638 -0.710731 0
vn -0.015296445 -0.99988306 0
vn -0.015296445 -0.99988306 0
vn -0.36725286 -0.93012124 0
vn -0.7034638 -0.7107311 0
vn -0.9224785 -0.38604832 0
vn -0.36725333 -0.93012094 0
vn -0.3672536 -0.9301208 0
vn -0.7034641 -0.71073073 0
vn -0.9224784 -0.3860487 0
vn -1 0 0
vn -1 0 0
vn -0.70346373 -0.71073115 0
vn -0.7034629 -0.71073204 0
vn -0.9224784 -0.3860487 0
vn -1 0 0
vn -0.9224784 -0.3860487 0
vn -0.9224784 -0.38604873 0
vn -1 0 0
vn -1 0 0
vn -1 0 0
vn -1 0 0
vn -0.922479 0.38604742 0
vn -0.9224788 0.38604775 0
vn -1 0 0
vn -0.7034655 0.71072936 0
vn -0.9224788 0.3860478 0
vn -1 0 0
vn -0.7034654 0.7107295 0
vn -0.3672509 0.93012196 0
vn -0.9224788 0.3860477 0
vn -1 0 0
vn -0.9224789 0.38604754 0
vn -0.70346546 0.7107295 0
vn -0.36725187 0.93012154 0
vn -0.015296528 0.99988306 0
vn -0.70346534 0.7107295 0
vn -0.70346534 0.71072954 0
vn -0.36725253 0.93012124 0
vn -0.015296639 0.99988306 0
vn 0.00024020257 1 0
vn -0.367252 0.9301214 0
vn -0.3672517 0.93012166 0
vn -0.015296642 0.99988306 0
vn 0.00024016721 1 0
vn -0 1 0
vn -0.015296485 0.99988306 0
vn -0.015296415 0.99988306 0
vn 0.00024016714 1 0
vn -0 1 0
vn -0.00024020256 1 0
vn 0.0002402379 1 0
vn 0.00024027331 1 0
vn -0 1 0
vn -0.0002401672 1 0
vn 0.015296575 0.99988306 0
vn -0 1 0
vn -0 1 0
vn -0.00024016718 1 0
vn 0.015296644 0.99988306 0
vn 0.36725286 0.93012124 0
vn -0.0002402379 1 0
vn -0.00024027328 1 0
vn 0.015296645 0.99988306 0
vn 0.36725324 0.930121 0
vn 0.70346725 0.71072763 0
vn 0.01529651 0.99988306 0
vn 0.015296442 0.99988306 0
vn 0.36725324 0.930121 0
vn 0.7034673 0.7107276 0
vn 0.9224792 0.38604686 0
vn 0.3672533 0.930121 0
vn 0.3672533 0.930121 0
vn 0.70346725 0.7107277 0
vn 0.9224791 0.3860469 0
vn 1 0 0
vn 1 0 0
vn 0.70346725 0.71072763 0
vn 0.70346737 0.7107276 0
vn 0.9224792 0.38604686 0
vn 1 0 0
vn 0.9224792 0.38604683 0
vn 0.9224792 0.38604683 0
vn 1 0 0
vn 1 0 0
g bridge_y6_A_0
f 3/3/3 2/2/2 1/1/1
f 4/4/4 3/3/3 1/1/1
f 4/4/4 1/1/1 5/5/5
f 6/6/6 3/3/3 4/4/4
f 7/7/7 4/4/4 5/5/5
f 7/7/7 5/5/5 8/8/8
f 9/9/9 6/6/6 4/4/4
f 9/9/9 4/4/4 7/7/7
f 10/10/10 6/6/6 9/9/9
f 11/11/11 7/7/7 8/8/8
f 11/11/11 8/8/8 12/12/12
f 13/13/13 11/11/11 12/12/12
f 14/14/14 9/9/9 7/7/7
f 14/14/14 7/7/7 11/11/11
f 15/15/15 10/10/10 9/9/9
f 15/15/15 9/9/9 14/14/14
f 16/16/16 10/10/10 15/15/15
f 17/17/17 11/11/11 13/13/13
f 17/17/17 14/14/14 11/11/11
f 18/18/18 17/17/17 13/13/13
f 19/19/19 15/15/15 14/14/14
f 19/19/19 14/14/14 17/17/17
f 20/20/20 16/16/16 15/15/15
f 20/20/20 15/15/15 19/19/19
f 21/21/21 16/16/16 20/20/20
f 22/22/22 17/17/17 18/18/18
f 22/22/22 19/19/19 17/17/17
f 23/23/23 22/22/22 18/18/18
f 24/24/24 20/20/20 19/19/19
f 24/24/24 19/19/19 22/22/22
f 25/25/25 21/21/21 20/20/20
f 25/25/25 20/20/20 24/24/24
f 26/26/26 21/21/21 25/25/25
f 27/27/27 22/22/22 23/23/23
f 27/27/27 24/24/24 22/22/22
f 28/28/28 27/27/27 23/23/23
f 29/29/29 25/25/25 24/24/24
f 29/29/29 24/24/24 27/27/27
f 30/30/30 26/26/26 25/25/25
f 30/30/30 25/25/25 29/29/29
f 31/31/31 26/26/26 30/30/30
f 32/32/32 27/27/27 28/28/28
f 32/32/32 29/29/29 27/27/27
f 33/33/33 32/32/32 28/28/28
f 34/34/34 30/30/30 29/29/29
f 34/34/34 29/29/29 32/32/32
f 35/35/35 31/31/31 30/30/30
f 35/35/35 30/30/30 34/34/34
f 36/36/36 31/31/31 35/35/35
f 37/37/37 32/32/32 33/33/33
f 37/37/37 34/34/34 32/32/32
f 38/38/38 37/37/37 33/33/33
f 39/39/39 35/35/35 34/34/34
f 39/39/39 34/34/34 37/37/37
f 40/40/40 36/36/36 35/35/35
f 40/40/40 35/35/35 39/39/39
f 41/41/41 36/36/36 40/40/40
f 42/42/42 37/37/37 38/38/38
f 42/42/42 39/39/39 37/37/37
f 43/43/43 42/42/42 38/38/38
f 44/44/44 40/40/40 39/39/39
f 44/44/44 39/39/39 42/42/42
f 45/45/45 41/41/41 40/40/40
f 45/45/45 40/40/40 44/44/44
f 46/46/46 41/41/41 45/45/45
f 47/47/47 42/42/42 43/43/43
f 47/47/47 44/44/44 42/42/42
f 48/48/48 47/47/47 43/43/43
f 49/49/49 45/45/45 44/44/44
f 49/49/49 44/44/44 47/47/47
f 50/50/50 46/46/46 45/45/45
f 50/50/50 45/45/45 49/49/49
f 51/51/51 46/46/46 50/50/50
f 52/52/52 47/47/47 48/48/48
f 52/52/52 49/49/49 47/47/47
f 53/53/53 52/52/52 48/48/48
f 54/54/54 50/50/50 49/49/49
f 54/54/54 49/49/49 52/52/52
f 55/55/55 51/51/51 50/50/50
f 55/55/55 50/50/50 54/54/54
f 56/56/56 51/51/51 55/55/55
f 57/57/57 56/56/56 55/55/55
f 58/58/58 52/52/52 53/53/53
f 58/58/58 54/54/54 52/52/52
f 59/59/59 58/58/58 53/53/53
f 60/60/60 55/55/55 54/54/54
f 57/57/57 55/55/55 60/60/60
f 60/60/60 54/54/54 58/58/58
f 61/61/61 57/57/57 60/60/60
f 62/62/62 58/58/58 59/59/59
f 62/62/62 60/60/60 58/58/58
f 61/61/61 60/60/60 62/62/62
f 63/63/63 62/62/62 59/59/59
f 64/64/64 61/61/61 62/62/62
f 64/64/64 62/62/62 63/63/63
f 65/65/65 64/64/64 63/63/63
f 68/68/68 67/67/67 66/66/66
f 69/69/69 68/68/68 66/66/66
f 69/69/69 66/66/66 70/70/70
f 71/71/71 68/68/68 69/69/69
f 72/72/72 69/69/69 70/70/70
f 72/72/72 70/70/70 73/73/73
f 74/74/74 71/71/71 69/69/69
f 74/74/74 69/69/69 72/72/72
f 75/75/75 71/71/71 74/74/74
f 76/76/76 72/72/72 73/73/73
f 76/76/76 73/73/73 77/77/77
f 78/78/78 76/76/76 77/77/77
f 79/79/79 74/74/74 72/72/72
f 79/79/79 72/72/72 76/76/76
f 80/80/80 75/75/75 74/74/74
f 80/80/80 74/74/74 79/79/79
f 81/81/81 75/75/75 80/80/80
f 82/82/82 76/76/76 78/78/78
f 82/82/82 79/79/79 76/76/76
f 83/83/83 82/82/82 78/78/78
f 84/84/84 80/80/80 79/79/79
f 84/84/84 79/79/79 82/82/82
f 85/85/85 81/81/81 80/80/80
f 85/85/85 80/80/80 84/84/84
f 86/86/86 81/81/81 85/85/85
f 87/87/87 82/82/82 83/83/83
f 87/87/87 84/84/84 82/82/82
f 88/88/88 87/87/87 83/83/83
f 89/89/89 85/85/85 84/84/84
f 89/89/89 84/84/84 87/87/87
f 90/90/90 86/86/86 85/85/85
f 90/90/90 85/85/85 89/89/89
f 91/91/91 86/86/86 90/90/90
f 92/92/92 87/87/87 88/88/88
f 92/92/92 89/89/89 87/87/87
f 93/93/93 92/92/92 88/88/88
f 94/94/94 90/90/90 89/89/89
f 94/94/94 89/89/89 92/92/92
f 95/95/95 91/91/91 90/90/90
f 95/95/95 90/90/90 94/94/94
f 96/96/96 91/91/91 95/95/95
f 97/97/97 92/92/92 93/93/93
f 97/97/97 94/94/94 92/92/92
f 98/98/98 97/97/97 93/93/93
f 99/99/99 95/95/95 94/94/94
f 99/99/99 94/94/94 97/97/97
f 100/100/100 96/96/96 95/95/95
f 100/100/100 95/95/95 99/99/99
f 101/101/101 96/96/96 100/100/100
f 102/102/102 97/97/97 98/98/98
f 102/102/102 99/99/99 97/97/97
f 103/103/103 102/102/102 98/98/98
f 104/104/104 100/100/100 99/99/99
f 104/104/104 99/99/99 102/102/102
f 105/105/105 101/101/101 100/100/100
f 105/105/105 100/100/100 104/104/104
f 106/106/106 101/101/101 105/105/105
f 107/107/107 102/102/102 103/103/103
f 107/107/107 104/104/104 102/102/102
f 108/108/108 107/107/107 103/103/103
f 109/109/109 105/105/105 104/104/104
f 109/109/109 104/104/104 107/107/107
f 110/110/110 106/106/106 105/105/105
f 110/110/110 105/105/105 109/109/109
f 111/111/111 106/106/106 110/110/110
f 112/112/112 107/107/107 108/108/108
f 112/112/112 109/109/109 107/107/107
f 113/113/113 112/112/112 108/108/108
f 114/114/114 110/110/110 109/109/109
f 114/114/114 109/109/109 112/112/112
f 115/115/115 111/111/111 110/110/110
f 115/115/115 110/110/110 114/114/114
f 116/116/116 111/111/111 115/115/115
f 117/117/117 112/112/112 113/113/113
f 117/117/117 114/114/114 112/112/112
f 118/118/118 117/117/117 113/113/113
f 119/119/119 115/115/115 114/114/114
f 119/119/119 114/114/114 117/117/117
f 120/120/120 116/116/116 115/115/115
f 120/120/120 115/115/115 119/119/119
f 121/121/121 116/116/116 120/120/120
f 122/122/122 121/121/121 120/120/120
f 123/123/123 117/117/117 118/118/118
f 123/123/123 119/119/119 117/117/117
f 124/124/124 123/123/123 118/118/118
f 122/122/122 120/120/120 125/125/125
f 125/125/125 120/120/120 119/119/119
f 125/125/125 119/119/119 123/123/123
f 126/126/126 122/122/122 125/125/125
f 127/127/127 123/123/123 124/124/124
f 127/127/127 125/125/125 123/123/123
f 126/126/126 125/125/125 127/127/127
f 128/128/128 127/127/127 124/124/124
f 129/129/129 126/126/126 127/127/127
f 129/129/129 127/127/127 128/128/128
f 130/130/130 129/129/129 128/128/128
