g button_button
v -0.14788023 0.07378825 -0.047839087
v -0 0.077223 0.0011935245
v -0.15549071 0.07372145 0.00020987622
v -0.14788023 0.07365462 0.048258837
v -0.16781797 0.07066638 0.00011804691
v -0.15960415 0.07059428 0.051976316
v -0.17905945 0.06588603 0.00019899957
v -0.12579443 0.07359454 0.09160502
v -0 0.077223 0.0011935245
v -0.1702954 0.06580912 0.0555311
v -0.1939688 0.02698941 0.0001448833
v -0.18447539 0.026906421 0.060084753
v -0.13576744 0.07052943 0.09875874
v -0.14486206 0.06573985 0.105447024
v -0.15692413 0.026831158 0.11415698
v -0.09139505 0.0735467 0.12600441
v -0.105248414 0.065684766 0.14506067
v -0.114012145 0.026771648 0.15706915
v -0.09864083 0.070477776 0.13588531
v -0.055332337 0.065649785 0.17049456
v -0.059939574 0.026733348 0.18462004
v -0.048049204 0.07351596 0.14809008
v -0.051858537 0.07044482 0.15972222
v -0 0.065637425 0.17925806
v -0 0.02672011 0.19411354
v -0 0.07350547 0.15570049
v -2.3401758E-09 0.07043334 0.16793577
v 0.055332337 0.065649785 0.17049456
v 0.059939574 0.026733348 0.18462004
v 0.048049204 0.07351596 0.14809008
v 0.051858533 0.07044482 0.15972222
v 0.105248414 0.065684766 0.14506067
v 0.114012145 0.02677178 0.15706909
v 0.09139505 0.0735467 0.12600441
v 0.09864083 0.070477776 0.13588531
v 0.12579443 0.07359454 0.09160502
v 0.14788023 0.07365462 0.048258837
v 0.13576743 0.07052943 0.09875874
v 0.14486206 0.06573985 0.105447024
v 0.15692413 0.026831158 0.11415698
v 0.15960413 0.07059428 0.051976316
v 0.1702954 0.06580912 0.0555311
v 0.18447539 0.026906421 0.060084753
v 0.17905913 0.06588603 0.00019899957
v 0.1939688 0.02698941 0.0001448833
v 0.16781782 0.07066638 0.00011804691
v 0.15549071 0.07372145 0.00020987622
v -0 0.077223 0.0011935245
v 0.14788052 0.073788024 -0.047839593
v -0.18447539 0.027072798 -0.059794504
v -0.17905945 0.06588603 0.00019899957
v -0.1939688 0.02698941 0.0001448833
v -0.1702954 0.065963045 -0.05513316
v -0.15692413 0.027148062 -0.11386672
v -0.16781797 0.07066638 0.00011804691
v -0.14486206 0.06603232 -0.105049096
v -0.114012145 0.02720759 -0.1567789
v -0.15960415 0.070738554 -0.051740292
v -0.15549071 0.07372145 0.00020987622
v -0.14788023 0.07378825 -0.047839087
v -0.105248414 0.06608741 -0.14466272
v -0.059939574 0.027245604 -0.18433033
v -0.13576758 0.07080333 -0.09852264
v -0.055332337 0.06612239 -0.1700966
v -0 0.027258823 -0.19382383
v -0.12579471 0.07384822 -0.0911852
v -0 0.077223 0.0011935245
v -0.09864083 0.07085494 -0.13564923
v -0 0.06613474 -0.17886011
v 0.059939574 0.027245604 -0.18433033
v -0.09139505 0.073895976 -0.12558459
v -0.051858537 0.07088801 -0.15948616
v 0.055332337 0.06612239 -0.1700966
v 0.114012145 0.02720759 -0.1567789
v -0.048049204 0.07392676 -0.14767024
v -2.3401758E-09 0.07089938 -0.16769966
v 0.105248414 0.06608741 -0.14466272
v 0.15692413 0.027147796 -0.11386726
v -0 0.07393729 -0.15528066
v 0.051858533 0.07088801 -0.15948616
v 0.14486206 0.06603232 -0.105049096
v 0.18447539 0.027072798 -0.059794504
v 0.048049204 0.07392676 -0.14767024
v 0.09864083 0.07085494 -0.13564923
v 0.1702954 0.065963045 -0.05513316
v 0.1939688 0.02698941 0.0001448833
v 0.17905913 0.06588603 0.00019899957
v 0.09139505 0.073895976 -0.12558459
v 0.13576758 0.07080333 -0.09852264
v 0.15960428 0.070738435 -0.05174056
v 0.16781782 0.07066638 0.00011804691
v 0.12579471 0.07384822 -0.0911852
v 0.14788052 0.073788024 -0.047839593
v 0.15549071 0.07372145 0.00020987622
vt 0.87610096 0.56232864
vt 0.8761014 0.6193274
vt 0.87610096 0.56232846
vt 0.87610096 0.5623283
vt 0.87610054 0.5533954
vt 0.8761006 0.5533949
vt 0.8761002 0.54801613
vt 0.876101 0.56232816
vt 0.8761014 0.6193274
vt 0.87610024 0.5480158
vt 0.8761008 0.5417001
vt 0.8761008 0.54168695
vt 0.8761007 0.55339444
vt 0.8761004 0.5480155
vt 0.8761009 0.5416751
vt 0.87610114 0.562328
vt 0.87610066 0.54801524
vt 0.876101 0.54166555
vt 0.8761009 0.5533941
vt 0.876101 0.5480151
vt 0.8761012 0.54165953
vt 0.87610126 0.5623279
vt 0.87610114 0.5533939
vt 0.8761014 0.54801506
vt 0.8761014 0.5416574
vt 0.8761014 0.5623279
vt 0.8761014 0.55339384
vt 0.87610173 0.5480151
vt 0.87610155 0.54165953
vt 0.8761015 0.5623279
vt 0.8761016 0.5533939
vt 0.8761021 0.54801524
vt 0.87610173 0.54166555
vt 0.8761016 0.562328
vt 0.87610185 0.5533941
vt 0.87610173 0.56232816
vt 0.8761018 0.5623283
vt 0.87610203 0.55339444
vt 0.8761023 0.5480155
vt 0.87610185 0.5416751
vt 0.87610215 0.5533949
vt 0.8761025 0.5480158
vt 0.876102 0.54168695
vt 0.87610257 0.54801613
vt 0.876102 0.5417001
vt 0.8761022 0.5533954
vt 0.8761018 0.56232846
vt 0.8761014 0.6193274
vt 0.8761018 0.56232864
vt 0.8761008 0.54171336
vt 0.8761002 0.54801613
vt 0.8761008 0.5417001
vt 0.87610024 0.5480165
vt 0.8761009 0.5417253
vt 0.87610054 0.5533954
vt 0.8761004 0.5480168
vt 0.876101 0.5417347
vt 0.8761006 0.55339587
vt 0.87610096 0.56232846
vt 0.87610096 0.56232864
vt 0.87610066 0.548017
vt 0.8761012 0.5417408
vt 0.8761007 0.55339634
vt 0.876101 0.54801714
vt 0.8761014 0.5417429
vt 0.876101 0.56232876
vt 0.8761014 0.6193274
vt 0.8761009 0.5533967
vt 0.8761014 0.5480172
vt 0.87610155 0.5417408
vt 0.87610114 0.5623289
vt 0.87610114 0.5533969
vt 0.87610173 0.54801714
vt 0.87610173 0.5417347
vt 0.87610126 0.56232893
vt 0.8761014 0.55339694
vt 0.8761021 0.548017
vt 0.87610185 0.54172516
vt 0.8761014 0.56232893
vt 0.8761016 0.5533969
vt 0.8761023 0.5480168
vt 0.876102 0.54171336
vt 0.8761015 0.56232893
vt 0.87610185 0.5533967
vt 0.8761025 0.5480165
vt 0.876102 0.5417001
vt 0.87610257 0.54801613
vt 0.8761016 0.5623289
vt 0.87610203 0.55339634
vt 0.87610215 0.55339587
vt 0.8761022 0.5533954
vt 0.87610173 0.56232876
vt 0.8761018 0.56232864
vt 0.8761018 0.56232846
vn -0.057063285 0.99822336 -0.017142648
vn 1.3818412E-07 0.9999989 0.0014602108
vn -0.06011626 0.99819034 0.0014017177
vn -0.057283606 0.9981573 0.02001172
vn -0.32527223 0.9456199 0.0010886093
vn -0.30933785 0.94550943 0.10159717
vn -0.87154794 0.49030977 0.00074435264
vn -0.048812427 0.9981275 0.03686303
vn 1.3818412E-07 0.9999989 0.0014602108
vn -0.82869077 0.4902762 0.2700015
vn -0.93375254 0.3579188 0.00049671874
vn -0.88804996 0.35752153 0.28904238
vn -0.26312843 0.9454097 0.19226018
vn -0.7047739 0.4902447 0.51279026
vn -0.7554195 0.3571635 0.54934096
vn -0.035511713 0.9981036 0.05027927
vn -0.5119617 0.4902162 0.7053959
vn -0.5488456 0.35687423 0.7559162
vn -0.19116695 0.9453318 0.26420227
vn -0.2691238 0.49019527 0.8290241
vn -0.28854492 0.3566838 0.8885485
vn -0.018686559 0.9980883 0.058909845
vn -0.10049846 0.9452838 0.3103846
vn -0 0.49018684 0.8716174
vn -0 0.3566171 0.9342507
vn -0 0.9980831 0.061887167
vn -0 0.94526696 0.32629806
vn 0.2691236 0.49019542 0.8290241
vn 0.28854454 0.3566837 0.88854873
vn 0.018686555 0.9980883 0.05890998
vn 0.10049845 0.945284 0.3103839
vn 0.5119614 0.4902163 0.70539594
vn 0.5488455 0.35687423 0.75591624
vn 0.035511706 0.9981036 0.050279185
vn 0.19116697 0.9453318 0.26420233
vn 0.048812445 0.9981275 0.036863036
vn 0.057283662 0.9981573 0.02001169
vn 0.26312843 0.9454097 0.19226038
vn 0.70477384 0.49024487 0.5127902
vn 0.75541973 0.35716358 0.54934084
vn 0.30933875 0.94550914 0.10159702
vn 0.8286909 0.49027675 0.2700004
vn 0.8880497 0.35752323 0.28904116
vn 0.8715471 0.49031106 0.0007445245
vn 0.9337514 0.35792187 0.00049670547
vn 0.32527298 0.9456195 0.0010884407
vn 0.06011572 0.99819046 0.001398738
vn 1.3818412E-07 0.9999989 0.0014602108
vn 0.05706414 0.99822336 -0.017143175
vn -0.88805157 0.35831973 -0.2880476
vn -0.87154794 0.49030977 0.00074435264
vn -0.93375254 0.3579188 0.00049671874
vn -0.8290899 0.49034745 -0.26864365
vn -0.7554219 0.35868263 -0.5483471
vn -0.32527223 0.9456199 0.0010886093
vn -0.70541924 0.49038073 -0.5117718
vn -0.54884654 0.35896894 -0.75492305
vn -0.30936494 0.9457306 -0.09943233
vn -0.06011626 0.99819034 0.0014017177
vn -0.057063285 0.99822336 -0.017142648
vn -0.5126056 0.49040726 -0.7047951
vn -0.28854552 0.35915226 -0.8875534
vn -0.26317087 0.94583076 -0.19011886
vn -0.2695226 0.4904219 -0.82876045
vn -0 0.35921583 -0.93325454
vn -0.04845768 0.9982528 -0.033810418
vn 1.3818412E-07 0.9999989 0.0014602108
vn -0.19121109 0.9459098 -0.26209357
vn -0 0.49042916 -0.87148106
vn 0.2885456 0.3591524 -0.8875534
vn -0.03516024 0.99827623 -0.046993658
vn -0.10052886 0.945959 -0.30831084
vn 0.26952276 0.4904222 -0.8287602
vn 0.5488456 0.35897046 -0.75492305
vn -0.018468948 0.9982912 -0.055440433
vn -0 0.9459757 -0.3242376
vn 0.51260465 0.4904083 -0.70479524
vn 0.7554204 0.3586852 -0.54834753
vn -0 0.9982963 -0.058348734
vn 0.10052886 0.945959 -0.3083108
vn 0.70541924 0.49038142 -0.51177114
vn 0.8880509 0.35832226 -0.28804654
vn 0.018468946 0.9982911 -0.055440888
vn 0.191211 0.9459097 -0.262094
vn 0.82909036 0.49034724 -0.2686424
vn 0.9337514 0.35792187 0.00049670547
vn 0.8715471 0.49031106 0.0007445245
vn 0.035160236 0.99827623 -0.046993423
vn 0.26317024 0.94583106 -0.19011846
vn 0.30936494 0.94573075 -0.09943184
vn 0.32527298 0.9456195 0.0010884407
vn 0.048458368 0.9982528 -0.033807486
vn 0.05706414 0.99822336 -0.017143175
vn 0.06011572 0.99819046 0.001398738
g button_button_0
f 3/3/3 2/2/2 1/1/1
f 4/4/4 2/2/2 3/3/3
f 4/4/4 3/3/3 5/5/5
f 6/6/6 4/4/4 5/5/5
f 6/6/6 5/5/5 7/7/7
f 8/8/8 4/4/4 6/6/6
f 8/8/8 9/9/9 4/4/4
f 10/10/10 6/6/6 7/7/7
f 10/10/10 7/7/7 11/11/11
f 12/12/12 10/10/10 11/11/11
f 13/13/13 8/8/8 6/6/6
f 13/13/13 6/6/6 10/10/10
f 14/14/14 10/10/10 12/12/12
f 14/14/14 13/13/13 10/10/10
f 15/15/15 14/14/14 12/12/12
f 16/16/16 8/8/8 13/13/13
f 16/16/16 9/9/9 8/8/8
f 17/17/17 14/14/14 15/15/15
f 18/18/18 17/17/17 15/15/15
f 19/19/19 13/13/13 14/14/14
f 19/19/19 16/16/16 13/13/13
f 17/17/17 19/19/19 14/14/14
f 20/20/20 17/17/17 18/18/18
f 21/21/21 20/20/20 18/18/18
f 22/22/22 16/16/16 19/19/19
f 22/22/22 9/9/9 16/16/16
f 23/23/23 19/19/19 17/17/17
f 23/23/23 22/22/22 19/19/19
f 20/20/20 23/23/23 17/17/17
f 24/24/24 20/20/20 21/21/21
f 25/25/25 24/24/24 21/21/21
f 26/26/26 22/22/22 23/23/23
f 26/26/26 9/9/9 22/22/22
f 27/27/27 23/23/23 20/20/20
f 27/27/27 26/26/26 23/23/23
f 24/24/24 27/27/27 20/20/20
f 28/28/28 24/24/24 25/25/25
f 29/29/29 28/28/28 25/25/25
f 30/30/30 26/26/26 27/27/27
f 30/30/30 9/9/9 26/26/26
f 31/31/31 27/27/27 24/24/24
f 31/31/31 30/30/30 27/27/27
f 28/28/28 31/31/31 24/24/24
f 32/32/32 28/28/28 29/29/29
f 33/33/33 32/32/32 29/29/29
f 34/34/34 9/9/9 30/30/30
f 34/34/34 30/30/30 31/31/31
f 35/35/35 31/31/31 28/28/28
f 35/35/35 34/34/34 31/31/31
f 32/32/32 35/35/35 28/28/28
f 36/36/36 9/9/9 34/34/34
f 36/36/36 34/34/34 35/35/35
f 37/37/37 9/9/9 36/36/36
f 38/38/38 36/36/36 35/35/35
f 38/38/38 35/35/35 32/32/32
f 37/37/37 36/36/36 38/38/38
f 39/39/39 32/32/32 33/33/33
f 39/39/39 38/38/38 32/32/32
f 40/40/40 39/39/39 33/33/33
f 41/41/41 37/37/37 38/38/38
f 41/41/41 38/38/38 39/39/39
f 42/42/42 39/39/39 40/40/40
f 42/42/42 41/41/41 39/39/39
f 43/43/43 42/42/42 40/40/40
f 44/44/44 42/42/42 43/43/43
f 45/45/45 44/44/44 43/43/43
f 44/44/44 46/46/46 42/42/42
f 46/46/46 41/41/41 42/42/42
f 46/46/46 47/47/47 41/41/41
f 47/47/47 37/37/37 41/41/41
f 47/47/47 48/48/48 37/37/37
f 49/49/49 48/48/48 47/47/47
f 52/52/52 51/51/51 50/50/50
f 51/51/51 53/53/53 50/50/50
f 50/50/50 53/53/53 54/54/54
f 51/51/51 55/55/55 53/53/53
f 53/53/53 56/56/56 54/54/54
f 54/54/54 56/56/56 57/57/57
f 55/55/55 58/58/58 53/53/53
f 53/53/53 58/58/58 56/56/56
f 55/55/55 59/59/59 58/58/58
f 59/59/59 60/60/60 58/58/58
f 56/56/56 61/61/61 57/57/57
f 57/57/57 61/61/61 62/62/62
f 58/58/58 63/63/63 56/56/56
f 58/58/58 60/60/60 63/63/63
f 56/56/56 63/63/63 61/61/61
f 61/61/61 64/64/64 62/62/62
f 62/62/62 64/64/64 65/65/65
f 60/60/60 66/66/66 63/63/63
f 60/60/60 67/67/67 66/66/66
f 63/63/63 68/68/68 61/61/61
f 63/63/63 66/66/66 68/68/68
f 61/61/61 68/68/68 64/64/64
f 64/64/64 69/69/69 65/65/65
f 65/65/65 69/69/69 70/70/70
f 66/66/66 71/71/71 68/68/68
f 66/66/66 67/67/67 71/71/71
f 68/68/68 72/72/72 64/64/64
f 68/68/68 71/71/71 72/72/72
f 64/64/64 72/72/72 69/69/69
f 69/69/69 73/73/73 70/70/70
f 70/70/70 73/73/73 74/74/74
f 71/71/71 75/75/75 72/72/72
f 71/71/71 67/67/67 75/75/75
f 72/72/72 76/76/76 69/69/69
f 72/72/72 75/75/75 76/76/76
f 69/69/69 76/76/76 73/73/73
f 73/73/73 77/77/77 74/74/74
f 74/74/74 77/77/77 78/78/78
f 75/75/75 79/79/79 76/76/76
f 75/75/75 67/67/67 79/79/79
f 76/76/76 80/80/80 73/73/73
f 76/76/76 79/79/79 80/80/80
f 73/73/73 80/80/80 77/77/77
f 77/77/77 81/81/81 78/78/78
f 78/78/78 81/81/81 82/82/82
f 79/79/79 83/83/83 80/80/80
f 79/79/79 67/67/67 83/83/83
f 80/80/80 84/84/84 77/77/77
f 80/80/80 83/83/83 84/84/84
f 77/77/77 84/84/84 81/81/81
f 81/81/81 85/85/85 82/82/82
f 82/82/82 85/85/85 86/86/86
f 85/85/85 87/87/87 86/86/86
f 83/83/83 67/67/67 88/88/88
f 83/83/83 88/88/88 84/84/84
f 84/84/84 89/89/89 81/81/81
f 81/81/81 89/89/89 85/85/85
f 84/84/84 88/88/88 89/89/89
f 85/85/85 90/90/90 87/87/87
f 89/89/89 90/90/90 85/85/85
f 90/90/90 91/91/91 87/87/87
f 88/88/88 67/67/67 92/92/92
f 88/88/88 92/92/92 89/89/89
f 89/89/89 92/92/92 90/90/90
f 92/92/92 67/67/67 93/93/93
f 92/92/92 93/93/93 90/90/90
f 90/90/90 93/93/93 91/91/91
f 93/93/93 94/94/94 91/91/91
