g Cliff_F
v 0.6827832 4.1718125 -0.50297636
v 0.68557614 4.168625 -1.5317864
v 0.9612451 3.2778337 -1.1203601
v 0.9509912 2.2646837 -2.0428283
v 0.9962793 2.3233163 -0.4975366
v 0.8595312 3.5971553 -2.0449579
v 1.110315 -1.6093699E-07 -0.36467528
v 1.1211816 -1.6093699E-07 0.6517737
v 1.0330762 -1.6093699E-07 -2.0330522
v 0.89818114 2.2621224 -2.0935924
v 0.95734376 -1.6093699E-07 -2.1050909
v 0.32068604 -1.6093699E-07 -2.0874634
v 0.8324316 3.5917866 -2.097459
v 0.5472559 1.8565251 -2.077616
v -0.2699536 1.0025468 -2.2413988
v -0.46525878 -1.8120257E-07 -2.2286828
v -0.9963415 -1.6093699E-07 -2.1478887
v 0.65484864 4.0532665 -2.023128
v 0.73073727 4.058744 -1.9218903
v 0.61392087 4.19374 -1.9014392
v 0.5014795 3.0138097 -2.0808642
v 0.30747312 4.1792593 -2.069557
v 0.31517088 4.2740564 -1.9633392
v -0.051875 3.413432 -2.1269665
v -0.12654297 4.255305 -2.0633965
v -0.4384082 4.1743164 -2.0513463
v -0.12635742 4.3113008 -1.9930536
v -0.39905515 4.262169 -1.9464049
v -0.478208 4.129008 -1.9916912
v -0.7326123 1.4106485 -2.1075995
v -0.802362 1.4199278 -2.0262713
v -0.802362 1.4199278 -2.0262713
v -1.0803198 -1.6093699E-07 -2.0439873
v -0.83202755 1.7483853 -1.1785607
v -1.0646179 -1.6093699E-07 0.635188
v -1.2516724 -1.6093699E-07 -0.3998828
v -0.8381665 1.4264569 -0.12723145
v -0.55618894 3.4192243 -1.4778149
v 1.2781982 -1.6212908E-07 2.1593137
v 0.9962793 2.3233163 -0.4975366
v 1.1211816 -1.6093699E-07 0.6517737
v 0.91278076 2.0780082 0.7873895
v 0.6827832 4.1718125 -0.50297636
v 0.9612451 3.2778337 -1.1203601
v -1.1410925 1.4423877E-07 1.7435256
v -1.0646179 -1.6093699E-07 0.635188
v -0.8381665 1.4264569 -0.12723145
v -1.1337122 0.88808393 1.1620337
v -1.0854663 0.8648269 1.5544366
v -1.0110364 1.4318632 1.4083674
v -0.92027587 2.607001 0.37979248
v -0.725293 4.090758 0.8047415
v -0.5595312 4.1332917 -0.49642485
v -0.55618894 3.4192243 -1.4778149
v -0.52526855 4.1736794 -1.5232726
v -0.478208 4.129008 -1.9916912
v -0.83202755 1.7483853 -1.1785607
v -0.802362 1.4199278 -2.0262713
v -1.2516724 -1.6093699E-07 -0.3998828
v -1.0803198 -1.6093699E-07 -2.0439873
v 0.8016406 4.1445436 1.0401962
v 0.6827832 4.1718125 -0.50297636
v 0.88022214 4.072832 1.0180261
v 0.59192383 4.2396226 -0.49138275
v 0.68557614 4.168625 -1.5317864
v 0.023503417 4.1754155 0.83516353
v 0.01665039 4.27027 -0.7567444
v 0.51882076 4.1184 1.3481575
v 0.6053003 4.247855 -1.5158789
v 0.73073727 4.058744 -1.9218903
v 0.61392087 4.19374 -1.9014392
v 0.3628076 4.3034897 -1.7601904
v 0.31517088 4.2740564 -1.9633392
v 0.06847168 4.1299715 1.2880173
v 0.5244629 4.01646 1.4526961
v 0.09714111 4.010969 1.41787
v -0.6596277 4.1592536 0.78223693
v -0.21105468 4.3135037 -1.649754
v -0.58617187 4.087462 1.3089142
v 0.09714111 4.010969 1.41787
v -0.66661495 3.9354923 1.420757
v -0.7453638 3.9348345 1.3654457
v -0.725293 4.090758 0.8047415
v -0.4305713 4.2135367 -0.5186969
v -0.5595312 4.1332917 -0.49642485
v -0.45155272 4.2641854 -1.5048517
v -0.52526855 4.1736794 -1.5232726
v -0.39905515 4.262169 -1.9464049
v -0.478208 4.129008 -1.9916912
v -0.12635742 4.3113008 -1.9930536
v -0.12654297 4.255305 -2.0633965
v 0.30747312 4.1792593 -2.069557
v 1.0619286 1.9303344 1.5583044
v 1.2781982 -1.6212908E-07 2.1593137
v 1.1739868 -1.6093699E-07 2.2341597
v 0.9955908 1.913259 1.7218313
v 0.42851073 -1.6093699E-07 1.9508593
v 0.9203686 3.550337 1.4577533
v -0.2872998 0.69880307 1.7356079
v -0.5943054 -1.6093699E-07 1.7212133
v -1.0178931 -1.6093699E-07 1.8449687
v -1.0213355 0.87950385 1.6258181
v -1.1410925 1.4423877E-07 1.7435256
v -1.0854663 0.8648269 1.5544366
v -0.25553223 1.5539339 1.5611267
v -0.95580566 1.4365606 1.4791298
v -1.0110364 1.4318632 1.4083674
v 0.8235498 3.5811412 1.5137345
v -0.11699951 2.9533434 1.4934106
v 0.09714111 4.010969 1.41787
v 0.5244629 4.01646 1.4526961
v -0.66661495 3.9354923 1.420757
v -0.7453638 3.9348345 1.3654457
v -0.725293 4.090758 0.8047415
v 0.88022214 4.072832 1.0180261
v 0.8370923 3.8004022 1.4333938
v 0.8235498 3.5811412 1.5137345
v 0.82825685 4.05503 1.2221615
v 0.8016406 4.1445436 1.0401962
v 0.51882076 4.1184 1.3481575
v 0.6450781 4.061949 1.4136419
v 0.5244629 4.01646 1.4526961
v 0.8595312 3.5971553 -2.0449579
v 0.9612451 3.2778337 -1.1203601
v 0.68557614 4.168625 -1.5317864
v 0.73073727 4.058744 -1.9218903
v 0.9203686 3.550337 1.4577533
v 0.88022214 4.072832 1.0180261
v 0.6827832 4.1718125 -0.50297636
v 0.91278076 2.0780082 0.7873895
v 1.0619286 1.9303344 1.5583044
v 1.2781982 -1.6212908E-07 2.1593137
vt 0.740768 0.9327723
vt 0.7374482 0.9302424
vt 0.8483219 0.7243053
vt 0.83877635 0.50567317
vt 0.8614075 0.5184768
vt 0.80784166 0.7951203
vt 0.90400136 0.017485678
vt 0.9080606 0.017485678
vt 0.8651757 0.017485691
vt 0.8304861 0.50544137
vt 0.85684067 0.01748568
vt 0.60906565 0.017485678
vt 0.8026966 0.79004717
vt 0.6936925 0.4178197
vt 0.38845488 0.2336711
vt 0.31550658 0.01788783
vt 0.1063702 0.020849437
vt 0.78361803 0.9345407
vt 0.7900727 0.9340931
vt 0.78128636 0.9389239
vt 0.67659366 0.6673721
vt 0.6336731 0.9460913
vt 0.6346373 0.9505915
vt 0.46990925 0.7535452
vt 0.43778244 0.9455815
vt 0.32561675 0.939198
vt 0.437386 0.9501741
vt 0.32468075 0.94390154
vt 0.31691518 0.9388212
vt 0.20635022 0.32238677
vt 0.19888996 0.3229595
vt 0.19888996 0.3229595
vt 0.098184206 0.01748571
vt 0.17851377 0.3945008
vt 0.09163858 0.017485678
vt 0.021771565 0.017485678
vt 0.17622101 0.32508144
vt 0.28154314 0.7547942
vt 0.9555564 0.020657375
vt 0.8614075 0.5184768
vt 0.9080606 0.017485678
vt 0.8167143 0.4620401
vt 0.740768 0.9327723
vt 0.8483219 0.7243053
vt 0.03564149 0.02017011
vt 0.09163858 0.017485678
vt 0.17622101 0.32508144
vt 0.06583108 0.20898873
vt 0.052839484 0.20505415
vt 0.062914334 0.3265788
vt 0.14555174 0.57964945
vt 0.22024758 0.91022086
vt 0.28843448 0.9254606
vt 0.28154314 0.7547942
vt 0.2914298 0.93384415
vt 0.31691518 0.9388212
vt 0.17851377 0.3945008
vt 0.19888996 0.3229595
vt 0.021771565 0.017485678
vt 0.098184206 0.01748571
vt 0.88380015 0.9841562
vt 0.8285713 0.9841562
vt 0.89238024 0.98415613
vt 0.8201534 0.9841562
vt 0.8236298 0.9841562
vt 0.5580152 0.9841562
vt 0.5551464 0.9841562
vt 0.8049473 0.9841562
vt 0.81662184 0.9841562
vt 0.88466656 0.9841562
vt 0.8758196 0.9841562
vt 0.7000936 0.9841562
vt 0.71085155 0.9841562
vt 0.62039196 0.9841562
vt 0.8056971 0.9841562
vt 0.6208328 0.9841562
vt 0.2561675 0.9841562
vt 0.4435884 0.9841562
vt 0.25273246 0.9841562
vt 0.61963123 0.9841562
vt 0.25250274 0.9841562
vt 0.24430114 0.9841562
vt 0.24776667 0.9841562
vt 0.33286253 0.9841562
vt 0.32434466 0.9841562
vt 0.3348534 0.9841562
vt 0.32650256 0.9841562
vt 0.3637728 0.9841562
vt 0.35470355 0.9841562
vt 0.490262 0.9841562
vt 0.49039388 0.9841562
vt 0.7099897 0.9841562
vt 0.9084029 0.45559052
vt 0.9555564 0.020657375
vt 0.94393945 0.017485708
vt 0.9009666 0.4560376
vt 0.6493394 0.017485678
vt 0.7977869 0.8465311
vt 0.38197592 0.16817293
vt 0.26730573 0.017485678
vt 0.04653215 0.017485678
vt 0.06043761 0.20605804
vt 0.03564149 0.02017011
vt 0.052839484 0.20505415
vt 0.39384174 0.35257012
vt 0.07002638 0.32694563
vt 0.062914334 0.3265788
vt 0.78937405 0.8490376
vt 0.4455847 0.6543334
vt 0.5537691 0.9103176
vt 0.7175951 0.90358377
vt 0.22499476 0.8972292
vt 0.21698403 0.89743704
vt 0.22024758 0.91022086
vt 0.79692394 0.90168434
vt 0.7920271 0.8566099
vt 0.78937405 0.8490376
vt 0.7913559 0.90287846
vt 0.7921004 0.90627426
vt 0.72375554 0.9077703
vt 0.72938734 0.90434253
vt 0.7175951 0.90358377
vt 0.80784166 0.7951203
vt 0.8483219 0.7243053
vt 0.7374482 0.9302424
vt 0.7900727 0.9340931
vt 0.7977869 0.8465311
vt 0.79692394 0.90168434
vt 0.740768 0.9327723
vt 0.8167143 0.4620401
vt 0.9084029 0.45559052
vt 0.9555564 0.020657375
vn 0.9828865 0.18291223 0.021848034
vn 0.9636148 0.257044 0.07331301
vn 0.9879838 0.14718099 0.047177445
vn 0.99556327 0.042599887 -0.08389915
vn 0.9940515 0.107333854 0.018464418
vn 0.9890464 0.12247324 -0.08238606
vn 0.99858725 0.045228746 -0.027888635
vn 0.9964521 0.081906915 -0.019353788
vn 0.9929981 0.03549455 -0.112671025
vn 0.12026593 0.0060975454 -0.9927229
vn 0.09179527 0.009691571 -0.9957307
vn 0.097342685 -0.014356497 -0.9951474
vn 0.12923636 0.049581178 -0.9903735
vn 0.06908186 0.009588035 -0.9975649
vn 0.054037914 0.008879717 -0.9984994
vn 0.11885818 -0.019618297 -0.9927174
vn -0.43604565 0.09151938 -0.8952588
vn 0.10554569 0.09231204 -0.99012053
vn 0.94443023 0.32598823 -0.042225964
vn 0.47067478 0.82702494 -0.30740058
vn 0.08179059 0.02018355 -0.9964451
vn 0.06691437 0.1315781 -0.9890449
vn 0.16290013 0.9461829 -0.2796451
vn -0.06753374 0.04538228 -0.99668425
vn -0.14116845 0.09950928 -0.9849717
vn -0.22173142 0.068320535 -0.97271144
vn -0.033992473 0.97525954 -0.21843374
vn -0.4369728 0.88252014 -0.17381889
vn -0.9631507 0.1402298 -0.22951327
vn -0.27506918 0.06711652 -0.95907897
vn -0.9741735 0.1607861 -0.15853652
vn -0.9741735 0.1607861 -0.15853652
vn -0.9670414 0.19161013 -0.16768005
vn -0.9841223 0.1774867 -0.0013812662
vn -0.99265736 0.114891544 -0.037831962
vn -0.9695785 0.23772852 0.058331877
vn -0.98929846 0.14121634 -0.036695443
vn -0.99014926 0.09703254 -0.10094134
vn 0.99115705 0.12099382 0.054481484
vn 0.9940515 0.107333854 0.018464418
vn 0.9964521 0.081906915 -0.019353788
vn 0.9948638 0.086762086 -0.05213834
vn 0.9828865 0.18291223 0.021848034
vn 0.9879838 0.14718099 0.047177445
vn -0.998779 0.0404866 -0.028306901
vn -0.99265736 0.114891544 -0.037831962
vn -0.98929846 0.14121634 -0.036695443
vn -0.99432796 0.051651392 -0.09297284
vn -0.95601654 0.16392638 0.24322963
vn -0.9683954 0.15251186 0.1973585
vn -0.9910274 0.08857791 -0.10009313
vn -0.9744702 0.22049655 -0.042296983
vn -0.9820743 0.13343416 -0.13313587
vn -0.99014926 0.09703254 -0.10094134
vn -0.98452085 0.11430557 -0.13286456
vn -0.9631507 0.1402298 -0.22951327
vn -0.9841223 0.1774867 -0.0013812662
vn -0.9741735 0.1607861 -0.15853652
vn -0.9695785 0.23772852 0.058331877
vn -0.9670414 0.19161013 -0.16768005
vn 0.12693632 0.98995376 0.062277928
vn 0.9828865 0.18291223 0.021848034
vn 0.98991054 0.076327294 -0.1193788
vn 0.121121734 0.9915891 0.04561374
vn 0.9636148 0.257044 0.07331301
vn -0.011016509 0.99763703 0.06781545
vn -0.0072898315 0.9986512 0.051406726
vn 0.02976772 0.9724777 0.2310864
vn 0.21455297 0.9765852 0.0157645
vn 0.94443023 0.32598823 -0.042225964
vn 0.47067478 0.82702494 -0.30740058
vn 0.103960715 0.99451846 -0.011191434
vn 0.16290013 0.9461829 -0.2796451
vn -0.027269548 0.9617581 0.27253938
vn -0.059452012 0.15657748 0.9858747
vn -0.05513271 0.19672655 0.97890705
vn -0.17575772 0.98278034 0.057026148
vn -0.06570203 0.99757546 0.022944406
vn -0.15560785 0.9321607 0.32689857
vn -0.05513271 0.19672655 0.97890705
vn -0.19337589 0.12023001 0.9737302
vn -0.97331715 0.14889646 0.17459516
vn -0.9744702 0.22049655 -0.042296983
vn -0.16289796 0.9857906 0.041001968
vn -0.9820743 0.13343416 -0.13313587
vn -0.2971478 0.95412934 0.036610186
vn -0.98452085 0.11430557 -0.13286456
vn -0.4369728 0.88252014 -0.17381889
vn -0.9631507 0.1402298 -0.22951327
vn -0.033992473 0.97525954 -0.21843374
vn -0.14116845 0.09950928 -0.9849717
vn 0.06691437 0.1315781 -0.9890449
vn 0.9966389 0.064847775 -0.05005625
vn 0.99115705 0.12099382 0.054481484
vn -0.033390764 0.26182666 0.9645371
vn -0.0048253946 0.14616945 0.98924786
vn -0.23248893 0.18014815 0.9557696
vn 0.9955765 0.048497785 -0.08046962
vn -0.13263768 0.16768429 0.9768772
vn -0.04775495 0.108743325 0.99292207
vn -0.10325182 0.14086844 0.9846295
vn -0.16120818 0.19602014 0.96725804
vn -0.998779 0.0404866 -0.028306901
vn -0.95601654 0.16392638 0.24322963
vn -0.12462509 0.11711121 0.9852683
vn -0.19983011 0.11451145 0.9731162
vn -0.9683954 0.15251186 0.1973585
vn -0.012739243 0.09995346 0.99491054
vn -0.103209056 0.06789601 0.9923396
vn -0.05513271 0.19672655 0.97890705
vn -0.059452012 0.15657748 0.9858747
vn -0.19337589 0.12023001 0.9737302
vn -0.97331715 0.14889646 0.17459516
vn -0.9744702 0.22049655 -0.042296983
vn 0.98991054 0.076327294 -0.1193788
vn 0.6987061 0.34712747 0.6255495
vn -0.012739243 0.09995346 0.99491054
vn 0.7316169 0.5724419 0.37019876
vn 0.12693632 0.98995376 0.062277928
vn 0.02976772 0.9724777 0.2310864
vn 0.365461 0.6208045 0.69357055
vn -0.059452012 0.15657748 0.9858747
vn 0.9890464 0.12247324 -0.08238606
vn 0.9879838 0.14718099 0.047177445
vn 0.9636148 0.257044 0.07331301
vn 0.94443023 0.32598823 -0.042225964
vn 0.9955765 0.048497785 -0.08046962
vn 0.98991054 0.076327294 -0.1193788
vn 0.9828865 0.18291223 0.021848034
vn 0.9948638 0.086762086 -0.05213834
vn 0.9966389 0.064847775 -0.05005625
vn 0.99115705 0.12099382 0.054481484
g Cliff_F_0
f 3/3/3 2/2/2 1/1/1
f 3/3/3 5/5/5 4/4/4
f 6/6/6 3/3/3 4/4/4
f 4/4/4 5/5/5 7/7/7
f 5/5/5 8/8/8 7/7/7
f 7/7/7 9/9/9 4/4/4
f 4/4/4 9/9/9 10/10/10
f 9/9/9 11/11/11 10/10/10
f 11/11/11 12/12/12 10/10/10
f 13/13/13 6/6/6 4/4/4
f 10/10/10 13/13/13 4/4/4
f 12/12/12 14/14/14 10/10/10
f 10/10/10 14/14/14 13/13/13
f 15/15/15 14/14/14 12/12/12
f 16/16/16 15/15/15 12/12/12
f 16/16/16 17/17/17 15/15/15
f 13/13/13 18/18/18 6/6/6
f 18/18/18 19/19/19 6/6/6
f 18/18/18 20/20/20 19/19/19
f 14/14/14 21/21/21 13/13/13
f 18/18/18 13/13/13 21/21/21
f 21/21/21 14/14/14 15/15/15
f 20/20/20 18/18/18 22/22/22
f 21/21/21 22/22/22 18/18/18
f 23/23/23 20/20/20 22/22/22
f 21/21/21 24/24/24 22/22/22
f 24/24/24 21/21/21 15/15/15
f 24/24/24 25/25/25 22/22/22
f 25/25/25 24/24/24 15/15/15
f 15/15/15 26/26/26 25/25/25
f 27/27/27 25/25/25 26/26/26
f 28/28/28 27/27/27 26/26/26
f 26/26/26 29/29/29 28/28/28
f 15/15/15 30/30/30 26/26/26
f 29/29/29 26/26/26 30/30/30
f 31/31/31 29/29/29 30/30/30
f 17/17/17 30/30/30 15/15/15
f 30/30/30 17/17/17 32/32/32
f 17/17/17 33/33/33 32/32/32
f 36/36/36 35/35/35 34/34/34
f 35/35/35 37/37/37 34/34/34
f 34/34/34 37/37/37 38/38/38
f 41/41/41 40/40/40 39/39/39
f 40/40/40 42/42/42 39/39/39
f 43/43/43 42/42/42 40/40/40
f 40/40/40 44/44/44 43/43/43
f 47/47/47 46/46/46 45/45/45
f 48/48/48 47/47/47 45/45/45
f 49/49/49 48/48/48 45/45/45
f 49/49/49 50/50/50 48/48/48
f 48/48/48 51/51/51 47/47/47
f 50/50/50 51/51/51 48/48/48
f 52/52/52 51/51/51 50/50/50
f 52/52/52 53/53/53 51/51/51
f 54/54/54 47/47/47 51/51/51
f 51/51/51 53/53/53 54/54/54
f 53/53/53 55/55/55 54/54/54
f 55/55/55 56/56/56 54/54/54
f 57/57/57 54/54/54 56/56/56
f 58/58/58 57/57/57 56/56/56
f 57/57/57 58/58/58 59/59/59
f 60/60/60 59/59/59 58/58/58
f 63/63/63 62/62/62 61/61/61
f 62/62/62 64/64/64 61/61/61
f 62/62/62 65/65/65 64/64/64
f 66/66/66 61/61/61 64/64/64
f 67/67/67 66/66/66 64/64/64
f 61/61/61 66/66/66 68/68/68
f 65/65/65 69/69/69 64/64/64
f 64/64/64 69/69/69 67/67/67
f 69/69/69 65/65/65 70/70/70
f 71/71/71 69/69/69 70/70/70
f 72/72/72 69/69/69 71/71/71
f 69/69/69 72/72/72 67/67/67
f 73/73/73 72/72/72 71/71/71
f 66/66/66 74/74/74 68/68/68
f 68/68/68 74/74/74 75/75/75
f 74/74/74 76/76/76 75/75/75
f 74/74/74 66/66/66 77/77/77
f 66/66/66 67/67/67 77/77/77
f 72/72/72 78/78/78 67/67/67
f 78/78/78 72/72/72 73/73/73
f 79/79/79 74/74/74 77/77/77
f 80/80/80 74/74/74 79/79/79
f 81/81/81 80/80/80 79/79/79
f 79/79/79 82/82/82 81/81/81
f 82/82/82 79/79/79 77/77/77
f 83/83/83 82/82/82 77/77/77
f 83/83/83 77/77/77 84/84/84
f 67/67/67 84/84/84 77/77/77
f 85/85/85 83/83/83 84/84/84
f 84/84/84 67/67/67 86/86/86
f 84/84/84 86/86/86 85/85/85
f 67/67/67 78/78/78 86/86/86
f 86/86/86 87/87/87 85/85/85
f 87/87/87 86/86/86 88/88/88
f 88/88/88 86/86/86 78/78/78
f 89/89/89 87/87/87 88/88/88
f 90/90/90 88/88/88 78/78/78
f 90/90/90 78/78/78 73/73/73
f 90/90/90 73/73/73 91/91/91
f 73/73/73 92/92/92 91/91/91
f 95/95/95 94/94/94 93/93/93
f 96/96/96 95/95/95 93/93/93
f 97/97/97 95/95/95 96/96/96
f 96/96/96 93/93/93 98/98/98
f 97/97/97 96/96/96 99/99/99
f 99/99/99 100/100/100 97/97/97
f 101/101/101 100/100/100 99/99/99
f 102/102/102 101/101/101 99/99/99
f 103/103/103 101/101/101 102/102/102
f 104/104/104 103/103/103 102/102/102
f 96/96/96 105/105/105 99/99/99
f 102/102/102 99/99/99 105/105/105
f 104/104/104 102/102/102 106/106/106
f 106/106/106 102/102/102 105/105/105
f 107/107/107 104/104/104 106/106/106
f 108/108/108 96/96/96 98/98/98
f 105/105/105 96/96/96 108/108/108
f 105/105/105 109/109/109 106/106/106
f 109/109/109 105/105/105 108/108/108
f 110/110/110 109/109/109 108/108/108
f 111/111/111 110/110/110 108/108/108
f 110/110/110 112/112/112 109/109/109
f 109/109/109 112/112/112 106/106/106
f 107/107/107 106/106/106 112/112/112
f 113/113/113 107/107/107 112/112/112
f 114/114/114 107/107/107 113/113/113
f 116/116/116 98/98/98 115/115/115
f 116/116/116 117/117/117 98/98/98
f 118/118/118 116/116/116 115/115/115
f 118/118/118 115/115/115 119/119/119
f 119/119/119 120/120/120 118/118/118
f 117/117/117 116/116/116 121/121/121
f 121/121/121 116/116/116 118/118/118
f 120/120/120 121/121/121 118/118/118
f 122/122/122 117/117/117 121/121/121
f 121/121/121 120/120/120 122/122/122
f 125/125/125 124/124/124 123/123/123
f 126/126/126 125/125/125 123/123/123
f 129/129/129 128/128/128 127/127/127
f 130/130/130 129/129/129 127/127/127
f 127/127/127 131/131/131 130/130/130
f 132/132/132 130/130/130 131/131/131
