g Cliff_E
v -0.9071948 -1.2290523E-06 -0.6201929
v -0.7836963 -1.2290523E-06 -0.74490905
v -0.7802966 0.54166424 -0.7358063
v -0.7836963 -1.2290523E-06 -0.74490905
v -0.73526853 0.8195022 -1.2057574
v -0.74118406 -1.2290523E-06 -1.252514
v -0.6288025 -1.2290523E-06 -1.3542426
v -0.80463624 2.6985018 -0.43260315
v -0.620686 0.81976247 -1.3049737
v -0.27510008 -1.2290523E-06 -1.3481402
v -0.650531 2.462666 -1.196596
v -0.39180908 1.0468735 -1.2779889
v 0.26236573 -1.2290523E-06 -1.2774175
v -0.5569116 2.465403 -1.2663914
v -0.64272213 4.3789697 -1.090899
v -0.5274365 4.388138 -1.1901642
v -0.54093504 4.498933 -1.0876349
v -0.7057898 4.416051 -0.6391864
v -0.60693115 4.530871 -0.6367401
v -0.7978638 4.491824 0.40761533
v -0.7444946 3.0220633 0.30267027
v -0.60693115 4.530871 -0.6367401
v -0.701864 4.609063 0.39539856
v -0.03770996 3.6412706 -1.2132416
v -0.5274365 4.388138 -1.1901642
v 0.000859375 2.4848838 -1.2305292
v 0.14076416 0.8810837 -1.2517571
v 0.58879393 2.578211 -1.2504486
v 0.6061645 0.60005486 -1.2941558
v 0.7496753 -1.2290523E-06 -1.3055694
v 0.8536255 -1.2290523E-06 -1.1927117
v 0.71822506 0.611178 -1.1918793
v 0.62063473 1.9739692 -1.2835003
v 0.73549557 1.9740095 -1.1846869
v 0.8185986 2.5074654 -0.05349548
v 0.70295167 -1.2290523E-06 -0.35850525
v 0.7648413 3.5678012 -0.16330704
v 0.8305542 3.5771773 0.67723936
v 0.7202002 4.605951 0.55214965
v 0.70608395 2.582572 -1.1546148
v 0.6215576 4.6655955 -0.22625916
v 0.5496069 4.7402496 0.5547677
v 0.49892578 4.7546797 -0.219859
v 0.46474364 4.55717 -1.2335479
v 0.573872 4.5799007 -1.1293902
v 0.49892578 4.7546797 -0.219859
v 0.4557617 4.6709294 -1.1302764
v -0.008925781 4.4839497 -1.2069207
v 0.4557617 4.6709294 -1.1302764
v -0.023518065 4.5939403 -1.103714
v -0.54093504 4.498933 -1.0876349
v 0.81777585 -1.2290523E-06 0.805108
v 0.79270995 2.2428827 0.8149704
v 0.71822506 0.611178 -1.1918793
v 0.8536255 -1.2290523E-06 -1.1927117
v 0.70295167 -1.2290523E-06 -0.35850525
v 0.79270995 2.2428827 0.8149704
v 0.8185986 2.5074654 -0.05349548
v 0.8174145 2.7676456 0.7569598
v 0.8305542 3.5771773 0.67723936
v 0.70849854 2.2475662 0.900455
v 0.7142749 2.8027277 0.8644909
v 0.7546167 -1.2290523E-06 0.92840636
v 0.81777585 -1.2290523E-06 0.805108
v 0.03447754 1.2964433 1.0114574
v -0.23584227 -1.2290523E-06 1.1748638
v 0.73726803 3.583089 0.79676086
v 0.7202002 4.605951 0.55214965
v 0.20428467 1.9716849 0.9469592
v -0.5570398 1.4122187 1.1209772
v -0.65750366 -1.2290523E-06 1.3155334
v -0.78095216 -1.2290523E-06 1.2276251
v -0.67992795 1.408726 1.0294921
v -0.54724973 2.2933486 1.0258453
v -0.67992795 1.408726 1.0294921
v -0.6263818 2.2851024 0.9679065
v 0.61885494 4.564199 0.7156021
v 0.5496069 4.7402496 0.5547677
v 0.43905517 3.6204462 0.85265565
v 0.32524168 4.5963683 0.7827118
v -0.53484374 4.4706473 0.88291806
v -0.17552002 3.1950285 0.94246703
v -0.5507373 3.048036 0.9692517
v -0.56732666 4.578467 0.7814215
v 0.32524168 4.5963683 0.7827118
v -0.53484374 4.4706473 0.88291806
v 0.29093748 4.706043 0.6837347
v 0.121245116 4.719259 0.445755
v -0.060905762 4.682103 -0.08421936
v -0.701864 4.609063 0.39539856
v -0.60693115 4.530871 -0.6367401
v 0.5496069 4.7402496 0.5547677
v 0.61885494 4.564199 0.7156021
v 0.32524168 4.5963683 0.7827118
v 0.49892578 4.7546797 -0.219859
v -0.33842772 4.567059 -0.8071429
v -0.023518065 4.5939403 -1.103714
v -0.54093504 4.498933 -1.0876349
v 0.4557617 4.6709294 -1.1302764
v -0.53484374 4.4706473 0.88291806
v -0.5507373 3.048036 0.9692517
v -0.6305542 3.0475104 0.90941954
v -0.6660754 4.4648285 0.8012579
v -0.56732666 4.578467 0.7814215
v -0.701864 4.609063 0.39539856
v -0.7978638 4.491824 0.40761533
v -0.7444946 3.0220633 0.30267027
v -0.6263818 2.2851024 0.9679065
v -0.5507373 3.048036 0.9692517
v -0.54724973 2.2933486 1.0258453
v -0.67992795 1.408726 1.0294921
v -0.7881726 0.9821625 0.35775572
v -0.80463624 2.6985018 -0.43260315
v -0.7802966 0.54166424 -0.7358063
v -0.9071948 -1.2290523E-06 -0.6201929
v -0.7924206 -1.2290523E-06 0.51007384
v -0.78095216 -1.2290523E-06 1.2276251
vt 0.06073445 0.026132118
vt 0.106714904 0.026132118
vt 0.10842094 0.12554084
vt 0.106714904 0.026132118
vt 0.1310172 0.17653094
vt 0.1280493 0.026132118
vt 0.18444562 0.02613212
vt 0.096206814 0.5213737
vt 0.18851869 0.17657876
vt 0.36194488 0.026132118
vt 0.16534084 0.47925967
vt 0.3033764 0.21825917
vt 0.6316645 0.026132118
vt 0.25164115 0.49181065
vt 0.17613444 0.8298019
vt 0.18421498 0.8271806
vt 0.17816578 0.8483048
vt 0.14557739 0.83658993
vt 0.1481474 0.8542282
vt 0.10012 0.85050935
vt 0.12638783 0.5807552
vt 0.14749756 0.8544167
vt 0.09650588 0.8692092
vt 0.481076 0.69439495
vt 0.23531461 0.83146346
vt 0.6661341 0.56358755
vt 0.5706408 0.1878327
vt 0.81845 0.51058525
vt 0.80419344 0.13625698
vt 0.87621284 0.026132118
vt 0.92837805 0.026132118
vt 0.8604283 0.13829836
vt 0.8289785 0.39701372
vt 0.86909753 0.38841152
vt 0.91080105 0.48631373
vt 0.8527641 0.026132118
vt 0.88382363 0.7242041
vt 0.9167994 0.68263227
vt 0.86571544 0.88585496
vt 0.8543372 0.5000975
vt 0.81191796 0.8823837
vt 0.8568293 0.9043175
vt 0.80272293 0.90150154
vt 0.73322356 0.86248505
vt 0.78798753 0.86665666
vt 0.8029098 0.899766
vt 0.78487265 0.88460886
vt 0.4955202 0.8490473
vt 0.7231361 0.8814931
vt 0.48682258 0.8674461
vt 0.22992885 0.8500661
vt 0.91038674 0.026132118
vt 0.9033675 0.43764332
vt 0.8604283 0.13829836
vt 0.92837805 0.026132118
vt 0.8527641 0.026132118
vt 0.9033675 0.43764332
vt 0.91080105 0.48631373
vt 0.9102062 0.5340632
vt 0.9167994 0.68263227
vt 0.84999037 0.43872893
vt 0.8584474 0.5405016
vt 0.8854669 0.03682654
vt 0.91038674 0.026132118
vt 0.517302 0.2640614
vt 0.38164693 0.026132118
vt 0.87005186 0.6837288
vt 0.86571544 0.88585496
vt 0.60251755 0.38798487
vt 0.22045876 0.28530896
vt 0.17004272 0.026132118
vt 0.10809188 0.026132118
vt 0.1586262 0.28466916
vt 0.23492743 0.44579902
vt 0.1586262 0.28466916
vt 0.17369935 0.4445316
vt 0.8185817 0.8816711
vt 0.86513364 0.8899217
vt 0.7203334 0.6905731
vt 0.66324365 0.8696848
vt 0.23162933 0.8466149
vt 0.41191813 0.6124985
vt 0.22847565 0.5875284
vt 0.28343472 0.9841562
vt 0.6756817 0.98415625
vt 0.3095113 0.9841562
vt 0.67021465 0.9841562
vt 0.59374154 0.9841562
vt 0.5116539 0.9841562
vt 0.22280502 0.9841562
vt 0.26558673 0.9841562
vt 0.8145787 0.9841562
vt 0.8030984 0.9841562
vt 0.6773895 0.9841562
vt 0.7639376 0.9841562
vt 0.38658878 0.9841562
vt 0.5285033 0.9841562
vt 0.29527587 0.9841562
vt 0.7444925 0.9841562
vt 0.23162933 0.8466149
vt 0.22847565 0.5875284
vt 0.16835901 0.5861817
vt 0.17036386 0.84566003
vt 0.169044 0.8633406
vt 0.09940625 0.8691946
vt 0.10012 0.85050935
vt 0.12638783 0.5807552
vt 0.17369935 0.4445316
vt 0.22847565 0.5875284
vt 0.23492743 0.44579902
vt 0.1586262 0.28466916
vt 0.10446848 0.20638314
vt 0.096206814 0.5213737
vt 0.10842094 0.12554084
vt 0.06073445 0.026132118
vt 0.102336615 0.026132118
vt 0.10809188 0.026132118
vn -0.99601763 0.08912483 0.0023649323
vn -0.710473 0.016284972 -0.703536
vn -0.99880016 0.03449566 -0.0347615
vn -0.99621814 0.010358472 -0.086267576
vn -0.96684283 0.029983886 -0.25360584
vn -0.9572666 0.022624236 -0.28832057
vn -0.19210969 0.064512625 -0.9792508
vn -0.9983937 0.013479727 -0.055029202
vn -0.25342822 0.055431355 -0.9657647
vn 0.07742406 0.06297049 -0.99500763
vn -0.9582054 0.030509084 -0.28445
vn 0.06926523 0.02822133 -0.99719906
vn 0.02946197 0.041065667 -0.9987219
vn -0.07574622 0.02362595 -0.9968471
vn -0.95379514 0.059777867 -0.2944512
vn -0.27996978 0.11918563 -0.9525816
vn -0.34354314 0.882007 -0.322555
vn -0.9926087 0.0704683 -0.098803185
vn -0.34171596 0.9339813 -0.10444652
vn -0.9958917 0.05943052 0.06832108
vn -0.9982291 0.0062053376 0.059163384
vn -0.34171596 0.9339813 -0.10444652
vn -0.31915367 0.94769347 -0.0042554233
vn -0.0097446265 0.019325938 -0.9997658
vn -0.27996978 0.11918563 -0.9525816
vn 0.023952218 0.01705737 -0.99956757
vn 0.012527344 0.026968896 -0.9995578
vn 0.14974838 0.028359791 -0.9883173
vn 0.101696424 0.021899076 -0.9945745
vn 0.3080986 0.08555607 -0.94749945
vn 0.9744863 0.21925156 -0.048012756
vn 0.99205494 0.0012095224 -0.12580022
vn 0.07651598 0.019652558 -0.9968747
vn 0.98686093 0.021738611 -0.16010304
vn 0.9992225 -0.009204604 -0.038337458
vn 0.9993067 -0.0071641393 -0.036536306
vn 0.9912106 0.073001824 -0.11032789
vn 0.9966822 0.07080953 0.04013007
vn 0.97543067 0.21878795 0.025824869
vn 0.9610876 0.08924409 -0.2614309
vn 0.9672802 0.2353475 -0.094765626
vn 0.18304807 0.97887677 0.09106957
vn 0.015380289 0.997678 -0.06634857
vn 0.2897996 0.11072761 -0.9506606
vn 0.9629513 0.14977476 -0.22425915
vn 0.015380289 0.997678 -0.06634857
vn -0.038017206 0.98679453 -0.1574526
vn -0.077984 0.199458 -0.9767983
vn -0.038017206 0.98679453 -0.1574526
vn -0.16302386 0.9714897 -0.17213607
vn -0.34354314 0.882007 -0.322555
vn 0.9996562 0.012677163 0.02294979
vn 0.9966556 -0.031734742 0.07530304
vn 0.99205494 0.0012095224 -0.12580022
vn 0.9744863 0.21925156 -0.048012756
vn 0.9993067 -0.0071641393 -0.036536306
vn 0.9966556 -0.031734742 0.07530304
vn 0.9992225 -0.009204604 -0.038337458
vn 0.99582565 -0.0316629 0.085608125
vn 0.9966822 0.07080953 0.04013007
vn 0.3376535 0.032490164 0.94070953
vn 0.25076228 0.054128148 0.96653414
vn 0.39171565 0.04569626 0.91895086
vn 0.9996562 0.012677163 0.02294979
vn 0.17473589 0.057385582 0.9829417
vn 0.24554573 0.084605016 0.96568584
vn 0.36233655 0.086199164 0.9280527
vn 0.97543067 0.21878795 0.025824869
vn 0.13041547 0.044569395 0.9904571
vn 0.050635286 0.10276484 0.9934161
vn 0.050965518 0.11566232 0.9919802
vn -0.9667302 0.08049476 0.24280286
vn -0.96755934 0.05956865 0.24552108
vn 0.021703606 0.06695049 0.99752015
vn -0.96755934 0.05956865 0.24552108
vn -0.9678266 0.043354496 0.24785489
vn 0.45480978 0.19582492 0.8687926
vn 0.18304807 0.97887677 0.09106957
vn 0.122036055 0.072285496 0.98988986
vn 0.12014108 0.17519383 0.9771762
vn -0.0179419 0.15082395 0.9883978
vn 0.097250745 0.058392286 0.9935455
vn -0.06282806 0.055212624 0.996496
vn -0.18821537 0.9470162 0.26026025
vn 0.12014108 0.17519383 0.9771762
vn -0.0179419 0.15082395 0.9883978
vn -0.00027918996 0.8497565 0.5271754
vn -0.11487946 0.9927175 0.03625927
vn -0.15065958 0.98715556 -0.05315756
vn -0.31915367 0.94769347 -0.0042554233
vn -0.34171596 0.9339813 -0.10444652
vn 0.18304807 0.97887677 0.09106957
vn 0.45480978 0.19582492 0.8687926
vn 0.12014108 0.17519383 0.9771762
vn 0.015380289 0.997678 -0.06634857
vn -0.16950059 0.9813462 -0.09071467
vn -0.16302386 0.9714897 -0.17213607
vn -0.34354314 0.882007 -0.322555
vn -0.038017206 0.98679453 -0.1574526
vn -0.0179419 0.15082395 0.9883978
vn -0.06282806 0.055212624 0.996496
vn -0.9297294 -0.004458427 0.36821634
vn -0.93147165 0.02966208 0.36260292
vn -0.18821537 0.9470162 0.26026025
vn -0.31915367 0.94769347 -0.0042554233
vn -0.9958917 0.05943052 0.06832108
vn -0.9982291 0.0062053376 0.059163384
vn -0.9678266 0.043354496 0.24785489
vn -0.06282806 0.055212624 0.996496
vn 0.021703606 0.06695049 0.99752015
vn -0.96755934 0.05956865 0.24552108
vn -0.99778616 0.033507388 0.057446614
vn -0.9983937 0.013479727 -0.055029202
vn -0.99880016 0.03449566 -0.0347615
vn -0.99601763 0.08912483 0.0023649323
vn -0.99616724 0.07078858 0.051379204
vn -0.9667302 0.08049476 0.24280286
g Cliff_E_0
f 3/3/3 2/2/2 1/1/1
f 3/3/3 5/5/5 4/4/4
f 5/5/5 6/6/6 4/4/4
f 7/7/7 6/6/6 5/5/5
f 5/5/5 3/3/3 8/8/8
f 9/9/9 7/7/7 5/5/5
f 10/10/10 7/7/7 9/9/9
f 11/11/11 5/5/5 8/8/8
f 9/9/9 5/5/5 11/11/11
f 12/12/12 10/10/10 9/9/9
f 13/13/13 10/10/10 12/12/12
f 14/14/14 9/9/9 11/11/11
f 12/12/12 9/9/9 14/14/14
f 15/15/15 11/11/11 8/8/8
f 14/14/14 11/11/11 15/15/15
f 16/16/16 14/14/14 15/15/15
f 15/15/15 17/17/17 16/16/16
f 15/15/15 18/18/18 17/17/17
f 18/18/18 15/15/15 8/8/8
f 18/18/18 19/19/19 17/17/17
f 20/20/20 18/18/18 8/8/8
f 21/21/21 20/20/20 8/8/8
f 22/22/22 18/18/18 20/20/20
f 23/23/23 22/22/22 20/20/20
f 12/12/12 14/14/14 24/24/24
f 14/14/14 25/25/25 24/24/24
f 12/12/12 24/24/24 26/26/26
f 26/26/26 27/27/27 12/12/12
f 27/27/27 13/13/13 12/12/12
f 26/26/26 24/24/24 28/28/28
f 26/26/26 28/28/28 27/27/27
f 29/29/29 13/13/13 27/27/27
f 29/29/29 30/30/30 13/13/13
f 31/31/31 30/30/30 29/29/29
f 32/32/32 31/31/31 29/29/29
f 33/33/33 29/29/29 27/27/27
f 28/28/28 33/33/33 27/27/27
f 32/32/32 29/29/29 33/33/33
f 34/34/34 32/32/32 33/33/33
f 33/33/33 28/28/28 34/34/34
f 32/32/32 34/34/34 35/35/35
f 35/35/35 36/36/36 32/32/32
f 34/34/34 37/37/37 35/35/35
f 35/35/35 37/37/37 38/38/38
f 37/37/37 39/39/39 38/38/38
f 28/28/28 40/40/40 34/34/34
f 34/34/34 40/40/40 37/37/37
f 39/39/39 37/37/37 41/41/41
f 40/40/40 41/41/41 37/37/37
f 42/42/42 39/39/39 41/41/41
f 43/43/43 42/42/42 41/41/41
f 28/28/28 44/44/44 40/40/40
f 24/24/24 44/44/44 28/28/28
f 41/41/41 40/40/40 45/45/45
f 44/44/44 45/45/45 40/40/40
f 41/41/41 45/45/45 46/46/46
f 45/45/45 47/47/47 46/46/46
f 45/45/45 44/44/44 47/47/47
f 44/44/44 24/24/24 48/48/48
f 44/44/44 48/48/48 49/49/49
f 25/25/25 48/48/48 24/24/24
f 48/48/48 50/50/50 49/49/49
f 50/50/50 48/48/48 25/25/25
f 51/51/51 50/50/50 25/25/25
f 53/53/53 52/52/52 36/36/36
f 56/56/56 55/55/55 54/54/54
f 56/56/56 58/58/58 57/57/57
f 58/58/58 59/59/59 57/57/57
f 58/58/58 60/60/60 59/59/59
f 57/57/57 59/59/59 61/61/61
f 62/62/62 59/59/59 60/60/60
f 59/59/59 62/62/62 61/61/61
f 61/61/61 63/63/63 57/57/57
f 63/63/63 64/64/64 57/57/57
f 63/63/63 61/61/61 65/65/65
f 63/63/63 65/65/65 66/66/66
f 67/67/67 62/62/62 60/60/60
f 67/67/67 60/60/60 68/68/68
f 69/69/69 61/61/61 62/62/62
f 61/61/61 69/69/69 65/65/65
f 65/65/65 70/70/70 66/66/66
f 70/70/70 71/71/71 66/66/66
f 72/72/72 71/71/71 70/70/70
f 73/73/73 72/72/72 70/70/70
f 74/74/74 70/70/70 65/65/65
f 69/69/69 74/74/74 65/65/65
f 75/75/75 70/70/70 74/74/74
f 76/76/76 75/75/75 74/74/74
f 77/77/77 67/67/67 68/68/68
f 78/78/78 77/77/77 68/68/68
f 62/62/62 67/67/67 79/79/79
f 67/67/67 77/77/77 79/79/79
f 69/69/69 62/62/62 79/79/79
f 77/77/77 80/80/80 79/79/79
f 80/80/80 81/81/81 79/79/79
f 69/69/69 82/82/82 74/74/74
f 79/79/79 82/82/82 69/69/69
f 81/81/81 82/82/82 79/79/79
f 82/82/82 83/83/83 74/74/74
f 83/83/83 82/82/82 81/81/81
f 86/86/86 85/85/85 84/84/84
f 85/85/85 87/87/87 84/84/84
f 84/84/84 87/87/87 88/88/88
f 88/88/88 89/89/89 84/84/84
f 89/89/89 90/90/90 84/84/84
f 91/91/91 90/90/90 89/89/89
f 88/88/88 87/87/87 92/92/92
f 89/89/89 88/88/88 92/92/92
f 92/92/92 87/87/87 93/93/93
f 87/87/87 94/94/94 93/93/93
f 95/95/95 89/89/89 92/92/92
f 96/96/96 91/91/91 89/89/89
f 96/96/96 89/89/89 95/95/95
f 96/96/96 97/97/97 91/91/91
f 97/97/97 96/96/96 95/95/95
f 97/97/97 98/98/98 91/91/91
f 95/95/95 99/99/99 97/97/97
f 102/102/102 101/101/101 100/100/100
f 103/103/103 102/102/102 100/100/100
f 103/103/103 100/100/100 104/104/104
f 104/104/104 105/105/105 103/103/103
f 105/105/105 106/106/106 103/103/103
f 103/103/103 106/106/106 107/107/107
f 102/102/102 103/103/103 107/107/107
f 102/102/102 107/107/107 108/108/108
f 102/102/102 108/108/108 109/109/109
f 108/108/108 110/110/110 109/109/109
f 108/108/108 107/107/107 111/111/111
f 107/107/107 112/112/112 111/111/111
f 107/107/107 113/113/113 112/112/112
f 113/113/113 114/114/114 112/112/112
f 112/112/112 114/114/114 115/115/115
f 116/116/116 112/112/112 115/115/115
f 112/112/112 116/116/116 111/111/111
f 116/116/116 117/117/117 111/111/111
