g Cliff_L
v 1.3196841 3.65295 1.8677887
v 1.2717911 3.3533087 0.6219681
v 1.460828 3.3063107 0.7520361
v 1.6416397 3.4362228 1.3609418
v 1.5566397 3.1504517 0.67463195
v 1.7465872 3.282571 1.246538
v 1.7504312 3.3142169 1.4418188
v 1.3196841 3.65295 1.8677887
v 1.5183426 3.5681105 1.8734491
v 1.6305777 3.413096 1.902489
v 1.4834402 3.4581037 2.0133636
v 1.1919497 3.5882022 2.0097215
v -1.0055307 4.1018043 -1.4932959
v -0.9643942 6.057827 -1.0532019
v -1.1691 4.1146584 -1.4077454
v -0.80910856 6.067267 -1.1405346
v -0.8338095 6.191586 -0.9961206
v -0.38388273 6.287404 -0.7921838
v -0.31278166 6.1693177 -0.9152734
v -0.71092373 4.0514927 -1.2647521
v -1.3062521 2.179696 -1.8320898
v -0.005787048 3.4112446 -1.1876904
v -1.5494357 1.7512063 -1.9339136
v -1.1691 4.1146584 -1.4077454
v -1.679205 1.7616334 -1.8029602
v -1.734805 -3.975634E-06 -2.2010863
v -2.1181095 -3.97325E-06 -2.2789392
v -0.1926242 1.5361825 -1.4070666
v -0.30707732 -3.975634E-06 -1.7581396
v 0.57240266 1.0052786 -1.1917408
v 0.8633023 -3.989343E-06 -1.4732946
v 0.9723733 -4.013185E-06 -1.3240173
v 0.6921524 3.5553515 -0.74151975
v 0.6951785 0.986504 -1.0544446
v 0.8110831 3.5386577 -0.60041016
v 0.66437775 6.250563 -0.6757495
v 0.19887237 6.2286534 -0.7044995
v 0.15903473 6.3557525 -0.57414794
v -0.38388273 6.287404 -0.7921838
v 0.8115445 6.2604194 -0.55966675
v 1.1216787 6.3501654 0.5219977
v 1.134296 2.0785005 0.25945616
v 0.9087955 -3.975634E-06 -0.15718994
v 1.2542508 3.190367 0.5248462
v 1.2717911 3.3533087 0.6219681
v 1.4160769 4.9497037 1.1337445
v 1.4042532 4.8432975 1.8555157
v 1.3196841 3.65295 1.8677887
v 1.509086 6.3554273 1.7501702
v 1.3769559 6.490274 1.7652075
v 0.9894778 6.4745135 0.55662477
v 1.3969144 6.361083 1.8938568
v -0.8338095 6.191586 -0.9961206
v -1.0047275 6.0682163 -0.65516603
v -0.9643942 6.057827 -1.0532019
v -0.88151336 6.20631 -0.65822995
v -0.38388273 6.287404 -0.7921838
v -0.059170835 6.3906784 0.44650877
v 0.15903473 6.3557525 -0.57414794
v 0.6836392 6.388773 -0.5475513
v -0.8095346 6.3171678 0.84789366
v -0.9298398 6.1785936 0.8692151
v -1.0047275 6.0682163 -0.65516603
v -0.25843108 6.416567 1.4399328
v 0.663002 6.4963756 1.2480823
v 0.9894778 6.4745135 0.55662477
v 1.3769559 6.490274 1.7652075
v 0.8784854 6.523068 1.8313452
v -0.42265838 6.4137278 1.802359
v -0.6772885 6.3980317 1.826079
v -0.42265838 6.4137278 1.802359
v -0.40855315 6.289719 1.9386224
v -0.6622201 6.272601 1.9606476
v -0.8061142 6.254848 1.8452849
v -0.8061142 6.254848 1.8452849
v -0.9298398 6.1785936 0.8692151
v 0.6836392 6.388773 -0.5475513
v 0.15903473 6.3557525 -0.57414794
v 0.19887237 6.2286534 -0.7044995
v 0.66437775 6.250563 -0.6757495
v 0.8115445 6.2604194 -0.55966675
v 0.9894778 6.4745135 0.55662477
v 1.1216787 6.3501654 0.5219977
v -0.059170835 6.3906784 0.44650877
v 1.1919497 3.5882022 2.0097215
v 1.4042532 4.8432975 1.8555157
v 1.3196841 3.65295 1.8677887
v 1.275624 4.858399 1.9872388
v 1.509086 6.3554273 1.7501702
v 1.4160769 4.9497037 1.1337445
v 1.3969144 6.361083 1.8938568
v 0.8878372 6.3967376 1.9657098
v 0.913129 4.3526235 2.0153863
v 0.14359039 5.3490477 1.9945135
v -0.40855315 6.289719 1.9386224
v -0.12376434 4.1106424 2.029425
v 0.8341397 3.2713275 2.0512586
v 1.4834402 3.4581037 2.0133636
v 1.0129031 1.1855711 2.1129992
v 1.6744399 2.1647413 2.1284778
v 1.7002053 1.2993362 2.198797
v 1.8998245 -3.9827864E-06 2.2951868
v 1.012908 -3.975634E-06 2.14677
v -0.48040617 -3.9374872E-06 2.0901465
v -0.27225432 1.3532432 2.0146332
v -0.29858002 2.9878945 2.0272253
v -1.1615732 1.2176194 2.1136432
v -1.3320993 -3.9595407E-06 2.261966
v -1.4796542 -3.960733E-06 2.1507573
v -0.8459494 2.8853338 1.9845043
v -1.3033078 1.2283071 1.9956018
v -1.5104855 -3.975634E-06 1.726676
v -0.7092648 3.9322135 2.0019035
v 0.14359039 5.3490477 1.9945135
v -0.97694916 2.9027832 1.8555187
v -1.340228 1.16516 1.6754456
v -0.6800314 5.4193635 2.0068755
v -0.40855315 6.289719 1.9386224
v -0.6622201 6.272601 1.9606476
v -1.4310995 0.98281455 0.9472619
v -1.539703 -3.9279503E-06 1.1268493
v -1.7312546 -3.9374872E-06 -0.7179907
v -0.8456552 3.9439769 1.8776916
v -0.8187301 5.419441 1.8849304
v -0.8061142 6.254848 1.8452849
v -1.0395932 2.9007244 1.225368
v -1.637333 0.92772686 -0.6255444
v -2.241932 -3.960733E-06 -2.141327
v -1.679205 1.7616334 -1.8029602
v -1.3436593 2.0380223 -0.23011963
v -1.0330807 3.6538708 0.35716185
v -0.9183859 3.6600766 1.6141284
v -1.2867355 3.048353 -0.99390864
v -1.1691 4.1146584 -1.4077454
v -0.9213486 4.3745365 1.0131158
v -1.1078061 4.3432126 -0.6775366
v -0.9643942 6.057827 -1.0532019
v -1.0272152 5.3305407 -0.32505614
v -0.9641586 5.4715137 0.5471783
v -0.9298398 6.1785936 0.8692151
v -1.0047275 6.0682163 -0.65516603
v 1.7465872 3.282571 1.246538
v 1.9787246 2.1292045 1.2413379
v 1.7504312 3.3142169 1.4418188
v 1.9394058 2.1548169 1.062743
v 2.0984256 1.0694474 1.0612463
v 1.5370401 2.0874784 0.47661498
v 1.5566397 3.1504517 0.67463195
v 2.049186 1.0952228 0.8851196
v 2.2861648 -3.9929196E-06 0.836098
v 2.2214956 -3.9297383E-06 0.6612768
v 1.6414016 0.6413894 0.2978143
v 1.4069521 -3.975634E-06 0.010650635
v 0.9087955 -3.975634E-06 -0.15718994
v 1.134296 2.0785005 0.25945616
v 1.2542508 3.190367 0.5248462
v 1.460828 3.3063107 0.7520361
v 1.2717911 3.3533087 0.6219681
v 1.6305777 3.413096 1.902489
v 1.6744399 2.1647413 2.1284778
v 1.4834402 3.4581037 2.0133636
v 1.8209902 2.1676772 2.0158527
v 1.7504312 3.3142169 1.4418188
v 1.9787246 2.1292045 1.2413379
v 1.851559 1.3045365 2.0926647
v 2.0984256 1.0694474 1.0612463
v 1.7002053 1.2993362 2.198797
v 1.6744399 2.1647413 2.1284778
v 1.8998245 -3.9827864E-06 2.2951868
v 2.0516458 -4.0179534E-06 2.188975
v 2.2861648 -3.9929196E-06 0.836098
v -1.679205 1.7616334 -1.8029602
v -2.241932 -3.960733E-06 -2.141327
v -2.1181095 -3.97325E-06 -2.2789392
v -1.5494357 1.7512063 -1.9339136
v 1.3969144 6.361083 1.8938568
v 0.8878372 6.3967376 1.9657098
v 0.8784854 6.523068 1.8313452
v 1.3769559 6.490274 1.7652075
v 0.8878372 6.3967376 1.9657098
v -0.40855315 6.289719 1.9386224
v -0.42265838 6.4137278 1.802359
v 0.8784854 6.523068 1.8313452
v -0.9643942 6.057827 -1.0532019
v -1.0272152 5.3305407 -0.32505614
v -1.1078061 4.3432126 -0.6775366
v -1.0047275 6.0682163 -0.65516603
vt 0.4227194 0.9841562
vt 0.40330368 0.9841562
vt 0.4803672 0.9841562
vt 0.55342066 0.9841562
vt 0.52176267 0.9841562
vt 0.58888686 0.9841562
vt 0.5985347 0.9841562
vt 0.43628356 0.9841562
vt 0.503605 0.9841562
vt 0.5395276 0.9841562
vt 0.51076406 0.98415625
vt 0.4248761 0.9841562
vt 0.29296422 0.6047897
vt 0.305082 0.88922924
vt 0.25928584 0.60665864
vt 0.33264434 0.89045036
vt 0.3383342 0.90872437
vt 0.43083593 0.9231408
vt 0.43518737 0.90532786
vt 0.35362297 0.5974745
vt 0.23104644 0.32532293
vt 0.49880868 0.5043851
vt 0.18097566 0.26302224
vt 0.25928584 0.60665864
vt 0.15425661 0.2645383
vt 0.1428087 0.008404048
vt 0.06388743 0.008404092
vt 0.46033937 0.23175865
vt 0.43677375 0.008404227
vt 0.61785626 0.15456739
vt 0.67775166 0.00840422
vt 0.70020914 0.0084042745
vt 0.6425123 0.5253377
vt 0.64313555 0.15183765
vt 0.6669998 0.52291054
vt 0.6367936 0.9172105
vt 0.5409474 0.9140249
vt 0.53830177 0.93190503
vt 0.43086207 0.9231449
vt 0.6670949 0.9186435
vt 0.7309505 0.9316923
vt 0.7335484 0.31060952
vt 0.68711853 0.008404376
vt 0.7582467 0.4722704
vt 0.7618581 0.49596143
vt 0.79156625 0.72807086
vt 0.7892313 0.712595
vt 0.77178 0.5395245
vt 0.8107166 0.9324574
vt 0.8070955 0.9507914
vt 0.72955054 0.9507399
vt 0.8145395 0.93517584
vt 0.2961738 0.9841562
vt 0.2592411 0.9841562
vt 0.27047014 0.9841562
vt 0.2854576 0.9841562
vt 0.39724743 0.9841562
vt 0.47019207 0.9841562
vt 0.51921076 0.98415613
vt 0.637089 0.9841562
vt 0.30162704 0.9841562
vt 0.27403158 0.9841562
vt 0.2594861 0.9841562
vt 0.42542934 0.9841562
vt 0.6324242 0.9841562
vt 0.70576525 0.9841562
vt 0.79273826 0.9841562
vt 0.6807917 0.98415625
vt 0.3885367 0.9841562
vt 0.33133543 0.9841562
vt 0.3885367 0.9841562
vt 0.3896361 0.9841562
vt 0.33346367 0.98415613
vt 0.3284027 0.98415613
vt 0.30199954 0.98415613
vt 0.2743607 0.9841562
vt 0.637089 0.9841562
vt 0.51921076 0.98415613
vt 0.5259504 0.9841562
vt 0.6302024 0.9841562
vt 0.663592 0.9841562
vt 0.70576525 0.9841562
vt 0.7333102 0.9841562
vt 0.47019207 0.9841562
vt 0.74540544 0.52982897
vt 0.7892313 0.712595
vt 0.77178 0.5395245
vt 0.7697794 0.7170068
vt 0.8107166 0.9324574
vt 0.79156625 0.72807086
vt 0.79653907 0.93670857
vt 0.6920447 0.94237816
vt 0.6880107 0.6308799
vt 0.62002176 0.82204324
vt 0.43658683 0.92822397
vt 0.47451735 0.6060747
vt 0.671747 0.4840418
vt 0.8054362 0.5111983
vt 0.708554 0.18078119
vt 0.8447625 0.32314858
vt 0.8500676 0.19732217
vt 0.89116865 0.008404051
vt 0.7085549 0.008404614
vt 0.40108573 0.008404614
vt 0.44394386 0.20516002
vt 0.4385233 0.44283172
vt 0.26083562 0.18544087
vt 0.22572462 0.008404281
vt 0.19534346 0.008404273
vt 0.32582164 0.42791986
vt 0.23167081 0.18699229
vt 0.18899539 0.008404376
vt 0.35396454 0.5801319
vt 0.4391086 0.75022423
vt 0.29884902 0.4304569
vt 0.22405109 0.1778135
vt 0.3483253 0.79172933
vt 0.41046366 0.92075336
vt 0.36365092 0.92041475
vt 0.20534086 0.15130118
vt 0.18297967 0.008404167
vt 0.14353976 0.008404823
vt 0.325882 0.58184224
vt 0.331426 0.79636884
vt 0.3340235 0.91783345
vt 0.28595096 0.43015754
vt 0.16287795 0.14329165
vt 0.038392752 0.008404186
vt 0.15425661 0.2645383
vt 0.22334445 0.30472416
vt 0.28729182 0.539662
vt 0.31090707 0.5405643
vt 0.2350649 0.45162213
vt 0.25928584 0.60665864
vt 0.31029707 0.64444387
vt 0.2719061 0.6398895
vt 0.305082 0.88922924
vt 0.2884994 0.78344303
vt 0.30148247 0.80393994
vt 0.3085487 0.9067465
vt 0.2946616 0.8907157
vt 0.8596176 0.48567647
vt 0.9074138 0.31798166
vt 0.8609731 0.49034822
vt 0.89931816 0.32170558
vt 0.9320602 0.16389729
vt 0.8164723 0.3119148
vt 0.8215892 0.46654648
vt 0.92192185 0.16764492
vt 0.9707149 0.008404153
vt 0.95739985 0.008404213
vt 0.83796 0.10165939
vt 0.7896876 0.008404436
vt 0.68711853 0.008404376
vt 0.7335484 0.31060952
vt 0.7582467 0.4722704
vt 0.8095578 0.4839486
vt 0.7618581 0.49596143
vt 0.83573127 0.50465435
vt 0.8447625 0.32314858
vt 0.8054362 0.5111983
vt 0.87490827 0.3235744
vt 0.8609731 0.49034822
vt 0.9074138 0.31798166
vt 0.88123083 0.19807826
vt 0.9320602 0.16389729
vt 0.8500676 0.19732217
vt 0.8447625 0.32314858
vt 0.89116865 0.008404051
vt 0.92242813 0.0084039755
vt 0.9707149 0.008404153
vt 0.15425661 0.2645383
vt 0.038392752 0.008404186
vt 0.06388743 0.008404092
vt 0.18097566 0.26302224
vt 0.7989132 0.9841562
vt 0.6847487 0.9841562
vt 0.6807917 0.98415625
vt 0.79273826 0.9841562
vt 0.68044096 0.9841562
vt 0.38968658 0.9841562
vt 0.3885367 0.9841562
vt 0.6807917 0.98415625
vt 0.305082 0.88922924
vt 0.2884994 0.78344303
vt 0.2719061 0.6398895
vt 0.2946616 0.8907157
vn 0.3030787 0.95257837 -0.027161129
vn 0.44912297 0.7716466 -0.45038894
vn 0.5012035 0.7873428 -0.35900763
vn 0.4392231 0.87327546 -0.21088643
vn 0.7568775 0.20225868 -0.6214723
vn 0.8947225 0.25448036 -0.36703047
vn 0.96691877 0.21184738 0.14208731
vn 0.3030787 0.95257837 -0.027161129
vn 0.42198494 0.90554184 -0.043849677
vn 0.9075005 0.2222067 0.3564645
vn 0.081303544 0.09571067 0.9920833
vn 0.21999845 0.04533569 0.9744461
vn 0.15939574 0.15259066 -0.9753507
vn -0.97375816 0.13763788 -0.18124829
vn -0.9707993 0.17587161 -0.16314983
vn 0.28174126 0.15916754 -0.9461964
vn -0.2049794 0.95696807 -0.20541587
vn -0.09765872 0.9798354 -0.17431411
vn 0.33080938 0.16253391 -0.92959553
vn 0.3596605 0.11248146 -0.9262787
vn 0.3683735 0.11801672 -0.92215675
vn 0.36706758 0.11082871 -0.92356825
vn -0.14552973 0.22049405 -0.96447057
vn -0.9707993 0.17587161 -0.16314983
vn -0.97341484 0.2260698 0.036822394
vn 0.3171038 0.1289263 -0.93958676
vn -0.24406357 0.26064786 -0.93407476
vn 0.36848783 0.13517337 -0.91975266
vn 0.33720255 0.16501366 -0.9268576
vn 0.4324462 0.19191048 -0.8809998
vn 0.37472013 0.2720967 -0.8863116
vn 0.969308 0.09574632 -0.22643894
vn 0.4797007 0.0826294 -0.87353283
vn 0.9524105 0.059529062 -0.29894918
vn 0.9206644 0.021968005 -0.38973624
vn 0.43697366 0.09841257 -0.8940744
vn 0.32186228 0.14066246 -0.9362791
vn -0.061766885 0.9908325 -0.120148815
vn -0.09765872 0.9798354 -0.17431411
vn 0.9196838 0.07975527 -0.38447472
vn 0.94066036 0.13759816 -0.31020135
vn 0.9458836 0.021121489 -0.3238181
vn 0.9833235 0.05536932 -0.17323129
vn 0.9388038 0.016327836 -0.34406507
vn 0.95212036 0.0046962705 -0.30568734
vn 0.97212785 -0.002720664 -0.23443535
vn 0.98770523 -0.069585495 0.13998686
vn 0.99198276 -0.0766537 0.10047094
vn 0.98460305 0.16525389 -0.056991547
vn 0.28538623 0.9584126 0.00017181599
vn 0.06662833 0.99382645 -0.08871075
vn 0.17257619 0.06319494 0.9829669
vn -0.2049794 0.95696807 -0.20541587
vn -0.9890938 0.14601375 0.019326184
vn -0.97375816 0.13763788 -0.18124829
vn -0.33254462 0.94193053 -0.046701062
vn -0.09765872 0.9798354 -0.17431411
vn -0.09881211 0.9934496 -0.05739295
vn -0.061766885 0.9908325 -0.120148815
vn 0.018793777 0.992882 -0.11760999
vn -0.28949657 0.9560642 -0.046184603
vn -0.9713174 0.22862318 0.06537569
vn -0.9890938 0.14601375 0.019326184
vn -0.10312604 0.99375445 -0.042629406
vn -0.046923626 0.9980544 -0.041056197
vn 0.06662833 0.99382645 -0.08871075
vn 0.28538623 0.9584126 0.00017181599
vn -0.017231865 0.9859905 0.16590889
vn -0.08022479 0.9605479 0.2662927
vn -0.43414515 0.89512235 0.101360805
vn -0.08022479 0.9605479 0.2662927
vn -0.0057709296 0.2128429 0.97706944
vn -0.12485412 0.12292126 0.9845313
vn -0.9731418 0.12042891 0.19619311
vn -0.9731418 0.12042891 0.19619311
vn -0.9713174 0.22862318 0.06537569
vn 0.018793777 0.992882 -0.11760999
vn -0.061766885 0.9908325 -0.120148815
vn 0.32186228 0.14066246 -0.9362791
vn 0.43697366 0.09841257 -0.8940744
vn 0.9196838 0.07975527 -0.38447472
vn 0.06662833 0.99382645 -0.08871075
vn 0.94066036 0.13759816 -0.31020135
vn -0.09881211 0.9934496 -0.05739295
vn 0.21999845 0.04533569 0.9744461
vn 0.98770523 -0.069585495 0.13998686
vn 0.99198276 -0.0766537 0.10047094
vn 0.16565211 0.02252289 0.985927
vn 0.98460305 0.16525389 -0.056991547
vn 0.97212785 -0.002720664 -0.23443535
vn 0.17257619 0.06319494 0.9829669
vn 0.032917995 0.120404266 0.99217904
vn 0.031823974 0.02394542 0.9992066
vn 0.021180328 0.030778047 0.9993018
vn -0.0057709296 0.2128429 0.97706944
vn -0.014040464 0.014171806 0.999801
vn -0.027443575 0.023370009 0.99935013
vn 0.081303544 0.09571067 0.9920833
vn -0.070983194 0.034134876 0.9968933
vn 0.07767238 0.06699018 0.99472576
vn 0.019164665 0.06927058 0.9974138
vn 0.010434409 0.06694095 0.9977024
vn -0.08782802 0.04459404 0.99513704
vn 0.034884717 0.054833885 0.9978859
vn -0.0068660513 0.032613065 0.9994444
vn -0.028537046 0.014294151 0.9994905
vn -0.045850303 0.081534915 0.99561524
vn 0.0058066593 0.0908936 0.9958437
vn -0.9226517 0.17359751 0.3443513
vn -0.1383204 0.05156779 0.9890441
vn -0.9365413 0.19270304 0.29284117
vn -0.9872688 0.14121123 0.07320865
vn -0.19167572 0.013626929 0.9813638
vn 0.021180328 0.030778047 0.9993018
vn -0.93995315 0.17101595 0.29536706
vn -0.9808137 0.1759962 0.08384371
vn -0.1560028 0.031402893 0.9872573
vn -0.0057709296 0.2128429 0.97706944
vn -0.12485412 0.12292126 0.9845313
vn -0.9827322 0.15829173 0.095818006
vn -0.98801965 0.11912114 0.098118536
vn -0.9673514 0.15617178 0.1996038
vn -0.95862365 0.04784149 0.2806274
vn -0.9759202 0.018908773 0.21730691
vn -0.9731418 0.12042891 0.19619311
vn -0.98276764 0.15816809 0.095659174
vn -0.967573 0.17037322 0.18648215
vn -0.9662249 0.2316284 0.11295074
vn -0.97341484 0.2260698 0.036822394
vn -0.97381884 0.18428281 0.13310397
vn -0.98999256 0.09217467 0.10685773
vn -0.99144477 0.082516395 0.10113529
vn -0.9767412 0.16030692 0.14240189
vn -0.9707993 0.17587161 -0.16314983
vn -0.9929599 0.04255476 0.11054218
vn -0.99419457 0.0800973 0.071845435
vn -0.97375816 0.13763788 -0.18124829
vn -0.9973236 0.05429102 0.048972312
vn -0.9958341 0.027408315 0.086966366
vn -0.9713174 0.22862318 0.06537569
vn -0.9890938 0.14601375 0.019326184
vn 0.8947225 0.25448036 -0.36703047
vn 0.98424304 0.117180586 0.13241687
vn 0.96691877 0.21184738 0.14208731
vn 0.8698985 0.15855505 -0.4670513
vn 0.982242 0.13603713 0.1292071
vn 0.65275145 0.15127847 -0.74231416
vn 0.7568775 0.20225868 -0.6214723
vn 0.80268174 0.16861856 -0.572075
vn 0.980591 0.1614379 0.111261256
vn 0.7351548 0.19899759 -0.64803356
vn 0.58509797 0.16208237 -0.79460037
vn 0.56047285 0.22669242 -0.796543
vn 0.4300675 0.15464623 -0.8894529
vn 0.45023972 0.13926955 -0.8819797
vn 0.46706647 0.18942225 -0.8636944
vn 0.5012035 0.7873428 -0.35900763
vn 0.44912297 0.7716466 -0.45038894
vn 0.9075005 0.2222067 0.3564645
vn 0.07767238 0.06699018 0.99472576
vn 0.081303544 0.09571067 0.9920833
vn 0.9381436 0.11727291 0.32578143
vn 0.96691877 0.21184738 0.14208731
vn 0.98424304 0.117180586 0.13241687
vn 0.9461733 0.11906307 0.30096507
vn 0.982242 0.13603713 0.1292071
vn 0.019164665 0.06927058 0.9974138
vn 0.07767238 0.06699018 0.99472576
vn 0.010434409 0.06694095 0.9977024
vn 0.9475091 0.15398903 0.2802033
vn 0.980591 0.1614379 0.111261256
vn -0.97341484 0.2260698 0.036822394
vn -0.9662249 0.2316284 0.11295074
vn -0.24406357 0.26064786 -0.93407476
vn -0.14552973 0.22049405 -0.96447057
vn 0.17257619 0.06319494 0.9829669
vn 0.032917995 0.120404266 0.99217904
vn -0.017231865 0.9859905 0.16590889
vn 0.28538623 0.9584126 0.00017181599
vn 0.032917995 0.120404266 0.99217904
vn -0.0057709296 0.2128429 0.97706944
vn -0.08022479 0.9605479 0.2662927
vn -0.017231865 0.9859905 0.16590889
vn -0.97375816 0.13763788 -0.18124829
vn -0.9973236 0.05429102 0.048972312
vn -0.99419457 0.0800973 0.071845435
vn -0.9890938 0.14601375 0.019326184
g Cliff_L_0
f 3/3/3 2/2/2 1/1/1
f 5/5/5 3/3/3 4/4/4
f 6/6/6 5/5/5 4/4/4
f 4/4/4 7/7/7 6/6/6
f 3/3/3 8/8/8 4/4/4
f 4/4/4 9/9/9 7/7/7
f 8/8/8 9/9/9 4/4/4
f 9/9/9 10/10/10 7/7/7
f 9/9/9 11/11/11 10/10/10
f 11/11/11 9/9/9 8/8/8
f 12/12/12 11/11/11 8/8/8
f 15/15/15 14/14/14 13/13/13
f 14/14/14 16/16/16 13/13/13
f 16/16/16 14/14/14 17/17/17
f 17/17/17 18/18/18 16/16/16
f 18/18/18 19/19/19 16/16/16
f 13/13/13 16/16/16 19/19/19
f 20/20/20 13/13/13 19/19/19
f 13/13/13 20/20/20 21/21/21
f 20/20/20 19/19/19 22/22/22
f 20/20/20 22/22/22 21/21/21
f 23/23/23 13/13/13 21/21/21
f 13/13/13 23/23/23 24/24/24
f 23/23/23 25/25/25 24/24/24
f 23/23/23 21/21/21 26/26/26
f 27/27/27 23/23/23 26/26/26
f 26/26/26 21/21/21 28/28/28
f 22/22/22 28/28/28 21/21/21
f 29/29/29 26/26/26 28/28/28
f 29/29/29 28/28/28 30/30/30
f 31/31/31 29/29/29 30/30/30
f 31/31/31 30/30/30 32/32/32
f 30/30/30 28/28/28 33/33/33
f 28/28/28 22/22/22 33/33/33
f 30/30/30 34/34/34 32/32/32
f 34/34/34 30/30/30 33/33/33
f 35/35/35 34/34/34 33/33/33
f 35/35/35 33/33/33 36/36/36
f 33/33/33 22/22/22 36/36/36
f 22/22/22 37/37/37 36/36/36
f 19/19/19 37/37/37 22/22/22
f 38/38/38 37/37/37 19/19/19
f 39/39/39 38/38/38 19/19/19
f 40/40/40 35/35/35 36/36/36
f 41/41/41 35/35/35 40/40/40
f 32/32/32 34/34/34 42/42/42
f 42/42/42 34/34/34 35/35/35
f 43/43/43 32/32/32 42/42/42
f 35/35/35 44/44/44 42/42/42
f 35/35/35 45/45/45 44/44/44
f 35/35/35 46/46/46 45/45/45
f 35/35/35 41/41/41 46/46/46
f 45/45/45 46/46/46 47/47/47
f 48/48/48 45/45/45 47/47/47
f 49/49/49 46/46/46 41/41/41
f 50/50/50 49/49/49 41/41/41
f 51/51/51 50/50/50 41/41/41
f 50/50/50 52/52/52 49/49/49
f 55/55/55 54/54/54 53/53/53
f 54/54/54 56/56/56 53/53/53
f 53/53/53 56/56/56 57/57/57
f 56/56/56 58/58/58 57/57/57
f 58/58/58 59/59/59 57/57/57
f 60/60/60 59/59/59 58/58/58
f 56/56/56 61/61/61 58/58/58
f 62/62/62 61/61/61 56/56/56
f 63/63/63 62/62/62 56/56/56
f 61/61/61 64/64/64 58/58/58
f 64/64/64 65/65/65 58/58/58
f 58/58/58 65/65/65 66/66/66
f 66/66/66 65/65/65 67/67/67
f 65/65/65 68/68/68 67/67/67
f 69/69/69 68/68/68 65/65/65
f 64/64/64 69/69/69 65/65/65
f 61/61/61 70/70/70 64/64/64
f 64/64/64 70/70/70 71/71/71
f 71/71/71 70/70/70 72/72/72
f 70/70/70 73/73/73 72/72/72
f 70/70/70 74/74/74 73/73/73
f 75/75/75 70/70/70 61/61/61
f 76/76/76 75/75/75 61/61/61
f 79/79/79 78/78/78 77/77/77
f 80/80/80 79/79/79 77/77/77
f 77/77/77 81/81/81 80/80/80
f 77/77/77 82/82/82 81/81/81
f 82/82/82 83/83/83 81/81/81
f 84/84/84 82/82/82 77/77/77
f 87/87/87 86/86/86 85/85/85
f 86/86/86 88/88/88 85/85/85
f 86/86/86 89/89/89 88/88/88
f 90/90/90 89/89/89 86/86/86
f 89/89/89 91/91/91 88/88/88
f 88/88/88 91/91/91 92/92/92
f 88/88/88 93/93/93 85/85/85
f 92/92/92 93/93/93 88/88/88
f 92/92/92 94/94/94 93/93/93
f 92/92/92 95/95/95 94/94/94
f 94/94/94 96/96/96 93/93/93
f 93/93/93 97/97/97 85/85/85
f 93/93/93 96/96/96 97/97/97
f 97/97/97 98/98/98 85/85/85
f 98/98/98 97/97/97 99/99/99
f 100/100/100 98/98/98 99/99/99
f 101/101/101 100/100/100 99/99/99
f 101/101/101 99/99/99 102/102/102
f 99/99/99 103/103/103 102/102/102
f 103/103/103 99/99/99 104/104/104
f 99/99/99 97/97/97 105/105/105
f 99/99/99 105/105/105 104/104/104
f 97/97/97 106/106/106 105/105/105
f 96/96/96 106/106/106 97/97/97
f 105/105/105 107/107/107 104/104/104
f 105/105/105 106/106/106 107/107/107
f 107/107/107 108/108/108 104/104/104
f 109/109/109 108/108/108 107/107/107
f 110/110/110 106/106/106 96/96/96
f 106/106/106 110/110/110 107/107/107
f 111/111/111 109/109/109 107/107/107
f 107/107/107 110/110/110 111/111/111
f 112/112/112 109/109/109 111/111/111
f 113/113/113 110/110/110 96/96/96
f 96/96/96 114/114/114 113/113/113
f 110/110/110 115/115/115 111/111/111
f 110/110/110 113/113/113 115/115/115
f 116/116/116 112/112/112 111/111/111
f 116/116/116 111/111/111 115/115/115
f 114/114/114 117/117/117 113/113/113
f 114/114/114 118/118/118 117/117/117
f 118/118/118 119/119/119 117/117/117
f 112/112/112 116/116/116 120/120/120
f 121/121/121 112/112/112 120/120/120
f 121/121/121 120/120/120 122/122/122
f 113/113/113 123/123/123 115/115/115
f 123/123/123 113/113/113 117/117/117
f 124/124/124 117/117/117 119/119/119
f 124/124/124 123/123/123 117/117/117
f 125/125/125 124/124/124 119/119/119
f 126/126/126 116/116/116 115/115/115
f 126/126/126 115/115/115 123/123/123
f 120/120/120 116/116/116 126/126/126
f 120/120/120 127/127/127 122/122/122
f 128/128/128 122/122/122 127/127/127
f 129/129/129 128/128/128 127/127/127
f 130/130/130 127/127/127 120/120/120
f 129/129/129 127/127/127 130/130/130
f 130/130/130 120/120/120 126/126/126
f 126/126/126 131/131/131 130/130/130
f 132/132/132 126/126/126 123/123/123
f 132/132/132 123/123/123 124/124/124
f 131/131/131 126/126/126 132/132/132
f 133/133/133 129/129/129 130/130/130
f 131/131/131 133/133/133 130/130/130
f 134/134/134 129/129/129 133/133/133
f 135/135/135 132/132/132 124/124/124
f 135/135/135 131/131/131 132/132/132
f 135/135/135 124/124/124 125/125/125
f 136/136/136 134/134/134 133/133/133
f 133/133/133 131/131/131 136/136/136
f 137/137/137 134/134/134 136/136/136
f 138/138/138 136/136/136 131/131/131
f 139/139/139 135/135/135 125/125/125
f 135/135/135 139/139/139 131/131/131
f 139/139/139 138/138/138 131/131/131
f 139/139/139 125/125/125 140/140/140
f 139/139/139 140/140/140 138/138/138
f 140/140/140 141/141/141 138/138/138
f 144/144/144 143/143/143 142/142/142
f 143/143/143 145/145/145 142/142/142
f 143/143/143 146/146/146 145/145/145
f 145/145/145 147/147/147 142/142/142
f 147/147/147 148/148/148 142/142/142
f 146/146/146 149/149/149 145/145/145
f 145/145/145 149/149/149 147/147/147
f 146/146/146 150/150/150 149/149/149
f 150/150/150 151/151/151 149/149/149
f 149/149/149 151/151/151 152/152/152
f 149/149/149 152/152/152 147/147/147
f 151/151/151 153/153/153 152/152/152
f 154/154/154 152/152/152 153/153/153
f 154/154/154 155/155/155 152/152/152
f 155/155/155 147/147/147 152/152/152
f 155/155/155 156/156/156 147/147/147
f 156/156/156 148/148/148 147/147/147
f 148/148/148 156/156/156 157/157/157
f 156/156/156 158/158/158 157/157/157
f 161/161/161 160/160/160 159/159/159
f 160/160/160 162/162/162 159/159/159
f 159/159/159 162/162/162 163/163/163
f 162/162/162 164/164/164 163/163/163
f 162/162/162 165/165/165 164/164/164
f 165/165/165 166/166/166 164/164/164
f 167/167/167 165/165/165 162/162/162
f 168/168/168 167/167/167 162/162/162
f 167/167/167 169/169/169 165/165/165
f 169/169/169 170/170/170 165/165/165
f 165/165/165 170/170/170 166/166/166
f 170/170/170 171/171/171 166/166/166
f 174/174/174 173/173/173 172/172/172
f 175/175/175 174/174/174 172/172/172
f 178/178/178 177/177/177 176/176/176
f 179/179/179 178/178/178 176/176/176
f 182/182/182 181/181/181 180/180/180
f 183/183/183 182/182/182 180/180/180
f 186/186/186 185/185/185 184/184/184
f 185/185/185 187/187/187 184/184/184
