g Cliff_B
v 0.6791348 2.5920334 -0.15864776
v 0.84491116 2.6800835 0.2574191
v 0.37188873 2.6389766 0.25575286
v 0.55089754 2.5769665 -0.26161528
v -0.67745453 2.3418517 -0.1490982
v 0.534274 2.5375497 -0.30986723
v -0.67534024 2.3900177 -0.08621124
v 0.37188873 2.6389766 0.25575286
v -0.17690155 2.6007373 0.5576034
v -0.4403012 2.5845206 0.9195126
v -0.7518698 2.3782606 -0.07258209
v -0.5986203 2.507032 0.6827682
v -0.63958585 2.4518013 0.706445
v -0.80798185 2.316577 -0.072728574
v 0.6791348 2.5920334 -0.15864776
v 0.5707828 2.5371375 -0.2888919
v 0.534274 2.5375497 -0.30986723
v 0.69551665 2.5595071 -0.20033477
v 0.7119815 2.5551295 -0.16265899
v 0.25856352 2.6817696 0.5877255
v 0.84491116 2.6800835 0.2574191
v 0.6896817 2.7873 1.034614
v 0.68136626 2.7339919 1.0904831
v -0.41425994 2.5219018 1.0176828
v -0.46820158 2.5372872 0.9525082
v 1.0009756 2.75019 0.78041595
v 0.90097076 2.6251917 0.24623138
v 1.0528506 2.6934907 0.7732773
v 0.7119815 2.5551295 -0.16265899
v 0.84491116 2.6800835 0.2574191
v 0.6791348 2.5920334 -0.15864776
v 0.90097076 2.6251917 0.24623138
v 0.6364273 2.3212323 -0.3803372
v 0.552753 1.5329983 -0.63851714
v 0.69551665 2.5595071 -0.20033477
v 1.0528506 2.6934907 0.7732773
v 0.6142398 2.3748088 -0.36250395
v 0.5707828 2.5371375 -0.2888919
v 0.534274 2.5375497 -0.30986723
v 0.5882217 2.3425536 -0.39287016
v -0.67745453 2.3418517 -0.1490982
v 0.8109903 1.3849776 -0.05495514
v 1.0696768 2.0039656 1.0358261
v 0.9038174 1.3385332 0.33505097
v 1.0535953 1.5248727 1.059979
v 0.71262115 0.774663 -0.315939
v 0.7582852 0.6394539 -0.09009918
v 0.59091216 0.06499547 -1.024838
v 0.71023345 -6.949946E-07 -0.28120878
v 0.79211086 -6.949946E-07 1.1602181
v 0.5862784 -6.949946E-07 -1.0494033
v 0.53176177 -6.949946E-07 -1.0936624
v 0.48347318 1.547169 -0.6749527
v -1.0302975 -6.949946E-07 -1.2205288
v -0.87561613 1.0050043 -0.7091519
v -0.70755947 1.9454505 -0.32059234
v -0.8229611 1.9032328 -0.30313507
v -0.9415561 0.9741391 -0.6945071
v -0.85405487 1.8971697 -0.19125152
v -0.9819479 0.98184407 -0.5630789
v -0.76340663 2.3278809 -0.13515656
v -0.67534024 2.3900177 -0.08621124
v -0.7518698 2.3782606 -0.07258209
v 1.0535953 1.5248727 1.059979
v 0.79211086 -6.949946E-07 1.1602181
v 0.73446685 -6.949946E-07 1.2162241
v 0.9996109 1.5346861 1.1172738
v 0.678627 1.3624007 1.0894613
v 0.43925688 -6.949946E-07 1.1954135
v 1.0696768 2.0039656 1.0358261
v 0.11754791 -6.949946E-07 1.1465462
v 1.0267056 2.0431678 1.0864962
v -0.04841522 1.9729277 1.0894625
v 0.051186826 0.6259828 1.0894625
v -0.5233883 -6.759211E-07 1.0706991
v -0.019030455 1.2853703 1.0894613
v -0.49683562 1.2221667 1.0894613
v 1.0377823 2.1869943 1.0551803
v 1.0528506 2.6934907 0.7732773
v 1.02319 2.7097979 0.84870696
v 1.0009756 2.75019 0.78041595
v 0.6896817 2.7873 1.034614
v 0.7635733 2.7367957 1.0585495
v 0.68136626 2.7339919 1.0904831
v -0.41425994 2.5219018 1.0176828
v -0.48963103 2.0091143 1.0630941
v -0.5488083 2.336682 0.9780697
v -0.47544524 1.5358183 1.0941892
v -0.5771518 1.9756107 1.0037228
v -0.59084684 1.5239328 0.9925558
v -0.62065643 1.9781214 0.9375412
v -0.59883267 2.3249953 0.9095871
v -0.6308615 1.5269688 0.9242294
v -0.80798185 2.316577 -0.072728574
v -0.63958585 2.4518013 0.706445
v -0.85405487 1.8971697 -0.19125152
v -0.9819479 0.98184407 -0.5630789
v -0.6122958 1.1628119 0.98868495
v -0.63410735 -6.759211E-07 0.96980804
v -0.67306244 -6.765171E-07 0.9007797
v -1.0717013 -6.9380246E-07 -1.1098001
v -0.6525644 1.1652901 0.92048186
v -0.46820158 2.5372872 0.9525082
v -0.5986203 2.507032 0.6827682
v -0.4403012 2.5845206 0.9195126
v -0.6184384 2.4897704 0.7449362
v -0.63958585 2.4518013 0.706445
v -0.59883267 2.3249953 0.9095871
v -0.57373625 2.3743036 0.934581
v -0.41425994 2.5219018 1.0176828
v -0.5488083 2.336682 0.9780697
v -0.9819479 0.98184407 -0.5630789
v -1.0717013 -6.9380246E-07 -1.1098001
v -1.0515646 -6.949946E-07 -1.1948868
v -0.9415561 0.9741391 -0.6945071
v -0.9415561 0.9741391 -0.6945071
v -1.0302975 -6.949946E-07 -1.2205288
v -0.87561613 1.0050043 -0.7091519
v -0.80798185 2.316577 -0.072728574
v -0.85405487 1.8971697 -0.19125152
v -0.8229611 1.9032328 -0.30313507
v -0.76340663 2.3278809 -0.13515656
v -0.7518698 2.3782606 -0.07258209
vt 0.6797931 0.98415625
vt 0.71707433 0.9841562
vt 0.6127204 0.9841562
vt 0.6628635 0.9841562
vt 0.38509053 0.9841562
vt 0.6548091 0.98415613
vt 0.38169116 0.9841562
vt 0.6127204 0.9841562
vt 0.49165183 0.9841562
vt 0.4273159 0.9841562
vt 0.36480796 0.9841562
vt 0.40003502 0.9841562
vt 0.39065826 0.9841562
vt 0.35257724 0.9841562
vt 0.6797931 0.98415625
vt 0.67298657 0.9841562
vt 0.6651619 0.9841562
vt 0.67369646 0.9841562
vt 0.6904801 0.9841562
vt 0.58772033 0.9841562
vt 0.71707433 0.9841562
vt 0.68284816 0.9841562
vt 0.6788964 0.9841562
vt 0.42802557 0.9841562
vt 0.43971232 0.9841562
vt 0.7515572 0.9841562
vt 0.72870815 0.9841562
vt 0.76224995 0.9841562
vt 0.8044759 0.8512463
vt 0.8738444 0.8893947
vt 0.8036347 0.8677408
vt 0.87508655 0.8724114
vt 0.7784728 0.7881501
vt 0.7313697 0.5236982
vt 0.7770521 0.8480876
vt 0.93753374 0.8942276
vt 0.77576524 0.84155864
vt 0.77506185 0.84936506
vt 0.7417307 0.84538645
vt 0.75567585 0.7939421
vt 0.22363898 0.7819472
vt 0.8379493 0.47643834
vt 0.94471467 0.67406774
vt 0.8762602 0.46160972
vt 0.93807656 0.5211038
vt 0.7973498 0.28157842
vt 0.8161972 0.2384091
vt 0.747118 0.054997478
vt 0.7963644 0.0342457
vt 0.83015656 0.034245756
vt 0.7452053 0.03424568
vt 0.7227056 0.03424567
vt 0.7027765 0.52822244
vt 0.07801379 0.03424561
vt 0.122437105 0.34977305
vt 0.19142057 0.65750957
vt 0.16482754 0.6571874
vt 0.1058266 0.35450393
vt 0.14781427 0.6520147
vt 0.09147326 0.34616292
vt 0.18809739 0.77759016
vt 0.2198264 0.7946303
vt 0.18977617 0.7910939
vt 0.93807656 0.5211038
vt 0.83015656 0.034245756
vt 0.80636615 0.034245748
vt 0.91579634 0.524237
vt 0.7833208 0.46923006
vt 0.6845282 0.03424588
vt 0.94471467 0.67406774
vt 0.55175245 0.03424555
vt 0.92074895 0.67715704
vt 0.4832558 0.6641579
vt 0.52436346 0.23410809
vt 0.28722507 0.03424555
vt 0.49538344 0.444636
vt 0.29818392 0.42445645
vt 0.9315511 0.7325046
vt 0.93753374 0.8942276
vt 0.9255283 0.8994243
vt 0.92965204 0.91382444
vt 0.80174935 0.92592376
vt 0.81837976 0.90804404
vt 0.7844513 0.90714896
vt 0.31421518 0.84704703
vt 0.3011575 0.6757116
vt 0.27366912 0.7941449
vt 0.30701214 0.52459854
vt 0.26503587 0.66501456
vt 0.25938365 0.5208037
vt 0.24708068 0.6658161
vt 0.25360823 0.78949106
vt 0.24285296 0.5217738
vt 0.16976792 0.7738776
vt 0.24099383 0.82189304
vt 0.14781427 0.6520147
vt 0.09147326 0.34616292
vt 0.25053132 0.40550527
vt 0.24152927 0.034245644
vt 0.22545162 0.034245662
vt 0.060925867 0.03424557
vt 0.23391137 0.40629703
vt 0.28002307 0.8421439
vt 0.2466971 0.839632
vt 0.2921736 0.85820824
vt 0.25645435 0.83240163
vt 0.24099383 0.82189304
vt 0.25360823 0.78949106
vt 0.2631628 0.8167572
vt 0.31421518 0.84704703
vt 0.27366912 0.7941449
vt 0.09147326 0.34616292
vt 0.060925867 0.03424557
vt 0.06923652 0.034245603
vt 0.1058266 0.35450393
vt 0.1058266 0.35450393
vt 0.07801379 0.03424561
vt 0.122437105 0.34977305
vt 0.16976792 0.7738776
vt 0.14781427 0.6520147
vt 0.16482754 0.6571874
vt 0.18809739 0.77759016
vt 0.17025389 0.7848897
vn 0.106614776 0.96565795 -0.23693433
vn 0.022921178 0.98345125 -0.17971748
vn -0.13087332 0.97673815 -0.169867
vn -0.15982461 0.95605236 -0.24580495
vn -0.18815699 0.4560085 -0.8698581
vn -0.17523666 0.46843982 -0.86594236
vn -0.19641241 0.952127 -0.23425709
vn -0.13087332 0.97673815 -0.169867
vn -0.18250792 0.9736004 -0.13708815
vn -0.22371079 0.97192097 0.072959125
vn -0.5062245 0.8592125 -0.07409886
vn -0.43491745 0.89851886 -0.05925137
vn -0.9697645 0.14838888 0.19374649
vn -0.9826649 0.1006542 0.15568702
vn 0.106614776 0.96565795 -0.23693433
vn 0.41906393 0.5394031 -0.7303628
vn -0.17523666 0.46843982 -0.86594236
vn 0.576725 0.48635125 -0.6563922
vn 0.90431386 0.09454548 -0.41626635
vn -0.11891721 0.9859147 -0.117605254
vn 0.022921178 0.98345125 -0.17971748
vn -0.09282954 0.9956802 -0.0018901784
vn -0.03455237 0.19379616 0.9804332
vn -0.12216672 0.21860075 0.9681369
vn -0.690978 0.5488621 0.47042525
vn 0.0209774 0.98997235 -0.13969475
vn 0.9332296 0.05469146 -0.35509342
vn 0.96689355 0.035099674 -0.25275433
vn 0.90431386 0.09454548 -0.41626635
vn 0.022921178 0.98345125 -0.17971748
vn 0.106614776 0.96565795 -0.23693433
vn 0.9332296 0.05469146 -0.35509342
vn 0.8756484 0.07573062 -0.47697467
vn 0.91040653 0.07222944 -0.40736085
vn 0.576725 0.48635125 -0.6563922
vn 0.96689355 0.035099674 -0.25275433
vn 0.5791129 0.38563523 -0.7182714
vn 0.41906393 0.5394031 -0.7303628
vn -0.17523666 0.46843982 -0.86594236
vn -0.13282754 0.37672395 -0.9167529
vn -0.18815699 0.4560085 -0.8698581
vn 0.95408887 0.012482945 -0.2992634
vn 0.9848556 -0.036121905 -0.16957195
vn 0.9764147 -0.04090137 -0.21199393
vn 0.9925547 -0.087041795 -0.0851985
vn 0.963601 0.03703705 -0.2647668
vn 0.9786226 -0.034279566 -0.20278715
vn 0.94755024 0.047360107 -0.31607845
vn 0.98815906 -0.09224381 -0.122607455
vn 0.98547274 -0.16709806 0.030357756
vn 0.98456085 -0.008407109 -0.17484088
vn 0.005970953 0.34114343 -0.9399923
vn -0.04889295 0.35750747 -0.93262964
vn -0.024468774 0.34671926 -0.93764967
vn -0.05839015 0.3553324 -0.93291456
vn -0.15993966 0.37934694 -0.91132605
vn -0.70958513 0.34720743 -0.6131362
vn -0.79811156 0.3322673 -0.50260967
vn -0.9847504 0.06415714 0.1617114
vn -0.9841665 0.021690406 0.17591451
vn -0.5909904 0.39187646 -0.7050979
vn -0.19641241 0.952127 -0.23425709
vn -0.5062245 0.8592125 -0.07409886
vn 0.9925547 -0.087041795 -0.0851985
vn 0.98547274 -0.16709806 0.030357756
vn 0.053234465 0.060718615 0.9967344
vn 0.16556002 0.041492525 0.9853265
vn -0.048728723 0.041377176 0.9979546
vn -0.11357336 0.09004279 0.989441
vn 0.9848556 -0.036121905 -0.16957195
vn -0.12063003 0.0877653 0.9888102
vn 0.041579507 0.0068428144 0.9991117
vn -0.030288925 0.035070054 0.99892575
vn -0.062703446 0.03799386 0.99730873
vn -0.27777132 0.012800848 0.9605619
vn -0.0017954711 -0.0033475833 0.99999285
vn -0.15107183 -0.0046244357 0.9885119
vn 0.7024811 0.1952134 0.6844063
vn 0.96689355 0.035099674 -0.25275433
vn 0.73861223 0.38006854 0.55677634
vn 0.0209774 0.98997235 -0.13969475
vn -0.09282954 0.9956802 -0.0018901784
vn 0.49448758 0.39397943 0.7747659
vn -0.03455237 0.19379616 0.9804332
vn -0.12216672 0.21860075 0.9681369
vn -0.15831573 0.079704195 0.9841664
vn -0.60785496 0.15142317 0.77947634
vn -0.13971576 0.00871879 0.99015325
vn -0.68712527 0.054672472 0.72447896
vn -0.7304466 0.025048861 0.6825103
vn -0.97227657 0.040932324 0.23022336
vn -0.967076 0.072095506 0.24406192
vn -0.9739692 0.045933995 0.22197743
vn -0.9826649 0.1006542 0.15568702
vn -0.9697645 0.14838888 0.19374649
vn -0.9847504 0.06415714 0.1617114
vn -0.9841665 0.021690406 0.17591451
vn -0.7366375 0.009557544 0.6762203
vn -0.7435582 0.0037499068 0.66866076
vn -0.9759334 -0.0030967244 0.21804672
vn -0.9872256 0.021517837 0.1578687
vn -0.97537464 0.016275197 0.21995364
vn -0.690978 0.5488621 0.47042525
vn -0.43491745 0.89851886 -0.05925137
vn -0.22371079 0.97192097 0.072959125
vn -0.78001773 0.54391736 0.3093966
vn -0.9697645 0.14838888 0.19374649
vn -0.967076 0.072095506 0.24406192
vn -0.78681815 0.35234925 0.5067221
vn -0.12216672 0.21860075 0.9681369
vn -0.60785496 0.15142317 0.77947634
vn -0.9841665 0.021690406 0.17591451
vn -0.9872256 0.021517837 0.1578687
vn -0.7841113 0.3525289 -0.51077664
vn -0.79811156 0.3322673 -0.50260967
vn -0.79811156 0.3322673 -0.50260967
vn -0.024468774 0.34671926 -0.93764967
vn -0.05839015 0.3553324 -0.93291456
vn -0.9826649 0.1006542 0.15568702
vn -0.9847504 0.06415714 0.1617114
vn -0.70958513 0.34720743 -0.6131362
vn -0.5909904 0.39187646 -0.7050979
vn -0.5062245 0.8592125 -0.07409886
g Cliff_B_0
f 3/3/3 2/2/2 1/1/1
f 6/6/6 5/5/5 4/4/4
f 5/5/5 7/7/7 4/4/4
f 8/8/8 4/4/4 7/7/7
f 9/9/9 8/8/8 7/7/7
f 9/9/9 7/7/7 10/10/10
f 7/7/7 11/11/11 10/10/10
f 11/11/11 12/12/12 10/10/10
f 13/13/13 12/12/12 11/11/11
f 14/14/14 13/13/13 11/11/11
f 8/8/8 15/15/15 4/4/4
f 4/4/4 15/15/15 16/16/16
f 16/16/16 17/17/17 4/4/4
f 15/15/15 18/18/18 16/16/16
f 18/18/18 15/15/15 19/19/19
f 9/9/9 20/20/20 8/8/8
f 21/21/21 8/8/8 20/20/20
f 22/22/22 20/20/20 9/9/9
f 10/10/10 22/22/22 9/9/9
f 22/22/22 10/10/10 23/23/23
f 10/10/10 24/24/24 23/23/23
f 24/24/24 10/10/10 25/25/25
f 20/20/20 22/22/22 26/26/26
f 20/20/20 26/26/26 21/21/21
f 27/27/27 21/21/21 26/26/26
f 28/28/28 27/27/27 26/26/26
f 31/31/31 30/30/30 29/29/29
f 30/30/30 32/32/32 29/29/29
f 29/29/29 32/32/32 33/33/33
f 32/32/32 34/34/34 33/33/33
f 29/29/29 33/33/33 35/35/35
f 32/32/32 36/36/36 34/34/34
f 33/33/33 37/37/37 35/35/35
f 37/37/37 38/38/38 35/35/35
f 38/38/38 37/37/37 39/39/39
f 33/33/33 40/40/40 37/37/37
f 37/37/37 40/40/40 39/39/39
f 40/40/40 33/33/33 34/34/34
f 41/41/41 39/39/39 40/40/40
f 36/36/36 42/42/42 34/34/34
f 42/42/42 36/36/36 43/43/43
f 44/44/44 42/42/42 43/43/43
f 44/44/44 43/43/43 45/45/45
f 46/46/46 42/42/42 44/44/44
f 42/42/42 46/46/46 34/34/34
f 47/47/47 44/44/44 45/45/45
f 46/46/46 44/44/44 47/47/47
f 46/46/46 48/48/48 34/34/34
f 48/48/48 46/46/46 47/47/47
f 45/45/45 49/49/49 47/47/47
f 48/48/48 47/47/47 49/49/49
f 50/50/50 49/49/49 45/45/45
f 49/49/49 51/51/51 48/48/48
f 48/48/48 51/51/51 52/52/52
f 53/53/53 34/34/34 48/48/48
f 52/52/52 53/53/53 48/48/48
f 52/52/52 54/54/54 53/53/53
f 53/53/53 40/40/40 34/34/34
f 54/54/54 55/55/55 53/53/53
f 56/56/56 40/40/40 53/53/53
f 55/55/55 56/56/56 53/53/53
f 56/56/56 41/41/41 40/40/40
f 56/56/56 55/55/55 57/57/57
f 56/56/56 57/57/57 41/41/41
f 55/55/55 58/58/58 57/57/57
f 59/59/59 57/57/57 58/58/58
f 60/60/60 59/59/59 58/58/58
f 57/57/57 61/61/61 41/41/41
f 41/41/41 61/61/61 62/62/62
f 61/61/61 63/63/63 62/62/62
f 66/66/66 65/65/65 64/64/64
f 67/67/67 66/66/66 64/64/64
f 67/67/67 68/68/68 66/66/66
f 68/68/68 69/69/69 66/66/66
f 64/64/64 70/70/70 67/67/67
f 69/69/69 68/68/68 71/71/71
f 70/70/70 72/72/72 67/67/67
f 72/72/72 68/68/68 67/67/67
f 72/72/72 73/73/73 68/68/68
f 68/68/68 74/74/74 71/71/71
f 74/74/74 75/75/75 71/71/71
f 68/68/68 76/76/76 74/74/74
f 73/73/73 76/76/76 68/68/68
f 74/74/74 76/76/76 75/75/75
f 76/76/76 77/77/77 75/75/75
f 77/77/77 76/76/76 73/73/73
f 78/78/78 72/72/72 70/70/70
f 70/70/70 79/79/79 78/78/78
f 79/79/79 80/80/80 78/78/78
f 80/80/80 79/79/79 81/81/81
f 80/80/80 81/81/81 82/82/82
f 78/78/78 80/80/80 83/83/83
f 83/83/83 80/80/80 82/82/82
f 72/72/72 78/78/78 83/83/83
f 83/83/83 82/82/82 84/84/84
f 84/84/84 72/72/72 83/83/83
f 84/84/84 73/73/73 72/72/72
f 84/84/84 85/85/85 73/73/73
f 85/85/85 86/86/86 73/73/73
f 85/85/85 87/87/87 86/86/86
f 86/86/86 88/88/88 73/73/73
f 88/88/88 77/77/77 73/73/73
f 87/87/87 89/89/89 86/86/86
f 86/86/86 89/89/89 88/88/88
f 88/88/88 90/90/90 77/77/77
f 89/89/89 90/90/90 88/88/88
f 89/89/89 87/87/87 91/91/91
f 87/87/87 92/92/92 91/91/91
f 91/91/91 93/93/93 89/89/89
f 93/93/93 90/90/90 89/89/89
f 91/91/91 92/92/92 94/94/94
f 91/91/91 94/94/94 93/93/93
f 92/92/92 95/95/95 94/94/94
f 94/94/94 96/96/96 93/93/93
f 96/96/96 97/97/97 93/93/93
f 90/90/90 98/98/98 77/77/77
f 77/77/77 98/98/98 75/75/75
f 98/98/98 99/99/99 75/75/75
f 100/100/100 99/99/99 98/98/98
f 101/101/101 100/100/100 97/97/97
f 90/90/90 93/93/93 102/102/102
f 98/98/98 90/90/90 102/102/102
f 97/97/97 102/102/102 93/93/93
f 102/102/102 100/100/100 98/98/98
f 100/100/100 102/102/102 97/97/97
f 105/105/105 104/104/104 103/103/103
f 104/104/104 106/106/106 103/103/103
f 106/106/106 104/104/104 107/107/107
f 106/106/106 107/107/107 108/108/108
f 109/109/109 103/103/103 106/106/106
f 109/109/109 106/106/106 108/108/108
f 103/103/103 109/109/109 110/110/110
f 109/109/109 108/108/108 111/111/111
f 109/109/109 111/111/111 110/110/110
f 114/114/114 113/113/113 112/112/112
f 115/115/115 114/114/114 112/112/112
f 117/117/117 114/114/114 116/116/116
f 118/118/118 117/117/117 116/116/116
f 121/121/121 120/120/120 119/119/119
f 122/122/122 121/121/121 119/119/119
f 122/122/122 119/119/119 123/123/123
