g cliffBase05_COL
v 3.338679 -0.004175655 3.813107
v 2.660681 -9.732841 3.7813344
v 2.7099 -0.004175655 3.873102
v -2.075637 -0.004175655 3.8314857
v -1.9570434 -9.732841 3.623273
v -2.5255005 -9.732841 3.535768
v -2.7787523 -0.004175655 3.6880043
v -2.7787523 -0.004175655 3.6880043
v -2.5255005 -9.732841 3.535768
v -3.1534984 -9.732841 2.5649722
v -3.4090745 -0.004175655 2.646901
v -3.4090745 -0.004175655 2.646901
v -3.1534984 -9.732841 2.5649722
v -4.03969 -9.732841 1.5745132
v -4.2783813 -0.004175655 1.664606
v -4.1627173 -9.732841 0.6136636
v -4.178606 -0.004175655 -0.12524748
v -4.2783813 -0.004175655 1.664606
v -4.03969 -9.732841 1.5745132
v -4.178606 -0.004175655 -0.12524748
v -4.1627173 -9.732841 0.6136636
v -3.7766137 -9.732841 -2.8941731
v -4.1627173 -0.004175655 -3.1290755
v -4.1627173 -0.004175655 -3.1290755
v -3.7766137 -9.732841 -2.8941731
v -3.5092895 -9.732841 -3.5793831
v -3.4145238 -0.004175655 -4.1543927
v -3.4145238 -0.004175655 -4.1543927
v -3.5092895 -9.732841 -3.5793831
v -2.0197582 -9.732841 -4.2505646
v -2.137024 -0.004175655 -4.5113263
v -2.137024 -0.004175655 -4.5113263
v -2.0197582 -9.732841 -4.2505646
v -0.011398999 -9.732841 -4.779471
v -0.29298103 -0.004175655 -5.097025
v -0.29298103 -0.004175655 -5.097025
v -0.011398999 -9.732841 -4.779471
v 1.0274876 -9.732841 -4.5241437
v 1.1002513 -0.004175655 -4.983099
v 1.1002513 -0.004175655 -4.983099
v 1.0274876 -9.732841 -4.5241437
v 1.6035522 -9.732841 -4.0308824
v 1.7903296 -0.004175655 -4.1224837
v 1.7903296 -0.004175655 -4.1224837
v 1.6035522 -9.732841 -4.0308824
v 2.3415601 -9.732841 -3.4559262
v 2.470808 -0.004175655 -3.6558676
v 2.470808 -0.004175655 -3.6558676
v 2.3415601 -9.732841 -3.4559262
v 3.034021 -9.732841 -3.356136
v 3.0248609 -0.004175655 -3.6558676
v 3.0248609 -0.004175655 -3.6558676
v 3.034021 -9.732841 -3.356136
v 3.9593823 -9.732841 -2.521185
v 4.6098313 -0.004175655 -2.300731
v 4.6098313 -0.004175655 -2.300731
v 3.9593823 -9.732841 -2.521185
v 4.8697534 -9.732841 -1.3051645
v 5.247546 -0.004175655 -1.1031967
v 5.247546 -0.004175655 -1.1031967
v 4.8697534 -9.732841 -1.3051645
v 4.806687 -9.732841 -0.29205415
v 5.0780444 -0.004175655 -0.30957854
v 5.0780444 -0.004175655 -0.30957854
v 4.806687 -9.732841 -0.29205415
v 4.4168334 -9.732841 0.21992339
v 4.665759 -0.004175655 0.23192047
v 4.665759 -0.004175655 0.23192047
v 4.4168334 -9.732841 0.21992339
v 4.537849 -9.732841 1.3962514
v 4.805251 -0.004175655 1.8126138
v 4.805251 -0.004175655 1.8126138
v 4.537849 -9.732841 1.3962514
v 4.321775 -9.732841 2.2818863
v 4.4854465 -0.004175655 2.5961342
v 4.4854465 -0.004175655 2.5961342
v 4.321775 -9.732841 2.2818863
v 4.0183764 -9.732841 2.789225
v 4.253601 -0.004175655 2.9818666
v 4.253601 -0.004175655 2.9818666
v 4.0183764 -9.732841 2.789225
v 3.794392 -9.732841 3.4260318
v 4.0074387 -0.004175655 3.6228774
v 4.0074387 -0.004175655 3.6228774
v 3.794392 -9.732841 3.4260318
v 2.660681 -9.732841 3.7813344
v 3.338679 -0.004175655 3.813107
v 2.7099 -0.004175655 3.873102
v 2.660681 -9.732841 3.7813344
v 1.9189233 -9.732841 4.2421694
v 2.023806 -0.004175655 4.4860706
v 2.023806 -0.004175655 4.4860706
v 1.9189233 -9.732841 4.2421694
v 1.1547924 -9.732841 4.35819
v 1.2543627 -0.004175655 4.620563
v 1.2543627 -0.004175655 4.620563
v 1.1547924 -9.732841 4.35819
v 0.7282592 -9.732841 4.3019743
v 0.8373119 -0.004175655 4.5180826
v 0.8373119 -0.004175655 4.5180826
v 0.7282592 -9.732841 4.3019743
v 0.048591238 -9.732841 4.754391
v -0.18178962 -0.004175655 5.112682
v -0.18178962 -0.004175655 5.112682
v 0.048591238 -9.732841 4.754391
v -1.3703735 -9.732841 4.7065344
v -1.4142992 -0.004175655 5.044474
v -1.4142992 -0.004175655 5.044474
v -1.3703735 -9.732841 4.7065344
v -1.8352855 -9.732841 4.2954264
v -1.9468578 -0.004175655 4.542428
v -1.9468578 -0.004175655 4.542428
v -1.8352855 -9.732841 4.2954264
v -1.9570434 -9.732841 3.623273
v -2.075637 -0.004175655 3.8314857
v -0.0057447026 -0.004173744 -0.000682059
v -0.29298103 -0.004175655 -5.097025
v 1.1002513 -0.004175655 -4.983099
v -2.137024 -0.004175655 -4.5113263
v 1.7903296 -0.004175655 -4.1224837
v -3.4145238 -0.004175655 -4.1543927
v 2.470808 -0.004175655 -3.6558676
v -4.1627173 -0.004175655 -3.1290755
v 3.0248609 -0.004175655 -3.6558676
v -4.178606 -0.004175655 -0.12524748
v 4.6098313 -0.004175655 -2.300731
v -4.2783813 -0.004175655 1.664606
v 5.247546 -0.004175655 -1.1031967
v -3.4090745 -0.004175655 2.646901
v 5.0780444 -0.004175655 -0.30957854
v -2.7787523 -0.004175655 3.6880043
v 4.665759 -0.004175655 0.23192047
v -2.075637 -0.004175655 3.8314857
v 4.805251 -0.004175655 1.8126138
v -1.9468578 -0.004175655 4.542428
v 4.4854465 -0.004175655 2.5961342
v -1.4142992 -0.004175655 5.044474
v 4.253601 -0.004175655 2.9818666
v -0.18178962 -0.004175655 5.112682
v 4.0074387 -0.004175655 3.6228774
v 0.8373119 -0.004175655 4.5180826
v 3.338679 -0.004175655 3.813107
v 1.2543627 -0.004175655 4.620563
v 2.7099 -0.004175655 3.873102
v 2.023806 -0.004175655 4.4860706
vt 0.30050713 0.25947773
vt 0.29669172 0.18312414
vt 0.29731923 0.25947773
vt 0.26665813 0.25947773
vt 0.2664033 0.18249013
vt 0.263278 0.18242122
vt 0.26297733 0.25947773
vt 0.26297733 0.25947773
vt 0.263278 0.18242122
vt 0.25645357 0.18227358
vt 0.2566703 0.25947773
vt 0.2566703 0.25947773
vt 0.25645357 0.18227358
vt 0.24933918 0.18212451
vt 0.24955745 0.25947773
vt 0.24411997 0.18201937
vt 0.23994488 0.25947773
vt 0.24955745 0.25947773
vt 0.24933918 0.18212451
vt 0.23994488 0.25947773
vt 0.24411997 0.18201937
vt 0.40227896 0.18301184
vt 0.40306336 0.25947773
vt 0.40306336 0.25947773
vt 0.40227896 0.18301184
vt 0.37972403 0.18338872
vt 0.38291335 0.25947773
vt 0.38291335 0.25947773
vt 0.37972403 0.18338872
vt 0.37275216 0.18344797
vt 0.37639335 0.25947773
vt 0.37639335 0.25947773
vt 0.37275216 0.18344797
vt 0.36419526 0.1834978
vt 0.3669987 0.25947773
vt 0.3669987 0.25947773
vt 0.36419526 0.1834978
vt 0.3583863 0.18351819
vt 0.3597393 0.25947773
vt 0.3597393 0.25947773
vt 0.3583863 0.18351819
vt 0.35427248 0.18351932
vt 0.3541625 0.25947773
vt 0.3541625 0.25947773
vt 0.35427248 0.18351932
vt 0.34919694 0.18351467
vt 0.35001814 0.25947773
vt 0.35001814 0.25947773
vt 0.34919694 0.18351467
vt 0.3454051 0.18350764
vt 0.34724706 0.25947773
vt 0.34724706 0.25947773
vt 0.3454051 0.18350764
vt 0.33864257 0.18348254
vt 0.3368319 0.25947773
vt 0.3368319 0.25947773
vt 0.33864257 0.18348254
vt 0.33039612 0.18344422
vt 0.330065 0.25947773
vt 0.330065 0.25947773
vt 0.33039612 0.18344422
vt 0.32488164 0.18341483
vt 0.3259694 0.25947773
vt 0.3259694 0.25947773
vt 0.32488164 0.18341483
vt 0.32138732 0.18339165
vt 0.32252264 0.25947773
vt 0.32252264 0.25947773
vt 0.32138732 0.18339165
vt 0.31496513 0.18333931
vt 0.3145644 0.25947773
vt 0.3145644 0.25947773
vt 0.31496513 0.18333931
vt 0.3100187 0.1832905
vt 0.31032968 0.25947773
vt 0.31032968 0.25947773
vt 0.3100187 0.1832905
vt 0.30680797 0.18325432
vt 0.30751604 0.25947773
vt 0.30751604 0.25947773
vt 0.30680797 0.18325432
vt 0.30314496 0.18320693
vt 0.30401015 0.25947773
vt 0.30401015 0.25947773
vt 0.30314496 0.18320693
vt 0.29669172 0.18312414
vt 0.30050713 0.25947773
vt 0.29731923 0.25947773
vt 0.29669172 0.18312414
vt 0.29194844 0.18303646
vt 0.2925556 0.25947773
vt 0.2925556 0.25947773
vt 0.29194844 0.18303646
vt 0.2877498 0.18296005
vt 0.28855246 0.25947773
vt 0.28855246 0.25947773
vt 0.2877498 0.18296005
vt 0.28541142 0.18291463
vt 0.28626955 0.25947773
vt 0.28626955 0.25947773
vt 0.28541142 0.18291463
vt 0.28097466 0.1828251
vt 0.2802443 0.25947773
vt 0.2802443 0.25947773
vt 0.28097466 0.1828251
vt 0.27421 0.18267305
vt 0.27607298 0.25947773
vt 0.27607298 0.25947773
vt 0.27421 0.18267305
vt 0.27010491 0.18257673
vt 0.27028129 0.25947773
vt 0.27028129 0.25947773
vt 0.27010491 0.18257673
vt 0.2664033 0.18249013
vt 0.26665813 0.25947773
vt 0.5994376 0.92630506
vt 0.6057166 0.989119
vt 0.6227895 0.9847655
vt 0.58246446 0.9868506
vt 0.63044775 0.97373736
vt 0.56698895 0.98500264
vt 0.63791984 0.96650416
vt 0.5398735 0.9632306
vt 0.6448049 0.96533585
vt 0.5478464 0.93665195
vt 0.6616431 0.94515395
vt 0.5428325 0.91462076
vt 0.6670426 0.92892826
vt 0.5538329 0.9012781
vt 0.66326255 0.91942376
vt 0.55720115 0.8863149
vt 0.6569974 0.9135643
vt 0.56563574 0.8830493
vt 0.6553976 0.89362776
vt 0.5657369 0.8739432
vt 0.64977187 0.88456523
vt 0.5766288 0.86575943
vt 0.64607745 0.8802612
vt 0.58646804 0.86313516
vt 0.6416666 0.8728148
vt 0.60038555 0.86837476
vt 0.6329552 0.8718611
vt 0.6053521 0.866222
vt 0.6250155 0.87244135
vt 0.61519706 0.866271
vn 0.094983645 -0.0098701455 0.9954299
vn 0.09498366 -0.009870145 0.9954299
vn 0.09498366 -0.009870146 0.9954299
vn -0.1786882 -0.02163753 0.9836678
vn -0.17868821 -0.021637531 0.9836678
vn -0.17868823 -0.02163753 0.9836678
vn -0.1786882 -0.02163753 0.9836678
vn -0.847487 -0.028541856 0.53004843
vn -0.84748685 -0.028541854 0.53004843
vn -0.847487 -0.028541857 0.53004843
vn -0.847487 -0.028541857 0.53004843
vn -0.7468129 -0.024847455 0.6645699
vn -0.7468129 -0.024847453 0.66456985
vn -0.74681294 -0.024847455 0.6645698
vn -0.7468129 -0.024847455 0.66456985
vn -0.99988234 -0.012800382 0.008452097
vn -0.99988234 -0.012800382 0.008452097
vn -0.99988234 -0.012800383 0.008452096
vn -0.99988234 -0.012800382 0.008452096
vn -0.99781954 -0.02369829 -0.06159956
vn -0.99781954 -0.023698289 -0.061599556
vn -0.99781954 -0.02369829 -0.06159956
vn -0.99781954 -0.023698287 -0.061599556
vn -0.85937774 -0.0341043 -0.51020265
vn -0.85937774 -0.0341043 -0.51020265
vn -0.85937774 -0.034104303 -0.51020265
vn -0.85937774 -0.034104303 -0.5102027
vn -0.3480066 -0.04063345 -0.93661106
vn -0.34800667 -0.04063345 -0.93661106
vn -0.34800667 -0.04063345 -0.93661106
vn -0.34800667 -0.04063345 -0.93661106
vn -0.27776495 -0.034228478 -0.960039
vn -0.27776498 -0.034228478 -0.960039
vn -0.27776492 -0.034228478 -0.960039
vn -0.27776495 -0.03422848 -0.960039
vn 0.14999448 -0.03781778 -0.9879633
vn 0.1499945 -0.037817787 -0.9879633
vn 0.1499945 -0.037817787 -0.9879633
vn 0.1499945 -0.037817787 -0.9879633
vn 0.7300669 -0.029056843 -0.68275774
vn 0.73006696 -0.029056842 -0.6827576
vn 0.73006696 -0.029056847 -0.6827577
vn 0.73006696 -0.029056843 -0.6827576
vn 0.59172636 -0.021685282 -0.80584717
vn 0.59172636 -0.02168528 -0.80584717
vn 0.59172636 -0.021685282 -0.80584717
vn 0.59172636 -0.02168528 -0.80584717
vn 0.079770915 -0.02608188 -0.996472
vn 0.07977092 -0.026081879 -0.996472
vn 0.07977092 -0.026081877 -0.996472
vn 0.07977092 -0.026081877 -0.996472
vn 0.6572053 -0.024729904 -0.75330585
vn 0.6572052 -0.02472991 -0.75330585
vn 0.6572053 -0.02472991 -0.75330585
vn 0.6572053 -0.02472991 -0.75330585
vn 0.8412788 -0.03274371 -0.53960884
vn 0.8412788 -0.03274372 -0.53960884
vn 0.8412789 -0.03274372 -0.53960884
vn 0.8412789 -0.032743715 -0.53960884
vn 0.991234 -0.03427859 0.12759402
vn 0.991234 -0.03427859 0.12759404
vn 0.991234 -0.03427859 0.12759405
vn 0.991234 -0.034278587 0.12759405
vn 0.7954397 -0.021098362 0.60566527
vn 0.7954397 -0.021098362 0.60566527
vn 0.7954397 -0.021098364 0.6056653
vn 0.7954397 -0.021098362 0.60566527
vn 0.99527055 -0.024340454 -0.09404245
vn 0.99527055 -0.024340458 -0.094042465
vn 0.99527055 -0.024340456 -0.09404246
vn 0.99527055 -0.024340456 -0.09404246
vn 0.9516296 -0.03255556 0.3055179
vn 0.9516297 -0.032555565 0.30551788
vn 0.9516296 -0.032555558 0.30551788
vn 0.9516296 -0.03255556 0.30551788
vn 0.8573353 -0.030962639 0.51382613
vn 0.85733545 -0.030962642 0.5138261
vn 0.8573353 -0.030962642 0.51382613
vn 0.85733545 -0.030962637 0.5138261
vn 0.9381113 -0.028522681 0.34515747
vn 0.9381113 -0.028522678 0.34515744
vn 0.9381113 -0.028522681 0.34515744
vn 0.9381113 -0.028522678 0.34515747
vn 0.28959405 -0.02450439 0.95683587
vn 0.28959402 -0.02450439 0.95683587
vn 0.289594 -0.02450439 0.95683587
vn 0.28959402 -0.02450439 0.95683587
vn 0.6009376 -0.018544618 0.7990808
vn 0.6009376 -0.018544618 0.7990808
vn 0.6009376 -0.018544618 0.7990808
vn 0.6009376 -0.018544618 0.7990808
vn 0.16115798 -0.02736345 0.9865492
vn 0.16115798 -0.02736345 0.9865492
vn 0.161158 -0.02736345 0.9865492
vn 0.161158 -0.02736345 0.9865492
vn -0.1848443 -0.022179222 0.98251754
vn -0.18484432 -0.02217922 0.98251754
vn -0.1848443 -0.022179222 0.98251754
vn -0.1848443 -0.02217922 0.98251754
vn 0.5245655 -0.02185416 0.85108954
vn 0.52456546 -0.021854162 0.85108954
vn 0.5245655 -0.02185416 0.85108954
vn 0.52456546 -0.02185416 0.8510896
vn -0.043704625 -0.0363407 0.9983833
vn -0.043704625 -0.0363407 0.9983833
vn -0.043704625 -0.0363407 0.9983833
vn -0.043704625 -0.03634069 0.9983833
vn -0.6749894 -0.027559774 0.7373125
vn -0.67498946 -0.027559776 0.73731244
vn -0.67498946 -0.027559774 0.73731244
vn -0.6749894 -0.027559776 0.7373125
vn -0.9838636 -0.01580747 0.17822033
vn -0.9838636 -0.015807472 0.17822032
vn -0.9838636 -0.01580747 0.1782203
vn -0.9838636 -0.015807472 0.17822032
vn -0 1 -3.766822E-07
vn -0 1 -3.7668224E-07
vn -0 1 -3.7668224E-07
vn -1.1699736E-07 1 -3.6846578E-07
vn 2.4477356E-07 1 -3.56872E-07
vn -2.9674138E-07 1 -2.1676782E-07
vn 2.4477353E-07 1 -3.5687196E-07
vn -2.9674135E-07 1 -2.1676782E-07
vn 2.6156374E-07 1 -3.0593714E-07
vn -4.5717636E-07 1 0
vn 2.6156377E-07 1 -3.0593716E-07
vn -4.5717636E-07 1 0
vn 3.8082436E-07 1 0
vn -3.8170757E-07 1 2.312825E-07
vn 3.8082436E-07 1 0
vn -3.8170762E-07 1 2.312825E-07
vn 3.941175E-07 1 3.0104798E-07
vn -6.9138963E-07 1 1.2502113E-07
vn 3.4424522E-07 1 1.4032928E-07
vn -6.9138963E-07 1 1.2502112E-07
vn 3.4424522E-07 1 1.4032928E-07
vn -0 1 3.7299452E-07
vn 3.5357616E-07 1 1.3565521E-07
vn -0 1 3.7299446E-07
vn 3.5357618E-07 1 1.3565523E-07
vn -1.08887946E-07 1 4.4334746E-07
vn -0 1 4.6153343E-07
vn -0 1 3.9445436E-07
vn -0 1 4.6153346E-07
vn -0 1 3.9445433E-07
g cliffBase05_COL_0
f 3/3/3 2/2/2 1/1/1
f 6/6/6 5/5/5 4/4/4
f 7/7/7 6/6/6 4/4/4
f 10/10/10 9/9/9 8/8/8
f 11/11/11 10/10/10 8/8/8
f 14/14/14 13/13/13 12/12/12
f 15/15/15 14/14/14 12/12/12
f 18/18/18 17/17/17 16/16/16
f 19/19/19 18/18/18 16/16/16
f 22/22/22 21/21/21 20/20/20
f 23/23/23 22/22/22 20/20/20
f 26/26/26 25/25/25 24/24/24
f 27/27/27 26/26/26 24/24/24
f 30/30/30 29/29/29 28/28/28
f 31/31/31 30/30/30 28/28/28
f 34/34/34 33/33/33 32/32/32
f 35/35/35 34/34/34 32/32/32
f 38/38/38 37/37/37 36/36/36
f 39/39/39 38/38/38 36/36/36
f 42/42/42 41/41/41 40/40/40
f 43/43/43 42/42/42 40/40/40
f 46/46/46 45/45/45 44/44/44
f 47/47/47 46/46/46 44/44/44
f 50/50/50 49/49/49 48/48/48
f 51/51/51 50/50/50 48/48/48
f 54/54/54 53/53/53 52/52/52
f 55/55/55 54/54/54 52/52/52
f 58/58/58 57/57/57 56/56/56
f 59/59/59 58/58/58 56/56/56
f 62/62/62 61/61/61 60/60/60
f 63/63/63 62/62/62 60/60/60
f 66/66/66 65/65/65 64/64/64
f 67/67/67 66/66/66 64/64/64
f 70/70/70 69/69/69 68/68/68
f 71/71/71 70/70/70 68/68/68
f 74/74/74 73/73/73 72/72/72
f 75/75/75 74/74/74 72/72/72
f 78/78/78 77/77/77 76/76/76
f 79/79/79 78/78/78 76/76/76
f 82/82/82 81/81/81 80/80/80
f 83/83/83 82/82/82 80/80/80
f 86/86/86 85/85/85 84/84/84
f 87/87/87 86/86/86 84/84/84
f 90/90/90 89/89/89 88/88/88
f 91/91/91 90/90/90 88/88/88
f 94/94/94 93/93/93 92/92/92
f 95/95/95 94/94/94 92/92/92
f 98/98/98 97/97/97 96/96/96
f 99/99/99 98/98/98 96/96/96
f 102/102/102 101/101/101 100/100/100
f 103/103/103 102/102/102 100/100/100
f 106/106/106 105/105/105 104/104/104
f 107/107/107 106/106/106 104/104/104
f 110/110/110 109/109/109 108/108/108
f 111/111/111 110/110/110 108/108/108
f 114/114/114 113/113/113 112/112/112
f 115/115/115 114/114/114 112/112/112
f 118/118/118 117/117/117 116/116/116
f 117/117/117 119/119/119 116/116/116
f 120/120/120 118/118/118 116/116/116
f 119/119/119 121/121/121 116/116/116
f 122/122/122 120/120/120 116/116/116
f 121/121/121 123/123/123 116/116/116
f 122/122/122 116/116/116 124/124/124
f 123/123/123 125/125/125 116/116/116
f 116/116/116 126/126/126 124/124/124
f 127/127/127 116/116/116 125/125/125
f 116/116/116 128/128/128 126/126/126
f 129/129/129 116/116/116 127/127/127
f 116/116/116 130/130/130 128/128/128
f 131/131/131 116/116/116 129/129/129
f 116/116/116 132/132/132 130/130/130
f 131/131/131 133/133/133 116/116/116
f 134/134/134 132/132/132 116/116/116
f 133/133/133 135/135/135 116/116/116
f 136/136/136 134/134/134 116/116/116
f 135/135/135 137/137/137 116/116/116
f 138/138/138 136/136/136 116/116/116
f 116/116/116 137/137/137 139/139/139
f 140/140/140 138/138/138 116/116/116
f 141/141/141 116/116/116 139/139/139
f 142/142/142 140/140/140 116/116/116
f 141/141/141 143/143/143 116/116/116
f 144/144/144 142/142/142 116/116/116
f 143/143/143 145/145/145 116/116/116
f 145/145/145 144/144/144 116/116/116
