g Cliff_I
v -0.8384991 1.7024461 -0.8516174
v -0.5580096 2.8811994 -0.6780725
v -0.70986754 2.8835166 -0.5063586
v -0.9954352 1.7138271 -0.6850549
v -0.9954352 1.7138271 -0.6850549
v -1.2904779 -1.2278601E-06 -0.8453479
v -1.1260065 -1.2290523E-06 -1.0053625
v -0.8384991 1.7024461 -0.8516174
v 0.23502746 2.277955 -0.726969
v -0.5580096 2.8811994 -0.6780725
v 0.90821105 1.0445409 -1.1204846
v -0.670534 -1.2290523E-06 -0.9700061
v 0.8396417 -1.2290523E-06 -1.2228918
v 1.0192486 -1.2290523E-06 -1.1364269
v 0.8084674 2.809027 -0.79344845
v 1.0868634 1.0256299 -0.97822875
v 1.282044 2.2886362 0.77828
v 1.2260431 -1.2290523E-06 0.979989
v 1.2665216 2.9386632 0.83156615
v 0.9932794 2.7839463 -0.65987426
v 0.8385406 4.18179 -0.45543578
v 1.0383453 4.2963824 0.28395873
v 1.0694122 4.634192 0.9293445
v 1.006983 5.221089 0.90480345
v 1.0040411 4.1656017 -0.29554808
v 0.85279846 5.287836 -0.19950317
v 0.81231505 5.3342915 0.91841674
v 0.66304994 5.4077005 -0.18257934
v 0.6806012 5.2508426 -0.35336548
v 0.66304994 5.4077005 -0.18257934
v -0.31754822 4.871187 -0.39357543
v -0.32640564 5.0272207 -0.21295044
v -0.46319762 4.8376074 -0.22618286
v -0.70986754 2.8835166 -0.5063586
v -0.32640564 5.0272207 -0.21295044
v -0.26017272 4.95721 0.91400754
v -0.39913756 4.7697725 0.907489
v -0.46319762 4.8376074 -0.22618286
v -0.5946283 3.2074413 0.28171265
v -0.70986754 2.8835166 -0.5063586
v -0.9954352 1.7138271 -0.6850549
v -0.51255065 3.596726 0.8888855
v -0.23477234 4.783908 1.066156
v -0.26017272 4.95721 0.91400754
v 0.8539215 5.165131 1.0751306
v 0.81231505 5.3342915 0.91841674
v 1.006983 5.221089 0.90480345
v 0.9144659 4.615408 1.0973963
v 1.0694122 4.634192 0.9293445
v -0.34559265 3.571737 1.0439538
v -0.8796478 1.6076941 0.8843152
v -0.81039244 2.0062354 0.31372923
v -1.0132623 0.9506622 0.25399292
v -1.2904779 -1.2278601E-06 -0.8453479
v -1.1721624 -1.1909052E-06 1.0913757
v -0.7185565 1.5889822 1.0465319
v -1.0010052 -1.1909052E-06 1.2440759
v 1.1236676 2.9146795 1.0091443
v 1.2665216 2.9386632 0.83156615
v 1.1361407 2.289336 0.9558581
v 1.0755914 -1.2260721E-06 1.1538708
v 1.282044 2.2886362 0.77828
v 1.2260431 -1.2290523E-06 0.979989
v 0.66304994 5.4077005 -0.18257934
v 0.10326721 5.1870193 0.18756226
v -0.32640564 5.0272207 -0.21295044
v -0.26017272 4.95721 0.91400754
v 0.36846495 5.219459 0.7068201
v 0.81231505 5.3342915 0.91841674
vt 0.2373144 0.28922206
vt 0.32265908 0.4820581
vt 0.27645284 0.48243716
vt 0.18956299 0.29108396
vt 0.18956299 0.29108396
vt 0.10596868 0.02277965
vt 0.14227127 0.025920525
vt 0.2373144 0.28922206
vt 0.56395876 0.3833714
vt 0.32265908 0.4820581
vt 0.7694106 0.18129562
vt 0.28842098 0.01071354
vt 0.74792564 0.01071354
vt 0.8021224 0.022256538
vt 0.73844033 0.4702512
vt 0.82314754 0.17849962
vt 0.8825355 0.38511887
vt 0.8654966 0.010713547
vt 0.8778136 0.4914587
vt 0.794673 0.46614814
vt 0.74759054 0.6948259
vt 0.8083854 0.7135727
vt 0.8178388 0.7688357
vt 0.79884255 0.86484796
vt 0.7979477 0.69217753
vt 0.7516762 0.87575054
vt 0.793384 0.88692844
vt 0.74615324 0.89881754
vt 0.69953424 0.8697155
vt 0.6944923 0.89682317
vt 0.39577726 0.80745053
vt 0.3960972 0.834389
vt 0.3513516 0.80212146
vt 0.27645284 0.48243716
vt 0.35608116 0.82353216
vt 0.37492928 0.81312376
vt 0.3709994 0.7910158
vt 0.3513516 0.80212146
vt 0.3115175 0.53542906
vt 0.27645284 0.48243716
vt 0.18956299 0.29108396
vt 0.3364915 0.5991134
vt 0.4209728 0.79331493
vt 0.42755485 0.82084054
vt 0.7522704 0.8556937
vt 0.7421019 0.8801336
vt 0.79884255 0.86484796
vt 0.77069277 0.76576275
vt 0.8178388 0.7688357
vt 0.38729155 0.59502524
vt 0.22479403 0.27372128
vt 0.24586618 0.33891994
vt 0.1841388 0.16623539
vt 0.10596868 0.02277965
vt 0.14204915 0.020959089
vt 0.2738095 0.27066022
vt 0.17525388 0.022047633
vt 0.834347 0.48753512
vt 0.8778136 0.4914587
vt 0.8381416 0.38523325
vt 0.81971854 0.010713548
vt 0.8825355 0.38511887
vt 0.8654966 0.010713547
vt 0.7327456 0.9841562
vt 0.5714687 0.9841562
vt 0.74609244 0.9841562
vt 0.25475875 0.9841562
vt 0.3451209 0.9841562
vt 0.25283712 0.98415625
vn -0.18841952 0.14071728 -0.97195506
vn -0.1963756 0.17213625 -0.9653008
vn -0.97209686 0.20165756 -0.119840644
vn -0.9690597 0.2081908 -0.13258967
vn -0.9690597 0.2081908 -0.13258967
vn -0.9647633 0.20124944 -0.16950072
vn -0.25011906 0.16197717 -0.95456994
vn -0.18841952 0.14071728 -0.97195506
vn -0.10077298 0.15377559 -0.98295367
vn -0.1963756 0.17213625 -0.9653008
vn -0.0044790856 0.15442246 -0.98799473
vn -0.13931277 0.1540933 -0.97818565
vn -0.024405977 0.10394907 -0.99428314
vn 0.98133254 -0.018411975 -0.19143526
vn 0.076099865 0.1766268 -0.9813316
vn 0.9661723 0.028384011 -0.256331
vn 0.9996239 -0.017381663 0.021209594
vn 0.9985909 -0.02038049 0.048997648
vn 0.99826115 0.058925424 -0.0015462497
vn 0.9315914 0.11292391 -0.3455224
vn 0.11134219 0.144365 -0.9832404
vn 0.98604673 0.10282909 -0.13091213
vn 0.95527536 0.09995177 0.27831402
vn 0.9185544 0.39311662 0.041437913
vn 0.91974765 0.11121252 -0.37642524
vn 0.8797027 0.38349023 -0.2811734
vn -0.016330568 0.9505326 0.31019515
vn -0.0629822 0.9850154 -0.16055483
vn 0.076745816 0.22380432 -0.9716078
vn -0.0629822 0.9850154 -0.16055483
vn -0.11498301 0.18736741 -0.97553694
vn -0.5464551 0.80772877 -0.22127184
vn -0.96333796 0.22141689 -0.15150747
vn -0.97209686 0.20165756 -0.119840644
vn -0.5464551 0.80772877 -0.22127184
vn -0.51984257 0.76314545 0.3838916
vn -0.9520782 0.20029226 0.23114935
vn -0.96333796 0.22141689 -0.15150747
vn -0.98588634 0.15633245 0.059903707
vn -0.97209686 0.20165756 -0.119840644
vn -0.9690597 0.2081908 -0.13258967
vn -0.9300015 0.13382131 0.3423288
vn -0.15929006 0.10207391 0.98194075
vn -0.51984257 0.76314545 0.3838916
vn 0.023065623 0.16623814 0.9858159
vn -0.016330568 0.9505326 0.31019515
vn 0.9185544 0.39311662 0.041437913
vn 0.10446416 -0.0018172078 0.99452704
vn 0.95527536 0.09995177 0.27831402
vn -0.08428681 -0.0057215868 0.9964251
vn -0.9274543 0.18898688 0.3226646
vn -0.98026836 0.18861046 0.059161216
vn -0.97988737 0.1867198 0.07040302
vn -0.9647633 0.20124944 -0.16950072
vn -0.93276477 0.22066702 0.28505427
vn -0.098988295 0.05922171 0.9933248
vn -0.082460806 0.1028622 0.9912717
vn 0.0941101 0.00087319966 0.99556136
vn 0.99826115 0.058925424 -0.0015462497
vn 0.14653163 0.06393249 0.9871379
vn 0.17398643 0.08051669 0.9814509
vn 0.9996239 -0.017381663 0.021209594
vn 0.9985909 -0.02038049 0.048997648
vn -0.0629822 0.9850154 -0.16055483
vn -0.34769258 0.93426806 0.07907574
vn -0.5464551 0.80772877 -0.22127184
vn -0.51984257 0.76314545 0.3838916
vn -0.31382498 0.9420749 0.11835834
vn -0.016330568 0.9505326 0.31019515
g Cliff_I_0
f 3/3/3 2/2/2 1/1/1
f 4/4/4 3/3/3 1/1/1
f 7/7/7 6/6/6 5/5/5
f 8/8/8 7/7/7 5/5/5
f 7/7/7 8/8/8 9/9/9
f 9/9/9 8/8/8 10/10/10
f 7/7/7 9/9/9 11/11/11
f 12/12/12 7/7/7 11/11/11
f 11/11/11 13/13/13 12/12/12
f 14/14/14 13/13/13 11/11/11
f 9/9/9 15/15/15 11/11/11
f 9/9/9 10/10/10 15/15/15
f 16/16/16 14/14/14 11/11/11
f 11/11/11 15/15/15 16/16/16
f 17/17/17 14/14/14 16/16/16
f 17/17/17 18/18/18 14/14/14
f 19/19/19 17/17/17 16/16/16
f 15/15/15 20/20/20 16/16/16
f 19/19/19 16/16/16 20/20/20
f 10/10/10 21/21/21 15/15/15
f 20/20/20 15/15/15 21/21/21
f 22/22/22 19/19/19 20/20/20
f 22/22/22 23/23/23 19/19/19
f 24/24/24 23/23/23 22/22/22
f 25/25/25 20/20/20 21/21/21
f 25/25/25 22/22/22 20/20/20
f 22/22/22 26/26/26 24/24/24
f 22/22/22 25/25/25 26/26/26
f 27/27/27 24/24/24 26/26/26
f 28/28/28 27/27/27 26/26/26
f 21/21/21 29/29/29 25/25/25
f 29/29/29 26/26/26 25/25/25
f 29/29/29 21/21/21 10/10/10
f 30/30/30 26/26/26 29/29/29
f 30/30/30 29/29/29 31/31/31
f 31/31/31 29/29/29 10/10/10
f 32/32/32 30/30/30 31/31/31
f 33/33/33 32/32/32 31/31/31
f 33/33/33 31/31/31 10/10/10
f 34/34/34 33/33/33 10/10/10
f 37/37/37 36/36/36 35/35/35
f 38/38/38 37/37/37 35/35/35
f 38/38/38 39/39/39 37/37/37
f 40/40/40 39/39/39 38/38/38
f 39/39/39 40/40/40 41/41/41
f 42/42/42 37/37/37 39/39/39
f 37/37/37 42/42/42 43/43/43
f 43/43/43 44/44/44 37/37/37
f 44/44/44 43/43/43 45/45/45
f 46/46/46 44/44/44 45/45/45
f 47/47/47 46/46/46 45/45/45
f 47/47/47 45/45/45 48/48/48
f 45/45/45 43/43/43 48/48/48
f 49/49/49 47/47/47 48/48/48
f 42/42/42 50/50/50 43/43/43
f 43/43/43 50/50/50 48/48/48
f 42/42/42 39/39/39 51/51/51
f 50/50/50 42/42/42 51/51/51
f 52/52/52 39/39/39 41/41/41
f 39/39/39 52/52/52 51/51/51
f 53/53/53 52/52/52 41/41/41
f 51/51/51 52/52/52 53/53/53
f 54/54/54 53/53/53 41/41/41
f 55/55/55 53/53/53 54/54/54
f 51/51/51 53/53/53 55/55/55
f 56/56/56 50/50/50 51/51/51
f 51/51/51 55/55/55 56/56/56
f 48/48/48 50/50/50 56/56/56
f 55/55/55 57/57/57 56/56/56
f 49/49/49 48/48/48 58/58/58
f 58/58/58 48/48/48 56/56/56
f 59/59/59 49/49/49 58/58/58
f 56/56/56 57/57/57 60/60/60
f 58/58/58 56/56/56 60/60/60
f 59/59/59 58/58/58 60/60/60
f 61/61/61 60/60/60 57/57/57
f 62/62/62 59/59/59 60/60/60
f 60/60/60 61/61/61 62/62/62
f 61/61/61 63/63/63 62/62/62
f 66/66/66 65/65/65 64/64/64
f 66/66/66 67/67/67 65/65/65
f 65/65/65 68/68/68 64/64/64
f 68/68/68 65/65/65 67/67/67
f 68/68/68 69/69/69 64/64/64
f 68/68/68 67/67/67 69/69/69
