g col_caveDoor3
v 1.3362597 8.507769 0.2169873
v 2.7503514 7.9654393 0.46364745
v 2.7503514 8.363227 -0.60244995
v -3.0441625 5.891405 0.5081799
v 0.14964356 8.214705 -0.38695312
v -3.044165 5.908517 0.4800708
v 0.5830371 9.2535925 -1.0471534
v 1.9438183 8.784818 -0.7308874
v 2.7503514 8.363227 -0.60244995
v 2.7503514 8.454506 -0.76280516
v -0.3115454 10.525735 -1.8699926
v -3.0441601 8.103507 -1.4660864
v -3.0441601 7.3068004 -1.011698
v 0.9891992 9.814346 -1.3005322
v 1.2001147 10.387632 -2.1656663
v 1.7751757 11.565322 -1.6285632
v 2.7503514 10.406548 -1.7949462
v 2.7503514 10.921598 -1.6191455
v 2.713076 9.5454855 -1.5429944
v 2.7503514 9.585872 -1.5461841
v 2.7503514 10.406548 -1.7949462
v 2.7503514 9.410267 -1.4573059
v 2.7503514 8.454506 -0.76280516
v 2.750349 9.503166 -1.5255176
v -0.009162597 11.916561 -0.6813525
v -2.2949 10.4624195 -2.3297632
v -3.0441601 8.103507 -1.4660864
v -3.0441625 9.185531 -1.9467968
v 2.357866 11.44357 1.7390258
v -0.6110522 11.710117 1.3822485
v 2.7503514 11.783644 -0.25542235
v 2.7503514 11.694275 0.6471411
v -2.0843065 11.29038 -0.2607483
v -3.0441625 10.577307 -1.1905066
v -3.0441625 10.33621 -1.8601123
v -3.0441625 10.548123 1.2992969
v -3.0441625 10.473055 1.7205298
v -0.50020504 10.431994 1.8654321
v -2.1699731 10.2898445 2.3293285
v -3.0441601 10.319381 1.8993384
v -3.0441625 10.473055 1.7205298
v -3.044165 8.182017 1.5479639
v -3.0441625 8.9690695 1.9444054
v 0.5043994 10.515235 2.389177
v -3.044165 6.0459146 0.5862427
v -3.0441625 5.891405 0.5081799
v 2.7503514 9.187518 1.733695
v 2.7503514 8.398603 0.729447
v 2.3412035 10.379431 2.3740637
v 2.7503514 9.187518 1.733695
v 2.7503514 9.937619 2.1450157
v 2.7503514 11.092573 1.689995
v 2.7503514 10.224868 2.1989832
v -3.0441625 8.9690695 1.9444054
v -3.0441601 10.319381 1.8993384
v -3.044165 6.0459146 0.5862427
v -3.044165 8.182017 1.5479639
v 2.7503514 7.9654393 0.46364745
v 2.7503514 8.398603 0.729447
v 2.7503514 10.224868 2.1989832
v 2.7503514 9.937619 2.1450157
v 2.7503514 11.251213 1.5762695
v 2.7503514 11.694275 0.6471411
v 2.7503514 11.092573 1.689995
v 2.7503514 11.251213 1.5762695
v -3.0441625 5.9410295 -0.57028687
v -3.044165 5.908517 0.4800708
v -3.0441625 5.9410295 -0.57028687
v -3.0441601 7.3068004 -1.011698
v -3.0441625 10.548123 1.2992969
v -3.0441625 10.577307 -1.1905066
v 2.7503514 9.585872 -1.5461841
v 2.750349 9.503166 -1.5255176
v 2.7503514 11.351216 -1.3915564
v 2.724929 11.361084 -1.402716
v 2.750354 11.330726 -1.4094287
v 2.7503514 11.410781 -1.2495874
v 2.7503514 11.351216 -1.3915564
v 2.750354 11.330726 -1.4094287
v 2.7503514 10.921598 -1.6191455
v 2.7503514 11.410781 -1.2495874
v 2.7503514 11.783644 -0.25542235
v -3.0441601 9.988934 -1.8848742
v -3.0441625 9.185531 -1.9467968
v -3.0441625 10.33621 -1.8601123
v -3.0441625 5.891405 0.5081799
v -3.044165 5.908517 0.4800708
v -3.044165 6.0459146 0.5862427
v -3.0441601 7.3068004 -1.011698
v -3.0441625 5.9410295 -0.57028687
v -3.044165 8.182017 1.5479639
v -3.0441601 8.103507 -1.4660864
v -3.0441625 9.185531 -1.9467968
v -3.0441625 8.9690695 1.9444054
v -3.0441601 10.319381 1.8993384
v -3.0441625 10.473055 1.7205298
v -3.0441625 10.548123 1.2992969
v -3.0441601 9.988934 -1.8848742
v -3.0441625 10.577307 -1.1905066
v -3.0441625 10.33621 -1.8601123
v 2.7503514 7.9654393 0.46364745
v 2.7503514 8.398603 0.729447
v 2.7503514 8.363227 -0.60244995
v 2.7503514 11.092573 1.689995
v 2.7503514 9.187518 1.733695
v 2.7503514 8.454506 -0.76280516
v 2.7503514 9.937619 2.1450157
v 2.7503514 10.224868 2.1989832
v 2.7503514 9.410267 -1.4573059
v 2.7503514 11.251213 1.5762695
v 2.7503514 11.694275 0.6471411
v 2.7503514 11.783644 -0.25542235
v 2.7503514 11.410781 -1.2495874
v 2.750349 9.503166 -1.5255176
v 2.7503514 9.585872 -1.5461841
v 2.7503514 11.351216 -1.3915564
v 2.750354 11.330726 -1.4094287
v 2.7503514 10.921598 -1.6191455
v 2.7503514 10.406548 -1.7949462
vt 0 0
vt 0 0
vt 0 0
vt 0 0
vt 0 0
vt 0 0
vt 0 0
vt 0 0
vt 0 0
vt 0 0
vt 0 0
vt 0 0
vt 0 0
vt 0 0
vt 0 0
vt 0 0
vt 0 0
vt 0 0
vt 0 0
vt 0 0
vt 0 0
vt 0 0
vt 0 0
vt 0 0
vt 0 0
vt 0 0
vt 0 0
vt 0 0
vt 0 0
vt 0 0
vt 0 0
vt 0 0
vt 0 0
vt 0 0
vt 0 0
vt 0 0
vt 0 0
vt 0 0
vt 0 0
vt 0 0
vt 0 0
vt 0 0
vt 0 0
vt 0 0
vt 0 0
vt 0 0
vt 0 0
vt 0 0
vt 0 0
vt 0 0
vt 0 0
vt 0 0
vt 0 0
vt 0 0
vt 0 0
vt 0 0
vt 0 0
vt 0 0
vt 0 0
vt 0 0
vt 0 0
vt 0 0
vt 0 0
vt 0 0
vt 0 0
vt 0 0
vt 0 0
vt 0 0
vt 0 0
vt 0 0
vt 0 0
vt 0 0
vt 0 0
vt 0 0
vt 0 0
vt 0 0
vt 0 0
vt 0 0
vt 0 0
vt 0 0
vt 0 0
vt 0 0
vt 0 0
vt 0 0
vt 0 0
vt 0 0
vt 0 0
vt 0 0
vt 0 0
vt 0 0
vt 0 0
vt 0 0
vt 0 0
vt 0 0
vt 0 0
vt 0 0
vt 0 0
vt 0 0
vt 0 0
vt 0 0
vt 0 0
vt 0 0
vt 0 0
vt 0 0
vt 0 0
vt 0 0
vt 0 0
vt 0 0
vt 0 0
vt 0 0
vt 0 0
vt 0 0
vt 0 0
vt 0 0
vt 0 0
vt 0 0
vt 0 0
vt 0 0
vt 0 0
vn 0.06742888 -0.7491819 0.6589232
vn -0.2858901 -0.8978011 -0.33499265
vn -0.28589013 -0.8978011 -0.33499268
vn 0.42950895 -0.77136683 -0.46959057
vn 0.3555964 -0.57949656 -0.7333041
vn 0.42950168 -0.77136505 -0.4696
vn 0.02828102 -0.6286982 -0.7771349
vn -0.2492275 -0.7326387 -0.6333451
vn -0.35153222 -0.8135978 -0.46312386
vn -0.35153133 -0.8135959 -0.46312797
vn 0.17116034 -0.13020954 -0.976601
vn 0.29675424 -0.47310412 -0.8295236
vn 0.29675427 -0.47310475 -0.82952327
vn 0.0145599805 -0.7174681 -0.69643927
vn -0.046509195 -0.0999754 -0.9939023
vn 0.08818414 0.87928456 -0.46806204
vn 0.21707302 0.31532675 -0.92382264
vn 0.21707192 0.3153256 -0.92382336
vn 0.037122626 -0.42196116 -0.90585357
vn 0.22636288 -0.28255513 -0.93216014
vn 0.22636302 -0.282556 -0.93215984
vn -0.28209466 -0.56781524 -0.77331
vn -0.26314804 -0.5671221 -0.78046495
vn -0.28209466 -0.56781524 -0.77331007
vn -0.044217817 0.9795598 -0.19623338
vn -0.05453898 0.085216075 -0.99486876
vn 0.21933542 -0.3961186 -0.89161766
vn 0.21933526 -0.3961186 -0.89161766
vn 0.23768224 0.85768396 0.45594442
vn -0.13594997 0.9035948 0.40624374
vn -0.3399971 0.93585 0.09266368
vn -0.3399937 0.93585134 0.092664406
vn -0.44106615 0.89555305 -0.058697715
vn -0.34769025 0.8821696 -0.31762925
vn -0.34769204 0.8821678 -0.31763226
vn -0.42990312 0.88887036 0.15840733
vn -0.42990315 0.8888704 0.15840687
vn 0.18866496 -0.29055783 0.9380734
vn 0.021556018 -0.041334044 0.9989128
vn -0.28292018 0.7274124 0.62516195
vn -0.28291482 0.7274033 0.6251749
vn 0.27534774 -0.4324682 0.8585772
vn 0.27535102 -0.4324692 0.8585757
vn -0.31482065 -0.41674197 0.85276854
vn 0.3122428 -0.42839843 0.8479265
vn 0.3122415 -0.42839515 0.84792864
vn -0.2737109 -0.75634044 0.59416455
vn -0.27371025 -0.75634015 0.59416515
vn 0.1647907 -0.052831385 0.9849126
vn -0.028322715 -0.48061725 0.87647295
vn -0.028322738 -0.48061758 0.8764728
vn 0.4887609 0.4414147 0.7525064
vn 0.48876092 0.4414138 0.75250685
vn -0.44035846 0.02994921 0.8973224
vn -0.44035846 0.02994921 0.8973224
vn 0.24189597 -0.39834148 0.8847658
vn 0.24189597 -0.39834148 0.8847658
vn -0.32972324 -0.49376 0.8046637
vn -0.32972324 -0.49375993 0.8046637
vn 0.33102652 -0.17423543 0.92739606
vn 0.33102655 -0.17423543 0.92739606
vn 0.52747136 0.7668477 0.36567533
vn 0.5274713 0.7668478 0.36567536
vn 0.5285104 0.49460372 0.68995935
vn 0.52851033 0.49460372 0.6899593
vn 0.58072656 -0.81370896 -0.025185544
vn 0.5807265 -0.81370896 -0.025185544
vn 0.26385987 -0.29663444 -0.9178158
vn 0.26385987 -0.29663447 -0.9178159
vn -0.60214245 0.79833376 0.009357097
vn -0.60214245 0.79833376 0.009357097
vn 0.17681617 -0.23861234 -0.95488226
vn 0.17681615 -0.23861232 -0.95488226
vn 0.5055641 0.567192 -0.6501525
vn 0.3915763 0.7585503 -0.52083534
vn 0.5055641 0.567192 -0.6501524
vn 0.4667253 0.81552804 -0.3421718
vn 0.4667253 0.81552804 -0.3421718
vn 0.29584464 0.43573332 -0.8500661
vn 0.2958443 0.4357381 -0.85006386
vn 0.2739556 0.9004923 -0.3377305
vn 0.27395558 0.90049237 -0.3377304
vn -0.53939986 0.06471112 -0.83955956
vn -0.5393998 0.06471112 -0.83955956
vn -0.53738415 0.059977002 -0.8412022
vn -1 -4.2990585E-05 5.906797E-05
vn -1 4.9630074E-07 -1.8329054E-06
vn -1 1.2311217E-06 -2.2150489E-06
vn -1 1.2239052E-07 -1.963784E-06
vn -1 1.1001999E-06 -2.291956E-06
vn -1 1.6011326E-06 -9.3452013E-07
vn -1 -2.4146727E-06 -1.5586616E-06
vn -1 8.8775994E-07 -9.267361E-07
vn -1 2.3706843E-06 1.2220977E-07
vn -1 8.601466E-07 4.972275E-07
vn -1 -8.241406E-06 3.160772E-06
vn -1 -1.0557177E-06 -2.5753877E-07
vn -1 2.1555975E-06 -1.0117436E-06
vn -1 -4.305125E-06 0
vn -1 -8.620447E-06 2.5979468E-06
vn 1 8.6036664E-07 0
vn 1 0 0
vn 1 -2.711662E-07 0
vn 1 -1.133004E-07 0
vn 1 0 0
vn 1 -1.5807372E-07 0
vn 1 2.2600753E-07 0
vn 1 0 0
vn 1 0 -4.327942E-07
vn 1 0 0
vn 1 0 0
vn 1 0 0
vn 1 1.7084287E-07 0
vn 1 2.8534275E-06 -2.5014848E-05
vn 1 -6.446038E-06 4.00074E-05
vn 1 -7.9428025E-07 5.2807327E-06
vn 1 -4.6591213E-06 4.9048067E-05
vn 1 -5.4788075E-07 -9.318658E-06
vn 1 0 0
g col_caveDoor3_0
f 3/3/3 2/2/2 1/1/1
f 5/5/5 1/1/1 4/4/4
f 5/5/5 4/4/4 6/6/6
f 5/5/5 7/7/7 1/1/1
f 8/8/8 1/1/1 7/7/7
f 8/8/8 9/9/9 1/1/1
f 8/8/8 10/10/10 9/9/9
f 7/7/7 5/5/5 11/11/11
f 5/5/5 12/12/12 11/11/11
f 5/5/5 13/13/13 12/12/12
f 8/8/8 7/7/7 14/14/14
f 7/7/7 15/15/15 14/14/14
f 15/15/15 7/7/7 11/11/11
f 16/16/16 15/15/15 11/11/11
f 16/16/16 17/17/17 15/15/15
f 16/16/16 18/18/18 17/17/17
f 8/8/8 14/14/14 19/19/19
f 19/19/19 14/14/14 15/15/15
f 15/15/15 20/20/20 19/19/19
f 21/21/21 20/20/20 15/15/15
f 8/8/8 19/19/19 22/22/22
f 8/8/8 22/22/22 23/23/23
f 22/22/22 19/19/19 24/24/24
f 16/16/16 11/11/11 25/25/25
f 26/26/26 25/25/25 11/11/11
f 27/27/27 26/26/26 11/11/11
f 27/27/27 28/28/28 26/26/26
f 29/29/29 16/16/16 25/25/25
f 29/29/29 25/25/25 30/30/30
f 29/29/29 31/31/31 16/16/16
f 29/29/29 32/32/32 31/31/31
f 25/25/25 26/26/26 33/33/33
f 30/30/30 25/25/25 33/33/33
f 34/34/34 33/33/33 26/26/26
f 34/34/34 26/26/26 35/35/35
f 36/36/36 30/30/30 33/33/33
f 30/30/30 36/36/36 37/37/37
f 30/30/30 38/38/38 29/29/29
f 30/30/30 39/39/39 38/38/38
f 40/40/40 39/39/39 30/30/30
f 40/40/40 30/30/30 41/41/41
f 39/39/39 42/42/42 38/38/38
f 39/39/39 43/43/43 42/42/42
f 38/38/38 44/44/44 29/29/29
f 38/38/38 1/1/1 44/44/44
f 1/1/1 38/38/38 45/45/45
f 1/1/1 45/45/45 46/46/46
f 47/47/47 44/44/44 1/1/1
f 47/47/47 1/1/1 48/48/48
f 29/29/29 44/44/44 49/49/49
f 49/49/49 44/44/44 50/50/50
f 49/49/49 50/50/50 51/51/51
f 52/52/52 29/29/29 49/49/49
f 52/52/52 49/49/49 53/53/53
f 55/55/55 54/54/54 39/39/39
f 57/57/57 56/56/56 38/38/38
f 59/59/59 1/1/1 58/58/58
f 61/61/61 60/60/60 49/49/49
f 63/63/63 29/29/29 62/62/62
f 65/65/65 29/29/29 64/64/64
f 67/67/67 66/66/66 5/5/5
f 69/69/69 5/5/5 68/68/68
f 71/71/71 70/70/70 33/33/33
f 73/73/73 19/19/19 72/72/72
f 76/76/76 75/75/75 74/74/74
f 78/78/78 75/75/75 77/77/77
f 80/80/80 75/75/75 79/79/79
f 75/75/75 80/80/80 16/16/16
f 81/81/81 75/75/75 16/16/16
f 81/81/81 16/16/16 82/82/82
f 84/84/84 83/83/83 26/26/26
f 85/85/85 26/26/26 83/83/83
f 88/88/88 87/87/87 86/86/86
f 88/88/88 89/89/89 87/87/87
f 87/87/87 89/89/89 90/90/90
f 91/91/91 89/89/89 88/88/88
f 91/91/91 92/92/92 89/89/89
f 91/91/91 93/93/93 92/92/92
f 94/94/94 93/93/93 91/91/91
f 95/95/95 93/93/93 94/94/94
f 96/96/96 93/93/93 95/95/95
f 97/97/97 93/93/93 96/96/96
f 97/97/97 98/98/98 93/93/93
f 99/99/99 98/98/98 97/97/97
f 98/98/98 99/99/99 100/100/100
f 103/103/103 102/102/102 101/101/101
f 103/103/103 104/104/104 102/102/102
f 102/102/102 104/104/104 105/105/105
f 106/106/106 104/104/104 103/103/103
f 105/105/105 104/104/104 107/107/107
f 107/107/107 104/104/104 108/108/108
f 109/109/109 104/104/104 106/106/106
f 109/109/109 110/110/110 104/104/104
f 109/109/109 111/111/111 110/110/110
f 109/109/109 112/112/112 111/111/111
f 109/109/109 113/113/113 112/112/112
f 114/114/114 113/113/113 109/109/109
f 115/115/115 113/113/113 114/114/114
f 115/115/115 116/116/116 113/113/113
f 115/115/115 117/117/117 116/116/116
f 115/115/115 118/118/118 117/117/117
f 119/119/119 118/118/118 115/115/115
