g cratepart4
v -0.01150763 0.0037979446 0.06683884
v -0.45332718 0.0052742325 0.09042511
v -0.44895554 0.0046066605 0.03021393
v 0.4207077 0.004942354 -0.0096611
v 0.43112183 0.004942354 -0.09733238
v 0.43382263 0.004942354 -0.018698119
v -0.016323566 0.0037979446 -0.073503874
v 0.4207077 0.004942354 -0.0096611
v -0.46434784 0.0052742325 -0.0665554
v -0.44895554 0.0046066605 0.03021393
v -0.01150763 0.0037979446 0.06683884
v 0.43149567 0.004942354 0.060109712
v -0.01150763 0.0037979446 0.06683884
v 0.43112183 -0.0428291 -0.09733238
v 0.42071152 -0.0428291 -0.009573362
v 0.43367386 -0.0428291 -0.022936247
v -0.016323566 -0.031976286 -0.073503874
v -0.01150763 -0.031976286 0.06683884
v 0.43149567 -0.0428291 0.060109712
v -0.4491806 -0.04249722 0.030892946
v -0.45332718 -0.04316098 0.09042511
v -0.46434784 -0.04316098 -0.0665554
v -0.45332718 0.0052742325 0.09042511
v -0.45332718 -0.04316098 0.09042511
v -0.44895554 0.0046066605 0.03021393
v -0.4491806 -0.04249722 0.030892946
v -0.46434784 -0.04316098 -0.0665554
v -0.46434784 0.0052742325 -0.0665554
v 0.43382263 0.004942354 -0.018698119
v 0.43112183 0.004942354 -0.09733238
v 0.43367386 -0.0428291 -0.022936247
v 0.43112183 -0.0428291 -0.09733238
v 0.43149567 0.004942354 0.060109712
v 0.43149567 -0.0428291 0.060109712
v -0.01150763 0.0037979446 0.06683884
v -0.01150763 -0.031976286 0.06683884
v -0.45332718 0.0052742325 0.09042511
v -0.45332718 -0.04316098 0.09042511
v 0.43112183 0.004942354 -0.09733238
v -0.016323566 -0.031976286 -0.073503874
v 0.43112183 -0.0428291 -0.09733238
v -0.016323566 0.0037979446 -0.073503874
v -0.46434784 0.0052742325 -0.0665554
v -0.46434784 -0.04316098 -0.0665554
v 0.4207077 0.004942354 -0.0096611
v 0.43382263 0.004942354 -0.018698119
v 0.42071152 -0.0428291 -0.009573362
v 0.43367386 -0.0428291 -0.022936247
v 0.4207077 0.004942354 -0.0096611
v 0.42071152 -0.0428291 -0.009573362
v 0.43149567 0.004942354 0.060109712
v 0.43149567 -0.0428291 0.060109712
vt 0.3744411 0.7606988
vt 0.3744411 0.9818144
vt 0.3923564 0.9602143
vt 0.3969676 0.5453531
vt 0.4220869 0.5395833
vt 0.3982639 0.5398012
vt 0.4220869 0.7606988
vt 0.3969676 0.5453531
vt 0.4343016 0.9960919
vt 0.3923564 0.9602143
vt 0.3744411 0.7606988
vt 0.3744411 0.5395833
vt 0.3744411 0.7606988
vt 0.4343016 0.5395833
vt 0.4586918 0.5467091
vt 0.4553714 0.5397418
vt 0.4343016 0.7606988
vt 0.4820678 0.7606988
vt 0.4820678 0.5395833
vt 0.4637084 0.9651699
vt 0.4820678 0.9818144
vt 0.4343016 0.9818144
vt 0.4820678 0.9960918
vt 0.4820678 0.9818144
vt 0.4604299 0.9960919
vt 0.4637084 0.9651699
vt 0.4343016 0.9818144
vt 0.4343016 0.9960919
vt 0.4581847 0.5253059
vt 0.4343016 0.5253059
vt 0.4553714 0.5397418
vt 0.4343016 0.5395833
vt 0.494168 0.5395833
vt 0.4820678 0.5395833
vt 0.494168 0.7606988
vt 0.4820678 0.7606988
vt 0.494168 0.9818144
vt 0.4820678 0.9818144
vt 0.4220869 0.5395833
vt 0.4343016 0.7606988
vt 0.4343016 0.5395833
vt 0.4220869 0.7606988
vt 0.4220869 0.9818144
vt 0.4343016 0.9818144
vt 0.4607897 0.5253059
vt 0.4581847 0.5253059
vt 0.4586918 0.5467091
vt 0.4553714 0.5397418
vt 0.4607897 0.5253059
vt 0.4586918 0.5467091
vt 0.4820678 0.5253059
vt 0.4820678 0.5395833
vn 0.002752626 0.99993694 -0.010893893
vn 0.0027526263 0.99993694 -0.010893895
vn 0.0027526268 0.99993694 -0.010893894
vn -0 1 0
vn -0 1 0
vn -0 1 0
vn -0 0.99999917 0.0013000707
vn -0.002570537 0.99999666 0.00039741021
vn -0 0.99999917 0.0013000706
vn -0 0.99999917 0.0013000707
vn -0 0.99999917 0.0013000706
vn -0.002570537 0.99999666 0.00039741021
vn -0.0025705372 0.99999666 0.0003974103
vn -0.024334792 -0.9996997 -0.0028867933
vn -0.024374176 -0.9997029 0.0001839707
vn -0 -1 0
vn -0.0002448484 -1 4.991571E-05
vn -0.000343959 -1 -7.4144424E-05
vn -0.02443405 -0.99969435 0.0037804514
vn 0.024797808 -0.9996911 -0.0016794384
vn 0.02480358 -0.99964786 -0.009434171
vn 0.02500294 -0.99968314 0.002926831
vn -0.99737763 0 -0.07237247
vn -0.99746454 0.0015521962 -0.07114779
vn -0.9975126 0.0038654152 0.07038299
vn -0.997603 0.005756955 0.0689578
vn -0.98773205 0.0019506817 0.15614577
vn -0.98758507 0 0.15708525
vn 0.9994117 0 -0.03429616
vn 0.9994117 0 -0.03429665
vn 0.9994117 0 -0.034296416
vn 0.9994117 0 -0.034296937
vn 0.015185039 0 0.9998847
vn 0.015185039 0 0.9998847
vn 0.03402954 0 0.9994209
vn 0.034473576 0 0.9994056
vn 0.05331029 0 0.9985781
vn 0.0533103 0 0.9985781
vn -0.053179972 0 -0.998585
vn -0.034331545 0 -0.9994105
vn -0.05317998 0 -0.998585
vn -0.03434581 0 -0.99941003
vn -0.015508098 0 -0.9998797
vn -0.015508096 0 -0.9998797
vn 0.5674783 0.0015204 0.8233869
vn 0.6089628 -0.01565918 0.79304427
vn 0.6917336 -0.052274965 0.7202582
vn 0.71626484 -0.06384986 0.69490135
vn 0.9882587 -0.00021747526 -0.15278967
vn 0.98825014 -0.00013519434 -0.1528451
vn 0.98824465 -8.2499435E-05 -0.15288061
vn 0.988236 0 -0.15293619
g cratepart4_0
f 3/3/3 2/2/2 1/1/1
f 6/6/6 5/5/5 4/4/4
f 8/8/8 5/5/5 7/7/7
f 7/7/7 9/9/9 8/8/8
f 9/9/9 10/10/10 8/8/8
f 10/10/10 11/11/11 8/8/8
f 13/13/13 12/12/12 8/8/8
f 16/16/16 15/15/15 14/14/14
f 14/14/14 15/15/15 17/17/17
f 15/15/15 18/18/18 17/17/17
f 18/18/18 15/15/15 19/19/19
f 17/17/17 18/18/18 20/20/20
f 18/18/18 21/21/21 20/20/20
f 17/17/17 20/20/20 22/22/22
f 25/25/25 24/24/24 23/23/23
f 26/26/26 24/24/24 25/25/25
f 25/25/25 27/27/27 26/26/26
f 28/28/28 27/27/27 25/25/25
f 31/31/31 30/30/30 29/29/29
f 32/32/32 30/30/30 31/31/31
f 35/35/35 34/34/34 33/33/33
f 36/36/36 34/34/34 35/35/35
f 37/37/37 36/36/36 35/35/35
f 38/38/38 36/36/36 37/37/37
f 41/41/41 40/40/40 39/39/39
f 39/39/39 40/40/40 42/42/42
f 40/40/40 43/43/43 42/42/42
f 44/44/44 43/43/43 40/40/40
f 47/47/47 46/46/46 45/45/45
f 48/48/48 46/46/46 47/47/47
f 51/51/51 50/50/50 49/49/49
f 52/52/52 50/50/50 51/51/51
