g crystalShard_02
v -0.11275506 0.03157103 -0.1033054
v 0.065981746 0.019385815 -0.12506536
v -0.00240767 0.08568996 -0.14796798
v -0.03412175 -0.14090204 0.047312327
v -0.17321146 0.041269958 0.0084079355
v -0.14480484 0.023273706 0.11907843
v -0.029322505 -0.0038362741 0.18371512
v 0.09401059 0.02443242 0.13606542
v 0.14632285 0.009268761 0.016530113
v 0.114230394 0.054735065 -0.07820534
v -0.00240767 0.08568996 -0.14796798
v 0.065981746 0.019385815 -0.12506536
v 0.114230394 0.054735065 -0.07820534
v 0.085223794 0.13080019 -0.08402063
v 0.14632285 0.009268761 0.016530113
v 0.12970078 0.11894214 0.010971118
v 0.09401059 0.02443242 0.13606542
v -0.013825178 0.13814735 -0.122220114
v -0.10881066 0.13165742 -0.07415571
v -0.11275506 0.03157103 -0.1033054
v -0.15370715 0.124073625 0.027551409
v -0.17321146 0.041269958 0.0084079355
v -0.08370221 0.3183186 0.012206793
v -0.022843719 0.3491615 -0.0617496
v -0.10816252 0.11560476 0.13362002
v -0.14480484 0.023273706 0.11907843
v 0.03279507 0.3664773 -0.059153114
v -0.041259646 0.31117386 0.10124485
v -0.032257915 0.12438792 0.17692257
v -0.029322505 -0.0038362741 0.18371512
v 0.0097459555 0.590069 -0.020193517
v 0.07266033 0.3257509 0.0043998137
v 0.08372033 0.12555313 0.13067655
v 0.047154665 0.31503898 0.08071005
vt 0.55644894 0.7471333
vt 0.5507298 0.6569239
vt 0.53060037 0.7100591
vt 0.64331526 0.7100591
vt 0.6056324 0.7801637
vt 0.67952275 0.75985175
vt 0.70193636 0.7067027
vt 0.6835101 0.6441055
vt 0.6135495 0.6223055
vt 0.54352635 0.60882765
vt 0.52211165 0.10429628
vt 0.5280228 0.075681336
vt 0.52171946 0.057359144
vt 0.51144737 0.064458616
vt 0.47740096 0.012270882
vt 0.4787918 0.02298061
vt 0.4144814 0.0139615275
vt 0.5059263 0.1173321
vt 0.46241516 0.14920557
vt 0.47840366 0.16293716
vt 0.40644512 0.14601398
vt 0.40620515 0.15653515
vt 0.4294591 0.11155832
vt 0.4768905 0.1005923
vt 0.36924207 0.1012722
vt 0.36972028 0.13016638
vt 0.48865128 0.074806586
vt 0.399257 0.07222807
vt 0.36749038 0.05681164
vt 0.35668674 0.055260736
vt 0.4660346 0.07222807
vt 0.46876466 0.043400437
vt 0.4147563 0.015557608
vt 0.42869347 0.037445776
vn -0.37373048 -0.68579316 -0.6245104
vn 0.2041757 -0.7436222 -0.6366619
vn -0.13807568 -0.4475984 -0.8835104
vn -0.030748256 -0.9958216 -0.085987605
vn -0.76864296 -0.6202646 -0.1563963
vn -0.69743747 -0.6241415 0.35217685
vn -0.022478009 -0.70481664 0.7090333
vn 0.54705435 -0.6834375 0.48336813
vn 0.63868773 -0.7645444 -0.08688985
vn 0.77100533 -0.4315594 -0.46830258
vn -0.022628179 0.31903872 -0.94747156
vn 0.54202265 0.20648557 -0.81460124
vn 0.8063129 0.21875551 -0.5495502
vn 0.698404 0.2464807 -0.6719219
vn 0.9741201 0.16934367 0.14970873
vn 0.9721825 0.23182452 0.03344546
vn 0.68295735 0.111061804 0.72196573
vn -0.26127902 0.30032942 -0.9173525
vn -0.7239988 0.28157765 -0.62971413
vn -0.7181291 0.2617032 -0.6448272
vn -0.9449982 0.31049967 0.102802895
vn -0.9645179 0.24558778 -0.09691202
vn -0.92357904 0.36954784 -0.10215758
vn -0.35746652 0.26708856 -0.89491975
vn -0.7429167 0.24236543 0.6239663
vn -0.75337106 0.14713563 0.64092374
vn 0.59031814 0.22855207 -0.7741372
vn -0.38110211 0.42529985 0.82090265
vn 0.024789749 0.21462192 0.9763826
vn -0.021374239 0.064374566 0.9976968
vn -0.23619592 0.9277545 0.2889344
vn 0.9649173 0.25930625 -0.041168425
vn 0.6643302 0.23869441 0.708301
vn 0.63120234 0.3363632 0.6988873
g crystalShard_02_0
f 3/3/3 2/2/2 1/1/1
f 2/2/2 4/4/4 1/1/1
f 4/4/4 5/5/5 1/1/1
f 4/4/4 6/6/6 5/5/5
f 4/4/4 7/7/7 6/6/6
f 4/4/4 8/8/8 7/7/7
f 4/4/4 9/9/9 8/8/8
f 2/2/2 9/9/9 4/4/4
f 2/2/2 10/10/10 9/9/9
f 13/13/13 12/12/12 11/11/11
f 14/14/14 13/13/13 11/11/11
f 15/15/15 13/13/13 14/14/14
f 16/16/16 15/15/15 14/14/14
f 17/17/17 15/15/15 16/16/16
f 18/18/18 14/14/14 11/11/11
f 19/19/19 18/18/18 11/11/11
f 20/20/20 19/19/19 11/11/11
f 19/19/19 20/20/20 21/21/21
f 20/20/20 22/22/22 21/21/21
f 19/19/19 23/23/23 18/18/18
f 21/21/21 23/23/23 19/19/19
f 18/18/18 24/24/24 14/14/14
f 23/23/23 24/24/24 18/18/18
f 25/25/25 21/21/21 22/22/22
f 26/26/26 25/25/25 22/22/22
f 24/24/24 27/27/27 14/14/14
f 14/14/14 27/27/27 16/16/16
f 28/28/28 23/23/23 21/21/21
f 25/25/25 28/28/28 21/21/21
f 29/29/29 25/25/25 26/26/26
f 29/29/29 28/28/28 25/25/25
f 30/30/30 29/29/29 26/26/26
f 30/30/30 17/17/17 29/29/29
f 23/23/23 31/31/31 24/24/24
f 24/24/24 31/31/31 27/27/27
f 28/28/28 31/31/31 23/23/23
f 27/27/27 32/32/32 16/16/16
f 27/27/27 31/31/31 32/32/32
f 33/33/33 17/17/17 16/16/16
f 17/17/17 33/33/33 29/29/29
f 16/16/16 32/32/32 33/33/33
f 34/34/34 28/28/28 29/29/29
f 34/34/34 31/31/31 28/28/28
f 33/33/33 34/34/34 29/29/29
f 32/32/32 34/34/34 33/33/33
f 32/32/32 31/31/31 34/34/34
