g crystalShard_05
v -0.05624047 0 -0.09741138
v 0.008129219 -0.10810836 5.3742737E-05
v 0.056240514 0 -0.09741137
v -0.112480976 0 -1.6760971E-08
v 0.112480976 0 0
v -0.056240503 0 0.09741137
v 0.056240484 0 0.09741138
v -0.05624047 0 -0.09741138
v 0.056240514 0 -0.09741137
v 0.0010719826 0.23945375 0.0016750977
v -0.112480976 0 -1.6760971E-08
v 0.112480976 0 0
v -0.056240503 0 0.09741137
v 0.056240484 0 0.09741138
vt 0.76765835 0.36995697
vt 0.81660545 0.41235968
vt 0.82359594 0.33616453
vt 0.75016475 0.41128117
vt 0.9095149 0.40461528
vt 0.7823068 0.4814124
vt 0.8512684 0.48375118
vt 0.37302503 0.73470485
vt 0.43547547 0.7639049
vt 0.43345046 0.68685436
vt 0.37100002 0.65765435
vt 0.49590075 0.7160544
vt 0.43142515 0.609804
vt 0.49387565 0.63900405
vn -0.5046736 0.03390508 -0.86264414
vn 0.018912053 -0.9998211 0.00012509302
vn 0.49276525 0.049107734 -0.86877555
vn -0.9997342 0.022988236 -0.0017526343
vn 0.998572 0.053394973 -0.0017434489
vn -0.5062874 0.026531918 0.8619565
vn 0.4944588 0.041710682 0.8681997
vn -0.5046736 0.03390508 -0.86264414
vn 0.49276525 0.049107734 -0.86877555
vn 0.0018623805 0.99999404 0.00291005
vn -0.9997342 0.022988236 -0.0017526343
vn 0.998572 0.053394973 -0.0017434489
vn -0.5062874 0.026531918 0.8619565
vn 0.4944588 0.041710682 0.8681997
g crystalShard_05_0
f 3/3/3 2/2/2 1/1/1
f 1/1/1 2/2/2 4/4/4
f 5/5/5 2/2/2 3/3/3
f 4/4/4 2/2/2 6/6/6
f 7/7/7 2/2/2 5/5/5
f 6/6/6 2/2/2 7/7/7
f 10/10/10 9/9/9 8/8/8
f 10/10/10 8/8/8 11/11/11
f 10/10/10 12/12/12 9/9/9
f 10/10/10 11/11/11 13/13/13
f 10/10/10 14/14/14 12/12/12
f 10/10/10 13/13/13 14/14/14
