g decalMound01
v 1.4516233 0.035000037 0
v 1.0521296 0.23202239 -0.5960576
v 1.2571427 0.035000037 -0.72251576
v 1.2146152 0.23202239 0
v 1.2571427 0.035000037 0.72251576
v 0.72676855 0.390941 -0.40633097
v 1.0521296 0.23202239 0.5960576
v 0.7286884 0.035000037 1.1776227
v 0.8390086 0.390941 0
v 0.34466678 0.49084145 -0.19325845
v 0.61061996 0.23202239 0.9658517
v -0 0.035000037 1.2787124
v 0.72676855 0.390941 0.40633097
v 0.39798695 0.49084145 0
v -0 0.52491564 0
v -0 0.23202239 1.0703087
v -0.7286884 0.035000037 1.1776227
v 0.42041057 0.390941 0.6689773
v 0.34466678 0.49084145 0.19325845
v -0 0.52491564 0
v -0.61061996 0.23202239 0.9658517
v -1.2571427 0.035000037 0.72251576
v -0 0.390941 0.7521866
v 0.19899347 0.49084145 0.32828692
v -0 0.52491564 0
v -1.0521296 0.23202239 0.5960576
v -1.4516233 0.035000037 0
v -0.42041057 0.390941 0.6689773
v -0 0.49084145 0.37581784
v -0 0.52491564 0
v -1.2146152 0.23202239 0
v -1.2571427 0.035000037 -0.72251576
v -0.72676855 0.390941 0.40633097
v -0.19899347 0.49084145 0.32828692
v -0 0.52491564 0
v -1.0521296 0.23202239 -0.5960576
v -0.7286884 0.035000037 -1.1776227
v -0.8390086 0.390941 0
v -0.34466678 0.49084145 0.19325845
v -0 0.52491564 0
v -0.61061996 0.23202239 -0.9658517
v -0 0.035000037 -1.2787124
v -0.72676855 0.390941 -0.40633097
v -0.39798695 0.49084145 0
v -0 0.52491564 0
v -0 0.23202239 -1.0703087
v 0.7286884 0.035000037 -1.1776227
v -0.42041057 0.390941 -0.6689773
v -0.34466678 0.49084145 -0.19325845
v -0 0.52491564 0
v 0.61061996 0.23202239 -0.9658517
v 1.2571427 0.035000037 -0.72251576
v 1.0521296 0.23202239 -0.5960576
v -0 0.390941 -0.7521866
v -0.19899347 0.49084145 -0.32828692
v -0 0.52491564 0
v 0.42041057 0.390941 -0.6689773
v 0.72676855 0.390941 -0.40633097
v -0 0.49084145 -0.37581784
v -0 0.52491564 0
v 0.19899347 0.49084145 -0.32828692
v -0 0.52491564 0
v 0.34466678 0.49084145 -0.19325845
v -0 0.52491564 0
v 0.7286884 0.035000037 -1.1776227
v 0.9158246 0.035000037 -1.4800508
v 1.5860101 0.035000037 -0.9115254
v 1.2571427 0.035000037 -0.72251576
v -0 0.035000037 -1.2787124
v -0 0.035000037 -1.5998977
v 0.9158246 0.035000037 -1.4800508
v 0.7286884 0.035000037 -1.1776227
v -0.7286884 0.035000037 -1.1776227
v -0.9158246 0.035000037 -1.4800508
v -0 0.035000037 -1.5998977
v -0 0.035000037 -1.2787124
v -1.2571427 0.035000037 -0.72251576
v -1.5860101 0.035000037 -0.9115254
v -0.9158246 0.035000037 -1.4800508
v -0.7286884 0.035000037 -1.1776227
v -1.4516233 0.035000037 0
v -1.8313669 0.035000037 0
v -1.5860101 0.035000037 -0.9115254
v -1.2571427 0.035000037 -0.72251576
v -1.2571427 0.035000037 0.72251576
v -1.5860101 0.035000037 0.9115254
v -1.8313669 0.035000037 0
v -1.4516233 0.035000037 0
v -0.7286884 0.035000037 1.1776227
v -0.9158246 0.035000037 1.4800508
v -1.5860101 0.035000037 0.9115254
v -1.2571427 0.035000037 0.72251576
v -0 0.035000037 1.2787124
v -0 0.035000037 1.5998977
v -0.9158246 0.035000037 1.4800508
v -0.7286884 0.035000037 1.1776227
v 0.7286884 0.035000037 1.1776227
v 0.9158246 0.035000037 1.4800508
v -0 0.035000037 1.5998977
v -0 0.035000037 1.2787124
v 1.2571427 0.035000037 0.72251576
v 1.5860101 0.035000037 0.9115254
v 0.9158246 0.035000037 1.4800508
v 0.7286884 0.035000037 1.1776227
v 1.4516233 0.035000037 0
v 1.8313669 0.035000037 0
v 1.5860101 0.035000037 0.9115254
v 1.2571427 0.035000037 0.72251576
v 1.2571427 0.035000037 -0.72251576
v 1.5860101 0.035000037 -0.9115254
v 1.8313669 0.035000037 0
v 1.4516233 0.035000037 0
vt 0.91666657 0.6666666
vt 0.9999999 0.74999994
vt 0.9999999 0.6666666
vt 0.91666657 0.74999994
vt 0.83333325 0.6666666
vt 0.9999999 0.83333325
vt 0.83333325 0.74999994
vt 0.74999994 0.6666666
vt 0.91666657 0.83333325
vt 0.9999999 0.91666657
vt 0.74999994 0.74999994
vt 0.6666666 0.6666666
vt 0.83333325 0.83333325
vt 0.91666657 0.91666657
vt 0.9583334 1
vt 0.6666666 0.74999994
vt 0.5833333 0.6666666
vt 0.74999994 0.83333325
vt 0.83333325 0.91666657
vt 0.875 1
vt 0.5833333 0.74999994
vt 0.5 0.6666666
vt 0.6666666 0.83333325
vt 0.74999994 0.91666657
vt 0.7916667 1
vt 0.5 0.74999994
vt 0.4166667 0.6666666
vt 0.5833333 0.83333325
vt 0.6666666 0.91666657
vt 0.7083334 1
vt 0.4166667 0.74999994
vt 0.33333334 0.6666666
vt 0.5 0.83333325
vt 0.5833333 0.91666657
vt 0.625 1
vt 0.33333334 0.74999994
vt 0.25 0.6666666
vt 0.4166667 0.83333325
vt 0.5 0.91666657
vt 0.5416667 1
vt 0.25 0.74999994
vt 0.16666667 0.6666666
vt 0.33333334 0.83333325
vt 0.4166667 0.91666657
vt 0.45833334 1
vt 0.16666667 0.74999994
vt 0.083333336 0.6666666
vt 0.25 0.83333325
vt 0.33333334 0.91666657
vt 0.375 1
vt 0.083333336 0.74999994
vt 0 0.6666666
vt 0 0.74999994
vt 0.16666667 0.83333325
vt 0.25 0.91666657
vt 0.2916667 1
vt 0.083333336 0.83333325
vt 0 0.83333325
vt 0.16666667 0.91666657
vt 0.20833334 1
vt 0.083333336 0.91666657
vt 0.125 1
vt 0 0.91666657
vt 0.041666668 1
vt 0 0
vt 0 1
vt 1 1
vt 1 0
vt 0 0
vt 0 1
vt 1 1
vt 1 0
vt 0 0
vt 0 1
vt 1 1
vt 1 0
vt 0 0
vt 0 1
vt 1 1
vt 1 0
vt 0 0
vt 0 1
vt 1 1
vt 1 0
vt 0 0
vt 0 1
vt 1 1
vt 1 0
vt 0 0
vt 0 1
vt 1 1
vt 1 0
vt 0 0
vt 0 1
vt 1 1
vt 1 0
vt 0 0
vt 0 1
vt 1 1
vt 1 0
vt 0 0
vt 0 1
vt 1 1
vt 1 0
vt 0 0
vt 0 1
vt 1 1
vt 1 0
vt 0 0
vt 0 1
vt 1 1
vt 1 0
vn 0.22130042 0.97520566 0
vn 0.45540082 0.84443796 -0.28201863
vn 0.18326071 0.976541 -0.113062695
vn 0.536422 0.8439498 0
vn 0.18326071 0.976541 0.113062695
vn 0.28711373 0.9408387 -0.17996757
vn 0.45540082 0.84443796 0.28201863
vn 0.09715346 0.9728487 0.21006304
vn 0.33586466 0.9419102 0
vn 0.17040452 0.97959864 -0.10653061
vn 0.22823177 0.8330412 0.50393724
vn -0 0.9606991 0.2775919
vn 0.2871137 0.9408387 0.17996752
vn 0.19838007 0.9801252 0
vn -0 1 0
vn -0 0.8197173 0.57276833
vn -0.09715346 0.9728487 0.21006304
vn 0.15047221 0.93277645 0.32754576
vn 0.17040452 0.97959864 0.106530584
vn -0 1 0
vn -0.22823176 0.8330412 0.5039372
vn -0.1832607 0.976541 0.11306268
vn -0 0.9260292 0.37745187
vn 0.093085155 0.9768425 0.19264965
vn -0 1 0
vn -0.45540088 0.84443796 0.28201863
vn -0.22130042 0.97520566 0
vn -0.15047222 0.93277645 0.32754576
vn -0 0.9747594 0.22325787
vn -0 1 0
vn -0.536422 0.8439498 0
vn -0.18326071 0.976541 -0.113062695
vn -0.28711373 0.9408387 0.17996755
vn -0.09308517 0.9768425 0.19264963
vn -0 1 0
vn -0.45540082 0.84443796 -0.28201863
vn -0.09715346 0.9728487 -0.21006304
vn -0.33586466 0.9419102 0
vn -0.17040452 0.97959864 0.10653061
vn -0 1 0
vn -0.22823177 0.8330412 -0.50393724
vn -0 0.9606991 -0.2775919
vn -0.2871137 0.9408387 -0.17996752
vn -0.19838007 0.9801252 0
vn -0 1 0
vn -0 0.8197173 -0.57276833
vn 0.09715346 0.9728487 -0.21006304
vn -0.15047221 0.93277645 -0.32754576
vn -0.17040452 0.97959864 -0.106530584
vn -0 1 0
vn 0.22823176 0.8330412 -0.5039372
vn 0.18326071 0.976541 -0.113062695
vn 0.45540082 0.84443796 -0.28201863
vn -0 0.9260292 -0.37745187
vn -0.093085155 0.9768425 -0.19264965
vn -0 1 0
vn 0.15047222 0.93277645 -0.32754576
vn 0.28711373 0.9408387 -0.17996757
vn -0 0.9747594 -0.22325787
vn -0 1 0
vn 0.09308517 0.9768425 -0.19264963
vn -0 1 0
vn 0.17040452 0.97959864 -0.10653061
vn -0 1 0
vn 0.09715346 0.9728487 -0.21006304
vn -0 1 0
vn -0 1 0
vn 0.18326071 0.976541 -0.113062695
vn -0 0.9606991 -0.2775919
vn -0 1 0
vn -0 1 0
vn 0.09715346 0.9728487 -0.21006304
vn -0.09715346 0.9728487 -0.21006304
vn -0 1 0
vn -0 1 0
vn -0 0.9606991 -0.2775919
vn -0.18326071 0.976541 -0.113062695
vn -0 1 0
vn -0 1 0
vn -0.09715346 0.9728487 -0.21006304
vn -0.22130042 0.97520566 0
vn -0 1 0
vn -0 1 0
vn -0.18326071 0.976541 -0.113062695
vn -0.1832607 0.976541 0.11306268
vn -0 1 0
vn -0 1 0
vn -0.22130042 0.97520566 0
vn -0.09715346 0.9728487 0.21006304
vn -0 1 0
vn -0 1 0
vn -0.1832607 0.976541 0.11306268
vn -0 0.9606991 0.2775919
vn -0 1 0
vn -0 1 0
vn -0.09715346 0.9728487 0.21006304
vn 0.09715346 0.9728487 0.21006304
vn -0 1 0
vn -0 1 0
vn -0 0.9606991 0.2775919
vn 0.18326071 0.976541 0.113062695
vn -0 1 0
vn -0 1 0
vn 0.09715346 0.9728487 0.21006304
vn 0.22130042 0.97520566 0
vn -0 1 0
vn -0 1 0
vn 0.18326071 0.976541 0.113062695
vn 0.18326071 0.976541 -0.113062695
vn -0 1 0
vn -0 1 0
vn 0.22130042 0.97520566 0
g decalMound01_0
f 3/3/3 2/2/2 1/1/1
f 2/2/2 4/4/4 1/1/1
f 1/1/1 4/4/4 5/5/5
f 2/2/2 6/6/6 4/4/4
f 4/4/4 7/7/7 5/5/5
f 5/5/5 7/7/7 8/8/8
f 6/6/6 9/9/9 4/4/4
f 4/4/4 9/9/9 7/7/7
f 6/6/6 10/10/10 9/9/9
f 7/7/7 11/11/11 8/8/8
f 8/8/8 11/11/11 12/12/12
f 9/9/9 13/13/13 7/7/7
f 7/7/7 13/13/13 11/11/11
f 10/10/10 14/14/14 9/9/9
f 9/9/9 14/14/14 13/13/13
f 10/10/10 15/15/15 14/14/14
f 11/11/11 16/16/16 12/12/12
f 12/12/12 16/16/16 17/17/17
f 13/13/13 18/18/18 11/11/11
f 11/11/11 18/18/18 16/16/16
f 14/14/14 19/19/19 13/13/13
f 13/13/13 19/19/19 18/18/18
f 14/14/14 20/20/20 19/19/19
f 16/16/16 21/21/21 17/17/17
f 17/17/17 21/21/21 22/22/22
f 18/18/18 23/23/23 16/16/16
f 16/16/16 23/23/23 21/21/21
f 19/19/19 24/24/24 18/18/18
f 18/18/18 24/24/24 23/23/23
f 19/19/19 25/25/25 24/24/24
f 21/21/21 26/26/26 22/22/22
f 22/22/22 26/26/26 27/27/27
f 23/23/23 28/28/28 21/21/21
f 21/21/21 28/28/28 26/26/26
f 24/24/24 29/29/29 23/23/23
f 23/23/23 29/29/29 28/28/28
f 24/24/24 30/30/30 29/29/29
f 26/26/26 31/31/31 27/27/27
f 27/27/27 31/31/31 32/32/32
f 28/28/28 33/33/33 26/26/26
f 26/26/26 33/33/33 31/31/31
f 29/29/29 34/34/34 28/28/28
f 28/28/28 34/34/34 33/33/33
f 29/29/29 35/35/35 34/34/34
f 31/31/31 36/36/36 32/32/32
f 32/32/32 36/36/36 37/37/37
f 33/33/33 38/38/38 31/31/31
f 31/31/31 38/38/38 36/36/36
f 34/34/34 39/39/39 33/33/33
f 33/33/33 39/39/39 38/38/38
f 34/34/34 40/40/40 39/39/39
f 36/36/36 41/41/41 37/37/37
f 37/37/37 41/41/41 42/42/42
f 38/38/38 43/43/43 36/36/36
f 36/36/36 43/43/43 41/41/41
f 39/39/39 44/44/44 38/38/38
f 38/38/38 44/44/44 43/43/43
f 39/39/39 45/45/45 44/44/44
f 41/41/41 46/46/46 42/42/42
f 42/42/42 46/46/46 47/47/47
f 43/43/43 48/48/48 41/41/41
f 41/41/41 48/48/48 46/46/46
f 44/44/44 49/49/49 43/43/43
f 43/43/43 49/49/49 48/48/48
f 44/44/44 50/50/50 49/49/49
f 46/46/46 51/51/51 47/47/47
f 47/47/47 51/51/51 52/52/52
f 51/51/51 53/53/53 52/52/52
f 48/48/48 54/54/54 46/46/46
f 46/46/46 54/54/54 51/51/51
f 49/49/49 55/55/55 48/48/48
f 48/48/48 55/55/55 54/54/54
f 49/49/49 56/56/56 55/55/55
f 51/51/51 57/57/57 53/53/53
f 54/54/54 57/57/57 51/51/51
f 57/57/57 58/58/58 53/53/53
f 55/55/55 59/59/59 54/54/54
f 54/54/54 59/59/59 57/57/57
f 55/55/55 60/60/60 59/59/59
f 57/57/57 61/61/61 58/58/58
f 59/59/59 61/61/61 57/57/57
f 59/59/59 62/62/62 61/61/61
f 61/61/61 63/63/63 58/58/58
f 61/61/61 64/64/64 63/63/63
f 67/67/67 66/66/66 65/65/65
f 68/68/68 67/67/67 65/65/65
f 71/71/71 70/70/70 69/69/69
f 72/72/72 71/71/71 69/69/69
f 75/75/75 74/74/74 73/73/73
f 76/76/76 75/75/75 73/73/73
f 79/79/79 78/78/78 77/77/77
f 80/80/80 79/79/79 77/77/77
f 83/83/83 82/82/82 81/81/81
f 84/84/84 83/83/83 81/81/81
f 87/87/87 86/86/86 85/85/85
f 88/88/88 87/87/87 85/85/85
f 91/91/91 90/90/90 89/89/89
f 92/92/92 91/91/91 89/89/89
f 95/95/95 94/94/94 93/93/93
f 96/96/96 95/95/95 93/93/93
f 99/99/99 98/98/98 97/97/97
f 100/100/100 99/99/99 97/97/97
f 103/103/103 102/102/102 101/101/101
f 104/104/104 103/103/103 101/101/101
f 107/107/107 106/106/106 105/105/105
f 108/108/108 107/107/107 105/105/105
f 111/111/111 110/110/110 109/109/109
f 112/112/112 111/111/111 109/109/109
