g deluxCoop_glass
v 0.76243746 -0.76341504 0.26340726
v 0.7775558 -0.74915665 0.30933997
v 0.7930626 -0.74915665 0.2791243
v 0.74696565 -0.76341504 0.2935548
v 0.5852145 -0.76341504 0.17245534
v 0.5732172 -0.76341504 0.20387158
v 0.30781212 -0.76341504 0.09991476
v 0.3021485 -0.76341504 0.13320151
v 6.8833406E-10 -0.76341504 0.074896306
v 4.170349E-09 -0.76341504 0.108694226
v -0.30781212 -0.76341504 0.09991482
v -0.3021485 -0.76341504 0.13320151
v -0.5852144 -0.76341504 0.17245564
v -0.5732171 -0.76341504 0.20387188
v -0.74696535 -0.76341504 0.293555
v 0.76443976 -0.75625426 0.25638613
v 0.5877856 -0.75625426 0.1657261
v 0.30901715 -0.75625426 0.0928283
v -0 -0.75625426 0.06771192
v -0.30901715 -0.75625426 0.09282836
v 0.79145616 -0.743676 0.27025113
v 0.7930626 -0.74915665 0.2791243
v 0.80264676 -0.7133096 0.27599415
v 0.805748 -0.7147339 0.2856345
v 0.76443976 -0.7160582 0.25638613
v 0.5877856 -0.7160588 0.1657261
v 0.30901715 -0.7160582 0.0928283
v -0 -0.7160582 0.06771192
v -0.30901715 -0.7160582 0.09282836
v 0.76443976 0.5142815 0.25638613
v 0.5877856 0.51428103 0.1657261
v 0.30901715 0.5142815 0.0928283
v -0 0.5142815 0.06771192
v -0.30901715 0.5142815 0.09282836
v 0.80264676 0.51322603 0.27599415
v -0.5877855 -0.7160582 0.1657264
v -0.5877855 0.5142815 0.1657264
v -0.5877855 -0.75625426 0.1657264
v -0.76243716 -0.76341504 0.26340744
v -0.7930623 -0.74915665 0.27912447
v -0.77755344 -0.74915665 0.3093442
v -0.76443946 -0.75625426 0.2563863
v -0.7930623 -0.74915665 0.27912447
v -0.79145586 -0.743676 0.2702513
v -0.8057477 -0.7147339 0.28563467
v -0.7930623 -0.74915665 0.27912447
v -0.7902255 -0.7147339 0.31588027
v -0.7902255 0.51465034 0.31588027
v -0.76443946 -0.7160588 0.2563863
v -0.80264646 -0.7133096 0.27599433
v -0.8057477 0.51465034 0.28563467
v -0.7930623 0.549073 0.27912447
v -0.7775555 0.549073 0.30934015
v -0.80264646 0.51322603 0.27599433
v -0.7930623 0.549073 0.27912447
v -0.76443946 0.51428103 0.2563863
v -0.79145586 0.54359245 0.2702513
v -0.76243716 0.56333137 0.26340744
v -0.7930623 0.549073 0.27912447
v -0.74696535 0.56333137 0.293555
v -0.76443946 0.55617046 0.2563863
v -0.5852144 0.56333137 0.17245564
v -0.5732171 0.56333137 0.20387188
v -0.5877855 0.55617046 0.1657264
v -0.30781212 0.56333137 0.09991482
v -0.3021485 0.56333137 0.13320151
v -0.30901715 0.55617046 0.09282836
v 6.8833406E-10 0.56333137 0.074896306
v 4.170349E-09 0.56333137 0.108694226
v -0 0.55617046 0.06771192
v 0.30781212 0.56333137 0.09991476
v 0.3021485 0.56333137 0.13320151
v 0.30901715 0.55617046 0.0928283
v 0.5852145 0.56333137 0.17245534
v 0.5732172 0.56333137 0.20387158
v 0.74696565 0.56333137 0.2935548
v 0.5877856 0.55617046 0.1657261
v 0.76243746 0.56333137 0.26340726
v 0.7930626 0.549073 0.2791243
v 0.77755374 0.549073 0.30934402
v 0.76443976 0.55617046 0.25638613
v 0.7930626 0.549073 0.2791243
v 0.79145616 0.54359245 0.27025113
v 0.805748 0.51465034 0.2856345
v 0.7930626 0.549073 0.2791243
v 0.79022586 0.51465034 0.3158801
v 0.79022586 -0.7147339 0.3158801
v 0.7930626 -0.74915665 0.2791243
v 0.5732172 0.56333137 0.20387158
v 0.74696565 0.56333137 0.2935548
v 0.74242836 0.55616736 0.2992749
v 0.5706402 0.55617046 0.21059987
v 0.3021485 0.56333137 0.13320151
v 0.76941043 0.54358983 0.3132027
v 0.77755374 0.549073 0.30934402
v 0.7805827 0.51322436 0.3189697
v 0.79022586 0.51465034 0.3158801
v 0.3009467 0.55617046 0.14028832
v 4.170349E-09 0.56333137 0.108694226
v 0.7805827 -0.7133079 0.3189697
v 0.79022586 -0.7147339 0.3158801
v 4.1909516E-09 0.55617046 0.11587855
v -0.3021485 0.56333137 0.13320151
v 0.7694073 -0.74367005 0.3132011
v 0.7775558 -0.74915665 0.30933997
v 0.74242836 -0.75625104 0.2992749
v 0.74696565 -0.76341504 0.2935548
v 0.74242836 -0.71330637 0.2992749
v 0.5706402 -0.75625426 0.21059987
v 0.5732172 -0.76341504 0.20387158
v 0.74242836 0.51427436 0.2992749
v 0.57064027 -0.713309 0.21059987
v 0.5706402 0.51427746 0.21059987
v 0.3009467 -0.75625426 0.14028832
v 0.3021485 -0.76341504 0.13320151
v 0.3009467 -0.71330947 0.14028832
v 0.3009467 0.5142772 0.14028832
v 4.1909516E-09 -0.75625426 0.11587855
v 4.170349E-09 -0.76341504 0.108694226
v 4.1909516E-09 -0.71330947 0.11587855
v 4.1909516E-09 0.5142772 0.11587855
v -0.30094668 -0.75625426 0.14028832
v -0.3021485 -0.76341504 0.13320151
v -0.30094668 -0.71330947 0.14028832
v -0.30094668 0.5142772 0.14028832
v -0.5706401 -0.75625426 0.21060017
v -0.5732171 -0.76341504 0.20387188
v -0.5706401 -0.71330947 0.21060017
v -0.74242806 -0.75625104 0.29927507
v -0.74696535 -0.76341504 0.293555
v -0.30094668 0.55617046 0.14028832
v -0.5732171 0.56333137 0.20387188
v -0.5706401 0.5142772 0.21060017
v -0.5706401 0.55617046 0.21060017
v -0.74696535 0.56333137 0.293555
v -0.74242806 -0.71330637 0.29927507
v -0.76941013 -0.7436735 0.3132029
v -0.77755344 -0.74915665 0.3093442
v -0.7805824 -0.7133079 0.31896988
v -0.7902255 -0.7147339 0.31588027
v -0.74242806 0.51427436 0.29927507
v -0.74242806 0.55616736 0.29927507
v -0.7775555 0.549073 0.30934015
v -0.7805824 0.51322436 0.31896988
v -0.7902255 0.51465034 0.31588027
v -0.769407 0.54358625 0.31320128
vt 0.06845984 0.027815193
vt 0.04933995 0.04016596
vt 0.04969001 0.04016596
vt 0.06849766 0.027815193
vt 0.17655608 0.027815193
vt 0.17675826 0.027815193
vt 0.33213672 0.027815193
vt 0.3318527 0.027815193
vt 0.50009835 0.027815193
vt 0.50009835 0.027815193
vt 0.66805995 0.027815193
vt 0.66834396 0.027815193
vt 0.8236406 0.027815193
vt 0.8234384 0.027815193
vt 0.93169886 0.027815193
vt 0.06922543 0.03401792
vt 0.17651314 0.03401792
vt 0.3321961 0.03401792
vt 0.50009835 0.03401792
vt 0.6680006 0.03401792
vt 0.052737176 0.04491332
vt 0.04969001 0.04016596
vt 0.045909584 0.07121709
vt 0.041918546 0.069983274
vt 0.06922543 0.06883618
vt 0.17651314 0.068835676
vt 0.3321961 0.06883618
vt 0.50009835 0.06883618
vt 0.6680006 0.06883618
vt 0.06922543 0.9296973
vt 0.17651314 0.9296969
vt 0.3321961 0.9296973
vt 0.50009835 0.9296973
vt 0.6680006 0.9296973
vt 0.045909584 0.92878306
vt 0.82368356 0.06883618
vt 0.82368356 0.9296973
vt 0.82368356 0.03401792
vt 0.93173677 0.027815193
vt 0.9505066 0.04016596
vt 0.9508566 0.04016596
vt 0.9309711 0.03401792
vt 0.9505066 0.04016596
vt 0.9474593 0.04491332
vt 0.958278 0.069983274
vt 0.9505066 0.04016596
vt 0.95878917 0.069983274
vt 0.95878917 0.9300168
vt 0.9309711 0.068835676
vt 0.954287 0.07121709
vt 0.958278 0.9300168
vt 0.9505066 0.95983404
vt 0.9508566 0.95983404
vt 0.954287 0.92878306
vt 0.9505066 0.95983404
vt 0.9309711 0.9296969
vt 0.9474593 0.9550868
vt 0.93173677 0.9721848
vt 0.9505066 0.95983404
vt 0.93169886 0.9721848
vt 0.9309711 0.96598196
vt 0.8236406 0.9721848
vt 0.8234384 0.9721848
vt 0.82368356 0.96598196
vt 0.66805995 0.9721848
vt 0.66834396 0.9721848
vt 0.6680006 0.96598196
vt 0.50009835 0.9721848
vt 0.50009835 0.9721848
vt 0.50009835 0.96598196
vt 0.33213672 0.9721848
vt 0.3318527 0.9721848
vt 0.3321961 0.96598196
vt 0.17655608 0.9721848
vt 0.17675826 0.9721848
vt 0.06849766 0.9721848
vt 0.17651314 0.96598196
vt 0.06845984 0.9721848
vt 0.04969001 0.95983404
vt 0.04933989 0.95983404
vt 0.06922543 0.96598196
vt 0.04969001 0.95983404
vt 0.052737176 0.9550868
vt 0.041918546 0.9300168
vt 0.04969001 0.95983404
vt 0.041407436 0.9300168
vt 0.041407436 0.069983274
vt 0.04969001 0.04016596
vt 0.17675826 0.9721848
vt 0.06849766 0.9721848
vt 0.0693025 0.9659793
vt 0.17680657 0.96598196
vt 0.3318527 0.9721848
vt 0.052328706 0.9550845
vt 0.04933989 0.95983404
vt 0.045302182 0.9287816
vt 0.041407436 0.9300168
vt 0.33178857 0.96598196
vt 0.50009835 0.9721848
vt 0.045302182 0.07121852
vt 0.041407436 0.069983274
vt 0.50009835 0.96598196
vt 0.66834396 0.9721848
vt 0.052330673 0.044918507
vt 0.04933995 0.04016596
vt 0.0693025 0.034020722
vt 0.06849766 0.027815193
vt 0.0693025 0.07121986
vt 0.17680657 0.03401792
vt 0.17675826 0.027815193
vt 0.0693025 0.9296911
vt 0.17680654 0.07121757
vt 0.17680657 0.9296938
vt 0.33178857 0.03401792
vt 0.3318527 0.027815193
vt 0.33178857 0.07121718
vt 0.33178857 0.9296936
vt 0.50009835 0.03401792
vt 0.50009835 0.027815193
vt 0.50009835 0.07121718
vt 0.50009835 0.9296936
vt 0.6684081 0.03401792
vt 0.66834396 0.027815193
vt 0.6684081 0.07121718
vt 0.6684081 0.9296936
vt 0.82339007 0.03401792
vt 0.8234384 0.027815193
vt 0.82339007 0.07121718
vt 0.9308941 0.034020722
vt 0.93169886 0.027815193
vt 0.6684081 0.96598196
vt 0.8234384 0.9721848
vt 0.82339007 0.9296936
vt 0.82339007 0.96598196
vt 0.93169886 0.9721848
vt 0.9308941 0.07121986
vt 0.94786793 0.044915527
vt 0.9508566 0.04016596
vt 0.95489436 0.07121852
vt 0.95878917 0.069983274
vt 0.9308941 0.9296911
vt 0.9308941 0.9659793
vt 0.9508566 0.95983404
vt 0.95489436 0.9287816
vt 0.95878917 0.9300168
vt 0.9478659 0.9550814
vn 0.12738198 -0.98505175 -0.115960196
vn 0.5538193 -0.6988886 0.4525914
vn 0.690498 -0.69894916 0.18623231
vn -0.018966567 -0.9854172 0.16909571
vn 0.06456884 -0.98160535 -0.17967136
vn -0.052341074 -0.98800755 0.14526324
vn 0.030885072 -0.9822075 -0.1852417
vn -0.025898345 -0.9874176 0.1559996
vn -0 -0.98247117 -0.18641445
vn -0 -0.98727685 0.15901123
vn -0.03088524 -0.9822075 -0.18524177
vn 0.025898494 -0.9874176 0.15599954
vn -0.06456903 -0.9816056 -0.17967008
vn 0.052341238 -0.9880074 0.14526382
vn 0.018961107 -0.9854187 0.16908711
vn 0.45881057 -0.16560104 -0.87296575
vn 0.33450118 -0.1440619 -0.93131906
vn 0.16274208 -0.14486633 -0.97597575
vn -0 -0.14517634 -0.9894058
vn -0.16274282 -0.14486612 -0.97597575
vn 0.5824336 -0.15372524 -0.79821026
vn 0.690498 -0.69894916 0.18623231
vn 0.58330345 -0.0015766434 -0.8122529
vn 0.95087814 -0.011032729 0.3093687
vn 0.45658815 0 -0.88967824
vn 0.33799794 0 -0.9411469
vn 0.16448039 0 -0.9863804
vn -0 0 -1
vn -0.16448101 0 -0.9863803
vn 0.45658812 0 -0.88967824
vn 0.33799797 0 -0.9411469
vn 0.16448033 0 -0.9863804
vn -0 0 -1
vn -0.164481 0 -0.9863803
vn 0.5856349 0.0016068981 -0.81057334
vn -0.33799833 0 -0.9411467
vn -0.33799824 0 -0.9411468
vn -0.33450112 -0.14406174 -0.93131906
vn -0.12738416 -0.985052 -0.11595643
vn -0.69049466 -0.69895023 0.18624087
vn -0.5538345 -0.69889164 0.45256785
vn -0.4588107 -0.16560183 -0.8729656
vn -0.69049466 -0.69895023 0.18624087
vn -0.5824341 -0.15372641 -0.7982097
vn -0.9508776 -0.011033299 0.30937034
vn -0.69049466 -0.69895023 0.18624087
vn -0.8056452 -0.011032094 0.59229547
vn -0.80564415 0.011031887 0.592297
vn -0.45658794 0 -0.88967824
vn -0.5833031 -0.0015766411 -0.812253
vn -0.9508777 0.0110327015 0.3093702
vn -0.69049627 0.6989503 0.18623498
vn -0.5538179 0.6988899 0.45259094
vn -0.5856362 0.0016069139 -0.81057245
vn -0.69049627 0.6989503 0.18623498
vn -0.4565879 0 -0.88967824
vn -0.5800562 0.15054554 -0.80054414
vn -0.12738292 0.9850515 -0.11596201
vn -0.69049627 0.6989503 0.18623498
vn 0.0189669 0.9854166 0.16909915
vn -0.45893764 0.1603207 -0.87388414
vn -0.06456997 0.9816051 -0.17967205
vn 0.052341774 0.98800695 0.1452676
vn -0.33473834 0.13915059 -0.9319804
vn -0.030885678 0.98220706 -0.18524376
vn 0.025898946 0.98741734 0.15600108
vn -0.16285959 0.13993539 -0.97667533
vn -0 0.98247033 -0.18641855
vn -0 0.987277 0.15900989
vn -0 0.14023778 -0.99011785
vn 0.03088566 0.9822068 -0.1852451
vn -0.025898723 0.9874171 0.15600212
vn 0.1628591 0.13993518 -0.97667557
vn 0.06456999 0.98160523 -0.17967169
vn -0.052341532 0.98800665 0.14526947
vn -0.018961431 0.98541796 0.16909118
vn 0.3347371 0.13914993 -0.9319809
vn 0.12738489 0.985052 -0.11595565
vn 0.6904947 0.69894975 0.18624273
vn 0.5538342 0.69889164 0.4525682
vn 0.45893782 0.16032042 -0.8738841
vn 0.6904947 0.69894975 0.18624273
vn 0.580055 0.150546 -0.80054486
vn 0.950878 0.01103334 0.30936903
vn 0.6904947 0.69894975 0.18624273
vn 0.80564535 0.01103214 0.59229547
vn 0.80564415 -0.011031925 0.592297
vn 0.690498 -0.69894916 0.18623231
vn -0.052341532 0.98800665 0.14526947
vn -0.018961431 0.98541796 0.16909118
vn -0.44421878 0.16083406 0.88136375
vn -0.33491683 0.15179725 0.92994
vn -0.025898723 0.9874171 0.15600212
vn -0.31422508 0.15060298 0.93732667
vn 0.5538342 0.69889164 0.4525682
vn -0.31896013 0.0016090402 0.94776666
vn 0.80564535 0.01103214 0.59229547
vn -0.16190201 0.14998779 0.9753416
vn -0 0.987277 0.15900989
vn -0.31720784 -0.00162952 0.9483546
vn 0.80564415 -0.011031925 0.592297
vn -0 0.14955024 0.98875415
vn 0.025898946 0.98741734 0.15600108
vn -0.31616032 -0.14872135 0.93697625
vn 0.5538193 -0.6988886 0.4525914
vn -0.44460967 -0.15772244 0.8817289
vn -0.018966567 -0.9854172 0.16909571
vn -0.45868418 0 0.88859934
vn -0.3350762 -0.14870673 0.93038183
vn -0.052341074 -0.98800755 0.14526324
vn -0.45868424 0 0.88859934
vn -0.33881932 0 0.94085145
vn -0.3388193 0 0.94085145
vn -0.16197729 -0.14692691 0.975795
vn -0.025898345 -0.9874176 0.1559996
vn -0.16375081 0 0.98650175
vn -0.16375086 0 0.98650175
vn -0 -0.1464962 0.9892112
vn -0 -0.98727685 0.15901123
vn -0 0 1
vn -0 0 1
vn 0.16197765 -0.14692739 0.97579485
vn 0.025898494 -0.9874176 0.15599954
vn 0.16375127 0 0.98650163
vn 0.16375127 0 0.98650163
vn 0.3350768 -0.14870796 0.9303814
vn 0.052341238 -0.9880074 0.14526382
vn 0.3388198 0 0.9408512
vn 0.44461584 -0.15771614 0.8817269
vn 0.018961107 -0.9854187 0.16908711
vn 0.16190241 0.14998819 0.9753415
vn 0.052341774 0.98800695 0.1452676
vn 0.33881986 0 0.9408512
vn 0.334917 0.15179771 0.92993987
vn 0.0189669 0.9854166 0.16909915
vn 0.45868418 0 0.88859934
vn 0.31619337 -0.14869004 0.9369701
vn -0.5538345 -0.69889164 0.45256785
vn 0.31720954 -0.0016284325 0.94835407
vn -0.8056452 -0.011032094 0.59229547
vn 0.45868424 0 0.88859934
vn 0.44421294 0.16084313 0.88136506
vn -0.5538179 0.6988899 0.45259094
vn 0.318959 0.001610099 0.9477671
vn -0.80564415 0.011031887 0.592297
vn 0.31419116 0.15063551 0.93733287
g deluxCoop_glass_0
f 3/3/3 2/2/2 1/1/1
f 2/2/2 4/4/4 1/1/1
f 1/1/1 4/4/4 5/5/5
f 4/4/4 6/6/6 5/5/5
f 5/5/5 6/6/6 7/7/7
f 6/6/6 8/8/8 7/7/7
f 7/7/7 8/8/8 9/9/9
f 8/8/8 10/10/10 9/9/9
f 9/9/9 10/10/10 11/11/11
f 10/10/10 12/12/12 11/11/11
f 11/11/11 12/12/12 13/13/13
f 12/12/12 14/14/14 13/13/13
f 13/13/13 14/14/14 15/15/15
f 16/16/16 1/1/1 5/5/5
f 5/5/5 7/7/7 17/17/17
f 17/17/17 16/16/16 5/5/5
f 7/7/7 9/9/9 18/18/18
f 7/7/7 18/18/18 17/17/17
f 9/9/9 11/11/11 19/19/19
f 9/9/9 19/19/19 18/18/18
f 11/11/11 13/13/13 20/20/20
f 11/11/11 20/20/20 19/19/19
f 16/16/16 21/21/21 1/1/1
f 21/21/21 22/22/22 1/1/1
f 22/22/22 21/21/21 23/23/23
f 24/24/24 22/22/22 23/23/23
f 21/21/21 16/16/16 25/25/25
f 23/23/23 21/21/21 25/25/25
f 16/16/16 17/17/17 26/26/26
f 25/25/25 16/16/16 26/26/26
f 18/18/18 27/27/27 17/17/17
f 27/27/27 26/26/26 17/17/17
f 19/19/19 28/28/28 18/18/18
f 28/28/28 27/27/27 18/18/18
f 20/20/20 29/29/29 19/19/19
f 29/29/29 28/28/28 19/19/19
f 23/23/23 25/25/25 30/30/30
f 25/25/25 26/26/26 31/31/31
f 30/30/30 25/25/25 31/31/31
f 27/27/27 32/32/32 26/26/26
f 32/32/32 31/31/31 26/26/26
f 28/28/28 33/33/33 27/27/27
f 33/33/33 32/32/32 27/27/27
f 29/29/29 34/34/34 28/28/28
f 34/34/34 33/33/33 28/28/28
f 35/35/35 23/23/23 30/30/30
f 23/23/23 35/35/35 24/24/24
f 36/36/36 29/29/29 20/20/20
f 37/37/37 34/34/34 29/29/29
f 36/36/36 37/37/37 29/29/29
f 38/38/38 36/36/36 20/20/20
f 13/13/13 38/38/38 20/20/20
f 13/13/13 39/39/39 38/38/38
f 39/39/39 13/13/13 15/15/15
f 39/39/39 15/15/15 40/40/40
f 15/15/15 41/41/41 40/40/40
f 39/39/39 42/42/42 38/38/38
f 36/36/36 38/38/38 42/42/42
f 39/39/39 43/43/43 42/42/42
f 43/43/43 44/44/44 42/42/42
f 44/44/44 43/43/43 45/45/45
f 46/46/46 41/41/41 45/45/45
f 41/41/41 47/47/47 45/45/45
f 45/45/45 47/47/47 48/48/48
f 49/49/49 36/36/36 42/42/42
f 49/49/49 42/42/42 44/44/44
f 50/50/50 44/44/44 45/45/45
f 50/50/50 49/49/49 44/44/44
f 51/51/51 45/45/45 48/48/48
f 50/50/50 45/45/45 51/51/51
f 51/51/51 48/48/48 52/52/52
f 48/48/48 53/53/53 52/52/52
f 54/54/54 50/50/50 51/51/51
f 50/50/50 54/54/54 49/49/49
f 51/51/51 55/55/55 54/54/54
f 49/49/49 56/56/56 36/36/36
f 54/54/54 56/56/56 49/49/49
f 56/56/56 37/37/37 36/36/36
f 55/55/55 57/57/57 54/54/54
f 54/54/54 57/57/57 56/56/56
f 57/57/57 55/55/55 58/58/58
f 59/59/59 53/53/53 58/58/58
f 53/53/53 60/60/60 58/58/58
f 57/57/57 61/61/61 56/56/56
f 56/56/56 61/61/61 37/37/37
f 61/61/61 57/57/57 58/58/58
f 58/58/58 60/60/60 62/62/62
f 61/61/61 58/58/58 62/62/62
f 60/60/60 63/63/63 62/62/62
f 61/61/61 64/64/64 37/37/37
f 64/64/64 61/61/61 62/62/62
f 37/37/37 64/64/64 34/34/34
f 62/62/62 63/63/63 65/65/65
f 64/64/64 62/62/62 65/65/65
f 63/63/63 66/66/66 65/65/65
f 64/64/64 67/67/67 34/34/34
f 67/67/67 64/64/64 65/65/65
f 34/34/34 67/67/67 33/33/33
f 65/65/65 66/66/66 68/68/68
f 67/67/67 65/65/65 68/68/68
f 66/66/66 69/69/69 68/68/68
f 67/67/67 70/70/70 33/33/33
f 70/70/70 67/67/67 68/68/68
f 33/33/33 70/70/70 32/32/32
f 68/68/68 69/69/69 71/71/71
f 70/70/70 68/68/68 71/71/71
f 69/69/69 72/72/72 71/71/71
f 70/70/70 73/73/73 32/32/32
f 73/73/73 70/70/70 71/71/71
f 32/32/32 73/73/73 31/31/31
f 71/71/71 72/72/72 74/74/74
f 73/73/73 71/71/71 74/74/74
f 72/72/72 75/75/75 74/74/74
f 74/74/74 75/75/75 76/76/76
f 73/73/73 77/77/77 31/31/31
f 77/77/77 73/73/73 74/74/74
f 78/78/78 74/74/74 76/76/76
f 74/74/74 78/78/78 77/77/77
f 78/78/78 76/76/76 79/79/79
f 76/76/76 80/80/80 79/79/79
f 31/31/31 77/77/77 81/81/81
f 78/78/78 81/81/81 77/77/77
f 30/30/30 31/31/31 81/81/81
f 78/78/78 82/82/82 81/81/81
f 30/30/30 81/81/81 83/83/83
f 82/82/82 83/83/83 81/81/81
f 35/35/35 30/30/30 83/83/83
f 83/83/83 82/82/82 84/84/84
f 35/35/35 83/83/83 84/84/84
f 85/85/85 80/80/80 84/84/84
f 80/80/80 86/86/86 84/84/84
f 35/35/35 84/84/84 24/24/24
f 84/84/84 86/86/86 87/87/87
f 24/24/24 84/84/84 87/87/87
f 24/24/24 87/87/87 88/88/88
f 87/87/87 2/2/2 88/88/88
f 91/91/91 90/90/90 89/89/89
f 92/92/92 91/91/91 89/89/89
f 89/89/89 93/93/93 92/92/92
f 91/91/91 94/94/94 90/90/90
f 94/94/94 95/95/95 90/90/90
f 95/95/95 94/94/94 96/96/96
f 96/96/96 94/94/94 91/91/91
f 97/97/97 95/95/95 96/96/96
f 93/93/93 98/98/98 92/92/92
f 93/93/93 99/99/99 98/98/98
f 97/97/97 96/96/96 100/100/100
f 101/101/101 97/97/97 100/100/100
f 99/99/99 102/102/102 98/98/98
f 99/99/99 103/103/103 102/102/102
f 100/100/100 104/104/104 101/101/101
f 104/104/104 105/105/105 101/101/101
f 105/105/105 104/104/104 106/106/106
f 106/106/106 104/104/104 100/100/100
f 107/107/107 105/105/105 106/106/106
f 108/108/108 100/100/100 96/96/96
f 108/108/108 106/106/106 100/100/100
f 107/107/107 106/106/106 109/109/109
f 109/109/109 106/106/106 108/108/108
f 110/110/110 107/107/107 109/109/109
f 111/111/111 108/108/108 96/96/96
f 111/111/111 96/96/96 91/91/91
f 112/112/112 108/108/108 111/111/111
f 112/112/112 109/109/109 108/108/108
f 113/113/113 111/111/111 91/91/91
f 113/113/113 112/112/112 111/111/111
f 92/92/92 113/113/113 91/91/91
f 109/109/109 114/114/114 110/110/110
f 114/114/114 115/115/115 110/110/110
f 112/112/112 116/116/116 109/109/109
f 112/112/112 113/113/113 116/116/116
f 116/116/116 114/114/114 109/109/109
f 113/113/113 92/92/92 117/117/117
f 113/113/113 117/117/117 116/116/116
f 92/92/92 98/98/98 117/117/117
f 114/114/114 118/118/118 115/115/115
f 118/118/118 119/119/119 115/115/115
f 116/116/116 120/120/120 114/114/114
f 116/116/116 117/117/117 120/120/120
f 120/120/120 118/118/118 114/114/114
f 117/117/117 98/98/98 121/121/121
f 117/117/117 121/121/121 120/120/120
f 98/98/98 102/102/102 121/121/121
f 118/118/118 122/122/122 119/119/119
f 122/122/122 123/123/123 119/119/119
f 120/120/120 124/124/124 118/118/118
f 120/120/120 121/121/121 124/124/124
f 124/124/124 122/122/122 118/118/118
f 121/121/121 102/102/102 125/125/125
f 121/121/121 125/125/125 124/124/124
f 122/122/122 126/126/126 123/123/123
f 126/126/126 127/127/127 123/123/123
f 124/124/124 128/128/128 122/122/122
f 128/128/128 126/126/126 122/122/122
f 124/124/124 125/125/125 128/128/128
f 126/126/126 129/129/129 127/127/127
f 126/126/126 128/128/128 129/129/129
f 129/129/129 130/130/130 127/127/127
f 102/102/102 131/131/131 125/125/125
f 103/103/103 131/131/131 102/102/102
f 103/103/103 132/132/132 131/131/131
f 125/125/125 133/133/133 128/128/128
f 125/125/125 131/131/131 133/133/133
f 132/132/132 134/134/134 131/131/131
f 131/131/131 134/134/134 133/133/133
f 132/132/132 135/135/135 134/134/134
f 128/128/128 133/133/133 136/136/136
f 128/128/128 136/136/136 129/129/129
f 129/129/129 137/137/137 130/130/130
f 137/137/137 138/138/138 130/130/130
f 139/139/139 137/137/137 129/129/129
f 138/138/138 137/137/137 139/139/139
f 136/136/136 139/139/139 129/129/129
f 140/140/140 138/138/138 139/139/139
f 133/133/133 141/141/141 136/136/136
f 133/133/133 134/134/134 141/141/141
f 136/136/136 141/141/141 139/139/139
f 135/135/135 142/142/142 134/134/134
f 134/134/134 142/142/142 141/141/141
f 135/135/135 143/143/143 142/142/142
f 140/140/140 139/139/139 144/144/144
f 141/141/141 144/144/144 139/139/139
f 141/141/141 142/142/142 144/144/144
f 145/145/145 140/140/140 144/144/144
f 143/143/143 146/146/146 142/142/142
f 142/142/142 146/146/146 144/144/144
f 146/146/146 143/143/143 145/145/145
f 144/144/144 146/146/146 145/145/145
