g dervishRing_LOD1
v 0.45242605 -0.08292383 -0.18740103
v 0.48970243 -0.008663595 9.061315E-17
v 0.48970243 -0.0994789 -9.061315E-17
v 0.45242605 0.0079494715 -0.18740103
v 0.3462719 -0.046235442 -0.34627193
v 0.3462719 0.044703603 -0.34627193
v 0.18740097 -0.009569436 -0.45242605
v 0.18740097 0.08135456 -0.45242605
v -4.8647564E-08 0.0069665313 -0.48970243
v -4.8647564E-08 0.097816944 -0.48970243
v -0.18740107 -0.009569436 -0.45242605
v -0.18740107 0.08135456 -0.45242605
v -0.34627196 -0.046235442 -0.34627187
v -0.34627196 0.044703603 -0.34627187
v -0.4524261 -0.08292383 -0.18740092
v -0.4524261 0.0079494715 -0.18740092
v -0.48970243 -0.0994789 9.729513E-08
v -0.48970243 -0.008663595 9.729513E-08
v -0.452426 -0.08292383 0.1874011
v -0.452426 0.0079494715 0.1874011
v -0.3462718 -0.046235442 0.34627196
v -0.3462718 0.044703603 0.34627196
v -0.18740085 -0.009569436 0.45242605
v -0.18740085 0.08135456 0.45242605
v 1.5810458E-07 0.0069665313 0.48970237
v 1.5810458E-07 0.097816944 0.48970237
v 0.18740115 -0.009569436 0.45242596
v 0.18740115 0.08135456 0.45242596
v 0.346272 -0.046235442 0.34627175
v 0.346272 0.044703603 0.34627175
v 0.4524261 -0.08292383 0.18740083
v 0.4524261 0.0079494715 0.18740083
v 0.48970243 -0.0994789 -9.061315E-17
v 0.48970243 -0.008663595 9.061315E-17
v 0.31233537 0.019421399 0.75404316
v 0.18740115 -0.009569436 0.45242596
v 0.5771201 -0.03323242 0.57711947
v 0.346272 -0.046235442 0.34627175
v 0.7540436 -0.08628303 0.31233457
v 0.4524261 -0.08292383 0.18740083
v 0.8161707 -0.104239166 -9.061315E-17
v 0.48970243 -0.0994789 -9.061315E-17
v 4.135043E-07 0.036871552 0.81617063
v -0.18740085 -0.009569436 0.45242605
v -0.31233463 0.019421399 0.7540435
v -0.3462718 -0.046235442 0.34627196
v -0.5771196 -0.03323242 0.57712007
v -0.452426 -0.08292383 0.1874011
v -0.7540433 -0.08628303 0.31233528
v -0.48970243 -0.0994789 9.729513E-08
v -0.8161707 -0.104239166 2.9188539E-07
v -0.4524261 -0.08292383 -0.18740092
v -0.75404346 -0.08628303 -0.31233475
v -0.34627196 -0.046235442 -0.34627187
v -0.57711995 -0.03323242 -0.57711965
v -0.18740107 -0.009569436 -0.45242605
v -0.31233513 0.019421399 -0.75404334
v -4.8647564E-08 0.0069665313 -0.48970243
v -1.2161891E-07 0.036871552 -0.8161707
v 0.18740097 -0.009569436 -0.45242605
v 0.3123349 0.019421399 -0.7540434
v 0.3462719 -0.046235442 -0.34627193
v 0.57711977 -0.03323242 -0.5771199
v 0.45242605 -0.08292383 -0.18740103
v 0.7540434 -0.08628303 -0.312335
v 0.48970243 -0.0994789 -9.061315E-17
v 0.8161707 -0.104239166 -9.061315E-17
v 0.45242605 0.0079494715 -0.18740103
v 0.8161707 -0.039084405 9.061315E-17
v 0.48970243 -0.008663595 9.061315E-17
v 0.7540434 -0.021128267 -0.312335
v 0.3462719 0.044703603 -0.34627193
v 0.57711977 0.03192234 -0.5771199
v 0.18740097 0.08135456 -0.45242605
v 0.3123349 0.08457619 -0.7540434
v -4.8647564E-08 0.097816944 -0.48970243
v -1.2161891E-07 0.102026284 -0.8161707
v -0.18740107 0.08135456 -0.45242605
v -0.31233513 0.08457619 -0.75404334
v -0.34627196 0.044703603 -0.34627187
v -0.57711995 0.03192234 -0.57711965
v -0.4524261 0.0079494715 -0.18740092
v -0.75404346 -0.021128267 -0.31233475
v -0.48970243 -0.008663595 9.729513E-08
v -0.8161707 -0.039084405 2.9188539E-07
v -0.452426 0.0079494715 0.1874011
v -0.7540433 -0.021128267 0.31233528
v -0.3462718 0.044703603 0.34627196
v -0.5771196 0.03192234 0.57712007
v -0.18740085 0.08135456 0.45242605
v -0.31233463 0.08457619 0.7540435
v 4.135043E-07 0.102026284 0.81617063
v 0.18740115 0.08135456 0.45242596
v 0.31233537 0.08457619 0.75404316
v 0.346272 0.044703603 0.34627175
v 0.5771201 0.03192234 0.57711947
v 0.4524261 0.0079494715 0.18740083
v 0.7540436 -0.021128267 0.31233457
v 0.48970243 -0.008663595 9.061315E-17
v 0.8161707 -0.039084405 9.061315E-17
v -0.31233463 0.019421399 0.7540435
v -0.31233463 0.08457619 0.7540435
v 0.31233537 0.08457619 0.75404316
v -0.5771196 -0.03323242 0.57712007
v 0.31233537 0.019421399 0.75404316
v -0.5771196 0.03192234 0.57712007
v 0.5771201 0.03192234 0.57711947
v -0.7540433 -0.08628303 0.31233528
v 0.5771201 -0.03323242 0.57711947
v -0.7540433 -0.021128267 0.31233528
v 0.7540436 -0.021128267 0.31233457
v -0.8161707 -0.104239166 2.9188539E-07
v 0.7540436 -0.08628303 0.31233457
v 0.8161707 -0.039084405 9.061315E-17
v 0.8161707 -0.104239166 -9.061315E-17
v -0.8161707 -0.039084405 2.9188539E-07
v -0.75404346 -0.08628303 -0.31233475
v -0.75404346 -0.021128267 -0.31233475
v -0.57711995 -0.03323242 -0.57711965
v -0.57711995 0.03192234 -0.57711965
v -0.31233513 0.019421399 -0.75404334
v -0.31233513 0.08457619 -0.75404334
v -1.2161891E-07 0.036871552 -0.8161707
v -1.2161891E-07 0.102026284 -0.8161707
v 0.3123349 0.019421399 -0.7540434
v 0.3123349 0.08457619 -0.7540434
v 0.57711977 -0.03323242 -0.5771199
v 0.57711977 0.03192234 -0.5771199
v 0.7540434 -0.08628303 -0.312335
v 0.7540434 -0.021128267 -0.312335
v 0.8161707 -0.104239166 -9.061315E-17
v 0.8161707 -0.039084405 9.061315E-17
vt 1.3704629 -3.804914E-08
vt 1.5 -4.371139E-08
vt 1.5 -4.371139E-08
vt 1.3704629 -3.804914E-08
vt 1.2461112 -3.2613553E-08
vt 1.2461112 -3.2613553E-08
vt 1.1217592 -2.7177958E-08
vt 1.1217592 -2.7177958E-08
vt 0.99740744 -2.174237E-08
vt 0.99740744 -2.174237E-08
vt 0.8730556 -1.6306776E-08
vt 0.8730556 -1.6306776E-08
vt 0.7487037 -1.0871185E-08
vt 0.7487037 -1.0871185E-08
vt 0.62435186 -5.4355924E-09
vt 0.62435186 -5.4355924E-09
vt 0.49999994 1.3027009E-15
vt 0.49999994 1.3027009E-15
vt 0.37564808 5.4355938E-09
vt 0.37564808 5.4355938E-09
vt 0.25129622 1.0871186E-08
vt 0.25129622 1.0871186E-08
vt 0.1269444 1.6306776E-08
vt 0.1269444 1.6306776E-08
vt 0.002592504 2.1742371E-08
vt 0.002592504 2.1742371E-08
vt -0.121759176 2.7177958E-08
vt -0.121759176 2.7177958E-08
vt -0.24611115 3.2613553E-08
vt -0.24611115 3.2613553E-08
vt -0.3704629 3.804914E-08
vt -0.3704629 3.804914E-08
vt -0.5 4.371139E-08
vt -0.5 4.371139E-08
vt -0.121759176 1
vt -0.121759176 2.7177958E-08
vt -0.24611115 1
vt -0.24611115 3.2613553E-08
vt -0.3704629 1
vt -0.3704629 3.804914E-08
vt -0.5 1
vt -0.5 4.371139E-08
vt 0.0025926232 1
vt 0.1269444 1.6306776E-08
vt 0.12694445 1
vt 0.25129622 1.0871186E-08
vt 0.25129634 1
vt 0.37564808 5.4355938E-09
vt 0.3756482 1
vt 0.49999994 1.3027009E-15
vt 0.5 1
vt 0.62435186 -5.4355924E-09
vt 0.62435186 1
vt 0.7487037 -1.0871185E-08
vt 0.7487037 1
vt 0.8730556 -1.6306776E-08
vt 0.8730556 1
vt 0.99740744 -2.174237E-08
vt 0.99740744 1
vt 1.1217592 -2.7177958E-08
vt 1.1217592 1
vt 1.2461112 -3.2613553E-08
vt 1.2461112 0.99999994
vt 1.3704629 -3.804914E-08
vt 1.3704629 0.99999994
vt 1.5 -4.371139E-08
vt 1.5 0.99999994
vt 1.3704629 -3.804914E-08
vt 1.5 0.99999994
vt 1.5 -4.371139E-08
vt 1.3704629 0.99999994
vt 1.2461112 -3.2613553E-08
vt 1.2461112 0.99999994
vt 1.1217592 -2.7177958E-08
vt 1.1217592 1
vt 0.99740744 -2.174237E-08
vt 0.99740744 1
vt 0.8730556 -1.6306776E-08
vt 0.8730556 1
vt 0.7487037 -1.0871185E-08
vt 0.7487037 1
vt 0.62435186 -5.4355924E-09
vt 0.62435186 1
vt 0.49999994 1.3027009E-15
vt 0.5 1
vt 0.37564808 5.4355938E-09
vt 0.3756482 1
vt 0.25129622 1.0871186E-08
vt 0.25129634 1
vt 0.1269444 1.6306776E-08
vt 0.12694445 1
vt 0.0025926232 1
vt -0.121759176 2.7177958E-08
vt -0.121759176 1
vt -0.24611115 3.2613553E-08
vt -0.24611115 1
vt -0.3704629 3.804914E-08
vt -0.3704629 1
vt -0.5 4.371139E-08
vt -0.5 1
vt 0.12694445 1
vt 0.12694445 1
vt -0.121759176 1
vt 0.25129634 1
vt -0.121759176 1
vt 0.25129634 1
vt -0.24611115 1
vt 0.3756482 1
vt -0.24611115 1
vt 0.3756482 1
vt -0.3704629 1
vt 0.5 1
vt -0.3704629 1
vt -0.5 1
vt -0.5 1
vt 0.5 1
vt 0.62435186 1
vt 0.62435186 1
vt 0.7487037 1
vt 0.7487037 1
vt 0.8730556 1
vt 0.8730556 1
vt 0.99740744 1
vt 0.99740744 1
vt 1.1217592 1
vt 1.1217592 1
vt 1.2461112 0.99999994
vt 1.2461112 0.99999994
vt 1.3704629 0.99999994
vt 1.3704629 0.99999994
vt 1.5 0.99999994
vt 1.5 0.99999994
vn -0.21716397 -0.9752074 -0.04254781
vn -0.09029288 0.99591523 0
vn -0.19696438 -0.98041064 0
vn -0.046593368 0.9870047 0.15378875
vn -0.22592248 -0.9738419 -0.024308888
vn 0.024126632 0.9737908 0.22616234
vn -0.15290569 -0.98710316 0.047403153
vn 0.041691173 0.9754032 0.21644954
vn -0 -0.99580646 0.09148447
vn -0 0.980624 0.19589928
vn 0.15290564 -0.98710316 0.047403153
vn -0.041691124 0.9754033 0.2164493
vn 0.22592242 -0.9738419 -0.024308901
vn -0.024126474 0.9737908 0.22616217
vn 0.21716394 -0.9752074 -0.042547967
vn 0.046593457 0.9870046 0.15378873
vn 0.19696438 -0.98041064 0
vn 0.09029284 0.99591523 0
vn 0.21716397 -0.9752074 0.042547762
vn 0.046593286 0.9870047 -0.15378876
vn 0.22592248 -0.9738419 0.024308749
vn -0.024126744 0.9737908 -0.22616223
vn 0.15290572 -0.98710316 -0.047403228
vn -0.041691277 0.9754033 -0.21644937
vn -0 -0.99580646 -0.09148454
vn -0 0.980624 -0.19589913
vn -0.15290567 -0.98710316 -0.047403034
vn 0.04169107 0.9754033 -0.21644942
vn -0.22592247 -0.9738419 0.024308898
vn 0.024126438 0.9737908 -0.22616227
vn -0.21716392 -0.9752074 0.04254797
vn -0.046593443 0.9870046 -0.15378885
vn -0.19696438 -0.98041064 0
vn -0.09029288 0.99591523 0
vn 0.035791256 -0.9282092 0.37033316
vn -0.15290567 -0.98710316 -0.047403034
vn 0.101466365 -0.93886083 0.32900587
vn -0.22592247 -0.9738419 0.024308898
vn 0.19218878 -0.96022564 0.20255877
vn -0.21716392 -0.9752074 0.04254797
vn 0.24192737 -0.97029436 0
vn -0.19696438 -0.98041064 0
vn -0 -0.92876136 0.37067807
vn 0.15290572 -0.98710316 -0.047403228
vn -0.035790842 -0.9282092 0.37033325
vn 0.22592248 -0.9738419 0.024308749
vn -0.10146595 -0.93886095 0.32900596
vn 0.21716397 -0.9752074 0.042547762
vn -0.19218865 -0.96022576 0.20255886
vn 0.19696438 -0.98041064 0
vn -0.24192749 -0.97029436 0
vn 0.21716394 -0.9752074 -0.042547967
vn -0.19218886 -0.96022564 -0.2025588
vn 0.22592242 -0.9738419 -0.024308901
vn -0.10146628 -0.93886083 -0.32900587
vn 0.15290564 -0.98710316 0.047403153
vn -0.03579119 -0.9282092 -0.37033316
vn -0 -0.99580646 0.09148447
vn -0 -0.92876136 -0.37067822
vn -0.15290569 -0.98710316 0.047403153
vn 0.03579099 -0.9282092 -0.37033328
vn -0.22592248 -0.9738419 -0.024308888
vn 0.10146607 -0.93886083 -0.32900602
vn -0.21716397 -0.9752074 -0.04254781
vn 0.19218877 -0.96022576 -0.20255876
vn -0.19696438 -0.98041064 0
vn 0.24192737 -0.97029436 0
vn -0.046593368 0.9870047 0.15378875
vn 0.37185955 0.928289 0
vn -0.09029288 0.99591523 0
vn 0.37089846 0.92801523 -0.034958012
vn 0.024126632 0.9737908 0.22616234
vn 0.32870764 0.93900776 -0.10107239
vn 0.041691173 0.9754032 0.21644954
vn 0.20176896 0.96024233 -0.19293511
vn -0 0.980624 0.19589928
vn -0 0.96993995 -0.24334463
vn -0.041691124 0.9754033 0.2164493
vn -0.20176904 0.96024233 -0.19293523
vn -0.024126474 0.9737908 0.22616217
vn -0.32870767 0.9390079 -0.10107229
vn 0.046593457 0.9870046 0.15378873
vn -0.3708984 0.92801535 -0.0349579
vn 0.09029284 0.99591523 0
vn -0.37185952 0.928289 0
vn 0.046593286 0.9870047 -0.15378876
vn -0.3708984 0.92801535 0.03495807
vn -0.024126744 0.9737908 -0.22616223
vn -0.32870764 0.9390079 0.10107243
vn -0.041691277 0.9754033 -0.21644937
vn -0.20176888 0.96024233 0.19293524
vn -0 0.96993995 0.24334463
vn 0.04169107 0.9754033 -0.21644942
vn 0.20176908 0.96024233 0.19293499
vn 0.024126438 0.9737908 -0.22616227
vn 0.32870767 0.9390079 0.101072155
vn -0.046593443 0.9870046 -0.15378885
vn 0.37089837 0.92801535 0.034957815
vn -0.09029288 0.99591523 0
vn 0.37185955 0.928289 0
vn -0.035790842 -0.9282092 0.37033325
vn -0.20176888 0.96024233 0.19293524
vn 0.20176908 0.96024233 0.19293499
vn -0.10146595 -0.93886095 0.32900596
vn 0.035791256 -0.9282092 0.37033316
vn -0.32870764 0.9390079 0.10107243
vn 0.32870767 0.9390079 0.101072155
vn -0.19218865 -0.96022576 0.20255886
vn 0.101466365 -0.93886083 0.32900587
vn -0.3708984 0.92801535 0.03495807
vn 0.37089837 0.92801535 0.034957815
vn -0.24192749 -0.97029436 0
vn 0.19218878 -0.96022564 0.20255877
vn 0.37185955 0.928289 0
vn 0.24192737 -0.97029436 0
vn -0.37185952 0.928289 0
vn -0.19218886 -0.96022564 -0.2025588
vn -0.3708984 0.92801535 -0.0349579
vn -0.10146628 -0.93886083 -0.32900587
vn -0.32870767 0.9390079 -0.10107229
vn -0.03579119 -0.9282092 -0.37033316
vn -0.20176904 0.96024233 -0.19293523
vn -0 -0.92876136 -0.37067822
vn -0 0.96993995 -0.24334463
vn 0.03579099 -0.9282092 -0.37033328
vn 0.20176896 0.96024233 -0.19293511
vn 0.10146607 -0.93886083 -0.32900602
vn 0.32870764 0.93900776 -0.10107239
vn 0.19218877 -0.96022576 -0.20255876
vn 0.37089846 0.92801523 -0.034958012
vn 0.24192737 -0.97029436 0
vn 0.37185955 0.928289 0
g dervishRing_LOD1_0
f 3/3/3 2/2/2 1/1/1
f 2/2/2 4/4/4 1/1/1
f 1/1/1 4/4/4 5/5/5
f 4/4/4 6/6/6 5/5/5
f 5/5/5 6/6/6 7/7/7
f 6/6/6 8/8/8 7/7/7
f 7/7/7 8/8/8 9/9/9
f 8/8/8 10/10/10 9/9/9
f 9/9/9 10/10/10 11/11/11
f 10/10/10 12/12/12 11/11/11
f 11/11/11 12/12/12 13/13/13
f 12/12/12 14/14/14 13/13/13
f 13/13/13 14/14/14 15/15/15
f 14/14/14 16/16/16 15/15/15
f 15/15/15 16/16/16 17/17/17
f 16/16/16 18/18/18 17/17/17
f 17/17/17 18/18/18 19/19/19
f 18/18/18 20/20/20 19/19/19
f 19/19/19 20/20/20 21/21/21
f 20/20/20 22/22/22 21/21/21
f 21/21/21 22/22/22 23/23/23
f 22/22/22 24/24/24 23/23/23
f 23/23/23 24/24/24 25/25/25
f 24/24/24 26/26/26 25/25/25
f 25/25/25 26/26/26 27/27/27
f 26/26/26 28/28/28 27/27/27
f 27/27/27 28/28/28 29/29/29
f 28/28/28 30/30/30 29/29/29
f 29/29/29 30/30/30 31/31/31
f 30/30/30 32/32/32 31/31/31
f 31/31/31 32/32/32 33/33/33
f 32/32/32 34/34/34 33/33/33
f 25/25/25 36/36/36 35/35/35
f 35/35/35 36/36/36 37/37/37
f 36/36/36 38/38/38 37/37/37
f 37/37/37 38/38/38 39/39/39
f 38/38/38 40/40/40 39/39/39
f 39/39/39 40/40/40 41/41/41
f 40/40/40 42/42/42 41/41/41
f 43/43/43 25/25/25 35/35/35
f 44/44/44 25/25/25 43/43/43
f 45/45/45 44/44/44 43/43/43
f 46/46/46 44/44/44 45/45/45
f 47/47/47 46/46/46 45/45/45
f 48/48/48 46/46/46 47/47/47
f 49/49/49 48/48/48 47/47/47
f 50/50/50 48/48/48 49/49/49
f 51/51/51 50/50/50 49/49/49
f 52/52/52 50/50/50 51/51/51
f 53/53/53 52/52/52 51/51/51
f 54/54/54 52/52/52 53/53/53
f 55/55/55 54/54/54 53/53/53
f 56/56/56 54/54/54 55/55/55
f 57/57/57 56/56/56 55/55/55
f 58/58/58 56/56/56 57/57/57
f 59/59/59 58/58/58 57/57/57
f 60/60/60 58/58/58 59/59/59
f 61/61/61 60/60/60 59/59/59
f 62/62/62 60/60/60 61/61/61
f 63/63/63 62/62/62 61/61/61
f 64/64/64 62/62/62 63/63/63
f 65/65/65 64/64/64 63/63/63
f 66/66/66 64/64/64 65/65/65
f 67/67/67 66/66/66 65/65/65
f 70/70/70 69/69/69 68/68/68
f 69/69/69 71/71/71 68/68/68
f 68/68/68 71/71/71 72/72/72
f 71/71/71 73/73/73 72/72/72
f 72/72/72 73/73/73 74/74/74
f 73/73/73 75/75/75 74/74/74
f 74/74/74 75/75/75 76/76/76
f 75/75/75 77/77/77 76/76/76
f 76/76/76 77/77/77 78/78/78
f 77/77/77 79/79/79 78/78/78
f 78/78/78 79/79/79 80/80/80
f 79/79/79 81/81/81 80/80/80
f 80/80/80 81/81/81 82/82/82
f 81/81/81 83/83/83 82/82/82
f 82/82/82 83/83/83 84/84/84
f 83/83/83 85/85/85 84/84/84
f 84/84/84 85/85/85 86/86/86
f 85/85/85 87/87/87 86/86/86
f 86/86/86 87/87/87 88/88/88
f 87/87/87 89/89/89 88/88/88
f 88/88/88 89/89/89 90/90/90
f 89/89/89 91/91/91 90/90/90
f 90/90/90 91/91/91 26/26/26
f 91/91/91 92/92/92 26/26/26
f 26/26/26 92/92/92 93/93/93
f 92/92/92 94/94/94 93/93/93
f 93/93/93 94/94/94 95/95/95
f 94/94/94 96/96/96 95/95/95
f 95/95/95 96/96/96 97/97/97
f 96/96/96 98/98/98 97/97/97
f 97/97/97 98/98/98 99/99/99
f 98/98/98 100/100/100 99/99/99
f 101/101/101 43/43/43 92/92/92
f 102/102/102 101/101/101 92/92/92
f 92/92/92 43/43/43 103/103/103
f 104/104/104 101/101/101 102/102/102
f 43/43/43 105/105/105 103/103/103
f 106/106/106 104/104/104 102/102/102
f 103/103/103 105/105/105 107/107/107
f 108/108/108 104/104/104 106/106/106
f 105/105/105 109/109/109 107/107/107
f 110/110/110 108/108/108 106/106/106
f 107/107/107 109/109/109 111/111/111
f 112/112/112 108/108/108 110/110/110
f 109/109/109 113/113/113 111/111/111
f 111/111/111 113/113/113 114/114/114
f 113/113/113 115/115/115 114/114/114
f 116/116/116 112/112/112 110/110/110
f 117/117/117 112/112/112 116/116/116
f 118/118/118 117/117/117 116/116/116
f 119/119/119 117/117/117 118/118/118
f 120/120/120 119/119/119 118/118/118
f 121/121/121 119/119/119 120/120/120
f 122/122/122 121/121/121 120/120/120
f 123/123/123 121/121/121 122/122/122
f 124/124/124 123/123/123 122/122/122
f 125/125/125 123/123/123 124/124/124
f 126/126/126 125/125/125 124/124/124
f 127/127/127 125/125/125 126/126/126
f 128/128/128 127/127/127 126/126/126
f 129/129/129 127/127/127 128/128/128
f 130/130/130 129/129/129 128/128/128
f 131/131/131 129/129/129 130/130/130
f 132/132/132 131/131/131 130/130/130
