g desert_graasMound03
v 1.4854372 0.038560968 -1.2007326
v 1.6146517 0 -1.4484757
v 2.116859 0 -0.7982087
v 1.9055176 0.038560968 -0.6706658
v 2.2840393 0 0.008954704
v 0.8818662 0.038560968 -1.482445
v 0.91143966 0 -1.7796242
v 2.0520477 0.038560968 0.020803958
v 2.0578618 0 0.86179805
v 0.0483042 0.038560968 -1.4428627
v -0.028198361 0 -1.7547244
v 1.8585283 0.038560968 0.7495433
v 1.6052103 0 1.5070462
v -0.77381253 0.038560968 -1.1781347
v -0.91927767 0 -1.4958441
v 1.4602762 0.038560968 1.291293
v 0.9760237 0 1.829849
v -1.3600272 0.038560968 -0.8113247
v -1.565311 0 -1.0840541
v 0.90567946 0.038560968 1.5246849
v 0.18189192 0 1.7836226
v -1.686551 0.038560968 -0.3541568
v -1.9809651 0 -0.50424725
v 0.2164334 0.038560968 1.4779537
v -0.6283492 0 1.5152227
v -1.7368853 0.038560968 0.14078796
v -2.0484962 0 0.13511315
v -0.5077952 0.038560968 1.2392168
v -1.3237381 0 1.1609735
v -1.5304935 0.038560968 0.58439565
v -1.8155146 0 0.7239929
v -1.1258185 0.038560968 0.93654543
v -1.2117219 0.09442969 -0.21523148
v -1.2457705 0.09442969 0.12696639
v -1.1033332 0.09442969 0.44141918
v -0.7957274 0.09442969 0.71424276
v -0.33508062 0.09442969 0.95056784
v 0.2162844 0.09442969 1.1310816
v -0.96606076 0.09442969 -0.5442223
v 0.7465577 0.09442969 1.1739535
v -0.500921 0.09442969 -0.8433044
v 1.1863631 0.09442969 0.9968996
v 0.12012005 0.09442969 -1.0711708
v 1.488744 0.09442969 0.5814919
v 0.7555771 0.09442969 -1.1092776
v 1.6239274 0.09442969 0.026357919
v 1.2131649 0.09442969 -0.89782536
v 1.5167975 0.09442969 -0.50385475
v -0.17838836 0.12594059 -0.4834941
v 0.15940368 0.12594059 -0.6048456
v 0.16871452 0.14675654 0.074718595
v -0.4456991 0.12594059 -0.30302286
v 0.51560163 0.12594059 -0.61113954
v -0.60347795 0.12594059 -0.10181099
v 0.79378545 0.12594059 -0.47641218
v -0.6342864 0.12594059 0.10049045
v 0.98279476 0.12594059 -0.2425453
v -0.5510932 0.12594059 0.29361904
v 1.0345447 0.12594059 0.057635903
v -0.36937356 0.12594059 0.46746448
v 0.96573114 0.12594059 0.37342295
v -0.114883184 0.12594059 0.61396956
v 0.78831375 0.12594059 0.6177521
v 0.19981027 0.12594059 0.71508676
v 0.51960886 0.12594059 0.73061883
vt 0.7188264 0.30386472
vt 0.73950076 0.26422584
vt 0.8198539 0.36826855
vt 0.78603935 0.3886754
vt 0.8466028 0.4974147
vt 0.6222551 0.25879073
vt 0.62698686 0.21124208
vt 0.8094841 0.49931055
vt 0.81041443 0.63386965
vt 0.4888851 0.2651239
vt 0.47664475 0.21522605
vt 0.77852106 0.61590886
vt 0.73799014 0.7371093
vt 0.35734648 0.3074804
vt 0.33407205 0.25664687
vt 0.7148007 0.7025888
vt 0.6373203 0.7887578
vt 0.26355213 0.36617
vt 0.23070675 0.3225333
vt 0.62606525 0.73993146
vt 0.5102593 0.7813616
vt 0.2113083 0.43931687
vt 0.1642021 0.4153024
vt 0.5157858 0.73245454
vt 0.3806206 0.7384175
vt 0.20325482 0.51850796
vt 0.15339708 0.51760006
vt 0.39990926 0.69425654
vt 0.2693584 0.68173766
vt 0.23627752 0.58948517
vt 0.19067413 0.6118208
vt 0.3010255 0.6458292
vt 0.28728098 0.46154487
vt 0.28183323 0.5162966
vt 0.3046232 0.566609
vt 0.3538401 0.6102607
vt 0.42754358 0.6480727
vt 0.515762 0.676955
vt 0.32658678 0.40890634
vt 0.6006057 0.6838145
vt 0.40100908 0.36105323
vt 0.6709746 0.65548587
vt 0.50037575 0.32459462
vt 0.7193556 0.5890206
vt 0.6020489 0.31849754
vt 0.7409849 0.5001992
vt 0.6752629 0.3523299
vt 0.7238442 0.41536522
vt 0.4526143 0.41862285
vt 0.50666106 0.39920664
vt 0.5081508 0.50793695
vt 0.40984464 0.44749826
vt 0.56365275 0.39819962
vt 0.38459998 0.47969216
vt 0.60816216 0.419756
vt 0.37967068 0.5120604
vt 0.63840365 0.45717466
vt 0.39298153 0.542961
vt 0.6466837 0.5052037
vt 0.42205667 0.5707762
vt 0.6356735 0.5557296
vt 0.46277517 0.59421706
vt 0.6072867 0.5948223
vt 0.51312613 0.6103958
vt 0.564294 0.61288095
vn 0.08836887 0.9903859 -0.10642687
vn 0.08341524 0.9902686 -0.11140048
vn 0.13850844 0.98808265 -0.06714359
vn 0.13035917 0.98975426 -0.058247995
vn 0.16345865 0.98654443 0.0033850179
vn 0.024859136 0.99111253 -0.13068232
vn 0.01976156 0.99201196 -0.12458566
vn 0.14660788 0.9891817 0.0050644237
vn 0.14821555 0.98648703 0.06982529
vn -0.023191625 0.9914506 -0.128405
vn -0.020623753 0.9929468 -0.116753146
vn 0.13568477 0.9888415 0.06150025
vn 0.09001279 0.98980623 0.11036869
vn -0.051599108 0.9925167 -0.11067169
vn -0.04549216 0.99366236 -0.10278862
vn 0.09159065 0.9900467 0.10685828
vn 0.022080058 0.9919784 0.1244635
vn -0.07974757 0.9932452 -0.08428763
vn -0.07448896 0.993711 -0.08360536
vn 0.023682455 0.99078196 0.1333806
vn -0.023655739 0.9920825 0.12334048
vn -0.10694648 0.9934269 -0.040809527
vn -0.10704663 0.9932318 -0.045073356
vn -0.027318766 0.9898642 0.13936493
vn -0.04854629 0.99176604 0.11850496
vn -0.11671562 0.99299365 0.018464431
vn -0.12048053 0.99261343 0.014246955
vn -0.055051513 0.98948926 0.1337174
vn -0.07143132 0.991735 0.10658054
vn -0.10193478 0.9919802 0.07473104
vn -0.102663286 0.9921625 0.071229935
vn -0.07661263 0.99047333 0.11442471
vn -0.08359912 0.9959014 -0.03451845
vn -0.089802995 0.9958372 0.0156107005
vn -0.08084959 0.9946883 0.06370828
vn -0.06453641 0.9928474 0.10044499
vn -0.048602853 0.9916952 0.119073056
vn -0.026064364 0.99180275 0.12509185
vn -0.0648316 0.9951762 -0.0736288
vn 0.015135636 0.99316204 0.1157592
vn -0.04539812 0.9941492 -0.09801248
vn 0.06595691 0.99440867 0.08246913
vn -0.02161292 0.99360055 -0.1108633
vn 0.09267445 0.9948035 0.042157695
vn 0.017436663 0.99406505 -0.10738138
vn 0.09926318 0.99505687 0.0029653255
vn 0.06276037 0.99487007 -0.0793393
vn 0.0895515 0.99513876 -0.040979877
vn -0.024416093 0.9983797 -0.05139948
vn -0.011269518 0.99839693 -0.05546544
vn -0.00029993162 0.9999999 -0.0005154205
vn -0.033803813 0.9986279 -0.03999624
vn 0.008027785 0.9986871 -0.05059379
vn -0.041649573 0.9989428 -0.019458374
vn 0.028016664 0.99896145 -0.035933163
vn -0.044518743 0.9989839 0.0070146853
vn 0.040754158 0.9990073 -0.01799149
vn -0.04057798 0.99866676 0.03190775
vn 0.045147263 0.9989792 0.0015068424
vn -0.033289548 0.9982002 0.049881455
vn 0.042365965 0.9989213 0.019009877
vn -0.024677187 0.99792933 0.059398036
vn 0.029965289 0.99881077 0.038459715
vn -0.012723428 0.9980028 0.061873715
vn 0.0070730452 0.99841857 0.05577051
g desert_graasMound03_0
f 3/3/3 2/2/2 1/1/1
f 4/4/4 3/3/3 1/1/1
f 5/5/5 3/3/3 4/4/4
f 1/1/1 2/2/2 6/6/6
f 2/2/2 7/7/7 6/6/6
f 8/8/8 5/5/5 4/4/4
f 9/9/9 5/5/5 8/8/8
f 6/6/6 7/7/7 10/10/10
f 7/7/7 11/11/11 10/10/10
f 12/12/12 9/9/9 8/8/8
f 13/13/13 9/9/9 12/12/12
f 10/10/10 11/11/11 14/14/14
f 11/11/11 15/15/15 14/14/14
f 16/16/16 13/13/13 12/12/12
f 17/17/17 13/13/13 16/16/16
f 14/14/14 15/15/15 18/18/18
f 15/15/15 19/19/19 18/18/18
f 20/20/20 17/17/17 16/16/16
f 21/21/21 17/17/17 20/20/20
f 18/18/18 19/19/19 22/22/22
f 19/19/19 23/23/23 22/22/22
f 24/24/24 21/21/21 20/20/20
f 25/25/25 21/21/21 24/24/24
f 22/22/22 23/23/23 26/26/26
f 23/23/23 27/27/27 26/26/26
f 28/28/28 25/25/25 24/24/24
f 29/29/29 25/25/25 28/28/28
f 26/26/26 27/27/27 30/30/30
f 27/27/27 31/31/31 30/30/30
f 31/31/31 29/29/29 32/32/32
f 32/32/32 29/29/29 28/28/28
f 30/30/30 31/31/31 32/32/32
f 18/18/18 22/22/22 33/33/33
f 22/22/22 26/26/26 34/34/34
f 33/33/33 22/22/22 34/34/34
f 26/26/26 30/30/30 35/35/35
f 34/34/34 26/26/26 35/35/35
f 30/30/30 32/32/32 36/36/36
f 35/35/35 30/30/30 36/36/36
f 32/32/32 28/28/28 37/37/37
f 36/36/36 32/32/32 37/37/37
f 28/28/28 24/24/24 38/38/38
f 37/37/37 28/28/28 38/38/38
f 39/39/39 18/18/18 33/33/33
f 14/14/14 18/18/18 39/39/39
f 38/38/38 24/24/24 40/40/40
f 24/24/24 20/20/20 40/40/40
f 41/41/41 14/14/14 39/39/39
f 10/10/10 14/14/14 41/41/41
f 40/40/40 20/20/20 42/42/42
f 20/20/20 16/16/16 42/42/42
f 43/43/43 10/10/10 41/41/41
f 6/6/6 10/10/10 43/43/43
f 42/42/42 16/16/16 44/44/44
f 16/16/16 12/12/12 44/44/44
f 45/45/45 6/6/6 43/43/43
f 1/1/1 6/6/6 45/45/45
f 44/44/44 12/12/12 46/46/46
f 12/12/12 8/8/8 46/46/46
f 47/47/47 1/1/1 45/45/45
f 4/4/4 1/1/1 47/47/47
f 8/8/8 4/4/4 48/48/48
f 46/46/46 8/8/8 48/48/48
f 48/48/48 4/4/4 47/47/47
f 41/41/41 49/49/49 43/43/43
f 43/43/43 50/50/50 45/45/45
f 49/49/49 50/50/50 43/43/43
f 49/49/49 51/51/51 50/50/50
f 52/52/52 49/49/49 41/41/41
f 52/52/52 51/51/51 49/49/49
f 39/39/39 52/52/52 41/41/41
f 50/50/50 53/53/53 45/45/45
f 45/45/45 53/53/53 47/47/47
f 50/50/50 51/51/51 53/53/53
f 54/54/54 52/52/52 39/39/39
f 54/54/54 51/51/51 52/52/52
f 33/33/33 54/54/54 39/39/39
f 53/53/53 55/55/55 47/47/47
f 47/47/47 55/55/55 48/48/48
f 53/53/53 51/51/51 55/55/55
f 56/56/56 54/54/54 33/33/33
f 56/56/56 51/51/51 54/54/54
f 34/34/34 56/56/56 33/33/33
f 55/55/55 57/57/57 48/48/48
f 55/55/55 51/51/51 57/57/57
f 58/58/58 51/51/51 56/56/56
f 58/58/58 56/56/56 34/34/34
f 57/57/57 51/51/51 59/59/59
f 48/48/48 57/57/57 46/46/46
f 57/57/57 59/59/59 46/46/46
f 35/35/35 58/58/58 34/34/34
f 46/46/46 59/59/59 44/44/44
f 60/60/60 58/58/58 35/35/35
f 60/60/60 51/51/51 58/58/58
f 36/36/36 60/60/60 35/35/35
f 59/59/59 61/61/61 44/44/44
f 59/59/59 51/51/51 61/61/61
f 44/44/44 61/61/61 42/42/42
f 62/62/62 60/60/60 36/36/36
f 62/62/62 51/51/51 60/60/60
f 37/37/37 62/62/62 36/36/36
f 61/61/61 63/63/63 42/42/42
f 61/61/61 51/51/51 63/63/63
f 42/42/42 63/63/63 40/40/40
f 64/64/64 62/62/62 37/37/37
f 64/64/64 51/51/51 62/62/62
f 38/38/38 64/64/64 37/37/37
f 40/40/40 65/65/65 38/38/38
f 63/63/63 65/65/65 40/40/40
f 63/63/63 51/51/51 65/65/65
f 65/65/65 64/64/64 38/38/38
f 65/65/65 51/51/51 64/64/64
