g desert_tree_trunk03_COL
v 0.8841792 10.996128 -0.119814806
v 0.68300915 10.828129 -0.105083734
v 0.9101916 10.773533 -0.3457537
v 0.8841792 10.996128 -0.119814806
v 0.9101916 10.880585 0.12614655
v 0.68300915 10.828129 -0.105083734
v 0.8841792 10.996128 -0.119814806
v 1.1519825 10.828076 -0.10531691
v 0.9101916 10.880585 0.12614655
v 0.8841792 10.996128 -0.119814806
v 0.9101916 10.773533 -0.3457537
v 1.1519825 10.828076 -0.10531691
v 0.9101916 10.880585 0.12614655
v 1.1519825 10.828076 -0.10531691
v 1.591621 10.079719 -0.18643849
v 1.0169321 10.204298 0.34655905
v 0.68300915 10.828129 -0.105083734
v 1.3707743 8.967682 -0.28099057
v 0.55077434 9.991423 -0.18674392
v 0.9101916 10.773533 -0.3457537
v 1.0169321 9.623677 -0.7939785
v 1.0175836 8.986854 0.062291924
v 1.1067086 6.0102057 -0.30259815
v 0.6823135 8.952853 -0.2810577
v 1.0176164 9.19437 -0.6657536
v 0.84432214 6.2536073 -0.020404834
v 0.5495814 6.2597423 -0.30266774
v 0.8378769 6.21694 -0.5848608
v 0.66409117 4.539732 -0.574851
v 0.6319853 4.5728884 0.07559012
v 1.1244522 4.400709 -0.25586572
v 0.7408035 1.2913575 -0.10809922
v 0.31212652 4.567104 -0.24331748
v 0.14042428 1.1286428 0.5648937
v 0.61237586 -0.26503322 -6.943359E-05
v 0.03025215 -0.20190564 0.5787229
v -0.4380223 1.1658146 -0.121587515
v 0.14632003 0.99894524 -0.74632955
v -0.5080737 -0.16072866 0.0016752811
v 0.030339323 -0.2772933 -0.58687204
v 0.9101916 10.773533 -0.3457537
v 1.591621 10.079719 -0.18643849
v 1.1519825 10.828076 -0.10531691
v 1.0169321 9.623677 -0.7939785
v 1.3707743 8.967682 -0.28099057
v 1.0176164 9.19437 -0.6657536
v 1.1067086 6.0102057 -0.30259815
v 0.8378769 6.21694 -0.5848608
v 0.66409117 4.539732 -0.574851
v 1.1244522 4.400709 -0.25586572
v 0.7408035 1.2913575 -0.10809922
v 0.14632003 0.99894524 -0.74632955
v 0.61237586 -0.26503322 -6.943359E-05
v 0.030339323 -0.2772933 -0.58687204
v 0.030339323 -0.2772933 -0.58687204
v -0.5080737 -0.16072866 0.0016752811
v 0.022399334 -0.49596038 0.020392783
v 0.61237586 -0.26503322 -6.943359E-05
v 0.03025215 -0.20190564 0.5787229
vt 0.45037952 0.9172976
vt 0.34375 0.84375
vt 0.5 1
vt 0.42433786 0.7920149
vt 0.5 0.6875
vt 0.34375 0.84375
vt 0.5496205 0.7659732
vt 0.65625 0.84375
vt 0.5 0.6875
vt 0.55044144 0.87377137
vt 0.5 1
vt 0.65625 0.84375
vt 0.53125 0.68843985
vt 0.59375 0.68843985
vt 0.59375 0.65253675
vt 0.53125 0.65253675
vt 0.46875 0.68843985
vt 0.59375 0.60404605
vt 0.46875 0.65253675
vt 0.40625 0.68843985
vt 0.40625 0.65253675
vt 0.53125 0.60404605
vt 0.59375 0.52580357
vt 0.46875 0.60404605
vt 0.40625 0.60404605
vt 0.53125 0.52580357
vt 0.46875 0.52580357
vt 0.40625 0.52580357
vt 0.40625 0.49438727
vt 0.53125 0.49438727
vt 0.59375 0.49438727
vt 0.59375 0.38902703
vt 0.46875003 0.49438727
vt 0.53125 0.38902703
vt 0.59375 0.3125
vt 0.53125 0.3125
vt 0.46875 0.38902703
vt 0.40625 0.38902703
vt 0.46875 0.3125
vt 0.40625 0.3125
vt 0.40625 0.68843985
vt 0.59375 0.65253675
vt 0.59375 0.68843985
vt 0.40625 0.65253675
vt 0.59375 0.60404605
vt 0.40625 0.60404605
vt 0.59375 0.52580357
vt 0.40625 0.52580357
vt 0.40625 0.49438727
vt 0.59375 0.49438727
vt 0.59375 0.38902703
vt 0.40625 0.38902703
vt 0.59375 0.3125
vt 0.40625 0.3125
vt 0.5 1.4901161E-08
vt 0.34375 0.15625
vt 0.5 0.1513021
vt 0.65625 0.15625
vt 0.5 0.3125
vn -0.024911363 0.979879 -0.19803196
vn -0.97769475 0.20941968 -0.016014548
vn -0.060221642 0.3816948 -0.9223244
vn -0.024911363 0.979879 -0.19803196
vn -0.0952279 0.32875222 0.93960285
vn -0.97769475 0.20941968 -0.016014548
vn -0.024911363 0.979879 -0.19803196
vn 0.8461083 0.5087972 -0.15882763
vn -0.0952279 0.32875222 0.93960285
vn -0.024911363 0.979879 -0.19803196
vn -0.060221642 0.3816948 -0.9223244
vn 0.8461083 0.5087972 -0.15882763
vn -0.0952279 0.32875222 0.93960285
vn 0.8461083 0.5087972 -0.15882763
vn 0.9924413 0.118961215 0.030140065
vn 0.04816359 -0.014025097 0.998741
vn -0.97769475 0.20941968 -0.016014548
vn 0.9916224 -0.12889937 -0.008368211
vn -0.9974808 -0.002744401 0.070883974
vn -0.060221642 0.3816948 -0.9223244
vn 0.040202003 0.049540564 -0.9979627
vn 0.04186339 -0.11562146 0.9924108
vn 0.99789387 -0.062428694 -0.0176254
vn -0.999879 -0.015484045 -0.0014582695
vn 0.05300612 -0.079336315 -0.9954377
vn 0.0623662 0.002013344 0.9980513
vn -0.996539 0.07751638 -0.03002269
vn 0.060726386 -0.012220888 -0.99807966
vn -0.029559646 0.02886374 -0.9991462
vn -0.02316471 0.109935984 0.99366874
vn 0.99730057 -0.07077594 0.019552777
vn 0.9961893 -0.08663498 0.010066787
vn -0.97834903 0.20388027 -0.03558125
vn -0.04295156 0.097523704 0.9943059
vn 0.9795888 -0.19944085 0.02508212
vn 0.032068983 -0.06986689 0.9970407
vn -0.9852691 0.16501372 -0.04489062
vn -0.038469072 -0.014377382 -0.99915636
vn -0.99833316 -0.054836947 0.017995661
vn 0.037056223 -0.21745673 -0.97536623
vn -0.060221642 0.3816948 -0.9223244
vn 0.9924413 0.118961215 0.030140065
vn 0.8461083 0.5087972 -0.15882763
vn 0.040202003 0.049540564 -0.9979627
vn 0.9916224 -0.12889937 -0.008368211
vn 0.05300612 -0.079336315 -0.9954377
vn 0.99789387 -0.062428694 -0.0176254
vn 0.060726386 -0.012220888 -0.99807966
vn -0.029559646 0.02886374 -0.9991462
vn 0.99730057 -0.07077594 0.019552777
vn 0.9961893 -0.08663498 0.010066787
vn -0.038469072 -0.014377382 -0.99915636
vn 0.9795888 -0.19944085 0.02508212
vn 0.037056223 -0.21745673 -0.97536623
vn 0.037056223 -0.21745673 -0.97536623
vn -0.99833316 -0.054836947 0.017995661
vn -0.083870605 -0.9943996 0.06430455
vn 0.9795888 -0.19944085 0.02508212
vn 0.032068983 -0.06986689 0.9970407
g desert_tree_trunk03_COL_0
f 3/3/3 2/2/2 1/1/1
f 6/6/6 5/5/5 4/4/4
f 9/9/9 8/8/8 7/7/7
f 12/12/12 11/11/11 10/10/10
f 15/15/15 14/14/14 13/13/13
f 16/16/16 15/15/15 13/13/13
f 16/16/16 13/13/13 17/17/17
f 18/18/18 15/15/15 16/16/16
f 19/19/19 16/16/16 17/17/17
f 19/19/19 17/17/17 20/20/20
f 21/21/21 19/19/19 20/20/20
f 22/22/22 18/18/18 16/16/16
f 22/22/22 16/16/16 19/19/19
f 23/23/23 18/18/18 22/22/22
f 24/24/24 19/19/19 21/21/21
f 24/24/24 22/22/22 19/19/19
f 25/25/25 24/24/24 21/21/21
f 26/26/26 23/23/23 22/22/22
f 26/26/26 22/22/22 24/24/24
f 27/27/27 24/24/24 25/25/25
f 27/27/27 26/26/26 24/24/24
f 28/28/28 27/27/27 25/25/25
f 28/28/28 29/29/29 27/27/27
f 26/26/26 30/30/30 23/23/23
f 30/30/30 31/31/31 23/23/23
f 32/32/32 31/31/31 30/30/30
f 27/27/27 33/33/33 26/26/26
f 29/29/29 33/33/33 27/27/27
f 33/33/33 30/30/30 26/26/26
f 34/34/34 32/32/32 30/30/30
f 34/34/34 30/30/30 33/33/33
f 35/35/35 32/32/32 34/34/34
f 36/36/36 35/35/35 34/34/34
f 37/37/37 33/33/33 29/29/29
f 37/37/37 34/34/34 33/33/33
f 36/36/36 34/34/34 37/37/37
f 38/38/38 37/37/37 29/29/29
f 39/39/39 36/36/36 37/37/37
f 39/39/39 37/37/37 38/38/38
f 40/40/40 39/39/39 38/38/38
f 43/43/43 42/42/42 41/41/41
f 42/42/42 44/44/44 41/41/41
f 42/42/42 45/45/45 44/44/44
f 45/45/45 46/46/46 44/44/44
f 45/45/45 47/47/47 46/46/46
f 47/47/47 48/48/48 46/46/46
f 49/49/49 48/48/48 47/47/47
f 50/50/50 49/49/49 47/47/47
f 50/50/50 51/51/51 49/49/49
f 51/51/51 52/52/52 49/49/49
f 51/51/51 53/53/53 52/52/52
f 53/53/53 54/54/54 52/52/52
f 57/57/57 56/56/56 55/55/55
f 58/58/58 57/57/57 55/55/55
f 57/57/57 59/59/59 56/56/56
f 57/57/57 58/58/58 59/59/59
