g exterior_shell_mid_COL1
v -9.51932 15.260049 -5
v -9.51932 15.260049 4.999999
v -11.451761 13.337772 4.999999
v -11.451761 13.337772 -5
v -13.102221 11.087075 4.999999
v -13.102221 11.087075 -5
v -14.43006 8.563376 4.999999
v -14.43006 8.563376 -5
v -15.402585 5.828821 4.999999
v -15.402585 5.828821 -5
v -15.995847 2.9507406 4.999999
v -15.995847 2.9507406 -5
v -16.195236 3.0917954E-06 4.999999
v -16.195236 3.0917954E-06 -5
vt 0.45624992 0.3125
vt 0.45624992 0.68843985
vt 0.46249992 0.68843985
vt 0.46249992 0.3125
vt 0.4687499 0.68843985
vt 0.4687499 0.3125
vt 0.4749999 0.68843985
vt 0.4749999 0.3125
vt 0.4812499 0.68843985
vt 0.4812499 0.3125
vt 0.4874999 0.68843985
vt 0.4874999 0.3125
vt 0.4937499 0.68843985
vt 0.4937499 0.3125
vn -0.64596134 0.76337004 0
vn -0.64596134 0.76337004 0
vn -0.7587113 0.65142703 0
vn -0.7587113 0.65142703 0
vn -0.84845304 0.5292705 0
vn -0.84845304 0.5292705 0
vn -0.91616505 0.40080115 0
vn -0.91616505 0.40080115 0
vn -0.9632199 0.2687144 0
vn -0.9632199 0.2687144 0
vn -0.9908799 0.13474812 0
vn -0.9908799 0.13474812 0
vn -0.9977247 0.067419186 0
vn -0.9977247 0.067419186 0
g exterior_shell_mid_COL1_0
f 3/3/3 2/2/2 1/1/1
f 4/4/4 3/3/3 1/1/1
f 5/5/5 3/3/3 4/4/4
f 6/6/6 5/5/5 4/4/4
f 7/7/7 5/5/5 6/6/6
f 8/8/8 7/7/7 6/6/6
f 9/9/9 7/7/7 8/8/8
f 10/10/10 9/9/9 8/8/8
f 11/11/11 9/9/9 10/10/10
f 12/12/12 11/11/11 10/10/10
f 13/13/13 11/11/11 12/12/12
f 14/14/14 13/13/13 12/12/12
