g exterior_arch2_COL
v -9.03145 14.073976 -0.47483984
v -8.031369 14.547771 0.56758565
v -7.8847537 14.869565 -0.4748398
v -9.03145 13.980936 0.52339125
v -10.864852 12.3011055 -0.47483984
v -10.864852 12.3011055 0.47483984
v -12.430725 10.225341 -0.47483984
v -12.430725 10.225341 0.47483984
v -13.690513 7.897795 -0.47483984
v -13.690513 7.897795 0.47483984
v -14.613193 5.3757787 -0.47483984
v -14.613193 5.3757787 0.47483984
v -15.176049 2.7213933 -0.47483984
v -15.176049 2.7213933 0.47483984
v -15.26934 -2.3640384E-06 -0.7169906
v -15.26934 -2.3640384E-06 0.7169906
v -9.03145 13.980936 0.52339125
v -8.171811 14.81262 0.56758505
v -8.031369 14.547771 0.56758565
v -9.192317 14.231616 0.52339125
v -10.864852 12.3011055 0.47483984
v -11.058373 12.520207 0.47483984
v -12.430725 10.225341 0.47483984
v -12.652137 10.407469 0.47483984
v -13.690513 7.897795 0.47483984
v -13.934363 8.038466 0.47483984
v -14.613193 5.3757787 0.47483984
v -14.873479 5.471528 0.47483984
v -15.176049 2.7213933 0.47483984
v -15.446361 2.769863 0.47483984
v -15.26934 -2.3640384E-06 0.7169906
v -15.592231 -5.5723763E-06 0.7169906
v -9.192317 14.231616 0.52339125
v -8.025196 15.134414 -0.47483984
v -8.171811 14.81262 0.56758505
v -9.192317 14.324656 -0.47483984
v -11.058373 12.520207 0.47483984
v -11.058373 12.520207 -0.47483984
v -12.652137 10.407469 0.47483984
v -12.652137 10.407469 -0.47483984
v -13.934363 8.038466 0.47483984
v -13.934363 8.038466 -0.47483984
v -14.873479 5.471528 0.47483984
v -14.873479 5.471528 -0.47483984
v -15.446361 2.769863 0.47483984
v -15.446361 2.769863 -0.47483984
v -15.592231 -5.5723763E-06 0.7169906
v -15.592231 -5.5723763E-06 -0.7169906
v -9.192317 14.324656 -0.47483984
v -7.8847537 14.869565 -0.4748398
v -8.025196 15.134414 -0.47483984
v -9.03145 14.073976 -0.47483984
v -11.058373 12.520207 -0.47483984
v -10.864852 12.3011055 -0.47483984
v -12.652137 10.407469 -0.47483984
v -12.430725 10.225341 -0.47483984
v -13.934363 8.038466 -0.47483984
v -13.690513 7.897795 -0.47483984
v -14.873479 5.471528 -0.47483984
v -14.613193 5.3757787 -0.47483984
v -15.446361 2.769863 -0.47483984
v -15.176049 2.7213933 -0.47483984
v -15.592231 -5.5723763E-06 -0.7169906
v -15.26934 -2.3640384E-06 -0.7169906
v -8.025196 15.134414 -0.47483984
v -7.8847537 14.869565 -0.4748398
v -8.031369 14.547771 0.56758565
v -8.171811 14.81262 0.56758505
vt 0.35000005 1
vt 0.3360553 0.75
vt 0.3360553 1
vt 0.35000005 0.75
vt 0.37500006 1
vt 0.37500006 0.75
vt 0.40000007 1
vt 0.40000007 0.75
vt 0.42500007 1
vt 0.42500007 0.75
vt 0.45000008 1
vt 0.45000008 0.75
vt 0.47500008 1
vt 0.47500008 0.75
vt 0.50000006 1
vt 0.50000006 0.75
vt 0.35000005 0.75
vt 0.3360553 0.5
vt 0.3360553 0.75
vt 0.35000005 0.5
vt 0.37500006 0.75
vt 0.37500006 0.5
vt 0.40000007 0.75
vt 0.40000007 0.5
vt 0.42500007 0.75
vt 0.42500007 0.5
vt 0.45000008 0.75
vt 0.45000008 0.5
vt 0.47500008 0.75
vt 0.47500008 0.5
vt 0.50000006 0.75
vt 0.50000006 0.5
vt 0.35000005 0.5
vt 0.3360553 0.25
vt 0.3360553 0.5
vt 0.35000005 0.25
vt 0.37500006 0.5
vt 0.37500006 0.25
vt 0.40000007 0.5
vt 0.40000007 0.25
vt 0.42500007 0.5
vt 0.42500007 0.25
vt 0.45000008 0.5
vt 0.45000008 0.25
vt 0.47500008 0.5
vt 0.47500008 0.25
vt 0.50000006 0.5
vt 0.50000006 0.25
vt 0.35000005 0.25
vt 0.3360553 0
vt 0.3360553 0.25
vt 0.35000005 0
vt 0.37500006 0.25
vt 0.37500006 0
vt 0.40000007 0.25
vt 0.40000007 0
vt 0.42500007 0.25
vt 0.42500007 0
vt 0.45000008 0.25
vt 0.45000008 0
vt 0.47500008 0.25
vt 0.47500008 0
vt 0.50000006 0.25
vt 0.50000006 0
vt 0.3360553 0.25
vt 0.32500005 0.25
vt 0.32500005 0.5
vt 0.3360553 0.5
vn 0.63295895 -0.7709675 -0.070513904
vn 0.5331078 -0.8357509 -0.13159223
vn 0.5331079 -0.8357509 -0.13159224
vn 0.63659877 -0.7681805 -0.06812258
vn 0.7447726 -0.6670918 -0.01738508
vn 0.74442255 -0.6674797 -0.017492766
vn 0.84161633 -0.54007596 0
vn 0.84161633 -0.54007596 0
vn 0.91191 -0.41039044 0
vn 0.91191 -0.41039044 0
vn 0.96120137 -0.27584782 0
vn 0.96120137 -0.27584782 0
vn 0.9940446 -0.10897437 0
vn 0.9940446 -0.10897437 0
vn 0.9994129 -0.034260098 0
vn 0.9994129 -0.034260098 0
vn -0.02080804 -0.013990896 0.99968565
vn -0.032816943 -0.019179257 0.9992774
vn -0.03281694 -0.019179255 0.9992774
vn -0.021376623 -0.014236568 0.99967015
vn -0.0071611465 -0.0054020896 0.9999598
vn -0.008248769 -0.0062225587 0.9999466
vn -0 0 1
vn -0 0 1
vn -0 0 1
vn -0 0 1
vn -0 0 1
vn -0 0 1
vn 0.0038562326 0.047199298 0.99887806
vn 0.0036255494 0.044375855 0.99900836
vn 0.0071523837 0.08754249 0.9961351
vn 0.007152384 0.087542504 0.9961351
vn -0.6368907 0.7679418 0.068085864
vn -0.5337345 0.8353702 0.1314692
vn -0.53373444 0.8353703 0.13146919
vn -0.6332316 0.77074534 0.070493914
vn -0.7444997 0.66739374 0.017488701
vn -0.744843 0.6670133 0.01738296
vn -0.84161633 0.54007584 0
vn -0.84161633 0.54007584 0
vn -0.91191 0.41039044 0
vn -0.91191 0.41039044 0
vn -0.96120125 0.27584785 0
vn -0.96120125 0.27584785 0
vn -0.99284667 0.119396135 0
vn -0.99284667 0.119396135 0
vn -0.9986162 0.052590054 0
vn -0.9986162 0.052590054 0
vn -0 0 -1
vn -0 0 -1
vn -0 0 -1
vn -0 0 -1
vn -0 0 -1
vn -0 0 -1
vn -0 0 -1
vn -0 0 -1
vn -0 0 -1
vn -0 0 -1
vn -0 0 -1
vn -0 0 -1
vn 0.00362561 0.04437586 -0.99900836
vn 0.0038562976 0.0471993 -0.99887806
vn 0.0071525043 0.08754251 -0.9961351
vn 0.0071525034 0.08754249 -0.9961351
vn 0.8531717 0.45241207 0.25965607
vn 0.8531717 0.45241207 0.25965607
vn 0.8531717 0.45241207 0.25965607
vn 0.8531717 0.45241207 0.25965607
g exterior_arch2_COL_0
f 3/3/3 2/2/2 1/1/1
f 2/2/2 4/4/4 1/1/1
f 1/1/1 4/4/4 5/5/5
f 4/4/4 6/6/6 5/5/5
f 5/5/5 6/6/6 7/7/7
f 6/6/6 8/8/8 7/7/7
f 7/7/7 8/8/8 9/9/9
f 8/8/8 10/10/10 9/9/9
f 9/9/9 10/10/10 11/11/11
f 10/10/10 12/12/12 11/11/11
f 11/11/11 12/12/12 13/13/13
f 12/12/12 14/14/14 13/13/13
f 13/13/13 14/14/14 15/15/15
f 14/14/14 16/16/16 15/15/15
f 19/19/19 18/18/18 17/17/17
f 18/18/18 20/20/20 17/17/17
f 17/17/17 20/20/20 21/21/21
f 20/20/20 22/22/22 21/21/21
f 21/21/21 22/22/22 23/23/23
f 22/22/22 24/24/24 23/23/23
f 23/23/23 24/24/24 25/25/25
f 24/24/24 26/26/26 25/25/25
f 25/25/25 26/26/26 27/27/27
f 26/26/26 28/28/28 27/27/27
f 27/27/27 28/28/28 29/29/29
f 28/28/28 30/30/30 29/29/29
f 29/29/29 30/30/30 31/31/31
f 30/30/30 32/32/32 31/31/31
f 35/35/35 34/34/34 33/33/33
f 34/34/34 36/36/36 33/33/33
f 33/33/33 36/36/36 37/37/37
f 36/36/36 38/38/38 37/37/37
f 37/37/37 38/38/38 39/39/39
f 38/38/38 40/40/40 39/39/39
f 39/39/39 40/40/40 41/41/41
f 40/40/40 42/42/42 41/41/41
f 41/41/41 42/42/42 43/43/43
f 42/42/42 44/44/44 43/43/43
f 43/43/43 44/44/44 45/45/45
f 44/44/44 46/46/46 45/45/45
f 45/45/45 46/46/46 47/47/47
f 46/46/46 48/48/48 47/47/47
f 51/51/51 50/50/50 49/49/49
f 50/50/50 52/52/52 49/49/49
f 49/49/49 52/52/52 53/53/53
f 52/52/52 54/54/54 53/53/53
f 53/53/53 54/54/54 55/55/55
f 54/54/54 56/56/56 55/55/55
f 55/55/55 56/56/56 57/57/57
f 56/56/56 58/58/58 57/57/57
f 57/57/57 58/58/58 59/59/59
f 58/58/58 60/60/60 59/59/59
f 59/59/59 60/60/60 61/61/61
f 60/60/60 62/62/62 61/61/61
f 61/61/61 62/62/62 63/63/63
f 62/62/62 64/64/64 63/63/63
f 67/67/67 66/66/66 65/65/65
f 68/68/68 67/67/67 65/65/65
