g exterior_plate5
v -9.097893 14.051926 0.51438475
v -10.237518 13.014915 1.715459
v -9.100095 14.049918 1.4130175
v -10.234977 13.016577 0.514375
v -9.189337 13.968717 -1.8877646
v -10.139399 13.104198 -1.82954
v -10.391653 13.048342 0.5143701
v -11.544778 11.751728 1.7730908
v -10.391995 13.04868 1.7154492
v -11.54442 11.751443 0.5143701
v -10.391995 13.04868 -2.0950682
v -11.544778 11.751728 -2.009453
v -11.883656 11.279373 0.39726073
v -11.883656 11.279373 -2.1647558
v -12.580947 10.310654 -2.1647558
v -12.580947 10.310654 0.5143701
v -9.210248 14.123959 -2.931123
v -10.306096 13.125632 -2.931123
v -10.391995 13.04868 -2.0950682
v -9.11151 14.213911 -2.1647558
v -11.883656 11.279373 -2.1647558
v -11.957599 11.176648 -2.9936962
v -12.507004 10.41338 -2.949287
v -12.580947 10.310654 -2.1647558
v -9.345308 14.470548 0.5143701
v -9.345308 14.470548 1.729956
v -10.638633 13.29232 1.5522705
v -10.638633 13.29232 0.5143701
v -9.345308 14.470548 -2.1647558
v -11.815397 11.968458 1.5522705
v -10.638633 13.292321 -2.250371
v -9.345308 14.470548 -3.0705762
v -10.638633 13.29232 -3.0705762
v -11.815397 11.968458 0.5143701
v -11.815397 11.968458 -2.1647558
v -12.165419 11.48219 0.5143701
v -12.165419 11.48219 -2.1647558
v -12.86271 10.513469 -2.1647558
v -12.86271 10.513469 0.5143701
v -12.86271 10.513469 -3.0142138
v -12.165419 11.48219 -3.0705762
v -9.345308 14.470548 1.729956
v -9.111508 14.213912 1.4129688
v -10.391995 13.04868 1.7154492
v -10.638633 13.29232 1.5522705
v -11.815397 11.968458 1.5522705
v -11.544778 11.751728 1.7730908
v -9.345308 14.470548 1.729956
v -9.111509 14.213912 0.5143701
v -9.111508 14.213912 1.4129688
v -9.345308 14.470548 0.5143701
v -9.11151 14.213911 -2.1647558
v -9.345308 14.470548 -2.1647558
v -9.210248 14.123959 -2.931123
v -9.345308 14.470548 -3.0705762
v -12.165419 11.48219 0.5143701
v -11.815397 11.968458 1.5522705
v -11.544778 11.751728 1.7730908
v -11.883656 11.279373 0.39726073
v -10.638633 13.292321 -2.250371
v -11.544778 11.751728 -2.009453
v -10.391995 13.04868 -2.0950682
v -11.815397 11.968458 -2.1647558
v -11.883656 11.279373 -2.1647558
v -12.165419 11.48219 -2.1647558
v -9.345308 14.470548 -3.0705762
v -10.638633 13.29232 -3.0705762
v -10.306096 13.125632 -2.931123
v -9.210248 14.123959 -2.931123
v -10.638633 13.29232 -3.0705762
v -10.638633 13.292321 -2.250371
v -10.391995 13.04868 -2.0950682
v -10.306096 13.125632 -2.931123
v -12.165419 11.48219 -2.1647558
v -12.165419 11.48219 -3.0705762
v -11.957599 11.176648 -2.9936962
v -11.883656 11.279373 -2.1647558
v -12.165419 11.48219 -3.0705762
v -12.86271 10.513469 -3.0142138
v -12.507004 10.41338 -2.949287
v -11.957599 11.176648 -2.9936962
v -12.86271 10.513469 -3.0142138
v -12.580947 10.310654 -2.1647558
v -12.507004 10.41338 -2.949287
v -12.86271 10.513469 -2.1647558
v -12.580947 10.310654 0.5143701
v -12.86271 10.513469 0.5143701
v -12.86271 10.513469 0.5143701
v -12.165419 11.48219 0.5143701
v -11.883656 11.279373 0.39726073
v -12.580947 10.310654 0.5143701
v -9.111509 14.213912 0.5143701
v -9.100095 14.049918 1.4130175
v -9.111508 14.213912 1.4129688
v -9.097893 14.051926 0.51438475
v -9.11151 14.213911 -2.1647558
v -9.189337 13.968717 -1.8877646
v -9.111508 14.213912 2.8561554
v -9.100095 14.049918 2.8561554
v -10.237518 13.014915 2.8561602
v -10.391995 13.04868 2.8561602
v -10.391995 13.04868 1.7154492
v -10.237518 13.014915 1.715459
v -10.234977 13.016577 0.514375
v -10.391653 13.048342 0.5143701
v -10.139399 13.104198 -1.82954
v -10.391995 13.04868 -2.0950682
v -10.391995 13.04868 -2.0950682
v -10.139399 13.104198 -1.82954
v -9.189337 13.968717 -1.8877646
v -9.11151 14.213911 -2.1647558
v -9.111508 14.213912 1.4129688
v -9.111508 14.213912 2.8561554
v -10.391995 13.04868 2.8561602
v -10.391995 13.04868 1.7154492
v -10.391995 13.04868 1.7154492
v -10.391995 13.04868 2.8561602
v -10.237518 13.014915 2.8561602
v -10.237518 13.014915 1.715459
v -10.237518 13.014915 1.715459
v -10.237518 13.014915 2.8561602
v -9.100095 14.049918 2.8561554
v -9.100095 14.049918 1.4130175
v -9.100095 14.049918 1.4130175
v -9.100095 14.049918 2.8561554
v -9.111508 14.213912 2.8561554
v -9.111508 14.213912 1.4129688
vt 0.58226883 0.44766155
vt 0.55240595 0.46578315
vt 0.58226895 0.46725723
vt 0.55241406 0.44766155
vt 0.58226883 0.403538
vt 0.55240595 0.403538
vt 0.55241406 0.44766155
vt 0.5255213 0.46805832
vt 0.55240595 0.46578315
vt 0.5255296 0.44766155
vt 0.55240595 0.403538
vt 0.5255213 0.403538
vt 0.51761806 0.46928126
vt 0.51761806 0.4251577
vt 0.5013562 0.4251577
vt 0.5013562 0.46928126
vt 0.7198489 0.46971005
vt 0.68968666 0.46823597
vt 0.689986 0.4547917
vt 0.7198489 0.4547917
vt 0.6551981 0.4547917
vt 0.6551981 0.46971005
vt 0.6389362 0.46878183
vt 0.6389362 0.4547917
vt 0.73122984 0.5330583
vt 0.73122984 0.49823213
vt 0.70033085 0.49823213
vt 0.70033085 0.5330583
vt 0.73122984 0.60331833
vt 0.6656126 0.49823213
vt 0.70033085 0.60331833
vt 0.73122984 0.6270736
vt 0.70033085 0.6270736
vt 0.6656126 0.5330583
vt 0.6656126 0.60331833
vt 0.65286005 0.5330583
vt 0.65286005 0.60331833
vt 0.62745535 0.60331833
vt 0.62745535 0.5330583
vt 0.62745535 0.62559545
vt 0.65286005 0.6270736
vt -0.45913124 0.49856386
vt -0.45864558 0.43336082
vt -0.6171059 0.43881544
vt -0.61842656 0.49892044
vt -0.77507323 0.49900725
vt -0.7744717 0.44012567
vt -0.45913124 0.49856386
vt -0.45864558 0.43336082
vt -0.45864558 0.43336082
vt -0.45913124 0.49856386
vt -0.45864558 0.43336082
vt -0.45913124 0.49856386
vt -0.4586457 0.43336082
vt -0.45913124 0.49856386
vt -0.8265458 0.498946
vt -0.77507323 0.49900725
vt -0.7744717 0.44012567
vt -0.82556224 0.439188
vt -0.61842656 0.49892044
vt -0.7744717 0.44012567
vt -0.6171059 0.43881544
vt -0.77507323 0.49900725
vt -0.82556224 0.439188
vt -0.8265458 0.498946
vt -0.45913124 0.49856386
vt -0.61842656 0.49892044
vt -0.61748886 0.438851
vt -0.4586457 0.43336082
vt -0.61842656 0.49892044
vt -0.61842656 0.49892044
vt -0.6171059 0.43881544
vt -0.61748886 0.438851
vt -0.8265458 0.498946
vt -0.8265458 0.498946
vt -0.82556224 0.439188
vt -0.82556224 0.439188
vt -0.8265458 0.498946
vt -0.9301714 0.49882376
vt -0.92939514 0.43730518
vt -0.82556224 0.439188
vt -0.9301714 0.49882376
vt -0.92939514 0.43730518
vt -0.92939514 0.43730518
vt -0.9301714 0.49882376
vt -0.92939514 0.43730518
vt -0.9301714 0.49882376
vt -0.9301714 0.49882376
vt -0.8265458 0.498946
vt -0.82556224 0.439188
vt -0.92939514 0.43730518
vt 0.58226883 0.44766155
vt 0.58226895 0.46725723
vt 0.58226895 0.46725723
vt 0.58226883 0.44766155
vt 0.58226883 0.403538
vt 0.58226883 0.403538
vt 0.628877 0.41970563
vt 0.62832797 0.4202134
vt 0.6271462 0.42900145
vt 0.6275464 0.42959917
vt 0.55240595 0.46578315
vt 0.55240595 0.46578315
vt 0.55241406 0.44766155
vt 0.55241406 0.44766155
vt 0.55240595 0.403538
vt 0.55240595 0.403538
vt 0.55240595 0.403538
vt 0.55240595 0.403538
vt 0.58226883 0.403538
vt 0.58226883 0.403538
vt 0.62468445 0.41921204
vt 0.628877 0.41970563
vt 0.6275464 0.42959917
vt 0.62468445 0.42926228
vt 0.62468445 0.42926228
vt 0.6275464 0.42959917
vt 0.6271462 0.42900145
vt 0.62428427 0.42866457
vt 0.62428427 0.42866457
vt 0.6271462 0.42900145
vt 0.62832797 0.4202134
vt 0.6241357 0.41971987
vt 0.6241357 0.41971987
vt 0.62832797 0.4202134
vt 0.628877 0.41970563
vt 0.62468445 0.41921204
vn 0.6731507 -0.7395053 8.406176E-06
vn 0.6730738 -0.73957527 8.851486E-05
vn 0.6730902 -0.7395604 0.00011666572
vn 0.67315084 -0.73950523 8.860857E-06
vn 0.67314845 -0.7395073 -0.00010101928
vn 0.67314845 -0.7395073 -0.0001010193
vn 0.74742216 -0.66434944 0
vn 0.75034714 -0.66104394 0.00038149458
vn 0.74742687 -0.66434395 0.00038218347
vn 0.76140803 -0.64827305 4.070714E-06
vn 0.7474199 -0.66435194 -0.00018313799
vn 0.76594794 -0.6429026 -0.00015791976
vn 0.81185055 -0.5838653 -1.2967313E-05
vn 0.8117767 -0.583968 -2.1632846E-05
vn 0.8116086 -0.5842015 0
vn 0.8116088 -0.58420134 0
vn 0.67323655 -0.739427 0.00060425233
vn 0.67323655 -0.73942703 0.0006042523
vn 0.67323655 -0.739427 0.0006042522
vn 0.67323655 -0.73942703 0.0006042523
vn 0.8117767 -0.583968 -2.1632846E-05
vn 0.8116081 -0.5842023 -1.1344896E-07
vn 0.8116081 -0.5842023 -1.1344894E-07
vn 0.8116086 -0.5842015 0
vn -0.6734478 0.7392348 2.3205106E-07
vn -0.6734477 0.73923486 0
vn -0.7089652 0.70524347 0
vn -0.7112105 0.7029792 2.3365277E-07
vn -0.6734478 0.7392348 0
vn -0.7510355 0.66026175 0
vn -0.70628077 0.70793194 1.3086796E-07
vn -0.6734478 0.7392348 -1.0348508E-06
vn -0.6734478 0.7392348 -1.0348508E-06
vn -0.76245147 0.6470453 1.823662E-07
vn -0.76382697 0.6454211 2.4519963E-07
vn -0.8116084 0.584202 0
vn -0.81160843 0.58420175 0
vn -0.81160885 0.5842012 0
vn -0.81160885 0.58420116 0
vn -0.81160885 0.5842012 0
vn -0.81160885 0.58420134 0
vn 0.47561496 -0.35831356 0.8033691
vn 0.5447044 -0.4084491 0.7324387
vn -0.30809435 0.27366394 0.9111453
vn -0.3525853 0.30640244 0.88419515
vn -0.3528821 0.33289614 0.8744452
vn -0.3528821 0.33289614 0.8744452
vn 0.73923093 0.67345196 -1.0644129E-06
vn 0.7392329 0.67344993 -6.0231156E-07
vn 0.73923093 0.673452 -1.0644129E-06
vn 0.73923284 0.6734499 -6.023115E-07
vn 0.77153057 0.6359092 -0.018972162
vn 0.77153057 0.63590926 -0.018972155
vn 0.85846555 0.5069116 -0.07795789
vn 0.8584657 0.5069115 -0.07795791
vn -0.59451765 -0.6745815 0.43759403
vn -0.59451765 -0.6745815 0.4375941
vn -0.5945176 -0.6745815 0.4375941
vn -0.59451765 -0.67458147 0.43759406
vn 0.27600273 -0.30488294 -0.91152006
vn 0.2726529 -0.2419571 -0.9311913
vn 0.27600273 -0.30488294 -0.91152006
vn 0.27252206 -0.23986307 -0.93177116
vn 0.25289357 -0.025050046 -0.9671698
vn 0.25289357 -0.025050042 -0.9671698
vn 0.251022 -0.27554336 -0.92793524
vn 0.25102195 -0.2755433 -0.92793524
vn 0.251022 -0.27554333 -0.92793524
vn 0.251022 -0.27554336 -0.92793524
vn -0.5537589 -0.8299544 -0.06728181
vn -0.5537589 -0.8299544 -0.06728182
vn -0.553759 -0.8299543 -0.067281805
vn -0.55375886 -0.8299544 -0.067281805
vn 0.7238198 0.68627554 -0.07149064
vn 0.72381973 0.68627554 -0.071490645
vn 0.72381973 0.68627554 -0.07149064
vn 0.7238198 0.68627554 -0.07149064
vn 0.13523275 -0.15428597 -0.97872776
vn 0.13523276 -0.15428598 -0.97872776
vn 0.13523276 -0.15428598 -0.97872776
vn 0.13523275 -0.15428597 -0.97872776
vn -0.42162707 -0.90358835 -0.075886846
vn -0.5476279 -0.8365266 -0.018080905
vn -0.4216271 -0.90358835 -0.075886846
vn -0.5476279 -0.8365266 -0.018080905
vn -0.5842017 -0.81160843 0
vn -0.5842017 -0.81160843 0
vn 0.16305344 -0.057833184 0.9849208
vn 0.16305344 -0.05783318 0.9849208
vn 0.16305344 -0.05783318 0.9849208
vn 0.16305344 -0.05783318 0.9849208
vn 0.99344194 -0.113752976 -0.011546261
vn 0.99739385 0.07214814 0.0004992798
vn 0.9973935 0.07215161 0.0004999182
vn 0.993356 -0.11449624 -0.011596181
vn 0.98605794 -0.16572207 -0.015031417
vn 0.98605794 -0.16572207 -0.015031416
vn 1.853153E-06 1.9213849E-06 1
vn 1.8531531E-06 1.9213849E-06 1
vn 1.8531528E-06 1.9213849E-06 1
vn 1.8531531E-06 1.9213849E-06 1
vn -0.20970243 -0.97776514 -0.00040392575
vn -0.20970021 -0.9777656 -0.0004041584
vn -0.004681977 -0.9999131 -0.012328607
vn -0.0058596185 -0.9999076 -0.012262618
vn 0.068532325 -0.9975141 -0.01639676
vn 0.06853231 -0.9975141 -0.016396757
vn 0.594289 -0.6801304 -0.42923555
vn 0.59428906 -0.6801305 -0.42923555
vn 0.594289 -0.6801304 -0.42923555
vn 0.594289 -0.6801304 -0.42923555
vn -0.673037 0.7396088 0
vn -0.673037 0.7396088 0
vn -0.673037 0.7396088 0
vn -0.67303705 0.73960876 0
vn -0.20970243 -0.97776514 -0.00040392575
vn -0.21353132 -0.97693616 0
vn -0.21353132 -0.97693616 0
vn -0.20970021 -0.9777656 -0.0004041584
vn 0.6730738 -0.73957527 8.851486E-05
vn 0.6730223 -0.73962224 0
vn 0.6730223 -0.7396223 0
vn 0.6730902 -0.7395604 0.00011666572
vn 0.99739385 0.07214814 0.0004992798
vn 0.9975873 0.06942394 0
vn 0.9975873 0.06942394 0
vn 0.9973935 0.07215161 0.0004999182
g exterior_plate5_0
f 3/3/3 2/2/2 1/1/1
f 2/2/2 4/4/4 1/1/1
f 1/1/1 4/4/4 5/5/5
f 4/4/4 6/6/6 5/5/5
f 9/9/9 8/8/8 7/7/7
f 8/8/8 10/10/10 7/7/7
f 7/7/7 10/10/10 11/11/11
f 10/10/10 12/12/12 11/11/11
f 8/8/8 13/13/13 10/10/10
f 10/10/10 13/13/13 12/12/12
f 13/13/13 14/14/14 12/12/12
f 15/15/15 14/14/14 13/13/13
f 16/16/16 15/15/15 13/13/13
f 19/19/19 18/18/18 17/17/17
f 20/20/20 19/19/19 17/17/17
f 23/23/23 22/22/22 21/21/21
f 24/24/24 23/23/23 21/21/21
f 27/27/27 26/26/26 25/25/25
f 28/28/28 27/27/27 25/25/25
f 28/28/28 25/25/25 29/29/29
f 30/30/30 27/27/27 28/28/28
f 31/31/31 28/28/28 29/29/29
f 31/31/31 29/29/29 32/32/32
f 33/33/33 31/31/31 32/32/32
f 34/34/34 30/30/30 28/28/28
f 34/34/34 28/28/28 31/31/31
f 35/35/35 34/34/34 31/31/31
f 36/36/36 30/30/30 34/34/34
f 36/36/36 34/34/34 35/35/35
f 37/37/37 36/36/36 35/35/35
f 37/37/37 38/38/38 36/36/36
f 38/38/38 39/39/39 36/36/36
f 40/40/40 38/38/38 37/37/37
f 41/41/41 40/40/40 37/37/37
f 44/44/44 43/43/43 42/42/42
f 44/44/44 42/42/42 45/45/45
f 44/44/44 45/45/45 46/46/46
f 47/47/47 44/44/44 46/46/46
f 50/50/50 49/49/49 48/48/48
f 49/49/49 51/51/51 48/48/48
f 49/49/49 52/52/52 51/51/51
f 52/52/52 53/53/53 51/51/51
f 52/52/52 54/54/54 53/53/53
f 54/54/54 55/55/55 53/53/53
f 58/58/58 57/57/57 56/56/56
f 59/59/59 58/58/58 56/56/56
f 62/62/62 61/61/61 60/60/60
f 61/61/61 63/63/63 60/60/60
f 61/61/61 64/64/64 63/63/63
f 64/64/64 65/65/65 63/63/63
f 68/68/68 67/67/67 66/66/66
f 69/69/69 68/68/68 66/66/66
f 72/72/72 71/71/71 70/70/70
f 73/73/73 72/72/72 70/70/70
f 76/76/76 75/75/75 74/74/74
f 77/77/77 76/76/76 74/74/74
f 80/80/80 79/79/79 78/78/78
f 81/81/81 80/80/80 78/78/78
f 84/84/84 83/83/83 82/82/82
f 83/83/83 85/85/85 82/82/82
f 83/83/83 86/86/86 85/85/85
f 86/86/86 87/87/87 85/85/85
f 90/90/90 89/89/89 88/88/88
f 91/91/91 90/90/90 88/88/88
f 94/94/94 93/93/93 92/92/92
f 93/93/93 95/95/95 92/92/92
f 92/92/92 95/95/95 96/96/96
f 95/95/95 97/97/97 96/96/96
f 100/100/100 99/99/99 98/98/98
f 101/101/101 100/100/100 98/98/98
f 104/104/104 103/103/103 102/102/102
f 105/105/105 104/104/104 102/102/102
f 106/106/106 104/104/104 105/105/105
f 107/107/107 106/106/106 105/105/105
f 110/110/110 109/109/109 108/108/108
f 111/111/111 110/110/110 108/108/108
f 114/114/114 113/113/113 112/112/112
f 115/115/115 114/114/114 112/112/112
f 118/118/118 117/117/117 116/116/116
f 119/119/119 118/118/118 116/116/116
f 122/122/122 121/121/121 120/120/120
f 123/123/123 122/122/122 120/120/120
f 126/126/126 125/125/125 124/124/124
f 127/127/127 126/126/126 124/124/124
