g exterior_plate4
v -14.80368 5.7287927 -2.5471873
v -15.322 3.6619368 0.30663574
v -14.892578 5.468264 0.48991698
v -15.322209 3.6613119 -2.3041503
v -14.888651 5.481888 -3.0404003
v -15.322419 3.8085945 -2.7216308
v -14.500228 6.6160007 1.6814697
v -14.500228 6.616 1.3008887
v -14.869208 5.534621 1.2559619
v -14.869208 5.534621 1.636538
v -14.296319 7.2136054 0.48174316
v -14.500228 6.616 1.3008887
v -14.296319 7.2136045 1.1919433
v -14.472512 6.69723 0.48919922
v -14.296319 7.2136054 -2.6603563
v -14.561621 6.436075 -2.5428221
v -14.296319 7.2136045 -3.0316699
v -14.472512 6.6972294 -3.0316699
v -14.670677 5.6117463 1.2612863
v -14.390278 6.433521 1.2954276
v -14.355455 6.5357633 0.48922855
v -14.701173 5.524316 0.4898193
v -14.649459 5.6760545 -2.5471873
v -14.407399 6.3833375 -2.5428221
v -14.623794 5.751046 -3.542787
v -14.433064 6.308346 -3.5393476
v -14.803398 6.8101325 1.8105567
v -15.227811 5.566293 1.765625
v -15.227811 5.566293 1.3278711
v -14.803398 6.8101325 1.3728027
v -14.803398 6.8101325 0.48919922
v -15.227812 5.566293 0.3655664
v -14.627206 7.3265076 0.48174316
v -14.627206 7.3265076 1.1919433
v -14.627206 7.3265076 -2.6603563
v -15.138704 5.827447 -2.6603563
v -15.66158 3.7450922 0.18156739
v -15.66158 3.7450922 -2.3005028
v -15.227812 5.566293 -3.0316699
v -15.661579 3.7450922 -2.8350878
v -14.892507 6.548979 -2.6603563
v -14.627206 7.3265076 -2.926621
v -14.803398 6.8101325 -2.926621
v -15.66158 3.7450922 -2.3005028
v -15.66158 3.7450922 0.18156739
v -15.322 3.6619368 0.30663574
v -15.322209 3.6613119 -2.3041503
v -15.661579 3.7450922 -2.8350878
v -15.322419 3.8085945 -2.7216308
v -15.66158 3.7450922 0.18156739
v -15.227812 5.566293 0.3655664
v -14.892578 5.468264 0.48991698
v -15.322 3.6619368 0.30663574
v -14.892507 6.548979 -2.6603563
v -15.138704 5.827447 -2.6603563
v -14.80368 5.7287927 -2.5471873
v -14.561621 6.436075 -2.5428221
v -14.803398 6.8101325 1.8105567
v -14.803398 6.8101325 1.3728027
v -14.500228 6.616 1.3008887
v -14.500228 6.6160007 1.6814697
v -15.227811 5.566293 1.3278711
v -15.227811 5.566293 1.765625
v -14.869208 5.534621 1.636538
v -14.869208 5.534621 1.2559619
v -15.227812 5.566293 0.3655664
v -14.892578 5.468264 0.48991698
v -15.227811 5.566293 1.765625
v -14.803398 6.8101325 1.8105567
v -14.500228 6.6160007 1.6814697
v -14.869208 5.534621 1.636538
v -14.803398 6.8101325 1.3728027
v -14.627206 7.3265076 1.1919433
v -14.296319 7.2136045 1.1919433
v -14.500228 6.616 1.3008887
v -14.627206 7.3265076 1.1919433
v -14.296319 7.2136054 0.48174316
v -14.296319 7.2136045 1.1919433
v -14.627206 7.3265076 0.48174316
v -14.296319 7.2136054 -2.6603563
v -14.627206 7.3265076 -2.6603563
v -14.296319 7.2136045 -3.0316699
v -14.627206 7.3265076 -2.926621
v -14.627206 7.3265076 -2.926621
v -14.803398 6.8101325 -2.926621
v -14.472512 6.6972294 -3.0316699
v -14.296319 7.2136045 -3.0316699
v -14.803398 6.8101325 -2.926621
v -14.892507 6.548979 -2.6603563
v -14.561621 6.436075 -2.5428221
v -14.472512 6.6972294 -3.0316699
v -15.227812 5.566293 -3.0316699
v -15.661579 3.7450922 -2.8350878
v -15.322419 3.8085945 -2.7216308
v -14.888651 5.481888 -3.0404003
v -15.138704 5.827447 -2.6603563
v -15.227812 5.566293 -3.0316699
v -14.888651 5.481888 -3.0404003
v -14.80368 5.7287927 -2.5471873
v -14.779522 5.7993803 -3.5428145
v -14.623794 5.751046 -3.542787
v -14.433064 6.308346 -3.5393476
v -14.585778 6.3654876 -3.5393207
v -14.561621 6.436075 -2.5428221
v -14.407399 6.3833375 -2.5428221
v -14.355455 6.5357633 0.48922855
v -14.472512 6.69723 0.48919922
v -14.390278 6.433521 1.2954276
v -14.500228 6.616 1.3008887
v -14.869208 5.534621 1.2559619
v -14.670677 5.6117463 1.2612863
v -14.701173 5.524316 0.4898193
v -14.892578 5.468264 0.48991698
v -14.649459 5.6760545 -2.5471873
v -14.80368 5.7287927 -2.5471873
v -14.779522 5.7993803 -3.5428145
v -14.623794 5.751046 -3.542787
v -14.500228 6.616 1.3008887
v -14.390278 6.433521 1.2954276
v -14.670677 5.6117463 1.2612863
v -14.869208 5.534621 1.2559619
v -14.80368 5.7287927 -2.5471873
v -14.779522 5.7993803 -3.5428145
v -14.585778 6.3654876 -3.5393207
v -14.561621 6.436075 -2.5428221
v -14.561621 6.436075 -2.5428221
v -14.585778 6.3654876 -3.5393207
v -14.433064 6.308346 -3.5393476
v -14.407399 6.3833375 -2.5428221
vt 0.33109874 0.43153405
vt 0.26019755 0.38221565
vt 0.25582406 0.4253175
vt 0.32249486 0.38220066
vt 0.34006304 0.42564252
vt 0.33537227 0.3821858
vt 0.22431165 0.4546425
vt 0.23475713 0.4546425
vt 0.23475718 0.42496255
vt 0.22431162 0.42496246
vt 0.25601912 0.466964
vt 0.23475713 0.4546425
vt 0.23907268 0.46696392
vt 0.25584117 0.45464244
vt 0.33099464 0.466964
vt 0.3309946 0.44841093
vt 0.33985472 0.46696386
vt 0.33985478 0.4546425
vt 0.23475718 0.42496255
vt 0.23475713 0.4546425
vt 0.25584117 0.45464244
vt 0.25582406 0.4253175
vt 0.33109874 0.43153405
vt 0.3309946 0.44841093
vt 0.33109874 0.43153405
vt 0.3309946 0.44841093
vt 0.18522578 0.20541197
vt 0.18522578 0.17252432
vt 0.17365134 0.17252436
vt 0.1736514 0.205412
vt 0.15028864 0.20541199
vt 0.15028864 0.1725243
vt 0.15009153 0.21906513
vt 0.1688695 0.21906511
vt 0.067013085 0.2190651
vt 0.067013085 0.17942938
vt 0.14542359 0.12437104
vt 0.076527774 0.12437108
vt 0.057195485 0.1725243
vt 0.06239313 0.12437108
vt 0.067013144 0.19850692
vt 0.057195425 0.2190651
vt 0.057195485 0.20541194
vt -0.8404103 0.4977345
vt -0.8404103 0.4977345
vt -0.83867323 0.436509
vt -0.83874553 0.43650925
vt -0.8404103 0.4977345
vt -0.8388177 0.4365095
vt -0.8404103 0.4977345
vt -0.63361347 0.49850255
vt -0.6335819 0.43677264
vt -0.83867323 0.436509
vt -0.5199702 0.49731404
vt -0.6034123 0.49818677
vt -0.6034527 0.43666533
vt -0.5216439 0.43637025
vt -0.48976898 0.4969982
vt -0.48976898 0.4969982
vt -0.4914425 0.4362628
vt -0.4914425 0.4362628
vt -0.63361347 0.49850255
vt -0.63361347 0.49850255
vt -0.63528687 0.4367749
vt -0.63528687 0.4367749
vt -0.63361347 0.49850255
vt -0.6335819 0.43677264
vt -0.63361347 0.49850255
vt -0.48976898 0.4969982
vt -0.4914425 0.4362628
vt -0.63528687 0.4367749
vt -0.48976898 0.4969982
vt -0.43005252 0.4963737
vt -0.43172604 0.43605012
vt -0.4914425 0.4362628
vt -0.43005252 0.4963737
vt -0.43172604 0.43605012
vt -0.43172604 0.43605012
vt -0.43005252 0.4963737
vt -0.43172604 0.43605012
vt -0.43005252 0.4963737
vt -0.43172604 0.43605012
vt -0.43005252 0.4963737
vt -0.43005252 0.4963737
vt -0.48976898 0.4969982
vt -0.49144262 0.4362628
vt -0.43172604 0.43605012
vt -0.48976898 0.4969982
vt -0.5199702 0.49731404
vt -0.5216439 0.43637025
vt -0.49144262 0.4362628
vt -0.63361347 0.49850255
vt -0.8404103 0.4977345
vt -0.8388177 0.4365095
vt -0.63202107 0.43677098
vt -0.6034123 0.49818677
vt -0.63361347 0.49850255
vt -0.63202107 0.43677098
vt -0.6034527 0.43666533
vt 0.33109874 0.43153405
vt 0.33109874 0.43153405
vt 0.3309946 0.44841093
vt 0.3309946 0.44841093
vt 0.3309946 0.44841093
vt 0.3309946 0.44841093
vt 0.25584117 0.45464244
vt 0.25584117 0.45464244
vt 0.23475713 0.4546425
vt 0.23475713 0.4546425
vt 0.23475718 0.42496255
vt 0.23475718 0.42496255
vt 0.25582406 0.4253175
vt 0.25582406 0.4253175
vt 0.33109874 0.43153405
vt 0.33109874 0.43153405
vt 0.33109874 0.43153405
vt 0.33109874 0.43153405
vt 0.23475713 0.4546425
vt 0.23475713 0.4546425
vt 0.23475718 0.42496255
vt 0.23475718 0.42496255
vt 0.33109874 0.43153405
vt 0.33109874 0.43153405
vt 0.3309946 0.44841093
vt 0.3309946 0.44841093
vt 0.3309946 0.44841093
vt 0.3309946 0.44841093
vt 0.3309946 0.44841093
vt 0.3309946 0.44841093
vn 0.97080886 -0.2398232 -0.0038636995
vn 0.9713463 -0.23762912 0.004317686
vn 0.9713463 -0.23762912 0.004317686
vn 0.9709292 -0.23935767 -0.002122316
vn 0.96492594 -0.25500858 -0.062357508
vn 0.96492594 -0.25500858 -0.062357515
vn 0.94642204 -0.32293233 4.4915097E-07
vn 0.94642204 -0.32293233 4.4915095E-07
vn 0.94642204 -0.32293233 4.4915095E-07
vn 0.94642204 -0.32293233 4.4915097E-07
vn 0.9464227 -0.3229305 0
vn 0.94642335 -0.32292867 -2.1928763E-07
vn 0.94642335 -0.32292864 -2.1928761E-07
vn 0.9464227 -0.32293049 0
vn 0.9464226 -0.32293084 0
vn 0.9464226 -0.32293084 0
vn 0.9464226 -0.3229307 3.4159257E-07
vn 0.9464226 -0.32293072 3.4159262E-07
vn 0.9463304 -0.32320035 -0.00043883195
vn 0.94633055 -0.32320032 -0.00043883192
vn 0.94622666 -0.3235044 -9.071474E-05
vn 0.9462269 -0.3235037 -9.149763E-05
vn 0.9461859 -0.32362366 5.41919E-07
vn 0.946186 -0.32362312 5.432117E-07
vn 0.9461255 -0.32380027 0
vn 0.9461255 -0.3238003 0
vn -0.9464227 0.32293046 0
vn -0.9464227 0.32293049 0
vn -0.9464226 0.32293078 4.6626005E-07
vn -0.9464226 0.3229307 3.7936888E-07
vn -0.94642246 0.3229312 1.7866239E-07
vn -0.9612374 0.275711 -0.0024783204
vn -0.946423 0.32292938 0
vn -0.9464228 0.32293028 0
vn -0.9464231 0.3229292 0
vn -0.96239984 0.2716367 -0.0003853029
vn -0.97129536 0.23783511 -0.0044368412
vn -0.9711953 0.23828396 -0.0007451068
vn -0.97007793 0.24141666 0.025822833
vn -0.97007793 0.24141663 0.025822835
vn -0.94642234 0.32293153 0
vn -0.94642323 0.32292905 0
vn -0.9464231 0.32292902 0
vn -0.20393777 -0.9787027 -0.023457253
vn -0.23878324 -0.97107285 0.00012911943
vn -0.23878324 -0.97107285 0.0001291194
vn -0.20470352 -0.97855514 -0.0229421
vn -0.0047923555 -0.9882334 -0.15287837
vn -0.0047923555 -0.9882334 -0.15287839
vn -0.3494284 -0.011710017 0.93688995
vn -0.3494284 -0.011710017 0.93688995
vn -0.3494284 -0.011710016 0.9368898
vn -0.3494284 -0.011710017 0.93688995
vn 0.2975908 -0.09879158 -0.94956833
vn 0.29759076 -0.09879158 -0.94956833
vn 0.2975908 -0.09879158 -0.94956833
vn 0.29759082 -0.098791584 -0.94956833
vn 0.5392565 0.8421415 0
vn 0.53925663 0.84214145 0
vn 0.5392566 0.8421415 0
vn 0.5392565 0.8421415 0
vn -0.14896794 -0.9885302 0.024833318
vn -0.08797762 -0.9961224 0
vn -0.08797763 -0.9961224 0
vn -0.03356899 -0.9984485 0.044425227
vn -0.18653598 -0.981625 0.040209103
vn -0.015040286 -0.9998659 -0.006485792
vn 0.3165434 -0.14424199 0.93754697
vn 0.3165434 -0.14424199 0.93754697
vn 0.3165434 -0.14424199 0.9375471
vn 0.3165434 -0.14424197 0.93754697
vn 0.19784659 0.18301855 0.96299577
vn 0.19784658 0.18301855 0.9629959
vn 0.19784656 0.18301857 0.96299577
vn 0.1978466 0.18301854 0.9629959
vn 0.32293132 0.94642234 0
vn 0.3229304 0.9464227 0
vn 0.32293132 0.94642234 0
vn 0.3229304 0.9464227 0
vn 0.3229303 0.9464228 0
vn 0.3229303 0.9464228 0
vn 0.32293126 0.94642246 0
vn 0.3229312 0.94642246 0
vn -0.2723413 0.09292596 -0.95770305
vn -0.27234128 0.09292596 -0.95770305
vn -0.2723413 0.09292596 -0.95770305
vn -0.27234128 0.09292596 -0.95770305
vn -0.25073743 -0.76746076 -0.5900294
vn -0.25073743 -0.76746076 -0.59002936
vn -0.25073743 -0.76746076 -0.5900294
vn -0.25073743 -0.76746076 -0.5900294
vn 0.14470442 -0.1794284 -0.9730705
vn 0.14470442 -0.1794284 -0.9730705
vn 0.14470445 -0.1794284 -0.9730705
vn 0.14470442 -0.1794284 -0.9730705
vn 0.2977576 0.7956444 -0.5275324
vn 0.29775763 0.7956444 -0.52753234
vn 0.2977576 0.7956444 -0.5275323
vn 0.2977576 0.79564434 -0.5275324
vn 0.0018903521 0.0055246623 -0.99998295
vn 0.001890352 0.0055246623 -0.99998295
vn 0.001890352 0.005524662 -0.99998295
vn 0.0018903521 0.005524662 -0.99998295
vn 0.5567245 0.82768947 -0.07062573
vn 0.5567221 0.82769114 -0.07062584
vn 0.67910177 0.733507 -0.028076688
vn 0.677593 0.7348608 -0.029107848
vn 0.8315785 0.5473577 0.09421612
vn 0.8315785 0.54735774 0.09421612
vn -0.03356899 -0.9984485 0.044425227
vn 0.3210875 -0.94339556 0.08311199
vn 0.08402884 -0.99593973 -0.032298204
vn -0.015040286 -0.9998659 -0.006485792
vn -0.06637563 -0.99530715 -0.07041291
vn -0.06637846 -0.9953069 -0.070413
vn -0.30909538 -0.9479059 -0.07703566
vn -0.30909538 -0.9479059 -0.07703565
vn -0.01230153 -0.03731624 0.99922776
vn -0.012301531 -0.037316244 0.99922776
vn -0.012301533 -0.03731624 0.99922776
vn -0.012301532 -0.03731624 0.99922776
vn -0.9461247 0.32380277 0
vn -0.9461247 0.3238028 0
vn -0.9461247 0.3238028 0
vn -0.9461247 0.3238028 0
vn 0.5567245 0.82768947 -0.07062573
vn 0.33603767 0.93869853 -0.07696706
vn 0.3360376 0.93869853 -0.07696706
vn 0.5567221 0.82769114 -0.07062584
g exterior_plate4_0
f 3/3/3 2/2/2 1/1/1
f 2/2/2 4/4/4 1/1/1
f 1/1/1 4/4/4 5/5/5
f 4/4/4 6/6/6 5/5/5
f 9/9/9 8/8/8 7/7/7
f 10/10/10 9/9/9 7/7/7
f 13/13/13 12/12/12 11/11/11
f 12/12/12 14/14/14 11/11/11
f 11/11/11 14/14/14 15/15/15
f 14/14/14 16/16/16 15/15/15
f 15/15/15 16/16/16 17/17/17
f 16/16/16 18/18/18 17/17/17
f 21/21/21 20/20/20 19/19/19
f 22/22/22 21/21/21 19/19/19
f 22/22/22 23/23/23 21/21/21
f 23/23/23 24/24/24 21/21/21
f 23/23/23 25/25/25 24/24/24
f 25/25/25 26/26/26 24/24/24
f 29/29/29 28/28/28 27/27/27
f 30/30/30 29/29/29 27/27/27
f 30/30/30 31/31/31 29/29/29
f 31/31/31 32/32/32 29/29/29
f 31/31/31 30/30/30 33/33/33
f 30/30/30 34/34/34 33/33/33
f 31/31/31 33/33/33 35/35/35
f 36/36/36 32/32/32 31/31/31
f 37/37/37 32/32/32 36/36/36
f 38/38/38 37/37/37 36/36/36
f 38/38/38 36/36/36 39/39/39
f 40/40/40 38/38/38 39/39/39
f 41/41/41 36/36/36 31/31/31
f 41/41/41 31/31/31 35/35/35
f 41/41/41 35/35/35 42/42/42
f 43/43/43 41/41/41 42/42/42
f 46/46/46 45/45/45 44/44/44
f 47/47/47 46/46/46 44/44/44
f 47/47/47 44/44/44 48/48/48
f 49/49/49 47/47/47 48/48/48
f 52/52/52 51/51/51 50/50/50
f 53/53/53 52/52/52 50/50/50
f 56/56/56 55/55/55 54/54/54
f 57/57/57 56/56/56 54/54/54
f 60/60/60 59/59/59 58/58/58
f 61/61/61 60/60/60 58/58/58
f 64/64/64 63/63/63 62/62/62
f 65/65/65 64/64/64 62/62/62
f 65/65/65 62/62/62 66/66/66
f 67/67/67 65/65/65 66/66/66
f 70/70/70 69/69/69 68/68/68
f 71/71/71 70/70/70 68/68/68
f 74/74/74 73/73/73 72/72/72
f 75/75/75 74/74/74 72/72/72
f 78/78/78 77/77/77 76/76/76
f 77/77/77 79/79/79 76/76/76
f 77/77/77 80/80/80 79/79/79
f 80/80/80 81/81/81 79/79/79
f 80/80/80 82/82/82 81/81/81
f 82/82/82 83/83/83 81/81/81
f 86/86/86 85/85/85 84/84/84
f 87/87/87 86/86/86 84/84/84
f 90/90/90 89/89/89 88/88/88
f 91/91/91 90/90/90 88/88/88
f 94/94/94 93/93/93 92/92/92
f 95/95/95 94/94/94 92/92/92
f 98/98/98 97/97/97 96/96/96
f 99/99/99 98/98/98 96/96/96
f 102/102/102 101/101/101 100/100/100
f 103/103/103 102/102/102 100/100/100
f 106/106/106 105/105/105 104/104/104
f 107/107/107 106/106/106 104/104/104
f 108/108/108 106/106/106 107/107/107
f 109/109/109 108/108/108 107/107/107
f 112/112/112 111/111/111 110/110/110
f 113/113/113 112/112/112 110/110/110
f 114/114/114 112/112/112 113/113/113
f 115/115/115 114/114/114 113/113/113
f 115/115/115 116/116/116 114/114/114
f 116/116/116 117/117/117 114/114/114
f 120/120/120 119/119/119 118/118/118
f 121/121/121 120/120/120 118/118/118
f 124/124/124 123/123/123 122/122/122
f 125/125/125 124/124/124 122/122/122
f 128/128/128 127/127/127 126/126/126
f 129/129/129 128/128/128 126/126/126
