g exterior_plate3
v -15.310508 3.661463 -0.25593382
v -15.12097 4.4572444 -2.0391083
v -15.310508 3.7730193 -2.0147421
v -15.12097 4.457244 -0.25593382
v -15.310508 3.6614623 0.47296473
v -15.196926 4.1383357 0.4073788
v -15.120969 4.4572434 0.36351892
v -15.240293 3.9562635 0.7965048
v -15.29991 3.7059562 0.7965048
v -15.650369 3.742411 -0.25593382
v -15.650369 3.742411 -2.2851892
v -15.460831 4.5381913 -2.2851892
v -15.460831 4.5381913 -0.25593382
v -15.650369 3.742411 0.7116492
v -15.536787 4.219284 0.6460632
v -15.46083 4.5381913 0.60220337
v -15.569555 4.081706 1.0351892
v -15.650369 3.742411 1.0351892
v -15.460831 4.5381913 -0.25593382
v -15.460831 4.5381913 -2.2851892
v -15.12097 4.4572444 -2.0391083
v -15.12097 4.457244 -0.25593382
v -15.46083 4.5381913 0.60220337
v -15.120969 4.4572434 0.36351892
v -15.460831 4.5381913 -2.2851892
v -15.650369 3.742411 -2.2851892
v -15.310508 3.7730193 -2.0147421
v -15.12097 4.4572444 -2.0391083
v -15.650369 3.742411 -2.2851892
v -15.310508 3.661463 -0.25593382
v -15.310508 3.7730193 -2.0147421
v -15.650369 3.742411 -0.25593382
v -15.310508 3.6614623 0.47296473
v -15.650369 3.742411 0.7116492
v -15.29991 3.7059562 0.7965048
v -15.650369 3.742411 1.0351892
v -15.536787 4.219284 0.6460632
v -15.46083 4.5381913 0.60220337
v -15.120969 4.4572434 0.36351892
v -15.196926 4.1383357 0.4073788
v -15.569555 4.081706 1.0351892
v -15.536787 4.219284 0.6460632
v -15.196926 4.1383357 0.4073788
v -15.240293 3.9562635 0.7965048
v -15.650369 3.742411 1.0351892
v -15.569555 4.081706 1.0351892
v -15.240293 3.9562635 0.7965048
v -15.29991 3.7059562 0.7965048
vt 0.25108448 0.45405424
vt 0.28177235 0.4660885
vt 0.28177235 0.45405418
vt 0.25108448 0.46608847
vt 0.23645207 0.4540542
vt 0.2374439 0.46126577
vt 0.2381071 0.46608853
vt 0.23155925 0.45918524
vt 0.23155925 0.45405424
vt 0.6270569 0.21921733
vt 0.8697297 0.21921742
vt 0.86972976 0.12405211
vt 0.627057 0.12405223
vt 0.5113465 0.21921736
vt 0.5191897 0.1621895
vt 0.52443486 0.124052286
vt 0.4726553 0.17864208
vt 0.47265524 0.21921735
vt -0.7800001 0.49939582
vt -0.48713636 0.49939582
vt -0.48713636 0.43707085
vt -0.7800001 0.4370708
vt -0.9038472 0.49939582
vt -0.90384716 0.43707085
vt -0.9038472 0.49950814
vt -0.78899944 0.49946952
vt -0.7773171 0.43654907
vt -0.8921648 0.43627492
vt -0.90384716 0.49932215
vt -0.6109834 0.4375926
vt -0.90384716 0.4375926
vt -0.61098343 0.49932215
vt -0.471341 0.43759254
vt -0.471341 0.4993222
vt -0.42464745 0.4375926
vt -0.42464745 0.4993222
vt -0.66500247 0.49958685
vt -0.61897755 0.49960232
vt -0.63066 0.4356082
vt -0.67668504 0.43571812
vt -0.4852326 0.4994083
vt -0.42907357 0.49941498
vt -0.42907363 0.43693513
vt -0.48523265 0.43698257
vt -0.6043686 0.4995859
vt -0.5554012 0.49960232
vt -0.5670837 0.43560827
vt -0.61605126 0.4357251
vn 0.9697609 -0.24398817 -0.0058074766
vn 0.96866846 -0.24823414 -0.007818269
vn 0.96866846 -0.24823414 -0.007818269
vn 0.9695397 -0.2448553 -0.0062178904
vn 0.97278816 -0.2316966 -6.2993985E-07
vn 0.9727879 -0.2316973 -8.99479E-07
vn 0.9727864 -0.23170356 -1.9235533E-06
vn 0.9727884 -0.23169538 4.663996E-07
vn 0.9727884 -0.23169538 4.6639965E-07
vn -0.97278804 0.23169722 1.7237684E-07
vn -0.97278816 0.23169605 0
vn -0.97278816 0.23169605 0
vn -0.97278804 0.23169701 1.6034167E-07
vn -0.9727874 0.23169973 3.522188E-07
vn -0.9727874 0.23169972 5.8151585E-07
vn -0.97278816 0.2316965 1.3728406E-06
vn -0.9727879 0.23169768 -6.6359354E-07
vn -0.9727879 0.23169768 -6.6359354E-07
vn 0.23169728 0.9727879 0
vn 0.23169714 0.97278804 0
vn 0.23169716 0.97278804 0
vn 0.23169725 0.9727879 0
vn 0.23169774 0.9727878 1.03140295E-07
vn 0.23169771 0.9727878 1.0314027E-07
vn 0.5891298 -0.16392136 -0.7912369
vn 0.58912987 -0.16392137 -0.7912369
vn 0.58912987 -0.16392137 -0.7912369
vn 0.58912987 -0.16392136 -0.7912369
vn -0.062193897 -0.99763155 -0.02937976
vn -0.11626714 -0.9930138 -0.020139452
vn -0.062193908 -0.99763155 -0.029379766
vn -0.11592112 -0.993053 -0.020198967
vn -0.21542424 -0.97646546 0.010367168
vn -0.18044846 -0.9830488 0.032458134
vn -0.1199741 -0.9903019 0.07005962
vn -0.119974084 -0.9903019 0.070059605
vn 0.5708814 -0.023099225 0.82070756
vn 0.5708814 -0.023099227 0.82070756
vn 0.57088137 -0.023099225 0.82070756
vn 0.5708814 -0.023099227 0.82070756
vn 0.50448775 0.780214 0.3698085
vn 0.5044877 0.780214 0.3698085
vn 0.50448775 0.780214 0.36980847
vn 0.50448775 0.780214 0.3698085
vn 0.5487586 -0.13070302 0.8257001
vn 0.5487586 -0.13070303 0.8257001
vn 0.5487586 -0.13070306 0.8257001
vn 0.54875857 -0.13070305 0.8257001
g exterior_plate3_0
f 3/3/3 2/2/2 1/1/1
f 2/2/2 4/4/4 1/1/1
f 1/1/1 4/4/4 5/5/5
f 4/4/4 6/6/6 5/5/5
f 7/7/7 6/6/6 4/4/4
f 5/5/5 6/6/6 8/8/8
f 9/9/9 5/5/5 8/8/8
f 12/12/12 11/11/11 10/10/10
f 13/13/13 12/12/12 10/10/10
f 13/13/13 10/10/10 14/14/14
f 15/15/15 13/13/13 14/14/14
f 15/15/15 16/16/16 13/13/13
f 15/15/15 14/14/14 17/17/17
f 14/14/14 18/18/18 17/17/17
f 21/21/21 20/20/20 19/19/19
f 22/22/22 21/21/21 19/19/19
f 22/22/22 19/19/19 23/23/23
f 24/24/24 22/22/22 23/23/23
f 27/27/27 26/26/26 25/25/25
f 28/28/28 27/27/27 25/25/25
f 31/31/31 30/30/30 29/29/29
f 30/30/30 32/32/32 29/29/29
f 30/30/30 33/33/33 32/32/32
f 33/33/33 34/34/34 32/32/32
f 33/33/33 35/35/35 34/34/34
f 35/35/35 36/36/36 34/34/34
f 39/39/39 38/38/38 37/37/37
f 40/40/40 39/39/39 37/37/37
f 43/43/43 42/42/42 41/41/41
f 44/44/44 43/43/43 41/41/41
f 47/47/47 46/46/46 45/45/45
f 48/48/48 47/47/47 45/45/45
