g exterior_shell_mid_COL2
v 9.519326 15.260043 -5
v 9.519326 15.260043 4.999999
v 7.352489 16.806568 4.999999
v 7.352489 16.806568 -5
v 5.004608 17.93926 5.0000005
v 5.004608 17.93926 -5
v 2.5334973 18.630226 5.0000005
v 2.5334973 18.630226 -5
v 3.619916E-06 18.862453 5.0000005
v 3.619916E-06 18.862453 -5
v -2.53349 18.630226 5.0000005
v -2.53349 18.630226 -5
v -5.0046005 17.93926 5.0000005
v -5.0046005 17.93926 -5
v -7.352481 16.80657 4.999999
v -7.352481 16.80657 -5
v -9.51932 15.260049 4.999999
v -9.51932 15.260049 -5
vt 0.40624997 0.3125
vt 0.40624997 0.68843985
vt 0.41249996 0.68843985
vt 0.41249996 0.3125
vt 0.41874996 0.68843985
vt 0.41874996 0.3125
vt 0.42499995 0.68843985
vt 0.42499995 0.3125
vt 0.43124995 0.68843985
vt 0.43124995 0.3125
vt 0.43749994 0.68843985
vt 0.43749994 0.3125
vt 0.44374993 0.68843985
vt 0.44374993 0.3125
vt 0.44999993 0.68843985
vt 0.44999993 0.3125
vt 0.45624992 0.68843985
vt 0.45624992 0.3125
vn 0.6459619 0.7633696 0
vn 0.6459619 0.7633696 0
vn 0.5103419 0.85997164 0
vn 0.5103419 0.85997164 0
vn 0.35393563 0.93526983 0
vn 0.35393566 0.93526983 0
vn 0.1814083 0.9834079 0
vn 0.1814083 0.9834079 0
vn -0 1 0
vn -0 1 0
vn -0.1814083 0.9834079 0
vn -0.1814083 0.9834079 0
vn -0.3539352 0.9352699 0
vn -0.3539352 0.9352699 0
vn -0.5103412 0.859972 0
vn -0.5103412 0.859972 0
vn -0.64596134 0.76337004 0
vn -0.64596134 0.76337004 0
g exterior_shell_mid_COL2_0
f 3/3/3 2/2/2 1/1/1
f 4/4/4 3/3/3 1/1/1
f 5/5/5 3/3/3 4/4/4
f 6/6/6 5/5/5 4/4/4
f 7/7/7 5/5/5 6/6/6
f 8/8/8 7/7/7 6/6/6
f 9/9/9 7/7/7 8/8/8
f 10/10/10 9/9/9 8/8/8
f 11/11/11 9/9/9 10/10/10
f 12/12/12 11/11/11 10/10/10
f 13/13/13 11/11/11 12/12/12
f 14/14/14 13/13/13 12/12/12
f 15/15/15 13/13/13 14/14/14
f 16/16/16 15/15/15 14/14/14
f 17/17/17 15/15/15 16/16/16
f 18/18/18 17/17/17 16/16/16
