g fabricator_glass
v 2.2078397 3.6846194 1.4531524
v -1.1164038 3.6884441 -1.6133789
v 2.2078397 3.6840003 -1.6038916
v -1.1164038 3.6891425 1.4520307
v 2.2078397 3.6733403 1.5665367
v -1.1164038 3.6779857 1.5662948
v 2.2078397 3.6370628 1.6602435
v -1.1164038 3.6416266 1.6611912
v 2.2078397 3.5777674 1.7413688
v -1.1164039 3.5819304 1.7434518
v 2.2078397 3.4994931 1.804384
v -1.1164038 3.5029638 1.8074689
v 2.2078397 3.407577 1.8449969
v -1.1164039 3.4101086 1.8488799
v 2.2078397 3.2814355 1.8598284
v -1.1164038 3.2831435 1.8641692
v 2.2078397 1.3181493 1.8603052
v -1.1164039 1.3181493 1.8635546
vt 0.99060655 0.45888704
vt 0.0081219375 0.99480027
vt 0.99060655 0.99312544
vt 0.0081219375 0.4589755
vt 0.99060655 0.43964398
vt 0.0081219375 0.43964002
vt 0.99060655 0.42071784
vt 0.0081219375 0.42049867
vt 0.99060655 0.40261942
vt 0.008121908 0.40214583
vt 0.99060655 0.38855347
vt 0.0081219375 0.38787133
vt 0.9906601 0.3697791
vt 0.0081760585 0.36897725
vt 0.9907335 0.34819818
vt 0.008250058 0.3473878
vt 0.9918783 0.0063571334
vt 0.00939548 0.00519976
vn 0.0013494086 0.99999356 0.0033273594
vn 0.001349067 0.99999905 -0.00021526794
vn 0.0013490672 0.99999905 -0.00021526792
vn 0.0013494084 0.99999356 0.0033238542
vn 0.0013543619 0.9748858 0.2227007
vn 0.0013543665 0.9749008 0.22263542
vn 0.001341524 0.8782626 0.4781768
vn 0.0013415244 0.8782948 0.47811761
vn 0.0013392393 0.7245578 0.6892127
vn 0.0013392403 0.72460485 0.6891633
vn 0.001336616 0.5215088 0.8532448
vn 0.0013366162 0.5215665 0.85320956
vn 0.0013273379 0.24806274 0.9687431
vn 0.0013273448 0.24813978 0.9687233
vn 0.0011520013 0.0071666236 0.99997365
vn 0.001152012 0.007174122 0.99997365
vn 0.0011416788 -3.507561E-05 0.9999994
vn 0.0011416789 -3.507561E-05 0.9999994
g fabricator_glass_0
f 3/3/3 2/2/2 1/1/1
f 2/2/2 4/4/4 1/1/1
f 5/5/5 1/1/1 4/4/4
f 6/6/6 5/5/5 4/4/4
f 7/7/7 5/5/5 6/6/6
f 8/8/8 7/7/7 6/6/6
f 9/9/9 7/7/7 8/8/8
f 10/10/10 9/9/9 8/8/8
f 11/11/11 9/9/9 10/10/10
f 12/12/12 11/11/11 10/10/10
f 13/13/13 11/11/11 12/12/12
f 14/14/14 13/13/13 12/12/12
f 15/15/15 13/13/13 14/14/14
f 16/16/16 15/15/15 14/14/14
f 17/17/17 15/15/15 16/16/16
f 18/18/18 17/17/17 16/16/16
