g flask_out
v 0.0772517 0.03167885 -0.13380386
v 0.13380386 0.03167885 -0.0772517
v -0 0.00094624754 0
v 0.14274251 0.119198 -0.24723725
v -0 0.119198 -0.28548503
v -0 0.03167885 -0.1545034
v -0 0.00094624754 0
v -0 0.25017962 -0.37300417
v 0.18650208 0.25017962 -0.32303107
v -0 0.40468302 -0.40373677
v 0.24723725 0.119198 -0.14274251
v 0.20186839 0.40468302 -0.3496463
v -0 0.5591864 -0.37300417
v 0.1545034 0.03167885 0
v -0 0.00094624754 0
v 0.32303107 0.25017962 -0.18650208
v 0.18650208 0.5591864 -0.32303107
v -0 0.6901681 -0.28548503
v 0.28548503 0.119198 0
v 0.3496463 0.40468302 -0.20186839
v 0.14274251 0.6901681 -0.24723725
v -0 0.7776872 -0.1545034
v 0.13380386 0.03167885 0.0772517
v -0 0.00094624754 0
v 0.37300417 0.25017962 0
v 0.32303107 0.5591864 -0.18650208
v 0.0772517 0.7776872 -0.13380386
v -0 0.793208 -0.14059667
v 0.24723725 0.119198 0.14274251
v 0.40373677 0.40468302 0
v 0.24723725 0.6901681 -0.14274251
v 0.07029834 0.793208 -0.1217603
v -0 0.85517156 -0.14059667
v 0.07029834 0.85517156 -0.1217603
v 0.13380386 0.7776872 -0.0772517
v 0.1217603 0.793208 -0.07029834
v 0.1217603 0.85517156 -0.07029834
v 0.37300417 0.5591864 0
v 0.32303107 0.25017962 0.18650208
v 0.28548503 0.6901681 0
v 0.1545034 0.7776872 0
v 0.14059667 0.793208 0
v 0.14059667 0.85517156 0
v 0.3496463 0.40468302 0.20186839
v 0.32303107 0.5591864 0.18650208
v 0.24723725 0.6901681 0.14274251
v 0.13380386 0.7776872 0.0772517
v 0.1217603 0.793208 0.07029834
v 0.1217603 0.85517156 0.07029834
v 0.07029834 0.793208 0.1217603
v 0.07029834 0.85517156 0.1217603
v 0.0772517 0.7776872 0.13380386
v 0.14274251 0.6901681 0.24723725
v 0.18650208 0.5591864 0.32303107
v 0.20186839 0.40468302 0.3496463
v -0 0.793208 0.14059667
v -0 0.85517156 0.14059667
v -0 0.7776872 0.1545034
v -0 0.6901681 0.28548503
v -0 0.5591864 0.37300417
v -0.07029834 0.793208 0.1217603
v -0.07029834 0.85517156 0.1217603
v -0.0772517 0.7776872 0.13380386
v -0.14274251 0.6901681 0.24723725
v -0.1217603 0.793208 0.07029834
v -0.1217603 0.85517156 0.07029834
v -0.13380386 0.7776872 0.0772517
v -0.14059667 0.793208 0
v -0.14059667 0.85517156 0
v -0 0.40468302 0.40373677
v -0.18650208 0.5591864 0.32303107
v -0.24723725 0.6901681 0.14274251
v -0.1545034 0.7776872 0
v -0.1217603 0.793208 -0.07029834
v -0.1217603 0.85517156 -0.07029834
v -0.20186839 0.40468302 0.3496463
v -0.32303107 0.5591864 0.18650208
v -0.28548503 0.6901681 0
v -0.13380386 0.7776872 -0.0772517
v -0.07029834 0.793208 -0.1217603
v -0.07029834 0.85517156 -0.1217603
v -0 0.793208 -0.14059667
v -0 0.85517156 -0.14059667
v -0 0.7776872 -0.1545034
v -0.0772517 0.7776872 -0.13380386
v -0 0.6901681 -0.28548503
v -0.14274251 0.6901681 -0.24723725
v -0 0.5591864 -0.37300417
v -0.24723725 0.6901681 -0.14274251
v -0.18650208 0.5591864 -0.32303107
v -0 0.40468302 -0.40373677
v -0.32303107 0.5591864 -0.18650208
v -0.20186839 0.40468302 -0.3496463
v -0 0.25017962 -0.37300417
v -0.37300417 0.5591864 0
v -0.18650208 0.25017962 -0.32303107
v -0 0.119198 -0.28548503
v -0.3496463 0.40468302 -0.20186839
v -0.40373677 0.40468302 0
v -0.14274251 0.119198 -0.24723725
v -0 0.03167885 -0.1545034
v -0.32303107 0.25017962 -0.18650208
v -0.3496463 0.40468302 0.20186839
v -0.0772517 0.03167885 -0.13380386
v -0 0.00094624754 0
v -0.24723725 0.119198 -0.14274251
v -0.37300417 0.25017962 0
v -0.32303107 0.25017962 0.18650208
v -0.13380386 0.03167885 -0.0772517
v -0 0.00094624754 0
v -0.28548503 0.119198 0
v -0.18650208 0.25017962 0.32303107
v -0.1545034 0.03167885 0
v -0 0.00094624754 0
v -0.24723725 0.119198 0.14274251
v -0 0.25017962 0.37300417
v -0.13380386 0.03167885 0.0772517
v -0 0.00094624754 0
v -0.14274251 0.119198 0.24723725
v 0.18650208 0.25017962 0.32303107
v -0.0772517 0.03167885 0.13380386
v -0 0.00094624754 0
v -0 0.119198 0.28548503
v 0.14274251 0.119198 0.24723725
v -0 0.03167885 0.1545034
v -0 0.00094624754 0
v 0.0772517 0.03167885 0.13380386
v -0 0.00094624754 0
v -0 0.00094624754 0
v 0.048194733 0.8063983 -0.14832832
v 0.12617534 0.8063983 -0.091671735
v 0.14779049 0.8144162 -0.10737611
v 0.15596145 0.8063983 4.0169392E-09
v 0.056451 0.8144162 -0.1737384
v -0.048194803 0.8063983 -0.14832832
v -0.05645107 0.8144162 -0.1737384
v -0.12617534 0.8063983 -0.091671735
v -0.1477905 0.8144162 -0.10737611
v -0.15596153 0.8063983 4.0169392E-09
v -0.18267934 0.8144162 4.0169392E-09
v -0.12617534 0.8063983 0.09167175
v -0.1477905 0.8144162 0.10737605
v -0.048194803 0.8063983 0.14832817
v -0.05645107 0.8144162 0.17373826
v 0.048194733 0.8063983 0.14832817
v 0.056451 0.8144162 0.17373826
v 0.12617528 0.8063983 0.09167175
v 0.14779045 0.8144162 0.10737605
v 0.18267927 0.8144162 4.0169392E-09
v 0.14779049 0.9337742 -0.10737611
v 0.056451 0.9337742 -0.1737384
v -0.05645107 0.9337742 -0.1737384
v -0.1477905 0.9337742 -0.10737611
v -0.18267934 0.9337742 4.0169392E-09
v -0.1477905 0.9337742 0.10737605
v -0.05645107 0.9337742 0.17373826
v 0.056451 0.9337742 0.17373826
v 0.14779045 0.9337742 0.10737605
v 0.18267927 0.9337742 4.0169392E-09
v 0.13405016 0.9520386 -0.09739318
v 0.051202644 0.9520386 -0.1575856
v 1.5894788E-08 0.9520386 4.0169392E-09
v -0.051202714 0.9520386 -0.1575856
v 0.16569528 0.9520386 4.0169392E-09
v 0.13405012 0.9520386 0.0973931
v -0.13405019 0.9520386 -0.09739318
v 0.051202644 0.9520386 0.15758553
v -0.16569535 0.9520386 4.0169392E-09
v -0.051202714 0.9520386 0.15758553
v -0.13405018 0.9520386 0.0973931
v 0.048194733 0.8063983 -0.14832832
v -3.5762785E-08 0.88045835 -7.152557E-08
v 0.12617534 0.8063983 -0.091671735
v -0.048194803 0.8063983 -0.14832832
v 0.15596145 0.8063983 4.0169392E-09
v -0.12617534 0.8063983 -0.091671735
v 0.12617528 0.8063983 0.09167175
v -0.15596153 0.8063983 4.0169392E-09
v 0.048194733 0.8063983 0.14832817
v -0.12617534 0.8063983 0.09167175
v -0.048194803 0.8063983 0.14832817
vt 0.08334935 0.102162726
vt 0.16668272 0.102162726
vt 0.50003195 0.013602234
vt 0.08334935 0.19137786
vt 1.5974045E-05 0.19137786
vt 1.5974045E-05 0.102162726
vt 0.50003195 0.013602234
vt 1.5974045E-05 0.28185755
vt 0.08334935 0.28185755
vt 1.5974045E-05 0.3741063
vt 0.16668272 0.19137786
vt 0.08334935 0.3741063
vt 1.5974045E-05 0.4684364
vt 0.25001603 0.102162726
vt 0.50003195 0.013602234
vt 0.16668272 0.28185755
vt 0.08334935 0.4684364
vt 1.5974045E-05 0.56486374
vt 0.25001603 0.19137786
vt 0.16668272 0.3741063
vt 0.08334935 0.5648638
vt 1.5974045E-05 0.6630236
vt 0.33334935 0.102162726
vt 0.50003195 0.013602234
vt 0.25001603 0.28185755
vt 0.16668272 0.4684364
vt 0.08334935 0.6630236
vt 1.5974045E-05 0.6745946
vt 0.33334935 0.19137786
vt 0.25001603 0.3741063
vt 0.16668272 0.5648638
vt 0.08334935 0.6745946
vt 1.5974045E-05 0.6863978
vt 0.08334935 0.6863978
vt 0.16668272 0.6630236
vt 0.16668272 0.6745946
vt 0.16668272 0.6863978
vt 0.25001603 0.4684364
vt 0.33334935 0.28185755
vt 0.25001603 0.56486374
vt 0.25001603 0.6630236
vt 0.25001603 0.6745946
vt 0.25001603 0.6863978
vt 0.33334935 0.3741063
vt 0.33334935 0.4684364
vt 0.33334935 0.5648638
vt 0.33334935 0.6630236
vt 0.33334935 0.6745946
vt 0.33334935 0.6863978
vt 0.41668272 0.6745946
vt 0.41668272 0.6863978
vt 0.41668272 0.6630236
vt 0.41668272 0.5648638
vt 0.41668272 0.4684364
vt 0.41668272 0.3741063
vt 0.50001603 0.6745946
vt 0.50001603 0.6863978
vt 0.50001603 0.6630236
vt 0.50001603 0.56486374
vt 0.50001603 0.4684364
vt 0.58334935 0.6745946
vt 0.58334935 0.6863978
vt 0.58334935 0.6630236
vt 0.58334935 0.5648638
vt 0.6666827 0.6745946
vt 0.6666827 0.6863978
vt 0.6666827 0.6630236
vt 0.75001603 0.6745946
vt 0.75001603 0.6863978
vt 0.50001603 0.3741063
vt 0.58334935 0.4684364
vt 0.6666827 0.5648638
vt 0.75001603 0.6630236
vt 0.83334935 0.6745946
vt 0.83334935 0.6863978
vt 0.58334935 0.3741063
vt 0.6666827 0.4684364
vt 0.75001603 0.56486374
vt 0.83334935 0.6630236
vt 0.9166827 0.6745946
vt 0.9166827 0.6863978
vt 1.000016 0.6745946
vt 1.000016 0.6863978
vt 1.000016 0.6630236
vt 0.9166827 0.6630236
vt 1.000016 0.56486374
vt 0.9166827 0.5648638
vt 1.000016 0.4684364
vt 0.83334935 0.5648638
vt 0.9166827 0.4684364
vt 1.000016 0.3741063
vt 0.83334935 0.4684364
vt 0.9166827 0.3741063
vt 1.000016 0.28185755
vt 0.75001603 0.4684364
vt 0.9166827 0.28185755
vt 1.000016 0.19137786
vt 0.83334935 0.3741063
vt 0.75001603 0.3741063
vt 0.9166827 0.19137786
vt 1.000016 0.102162726
vt 0.83334935 0.28185755
vt 0.6666827 0.3741063
vt 0.9166827 0.102162726
vt 0.50003195 0.013602234
vt 0.83334935 0.19137786
vt 0.75001603 0.28185755
vt 0.6666827 0.28185755
vt 0.83334935 0.102162726
vt 0.50003195 0.013602234
vt 0.75001603 0.19137786
vt 0.58334935 0.28185755
vt 0.75001603 0.102162726
vt 0.50003195 0.013602234
vt 0.6666827 0.19137786
vt 0.50001603 0.28185755
vt 0.6666827 0.102162726
vt 0.50003195 0.013602234
vt 0.58334935 0.19137786
vt 0.41668272 0.28185755
vt 0.58334935 0.102162726
vt 0.50003195 0.013602234
vt 0.50001603 0.19137786
vt 0.41668272 0.19137786
vt 0.50001603 0.102162726
vt 0.50003195 0.013602234
vt 0.41668272 0.102162726
vt 0.50003195 0.013602234
vt 0.50003195 0.013602234
vt 0.18953073 0.9821207
vt 0.26338488 0.93301034
vt 0.25396383 0.9260084
vt 0.28780037 0.8477957
vt 0.1863715 0.9714533
vt 0.10127556 0.980254
vt 0.10489637 0.96981657
vt 0.030919015 0.9271404
vt 0.03997177 0.9208246
vt 0.0052229166 0.84288144
vt 0.01625961 0.84309566
vt 0.03395468 0.75965333
vt 0.04276228 0.76631296
vt 0.1060524 0.7092512
vt 0.109283745 0.7198211
vt 0.19384056 0.7107634
vt 0.19025892 0.72122955
vt 0.2638135 0.76347363
vt 0.25479805 0.7696881
vt 0.27751297 0.8476658
vt 0.21191913 0.89147216
vt 0.17376274 0.92312473
vt 0.12308693 0.92403364
vt 0.081647694 0.894635
vt 0.065368295 0.8464604
vt 0.080519974 0.79787683
vt 0.121454835 0.7675187
vt 0.1725682 0.7671617
vt 0.21450806 0.7969742
vt 0.23313832 0.8457525
vt 0.20378983 0.8851149
vt 0.16990364 0.9126697
vt 0.1478101 0.8449838
vt 0.12631875 0.91347057
vt 0.22155404 0.84502226
vt 0.20577663 0.80350274
vt 0.090521574 0.8880803
vt 0.16932595 0.77762777
vt 0.07638711 0.8463945
vt 0.12492901 0.77793545
vt 0.089458704 0.8042893
vt 0.76310205 0.7362492
vt 0.8499999 0.85
vt 0.8499999 0.7093965
vt 0.70939636 0.80655116
vt 0.9368975 0.7362492
vt 0.7093966 0.89344907
vt 0.9906031 0.8065511
vt 0.7631023 0.96375096
vt 0.99060345 0.8934489
vt 0.85 0.99060357
vt 0.93689775 0.96375084
vn -0.243851 0.8730103 0.42236224
vn -0.42236224 0.8730103 0.243851
vn -0 1 0
vn -0.37460104 0.66234183 0.64882785
vn -0 0.6623417 0.7492019
vn -0 0.8730103 0.48770195
vn -0 1 0
vn -0 0.35578787 0.9345668
vn -0.46728337 0.35578784 0.80935854
vn -0 0 1
vn -0.64882785 0.66234183 0.37460104
vn -0.49999997 0 0.86602545
vn -0 -0.3557877 0.9345668
vn -0.48770195 0.8730103 0
vn -0 1 0
vn -0.80935854 0.35578793 0.46728337
vn -0.46728337 -0.35578778 0.80935854
vn -0 -0.66234165 0.74920195
vn -0.7492019 0.6623417 0
vn -0.86602545 0 0.5
vn -0.37460098 -0.6623416 0.6488279
vn -0 -0.82239085 0.56892294
vn -0.42236224 0.8730103 -0.243851
vn -0 1 0
vn -0.9345667 0.35578796 0
vn -0.80935854 -0.35578787 0.4672834
vn -0.2844616 -0.8223908 0.49270177
vn -0 -0.19843358 0.9801144
vn -0.6488278 0.66234183 -0.37460098
vn -1 0 0
vn -0.64882797 -0.66234165 0.37460098
vn -0.49005702 -0.19843358 0.84880394
vn -0 0 1
vn -0.49999997 0 0.86602545
vn -0.4927019 -0.8223907 0.2844615
vn -0.8488039 -0.19843365 0.4900572
vn -0.86602545 0 0.4999999
vn -0.9345668 -0.3557879 0
vn -0.80935854 0.35578787 -0.4672834
vn -0.749202 -0.66234165 0
vn -0.5689231 -0.8223908 0
vn -0.9801143 -0.19843382 0
vn -1 0 0
vn -0.86602545 0 -0.5
vn -0.80935854 -0.35578784 -0.46728337
vn -0.6488279 -0.6623416 -0.37460104
vn -0.49270186 -0.8223907 -0.2844616
vn -0.84880394 -0.19843377 -0.49005702
vn -0.86602545 0 -0.4999999
vn -0.49005717 -0.19843364 -0.84880394
vn -0.49999997 0 -0.86602545
vn -0.2844616 -0.8223907 -0.4927019
vn -0.37460095 -0.66234154 -0.64882797
vn -0.46728337 -0.35578778 -0.80935854
vn -0.5 0 -0.86602545
vn -0 -0.19843358 -0.9801144
vn -0 0 -1
vn -0 -0.82239085 -0.56892294
vn -0 -0.66234165 -0.74920195
vn -0 -0.3557877 -0.9345668
vn 0.49005702 -0.19843358 -0.84880394
vn 0.49999997 0 -0.86602545
vn 0.2844616 -0.8223908 -0.49270177
vn 0.37460098 -0.6623416 -0.6488279
vn 0.8488039 -0.19843365 -0.4900572
vn 0.86602545 0 -0.4999999
vn 0.4927019 -0.8223907 -0.2844615
vn 0.9801143 -0.19843382 0
vn 1 0 0
vn -0 0 -1
vn 0.46728337 -0.35578778 -0.80935854
vn 0.64882797 -0.66234165 -0.37460098
vn 0.5689231 -0.8223908 0
vn 0.84880394 -0.19843377 0.49005702
vn 0.86602545 0 0.4999999
vn 0.49999997 0 -0.86602545
vn 0.80935854 -0.35578787 -0.4672834
vn 0.749202 -0.66234165 0
vn 0.49270186 -0.8223907 0.2844616
vn 0.49005717 -0.19843364 0.84880394
vn 0.49999997 0 0.86602545
vn -0 -0.19843358 0.9801144
vn -0 0 1
vn -0 -0.82239085 0.56892294
vn 0.2844616 -0.8223907 0.4927019
vn -0 -0.66234165 0.74920195
vn 0.37460095 -0.66234154 0.64882797
vn -0 -0.3557877 0.9345668
vn 0.6488279 -0.6623416 0.37460104
vn 0.46728337 -0.35578778 0.80935854
vn -0 0 1
vn 0.80935854 -0.35578784 0.46728337
vn 0.5 0 0.86602545
vn -0 0.35578787 0.9345668
vn 0.9345668 -0.3557879 0
vn 0.46728337 0.35578784 0.80935854
vn -0 0.6623417 0.7492019
vn 0.86602545 0 0.5
vn 1 0 0
vn 0.37460095 0.66234183 0.64882785
vn -0 0.8730103 0.48770195
vn 0.80935854 0.35578787 0.4672834
vn 0.86602545 0 -0.5
vn 0.243851 0.8730103 0.42236224
vn -0 1 0
vn 0.6488278 0.66234183 0.37460098
vn 0.9345667 0.35578796 0
vn 0.8093585 0.35578793 -0.46728337
vn 0.42236224 0.8730103 0.243851
vn -0 1 0
vn 0.7492019 0.6623417 0
vn 0.46728337 0.35578784 -0.80935854
vn 0.48770195 0.8730103 0
vn -0 1 0
vn 0.6488278 0.6623417 -0.37460092
vn -0 0.35578787 -0.9345668
vn 0.4223622 0.8730103 -0.24385098
vn -0 1 0
vn 0.37460104 0.66234183 -0.64882785
vn -0.46728337 0.35578784 -0.80935854
vn 0.243851 0.8730103 -0.42236224
vn -0 1 0
vn -0 0.6623417 -0.7492019
vn -0.37460095 0.66234183 -0.64882785
vn -0 0.8730103 -0.48770195
vn -0 1 0
vn -0.243851 0.8730103 -0.42236224
vn -0 1 0
vn -0 1 0
vn 0.08882222 -0.9578007 -0.27336508
vn 0.23253879 -0.95780045 -0.16894984
vn 0.798888 -0.1577449 -0.58042604
vn 0.28743324 -0.9578007 0
vn 0.3051488 -0.15774465 -0.9391491
vn -0.08882225 -0.9578009 -0.27336416
vn -0.30514893 -0.1577447 -0.93914896
vn -0.23253873 -0.9578007 -0.16894837
vn -0.7988881 -0.15774512 -0.58042586
vn -0.2874331 -0.9578007 0
vn -0.98747987 -0.15774487 0
vn -0.2325387 -0.95780057 0.16894919
vn -0.79888797 -0.15774491 0.5804263
vn -0.088822156 -0.9578009 0.27336442
vn -0.30514863 -0.15774454 0.9391491
vn 0.08882216 -0.9578009 0.2733644
vn 0.30514863 -0.1577446 0.9391491
vn 0.23253879 -0.95780057 0.16894874
vn 0.79888797 -0.15774494 0.58042616
vn 0.98747987 -0.15774481 0
vn 0.8046595 0.10365211 -0.58461905
vn 0.30735317 0.10365229 -0.94593346
vn -0.30735326 0.10365239 -0.94593346
vn -0.8046595 0.103652194 -0.584619
vn -0.9946136 0.10365203 0
vn -0.8046592 0.103652075 0.5846194
vn -0.30735293 0.10365206 0.9459336
vn 0.30735302 0.10365209 0.9459336
vn 0.80465925 0.10365213 0.58461934
vn 0.9946136 0.10365205 0
vn 0.19754975 0.9697288 -0.1435279
vn 0.07545743 0.9697287 -0.23223363
vn -0 1 0
vn -0.075457536 0.9697288 -0.23223323
vn 0.24418537 0.9697286 0
vn 0.19754978 0.9697287 0.14352827
vn -0.19754963 0.9697287 -0.14352858
vn 0.07545755 0.9697286 0.2322339
vn -0.24418528 0.9697286 0
vn -0.07545754 0.9697287 0.23223352
vn -0.19754966 0.9697287 0.14352864
vn -0.13255465 -0.9033259 0.4079602
vn -0 -1 0
vn -0.34703207 -0.90332586 0.2521333
vn 0.1325547 -0.90332603 0.40796003
vn -0.42895463 -0.90332615 0
vn 0.3470321 -0.9033256 0.25213373
vn -0.3470318 -0.90332574 -0.2521338
vn 0.42895463 -0.90332603 0
vn -0.13255446 -0.90332603 -0.40796015
vn 0.3470318 -0.9033259 -0.2521335
vn 0.13255443 -0.9033259 -0.40796033
g flask_out_0
f 3/3/3 2/2/2 1/1/1
f 4/4/4 1/1/1 2/2/2
f 4/4/4 5/5/5 1/1/1
f 5/5/5 6/6/6 1/1/1
f 7/7/7 1/1/1 6/6/6
f 8/8/8 5/5/5 4/4/4
f 9/9/9 8/8/8 4/4/4
f 10/10/10 8/8/8 9/9/9
f 11/11/11 4/4/4 2/2/2
f 9/9/9 4/4/4 11/11/11
f 12/12/12 10/10/10 9/9/9
f 13/13/13 10/10/10 12/12/12
f 11/11/11 2/2/2 14/14/14
f 15/15/15 14/14/14 2/2/2
f 16/16/16 9/9/9 11/11/11
f 12/12/12 9/9/9 16/16/16
f 17/17/17 13/13/13 12/12/12
f 18/18/18 13/13/13 17/17/17
f 19/19/19 11/11/11 14/14/14
f 16/16/16 11/11/11 19/19/19
f 20/20/20 12/12/12 16/16/16
f 17/17/17 12/12/12 20/20/20
f 21/21/21 18/18/18 17/17/17
f 22/22/22 18/18/18 21/21/21
f 19/19/19 14/14/14 23/23/23
f 24/24/24 23/23/23 14/14/14
f 25/25/25 16/16/16 19/19/19
f 20/20/20 16/16/16 25/25/25
f 26/26/26 17/17/17 20/20/20
f 21/21/21 17/17/17 26/26/26
f 27/27/27 22/22/22 21/21/21
f 28/28/28 22/22/22 27/27/27
f 29/29/29 19/19/19 23/23/23
f 25/25/25 19/19/19 29/29/29
f 30/30/30 20/20/20 25/25/25
f 26/26/26 20/20/20 30/30/30
f 31/31/31 21/21/21 26/26/26
f 27/27/27 21/21/21 31/31/31
f 32/32/32 28/28/28 27/27/27
f 33/33/33 28/28/28 32/32/32
f 34/34/34 33/33/33 32/32/32
f 32/32/32 27/27/27 35/35/35
f 35/35/35 27/27/27 31/31/31
f 34/34/34 32/32/32 36/36/36
f 36/36/36 32/32/32 35/35/35
f 37/37/37 34/34/34 36/36/36
f 31/31/31 26/26/26 38/38/38
f 38/38/38 26/26/26 30/30/30
f 30/30/30 25/25/25 39/39/39
f 39/39/39 25/25/25 29/29/29
f 35/35/35 31/31/31 40/40/40
f 40/40/40 31/31/31 38/38/38
f 36/36/36 35/35/35 41/41/41
f 41/41/41 35/35/35 40/40/40
f 37/37/37 36/36/36 42/42/42
f 42/42/42 36/36/36 41/41/41
f 43/43/43 37/37/37 42/42/42
f 38/38/38 30/30/30 44/44/44
f 44/44/44 30/30/30 39/39/39
f 40/40/40 38/38/38 45/45/45
f 45/45/45 38/38/38 44/44/44
f 41/41/41 40/40/40 46/46/46
f 46/46/46 40/40/40 45/45/45
f 42/42/42 41/41/41 47/47/47
f 47/47/47 41/41/41 46/46/46
f 43/43/43 42/42/42 48/48/48
f 48/48/48 42/42/42 47/47/47
f 49/49/49 43/43/43 48/48/48
f 49/49/49 48/48/48 50/50/50
f 51/51/51 49/49/49 50/50/50
f 48/48/48 47/47/47 52/52/52
f 50/50/50 48/48/48 52/52/52
f 47/47/47 46/46/46 53/53/53
f 52/52/52 47/47/47 53/53/53
f 46/46/46 45/45/45 54/54/54
f 53/53/53 46/46/46 54/54/54
f 45/45/45 44/44/44 55/55/55
f 54/54/54 45/45/45 55/55/55
f 51/51/51 50/50/50 56/56/56
f 57/57/57 51/51/51 56/56/56
f 50/50/50 52/52/52 58/58/58
f 56/56/56 50/50/50 58/58/58
f 52/52/52 53/53/53 59/59/59
f 58/58/58 52/52/52 59/59/59
f 53/53/53 54/54/54 60/60/60
f 59/59/59 53/53/53 60/60/60
f 57/57/57 56/56/56 61/61/61
f 62/62/62 57/57/57 61/61/61
f 56/56/56 58/58/58 63/63/63
f 61/61/61 56/56/56 63/63/63
f 58/58/58 59/59/59 64/64/64
f 63/63/63 58/58/58 64/64/64
f 62/62/62 61/61/61 65/65/65
f 66/66/66 62/62/62 65/65/65
f 61/61/61 63/63/63 67/67/67
f 65/65/65 61/61/61 67/67/67
f 66/66/66 65/65/65 68/68/68
f 69/69/69 66/66/66 68/68/68
f 60/60/60 54/54/54 70/70/70
f 54/54/54 55/55/55 70/70/70
f 59/59/59 60/60/60 71/71/71
f 64/64/64 59/59/59 71/71/71
f 63/63/63 64/64/64 72/72/72
f 67/67/67 63/63/63 72/72/72
f 65/65/65 67/67/67 73/73/73
f 68/68/68 65/65/65 73/73/73
f 69/69/69 68/68/68 74/74/74
f 75/75/75 69/69/69 74/74/74
f 60/60/60 70/70/70 76/76/76
f 71/71/71 60/60/60 76/76/76
f 64/64/64 71/71/71 77/77/77
f 72/72/72 64/64/64 77/77/77
f 67/67/67 72/72/72 78/78/78
f 73/73/73 67/67/67 78/78/78
f 68/68/68 73/73/73 79/79/79
f 74/74/74 68/68/68 79/79/79
f 75/75/75 74/74/74 80/80/80
f 81/81/81 75/75/75 80/80/80
f 81/81/81 80/80/80 82/82/82
f 83/83/83 81/81/81 82/82/82
f 82/82/82 80/80/80 84/84/84
f 80/80/80 74/74/74 85/85/85
f 80/80/80 85/85/85 84/84/84
f 74/74/74 79/79/79 85/85/85
f 84/84/84 85/85/85 86/86/86
f 85/85/85 87/87/87 86/86/86
f 85/85/85 79/79/79 87/87/87
f 86/86/86 87/87/87 88/88/88
f 79/79/79 73/73/73 89/89/89
f 79/79/79 89/89/89 87/87/87
f 73/73/73 78/78/78 89/89/89
f 87/87/87 90/90/90 88/88/88
f 87/87/87 89/89/89 90/90/90
f 88/88/88 90/90/90 91/91/91
f 89/89/89 78/78/78 92/92/92
f 89/89/89 92/92/92 90/90/90
f 90/90/90 93/93/93 91/91/91
f 90/90/90 92/92/92 93/93/93
f 91/91/91 93/93/93 94/94/94
f 78/78/78 95/95/95 92/92/92
f 78/78/78 72/72/72 95/95/95
f 72/72/72 77/77/77 95/95/95
f 93/93/93 96/96/96 94/94/94
f 94/94/94 96/96/96 97/97/97
f 92/92/92 98/98/98 93/93/93
f 92/92/92 95/95/95 98/98/98
f 93/93/93 98/98/98 96/96/96
f 95/95/95 77/77/77 99/99/99
f 95/95/95 99/99/99 98/98/98
f 96/96/96 100/100/100 97/97/97
f 97/97/97 100/100/100 101/101/101
f 98/98/98 102/102/102 96/96/96
f 98/98/98 99/99/99 102/102/102
f 96/96/96 102/102/102 100/100/100
f 77/77/77 103/103/103 99/99/99
f 77/77/77 71/71/71 103/103/103
f 71/71/71 76/76/76 103/103/103
f 100/100/100 104/104/104 101/101/101
f 105/105/105 101/101/101 104/104/104
f 102/102/102 106/106/106 100/100/100
f 100/100/100 106/106/106 104/104/104
f 99/99/99 107/107/107 102/102/102
f 99/99/99 103/103/103 107/107/107
f 102/102/102 107/107/107 106/106/106
f 103/103/103 76/76/76 108/108/108
f 103/103/103 108/108/108 107/107/107
f 106/106/106 109/109/109 104/104/104
f 110/110/110 104/104/104 109/109/109
f 107/107/107 111/111/111 106/106/106
f 106/106/106 111/111/111 109/109/109
f 107/107/107 108/108/108 111/111/111
f 76/76/76 112/112/112 108/108/108
f 76/76/76 70/70/70 112/112/112
f 111/111/111 113/113/113 109/109/109
f 114/114/114 109/109/109 113/113/113
f 108/108/108 115/115/115 111/111/111
f 111/111/111 115/115/115 113/113/113
f 108/108/108 112/112/112 115/115/115
f 70/70/70 116/116/116 112/112/112
f 70/70/70 55/55/55 116/116/116
f 115/115/115 117/117/117 113/113/113
f 118/118/118 113/113/113 117/117/117
f 112/112/112 119/119/119 115/115/115
f 115/115/115 119/119/119 117/117/117
f 112/112/112 116/116/116 119/119/119
f 55/55/55 120/120/120 116/116/116
f 55/55/55 44/44/44 120/120/120
f 44/44/44 39/39/39 120/120/120
f 119/119/119 121/121/121 117/117/117
f 122/122/122 117/117/117 121/121/121
f 116/116/116 123/123/123 119/119/119
f 116/116/116 120/120/120 123/123/123
f 119/119/119 123/123/123 121/121/121
f 120/120/120 39/39/39 124/124/124
f 120/120/120 124/124/124 123/123/123
f 39/39/39 29/29/29 124/124/124
f 123/123/123 125/125/125 121/121/121
f 123/123/123 124/124/124 125/125/125
f 126/126/126 121/121/121 125/125/125
f 124/124/124 29/29/29 127/127/127
f 124/124/124 127/127/127 125/125/125
f 128/128/128 125/125/125 127/127/127
f 29/29/29 23/23/23 127/127/127
f 129/129/129 127/127/127 23/23/23
f 132/132/132 131/131/131 130/130/130
f 133/133/133 131/131/131 132/132/132
f 134/134/134 132/132/132 130/130/130
f 134/134/134 130/130/130 135/135/135
f 136/136/136 134/134/134 135/135/135
f 136/136/136 135/135/135 137/137/137
f 138/138/138 136/136/136 137/137/137
f 138/138/138 137/137/137 139/139/139
f 140/140/140 138/138/138 139/139/139
f 140/140/140 139/139/139 141/141/141
f 142/142/142 140/140/140 141/141/141
f 142/142/142 141/141/141 143/143/143
f 144/144/144 142/142/142 143/143/143
f 144/144/144 143/143/143 145/145/145
f 146/146/146 144/144/144 145/145/145
f 146/146/146 145/145/145 147/147/147
f 148/148/148 146/146/146 147/147/147
f 148/148/148 147/147/147 133/133/133
f 149/149/149 148/148/148 133/133/133
f 149/149/149 133/133/133 132/132/132
f 149/149/149 132/132/132 150/150/150
f 132/132/132 134/134/134 150/150/150
f 134/134/134 151/151/151 150/150/150
f 134/134/134 136/136/136 151/151/151
f 136/136/136 152/152/152 151/151/151
f 136/136/136 138/138/138 152/152/152
f 138/138/138 153/153/153 152/152/152
f 138/138/138 140/140/140 153/153/153
f 140/140/140 154/154/154 153/153/153
f 140/140/140 142/142/142 154/154/154
f 142/142/142 155/155/155 154/154/154
f 142/142/142 144/144/144 155/155/155
f 144/144/144 156/156/156 155/155/155
f 144/144/144 146/146/146 156/156/156
f 146/146/146 157/157/157 156/156/156
f 146/146/146 148/148/148 157/157/157
f 148/148/148 158/158/158 157/157/157
f 148/148/148 149/149/149 158/158/158
f 149/149/149 159/159/159 158/158/158
f 159/159/159 149/149/149 150/150/150
f 159/159/159 150/150/150 160/160/160
f 150/150/150 151/151/151 160/160/160
f 151/151/151 161/161/161 160/160/160
f 151/151/151 152/152/152 161/161/161
f 160/160/160 161/161/161 162/162/162
f 161/161/161 163/163/163 162/162/162
f 152/152/152 163/163/163 161/161/161
f 164/164/164 160/160/160 162/162/162
f 164/164/164 159/159/159 160/160/160
f 152/152/152 153/153/153 163/163/163
f 159/159/159 164/164/164 165/165/165
f 158/158/158 159/159/159 165/165/165
f 165/165/165 164/164/164 162/162/162
f 153/153/153 166/166/166 163/163/163
f 163/163/163 166/166/166 162/162/162
f 153/153/153 154/154/154 166/166/166
f 158/158/158 165/165/165 167/167/167
f 167/167/167 165/165/165 162/162/162
f 157/157/157 158/158/158 167/167/167
f 154/154/154 168/168/168 166/166/166
f 166/166/166 168/168/168 162/162/162
f 154/154/154 155/155/155 168/168/168
f 157/157/157 167/167/167 169/169/169
f 169/169/169 167/167/167 162/162/162
f 156/156/156 157/157/157 169/169/169
f 168/168/168 170/170/170 162/162/162
f 155/155/155 170/170/170 168/168/168
f 170/170/170 169/169/169 162/162/162
f 156/156/156 169/169/169 170/170/170
f 155/155/155 156/156/156 170/170/170
f 173/173/173 172/172/172 171/171/171
f 171/171/171 172/172/172 174/174/174
f 175/175/175 172/172/172 173/173/173
f 174/174/174 172/172/172 176/176/176
f 177/177/177 172/172/172 175/175/175
f 176/176/176 172/172/172 178/178/178
f 179/179/179 172/172/172 177/177/177
f 178/178/178 172/172/172 180/180/180
f 181/181/181 172/172/172 179/179/179
f 180/180/180 172/172/172 181/181/181
