g floor_2x2
v -2.4437973 0 -0.30255035
v -2.5038824 0.06157928 -0.24760254
v -2.5279317 0 -0.3477887
v 0.048345756 0 -1.6053219
v -0.0139286565 0.06157928 -1.5702779
v -0.03332033 0 -1.6281226
v -0.034469854 0.035111755 -0.034474183
v -0.10215382 0.05913619 -0.058062438
v -0.058055084 0.055200398 -1.25
v -0.16784987 0.050803687 -2.4419374
v -0 -8.581359E-18 -2.5
v -0.058055084 0.05126461 -2.3100715
v -2.4367282 0 -0.13921997
v -2.5038824 0.06157928 -0.24760254
v -2.4437973 0 -0.30255035
v -2.5026634 0 -0.0951416
v -2.5458722 0 -0.12721436
v -2.5279317 0 -0.3477887
v -2.5038824 0.06157928 -0.24760254
v -2.5515246 0 -0.29070038
v -2.5458722 0 -0.12721436
v -2.5733695 0.00039607493 -0.37808716
v -2.5156958 0.043611426 -0.377377
v -2.4964173 0 -0.3245233
v -2.49796 0 -0.44708312
v -2.4964173 0 -0.3245233
v -2.5156958 0.043611426 -0.377377
v -2.4210079 -0.00039607493 -0.39351928
v -2.49796 0 -0.44708312
v 0.047982063 0 -1.5095642
v -0.0139286565 0.06157928 -1.5702779
v 0.048345756 0 -1.6053219
v -0.019621069 0 -1.4806491
v -0.06116192 0 -1.4975586
v -0.03332033 0 -1.6281226
v -0.0139286565 0.06157928 -1.5702779
v -0.059381537 0 -1.593472
v -0.06116192 0 -1.4975586
v -0 -5.980183E-17 -1.25
v -0 -8.581359E-18 -2.5
v -1.25 -8.581359E-18 -2.5
v -2.5 -8.581359E-18 -2.5
v -2.5 -5.980183E-17 -1.25
v -0 -1.110223E-16 0
v -2.5 -1.110223E-16 0
v -1.25 -1.110223E-16 0
v -1.25 0.050803687 -2.4419374
v -2.4419448 0.050803687 -2.4419374
v -2.5 -8.581359E-18 -2.5
v -1.25 -8.581359E-18 -2.5
v -0 -8.581359E-18 -2.5
v -0.16784987 0.050803687 -2.4419374
v -2.4419448 0.05487626 -1.25
v -2.4419448 0.058948833 -0.11165985
v -2.5 -1.110223E-16 0
v -2.5 -5.980183E-17 -1.25
v -2.5 -8.581359E-18 -2.5
v -2.4419448 0.050803687 -2.4419374
v -0.058055084 0.055200398 -1.25
v -0.058055084 0.05126461 -2.3100715
v -0 -8.581359E-18 -2.5
v -0 -5.980183E-17 -1.25
v -0 -1.110223E-16 0
v -0.034469854 0.035111755 -0.034474183
v -2.4419448 0.058948833 -0.11165985
v -2.3566594 0.05913618 -0.058062285
v -2.5 -1.110223E-16 0
v -1.25 0.059136186 -0.058062285
v -1.25 -1.110223E-16 0
v -0.10215382 0.05913619 -0.058062438
v -0.034469854 0.035111755 -0.034474183
v -0 -1.110223E-16 0
v -0.058055084 0.055200398 -1.25
v -0.10215382 0.05913619 -0.058062438
v -1.25 0.059136186 -0.058062285
v -1.25 0.055038325 -1.25
v -0.058055084 0.05126461 -2.3100715
v -2.3566594 0.05913618 -0.058062285
v -0.16784987 0.050803687 -2.4419374
v -2.4419448 0.058948833 -0.11165985
v -1.25 0.050803687 -2.4419374
v -2.4419448 0.05487626 -1.25
v -2.4419448 0.050803687 -2.4419374
vt 0.9707086 0.79381967
vt 0.9752488 0.7889246
vt 0.9669527 0.78683496
vt 0.8625437 1.0006939
vt 0.86543125 0.9956168
vt 0.86065066 0.9939141
vt 0.99295366 0.99388194
vt 0.99098647 0.98829913
vt 0.89202523 0.9919463
vt 0.79306394 0.98281753
vt 0.78826165 0.99667466
vt 0.8040123 0.9919336
vt 0.9842695 0.7944077
vt 0.9752488 0.7889246
vt 0.9707086 0.79381967
vt 0.9879292 0.78893423
vt 0.98526627 0.7853471
vt 0.9669527 0.78683496
vt 0.9752488 0.7889246
vt 0.9716926 0.78487694
vt 0.98526627 0.7853471
vt 0.9644369 0.78306353
vt 0.96448034 0.7879162
vt 0.96888435 0.78945136
vt 0.9587086 0.7893225
vt 0.96888435 0.78945136
vt 0.96448034 0.7879162
vt 0.963156 0.79571056
vt 0.9587086 0.7893225
vt 0.87049437 1.0006642
vt 0.86543125 0.9956168
vt 0.8625437 1.0006939
vt 0.8728951 0.99505246
vt 0.87149113 0.99160403
vt 0.86065066 0.9939141
vt 0.86543125 0.9956168
vt 0.8635278 0.99175096
vt 0.87149113 0.99160403
vt 0.8920451 0.9966829
vt 0.78826165 0.99667466
vt 0.78826165 0.8929072
vt 0.78826165 0.78913987
vt 0.8920451 0.7891482
vt 0.9958284 0.99669075
vt 0.9958284 0.7891562
vt 0.9958284 0.89292336
vt 0.79306394 0.8929839
vt 0.79306394 0.7940359
vt 0.78826165 0.78913987
vt 0.78826165 0.8929072
vt 0.78826165 0.99667466
vt 0.79306394 0.98281753
vt 0.89202535 0.79405
vt 0.9865366 0.7940632
vt 0.9958284 0.7891562
vt 0.8920451 0.7891482
vt 0.78826165 0.78913987
vt 0.79306394 0.7940359
vt 0.89202523 0.9919463
vt 0.8040123 0.9919336
vt 0.78826165 0.99667466
vt 0.8920451 0.9966829
vt 0.9958284 0.99669075
vt 0.99295366 0.99388194
vt 0.9865366 0.7940632
vt 0.99098647 0.80114377
vt 0.9958284 0.7891562
vt 0.99098647 0.8930119
vt 0.9958284 0.89292336
vt 0.99098647 0.98829913
vt 0.99295366 0.99388194
vt 0.9958284 0.99669075
vt 0.89202523 0.9919463
vt 0.99098647 0.98829913
vt 0.99098647 0.8930119
vt 0.89202535 0.892998
vt 0.8040123 0.9919336
vt 0.99098647 0.80114377
vt 0.79306394 0.98281753
vt 0.9865366 0.7940632
vt 0.79306394 0.8929839
vt 0.89202535 0.79405
vt 0.79306394 0.7940359
vn 0.29613096 0.78037673 -0.5507438
vn 0.29613093 0.78037673 -0.5507438
vn 0.2961309 0.7803767 -0.5507439
vn 0.2079311 0.63411164 -0.74475974
vn 0.2079311 0.63411164 -0.74475974
vn 0.20793113 0.63411164 -0.7447598
vn 0.33165386 0.9433567 0.009155394
vn 0.33165386 0.9433567 0.009155392
vn 0.3316539 0.9433567 0.009155393
vn 0.22375818 0.95601577 -0.18964753
vn 0.22375816 0.95601577 -0.18964754
vn 0.22375818 0.95601577 -0.18964754
vn 0.42116275 0.8755999 0.23653051
vn 0.5690202 0.8179409 0.084785834
vn 0.7017242 0.7118011 -0.030371951
vn 0.04838843 0.9262724 0.37373513
vn -0.26910403 0.89227116 0.36253998
vn -0.65929806 0.7007757 -0.27246922
vn -0.78730583 0.61647314 -0.010514235
vn -0.75134987 0.6521029 -0.10116873
vn -0.79989696 0.5994998 0.027656121
vn -0.59903395 0.8000038 -0.03394509
vn -0.59969497 0.8001733 0.009419287
vn -0.45595783 0.59766567 0.6594682
vn -0.49744296 0.67286456 -0.5475433
vn 0.43641025 0.76564634 0.47257993
vn 0.42598766 0.9040892 0.034018874
vn 0.41236237 0.909075 -0.05949654
vn 0.31397918 0.8387513 -0.44487438
vn 0.48882338 0.8102492 0.32333878
vn 0.47581276 0.8315187 0.28666848
vn 0.70388466 0.71030927 0.002673408
vn 0.05195743 0.82155967 0.56775004
vn -0.22091505 0.8103444 0.54271406
vn -0.6191086 0.6323623 -0.46564183
vn -0.7816877 0.6153109 -0.10176844
vn -0.75917405 0.626646 -0.17598222
vn -0.80178875 0.59742224 -0.014883144
vn -0 -1 0
vn -0 -1 0
vn -0 -1 0
vn -0 -1 0
vn -0 -1 0
vn -0 -1 0
vn -0 -1 0
vn -0 -1 0
vn -0 0.75258267 -0.6584977
vn -0 0.7525827 -0.65849763
vn -0 0.75258267 -0.6584977
vn -0 0.75258267 -0.6584977
vn -0 0.7525827 -0.65849763
vn -0 0.75258267 -0.6584977
vn -0.6869515 0.7267022 -0.0012254367
vn -0.7006405 0.71351343 -0.0012166764
vn -0.7006405 0.71351343 -0.0012166764
vn -0.6869302 0.72672236 -0.0012254501
vn -0.67277163 0.7398492 -0.0012338939
vn -0.6727716 0.7398492 -0.0012338939
vn 0.6858878 0.72770655 -0.0010709142
vn 0.6747117 0.7380804 -0.0012575057
vn 0.6747117 0.7380804 -0.0012575057
vn 0.68597543 0.7276238 -0.0010694384
vn 0.69866055 0.7154528 -0.000854015
vn 0.6986606 0.71545273 -0.00085401494
vn -0.22780588 0.9049805 0.35932538
vn -0.006025647 0.70798403 0.7062028
vn -0.018753331 0.7232509 0.6903307
vn -0 0.70059824 0.7135559
vn -0 0.70059824 0.7135559
vn -0 0.7005985 0.71355563
vn -0 0.70059854 0.71355563
vn -0 0.70059854 0.71355563
vn -9.041024E-05 0.9999939 -0.0034794854
vn -6.926965E-05 0.9999944 -0.00337126
vn -4.7028425E-05 0.9999943 -0.0033926775
vn -6.8240704E-05 0.99999404 -0.0034712444
vn -8.673348E-05 0.9999933 -0.0036573664
vn -4.7178637E-06 0.99999416 -0.0034423498
vn 8.800199E-06 0.9999938 -0.003544715
vn -0.00011756067 0.9999937 -0.0035583482
vn -4.675841E-05 0.9999939 -0.0035059522
vn -8.9955625E-05 0.9999938 -0.003514747
vn -6.798406E-05 0.9999939 -0.0034847276
g floor_2x2_0
f 3/3/3 2/2/2 1/1/1
f 6/6/6 5/5/5 4/4/4
f 9/9/9 8/8/8 7/7/7
f 12/12/12 11/11/11 10/10/10
f 15/15/15 14/14/14 13/13/13
f 13/13/13 14/14/14 16/16/16
f 16/16/16 14/14/14 17/17/17
f 20/20/20 19/19/19 18/18/18
f 21/21/21 19/19/19 20/20/20
f 24/24/24 23/23/23 22/22/22
f 22/22/22 23/23/23 25/25/25
f 28/28/28 27/27/27 26/26/26
f 29/29/29 27/27/27 28/28/28
f 32/32/32 31/31/31 30/30/30
f 30/30/30 31/31/31 33/33/33
f 33/33/33 31/31/31 34/34/34
f 37/37/37 36/36/36 35/35/35
f 38/38/38 36/36/36 37/37/37
f 41/41/41 40/40/40 39/39/39
f 39/39/39 42/42/42 41/41/41
f 39/39/39 43/43/43 42/42/42
f 39/39/39 44/44/44 43/43/43
f 44/44/44 45/45/45 43/43/43
f 44/44/44 46/46/46 45/45/45
f 49/49/49 48/48/48 47/47/47
f 50/50/50 49/49/49 47/47/47
f 50/50/50 47/47/47 51/51/51
f 47/47/47 52/52/52 51/51/51
f 55/55/55 54/54/54 53/53/53
f 56/56/56 55/55/55 53/53/53
f 56/56/56 53/53/53 57/57/57
f 53/53/53 58/58/58 57/57/57
f 61/61/61 60/60/60 59/59/59
f 62/62/62 61/61/61 59/59/59
f 62/62/62 59/59/59 63/63/63
f 59/59/59 64/64/64 63/63/63
f 67/67/67 66/66/66 65/65/65
f 68/68/68 66/66/66 67/67/67
f 69/69/69 68/68/68 67/67/67
f 70/70/70 68/68/68 69/69/69
f 71/71/71 70/70/70 69/69/69
f 69/69/69 72/72/72 71/71/71
f 75/75/75 74/74/74 73/73/73
f 76/76/76 75/75/75 73/73/73
f 76/76/76 73/73/73 77/77/77
f 76/76/76 78/78/78 75/75/75
f 79/79/79 76/76/76 77/77/77
f 76/76/76 80/80/80 78/78/78
f 79/79/79 81/81/81 76/76/76
f 76/76/76 82/82/82 80/80/80
f 81/81/81 83/83/83 76/76/76
f 83/83/83 82/82/82 76/76/76
