g floor_trim
v 0.45074806 0.0005198339 -0.0018200683
v 0.43335548 0.07437341 -0.0018200683
v 0.43335548 0.07437341 -4.999678
v 0.45074806 0.0005198339 -4.999678
v 0.23469459 0.15144086 -0.0018200683
v 0.43335548 0.07437341 -4.999678
v 0.43335548 0.07437341 -0.0018200683
v 0.23469459 0.15144086 -4.999678
v 0.18313819 0.15143612 -0.0018200683
v 0.18313819 0.15143612 -4.999678
v 0.09999977 0.081176706 -0.0018249511
v 0.09999977 0.081176706 -4.999758
v 0.18313819 0.15143612 -4.999678
v 0.18313819 0.15143612 -0.0018200683
v -2.2888183E-07 0.10112945 -0.0018243408
v 0.09999977 0.081176706 -4.999758
v 0.09999977 0.081176706 -0.0018249511
v -2.2888183E-07 0.10112945 -4.9997478
v -0.100000225 0.081176706 -0.0018249511
v -0.100000225 0.081176706 -4.999758
v -0.18313865 0.15143612 -0.0018200683
v -0.18313865 0.15143612 -4.999678
v -0.100000225 0.081176706 -4.999758
v -0.100000225 0.081176706 -0.0018249511
v -0.23469505 0.15144086 -0.0018200683
v -0.18313865 0.15143612 -4.999678
v -0.18313865 0.15143612 -0.0018200683
v -0.23469505 0.15144086 -4.999678
v -0.43335593 0.07437341 -0.0018200683
v -0.43335593 0.07437341 -4.999678
v -0.4507485 0.0005198339 -0.0018200683
v -0.4507485 0.0005198339 -4.999678
v -0.43335593 0.07437341 -4.999678
v -0.43335593 0.07437341 -0.0018200683
v 0.29421973 0.12923749 -4.1695914
v 0.3394419 0.11121407 -4.189756
v 0.34885353 0.13483144 -4.15817
v 0.32438087 0.14458564 -4.147257
v 0.35215917 0.14312477 -4.120911
v 0.27548927 0.13670303 -4.120911
v 0.37332863 0.12507723 -4.147257
v 0.3846616 0.09319065 -4.1695914
v 0.31424415 0.14862598 -4.120911
v 0.29421973 0.12923749 -4.072231
v 0.38346535 0.12103691 -4.120911
v 0.40339455 0.085725114 -4.120911
v 0.32438087 0.14458564 -4.0945654
v 0.3394419 0.11121407 -4.0520663
v 0.37332863 0.12507723 -4.0945654
v 0.3846616 0.09319065 -4.072231
v 0.34885353 0.13483144 -4.083653
v 0.29421973 0.12923749 -2.5486803
v 0.3394419 0.11121407 -2.5688446
v 0.34885353 0.13483144 -2.5372581
v 0.32438087 0.14458564 -2.5263457
v 0.35215917 0.14312477 -2.5
v 0.27548927 0.13670303 -2.5
v 0.37332863 0.12507723 -2.5263457
v 0.3846616 0.09319065 -2.5486803
v 0.31424415 0.14862598 -2.5
v 0.29421973 0.12923749 -2.4513195
v 0.38346535 0.12103691 -2.5
v 0.40339455 0.085725114 -2.5
v 0.32438087 0.14458564 -2.473654
v 0.3394419 0.11121407 -2.4311554
v 0.37332863 0.12507723 -2.473654
v 0.3846616 0.09319065 -2.4513195
v 0.34885353 0.13483144 -2.4627416
v 0.29421973 0.12923749 -0.92006356
v 0.3394419 0.11121407 -0.9402277
v 0.34885353 0.13483144 -0.908642
v 0.32438087 0.14458564 -0.8977289
v 0.35215917 0.14312477 -0.87138313
v 0.27548927 0.13670303 -0.87138313
v 0.37332863 0.12507723 -0.8977289
v 0.3846616 0.09319065 -0.92006356
v 0.31424415 0.14862598 -0.87138313
v 0.29421973 0.12923749 -0.8227027
v 0.38346535 0.12103691 -0.87138313
v 0.40339455 0.085725114 -0.87138313
v 0.32438087 0.14458564 -0.8450373
v 0.3394419 0.11121407 -0.8025385
v 0.37332863 0.12507723 -0.8450373
v 0.3846616 0.09319065 -0.8227027
v 0.34885353 0.13483144 -0.8341242
v -0.29356712 0.12923749 -4.1695914
v -0.32372826 0.14458564 -4.147257
v -0.34820092 0.13483144 -4.15817
v -0.35150656 0.14312477 -4.120911
v -0.33878928 0.11121407 -4.189756
v -0.27483666 0.13670303 -4.120911
v -0.372676 0.12507723 -4.147257
v -0.384009 0.09319065 -4.1695914
v -0.31359154 0.14862598 -4.120911
v -0.29356712 0.12923749 -4.072231
v -0.3828127 0.12103691 -4.120911
v -0.4027419 0.085725114 -4.120911
v -0.32372826 0.14458564 -4.0945654
v -0.33878928 0.11121407 -4.0520663
v -0.372676 0.12507723 -4.0945654
v -0.384009 0.09319065 -4.072231
v -0.34820092 0.13483144 -4.083653
v -0.29356712 0.12923749 -2.5486803
v -0.32372826 0.14458564 -2.5263457
v -0.34820092 0.13483144 -2.5372581
v -0.35150656 0.14312477 -2.5
v -0.33878928 0.11121407 -2.5688446
v -0.27483666 0.13670303 -2.5
v -0.372676 0.12507723 -2.5263457
v -0.384009 0.09319065 -2.5486803
v -0.31359154 0.14862598 -2.5
v -0.29356712 0.12923749 -2.4513195
v -0.3828127 0.12103691 -2.5
v -0.4027419 0.085725114 -2.5
v -0.32372826 0.14458564 -2.473654
v -0.33878928 0.11121407 -2.4311554
v -0.372676 0.12507723 -2.473654
v -0.384009 0.09319065 -2.4513195
v -0.34820092 0.13483144 -2.4627416
v -0.29356712 0.12923749 -0.92006356
v -0.32372826 0.14458564 -0.8977289
v -0.34820092 0.13483144 -0.908642
v -0.35150656 0.14312477 -0.87138313
v -0.33878928 0.11121407 -0.9402277
v -0.27483666 0.13670303 -0.87138313
v -0.372676 0.12507723 -0.8977289
v -0.384009 0.09319065 -0.92006356
v -0.31359154 0.14862598 -0.87138313
v -0.29356712 0.12923749 -0.8227027
v -0.3828127 0.12103691 -0.87138313
v -0.4027419 0.085725114 -0.87138313
v -0.32372826 0.14458564 -0.8450373
v -0.33878928 0.11121407 -0.8025385
v -0.372676 0.12507723 -0.8450373
v -0.384009 0.09319065 -0.8227027
v -0.34820092 0.13483144 -0.8341242
vt -0.01683435 0.45496345
vt -0.01683435 0.4713328
vt 0.16458955 0.47133285
vt 0.16458955 0.45496348
vt -0.01683435 0.4889263
vt 0.16458955 0.47133285
vt -0.01683435 0.4713328
vt 0.16458955 0.48892623
vt -0.01683435 0.49054897
vt 0.16458955 0.49054903
vt -0.01682837 0.46111023
vt 0.16468921 0.46111023
vt 0.16458955 0.4870238
vt -0.01683435 0.4870238
vt 0.9563808 0.42048532
vt 0.7032198 0.41413987
vt 0.95635194 0.41413987
vt 0.70370007 0.42048532
vt 0.95635194 0.4268308
vt 0.7032198 0.42683077
vt -0.01683435 0.48723027
vt 0.16458955 0.48723024
vt 0.16468921 0.4613166
vt -0.01682837 0.46131647
vt -0.01683435 0.48891318
vt 0.16458955 0.49053594
vt -0.01683435 0.49053586
vt 0.16458955 0.48891318
vt -0.01683435 0.47123885
vt 0.16458955 0.47123897
vt -0.01683435 0.4548695
vt 0.16458955 0.45486954
vt 0.16458955 0.47123897
vt -0.01683435 0.47123885
vt 0.26595703 0.58280873
vt 0.2532114 0.5875436
vt 0.25055835 0.5801269
vt 0.25745633 0.5775644
vt 0.24962683 0.57137805
vt 0.2712364 0.57137805
vt 0.24366075 0.5775644
vt 0.24046598 0.58280873
vt 0.26031345 0.57137805
vt 0.26595703 0.5599475
vt 0.24080354 0.57137805
vt 0.23518652 0.57137805
vt 0.25745633 0.5651918
vt 0.2532114 0.5552127
vt 0.24366075 0.5651918
vt 0.24046598 0.5599475
vt 0.25055835 0.5626295
vt 0.2981007 0.5868976
vt 0.29471502 0.5881553
vt 0.29401028 0.58618516
vt 0.29584262 0.5855046
vt 0.29376286 0.58386123
vt 0.29950306 0.58386123
vt 0.29217806 0.5855046
vt 0.2913294 0.5868976
vt 0.29660156 0.58386123
vt 0.2981007 0.580825
vt 0.2914191 0.58386123
vt 0.28992704 0.58386123
vt 0.29584262 0.582218
vt 0.29471502 0.57956725
vt 0.29217806 0.582218
vt 0.2913294 0.580825
vt 0.29401028 0.58153737
vt 0.26595703 0.5820495
vt 0.2532114 0.5867841
vt 0.25055835 0.57936746
vt 0.25745633 0.576805
vt 0.24962683 0.57061875
vt 0.2712364 0.57061875
vt 0.24366075 0.576805
vt 0.24046598 0.5820495
vt 0.26031345 0.57061875
vt 0.26595703 0.55918807
vt 0.24080354 0.57061875
vt 0.23518652 0.57061875
vt 0.25745633 0.56443256
vt 0.2532114 0.5544534
vt 0.24366075 0.56443256
vt 0.24046598 0.55918807
vt 0.25055835 0.5618701
vt 0.26595703 0.58280873
vt 0.25745633 0.5775644
vt 0.25055835 0.5801269
vt 0.24962683 0.57137805
vt 0.2532114 0.5875436
vt 0.2712364 0.57137805
vt 0.24366075 0.5775644
vt 0.24046598 0.58280873
vt 0.26031345 0.57137805
vt 0.26595703 0.5599475
vt 0.24080354 0.57137805
vt 0.23518652 0.57137805
vt 0.25745633 0.5651918
vt 0.2532114 0.5552127
vt 0.24366075 0.5651918
vt 0.24046598 0.5599475
vt 0.25055835 0.5626295
vt 0.2981007 0.5868976
vt 0.29584262 0.5855046
vt 0.29401028 0.58618516
vt 0.29376286 0.58386123
vt 0.29471502 0.5881553
vt 0.29950306 0.58386123
vt 0.29217806 0.5855046
vt 0.2913294 0.5868976
vt 0.29660156 0.58386123
vt 0.2981007 0.580825
vt 0.2914191 0.58386123
vt 0.28992704 0.58386123
vt 0.29584262 0.582218
vt 0.29471502 0.57956725
vt 0.29217806 0.582218
vt 0.2913294 0.580825
vt 0.29401028 0.58153737
vt 0.26595703 0.5820495
vt 0.25745633 0.576805
vt 0.25055835 0.57936746
vt 0.24962683 0.57061875
vt 0.2532114 0.5867841
vt 0.2712364 0.57061875
vt 0.24366075 0.576805
vt 0.24046598 0.5820495
vt 0.26031345 0.57061875
vt 0.26595703 0.55918807
vt 0.24080354 0.57061875
vt 0.23518652 0.57061875
vt 0.25745633 0.56443256
vt 0.2532114 0.5544534
vt 0.24366075 0.56443256
vt 0.24046598 0.55918807
vt 0.25055835 0.5618701
vn 0.9733723 0.22922984 0
vn 0.9733723 0.22922984 0
vn 0.9733723 0.22922984 0
vn 0.9733723 0.22922984 0
vn 0.29433972 0.9557009 0
vn 0.3616734 0.93230486 0
vn 0.3616734 0.93230486 0
vn 0.29433972 0.9557009 0
vn -0.46250403 0.8866172 0
vn -0.46257308 0.8865812 0
vn -0.6454683 0.7637871 0
vn -0.6454683 0.7637871 0
vn -0.46257308 0.8865812 0
vn -0.46250403 0.8866172 0
vn -0 1 0
vn 0.19567052 0.9806697 0
vn 0.19567052 0.9806698 0
vn -0 1 0
vn -0.19567052 0.9806698 0
vn -0.19567052 0.9806698 0
vn 0.46250406 0.8866171 0
vn 0.46257314 0.8865812 0
vn 0.6454683 0.76378703 0
vn 0.6454684 0.76378703 0
vn -0.29433978 0.9557009 0
vn 0.46257314 0.8865812 0
vn 0.46250406 0.8866171 0
vn -0.29433978 0.9557009 0
vn -0.36167347 0.93230486 0
vn -0.36167347 0.93230486 0
vn -0.97337216 0.22923033 0
vn -0.97337216 0.22923033 0
vn -0.97337216 0.22923033 0
vn -0.97337216 0.22923033 0
vn -0.12345536 0.88779604 -0.44336995
vn 0.2884177 0.72363585 -0.6270299
vn 0.30512735 0.76558846 -0.566367
vn -0.06688876 0.9138617 -0.40047804
vn 0.37023544 0.928938 1.353526E-07
vn -0.29404822 0.9557906 1.3596751E-07
vn 0.67715454 0.6173124 -0.40048367
vn 0.7002798 0.55947936 -0.44338593
vn -0.22097892 0.97527856 1.1739072E-07
vn -0.12345041 0.8877969 0.44336975
vn 0.8312518 0.5558962 -3.9246876E-07
vn 0.8708867 0.49148387 -4.6972013E-07
vn -0.06688558 0.9138614 0.4004792
vn 0.2884185 0.7236377 0.62702733
vn 0.6771521 0.61731434 0.4004848
vn 0.7002771 0.5594828 0.44338593
vn 0.305128 0.7655898 0.5663649
vn -0.123452276 0.8877967 -0.4433696
vn 0.28842106 0.72363734 -0.6270266
vn 0.30513006 0.7655893 -0.56636435
vn -0.066886775 0.9138614 -0.4004792
vn 0.37023583 0.92893785 1.1544832E-07
vn -0.2940501 0.9557899 0
vn 0.6771525 0.61731404 -0.40048468
vn 0.700278 0.55948216 -0.4433852
vn -0.22098026 0.9752783 0
vn -0.12345038 0.8877969 0.44336975
vn 0.8312515 0.5558964 1.6206882E-07
vn 0.87088645 0.4914843 1.7305506E-07
vn -0.066884615 0.9138614 0.4004793
vn 0.2884193 0.7236376 0.6270271
vn 0.6771523 0.6173143 0.40048453
vn 0.7002772 0.55948275 0.44338563
vn 0.30512866 0.76558965 0.5663647
vn -0.12345449 0.8877962 -0.44336998
vn 0.2884189 0.7236355 -0.6270296
vn 0.30512848 0.76558834 -0.5663666
vn -0.06688803 0.9138618 -0.400478
vn 0.37023613 0.9289377 0
vn -0.29404992 0.95579004 0
vn 0.6771545 0.6173125 -0.40048355
vn 0.7002798 0.5594793 -0.44338605
vn -0.22098017 0.9752783 0
vn -0.1234562 0.8877959 0.44337
vn 0.8312514 0.55589676 0
vn 0.8708863 0.4914846 0
vn -0.0668895 0.91386163 0.4004781
vn 0.28841928 0.72363544 0.62702954
vn 0.67715484 0.6173124 0.40048322
vn 0.70027995 0.55947924 0.4433857
vn 0.30512875 0.76558816 0.56636655
vn 0.12345344 0.8877961 -0.44337028
vn 0.06688713 0.9138617 -0.40047824
vn -0.30512884 0.76558805 -0.5663668
vn -0.3702355 0.92893785 0
vn -0.28841937 0.72363526 -0.6270297
vn 0.2940501 0.9557899 -1.6068891E-07
vn -0.67715526 0.6173117 -0.4004834
vn -0.7002804 0.5594788 -0.44338566
vn 0.22098047 0.97527826 -1.4367227E-07
vn 0.12345225 0.8877965 0.4433699
vn -0.83125204 0.55589586 0
vn -0.87088686 0.4914835 0
vn 0.06688701 0.91386133 0.40047944
vn -0.28842318 0.72363657 0.6270264
vn -0.67715496 0.6173123 0.40048298
vn -0.70028037 0.55948037 0.44338366
vn -0.30513185 0.7655889 0.566364
vn 0.12345226 0.8877966 -0.44336975
vn 0.06688686 0.91386133 -0.4004793
vn -0.3051304 0.76558894 -0.56636477
vn -0.37023607 0.92893773 0
vn -0.28842136 0.7236368 -0.627027
vn 0.2940501 0.9557899 0
vn -0.6771531 0.61731315 -0.40048483
vn -0.7002787 0.55948114 -0.44338542
vn 0.22098047 0.97527826 0
vn 0.12345033 0.88779676 0.44336998
vn -0.83125216 0.55589545 3.004844E-07
vn -0.87088686 0.49148345 3.4611023E-07
vn 0.066884615 0.9138614 0.40047947
vn -0.28842 0.7236373 0.6270271
vn -0.67715317 0.61731344 0.40048426
vn -0.700278 0.55948216 0.44338533
vn -0.30512926 0.7655895 0.5663647
vn 0.123455204 0.88779604 -0.44337016
vn 0.066888526 0.91386163 -0.4004782
vn -0.3051282 0.76558816 -0.5663668
vn -0.37023622 0.9289377 -1.6421384E-07
vn -0.2884185 0.72363544 -0.62702996
vn 0.29404983 0.95579004 -1.2360682E-07
vn -0.6771545 0.6173124 -0.4004838
vn -0.7002796 0.55947936 -0.4433862
vn 0.2209801 0.9752783 -1.0687811E-07
vn 0.12345593 0.8877959 0.4433701
vn -0.8312515 0.5558965 0
vn -0.87088645 0.49148434 0
vn 0.06688928 0.91386163 0.40047818
vn -0.2884192 0.7236354 0.6270296
vn -0.67715514 0.61731195 0.40048325
vn -0.70028025 0.5594789 0.44338563
vn -0.3051287 0.76558816 0.56636655
g floor_trim_0
f 3/3/3 2/2/2 1/1/1
f 4/4/4 3/3/3 1/1/1
f 7/7/7 6/6/6 5/5/5
f 6/6/6 8/8/8 5/5/5
f 5/5/5 8/8/8 9/9/9
f 8/8/8 10/10/10 9/9/9
f 13/13/13 12/12/12 11/11/11
f 14/14/14 13/13/13 11/11/11
f 17/17/17 16/16/16 15/15/15
f 16/16/16 18/18/18 15/15/15
f 15/15/15 18/18/18 19/19/19
f 18/18/18 20/20/20 19/19/19
f 23/23/23 22/22/22 21/21/21
f 24/24/24 23/23/23 21/21/21
f 27/27/27 26/26/26 25/25/25
f 26/26/26 28/28/28 25/25/25
f 25/25/25 28/28/28 29/29/29
f 28/28/28 30/30/30 29/29/29
f 33/33/33 32/32/32 31/31/31
f 34/34/34 33/33/33 31/31/31
f 37/37/37 36/36/36 35/35/35
f 38/38/38 37/37/37 35/35/35
f 39/39/39 37/37/37 38/38/38
f 38/38/38 35/35/35 40/40/40
f 37/37/37 41/41/41 36/36/36
f 39/39/39 41/41/41 37/37/37
f 41/41/41 42/42/42 36/36/36
f 43/43/43 38/38/38 40/40/40
f 39/39/39 38/38/38 43/43/43
f 43/43/43 40/40/40 44/44/44
f 41/41/41 45/45/45 42/42/42
f 39/39/39 45/45/45 41/41/41
f 45/45/45 46/46/46 42/42/42
f 47/47/47 43/43/43 44/44/44
f 39/39/39 43/43/43 47/47/47
f 47/47/47 44/44/44 48/48/48
f 45/45/45 49/49/49 46/46/46
f 39/39/39 49/49/49 45/45/45
f 49/49/49 50/50/50 46/46/46
f 51/51/51 48/48/48 50/50/50
f 51/51/51 47/47/47 48/48/48
f 39/39/39 47/47/47 51/51/51
f 49/49/49 51/51/51 50/50/50
f 39/39/39 51/51/51 49/49/49
f 54/54/54 53/53/53 52/52/52
f 55/55/55 54/54/54 52/52/52
f 56/56/56 54/54/54 55/55/55
f 55/55/55 52/52/52 57/57/57
f 54/54/54 58/58/58 53/53/53
f 56/56/56 58/58/58 54/54/54
f 58/58/58 59/59/59 53/53/53
f 60/60/60 55/55/55 57/57/57
f 56/56/56 55/55/55 60/60/60
f 60/60/60 57/57/57 61/61/61
f 58/58/58 62/62/62 59/59/59
f 56/56/56 62/62/62 58/58/58
f 62/62/62 63/63/63 59/59/59
f 64/64/64 60/60/60 61/61/61
f 56/56/56 60/60/60 64/64/64
f 64/64/64 61/61/61 65/65/65
f 62/62/62 66/66/66 63/63/63
f 56/56/56 66/66/66 62/62/62
f 66/66/66 67/67/67 63/63/63
f 68/68/68 65/65/65 67/67/67
f 68/68/68 64/64/64 65/65/65
f 56/56/56 64/64/64 68/68/68
f 66/66/66 68/68/68 67/67/67
f 56/56/56 68/68/68 66/66/66
f 71/71/71 70/70/70 69/69/69
f 72/72/72 71/71/71 69/69/69
f 73/73/73 71/71/71 72/72/72
f 72/72/72 69/69/69 74/74/74
f 71/71/71 75/75/75 70/70/70
f 73/73/73 75/75/75 71/71/71
f 75/75/75 76/76/76 70/70/70
f 77/77/77 72/72/72 74/74/74
f 73/73/73 72/72/72 77/77/77
f 77/77/77 74/74/74 78/78/78
f 75/75/75 79/79/79 76/76/76
f 73/73/73 79/79/79 75/75/75
f 79/79/79 80/80/80 76/76/76
f 81/81/81 77/77/77 78/78/78
f 73/73/73 77/77/77 81/81/81
f 81/81/81 78/78/78 82/82/82
f 79/79/79 83/83/83 80/80/80
f 73/73/73 83/83/83 79/79/79
f 83/83/83 84/84/84 80/80/80
f 85/85/85 82/82/82 84/84/84
f 85/85/85 81/81/81 82/82/82
f 73/73/73 81/81/81 85/85/85
f 83/83/83 85/85/85 84/84/84
f 73/73/73 85/85/85 83/83/83
f 88/88/88 87/87/87 86/86/86
f 88/88/88 89/89/89 87/87/87
f 90/90/90 88/88/88 86/86/86
f 86/86/86 87/87/87 91/91/91
f 92/92/92 88/88/88 90/90/90
f 92/92/92 89/89/89 88/88/88
f 93/93/93 92/92/92 90/90/90
f 87/87/87 94/94/94 91/91/91
f 87/87/87 89/89/89 94/94/94
f 91/91/91 94/94/94 95/95/95
f 96/96/96 92/92/92 93/93/93
f 96/96/96 89/89/89 92/92/92
f 97/97/97 96/96/96 93/93/93
f 94/94/94 98/98/98 95/95/95
f 94/94/94 89/89/89 98/98/98
f 95/95/95 98/98/98 99/99/99
f 100/100/100 96/96/96 97/97/97
f 100/100/100 89/89/89 96/96/96
f 101/101/101 100/100/100 97/97/97
f 99/99/99 102/102/102 101/101/101
f 98/98/98 102/102/102 99/99/99
f 98/98/98 89/89/89 102/102/102
f 102/102/102 100/100/100 101/101/101
f 102/102/102 89/89/89 100/100/100
f 105/105/105 104/104/104 103/103/103
f 105/105/105 106/106/106 104/104/104
f 107/107/107 105/105/105 103/103/103
f 103/103/103 104/104/104 108/108/108
f 109/109/109 105/105/105 107/107/107
f 109/109/109 106/106/106 105/105/105
f 110/110/110 109/109/109 107/107/107
f 104/104/104 111/111/111 108/108/108
f 104/104/104 106/106/106 111/111/111
f 108/108/108 111/111/111 112/112/112
f 113/113/113 109/109/109 110/110/110
f 113/113/113 106/106/106 109/109/109
f 114/114/114 113/113/113 110/110/110
f 111/111/111 115/115/115 112/112/112
f 111/111/111 106/106/106 115/115/115
f 112/112/112 115/115/115 116/116/116
f 117/117/117 113/113/113 114/114/114
f 117/117/117 106/106/106 113/113/113
f 118/118/118 117/117/117 114/114/114
f 116/116/116 119/119/119 118/118/118
f 115/115/115 119/119/119 116/116/116
f 115/115/115 106/106/106 119/119/119
f 119/119/119 117/117/117 118/118/118
f 119/119/119 106/106/106 117/117/117
f 122/122/122 121/121/121 120/120/120
f 122/122/122 123/123/123 121/121/121
f 124/124/124 122/122/122 120/120/120
f 120/120/120 121/121/121 125/125/125
f 126/126/126 122/122/122 124/124/124
f 126/126/126 123/123/123 122/122/122
f 127/127/127 126/126/126 124/124/124
f 121/121/121 128/128/128 125/125/125
f 121/121/121 123/123/123 128/128/128
f 125/125/125 128/128/128 129/129/129
f 130/130/130 126/126/126 127/127/127
f 130/130/130 123/123/123 126/126/126
f 131/131/131 130/130/130 127/127/127
f 128/128/128 132/132/132 129/129/129
f 128/128/128 123/123/123 132/132/132
f 129/129/129 132/132/132 133/133/133
f 134/134/134 130/130/130 131/131/131
f 134/134/134 123/123/123 130/130/130
f 135/135/135 134/134/134 131/131/131
f 133/133/133 136/136/136 135/135/135
f 132/132/132 136/136/136 133/133/133
f 132/132/132 123/123/123 136/136/136
f 136/136/136 134/134/134 135/135/135
f 136/136/136 123/123/123 134/134/134
