g floor_4x4
v 0.047577515 0 -2.4121187
v -0.012507324 0.06157928 -2.3571713
v -0.036556397 0 -2.4573574
v -0 1.110223E-16 -5
v -0.06552551 0.04480563 -3.75
v -0.12721375 0.04480563 -4.8374467
v -0.23128845 0.04480563 -4.9344745
v -0 1.110223E-16 -5
v -0.12721375 0.04480563 -4.8374467
v -0.06552551 0.04480563 -0.16454042
v -0 -1.110223E-16 0
v -0.21877868 0.04480563 -0.065525435
v -0.12104065 0.00039607493 -4.0881667
v -0.03714172 0.043611426 -4.0870113
v -0.009040527 0 -4.0056076
v -0.011416015 0 -4.1943245
v -0.009040527 0 -4.0056076
v -0.03714172 0.043611426 -4.0870113
v 0.100584105 -0.00039607493 -4.1117654
v -0.011416015 0 -4.1943245
v -5.1163864 0.00039607493 -2.1523523
v -5.032489 0.043611426 -2.151197
v -5.004387 1.4210854E-16 -2.0697932
v -5.0067625 1.4210854E-16 -2.2585104
v -5.004387 1.4210854E-16 -2.0697932
v -5.032489 0.043611426 -2.151197
v -4.894763 -0.00039607493 -2.175951
v -5.0067625 1.4210854E-16 -2.2585104
v -5.0795884 0.00039607493 -1.6329354
v -5.021886 0.043611426 -1.6299305
v -5.001539 0 -1.4922591
v -5.005548 0 -1.8106308
v -5.001539 0 -1.4922591
v -5.021886 0.043611426 -1.6299305
v -4.927499 -0.00039607493 -1.6699545
v -5.005548 0 -1.8106308
v 0.054646604 0 -2.2487884
v -0.012507324 0.06157928 -2.3571713
v 0.047577515 0 -2.4121187
v -0.011288452 0 -2.2047102
v -0.05449707 0 -2.236783
v -0.036556397 0 -2.4573574
v -0.012507324 0.06157928 -2.3571713
v -0.060149536 0 -2.400269
v -0.05449707 0 -2.236783
v -0 4.8335273E-17 -3.75
v -0 1.110223E-16 -5
v -1.25 1.110223E-16 -5
v -1.25 4.8335273E-17 -3.75
v -2.5 1.110223E-16 -5
v -1.25 -8.581359E-18 -2.5
v -0 -8.581359E-18 -2.5
v -2.5 4.8335273E-17 -3.75
v -3.75 1.110223E-16 -5
v -1.25 -6.1375835E-17 -1.2499998
v -2.5 -6.1375835E-17 -1.2499998
v -0 -6.1375835E-17 -1.2499998
v -0 -1.110223E-16 0
v -1.25 -1.110223E-16 0
v -2.5 -1.110223E-16 0
v -3.75 -1.110223E-16 0
v -3.75 4.8335273E-17 -3.75
v -5 1.110223E-16 -5
v -5 4.8335273E-17 -3.75
v -5 -8.581359E-18 -2.5
v -2.5 -8.581359E-18 -2.5
v -3.75 -8.581359E-18 -2.5
v -3.75 -6.1375835E-17 -1.2499998
v -5 -1.110223E-16 0
v -5 -6.1375835E-17 -1.2499998
v -5 1.110223E-16 -5
v -4.934475 0.04480563 -4.9344745
v -4.934475 0.04480563 -3.75
v -5 4.8335273E-17 -3.75
v -5 -8.581359E-18 -2.5
v -4.976316 0.01619513 -2.5
v -5 -6.1375835E-17 -1.2499998
v -4.934475 0.04480563 -2.3129513
v -4.934475 0.04480563 -1.3713646
v -4.934475 0.04480563 -0.9933921
v -5 -1.110223E-16 0
v -4.934475 0.04480563 -0.065525435
v -0.06552551 0.04480563 -3.75
v -0 1.110223E-16 -5
v -0 4.8335273E-17 -3.75
v -0 -8.581359E-18 -2.5
v -0.06552551 0.04480563 -2.5
v -0.06552551 0.04480563 -1.2500002
v -0 -6.1375835E-17 -1.2499998
v -0 -1.110223E-16 0
v -0.06552551 0.04480563 -0.16454042
v -0 1.110223E-16 -5
v -0.23128845 0.04480563 -4.9344745
v -1.1317505 0.04480563 -4.9344745
v -1.25 1.110223E-16 -5
v -1.3782433 0.04480563 -4.9344745
v -2.5 1.110223E-16 -5
v -2.5 0.04480563 -4.9344745
v -3.75 0.04480563 -4.9344745
v -3.75 1.110223E-16 -5
v -5 1.110223E-16 -5
v -4.934475 0.04480563 -4.9344745
v -4.89359 0.04480563 -2.5
v -4.934475 0.04480563 -2.3129513
v -4.976316 0.01619513 -2.5
v -4.934475 0.04480563 -3.75
v -1.25 0.04480563 -0.065525435
v -0.21877868 0.04480563 -0.065525435
v -0 -1.110223E-16 0
v -1.25 -1.110223E-16 0
v -2.5 -1.110223E-16 0
v -2.5 0.04480563 -0.065525435
v -3.75 0.04480563 -0.065525435
v -3.75 -1.110223E-16 0
v -5 -1.110223E-16 0
v -4.934475 0.04480563 -0.065525435
v -2.5 0.04480563 -4.9344745
v -1.3782433 0.04480563 -4.9344745
v -1.25 0.04480563 -4.8589945
v -1.25 0.04480563 -3.75
v -2.5 0.04480563 -3.75
v -3.75 0.04480563 -4.9344745
v -0.12721375 0.04480563 -4.8374467
v -1.1317505 0.04480563 -4.9344745
v -0.23128845 0.04480563 -4.9344745
v -0.06552551 0.04480563 -3.75
v -1.25 0.04480563 -2.5
v -0.06552551 0.04480563 -2.5
v -2.5 0.04480563 -2.5
v -2.5 0.04480563 -1.2500002
v -1.25 0.04480563 -1.2500002
v -0.06552551 0.04480563 -1.2500002
v -3.75 0.04480563 -2.5
v -3.75 0.04480563 -3.75
v -4.934475 0.04480563 -3.75
v -4.934475 0.04480563 -4.9344745
v -4.89359 0.04480563 -2.5
v -1.25 0.04480563 -0.065525435
v -0.21877868 0.04480563 -0.065525435
v -0.06552551 0.04480563 -0.16454042
v -2.5 0.04480563 -0.065525435
v -3.75 0.04480563 -0.065525435
v -3.75 0.04480563 -1.2500002
v -4.934475 0.04480563 -0.065525435
v -4.883127 0.04480563 -1.2500002
v -4.934475 0.04480563 -0.9933921
v -4.934475 0.04480563 -1.3713646
v -4.934475 0.04480563 -2.3129513
v -1.1317505 0.04480563 -4.9344745
v -1.25 0.04480563 -4.8589945
v -1.25 1.110223E-16 -5
v -1.3782433 0.04480563 -4.9344745
v -4.934475 0.04480563 -1.3713646
v -4.883127 0.04480563 -1.2500002
v -5 -6.1375835E-17 -1.2499998
v -4.934475 0.04480563 -0.9933921
vt 0.5860454 0.584978
vt 0.59058565 0.580083
vt 0.5822896 0.5779934
vt 0.3711823 0.58101153
vt 0.47494966 0.5756475
vt 0.38466242 0.57051945
vt 0.37660664 0.56187916
vt 0.3711823 0.58101153
vt 0.38466242 0.57051945
vt 0.7726385 0.5756707
vt 0.7863159 0.58104396
vt 0.7808594 0.5629493
vt 0.44688866 0.57097006
vt 0.44696906 0.5779997
vt 0.45374334 0.58026755
vt 0.4380749 0.5800692
vt 0.45374334 0.58026755
vt 0.44696906 0.5779997
vt 0.44492978 0.5893667
vt 0.4380749 0.5800692
vt 0.60761297 0.15629944
vt 0.60769343 0.16332904
vt 0.6144676 0.1655969
vt 0.5987992 0.16539851
vt 0.6144676 0.1655969
vt 0.60769343 0.16332904
vt 0.6056541 0.17469597
vt 0.5987992 0.16539851
vt 0.6507383 0.15935749
vt 0.65097225 0.16421267
vt 0.66241854 0.16583705
vt 0.63598514 0.16550225
vt 0.66241854 0.16583705
vt 0.65097225 0.16421267
vt 0.64766514 0.17198172
vt 0.63598514 0.16550225
vt 0.5996064 0.5855658
vt 0.59058565 0.580083
vt 0.5860454 0.584978
vt 0.60326606 0.58009267
vt 0.6006031 0.57650554
vt 0.5822896 0.5779934
vt 0.59058565 0.580083
vt 0.5870296 0.57603514
vt 0.6006031 0.57650554
vt 0.47496578 0.58101964
vt 0.3711823 0.58101153
vt 0.3711823 0.47724426
vt 0.47496578 0.47725233
vt 0.3711823 0.37347692
vt 0.5787491 0.47726047
vt 0.5787491 0.58102775
vt 0.47496578 0.3734849
vt 0.3711823 0.26970944
vt 0.68253255 0.47726855
vt 0.68253255 0.37350118
vt 0.68253255 0.58103585
vt 0.7863159 0.58104396
vt 0.7863159 0.4772767
vt 0.7863159 0.37350935
vt 0.7863159 0.26974192
vt 0.47496578 0.26971748
vt 0.3711823 0.1659421
vt 0.47496578 0.16595015
vt 0.5787491 0.16595834
vt 0.5787491 0.37349313
vt 0.5787491 0.26972568
vt 0.68253255 0.26973373
vt 0.7863159 0.16597453
vt 0.68253255 0.16596639
vt 0.3711823 0.1659421
vt 0.37660664 0.17144927
vt 0.47494966 0.17145693
vt 0.47496578 0.16595015
vt 0.5787491 0.16595834
vt 0.5787434 0.16794866
vt 0.68253255 0.16596639
vt 0.59426284 0.17146632
vt 0.6724398 0.17147246
vt 0.70382166 0.17147487
vt 0.7863159 0.16597453
vt 0.7808594 0.17148095
vt 0.47494966 0.5756475
vt 0.3711823 0.58101153
vt 0.47496578 0.58101964
vt 0.5787491 0.58102775
vt 0.578733 0.5756556
vt 0.68251634 0.5756637
vt 0.68253255 0.58103585
vt 0.7863159 0.58104396
vt 0.7726385 0.5756707
vt 0.3711823 0.58101153
vt 0.37660664 0.56187916
vt 0.37660664 0.4871283
vt 0.3711823 0.47724426
vt 0.37660664 0.46666598
vt 0.3711823 0.37347692
vt 0.37660664 0.3735445
vt 0.37660664 0.26977715
vt 0.3711823 0.26970944
vt 0.3711823 0.1659421
vt 0.37660664 0.17144927
vt 0.578733 0.17485914
vt 0.59426284 0.17146632
vt 0.5787434 0.16794866
vt 0.47494966 0.17145693
vt 0.7808594 0.47734362
vt 0.7808594 0.5629493
vt 0.7863159 0.58104396
vt 0.7863159 0.4772767
vt 0.7863159 0.37350935
vt 0.7808594 0.37357622
vt 0.7808594 0.2698088
vt 0.7863159 0.26974192
vt 0.7863159 0.16597453
vt 0.7808594 0.17148095
vt 0.37660664 0.3735445
vt 0.37660664 0.46666598
vt 0.3828734 0.47731242
vt 0.47494966 0.47731963
vt 0.47494966 0.37355226
vt 0.37660664 0.26977715
vt 0.38466242 0.57051945
vt 0.37660664 0.4871283
vt 0.37660664 0.56187916
vt 0.47494966 0.5756475
vt 0.578733 0.47732776
vt 0.578733 0.5756556
vt 0.578733 0.37356043
vt 0.68251634 0.37356848
vt 0.68251634 0.47733587
vt 0.68251634 0.5756637
vt 0.578733 0.26979297
vt 0.47494966 0.2697848
vt 0.47494966 0.17145693
vt 0.37660664 0.17144927
vt 0.578733 0.17485914
vt 0.7808594 0.47734362
vt 0.7808594 0.5629493
vt 0.7726385 0.5756707
vt 0.7808594 0.37357622
vt 0.7808594 0.2698088
vt 0.68251634 0.26980102
vt 0.7808594 0.17148095
vt 0.68251634 0.17573571
vt 0.70382166 0.17147487
vt 0.6724398 0.17147246
vt 0.59426284 0.17146632
vt 0.37660664 0.4871283
vt 0.3828734 0.47731242
vt 0.3711823 0.47724426
vt 0.37660664 0.46666598
vt 0.6724398 0.17147246
vt 0.68251634 0.17573571
vt 0.68253255 0.16596639
vt 0.70382166 0.17147487
vn 0.29613352 0.78037673 -0.5507424
vn 0.29613352 0.78037673 -0.55074245
vn 0.29613352 0.78037673 -0.5507424
vn 0.3119598 0.9499305 -0.01769673
vn 0.31195974 0.9499305 -0.01769673
vn 0.31195977 0.9499305 -0.01769673
vn 0.14516836 0.97707736 -0.15571088
vn 0.14516836 0.97707736 -0.1557109
vn 0.14516836 0.97707736 -0.1557109
vn 0.13549913 0.9683266 0.20972255
vn 0.13549913 0.9683266 0.20972256
vn 0.13549913 0.9683266 0.20972256
vn -0.45725015 0.8886485 -0.035015695
vn -0.45801947 0.88883144 0.014026252
vn -0.39241457 0.7475151 0.5359404
vn -0.4096365 0.8066616 -0.4260222
vn 0.34158987 0.8724524 0.34948987
vn 0.30884048 0.95069647 0.028175907
vn 0.2958603 0.9539324 -0.04979634
vn 0.23661375 0.91857994 -0.31658307
vn -0.45725358 0.8886467 -0.03501649
vn -0.45802328 0.8888295 0.014026856
vn -0.39242 0.7475117 0.5359411
vn -0.40963757 0.8066606 -0.4260231
vn 0.3415889 0.8724539 0.34948698
vn 0.3088394 0.95069677 0.028175827
vn 0.29585925 0.95393276 -0.049796272
vn 0.23661302 0.91858065 -0.3165814
vn -0.5990109 0.80065167 -0.011951324
vn -0.59989774 0.7999263 0.015510865
vn -0.5780694 0.7494102 0.32283148
vn -0.57374674 0.7828319 -0.2408089
vn 0.482173 0.8531739 0.19900617
vn 0.43688786 0.8985184 0.042352963
vn 0.401802 0.9139299 -0.05733505
vn 0.34745938 0.9182045 -0.19019048
vn 0.421164 0.8755991 0.23653167
vn 0.5690235 0.8179387 0.084786125
vn 0.7017273 0.7117981 -0.030371424
vn 0.04838779 0.926272 0.3737363
vn -0.26910675 0.89226985 0.36254096
vn -0.65929914 0.7007744 -0.27246985
vn -0.787304 0.61647534 -0.010514591
vn -0.7513492 0.6521037 -0.101169005
vn -0.79989505 0.5995024 0.027656103
vn -0 -1 0
vn -0 -1 0
vn -0 -1 0
vn -0 -1 0
vn -0 -1 0
vn -0 -1 0
vn -0 -1 0
vn -0 -1 0
vn -0 -1 0
vn -0 -1 0
vn -0 -1 0
vn -0 -1 0
vn -0 -1 0
vn -0 -1 0
vn -0 -1 0
vn -0 -1 0
vn -0 -1 0
vn -0 -1 0
vn -0 -1 0
vn -0 -1 0
vn -0 -1 0
vn -0 -1 0
vn -0 -1 0
vn -0 -1 0
vn -0 -1 0
vn -0.5644501 0.82546717 0
vn -0.5644501 0.82546717 0
vn -0.56445086 0.8254667 0
vn -0.56445086 0.8254667 0
vn -0.5644519 0.825466 0
vn -0.5644519 0.825466 0
vn -0.56445205 0.8254658 0
vn -0.5644505 0.8254669 0
vn -0.5644505 0.8254669 0
vn -0.56445205 0.8254658 0
vn -0.56445205 0.82546586 0
vn -0.56445205 0.8254658 0
vn 0.5644469 0.8254694 0
vn 0.56444687 0.8254694 0
vn 0.564447 0.8254694 0
vn 0.5644469 0.8254694 0
vn 0.5644469 0.8254694 0
vn 0.564447 0.8254694 0
vn 0.5644469 0.8254694 0
vn 0.56444687 0.8254694 0
vn 0.5644469 0.8254694 0
vn -0 0.8254694 -0.564447
vn -0 0.8254694 -0.564447
vn -0 0.8254694 -0.564447
vn -0 0.8254694 -0.5644469
vn -0 0.8254694 -0.5644469
vn -0 0.8254694 -0.56444687
vn -0 0.8254694 -0.56444687
vn -0 0.8254694 -0.564447
vn -0 0.8254694 -0.564447
vn -0 0.8254694 -0.564447
vn -0 0.8254694 -0.564447
vn -0.3268506 0.94507533 0.0010558954
vn -0.32602283 0.9426722 -0.071262
vn -0.32685047 0.94507515 0.0013356382
vn -0.3268318 0.9450221 0.010690013
vn -0 0.8254691 0.5644474
vn -0 0.8254691 0.5644474
vn -0 0.8254691 0.5644474
vn -0 0.8254691 0.5644474
vn -0 0.8254691 0.56444734
vn -0 0.8254691 0.56444734
vn -0 0.8254691 0.56444734
vn -0 0.8254691 0.56444734
vn -0 0.8254691 0.56444734
vn -0 0.8254691 0.56444734
vn -0 1 0
vn -0 1 0
vn -0 1 0
vn -0 1 0
vn -0 1 0
vn -0 1 0
vn -0 1 0
vn -0 1 0
vn -0 1 0
vn -0 1 0
vn -0 1 0
vn -0 1 0
vn -0 1 0
vn -0 1 0
vn -0 1 0
vn -0 1 0
vn -0 1 0
vn -0 1 0
vn -0 1 0
vn -0 1 0
vn -0 1 0
vn -0 1 0
vn -0 1 0
vn -0 1 0
vn -0 1 0
vn -0 1 0
vn -0 1 0
vn -0 1 0
vn -0 1 0
vn -0 1 0
vn -0 1 0
vn -0 1 0
vn -0.18979086 0.9357205 -0.29733238
vn 0.0029909445 0.9530382 -0.30283532
vn 0.003143929 0.9530378 -0.30283517
vn 0.17547476 0.93825495 -0.298138
vn -0.35393134 0.9232061 0.14974335
vn -0.3579588 0.93371195 -0.0068980786
vn -0.35794562 0.93367755 -0.01100756
vn -0.35705245 0.93134785 -0.07144673
g floor_4x4_0
f 3/3/3 2/2/2 1/1/1
f 6/6/6 5/5/5 4/4/4
f 9/9/9 8/8/8 7/7/7
f 12/12/12 11/11/11 10/10/10
f 15/15/15 14/14/14 13/13/13
f 13/13/13 14/14/14 16/16/16
f 19/19/19 18/18/18 17/17/17
f 20/20/20 18/18/18 19/19/19
f 23/23/23 22/22/22 21/21/21
f 21/21/21 22/22/22 24/24/24
f 27/27/27 26/26/26 25/25/25
f 28/28/28 26/26/26 27/27/27
f 31/31/31 30/30/30 29/29/29
f 29/29/29 30/30/30 32/32/32
f 35/35/35 34/34/34 33/33/33
f 36/36/36 34/34/34 35/35/35
f 39/39/39 38/38/38 37/37/37
f 37/37/37 38/38/38 40/40/40
f 40/40/40 38/38/38 41/41/41
f 44/44/44 43/43/43 42/42/42
f 45/45/45 43/43/43 44/44/44
f 48/48/48 47/47/47 46/46/46
f 49/49/49 48/48/48 46/46/46
f 48/48/48 49/49/49 50/50/50
f 49/49/49 46/46/46 51/51/51
f 46/46/46 52/52/52 51/51/51
f 49/49/49 53/53/53 50/50/50
f 49/49/49 51/51/51 53/53/53
f 54/54/54 50/50/50 53/53/53
f 55/55/55 51/51/51 52/52/52
f 55/55/55 56/56/56 51/51/51
f 57/57/57 55/55/55 52/52/52
f 57/57/57 58/58/58 55/55/55
f 58/58/58 59/59/59 55/55/55
f 55/55/55 59/59/59 56/56/56
f 59/59/59 60/60/60 56/56/56
f 56/56/56 60/60/60 61/61/61
f 62/62/62 54/54/54 53/53/53
f 63/63/63 54/54/54 62/62/62
f 64/64/64 63/63/63 62/62/62
f 64/64/64 62/62/62 65/65/65
f 51/51/51 66/66/66 53/53/53
f 56/56/56 66/66/66 51/51/51
f 62/62/62 53/53/53 67/67/67
f 53/53/53 66/66/66 67/67/67
f 62/62/62 67/67/67 65/65/65
f 67/67/67 66/66/66 56/56/56
f 68/68/68 56/56/56 61/61/61
f 68/68/68 67/67/67 56/56/56
f 65/65/65 67/67/67 68/68/68
f 68/68/68 61/61/61 69/69/69
f 70/70/70 65/65/65 68/68/68
f 70/70/70 68/68/68 69/69/69
f 73/73/73 72/72/72 71/71/71
f 74/74/74 73/73/73 71/71/71
f 74/74/74 75/75/75 73/73/73
f 75/75/75 76/76/76 73/73/73
f 76/76/76 75/75/75 77/77/77
f 77/77/77 78/78/78 76/76/76
f 77/77/77 79/79/79 78/78/78
f 77/77/77 81/81/81 80/80/80
f 81/81/81 82/82/82 80/80/80
f 85/85/85 84/84/84 83/83/83
f 85/85/85 83/83/83 86/86/86
f 83/83/83 87/87/87 86/86/86
f 86/86/86 87/87/87 88/88/88
f 89/89/89 86/86/86 88/88/88
f 89/89/89 88/88/88 90/90/90
f 88/88/88 91/91/91 90/90/90
f 94/94/94 93/93/93 92/92/92
f 95/95/95 94/94/94 92/92/92
f 95/95/95 97/97/97 96/96/96
f 97/97/97 98/98/98 96/96/96
f 99/99/99 98/98/98 97/97/97
f 100/100/100 99/99/99 97/97/97
f 100/100/100 101/101/101 99/99/99
f 101/101/101 102/102/102 99/99/99
f 105/105/105 104/104/104 103/103/103
f 105/105/105 103/103/103 106/106/106
f 109/109/109 108/108/108 107/107/107
f 110/110/110 109/109/109 107/107/107
f 110/110/110 107/107/107 111/111/111
f 107/107/107 112/112/112 111/111/111
f 111/111/111 112/112/112 113/113/113
f 114/114/114 111/111/111 113/113/113
f 114/114/114 113/113/113 115/115/115
f 113/113/113 116/116/116 115/115/115
f 119/119/119 118/118/118 117/117/117
f 120/120/120 119/119/119 117/117/117
f 121/121/121 120/120/120 117/117/117
f 121/121/121 117/117/117 122/122/122
f 119/119/119 120/120/120 123/123/123
f 119/119/119 123/123/123 124/124/124
f 123/123/123 125/125/125 124/124/124
f 120/120/120 126/126/126 123/123/123
f 120/120/120 127/127/127 126/126/126
f 127/127/127 128/128/128 126/126/126
f 121/121/121 129/129/129 120/120/120
f 129/129/129 127/127/127 120/120/120
f 127/127/127 129/129/129 130/130/130
f 127/127/127 131/131/131 128/128/128
f 131/131/131 127/127/127 130/130/130
f 131/131/131 132/132/132 128/128/128
f 133/133/133 129/129/129 121/121/121
f 130/130/130 129/129/129 133/133/133
f 134/134/134 121/121/121 122/122/122
f 134/134/134 133/133/133 121/121/121
f 134/134/134 122/122/122 135/135/135
f 133/133/133 134/134/134 135/135/135
f 122/122/122 136/136/136 135/135/135
f 137/137/137 133/133/133 135/135/135
f 131/131/131 138/138/138 132/132/132
f 131/131/131 130/130/130 138/138/138
f 138/138/138 139/139/139 132/132/132
f 139/139/139 140/140/140 132/132/132
f 130/130/130 141/141/141 138/138/138
f 142/142/142 141/141/141 130/130/130
f 143/143/143 130/130/130 133/133/133
f 143/143/143 142/142/142 130/130/130
f 143/143/143 133/133/133 137/137/137
f 142/142/142 143/143/143 144/144/144
f 143/143/143 145/145/145 144/144/144
f 145/145/145 143/143/143 137/137/137
f 145/145/145 146/146/146 144/144/144
f 145/145/145 137/137/137 147/147/147
f 137/137/137 148/148/148 147/147/147
f 151/151/151 150/150/150 149/149/149
f 152/152/152 150/150/150 151/151/151
f 155/155/155 154/154/154 153/153/153
f 156/156/156 154/154/154 155/155/155
