g flowerBed
v 0.8425328 0.030786762 2.2370696
v -0.78238356 0.1220378 1.0806203
v 0.37721846 0.096403055 -0.54889554
v 2.002135 0.030567242 0.6075539
v -1.6990527 0.061582826 -2.0308397
v 0.23994003 0.02095571 -1.604951
v -0.1864862 0.092829205 0.34893838
v -2.1254787 0.065264575 -0.076950446
v -0.37892127 0.055162966 -0.5297471
v 0.71543473 0.0374807 -2.0572627
v 2.232798 0.06694768 -0.9576231
v 1.138442 0.074431315 0.5698924
v 0.23963569 0.08233034 1.2372329
v -1.4896684 0.0439862 1.9803554
v -2.232798 0.042842526 0.25106478
v -0.5034941 0.09758665 -0.49205765
v -1.4348581 0.074025184 -0.03309036
v 0.0571348 0.0663782 -1.5250832
v 1.5491275 0.065321065 -0.03309036
v 0.05713477 0.09285853 1.4589024
v -1.3401326 0.10709807 1.5471785
v -1.3163983 0.13679084 -0.03807867
v 0.26869267 0.16868605 -0.012440767
v 0.24495861 0.13899328 1.5728166
v 0.69348794 0.13785428 -0.20207302
v 1.8261801 0.102676 0.7041771
v 0.9192712 0.10573295 1.8380712
v -0.21342108 0.14091122 0.93182117
v 0.34525305 0.14580642 -0.74638814
v -0.4183373 0.16694877 0.5517648
v -1.715247 0.11025814 -0.20814815
v -0.95165676 0.089115776 -1.5063013
v 1.8522307 0.09104119 -0.8378823
v 1.2240809 0.1541135 0.67743474
v -0.29252192 0.18474293 0.044684067
v 0.3356277 0.121670604 -1.4706329
v -0.32919428 0.25916377 1.1004306
v -0.5820062 0.27438352 1.2427571
v -0.47281706 0.23406786 0.8491438
v -0.72252107 0.19506913 0.9978858
v -0.9769904 0.23920326 1.1367909
v -0.83336765 0.26429918 1.3880776
v -0.86780125 0.19888763 0.7431777
v -0.61498934 0.1836679 0.60085124
v -1.1191627 0.1888033 0.8884983
v -0.7670729 0.27930948 0.7661213
v -0.6842607 0.26244256 0.5243891
v -0.525812 0.25942752 0.84963596
v -0.45023334 0.19500408 0.6109868
v -0.36356348 0.20349874 0.3676104
v -0.6048245 0.2233807 0.28409576
v -0.20511474 0.20048374 0.69285727
v -0.28792694 0.21735069 0.9345895
v -0.12567852 0.16142191 0.4525639
v -1.5269318 0.22217196 0.2393376
v -1.2413253 0.2745162 0.22977845
v -1.5119668 0.19640508 0.5283263
v -1.219218 0.19506393 0.51119584
v -0.93742055 0.2760383 0.5056744
v -0.9523855 0.30180517 0.21668573
v -1.208062 0.19792716 0.8042222
v -1.4936684 0.14558294 0.81378144
v -0.9191223 0.22521614 0.7911295
v 1.2733002 0.19118023 0.785632
v 1.0047907 0.24721912 0.7897255
v 1.2683108 0.18989934 0.5113548
v 0.9915356 0.19503675 0.51810485
v 0.72743404 0.27822113 0.5207816
v 0.73242354 0.279502 0.7950587
v 0.99095416 0.22090137 0.24241093
v 1.2594637 0.16486248 0.23831744
v 0.71858704 0.2531843 0.24774425
v 0.43707794 0.15603307 1.5768646
v 0.17931236 0.20235969 1.4511144
v 0.5690293 0.20267372 1.3222749
v 0.30846775 0.19506635 1.1879361
v 0.05219324 0.27015567 1.0667664
v -0.07975811 0.223515 1.3213558
v 0.44191015 0.2704697 0.93792695
v 0.69967574 0.22414309 1.063677
v 0.18283969 0.29162502 0.8081684
v 0.26465955 0.1887315 1.0244845
v -0.008712578 0.23841572 0.8521933
v 0.44049823 0.2066253 0.7494469
v 0.16185006 0.19513705 0.57301575
v -0.10870838 0.2774442 0.4029323
v -0.28454706 0.2595504 0.6779699
v 0.34050244 0.2456538 0.30018595
v 0.61387455 0.19596958 0.47247717
v 0.06466795 0.26678848 0.12596256
v -1.166432 0.20232897 -0.4805088
v -0.9448469 0.2074571 -0.60876864
v -1.0395747 0.23785014 -0.260913
v -0.81669647 0.19500811 -0.38462943
v -0.595801 0.2257185 -0.5153123
v -0.7226583 0.1901973 -0.7349081
v -0.69052875 0.25611153 -0.16745666
v -0.91211385 0.2509834 -0.039196815
v -0.46834013 0.23885173 -0.2935961
v -0.5102316 0.22423694 0.418864
v -0.75895363 0.23699787 0.269275
v -0.3606426 0.23699787 0.17014198
v -0.6093646 0.1950737 0.020553006
v -0.8580866 0.23699787 -0.12903598
v -1.0076756 0.22423694 0.11968602
v -0.4597756 0.23699787 -0.22816898
v -0.21105361 0.22423694 -0.07858001
v -0.7084976 0.22423694 -0.37775797
v -0.12934206 0.2746321 -0.3142244
v -0.3485961 0.2550405 -0.466411
v 0.023331126 0.26447788 -0.5337801
v -0.19343868 0.19502656 -0.6792364
v -0.41401756 0.20202486 -0.83501226
v -0.5666908 0.21217911 -0.6154565
v -0.04209035 0.21146224 -0.9023814
v 0.17716374 0.23105386 -0.7501948
v -0.26018497 0.16860084 -1.051427
v 0.9848866 0.22310838 0.44437584
v 0.7253614 0.1862595 0.3958315
v 1.024352 0.28044745 0.18703863
v 0.7752869 0.1950141 0.13155635
v 0.5101834 0.18407504 0.08671199
v 0.470718 0.12673599 0.3440492
v 0.809174 0.278263 -0.12208088
v 1.0686991 0.3151119 -0.07353653
v 0.55453056 0.21873951 -0.17386317
v 0.51776403 0.22423694 -0.20243599
v 0.2524551 0.23699787 -0.08474716
v 0.40007523 0.23699787 -0.46774492
v 0.13476627 0.1950737 -0.3500561
v -0.13054268 0.23699787 -0.23236728
v -0.012853841 0.22423694 0.032941666
v 0.017077437 0.23699787 -0.615365
v 0.2823864 0.22423694 -0.73305386
v -0.2482315 0.22423694 -0.49767622
v 0.5005215 0.2444289 -0.61646014
v 0.7535006 0.23706874 -0.75911266
v 0.6438514 0.25698647 -0.3640692
v 0.89351726 0.19507241 -0.5048908
v 1.1482633 0.21680559 -0.64851975
v 1.0049335 0.20424803 -0.9009106
v 1.0386142 0.23672329 -0.25347626
v 0.785635 0.2440834 -0.11082374
v 1.2900469 0.20390254 -0.39527422
v -1.5296626 0.12554921 -1.1093761
v -1.5130359 0.115927815 -1.3533294
v -1.2862041 0.14489938 -1.0940199
v -1.268213 0.08940461 -1.3340416
v -1.252314 0.10424724 -1.5800917
v -1.4957724 0.08489708 -1.5954478
v -1.0254822 0.1332188 -1.3207822
v -1.0421089 0.1428402 -1.0768287
v -1.0082188 0.10218805 -1.5629005
v 1.66 0.1674245 -0.4794379
v 1.4126518 0.19147968 -0.6061959
v 1.7846333 0.1452298 -0.7280366
v 1.532376 0.117221594 -0.85001916
v 1.2876458 0.1690419 -0.9793239
v 1.1630126 0.1912366 -0.7307252
v 1.6596273 0.12279201 -1.1011646
v 1.9069756 0.09873684 -0.9744065
v 1.4099882 0.12254893 -1.2256938
v -1.8724798 0.062003054 -0.4781992
v -1.7036784 0.08669742 -0.6175141
v -1.7423338 0.12125309 -0.31067666
v -1.5654302 0.10566948 -0.44443473
v -1.4009495 0.15184388 -0.58671296
v -1.5310955 0.09259384 -0.7542355
v -1.4396049 0.18639953 -0.27987555
v -1.6084065 0.16170518 -0.1405607
v -1.267022 0.19229597 -0.41659698
v -1.6164316 0.07995251 1.5606418
v -1.5904045 0.1085495 1.3751793
v -1.4321916 0.11192589 1.5910538
v -1.401157 0.10535386 1.4024714
v -1.3778006 0.15270631 1.2186728
v -1.5620403 0.12073292 1.1882607
v -1.2195877 0.1560827 1.4345474
v -1.2456146 0.1274857 1.6200099
v -1.1912236 0.16826612 1.2476288
v 0.046424977 0.11375096 -1.5868194
v 0.27352703 0.09803326 -1.7209518
v 0.18074195 0.17440684 -1.3675168
v 0.40819553 0.110096484 -1.4910564
v 0.6351101 0.12029297 -1.6308378
v 0.50079316 0.05963709 -1.8501405
v 0.542325 0.19666655 -1.2774028
v 0.31522298 0.21238428 -1.1432704
v 0.76959103 0.15827039 -1.4065914
v 0.9749395 0.15125847 1.2253561
v 1.0581161 0.18005939 0.9970265
v 1.2028531 0.10614798 1.302185
v 1.2772537 0.09022551 1.0671855
v 1.3651104 0.14287719 0.8424128
v 1.1371968 0.18798767 0.76558393
v 1.5098475 0.06896579 1.1475713
v 1.4266709 0.04016486 1.375901
v 1.5889282 0.076894075 0.9161288
vt 0.5 0
vt 0.5 0.5
vt 1 0.5
vt 1 0
vt 0.5 0
vt 0.5 0.5
vt 1 0.5
vt 1 0
vt 0.5 0
vt 0.5 0.5
vt 1 0.5
vt 1 0
vt 0.5 0
vt 0.5 0.5
vt 1 0.5
vt 1 0
vt 0.5 0
vt 0.5 0.5
vt 1 0.5
vt 1 0
vt 0 0
vt 0 0.5
vt 0.5 0.5
vt 0.5 0
vt 0.5 0
vt 0.5 0.5
vt 0 0.5
vt 0 0
vt 0.5 0
vt 0.5 0.5
vt 0 0.5
vt 0 0
vt 0 0
vt 0 0.5
vt 0.5 0.5
vt 0.5 0
vt 0 0.5
vt 0 0.75
vt 0.25 0.5
vt 0.25 0.75
vt 0.25 1
vt 0 1
vt 0.5 0.75
vt 0.5 0.5
vt 0.5 1
vt 0.5 0.5
vt 0.5 0.75
vt 0.75 0.5
vt 0.75 0.75
vt 0.75 1
vt 0.5 1
vt 1 0.75
vt 1 0.5
vt 1 1
vt 0.5 0.5
vt 0.5 0.75
vt 0.75 0.5
vt 0.75 0.75
vt 0.75 1
vt 0.5 1
vt 1 0.75
vt 1 0.5
vt 1 1
vt 0 0.5
vt 0 0.75
vt 0.25 0.5
vt 0.25 0.75
vt 0.25 1
vt 0 1
vt 0.5 0.75
vt 0.5 0.5
vt 0.5 1
vt 0.5 0.5
vt 0.5 0.75
vt 0.75 0.5
vt 0.75 0.75
vt 0.75 1
vt 0.5 1
vt 1 0.75
vt 1 0.5
vt 1 1
vt 0 0.5
vt 0 0.75
vt 0.25 0.5
vt 0.25 0.75
vt 0.25 1
vt 0 1
vt 0.5 0.75
vt 0.5 0.5
vt 0.5 1
vt 0.5 0.5
vt 0.5 0.75
vt 0.75 0.5
vt 0.75 0.75
vt 0.75 1
vt 0.5 1
vt 1 0.75
vt 1 0.5
vt 1 1
vt 0 0.5
vt 0 0.75
vt 0.25 0.5
vt 0.25 0.75
vt 0.25 1
vt 0 1
vt 0.5 0.75
vt 0.5 0.5
vt 0.5 1
vt 0 0.5
vt 0 0.75
vt 0.25 0.5
vt 0.25 0.75
vt 0.25 1
vt 0 1
vt 0.5 0.75
vt 0.5 0.5
vt 0.5 1
vt 0.5 0.5
vt 0.5 0.75
vt 0.75 0.5
vt 0.75 0.75
vt 0.75 1
vt 0.5 1
vt 1 0.75
vt 1 0.5
vt 1 1
vt 0 0.5
vt 0 0.75
vt 0.25 0.5
vt 0.25 0.75
vt 0.25 1
vt 0 1
vt 0.5 0.75
vt 0.5 0.5
vt 0.5 1
vt 0.5 0.5
vt 0.5 0.75
vt 0.75 0.5
vt 0.75 0.75
vt 0.75 1
vt 0.5 1
vt 1 0.75
vt 1 0.5
vt 1 1
vt 0 0.5
vt 0 0.75
vt 0.25 0.5
vt 0.25 0.75
vt 0.25 1
vt 0 1
vt 0.5 0.75
vt 0.5 0.5
vt 0.5 1
vt 0 0.5
vt 0 0.75
vt 0.25 0.5
vt 0.25 0.75
vt 0.25 1
vt 0 1
vt 0.5 0.75
vt 0.5 0.5
vt 0.5 1
vt 0.5 0.5
vt 0.5 0.75
vt 0.75 0.5
vt 0.75 0.75
vt 0.75 1
vt 0.5 1
vt 1 0.75
vt 1 0.5
vt 1 1
vt 0.5 0.5
vt 0.5 0.75
vt 0.75 0.5
vt 0.75 0.75
vt 0.75 1
vt 0.5 1
vt 1 0.75
vt 1 0.5
vt 1 1
vt 0.5 0.5
vt 0.5 0.75
vt 0.75 0.5
vt 0.75 0.75
vt 0.75 1
vt 0.5 1
vt 1 0.75
vt 1 0.5
vt 1 1
vt 0 0.5
vt 0 0.75
vt 0.25 0.5
vt 0.25 0.75
vt 0.25 1
vt 0 1
vt 0.5 0.75
vt 0.5 0.5
vt 0.5 1
vn -0 1 0
vn -0 1 0
vn -0 1 0
vn -0 1 0
vn -0 1 0
vn -0 1 0
vn -0 1 0
vn -0 1 0
vn -0 1 0
vn -0 1 0
vn -0 1 0
vn -0 1 0
vn -0 1 0
vn -0 1 0
vn -0 1 0
vn -0 1 0
vn -0 1 0
vn -0 1 0
vn -0 1 0
vn -0 1 0
vn -0.0204123 0.999622 0.018417872
vn -0.0204123 0.999622 0.018417872
vn -0.0204123 0.999622 0.018417872
vn -0.0204123 0.999622 0.018417876
vn 0.020247543 0.9997038 0.013499181
vn 0.020247545 0.9997038 0.013499181
vn 0.020247543 0.9997038 0.013499181
vn 0.020247543 0.9997038 0.013499179
vn -0.025390469 0.9991904 -0.031208316
vn -0.025390467 0.9991904 -0.03120831
vn -0.025390467 0.9991904 -0.031208312
vn -0.025390469 0.9991904 -0.031208316
vn 0.03199421 0.99908674 -0.028322507
vn 0.031994212 0.99908674 -0.028322503
vn 0.031994216 0.99908674 -0.028322505
vn 0.031994212 0.99908674 -0.028322503
vn 0.0029940074 0.9948749 -0.10106912
vn -0.081735045 0.9835933 -0.16082138
vn -0.10081813 0.9906393 -0.09202918
vn -0.05683385 0.991467 -0.11731643
vn -0.012703295 0.9897419 -0.14230153
vn -0.07323288 0.9956514 -0.057579245
vn -0.031786405 0.9967879 -0.07350932
vn -0.040215857 0.9834606 -0.17660114
vn -0.1164427 0.984237 -0.1331114
vn 0.09477073 0.9948133 -0.036947105
vn 0.1973763 0.9791919 -0.047178037
vn 0.1659597 0.97978973 -0.1116668
vn 0.15006787 0.9866045 -0.063961975
vn 0.13378964 0.9908791 -0.016092531
vn 0.122600436 0.98521996 -0.11962726
vn 0.102372974 0.99147683 -0.08058128
vn 0.17695667 0.98418564 -0.008050379
vn 0.20478651 0.9745925 -0.090730265
vn -0.17630559 0.9795965 0.096472785
vn -0.12753461 0.97376233 0.18847266
vn -0.08023431 0.9874139 0.13629512
vn -0.13060951 0.98171884 0.13845284
vn -0.18064843 0.9734962 0.14025408
vn -0.08943898 0.99163634 0.09304802
vn -0.13334808 0.98714775 0.08807654
vn -0.17127655 0.9680169 0.18332393
vn -0.08440983 0.9800568 0.17989919
vn 0.20417348 0.97889966 -0.008285699
vn 0.15858582 0.98205906 -0.10203207
vn 0.1098112 0.99266833 -0.050508834
vn 0.16007242 0.9857636 -0.051447455
vn 0.20992139 0.9763209 -0.052253526
vn 0.117569655 0.9930415 -0.00677601
vn 0.1611468 0.98693025 -0.00073029666
vn 0.201958 0.97468567 -0.09592027
vn 0.115354136 0.9888276 -0.09441087
vn 0.07024961 0.97411364 0.21486644
vn 0.07401006 0.990947 0.11201172
vn 0.0058988943 0.9908921 0.13452913
vn 0.051128667 0.98626477 0.15705912
vn 0.09622676 0.9790982 0.17918459
vn -0.007892063 0.9843164 0.17623578
vn 0.028115574 0.97904336 0.20170206
vn 0.10995202 0.98441136 0.13727696
vn 0.031810712 0.99461395 0.09864592
vn 0.09900442 0.9868846 0.1275023
vn 0.112742186 0.99332654 0.02432092
vn 0.042977113 0.9982639 0.040278014
vn 0.08573497 0.99404424 0.06727246
vn 0.12827209 0.9872652 0.09409378
vn 0.025216952 0.9963993 0.080947116
vn 0.05850702 0.9922025 0.11005088
vn 0.14592247 0.9878571 0.05333855
vn 0.07213498 0.9973718 0.006783509
vn -0.086647525 0.9901357 -0.11010644
vn -0.0015816006 0.9987286 -0.050385766
vn 0.017200736 0.99270236 -0.11935744
vn -0.026828762 0.99518627 -0.09425805
vn -0.070789196 0.99510777 -0.06891596
vn -0.010528857 0.98805493 -0.15374246
vn -0.05200692 0.9890815 -0.13788761
vn -0.04302533 0.9984812 -0.034410197
vn 0.033093385 0.99640036 -0.07804616
vn 0.014988112 0.9980725 0.06022132
vn 0.02614379 0.99871266 -0.043469295
vn -0.04346936 0.99871266 -0.026143761
vn -0 1 0
vn 0.043469355 0.99871266 0.026143812
vn -0.06022135 0.9980725 0.014988073
vn -0.026143802 0.99871266 0.043469384
vn 0.060221385 0.9980725 -0.01498801
vn -0.014988113 0.9980725 -0.06022135
vn -0.038484145 0.9966 -0.07285241
vn -0.020176748 0.9843978 -0.1747966
vn -0.09074288 0.9826073 -0.16201459
vn -0.04931705 0.9898061 -0.13361003
vn -0.0077642826 0.9944565 -0.104861446
vn -0.1102678 0.98634934 -0.12229495
vn -0.07833044 0.99266595 -0.092079446
vn 0.011823635 0.98944724 -0.1444101
vn -0.05995994 0.9791966 -0.19385234
vn -0.17259744 0.9667038 0.1889282
vn -0.20020337 0.9757253 0.08876272
vn -0.25715002 0.9577859 0.12853001
vn -0.20845328 0.9682101 0.13826229
vn -0.1592199 0.97614133 0.1476385
vn -0.25731513 0.9508249 0.17239787
vn -0.21616654 0.958202 0.18740581
vn -0.15878803 0.98186284 0.103593685
vn -0.24350558 0.965984 0.08706327
vn 0.057906162 0.9980725 0.022318907
vn -0.02056858 0.99871266 -0.04636828
vn -0.046368256 0.99871266 0.02056852
vn -0 1 0
vn 0.046368252 0.99871266 -0.020568546
vn -0.022318963 0.9980725 0.057906106
vn 0.020568574 0.99871266 0.046368252
vn 0.022318963 0.9980725 -0.057906255
vn -0.057906155 0.9980725 -0.022318907
vn 0.0007851384 0.99874204 -0.050137784
vn 0.08542349 0.99628675 0.010746945
vn 0.10458704 0.9928058 -0.058295194
vn 0.060586706 0.9976012 -0.033481453
vn 0.016430426 0.9998282 -0.008581506
vn 0.07704796 0.992667 -0.09314424
vn 0.035593968 0.9963471 -0.077623606
vn 0.043891888 0.99868983 0.026310539
vn 0.12015485 0.99261475 -0.016696153
vn -0.07636319 0.99608696 -0.044489797
vn 0.020997846 0.9964218 -0.08187076
vn -0.026067456 0.99041045 -0.13567491
vn -0.029621609 0.99591005 -0.08535723
vn -0.03309945 0.99884534 -0.034819815
vn -0.07027984 0.98879015 -0.13173774
vn -0.08016473 0.9928341 -0.088624
vn 0.01115106 0.9991906 -0.038647607
vn 0.017234243 0.9918937 -0.12589572
vn 0.11298669 0.99308056 -0.032016497
vn 0.11583981 0.98393166 -0.13586618
vn 0.048137728 0.9923494 -0.113690674
vn 0.09348484 0.9914588 -0.09094009
vn 0.1385914 0.9880155 -0.06795544
vn 0.034736734 0.9968297 -0.0715812
vn 0.07088928 0.996433 -0.045779973
vn 0.15187274 0.9822657 -0.10994854
vn 0.073622726 0.98601496 -0.14951344
vn -0.2554254 0.9566513 -0.13991533
vn -0.16474108 0.98175687 -0.09494151
vn -0.15582997 0.97379094 -0.16567543
vn -0.19543053 0.9715156 -0.13403125
vn -0.234528 0.9667389 -0.102042004
vn -0.18734495 0.96275175 -0.19496389
vn -0.22561689 0.9587729 -0.1727759
vn -0.20276268 0.97653425 -0.072582096
vn -0.13468239 0.98263484 -0.12763055
vn -0.18944792 0.9740791 0.12360997
vn -0.09055404 0.99131787 0.09533522
vn -0.13295661 0.990413 0.037478756
vn -0.14042607 0.9862178 0.08749214
vn -0.147534 0.9794835 0.13728036
vn -0.17683665 0.9835343 0.03727269
vn -0.18993652 0.9785785 0.07942401
vn -0.10347407 0.9850996 0.13737457
vn -0.09086292 0.99455476 0.051037353
vn -0.06716444 0.9714469 -0.22755167
vn 0.01876765 0.9852498 -0.17009003
vn 0.036597546 0.9705734 -0.23800814
vn -0.0070682773 0.97703063 -0.21298163
vn -0.050716016 0.9809723 -0.18740688
vn 0.008369963 0.96245104 -0.2713261
vn -0.032886084 0.9662959 -0.25532496
vn -0.022479251 0.98784375 -0.1538163
vn 0.053054847 0.9788479 -0.19759074
vn 0.13505392 0.9757465 0.17227599
vn 0.23714522 0.9581686 0.16023429
vn 0.20711365 0.9735044 0.09691696
vn 0.19052568 0.9709439 0.14480253
vn 0.17344691 0.96588355 0.1923152
vn 0.16417828 0.98233944 0.08974834
vn 0.14341538 0.9812195 0.12899786
vn 0.21613786 0.9558057 0.19929838
vn 0.245263 0.9623984 0.116770834
g flowerBed_0
f 3/3/3 2/2/2 1/1/1
f 4/4/4 3/3/3 1/1/1
f 7/7/7 6/6/6 5/5/5
f 8/8/8 7/7/7 5/5/5
f 11/11/11 10/10/10 9/9/9
f 12/12/12 11/11/11 9/9/9
f 15/15/15 14/14/14 13/13/13
f 16/16/16 15/15/15 13/13/13
f 19/19/19 18/18/18 17/17/17
f 20/20/20 19/19/19 17/17/17
f 23/23/23 22/22/22 21/21/21
f 24/24/24 23/23/23 21/21/21
f 27/27/27 26/26/26 25/25/25
f 28/28/28 27/27/27 25/25/25
f 31/31/31 30/30/30 29/29/29
f 32/32/32 31/31/31 29/29/29
f 35/35/35 34/34/34 33/33/33
f 36/36/36 35/35/35 33/33/33
f 39/39/39 38/38/38 37/37/37
f 39/39/39 40/40/40 38/38/38
f 40/40/40 41/41/41 38/38/38
f 41/41/41 42/42/42 38/38/38
f 43/43/43 40/40/40 39/39/39
f 43/43/43 41/41/41 40/40/40
f 44/44/44 43/43/43 39/39/39
f 43/43/43 45/45/45 41/41/41
f 48/48/48 47/47/47 46/46/46
f 48/48/48 49/49/49 47/47/47
f 49/49/49 50/50/50 47/47/47
f 50/50/50 51/51/51 47/47/47
f 52/52/52 49/49/49 48/48/48
f 52/52/52 50/50/50 49/49/49
f 53/53/53 52/52/52 48/48/48
f 52/52/52 54/54/54 50/50/50
f 57/57/57 56/56/56 55/55/55
f 57/57/57 58/58/58 56/56/56
f 58/58/58 59/59/59 56/56/56
f 59/59/59 60/60/60 56/56/56
f 61/61/61 58/58/58 57/57/57
f 61/61/61 59/59/59 58/58/58
f 62/62/62 61/61/61 57/57/57
f 61/61/61 63/63/63 59/59/59
f 66/66/66 65/65/65 64/64/64
f 66/66/66 67/67/67 65/65/65
f 67/67/67 68/68/68 65/65/65
f 68/68/68 69/69/69 65/65/65
f 70/70/70 67/67/67 66/66/66
f 70/70/70 68/68/68 67/67/67
f 71/71/71 70/70/70 66/66/66
f 70/70/70 72/72/72 68/68/68
f 75/75/75 74/74/74 73/73/73
f 75/75/75 76/76/76 74/74/74
f 76/76/76 77/77/77 74/74/74
f 77/77/77 78/78/78 74/74/74
f 79/79/79 76/76/76 75/75/75
f 79/79/79 77/77/77 76/76/76
f 80/80/80 79/79/79 75/75/75
f 79/79/79 81/81/81 77/77/77
f 84/84/84 83/83/83 82/82/82
f 84/84/84 85/85/85 83/83/83
f 85/85/85 86/86/86 83/83/83
f 86/86/86 87/87/87 83/83/83
f 88/88/88 85/85/85 84/84/84
f 88/88/88 86/86/86 85/85/85
f 89/89/89 88/88/88 84/84/84
f 88/88/88 90/90/90 86/86/86
f 93/93/93 92/92/92 91/91/91
f 93/93/93 94/94/94 92/92/92
f 94/94/94 95/95/95 92/92/92
f 95/95/95 96/96/96 92/92/92
f 97/97/97 94/94/94 93/93/93
f 97/97/97 95/95/95 94/94/94
f 98/98/98 97/97/97 93/93/93
f 97/97/97 99/99/99 95/95/95
f 102/102/102 101/101/101 100/100/100
f 102/102/102 103/103/103 101/101/101
f 103/103/103 104/104/104 101/101/101
f 104/104/104 105/105/105 101/101/101
f 106/106/106 103/103/103 102/102/102
f 106/106/106 104/104/104 103/103/103
f 107/107/107 106/106/106 102/102/102
f 106/106/106 108/108/108 104/104/104
f 111/111/111 110/110/110 109/109/109
f 111/111/111 112/112/112 110/110/110
f 112/112/112 113/113/113 110/110/110
f 113/113/113 114/114/114 110/110/110
f 115/115/115 112/112/112 111/111/111
f 115/115/115 113/113/113 112/112/112
f 116/116/116 115/115/115 111/111/111
f 115/115/115 117/117/117 113/113/113
f 120/120/120 119/119/119 118/118/118
f 120/120/120 121/121/121 119/119/119
f 121/121/121 122/122/122 119/119/119
f 122/122/122 123/123/123 119/119/119
f 124/124/124 121/121/121 120/120/120
f 124/124/124 122/122/122 121/121/121
f 125/125/125 124/124/124 120/120/120
f 124/124/124 126/126/126 122/122/122
f 129/129/129 128/128/128 127/127/127
f 129/129/129 130/130/130 128/128/128
f 130/130/130 131/131/131 128/128/128
f 131/131/131 132/132/132 128/128/128
f 133/133/133 130/130/130 129/129/129
f 133/133/133 131/131/131 130/130/130
f 134/134/134 133/133/133 129/129/129
f 133/133/133 135/135/135 131/131/131
f 138/138/138 137/137/137 136/136/136
f 138/138/138 139/139/139 137/137/137
f 139/139/139 140/140/140 137/137/137
f 140/140/140 141/141/141 137/137/137
f 142/142/142 139/139/139 138/138/138
f 142/142/142 140/140/140 139/139/139
f 143/143/143 142/142/142 138/138/138
f 142/142/142 144/144/144 140/140/140
f 147/147/147 146/146/146 145/145/145
f 147/147/147 148/148/148 146/146/146
f 148/148/148 149/149/149 146/146/146
f 149/149/149 150/150/150 146/146/146
f 151/151/151 148/148/148 147/147/147
f 151/151/151 149/149/149 148/148/148
f 152/152/152 151/151/151 147/147/147
f 151/151/151 153/153/153 149/149/149
f 156/156/156 155/155/155 154/154/154
f 156/156/156 157/157/157 155/155/155
f 157/157/157 158/158/158 155/155/155
f 158/158/158 159/159/159 155/155/155
f 160/160/160 157/157/157 156/156/156
f 160/160/160 158/158/158 157/157/157
f 161/161/161 160/160/160 156/156/156
f 160/160/160 162/162/162 158/158/158
f 165/165/165 164/164/164 163/163/163
f 165/165/165 166/166/166 164/164/164
f 166/166/166 167/167/167 164/164/164
f 167/167/167 168/168/168 164/164/164
f 169/169/169 166/166/166 165/165/165
f 169/169/169 167/167/167 166/166/166
f 170/170/170 169/169/169 165/165/165
f 169/169/169 171/171/171 167/167/167
f 174/174/174 173/173/173 172/172/172
f 174/174/174 175/175/175 173/173/173
f 175/175/175 176/176/176 173/173/173
f 176/176/176 177/177/177 173/173/173
f 178/178/178 175/175/175 174/174/174
f 178/178/178 176/176/176 175/175/175
f 179/179/179 178/178/178 174/174/174
f 178/178/178 180/180/180 176/176/176
f 183/183/183 182/182/182 181/181/181
f 183/183/183 184/184/184 182/182/182
f 184/184/184 185/185/185 182/182/182
f 185/185/185 186/186/186 182/182/182
f 187/187/187 184/184/184 183/183/183
f 187/187/187 185/185/185 184/184/184
f 188/188/188 187/187/187 183/183/183
f 187/187/187 189/189/189 185/185/185
f 192/192/192 191/191/191 190/190/190
f 192/192/192 193/193/193 191/191/191
f 193/193/193 194/194/194 191/191/191
f 194/194/194 195/195/195 191/191/191
f 196/196/196 193/193/193 192/192/192
f 196/196/196 194/194/194 193/193/193
f 197/197/197 196/196/196 192/192/192
f 196/196/196 198/198/198 194/194/194
