g Holder_box
v -0.13838416 -0.26106536 0.36924192
v -0.13838416 0.24868484 0.36924192
v -0.008970261 0.24868484 0.36924192
v -0.008970261 -0.26106536 0.36924192
v -0.1691281 0.2794281 -0.3404602
v -0.1691281 0.2794281 -0.44591796
v 0.021771086 0.2794281 -0.44591796
v 0.021771086 0.2794281 -0.3404602
v -0.1691281 -0.29180846 -0.44591796
v -0.1691281 -0.29180846 -0.3404602
v 0.021771086 -0.29180846 -0.3404602
v 0.021771086 -0.29180846 -0.44591796
v 0.021771086 0.2794281 -0.3404602
v 0.021771086 0.2794281 -0.44591796
v 0.021771086 -0.29180846 -0.44591796
v 0.021771086 -0.29180846 -0.3404602
v -0.1691281 -0.29180846 -0.44591796
v -0.1691281 0.2794281 -0.44591796
v -0.1691281 0.2794281 -0.3404602
v -0.1691281 -0.29180846 -0.3404602
v -0.15038376 0.26068512 0.44591796
v -0.15038376 0.26068512 -0.3404602
v 0.0030294035 0.26068512 -0.3404602
v 0.0030294035 0.26068512 0.44591796
v 0.0030294035 -0.27306533 0.44591796
v 0.0030294035 0.26068512 0.44591796
v 0.0030294035 0.26068512 -0.3404602
v 0.0030294035 -0.27306533 -0.3404602
v -0.15038376 -0.27306533 -0.3404602
v -0.15038376 -0.27306533 0.44591796
v 0.0030294035 -0.27306533 0.44591796
v 0.0030294035 -0.27306533 -0.3404602
v -0.15038376 0.26068512 -0.3404602
v -0.15038376 0.26068512 0.44591796
v -0.15038376 -0.27306533 0.44591796
v -0.15038376 -0.27306533 -0.3404602
v -0.1441378 0.25443757 -0.3427716
v -0.1441378 -0.26681763 -0.3427716
v -0.0032191467 -0.26681763 -0.3427716
v -0.0032191467 0.25443757 -0.3427716
v -0.1441378 0.25443757 -0.44591796
v -0.1441378 0.25443757 -0.3427716
v -0.0032191467 0.25443757 -0.3427716
v -0.0032191467 0.25443757 -0.44591796
v -0.0032191467 0.25443757 -0.44591796
v -0.0032191467 0.25443757 -0.3427716
v -0.0032191467 -0.26681763 -0.3427716
v -0.0032191467 -0.26681763 -0.44591796
v -0.0032191467 -0.26681763 -0.44591796
v -0.0032191467 -0.26681763 -0.3427716
v -0.1441378 -0.26681763 -0.3427716
v -0.1441378 -0.26681763 -0.44591796
v -0.1441378 -0.26681763 -0.44591796
v -0.1441378 -0.26681763 -0.3427716
v -0.1441378 0.25443757 -0.3427716
v -0.1441378 0.25443757 -0.44591796
v -0.15038376 -0.3741145 0.35726014
v -0.15038376 -0.28644165 0.35726014
v 0.0030294035 -0.28644165 0.35726014
v 0.07328232 -0.3741145 0.35726014
v 0.0030294035 0.28644133 0.35726014
v 0.07328232 0.3741145 0.35726014
v -0.15038376 0.28644133 0.35726014
v -0.15038376 0.3741145 0.35726014
v 0.1691281 0.27827102 0.35726014
v 0.1691281 -0.27827072 0.35726014
v -0.15038376 -0.3741145 -0.13501343
v -0.15038376 -0.28644165 -0.13501343
v -0.15038376 -0.28644165 0.35726014
v -0.15038376 -0.3741145 0.35726014
v -0.15038376 -0.3741145 -0.13501343
v -0.15038376 -0.3741145 0.35726014
v 0.07328232 -0.3741145 0.35726014
v 0.07328232 -0.3741145 -0.13501343
v 0.1691281 -0.27827072 0.35726014
v 0.1691281 0.27827102 0.35726014
v 0.1691281 0.27827102 -0.13501343
v 0.1691281 -0.27827072 -0.13501343
v -0.15038376 0.3741145 0.35726014
v -0.15038376 0.3741145 -0.13501343
v 0.07328232 0.3741145 -0.13501343
v 0.07328232 0.3741145 0.35726014
v -0.15038376 0.28644133 0.35726014
v -0.15038376 0.28644133 -0.13501343
v -0.15038376 0.3741145 -0.13501343
v -0.15038376 0.3741145 0.35726014
v 0.07328232 0.3741145 -0.13501343
v 0.1691281 -0.27827072 -0.13501343
v 0.1691281 0.27827102 -0.13501343
v 0.07328232 -0.3741145 -0.13501343
v 0.0030294035 -0.28644165 -0.13501343
v -0.15038376 -0.28644165 -0.13501343
v -0.15038376 -0.3741145 -0.13501343
v 0.0030294035 0.28644133 -0.13501343
v -0.15038376 0.3741145 -0.13501343
v -0.15038376 0.28644133 -0.13501343
v -0.15038376 0.28644133 0.35726014
v 0.0030294035 0.28644133 0.35726014
v 0.0030294035 0.28644133 -0.13501343
v -0.15038376 0.28644133 -0.13501343
v 0.0030294035 -0.28644165 0.35726014
v 0.0030294035 -0.28644165 -0.13501343
v 0.0030294035 0.28644133 -0.13501343
v 0.0030294035 0.28644133 0.35726014
v -0.15038376 -0.28644165 -0.13501343
v 0.0030294035 -0.28644165 -0.13501343
v 0.0030294035 -0.28644165 0.35726014
v -0.15038376 -0.28644165 0.35726014
v 0.1691281 -0.27827072 0.35726014
v 0.1691281 -0.27827072 -0.13501343
v 0.07328232 -0.3741145 -0.13501343
v 0.07328232 -0.3741145 0.35726014
v 0.07328232 0.3741145 0.35726014
v 0.07328232 0.3741145 -0.13501343
v 0.1691281 0.27827102 -0.13501343
v 0.1691281 0.27827102 0.35726014
v -0.13838416 -0.26106536 0.44591796
v -0.13838416 0.24868484 0.44591796
v -0.13838416 0.24868484 0.36924192
v -0.13838416 -0.26106536 0.36924192
v -0.13838416 0.24868484 0.44591796
v -0.008970261 0.24868484 0.44591796
v -0.008970261 0.24868484 0.36924192
v -0.13838416 0.24868484 0.36924192
v -0.008970261 0.24868484 0.44591796
v -0.008970261 -0.26106536 0.44591796
v -0.008970261 -0.26106536 0.36924192
v -0.008970261 0.24868484 0.36924192
v -0.008970261 -0.26106536 0.44591796
v -0.13838416 -0.26106536 0.44591796
v -0.13838416 -0.26106536 0.36924192
v -0.008970261 -0.26106536 0.36924192
v -0.1691281 0.2794281 -0.44591796
v -0.1441378 0.25443757 -0.44591796
v -0.0032191467 0.25443757 -0.44591796
v 0.021771086 0.2794281 -0.44591796
v -0.1691281 -0.29180846 -0.44591796
v -0.0032191467 -0.26681763 -0.44591796
v -0.1441378 -0.26681763 -0.44591796
v 0.021771086 -0.29180846 -0.44591796
v -0.15038376 -0.27306533 0.44591796
v -0.13838416 0.24868484 0.44591796
v -0.13838416 -0.26106536 0.44591796
v -0.15038376 0.26068512 0.44591796
v 0.0030294035 -0.27306533 0.44591796
v -0.008970261 0.24868484 0.44591796
v -0.008970261 -0.26106536 0.44591796
v 0.0030294035 0.26068512 0.44591796
v -0.15038376 0.26068512 -0.3404602
v -0.1691281 0.2794281 -0.3404602
v 0.021771086 0.2794281 -0.3404602
v 0.0030294035 0.26068512 -0.3404602
v -0.15038376 -0.27306533 -0.3404602
v 0.021771086 -0.29180846 -0.3404602
v -0.1691281 -0.29180846 -0.3404602
v 0.0030294035 -0.27306533 -0.3404602
vt 0.1479696 0.053128947
vt 0.1479696 0.118025884
vt 0.13149369 0.118025884
vt 0.13149336 0.053129006
vt 0.21673803 0.27566484
vt 0.23016565 0.27566648
vt 0.2301643 0.29997006
vt 0.21673451 0.29996845
vt 0.30289018 0.27566665
vt 0.3163184 0.2756667
vt 0.3163181 0.2999704
vt 0.3028896 0.29997024
vt 0.2301643 0.31339875
vt 0.2301643 0.29997006
vt 0.3028896 0.29997024
vt 0.30288923 0.31339914
vt 0.30289018 0.27566665
vt 0.23016565 0.27566648
vt 0.23016565 0.26223773
vt 0.30289018 0.2622379
vt 0.024867617 0.31923485
vt 0.024867617 0.21909878
vt 0.044398658 0.21909878
vt 0.044398658 0.31923485
vt 0.11235113 0.31923485
vt 0.044398658 0.31923485
vt 0.044398658 0.21909878
vt 0.11235083 0.21909872
vt 0.13188247 0.21909872
vt 0.13188247 0.31923485
vt 0.11235113 0.31923485
vt 0.11235083 0.21909872
vt 0.19983502 0.21909854
vt 0.19983502 0.31923473
vt 0.13188247 0.31923485
vt 0.13188247 0.21909872
vt 0.081039436 0.11862244
vt 0.081039436 0.052260865
vt 0.09898003 0.052260865
vt 0.09898003 0.11862244
vt 0.23334573 0.27884817
vt 0.24647932 0.2788456
vt 0.24648283 0.29678598
vt 0.23334734 0.29678863
vt 0.11211457 0.11862244
vt 0.09898003 0.11862244
vt 0.09898003 0.052260865
vt 0.11211457 0.052260865
vt 0.29970974 0.29678863
vt 0.2865771 0.2967934
vt 0.28657043 0.27885288
vt 0.29970652 0.27884817
vt 0.06790486 0.052260865
vt 0.081039436 0.052260865
vt 0.081039436 0.11862244
vt 0.06790519 0.11862244
vt 0.3178084 0.23603944
vt 0.30664647 0.23603986
vt 0.3066458 0.21650866
vt 0.31780708 0.20756426
vt 0.23371135 0.21651162
vt 0.22254945 0.207568
vt 0.23371233 0.2360428
vt 0.22255073 0.23604329
vt 0.23475061 0.19536574
vt 0.30560464 0.19536221
vt 0.34627917 0.13267472
vt 0.35744107 0.13267416
vt 0.35744363 0.19535933
vt 0.346282 0.19535981
vt 0.34627917 0.13267472
vt 0.346282 0.19535981
vt 0.31780708 0.19536124
vt 0.31780386 0.13267629
vt 0.30560464 0.19536221
vt 0.23475061 0.19536574
vt 0.23474838 0.13268173
vt 0.30560172 0.13267593
vt 0.19407193 0.19536598
vt 0.19407193 0.13268098
vt 0.22254722 0.13268098
vt 0.22254722 0.19536613
vt 0.18291007 0.19536613
vt 0.18291007 0.13268098
vt 0.19407193 0.13268098
vt 0.19407193 0.19536598
vt 0.22254495 0.12048151
vt 0.30560172 0.13267593
vt 0.23474838 0.13268173
vt 0.3178029 0.12047186
vt 0.30664003 0.111528985
vt 0.30663812 0.09199756
vt 0.31779975 0.0919966
vt 0.23370562 0.11153639
vt 0.22254209 0.092006184
vt 0.23370369 0.09200511
vt 0.18291007 0.19536613
vt 0.16337939 0.19536613
vt 0.1633781 0.13268098
vt 0.18291007 0.13268098
vt 0.09044546 0.19536813
vt 0.09044352 0.1326829
vt 0.1633781 0.13268098
vt 0.16337939 0.19536613
vt 0.07091218 0.13268359
vt 0.09044352 0.1326829
vt 0.09044546 0.19536813
vt 0.07091412 0.1953686
vt 0.30560464 0.19536221
vt 0.30560172 0.13267593
vt 0.31780386 0.13267629
vt 0.31780708 0.19536124
vt 0.22254722 0.19536613
vt 0.22254722 0.13268098
vt 0.23474838 0.13268173
vt 0.23475061 0.19536574
vt 0.15773341 0.053128947
vt 0.15773341 0.118025884
vt 0.1479696 0.118025884
vt 0.1479696 0.053128947
vt 0.19830726 0.32076234
vt 0.19830666 0.33723822
vt 0.18854289 0.33723763
vt 0.18854354 0.3207619
vt 0.12173023 0.11802602
vt 0.121729605 0.053129155
vt 0.13149336 0.053129006
vt 0.13149369 0.118025884
vt 0.1334105 0.33723834
vt 0.1334102 0.3207624
vt 0.14317395 0.32076222
vt 0.14317428 0.3372381
vt 0.23016565 0.27566648
vt 0.23334573 0.27884817
vt 0.23334734 0.29678863
vt 0.2301643 0.29997006
vt 0.30289018 0.27566665
vt 0.29970974 0.29678863
vt 0.29970652 0.27884817
vt 0.3028896 0.29997024
vt 0.13188247 0.31923485
vt 0.19830726 0.32076234
vt 0.1334102 0.3207624
vt 0.19983502 0.31923473
vt 0.13188247 0.3387661
vt 0.19830666 0.33723822
vt 0.1334105 0.33723834
vt 0.19983502 0.3387659
vt 0.23255055 0.335316
vt 0.2301643 0.3377024
vt 0.2301643 0.31339875
vt 0.23255055 0.3157849
vt 0.300503 0.33531645
vt 0.30288923 0.31339914
vt 0.30288923 0.3377028
vt 0.300503 0.31578514
vn -0 0 1
vn -0 0 1
vn -0 0 1
vn -0 0 1
vn -0 1 0
vn -0 1 0
vn -0 1 0
vn -0 1 0
vn -0 -1 0
vn -0 -1 0
vn -0 -1 0
vn -0 -1 0
vn 1 0 0
vn 1 0 0
vn 1 0 0
vn 1 0 0
vn -1 0 0
vn -1 0 0
vn -1 0 0
vn -1 0 0
vn -0 1 0
vn -0 1 0
vn -0 1 0
vn -0 1 0
vn 1 0 0
vn 1 0 0
vn 1 0 0
vn 1 0 0
vn -0 -1 0
vn -0 -1 0
vn -0 -1 0
vn -0 -1 0
vn -1 0 0
vn -1 0 0
vn -1 0 0
vn -1 0 0
vn -0 0 -1
vn -0 0 -1
vn -0 0 -1
vn -0 0 -1
vn -0 -1 0
vn -0 -1 0
vn -0 -1 0
vn -0 -1 0
vn -1 0 0
vn -1 0 0
vn -1 0 0
vn -1 0 0
vn -0 1 0
vn -0 1 0
vn -0 1 0
vn -0 1 0
vn 1 0 0
vn 1 0 0
vn 1 0 0
vn 1 0 0
vn -0 0 1
vn -0 0 1
vn 2.4825968E-07 0 1
vn 1.0821042E-07 0 1
vn 2.4825954E-07 0 1
vn 1.08210045E-07 0 1
vn -0 0 1
vn -0 0 1
vn -0 0 1
vn -0 0 1
vn -1 0 0
vn -1 0 0
vn -1 0 0
vn -1 0 0
vn -0 -1 0
vn -0 -1 0
vn -0 -1 0
vn -0 -1 0
vn 1 0 0
vn 1 0 0
vn 1 0 0
vn 1 0 0
vn -0 1 0
vn -0 1 0
vn -0 1 0
vn -0 1 0
vn -1 0 0
vn -1 0 0
vn -1 0 0
vn -1 0 0
vn -0 0 -1
vn -0 0 -1
vn -0 0 -1
vn -0 0 -1
vn -0 0 -1
vn -0 0 -1
vn -0 0 -1
vn -0 0 -1
vn -0 0 -1
vn -0 0 -1
vn -0 -1 0
vn -0 -1 0
vn -0 -1 0
vn -0 -1 0
vn -1 0 0
vn -1 0 0
vn -1 0 0
vn -1 0 0
vn -0 1 0
vn -0 1 0
vn -0 1 0
vn -0 1 0
vn 0.70709944 -0.70711404 0
vn 0.70709944 -0.70711404 0
vn 0.70709944 -0.70711404 0
vn 0.70709944 -0.70711404 0
vn 0.7070983 0.70711523 0
vn 0.7070983 0.70711523 0
vn 0.7070983 0.70711523 0
vn 0.7070983 0.70711523 0
vn 1 0 0
vn 1 0 0
vn 1 0 0
vn 1 0 0
vn -0 -1 0
vn -0 -1 0
vn -0 -1 0
vn -0 -1 0
vn -1 0 0
vn -1 0 0
vn -1 0 0
vn -1 0 0
vn -0 1 0
vn -0 1 0
vn -0 1 0
vn -0 1 0
vn 3.000819E-07 0 -1
vn 3.0008295E-07 0 -1
vn 3.0008377E-07 0 -1
vn 3.0008232E-07 0 -1
vn 3.0008002E-07 0 -1
vn 3.0008343E-07 0 -1
vn 3.0008258E-07 0 -1
vn 3.0008047E-07 0 -1
vn -3.0679353E-06 0 1
vn -3.0679612E-06 0 1
vn -3.0679703E-06 0 1
vn -3.0678975E-06 0 1
vn 3.0679255E-06 0 1
vn 3.0679446E-06 0 1
vn 3.067954E-06 0 1
vn 3.067888E-06 0 1
vn -5.6168886E-07 0 1
vn -5.6170546E-07 0 1
vn 7.8643916E-07 0 1
vn 7.86461E-07 0 1
vn -5.6168835E-07 0 1
vn 7.8643586E-07 0 1
vn -5.61703E-07 0 1
vn 7.864603E-07 0 1
g Holder_box_0
f 3/3/3 2/2/2 1/1/1
f 4/4/4 3/3/3 1/1/1
f 7/7/7 6/6/6 5/5/5
f 8/8/8 7/7/7 5/5/5
f 11/11/11 10/10/10 9/9/9
f 12/12/12 11/11/11 9/9/9
f 15/15/15 14/14/14 13/13/13
f 16/16/16 15/15/15 13/13/13
f 19/19/19 18/18/18 17/17/17
f 20/20/20 19/19/19 17/17/17
f 23/23/23 22/22/22 21/21/21
f 24/24/24 23/23/23 21/21/21
f 27/27/27 26/26/26 25/25/25
f 28/28/28 27/27/27 25/25/25
f 31/31/31 30/30/30 29/29/29
f 32/32/32 31/31/31 29/29/29
f 35/35/35 34/34/34 33/33/33
f 36/36/36 35/35/35 33/33/33
f 39/39/39 38/38/38 37/37/37
f 40/40/40 39/39/39 37/37/37
f 43/43/43 42/42/42 41/41/41
f 44/44/44 43/43/43 41/41/41
f 47/47/47 46/46/46 45/45/45
f 48/48/48 47/47/47 45/45/45
f 51/51/51 50/50/50 49/49/49
f 52/52/52 51/51/51 49/49/49
f 55/55/55 54/54/54 53/53/53
f 56/56/56 55/55/55 53/53/53
f 59/59/59 58/58/58 57/57/57
f 60/60/60 59/59/59 57/57/57
f 61/61/61 59/59/59 60/60/60
f 62/62/62 61/61/61 60/60/60
f 63/63/63 61/61/61 62/62/62
f 64/64/64 63/63/63 62/62/62
f 65/65/65 62/62/62 60/60/60
f 66/66/66 65/65/65 60/60/60
f 69/69/69 68/68/68 67/67/67
f 70/70/70 69/69/69 67/67/67
f 73/73/73 72/72/72 71/71/71
f 74/74/74 73/73/73 71/71/71
f 77/77/77 76/76/76 75/75/75
f 78/78/78 77/77/77 75/75/75
f 81/81/81 80/80/80 79/79/79
f 82/82/82 81/81/81 79/79/79
f 85/85/85 84/84/84 83/83/83
f 86/86/86 85/85/85 83/83/83
f 89/89/89 88/88/88 87/87/87
f 88/88/88 90/90/90 87/87/87
f 90/90/90 91/91/91 87/87/87
f 92/92/92 91/91/91 90/90/90
f 93/93/93 92/92/92 90/90/90
f 91/91/91 94/94/94 87/87/87
f 87/87/87 94/94/94 95/95/95
f 94/94/94 96/96/96 95/95/95
f 99/99/99 98/98/98 97/97/97
f 100/100/100 99/99/99 97/97/97
f 103/103/103 102/102/102 101/101/101
f 104/104/104 103/103/103 101/101/101
f 107/107/107 106/106/106 105/105/105
f 108/108/108 107/107/107 105/105/105
f 111/111/111 110/110/110 109/109/109
f 112/112/112 111/111/111 109/109/109
f 115/115/115 114/114/114 113/113/113
f 116/116/116 115/115/115 113/113/113
f 119/119/119 118/118/118 117/117/117
f 120/120/120 119/119/119 117/117/117
f 123/123/123 122/122/122 121/121/121
f 124/124/124 123/123/123 121/121/121
f 127/127/127 126/126/126 125/125/125
f 128/128/128 127/127/127 125/125/125
f 131/131/131 130/130/130 129/129/129
f 132/132/132 131/131/131 129/129/129
f 135/135/135 134/134/134 133/133/133
f 136/136/136 135/135/135 133/133/133
f 133/133/133 134/134/134 137/137/137
f 138/138/138 135/135/135 136/136/136
f 134/134/134 139/139/139 137/137/137
f 140/140/140 138/138/138 136/136/136
f 137/137/137 139/139/139 140/140/140
f 139/139/139 138/138/138 140/140/140
f 143/143/143 142/142/142 141/141/141
f 142/142/142 144/144/144 141/141/141
f 143/143/143 141/141/141 145/145/145
f 142/142/142 146/146/146 144/144/144
f 147/147/147 143/143/143 145/145/145
f 146/146/146 148/148/148 144/144/144
f 147/147/147 145/145/145 148/148/148
f 146/146/146 147/147/147 148/148/148
f 151/151/151 150/150/150 149/149/149
f 152/152/152 151/151/151 149/149/149
f 149/149/149 150/150/150 153/153/153
f 154/154/154 151/151/151 152/152/152
f 150/150/150 155/155/155 153/153/153
f 156/156/156 154/154/154 152/152/152
f 153/153/153 155/155/155 156/156/156
f 155/155/155 154/154/154 156/156/156
