g honneyplate_LOD1
v -0.11480233 0.77247506 0.31693694
v 0.00015384518 0.8331911 0.28738758
v -0.107275054 0.77676934 0.3251382
v -5.5972487E-06 0.83157074 0.2752634
v 0.106505096 0.7768681 0.32520556
v 0.00015384518 0.8331911 0.28738758
v 0.11390112 0.77259046 0.31701356
v 0.105689585 0.6842884 0.40867794
v 0.106505096 0.7768681 0.32520556
v 0.11295277 0.6737904 0.40627828
v 0.108787835 0.6175451 0.36136568
v 0.10971241 0.7124099 0.2761994
v 0.00014561415 0.5810497 0.4100312
v 0.00015121698 0.6355634 0.45714623
v -0.10832387 0.6175998 0.36139828
v 0.00015193224 0.64857435 0.45633653
v 0.105689585 0.6842884 0.40867794
v -0.11347699 0.6737175 0.40622795
v -0.10961284 0.7124232 0.27620646
v -0.11480233 0.77247506 0.31693694
v -0.107275054 0.77676934 0.3251382
v -0.10626626 0.6842088 0.40862328
v -0.10626626 0.6842088 0.40862328
v 0.00015193224 0.64857435 0.45633653
v -0.22766721 0.87524915 0.14450741
v -0.11403602 0.93109196 0.108673275
v -0.22106242 0.88079923 0.15303147
v -0.11338633 0.9291112 0.097005665
v -0.10819864 0.86467177 0.06175092
v -0.2172904 0.8121489 0.10821962
v -0 0.84375966 0.12565894
v -0 0.90759367 0.16242409
v -0.008007169 0.9109426 0.16975309
v -0.11403602 0.93109196 0.108673275
v -0.008076914 0.8399696 0.27512696
v -0.008007169 0.9109426 0.16975309
v -5.5972487E-06 0.83157074 0.2752634
v -0.11562545 0.7859311 0.31529355
v -0.008076914 0.8399696 0.27512696
v -0.11480233 0.77247506 0.31693694
v -0.22298789 0.81088775 0.25853372
v -0.11562545 0.7859311 0.31529355
v -0.22980535 0.8004565 0.25748783
v -0.21940963 0.73930234 0.21865737
v -0.10961284 0.7124232 0.27620646
v -0.2172904 0.8121489 0.10821962
v -0.22766721 0.87524915 0.14450741
v -0.22106242 0.88079923 0.15303147
v -0.22298789 0.81088775 0.25853372
v -0 0.90759367 0.16242409
v 0.11316091 0.9312042 0.10874626
v 0.0079392195 0.9109513 0.16975872
v 0.11263722 0.92920715 0.09706816
v 0.1084556 0.8646387 0.06172949
v -0 0.84375966 0.12565894
v 0.21759847 0.8121094 0.108193934
v 0.2259629 0.8754676 0.14464962
v 0.21930669 0.7393155 0.21866596
v 0.21918675 0.8810397 0.15318793
v 0.11316091 0.9312042 0.10874626
v 0.22768635 0.80072814 0.25766456
v 0.10971241 0.7124099 0.2761994
v 0.11390112 0.77259046 0.31701356
v 0.22073878 0.8111761 0.25872135
v 0.21918675 0.8810397 0.15318793
v 0.11444208 0.78608286 0.31539226
v 0.22073878 0.8111761 0.25872135
v 0.00799544 0.83998 0.27513376
v 0.11444208 0.78608286 0.31539226
v -5.5972487E-06 0.83157074 0.2752634
v 0.0079392195 0.9109513 0.16975872
v 0.00799544 0.83998 0.27513376
v -0 0.90759367 0.16242409
v -0.10832387 0.6175998 0.36139828
v 0.0001425147 0.6327864 0.29286832
v -0.10961284 0.7124232 0.27620646
v 0.00014561415 0.5810497 0.4100312
v -5.3434633E-06 0.7696817 0.2359546
v 0.108787835 0.6175451 0.36136568
v 0.10971241 0.7124099 0.2761994
v -0.21940963 0.73930234 0.21865737
v -0.105217814 0.74261796 0.14272302
v -0.2172904 0.8121489 0.10821962
v -0.10961284 0.7124232 0.27620646
v -0.10819864 0.86467177 0.06175092
v -5.3434633E-06 0.7696817 0.2359546
v -0 0.84375966 0.12565894
v 0.21930669 0.7393155 0.21866596
v 0.10605289 0.742511 0.1426534
v 0.10971241 0.7124099 0.2761994
v 0.21759847 0.8121094 0.108193934
v -5.3434633E-06 0.7696817 0.2359546
v 0.1084556 0.8646387 0.06172949
v -0 0.84375966 0.12565894
v -0.107275054 0.77676934 0.3251382
v 0.00015220046 0.7337679 0.36718887
v -0.10626626 0.6842088 0.40862328
v 0.00015384518 0.8331911 0.28738758
v 0.00015193224 0.64857435 0.45633653
v 0.106505096 0.7768681 0.32520556
v 0.105689585 0.6842884 0.40867794
v -0.22106242 0.88079923 0.15303147
v -0.11419675 0.85058665 0.20802492
v -0.22298789 0.81088775 0.25853372
v -0.11403602 0.93109196 0.108673275
v -0.11562545 0.7859311 0.31529355
v -0.008007169 0.9109426 0.16975309
v -0.008076914 0.8399696 0.27512696
v 0.0079392195 0.9109513 0.16975872
v 0.11329049 0.8507029 0.20810053
v 0.00799544 0.83998 0.27513376
v 0.11316091 0.9312042 0.10874626
v 0.11444208 0.78608286 0.31539226
v 0.21918675 0.8810397 0.15318793
v 0.22073878 0.8111761 0.25872135
vt 0.625 0.65084964
vt 0.5847599 0.68843985
vt 0.6235734 0.68843985
vt 0.5833333 0.65084964
vt 0.54309326 0.68843985
vt 0.58190674 0.68843985
vt 0.5416666 0.65084964
vt 0.5014266 0.68843985
vt 0.54024005 0.68843985
vt 0.49999997 0.65084964
vt 0.49999997 0.3125
vt 0.5416666 0.3125
vt 0.4583333 0.3125
vt 0.4583333 0.65084964
vt 0.41666666 0.3125
vt 0.45975992 0.68843985
vt 0.49857336 0.68843985
vt 0.41666663 0.65084964
vt 0.375 0.3125
vt 0.37499997 0.65084964
vt 0.3764266 0.68843985
vt 0.41524008 0.68843985
vt 0.41809326 0.68843985
vt 0.45690674 0.68843985
vt 0.625 0.65084964
vt 0.5847599 0.68843985
vt 0.6235734 0.68843985
vt 0.5833333 0.65084964
vt 0.5833333 0.3125
vt 0.625 0.3125
vt 0.5416666 0.3125
vt 0.5416666 0.65084964
vt 0.54309326 0.68843985
vt 0.58190674 0.68843985
vt 0.5014266 0.68843985
vt 0.54024005 0.68843985
vt 0.49999997 0.65084964
vt 0.45975992 0.68843985
vt 0.49857336 0.68843985
vt 0.4583333 0.65084964
vt 0.41809326 0.68843985
vt 0.45690674 0.68843985
vt 0.41666663 0.65084964
vt 0.41666666 0.3125
vt 0.4583333 0.3125
vt 0.375 0.3125
vt 0.37499997 0.65084964
vt 0.3764266 0.68843985
vt 0.41524008 0.68843985
vt 0.625 0.65084964
vt 0.5847599 0.68843985
vt 0.6235734 0.68843985
vt 0.5833333 0.65084964
vt 0.5833333 0.3125
vt 0.625 0.3125
vt 0.5416666 0.3125
vt 0.5416666 0.65084964
vt 0.49999997 0.3125
vt 0.54309326 0.68843985
vt 0.58190674 0.68843985
vt 0.49999997 0.65084964
vt 0.4583333 0.3125
vt 0.4583333 0.65084964
vt 0.5014266 0.68843985
vt 0.54024005 0.68843985
vt 0.45975992 0.68843985
vt 0.49857336 0.68843985
vt 0.41809326 0.68843985
vt 0.45690674 0.68843985
vt 0.41666663 0.65084964
vt 0.3764266 0.68843985
vt 0.41524008 0.68843985
vt 0.37499997 0.65084964
vt 0.42187503 0.020933509
vt 0.5 0.15
vt 0.57812506 0.020933539
vt 0.34375 0.15624997
vt 0.65625 0.15625
vt 0.421875 0.29156646
vt 0.578125 0.2915665
vt 0.42187503 0.020933509
vt 0.5 0.15
vt 0.57812506 0.020933539
vt 0.34375 0.15624997
vt 0.65625 0.15625
vt 0.421875 0.29156646
vt 0.578125 0.2915665
vt 0.421875 0.29156646
vt 0.5 0.15
vt 0.34375 0.15624997
vt 0.578125 0.2915665
vt 0.42187503 0.020933509
vt 0.65625 0.15625
vt 0.57812506 0.020933539
vt 0.57277524 0.96937245
vt 0.5 0.8375
vt 0.42722479 0.96937245
vt 0.6455505 0.84332204
vt 0.35444954 0.843322
vt 0.57277524 0.71727157
vt 0.42722479 0.71727157
vt 0.57277524 0.96937245
vt 0.5 0.8375
vt 0.42722479 0.96937245
vt 0.6455505 0.84332204
vt 0.35444954 0.843322
vt 0.57277524 0.71727157
vt 0.42722479 0.71727157
vt 0.57277524 0.96937245
vt 0.5 0.8375
vt 0.42722479 0.96937245
vt 0.6455505 0.84332204
vt 0.35444954 0.843322
vt 0.57277524 0.71727157
vt 0.42722479 0.71727157
vn -0.9941129 0.10643114 0.020296426
vn 0.00036172173 0.7882582 0.6153446
vn -0.22308998 0.7189895 0.6582438
vn -0.005773725 0.99617624 -0.08717466
vn 0.22382821 0.71859235 0.6584268
vn 0.00036172173 0.7882582 0.6153446
vn 0.99307704 0.11461746 0.0257092
vn 0.2265581 0.6027732 0.7650725
vn 0.22382821 0.71859235 0.6584268
vn 0.87563574 -0.27786934 0.39503238
vn 0.75455797 -0.6560592 0.0151201105
vn 0.76634157 -0.3391359 -0.5456257
vn 0.00015446215 -0.9152927 0.40278947
vn 0.00029511595 -0.58094406 0.81394345
vn -0.7507419 -0.660454 0.013685681
vn -0.00036791217 0.5698216 0.82176834
vn 0.2265581 0.6027732 0.7650725
vn -0.8757094 -0.2849692 0.38977635
vn -0.762145 -0.34478185 -0.54796034
vn -0.9941129 0.10643114 0.020296426
vn -0.22308998 0.7189895 0.6582438
vn -0.2256632 0.6025864 0.765484
vn -0.2256632 0.6025864 0.765484
vn -0.00036791217 0.5698216 0.82176834
vn -0.8591659 0.22836524 -0.45791176
vn -0.15841305 0.8828394 0.4421538
vn -0.25827238 0.83757627 0.48141584
vn 0.012289389 0.54952854 -0.8353846
vn 0.050930105 0.08160294 -0.99536276
vn -0.711876 -0.215906 -0.66829425
vn 0.581752 -0.13797608 -0.801578
vn 0.5514717 0.55348194 -0.6241287
vn -0.05333593 0.86029565 0.50699764
vn -0.15841305 0.8828394 0.4421538
vn -0.05755234 0.77606297 0.6280239
vn -0.05333593 0.86029565 0.50699764
vn 0.46910277 0.413852 0.78017247
vn -0.14547895 0.706104 0.693003
vn -0.05755234 0.77606297 0.6280239
vn -0.44292963 -0.412033 0.7962676
vn -0.25078076 0.7525951 0.60885924
vn -0.14547895 0.706104 0.693003
vn -0.8778054 -0.28581634 0.38440433
vn -0.7315639 -0.67640394 0.085392624
vn -0.18555246 -0.9450271 0.26924694
vn -0.711876 -0.215906 -0.66829425
vn -0.8591659 0.22836524 -0.45791176
vn -0.25827238 0.83757627 0.48141584
vn -0.25078076 0.7525951 0.60885924
vn -0.5531165 0.5497977 -0.62592703
vn 0.15791017 0.88325554 0.4415021
vn 0.052722473 0.86005926 0.5074628
vn -0.0157172 0.552441 -0.83340377
vn -0.048053596 0.08276263 -0.99541
vn -0.5811278 -0.14230992 -0.801273
vn 0.7215556 -0.2074733 -0.66053945
vn 0.8607593 0.24492107 -0.44621414
vn 0.739998 -0.66630733 0.09185683
vn 0.25900412 0.8371955 0.48168513
vn 0.15791017 0.88325554 0.4415021
vn 0.8773025 -0.26895487 0.39749667
vn 0.18825522 -0.94303334 0.27431396
vn 0.44630703 -0.403293 0.79885215
vn 0.25074935 0.75275636 0.60867286
vn 0.25900412 0.8371955 0.48168513
vn 0.1443933 0.7054957 0.6938489
vn 0.25074935 0.75275636 0.60867286
vn 0.05700106 0.776524 0.62750405
vn 0.1443933 0.7054957 0.6938489
vn -0.4742247 0.41042432 0.77888566
vn 0.052722473 0.86005926 0.5074628
vn 0.05700106 0.776524 0.62750405
vn -0.5531165 0.5497977 -0.62592703
vn -0.7507419 -0.660454 0.013685681
vn -0.00010790756 -0.68099236 -0.73229057
vn -0.762145 -0.34478185 -0.54796034
vn 0.00015446215 -0.9152927 0.40278947
vn -0.00016210138 -0.38389102 -0.92337835
vn 0.75455797 -0.6560592 0.0151201105
vn 0.76634157 -0.3391359 -0.5456257
vn -0.7315639 -0.67640394 0.085392624
vn 0.15258487 -0.8153391 -0.5585159
vn -0.711876 -0.215906 -0.66829425
vn -0.18555246 -0.9450271 0.26924694
vn 0.050930105 0.08160294 -0.99536276
vn 0.50359374 -0.79531574 -0.3374406
vn 0.581752 -0.13797608 -0.801578
vn 0.739998 -0.66630733 0.09185683
vn -0.15148596 -0.81542635 -0.5586876
vn 0.18825522 -0.94303334 0.27431396
vn 0.7215556 -0.2074733 -0.66053945
vn -0.50215286 -0.7954995 -0.3391504
vn -0.048053596 0.08276263 -0.99541
vn -0.5811278 -0.14230992 -0.801273
vn -0.22308998 0.7189895 0.6582438
vn -0.00054451224 0.67259705 0.7400087
vn -0.2256632 0.6025864 0.765484
vn 0.00036172173 0.7882582 0.6153446
vn -0.00036791217 0.5698216 0.82176834
vn 0.22382821 0.71859235 0.6584268
vn 0.2265581 0.6027732 0.7650725
vn -0.25827238 0.83757627 0.48141584
vn -0.15600787 0.8134431 0.56033176
vn -0.25078076 0.7525951 0.60885924
vn -0.15841305 0.8828394 0.4421538
vn -0.14547895 0.706104 0.693003
vn -0.05333593 0.86029565 0.50699764
vn -0.05755234 0.77606297 0.6280239
vn 0.052722473 0.86005926 0.5074628
vn 0.15598693 0.81347543 0.5602908
vn 0.05700106 0.776524 0.62750405
vn 0.15791017 0.88325554 0.4415021
vn 0.1443933 0.7054957 0.6938489
vn 0.25900412 0.8371955 0.48168513
vn 0.25074935 0.75275636 0.60867286
g honneyplate_LOD1_0
f 3/3/3 2/2/2 1/1/1
f 2/2/2 4/4/4 1/1/1
f 4/4/4 6/6/6 5/5/5
f 7/7/7 4/4/4 5/5/5
f 7/7/7 9/9/9 8/8/8
f 10/10/10 7/7/7 8/8/8
f 7/7/7 10/10/10 11/11/11
f 12/12/12 7/7/7 11/11/11
f 11/11/11 10/10/10 13/13/13
f 10/10/10 14/14/14 13/13/13
f 13/13/13 14/14/14 15/15/15
f 14/14/14 10/10/10 16/16/16
f 10/10/10 17/17/17 16/16/16
f 14/14/14 18/18/18 15/15/15
f 15/15/15 18/18/18 19/19/19
f 18/18/18 20/20/20 19/19/19
f 20/20/20 18/18/18 21/21/21
f 18/18/18 22/22/22 21/21/21
f 18/18/18 14/14/14 23/23/23
f 14/14/14 24/24/24 23/23/23
f 27/27/27 26/26/26 25/25/25
f 26/26/26 28/28/28 25/25/25
f 25/25/25 28/28/28 29/29/29
f 30/30/30 25/25/25 29/29/29
f 29/29/29 28/28/28 31/31/31
f 28/28/28 32/32/32 31/31/31
f 32/32/32 28/28/28 33/33/33
f 28/28/28 34/34/34 33/33/33
f 32/32/32 36/36/36 35/35/35
f 37/37/37 32/32/32 35/35/35
f 37/37/37 39/39/39 38/38/38
f 40/40/40 37/37/37 38/38/38
f 40/40/40 42/42/42 41/41/41
f 43/43/43 40/40/40 41/41/41
f 40/40/40 43/43/43 44/44/44
f 45/45/45 40/40/40 44/44/44
f 44/44/44 43/43/43 46/46/46
f 43/43/43 47/47/47 46/46/46
f 47/47/47 43/43/43 48/48/48
f 43/43/43 49/49/49 48/48/48
f 52/52/52 51/51/51 50/50/50
f 51/51/51 53/53/53 50/50/50
f 50/50/50 53/53/53 54/54/54
f 55/55/55 50/50/50 54/54/54
f 54/54/54 53/53/53 56/56/56
f 53/53/53 57/57/57 56/56/56
f 56/56/56 57/57/57 58/58/58
f 57/57/57 53/53/53 59/59/59
f 53/53/53 60/60/60 59/59/59
f 57/57/57 61/61/61 58/58/58
f 58/58/58 61/61/61 62/62/62
f 61/61/61 63/63/63 62/62/62
f 61/61/61 57/57/57 64/64/64
f 57/57/57 65/65/65 64/64/64
f 63/63/63 61/61/61 66/66/66
f 61/61/61 67/67/67 66/66/66
f 63/63/63 69/69/69 68/68/68
f 70/70/70 63/63/63 68/68/68
f 70/70/70 72/72/72 71/71/71
f 73/73/73 70/70/70 71/71/71
f 76/76/76 75/75/75 74/74/74
f 74/74/74 75/75/75 77/77/77
f 78/78/78 75/75/75 76/76/76
f 77/77/77 75/75/75 79/79/79
f 80/80/80 75/75/75 78/78/78
f 79/79/79 75/75/75 80/80/80
f 83/83/83 82/82/82 81/81/81
f 81/81/81 82/82/82 84/84/84
f 85/85/85 82/82/82 83/83/83
f 84/84/84 82/82/82 86/86/86
f 87/87/87 82/82/82 85/85/85
f 86/86/86 82/82/82 87/87/87
f 90/90/90 89/89/89 88/88/88
f 88/88/88 89/89/89 91/91/91
f 92/92/92 89/89/89 90/90/90
f 91/91/91 89/89/89 93/93/93
f 94/94/94 89/89/89 92/92/92
f 93/93/93 89/89/89 94/94/94
f 97/97/97 96/96/96 95/95/95
f 95/95/95 96/96/96 98/98/98
f 99/99/99 96/96/96 97/97/97
f 98/98/98 96/96/96 100/100/100
f 101/101/101 96/96/96 99/99/99
f 100/100/100 96/96/96 101/101/101
f 104/104/104 103/103/103 102/102/102
f 102/102/102 103/103/103 105/105/105
f 106/106/106 103/103/103 104/104/104
f 105/105/105 103/103/103 107/107/107
f 108/108/108 103/103/103 106/106/106
f 107/107/107 103/103/103 108/108/108
f 111/111/111 110/110/110 109/109/109
f 109/109/109 110/110/110 112/112/112
f 113/113/113 110/110/110 111/111/111
f 112/112/112 110/110/110 114/114/114
f 115/115/115 110/110/110 113/113/113
f 114/114/114 110/110/110 115/115/115
