g houseWindow01
v -6.325747 6.4116454 -0.21819845
v -6.3901925 6.33161 -0.19219314
v -6.3901925 6.2432675 -0.3655732
v -6.325747 6.3113513 -0.41503817
v -6.3901925 6.1056724 -0.50316834
v -6.325747 6.155138 -0.5712511
v -6.3901925 6.1056724 -0.50316834
v -6.3901925 5.9322925 -0.5915098
v -6.325747 5.958298 -0.67154586
v -6.3901925 5.7401 -0.62195015
v -6.325747 5.7401 -0.7061051
v -6.3901925 5.5479064 -0.59150976
v -6.325747 5.5219016 -0.67154586
v -6.3901925 5.374526 -0.5031682
v -6.325747 5.325061 -0.5712509
v -6.3901925 5.374526 -0.5031682
v -6.3901925 5.236931 -0.36557308
v -6.325747 5.168849 -0.41503802
v -6.3901925 5.14859 -0.19219309
v -6.325747 5.0685534 -0.21819836
v -6.3901925 5.118149 8.9885965E-08
v -6.325747 5.033994 7.901557E-08
v -6.3901925 5.14859 0.19219325
v -6.325747 5.0685534 0.21819852
v -6.3901925 5.236931 0.3655732
v -6.325747 5.168849 0.41503814
v -6.3901925 5.374526 0.50316834
v -6.325747 5.3250623 0.571251
v -6.3901925 5.374526 0.50316834
v -6.3901925 5.5479064 0.59150976
v -6.325747 5.5219016 0.6715458
v -6.3901925 5.7401 0.62195015
v -6.325747 5.7401 0.70610505
v -6.3901925 5.9322925 0.59150976
v -6.325747 5.958298 0.6715457
v -6.3901925 6.1056724 0.5031682
v -6.325747 6.155138 0.5712509
v -6.3901925 6.1056724 0.5031682
v -6.3901925 6.2432675 0.36557314
v -6.325747 6.31135 0.4150381
v -6.3901925 6.331609 0.19219323
v -6.325747 6.4116454 0.21819846
v -6.3901925 6.3620496 8.9885965E-08
v -6.325747 6.4462047 7.901557E-08
v -6.3901925 6.33161 -0.19219314
v -6.4009557 6.061518 0.05105864
v -6.370798 6.34566 7.1830264E-08
v -6.331119 6.2707996 0.05105864
v -6.4589744 6.0988646 7.1830264E-08
v -6.4360046 5.7401 0.05105864
v -6.5032377 5.7401 7.1830264E-08
v -6.4009557 5.41868 0.05105864
v -6.4589744 5.3813343 7.1830264E-08
v -6.331119 5.209399 0.05105864
v -6.370798 5.1345387 7.1830264E-08
v -6.4589744 6.0988646 7.1830264E-08
v -6.331119 6.2707996 -0.051058486
v -6.370798 6.34566 7.1830264E-08
v -6.4009557 6.061518 -0.051058486
v -6.5032377 5.7401 7.1830264E-08
v -6.4360046 5.7401 -0.051058486
v -6.4589744 5.3813343 7.1830264E-08
v -6.4009557 5.41868 -0.051058486
v -6.370798 5.1345387 7.1830264E-08
v -6.331119 5.209399 -0.051058486
v -6.4009557 5.791158 -0.32141903
v -6.370798 5.7401 -0.6055611
v -6.331119 5.791158 -0.5307002
v -6.4589744 5.7401 -0.35876536
v -6.4360046 5.791158 1.08887605E-07
v -6.5032377 5.7401 1.14391845E-07
v -6.4009557 5.791158 0.32141924
v -6.4589744 5.7401 0.3587656
v -6.331119 5.791158 0.5307004
v -6.370798 5.7401 0.60556126
v -6.4589744 5.7401 -0.35876536
v -6.331119 5.6890416 -0.53070015
v -6.370798 5.7401 -0.6055611
v -6.4009557 5.6890416 -0.32141897
v -6.5032377 5.7401 1.14391845E-07
v -6.4360046 5.6890416 1.088876E-07
v -6.4589744 5.7401 0.3587656
v -6.4009557 5.6890416 0.32141918
v -6.370798 5.7401 0.60556126
v -6.331119 5.6890416 0.5307003
v -6.1817384 6.396374 -0.47681126
v -6.325747 6.155138 -0.5712511
v -6.1817384 6.2169113 -0.6562745
v -6.325747 6.3113513 -0.41503817
v -6.3901925 6.1056724 -0.50316834
v -6.1817384 6.5115967 -0.25067446
v -6.325747 6.4116454 -0.21819845
v -6.3901925 6.2432675 -0.3655732
v -6.1817384 5.4894247 -0.7714968
v -6.325747 5.325061 -0.5712509
v -6.1817384 5.2632885 -0.6562743
v -6.325747 5.5219016 -0.67154586
v -6.3901925 5.374526 -0.5031682
v -6.1817384 5.7401 -0.8111997
v -6.325747 5.7401 -0.7061051
v -6.3901925 5.5479064 -0.59150976
v -6.1817384 5.9907737 -0.7714968
v -6.325747 5.958298 -0.67154586
v -6.3901925 5.7401 -0.62195015
v -6.1817384 6.2169113 -0.6562745
v -6.325747 6.155138 -0.5712511
v -6.3901925 5.9322925 -0.5915098
v -6.1817384 5.083825 0.4768112
v -6.325747 5.3250623 0.571251
v -6.1817384 5.2632885 0.6562743
v -6.325747 5.168849 0.41503814
v -6.3901925 5.374526 0.50316834
v -6.1817384 4.968603 0.25067458
v -6.325747 5.0685534 0.21819852
v -6.3901925 5.236931 0.3655732
v -6.1817384 4.9289 9.5464124E-08
v -6.325747 5.033994 7.901557E-08
v -6.3901925 5.14859 0.19219325
v -6.1817384 4.968603 -0.25067437
v -6.325747 5.0685534 -0.21819836
v -6.3901925 5.118149 8.9885965E-08
v -6.1817384 5.083825 -0.47681105
v -6.325747 5.168849 -0.41503802
v -6.3901925 5.14859 -0.19219309
v -6.1817384 5.2632885 -0.6562743
v -6.325747 5.325061 -0.5712509
v -6.3901925 5.236931 -0.36557308
v -6.1817384 5.9907737 0.7714967
v -6.325747 6.155138 0.5712509
v -6.1817384 6.2169104 0.65627426
v -6.325747 5.958298 0.6715457
v -6.3901925 6.1056724 0.5031682
v -6.1817384 5.7401 0.8111996
v -6.325747 5.7401 0.70610505
v -6.3901925 5.9322925 0.59150976
v -6.1817384 5.4894247 0.7714968
v -6.325747 5.5219016 0.6715458
v -6.3901925 5.7401 0.62195015
v -6.1817384 5.2632885 0.6562743
v -6.325747 5.3250623 0.571251
v -6.3901925 5.5479064 0.59150976
v -6.1817384 6.5512986 9.5464124E-08
v -6.325747 6.4116454 -0.21819845
v -6.1817384 6.5115967 -0.25067446
v -6.325747 6.4462047 7.901557E-08
v -6.3901925 6.33161 -0.19219314
v -6.1817384 6.5115967 0.25067452
v -6.325747 6.4116454 0.21819846
v -6.3901925 6.3620496 8.9885965E-08
v -6.1817384 6.396374 0.47681117
v -6.325747 6.31135 0.4150381
v -6.3901925 6.331609 0.19219323
v -6.1817384 6.2169104 0.65627426
v -6.325747 6.155138 0.5712509
v -6.3901925 6.2432675 0.36557314
v -6.3901925 6.33161 -0.19219314
v -6.331516 6.2542453 -0.16705602
v -6.331516 6.1774583 -0.3177595
v -6.3901925 6.2432675 -0.3655732
v -6.331516 6.057859 -0.43735853
v -6.3901925 6.1056724 -0.50316834
v -6.3901925 6.1056724 -0.50316834
v -6.331516 6.057859 -0.43735853
v -6.331516 5.9071555 -0.51414585
v -6.3901925 5.9322925 -0.5915098
v -6.331516 5.7401 -0.5406048
v -6.3901925 5.7401 -0.62195015
v -6.331516 5.573043 -0.51414585
v -6.3901925 5.5479064 -0.59150976
v -6.331516 5.42234 -0.43735847
v -6.3901925 5.374526 -0.5031682
v -6.3901925 5.374526 -0.5031682
v -6.331516 5.42234 -0.43735847
v -6.331516 5.3027415 -0.3177593
v -6.3901925 5.236931 -0.36557308
v -6.331516 5.225953 -0.16705595
v -6.3901925 5.14859 -0.19219309
v -6.331516 5.1994944 1.17457546E-07
v -6.3901925 5.118149 8.9885965E-08
v -6.331516 5.225953 0.16705616
v -6.3901925 5.14859 0.19219325
v -6.331516 5.3027415 0.31775966
v -6.3901925 5.236931 0.3655732
v -6.331516 5.42234 0.4373586
v -6.3901925 5.374526 0.50316834
v -6.3901925 5.374526 0.50316834
v -6.331516 5.42234 0.4373586
v -6.331516 5.573043 0.51414585
v -6.3901925 5.5479064 0.59150976
v -6.331516 5.7401 0.5406049
v -6.3901925 5.7401 0.62195015
v -6.331516 5.9071555 0.51414585
v -6.3901925 5.9322925 0.59150976
v -6.331516 6.057859 0.4373586
v -6.3901925 6.1056724 0.5031682
v -6.3901925 6.1056724 0.5031682
v -6.331516 6.057859 0.4373586
v -6.331516 6.1774583 0.31775963
v -6.3901925 6.2432675 0.36557314
v -6.331516 6.2542453 0.16705614
v -6.3901925 6.331609 0.19219323
v -6.331516 6.280704 1.17457546E-07
v -6.3901925 6.3620496 8.9885965E-08
v -6.331516 6.2542453 -0.16705602
v -6.3901925 6.33161 -0.19219314
vt 1.0000001 0.4540425
vt 0 0.4352079
vt 0.050000012 0.4352079
vt 0.9500001 0.4540425
vt 0.099999994 0.4352079
vt 0.9000001 0.4540425
vt 0.099999994 0.4352079
vt 0.15 0.4352079
vt 0.85000014 0.4540425
vt 0.19999999 0.4352079
vt 0.80000013 0.4540425
vt 0.25 0.4352079
vt 0.7500001 0.4540425
vt 0.3 0.4352079
vt 0.7000001 0.4540425
vt 0.3 0.4352079
vt 0.35000002 0.4352079
vt 0.6500001 0.4540425
vt 0.40000004 0.4352079
vt 0.6000001 0.4540425
vt 0.45000005 0.4352079
vt 0.5500001 0.4540425
vt 0.50000006 0.4352079
vt 0.50000006 0.4540425
vt 0.5500001 0.4352079
vt 0.45000005 0.4540425
vt 0.6000001 0.4352079
vt 0.40000004 0.4540425
vt 0.6000001 0.4352079
vt 0.6500001 0.4352079
vt 0.35000002 0.4540425
vt 0.7000001 0.4352079
vt 0.3 0.4540425
vt 0.7500001 0.4352079
vt 0.25 0.4540425
vt 0.80000013 0.4352079
vt 0.19999999 0.4540425
vt 0.80000013 0.4352079
vt 0.85000014 0.4352079
vt 0.14999998 0.4540425
vt 0.90000015 0.4352079
vt 0.099999964 0.4540425
vt 0.95000017 0.4352079
vt 0.049999952 0.4540425
vt 1.0000001 0.4352079
vt 1.11771 0.46903634
vt 1.0023466 0.4354488
vt 1.0023466 0.46903634
vt 1.11771 0.4354488
vt 1.2330737 0.46903634
vt 1.2330737 0.4354488
vt 1.3484371 0.46903634
vt 1.3484371 0.4354488
vt 1.4638008 0.46903634
vt 1.4638008 0.4354488
vt 1.11771 0.4354488
vt 1.0023466 0.4692722
vt 1.0023466 0.4354488
vt 1.11771 0.4692722
vt 1.2330737 0.4354488
vt 1.2330737 0.4692722
vt 1.3484371 0.4354488
vt 1.3484371 0.4692722
vt 1.4638008 0.4354488
vt 1.4638008 0.4692722
vt 1.11771 0.46903634
vt 1.0023466 0.4354488
vt 1.0023466 0.46903634
vt 1.11771 0.4354488
vt 1.2330737 0.46903634
vt 1.2330737 0.4354488
vt 1.3484371 0.46903634
vt 1.3484371 0.4354488
vt 1.4638008 0.46903634
vt 1.4638008 0.4354488
vt 1.11771 0.4354488
vt 1.0023466 0.4692722
vt 1.0023466 0.4354488
vt 1.11771 0.4692722
vt 1.2330737 0.4354488
vt 1.2330737 0.4692722
vt 1.3484371 0.4354488
vt 1.3484371 0.4692722
vt 1.4638008 0.4354488
vt 1.4638008 0.4692722
vt 0.9500001 0.48794413
vt 0.9000001 0.4540425
vt 0.9000001 0.48794413
vt 0.9500001 0.4540425
vt 0.099999994 0.4352079
vt 1.0000001 0.48794413
vt 1.0000001 0.4540425
vt 0.050000012 0.4352079
vt 0.7500001 0.48794413
vt 0.7000001 0.4540425
vt 0.7000001 0.48794413
vt 0.7500001 0.4540425
vt 0.3 0.4352079
vt 0.80000013 0.48794413
vt 0.80000013 0.4540425
vt 0.25 0.4352079
vt 0.85000014 0.48794413
vt 0.85000014 0.4540425
vt 0.19999999 0.4352079
vt 0.9000001 0.48794413
vt 0.9000001 0.4540425
vt 0.15 0.4352079
vt 0.45000005 0.48794413
vt 0.40000004 0.4540425
vt 0.40000004 0.48794413
vt 0.45000005 0.4540425
vt 0.6000001 0.4352079
vt 0.50000006 0.48794413
vt 0.50000006 0.4540425
vt 0.5500001 0.4352079
vt 0.5500001 0.48794413
vt 0.5500001 0.4540425
vt 0.50000006 0.4352079
vt 0.6000001 0.48794413
vt 0.6000001 0.4540425
vt 0.45000005 0.4352079
vt 0.6500001 0.48794413
vt 0.6500001 0.4540425
vt 0.40000004 0.4352079
vt 0.7000001 0.48794413
vt 0.7000001 0.4540425
vt 0.35000002 0.4352079
vt 0.25 0.48794413
vt 0.19999999 0.4540425
vt 0.19999999 0.48794413
vt 0.25 0.4540425
vt 0.80000013 0.4352079
vt 0.3 0.48794413
vt 0.3 0.4540425
vt 0.7500001 0.4352079
vt 0.35000002 0.48794413
vt 0.35000002 0.4540425
vt 0.7000001 0.4352079
vt 0.40000004 0.48794413
vt 0.40000004 0.4540425
vt 0.6500001 0.4352079
vt 0.049999952 0.48794413
vt 0 0.4540425
vt 0 0.48794413
vt 0.049999952 0.4540425
vt 1.0000001 0.4352079
vt 0.099999964 0.48794413
vt 0.099999964 0.4540425
vt 0.95000017 0.4352079
vt 0.14999998 0.48794413
vt 0.14999998 0.4540425
vt 0.90000015 0.4352079
vt 0.19999999 0.48794413
vt 0.19999999 0.4540425
vt 0.85000014 0.4352079
vt 0 0.4352079
vt 0 0.46910954
vt 0.050000012 0.46910954
vt 0.050000012 0.4352079
vt 0.099999994 0.46910954
vt 0.099999994 0.4352079
vt 0.099999994 0.4352079
vt 0.099999994 0.46910954
vt 0.15 0.46910954
vt 0.15 0.4352079
vt 0.19999999 0.46910954
vt 0.19999999 0.4352079
vt 0.25 0.46910954
vt 0.25 0.4352079
vt 0.3 0.46910954
vt 0.3 0.4352079
vt 0.3 0.4352079
vt 0.3 0.46910954
vt 0.35000002 0.46910954
vt 0.35000002 0.4352079
vt 0.40000004 0.46910954
vt 0.40000004 0.4352079
vt 0.45000005 0.46910954
vt 0.45000005 0.4352079
vt 0.50000006 0.46910954
vt 0.50000006 0.4352079
vt 0.5500001 0.46910954
vt 0.5500001 0.4352079
vt 0.6000001 0.46910954
vt 0.6000001 0.4352079
vt 0.6000001 0.4352079
vt 0.6000001 0.46910954
vt 0.6500001 0.46910954
vt 0.6500001 0.4352079
vt 0.7000001 0.46910954
vt 0.7000001 0.4352079
vt 0.7500001 0.46910954
vt 0.7500001 0.4352079
vt 0.80000013 0.46910954
vt 0.80000013 0.4352079
vt 0.80000013 0.4352079
vt 0.80000013 0.46910954
vt 0.85000014 0.46910954
vt 0.85000014 0.4352079
vt 0.90000015 0.46910954
vt 0.90000015 0.4352079
vt 0.95000017 0.46910954
vt 0.95000017 0.4352079
vt 1.0000001 0.46910954
vt 1.0000001 0.4352079
vn -0.65899014 0.715339 -0.23242664
vn -0.7939392 0.5782398 -0.18788116
vn -0.7939403 0.49187768 -0.3573726
vn -0.65899014 0.6085031 -0.44210392
vn -0.7939394 0.35737112 -0.49188018
vn -0.65899014 0.44210368 -0.6085032
vn -0.7939394 0.35737112 -0.49188018
vn -0.79393864 0.18788287 -0.5782399
vn -0.65898985 0.23242849 -0.7153387
vn -0.793939 0 -0.6079974
vn -0.6589895 -4.0117908E-07 -0.7521521
vn -0.79393804 -0.18788318 -0.57824063
vn -0.65898967 -0.23242702 -0.7153393
vn -0.79393786 -0.3573729 -0.49188125
vn -0.65898967 -0.44210395 -0.60850364
vn -0.79393786 -0.3573729 -0.49188125
vn -0.79393756 -0.49188277 -0.35737166
vn -0.65898883 -0.60850495 -0.44210342
vn -0.79393786 -0.5782412 -0.18788202
vn -0.65898895 -0.7153394 -0.23242858
vn -0.7939398 -0.6079963 0
vn -0.6589894 -0.75215214 0
vn -0.79393893 -0.57823974 0.18788226
vn -0.6589891 -0.7153393 0.23242858
vn -0.79393744 -0.4918817 0.35737342
vn -0.6589893 -0.60850346 0.44210473
vn -0.79393715 -0.35737258 0.49188286
vn -0.65898967 -0.4421037 0.6085039
vn -0.79393715 -0.35737258 0.49188286
vn -0.79393756 -0.1878826 0.5782414
vn -0.6589896 -0.2324274 0.7153392
vn -0.7939386 1.1328253E-06 0.60799795
vn -0.6589894 7.4232406E-07 0.75215214
vn -0.79393834 0.18788293 0.5782403
vn -0.65898913 0.23242944 0.715339
vn -0.79393834 0.35737324 0.49188042
vn -0.6589894 0.44210464 0.60850346
vn -0.79393834 0.35737324 0.49188042
vn -0.79393774 0.4918825 0.35737145
vn -0.65899074 0.6085025 0.4421041
vn -0.7939392 0.5782397 0.1878817
vn -0.6589908 0.71533823 0.2324273
vn -0.7939389 0.6079976 1.3604214E-06
vn -0.6589896 0.752152 4.0022607E-07
vn -0.7939392 0.5782398 -0.18788116
vn -0.60820335 0.11588673 0.7852763
vn -0.5863391 0.20314398 0.78418046
vn -0.5863392 0.203144 0.7841804
vn -0.6030273 0.13851696 0.78560245
vn -0.6188823 0 0.78548366
vn -0.6188823 0 0.78548366
vn -0.60820365 -0.115886465 0.78527606
vn -0.6030276 -0.13851675 0.7856022
vn -0.58633965 -0.20314418 0.7841799
vn -0.58633965 -0.20314418 0.78418
vn -0.6030277 0.13851744 -0.78560203
vn -0.58633965 0.2031442 -0.78418
vn -0.5863396 0.2031442 -0.78418
vn -0.60820377 0.11588736 -0.78527594
vn -0.6188823 0 -0.78548366
vn -0.6188823 0 -0.78548366
vn -0.60302746 -0.13851713 -0.78560233
vn -0.60820335 -0.11588696 -0.7852763
vn -0.58633965 -0.20314422 -0.7841801
vn -0.58633965 -0.2031442 -0.78418
vn -0.6082065 0.78527385 -0.115886666
vn -0.58634126 0.78417885 -0.20314428
vn -0.5863412 0.78417885 -0.20314428
vn -0.60303 0.7856003 -0.1385172
vn -0.6188853 0.78548145 -5.1684896E-07
vn -0.6188853 0.78548145 -5.053021E-07
vn -0.6082052 0.78527504 0.115886234
vn -0.6030287 0.7856014 0.13851707
vn -0.5863398 0.7841796 0.20314506
vn -0.58633983 0.7841796 0.20314506
vn -0.6030295 -0.78560066 -0.13851683
vn -0.5863401 -0.7841798 -0.20314386
vn -0.58634007 -0.7841797 -0.20314382
vn -0.60820615 -0.78527415 -0.11588638
vn -0.6188844 -0.7854821 0
vn -0.6188844 -0.78548205 0
vn -0.60302615 -0.7856034 0.13851602
vn -0.60820293 -0.78527683 0.11588569
vn -0.5863366 -0.7841827 0.2031427
vn -0.5863366 -0.7841827 0.2031427
vn -0.5894952 0.65350115 -0.4747965
vn -0.65899014 0.44210368 -0.6085032
vn -0.5894955 0.4747969 -0.65350056
vn -0.65899014 0.6085031 -0.44210392
vn -0.7939394 0.35737112 -0.49188018
vn -0.5894955 0.76823694 -0.2496138
vn -0.65899014 0.715339 -0.23242664
vn -0.7939403 0.49187768 -0.3573726
vn -0.5894954 -0.24961446 -0.7682367
vn -0.65898967 -0.44210395 -0.60850364
vn -0.5894958 -0.47479573 -0.65350115
vn -0.65898967 -0.23242702 -0.7153393
vn -0.79393786 -0.3573729 -0.49188125
vn -0.5894948 -5.988258E-07 -0.80777216
vn -0.6589895 -4.0117908E-07 -0.7521521
vn -0.79393804 -0.18788318 -0.57824063
vn -0.58949554 0.24961518 -0.76823646
vn -0.65898985 0.23242849 -0.7153387
vn -0.793939 0 -0.6079974
vn -0.5894955 0.4747969 -0.65350056
vn -0.65899014 0.44210368 -0.6085032
vn -0.79393864 0.18788287 -0.5782399
vn -0.5894958 -0.65350026 0.47479686
vn -0.65898967 -0.4421037 0.6085039
vn -0.58949643 -0.47479656 0.6534999
vn -0.6589893 -0.60850346 0.44210473
vn -0.79393715 -0.35737258 0.49188286
vn -0.5894942 -0.7682371 0.24961622
vn -0.6589891 -0.7153393 0.23242858
vn -0.79393744 -0.4918817 0.35737342
vn -0.5894943 -0.8077725 0
vn -0.6589894 -0.75215214 0
vn -0.79393893 -0.57823974 0.18788226
vn -0.58949465 -0.7682368 -0.2496164
vn -0.65898895 -0.7153394 -0.23242858
vn -0.7939398 -0.6079963 0
vn -0.5894945 -0.6535022 -0.4747959
vn -0.65898883 -0.60850495 -0.44210342
vn -0.79393786 -0.5782412 -0.18788202
vn -0.5894958 -0.47479573 -0.65350115
vn -0.65898967 -0.44210395 -0.60850364
vn -0.79393756 -0.49188277 -0.35737166
vn -0.5894946 0.24961637 0.7682368
vn -0.6589894 0.44210464 0.60850346
vn -0.5894952 0.47479647 0.65350115
vn -0.65898913 0.23242944 0.715339
vn -0.79393834 0.35737324 0.49188042
vn -0.58949524 5.3709107E-07 0.8077719
vn -0.6589894 7.4232406E-07 0.75215214
vn -0.79393834 0.18788293 0.5782403
vn -0.5894961 -0.24961524 0.76823604
vn -0.6589896 -0.2324274 0.7153392
vn -0.7939386 1.1328253E-06 0.60799795
vn -0.58949643 -0.47479656 0.6534999
vn -0.65898967 -0.4421037 0.6085039
vn -0.79393756 -0.1878826 0.5782414
vn -0.58949476 0.80777216 0
vn -0.65899014 0.715339 -0.23242664
vn -0.5894955 0.76823694 -0.2496138
vn -0.6589896 0.752152 4.0022607E-07
vn -0.7939392 0.5782398 -0.18788116
vn -0.5894966 0.76823574 0.2496147
vn -0.6589908 0.71533823 0.2324273
vn -0.7939389 0.6079976 1.3604214E-06
vn -0.5894973 0.65349907 0.47479662
vn -0.65899074 0.6085025 0.4421041
vn -0.7939392 0.5782397 0.1878817
vn -0.5894952 0.47479647 0.65350115
vn -0.6589894 0.44210464 0.60850346
vn -0.79393774 0.4918825 0.35737145
vn -0.8110228 -0.5563823 0.18077809
vn -0.8110228 -0.5563823 0.18077812
vn -0.811022 -0.47328806 0.34386292
vn -0.811022 -0.47328797 0.34386316
vn -0.81102216 -0.34386474 0.47328657
vn -0.81102216 -0.3438649 0.47328642
vn -0.81102216 -0.3438649 0.47328642
vn -0.81102216 -0.34386474 0.47328657
vn -0.8110228 -0.18078037 0.55638146
vn -0.8110228 -0.18077998 0.5563816
vn -0.81102264 0 0.58501476
vn -0.81102264 0 0.58501476
vn -0.81102264 0.18077849 0.55638254
vn -0.81102264 0.18077813 0.55638266
vn -0.81102353 0.34386298 0.47328538
vn -0.81102353 0.343863 0.47328532
vn -0.81102353 0.343863 0.47328532
vn -0.81102353 0.34386298 0.47328538
vn -0.8110233 0.4732866 0.34386194
vn -0.8110233 0.47328678 0.34386164
vn -0.8110222 0.5563826 0.18077977
vn -0.8110222 0.55638254 0.18077998
vn -0.81102324 0.58501405 0
vn -0.81102324 0.585014 0
vn -0.8110234 0.55638075 -0.18078026
vn -0.8110235 0.5563806 -0.18078043
vn -0.811023 0.47328687 -0.34386215
vn -0.811023 0.47328725 -0.34386164
vn -0.81102324 0.34386316 -0.47328573
vn -0.81102324 0.34386328 -0.47328573
vn -0.81102324 0.34386328 -0.47328573
vn -0.81102324 0.34386316 -0.47328573
vn -0.8110223 0.18077855 -0.5563829
vn -0.8110223 0.1807782 -0.55638295
vn -0.8110223 0 -0.5850153
vn -0.8110223 0 -0.5850153
vn -0.81102264 -0.18077931 -0.5563823
vn -0.8110225 -0.18077889 -0.5563824
vn -0.8110218 -0.34386456 -0.47328722
vn -0.81102175 -0.34386477 -0.4732871
vn -0.81102175 -0.34386477 -0.4732871
vn -0.8110218 -0.34386456 -0.47328722
vn -0.81102055 -0.47329035 -0.34386298
vn -0.81102055 -0.47329018 -0.34386322
vn -0.8110215 -0.5563838 -0.18077919
vn -0.81102157 -0.5563837 -0.18077952
vn -0.81102324 -0.585014 -1.2687913E-06
vn -0.81102324 -0.58501405 -1.0743894E-06
vn -0.8110228 -0.5563823 0.18077812
vn -0.8110228 -0.5563823 0.18077809
g houseWindow01_0
f 3/3/3 2/2/2 1/1/1
f 5/5/5 3/3/3 4/4/4
f 8/8/8 7/7/7 6/6/6
f 10/10/10 8/8/8 9/9/9
f 12/12/12 10/10/10 11/11/11
f 14/14/14 12/12/12 13/13/13
f 17/17/17 16/16/16 15/15/15
f 19/19/19 17/17/17 18/18/18
f 21/21/21 19/19/19 20/20/20
f 23/23/23 21/21/21 22/22/22
f 25/25/25 23/23/23 24/24/24
f 27/27/27 25/25/25 26/26/26
f 30/30/30 29/29/29 28/28/28
f 32/32/32 30/30/30 31/31/31
f 34/34/34 32/32/32 33/33/33
f 36/36/36 34/34/34 35/35/35
f 39/39/39 38/38/38 37/37/37
f 41/41/41 39/39/39 40/40/40
f 43/43/43 41/41/41 42/42/42
f 45/45/45 43/43/43 44/44/44
f 48/48/48 47/47/47 46/46/46
f 47/47/47 49/49/49 46/46/46
f 46/46/46 49/49/49 50/50/50
f 49/49/49 51/51/51 50/50/50
f 50/50/50 51/51/51 52/52/52
f 51/51/51 53/53/53 52/52/52
f 52/52/52 53/53/53 54/54/54
f 53/53/53 55/55/55 54/54/54
f 58/58/58 57/57/57 56/56/56
f 57/57/57 59/59/59 56/56/56
f 56/56/56 59/59/59 60/60/60
f 59/59/59 61/61/61 60/60/60
f 60/60/60 61/61/61 62/62/62
f 61/61/61 63/63/63 62/62/62
f 62/62/62 63/63/63 64/64/64
f 63/63/63 65/65/65 64/64/64
f 68/68/68 67/67/67 66/66/66
f 67/67/67 69/69/69 66/66/66
f 66/66/66 69/69/69 70/70/70
f 69/69/69 71/71/71 70/70/70
f 70/70/70 71/71/71 72/72/72
f 71/71/71 73/73/73 72/72/72
f 72/72/72 73/73/73 74/74/74
f 73/73/73 75/75/75 74/74/74
f 78/78/78 77/77/77 76/76/76
f 77/77/77 79/79/79 76/76/76
f 76/76/76 79/79/79 80/80/80
f 79/79/79 81/81/81 80/80/80
f 80/80/80 81/81/81 82/82/82
f 81/81/81 83/83/83 82/82/82
f 82/82/82 83/83/83 84/84/84
f 83/83/83 85/85/85 84/84/84
f 88/88/88 87/87/87 86/86/86
f 87/87/87 89/89/89 86/86/86
f 87/87/87 90/90/90 89/89/89
f 86/86/86 89/89/89 91/91/91
f 89/89/89 92/92/92 91/91/91
f 89/89/89 93/93/93 92/92/92
f 96/96/96 95/95/95 94/94/94
f 95/95/95 97/97/97 94/94/94
f 95/95/95 98/98/98 97/97/97
f 94/94/94 97/97/97 99/99/99
f 97/97/97 100/100/100 99/99/99
f 97/97/97 101/101/101 100/100/100
f 99/99/99 100/100/100 102/102/102
f 100/100/100 103/103/103 102/102/102
f 100/100/100 104/104/104 103/103/103
f 102/102/102 103/103/103 105/105/105
f 103/103/103 106/106/106 105/105/105
f 103/103/103 107/107/107 106/106/106
f 110/110/110 109/109/109 108/108/108
f 109/109/109 111/111/111 108/108/108
f 109/109/109 112/112/112 111/111/111
f 108/108/108 111/111/111 113/113/113
f 111/111/111 114/114/114 113/113/113
f 111/111/111 115/115/115 114/114/114
f 113/113/113 114/114/114 116/116/116
f 114/114/114 117/117/117 116/116/116
f 114/114/114 118/118/118 117/117/117
f 116/116/116 117/117/117 119/119/119
f 117/117/117 120/120/120 119/119/119
f 117/117/117 121/121/121 120/120/120
f 119/119/119 120/120/120 122/122/122
f 120/120/120 123/123/123 122/122/122
f 120/120/120 124/124/124 123/123/123
f 122/122/122 123/123/123 125/125/125
f 123/123/123 126/126/126 125/125/125
f 123/123/123 127/127/127 126/126/126
f 130/130/130 129/129/129 128/128/128
f 129/129/129 131/131/131 128/128/128
f 129/129/129 132/132/132 131/131/131
f 128/128/128 131/131/131 133/133/133
f 131/131/131 134/134/134 133/133/133
f 131/131/131 135/135/135 134/134/134
f 133/133/133 134/134/134 136/136/136
f 134/134/134 137/137/137 136/136/136
f 134/134/134 138/138/138 137/137/137
f 136/136/136 137/137/137 139/139/139
f 137/137/137 140/140/140 139/139/139
f 137/137/137 141/141/141 140/140/140
f 144/144/144 143/143/143 142/142/142
f 143/143/143 145/145/145 142/142/142
f 143/143/143 146/146/146 145/145/145
f 142/142/142 145/145/145 147/147/147
f 145/145/145 148/148/148 147/147/147
f 145/145/145 149/149/149 148/148/148
f 147/147/147 148/148/148 150/150/150
f 148/148/148 151/151/151 150/150/150
f 148/148/148 152/152/152 151/151/151
f 150/150/150 151/151/151 153/153/153
f 151/151/151 154/154/154 153/153/153
f 151/151/151 155/155/155 154/154/154
f 158/158/158 157/157/157 156/156/156
f 159/159/159 158/158/158 156/156/156
f 160/160/160 158/158/158 159/159/159
f 161/161/161 160/160/160 159/159/159
f 164/164/164 163/163/163 162/162/162
f 165/165/165 164/164/164 162/162/162
f 166/166/166 164/164/164 165/165/165
f 167/167/167 166/166/166 165/165/165
f 168/168/168 166/166/166 167/167/167
f 169/169/169 168/168/168 167/167/167
f 170/170/170 168/168/168 169/169/169
f 171/171/171 170/170/170 169/169/169
f 174/174/174 173/173/173 172/172/172
f 175/175/175 174/174/174 172/172/172
f 176/176/176 174/174/174 175/175/175
f 177/177/177 176/176/176 175/175/175
f 178/178/178 176/176/176 177/177/177
f 179/179/179 178/178/178 177/177/177
f 180/180/180 178/178/178 179/179/179
f 181/181/181 180/180/180 179/179/179
f 182/182/182 180/180/180 181/181/181
f 183/183/183 182/182/182 181/181/181
f 184/184/184 182/182/182 183/183/183
f 185/185/185 184/184/184 183/183/183
f 188/188/188 187/187/187 186/186/186
f 189/189/189 188/188/188 186/186/186
f 190/190/190 188/188/188 189/189/189
f 191/191/191 190/190/190 189/189/189
f 192/192/192 190/190/190 191/191/191
f 193/193/193 192/192/192 191/191/191
f 194/194/194 192/192/192 193/193/193
f 195/195/195 194/194/194 193/193/193
f 198/198/198 197/197/197 196/196/196
f 199/199/199 198/198/198 196/196/196
f 200/200/200 198/198/198 199/199/199
f 201/201/201 200/200/200 199/199/199
f 202/202/202 200/200/200 201/201/201
f 203/203/203 202/202/202 201/201/201
f 204/204/204 202/202/202 203/203/203
f 205/205/205 204/204/204 203/203/203
