g housekit_roof_flat_x1
v 0.005457535 0.35 -0.0009805298
v 0.005458069 0.35 1.7509805
v -0.038638 0.30590394 1.7950755
v -0.038638536 0.30590394 -0.045076597
v -0.038638536 0.30590394 -0.045076597
v -0.038638 0.30590394 1.7950755
v -0.038638 0.04409607 1.7950755
v -0.038638 0.04409607 -0.045075532
v -0.038638 0.04409607 -0.045075532
v -0.038638 0.04409607 1.7950755
v 0.005458069 0 1.7509805
v 0.005457535 0 -0.0009805298
v 1.754202 0.35 1.7509805
v 1.798298 0.30590394 1.7950766
v -0.038638 0.30590394 1.7950755
v 0.005458069 0.35 1.7509805
v 1.798298 0.30590394 1.7950766
v 1.7982975 0.04409607 1.7950755
v -0.038638 0.04409607 1.7950755
v -0.038638 0.30590394 1.7950755
v 1.7982975 0.04409607 1.7950755
v 1.754202 0 1.7509805
v 0.005458069 0 1.7509805
v -0.038638 0.04409607 1.7950755
v 1.754202 0.35 1.7509805
v 1.7542014 0.35 -0.0009805298
v 1.7982975 0.30590394 -0.045075532
v 1.798298 0.30590394 1.7950766
v 1.798298 0.30590394 1.7950766
v 1.7982975 0.30590394 -0.045075532
v 1.7982975 0.04409607 -0.045075532
v 1.7982975 0.04409607 1.7950755
v 1.7982975 0.04409607 1.7950755
v 1.7982975 0.04409607 -0.045075532
v 1.7542014 0 -0.0009805298
v 1.754202 0 1.7509805
v 0.005457535 0.35 -0.0009805298
v -0.038638536 0.30590394 -0.045076597
v 1.7982975 0.30590394 -0.045075532
v 1.7542014 0.35 -0.0009805298
v -0.038638536 0.30590394 -0.045076597
v -0.038638 0.04409607 -0.045075532
v 1.7982975 0.04409607 -0.045075532
v 1.7982975 0.30590394 -0.045075532
v -0.038638 0.04409607 -0.045075532
v 0.005457535 0 -0.0009805298
v 1.7542014 0 -0.0009805298
v 1.7982975 0.04409607 -0.045075532
v 1.7542014 0 -0.0009805298
v 0.005457535 0 -0.0009805298
v 0.005458069 0 1.7509805
v 1.754202 0 1.7509805
v 1.754202 0.35 1.7509805
v 0.005458069 0.35 1.7509805
v 0.005457535 0.35 -0.0009805298
v 1.7542014 0.35 -0.0009805298
vt 0.5092022 0.81442726
vt 0.5092022 0.987211
vt 0.52236694 0.9917959
vt 0.52236694 0.8098422
vt 0.5079693 0.80548733
vt 0.5079693 0.9011409
vt 0.52354795 0.9011409
vt 0.52354795 0.80548733
vt 0.52236694 0.9924672
vt 0.52236694 0.81051373
vt 0.50920206 0.8150986
vt 0.50920206 0.98788244
vt 0.5092022 0.98788226
vt 0.52236694 0.9924673
vt 0.52236694 0.8105136
vt 0.5092022 0.8150985
vt 0.5079693 0.9968222
vt 0.52354795 0.9968222
vt 0.52354795 0.9011686
vt 0.5079693 0.9011686
vt 0.52236694 0.8098423
vt 0.50920206 0.8144271
vt 0.50920206 0.9872109
vt 0.52236694 0.9917958
vt 0.5092022 0.81442726
vt 0.5092022 0.987211
vt 0.52236694 0.9917959
vt 0.52236694 0.8098422
vt 0.5079693 0.80548733
vt 0.5079693 0.9011409
vt 0.52354795 0.9011409
vt 0.52354795 0.80548733
vt 0.52236694 0.9924672
vt 0.52236694 0.81051373
vt 0.50920206 0.8150986
vt 0.50920206 0.98788244
vt 0.5092022 0.98788226
vt 0.52236694 0.9924673
vt 0.52236694 0.8105136
vt 0.5092022 0.8150985
vt 0.5079693 0.9968222
vt 0.52354795 0.9968222
vt 0.52354795 0.9011686
vt 0.5079693 0.9011686
vt 0.52236694 0.8098423
vt 0.50920206 0.8144271
vt 0.50920206 0.9872109
vt 0.52236694 0.9917958
vt 0.5375413 0.8133502
vt 0.53754133 0.961153
vt 0.685344 0.961153
vt 0.68534416 0.8133502
vt 0.53754133 0.8133502
vt 0.5375413 0.961153
vt 0.68534416 0.961153
vt 0.685344 0.8133502
vn -0.70711166 0.7071018 3.3377543E-07
vn -0.7071117 0.7071019 3.3377538E-07
vn -0.7071117 0.7071019 3.337754E-07
vn -0.70711166 0.7071018 3.3377535E-07
vn -1 0 0
vn -1 0 0
vn -1 0 0
vn -1 0 0
vn -0.7071116 -0.7071019 3.337754E-07
vn -0.70711166 -0.7071018 3.3377543E-07
vn -0.7071117 -0.7071019 3.3377538E-07
vn -0.70711166 -0.7071018 3.3377535E-07
vn -0 0.7070989 0.7071146
vn -0 0.7070989 0.7071146
vn -0 0.70709884 0.70711464
vn -0 0.7070989 0.70711464
vn -3.1093484E-07 -2.0398838E-06 1
vn -3.1093484E-07 -2.0398836E-06 1
vn -3.1093484E-07 -2.0398838E-06 1
vn -3.1093484E-07 -2.0398838E-06 1
vn -0 -0.7070987 0.7071148
vn -0 -0.70709866 0.7071148
vn -0 -0.70709866 0.7071149
vn -0 -0.7070987 0.7071148
vn 0.7071117 0.7071019 -3.3377538E-07
vn 0.7071117 0.70710176 -3.3377535E-07
vn 0.7071117 0.70710176 -3.3377532E-07
vn 0.7071117 0.70710176 -3.3377535E-07
vn 1 0 0
vn 1 0 0
vn 1 0 0
vn 1 0 0
vn 0.7071116 -0.7071019 -3.3377535E-07
vn 0.7071117 -0.7071019 -3.337754E-07
vn 0.70711166 -0.7071018 -3.3377535E-07
vn 0.70711166 -0.7071018 -3.3377535E-07
vn -0 0.7070989 -0.7071146
vn -0 0.70709884 -0.70711464
vn -0 0.7070989 -0.7071146
vn -0 0.7070989 -0.7071146
vn 3.1093484E-07 -2.0398827E-06 -1
vn 3.1093484E-07 -2.0398825E-06 -1
vn 3.1093484E-07 -2.0398827E-06 -1
vn 3.1093484E-07 -2.0398827E-06 -1
vn -0 -0.7070987 -0.7071148
vn -0 -0.70709866 -0.7071148
vn -0 -0.70709866 -0.7071149
vn -0 -0.7070987 -0.7071148
vn -0 -1 0
vn -0 -1 0
vn -0 -1 0
vn -0 -1 0
vn -0 1 0
vn -0 1 0
vn -0 1 0
vn -0 1 0
g housekit_roof_flat_x1_0
f 3/3/3 2/2/2 1/1/1
f 4/4/4 3/3/3 1/1/1
f 7/7/7 6/6/6 5/5/5
f 8/8/8 7/7/7 5/5/5
f 11/11/11 10/10/10 9/9/9
f 12/12/12 11/11/11 9/9/9
f 15/15/15 14/14/14 13/13/13
f 16/16/16 15/15/15 13/13/13
f 19/19/19 18/18/18 17/17/17
f 20/20/20 19/19/19 17/17/17
f 23/23/23 22/22/22 21/21/21
f 24/24/24 23/23/23 21/21/21
f 27/27/27 26/26/26 25/25/25
f 28/28/28 27/27/27 25/25/25
f 31/31/31 30/30/30 29/29/29
f 32/32/32 31/31/31 29/29/29
f 35/35/35 34/34/34 33/33/33
f 36/36/36 35/35/35 33/33/33
f 39/39/39 38/38/38 37/37/37
f 40/40/40 39/39/39 37/37/37
f 43/43/43 42/42/42 41/41/41
f 44/44/44 43/43/43 41/41/41
f 47/47/47 46/46/46 45/45/45
f 48/48/48 47/47/47 45/45/45
f 51/51/51 50/50/50 49/49/49
f 52/52/52 51/51/51 49/49/49
f 55/55/55 54/54/54 53/53/53
f 56/56/56 55/55/55 53/53/53
