g houseGlassDoor
v -0.98823303 2.727791 0.34085205
v -0.8984909 2.4515927 0.42603576
v -1.0691906 2.68654 0.34085205
v -0.8984909 2.742004 0.34085205
v -1.1334388 2.622295 0.34085205
v -0.80874866 2.727791 0.34085205
v -1.1746888 2.5413349 0.34085205
v -0.72779113 2.6865396 0.34085205
v -1.1889026 2.4515927 0.34085205
v -0.66354287 2.622295 0.34085205
v -1.1746888 2.3618503 0.34085205
v -0.622293 2.5413349 0.34085205
v -1.1334388 2.2808902 0.34085205
v -0.60807914 2.4515927 0.34085205
v -1.0691905 2.2166455 0.34085205
v -0.622293 2.3618503 0.34085205
v -0.98823303 2.1753938 0.34085205
v -0.66354287 2.2808902 0.34085205
v -0.8984909 2.161181 0.34085205
v -0.72779113 2.2166455 0.34085205
v -0.80874866 2.1753938 0.34085205
vt 0.43908647 0.88991535
vt 0.4999999 0.7024424
vt 0.38413557 0.8619157
vt 0.4999999 0.8995625
vt 0.34052643 0.8183087
vt 0.5609135 0.88991535
vt 0.31252742 0.7633562
vt 0.6158644 0.86191535
vt 0.3028797 0.7024424
vt 0.65947354 0.8183087
vt 0.31252742 0.64152896
vt 0.6874724 0.7633562
vt 0.34052643 0.58657616
vt 0.69712013 0.7024424
vt 0.38413572 0.54296947
vt 0.6874724 0.64152896
vt 0.43908647 0.5149695
vt 0.65947354 0.58657616
vt 0.4999999 0.50532234
vt 0.6158644 0.54296947
vt 0.5609135 0.5149695
vn -0.08697727 0.26768634 0.9595723
vn -0 0 1
vn -0.16543809 0.22770993 0.95957196
vn -0 0.28146258 0.9595722
vn -0.22770631 0.16543923 0.9595726
vn 0.08697735 0.26768553 0.95957255
vn -0.26768652 0.08697569 0.9595723
vn 0.165438 0.22770974 0.9595721
vn -0.28146225 0 0.9595723
vn 0.22770628 0.16543934 0.9595726
vn -0.26768652 -0.0869756 0.95957243
vn 0.26768655 0.08697554 0.95957243
vn -0.22770587 -0.16543947 0.95957273
vn 0.28146228 0 0.9595723
vn -0.16543815 -0.22770995 0.95957196
vn 0.26768693 -0.08697555 0.9595722
vn -0.0869774 -0.26768535 0.95957255
vn 0.22770588 -0.16543902 0.95957273
vn -0 -0.2814621 0.9595723
vn 0.165438 -0.22770974 0.9595721
vn 0.0869775 -0.26768592 0.95957243
g houseGlassDoor_0
f 3/3/3 2/2/2 1/1/1
f 1/1/1 2/2/2 4/4/4
f 5/5/5 2/2/2 3/3/3
f 4/4/4 2/2/2 6/6/6
f 7/7/7 2/2/2 5/5/5
f 6/6/6 2/2/2 8/8/8
f 9/9/9 2/2/2 7/7/7
f 8/8/8 2/2/2 10/10/10
f 11/11/11 2/2/2 9/9/9
f 10/10/10 2/2/2 12/12/12
f 13/13/13 2/2/2 11/11/11
f 12/12/12 2/2/2 14/14/14
f 15/15/15 2/2/2 13/13/13
f 14/14/14 2/2/2 16/16/16
f 17/17/17 2/2/2 15/15/15
f 16/16/16 2/2/2 18/18/18
f 19/19/19 2/2/2 17/17/17
f 18/18/18 2/2/2 20/20/20
f 21/21/21 2/2/2 19/19/19
f 20/20/20 2/2/2 21/21/21
