g houseGlasBack
v 7.8361807 3.318352 -3.690077
v 7.8657465 3.1823034 -3.6687546
v 7.946527 3.0827093 -3.6105
v 8.056877 3.046255 -3.5309224
v 8.056877 4.9136143 -3.5309224
v 7.8361807 4.641523 -3.690077
v 7.8657465 4.7775702 -3.668754
v 7.9465275 4.877163 -3.6104994
v 8.392395 4.9136057 -3.2889628
v 8.392395 3.0462554 -3.2889628
v 9.011444 3.0462554 -2.6014152
v 9.011444 4.9136057 -2.6014152
v 9.474067 3.0462554 -1.8001312
v 9.474067 4.9136057 -1.8001312
v 9.759981 3.0462554 -0.920174
v 9.759981 4.9136057 -0.920174
v 9.856691 3.0462554 -5.5432315E-07
v 9.856691 4.9136057 -5.5432315E-07
v 9.759979 3.0462554 0.9201734
v 9.759979 4.9136057 0.9201734
v 9.474062 3.0462554 1.8001306
v 9.474062 4.9136057 1.8001306
v 9.011442 3.0462554 2.6014132
v 9.011442 4.9136057 2.6014132
v 8.392394 3.0462554 3.28896
v 8.392394 4.9136057 3.28896
v 8.01195 4.9136143 3.5634701
v 8.01195 3.046255 3.5634701
v 7.7912955 4.641523 3.7226834
v 7.901623 4.877163 3.6430767
v 7.8208556 4.7775702 3.701352
v 7.7912955 3.318352 3.7226834
v 7.901623 3.0827093 3.6430767
v 7.820855 3.1823034 3.701352
vt 0.98643255 0.42865407
vt 0.9824261 0.4139824
vt 0.97146416 0.40324175
vt 0.9564699 0.39931053
vt 0.9564699 0.6006893
vt 0.98643255 0.57134676
vt 0.9824261 0.58601815
vt 0.97146404 0.5967583
vt 0.9146888 0.60068834
vt 0.9146888 0.39931053
vt 0.8116894 0.39931053
vt 0.8116894 0.60068834
vt 0.7094808 0.39931053
vt 0.7094808 0.60068834
vt 0.60519165 0.39931053
vt 0.60519165 0.60068834
vt 0.5030442 0.39931053
vt 0.5030442 0.60068834
vt 0.39948317 0.39931053
vt 0.39948317 0.60068834
vt 0.29695338 0.39931053
vt 0.29695338 0.60068834
vt 0.19360706 0.39931053
vt 0.19360706 0.60068834
vt 0.09090456 0.39931053
vt 0.09090456 0.60068834
vt 0.043503076 0.6006893
vt 0.043503076 0.39931053
vt 0.013567418 0.57134676
vt 0.028516471 0.5967583
vt 0.017567605 0.58601815
vt 0.013567418 0.42865407
vt 0.028516471 0.40324175
vt 0.017567545 0.4139824
vn 0.5849195 1.3892296E-07 -0.8110913
vn 0.58490986 -6.5949916E-06 -0.81109834
vn 0.5849098 -6.5949916E-06 -0.81109834
vn 0.5849195 1.3892347E-07 -0.81109136
vn 0.5849195 1.9718259E-07 -0.8110913
vn 0.5849196 1.9718328E-07 -0.8110913
vn 0.5849105 1.05519985E-05 -0.8110978
vn 0.5849105 1.05519985E-05 -0.8110979
vn 0.68182963 0 -0.73151106
vn 0.6818301 0 -0.7315105
vn 0.8090242 0 -0.58777535
vn 0.8090242 0 -0.58777535
vn 0.9135454 0 -0.4067367
vn 0.9135454 0 -0.4067367
vn 0.9781481 0 -0.20790903
vn 0.9781481 0 -0.20790903
vn 1 0 6.693546E-07
vn 1 0 6.693546E-07
vn 0.9781477 0 0.20791121
vn 0.9781477 0 0.20791121
vn 0.91354525 0 0.4067373
vn 0.91354525 0 0.4067373
vn 0.8090247 0 0.58777463
vn 0.8090247 0 0.58777463
vn 0.6787672 0 0.7343535
vn 0.6787668 0 0.7343538
vn 0.5851328 0 0.81093746
vn 0.58513284 0 0.81093746
vn 0.58513284 0 0.81093746
vn 0.58512646 3.2975422E-06 0.8109421
vn 0.5851264 3.2975422E-06 0.8109421
vn 0.5851329 0 0.81093746
vn 0.58512396 -5.276046E-06 0.8109439
vn 0.5851238 -5.2760447E-06 0.8109439
g houseGlasBack_0
f 3/3/3 2/2/2 1/1/1
f 4/4/4 3/3/3 1/1/1
f 4/4/4 1/1/1 5/5/5
f 1/1/1 6/6/6 5/5/5
f 6/6/6 7/7/7 5/5/5
f 7/7/7 8/8/8 5/5/5
f 4/4/4 5/5/5 9/9/9
f 9/9/9 10/10/10 4/4/4
f 11/11/11 10/10/10 9/9/9
f 12/12/12 11/11/11 9/9/9
f 11/11/11 12/12/12 13/13/13
f 12/12/12 14/14/14 13/13/13
f 13/13/13 14/14/14 15/15/15
f 14/14/14 16/16/16 15/15/15
f 15/15/15 16/16/16 17/17/17
f 16/16/16 18/18/18 17/17/17
f 17/17/17 18/18/18 19/19/19
f 18/18/18 20/20/20 19/19/19
f 21/21/21 19/19/19 20/20/20
f 22/22/22 21/21/21 20/20/20
f 21/21/21 22/22/22 23/23/23
f 22/22/22 24/24/24 23/23/23
f 23/23/23 24/24/24 25/25/25
f 24/24/24 26/26/26 25/25/25
f 25/25/25 26/26/26 27/27/27
f 27/27/27 28/28/28 25/25/25
f 27/27/27 29/29/29 28/28/28
f 27/27/27 30/30/30 29/29/29
f 30/30/30 31/31/31 29/29/29
f 29/29/29 32/32/32 28/28/28
f 33/33/33 28/28/28 32/32/32
f 34/34/34 33/33/33 32/32/32
