g houseGlassSide
v 7.8361807 1.3634177 -3.690077
v 7.8657465 1.2273694 -3.6687546
v 7.946527 1.1277751 -3.6105
v 8.056876 1.0913211 -3.5309224
v 8.056876 2.9586802 -3.5309224
v 7.8361807 2.6865883 -3.690077
v 7.8657465 2.8226357 -3.668754
v 7.9465275 2.9222286 -3.6104994
v 8.392395 2.9586716 -3.2889628
v 8.392395 1.0913215 -3.2889628
v 9.011444 1.0913215 -2.6014152
v 9.011444 2.9586716 -2.6014152
v 9.474067 1.0913215 -1.8001312
v 9.474067 2.9586716 -1.8001312
v 9.759981 1.0913215 -0.920174
v 9.759981 2.9586716 -0.920174
v 9.856691 1.0913215 -5.5432315E-07
v 9.856691 2.9586716 -5.5432315E-07
v 9.759979 1.0913215 0.9201734
v 9.759979 2.9586716 0.9201734
v 9.474062 1.0913215 1.8001306
v 9.474062 2.9586716 1.8001306
v 9.011442 1.0913215 2.6014132
v 9.011442 2.9586716 2.6014132
v 8.392394 1.0913215 3.28896
v 8.392394 2.9586716 3.28896
v 8.011949 2.9586804 3.5634701
v 8.011949 1.0913211 3.5634701
v 7.7912955 2.6865883 3.7226834
v 7.901623 2.922229 3.6430767
v 7.8208556 2.8226361 3.701352
v 7.7912955 1.3634177 3.7226834
v 7.901623 1.1277751 3.6430767
v 7.820855 1.2273694 3.701352
vt 0.9858266 0.42842713
vt 0.9818149 0.413709
vt 0.97083694 0.40293437
vt 0.95582914 0.39899063
vt 0.95582914 0.6010094
vt 0.9858266 0.5715733
vt 0.9818149 0.5862915
vt 0.97083694 0.59706575
vt 0.9103726 0.6010086
vt 0.9103726 0.39899063
vt 0.80862814 0.39899063
vt 0.80862814 0.6010086
vt 0.706807 0.39899063
vt 0.706807 0.6010086
vt 0.60494024 0.39899063
vt 0.60494024 0.6010086
vt 0.5030489 0.39899063
vt 0.5030489 0.6010086
vt 0.40115762 0.39899063
vt 0.40115762 0.6010086
vt 0.29929185 0.39899063
vt 0.29929185 0.6010086
vt 0.19747072 0.39899063
vt 0.19747072 0.6010086
vt 0.09572631 0.39899063
vt 0.09572631 0.6010086
vt 0.044148415 0.6010094
vt 0.044148415 0.39899063
vt 0.014173418 0.5715733
vt 0.02914533 0.59706616
vt 0.018180788 0.5862915
vt 0.014173418 0.42842713
vt 0.02914533 0.40293437
vt 0.018180788 0.413709
vn 0.58491945 0 -0.81109136
vn 0.58490694 -6.5950176E-06 -0.8111004
vn 0.58490694 -6.5950176E-06 -0.8111004
vn 0.5849195 0 -0.81109136
vn 0.5849195 0 -0.81109136
vn 0.5849195 0 -0.81109136
vn 0.5849117 1.0552022E-05 -0.811097
vn 0.5849117 1.0552023E-05 -0.811097
vn 0.6818297 0 -0.731511
vn 0.6818301 0 -0.7315105
vn 0.80902416 0 -0.58777535
vn 0.80902416 0 -0.58777535
vn 0.9135454 0 -0.4067368
vn 0.9135454 0 -0.4067368
vn 0.9781481 0 -0.207909
vn 0.9781481 0 -0.207909
vn 1 0 6.693547E-07
vn 1 0 6.693547E-07
vn 0.9781477 0 0.20791121
vn 0.9781477 0 0.20791121
vn 0.91354525 0 0.40673727
vn 0.91354525 0 0.40673727
vn 0.8090245 0 0.5877749
vn 0.8090245 0 0.5877749
vn 0.67876714 0 0.7343536
vn 0.6787667 0 0.734354
vn 0.585133 0 0.8109373
vn 0.585133 0 0.8109373
vn 0.585133 0 0.8109373
vn 0.5851277 6.595069E-07 0.81094116
vn 0.5851276 6.595069E-07 0.8109412
vn 0.58513296 0 0.8109374
vn 0.5851217 -5.2760724E-06 0.8109455
vn 0.58512163 -5.2760724E-06 0.8109455
g houseGlassSide_0
f 3/3/3 2/2/2 1/1/1
f 4/4/4 3/3/3 1/1/1
f 4/4/4 1/1/1 5/5/5
f 1/1/1 6/6/6 5/5/5
f 6/6/6 7/7/7 5/5/5
f 7/7/7 8/8/8 5/5/5
f 4/4/4 5/5/5 9/9/9
f 9/9/9 10/10/10 4/4/4
f 11/11/11 10/10/10 9/9/9
f 12/12/12 11/11/11 9/9/9
f 11/11/11 12/12/12 13/13/13
f 12/12/12 14/14/14 13/13/13
f 13/13/13 14/14/14 15/15/15
f 14/14/14 16/16/16 15/15/15
f 15/15/15 16/16/16 17/17/17
f 16/16/16 18/18/18 17/17/17
f 17/17/17 18/18/18 19/19/19
f 18/18/18 20/20/20 19/19/19
f 21/21/21 19/19/19 20/20/20
f 22/22/22 21/21/21 20/20/20
f 21/21/21 22/22/22 23/23/23
f 22/22/22 24/24/24 23/23/23
f 23/23/23 24/24/24 25/25/25
f 24/24/24 26/26/26 25/25/25
f 25/25/25 26/26/26 27/27/27
f 27/27/27 28/28/28 25/25/25
f 27/27/27 29/29/29 28/28/28
f 27/27/27 30/30/30 29/29/29
f 30/30/30 31/31/31 29/29/29
f 29/29/29 32/32/32 28/28/28
f 33/33/33 28/28/28 32/32/32
f 34/34/34 33/33/33 32/32/32
