g housekit_wall_x2
v 2.5809045 2.0137413 -0.13090447
v 2.5809045 1.9696456 -0.175
v 2.625 2.0137413 -0.175
v 1.75 3.2809045 -0.175
v 1.7940955 3.2809045 -0.13090447
v 1.7940955 3.325 -0.175
v 1.7940955 1.9696456 -0.175
v 1.7940955 2.0137413 -0.13090447
v 1.75 2.0137413 -0.175
v 2.5809045 3.2809045 -0.13090447
v 2.625 3.2809045 -0.175
v 2.5809045 3.325 -0.175
v 1.0279522 3.1639223 0.175
v 1.0720478 3.172048 0.13090433
v 1.0720478 3.1279526 0.17499986
v 2.4279523 3.1279526 0.17499986
v 2.4279523 3.172048 0.13090433
v 2.4720478 3.1639223 0.175
v 3.5 3.4559045 -0.175
v 3.5440955 1.75 -0.13090447
v 3.5440955 3.5 -0.13090447
v 3.5 1.75 -0.175
v 3.5440955 0 -0.13090447
v 3.5 0.044095535 -0.175
v 1.75 3.4559045 -0.175
v 3.5 3.4559045 -0.175
v 3.5440955 3.5 -0.13090447
v 1.75 3.5 -0.13090447
v 2.5809045 2.0137413 -0.13090447
v 2.5809045 3.2809045 -0.13090447
v 1.7940955 3.2809045 -0.13090447
v 1.7940955 2.0137413 -0.13090447
v 2.5809045 3.2809045 -0.13090447
v 2.5809045 3.325 -0.175
v 1.7940955 3.325 -0.175
v 1.7940955 3.2809045 -0.13090447
v 1.7940955 2.0137413 -0.13090447
v 1.7940955 3.2809045 -0.13090447
v 1.75 3.2809045 -0.175
v 1.75 2.0137413 -0.175
v 2.5809045 2.0137413 -0.13090447
v 1.7940955 2.0137413 -0.13090447
v 1.7940955 1.9696456 -0.175
v 2.5809045 1.9696456 -0.175
v 2.5809045 3.2809045 -0.13090447
v 2.5809045 2.0137413 -0.13090447
v 2.625 2.0137413 -0.175
v 2.625 3.2809045 -0.175
v -0.044095535 0 -0.13090447
v -0.044095535 0 0.13090447
v 1.75 0 0.13090447
v 1.75 0 -0.13090447
v 3.5440955 0 -0.13090447
v 3.5440955 0 0.13090447
v 6.67572E-08 0.044095535 0.175
v 1.75 0 0.13090447
v -0.044095535 0 0.13090447
v 1.75 0.044095535 0.175
v 3.5440955 0 0.13090447
v 3.5 0.044095535 0.175
v -0.044095535 0 0.13090447
v 3.33786E-08 1.75 0.175
v 6.67572E-08 0.044095535 0.175
v -0.044095535 1.75 0.13090447
v 3.33786E-08 3.4559045 0.175
v -0.044095434 3.5 0.13090447
v 3.5 0.044095535 0.175
v 3.5440955 1.75 0.13090447
v 3.5440955 0 0.13090447
v 3.5 1.75 0.175
v 3.5440955 3.5 0.13090447
v 3.5 3.4559045 0.175
v -0.044095434 3.5 0.13090447
v 1.0279522 3.5 0.13090447
v 1.0279522 3.4559045 0.175
v 3.33786E-08 3.4559045 0.175
v 6.67572E-08 0.044095535 -0.175
v -0.044095535 1.75 -0.13090447
v -0.044095535 0 -0.13090447
v 6.67572E-08 1.75 -0.175
v -0.044095434 3.5 -0.13090447
v 6.67572E-08 3.4559045 -0.175
v -0.044095535 0 -0.13090447
v 1.75 0 -0.13090447
v 1.75 0.044095535 -0.175
v 6.67572E-08 0.044095535 -0.175
v -0.044095535 1.75 -0.13090447
v -0.044095535 0 0.13090447
v -0.044095535 0 -0.13090447
v -0.044095535 1.75 0.13090447
v -0.044095434 3.5 -0.13090447
v -0.044095434 3.5 0.13090447
v 3.5440955 1.75 0.13090447
v 3.5440955 0 -0.13090447
v 3.5440955 0 0.13090447
v 3.5440955 1.75 -0.13090447
v 3.5440955 3.5 0.13090447
v 3.5440955 3.5 -0.13090447
v 3.5 1.75 -0.175
v 1.75 0.044095535 -0.175
v 3.5 0.044095535 -0.175
v 1.75 1.75 -0.175
v 6.67572E-08 1.75 -0.175
v 6.67572E-08 0.044095535 -0.175
v 3.33786E-08 1.75 0.175
v 1.75 0.044095535 0.175
v 6.67572E-08 0.044095535 0.175
v 1.75 1.75 0.175
v 3.5 0.044095535 0.175
v 3.5 1.75 0.175
v 1.0720478 3.5 0.08680879
v 2.4279523 3.5 0.08680879
v 2.4279523 3.4559045 0.13090447
v 1.0720478 3.4559045 0.13090447
v 2.4279523 3.5 0.08680879
v 2.4720478 3.5 0.13090447
v 2.4720478 3.4559045 0.175
v 2.4279523 3.4559045 0.13090447
v 1.0279522 3.5 0.13090447
v 1.0720478 3.5 0.08680879
v 1.0720478 3.4559045 0.13090447
v 1.0279522 3.4559045 0.175
v 2.4720478 3.5 0.13090447
v 3.5440955 3.5 0.13090447
v 3.5 3.4559045 0.175
v 2.4720478 3.4559045 0.175
v 1.75 0 -0.13090447
v 3.5440955 0 -0.13090447
v 3.5 0.044095535 -0.175
v 1.75 0.044095535 -0.175
v 1.0720478 3.1279526 0.17499986
v 1.0720478 3.172048 0.13090433
v 2.4279523 3.172048 0.13090433
v 2.4279523 3.1279526 0.17499986
v 1.0279522 3.1639223 0.175
v 1.0279522 3.4559045 0.175
v 1.0720478 3.4559045 0.13090447
v 1.0720478 3.172048 0.13090433
v 1.0720478 3.172048 0.13090433
v 1.0720478 3.4559045 0.13090447
v 2.4279523 3.4559045 0.13090447
v 2.4279523 3.172048 0.13090433
v 2.4279523 3.172048 0.13090433
v 2.4279523 3.4559045 0.13090447
v 2.4720478 3.4559045 0.175
v 2.4720478 3.1639223 0.175
v 3.33786E-08 3.4559045 0.175
v 1.0279522 3.4559045 0.175
v 1.0279522 3.1639223 0.175
v 3.33786E-08 1.75 0.175
v 1.0720478 3.1279526 0.17499986
v 1.75 1.75 0.175
v 2.4279523 3.1279526 0.17499986
v 3.5 1.75 0.175
v 2.4720478 3.1639223 0.175
v 3.5 3.4559045 0.175
v 2.4720478 3.4559045 0.175
v 2.4720478 3.5 0.13090447
v 3.5440955 3.5 -0.13090447
v 3.5440955 3.5 0.13090447
v 2.4279523 3.5 0.08680879
v 1.75 3.5 -0.13090447
v 1.0720478 3.5 0.08680879
v -0.044095434 3.5 -0.13090447
v 1.0279522 3.5 0.13090447
v -0.044095434 3.5 0.13090447
v 6.67572E-08 3.4559045 -0.175
v 1.75 3.4559045 -0.175
v 1.75 3.5 -0.13090447
v -0.044095434 3.5 -0.13090447
v 2.5809045 1.9696456 -0.175
v 3.5 1.75 -0.175
v 2.625 2.0137413 -0.175
v 1.7940955 1.9696456 -0.175
v 1.75 1.75 -0.175
v 3.5 3.4559045 -0.175
v 6.67572E-08 1.75 -0.175
v 1.75 2.0137413 -0.175
v 1.75 3.2809045 -0.175
v 6.67572E-08 3.4559045 -0.175
v 2.625 3.2809045 -0.175
v 2.5809045 3.325 -0.175
v 1.7940955 3.325 -0.175
v 1.75 3.4559045 -0.175
vt 0.5489817 0.48701775
vt 0.54705125 0.4921562
vt 0.54898167 0.4921562
vt 0.54855716 0.4921562
vt 0.54855716 0.48701775
vt 0.5466268 0.49215618
vt 0.6059592 0.49215618
vt 0.6040288 0.48701775
vt 0.6040288 0.4921562
vt 0.60445327 0.48701775
vt 0.60445315 0.4921562
vt 0.6063836 0.4921562
vt 0.76898044 0.49059105
vt 0.7670502 0.49059105
vt 0.7670502 0.49776393
vt 0.7076939 0.49776393
vt 0.7076939 0.49059105
vt 0.7057635 0.49059105
vt 0.6596752 0.49776393
vt 0.7343531 0.49059105
vt 0.6577448 0.49059105
vt 0.73435324 0.49776393
vt 0.81096154 0.49059108
vt 0.80903125 0.49776402
vt 0.53104174 0.49769843
vt 0.64056194 0.49769843
vt 0.643393 0.49093533
vt 0.53104174 0.49093533
vt 0.16706061 0.040690243
vt 0.029596567 0.040690243
vt 0.029596508 0.18464491
vt 0.16706067 0.18464491
vt 0.5590712 0.48701775
vt 0.5590712 0.4921562
vt 0.59351474 0.49215618
vt 0.5935147 0.48701775
vt 0.6040288 0.48701775
vt 0.54855716 0.48701775
vt 0.54855716 0.4921562
vt 0.6040288 0.4921562
vt 0.59393924 0.48701775
vt 0.55949575 0.48701775
vt 0.55949575 0.4921562
vt 0.5939392 0.4921562
vt 0.60445327 0.48701775
vt 0.5489817 0.48701775
vt 0.54898167 0.4921562
vt 0.60445315 0.4921562
vt 0.6823357 0.018857442
vt 0.6823358 0.00539477
vt 0.55272925 0.0053947866
vt 0.55272925 0.018857442
vt 0.42312282 0.018857421
vt 0.42312288 0.005394766
vt 0.8090312 0.49059096
vt 0.73435324 0.49776393
vt 0.81096154 0.49776402
vt 0.7343531 0.49059105
vt 0.6577448 0.49776393
vt 0.6596752 0.49059105
vt 0.6577448 0.49776393
vt 0.7343532 0.49059096
vt 0.6596752 0.49059105
vt 0.7343532 0.49776402
vt 0.8090312 0.49059096
vt 0.81096154 0.49776393
vt 0.6586904 0.49776402
vt 0.73336834 0.49059105
vt 0.65676004 0.49059096
vt 0.73336834 0.49776393
vt 0.8099767 0.49059102
vt 0.8080464 0.49776393
vt 0.8139804 0.49059105
vt 0.76898044 0.49059105
vt 0.76898044 0.49776393
vt 0.81205004 0.49776393
vt 0.8090312 0.49059096
vt 0.7343533 0.49776393
vt 0.81096154 0.49776402
vt 0.7343532 0.49059105
vt 0.6577448 0.49776393
vt 0.6596752 0.49059105
vt 0.41869044 0.4976984
vt 0.53104174 0.4976984
vt 0.53104174 0.4909353
vt 0.42152143 0.4909353
vt 0.7413488 0.018715234
vt 0.6117425 0.0052525373
vt 0.61174244 0.018715223
vt 0.7413488 0.0052525373
vt 0.87095535 0.018715242
vt 0.8709552 0.0052525494
vt 0.86022043 0.018575499
vt 0.730614 0.0051128436
vt 0.730614 0.018575499
vt 0.86022043 0.0051128436
vt 0.989827 0.018575506
vt 0.9898269 0.005112853
vt 0.21266077 0.22216216
vt 0.40467677 0.030145984
vt 0.21266077 0.030146215
vt 0.40467677 0.22216219
vt 0.59669274 0.22216222
vt 0.59669286 0.030145984
vt 0.6068236 0.22180162
vt 0.79883975 0.029785674
vt 0.6068236 0.02978554
vt 0.79883975 0.22180168
vt 0.99085593 0.029785674
vt 0.99085593 0.22180174
vt 0.25921562 0.5119463
vt 0.2592146 0.8396994
vt 0.2893872 0.83969975
vt 0.2893872 0.5119463
vt 0.7076939 0.49059105
vt 0.7057635 0.49059105
vt 0.7057635 0.49776393
vt 0.7076939 0.49776393
vt 0.76898044 0.49059105
vt 0.7670502 0.49059105
vt 0.7670502 0.49776393
vt 0.76898044 0.49776393
vt 0.7057635 0.49059105
vt 0.6607637 0.49059105
vt 0.66269404 0.49776393
vt 0.7057635 0.49776393
vt 0.53104174 0.4976984
vt 0.643393 0.4976984
vt 0.64056194 0.4909353
vt 0.53104174 0.4909353
vt 0.7670502 0.49776393
vt 0.7670502 0.49059105
vt 0.7076939 0.49059105
vt 0.7076939 0.49776393
vt 0.518028 0.49769837
vt 0.5367735 0.49769837
vt 0.5367735 0.49093533
vt 0.5185496 0.49093533
vt 0.36382717 0.5119467
vt 0.29521155 0.5119463
vt 0.29521155 0.83969975
vt 0.36382645 0.83969975
vt 0.5185496 0.4976983
vt 0.5367735 0.4976983
vt 0.5367735 0.49093533
vt 0.518028 0.49093533
vt 0.2119847 0.031119242
vt 0.32272726 0.031119183
vt 0.32272762 0.063984364
vt 0.2119847 0.22180162
vt 0.32769072 0.06803335
vt 0.40400082 0.22180168
vt 0.48031086 0.06803335
vt 0.596017 0.22180174
vt 0.48527396 0.063984364
vt 0.596017 0.031119183
vt 0.48527426 0.031119183
vt 0.30825502 0.018872743
vt 0.23212397 0.005410037
vt 0.23212397 0.018872723
vt 0.3115207 0.016605249
vt 0.36173046 0.0054100007
vt 0.41194025 0.016605249
vt 0.49133685 0.0054100296
vt 0.41520593 0.018872755
vt 0.49133685 0.01887273
vt 0.42152143 0.49769843
vt 0.53104174 0.49769843
vt 0.53104174 0.49093533
vt 0.41869044 0.49093533
vt 0.70509464 0.19805156
vt 0.60660523 0.22216216
vt 0.7001316 0.19308811
vt 0.79365766 0.19805156
vt 0.7986212 0.22216219
vt 0.6066052 0.030758768
vt 0.9906372 0.22216222
vt 0.7986212 0.19308805
vt 0.7986212 0.050456658
vt 0.9906373 0.030758709
vt 0.7001315 0.050456658
vt 0.70509464 0.04549326
vt 0.7936577 0.04549329
vt 0.7986212 0.03075865
vn -0.57735026 0.57735026 -0.57735026
vn -0.57735026 0.57735026 -0.57735026
vn -0.57735026 0.57735026 -0.57735026
vn 0.57735026 -0.57735026 -0.57735026
vn 0.57735026 -0.57735026 -0.57735026
vn 0.57735026 -0.57735026 -0.57735026
vn 0.57735026 0.57735026 -0.57735026
vn 0.57735026 0.57735026 -0.57735026
vn 0.57735026 0.57735026 -0.57735026
vn -0.57735026 -0.57735026 -0.57735026
vn -0.57735026 -0.57735026 -0.57735026
vn -0.57735026 -0.57735026 -0.57735026
vn 0.49964786 0.6125161 0.6125161
vn 0.49964783 0.6125161 0.6125161
vn 0.4996478 0.6125161 0.6125161
vn -0.4996478 0.6125161 0.6125161
vn -0.49964783 0.6125161 0.6125161
vn -0.49964786 0.6125161 0.6125161
vn 0.70710653 0 -0.707107
vn 0.70710653 0 -0.70710695
vn 0.7071066 0 -0.70710695
vn 0.70710653 0 -0.70710695
vn 0.7071066 0 -0.70710695
vn 0.70710653 0 -0.707107
vn -0 0.7071063 -0.70710725
vn -0 0.70710486 -0.7071086
vn -0 0.7071049 -0.7071086
vn -0 0.7071063 -0.70710725
vn -0 0 -1
vn -0 0 -1
vn -0 0 -1
vn -0 0 -1
vn -0 -0.70710653 -0.70710695
vn -0 -0.70710653 -0.70710695
vn -0 -0.70710653 -0.70710695
vn -0 -0.70710653 -0.70710695
vn 0.707106 0 -0.7071075
vn 0.707106 0 -0.7071075
vn 0.707106 0 -0.7071075
vn 0.707106 0 -0.7071075
vn -0 0.70710653 -0.70710695
vn -0 0.70710653 -0.70710695
vn -0 0.70710653 -0.70710695
vn -0 0.70710653 -0.70710695
vn -0.707106 0 -0.7071075
vn -0.707106 0 -0.7071075
vn -0.707106 0 -0.7071075
vn -0.707106 0 -0.7071075
vn -0 -1 0
vn -0 -1 0
vn -0 -1 0
vn -0 -1 0
vn -0 -1 0
vn -0 -1 0
vn -0 -0.70710665 0.7071069
vn -0 -0.7071067 0.7071068
vn -0 -0.7071067 0.7071068
vn -0 -0.7071067 0.7071068
vn -0 -0.70710677 0.70710677
vn -0 -0.70710677 0.70710677
vn -0.7071076 0 0.70710593
vn -0.7071078 0 0.7071057
vn -0.70710754 0 0.70710593
vn -0.7071078 0 0.7071057
vn -0.7071081 0 0.7071054
vn -0.70710814 0 0.7071054
vn 0.70710796 0 0.7071056
vn 0.707108 0 0.7071055
vn 0.70710796 0 0.7071056
vn 0.707108 0 0.7071055
vn 0.70710796 0 0.7071056
vn 0.70710796 0 0.7071056
vn -0 0.7071093 0.7071042
vn -0 0.7071093 0.7071042
vn -0 0.7071093 0.7071042
vn -0 0.7071093 0.7071042
vn -0.707106 0 -0.7071075
vn -0.70710623 0 -0.70710725
vn -0.70710605 0 -0.7071074
vn -0.70710623 0 -0.70710725
vn -0.7071064 0 -0.70710707
vn -0.7071064 0 -0.70710707
vn -0 -0.7071067 -0.7071068
vn -0 -0.7071067 -0.7071068
vn -0 -0.7071067 -0.7071068
vn -0 -0.70710665 -0.7071069
vn -1 0 0
vn -1 0 0
vn -1 0 0
vn -1 0 0
vn -1 0 0
vn -1 0 0
vn 1 0 0
vn 1 0 0
vn 1 0 0
vn 1 0 0
vn 1 0 0
vn 1 0 0
vn -0 0 -1
vn -0 0 -1
vn -0 0 -1
vn -0 0 -1
vn -0 0 -1
vn -0 0 -1
vn -0 0 1
vn -0 0 1
vn -0 0 1
vn -0 0 1
vn -0 0 1
vn -0 0 1
vn -0 0.7071079 0.70710564
vn -0 0.7071079 0.70710564
vn -0 0.7071079 0.70710564
vn -0 0.7071079 0.70710564
vn -0.57735026 0.5773489 0.5773516
vn -0.5773503 0.5773489 0.57735157
vn -0.57735026 0.5773489 0.5773516
vn -0.5773503 0.5773489 0.57735157
vn 0.57734936 0.57735074 0.57735074
vn 0.57734936 0.57735074 0.57735074
vn 0.57734936 0.57735074 0.57735074
vn 0.57734936 0.57735074 0.57735074
vn -0 0.70710707 0.7071064
vn -0 0.70710707 0.7071065
vn -0 0.70710707 0.7071065
vn -0 0.70710707 0.7071064
vn -0 -0.70710677 -0.70710677
vn -0 -0.70710677 -0.70710677
vn -0 -0.70710677 -0.70710677
vn -0 -0.70710677 -0.70710677
vn -0 0.70710677 0.70710677
vn -0 0.70710677 0.70710677
vn -0 0.70710677 0.70710677
vn -0 0.70710677 0.70710677
vn 0.70710677 -2.6026504E-07 0.70710677
vn 0.70710677 -2.6026498E-07 0.70710677
vn 0.70710677 -2.60265E-07 0.70710677
vn 0.70710677 -2.60265E-07 0.70710677
vn -0 -4.703591E-07 1
vn -0 -4.703591E-07 1
vn -0 -4.703591E-07 1
vn -0 -4.703591E-07 1
vn -0.70710677 0 0.70710677
vn -0.70710677 0 0.70710677
vn -0.70710677 0 0.70710677
vn -0.70710677 0 0.70710677
vn -0 0 1
vn -0 0 1
vn -0 0 1
vn -0 0 1
vn -0 0 1
vn -0 0 1
vn -0 0 1
vn -0 0 1
vn -0 0 1
vn -0 0 1
vn -0 0 1
vn -0 1 0
vn -0 1 0
vn -0 1 0
vn -0 1 0
vn -0 1 0
vn -0 1 0
vn -0 1 0
vn -0 1 0
vn -0 1 0
vn -0 0.70710754 -0.70710593
vn -0 0.7071063 -0.70710725
vn -0 0.7071063 -0.70710725
vn -0 0.7071076 -0.70710593
vn -0 0 -1
vn -0 0 -1
vn -0 0 -1
vn -4.2100757E-07 0 -1
vn -0 0 -1
vn -0 0 -1
vn -4.2100757E-07 0 -1
vn -4.2100754E-07 0 -1
vn -0 0 -1
vn -0 0 -1
vn -0 0 -1
vn -0 0 -1
vn -0 0 -1
vn -0 0 -1
g housekit_wall_x2_0
f 3/3/3 2/2/2 1/1/1
f 6/6/6 5/5/5 4/4/4
f 9/9/9 8/8/8 7/7/7
f 12/12/12 11/11/11 10/10/10
f 15/15/15 14/14/14 13/13/13
f 18/18/18 17/17/17 16/16/16
f 21/21/21 20/20/20 19/19/19
f 20/20/20 22/22/22 19/19/19
f 22/22/22 20/20/20 23/23/23
f 24/24/24 22/22/22 23/23/23
f 27/27/27 26/26/26 25/25/25
f 28/28/28 27/27/27 25/25/25
f 31/31/31 30/30/30 29/29/29
f 32/32/32 31/31/31 29/29/29
f 35/35/35 34/34/34 33/33/33
f 36/36/36 35/35/35 33/33/33
f 39/39/39 38/38/38 37/37/37
f 40/40/40 39/39/39 37/37/37
f 43/43/43 42/42/42 41/41/41
f 44/44/44 43/43/43 41/41/41
f 47/47/47 46/46/46 45/45/45
f 48/48/48 47/47/47 45/45/45
f 51/51/51 50/50/50 49/49/49
f 52/52/52 51/51/51 49/49/49
f 52/52/52 53/53/53 51/51/51
f 53/53/53 54/54/54 51/51/51
f 57/57/57 56/56/56 55/55/55
f 56/56/56 58/58/58 55/55/55
f 56/56/56 59/59/59 58/58/58
f 59/59/59 60/60/60 58/58/58
f 63/63/63 62/62/62 61/61/61
f 62/62/62 64/64/64 61/61/61
f 64/64/64 62/62/62 65/65/65
f 66/66/66 64/64/64 65/65/65
f 69/69/69 68/68/68 67/67/67
f 68/68/68 70/70/70 67/67/67
f 70/70/70 68/68/68 71/71/71
f 72/72/72 70/70/70 71/71/71
f 75/75/75 74/74/74 73/73/73
f 76/76/76 75/75/75 73/73/73
f 79/79/79 78/78/78 77/77/77
f 78/78/78 80/80/80 77/77/77
f 80/80/80 78/78/78 81/81/81
f 82/82/82 80/80/80 81/81/81
f 85/85/85 84/84/84 83/83/83
f 86/86/86 85/85/85 83/83/83
f 89/89/89 88/88/88 87/87/87
f 88/88/88 90/90/90 87/87/87
f 91/91/91 87/87/87 90/90/90
f 92/92/92 91/91/91 90/90/90
f 95/95/95 94/94/94 93/93/93
f 94/94/94 96/96/96 93/93/93
f 97/97/97 93/93/93 96/96/96
f 98/98/98 97/97/97 96/96/96
f 101/101/101 100/100/100 99/99/99
f 100/100/100 102/102/102 99/99/99
f 102/102/102 100/100/100 103/103/103
f 100/100/100 104/104/104 103/103/103
f 107/107/107 106/106/106 105/105/105
f 106/106/106 108/108/108 105/105/105
f 106/106/106 109/109/109 108/108/108
f 109/109/109 110/110/110 108/108/108
f 113/113/113 112/112/112 111/111/111
f 114/114/114 113/113/113 111/111/111
f 117/117/117 116/116/116 115/115/115
f 118/118/118 117/117/117 115/115/115
f 121/121/121 120/120/120 119/119/119
f 122/122/122 121/121/121 119/119/119
f 125/125/125 124/124/124 123/123/123
f 126/126/126 125/125/125 123/123/123
f 129/129/129 128/128/128 127/127/127
f 130/130/130 129/129/129 127/127/127
f 133/133/133 132/132/132 131/131/131
f 134/134/134 133/133/133 131/131/131
f 137/137/137 136/136/136 135/135/135
f 138/138/138 137/137/137 135/135/135
f 141/141/141 140/140/140 139/139/139
f 142/142/142 141/141/141 139/139/139
f 145/145/145 144/144/144 143/143/143
f 146/146/146 145/145/145 143/143/143
f 149/149/149 148/148/148 147/147/147
f 150/150/150 149/149/149 147/147/147
f 150/150/150 151/151/151 149/149/149
f 150/150/150 152/152/152 151/151/151
f 153/153/153 151/151/151 152/152/152
f 153/153/153 152/152/152 154/154/154
f 153/153/153 154/154/154 155/155/155
f 154/154/154 156/156/156 155/155/155
f 156/156/156 157/157/157 155/155/155
f 160/160/160 159/159/159 158/158/158
f 158/158/158 159/159/159 161/161/161
f 161/161/161 159/159/159 162/162/162
f 161/161/161 162/162/162 163/163/163
f 162/162/162 164/164/164 163/163/163
f 163/163/163 164/164/164 165/165/165
f 165/165/165 164/164/164 166/166/166
f 169/169/169 168/168/168 167/167/167
f 170/170/170 169/169/169 167/167/167
f 173/173/173 172/172/172 171/171/171
f 171/171/171 172/172/172 174/174/174
f 172/172/172 175/175/175 174/174/174
f 172/172/172 173/173/173 176/176/176
f 175/175/175 177/177/177 174/174/174
f 177/177/177 178/178/178 174/174/174
f 179/179/179 178/178/178 177/177/177
f 180/180/180 179/179/179 177/177/177
f 173/173/173 181/181/181 176/176/176
f 182/182/182 176/176/176 181/181/181
f 179/179/179 180/180/180 183/183/183
f 176/176/176 182/182/182 183/183/183
f 180/180/180 184/184/184 183/183/183
f 184/184/184 176/176/176 183/183/183
