g housekit_roof_flat_x2
v -0.0015316772 0.35 -0.0015327453
v -0.045627747 0.30590394 1.75
v -0.045627747 0.30590394 -0.045628816
v -0.0015316772 0.35 1.75
v -0.045627747 0.30590394 3.5456283
v -0.0015316772 0.35 3.5015328
v -0.045627747 0.30590394 -0.045628816
v -0.045627747 0.04409607 1.75
v -0.045627747 0.04409607 -0.04562828
v -0.045627747 0.30590394 1.75
v -0.045627747 0.04409607 3.5456283
v -0.045627747 0.30590394 3.5456283
v -0.045627747 0.04409607 -0.04562828
v -0.0015316772 0 1.75
v -0.0015316772 0 -0.0015327453
v -0.045627747 0.04409607 1.75
v -0.0015316772 0 3.5015328
v -0.045627747 0.04409607 3.5456283
v 3.5080492 0.35 3.5015328
v 3.5521455 0.30590394 3.5456288
v 1.75 0.30590394 3.5456283
v 1.75 0.35 3.5015333
v -0.0015316772 0.35 3.5015328
v -0.045627747 0.30590394 3.5456283
v 3.5521455 0.30590394 3.5456288
v 3.5521455 0.04409607 3.5456283
v 1.75 0.04409607 3.5456283
v 1.75 0.30590394 3.5456283
v -0.045627747 0.30590394 3.5456283
v -0.045627747 0.04409607 3.5456283
v 3.5521455 0.04409607 3.5456283
v 3.5080492 0 3.5015328
v 1.75 0 3.5015333
v 1.75 0.04409607 3.5456283
v -0.045627747 0.04409607 3.5456283
v -0.0015316772 0 3.5015328
v 3.5080492 0.35 3.5015328
v 3.5521455 0.30590394 1.75
v 3.5521455 0.30590394 3.5456288
v 3.5080492 0.35 1.75
v 3.5521455 0.30590394 -0.04562828
v 3.5080492 0.35 -0.0015327453
v 3.5521455 0.30590394 3.5456288
v 3.5521455 0.04409607 1.75
v 3.5521455 0.04409607 3.5456283
v 3.5521455 0.30590394 1.75
v 3.5521455 0.04409607 -0.04562828
v 3.5521455 0.30590394 -0.04562828
v 3.5521455 0.04409607 3.5456283
v 3.5080492 0 1.75
v 3.5080492 0 3.5015328
v 3.5521455 0.04409607 1.75
v 3.5080492 0 -0.0015327453
v 3.5521455 0.04409607 -0.04562828
v -0.0015316772 0.35 -0.0015327453
v -0.045627747 0.30590394 -0.045628816
v 1.75 0.30590394 -0.04562828
v 1.75 0.35 -0.0015327453
v 3.5080492 0.35 -0.0015327453
v 3.5521455 0.30590394 -0.04562828
v -0.045627747 0.30590394 -0.045628816
v -0.045627747 0.04409607 -0.04562828
v 1.75 0.04409607 -0.04562828
v 1.75 0.30590394 -0.04562828
v 3.5521455 0.30590394 -0.04562828
v 3.5521455 0.04409607 -0.04562828
v -0.045627747 0.04409607 -0.04562828
v -0.0015316772 0 -0.0015327453
v 1.75 0 -0.0015327453
v 1.75 0.04409607 -0.04562828
v 3.5521455 0.04409607 -0.04562828
v 3.5080492 0 -0.0015327453
v 3.5080492 0 -0.0015327453
v 1.75 0 -0.0015327453
v 1.75 0 1.75
v 3.5080492 0 1.75
v 3.5080492 0.35 3.5015328
v 1.75 0.35 3.5015333
v 1.75 0.35 1.75
v 3.5080492 0.35 1.75
v -0.0015316772 0 1.75
v -0.0015316772 0 3.5015328
v 1.75 0 3.5015333
v 1.75 0 1.75
v -0.0015316772 0.35 1.75
v -0.0015316772 0.35 -0.0015327453
v 1.75 0.35 -0.0015327453
v 1.75 0.35 1.75
v 1.75 0 -0.0015327453
v -0.0015316772 0 -0.0015327453
v -0.0015316772 0 1.75
v 1.75 0 1.75
v 1.75 0.35 3.5015333
v -0.0015316772 0.35 3.5015328
v -0.0015316772 0.35 1.75
v 1.75 0.35 1.75
v 1.75 0 3.5015333
v 3.5080492 0 3.5015328
v 3.5080492 0 1.75
v 1.75 0 1.75
v 1.75 0.35 -0.0015327453
v 3.5080492 0.35 -0.0015327453
v 3.5080492 0.35 1.75
v 1.75 0.35 1.75
vt 0.5092022 0.81442726
vt 0.52236694 0.9015704
vt 0.52236694 0.8098422
vt 0.5092022 0.90157044
vt 0.52236694 0.9917959
vt 0.5092022 0.987211
vt 0.5079693 0.80548733
vt 0.523548 0.8537091
vt 0.52354795 0.80548733
vt 0.5079693 0.8537091
vt 0.52354795 0.9011409
vt 0.5079693 0.9011409
vt 0.52236694 0.9924672
vt 0.50920206 0.9007392
vt 0.50920206 0.98788244
vt 0.522367 0.9007392
vt 0.50920206 0.8150986
vt 0.52236694 0.81051373
vt 0.5092022 0.98788226
vt 0.52236694 0.9924673
vt 0.52236694 0.90266246
vt 0.5092021 0.9026624
vt 0.5092022 0.8150985
vt 0.52236694 0.8105136
vt 0.5079693 0.9968222
vt 0.52354795 0.9968222
vt 0.52354795 0.94961154
vt 0.5079693 0.9496115
vt 0.5079693 0.9011686
vt 0.52354795 0.9011686
vt 0.52236694 0.8098423
vt 0.50920206 0.8144271
vt 0.509202 0.899647
vt 0.52236694 0.899647
vt 0.52236694 0.9917958
vt 0.50920206 0.9872109
vt 0.5092022 0.81442726
vt 0.52236694 0.9000678
vt 0.52236694 0.8098422
vt 0.5092022 0.9000678
vt 0.52236694 0.9917959
vt 0.5092022 0.987211
vt 0.5079693 0.80548733
vt 0.52354795 0.8529192
vt 0.52354795 0.80548733
vt 0.5079693 0.8529192
vt 0.52354795 0.9011409
vt 0.5079693 0.9011409
vt 0.52236694 0.9924672
vt 0.50920206 0.9022418
vt 0.50920206 0.98788244
vt 0.52236694 0.9022418
vt 0.50920206 0.8150986
vt 0.52236694 0.81051373
vt 0.5092022 0.98788226
vt 0.52236694 0.9924673
vt 0.5223669 0.9003184
vt 0.5092022 0.9003183
vt 0.5092022 0.8150985
vt 0.52236694 0.8105136
vt 0.5079693 0.9968222
vt 0.52354795 0.9968222
vt 0.52354795 0.9483793
vt 0.50796926 0.9483792
vt 0.5079693 0.9011686
vt 0.52354795 0.9011686
vt 0.52236694 0.8098423
vt 0.50920206 0.8144271
vt 0.50920206 0.90199107
vt 0.52236694 0.901991
vt 0.52236694 0.9917958
vt 0.50920206 0.9872109
vt 0.5281653 0.9637581
vt 0.6790471 0.9637583
vt 0.6790471 0.8126237
vt 0.5326007 0.8126236
vt 0.5281653 0.9637581
vt 0.6790471 0.9637582
vt 0.67904717 0.81390893
vt 0.53260064 0.813909
vt 0.53150225 0.8139089
vt 0.5270668 0.963758
vt 0.67995375 0.96375805
vt 0.6799539 0.8139089
vt 0.53150225 0.81262356
vt 0.5270668 0.9637581
vt 0.6799539 0.9637581
vt 0.6799539 0.81262356
vt 0.5308362 0.81244355
vt 0.5264009 0.96393806
vt 0.67892796 0.96393806
vt 0.67892796 0.81244355
vt 0.5308362 0.8124437
vt 0.52640086 0.96393806
vt 0.67764264 0.96393806
vt 0.6776426 0.81244355
vt 0.5308363 0.81335014
vt 0.5264009 0.9628396
vt 0.67764264 0.9628396
vt 0.67764276 0.81335026
vt 0.5308363 0.8133502
vt 0.52640104 0.9628396
vt 0.6789281 0.9628396
vt 0.6789281 0.8133502
vn -0.7071039 0.70710963 0
vn -0.70710385 0.7071097 0
vn -0.7071039 0.70710963 0
vn -0.70710385 0.7071097 0
vn -0.7071038 0.70710975 0
vn -0.7071038 0.70710975 0
vn -1 -2.5447014E-06 0
vn -1 -1.272351E-06 0
vn -1 -2.5447014E-06 0
vn -1 -1.272351E-06 0
vn -1 0 0
vn -1 0 0
vn -0.7071039 -0.70710963 0
vn -0.70710385 -0.7071097 0
vn -0.7071039 -0.70710963 0
vn -0.70710385 -0.7071097 0
vn -0.7071038 -0.70710975 0
vn -0.7071038 -0.70710975 0
vn -0 0.70710033 0.70711315
vn -0 0.7071004 0.70711315
vn -0 0.70710146 0.7071121
vn -0 0.70710146 0.7071121
vn -0 0.70710254 0.707111
vn -0 0.7071026 0.707111
vn -3.1693793E-07 -1.0199432E-06 1
vn -3.1693793E-07 -1.0199432E-06 1
vn -0 -5.1089455E-07 1
vn -0 -5.1089455E-07 1
vn -0 0 1
vn -0 0 1
vn -0 -0.7070997 0.70711386
vn -0 -0.7070997 0.70711386
vn -0 -0.70710117 0.7071123
vn -0 -0.70710117 0.7071124
vn -0 -0.70710266 0.7071109
vn -0 -0.7071026 0.7071109
vn 0.70710385 0.7071097 0
vn 0.70710385 0.7071097 0
vn 0.7071037 0.70710975 0
vn 0.70710385 0.7071097 0
vn 0.7071039 0.70710963 0
vn 0.7071039 0.70710963 0
vn 1 0 0
vn 1 0 0
vn 1 0 0
vn 1 0 0
vn 1 0 0
vn 1 0 0
vn 0.7071038 -0.70710975 0
vn 0.70710385 -0.7071097 0
vn 0.7071037 -0.70710975 0
vn 0.70710385 -0.7071097 0
vn 0.7071039 -0.70710963 0
vn 0.7071039 -0.70710963 0
vn -0 0.7071066 -0.70710695
vn -0 0.7071066 -0.70710695
vn -0 0.70710367 -0.70710987
vn -0 0.70710367 -0.7071098
vn -0 0.7071007 -0.7071128
vn -0 0.7071007 -0.70711285
vn 3.1808722E-07 -1.0199399E-06 -1
vn 3.1808722E-07 -1.0199399E-06 -1
vn -0 -5.0904697E-07 -1
vn -0 -5.0904697E-07 -1
vn -0 0 -1
vn -0 0 -1
vn -0 -0.70710593 -0.7071076
vn -0 -0.70710593 -0.70710754
vn -0 -0.7071033 -0.70711017
vn -0 -0.7071033 -0.70711017
vn -0 -0.7071007 -0.7071128
vn -0 -0.7071007 -0.70711285
vn -0 -1 0
vn -0 -1 0
vn -0 -1 0
vn -0 -1 0
vn -0 1 0
vn -0 1 0
vn -0 1 0
vn -0 1 0
vn -0 -1 0
vn -0 -1 0
vn -0 -1 0
vn -0 -1 0
vn -0 1 0
vn -0 1 0
vn -0 1 0
vn -0 1 0
vn -0 -1 0
vn -0 -1 0
vn -0 -1 0
vn -0 -1 0
vn -0 1 0
vn -0 1 0
vn -0 1 0
vn -0 1 0
vn -0 -1 0
vn -0 -1 0
vn -0 -1 0
vn -0 -1 0
vn -0 1 0
vn -0 1 0
vn -0 1 0
vn -0 1 0
g housekit_roof_flat_x2_0
f 3/3/3 2/2/2 1/1/1
f 2/2/2 4/4/4 1/1/1
f 2/2/2 5/5/5 4/4/4
f 5/5/5 6/6/6 4/4/4
f 9/9/9 8/8/8 7/7/7
f 8/8/8 10/10/10 7/7/7
f 8/8/8 11/11/11 10/10/10
f 11/11/11 12/12/12 10/10/10
f 15/15/15 14/14/14 13/13/13
f 14/14/14 16/16/16 13/13/13
f 14/14/14 17/17/17 16/16/16
f 17/17/17 18/18/18 16/16/16
f 21/21/21 20/20/20 19/19/19
f 22/22/22 21/21/21 19/19/19
f 22/22/22 23/23/23 21/21/21
f 23/23/23 24/24/24 21/21/21
f 27/27/27 26/26/26 25/25/25
f 28/28/28 27/27/27 25/25/25
f 28/28/28 29/29/29 27/27/27
f 29/29/29 30/30/30 27/27/27
f 33/33/33 32/32/32 31/31/31
f 34/34/34 33/33/33 31/31/31
f 34/34/34 35/35/35 33/33/33
f 35/35/35 36/36/36 33/33/33
f 39/39/39 38/38/38 37/37/37
f 38/38/38 40/40/40 37/37/37
f 38/38/38 41/41/41 40/40/40
f 41/41/41 42/42/42 40/40/40
f 45/45/45 44/44/44 43/43/43
f 44/44/44 46/46/46 43/43/43
f 44/44/44 47/47/47 46/46/46
f 47/47/47 48/48/48 46/46/46
f 51/51/51 50/50/50 49/49/49
f 50/50/50 52/52/52 49/49/49
f 50/50/50 53/53/53 52/52/52
f 53/53/53 54/54/54 52/52/52
f 57/57/57 56/56/56 55/55/55
f 58/58/58 57/57/57 55/55/55
f 58/58/58 59/59/59 57/57/57
f 59/59/59 60/60/60 57/57/57
f 63/63/63 62/62/62 61/61/61
f 64/64/64 63/63/63 61/61/61
f 64/64/64 65/65/65 63/63/63
f 65/65/65 66/66/66 63/63/63
f 69/69/69 68/68/68 67/67/67
f 70/70/70 69/69/69 67/67/67
f 70/70/70 71/71/71 69/69/69
f 71/71/71 72/72/72 69/69/69
f 75/75/75 74/74/74 73/73/73
f 76/76/76 75/75/75 73/73/73
f 79/79/79 78/78/78 77/77/77
f 80/80/80 79/79/79 77/77/77
f 83/83/83 82/82/82 81/81/81
f 84/84/84 83/83/83 81/81/81
f 87/87/87 86/86/86 85/85/85
f 88/88/88 87/87/87 85/85/85
f 91/91/91 90/90/90 89/89/89
f 92/92/92 91/91/91 89/89/89
f 95/95/95 94/94/94 93/93/93
f 96/96/96 95/95/95 93/93/93
f 99/99/99 98/98/98 97/97/97
f 100/100/100 99/99/99 97/97/97
f 103/103/103 102/102/102 101/101/101
f 104/104/104 103/103/103 101/101/101
