g houseBenchPaper
v 1.2040037 0.9506235 0.5833266
v 1.1308599 0.80346274 0.61899894
v 0.935524 0.9506235 0.5862681
v 0.87628645 1.0205959 0.01797245
v 1.4404074 1.0418384 -0.04260685
v 1.5401919 1.0205959 0.011987914
v 0.90955913 1.0418384 -0.042841185
v 1.0317587 1.0418384 -0.26618913
v 1.2403772 1.0158885 0.5514
v 1.2040037 0.9506235 0.5833266
v 0.935524 0.9506235 0.5862681
v 0.8065723 1.0158885 0.54936445
v 1.26441 1.0418384 0.5160435
v 0.7349828 1.0418384 0.51734525
v 0.63345784 1.0418384 0.46179828
v 1.4942648 1.0418384 0.09593032
v 0.8394176 1.0418384 0.0853589
v 0.8394176 1.0418384 0.0853589
v 0.87628645 1.0205959 0.01797245
v 1.5401919 1.0205959 0.011987914
v 1.4942648 1.0418384 0.09593032
v 1.5550643 0.11647119 0.057671566
v 1.6611542 0.17247972 0.116052285
v 1.5523226 0.12116052 0.57000875
v 1.5211794 0.06066348 0.037752133
v 1.5070312 0.046973858 0.6431833
v 1.5376356 0.11139342 0.65777886
v 1.48103 0.01968893 0.016892156
v 1.4388806 0.01968893 0.61835563
v 0.9822209 0.01968893 -0.16482696
v 1.48103 0.01968893 0.016892156
v 1.4388806 0.01968893 0.61835563
v 0.78383917 0.01968893 0.37972006
vt 0.87425315 0.8732133
vt 0.87425315 0.85845625
vt 0.8370565 0.85845625
vt 0.78898185 0.9108458
vt 0.85751784 0.9443886
vt 0.87425315 0.9443886
vt 0.78898185 0.9180244
vt 0.78898185 0.9443886
vt 0.87425315 0.88085943
vt 0.87425315 0.8732133
vt 0.8370565 0.85845625
vt 0.81591636 0.85845625
vt 0.87425315 0.88488936
vt 0.806009 0.85845625
vt 0.78898185 0.85845625
vt 0.87425315 0.9344799
vt 0.78898185 0.9028916
vt 0.78898185 0.9028916
vt 0.78898185 0.9108458
vt 0.87425315 0.9443886
vt 0.87425315 0.9344799
vt 0.17188242 0.91057944
vt 0.17487136 0.9219458
vt 0.22340125 0.9091842
vt 0.17030352 0.9045752
vt 0.23192893 0.9023993
vt 0.23304616 0.9066479
vt 0.16931753 0.90082574
vt 0.23058143 0.89727503
vt 0.15945484 0.8633199
vt 0.16931753 0.90082574
vt 0.23058143 0.89727503
vt 0.21762964 0.848022
vn 0.004027716 0.39870113 0.917072
vn 0.010660013 0.2305602 0.9729997
vn 0.0027263397 0.42987174 0.9028858
vn 0.0011794124 0.9942867 -0.10673611
vn 0.0012818152 0.9638809 0.26633087
vn 0.0011712508 0.9936287 -0.112696424
vn 0.00091437175 0.98178655 0.18998495
vn -0 1 4.1173018E-07
vn 0.00018819554 0.6755246 0.73733747
vn 0.004027716 0.39870113 0.917072
vn 0.0027263397 0.42987174 0.9028858
vn -0.00014286619 0.7372247 0.6756476
vn -1.7118737E-05 0.99974746 0.022470264
vn -6.7300757E-06 0.999961 0.008834137
vn -0 1 2.6357125E-07
vn 0.0002457406 0.9975011 -0.07065146
vn 8.593782E-05 0.9996947 -0.024707308
vn 8.593782E-05 0.9996947 -0.024707308
vn 0.0011794124 0.9942867 -0.10673611
vn 0.0011712508 0.9936287 -0.112696424
vn 0.0002457406 0.9975011 -0.07065146
vn -0.7602813 0.6495228 -0.009614545
vn -0.46227753 0.886672 -0.01058937
vn -0.8355366 0.54932576 -0.010944948
vn -0.6867819 0.7267527 -0.012692841
vn -0.6911757 0.72251475 -0.01576774
vn -0.88986623 0.44527107 -0.09935635
vn -0.03762392 0.9992914 -0.0010698091
vn -0.07282801 0.9973424 -0.0020708118
vn -0 1 0
vn -0.03762392 0.9992914 -0.0010698091
vn -0.07282801 0.9973424 -0.0020708118
vn -0 1 0
g houseBenchPaper_0
f 3/3/3 2/2/2 1/1/1
f 6/6/6 5/5/5 4/4/4
f 5/5/5 7/7/7 4/4/4
f 5/5/5 8/8/8 7/7/7
f 11/11/11 10/10/10 9/9/9
f 12/12/12 11/11/11 9/9/9
f 12/12/12 9/9/9 13/13/13
f 14/14/14 12/12/12 13/13/13
f 15/15/15 14/14/14 13/13/13
f 15/15/15 13/13/13 16/16/16
f 16/16/16 17/17/17 15/15/15
f 20/20/20 19/19/19 18/18/18
f 21/21/21 20/20/20 18/18/18
f 24/24/24 23/23/23 22/22/22
f 24/24/24 22/22/22 25/25/25
f 26/26/26 24/24/24 25/25/25
f 26/26/26 27/27/27 24/24/24
f 26/26/26 25/25/25 28/28/28
f 29/29/29 26/26/26 28/28/28
f 32/32/32 31/31/31 30/30/30
f 33/33/33 32/32/32 30/30/30
