g luckycat_coin_LOD1
v 0.14055532 -0.029662592 -0.10211941
v 0.05368735 -0.029662592 -0.16523267
v -0 -0.03989683 0
v 0.17373583 -0.029662592 1.5442334E-09
v -0.05368735 -0.029662592 -0.16523266
v 0.14055523 -0.029662592 0.10211937
v -0.14055528 -0.029662592 -0.10211938
v 0.05368732 -0.029662592 0.1652326
v -0.17373586 -0.029662592 1.5442334E-09
v -0.053687334 -0.029662592 0.16523261
v -0.14055526 -0.029662592 0.10211938
v 0.14055523 0.029662594 0.10211937
v 0.17373583 0.029662594 1.5442334E-09
v 0.17373583 -0.029662592 1.5442334E-09
v 0.14055532 0.029662594 -0.10211941
v 0.14055523 -0.029662592 0.10211937
v 0.14055532 -0.029662592 -0.10211941
v 0.05368732 0.029662594 0.1652326
v 0.05368735 -0.029662592 -0.16523267
v 0.05368732 -0.029662592 0.1652326
v 0.05368735 0.029662594 -0.16523267
v -0.053687334 0.029662594 0.16523261
v -0.05368735 -0.029662592 -0.16523266
v -0.053687334 -0.029662592 0.16523261
v -0.05368735 0.029662594 -0.16523266
v -0.14055526 0.029662594 0.10211938
v -0.14055528 -0.029662592 -0.10211938
v -0.14055526 -0.029662592 0.10211938
v -0.14055528 0.029662594 -0.10211938
v -0.17373586 0.029662594 1.5442334E-09
v -0.17373586 -0.029662592 1.5442334E-09
v 3.516319E-18 0.024006102 2.8944045E-19
v 0.05368735 0.029662594 -0.16523267
v 0.14055532 0.029662594 -0.10211941
v -0.05368735 0.029662594 -0.16523266
v 0.17373583 0.029662594 1.5442334E-09
v -0.14055528 0.029662594 -0.10211938
v 0.14055523 0.029662594 0.10211937
v -0.17373586 0.029662594 1.5442334E-09
v 0.05368732 0.029662594 0.1652326
v -0.14055526 0.029662594 0.10211938
v -0.053687334 0.029662594 0.16523261
vt 0.8964316 0.7887225
vt 0.65142345 0.96716285
vt 0.49999994 0.5
vt 0.99001616 0.5
vt 0.3485765 0.96716285
vt 0.8964314 0.2112776
vt 0.103568316 0.7887224
vt 0.65142334 0.03283739
vt 0.009983599 0.5
vt 0.34857655 0.03283727
vt 0.103568375 0.2112776
vt 0.8964314 0.2112776
vt 0.99001616 0.5
vt 0.99001616 0.5
vt 0.8964316 0.7887225
vt 0.8964314 0.2112776
vt 0.8964316 0.7887225
vt 0.65142334 0.03283739
vt 0.65142345 0.96716285
vt 0.65142334 0.03283739
vt 0.65142345 0.96716285
vt 0.34857655 0.03283727
vt 0.3485765 0.96716285
vt 0.34857655 0.03283727
vt 0.3485765 0.96716285
vt 0.103568375 0.2112776
vt 0.103568316 0.7887224
vt 0.103568375 0.2112776
vt 0.103568316 0.7887224
vt 0.009983599 0.5
vt 0.009983599 0.5
vt 0.49999994 0.5
vt 0.65142345 0.96716285
vt 0.8964316 0.7887225
vt 0.3485765 0.96716285
vt 0.99001616 0.5
vt 0.103568316 0.7887224
vt 0.8964314 0.2112776
vt 0.009983599 0.5
vt 0.65142334 0.03283739
vt 0.103568375 0.2112776
vt 0.34857655 0.03283727
vn 0.54521865 -0.7387978 -0.3961243
vn 0.20825489 -0.73879784 -0.6409428
vn -0 -1 0
vn 0.6739271 -0.7387978 0
vn -0.20825504 -0.7387978 -0.64094275
vn 0.54521865 -0.73879766 0.39612448
vn -0.54521865 -0.7387977 -0.39612436
vn 0.20825498 -0.7387977 0.6409429
vn -0.67392725 -0.73879766 0
vn -0.20825492 -0.7387977 0.6409429
vn -0.5452185 -0.7387977 0.39612448
vn 0.51335293 0.7728907 0.3729727
vn 0.634539 0.77289087 0
vn 0.6739271 -0.7387978 0
vn 0.5133531 0.7728908 -0.37297258
vn 0.54521865 -0.73879766 0.39612448
vn 0.54521865 -0.7387978 -0.3961243
vn 0.1960834 0.77289087 0.6034824
vn 0.20825489 -0.73879784 -0.6409428
vn 0.20825498 -0.7387977 0.6409429
vn 0.19608328 0.7728909 -0.60348237
vn -0.19608329 0.7728908 0.60348254
vn -0.20825504 -0.7387978 -0.64094275
vn -0.20825492 -0.7387977 0.6409429
vn -0.19608346 0.77289087 -0.60348237
vn -0.51335293 0.7728908 0.3729727
vn -0.54521865 -0.7387977 -0.39612436
vn -0.5452185 -0.7387977 0.39612448
vn -0.513353 0.77289087 -0.37297258
vn -0.6345391 0.7728908 0
vn -0.67392725 -0.73879766 0
vn -0 1 0
vn 0.19608328 0.7728909 -0.60348237
vn 0.5133531 0.7728908 -0.37297258
vn -0.19608346 0.77289087 -0.60348237
vn 0.634539 0.77289087 0
vn -0.513353 0.77289087 -0.37297258
vn 0.51335293 0.7728907 0.3729727
vn -0.6345391 0.7728908 0
vn 0.1960834 0.77289087 0.6034824
vn -0.51335293 0.7728908 0.3729727
vn -0.19608329 0.7728908 0.60348254
g luckycat_coin_LOD1_0
f 3/3/3 2/2/2 1/1/1
f 4/4/4 3/3/3 1/1/1
f 3/3/3 5/5/5 2/2/2
f 3/3/3 4/4/4 6/6/6
f 3/3/3 7/7/7 5/5/5
f 3/3/3 6/6/6 8/8/8
f 3/3/3 9/9/9 7/7/7
f 3/3/3 8/8/8 10/10/10
f 3/3/3 11/11/11 9/9/9
f 3/3/3 10/10/10 11/11/11
f 14/14/14 13/13/13 12/12/12
f 13/13/13 14/14/14 15/15/15
f 16/16/16 14/14/14 12/12/12
f 14/14/14 17/17/17 15/15/15
f 16/16/16 12/12/12 18/18/18
f 17/17/17 19/19/19 15/15/15
f 20/20/20 16/16/16 18/18/18
f 19/19/19 21/21/21 15/15/15
f 20/20/20 18/18/18 22/22/22
f 19/19/19 23/23/23 21/21/21
f 24/24/24 20/20/20 22/22/22
f 23/23/23 25/25/25 21/21/21
f 24/24/24 22/22/22 26/26/26
f 23/23/23 27/27/27 25/25/25
f 28/28/28 24/24/24 26/26/26
f 27/27/27 29/29/29 25/25/25
f 28/28/28 26/26/26 30/30/30
f 27/27/27 31/31/31 29/29/29
f 31/31/31 30/30/30 29/29/29
f 31/31/31 28/28/28 30/30/30
f 34/34/34 33/33/33 32/32/32
f 33/33/33 35/35/35 32/32/32
f 36/36/36 34/34/34 32/32/32
f 35/35/35 37/37/37 32/32/32
f 38/38/38 36/36/36 32/32/32
f 37/37/37 39/39/39 32/32/32
f 40/40/40 38/38/38 32/32/32
f 39/39/39 41/41/41 32/32/32
f 42/42/42 40/40/40 32/32/32
f 41/41/41 42/42/42 32/32/32
