g mesh_gen_lever_l
v -0.5068655 -0.11465675 -0.00013694912
v -1.1195312 -0.12595528 0.08876334
v -1.1209629 -0.12241167 -2.0340085E-06
v -0.5064615 -0.115656435 -0.08625645
v -1.1195312 -0.12595528 -0.08876334
v -0.5064615 -0.115656435 0.08625645
v -0.41371655 -0.09204346 -0.08625669
v -0.41391516 -0.09155184 -0.00013694167
v -1.1193922 -0.14764321 -0.110235944
v -0.50320876 -0.13707691 -0.107817866
v -0.4013548 -0.32951707 -0.107873075
v -0.40428185 -0.111890376 -0.107817866
v -0.33685005 -0.03502816 -0.08625669
v -0.41371655 -0.09204346 0.08625669
v -0.33743322 -0.033584893 -0.00013694167
v -0.50320876 -0.13707691 0.107817866
v -0.40428185 -0.111890376 0.107817866
v -0.33685005 -0.03502816 0.08625669
v -0.25532556 0.059726417 -0.00013694167
v -0.32231605 -0.051092684 0.107817866
v -0.16724253 -0.27390224 0.107817866
v -0.23875356 0.040763915 0.107817866
v 0.07428826 -0.1793325 0.107817866
v -0.253888 0.056168377 0.08625669
v -0.17063403 0.100566804 0.107817866
v -0.4013548 -0.32951707 0.107873075
v -1.1193922 -0.14764321 0.110235944
v -0.2824297 -0.309946 0.10783174
v -0.18287659 0.11851007 0.08625669
v -0.18481255 0.123301685 -0.00013694167
v -0.07615816 0.14939469 0.107817866
v -0.39694643 -0.35080206 0.08628371
v -1.1156158 -0.35731292 0.10800945
v -0.27789533 -0.33132255 0.08626339
v -0.08174705 0.17077678 0.08625669
v -0.083852045 0.1759867 -0.00013694167
v 0.08236397 0.15483624 0.107817866
v -1.377867 -0.29018927 0.108065665
v -1.1179113 -0.37888104 0.08635218
v -0.39282954 -0.3601861 -0.00013553609
v -1.1426661 -0.121488035 0.11046274
v -1.1392167 -0.03389877 0.091171056
v -1.1209629 -0.12241167 -2.0340085E-06
v -1.1421297 -0.026688516 0.00012753904
v -1.3402197 -0.08773512 0.11041674
v -1.1586959 -0.047360957 0.11224238
v -1.2180204 0.016730368 0.091287404
v -1.4027348 -0.30607802 0.08632192
v -1.2222106 -0.006505072 0.11259335
v -1.2221551 0.026964128 0.00013380498
v -1.3095453 -0.0031830668 0.09134698
v -1.296318 -0.02263099 0.112588525
v -1.3606942 -0.07938844 0.08885558
v -1.4031932 -0.30494326 -0.000133425
v -1.3139329 0.0076764226 0.00013700873
v -1.1392167 -0.03389877 -0.091171056
v -1.1155868 -0.38463455 -0.00013180077
v -1.364259 -0.0705654 2.9280782E-06
v -1.2180204 0.016730368 -0.091287404
v -1.3095453 -0.0031830668 -0.09134698
v -1.3606942 -0.07938844 -0.08885558
v -1.4027348 -0.30607802 -0.08632192
v -1.1179113 -0.37888104 -0.08635218
v -1.1586959 -0.047360957 -0.11224238
v -1.2222106 -0.006505072 -0.11259335
v -1.296318 -0.02263099 -0.112588525
v -1.3402197 -0.08773512 -0.11041674
v -1.1426661 -0.121488035 -0.11046274
v -1.377867 -0.29018927 -0.108065665
v -1.1156158 -0.35731292 -0.10800945
v -0.39694643 -0.35080206 -0.08628381
v -0.27356017 -0.34179443 -0.00013663579
v -0.27789533 -0.33132255 -0.08626351
v -0.16277456 -0.29532617 0.0862566
v -0.2824297 -0.30994612 -0.10783174
v -0.15832114 -0.3061344 -0.00013699033
v 0.08633233 -0.19770247 0.08625669
v -0.16277432 -0.2953261 -0.08625669
v 0.090691455 -0.20849174 -0.00013694167
v -0.16724253 -0.27390236 -0.10781786
v 0.07428826 -0.1793325 -0.107817866
v 0.19827962 -0.08857161 0.08625669
v -0.32231605 -0.051092684 -0.107817866
v 0.08633233 -0.19770247 -0.08625669
v -0.23875356 0.040763915 -0.107817866
v -0.253888 0.056168377 -0.08625669
v -0.18287659 0.11851007 -0.08625669
v -0.17063403 0.100566804 -0.107817866
v -0.08174705 0.17077678 -0.08625669
v -0.07615816 0.14939469 -0.107817866
v 0.09109891 0.17670995 -0.08625669
v 0.08236397 0.15483624 -0.107817866
v 0.089940555 0.17957705 -0.00013694167
v 0.17679715 -0.079402626 -0.107817866
v 0.19962323 0.066263855 -0.08625669
v 0.09109891 0.17670995 0.08625669
v 0.17798543 0.05752164 -0.107817866
v 0.19827962 -0.08857161 -0.08625669
v 0.20075023 0.06347424 -0.00013694167
v 0.20169222 -0.09701818 -0.00013694167
v 0.19962323 0.066263855 0.08625669
v 0.17798543 0.05752164 0.107817866
v 0.17679715 -0.079402626 0.107817866
v -1.263829 -0.16176927 0.17236769
v -1.2384291 -0.10959011 0.22801661
v -1.2059405 -0.15767676 0.17236769
v -1.2963173 -0.11368257 0.17236769
v -1.2655087 -0.16521972 0.10528291
v -1.3001456 -0.11395329 0.10528291
v -1.2709174 -0.06150335 0.17236769
v -1.2730658 -0.058323562 0.10528291
v -1.180541 -0.10549766 0.17236769
v -1.2130291 -0.057410896 0.17236769
v -1.2037921 -0.16085666 0.10528291
v -1.2113497 -0.053960502 0.10528291
v -1.1767128 -0.105226934 0.10528291
v -1.3001456 -0.11395329 -0.1081371
v -1.2730658 -0.058323562 -0.1081371
v -1.2655087 -0.16521972 -0.1081371
v -1.2113497 -0.053960502 -0.1081371
v -1.1767128 -0.105226934 -0.1081371
v -1.2037921 -0.16085666 -0.1081371
v -1.2963173 -0.11368257 -0.17236769
v -1.2709174 -0.06150335 -0.17236769
v -1.2130291 -0.057410896 -0.17236769
v -1.180541 -0.10549766 -0.17236769
v -1.2384291 -0.10959011 -0.22801661
v -1.263829 -0.16176927 -0.17236769
v -1.2059405 -0.15767676 -0.17236769
v -0.04370963 -0.089793146 0.17236769
v 6.1328604E-09 -5.961292E-08 0.22801661
v 0.055908687 -0.08275062 0.17236769
v -0.09961783 -0.007042587 0.17236769
v -0.046600096 -0.09573132 0.10528291
v -0.106205456 -0.0075084567 0.10528291
v -0.055907957 0.08275062 0.17236769
v -0.059605233 0.0882228 0.10528291
v 0.09961785 0.007042587 0.17236769
v 0.043709643 0.08979303 0.17236769
v 0.059605725 -0.0882228 0.10528291
v 0.04660011 0.0957312 0.10528291
v 0.10620559 0.0075083375 0.10528291
v -0.106205456 -0.0075084567 -0.10813712
v -0.059605233 0.0882228 -0.10813712
v -0.046600096 -0.09573132 -0.10813712
v 0.04660011 0.0957312 -0.10813712
v 0.10620559 0.0075083375 -0.10813712
v 0.059605725 -0.0882228 -0.10813712
v -0.09961783 -0.007042587 -0.17236769
v -0.055907957 0.08275062 -0.17236769
v 0.043709643 0.08979303 -0.17236769
v 0.09961785 0.007042587 -0.17236769
v 6.1328604E-09 -5.961292E-08 -0.22801661
v -0.04370963 -0.089793146 -0.17236769
v 0.055908687 -0.08275062 -0.17236769
vt 0.25 0.35
vt 0.25 0.35
vt 0.25 0.35
vt 0.25 0.35
vt 0.25 0.35
vt 0.25 0.35
vt 0.25 0.35
vt 0.25 0.35
vt 0.25 0.35
vt 0.25 0.35
vt 0.25 0.35
vt 0.25 0.35
vt 0.25 0.35
vt 0.25 0.35
vt 0.25 0.35
vt 0.25 0.35
vt 0.25 0.35
vt 0.25 0.35
vt 0.25 0.35
vt 0.25 0.35
vt 0.25 0.35
vt 0.25 0.35
vt 0.25 0.35
vt 0.25 0.35
vt 0.25 0.35
vt 0.25 0.35
vt 0.25 0.35
vt 0.25 0.35
vt 0.25 0.35
vt 0.25 0.35
vt 0.25 0.35
vt 0.25 0.35
vt 0.25 0.35
vt 0.25 0.35
vt 0.25 0.35
vt 0.25 0.35
vt 0.25 0.35
vt 0.25 0.35
vt 0.25 0.35
vt 0.25 0.35
vt 0.25 0.35
vt 0.25 0.35
vt 0.25 0.35
vt 0.25 0.35
vt 0.25 0.35
vt 0.25 0.35
vt 0.25 0.35
vt 0.25 0.35
vt 0.25 0.35
vt 0.25 0.35
vt 0.25 0.35
vt 0.25 0.35
vt 0.25 0.35
vt 0.25 0.35
vt 0.25 0.35
vt 0.25 0.35
vt 0.25 0.35
vt 0.25 0.35
vt 0.25 0.35
vt 0.25 0.35
vt 0.25 0.35
vt 0.25 0.35
vt 0.25 0.35
vt 0.25 0.35
vt 0.25 0.35
vt 0.25 0.35
vt 0.25 0.35
vt 0.25 0.35
vt 0.25 0.35
vt 0.25 0.35
vt 0.25 0.35
vt 0.25 0.35
vt 0.25 0.35
vt 0.25 0.35
vt 0.25 0.35
vt 0.25 0.35
vt 0.25 0.35
vt 0.25 0.35
vt 0.25 0.35
vt 0.25 0.35
vt 0.25 0.35
vt 0.25 0.35
vt 0.25 0.35
vt 0.25 0.35
vt 0.25 0.35
vt 0.25 0.35
vt 0.25 0.35
vt 0.25 0.35
vt 0.25 0.35
vt 0.25 0.35
vt 0.25 0.35
vt 0.25 0.35
vt 0.25 0.35
vt 0.25 0.35
vt 0.25 0.35
vt 0.25 0.35
vt 0.25 0.35
vt 0.25 0.35
vt 0.25 0.35
vt 0.25 0.35
vt 0.25 0.35
vt 0.25 0.35
vt 0.25 0.35
vt 0.25 0.6
vt 0.25 0.6
vt 0.25 0.6
vt 0.25 0.6
vt 0.25 0.6
vt 0.25 0.6
vt 0.25 0.6
vt 0.25 0.6
vt 0.25 0.6
vt 0.25 0.6
vt 0.25 0.6
vt 0.25 0.6
vt 0.25 0.6
vt 0.25 0.6
vt 0.25 0.6
vt 0.25 0.6
vt 0.25 0.6
vt 0.25 0.6
vt 0.25 0.6
vt 0.25 0.6
vt 0.25 0.6
vt 0.25 0.6
vt 0.25 0.6
vt 0.25 0.6
vt 0.25 0.6
vt 0.25 0.6
vt 0.25 0.6
vt 0.25 0.6
vt 0.25 0.6
vt 0.25 0.6
vt 0.25 0.6
vt 0.25 0.6
vt 0.25 0.6
vt 0.25 0.6
vt 0.25 0.6
vt 0.25 0.6
vt 0.25 0.6
vt 0.25 0.6
vt 0.25 0.6
vt 0.25 0.6
vt 0.25 0.6
vt 0.25 0.6
vt 0.25 0.6
vt 0.25 0.6
vt 0.25 0.6
vt 0.25 0.6
vt 0.25 0.6
vt 0.25 0.6
vt 0.25 0.6
vt 0.25 0.6
vt 0.25 0.6
vt 0.25 0.6
vn -0.045256004 0.9989754 0
vn 0.12524329 0.96593297 0.22646776
vn -0.014656826 0.9998926 0
vn -0.044204973 0.9740074 -0.22216041
vn 0.12554644 0.9658351 -0.22671719
vn -0.044236787 0.97407484 0.22185862
vn -0.41902947 0.8793198 -0.2262986
vn -0.4305206 0.90258074 0
vn 0.0004152978 0.051002417 -0.9986985
vn -0.0014306046 0.06463336 -0.9979081
vn 0.008716338 -0.13510807 -0.9907925
vn -0.026631357 0.056345202 -0.9980562
vn -0.66660583 0.71169585 -0.22164327
vn -0.4190836 0.8794307 0.22576682
vn -0.68541396 0.72815365 0
vn -0.0014306055 0.06463337 0.9979081
vn -0.026631404 0.0563452 0.9980562
vn -0.6666918 0.71177995 0.22111395
vn -0.71104157 0.70315 0
vn -0.03173284 0.034344632 0.99890614
vn 0.030465327 -0.082630634 0.9961145
vn -0.041311134 0.0413731 0.9982894
vn 0.051534943 -0.090678476 0.99454594
vn -0.6937102 0.68633133 0.2184389
vn -0.06686295 0.100257665 0.9927124
vn 0.008716382 -0.1351084 0.9907925
vn 0.00041529496 0.051002428 0.9986985
vn 0.022484718 -0.094005294 0.9953178
vn -0.54323745 0.8082364 0.22725996
vn -0.5568321 0.8306252 0
vn -0.021258865 0.0996079 0.9947996
vn 0.05222295 -0.9660872 0.25287992
vn -0.0039805123 -0.11912876 0.99287087
vn 0.21783416 -0.9331203 0.28606763
vn -0.19912885 0.95504946 0.21960938
vn -0.20538317 0.9786816 0
vn 0.030903108 0.08426798 0.9959638
vn -0.12094429 -0.10736078 0.98683643
vn -0.048893064 -0.9702057 0.237298
vn 0.054377932 -0.99852043 0
vn 0.021560227 -0.0063928696 0.9997471
vn 0.81969446 0.54375976 0.18007317
vn 0.9771144 0.21271446 0
vn 0.81237453 0.5831359 0
vn -0.09683281 0.015743563 0.9951762
vn 0.12367782 0.064584024 0.99021846
vn 0.19267923 0.95261776 0.23535953
vn -0.7647855 -0.6124591 0.19999258
vn 0.024490332 0.12989692 0.99122494
vn 0.17052749 0.98535293 0
vn -0.5466603 0.79722327 0.25612035
vn -0.08942914 0.10384374 0.99056494
vn -0.9391629 0.27351755 0.20775284
vn -0.7881954 -0.61542517 0
vn -0.5549797 0.8318639 4.4893673E-05
vn 0.8195702 0.54404575 -0.17977506
vn -0.04687731 -0.99890065 0
vn -0.9557772 0.2940918 -1.8024439E-05
vn 0.19265583 0.9527566 -0.23481639
vn -0.54645336 0.79750854 -0.2556731
vn -0.93907106 0.27374002 -0.20787495
vn -0.76508075 -0.61195505 -0.20040564
vn -0.048889447 -0.97006804 -0.23786074
vn 0.123677865 0.064584054 -0.99021846
vn 0.02449026 0.12989734 -0.99122494
vn -0.08942939 0.1038444 -0.99056494
vn -0.09683287 0.015743572 -0.9951762
vn 0.021560216 -0.0063928645 -0.9997471
vn -0.120944284 -0.10736082 -0.98683643
vn -0.003980522 -0.11912856 -0.99287087
vn 0.05221428 -0.96593297 -0.25347033
vn 0.2285289 -0.9735371 0
vn 0.21778692 -0.93292665 -0.28673452
vn 0.32904324 -0.899275 0.28815815
vn 0.022484653 -0.094004884 -0.9953178
vn 0.34417713 -0.93890476 0
vn 0.48138285 -0.831737 0.27655783
vn 0.32897204 -0.89908355 -0.2888358
vn 0.49686682 -0.86782676 0
vn 0.030465217 -0.08263031 -0.9961145
vn 0.0515349 -0.09067836 -0.99454594
vn 0.90379184 -0.36318013 0.22640802
vn -0.03173279 0.03434458 -0.99890614
vn 0.4812908 -0.8315699 -0.27721924
vn -0.041311108 0.041373048 -0.9982894
vn -0.693624 0.6862489 -0.21897063
vn -0.54316527 0.8081283 -0.22781572
vn -0.06686297 0.10025759 -0.9927124
vn -0.19910353 0.95492965 -0.22015238
vn -0.02125887 0.09960787 -0.9947996
vn 0.3540492 0.9151627 -0.19268234
vn 0.030903108 0.08426798 -0.9959638
vn 0.3519898 0.93600386 0
vn 0.07748122 -0.033569943 -0.99642843
vn 0.90932417 0.3747625 -0.18078345
vn 0.3540767 0.9152553 0.19219086
vn 0.077202365 0.031160027 -0.9965283
vn 0.9036823 -0.36310157 -0.22697045
vn 0.93028474 0.3668383 0
vn 0.91566634 -0.40193927 0
vn 0.9094101 0.3747782 0.18031767
vn 0.07720235 0.031160027 0.99652845
vn 0.07748119 -0.033569936 0.99642843
vn -0.42085376 -0.8645578 0.27463043
vn -0 0 1
vn 0.5383047 -0.7967472 0.27463058
vn -0.9591558 -0.067808226 0.27463078
vn -0.43764415 -0.89905185 0.013167965
vn -0.9974239 -0.070513934 0.013168167
vn -0.5383033 0.79674804 0.27463093
vn -0.5597806 0.8285363 0.013167926
vn 0.9591559 0.06781142 0.27462962
vn 0.4208572 0.8645562 0.27463052
vn 0.55978066 -0.8285363 0.01316793
vn 0.4376462 0.89905083 0.013167773
vn 0.9974235 0.07051889 0.013167903
vn -0.99742234 -0.07051413 -0.013289913
vn -0.55977976 0.82853496 -0.013289674
vn -0.43764362 -0.89905035 -0.013289714
vn 0.43764526 0.89904946 -0.013289385
vn 0.997422 0.070518635 -0.01328946
vn 0.5597796 -0.82853496 -0.013289604
vn -0.9567164 -0.06763684 -0.28305292
vn -0.5369345 0.7947215 -0.2830533
vn 0.41978616 0.8623579 -0.28305188
vn 0.95671684 0.06763847 -0.2830512
vn -0 0 -1
vn -0.41978395 -0.8623587 -0.28305286
vn 0.5369353 -0.7947212 -0.2830524
vn -0.39661834 -0.8147707 0.4228979
vn -0 0 1
vn 0.5073047 -0.7508655 0.42289814
vn -0.90392154 -0.063904494 0.42289704
vn -0.4375724 -0.8989035 0.022424843
vn -0.9972594 -0.07050467 0.022424713
vn -0.5073041 0.75086635 0.42289764
vn -0.55968904 0.8283992 0.022424612
vn 0.90392107 0.06390783 0.42289785
vn 0.39661962 0.8147701 0.42289796
vn 0.5596889 -0.82839936 0.022424694
vn 0.43757355 0.89890295 0.02242483
vn 0.99725926 0.070506334 0.02242474
vn -0.997255 -0.07050432 -0.022619167
vn -0.55968666 0.8283956 -0.022618994
vn -0.43757045 -0.89889956 -0.022619296
vn 0.43757161 0.8988991 -0.02261921
vn 0.9972549 0.07050612 -0.022619125
vn 0.5596865 -0.8283958 -0.022619076
vn -0.89844584 -0.06351718 -0.43446606
vn -0.504231 0.7463176 -0.4344665
vn 0.39421684 0.8098344 -0.43446663
vn 0.8984453 0.0635209 -0.43446645
vn -0 0 -1
vn -0.39421567 -0.80983484 -0.43446687
vn 0.50423163 -0.7463169 -0.43446687
g mesh_gen_lever_l_0
f 3/3/3 2/2/2 1/1/1
f 3/3/3 1/1/1 4/4/4
f 5/5/5 3/3/3 4/4/4
f 2/2/2 6/6/6 1/1/1
f 4/4/4 1/1/1 7/7/7
f 1/1/1 6/6/6 8/8/8
f 1/1/1 8/8/8 7/7/7
f 5/5/5 4/4/4 9/9/9
f 4/4/4 7/7/7 10/10/10
f 4/4/4 10/10/10 9/9/9
f 9/9/9 10/10/10 11/11/11
f 7/7/7 12/12/12 10/10/10
f 10/10/10 12/12/12 11/11/11
f 7/7/7 8/8/8 13/13/13
f 12/12/12 7/7/7 13/13/13
f 6/6/6 14/14/14 8/8/8
f 8/8/8 15/15/15 13/13/13
f 8/8/8 14/14/14 15/15/15
f 16/16/16 6/6/6 2/2/2
f 17/17/17 14/14/14 6/6/6
f 16/16/16 17/17/17 6/6/6
f 14/14/14 18/18/18 15/15/15
f 15/15/15 19/19/19 13/13/13
f 15/15/15 18/18/18 19/19/19
f 14/14/14 17/17/17 20/20/20
f 18/18/18 14/14/14 20/20/20
f 20/20/20 17/17/17 21/21/21
f 18/18/18 20/20/20 22/22/22
f 22/22/22 20/20/20 21/21/21
f 23/23/23 22/22/22 21/21/21
f 24/24/24 18/18/18 22/22/22
f 18/18/18 24/24/24 19/19/19
f 25/25/25 22/22/22 23/23/23
f 22/22/22 25/25/25 24/24/24
f 16/16/16 26/26/26 17/17/17
f 27/27/27 16/16/16 2/2/2
f 16/16/16 27/27/27 26/26/26
f 17/17/17 28/28/28 21/21/21
f 26/26/26 28/28/28 17/17/17
f 25/25/25 29/29/29 24/24/24
f 19/19/19 24/24/24 30/30/30
f 24/24/24 29/29/29 30/30/30
f 31/31/31 25/25/25 23/23/23
f 29/29/29 25/25/25 31/31/31
f 28/28/28 26/26/26 32/32/32
f 27/27/27 33/33/33 26/26/26
f 32/32/32 26/26/26 33/33/33
f 21/21/21 28/28/28 34/34/34
f 34/34/34 28/28/28 32/32/32
f 35/35/35 29/29/29 31/31/31
f 30/30/30 29/29/29 36/36/36
f 29/29/29 35/35/35 36/36/36
f 37/37/37 31/31/31 23/23/23
f 31/31/31 37/37/37 35/35/35
f 38/38/38 33/33/33 27/27/27
f 39/39/39 32/32/32 33/33/33
f 39/39/39 33/33/33 38/38/38
f 32/32/32 40/40/40 34/34/34
f 40/40/40 32/32/32 39/39/39
f 27/27/27 41/41/41 38/38/38
f 27/27/27 2/2/2 41/41/41
f 2/2/2 42/42/42 41/41/41
f 2/2/2 43/43/43 42/42/42
f 43/43/43 44/44/44 42/42/42
f 43/43/43 5/5/5 44/44/44
f 41/41/41 45/45/45 38/38/38
f 42/42/42 46/46/46 41/41/41
f 45/45/45 41/41/41 46/46/46
f 42/42/42 47/47/47 46/46/46
f 42/42/42 44/44/44 47/47/47
f 48/48/48 39/39/39 38/38/38
f 38/38/38 45/45/45 48/48/48
f 47/47/47 49/49/49 46/46/46
f 46/46/46 49/49/49 45/45/45
f 44/44/44 50/50/50 47/47/47
f 47/47/47 51/51/51 49/49/49
f 47/47/47 50/50/50 51/51/51
f 49/49/49 52/52/52 45/45/45
f 51/51/51 52/52/52 49/49/49
f 45/45/45 52/52/52 53/53/53
f 45/45/45 53/53/53 48/48/48
f 52/52/52 51/51/51 53/53/53
f 39/39/39 48/48/48 54/54/54
f 54/54/54 48/48/48 53/53/53
f 51/51/51 55/55/55 53/53/53
f 50/50/50 55/55/55 51/51/51
f 44/44/44 56/56/56 50/50/50
f 5/5/5 56/56/56 44/44/44
f 57/57/57 39/39/39 54/54/54
f 57/57/57 40/40/40 39/39/39
f 58/58/58 54/54/54 53/53/53
f 55/55/55 58/58/58 53/53/53
f 50/50/50 59/59/59 55/55/55
f 56/56/56 59/59/59 50/50/50
f 55/55/55 60/60/60 58/58/58
f 59/59/59 60/60/60 55/55/55
f 58/58/58 61/61/61 54/54/54
f 60/60/60 61/61/61 58/58/58
f 57/57/57 54/54/54 62/62/62
f 61/61/61 62/62/62 54/54/54
f 57/57/57 63/63/63 40/40/40
f 63/63/63 57/57/57 62/62/62
f 64/64/64 56/56/56 5/5/5
f 59/59/59 56/56/56 65/65/65
f 56/56/56 64/64/64 65/65/65
f 66/66/66 60/60/60 59/59/59
f 65/65/65 66/66/66 59/59/59
f 60/60/60 66/66/66 67/67/67
f 67/67/67 66/66/66 65/65/65
f 61/61/61 60/60/60 67/67/67
f 67/67/67 65/65/65 64/64/64
f 68/68/68 64/64/64 5/5/5
f 64/64/64 68/68/68 67/67/67
f 9/9/9 68/68/68 5/5/5
f 61/61/61 67/67/67 69/69/69
f 69/69/69 67/67/67 68/68/68
f 62/62/62 61/61/61 69/69/69
f 69/69/69 68/68/68 9/9/9
f 69/69/69 70/70/70 62/62/62
f 9/9/9 70/70/70 69/69/69
f 70/70/70 63/63/63 62/62/62
f 70/70/70 9/9/9 11/11/11
f 70/70/70 11/11/11 63/63/63
f 11/11/11 71/71/71 63/63/63
f 63/63/63 71/71/71 40/40/40
f 72/72/72 40/40/40 71/71/71
f 40/40/40 72/72/72 34/34/34
f 71/71/71 11/11/11 73/73/73
f 73/73/73 72/72/72 71/71/71
f 34/34/34 72/72/72 74/74/74
f 74/74/74 21/21/21 34/34/34
f 11/11/11 75/75/75 73/73/73
f 12/12/12 75/75/75 11/11/11
f 76/76/76 72/72/72 73/73/73
f 72/72/72 76/76/76 74/74/74
f 21/21/21 74/74/74 77/77/77
f 23/23/23 21/21/21 77/77/77
f 73/73/73 75/75/75 78/78/78
f 78/78/78 76/76/76 73/73/73
f 76/76/76 79/79/79 74/74/74
f 79/79/79 77/77/77 74/74/74
f 76/76/76 78/78/78 79/79/79
f 75/75/75 12/12/12 80/80/80
f 75/75/75 80/80/80 78/78/78
f 78/78/78 80/80/80 81/81/81
f 77/77/77 82/82/82 23/23/23
f 82/82/82 77/77/77 79/79/79
f 12/12/12 83/83/83 80/80/80
f 83/83/83 12/12/12 13/13/13
f 78/78/78 84/84/84 79/79/79
f 84/84/84 78/78/78 81/81/81
f 83/83/83 85/85/85 80/80/80
f 85/85/85 81/81/81 80/80/80
f 83/83/83 13/13/13 86/86/86
f 85/85/85 83/83/83 86/86/86
f 19/19/19 86/86/86 13/13/13
f 86/86/86 19/19/19 87/87/87
f 86/86/86 87/87/87 85/85/85
f 19/19/19 30/30/30 87/87/87
f 87/87/87 88/88/88 85/85/85
f 85/85/85 88/88/88 81/81/81
f 87/87/87 30/30/30 89/89/89
f 87/87/87 89/89/89 88/88/88
f 30/30/30 36/36/36 89/89/89
f 89/89/89 90/90/90 88/88/88
f 88/88/88 90/90/90 81/81/81
f 89/89/89 36/36/36 91/91/91
f 89/89/89 91/91/91 90/90/90
f 81/81/81 90/90/90 92/92/92
f 91/91/91 92/92/92 90/90/90
f 36/36/36 93/93/93 91/91/91
f 36/36/36 35/35/35 93/93/93
f 94/94/94 81/81/81 92/92/92
f 81/81/81 94/94/94 84/84/84
f 92/92/92 91/91/91 95/95/95
f 91/91/91 93/93/93 95/95/95
f 35/35/35 96/96/96 93/93/93
f 37/37/37 96/96/96 35/35/35
f 92/92/92 97/97/97 94/94/94
f 97/97/97 92/92/92 95/95/95
f 94/94/94 97/97/97 98/98/98
f 94/94/94 98/98/98 84/84/84
f 97/97/97 95/95/95 98/98/98
f 93/93/93 99/99/99 95/95/95
f 95/95/95 99/99/99 98/98/98
f 93/93/93 96/96/96 99/99/99
f 98/98/98 100/100/100 84/84/84
f 99/99/99 100/100/100 98/98/98
f 100/100/100 79/79/79 84/84/84
f 100/100/100 82/82/82 79/79/79
f 99/99/99 101/101/101 100/100/100
f 96/96/96 101/101/101 99/99/99
f 101/101/101 82/82/82 100/100/100
f 96/96/96 37/37/37 102/102/102
f 101/101/101 96/96/96 102/102/102
f 82/82/82 101/101/101 103/103/103
f 101/101/101 102/102/102 103/103/103
f 103/103/103 102/102/102 37/37/37
f 82/82/82 103/103/103 23/23/23
f 37/37/37 23/23/23 103/103/103
f 106/106/106 105/105/105 104/104/104
f 104/104/104 105/105/105 107/107/107
f 104/104/104 108/108/108 106/106/106
f 107/107/107 109/109/109 104/104/104
f 109/109/109 108/108/108 104/104/104
f 107/107/107 105/105/105 110/110/110
f 111/111/111 109/109/109 107/107/107
f 110/110/110 111/111/111 107/107/107
f 112/112/112 105/105/105 106/106/106
f 110/110/110 105/105/105 113/113/113
f 113/113/113 105/105/105 112/112/112
f 106/106/106 114/114/114 112/112/112
f 108/108/108 114/114/114 106/106/106
f 113/113/113 115/115/115 110/110/110
f 115/115/115 111/111/111 110/110/110
f 112/112/112 116/116/116 113/113/113
f 114/114/114 116/116/116 112/112/112
f 116/116/116 115/115/115 113/113/113
f 109/109/109 117/117/117 108/108/108
f 111/111/111 118/118/118 109/109/109
f 118/118/118 117/117/117 109/109/109
f 108/108/108 119/119/119 114/114/114
f 117/117/117 119/119/119 108/108/108
f 115/115/115 120/120/120 111/111/111
f 120/120/120 118/118/118 111/111/111
f 116/116/116 121/121/121 115/115/115
f 121/121/121 120/120/120 115/115/115
f 114/114/114 122/122/122 116/116/116
f 119/119/119 122/122/122 114/114/114
f 122/122/122 121/121/121 116/116/116
f 117/117/117 123/123/123 119/119/119
f 118/118/118 124/124/124 117/117/117
f 124/124/124 123/123/123 117/117/117
f 120/120/120 125/125/125 118/118/118
f 125/125/125 124/124/124 118/118/118
f 121/121/121 126/126/126 120/120/120
f 126/126/126 125/125/125 120/120/120
f 125/125/125 127/127/127 124/124/124
f 124/124/124 127/127/127 123/123/123
f 126/126/126 127/127/127 125/125/125
f 123/123/123 128/128/128 119/119/119
f 119/119/119 128/128/128 122/122/122
f 123/123/123 127/127/127 128/128/128
f 129/129/129 126/126/126 121/121/121
f 122/122/122 129/129/129 121/121/121
f 128/128/128 129/129/129 122/122/122
f 128/128/128 127/127/127 129/129/129
f 129/129/129 127/127/127 126/126/126
f 132/132/132 131/131/131 130/130/130
f 130/130/130 131/131/131 133/133/133
f 130/130/130 134/134/134 132/132/132
f 133/133/133 135/135/135 130/130/130
f 135/135/135 134/134/134 130/130/130
f 133/133/133 131/131/131 136/136/136
f 137/137/137 135/135/135 133/133/133
f 136/136/136 137/137/137 133/133/133
f 138/138/138 131/131/131 132/132/132
f 136/136/136 131/131/131 139/139/139
f 139/139/139 131/131/131 138/138/138
f 132/132/132 140/140/140 138/138/138
f 134/134/134 140/140/140 132/132/132
f 139/139/139 141/141/141 136/136/136
f 141/141/141 137/137/137 136/136/136
f 138/138/138 142/142/142 139/139/139
f 140/140/140 142/142/142 138/138/138
f 142/142/142 141/141/141 139/139/139
f 135/135/135 143/143/143 134/134/134
f 137/137/137 144/144/144 135/135/135
f 144/144/144 143/143/143 135/135/135
f 134/134/134 145/145/145 140/140/140
f 143/143/143 145/145/145 134/134/134
f 141/141/141 146/146/146 137/137/137
f 146/146/146 144/144/144 137/137/137
f 142/142/142 147/147/147 141/141/141
f 147/147/147 146/146/146 141/141/141
f 140/140/140 148/148/148 142/142/142
f 145/145/145 148/148/148 140/140/140
f 148/148/148 147/147/147 142/142/142
f 143/143/143 149/149/149 145/145/145
f 144/144/144 150/150/150 143/143/143
f 150/150/150 149/149/149 143/143/143
f 146/146/146 151/151/151 144/144/144
f 151/151/151 150/150/150 144/144/144
f 147/147/147 152/152/152 146/146/146
f 152/152/152 151/151/151 146/146/146
f 151/151/151 153/153/153 150/150/150
f 150/150/150 153/153/153 149/149/149
f 152/152/152 153/153/153 151/151/151
f 149/149/149 154/154/154 145/145/145
f 145/145/145 154/154/154 148/148/148
f 149/149/149 153/153/153 154/154/154
f 155/155/155 152/152/152 147/147/147
f 148/148/148 155/155/155 147/147/147
f 154/154/154 155/155/155 148/148/148
f 154/154/154 153/153/153 155/155/155
f 155/155/155 153/153/153 152/152/152
