g mesh_gen_latch
v 0.17656228 0.59691966 -0.46416187
v 0.17656228 0.5713167 -0.43855888
v 0.17656228 0.5713167 -0.26636267
v 0.17656228 0.6301583 -0.25849473
v 0.17656228 0.5643705 -0.24131227
v 0.17656228 0.61974704 -0.22057545
v 0.17656228 0.4472574 -0.05819124
v 0.17656228 0.49276578 -0.022312226
v 0.17656228 0.39744818 -0.0036373748
v 0.17656228 0.434466 0.038825333
v 0.17656228 0.6301583 -0.46416187
v 0.17656228 0.34086573 0.022426544
v 0.17656228 0.34659696 0.08058983
v 0.17656228 0.099926464 0.0807578
v 0.17656228 0.6301583 -0.5430757
v 0.17656228 0.6125076 -0.5607264
v 0.17656228 0.58838534 -0.5607264
v 0.17656228 0.5713167 -0.48830056
v 0.17656228 0.5713167 -0.5365877
v 0.17656228 0.0946052 0.02218896
v 0.17656228 -0.08276952 0.080757916
v 0.17656228 -0.10033847 0.06318897
v 0.17656228 -0.10033847 0.02218884
v 0.17656228 -0.080787785 -0.05231172
v 0.17656228 0.07505452 -0.0523116
v 0.17656228 -0.037443288 -0.08574933
v 0.17656228 0.03171002 -0.08574921
v -0.17656228 0.0946052 0.02218896
v 0.17656228 0.07505452 -0.0523116
v 0.17656228 0.0946052 0.02218896
v -0.17656228 0.07505452 -0.0523116
v -0.17656228 0.03171002 -0.08574921
v 0.17656228 0.03171002 -0.08574921
v 0.17656228 -0.037443288 -0.08574933
v -0.17656228 -0.037443288 -0.08574933
v -0.17656228 -0.080787785 -0.05231172
v 0.17656228 -0.080787785 -0.05231172
v 0.17656228 -0.10033847 0.02218884
v -0.17656228 -0.10033847 0.02218884
v 0.17656228 -0.10033847 0.06318897
v -0.17656228 -0.10033847 0.06318897
v -0.17656228 -0.08276952 0.080757916
v 0.17656228 -0.08276952 0.080757916
v -0.17656228 0.6125076 -0.5607264
v 0.17656228 0.6301583 -0.5430757
v -0.17656228 0.6301583 -0.5430757
v 0.17656228 0.6125076 -0.5607264
v 0.17656228 0.58838534 -0.5607264
v -0.17656228 0.58838534 -0.5607264
v 0.15242356 0.5713167 -0.5607264
v 0.17656228 0.5713167 -0.5365877
v -0.15242356 0.5713167 -0.5607264
v -0.17656228 0.5713167 -0.5365877
v -0.17656228 0.5713167 -0.48830056
v -0.17656228 0.5713167 -0.5365877
v -0.17656228 0.58838534 -0.5607264
v -0.17656228 0.59691966 -0.46416187
v -0.17656228 0.6125076 -0.5607264
v -0.17656228 0.6301583 -0.5430757
v -0.17656228 0.6301583 -0.46416187
v -0.17656228 0.6301583 -0.25849473
v -0.17656228 0.5713167 -0.26636267
v -0.17656228 0.5713167 -0.43855888
v -0.17656228 0.61974704 -0.22057545
v -0.17656228 0.5643705 -0.24131227
v -0.17656228 0.49276578 -0.022312226
v -0.17656228 0.4472574 -0.05819124
v -0.17656228 0.434466 0.038825333
v -0.17656228 0.39771748 -0.003915371
v -0.17656228 0.3408631 0.022408305
v -0.17656228 0.34659696 0.08058995
v -0.17656228 0.099926464 0.0807578
v -0.17656228 0.0946052 0.02218896
v -0.17656228 -0.08276952 0.080757916
v -0.17656228 -0.10033847 0.06318897
v -0.17656228 -0.10033847 0.02218884
v -0.17656228 0.07505452 -0.0523116
v -0.17656228 -0.080787785 -0.05231172
v -0.17656228 0.03171002 -0.08574921
v -0.17656228 -0.037443288 -0.08574933
v -0.15242356 0.5713167 -0.46416187
v -0.17656228 0.59691966 -0.46416187
v -0.17656228 0.5713167 -0.43855888
v -0.17656228 0.5713167 -0.48830056
v 0.17656228 0.5713167 -0.48830056
v 0.15242356 0.5713167 -0.46416187
v 0.17656228 0.59691966 -0.46416187
v 0.17656228 0.5713167 -0.43855888
v 0.15242356 0.5713167 -0.46416187
v -0.15242356 0.5713167 -0.46416187
v -0.17656228 0.5713167 -0.43855888
v 0.17656228 0.5713167 -0.43855888
v 0.17656228 0.5713167 -0.26636267
v -0.17656228 0.5713167 -0.26636267
v -0.17656228 0.5643705 -0.24131227
v 0.17656228 0.5643705 -0.24131227
v -0.17656228 0.4472574 -0.05819124
v 0.17656228 0.4472574 -0.05819124
v -0.17656228 0.39771748 -0.003915371
v 0.17656228 0.39744818 -0.0036373748
v -0.17656228 0.3408631 0.022408305
v 0.17656228 0.34086573 0.022426544
v 0.17656228 0.0946052 0.02218896
v -0.17656228 0.0946052 0.02218896
v -0.17656228 0.49664664 -0.48830056
v -0.17656228 0.5713167 -0.5365877
v -0.17656228 0.5713167 -0.48830056
v -0.15242356 0.5713167 -0.46416187
v -0.17656228 0.49664664 -0.5365877
v -0.15242356 0.49664664 -0.5607264
v -0.15242356 0.5713167 -0.5607264
v 0.15242356 0.5713167 -0.5607264
v -0.15242356 0.49664664 -0.46416187
v 0.15242356 0.49664664 -0.46416187
v 0.15242356 0.5713167 -0.46416187
v 0.17656228 0.5713167 -0.48830056
v -0.157133 0.47666645 -0.52854353
v -0.157133 0.47666645 -0.49634475
v -0.13565055 0.47666645 -0.5446396
v -0.13565055 0.47666645 -0.4802487
v 0.13565055 0.47666645 -0.5446396
v 0.15242356 0.49664664 -0.5607264
v 0.13565055 0.47666645 -0.4802487
v 0.17656228 0.49664664 -0.48830056
v 0.17656228 0.49664664 -0.5365877
v 0.17656228 0.5713167 -0.5365877
v 0.157133 0.47666645 -0.49634475
v 0.157133 0.47666645 -0.52854353
v -0.17656228 0.434466 0.038825333
v -0.15532216 0.3502686 0.09687954
v -0.17656228 0.34659696 0.08058995
v -0.17656228 0.099926464 0.0807578
v -0.15532216 0.44449627 0.052678883
v 0.15532216 0.3502686 0.09687954
v -0.17656228 0.49276578 -0.022312226
v -0.15532216 0.10366332 0.09730619
v -0.15532216 0.5063821 -0.011620941
v -0.17656228 0.61974704 -0.22057545
v -0.15532216 -0.040714867 0.098150074
v -0.17656228 -0.08276952 0.080757916
v 0.15532216 0.10366332 0.09730619
v 0.15532216 -0.040714867 0.098150074
v 0.17656228 -0.08276952 0.080757916
v 0.17656228 0.099926464 0.0807578
v 0.17656228 0.34659696 0.08058983
v 0.17656228 0.434466 0.038825333
v 0.15532216 0.44449627 0.052678883
v 0.15532216 0.5063821 -0.011620941
v 0.17656228 0.49276578 -0.022312226
v 0.15532216 0.6354557 -0.21358293
v 0.17656228 0.61974704 -0.22057545
v -0.15532216 0.6354557 -0.21358293
v -0.17656228 0.6301583 -0.25849473
v -0.15532216 0.64724016 -0.25619233
v -0.17656228 0.6301583 -0.46416187
v 0.15532216 0.64724016 -0.25619233
v 0.17656228 0.6301583 -0.25849473
v 0.15532216 0.64755046 -0.46416187
v 0.17656228 0.6301583 -0.46416187
v -0.15532216 0.64755046 -0.46416187
v -0.17656228 0.6301583 -0.5430757
v 0.15532216 0.64755046 -0.507493
v 0.17656228 0.6301583 -0.5430757
v -0.15532216 0.64755046 -0.507493
vt 0.25 0.65000004
vt 0.25 0.65000004
vt 0.25 0.65000004
vt 0.25 0.65000004
vt 0.25 0.65000004
vt 0.25 0.65000004
vt 0.25 0.65000004
vt 0.25 0.65000004
vt 0.25 0.65000004
vt 0.25 0.65000004
vt 0.25 0.65000004
vt 0.25 0.65000004
vt 0.25 0.65000004
vt 0.25 0.65000004
vt 0.25 0.65000004
vt 0.25 0.65000004
vt 0.25 0.65000004
vt 0.25 0.65000004
vt 0.25 0.65000004
vt 0.25 0.65000004
vt 0.25 0.65000004
vt 0.25 0.65000004
vt 0.25 0.65000004
vt 0.25 0.65000004
vt 0.25 0.65000004
vt 0.25 0.65000004
vt 0.25 0.65000004
vt 0.25 0.65000004
vt 0.25 0.65000004
vt 0.25 0.65000004
vt 0.25 0.65000004
vt 0.25 0.6500001
vt 0.25 0.65000004
vt 0.25 0.65000004
vt 0.25 0.65000004
vt 0.25 0.65000004
vt 0.25 0.65000004
vt 0.25 0.65000004
vt 0.25 0.65000004
vt 0.25 0.65000004
vt 0.25 0.65000004
vt 0.25 0.65
vt 0.25 0.65
vt 0.25 0.65000004
vt 0.25 0.65000004
vt 0.25 0.65000004
vt 0.25 0.65000004
vt 0.25 0.65000004
vt 0.25 0.65000004
vt 0.25 0.65000004
vt 0.25 0.65000004
vt 0.25 0.65000004
vt 0.25 0.65000004
vt 0.25 0.65000004
vt 0.25 0.65000004
vt 0.25 0.65000004
vt 0.25 0.65000004
vt 0.25 0.65000004
vt 0.25 0.65000004
vt 0.25 0.65000004
vt 0.25 0.65000004
vt 0.25 0.65000004
vt 0.25 0.65000004
vt 0.25 0.65000004
vt 0.25 0.65000004
vt 0.25 0.65000004
vt 0.25 0.65000004
vt 0.25 0.65000004
vt 0.25 0.65000004
vt 0.25 0.65000004
vt 0.25 0.65000004
vt 0.25 0.65000004
vt 0.25 0.65000004
vt 0.25 0.65000004
vt 0.25 0.65000004
vt 0.25 0.65000004
vt 0.25 0.65000004
vt 0.25 0.65000004
vt 0.25 0.6500001
vt 0.25 0.65000004
vt 0.25 0.65000004
vt 0.25 0.65000004
vt 0.25 0.65000004
vt 0.25 0.65000004
vt 0.25 0.65000004
vt 0.25 0.65000004
vt 0.25 0.65000004
vt 0.25 0.65000004
vt 0.25 0.65
vt 0.25 0.65000004
vt 0.25 0.65000004
vt 0.25 0.65000004
vt 0.25 0.65000004
vt 0.25 0.65000004
vt 0.25 0.65000004
vt 0.25 0.65000004
vt 0.25 0.65000004
vt 0.25 0.65000004
vt 0.25 0.65000004
vt 0.25 0.65000004
vt 0.25 0.65000004
vt 0.25 0.65000004
vt 0.25 0.65000004
vt 0.25 0.65000004
vt 0.25 0.65000004
vt 0.25 0.65000004
vt 0.25 0.65000004
vt 0.25 0.65000004
vt 0.25 0.65000004
vt 0.25 0.65000004
vt 0.25 0.65000004
vt 0.25 0.65000004
vt 0.25 0.65000004
vt 0.25 0.65000004
vt 0.25 0.65000004
vt 0.25 0.65000004
vt 0.25 0.65000004
vt 0.25 0.65000004
vt 0.25 0.65000004
vt 0.25 0.65000004
vt 0.25 0.65000004
vt 0.25 0.65000004
vt 0.25 0.65000004
vt 0.25 0.65000004
vt 0.25 0.65000004
vt 0.25 0.65000004
vt 0.25 0.65000004
vt 0.25 0.65000004
vt 0.25 0.65000004
vt 0.25 0.65
vt 0.25 0.65000004
vt 0.25 0.65000004
vt 0.25 0.65000004
vt 0.25 0.65
vt 0.25 0.65000004
vt 0.25 0.65000004
vt 0.25 0.65000004
vt 0.25 0.65
vt 0.25 0.65
vt 0.25 0.65
vt 0.25 0.65000004
vt 0.25 0.65
vt 0.25 0.65
vt 0.25 0.65000004
vt 0.25 0.65000004
vt 0.25 0.65000004
vt 0.25 0.65000004
vt 0.25 0.65000004
vt 0.25 0.65000004
vt 0.25 0.65
vt 0.25 0.65
vt 0.25 0.65
vt 0.25 0.65
vt 0.25 0.65
vt 0.25 0.65000004
vt 0.25 0.65
vt 0.25 0.65
vt 0.25 0.65000004
vt 0.25 0.65000004
vt 0.25 0.65000004
vt 0.25 0.65000004
vt 0.25 0.65000004
vt 0.25 0.65000004
vt 0.25 0.65000004
vn 1 0 0
vn 1 0 0
vn 1 0 0
vn 1 0 0
vn 1 0 0
vn 1 0 0
vn 1 0 0
vn 1 0 0
vn 1 0 0
vn 1 0 0
vn 1 0 0
vn 1 0 0
vn 1 0 0
vn 1 0 0
vn 1 0 0
vn 1 0 0
vn 1 0 0
vn 1 0 0
vn 1 0 0
vn 1 0 0
vn 1 0 0
vn 1 0 0
vn 1 0 0
vn 1 0 0
vn 1 0 0
vn 1 0 0
vn 1 0 0
vn -0 0.9672492 -0.25382876
vn -0 0.86401844 -0.50346017
vn -0 0.9672492 -0.25382876
vn -0 0.86401844 -0.50346017
vn -0 0.28491116 -0.9585539
vn -0 0.28491116 -0.9585539
vn -0 -0.28490916 -0.95855457
vn -0 -0.28490916 -0.95855457
vn -0 -0.86401844 -0.5034602
vn -0 -0.86401844 -0.5034602
vn -0 -0.98597485 -0.16689427
vn -0 -0.98597485 -0.16689427
vn -0 -0.9578345 0.28732052
vn -0 -0.9578345 0.28732052
vn -0 -0.7071077 0.7071058
vn -0 -0.7071077 0.7071058
vn -0 0.38921964 -0.921145
vn -0 0.707106 -0.7071075
vn -0 0.707106 -0.7071075
vn -0 0.38921964 -0.921145
vn 0.014833363 -0.02097763 -0.9996699
vn -0.014833363 -0.02097763 -0.9996699
vn 0.013680204 -0.01934681 -0.9997192
vn 0.5000001 -0.7071098 -0.49999556
vn -0.013680204 -0.01934681 -0.9997192
vn -0.5000001 -0.7071098 -0.49999556
vn -1 0 0
vn -1 0 0
vn -1 0 0
vn -1 0 0
vn -1 0 0
vn -1 0 0
vn -1 0 0
vn -1 0 0
vn -1 0 0
vn -1 0 0
vn -1 0 0
vn -1 0 0
vn -1 0 0
vn -1 0 0
vn -1 0 0
vn -1 0 0
vn -1 0 0
vn -1 0 0
vn -1 0 0
vn -1 0 0
vn -1 0 0
vn -1 0 0
vn -1 0 0
vn -1 0 0
vn -1 0 0
vn -1 0 0
vn -1 0 0
vn -0.727595 -0.6859855 -0.0054264166
vn -0.7275924 -0.68598306 -0.0060425014
vn -0.5999996 -0.5656882 -0.5656831
vn -0.58834946 -0.5547018 0.58834594
vn 0.58834946 -0.5547018 0.58834594
vn 0.727595 -0.6859855 -0.0054264166
vn 0.7275924 -0.68598306 -0.0060425014
vn 0.5999996 -0.5656882 -0.5656831
vn -0 -1 0
vn -0 -1 0
vn -0 -1 0
vn -0 -1 0
vn -0 -0.99938047 -0.035194516
vn -0 -0.99938047 -0.035194516
vn -0 -0.85902476 -0.5119341
vn -0 -0.85902476 -0.5119341
vn -0 -0.81840134 -0.574647
vn -0 -0.81840134 -0.574647
vn 9.5153795E-05 -0.60400313 -0.7969819
vn 9.531737E-05 -0.60378766 -0.7971451
vn 6.655349E-05 -0.08538787 -0.99634784
vn 6.655318E-05 -0.0853872 -0.99634784
vn 2.5703406E-05 0.0009277398 -0.99999964
vn 2.5703406E-05 0.0009277398 -0.99999964
vn -0.93291444 -0.17014563 0.3173658
vn -0.9486959 0 -0.31618991
vn -0.9486959 0 0.31618991
vn -0.07317631 0 0.99731904
vn -0.93291444 -0.17014584 -0.31736568
vn -0.07624358 -0.12330282 -0.9894359
vn -0.07317631 0 -0.99731904
vn 0.07317631 0 -0.99731904
vn -0.07624353 -0.12330274 0.9894359
vn 0.07624358 -0.12330282 0.9894359
vn 0.07317631 0 0.99731904
vn 0.9486959 0 0.31618991
vn -0.40905038 -0.8983878 -0.15992872
vn -0.40905023 -0.8983878 0.15992893
vn -0.014050772 -0.94904727 -0.31482047
vn -0.014050722 -0.94904727 0.31482047
vn 0.014050722 -0.94904727 -0.31482047
vn 0.07624353 -0.12330274 -0.9894359
vn 0.014050772 -0.94904727 0.31482047
vn 0.93291444 -0.17014585 0.3173657
vn 0.93291444 -0.17014563 -0.3173658
vn 0.9486959 0 -0.31618991
vn 0.40905035 -0.8983878 0.15992871
vn 0.4090502 -0.8983878 -0.15992892
vn -0.62612516 0.44685468 0.6389744
vn -0.04604779 0.12953961 0.99050444
vn -0.6202183 0.099746466 0.77806157
vn -0.61787426 0.0014250171 0.7862756
vn -0.046469986 0.57025063 0.8201554
vn 0.046048075 0.12953961 0.99050444
vn -0.62835306 0.63258904 0.45277315
vn -0.05325359 0.003139463 0.99857616
vn -0.04909111 0.8116729 0.5820457
vn -0.62938845 0.6725637 0.38926637
vn -0.06589582 -0.10310118 0.99248564
vn -0.08446669 -0.34304944 0.9355119
vn 0.05325378 0.0031394723 0.99857605
vn 0.06589567 -0.103101164 0.99248564
vn 0.0844665 -0.3430494 0.9355119
vn 0.6178752 0.0014251095 0.7862749
vn 0.62022054 0.09974642 0.77805984
vn 0.6261258 0.44685397 0.6389742
vn 0.046470057 0.57025063 0.8201554
vn 0.049091123 0.811673 0.5820456
vn 0.6283534 0.6325888 0.45277286
vn 0.04813045 0.8654875 0.4986129
vn 0.62938887 0.6725634 0.38926613
vn -0.048130415 0.8654875 0.4986129
vn -0.63133526 0.774707 0.035282824
vn -0.04878049 0.9976561 0.047988035
vn -0.6309329 0.7758371 0.00044944687
vn 0.048780497 0.9976561 0.04798803
vn 0.63133544 0.77470696 0.035282798
vn 0.055149533 0.9984774 0.0011882937
vn 0.6309329 0.7758371 0.00044944676
vn -0.05514953 0.9984774 0.0011882937
vn -0.04668138 0.9081541 -0.41602543
vn 0.052574333 0.9700741 -0.23704898
vn 0.04668138 0.9081541 -0.41602543
vn -0.052574333 0.9700741 -0.23704898
g mesh_gen_latch_0
f 3/3/3 2/2/2 1/1/1
f 4/4/4 3/3/3 1/1/1
f 5/5/5 3/3/3 4/4/4
f 6/6/6 5/5/5 4/4/4
f 7/7/7 5/5/5 6/6/6
f 8/8/8 7/7/7 6/6/6
f 9/9/9 7/7/7 8/8/8
f 10/10/10 9/9/9 8/8/8
f 4/4/4 1/1/1 11/11/11
f 12/12/12 9/9/9 10/10/10
f 13/13/13 12/12/12 10/10/10
f 13/13/13 14/14/14 12/12/12
f 1/1/1 15/15/15 11/11/11
f 1/1/1 16/16/16 15/15/15
f 1/1/1 17/17/17 16/16/16
f 1/1/1 18/18/18 17/17/17
f 18/18/18 19/19/19 17/17/17
f 14/14/14 20/20/20 12/12/12
f 21/21/21 20/20/20 14/14/14
f 21/21/21 22/22/22 20/20/20
f 22/22/22 23/23/23 20/20/20
f 23/23/23 24/24/24 20/20/20
f 24/24/24 25/25/25 20/20/20
f 24/24/24 26/26/26 25/25/25
f 26/26/26 27/27/27 25/25/25
f 30/30/30 29/29/29 28/28/28
f 29/29/29 31/31/31 28/28/28
f 31/31/31 29/29/29 32/32/32
f 29/29/29 33/33/33 32/32/32
f 32/32/32 33/33/33 34/34/34
f 35/35/35 32/32/32 34/34/34
f 35/35/35 34/34/34 36/36/36
f 34/34/34 37/37/37 36/36/36
f 36/36/36 37/37/37 38/38/38
f 39/39/39 36/36/36 38/38/38
f 39/39/39 38/38/38 40/40/40
f 41/41/41 39/39/39 40/40/40
f 41/41/41 40/40/40 42/42/42
f 40/40/40 43/43/43 42/42/42
f 46/46/46 45/45/45 44/44/44
f 45/45/45 47/47/47 44/44/44
f 47/47/47 48/48/48 44/44/44
f 48/48/48 49/49/49 44/44/44
f 48/48/48 50/50/50 49/49/49
f 51/51/51 50/50/50 48/48/48
f 50/50/50 52/52/52 49/49/49
f 52/52/52 53/53/53 49/49/49
f 56/56/56 55/55/55 54/54/54
f 57/57/57 56/56/56 54/54/54
f 57/57/57 58/58/58 56/56/56
f 57/57/57 59/59/59 58/58/58
f 57/57/57 60/60/60 59/59/59
f 60/60/60 57/57/57 61/61/61
f 57/57/57 62/62/62 61/61/61
f 57/57/57 63/63/63 62/62/62
f 61/61/61 62/62/62 64/64/64
f 62/62/62 65/65/65 64/64/64
f 64/64/64 65/65/65 66/66/66
f 65/65/65 67/67/67 66/66/66
f 66/66/66 67/67/67 68/68/68
f 67/67/67 69/69/69 68/68/68
f 68/68/68 69/69/69 70/70/70
f 71/71/71 68/68/68 70/70/70
f 71/71/71 70/70/70 72/72/72
f 70/70/70 73/73/73 72/72/72
f 74/74/74 72/72/72 73/73/73
f 74/74/74 73/73/73 75/75/75
f 73/73/73 76/76/76 75/75/75
f 73/73/73 77/77/77 76/76/76
f 77/77/77 78/78/78 76/76/76
f 77/77/77 79/79/79 78/78/78
f 79/79/79 80/80/80 78/78/78
f 83/83/83 82/82/82 81/81/81
f 82/82/82 84/84/84 81/81/81
f 87/87/87 86/86/86 85/85/85
f 87/87/87 88/88/88 86/86/86
f 91/91/91 90/90/90 89/89/89
f 92/92/92 91/91/91 89/89/89
f 92/92/92 93/93/93 91/91/91
f 93/93/93 94/94/94 91/91/91
f 94/94/94 93/93/93 95/95/95
f 93/93/93 96/96/96 95/95/95
f 97/97/97 95/95/95 96/96/96
f 98/98/98 97/97/97 96/96/96
f 97/97/97 98/98/98 99/99/99
f 98/98/98 100/100/100 99/99/99
f 101/101/101 99/99/99 100/100/100
f 102/102/102 101/101/101 100/100/100
f 102/102/102 103/103/103 101/101/101
f 103/103/103 104/104/104 101/101/101
f 107/107/107 106/106/106 105/105/105
f 107/107/107 105/105/105 108/108/108
f 106/106/106 109/109/109 105/105/105
f 110/110/110 109/109/109 106/106/106
f 111/111/111 110/110/110 106/106/106
f 111/111/111 112/112/112 110/110/110
f 105/105/105 113/113/113 108/108/108
f 108/108/108 113/113/113 114/114/114
f 115/115/115 108/108/108 114/114/114
f 115/115/115 114/114/114 116/116/116
f 109/109/109 117/117/117 105/105/105
f 105/105/105 118/118/118 113/113/113
f 117/117/117 118/118/118 105/105/105
f 119/119/119 117/117/117 109/109/109
f 118/118/118 117/117/117 119/119/119
f 110/110/110 119/119/119 109/109/109
f 118/118/118 120/120/120 113/113/113
f 120/120/120 118/118/118 119/119/119
f 113/113/113 120/120/120 114/114/114
f 121/121/121 119/119/119 110/110/110
f 120/120/120 119/119/119 121/121/121
f 112/112/112 122/122/122 110/110/110
f 122/122/122 121/121/121 110/110/110
f 120/120/120 123/123/123 114/114/114
f 123/123/123 120/120/120 121/121/121
f 114/114/114 124/124/124 116/116/116
f 114/114/114 123/123/123 124/124/124
f 125/125/125 122/122/122 112/112/112
f 116/116/116 124/124/124 125/125/125
f 126/126/126 125/125/125 112/112/112
f 126/126/126 116/116/116 125/125/125
f 123/123/123 127/127/127 124/124/124
f 123/123/123 121/121/121 127/127/127
f 124/124/124 127/127/127 125/125/125
f 128/128/128 121/121/121 122/122/122
f 125/125/125 128/128/128 122/122/122
f 121/121/121 128/128/128 127/127/127
f 127/127/127 128/128/128 125/125/125
f 131/131/131 130/130/130 129/129/129
f 131/131/131 132/132/132 130/130/130
f 130/130/130 133/133/133 129/129/129
f 130/130/130 134/134/134 133/133/133
f 129/129/129 133/133/133 135/135/135
f 132/132/132 136/136/136 130/130/130
f 130/130/130 136/136/136 134/134/134
f 133/133/133 137/137/137 135/135/135
f 135/135/135 137/137/137 138/138/138
f 139/139/139 136/136/136 132/132/132
f 140/140/140 139/139/139 132/132/132
f 141/141/141 136/136/136 139/139/139
f 136/136/136 141/141/141 134/134/134
f 142/142/142 139/139/139 140/140/140
f 142/142/142 141/141/141 139/139/139
f 143/143/143 142/142/142 140/140/140
f 141/141/141 142/142/142 143/143/143
f 144/144/144 141/141/141 143/143/143
f 134/134/134 141/141/141 144/144/144
f 145/145/145 134/134/134 144/144/144
f 145/145/145 146/146/146 134/134/134
f 134/134/134 147/147/147 133/133/133
f 146/146/146 147/147/147 134/134/134
f 133/133/133 147/147/147 137/137/137
f 148/148/148 147/147/147 146/146/146
f 147/147/147 148/148/148 137/137/137
f 149/149/149 148/148/148 146/146/146
f 150/150/150 148/148/148 149/149/149
f 148/148/148 150/150/150 137/137/137
f 151/151/151 150/150/150 149/149/149
f 150/150/150 152/152/152 137/137/137
f 137/137/137 152/152/152 138/138/138
f 138/138/138 152/152/152 153/153/153
f 152/152/152 154/154/154 153/153/153
f 152/152/152 150/150/150 154/154/154
f 153/153/153 154/154/154 155/155/155
f 156/156/156 150/150/150 151/151/151
f 150/150/150 156/156/156 154/154/154
f 157/157/157 156/156/156 151/151/151
f 158/158/158 156/156/156 157/157/157
f 156/156/156 158/158/158 154/154/154
f 159/159/159 158/158/158 157/157/157
f 154/154/154 160/160/160 155/155/155
f 158/158/158 160/160/160 154/154/154
f 155/155/155 160/160/160 161/161/161
f 162/162/162 158/158/158 159/159/159
f 158/158/158 162/162/162 160/160/160
f 163/163/163 162/162/162 159/159/159
f 161/161/161 164/164/164 163/163/163
f 160/160/160 164/164/164 161/161/161
f 162/162/162 164/164/164 160/160/160
f 164/164/164 162/162/162 163/163/163
