g mesh_stageLight_beam
v 0.36001065 -0.20785318 1.3507495
v 0.20056576 -0.11579743 0
v 0.115797356 -0.2005658 0
v 0.20785314 -0.36001068 1.3507495
v 0.5427762 -0.31337327 2.899062
v -0 -0.23159476 0
v 0.31337315 -0.5427762 2.899062
v 0.725965 -0.4191376 4.4509606
v -0 -0.41570634 1.3507495
v -0.115797356 -0.2005658 0
v 0.4191376 -0.72596514 4.4509606
v 0.87042636 -0.5025427 5.674775
v 0.50254256 -0.87042636 5.674775
v -0.20785314 -0.36001068 1.3507495
v -0.20056576 -0.11579743 0
v -0 -0.6267463 2.899062
v -0 -0.83827525 4.4509606
v -0 -1.005085 5.674775
v -0.36001065 -0.20785318 1.3507495
v -0.23159471 -3.576279E-08 0
v -0.31337315 -0.5427762 2.899062
v -0.4191376 -0.72596514 4.4509606
v -0.50254256 -0.87042636 5.674775
v -0.41570628 -3.576279E-08 1.3507495
v -0.20056576 0.11579737 0
v -0.5427762 -0.31337327 2.899062
v -0.725965 -0.4191376 4.4509606
v -0.87042636 -0.5025427 5.674775
v -0.36001065 0.2078531 1.3507495
v -0.115797356 0.20056571 0
v -0.6267463 -3.576279E-08 2.899062
v -0.8382752 -3.576279E-08 4.4509606
v -1.0050851 -3.576279E-08 5.674775
v -0.20785314 0.36001062 1.3507495
v -0 0.23159467 0
v -0.5427762 0.31337312 2.899062
v -0.725965 0.41913754 4.4509606
v -0.87042636 0.5025425 5.674775
v -0 0.41570622 1.3507495
v 0.115797356 0.20056571 0
v -0.31337315 0.54277617 2.899062
v -0.4191376 0.725965 4.4509606
v -0.50254256 0.87042636 5.674775
v 0.20785314 0.36001062 1.3507495
v 0.20056576 0.11579737 0
v -0 0.6267463 2.899062
v -0 0.8382752 4.4509606
v -0 1.0050851 5.674775
v 0.36001065 0.2078531 1.3507495
v 0.23159471 -3.576279E-08 0
v 0.31337315 0.54277617 2.899062
v 0.4191376 0.725965 4.4509606
v 0.50254256 0.87042636 5.674775
v 0.41570628 -3.576279E-08 1.3507495
v 0.20056576 -0.11579743 0
v 0.36001065 -0.20785318 1.3507495
v 0.5427762 0.31337312 2.899062
v 0.725965 0.41913754 4.4509606
v 0.87042636 0.5025425 5.674775
v 0.6267463 -3.576279E-08 2.899062
v 0.5427762 -0.31337327 2.899062
v 0.8382752 -3.576279E-08 4.4509606
v 1.0050851 -3.576279E-08 5.674775
v 0.725965 -0.4191376 4.4509606
v 0.87042636 -0.5025427 5.674775
v 0.20056576 -0.11579743 0
v 0.20056576 -0.11579743 -0.16660754
v 0.115797356 -0.2005658 -0.16660754
v 0.115797356 -0.2005658 0
v 0.23159471 -3.576279E-08 0
v -0 -0.23159476 -0.16660754
v 0.23159471 -3.576279E-08 -0.16660754
v -0 -0.23159476 0
v 0.20056576 0.11579737 0
v -0.115797356 -0.2005658 -0.16660754
v 0.20056576 0.11579737 -0.16660754
v -0.115797356 -0.2005658 0
v 0.115797356 0.20056571 0
v -0.20056576 -0.11579743 -0.16660754
v 0.115797356 0.20056571 -0.16660754
v -0.20056576 -0.11579743 0
v -0 0.23159467 0
v -0.23159471 -3.576279E-08 -0.16660754
v -0 0.23159467 -0.16660754
v -0.23159471 -3.576279E-08 0
v -0.115797356 0.20056571 0
v -0.20056576 0.11579737 -0.16660754
v -0.115797356 0.20056571 -0.16660754
v -0.20056576 0.11579737 0
vt 0.0015429854 0.76048744
vt 0.0015429854 0.9967375
vt 0.084619194 0.9967375
vt 0.08461928 0.76048744
vt 0.0015429854 0.48968297
vt 0.16769534 0.9967375
vt 0.08461928 0.48968297
vt 0.0015429854 0.21825126
vt 0.16769534 0.76048744
vt 0.2507716 0.9967375
vt 0.084619194 0.21825126
vt 0.0015429854 0.004202366
vt 0.084619194 0.004202366
vt 0.25077176 0.76048744
vt 0.33384788 0.9967375
vt 0.16769534 0.48968297
vt 0.16769534 0.21825126
vt 0.16769534 0.004202366
vt 0.33384788 0.76048744
vt 0.4169241 0.9967375
vt 0.25077176 0.48968297
vt 0.2507716 0.21825126
vt 0.2507716 0.004202366
vt 0.41692424 0.76048744
vt 0.50000036 0.9967375
vt 0.33384788 0.48968297
vt 0.33384788 0.21825126
vt 0.33384788 0.004202366
vt 0.50000036 0.76048744
vt 0.5830765 0.9967375
vt 0.41692424 0.48968297
vt 0.41692394 0.21825126
vt 0.4169241 0.004202366
vt 0.5830765 0.76048744
vt 0.6661526 0.9967375
vt 0.50000036 0.48968297
vt 0.50000036 0.21825126
vt 0.50000036 0.004202366
vt 0.6661526 0.76048744
vt 0.7492287 0.9967375
vt 0.5830765 0.48968297
vt 0.5830765 0.21825126
vt 0.5830765 0.004202366
vt 0.7492287 0.76048744
vt 0.83230484 0.9967375
vt 0.6661526 0.48968297
vt 0.66615236 0.21825126
vt 0.6661526 0.004202366
vt 0.83230484 0.76048744
vt 0.9153809 0.9967375
vt 0.7492287 0.48968297
vt 0.7492287 0.21825126
vt 0.7492287 0.004202366
vt 0.9153809 0.76048744
vt 0.99845695 0.9967375
vt 0.99845695 0.76048744
vt 0.83230484 0.48968297
vt 0.83230484 0.21825126
vt 0.83230484 0.004202366
vt 0.9153809 0.48968297
vt 0.99845695 0.48968297
vt 0.9153809 0.21825126
vt 0.9153809 0.004202366
vt 0.99845684 0.21825126
vt 0.99845695 0.004202366
vt 0.6353165 1
vt 0.6353165 1
vt 0.578125 1
vt 0.578125 1
vt 0.65625 1
vt 0.5 1
vt 0.65625 1
vt 0.5 1
vt 0.6353165 1
vt 0.421875 1
vt 0.6353165 1
vt 0.421875 1
vt 0.578125 1
vt 0.36468354 1
vt 0.578125 1
vt 0.36468354 1
vt 0.5 1
vt 0.34375 1
vt 0.5 1
vt 0.34375 1
vt 0.421875 1
vt 0.36468354 1
vt 0.421875 1
vt 0.36468354 1
vn 0.85809016 -0.49542072 -0.13505419
vn 0.8592869 -0.49611217 -0.12449376
vn 0.496112 -0.859287 -0.12449382
vn 0.49542063 -0.8580903 -0.1350542
vn 0.8580903 -0.49542043 -0.13505416
vn -0 -0.99222034 -0.1244943
vn 0.4954205 -0.8580903 -0.13505417
vn 0.8580903 -0.4954205 -0.1350542
vn -0 -0.9908381 -0.13505457
vn -0.496112 -0.859287 -0.12449379
vn 0.49542043 -0.8580903 -0.13505417
vn 0.8580903 -0.4954205 -0.13505425
vn 0.49542037 -0.85809034 -0.13505417
vn -0.49542058 -0.8580903 -0.13505423
vn -0.8592869 -0.49611217 -0.12449374
vn -0 -0.9908381 -0.13505453
vn -0 -0.9908381 -0.13505451
vn -0 -0.9908382 -0.13505448
vn -0.85809016 -0.49542072 -0.13505419
vn -0.99222034 0 -0.124494195
vn -0.49542043 -0.8580903 -0.1350542
vn -0.49542037 -0.85809034 -0.1350542
vn -0.49542037 -0.85809034 -0.13505417
vn -0.9908381 0 -0.13505457
vn -0.8592869 0.49611217 -0.12449379
vn -0.8580903 -0.49542055 -0.13505423
vn -0.8580903 -0.49542043 -0.1350542
vn -0.8580903 -0.4954204 -0.13505423
vn -0.8580901 0.49542078 -0.13505416
vn -0.496112 0.859287 -0.124493785
vn -0.9908381 0 -0.13505456
vn -0.9908381 0 -0.13505456
vn -0.9908381 0 -0.13505457
vn -0.49542072 0.85809016 -0.13505417
vn -0 0.99222034 -0.124494195
vn -0.8580903 0.4954205 -0.13505417
vn -0.8580903 0.49542043 -0.1350542
vn -0.85809034 0.4954203 -0.13505422
vn -0 0.9908381 -0.13505457
vn 0.496112 0.859287 -0.12449377
vn -0.4954205 0.8580903 -0.13505417
vn -0.4954204 0.8580903 -0.1350542
vn -0.49542037 0.85809034 -0.13505423
vn 0.49542075 0.8580901 -0.13505417
vn 0.8592869 0.49611217 -0.12449378
vn -0 0.9908381 -0.13505453
vn -0 0.9908381 -0.13505453
vn -0 0.9908381 -0.13505456
vn 0.85809016 0.49542072 -0.13505417
vn 0.99222034 0 -0.124494195
vn 0.49542055 0.8580903 -0.13505417
vn 0.49542043 0.8580903 -0.1350542
vn 0.49542037 0.85809034 -0.13505423
vn 0.9908381 0 -0.13505456
vn 0.8592869 -0.49611217 -0.12449376
vn 0.85809016 -0.49542072 -0.13505419
vn 0.8580903 0.4954205 -0.13505416
vn 0.8580903 0.49542043 -0.1350542
vn 0.85809034 0.4954203 -0.13505422
vn 0.9908381 0 -0.13505454
vn 0.8580903 -0.49542043 -0.13505416
vn 0.9908381 0 -0.13505453
vn 0.9908381 0 -0.13505457
vn 0.8580903 -0.4954205 -0.1350542
vn 0.8580903 -0.4954205 -0.13505425
vn 0.8592869 -0.49611217 -0.12449376
vn 0.8660242 -0.50000215 0
vn 0.50000197 -0.86602426 0
vn 0.496112 -0.859287 -0.12449382
vn 0.99222034 0 -0.124494195
vn -0 -1 0
vn 1 0 0
vn -0 -0.99222034 -0.1244943
vn 0.8592869 0.49611217 -0.12449378
vn -0.50000197 -0.86602426 0
vn 0.8660242 0.50000215 0
vn -0.496112 -0.859287 -0.12449379
vn 0.496112 0.859287 -0.12449377
vn -0.8660242 -0.50000215 0
vn 0.50000197 0.86602426 0
vn -0.8592869 -0.49611217 -0.12449374
vn -0 0.99222034 -0.124494195
vn -1 0 0
vn -0 1 0
vn -0.99222034 0 -0.124494195
vn -0.496112 0.859287 -0.124493785
vn -0.8660242 0.50000215 0
vn -0.50000197 0.86602426 0
vn -0.8592869 0.49611217 -0.12449379
g mesh_stageLight_beam_0
f 3/3/3 2/2/2 1/1/1
f 4/4/4 3/3/3 1/1/1
f 4/4/4 1/1/1 5/5/5
f 6/6/6 3/3/3 4/4/4
f 7/7/7 4/4/4 5/5/5
f 7/7/7 5/5/5 8/8/8
f 9/9/9 6/6/6 4/4/4
f 9/9/9 4/4/4 7/7/7
f 10/10/10 6/6/6 9/9/9
f 11/11/11 7/7/7 8/8/8
f 11/11/11 8/8/8 12/12/12
f 13/13/13 11/11/11 12/12/12
f 14/14/14 10/10/10 9/9/9
f 15/15/15 10/10/10 14/14/14
f 16/16/16 9/9/9 7/7/7
f 16/16/16 7/7/7 11/11/11
f 14/14/14 9/9/9 16/16/16
f 17/17/17 11/11/11 13/13/13
f 17/17/17 16/16/16 11/11/11
f 18/18/18 17/17/17 13/13/13
f 19/19/19 15/15/15 14/14/14
f 20/20/20 15/15/15 19/19/19
f 21/21/21 14/14/14 16/16/16
f 21/21/21 16/16/16 17/17/17
f 19/19/19 14/14/14 21/21/21
f 22/22/22 17/17/17 18/18/18
f 22/22/22 21/21/21 17/17/17
f 23/23/23 22/22/22 18/18/18
f 24/24/24 20/20/20 19/19/19
f 25/25/25 20/20/20 24/24/24
f 26/26/26 19/19/19 21/21/21
f 26/26/26 21/21/21 22/22/22
f 24/24/24 19/19/19 26/26/26
f 27/27/27 22/22/22 23/23/23
f 27/27/27 26/26/26 22/22/22
f 28/28/28 27/27/27 23/23/23
f 29/29/29 25/25/25 24/24/24
f 30/30/30 25/25/25 29/29/29
f 31/31/31 24/24/24 26/26/26
f 31/31/31 26/26/26 27/27/27
f 29/29/29 24/24/24 31/31/31
f 32/32/32 27/27/27 28/28/28
f 32/32/32 31/31/31 27/27/27
f 33/33/33 32/32/32 28/28/28
f 34/34/34 30/30/30 29/29/29
f 35/35/35 30/30/30 34/34/34
f 36/36/36 29/29/29 31/31/31
f 36/36/36 31/31/31 32/32/32
f 34/34/34 29/29/29 36/36/36
f 37/37/37 32/32/32 33/33/33
f 37/37/37 36/36/36 32/32/32
f 38/38/38 37/37/37 33/33/33
f 39/39/39 35/35/35 34/34/34
f 40/40/40 35/35/35 39/39/39
f 41/41/41 34/34/34 36/36/36
f 41/41/41 36/36/36 37/37/37
f 39/39/39 34/34/34 41/41/41
f 42/42/42 37/37/37 38/38/38
f 42/42/42 41/41/41 37/37/37
f 43/43/43 42/42/42 38/38/38
f 44/44/44 40/40/40 39/39/39
f 45/45/45 40/40/40 44/44/44
f 46/46/46 39/39/39 41/41/41
f 46/46/46 41/41/41 42/42/42
f 44/44/44 39/39/39 46/46/46
f 47/47/47 42/42/42 43/43/43
f 47/47/47 46/46/46 42/42/42
f 48/48/48 47/47/47 43/43/43
f 49/49/49 45/45/45 44/44/44
f 50/50/50 45/45/45 49/49/49
f 51/51/51 44/44/44 46/46/46
f 51/51/51 46/46/46 47/47/47
f 49/49/49 44/44/44 51/51/51
f 52/52/52 47/47/47 48/48/48
f 52/52/52 51/51/51 47/47/47
f 53/53/53 52/52/52 48/48/48
f 54/54/54 50/50/50 49/49/49
f 55/55/55 50/50/50 54/54/54
f 56/56/56 55/55/55 54/54/54
f 57/57/57 49/49/49 51/51/51
f 57/57/57 51/51/51 52/52/52
f 54/54/54 49/49/49 57/57/57
f 58/58/58 52/52/52 53/53/53
f 58/58/58 57/57/57 52/52/52
f 59/59/59 58/58/58 53/53/53
f 56/56/56 54/54/54 60/60/60
f 60/60/60 54/54/54 57/57/57
f 60/60/60 57/57/57 58/58/58
f 61/61/61 56/56/56 60/60/60
f 62/62/62 58/58/58 59/59/59
f 62/62/62 60/60/60 58/58/58
f 61/61/61 60/60/60 62/62/62
f 63/63/63 62/62/62 59/59/59
f 64/64/64 61/61/61 62/62/62
f 64/64/64 62/62/62 63/63/63
f 65/65/65 64/64/64 63/63/63
f 68/68/68 67/67/67 66/66/66
f 69/69/69 68/68/68 66/66/66
f 66/66/66 67/67/67 70/70/70
f 71/71/71 68/68/68 69/69/69
f 67/67/67 72/72/72 70/70/70
f 73/73/73 71/71/71 69/69/69
f 70/70/70 72/72/72 74/74/74
f 75/75/75 71/71/71 73/73/73
f 72/72/72 76/76/76 74/74/74
f 77/77/77 75/75/75 73/73/73
f 74/74/74 76/76/76 78/78/78
f 79/79/79 75/75/75 77/77/77
f 76/76/76 80/80/80 78/78/78
f 81/81/81 79/79/79 77/77/77
f 78/78/78 80/80/80 82/82/82
f 83/83/83 79/79/79 81/81/81
f 80/80/80 84/84/84 82/82/82
f 85/85/85 83/83/83 81/81/81
f 82/82/82 84/84/84 86/86/86
f 87/87/87 83/83/83 85/85/85
f 84/84/84 88/88/88 86/86/86
f 89/89/89 87/87/87 85/85/85
f 86/86/86 88/88/88 89/89/89
f 88/88/88 87/87/87 89/89/89
