g nestChicken01
v 0.18571045 0.08069636 -0.361792
v 0.46838623 0.2427051 -0.3042456
v 0.32009766 0.08069636 -0.20829101
v 0.2741089 0.2427051 -0.5261523
v -0.0039160154 0.08069636 -0.4056201
v 0.62663573 0.30000004 -0.41603026
v -0.0039160154 0.2427051 -0.56923825
v -0.1754956 0.08069636 -0.33847657
v 0.36781737 0.30000004 -0.6951416
v 0.7838794 0.24270514 -0.5277881
v -0.251958 0.2427051 -0.47217283
v -0.30109617 0.08069636 -0.19094482
v -0.0039160154 0.30000004 -0.74557614
v 0.46052 0.24270514 -0.8588989
v 0.881062 0.092705116 -0.59685546
v -0.43353516 0.2427051 -0.25889403
v -0.3470703 0.08069636 -0.0025585936
v -0.33911622 0.30000004 -0.61793697
v -0.0039160154 0.24270514 -0.9219116
v 0.5178125 0.092705116 -0.9601074
v 0.881062 -0.092705116 -0.59685546
v -0.50225586 0.2427051 0.010065918
v -0.31772947 0.08069636 0.16182129
v -0.5838574 0.30000004 -0.3434863
v -0.43052 0.24270514 -0.76520264
v -0.0039160154 0.092705116 -1.0308911
v 0.5178125 -0.092705116 -0.9601074
v 0.7838794 -0.24270518 -0.5277881
v 0.46052 -0.24270518 -0.8588989
v -0.0039160154 -0.092705116 -1.0308911
v -0.0039160154 -0.24270518 -0.9219116
v -0.4683838 0.2427051 0.24835448
v -0.19202147 0.08069636 0.27562988
v -0.6785913 0.30000004 0.010065918
v -0.7365674 0.24270514 -0.43165526
v -0.48857176 0.092705116 -0.85676754
v -0.48857176 -0.092705116 -0.85676754
v -0.43052 -0.24270518 -0.76520264
v -0.28665528 0.2427051 0.4128784
v -0.0036328125 0.08069636 0.30837646
v -0.626582 0.30000004 0.33120117
v -0.85492676 0.24270514 0.010065918
v -0.8309472 0.092705116 -0.48614502
v -0.8309472 -0.092705116 -0.48614502
v -0.7365674 -0.24270518 -0.43165526
v -0.0035351561 0.2427051 0.46485594
v 0.17335694 0.08069636 0.28009278
v -0.38439453 0.30000004 0.56831783
v -0.777771 0.24270514 0.41104734
v -0.9639087 0.092705116 0.010065918
v -0.9639087 -0.092705116 0.010065918
v -0.85492676 -0.24270518 0.010065918
v 0.24814208 0.2427051 0.41695067
v 0.3076416 0.08069636 0.17225586
v -0.0035351561 0.30000004 0.64119136
v -0.47937012 0.24270514 0.7264819
v -0.86878175 0.092705116 0.4603491
v -0.86878175 -0.092705116 0.4603491
v -0.777771 -0.24270518 0.41104734
v 0.44226804 0.2427051 0.2610547
v 0.36323485 0.08069636 0.013752441
v 0.3303418 0.30000004 0.57292724
v -0.0035351561 0.24270514 0.8175268
v -0.53806883 0.092705116 0.8242309
v -0.53806883 -0.092705116 0.8242309
v -0.47937012 -0.24270518 0.7264819
v 0.52685547 0.2427051 0.032109376
v 0.32009766 0.08069636 -0.20829101
v 0.46838623 0.2427051 -0.3042456
v 0.5896411 0.30000004 0.35328367
v 0.7031909 0.30000004 0.032109376
v 0.62663573 0.30000004 -0.41603026
v 0.4136035 0.24270514 0.7322363
v -0.0035351561 0.092705116 0.9265088
v -0.0035351561 -0.092705116 0.9265088
v -0.0035351561 -0.24270518 0.8175268
v 0.8795264 0.24270514 0.032109376
v 0.7838794 0.24270514 -0.5277881
v 0.73863035 0.24270514 0.45143554
v 0.46506345 0.092705116 0.83069825
v 0.46506345 -0.092705116 0.83069825
v 0.4136035 -0.24270518 0.7322363
v 0.8309033 0.092705116 0.5157007
v 0.98850584 0.092705116 0.032109376
v 0.881062 0.092705116 -0.59685546
v 0.8309033 -0.092705116 0.5157007
v 0.73863035 -0.24270518 0.45143554
v 0.98850584 -0.092705116 0.032109376
v 0.881062 -0.092705116 -0.59685546
v 0.8795264 -0.24270518 0.032109376
v 0.7838794 -0.24270518 -0.5277881
v 0.18571045 0.08069636 -0.361792
v 0.32009766 0.08069636 -0.20829101
v 0.25811768 -0.014860186 -0.17147705
v 0.14905272 -0.014860186 -0.2960547
v -0.0039160154 0.08069636 -0.4056201
v -0.0039160154 -0.014860186 -0.33643797
v -0.1754956 0.08069636 -0.33847657
v -0.14316162 -0.014860186 -0.28194335
v -0.30109617 0.08069636 -0.19094482
v -0.24509765 -0.014860186 -0.16221435
v -0.3470703 0.08069636 -0.0025585936
v -0.28240967 -0.014860186 -0.00932373
v -0.31772947 0.08069636 0.16182129
v -0.25603026 -0.014860186 0.124729
v -0.19202147 0.08069636 0.27562988
v -0.15401366 -0.014860186 0.21709228
v -0.0036328125 0.08069636 0.30837646
v -0.0036889648 -0.014860186 0.24301757
v 0.17335694 0.08069636 0.28009278
v 0.14095458 -0.014860186 0.22127685
v 0.3076416 0.08069636 0.17225586
v 0.24993408 -0.014860186 0.13375732
v 0.36323485 0.08069636 0.013752441
v 0.29405272 -0.014860186 0.003913574
v 0.32009766 0.08069636 -0.20829101
v 0.25811768 -0.014860186 -0.17147705
v -0.25603026 -0.014860186 0.124729
v -0.0039160154 -0.014860186 -0.038469236
v -0.15401366 -0.014860186 0.21709228
v -0.24509765 -0.014860186 -0.16221435
v -0.0036889648 -0.014860186 0.24301757
v -0.14316162 -0.014860186 -0.28194335
v 0.14095458 -0.014860186 0.22127685
v -0.0039160154 -0.014860186 -0.33643797
v 0.24993408 -0.014860186 0.13375732
v 0.14905272 -0.014860186 -0.2960547
v 0.29405272 -0.014860186 0.003913574
v 0.25811768 -0.014860186 -0.17147705
vt 0.083333336 0.95
vt 0 0.84999996
vt 0 0.95
vt 0.083333336 0.84999996
vt 0.16666667 0.95
vt 0 0.74999994
vt 0.16666667 0.84999996
vt 0.25 0.95
vt 0.083333336 0.74999994
vt 0 0.6499999
vt 0.25 0.84999996
vt 0.33333334 0.95
vt 0.16666667 0.74999994
vt 0.083333336 0.6499999
vt 0 0.5499999
vt 0.33333334 0.84999996
vt 0.4166667 0.95
vt 0.25 0.74999994
vt 0.16666667 0.6499999
vt 0.083333336 0.5499999
vt 0 0.44999987
vt 0.4166667 0.84999996
vt 0.5 0.95
vt 0.33333334 0.74999994
vt 0.25 0.6499999
vt 0.16666667 0.5499999
vt 0.083333336 0.44999987
vt 0 0.34999985
vt 0.083333336 0.34999985
vt 0.16666667 0.44999987
vt 0.16666667 0.34999985
vt 0.5 0.84999996
vt 0.5833333 0.95
vt 0.4166667 0.74999994
vt 0.33333334 0.6499999
vt 0.25 0.5499999
vt 0.25 0.44999987
vt 0.25 0.34999985
vt 0.5833333 0.84999996
vt 0.6666666 0.95
vt 0.5 0.74999994
vt 0.4166667 0.6499999
vt 0.33333334 0.5499999
vt 0.33333334 0.44999987
vt 0.33333334 0.34999985
vt 0.6666666 0.84999996
vt 0.74999994 0.95
vt 0.5833333 0.74999994
vt 0.5 0.6499999
vt 0.4166667 0.5499999
vt 0.4166667 0.44999987
vt 0.4166667 0.34999985
vt 0.74999994 0.84999996
vt 0.83333325 0.95
vt 0.6666666 0.74999994
vt 0.5833333 0.6499999
vt 0.5 0.5499999
vt 0.5 0.44999987
vt 0.5 0.34999985
vt 0.83333325 0.84999996
vt 0.91666657 0.95
vt 0.74999994 0.74999994
vt 0.6666666 0.6499999
vt 0.5833333 0.5499999
vt 0.5833333 0.44999987
vt 0.5833333 0.34999985
vt 0.91666657 0.84999996
vt 0.9999999 0.95
vt 0.9999999 0.84999996
vt 0.83333325 0.74999994
vt 0.91666657 0.74999994
vt 0.9999999 0.74999994
vt 0.74999994 0.6499999
vt 0.6666666 0.5499999
vt 0.6666666 0.44999987
vt 0.6666666 0.34999985
vt 0.91666657 0.6499999
vt 0.9999999 0.6499999
vt 0.83333325 0.6499999
vt 0.74999994 0.5499999
vt 0.74999994 0.44999987
vt 0.74999994 0.34999985
vt 0.83333325 0.5499999
vt 0.91666657 0.5499999
vt 0.9999999 0.5499999
vt 0.83333325 0.44999987
vt 0.83333325 0.34999985
vt 0.91666657 0.44999987
vt 0.9999999 0.44999987
vt 0.91666657 0.34999985
vt 0.9999999 0.34999985
vt 0.083333336 0.95
vt 0 0.95
vt 0 0.049999844
vt 0.083333336 0.049999844
vt 0.16666667 0.95
vt 0.16666667 0.049999844
vt 0.25 0.95
vt 0.25 0.049999844
vt 0.33333334 0.95
vt 0.33333334 0.049999844
vt 0.4166667 0.95
vt 0.4166667 0.049999844
vt 0.5 0.95
vt 0.5 0.049999844
vt 0.5833333 0.95
vt 0.5833333 0.049999844
vt 0.6666666 0.95
vt 0.6666666 0.049999844
vt 0.74999994 0.95
vt 0.74999994 0.049999844
vt 0.83333325 0.95
vt 0.83333325 0.049999844
vt 0.91666657 0.95
vt 0.91666657 0.049999844
vt 0.9999999 0.95
vt 0.9999999 0.049999844
vt 0.5 0.049999844
vt 0.6666666 0.049999844
vt 0.5833333 0.049999844
vt 0.33333334 0.049999844
vt 0.6666666 0.049999844
vt 0.25 0.049999844
vt 0.74999994 0.049999844
vt 0.16666667 0.049999844
vt 0.83333325 0.049999844
vt 0.083333336 0.049999844
vt 0.91666657 0.049999844
vt 0 0.049999844
vn -0.3551811 0.719456 0.59684974
vn -0.4154849 0.8892012 0.1915553
vn -0.64808655 0.7019702 0.29533327
vn -0.21407276 0.8993635 0.38120618
vn 0.059887826 0.6918119 0.71959
vn 0.084722675 0.9959227 -0.030984946
vn 0.043157578 0.87909424 0.47469017
vn 0.44371822 0.65808696 0.6083056
vn 0.039488226 0.99543923 -0.08684147
vn 0.56694955 0.7806929 -0.26284376
vn 0.28996983 0.8657138 0.4079916
vn 0.6769378 0.6485186 0.34810743
vn -0.014967752 0.9961068 -0.08687414
vn 0.27563614 0.7838013 -0.5564892
vn 0.8597668 0.29715425 -0.4153317
vn 0.44875234 0.8627612 0.23294751
vn 0.7487928 0.6613313 0.04416015
vn -0.049666442 0.9961569 -0.07214358
vn -0.06851917 0.7689904 -0.6355777
vn 0.42406523 0.30027586 -0.8544022
vn 0.85976726 -0.29715326 -0.4153316
vn 0.49845332 0.8664662 0.027937928
vn 0.6257279 0.70058185 -0.34300116
vn -0.07385833 0.9964516 -0.040363222
vn -0.35752 0.76505154 -0.53560764
vn -0.09424564 0.28647497 -0.9534411
vn 0.42406553 -0.30027503 -0.85440236
vn 0.7209888 -0.610945 -0.32698843
vn 0.34527156 -0.6168764 -0.7072843
vn -0.09424593 -0.28647462 -0.95344114
vn -0.0907311 -0.58855045 -0.80335313
vn 0.40091527 0.8897967 -0.21801086
vn 0.3017628 0.6857891 -0.6622933
vn -0.08194821 0.99662197 -0.005397113
vn -0.5625128 0.767553 -0.3073139
vn -0.5280244 0.28327575 -0.8005905
vn -0.5280243 -0.28327587 -0.8005905
vn -0.45022783 -0.58401877 -0.6754383
vn 0.20403364 0.88236463 -0.42403176
vn 0.008069152 0.6596636 -0.7515177
vn -0.09105091 0.99473864 0.046955206
vn -0.6434929 0.76483953 -0.030616067
vn -0.8401687 0.28493083 -0.4614446
vn -0.8401687 -0.28493094 -0.4614444
vn -0.7111823 -0.5862211 -0.38802657
vn 0.004271321 0.86630195 -0.49950245
vn -0.29979274 0.66892153 -0.6801972
vn -0.042652983 0.99538064 0.08601282
vn -0.57307273 0.76283604 0.29944748
vn -0.9588585 0.28119475 -0.038986467
vn -0.9588585 -0.28119478 -0.03898647
vn -0.8132389 -0.5806719 -0.038244843
vn -0.20537125 0.87156326 -0.4451967
vn -0.59435064 0.6810279 -0.42772457
vn -0.00020231794 0.9969578 0.07794382
vn -0.29829854 0.7679704 0.56678
vn -0.8497117 0.28158426 0.44575822
vn -0.8497116 -0.28158423 0.44575822
vn -0.7198683 -0.5840518 0.3750641
vn -0.39301258 0.87572116 -0.28045234
vn -0.7261495 0.687014 -0.026809592
vn 0.03886514 0.99609876 0.07922544
vn -0.003983964 0.77364177 0.6336106
vn -0.45418477 0.2859753 0.843762
vn -0.45418462 -0.28597525 0.84376204
vn -0.3739224 -0.5968375 0.7099064
vn -0.47719812 0.8784733 -0.023806434
vn -0.64808655 0.7019702 0.29533327
vn -0.4154849 0.8892012 0.1915553
vn 0.07849783 0.9955354 0.052415375
vn 0.08809031 0.99607843 0.008233552
vn 0.084722675 0.9959227 -0.030984946
vn 0.28000024 0.7723908 0.57009864
vn -0.006368545 0.28859657 0.95742965
vn -0.0063686096 -0.28859693 0.9574295
vn -0.0048687044 -0.5877795 0.80900645
vn 0.63692975 0.7703085 0.03074633
vn 0.56694955 0.7806929 -0.26284376
vn 0.53369683 0.76861507 0.3527018
vn 0.42376548 0.29015207 0.85804117
vn 0.42376524 -0.29015198 0.8580413
vn 0.35346353 -0.59572643 0.7212306
vn 0.7997958 0.2876456 0.5268649
vn 0.9569113 0.28753877 0.040523313
vn 0.8597668 0.29715425 -0.4153317
vn 0.7997961 -0.2876451 0.5268647
vn 0.6714133 -0.59508157 0.4416811
vn 0.9569113 -0.28753877 0.040523298
vn 0.85976726 -0.29715326 -0.4153316
vn 0.8057228 -0.59080714 0.041923817
vn 0.7209888 -0.610945 -0.32698843
vn -0.3551811 0.719456 0.59684974
vn -0.64808655 0.7019702 0.29533327
vn -0.4426158 0.8723464 0.20761265
vn -0.2579105 0.87365097 0.4125725
vn 0.059887826 0.6918119 0.71959
vn 0.031466782 0.86661476 0.4979847
vn 0.44371822 0.65808696 0.6083056
vn 0.30149657 0.8606472 0.4103488
vn 0.6769378 0.6485186 0.34810743
vn 0.45959443 0.85656375 0.23467305
vn 0.7487928 0.6613313 0.04416015
vn 0.5036418 0.86351645 0.026160479
vn 0.6257279 0.70058185 -0.34300116
vn 0.43356085 0.8680632 -0.24184963
vn 0.3017628 0.6857891 -0.6622933
vn 0.20572244 0.86707354 -0.45371994
vn 0.008069152 0.6596636 -0.7515177
vn 0.006680311 0.873789 -0.48625928
vn -0.29979274 0.66892153 -0.6801972
vn -0.19345787 0.8691426 -0.45515397
vn -0.59435064 0.6810279 -0.42772457
vn -0.39608118 0.8738005 -0.2821211
vn -0.7261495 0.687014 -0.026809592
vn -0.4913406 0.8708931 -0.011381561
vn -0.64808655 0.7019702 0.29533327
vn -0.4426158 0.8723464 0.20761265
vn 0.43356085 0.8680632 -0.24184963
vn -0 1 0
vn 0.20572244 0.86707354 -0.45371994
vn 0.45959443 0.85656375 0.23467305
vn 0.006680311 0.873789 -0.48625928
vn 0.30149657 0.8606472 0.4103488
vn -0.19345787 0.8691426 -0.45515397
vn 0.031466782 0.86661476 0.4979847
vn -0.39608118 0.8738005 -0.2821211
vn -0.2579105 0.87365097 0.4125725
vn -0.4913406 0.8708931 -0.011381561
vn -0.4426158 0.8723464 0.20761265
g nestChicken01_0
f 3/3/3 2/2/2 1/1/1
f 2/2/2 4/4/4 1/1/1
f 1/1/1 4/4/4 5/5/5
f 2/2/2 6/6/6 4/4/4
f 4/4/4 7/7/7 5/5/5
f 5/5/5 7/7/7 8/8/8
f 6/6/6 9/9/9 4/4/4
f 4/4/4 9/9/9 7/7/7
f 6/6/6 10/10/10 9/9/9
f 7/7/7 11/11/11 8/8/8
f 8/8/8 11/11/11 12/12/12
f 9/9/9 13/13/13 7/7/7
f 7/7/7 13/13/13 11/11/11
f 10/10/10 14/14/14 9/9/9
f 9/9/9 14/14/14 13/13/13
f 10/10/10 15/15/15 14/14/14
f 11/11/11 16/16/16 12/12/12
f 12/12/12 16/16/16 17/17/17
f 13/13/13 18/18/18 11/11/11
f 11/11/11 18/18/18 16/16/16
f 14/14/14 19/19/19 13/13/13
f 13/13/13 19/19/19 18/18/18
f 15/15/15 20/20/20 14/14/14
f 14/14/14 20/20/20 19/19/19
f 15/15/15 21/21/21 20/20/20
f 16/16/16 22/22/22 17/17/17
f 17/17/17 22/22/22 23/23/23
f 18/18/18 24/24/24 16/16/16
f 16/16/16 24/24/24 22/22/22
f 19/19/19 25/25/25 18/18/18
f 18/18/18 25/25/25 24/24/24
f 20/20/20 26/26/26 19/19/19
f 19/19/19 26/26/26 25/25/25
f 21/21/21 27/27/27 20/20/20
f 20/20/20 27/27/27 26/26/26
f 21/21/21 28/28/28 27/27/27
f 28/28/28 29/29/29 27/27/27
f 27/27/27 29/29/29 30/30/30
f 27/27/27 30/30/30 26/26/26
f 29/29/29 31/31/31 30/30/30
f 22/22/22 32/32/32 23/23/23
f 23/23/23 32/32/32 33/33/33
f 24/24/24 34/34/34 22/22/22
f 22/22/22 34/34/34 32/32/32
f 25/25/25 35/35/35 24/24/24
f 24/24/24 35/35/35 34/34/34
f 26/26/26 36/36/36 25/25/25
f 26/26/26 30/30/30 36/36/36
f 25/25/25 36/36/36 35/35/35
f 30/30/30 31/31/31 37/37/37
f 30/30/30 37/37/37 36/36/36
f 31/31/31 38/38/38 37/37/37
f 32/32/32 39/39/39 33/33/33
f 33/33/33 39/39/39 40/40/40
f 34/34/34 41/41/41 32/32/32
f 32/32/32 41/41/41 39/39/39
f 35/35/35 42/42/42 34/34/34
f 34/34/34 42/42/42 41/41/41
f 36/36/36 43/43/43 35/35/35
f 36/36/36 37/37/37 43/43/43
f 35/35/35 43/43/43 42/42/42
f 37/37/37 38/38/38 44/44/44
f 37/37/37 44/44/44 43/43/43
f 38/38/38 45/45/45 44/44/44
f 39/39/39 46/46/46 40/40/40
f 40/40/40 46/46/46 47/47/47
f 41/41/41 48/48/48 39/39/39
f 39/39/39 48/48/48 46/46/46
f 42/42/42 49/49/49 41/41/41
f 41/41/41 49/49/49 48/48/48
f 43/43/43 50/50/50 42/42/42
f 43/43/43 44/44/44 50/50/50
f 42/42/42 50/50/50 49/49/49
f 44/44/44 45/45/45 51/51/51
f 44/44/44 51/51/51 50/50/50
f 45/45/45 52/52/52 51/51/51
f 46/46/46 53/53/53 47/47/47
f 47/47/47 53/53/53 54/54/54
f 48/48/48 55/55/55 46/46/46
f 46/46/46 55/55/55 53/53/53
f 49/49/49 56/56/56 48/48/48
f 48/48/48 56/56/56 55/55/55
f 50/50/50 57/57/57 49/49/49
f 50/50/50 51/51/51 57/57/57
f 49/49/49 57/57/57 56/56/56
f 51/51/51 52/52/52 58/58/58
f 51/51/51 58/58/58 57/57/57
f 52/52/52 59/59/59 58/58/58
f 53/53/53 60/60/60 54/54/54
f 54/54/54 60/60/60 61/61/61
f 55/55/55 62/62/62 53/53/53
f 53/53/53 62/62/62 60/60/60
f 56/56/56 63/63/63 55/55/55
f 55/55/55 63/63/63 62/62/62
f 57/57/57 64/64/64 56/56/56
f 57/57/57 58/58/58 64/64/64
f 56/56/56 64/64/64 63/63/63
f 58/58/58 59/59/59 65/65/65
f 58/58/58 65/65/65 64/64/64
f 59/59/59 66/66/66 65/65/65
f 60/60/60 67/67/67 61/61/61
f 61/61/61 67/67/67 68/68/68
f 67/67/67 69/69/69 68/68/68
f 62/62/62 70/70/70 60/60/60
f 60/60/60 70/70/70 67/67/67
f 67/67/67 71/71/71 69/69/69
f 70/70/70 71/71/71 67/67/67
f 71/71/71 72/72/72 69/69/69
f 63/63/63 73/73/73 62/62/62
f 62/62/62 73/73/73 70/70/70
f 64/64/64 74/74/74 63/63/63
f 64/64/64 65/65/65 74/74/74
f 63/63/63 74/74/74 73/73/73
f 65/65/65 66/66/66 75/75/75
f 65/65/65 75/75/75 74/74/74
f 66/66/66 76/76/76 75/75/75
f 71/71/71 77/77/77 72/72/72
f 77/77/77 78/78/78 72/72/72
f 70/70/70 79/79/79 71/71/71
f 73/73/73 79/79/79 70/70/70
f 79/79/79 77/77/77 71/71/71
f 74/74/74 80/80/80 73/73/73
f 74/74/74 75/75/75 80/80/80
f 73/73/73 80/80/80 79/79/79
f 75/75/75 76/76/76 81/81/81
f 75/75/75 81/81/81 80/80/80
f 76/76/76 82/82/82 81/81/81
f 80/80/80 83/83/83 79/79/79
f 79/79/79 83/83/83 77/77/77
f 80/80/80 81/81/81 83/83/83
f 77/77/77 84/84/84 78/78/78
f 83/83/83 84/84/84 77/77/77
f 84/84/84 85/85/85 78/78/78
f 81/81/81 82/82/82 86/86/86
f 81/81/81 86/86/86 83/83/83
f 83/83/83 86/86/86 84/84/84
f 82/82/82 87/87/87 86/86/86
f 84/84/84 88/88/88 85/85/85
f 86/86/86 88/88/88 84/84/84
f 86/86/86 87/87/87 88/88/88
f 88/88/88 89/89/89 85/85/85
f 87/87/87 90/90/90 88/88/88
f 88/88/88 90/90/90 89/89/89
f 90/90/90 91/91/91 89/89/89
f 94/94/94 93/93/93 92/92/92
f 95/95/95 94/94/94 92/92/92
f 95/95/95 92/92/92 96/96/96
f 97/97/97 95/95/95 96/96/96
f 97/97/97 96/96/96 98/98/98
f 99/99/99 97/97/97 98/98/98
f 99/99/99 98/98/98 100/100/100
f 101/101/101 99/99/99 100/100/100
f 101/101/101 100/100/100 102/102/102
f 103/103/103 101/101/101 102/102/102
f 103/103/103 102/102/102 104/104/104
f 105/105/105 103/103/103 104/104/104
f 105/105/105 104/104/104 106/106/106
f 107/107/107 105/105/105 106/106/106
f 107/107/107 106/106/106 108/108/108
f 109/109/109 107/107/107 108/108/108
f 109/109/109 108/108/108 110/110/110
f 111/111/111 109/109/109 110/110/110
f 111/111/111 110/110/110 112/112/112
f 113/113/113 111/111/111 112/112/112
f 113/113/113 112/112/112 114/114/114
f 115/115/115 113/113/113 114/114/114
f 115/115/115 114/114/114 116/116/116
f 117/117/117 115/115/115 116/116/116
f 119/119/119 103/103/103 118/118/118
f 119/119/119 118/118/118 120/120/120
f 121/121/121 103/103/103 119/119/119
f 119/119/119 120/120/120 122/122/122
f 123/123/123 121/121/121 119/119/119
f 119/119/119 122/122/122 124/124/124
f 125/125/125 123/123/123 119/119/119
f 119/119/119 124/124/124 126/126/126
f 125/125/125 119/119/119 127/127/127
f 119/119/119 126/126/126 128/128/128
f 119/119/119 129/129/129 127/127/127
f 119/119/119 128/128/128 129/129/129
