g platHex01
v -0.8913832 -4.1816545 -1.8163496
v 0.8913902 -4.1816545 -1.8163496
v 0.8913902 -0.15728515 -1.8163545
v -0.8913832 -0.15728515 -1.8163545
v -1.1273109 -0.15728515 -1.6801581
v -1.1273109 -4.1816545 -1.6801534
v -2.0187025 -4.1816545 -0.13621296
v -2.0187025 -0.15728515 -0.13621296
v -2.0187025 -0.15728515 0.1362089
v -2.0187025 -4.1816545 0.1362089
v -1.1273109 -4.1816545 1.6801493
v -2.0187025 -4.1816545 0.1362089
v -2.0187025 -0.15728515 0.1362089
v -1.1273109 -0.15728515 1.6801444
v -0.8913832 -0.15728515 1.8163456
v -0.8913832 -4.1816545 1.8163456
v 0.8913902 -4.1816545 1.8163456
v 0.8913853 -0.15728515 1.8163456
v 1.127313 -0.15728515 1.6801444
v 1.1273179 -4.1816545 1.6801444
v 2.0187047 -4.1816545 0.1362089
v 1.1273179 -4.1816545 1.6801444
v 1.127313 -0.15728515 1.6801444
v 2.0187047 -0.15728515 0.1362089
v 2.0187047 -0.15728515 -0.13621296
v 2.0187047 -4.1816545 -0.13621296
v 1.1273179 -4.1816545 -1.6801485
v 1.1273179 -0.15728515 -1.6801534
v 0.8913902 -0.15728515 -1.8163545
v 0.8913902 -4.1816545 -1.8163496
v 0.9578648 -4.3389397 1.6590654
v -0.8913832 -4.1816545 1.8163456
v 0.8913902 -4.1816545 1.8163456
v 1.1273179 -4.1816545 1.6801444
v -0.9578627 -4.3389397 1.6590654
v -1.1273109 -4.1816545 1.6801493
v -2.0187025 -4.1816545 0.1362089
v 1.915731 -4.3389397 -2.019051E-06
v 2.0187047 -4.1816545 0.1362089
v 2.0187047 -4.1816545 -0.13621296
v -1.3774761E-06 -4.3389397 -2.019051E-06
v -1.9157289 -4.3389397 -2.019051E-06
v -2.0187025 -4.1816545 -0.13621296
v -1.1273109 -4.1816545 -1.6801534
v 0.9578648 -4.3389397 -1.6590742
v 1.1273179 -4.1816545 -1.6801485
v 0.8913902 -4.1816545 -1.8163496
v -0.9578627 -4.3389397 -1.6590742
v -0.8913832 -4.1816545 -1.8163496
v 1.1273179 -0.15728515 -1.6801534
v 2.0187047 -0.15728515 -0.13621296
v 1.915731 1.8189894E-14 -2.019051E-06
v 2.0187047 -0.15728515 0.1362089
v 0.9578648 1.8189894E-14 -1.6590693
v 0.8913902 -0.15728515 -1.8163545
v -0.8913832 -0.15728515 -1.8163545
v 0.9578648 1.8189894E-14 1.6590703
v 1.127313 -0.15728515 1.6801444
v 0.8913853 -0.15728515 1.8163456
v -1.3774761E-06 1.8189894E-14 -2.019051E-06
v -0.9578627 1.8189894E-14 -1.6590693
v -1.1273109 -0.15728515 -1.6801581
v -2.0187025 -0.15728515 -0.13621296
v -0.9578627 1.8189894E-14 1.6590703
v -0.8913832 -0.15728515 1.8163456
v -1.1273109 -0.15728515 1.6801444
v -1.9157289 1.8189894E-14 -2.019051E-06
v -2.0187025 -0.15728515 0.1362089
vt 0.45798373 -1.287323
vt 0.0011572838 -1.287323
vt 0.0011572838 0.9976096
vt 0.45798373 0.9976096
vt 0.52343345 0.9976096
vt 0.52343345 -1.287323
vt 0.9387021 -1.287323
vt 0.9387021 0.9976096
vt 0.99653053 0.99760973
vt 0.99653053 -1.287323
vt 0.4579835 -1.287323
vt 0.0011571646 -1.287323
vt 0.0011571646 0.9976096
vt 0.4579835 0.9976096
vt 0.5234332 0.9976096
vt 0.5234332 -1.287323
vt 0.9387021 -1.287323
vt 0.9387021 0.9976096
vt 0.9965302 0.9976096
vt 0.9965302 -1.287323
vt 0.4579835 -1.287323
vt 0.0011571646 -1.287323
vt 0.0011571646 0.9976097
vt 0.4579835 0.9976097
vt 0.5234332 0.9976097
vt 0.5234332 -1.287323
vt 0.9387021 -1.287323
vt 0.9387021 0.9976097
vt 0.9965301 0.9976097
vt 0.9965301 -1.287323
vt 0.8687272 0.2817548
vt 0.90503156 0.70858955
vt 0.90503156 0.29709828
vt 0.8735937 0.24264294
vt 0.8687272 0.7239342
vt 0.8735948 0.7630459
vt 0.517229 0.9687921
vt 0.485789 0.06066397
vt 0.517229 0.036896825
vt 0.45435005 0.036896825
vt 0.485789 0.5028455
vt 0.485789 0.94502497
vt 0.45435005 0.9687921
vt 0.09798542 0.7630459
vt 0.10284966 0.2817548
vt 0.09798542 0.24264294
vt 0.066548705 0.2970994
vt 0.10284966 0.7239342
vt 0.066548705 0.70858955
vt 0.8735937 0.24264294
vt 0.517229 0.036896825
vt 0.485789 0.06066397
vt 0.45435005 0.036896825
vt 0.8687272 0.2817548
vt 0.90503156 0.29709828
vt 0.90503156 0.70858955
vt 0.10284966 0.2817548
vt 0.09798542 0.24264294
vt 0.066548705 0.2970994
vt 0.485789 0.5028455
vt 0.8687272 0.7239342
vt 0.8735948 0.7630459
vt 0.517229 0.9687921
vt 0.10284966 0.7239342
vt 0.066548705 0.70858955
vt 0.09798542 0.7630459
vt 0.485789 0.94502497
vt 0.45435005 0.9687921
vn -0.06519653 -0.04151015 -0.99700874
vn 0.065202415 -0.041509654 -0.9970084
vn 0.06520239 0.041509878 -0.9970084
vn -0.065196484 0.041510202 -0.99700874
vn -0.83082813 0.041509382 -0.5549789
vn -0.83082813 -0.04151072 -0.5549788
vn -0.89603823 -0.041510843 -0.44203192
vn -0.89603823 0.041510526 -0.44203195
vn -0.89603776 0.041510187 0.44203308
vn -0.8960377 -0.04151047 0.44203305
vn -0.830829 -0.04150961 0.5549776
vn -0.8960377 -0.04151047 0.44203305
vn -0.89603776 0.041510187 0.44203308
vn -0.830829 0.04151024 0.5549774
vn -0.06520239 0.041509114 0.9970084
vn -0.065202326 -0.041510105 0.9970084
vn 0.06520245 -0.041509718 0.9970084
vn 0.0652023 0.041509025 0.9970084
vn 0.8308295 0.041510966 0.5549767
vn 0.83082956 -0.041510854 0.55497664
vn 0.8960382 -0.041511357 0.44203207
vn 0.83082956 -0.041510854 0.55497664
vn 0.8308295 0.041510966 0.5549767
vn 0.8960382 0.04151105 0.4420321
vn 0.896038 0.04151225 -0.44203237
vn 0.89603806 -0.04151137 -0.44203237
vn 0.8308292 -0.041511353 -0.5549772
vn 0.8308291 0.041511383 -0.5549773
vn 0.06520239 0.041509878 -0.9970084
vn 0.065202415 -0.041509654 -0.9970084
vn 0.08103994 -0.98677766 0.14036477
vn -0.065202326 -0.041510105 0.9970084
vn 0.06520245 -0.041509718 0.9970084
vn 0.83082956 -0.041510854 0.55497664
vn -0.08104198 -0.9867776 0.14036447
vn -0.830829 -0.04150961 0.5549776
vn -0.8960377 -0.04151047 0.44203305
vn 0.16207829 -0.9867779 0
vn 0.8960382 -0.041511357 0.44203207
vn 0.89603806 -0.04151137 -0.44203237
vn -0 -1 0
vn -0.16207895 -0.9867778 3.3862892E-07
vn -0.89603823 -0.041510843 -0.44203192
vn -0.83082813 -0.04151072 -0.5549788
vn 0.081039384 -0.9867778 -0.1403644
vn 0.8308292 -0.041511353 -0.5549772
vn 0.065202415 -0.041509654 -0.9970084
vn -0.08104091 -0.9867778 -0.14036381
vn -0.06519653 -0.04151015 -0.99700874
vn 0.8308291 0.041511383 -0.5549773
vn 0.896038 0.04151225 -0.44203237
vn 0.16207857 0.9867779 0
vn 0.8960382 0.04151105 0.4420321
vn 0.08104092 0.98677766 -0.14036483
vn 0.06520239 0.041509878 -0.9970084
vn -0.065196484 0.041510202 -0.99700874
vn 0.08104007 0.9867779 0.14036354
vn 0.8308295 0.041510966 0.5549767
vn 0.0652023 0.041509025 0.9970084
vn -0 1 0
vn -0.08104282 0.9867776 -0.14036438
vn -0.83082813 0.041509382 -0.5549789
vn -0.89603823 0.041510526 -0.44203195
vn -0.08103989 0.9867779 0.14036326
vn -0.06520239 0.041509114 0.9970084
vn -0.830829 0.04151024 0.5549774
vn -0.16207863 0.9867779 -3.2979455E-07
vn -0.89603776 0.041510187 0.44203308
g platHex01_0
f 3/3/3 2/2/2 1/1/1
f 4/4/4 3/3/3 1/1/1
f 4/4/4 1/1/1 5/5/5
f 1/1/1 6/6/6 5/5/5
f 5/5/5 6/6/6 7/7/7
f 8/8/8 5/5/5 7/7/7
f 8/8/8 7/7/7 9/9/9
f 7/7/7 10/10/10 9/9/9
f 13/13/13 12/12/12 11/11/11
f 14/14/14 13/13/13 11/11/11
f 14/14/14 11/11/11 15/15/15
f 11/11/11 16/16/16 15/15/15
f 15/15/15 16/16/16 17/17/17
f 18/18/18 15/15/15 17/17/17
f 18/18/18 17/17/17 19/19/19
f 17/17/17 20/20/20 19/19/19
f 23/23/23 22/22/22 21/21/21
f 24/24/24 23/23/23 21/21/21
f 24/24/24 21/21/21 25/25/25
f 21/21/21 26/26/26 25/25/25
f 25/25/25 26/26/26 27/27/27
f 28/28/28 25/25/25 27/27/27
f 28/28/28 27/27/27 29/29/29
f 27/27/27 30/30/30 29/29/29
f 33/33/33 32/32/32 31/31/31
f 34/34/34 33/33/33 31/31/31
f 32/32/32 35/35/35 31/31/31
f 32/32/32 36/36/36 35/35/35
f 36/36/36 37/37/37 35/35/35
f 31/31/31 38/38/38 34/34/34
f 38/38/38 39/39/39 34/34/34
f 40/40/40 39/39/39 38/38/38
f 35/35/35 41/41/41 31/31/31
f 31/31/31 41/41/41 38/38/38
f 37/37/37 42/42/42 35/35/35
f 42/42/42 41/41/41 35/35/35
f 37/37/37 43/43/43 42/42/42
f 43/43/43 44/44/44 42/42/42
f 40/40/40 38/38/38 45/45/45
f 38/38/38 41/41/41 45/45/45
f 46/46/46 40/40/40 45/45/45
f 47/47/47 46/46/46 45/45/45
f 48/48/48 41/41/41 42/42/42
f 44/44/44 48/48/48 42/42/42
f 45/45/45 41/41/41 48/48/48
f 47/47/47 45/45/45 48/48/48
f 44/44/44 49/49/49 48/48/48
f 49/49/49 47/47/47 48/48/48
f 52/52/52 51/51/51 50/50/50
f 53/53/53 51/51/51 52/52/52
f 54/54/54 52/52/52 50/50/50
f 50/50/50 55/55/55 54/54/54
f 55/55/55 56/56/56 54/54/54
f 53/53/53 52/52/52 57/57/57
f 58/58/58 53/53/53 57/57/57
f 59/59/59 58/58/58 57/57/57
f 54/54/54 60/60/60 52/52/52
f 52/52/52 60/60/60 57/57/57
f 56/56/56 61/61/61 54/54/54
f 61/61/61 60/60/60 54/54/54
f 56/56/56 62/62/62 61/61/61
f 62/62/62 63/63/63 61/61/61
f 59/59/59 57/57/57 64/64/64
f 57/57/57 60/60/60 64/64/64
f 65/65/65 59/59/59 64/64/64
f 66/66/66 65/65/65 64/64/64
f 67/67/67 60/60/60 61/61/61
f 63/63/63 67/67/67 61/61/61
f 64/64/64 60/60/60 67/67/67
f 66/66/66 64/64/64 67/67/67
f 63/63/63 68/68/68 67/67/67
f 68/68/68 66/66/66 67/67/67
