g plort
v -0.022470534 0.8809192 0.069141194
v -3.4832954E-09 0.92293584 3.2655892E-11
v 0.058703236 0.8809712 0.042732917
v 0.1712184 0.13003743 0.666446
v 0.2527107 0.13025308 0.6400823
v 0.68763256 0.12922359 0.042594824
v 0.058764316 0.8808905 -0.042632684
v -3.4832954E-09 0.92293584 3.2655892E-11
v -0.5315761 0.12856603 0.4388051
v 0.21619725 0.056311846 0.6661062
v -0.21619725 -0.043752134 0.6661061
v 0.5315761 -0.116006374 0.4388051
v -0.1712184 -0.117477655 0.666446
v 0.5675517 -0.04251969 0.411965
v -0.25271073 -0.117693365 0.6400823
v -0.5819496 0.12865496 0.3695675
v -0.5675517 0.05507934 0.411965
v -0.072619244 0.8809184 5.427499E-05
v -3.4832954E-09 0.92293584 3.2655892E-11
v 0.7009356 0.055484414 -0.00017633126
v 0.5819496 -0.116095364 0.3695675
v 0.022470536 -0.8683595 0.069141194
v -0.058703236 -0.86841154 0.042732917
v 1.3933181E-09 -0.9124634 -1.6327946E-11
v -0.68763256 -0.11666399 0.042594824
v -0.7009356 -0.042924702 -0.00017633126
v 0.6874801 0.12905598 -0.043057587
v 0.5806134 -0.11757481 -0.36918622
v 0.072619244 -0.8683588 5.427499E-05
v 1.3933181E-09 -0.9124634 -1.6327946E-11
v -0.058764316 -0.86833084 -0.042632684
v 1.3933181E-09 -0.9124634 -1.6327946E-11
v -0.6874801 -0.116496325 -0.043057587
v -0.25300837 -0.1169377 -0.6402006
v -0.5806134 0.13013446 -0.36918622
v -0.56636363 0.056264997 -0.41175425
v -0.21644735 -0.043245316 -0.6662549
v -0.53021574 0.13007474 -0.43844348
v -0.022435762 0.8808906 -0.069013014
v -3.4832954E-09 0.92293584 3.2655892E-11
v -3.4832954E-09 0.92293584 3.2655892E-11
v -0.022435762 0.8808906 -0.069013014
v 0.25300837 0.12949753 -0.6402006
v 0.17160499 0.12956488 -0.6666794
v -0.53021574 0.13007474 -0.43844348
v -0.21644735 -0.043245316 -0.6662549
v 0.56636363 -0.043705404 -0.41175425
v -0.17160499 -0.11700511 -0.6666794
v -0.25300837 -0.1169377 -0.6402006
v 0.21644735 0.055805087 -0.6662549
v 0.53021574 -0.11751509 -0.43844348
v 0.022435764 -0.8683309 -0.069013014
v 1.3933181E-09 -0.9124634 -1.6327946E-11
v -0.058764316 -0.86833084 -0.042632684
v 1.3933181E-09 -0.9124634 -1.6327946E-11
vt 0.34988642 0.9771076
vt 0.5 0.99999994
vt 0.549495 0.97713596
vt 0.4398483 0.5679968
vt 0.45967087 0.5681142
vt 0.6399883 0.56755334
vt 0.7495603 0.97709197
vt 0.5 0.99999994
vt 0.25965628 0.5671951
vt 0.44977444 0.52782804
vt 0.34987712 0.47330916
vt 0.53999525 0.43394214
vt 0.35980332 0.43314052
vt 0.5498973 0.47398067
vt 0.33998072 0.43302298
vt 0.23987383 0.5672435
vt 0.24975425 0.52715653
vt 0.15016353 0.9771072
vt 0.5 0.99999994
vt 0.64987636 0.5273773
vt 0.5597778 0.43389368
vt 0.4497652 0.024029642
vt 0.25015655 0.02400127
vt 0.5 2.9802322E-08
vt 0.15966329 0.43358386
vt 0.14977527 0.47376
vt 0.6597925 0.567462
vt 0.73999363 0.4330876
vt 0.64948803 0.02403
vt 0.5 2.9802322E-08
vt 0.050091386 0.0240452
vt 0.5 2.9802322E-08
vt 0.1398592 0.43367517
vt -0.040329456 0.43343472
vt 0.05965802 0.5680496
vt 0.049746305 0.5278025
vt -0.050239563 0.4735853
vt 0.03982696 0.56801707
vt -0.050136447 0.9770921
vt 0.5 0.99999994
vt 0.5 0.99999994
vt 0.95001173 0.9770921
vt 0.8399811 0.5677026
vt 0.85979074 0.5677393
vt 1.0399752 0.56801707
vt 0.9499078 0.47358537
vt 0.7499052 0.47333467
vt 0.94000936 0.43339783
vt 0.95981884 0.43343496
vt 0.8498912 0.52755195
vt 0.75982463 0.43312013
vt 0.84978795 0.0240452
vt 0.5 2.9802322E-08
vt 1.0502394 0.0240452
vt 0.5 2.9802322E-08
vn -0.23937982 0.63436306 0.7350379
vn -0.00010483891 0.9999999 -0.0005608108
vn 0.62490994 0.6352122 0.45386478
vn -0.16962945 0.54964477 0.8179954
vn 0.6168177 0.5507716 0.56230474
vn 0.7254798 0.55074376 0.41274735
vn 0.6252894 0.63440925 -0.4544648
vn -0.00010483891 0.9999999 -0.0005608108
vn -0.344561 0.54944104 0.7611782
vn 0.26604176 -0.50989574 0.81806356
vn -0.2660418 0.50989574 0.81806356
vn 0.3445609 -0.5494411 0.76117814
vn 0.16962941 -0.5496447 0.8179954
vn 0.6952008 0.511384 0.5051556
vn -0.61681765 -0.5507716 0.56230474
vn -0.8298842 0.55029494 0.09202001
vn -0.69520086 -0.511384 0.5051556
vn -0.77254677 0.6349578 -2.3869226E-05
vn -0.00010483891 0.9999999 -0.0005608108
vn 0.85963404 -0.51091 -0.0005243983
vn 0.8298841 -0.55029505 0.09201995
vn 0.23940793 -0.6342515 0.735125
vn -0.6249842 -0.6351001 0.45391917
vn 0.00010309137 -0.9999999 -0.0005633292
vn -0.72547984 -0.5507437 0.41274738
vn -0.8596341 0.5109099 -0.00052432745
vn 0.7257523 0.54954135 -0.4138694
vn 0.82976073 -0.55039567 -0.092529565
vn 0.7726386 -0.63484603 -2.3806502E-05
vn 0.00010309137 -0.9999999 -0.0005633292
vn -0.62536347 -0.63429767 -0.45451862
vn 0.00010309137 -0.9999999 -0.0005633292
vn -0.7257523 -0.5495414 -0.41386932
vn -0.6175287 -0.5496304 -0.562641
vn -0.82976073 0.5503956 -0.09252956
vn -0.69576657 -0.50992733 -0.50584877
vn -0.26562172 0.51034886 -0.8179176
vn -0.34388688 0.55004203 -0.76104903
vn -0.23850058 0.63471645 -0.73501873
vn -0.00010483891 0.9999999 -0.0005608108
vn -0.00010483891 0.9999999 -0.0005608108
vn -0.23850058 0.63471645 -0.73501873
vn 0.6175288 0.54963034 -0.56264085
vn -0.16862044 0.55002 -0.81795174
vn -0.34388688 0.55004203 -0.76104903
vn -0.26562172 0.51034886 -0.8179176
vn 0.6957666 0.5099272 -0.5058488
vn 0.16862045 -0.5500199 -0.8179518
vn -0.6175287 -0.5496304 -0.562641
vn 0.26562175 -0.5103488 -0.8179176
vn 0.34388682 -0.55004203 -0.76104903
vn 0.23852904 -0.6346045 -0.73510617
vn 0.00010309137 -0.9999999 -0.0005633292
vn -0.62536347 -0.63429767 -0.45451862
vn 0.00010309137 -0.9999999 -0.0005633292
g plort_0
f 3/3/3 2/2/2 1/1/1
f 1/1/1 4/4/4 3/3/3
f 4/4/4 5/5/5 3/3/3
f 6/6/6 3/3/3 5/5/5
f 3/3/3 6/6/6 7/7/7
f 7/7/7 8/8/8 3/3/3
f 4/4/4 1/1/1 9/9/9
f 5/5/5 4/4/4 10/10/10
f 11/11/11 4/4/4 9/9/9
f 4/4/4 11/11/11 10/10/10
f 10/10/10 12/12/12 5/5/5
f 11/11/11 13/13/13 10/10/10
f 12/12/12 10/10/10 13/13/13
f 14/14/14 6/6/6 5/5/5
f 12/12/12 14/14/14 5/5/5
f 15/15/15 11/11/11 9/9/9
f 13/13/13 11/11/11 15/15/15
f 16/16/16 9/9/9 1/1/1
f 17/17/17 15/15/15 9/9/9
f 9/9/9 16/16/16 17/17/17
f 18/18/18 16/16/16 1/1/1
f 1/1/1 19/19/19 18/18/18
f 6/6/6 14/14/14 20/20/20
f 21/21/21 14/14/14 12/12/12
f 14/14/14 21/21/21 20/20/20
f 22/22/22 12/12/12 13/13/13
f 12/12/12 22/22/22 21/21/21
f 15/15/15 23/23/23 13/13/13
f 23/23/23 22/22/22 13/13/13
f 23/23/23 24/24/24 22/22/22
f 15/15/15 17/17/17 25/25/25
f 23/23/23 15/15/15 25/25/25
f 16/16/16 26/26/26 17/17/17
f 26/26/26 25/25/25 17/17/17
f 20/20/20 27/27/27 6/6/6
f 6/6/6 27/27/27 7/7/7
f 28/28/28 20/20/20 21/21/21
f 20/20/20 28/28/28 27/27/27
f 22/22/22 29/29/29 21/21/21
f 29/29/29 28/28/28 21/21/21
f 22/22/22 30/30/30 29/29/29
f 31/31/31 23/23/23 25/25/25
f 31/31/31 32/32/32 23/23/23
f 33/33/33 31/31/31 25/25/25
f 25/25/25 26/26/26 33/33/33
f 31/31/31 33/33/33 34/34/34
f 33/33/33 26/26/26 35/35/35
f 26/26/26 16/16/16 35/35/35
f 16/16/16 18/18/18 35/35/35
f 33/33/33 36/36/36 34/34/34
f 36/36/36 33/33/33 35/35/35
f 37/37/37 34/34/34 36/36/36
f 38/38/38 37/37/37 36/36/36
f 35/35/35 38/38/38 36/36/36
f 38/38/38 35/35/35 18/18/18
f 39/39/39 38/38/38 18/18/18
f 18/18/18 40/40/40 39/39/39
f 42/42/42 41/41/41 7/7/7
f 7/7/7 43/43/43 42/42/42
f 43/43/43 7/7/7 27/27/27
f 43/43/43 44/44/44 42/42/42
f 45/45/45 42/42/42 44/44/44
f 46/46/46 45/45/45 44/44/44
f 47/47/47 43/43/43 27/27/27
f 28/28/28 47/47/47 27/27/27
f 48/48/48 46/46/46 44/44/44
f 49/49/49 46/46/46 48/48/48
f 44/44/44 43/43/43 50/50/50
f 43/43/43 47/47/47 50/50/50
f 50/50/50 48/48/48 44/44/44
f 51/51/51 47/47/47 28/28/28
f 47/47/47 51/51/51 50/50/50
f 48/48/48 50/50/50 51/51/51
f 28/28/28 29/29/29 51/51/51
f 48/48/48 52/52/52 49/49/49
f 52/52/52 48/48/48 51/51/51
f 29/29/29 52/52/52 51/51/51
f 29/29/29 53/53/53 52/52/52
f 52/52/52 54/54/54 49/49/49
f 52/52/52 55/55/55 54/54/54
