g plortCollector_funnel
v 0.24947135 1.5258789E-07 0
v 0.3443309 0.113814466 0.6291126
v 0.23726119 0.07709106 0
v 0.36205068 0.0023708725 0.62911314
v 0.23726119 -0.07709084 0
v 0.62390083 0.23164026 1.3665407
v 0.34433073 -0.109073006 0.629113
v 0.20182647 -0.14663552 0
v 0.65600765 0.081691414 1.3665408
v 1.2484719 0.4962886 2.2543352
v 1.3127203 0.27716362 2.254334
v 0.6239003 -0.06825714 1.3665407
v 1.2484711 0.05803856 2.2543335
v 0.29290512 -0.20960747 0.6291131
v 0.14663547 -0.20182647 0
v 0.53072137 -0.2035276 1.3665402
v 1.062013 -0.13963653 2.2543333
v 0.21280795 -0.28939214 0.6291131
v 0.07709093 -0.23726165 0
v 0.38559163 -0.31088027 1.3665402
v 0.77159774 -0.29651368 2.2543335
v 0.11187974 -0.3406169 0.62911296
v -9.3325994E-08 -0.24947135 0
v 0.20271751 -0.37980413 1.3665403
v 0.40565288 -0.39723572 2.2543335
v -8.379746E-08 -0.3582679 0.6291129
v -0.07709108 -0.23726165 0
v -5.8917347E-08 -0.40355322 1.3665402
v -3.3341006E-09 -0.43194062 2.2543333
v -0.11187994 -0.34061697 0.62911296
v -0.1466357 -0.20182647 0
v -0.20271766 -0.37980413 1.3665403
v -0.4056529 -0.39723602 2.2543337
v -0.21280815 -0.28939223 0.62911314
v -0.2018267 -0.14663559 0
v -0.3855918 -0.31088027 1.3665403
v -0.7715977 -0.29651397 2.2543337
v -0.29290527 -0.20960754 0.6291131
v -0.23726143 -0.07709084 0
v -0.53072155 -0.20352763 1.3665403
v -1.0620133 -0.13963653 2.2543333
v -0.34433082 -0.109073006 0.629113
v -0.24947159 1.5258789E-07 0
v -0.62390053 -0.06825714 1.3665407
v -1.2484715 0.05803856 2.2543335
v -0.36205086 0.0023708725 0.62911314
v -0.23726143 0.07709106 0
v -0.6560079 0.081691414 1.3665408
v -1.3127207 0.27716362 2.254334
v -0.3443308 0.11381443 0.6291126
v -0.2018267 0.14663567 0
v -0.62390053 0.23164022 1.3665407
v -1.2484715 0.49628857 2.2543352
v -0.2929054 0.21434906 0.6291126
v -0.1466357 0.2018267 0
v -0.53072155 0.36691087 1.3665406
v -1.0620134 0.69396335 2.2543335
v -0.2128083 0.29413322 0.6291139
v -0.07709112 0.23726195 0
v -0.3855919 0.4742624 1.3665407
v -0.77159786 0.8508394 2.2543335
v -0.11187996 0.3453588 0.62911314
v -8.589119E-08 0.24947166 0
v -0.20271766 0.5431863 1.3665411
v -0.40565303 0.95156014 2.2543335
v -7.300752E-08 0.36301002 0.62911344
v 0.07709093 0.23726195 0
v -3.9366796E-08 0.5669358 1.3665408
v 3.5787988E-08 0.98626614 2.2543323
v 0.111879766 0.34535888 0.6291132
v 0.1466357 0.2018267 0
v 0.20271759 0.5431863 1.3665411
v 0.40565306 0.95156026 2.2543333
v 0.21280827 0.29413334 0.62911403
v 0.20182651 0.14663567 0
v 0.3855919 0.4742625 1.3665407
v 0.77159804 0.8508394 2.2543333
v 0.29290518 0.21434909 0.62911266
v 0.23726119 0.07709106 0
v 0.3443309 0.113814466 0.6291126
v 0.5307217 0.36691093 1.3665403
v 1.0620137 0.69396347 2.2543328
v 0.62390083 0.23164026 1.3665407
v 1.2484719 0.4962886 2.2543352
vt 0.9493519 0.0051472485
vt 1 0.33536237
vt 1 0.0051472485
vt 0.9493519 0.33536237
vt 0.8994239 0.0051472485
vt 1 0.6655775
vt 0.8994239 0.33536237
vt 0.8494959 0.0051472485
vt 0.9493519 0.6655775
vt 1 0.9957926
vt 0.9493519 0.9957926
vt 0.8994239 0.6655775
vt 0.8994239 0.9957926
vt 0.8494959 0.33536237
vt 0.7995679 0.0051472485
vt 0.8494959 0.6655775
vt 0.8494959 0.9957926
vt 0.7995679 0.33536237
vt 0.74963987 0.0051472485
vt 0.7995679 0.6655775
vt 0.7995679 0.9957926
vt 0.74963987 0.33536237
vt 0.6997119 0.0051472485
vt 0.74963987 0.6655775
vt 0.74963987 0.9957926
vt 0.6997119 0.33536237
vt 0.64978385 0.0051472485
vt 0.6997119 0.6655775
vt 0.6997119 0.9957926
vt 0.64978385 0.33536237
vt 0.5998559 0.0051472485
vt 0.64978385 0.6655775
vt 0.64978385 0.9957926
vt 0.5998559 0.33536237
vt 0.54992795 0.0051472485
vt 0.5998559 0.6655775
vt 0.5998559 0.9957926
vt 0.54992795 0.33536237
vt 0.49999988 0.0051472485
vt 0.54992795 0.6655775
vt 0.54992795 0.9957926
vt 0.49999988 0.33536237
vt 0.45007187 0.0051472485
vt 0.49999988 0.6655775
vt 0.49999988 0.9957926
vt 0.45007187 0.33536237
vt 0.40014386 0.0051472485
vt 0.45007187 0.6655775
vt 0.45007187 0.9957926
vt 0.40014386 0.33536237
vt 0.35021588 0.0051472485
vt 0.40014386 0.6655775
vt 0.40014386 0.9957926
vt 0.35021588 0.33536237
vt 0.30028787 0.0051472485
vt 0.35021588 0.6655775
vt 0.35021588 0.9957926
vt 0.30028787 0.33536237
vt 0.25035992 0.0051472485
vt 0.30028787 0.6655775
vt 0.30028787 0.9957926
vt 0.25035992 0.33536237
vt 0.20043188 0.0051472485
vt 0.25035992 0.6655775
vt 0.25035992 0.9957926
vt 0.20043188 0.33536237
vt 0.1505039 0.0051472485
vt 0.20043188 0.6655775
vt 0.20043188 0.9957926
vt 0.1505039 0.33536237
vt 0.100575864 0.0051472485
vt 0.1505039 0.6655775
vt 0.1505039 0.9957926
vt 0.100575864 0.33536237
vt 0.050647855 0.0051472485
vt 0.100575864 0.6655775
vt 0.100575864 0.9957926
vt 0.050647855 0.33536237
vt 0 0.0051472485
vt 0 0.33536237
vt 0.050647855 0.6655775
vt 0.050647855 0.9957926
vt 0 0.6655775
vt 0 0.9957926
vn 0.9843709 -0.00035894001 -0.1761072
vn 0.89351916 0.3257337 -0.309065
vn 0.935915 0.3045086 -0.1770242
vn 0.95407367 -0.006817129 -0.2994945
vn 0.9360824 -0.30528012 -0.1747964
vn 0.75704294 0.368177 -0.5397516
vn 0.9022532 -0.3425133 -0.26196137
vn 0.7959112 -0.5800865 -0.17327718
vn 0.8524881 -0.011299887 -0.52262455
vn 0.7072672 0.36863008 -0.60322875
vn 0.80405366 0.02551014 -0.59400934
vn 0.807263 -0.4146495 -0.41999084
vn 0.78676087 -0.3621888 -0.49982655
vn 0.74886364 -0.6296422 -0.20677018
vn 0.5779132 -0.7978004 -0.17184535
vn 0.6377496 -0.72001576 -0.2735923
vn 0.6390497 -0.6918689 -0.336055
vn 0.5266718 -0.83631617 -0.15228942
vn 0.30367434 -0.9373377 -0.17082135
vn 0.42163002 -0.8946536 -0.14772615
vn 0.42450133 -0.88819814 -0.17579152
vn 0.2696493 -0.95616186 -0.11420933
vn 1.8209299E-07 -0.98536646 -0.17044961
vn 0.20651634 -0.97589225 -0.070606366
vn 0.2067915 -0.9757547 -0.07169494
vn 1.5175206E-07 -0.99491006 -0.100766964
vn -0.3036741 -0.9373378 -0.17082143
vn 1.9601028E-07 -0.99897385 -0.045290094
vn 2.1245266E-07 -0.9993241 -0.036761653
vn -0.26964912 -0.95616186 -0.11420929
vn -0.577913 -0.79780054 -0.1718454
vn -0.20651613 -0.97589236 -0.07060647
vn -0.2067913 -0.9757547 -0.071695134
vn -0.52667177 -0.8363162 -0.15228938
vn -0.79591143 -0.58008623 -0.17327714
vn -0.42163008 -0.89465356 -0.14772628
vn -0.4245014 -0.8881981 -0.17579168
vn -0.74886394 -0.62964195 -0.2067702
vn -0.93608254 -0.30528 -0.17479624
vn -0.6377496 -0.72001576 -0.2735922
vn -0.6390495 -0.69186914 -0.3360548
vn -0.9022532 -0.34251353 -0.26196134
vn -0.9843709 -0.00035853597 -0.17610699
vn -0.80726284 -0.41464987 -0.41999072
vn -0.7867608 -0.3621891 -0.49982655
vn -0.9540736 -0.006816256 -0.2994946
vn -0.9359151 0.30450863 -0.1770239
vn -0.8524878 -0.011298502 -0.5226249
vn -0.8040533 0.025511736 -0.59400946
vn -0.89351904 0.32573408 -0.3090647
vn -0.795642 0.5791746 -0.17751236
vn -0.75704247 0.36817834 -0.53975135
vn -0.7072665 0.36863172 -0.60322857
vn -0.7378745 0.60725856 -0.2945817
vn -0.57764715 0.7967163 -0.17767099
vn -0.58368677 0.64120257 -0.49816567
vn -0.5464157 0.6248404 -0.5576778
vn -0.51889616 0.8112068 -0.2696111
vn -0.30351353 0.93611634 -0.17766713
vn -0.38808036 0.80816716 -0.44301185
vn -0.36381847 0.78841805 -0.49601722
vn -0.26616803 0.93136376 -0.2484272
vn -1.5802576E-07 0.9840943 -0.17764668
vn -0.19236444 0.8951803 -0.40205508
vn -0.18039484 0.87552327 -0.4482375
vn -1.620618E-07 0.9706871 -0.24034685
vn 0.30351314 0.93611646 -0.17766717
vn -2.1458648E-07 0.92193323 -0.3873489
vn -2.5591035E-07 0.90252733 -0.43063268
vn 0.2661677 0.93136394 -0.24842721
vn 0.57764727 0.7967162 -0.17767106
vn 0.19236429 0.8951803 -0.40205523
vn 0.18039483 0.8755231 -0.44823775
vn 0.51889604 0.8112068 -0.26961124
vn 0.79564214 0.5791743 -0.17751247
vn 0.38808015 0.80816716 -0.443012
vn 0.36381823 0.78841805 -0.4960173
vn 0.7378742 0.6072586 -0.29458186
vn 0.935915 0.3045086 -0.1770242
vn 0.89351916 0.3257337 -0.309065
vn 0.58368653 0.6412026 -0.4981658
vn 0.54641557 0.6248402 -0.5576779
vn 0.75704294 0.368177 -0.5397516
vn 0.7072672 0.36863008 -0.60322875
g plortCollector_funnel_0
f 3/3/3 2/2/2 1/1/1
f 2/2/2 4/4/4 1/1/1
f 1/1/1 4/4/4 5/5/5
f 2/2/2 6/6/6 4/4/4
f 4/4/4 7/7/7 5/5/5
f 5/5/5 7/7/7 8/8/8
f 6/6/6 9/9/9 4/4/4
f 4/4/4 9/9/9 7/7/7
f 6/6/6 10/10/10 9/9/9
f 10/10/10 11/11/11 9/9/9
f 9/9/9 11/11/11 12/12/12
f 9/9/9 12/12/12 7/7/7
f 11/11/11 13/13/13 12/12/12
f 7/7/7 14/14/14 8/8/8
f 7/7/7 12/12/12 14/14/14
f 8/8/8 14/14/14 15/15/15
f 12/12/12 13/13/13 16/16/16
f 12/12/12 16/16/16 14/14/14
f 13/13/13 17/17/17 16/16/16
f 14/14/14 18/18/18 15/15/15
f 14/14/14 16/16/16 18/18/18
f 15/15/15 18/18/18 19/19/19
f 16/16/16 17/17/17 20/20/20
f 16/16/16 20/20/20 18/18/18
f 17/17/17 21/21/21 20/20/20
f 18/18/18 22/22/22 19/19/19
f 18/18/18 20/20/20 22/22/22
f 19/19/19 22/22/22 23/23/23
f 20/20/20 21/21/21 24/24/24
f 20/20/20 24/24/24 22/22/22
f 21/21/21 25/25/25 24/24/24
f 22/22/22 26/26/26 23/23/23
f 22/22/22 24/24/24 26/26/26
f 23/23/23 26/26/26 27/27/27
f 24/24/24 25/25/25 28/28/28
f 24/24/24 28/28/28 26/26/26
f 25/25/25 29/29/29 28/28/28
f 26/26/26 30/30/30 27/27/27
f 26/26/26 28/28/28 30/30/30
f 27/27/27 30/30/30 31/31/31
f 28/28/28 29/29/29 32/32/32
f 28/28/28 32/32/32 30/30/30
f 29/29/29 33/33/33 32/32/32
f 30/30/30 34/34/34 31/31/31
f 30/30/30 32/32/32 34/34/34
f 31/31/31 34/34/34 35/35/35
f 32/32/32 33/33/33 36/36/36
f 32/32/32 36/36/36 34/34/34
f 33/33/33 37/37/37 36/36/36
f 34/34/34 38/38/38 35/35/35
f 34/34/34 36/36/36 38/38/38
f 35/35/35 38/38/38 39/39/39
f 36/36/36 37/37/37 40/40/40
f 36/36/36 40/40/40 38/38/38
f 37/37/37 41/41/41 40/40/40
f 38/38/38 42/42/42 39/39/39
f 38/38/38 40/40/40 42/42/42
f 39/39/39 42/42/42 43/43/43
f 40/40/40 41/41/41 44/44/44
f 40/40/40 44/44/44 42/42/42
f 41/41/41 45/45/45 44/44/44
f 42/42/42 46/46/46 43/43/43
f 42/42/42 44/44/44 46/46/46
f 43/43/43 46/46/46 47/47/47
f 44/44/44 45/45/45 48/48/48
f 44/44/44 48/48/48 46/46/46
f 45/45/45 49/49/49 48/48/48
f 46/46/46 50/50/50 47/47/47
f 46/46/46 48/48/48 50/50/50
f 47/47/47 50/50/50 51/51/51
f 48/48/48 49/49/49 52/52/52
f 48/48/48 52/52/52 50/50/50
f 49/49/49 53/53/53 52/52/52
f 50/50/50 54/54/54 51/51/51
f 50/50/50 52/52/52 54/54/54
f 51/51/51 54/54/54 55/55/55
f 52/52/52 53/53/53 56/56/56
f 52/52/52 56/56/56 54/54/54
f 53/53/53 57/57/57 56/56/56
f 54/54/54 58/58/58 55/55/55
f 54/54/54 56/56/56 58/58/58
f 55/55/55 58/58/58 59/59/59
f 56/56/56 57/57/57 60/60/60
f 56/56/56 60/60/60 58/58/58
f 57/57/57 61/61/61 60/60/60
f 58/58/58 62/62/62 59/59/59
f 58/58/58 60/60/60 62/62/62
f 59/59/59 62/62/62 63/63/63
f 60/60/60 61/61/61 64/64/64
f 60/60/60 64/64/64 62/62/62
f 61/61/61 65/65/65 64/64/64
f 62/62/62 66/66/66 63/63/63
f 62/62/62 64/64/64 66/66/66
f 63/63/63 66/66/66 67/67/67
f 64/64/64 65/65/65 68/68/68
f 64/64/64 68/68/68 66/66/66
f 65/65/65 69/69/69 68/68/68
f 66/66/66 70/70/70 67/67/67
f 66/66/66 68/68/68 70/70/70
f 67/67/67 70/70/70 71/71/71
f 68/68/68 69/69/69 72/72/72
f 68/68/68 72/72/72 70/70/70
f 69/69/69 73/73/73 72/72/72
f 70/70/70 74/74/74 71/71/71
f 70/70/70 72/72/72 74/74/74
f 71/71/71 74/74/74 75/75/75
f 72/72/72 73/73/73 76/76/76
f 72/72/72 76/76/76 74/74/74
f 73/73/73 77/77/77 76/76/76
f 74/74/74 78/78/78 75/75/75
f 74/74/74 76/76/76 78/78/78
f 75/75/75 78/78/78 79/79/79
f 78/78/78 80/80/80 79/79/79
f 76/76/76 77/77/77 81/81/81
f 76/76/76 81/81/81 78/78/78
f 78/78/78 81/81/81 80/80/80
f 77/77/77 82/82/82 81/81/81
f 81/81/81 83/83/83 80/80/80
f 81/81/81 82/82/82 83/83/83
f 82/82/82 84/84/84 83/83/83
