g polySurface163
v 0.40873647 -0.11020474 -0.2632377
v 0.4092872 0.38012743 -0.4313221
v 0.2899282 -0.15206622 -0.3939197
v 0.17311978 0.7556887 -0.42579055
v 0.4092872 0.38012743 -0.4313221
v 0.40721583 0.74961776 -0.2835102
v -0.37104774 -0.83322954 -0.25964928
v -0.35089374 -0.8322478 0.27720428
v 0.25044465 -0.8322818 0.3399651
v 0.2691157 -0.83325773 -0.3549633
v -0.18032813 -0.8291729 -0.38212752
v 0.40105987 -0.8250045 -0.2588532
v 0.4048779 -0.81212205 0.1415174
v 0.36213613 -0.42985484 0.34710622
v 0.25044465 -0.8322818 0.3399651
v -0.13381743 -0.7502373 0.41983223
v 0.37374616 0.1091664 0.3765509
v 0.121560335 0.19603498 0.4255681
v -0.35576844 -0.19599839 0.4225552
v -0.28310657 -0.74062794 0.42020822
v -0.26982903 0.28010237 0.4231968
v -0.22244334 0.73392874 0.4284258
v 0.25082326 0.72292715 0.4313221
v 0.41039348 0.1757871 0.3655622
v 0.41073728 0.7401461 0.26024914
v 0.29468894 0.78696805 0.39159417
v 0.29468894 0.78696805 0.39159417
v -0.2689507 0.816907 0.3618412
v 0.41073728 0.7401461 0.26024914
v 0.40721583 0.74961776 -0.2835102
v 0.4092872 0.38012743 -0.4313221
v 0.41039348 0.1757871 0.3655622
v 0.40873647 -0.11020474 -0.2632377
v 0.37374616 0.1091664 0.3765509
v 0.41084456 0.013497248 0.30772233
v 0.37374616 0.1091664 0.3765509
v 0.41106343 -0.5477742 0.26232052
v 0.4048779 -0.81212205 0.1415174
v 0.40105987 -0.8250045 -0.2588532
v 0.4030788 -0.24293597 -0.34333062
v -0.28310657 -0.74062794 0.42020822
v -0.13381743 -0.7502373 0.41983223
v -0.35089374 -0.8322478 0.27720428
v 0.25044465 -0.8322818 0.3399651
v 0.40721583 0.74961776 -0.2835102
v 0.41073728 0.7401461 0.26024914
v 0.34599137 0.8301268 -0.081033945
v 0.3348291 0.8297344 0.25003052
v 0.29468894 0.78696805 0.39159417
v 0.17311978 0.7556887 -0.42579055
v 0.40721583 0.74961776 -0.2835102
v 0.34599137 0.8301268 -0.081033945
v -0.077175856 0.83325773 -0.29780364
v -0.10910058 0.74376065 -0.42736173
v -0.381737 0.7502323 -0.34989047
v 0.3348291 0.8297344 0.25003052
v -0.3324802 0.83156043 0.16098118
v -0.41106343 0.7641745 0.20180035
v -0.2689507 0.816907 0.3618412
v -0.2689507 0.816907 0.3618412
v 0.29468894 0.78696805 0.39159417
v -0.2689507 0.816907 0.3618412
v -0.40657258 0.41838408 0.2726612
v -0.41106343 0.7641745 0.20180035
v -0.22244334 0.73392874 0.4284258
v -0.26982903 0.28010237 0.4231968
v -0.4087832 0.25473505 0.29479718
v -0.40841985 -0.060865715 0.34093046
v -0.35576844 -0.19599839 0.4225552
v -0.39486146 -0.751684 0.29662895
v -0.28310657 -0.74062794 0.42020822
v -0.35089374 -0.8322478 0.27720428
v -0.3716414 -0.75720906 -0.36682034
v -0.37104774 -0.83322954 -0.25964928
v -0.35089374 -0.8322478 0.27720428
v -0.39864516 0.32807016 -0.356035
v -0.4087832 0.25473505 0.29479718
v -0.3741963 0.31581318 0.23784089
v -0.26982903 0.28010237 0.4231968
v -0.41106343 0.7641745 0.20180035
v -0.381737 0.7502323 -0.34989047
v -0.40657258 0.41838408 0.2726612
v -0.3741963 0.31581318 0.23784089
v -0.26982903 0.28010237 0.4231968
v -0.10910058 0.74376065 -0.42736173
v 0.4092872 0.38012743 -0.4313221
v 0.17311978 0.7556887 -0.42579055
v 0.057723284 -0.24539165 -0.42769933
v 0.2899282 -0.15206622 -0.3939197
v 0.32033515 -0.2951632 -0.4283042
v 0.2657888 -0.7260449 -0.42811036
v -0.111908674 -0.7547327 -0.42788815
v -0.2919314 0.40471667 -0.42390156
v -0.381737 0.7502323 -0.34989047
v -0.39864516 0.32807016 -0.356035
v -0.3716414 -0.75720906 -0.36682034
v -0.28015304 -0.4835012 -0.42400765
v -0.18032813 -0.8291729 -0.38212752
v -0.37104774 -0.83322954 -0.25964928
v 0.2657888 -0.7260449 -0.42811036
v 0.2691157 -0.83325773 -0.3549633
v 0.40105987 -0.8250045 -0.2588532
v 0.32033515 -0.2951632 -0.4283042
v 0.4030788 -0.24293597 -0.34333062
v 0.2899282 -0.15206622 -0.3939197
v 0.40873647 -0.11020474 -0.2632377
v 0.41084456 0.013497248 0.30772233
v 0.36213613 -0.42985484 0.34710622
v 0.37374616 0.1091664 0.3765509
v 0.41106343 -0.5477742 0.26232052
v 0.25044465 -0.8322818 0.3399651
v 0.4048779 -0.81212205 0.1415174
vt 0.7454912 0.4570833
vt 0.775333 0.44780695
vt 0.74269986 0.4453957
vt 0.79789096 0.4344658
vt 0.775333 0.44780695
vt 0.79833347 0.45286688
vt 0.00800017 0.9582811
vt 0.026402986 0.95530075
vt 0.026003545 0.93432426
vt 0.0019915155 0.93664044
vt 0.0029670733 0.9522354
vt 0.00473914 0.9316786
vt 0.0185121 0.9297956
vt 0.7273965 0.49689397
vt 0.7023861 0.5020087
vt 0.70785147 0.5271387
vt 0.7605584 0.49670222
vt 0.7662752 0.51223195
vt 0.74207366 0.54154056
vt 0.70811796 0.53636706
vt 0.77202386 0.5362118
vt 0.800391 0.53200454
vt 0.7983631 0.5027073
vt 0.7647892 0.49439636
vt 0.7996507 0.48817253
vt 0.80257 0.49933463
vt 0.80257 0.49933463
vt 0.8071099 0.534499
vt 0.7996507 0.48817253
vt 0.79833347 0.45286688
vt 0.775333 0.44780695
vt 0.7647892 0.49439636
vt 0.7454912 0.4570833
vt 0.7605584 0.49670222
vt 0.75422394 0.49228442
vt 0.7605584 0.49670222
vt 0.7198692 0.4911689
vt 0.702886 0.48524857
vt 0.700795 0.45881483
vt 0.73699194 0.4528816
vt 0.70811796 0.53636706
vt 0.70785147 0.5271387
vt 0.69743234 0.540291
vt 0.7023861 0.5020087
vt 0.9793079 0.9235668
vt 0.94469607 0.92082685
vt 0.96619177 0.9285313
vt 0.94582164 0.9280864
vt 0.93659896 0.92917097
vt 0.98801893 0.9386012
vt 0.9793079 0.9235668
vt 0.96619177 0.9285313
vt 0.97898835 0.9543119
vt 0.9885699 0.95662016
vt 0.9823209 0.97351754
vt 0.94582164 0.9280864
vt 0.9501339 0.96894324
vt 0.9472494 0.9752116
vt 0.93771094 0.96504086
vt 0.93771094 0.96504086
vt 0.93659896 0.92917097
vt 0.7970093 0.34954998
vt 0.7727422 0.36015671
vt 0.79441154 0.36306143
vt 0.7916683 0.34470478
vt 0.76336604 0.34831458
vt 0.7612784 0.35968292
vt 0.7417987 0.35854653
vt 0.7328636 0.3534215
vt 0.69978255 0.3660452
vt 0.69832027 0.35601652
vt 0.69414794 0.36711222
vt 0.7036625 0.4062039
vt 0.6978561 0.4011518
vt 0.69414794 0.36711222
vt 0.7694872 0.39899036
vt 0.7612784 0.35968292
vt 0.76616025 0.36223868
vt 0.76336604 0.34831458
vt 0.79441154 0.36306143
vt 0.79553354 0.39810026
vt 0.7727422 0.36015671
vt 0.76616025 0.36223868
vt 0.76336604 0.34831458
vt 0.79641765 0.41623354
vt 0.775333 0.44780695
vt 0.79789096 0.4344658
vt 0.736038 0.43080595
vt 0.74269986 0.4453957
vt 0.733306 0.44618136
vt 0.7068393 0.44534275
vt 0.7037371 0.42178434
vt 0.77469957 0.40643847
vt 0.79553354 0.39810026
vt 0.7694872 0.39899036
vt 0.7036625 0.4062039
vt 0.720632 0.41136062
vt 0.69821507 0.41734168
vt 0.6978561 0.4011518
vt 0.7068393 0.44534275
vt 0.6995078 0.44805676
vt 0.700795 0.45881483
vt 0.733306 0.44618136
vt 0.73699194 0.4528816
vt 0.74269986 0.4453957
vt 0.7454912 0.4570833
vt 0.75422394 0.49228442
vt 0.7273965 0.49689397
vt 0.7605584 0.49670222
vt 0.7198692 0.4911689
vt 0.7023861 0.5020087
vt 0.702886 0.48524857
vn 0.75593764 -0.21304013 -0.6190091
vn 0.7559376 -0.21304011 -0.61900914
vn 0.75593764 -0.21304013 -0.6190091
vn 0.49738422 0.32462582 -0.8045042
vn 0.49738422 0.32462585 -0.8045042
vn 0.49738425 0.32462588 -0.8045042
vn -0.00023497916 -1 -0.00011501526
vn -0.00024837485 -0.99999833 0.0018379536
vn 0.009094467 -0.9999547 0.0028273028
vn 0.0076027852 -0.9999708 0.00083596277
vn -0.0064710504 -0.99904686 -0.043166373
vn 0.06912815 -0.9975938 0.0052635893
vn 0.16733308 -0.98544043 0.03011205
vn 0.1824672 -0.0596849 0.98139876
vn 0.18870161 -0.069755256 0.97955394
vn 0.0928915 -0.033858772 0.99510044
vn 0.17993657 -0.05265521 0.98226786
vn 0.077935524 -0.02809611 0.9965624
vn -0.0023502458 -0.004665591 0.9999864
vn 0.0022567126 -0.0040076617 0.9999895
vn -0.007240865 -0.005508729 0.99995863
vn -0.007418321 0.14387752 0.9895677
vn 0.23797846 0.08800661 0.9672751
vn 0.5032033 0.043019976 0.86309665
vn 0.7189257 0.121952124 0.68430513
vn 0.73217213 -0.082067646 0.6761574
vn 0.0030687514 0.5500189 0.83514655
vn -0.008194378 0.6230336 0.7821521
vn 0.99999714 0.0004968393 -0.0023552936
vn 0.99994683 0.008135655 -0.0063339826
vn 0.99999666 0.0003285834 -0.002552708
vn 0.9990613 -0.040240727 0.01603901
vn 0.99997854 -0.0065462184 0.00034246733
vn 0.87195045 -0.44652462 0.20079386
vn 0.99482673 0.098460294 -0.02500486
vn 0.90360576 0.41794953 -0.09388672
vn 0.9999062 -0.008019925 -0.011104569
vn 0.99984694 -0.012534942 -0.01220563
vn 0.9998921 -0.010799921 -0.009953342
vn 0.9985738 -0.011043073 -0.052234955
vn -0.051990338 -0.82949734 0.5560855
vn -0.058276653 -0.824536 0.5628002
vn -0.05732628 -0.8252922 0.56178856
vn -0.058849115 -0.8240795 0.563409
vn 0.802236 0.5969843 0.0052037677
vn 0.7619639 0.6395264 0.10206349
vn 0.7987728 0.60159117 0.0070752436
vn 0.74896413 0.6495379 0.13097066
vn 0.6832353 0.6224485 0.38176885
vn 0.14108688 0.93807656 -0.31639692
vn 0.20993301 0.92866915 -0.30578065
vn 0.056552745 0.9947014 -0.085855275
vn -0.045489624 0.98984295 -0.1346914
vn -0.087027706 0.8295553 -0.5516016
vn -0.2531837 0.9523364 -0.17015709
vn 0.008621827 0.997707 0.06712892
vn -0.14667127 0.9891812 0.0028334614
vn -0.64070874 0.76708084 0.03285385
vn -0.55952185 0.79481536 0.23495479
vn -0.003586279 0.9954861 0.09483966
vn 0.034933716 0.9539018 0.2980786
vn -0.75493866 0.11627431 0.64540523
vn -0.72177446 0.07981481 0.6875108
vn -0.76168567 0.120567165 0.6366306
vn -0.7301918 0.09187735 0.6770365
vn -0.7077744 0.06579903 0.70336753
vn -0.68517405 0.10457952 0.7208326
vn -0.99872106 -0.008956668 0.049759865
vn -0.8383847 -0.024065385 0.54454744
vn -0.99414694 -0.07131826 0.08115055
vn -0.730604 -0.12273346 0.6716802
vn -0.6252047 -0.4880397 0.60904545
vn -0.9992692 -0.023035627 -0.030504815
vn -0.9960271 -0.0837138 -0.030363724
vn -0.8738442 -0.4850374 0.033691913
vn -0.99945325 -0.019982664 -0.02634369
vn -0.9960218 0.08699828 0.019282052
vn -0.81534123 0.56771404 0.11366346
vn -0.5390699 0.71715236 0.44169694
vn -0.9996233 0.0058411546 -0.026818339
vn -0.9977059 0.04074371 -0.05406512
vn -0.9958983 -0.08800747 0.021007901
vn -0.93374455 -0.33632845 0.12249198
vn -0.83088124 -0.3952365 0.3916943
vn -0.049654905 0.02211288 -0.9985216
vn 0.00032100079 -0.0046060598 -0.9999894
vn 0.0048176 0.017754633 -0.9998307
vn 0.003644378 -0.0026398893 -0.99998987
vn 0.16371618 -0.05074258 -0.98520154
vn 0.0063938894 0.045869768 -0.99892694
vn -0.0009906255 0.00042639943 -0.9999994
vn -0.040111843 -0.112141006 -0.9928824
vn -0.16677059 0.0123860715 -0.985918
vn -0.3068499 0.12242249 -0.94385165
vn -0.5372002 0.0011034016 -0.843454
vn -0.34240285 -0.26061204 -0.9026858
vn -0.19640878 -0.010989869 -0.98046046
vn -0.13546954 -0.5253827 -0.84001243
vn -0.33315462 -0.7699139 -0.54427975
vn 0.57662785 -0.27365515 -0.7698137
vn 0.2006807 -0.54786325 -0.8121411
vn 0.7331583 -0.13491693 -0.6665405
vn 0.733233 -0.05261866 -0.6779387
vn 0.7131764 0.05904314 -0.6984936
vn 0.603223 0.3529408 -0.7152307
vn 0.6171441 0.38706896 -0.6850625
vn 0.8493772 -0.04661559 0.5257237
vn 0.8086125 -0.08413479 0.5822947
vn 0.85060674 -0.046930242 0.52370393
vn 0.74947274 -0.20248619 0.63030934
vn 0.7585311 -0.2658657 0.59493375
vn 0.7713138 -0.2793791 0.5718588
g polySurface163_0
f 3/3/3 2/2/2 1/1/1
f 6/6/6 5/5/5 4/4/4
f 9/9/9 8/8/8 7/7/7
f 9/9/9 7/7/7 10/10/10
f 10/10/10 7/7/7 11/11/11
f 10/10/10 12/12/12 9/9/9
f 13/13/13 9/9/9 12/12/12
f 16/16/16 15/15/15 14/14/14
f 17/17/17 16/16/16 14/14/14
f 16/16/16 17/17/17 18/18/18
f 19/19/19 16/16/16 18/18/18
f 20/20/20 16/16/16 19/19/19
f 19/19/19 18/18/18 21/21/21
f 21/21/21 18/18/18 22/22/22
f 18/18/18 17/17/17 23/23/23
f 22/22/22 18/18/18 23/23/23
f 23/23/23 17/17/17 24/24/24
f 25/25/25 23/23/23 24/24/24
f 26/26/26 23/23/23 25/25/25
f 27/27/27 22/22/22 23/23/23
f 28/28/28 22/22/22 27/27/27
f 31/31/31 30/30/30 29/29/29
f 29/29/29 32/32/32 31/31/31
f 32/32/32 33/33/33 31/31/31
f 34/34/34 33/33/33 32/32/32
f 36/36/36 35/35/35 33/33/33
f 35/35/35 37/37/37 33/33/33
f 37/37/37 38/38/38 33/33/33
f 33/33/33 38/38/38 39/39/39
f 33/33/33 39/39/39 40/40/40
f 43/43/43 42/42/42 41/41/41
f 43/43/43 44/44/44 42/42/42
f 47/47/47 46/46/46 45/45/45
f 48/48/48 46/46/46 47/47/47
f 49/49/49 46/46/46 48/48/48
f 52/52/52 51/51/51 50/50/50
f 53/53/53 52/52/52 50/50/50
f 53/53/53 50/50/50 54/54/54
f 53/53/53 54/54/54 55/55/55
f 53/53/53 56/56/56 52/52/52
f 55/55/55 57/57/57 53/53/53
f 53/53/53 57/57/57 56/56/56
f 55/55/55 58/58/58 57/57/57
f 58/58/58 59/59/59 57/57/57
f 60/60/60 56/56/56 57/57/57
f 60/60/60 61/61/61 56/56/56
f 64/64/64 63/63/63 62/62/62
f 65/65/65 62/62/62 63/63/63
f 63/63/63 66/66/66 65/65/65
f 68/68/68 66/66/66 67/67/67
f 68/68/68 69/69/69 66/66/66
f 68/68/68 70/70/70 69/69/69
f 69/69/69 70/70/70 71/71/71
f 72/72/72 71/71/71 70/70/70
f 70/70/70 68/68/68 73/73/73
f 74/74/74 70/70/70 73/73/73
f 70/70/70 74/74/74 75/75/75
f 73/73/73 68/68/68 76/76/76
f 76/76/76 68/68/68 77/77/77
f 78/78/78 76/76/76 77/77/77
f 77/77/77 79/79/79 78/78/78
f 81/81/81 76/76/76 80/80/80
f 76/76/76 82/82/82 80/80/80
f 76/76/76 83/83/83 82/82/82
f 83/83/83 84/84/84 82/82/82
f 87/87/87 86/86/86 85/85/85
f 86/86/86 88/88/88 85/85/85
f 88/88/88 86/86/86 89/89/89
f 89/89/89 90/90/90 88/88/88
f 91/91/91 88/88/88 90/90/90
f 92/92/92 88/88/88 91/91/91
f 85/85/85 88/88/88 93/93/93
f 85/85/85 93/93/93 94/94/94
f 94/94/94 93/93/93 95/95/95
f 93/93/93 96/96/96 95/95/95
f 93/93/93 88/88/88 97/97/97
f 88/88/88 92/92/92 97/97/97
f 93/93/93 97/97/97 96/96/96
f 97/97/97 92/92/92 96/96/96
f 92/92/92 98/98/98 96/96/96
f 98/98/98 99/99/99 96/96/96
f 100/100/100 98/98/98 92/92/92
f 98/98/98 100/100/100 101/101/101
f 102/102/102 101/101/101 100/100/100
f 102/102/102 100/100/100 103/103/103
f 102/102/102 103/103/103 104/104/104
f 105/105/105 104/104/104 103/103/103
f 104/104/104 105/105/105 106/106/106
f 109/109/109 108/108/108 107/107/107
f 108/108/108 110/110/110 107/107/107
f 111/111/111 110/110/110 108/108/108
f 112/112/112 110/110/110 111/111/111
