g polySurface21
v -0.1737627 0.7915852 -0.53478646
v -6.108322E-09 1.2099373 0
v -0.4549166 0.7915852 -0.33051622
v 0.17376262 0.7915852 -0.53478646
v 0.45491654 0.7915852 -0.3305163
v 0.5623077 0.7915852 0
v 0.45491648 0.7915852 0.3305161
v -0.4549166 0.7915852 -0.33051622
v -6.108322E-09 1.2099373 0
v -0.5623077 0.7915852 0
v -0.45491654 0.7915852 0.3305161
v -0.1737626 0.7915852 0.5347864
v 0.17376268 0.7915852 0.5347864
v 0.45491648 0.7915852 0.3305161
v 0.14654465 -0.10728506 -0.22162066
v 0.09354209 0.8554106 -0.12981756
v -0.064032145 0.8554106 -0.12981756
v -0.11703465 -0.10728506 -0.22162066
v -0.11703465 -0.10728506 -0.22162066
v -0.064032145 0.8554106 -0.12981756
v -0.14281929 0.8554106 0.0066457563
v -0.24882436 -0.10728506 0.0066457563
v -0.24882436 -0.10728506 0.0066457563
v -0.14281929 0.8554106 0.0066457563
v -0.06403218 0.8554106 0.14310908
v -0.117034726 -0.10728506 0.23491219
v -0.117034726 -0.10728506 0.23491219
v -0.06403218 0.8554106 0.14310908
v 0.09354204 0.8554106 0.14310908
v 0.14654459 -0.10728506 0.23491219
v 0.14654459 -0.10728506 0.23491219
v 0.09354204 0.8554106 0.14310908
v 0.17232919 0.8554106 0.0066457563
v 0.2783342 -0.10728506 0.0066457563
v 0.2783342 -0.10728506 0.0066457563
v 0.17232919 0.8554106 0.0066457563
v 0.09354209 0.8554106 -0.12981756
v 0.14654465 -0.10728506 -0.22162066
v -0.34304616 0.3847593 0.18310794
v -0.33374855 0.56899345 0.57690495
v -0.52182364 0.33087865 0.2654023
v -0.14374699 0.40660426 0.22104844
v -5.1407635E-05 0.3880693 0.3647318
v 0.033153623 0.33623427 0.55927587
v -0.05681511 0.2708983 0.73037165
v -0.52182364 0.33087865 0.2654023
v -0.33374855 0.56899345 0.57690495
v -0.6117922 0.26554272 0.43649805
v -0.5785873 0.21370766 0.63104206
v -0.4348917 0.1951727 0.7747257
v -0.23559259 0.21701758 0.8126661
v -0.05681511 0.2708983 0.73037165
v -0.123543695 -0.1265947 0.26888245
v -0.23376195 0.3111241 0.4439586
v -0.3157575 0.3021367 0.42834923
v -0.26070026 -0.14162824 0.24277207
v -0.26070026 -0.14162824 0.24277207
v -0.3157575 0.3021367 0.42834923
v -0.36738828 0.27569476 0.48903546
v -0.34706447 -0.18585844 0.34428367
v -0.34706447 -0.18585844 0.34428367
v -0.36738828 0.27569476 0.48903546
v -0.33702338 0.25824025 0.56533104
v -0.2962722 -0.21505514 0.47190556
v -0.2962722 -0.21505514 0.47190556
v -0.33702338 0.25824025 0.56533104
v -0.2550277 0.26722765 0.5809406
v -0.15911563 -0.20002165 0.49801594
v -0.15911563 -0.20002165 0.49801594
v -0.2550277 0.26722765 0.5809406
v -0.20339714 0.29366958 0.5202544
v -0.07275148 -0.15579143 0.39650443
v -0.07275148 -0.15579143 0.39650443
v -0.20339714 0.29366958 0.5202544
v -0.23376195 0.3111241 0.4439586
v -0.123543695 -0.1265947 0.26888245
v 0.10752474 0.4339623 0.23370557
v 0.4691238 0.68429506 0.10435369
v 0.23765065 0.42114624 0.39986208
v 0.09851208 0.42717457 0.022571275
v 0.21405552 0.40337566 -0.15289481
v 0.41002133 0.37165606 -0.22567044
v 0.6115571 0.34413144 -0.16795804
v 0.23765065 0.42114624 0.39986208
v 0.4691238 0.68429506 0.10435369
v 0.43918657 0.39362165 0.4575745
v 0.6351523 0.361902 0.38479877
v 0.75069577 0.33810312 0.20933259
v 0.7416832 0.3313154 -0.0018015151
v 0.6115571 0.34413144 -0.16795804
v 0.22989309 -0.13039605 0.06441553
v 0.35686985 0.37558785 0.072030306
v 0.36057782 0.37838048 0.15889503
v 0.23609552 -0.12572478 0.20971696
v 0.23609552 -0.12572478 0.20971696
v 0.36057782 0.37838048 0.15889503
v 0.43689093 0.36867929 0.1995058
v 0.36374682 -0.14195226 0.27764785
v 0.36374682 -0.14195226 0.27764785
v 0.43689093 0.36867929 0.1995058
v 0.50949615 0.35618547 0.15325193
v 0.48519582 -0.16285107 0.2002775
v 0.48519582 -0.16285107 0.2002775
v 0.50949615 0.35618547 0.15325193
v 0.5057882 0.35339284 0.0663871
v 0.47899342 -0.16752234 0.05497607
v 0.47899342 -0.16752234 0.05497607
v 0.5057882 0.35339284 0.0663871
v 0.42947513 0.3630941 0.025776237
v 0.35134208 -0.15129484 -0.01295492
v 0.35134208 -0.15129484 -0.01295492
v 0.42947513 0.3630941 0.025776237
v 0.35686985 0.37558785 0.072030306
v 0.22989309 -0.13039605 0.06441553
v 0.46340993 0.1850238 0.50545406
v 0.2556622 0.41671494 0.47523606
v 0.4516588 0.20199107 0.3602054
v 0.3874617 0.17972812 0.63086116
v 0.25282362 0.18812683 0.6885256
v 0.11092281 0.20701185 0.6564214
v 0.0159608 0.22916977 0.54681134
v 0.4516588 0.20199107 0.3602054
v 0.2556622 0.41671494 0.47523606
v 0.35669667 0.22414896 0.25059542
v 0.21479595 0.24303405 0.21849124
v 0.080157794 0.2514327 0.27615565
v 0.0042095617 0.24613704 0.40156275
v 0.0159608 0.22916977 0.54681134
v 0.23590855 -0.14979213 0.5012301
v 0.25369796 0.19783778 0.50293225
v 0.28494453 0.2000165 0.4513374
v 0.28817576 -0.14614768 0.4149257
v 0.28817576 -0.14614768 0.4149257
v 0.28494453 0.2000165 0.4513374
v 0.25619912 0.20879401 0.39899427
v 0.24009253 -0.13146536 0.32736978
v 0.24009253 -0.13146536 0.32736978
v 0.25619912 0.20879401 0.39899427
v 0.19620721 0.21539266 0.3982461
v 0.13974227 -0.120427504 0.32611832
v 0.13974227 -0.120427504 0.32611832
v 0.19620721 0.21539266 0.3982461
v 0.16496065 0.21321395 0.44984105
v 0.08747508 -0.12407196 0.4124227
v 0.08747508 -0.12407196 0.4124227
v 0.16496065 0.21321395 0.44984105
v 0.19370604 0.20443648 0.5021841
v 0.13555832 -0.13875426 0.49997863
v 0.13555832 -0.13875426 0.49997863
v 0.19370604 0.20443648 0.5021841
v 0.25369796 0.19783778 0.50293225
v 0.23590855 -0.14979213 0.5012301
v -0.2863115 0.26659727 0.005987649
v -0.54994166 0.4084631 -0.08415774
v -0.26853874 0.28357765 -0.13864613
v -0.38270953 0.22952454 0.110180564
v -0.5209121 0.18651985 0.13413443
v -0.6481305 0.15400961 0.06869973
v -0.7157717 0.14441162 -0.06112986
v -0.26853874 0.28357765 -0.13864613
v -0.54994166 0.4084631 -0.08415774
v -0.33617985 0.27397963 -0.26847556
v -0.4633983 0.24146937 -0.33391035
v -0.60160077 0.19846474 -0.30995646
v -0.6979988 0.16139199 -0.20576364
v -0.7157717 0.14441162 -0.06112986
v -0.37016577 -0.12741295 -0.034022152
v -0.47955924 0.20281075 -0.04632187
v -0.43989915 0.21806322 -0.08918885
v -0.3038251 -0.101899706 -0.10572711
v -0.3038251 -0.101899706 -0.10572711
v -0.43989915 0.21806322 -0.08918885
v -0.45656976 0.21780178 -0.14719886
v -0.33171058 -0.10233691 -0.20276214
v -0.33171058 -0.10233691 -0.20276214
v -0.45656976 0.21780178 -0.14719886
v -0.51290053 0.20228796 -0.16234191
v -0.4259366 -0.1282874 -0.22809233
v -0.4259366 -0.1282874 -0.22809233
v -0.51290053 0.20228796 -0.16234191
v -0.55256057 0.1870355 -0.119474895
v -0.49227715 -0.15380071 -0.15638743
v -0.49227715 -0.15380071 -0.15638743
v -0.55256057 0.1870355 -0.119474895
v -0.5358898 0.1872969 -0.06146489
v -0.46439165 -0.15336344 -0.059352335
v -0.46439165 -0.15336344 -0.059352335
v -0.5358898 0.1872969 -0.06146489
v -0.47955924 0.20281075 -0.04632187
v -0.37016577 -0.12741295 -0.034022152
vt 0.017704584 0.33122015
vt 0.24519886 0.2566034
vt 0.017374517 0.18298519
vt 0.10488817 0.45101386
vt 0.2452141 0.49815524
vt 0.3855328 0.45099762
vt 0.4727033 0.33118716
vt 0.017374517 0.18298519
vt 0.24519886 0.2566034
vt 0.10427919 0.06298419
vt 0.24518701 0.017107304
vt 0.38608813 0.06296254
vt 0.47301582 0.18296145
vt 0.4727033 0.33118716
vt 0.017374517 0.65121114
vt 0.08917187 0.8826255
vt 0.1253942 0.86924446
vt 0.07448462 0.63820344
vt 0.07448462 0.63820344
vt 0.1253942 0.86924446
vt 0.16339633 0.86304915
vt 0.13803688 0.6277963
vt 0.13803688 0.6277963
vt 0.16339633 0.86304915
vt 0.20184395 0.861016
vt 0.20234518 0.6244148
vt 0.20234518 0.6244148
vt 0.20184395 0.861016
vt 0.24027993 0.8632143
vt 0.26663986 0.628083
vt 0.26663986 0.628083
vt 0.24027993 0.8632143
vt 0.27824473 0.8696122
vt 0.3301454 0.63874686
vt 0.3301454 0.63874686
vt 0.27824473 0.8696122
vt 0.31529024 0.880083
vt 0.39210626 0.6562872
vt 0.40928757 0.5939718
vt 0.5425127 0.5498373
vt 0.40895477 0.50699323
vt 0.46043748 0.6642422
vt 0.54252553 0.6923747
vt 0.624607 0.6642291
vt 0.67574644 0.5939429
vt 0.40895477 0.50699323
vt 0.5425127 0.5498373
vt 0.45983174 0.4365224
vt 0.5425047 0.4095489
vt 0.6251654 0.436502
vt 0.6760655 0.5069758
vt 0.67574644 0.5939429
vt 0.3795864 0.8357356
vt 0.41548425 0.9480965
vt 0.43405533 0.9409593
vt 0.40872484 0.8289326
vt 0.40872484 0.8289326
vt 0.43405533 0.9409593
vt 0.45370385 0.9377084
vt 0.44160175 0.8235322
vt 0.44160175 0.8235322
vt 0.45370385 0.9377084
vt 0.47359928 0.93676823
vt 0.47488007 0.82194954
vt 0.47488007 0.82194954
vt 0.47359928 0.93676823
vt 0.4934896 0.9381583
vt 0.5081081 0.8242674
vt 0.5081081 0.8242674
vt 0.4934896 0.9381583
vt 0.51306415 0.9418412
vt 0.5408653 0.83044434
vt 0.5408653 0.83044434
vt 0.51306415 0.9418412
vt 0.5320071 0.9477579
vt 0.5726196 0.8403446
vt 0.40928757 0.5939718
vt 0.5425127 0.5498373
vt 0.40895477 0.50699323
vt 0.46043748 0.6642422
vt 0.54252553 0.6923747
vt 0.624607 0.6642291
vt 0.67574644 0.5939429
vt 0.40895477 0.50699323
vt 0.5425127 0.5498373
vt 0.45983174 0.4365224
vt 0.5425047 0.4095489
vt 0.6251654 0.436502
vt 0.6760655 0.5069758
vt 0.67574644 0.5939429
vt 0.3795864 0.8357356
vt 0.41548425 0.9480965
vt 0.43405533 0.9409593
vt 0.40872484 0.8289326
vt 0.40872484 0.8289326
vt 0.43405533 0.9409593
vt 0.45370385 0.9377084
vt 0.44160175 0.8235322
vt 0.44160175 0.8235322
vt 0.45370385 0.9377084
vt 0.47359928 0.93676823
vt 0.47488007 0.82194954
vt 0.47488007 0.82194954
vt 0.47359928 0.93676823
vt 0.4934896 0.9381583
vt 0.5081081 0.8242674
vt 0.5081081 0.8242674
vt 0.4934896 0.9381583
vt 0.51306415 0.9418412
vt 0.5408653 0.83044434
vt 0.5408653 0.83044434
vt 0.51306415 0.9418412
vt 0.5320071 0.9477579
vt 0.5726196 0.8403446
vt 0.40928757 0.5939718
vt 0.5425127 0.5498373
vt 0.40895477 0.50699323
vt 0.46043748 0.6642422
vt 0.54252553 0.6923747
vt 0.624607 0.6642291
vt 0.67574644 0.5939429
vt 0.40895477 0.50699323
vt 0.5425127 0.5498373
vt 0.45983174 0.4365224
vt 0.5425047 0.4095489
vt 0.6251654 0.436502
vt 0.6760655 0.5069758
vt 0.67574644 0.5939429
vt 0.3795864 0.8357356
vt 0.41548425 0.9480965
vt 0.43405533 0.9409593
vt 0.40872484 0.8289326
vt 0.40872484 0.8289326
vt 0.43405533 0.9409593
vt 0.45370385 0.9377084
vt 0.44160175 0.8235322
vt 0.44160175 0.8235322
vt 0.45370385 0.9377084
vt 0.47359928 0.93676823
vt 0.47488007 0.82194954
vt 0.47488007 0.82194954
vt 0.47359928 0.93676823
vt 0.4934896 0.9381583
vt 0.5081081 0.8242674
vt 0.5081081 0.8242674
vt 0.4934896 0.9381583
vt 0.51306415 0.9418412
vt 0.5408653 0.83044434
vt 0.5408653 0.83044434
vt 0.51306415 0.9418412
vt 0.5320071 0.9477579
vt 0.5726196 0.8403446
vt 0.40928757 0.5939718
vt 0.5425127 0.5498373
vt 0.40895477 0.50699323
vt 0.46043748 0.6642422
vt 0.54252553 0.6923747
vt 0.624607 0.6642291
vt 0.67574644 0.5939429
vt 0.40895477 0.50699323
vt 0.5425127 0.5498373
vt 0.45983174 0.4365224
vt 0.5425047 0.4095489
vt 0.6251654 0.436502
vt 0.6760655 0.5069758
vt 0.67574644 0.5939429
vt 0.3795864 0.8357356
vt 0.41548425 0.9480965
vt 0.43405533 0.9409593
vt 0.40872484 0.8289326
vt 0.40872484 0.8289326
vt 0.43405533 0.9409593
vt 0.45370385 0.9377084
vt 0.44160175 0.8235322
vt 0.44160175 0.8235322
vt 0.45370385 0.9377084
vt 0.47359928 0.93676823
vt 0.47488007 0.82194954
vt 0.47488007 0.82194954
vt 0.47359928 0.93676823
vt 0.4934896 0.9381583
vt 0.5081081 0.8242674
vt 0.5081081 0.8242674
vt 0.4934896 0.9381583
vt 0.51306415 0.9418412
vt 0.5408653 0.83044434
vt 0.5408653 0.83044434
vt 0.51306415 0.9418412
vt 0.5320071 0.9477579
vt 0.5726196 0.8403446
vn -0.1844554 0.802308 -0.5676954
vn -0 1 0
vn -0.48291063 0.802308 -0.35085493
vn 0.1844553 0.80230796 -0.5676955
vn 0.48291045 0.80230796 -0.35085523
vn 0.5969102 0.802308 0
vn 0.4829106 0.8023079 0.35085514
vn -0.48291063 0.802308 -0.35085493
vn -0 1 0
vn -0.59691024 0.802308 0
vn -0.48291054 0.80230796 0.3508551
vn -0.18445542 0.80230796 0.56769544
vn 0.18445544 0.80230796 0.56769544
vn 0.4829106 0.8023079 0.35085514
vn 0.49699628 0.10945123 -0.8608224
vn 0.49699628 0.10945123 -0.8608224
vn -0.4969961 0.10945123 -0.86082244
vn -0.4969961 0.10945123 -0.86082244
vn -0.4969961 0.10945123 -0.86082244
vn -0.4969961 0.10945123 -0.86082244
vn -0.99399215 0.10945123 0
vn -0.99399215 0.10945123 0
vn -0.99399215 0.10945123 0
vn -0.99399215 0.10945123 0
vn -0.49699616 0.10945125 0.86082244
vn -0.49699616 0.10945125 0.86082244
vn -0.49699616 0.10945125 0.86082244
vn -0.49699616 0.10945125 0.86082244
vn 0.49699616 0.10945123 0.86082244
vn 0.49699616 0.10945123 0.86082244
vn 0.49699616 0.10945123 0.86082244
vn 0.49699616 0.10945123 0.86082244
vn 0.99399215 0.10945119 0
vn 0.99399215 0.10945119 0
vn 0.99399215 0.10945119 0
vn 0.99399215 0.10945119 0
vn 0.49699628 0.10945123 -0.8608224
vn 0.49699628 0.10945123 -0.8608224
vn -0.22509505 0.88455933 -0.40851793
vn -0.15698484 0.9473136 0.27919984
vn -0.5775031 0.7783492 -0.2462982
vn 0.16776574 0.92762023 -0.33372945
vn 0.45101994 0.89108413 -0.050499182
vn 0.51647407 0.7889064 0.33298856
vn 0.33912686 0.6601154 0.6702542
vn -0.5775031 0.7783492 -0.2462982
vn -0.15698484 0.9473136 0.27919984
vn -0.75485027 0.6495583 0.090967506
vn -0.6893964 0.54738057 0.47445464
vn -0.40614232 0.5108444 0.7576849
vn -0.013281172 0.5539053 0.83247375
vn 0.33912686 0.6601154 0.6702542
vn 0.5925014 0.42332488 -0.68537456
vn 0.5925014 0.42332488 -0.68537456
vn -0.37754312 0.31699955 -0.8700417
vn -0.37754312 0.31699955 -0.8700417
vn -0.37754312 0.31699955 -0.8700417
vn -0.37754312 0.31699955 -0.8700417
vn -0.98835653 0.004180044 -0.15209825
vn -0.98835653 0.004180044 -0.15209825
vn -0.98835653 0.004180044 -0.15209825
vn -0.98835653 0.004180044 -0.15209825
vn -0.629126 -0.20231494 0.7505127
vn -0.629126 -0.20231494 0.7505127
vn -0.629126 -0.20231494 0.7505127
vn -0.629126 -0.20231494 0.7505127
vn 0.3409188 -0.0959898 0.9351793
vn 0.3409188 -0.0959898 0.9351793
vn 0.3409188 -0.0959898 0.9351793
vn 0.3409188 -0.0959898 0.9351793
vn 0.9517317 0.21682999 0.21723601
vn 0.9517317 0.21682999 0.21723601
vn 0.9517317 0.21682999 0.21723601
vn 0.9517317 0.21682999 0.21723601
vn 0.5925014 0.42332488 -0.68537456
vn 0.5925014 0.42332488 -0.68537456
vn -0.50805646 0.83760357 0.20074573
vn 0.1458976 0.98856926 -0.0380093
vn -0.25487238 0.8126677 0.52403367
vn -0.52559197 0.82439685 -0.21005456
vn -0.30078086 0.7780917 -0.5514564
vn 0.08050649 0.7163752 -0.69305503
vn 0.47263154 0.66282094 -0.5807649
vn -0.25487238 0.8126677 0.52403367
vn 0.1458976 0.98856926 -0.0380093
vn 0.13725297 0.75911325 0.6363244
vn 0.51854044 0.6973968 0.49472585
vn 0.7433514 0.65109175 0.15332425
vn 0.7258158 0.6378849 -0.25747666
vn 0.47263154 0.66282094 -0.5807649
vn -0.8553752 0.22170216 -0.46816823
vn -0.8553752 0.22170216 -0.46816823
vn -0.8130184 0.25360274 0.52410567
vn -0.8130184 0.25360274 0.52410567
vn -0.8130184 0.25360274 0.52410567
vn -0.8130184 0.25360274 0.52410567
vn 0.0587206 0.1427841 0.98801047
vn 0.0587206 0.1427841 0.98801047
vn 0.0587206 0.1427841 0.98801047
vn 0.0587206 0.1427841 0.98801047
vn 0.88810414 6.488624E-05 0.45964214
vn 0.88810414 6.488624E-05 0.45964214
vn 0.88810414 6.488624E-05 0.45964214
vn 0.88810414 6.488624E-05 0.45964214
vn 0.845748 -0.031835858 -0.5326319
vn 0.845748 -0.031835858 -0.5326319
vn 0.845748 -0.031835858 -0.5326319
vn 0.845748 -0.031835858 -0.5326319
vn -0.02599137 0.078982785 -0.9965371
vn -0.02599137 0.078982785 -0.9965371
vn -0.02599137 0.078982785 -0.9965371
vn -0.02599137 0.078982785 -0.9965371
vn -0.8553752 0.22170216 -0.46816823
vn -0.8553752 0.22170216 -0.46816823
vn 0.7110302 0.66669965 0.22348991
vn 0.10739276 0.988466 0.10677946
vn 0.6788121 0.71321857 -0.17473799
vn 0.5028028 0.6521805 0.5673183
vn 0.13366637 0.67520696 0.7254164
vn -0.25538257 0.726984 0.63739634
vn -0.5157398 0.7877341 0.33687887
vn 0.6788121 0.71321857 -0.17473799
vn 0.10739276 0.988466 0.10677946
vn 0.41845483 0.7739689 -0.47525546
vn 0.029406477 0.8257458 -0.5632753
vn -0.33973053 0.8487724 -0.40517706
vn -0.54795784 0.8342532 -0.061348546
vn -0.5157398 0.7877341 0.33687887
vn 0.48552027 -0.029123887 0.87374014
vn 0.48552027 -0.029123887 0.87374014
vn 0.9996706 0.0067262347 0.024765994
vn 0.9996706 0.0067262347 0.024765994
vn 0.9996706 0.0067262347 0.024765994
vn 0.9996706 0.0067262347 0.024765994
vn 0.52667767 0.15115577 -0.83651805
vn 0.52667767 0.15115577 -0.83651805
vn 0.52667767 0.15115577 -0.83651805
vn 0.52667767 0.15115577 -0.83651805
vn -0.4604651 0.2597351 -0.8488283
vn -0.4604651 0.2597351 -0.8488283
vn -0.4604651 0.2597351 -0.8488283
vn -0.4604651 0.2597351 -0.8488283
vn -0.9746156 0.22388475 0.00014559299
vn -0.9746156 0.22388475 0.00014559299
vn -0.9746156 0.22388475 0.00014559299
vn -0.9746156 0.22388475 0.00014559299
vn -0.5016229 0.079455316 0.8614298
vn -0.5016229 0.079455316 0.8614298
vn -0.5016229 0.079455316 0.8614298
vn -0.5016229 0.079455316 0.8614298
vn 0.48552027 -0.029123887 0.87374014
vn 0.48552027 -0.029123887 0.87374014
vn 0.3487468 0.86982435 0.3489716
vn -0.28398925 0.955706 0.07730508
vn 0.39747426 0.91637945 -0.04757041
vn 0.084452555 0.7681823 0.63463676
vn -0.2944571 0.65027654 0.70031106
vn -0.6432511 0.5611432 0.5209091
vn -0.8287025 0.5348287 0.1649558
vn 0.39747426 0.91637945 -0.04757041
vn -0.28398925 0.955706 0.07730508
vn 0.2120228 0.8900644 -0.40352404
vn -0.13677141 0.8009314 -0.5829257
vn -0.51568085 0.68302584 -0.5172513
vn -0.77997494 0.5813836 -0.23158652
vn -0.8287025 0.5348287 0.1649558
vn 0.24118035 0.11578495 0.9635486
vn 0.24118035 0.11578495 0.9635486
vn 0.8937709 0.3667583 0.25818968
vn 0.8937709 0.3667583 0.25818968
vn 0.8937709 0.3667583 0.25818968
vn 0.8937709 0.3667583 0.25818968
vn 0.6194626 0.36245722 -0.696341
vn 0.6194626 0.36245722 -0.696341
vn 0.6194626 0.36245722 -0.696341
vn 0.6194626 0.36245722 -0.696341
vn -0.30743602 0.107182875 -0.94551307
vn -0.30743602 0.107182875 -0.94551307
vn -0.30743602 0.107182875 -0.94551307
vn -0.30743602 0.107182875 -0.94551307
vn -0.9600264 -0.14379044 -0.24015349
vn -0.9600264 -0.14379044 -0.24015349
vn -0.9600264 -0.14379044 -0.24015349
vn -0.9600264 -0.14379044 -0.24015349
vn -0.68571776 -0.13948917 0.7143767
vn -0.68571776 -0.13948917 0.7143767
vn -0.68571776 -0.13948917 0.7143767
vn -0.68571776 -0.13948917 0.7143767
vn 0.24118035 0.11578495 0.9635486
vn 0.24118035 0.11578495 0.9635486
g polySurface21_0
f 3/3/3 2/2/2 1/1/1
f 1/1/1 2/2/2 4/4/4
f 4/4/4 2/2/2 5/5/5
f 5/5/5 2/2/2 6/6/6
f 6/6/6 2/2/2 7/7/7
f 10/10/10 9/9/9 8/8/8
f 11/11/11 9/9/9 10/10/10
f 12/12/12 9/9/9 11/11/11
f 13/13/13 9/9/9 12/12/12
f 14/14/14 9/9/9 13/13/13
f 17/17/17 16/16/16 15/15/15
f 18/18/18 17/17/17 15/15/15
f 21/21/21 20/20/20 19/19/19
f 22/22/22 21/21/21 19/19/19
f 25/25/25 24/24/24 23/23/23
f 26/26/26 25/25/25 23/23/23
f 29/29/29 28/28/28 27/27/27
f 30/30/30 29/29/29 27/27/27
f 33/33/33 32/32/32 31/31/31
f 34/34/34 33/33/33 31/31/31
f 37/37/37 36/36/36 35/35/35
f 38/38/38 37/37/37 35/35/35
f 41/41/41 40/40/40 39/39/39
f 39/39/39 40/40/40 42/42/42
f 42/42/42 40/40/40 43/43/43
f 43/43/43 40/40/40 44/44/44
f 44/44/44 40/40/40 45/45/45
f 48/48/48 47/47/47 46/46/46
f 49/49/49 47/47/47 48/48/48
f 50/50/50 47/47/47 49/49/49
f 51/51/51 47/47/47 50/50/50
f 52/52/52 47/47/47 51/51/51
f 55/55/55 54/54/54 53/53/53
f 56/56/56 55/55/55 53/53/53
f 59/59/59 58/58/58 57/57/57
f 60/60/60 59/59/59 57/57/57
f 63/63/63 62/62/62 61/61/61
f 64/64/64 63/63/63 61/61/61
f 67/67/67 66/66/66 65/65/65
f 68/68/68 67/67/67 65/65/65
f 71/71/71 70/70/70 69/69/69
f 72/72/72 71/71/71 69/69/69
f 75/75/75 74/74/74 73/73/73
f 76/76/76 75/75/75 73/73/73
f 79/79/79 78/78/78 77/77/77
f 77/77/77 78/78/78 80/80/80
f 80/80/80 78/78/78 81/81/81
f 81/81/81 78/78/78 82/82/82
f 82/82/82 78/78/78 83/83/83
f 86/86/86 85/85/85 84/84/84
f 87/87/87 85/85/85 86/86/86
f 88/88/88 85/85/85 87/87/87
f 89/89/89 85/85/85 88/88/88
f 90/90/90 85/85/85 89/89/89
f 93/93/93 92/92/92 91/91/91
f 94/94/94 93/93/93 91/91/91
f 97/97/97 96/96/96 95/95/95
f 98/98/98 97/97/97 95/95/95
f 101/101/101 100/100/100 99/99/99
f 102/102/102 101/101/101 99/99/99
f 105/105/105 104/104/104 103/103/103
f 106/106/106 105/105/105 103/103/103
f 109/109/109 108/108/108 107/107/107
f 110/110/110 109/109/109 107/107/107
f 113/113/113 112/112/112 111/111/111
f 114/114/114 113/113/113 111/111/111
f 117/117/117 116/116/116 115/115/115
f 115/115/115 116/116/116 118/118/118
f 118/118/118 116/116/116 119/119/119
f 119/119/119 116/116/116 120/120/120
f 120/120/120 116/116/116 121/121/121
f 124/124/124 123/123/123 122/122/122
f 125/125/125 123/123/123 124/124/124
f 126/126/126 123/123/123 125/125/125
f 127/127/127 123/123/123 126/126/126
f 128/128/128 123/123/123 127/127/127
f 131/131/131 130/130/130 129/129/129
f 132/132/132 131/131/131 129/129/129
f 135/135/135 134/134/134 133/133/133
f 136/136/136 135/135/135 133/133/133
f 139/139/139 138/138/138 137/137/137
f 140/140/140 139/139/139 137/137/137
f 143/143/143 142/142/142 141/141/141
f 144/144/144 143/143/143 141/141/141
f 147/147/147 146/146/146 145/145/145
f 148/148/148 147/147/147 145/145/145
f 151/151/151 150/150/150 149/149/149
f 152/152/152 151/151/151 149/149/149
f 155/155/155 154/154/154 153/153/153
f 153/153/153 154/154/154 156/156/156
f 156/156/156 154/154/154 157/157/157
f 157/157/157 154/154/154 158/158/158
f 158/158/158 154/154/154 159/159/159
f 162/162/162 161/161/161 160/160/160
f 163/163/163 161/161/161 162/162/162
f 164/164/164 161/161/161 163/163/163
f 165/165/165 161/161/161 164/164/164
f 166/166/166 161/161/161 165/165/165
f 169/169/169 168/168/168 167/167/167
f 170/170/170 169/169/169 167/167/167
f 173/173/173 172/172/172 171/171/171
f 174/174/174 173/173/173 171/171/171
f 177/177/177 176/176/176 175/175/175
f 178/178/178 177/177/177 175/175/175
f 181/181/181 180/180/180 179/179/179
f 182/182/182 181/181/181 179/179/179
f 185/185/185 184/184/184 183/183/183
f 186/186/186 185/185/185 183/183/183
f 189/189/189 188/188/188 187/187/187
f 190/190/190 189/189/189 187/187/187
