g polySurface52
v 0.27567774 -0.068757765 -0.43648854
v 0.2645901 0.43043622 -0.41728425
v 0.23162709 0.43043622 -0.41728425
v 0.2205395 -0.068757765 -0.43648854
v 0.2205395 -0.068757765 -0.43648854
v 0.23162709 0.43043622 -0.41728425
v 0.21514559 0.43043622 -0.38873744
v 0.19297038 -0.068757765 -0.38873744
v 0.19297038 -0.068757765 -0.38873744
v 0.21514559 0.43043622 -0.38873744
v 0.23162709 0.43043622 -0.36019063
v 0.22053948 -0.068757765 -0.34098634
v 0.22053948 -0.068757765 -0.34098634
v 0.23162709 0.43043622 -0.36019063
v 0.2645901 0.43043622 -0.36019063
v 0.2756777 -0.068757765 -0.34098634
v 0.2756777 -0.068757765 -0.34098634
v 0.2645901 0.43043622 -0.36019063
v 0.2810716 0.43043622 -0.38873744
v 0.30324683 -0.068757765 -0.38873744
v 0.30324683 -0.068757765 -0.38873744
v 0.2810716 0.43043622 -0.38873744
v 0.2645901 0.43043622 -0.41728425
v 0.27567774 -0.068757765 -0.43648854
v -0.376126 -0.063445084 0.13615718
v -0.39901823 0.16946013 0.11854183
v -0.41632292 0.167666 0.110200405
v -0.40507212 -0.066446215 0.12220426
v -0.40507212 -0.066446215 0.12220426
v -0.41632292 0.167666 0.110200405
v -0.4323136 0.16798571 0.1209916
v -0.43182012 -0.06591146 0.14025496
v -0.43182012 -0.06591146 0.14025496
v -0.4323136 0.16798571 0.1209916
v -0.43099943 0.17009953 0.14012416
v -0.429622 -0.062375616 0.17225865
v -0.429622 -0.062375616 0.17225865
v -0.43099943 0.17009953 0.14012416
v -0.41369477 0.17189364 0.14846556
v -0.40067586 -0.05937449 0.18621157
v -0.40067586 -0.05937449 0.18621157
v -0.41369477 0.17189364 0.14846556
v -0.3977042 0.17157398 0.13767444
v -0.37392795 -0.05990922 0.1681608
v -0.37392795 -0.05990922 0.1681608
v -0.3977042 0.17157398 0.13767444
v -0.39901823 0.16946013 0.11854183
v -0.376126 -0.063445084 0.13615718
v 0.081270464 -0.054571982 0.4612579
v 0.040279943 0.32096452 0.5052347
v 0.034336384 0.32425362 0.47774202
v 0.07132843 -0.049070157 0.41526985
v 0.07132843 -0.049070157 0.41526985
v 0.034336384 0.32425362 0.47774202
v 0.00743092 0.32378697 0.4689172
v 0.02632286 -0.049850732 0.40050825
v 0.02632286 -0.049850732 0.40050825
v 0.00743092 0.32378697 0.4689172
v -0.01353095 0.32003114 0.48758513
v -0.008740751 -0.05613317 0.4317347
v -0.008740751 -0.05613317 0.4317347
v -0.01353095 0.32003114 0.48758513
v -0.0075874166 0.31674206 0.51507777
v 0.0012012662 -0.061634995 0.47772273
v 0.0012012662 -0.061634995 0.47772273
v -0.0075874166 0.31674206 0.51507777
v 0.019318057 0.31720874 0.5239028
v 0.04620683 -0.060854357 0.49248424
v 0.04620683 -0.060854357 0.49248424
v 0.019318057 0.31720874 0.5239028
v 0.040279943 0.32096452 0.5052347
v 0.081270464 -0.054571982 0.4612579
v 0.20338254 0.22625227 -0.008381053
v 0.38053423 0.32026547 0.0037293453
v 0.23062162 0.21967064 0.091903985
v 0.24017897 0.22712708 -0.10578554
v 0.32695594 0.22196089 -0.16310431
v 0.43056774 0.212727 -0.15844344
v 0.511438 0.20295246 -0.09358325
v 0.53867716 0.19637077 0.0067017577
v 0.23062162 0.21967064 0.091903985
v 0.38053423 0.32026547 0.0037293453
v 0.31149194 0.20989609 0.15676408
v 0.41510364 0.20066217 0.16142498
v 0.5018807 0.19549601 0.1041062
v 0.53867716 0.19637077 0.0067017577
v 0.3497331 -0.06871664 -0.039505
v 0.37585863 0.22218096 -0.014842029
v 0.36040732 0.22310086 -0.0046360292
v 0.32388714 -0.06717792 -0.022433013
v 0.32388714 -0.06717792 -0.022433013
v 0.36040732 0.22310086 -0.0046360292
v 0.361446 0.22223485 0.013855192
v 0.32562456 -0.068626575 0.008497808
v 0.32562456 -0.068626575 0.008497808
v 0.361446 0.22223485 0.013855192
v 0.37793604 0.2204489 0.022140315
v 0.35320792 -0.07161394 0.022356639
v 0.35320792 -0.07161394 0.022356639
v 0.37793604 0.2204489 0.022140315
v 0.3933873 0.21952902 0.011934313
v 0.37905386 -0.07315266 0.005284622
v 0.37905386 -0.07315266 0.005284622
v 0.3933873 0.21952902 0.011934313
v 0.39234862 0.22039509 -0.006556909
v 0.3773164 -0.07170401 -0.025646145
v 0.3773164 -0.07170401 -0.025646145
v 0.39234862 0.22039509 -0.006556909
v 0.37585863 0.22218096 -0.014842029
v 0.3497331 -0.06871664 -0.039505
v 0.45998955 0.3931596 -0.55209893
v 0.24010406 0.5110125 -0.39234278
v 0.32409284 0.3931596 -0.65083367
v 0.51189744 0.3931596 -0.39234278
v 0.15611526 0.3931596 -0.65083367
v 0.45998955 0.3931596 -0.23258665
v 0.020218559 0.3931596 -0.55209893
v 0.32409286 0.3931596 -0.13385189
v -0.031689327 0.3931596 -0.39234278
v 0.1561153 0.3931596 -0.13385189
v 0.020218601 0.3931596 -0.23258662
v -0.2410881 0.16635029 0.092715286
v -0.41810107 0.24764314 0.11437272
v -0.29174137 0.15356047 -0.0022156434
v -0.25631523 0.17696838 0.19947016
v -0.38892713 0.14348426 -0.049062185
v -0.33160645 0.18135911 0.2772722
v -0.49552375 0.1399704 -0.029930657
v -0.43820307 0.17784524 0.29640377
v -0.570815 0.14436112 0.047871407
v -0.5353889 0.16776903 0.24955718
v -0.5860421 0.15497921 0.1546263
v 0.21402012 0.2968107 0.6616306
v 0.014156108 0.44846088 0.508525
v 0.27824473 0.3198025 0.5179555
v 0.076722436 0.27808136 0.739698
v 0.24486473 0.3382747 0.3635518
v -0.08120522 0.27076846 0.72233874
v 0.12663005 0.34517154 0.25739628
v -0.19943982 0.27766526 0.61618334
v -0.031297576 0.33785865 0.24003708
v -0.23281991 0.29613748 0.4617796
v -0.16859527 0.3191293 0.31810457
vt 0.749628 0.43840832
vt 0.7941741 0.6605046
vt 0.8165105 0.6547734
vt 0.7857475 0.4334204
vt 0.7857475 0.4334204
vt 0.8165105 0.6547734
vt 0.8394076 0.65248305
vt 0.8240494 0.4295746
vt 0.8240494 0.4295746
vt 0.8394076 0.65248305
vt 0.86240697 0.65184015
vt 0.8625309 0.42841312
vt 0.8625309 0.42841312
vt 0.86240697 0.65184015
vt 0.8854002 0.65276664
vt 0.900996 0.42989987
vt 0.900996 0.42989987
vt 0.8854002 0.65276664
vt 0.9082818 0.65521246
vt 0.939274 0.4339622
vt 0.939274 0.4339622
vt 0.9082818 0.65521246
vt 0.93094033 0.6592204
vt 0.977188 0.44059852
vt 0.8651436 0.7215362
vt 0.88823557 0.82899237
vt 0.8997245 0.8259019
vt 0.8837346 0.7187336
vt 0.8837346 0.7187336
vt 0.8997245 0.8259019
vt 0.91155106 0.8245951
vt 0.90351915 0.7165619
vt 0.90351915 0.7165619
vt 0.91155106 0.8245951
vt 0.9234421 0.8241698
vt 0.92340904 0.71583426
vt 0.92340904 0.71583426
vt 0.9234421 0.8241698
vt 0.9353315 0.8246166
vt 0.9432985 0.7165733
vt 0.9432985 0.7165733
vt 0.9353315 0.8246166
vt 0.9471565 0.8259383
vt 0.9630776 0.7187819
vt 0.9630776 0.7187819
vt 0.9471565 0.8259383
vt 0.9588236 0.8281294
vt 0.9826254 0.7224344
vt 0.8651436 0.7215362
vt 0.88823557 0.82899237
vt 0.8997245 0.8259019
vt 0.8837346 0.7187336
vt 0.8837346 0.7187336
vt 0.8997245 0.8259019
vt 0.91155106 0.8245951
vt 0.90351915 0.7165619
vt 0.90351915 0.7165619
vt 0.91155106 0.8245951
vt 0.9234421 0.8241698
vt 0.92340904 0.71583426
vt 0.92340904 0.71583426
vt 0.9234421 0.8241698
vt 0.9353315 0.8246166
vt 0.9432985 0.7165733
vt 0.9432985 0.7165733
vt 0.9353315 0.8246166
vt 0.9471565 0.8259383
vt 0.9630776 0.7187819
vt 0.9630776 0.7187819
vt 0.9471565 0.8259383
vt 0.9588236 0.8281294
vt 0.9826254 0.7224344
vt 0.6106824 0.7625119
vt 0.71977884 0.7980823
vt 0.65243614 0.70516807
vt 0.61061764 0.83343273
vt 0.6522639 0.89085877
vt 0.719646 0.9129804
vt 0.7870797 0.8910143
vt 0.82885784 0.83368695
vt 0.65243614 0.70516807
vt 0.71977884 0.7980823
vt 0.71991026 0.68333024
vt 0.78733915 0.7053259
vt 0.82895666 0.76276267
vt 0.82885784 0.83368695
vt 0.8651436 0.7215362
vt 0.88823557 0.82899237
vt 0.8997245 0.8259019
vt 0.8837346 0.7187336
vt 0.8837346 0.7187336
vt 0.8997245 0.8259019
vt 0.91155106 0.8245951
vt 0.90351915 0.7165619
vt 0.90351915 0.7165619
vt 0.91155106 0.8245951
vt 0.9234421 0.8241698
vt 0.92340904 0.71583426
vt 0.92340904 0.71583426
vt 0.9234421 0.8241698
vt 0.9353315 0.8246166
vt 0.9432985 0.7165733
vt 0.9432985 0.7165733
vt 0.9353315 0.8246166
vt 0.9471565 0.8259383
vt 0.9630776 0.7187819
vt 0.9630776 0.7187819
vt 0.9471565 0.8259383
vt 0.9588236 0.8281294
vt 0.9826254 0.7224344
vt 0.8720473 0.088894464
vt 0.7114266 0.20585059
vt 0.91013014 0.20564584
vt 0.77263933 0.016763985
vt 0.8723083 0.32249206
vt 0.64979 0.016901696
vt 0.7730401 0.39477977
vt 0.5505441 0.08925492
vt 0.650237 0.39491755
vt 0.512723 0.20609176
vt 0.5508067 0.32285252
vt 0.719646 0.9129804
vt 0.71977884 0.7980823
vt 0.6522639 0.89085877
vt 0.7870797 0.8910143
vt 0.61061764 0.83343273
vt 0.82885784 0.83368695
vt 0.6106824 0.7625119
vt 0.82895666 0.76276267
vt 0.65243614 0.70516807
vt 0.78733915 0.7053259
vt 0.71991026 0.68333024
vt 0.719646 0.9129804
vt 0.71977884 0.7980823
vt 0.6522639 0.89085877
vt 0.7870797 0.8910143
vt 0.61061764 0.83343273
vt 0.82885784 0.83368695
vt 0.6106824 0.7625119
vt 0.82895666 0.76276267
vt 0.65243614 0.70516807
vt 0.78733915 0.7053259
vt 0.71991026 0.68333024
vn 0.49950737 0.04437831 -0.86517215
vn 0.49950737 0.04437831 -0.86517215
vn -0.49950722 0.04437828 -0.86517227
vn -0.49950722 0.04437828 -0.86517227
vn -0.49950722 0.04437828 -0.86517227
vn -0.49950722 0.04437828 -0.86517227
vn -0.99901485 0.044378284 0
vn -0.99901485 0.044378284 0
vn -0.99901485 0.044378284 0
vn -0.99901485 0.044378284 0
vn -0.4995077 0.044378296 0.8651721
vn -0.4995077 0.044378296 0.8651721
vn -0.4995077 0.044378296 0.8651721
vn -0.4995077 0.044378296 0.8651721
vn 0.4995077 0.04437828 0.8651721
vn 0.4995077 0.04437828 0.8651721
vn 0.4995077 0.04437828 0.8651721
vn 0.4995077 0.04437828 0.8651721
vn 0.99901485 0.044378288 0
vn 0.99901485 0.044378288 0
vn 0.99901485 0.044378288 0
vn 0.99901485 0.044378288 0
vn 0.49950737 0.04437831 -0.86517215
vn 0.49950737 0.04437831 -0.86517215
vn 0.82466334 0.03837477 -0.56432074
vn 0.82466334 0.03837477 -0.56432074
vn -0.070869334 -0.054474384 -0.9959971
vn -0.070869334 -0.054474384 -0.9959971
vn -0.070869334 -0.054474384 -0.9959971
vn -0.070869334 -0.054474384 -0.9959971
vn -0.89839596 -0.037930787 -0.43754542
vn -0.89839596 -0.037930787 -0.43754542
vn -0.89839596 -0.037930787 -0.43754542
vn -0.89839596 -0.037930787 -0.43754542
vn -0.8303899 0.0714618 0.5525811
vn -0.8303899 0.0714618 0.5525811
vn -0.8303899 0.0714618 0.5525811
vn -0.8303899 0.0714618 0.5525811
vn 0.06514224 0.16431054 0.9842553
vn 0.06514224 0.16431054 0.9842553
vn 0.06514224 0.16431054 0.9842553
vn 0.06514224 0.16431054 0.9842553
vn 0.89266723 0.14776684 0.4258053
vn 0.89266723 0.14776684 0.4258053
vn 0.89266723 0.14776684 0.4258053
vn 0.89266723 0.14776684 0.4258053
vn 0.82466334 0.03837477 -0.56432074
vn 0.82466334 0.03837477 -0.56432074
vn 0.9458532 0.066024974 0.31780893
vn 0.9458532 0.066024974 0.31780893
vn 0.7362422 0.1820219 -0.65177864
vn 0.7362422 0.1820219 -0.65177864
vn 0.7362422 0.1820219 -0.65177864
vn 0.7362422 0.1820219 -0.65177864
vn -0.21262968 0.16556434 -0.9630042
vn -0.21262968 0.16556434 -0.9630042
vn -0.21262968 0.16556434 -0.9630042
vn -0.21262968 0.16556434 -0.9630042
vn -0.9518911 0.033109598 -0.3046425
vn -0.9518911 0.033109598 -0.3046425
vn -0.9518911 0.033109598 -0.3046425
vn -0.9518911 0.033109598 -0.3046425
vn -0.7422796 -0.08288751 0.6649441
vn -0.7422796 -0.08288751 0.6649441
vn -0.7422796 -0.08288751 0.6649441
vn -0.7422796 -0.08288751 0.6649441
vn 0.20659125 -0.06642985 0.9761696
vn 0.20659125 -0.06642985 0.9761696
vn 0.20659125 -0.06642985 0.9761696
vn 0.20659125 -0.06642985 0.9761696
vn 0.9458532 0.066024974 0.31780893
vn 0.9458532 0.066024974 0.31780893
vn -0.46931142 0.88296896 0.0106150955
vn 0.086827755 0.9953485 0.041740343
vn -0.38122797 0.8616858 0.33490697
vn -0.35032272 0.8857978 -0.30436212
vn -0.06971162 0.869092 -0.48971358
vn 0.26533797 0.8392323 -0.4746417
vn 0.52684796 0.80762446 -0.26490352
vn 0.614931 0.78634155 0.05938805
vn -0.38122797 0.8616858 0.33490697
vn 0.086827755 0.9953485 0.041740343
vn -0.119717695 0.830078 0.544645
vn 0.21533135 0.8002184 0.55971676
vn 0.49594218 0.78351265 0.374365
vn 0.614931 0.78634155 0.05938805
vn -0.05227464 0.08902404 -0.9946568
vn -0.05227464 0.08902404 -0.9946568
vn -0.88489944 0.13859354 -0.444685
vn -0.88489944 0.13859354 -0.444685
vn -0.88489944 0.13859354 -0.444685
vn -0.88489944 0.13859354 -0.444685
vn -0.82892877 0.09192521 0.551749
vn -0.82892877 0.09192521 0.551749
vn -0.82892877 0.09192521 0.551749
vn -0.82892877 0.09192521 0.551749
vn 0.05966636 -0.0043124836 0.9982091
vn 0.05966636 -0.0043124836 0.9982091
vn 0.05966636 -0.0043124836 0.9982091
vn 0.05966636 -0.0043124836 0.9982091
vn 0.89228976 -0.05388173 0.44823632
vn 0.89228976 -0.05388173 0.44823632
vn 0.89228976 -0.05388173 0.44823632
vn 0.89228976 -0.05388173 0.44823632
vn 0.8363188 -0.007213494 -0.5481959
vn 0.8363188 -0.007213494 -0.5481959
vn 0.8363188 -0.007213494 -0.5481959
vn 0.8363188 -0.007213494 -0.5481959
vn -0.05227464 0.08902404 -0.9946568
vn -0.05227464 0.08902404 -0.9946568
vn 0.32184544 0.9174623 -0.23383443
vn -0 1 0
vn 0.12293403 0.91746217 -0.37835217
vn 0.39782277 0.9174623 0
vn -0.122934125 0.91746217 -0.37835208
vn 0.32184538 0.9174623 0.23383437
vn -0.32184553 0.9174623 -0.23383436
vn 0.12293403 0.9174623 0.37835214
vn -0.3978228 0.9174623 0
vn -0.12293398 0.9174623 0.37835205
vn -0.32184538 0.9174623 0.2338343
vn 0.39333776 0.90280366 -0.17387024
vn -0.05178522 0.9930004 -0.10615297
vn 0.26421675 0.870201 -0.41586033
vn 0.35452244 0.92987037 0.09825998
vn 0.016479269 0.84451544 -0.5352776
vn 0.1625965 0.94106275 0.29658592
vn -0.2552474 0.83555824 -0.4865092
vn -0.109130606 0.93210554 0.34535438
vn -0.44717327 0.84675074 -0.2881828
vn -0.35686836 0.9064201 0.22593737
vn -0.4859892 0.87381744 -0.0160523
vn 0.3063512 0.84543234 0.437485
vn -0.060263086 0.9894951 0.13140702
vn 0.4269116 0.8885918 0.16778298
vn 0.04862107 0.8102742 0.5840306
vn 0.364252 0.92326707 -0.12205863
vn -0.24783567 0.7965467 0.5514443
vn 0.14230569 0.9362136 -0.32133013
vn -0.46978205 0.80949306 0.35217297
vn -0.15415098 0.9224861 -0.3539164
vn -0.53244174 0.8441685 0.06233132
vn -0.4118814 0.88732797 -0.20737085
g polySurface52_0
f 3/3/3 2/2/2 1/1/1
f 4/4/4 3/3/3 1/1/1
f 7/7/7 6/6/6 5/5/5
f 8/8/8 7/7/7 5/5/5
f 11/11/11 10/10/10 9/9/9
f 12/12/12 11/11/11 9/9/9
f 15/15/15 14/14/14 13/13/13
f 16/16/16 15/15/15 13/13/13
f 19/19/19 18/18/18 17/17/17
f 20/20/20 19/19/19 17/17/17
f 23/23/23 22/22/22 21/21/21
f 24/24/24 23/23/23 21/21/21
f 27/27/27 26/26/26 25/25/25
f 28/28/28 27/27/27 25/25/25
f 31/31/31 30/30/30 29/29/29
f 32/32/32 31/31/31 29/29/29
f 35/35/35 34/34/34 33/33/33
f 36/36/36 35/35/35 33/33/33
f 39/39/39 38/38/38 37/37/37
f 40/40/40 39/39/39 37/37/37
f 43/43/43 42/42/42 41/41/41
f 44/44/44 43/43/43 41/41/41
f 47/47/47 46/46/46 45/45/45
f 48/48/48 47/47/47 45/45/45
f 51/51/51 50/50/50 49/49/49
f 52/52/52 51/51/51 49/49/49
f 55/55/55 54/54/54 53/53/53
f 56/56/56 55/55/55 53/53/53
f 59/59/59 58/58/58 57/57/57
f 60/60/60 59/59/59 57/57/57
f 63/63/63 62/62/62 61/61/61
f 64/64/64 63/63/63 61/61/61
f 67/67/67 66/66/66 65/65/65
f 68/68/68 67/67/67 65/65/65
f 71/71/71 70/70/70 69/69/69
f 72/72/72 71/71/71 69/69/69
f 75/75/75 74/74/74 73/73/73
f 73/73/73 74/74/74 76/76/76
f 76/76/76 74/74/74 77/77/77
f 77/77/77 74/74/74 78/78/78
f 78/78/78 74/74/74 79/79/79
f 79/79/79 74/74/74 80/80/80
f 83/83/83 82/82/82 81/81/81
f 84/84/84 82/82/82 83/83/83
f 85/85/85 82/82/82 84/84/84
f 86/86/86 82/82/82 85/85/85
f 89/89/89 88/88/88 87/87/87
f 90/90/90 89/89/89 87/87/87
f 93/93/93 92/92/92 91/91/91
f 94/94/94 93/93/93 91/91/91
f 97/97/97 96/96/96 95/95/95
f 98/98/98 97/97/97 95/95/95
f 101/101/101 100/100/100 99/99/99
f 102/102/102 101/101/101 99/99/99
f 105/105/105 104/104/104 103/103/103
f 106/106/106 105/105/105 103/103/103
f 109/109/109 108/108/108 107/107/107
f 110/110/110 109/109/109 107/107/107
f 113/113/113 112/112/112 111/111/111
f 111/111/111 112/112/112 114/114/114
f 115/115/115 112/112/112 113/113/113
f 114/114/114 112/112/112 116/116/116
f 117/117/117 112/112/112 115/115/115
f 116/116/116 112/112/112 118/118/118
f 119/119/119 112/112/112 117/117/117
f 118/118/118 112/112/112 120/120/120
f 121/121/121 112/112/112 119/119/119
f 120/120/120 112/112/112 121/121/121
f 124/124/124 123/123/123 122/122/122
f 122/122/122 123/123/123 125/125/125
f 126/126/126 123/123/123 124/124/124
f 125/125/125 123/123/123 127/127/127
f 128/128/128 123/123/123 126/126/126
f 127/127/127 123/123/123 129/129/129
f 130/130/130 123/123/123 128/128/128
f 129/129/129 123/123/123 131/131/131
f 132/132/132 123/123/123 130/130/130
f 131/131/131 123/123/123 132/132/132
f 135/135/135 134/134/134 133/133/133
f 133/133/133 134/134/134 136/136/136
f 137/137/137 134/134/134 135/135/135
f 136/136/136 134/134/134 138/138/138
f 139/139/139 134/134/134 137/137/137
f 138/138/138 134/134/134 140/140/140
f 141/141/141 134/134/134 139/139/139
f 140/140/140 134/134/134 142/142/142
f 143/143/143 134/134/134 141/141/141
f 142/142/142 134/134/134 143/143/143
