g polySurface13
v -1.3826602 -0.16581783 0.93836534
v -0.679322 -0.25086442 1.1366463
v -0.29630628 -0.49889246 0.9662546
v 0.7048246 0.071745604 -1.3709563
v 1.0760183 -0.042896487 -0.6180295
v 0.6122545 0.30586398 -1.2775623
v -1.268249 0.41121298 0.83140373
v -1.3951205 0.24004282 0.90612906
v -1.3481519 0.7475355 -0.07403741
v -1.152882 1.1677997 0.39546964
v -1.0572817 1.253137 0.10908523
v -0.9788297 1.2115338 0.23065697
v 0.69926566 0.5394165 -1.3667071
v -0.14481026 0.47139695 -1.3491971
v 0.6122545 0.30586398 -1.2775623
v 0.71288013 0.86163646 -1.3750699
v -0.10904518 0.97759485 -1.3609176
v -1.0761665 0.57084143 -1.1135633
v -0.7595838 1.1225375 -1.1904075
v 0.16964622 1.0913604 -1.340507
v 0.71288013 0.86163646 -1.3750699
v -0.91568345 0.9855873 -1.114239
v -0.78316885 1.2308676 -0.9691983
v -0.08644338 -0.048641708 -1.3600913
v -0.6928561 0.21340108 -1.1965524
v 0.7048246 0.071745604 -1.3709563
v 0.6122545 0.30586398 -1.2775623
v 0.52462196 -0.3222223 -1.3761938
v -1.2202762 1.1313592 0.051883653
v -1.0572817 1.253137 0.10908523
v -1.152882 1.1677997 0.39546964
v -1.3512021 0.7366698 0.6506946
v -1.2248056 0.93896407 0.89503175
v -1.2956817 0.6310284 0.89738464
v -1.268249 0.41121298 0.83140373
v -1.3481519 0.7475355 -0.07403741
v -1.3708616 0.3669933 -0.46347243
v -1.0761665 0.57084143 -1.1135633
v -1.3951205 0.24004282 0.90612906
v -1.3963916 -0.13864441 0.25058115
v -1.3826602 -0.16581783 0.93836534
v 0.6122545 0.30586398 -1.2775623
v 1.0760183 -0.042896487 -0.6180295
v 0.69926566 0.5394165 -1.3667071
v 1.1519734 0.8265806 -0.58767
v 0.71288013 0.86163646 -1.3750699
v 1.3963916 0.86983174 -0.078330666
v 1.3646818 -0.44007257 0.3405769
v 1.1862466 -0.16030213 1.1138856
v 1.2583587 0.8320908 0.56867653
v 1.1629093 0.572999 1.022096
v 0.9756931 -0.5439404 -0.39469516
v 0.7048246 0.071745604 -1.3709563
v 0.52462196 -0.3222223 -1.3761938
v -1.152882 1.1677997 0.39546964
v -0.9788297 1.2115338 0.23065697
v -0.04273925 1.2058799 0.11364112
v 0.09620948 0.66764814 1.300885
v -1.2248056 0.93896407 0.89503175
v 0.66689605 0.69477284 1.1558603
v 0.67672193 1.0992773 0.22694851
v 1.2583587 0.8320908 0.56867653
v 1.1629093 0.572999 1.022096
v 1.1355088 1.1332635 -0.08025556
v 1.3963916 0.86983174 -0.078330666
v 1.1519734 0.8265806 -0.58767
v 0.76107806 1.2446597 -0.3359326
v -0.04273925 1.2058799 0.11364112
v 0.61140305 1.1743712 -0.9755521
v 0.71288013 0.86163646 -1.3750699
v 0.24612881 1.2345225 -1.0957282
v 0.16964622 1.0913604 -1.340507
v -0.7595838 1.1225375 -1.1904075
v -0.78316885 1.2308676 -0.9691983
v -1.0572817 1.253137 0.10908523
v -0.04273925 1.2058799 0.11364112
v -0.9788297 1.2115338 0.23065697
v -0.614117 0.012100064 1.1188129
v -1.268249 0.41121298 0.83140373
v -1.2956817 0.6310284 0.89738464
v -0.45896176 0.054892316 1.1770136
v -1.2248056 0.93896407 0.89503175
v 0.09620948 0.66764814 1.300885
v 0.19155593 -0.047531236 1.3761938
v 0.66689605 0.69477284 1.1558603
v 0.64137053 -0.33740032 1.3062629
v 1.1629093 0.572999 1.022096
v 1.1862466 -0.16030213 1.1138856
v 0.30746686 -0.3630548 1.3626491
v -0.29630628 -0.49889246 0.9662546
v -0.679322 -0.25086442 1.1366463
v -0.29630628 -0.49889246 0.9662546
v -1.3826602 -0.16581783 0.93836534
v -1.3951205 0.24004282 0.90612906
v -1.268249 0.41121298 0.83140373
v -1.0761665 0.57084143 -1.1135633
v -1.3708616 0.3669933 -0.46347243
v -0.6928561 0.21340108 -1.1965524
v -1.1981411 -0.14370908 -0.058839086
v -1.3963916 -0.13864441 0.25058115
v -1.1981411 -0.14370908 -0.058839086
v -0.08644338 -0.048641708 -1.3600913
v -0.6928561 0.21340108 -1.1965524
v 0.26073605 -0.35188723 -1.1914032
v 0.52462196 -0.3222223 -1.3761938
v 0.9756931 -0.5439404 -0.39469516
v -0.33718002 -0.4616531 0.4161325
v -1.3963916 -0.13864441 0.25058115
v -1.3826602 -0.16581783 0.93836534
v -0.29630628 -0.49889246 0.9662546
v 0.4738731 -0.56496704 -0.25030905
v 1.3646818 -0.44007257 0.3405769
v 0.39831978 -0.46022752 0.94283026
v 0.30746686 -0.3630548 1.3626491
v 0.64137053 -0.33740032 1.3062629
v 1.2105694 -0.35376778 0.81481093
v 1.1862466 -0.16030213 1.1138856
v 1.3646818 -0.44007257 0.3405769
vt 0.34440517 0.8510939
vt 0.36219633 0.8686435
vt 0.37873507 0.8687446
vt 0.8344742 0.25805596
vt 0.7970763 0.29003078
vt 0.84485984 0.27022713
vt 0.9210191 0.47806382
vt 0.9307711 0.486655
vt 0.93381375 0.42550012
vt 0.9007133 0.4340926
vt 0.9040363 0.41784713
vt 0.89784765 0.42147392
vt 0.88408536 0.28087345
vt 0.9273154 0.30530292
vt 0.8971271 0.2720276
vt 0.8713642 0.2957964
vt 0.90955645 0.32551545
vt 0.9642549 0.3479887
vt 0.9309009 0.35580292
vt 0.8940152 0.32182446
vt 0.8713642 0.2957964
vt 0.9422409 0.36021805
vt 0.9243995 0.36507362
vt 0.9436856 0.28035527
vt 0.9609817 0.31676036
vt 0.9026368 0.25770086
vt 0.8971271 0.2720276
vt 0.92470956 0.24606891
vt 0.9139186 0.42128742
vt 0.9040363 0.41784713
vt 0.9007133 0.4340926
vt 0.91099465 0.4592741
vt 0.88985574 0.46194813
vt 0.9073111 0.47359103
vt 0.9210191 0.47806382
vt 0.93381375 0.42550012
vt 0.9611429 0.41531515
vt 0.96604645 0.37326607
vt 0.9307711 0.486655
vt 0.9686258 0.46374816
vt 0.95055044 0.49935806
vt 0.84485984 0.27022713
vt 0.7970763 0.29003078
vt 0.85722405 0.28051555
vt 0.8287855 0.32332033
vt 0.8713642 0.2957964
vt 0.81115603 0.34321493
vt 0.7442576 0.32345012
vt 0.7351682 0.3719152
vt 0.794754 0.3714611
vt 0.7740985 0.3909437
vt 0.767364 0.2785728
vt 0.8344742 0.25805596
vt 0.8186884 0.2383962
vt 0.9007133 0.4340926
vt 0.89784765 0.42147392
vt 0.86319876 0.3901975
vt 0.8161838 0.4373222
vt 0.88985574 0.46194813
vt 0.79681516 0.4127905
vt 0.83051693 0.37489074
vt 0.794754 0.3714611
vt 0.7740985 0.3909437
vt 0.82346463 0.35112512
vt 0.81115603 0.34321493
vt 0.8287855 0.32332033
vt 0.84441847 0.3496788
vt 0.86319876 0.3901975
vt 0.8661092 0.3253384
vt 0.8713642 0.2957964
vt 0.8842214 0.33182007
vt 0.8940152 0.32182446
vt 0.9309009 0.35580292
vt 0.9243995 0.36507362
vt 0.9040363 0.41784713
vt 0.86319876 0.3901975
vt 0.89784765 0.42147392
vt 0.8298111 0.488921
vt 0.8768219 0.4904933
vt 0.8836659 0.47928154
vt 0.82269734 0.48226
vt 0.88985574 0.46194813
vt 0.8161838 0.4373222
vt 0.7871527 0.4620563
vt 0.79681516 0.4127905
vt 0.7568229 0.45510995
vt 0.7740985 0.3909437
vt 0.74168384 0.42196736
vt 0.770285 0.47092202
vt 0.79652977 0.506083
vt 0.8245458 0.5034592
vt 0.79652977 0.506083
vt 0.86224556 0.52165616
vt 0.8757522 0.5031031
vt 0.8768219 0.4904933
vt 0.96604645 0.37326607
vt 0.9611429 0.41531515
vt 0.99751234 0.37183124
vt 0.9823258 0.446447
vt 0.9686258 0.46374816
vt 0.36452544 0.8228867
vt 0.4165706 0.79633486
vt 0.3942325 0.7902178
vt 0.4262936 0.80986005
vt 0.4369732 0.8072675
vt 0.4375311 0.8450984
vt 0.3852886 0.85118264
vt 0.35399973 0.8296797
vt 0.34440517 0.8510939
vt 0.37873507 0.8687446
vt 0.41996825 0.842583
vt 0.4389161 0.8736713
vt 0.4003954 0.8780936
vt 0.39164376 0.8901837
vt 0.4027841 0.89337766
vt 0.42702866 0.8861288
vt 0.42317426 0.8976326
vt 0.4389161 0.8736713
vn -0.2546511 -0.7830581 0.56742644
vn -0.25465113 -0.7830581 0.56742644
vn -0.25465113 -0.7830581 0.56742644
vn 0.82254547 0.45911285 -0.33561042
vn 0.82254547 0.45911297 -0.3356105
vn 0.82254547 0.45911297 -0.3356105
vn -0.69768625 0.64929104 0.3027456
vn -0.6976864 0.649291 0.3027456
vn -0.69768625 0.64929104 0.3027456
vn 0.04306594 0.95344245 0.298484
vn 0.043065947 0.9534426 0.298484
vn 0.043065943 0.9534426 0.29848397
vn -0.009200073 -0.14067888 -0.9900125
vn -0.15305582 -0.00672841 -0.9881947
vn 0.009632314 -0.35971183 -0.93301374
vn -0.017931117 -0.012696206 -0.99975866
vn -0.14073955 0.08268416 -0.98658794
vn -0.25450814 -0.00038899574 -0.9670706
vn -0.30784795 0.082457535 -0.94785565
vn -0.016966736 0.21668024 -0.9760952
vn -0.017931117 -0.012696206 -0.99975866
vn -0.83080834 0.43128723 -0.35177943
vn -0.75489944 0.5964528 -0.27271032
vn -0.102361344 0.008333477 -0.9947125
vn -0.29943955 -0.10082487 -0.948773
vn 0.025478544 0.10937867 -0.99367356
vn 0.17678927 0.42419943 -0.8881444
vn -0.016925588 0.021031082 -0.9996356
vn -0.843156 0.517421 -0.14616223
vn -0.5675645 0.8148896 -0.11758165
vn -0.8595951 0.4999838 0.10541619
vn -0.9951729 0.08175879 0.054280717
vn -0.9058646 0.40090767 0.13668358
vn -0.973656 0.018921766 0.22723553
vn -0.97217363 -0.23267408 0.027223993
vn -0.96131283 0.23780255 -0.13902423
vn -0.96020573 0.22189127 -0.16961445
vn -0.89100206 0.34428352 -0.29594624
vn -0.999813 0.019197864 -0.0023403193
vn -0.99968374 0.022567026 -0.011097297
vn -0.99939716 -0.029189713 0.01879954
vn 0.5855246 -0.47019148 -0.66036415
vn 0.89039123 -0.19137327 -0.413013
vn 0.8448087 -0.11966385 -0.521516
vn 0.88617903 -0.060851976 -0.45932972
vn 0.87137103 -0.0494861 -0.4881225
vn 0.9907346 -0.04724472 -0.12733
vn 0.99834216 -0.051674504 -0.025350152
vn 0.9478375 -0.11955844 0.29548272
vn 0.9756772 0.04676414 0.21416616
vn 0.9691869 0.06072404 0.23872453
vn 0.83473885 -0.35479572 -0.42110687
vn 0.8117318 -0.36535913 -0.45563602
vn 0.811799 -0.36526233 -0.45559394
vn 0.06589379 0.91305333 0.40248197
vn 0.06910352 0.9156773 0.39592895
vn 0.06881933 0.91504157 0.39744532
vn 0.063969545 0.9129939 0.40292683
vn 0.05600956 0.9046496 0.42245942
vn 0.11514024 0.9030991 0.41370857
vn 0.11721689 0.9255386 0.36005348
vn 0.25287336 0.8831387 0.3951216
vn 0.3332788 0.7866762 0.51967853
vn 0.48294732 0.8747286 0.04014666
vn 0.7097496 0.7025005 -0.052427478
vn 0.6722481 0.645787 -0.36199665
vn 0.09879677 0.9948837 0.02110777
vn 0.100765884 0.9595375 0.26293358
vn 0.48619732 0.8050692 -0.33981717
vn 0.5528401 0.7178035 -0.42323294
vn 0.045655366 0.9845733 -0.16891128
vn 0.07918013 0.84951466 -0.5215892
vn -0.056503683 0.8899901 -0.45246547
vn -0.006816758 0.99801326 -0.06263489
vn 0.011929345 0.9992048 0.03804701
vn 0.04476576 0.9798299 0.19475459
vn 0.044765756 0.9798299 0.19475457
vn -0.30276176 0.064351134 0.9508913
vn -0.5324271 -0.30362135 0.790149
vn -0.33003786 -0.004318507 0.94395787
vn -0.28539076 -0.041944567 0.95749295
vn -0.27865902 0.06424504 0.95823884
vn -0.12541135 0.08646069 0.98833025
vn -0.019210598 0.056129534 0.9982387
vn 0.26457617 0.13230658 0.95524573
vn 0.2589724 0.12501355 0.95776033
vn 0.28930098 0.13027601 0.9483318
vn 0.2929606 0.12792823 0.9475275
vn -0.24171989 -0.25081104 0.9373715
vn -0.42656484 -0.42843756 0.79654485
vn -0.04234368 -0.062034868 0.99717534
vn 0.22795984 -0.28712463 0.93037295
vn -0.24476127 0.07701947 0.9665195
vn -0.19504073 0.22291754 0.95512664
vn -0.10490582 0.46217293 0.88056284
vn -0.65171957 -0.5875244 -0.47966293
vn -0.65154725 -0.5931948 -0.4728699
vn -0.5152042 -0.72496665 -0.4571519
vn -0.40169233 -0.87218297 -0.27917773
vn -0.6916398 -0.5775333 -0.43369308
vn -0.40169233 -0.87218297 -0.27917773
vn -0.4517236 -0.76979107 -0.45096293
vn -0.5152042 -0.72496665 -0.4571519
vn -0.27549464 -0.9165945 -0.2897535
vn -0.09521334 -0.9526149 -0.2888932
vn 0.026719838 -0.9984622 -0.0485729
vn -0.2500558 -0.96158004 -0.113296025
vn -0.28119218 -0.9572026 -0.06851355
vn -0.28818864 -0.95693934 -0.034848783
vn -0.11883739 -0.9925021 0.028586214
vn -0.08101672 -0.9947278 -0.062872075
vn 0.090424806 -0.9892875 0.11460167
vn 0.08258918 -0.98761904 0.13337013
vn 0.0796261 -0.9672259 0.24110949
vn 0.18953618 -0.94442844 0.26857188
vn 0.32101738 -0.89737284 0.3027702
vn 0.9478375 -0.11955844 0.29548272
vn 0.99834216 -0.051674504 -0.025350152
g polySurface13_0
f 3/3/3 2/2/2 1/1/1
f 6/6/6 5/5/5 4/4/4
f 9/9/9 8/8/8 7/7/7
f 12/12/12 11/11/11 10/10/10
f 15/15/15 14/14/14 13/13/13
f 13/13/13 14/14/14 16/16/16
f 17/17/17 16/16/16 14/14/14
f 17/17/17 14/14/14 18/18/18
f 17/17/17 18/18/18 19/19/19
f 17/17/17 19/19/19 20/20/20
f 21/21/21 17/17/17 20/20/20
f 22/22/22 19/19/19 18/18/18
f 23/23/23 19/19/19 22/22/22
f 14/14/14 24/24/24 18/18/18
f 18/18/18 24/24/24 25/25/25
f 26/26/26 24/24/24 14/14/14
f 14/14/14 27/27/27 26/26/26
f 26/26/26 28/28/28 24/24/24
f 23/23/23 22/22/22 29/29/29
f 29/29/29 30/30/30 23/23/23
f 29/29/29 31/31/31 30/30/30
f 29/29/29 32/32/32 31/31/31
f 33/33/33 31/31/31 32/32/32
f 32/32/32 34/34/34 33/33/33
f 35/35/35 34/34/34 32/32/32
f 36/36/36 35/35/35 32/32/32
f 29/29/29 36/36/36 32/32/32
f 22/22/22 36/36/36 29/29/29
f 37/37/37 36/36/36 22/22/22
f 38/38/38 37/37/37 22/22/22
f 37/37/37 39/39/39 36/36/36
f 37/37/37 40/40/40 39/39/39
f 41/41/41 39/39/39 40/40/40
f 44/44/44 43/43/43 42/42/42
f 44/44/44 45/45/45 43/43/43
f 45/45/45 44/44/44 46/46/46
f 47/47/47 43/43/43 45/45/45
f 48/48/48 43/43/43 47/47/47
f 49/49/49 48/48/48 47/47/47
f 49/49/49 47/47/47 50/50/50
f 49/49/49 50/50/50 51/51/51
f 52/52/52 43/43/43 48/48/48
f 53/53/53 43/43/43 52/52/52
f 54/54/54 53/53/53 52/52/52
f 57/57/57 56/56/56 55/55/55
f 58/58/58 57/57/57 55/55/55
f 59/59/59 58/58/58 55/55/55
f 57/57/57 58/58/58 60/60/60
f 61/61/61 57/57/57 60/60/60
f 60/60/60 62/62/62 61/61/61
f 60/60/60 63/63/63 62/62/62
f 61/61/61 62/62/62 64/64/64
f 65/65/65 64/64/64 62/62/62
f 66/66/66 64/64/64 65/65/65
f 67/67/67 61/61/61 64/64/64
f 61/61/61 67/67/67 68/68/68
f 66/66/66 69/69/69 64/64/64
f 69/69/69 67/67/67 64/64/64
f 70/70/70 69/69/69 66/66/66
f 70/70/70 71/71/71 69/69/69
f 71/71/71 67/67/67 69/69/69
f 70/70/70 72/72/72 71/71/71
f 73/73/73 71/71/71 72/72/72
f 71/71/71 73/73/73 74/74/74
f 74/74/74 67/67/67 71/71/71
f 74/74/74 75/75/75 67/67/67
f 67/67/67 75/75/75 76/76/76
f 75/75/75 77/77/77 76/76/76
f 80/80/80 79/79/79 78/78/78
f 81/81/81 80/80/80 78/78/78
f 80/80/80 81/81/81 82/82/82
f 81/81/81 83/83/83 82/82/82
f 81/81/81 84/84/84 83/83/83
f 83/83/83 84/84/84 85/85/85
f 84/84/84 86/86/86 85/85/85
f 85/85/85 86/86/86 87/87/87
f 86/86/86 88/88/88 87/87/87
f 89/89/89 86/86/86 84/84/84
f 89/89/89 84/84/84 81/81/81
f 89/89/89 81/81/81 90/90/90
f 81/81/81 78/78/78 91/91/91
f 81/81/81 91/91/91 92/92/92
f 93/93/93 91/91/91 78/78/78
f 94/94/94 93/93/93 78/78/78
f 78/78/78 95/95/95 94/94/94
f 98/98/98 97/97/97 96/96/96
f 99/99/99 97/97/97 98/98/98
f 97/97/97 99/99/99 100/100/100
f 103/103/103 102/102/102 101/101/101
f 101/101/101 102/102/102 104/104/104
f 102/102/102 105/105/105 104/104/104
f 105/105/105 106/106/106 104/104/104
f 101/101/101 104/104/104 107/107/107
f 101/101/101 107/107/107 108/108/108
f 107/107/107 109/109/109 108/108/108
f 107/107/107 110/110/110 109/109/109
f 106/106/106 111/111/111 104/104/104
f 111/111/111 107/107/107 104/104/104
f 111/111/111 110/110/110 107/107/107
f 112/112/112 111/111/111 106/106/106
f 113/113/113 110/110/110 111/111/111
f 112/112/112 113/113/113 111/111/111
f 113/113/113 114/114/114 110/110/110
f 114/114/114 113/113/113 115/115/115
f 116/116/116 113/113/113 112/112/112
f 116/116/116 115/115/115 113/113/113
f 115/115/115 116/116/116 117/117/117
f 117/117/117 116/116/116 118/118/118
