g polySurface24
v -1.1129171 0.9991111 0.47030511
v -1.233539 0.69232726 0.039872218
v -1.2621229 1.0031136 -0.060243562
v -1.0251709 0.73295426 0.41845194
v -1.1129171 0.9991111 0.47030511
v -1.4000105 -0.06148234 1.0371053
v -1.0994742 -0.19329719 1.1425655
v -1.5221044 -0.187415 -0.15741134
v -1.0354743 -0.052577797 1.4415429
v -1.0994742 -0.19329719 1.1425655
v 1.368857 0.28795516 -0.8761335
v 1.5002513 -0.039114483 -1.0204916
v 1.3849423 -0.08230066 -0.45999715
v -1.3380407 0.7262962 -0.6691997
v -1.4977945 0.37586764 -0.87804586
v -1.3374252 0.5973051 -1.1238832
v -0.7804083 1.1176182 0.62663144
v -0.58938384 0.71998554 0.5748612
v -1.1129171 0.9991111 0.47030511
v -1.1129171 0.9991111 0.47030511
v -1.0251709 0.73295426 0.41845194
v -1.0994742 -0.19329719 1.1425655
v -1.0354743 -0.052577797 1.4415429
v 0.24941462 -0.10235908 1.3095771
v -0.54618925 0.9436962 -0.8821577
v -0.5879482 1.0498066 -0.4889341
v -0.56214803 0.8819262 -0.51148754
v 1.1806613 0.013830985 0.60844505
v 1.2910452 -0.082297035 0.49963576
v 0.613325 -0.07975919 0.594818
v 1.2341447 1.1622347 -1.7881393E-05
v 0.27811927 1.1781396 0.28946844
v 0.8279859 1.1833797 -0.9702297
v -0.15249704 1.1778752 -0.8321665
v -0.16172612 1.171357 -0.04881492
v -0.2887069 1.1821669 -0.30697876
v -0.36507905 1.1301188 -0.98042583
v 0.4137761 1.0672389 -1.4172714
v 0.7262333 1.028498 -1.3467925
v 1.510785 0.6729153 -0.8721859
v 1.2341447 1.1622347 -1.7881393E-05
v 1.422317 1.0392967 0.20424487
v 1.4298655 0.51145446 -0.9870725
v 0.66990346 0.8622943 -1.4449632
v 0.4137761 1.0672389 -1.4172714
v 0.23712738 0.7861628 -1.4246963
v -0.36507905 1.1301188 -0.98042583
v -0.54618925 0.9436962 -0.8821577
v -0.33494133 0.6660354 -1.0717697
v 0.6654943 0.65843886 -1.3727313
v 1.4298655 0.51145446 -0.9870725
v 1.368857 0.28795516 -0.8761335
v 0.046784952 -0.026979456 -1.4355047
v -0.49616942 -0.1480218 -1.1276181
v 0.76289934 0.39877498 -1.4476472
v 0.6654943 0.65843886 -1.3727313
v 0.81843346 -0.07999123 -1.4101543
v 1.5002513 -0.039114483 -1.0204916
v 1.368857 0.28795516 -0.8761335
v 1.5002513 -0.039114483 -1.0204916
v -0.54618925 0.9436962 -0.8821577
v -0.56214803 0.8819262 -0.51148754
v -1.0323211 0.8857251 -0.54188365
v -1.3380407 0.7262962 -0.6691997
v -1.3374252 0.5973051 -1.1238832
v -0.83093745 0.6896702 -1.3541496
v 0.62236726 0.464352 0.73135173
v 0.26894653 0.16542104 1.3081791
v 0.008988261 0.63926905 1.3240768
v 0.58652985 -0.19023807 0.94372207
v 0.24941462 -0.10235908 1.3095771
v 0.613325 -0.07975919 0.594818
v 0.6146122 0.4472516 0.610965
v 1.510785 0.6729153 -0.8721859
v 1.5390319 0.27532494 0.16562448
v 1.422317 1.0392967 0.20424487
v 1.4298655 0.51145446 -0.9870725
v 1.3849423 -0.08230066 -0.45999715
v 1.368857 0.28795516 -0.8761335
v 1.2910452 -0.082297035 0.49963576
v -1.2885624 0.40080932 -0.55661106
v -1.3292196 -0.18111995 -0.5083868
v -1.4977945 0.37586764 -0.87804586
v -1.3380407 0.7262962 -0.6691997
v -1.068041 0.6417964 -0.3407005
v -1.0323211 0.8857251 -0.54188365
v -0.9976567 0.45363653 1.4476472
v -0.93589777 0.73348665 1.0562227
v -0.31269574 0.7064153 1.3690034
v -1.4128224 0.3780694 1.0721185
v -1.293448 0.7271564 0.66731346
v -1.421029 0.614395 0.25872332
v -1.5390319 0.36384055 -0.21160312
v -1.4000105 -0.06148234 1.0371053
v -1.5221044 -0.187415 -0.15741134
v -1.3292196 -0.18111995 -0.5083868
v -1.2885624 0.40080932 -0.55661106
v -1.068041 0.6417964 -0.3407005
v -1.421029 0.614395 0.25872332
v -1.233539 0.69232726 0.039872218
v -1.293448 0.7271564 0.66731346
v -1.0251709 0.73295426 0.41845194
v -0.93589777 0.73348665 1.0562227
v -0.31269574 0.7064153 1.3690034
v -0.58938384 0.71998554 0.5748612
v -0.39390472 0.69164944 0.46326014
v 0.16359538 0.58596265 0.52476126
v 0.008988261 0.63926905 1.3240768
v 0.62236726 0.464352 0.73135173
v 0.6146122 0.4472516 0.610965
v -0.5879482 1.0498066 -0.4889341
v -0.54618925 0.9436962 -0.8821577
v -0.36507905 1.1301188 -0.98042583
v -0.2887069 1.1821669 -0.30697876
v 1.1806613 0.013830985 0.60844505
v 0.613325 -0.07975919 0.594818
v 0.6146122 0.4472516 0.610965
v 1.1298244 0.7556288 0.5878754
v 0.29642895 0.86640775 0.6131177
v 0.16359538 0.58596265 0.52476126
v 0.011481071 1.0490012 0.3932343
v -0.082315564 0.89932114 0.53093195
v 0.24941462 -0.10235908 1.3095771
v -1.0354743 -0.052577797 1.4415429
v -0.9976567 0.45363653 1.4476472
v -0.31269574 0.7064153 1.3690034
v 0.008988261 0.63926905 1.3240768
v 0.26894653 0.16542104 1.3081791
v -1.0354743 -0.052577797 1.4415429
v -1.4128224 0.3780694 1.0721185
v -0.9976567 0.45363653 1.4476472
v -1.4000105 -0.06148234 1.0371053
v 1.1298244 0.7556288 0.5878754
v 1.422317 1.0392967 0.20424487
v 1.5390319 0.27532494 0.16562448
v 1.2910452 -0.082297035 0.49963576
v 1.1806613 0.013830985 0.60844505
v -0.6066078 0.21558972 -1.3602998
v -0.49616942 -0.1480218 -1.1276181
v -0.33494133 0.6660354 -1.0717697
v -0.83093745 0.6896702 -1.3541496
v -0.54618925 0.9436962 -0.8821577
v -0.84397286 0.21398862 -1.38588
v -0.8056446 -0.057012014 -1.2487011
v -0.49616942 -0.1480218 -1.1276181
v -1.2292283 0.37194502 -1.19984
v -1.3374252 0.5973051 -1.1238832
v -1.4977945 0.37586764 -0.87804586
v -1.3025608 -0.18609864 -0.76752967
v -0.8056446 -0.057012014 -1.2487011
v -1.3292196 -0.18111995 -0.5083868
v -0.8340917 1.2352042 -0.46162793
v -1.0323211 0.8857251 -0.54188365
v -0.56214803 0.8819262 -0.51148754
v -0.5879482 1.0498066 -0.4889341
v -0.2887069 1.1821669 -0.30697876
v -0.3221849 1.3224108 -0.25456023
v -0.3221849 1.3224108 -0.25456023
v -0.36108792 1.3831201 0.17864214
v -0.8340917 1.2352042 -0.46162793
v -1.2621229 1.0031136 -0.060243562
v -0.7804083 1.1176182 0.62663144
v -1.1129171 0.9991111 0.47030511
v -0.36417496 1.1946226 0.46600387
v -0.58938384 0.71998554 0.5748612
v -0.33075166 0.9808276 0.43736273
v -0.39390472 0.69164944 0.46326014
v -0.16172612 1.171357 -0.04881492
v -0.33075166 0.9808276 0.43736273
v -0.3221849 1.3224108 -0.25456023
v -0.2887069 1.1821669 -0.30697876
v -1.2621229 1.0031136 -0.060243562
v -1.0323211 0.8857251 -0.54188365
v -0.8340917 1.2352042 -0.46162793
v -1.233539 0.69232726 0.039872218
v -1.068041 0.6417964 -0.3407005
v -0.082315564 0.89932114 0.53093195
v 0.16359538 0.58596265 0.52476126
v -0.39390472 0.69164944 0.46326014
v -0.33075166 0.9808276 0.43736273
v 1.422317 1.0392967 0.20424487
v 0.27811927 1.1781396 0.28946844
v 1.2341447 1.1622347 -1.7881393E-05
v 1.1298244 0.7556288 0.5878754
v 0.29642895 0.86640775 0.6131177
v 0.011481071 1.0490012 0.3932343
v -0.16172612 1.171357 -0.04881492
v -0.33075166 0.9808276 0.43736273
v -0.082315564 0.89932114 0.53093195
vt 0.023536444 0.86352646
vt 0.0024875998 0.89094365
vt 0.019898087 0.89316374
vt 0.0070116967 0.86567366
vt 0.023536444 0.86352646
vt 0.4765365 0.59082425
vt 0.45870242 0.5972936
vt 0.5212997 0.64288884
vt 0.46114278 0.5634097
vt 0.45926583 0.5821055
vt 0.7206985 0.45720178
vt 0.74301004 0.45665842
vt 0.7316034 0.42541754
vt 0.8018192 0.80784285
vt 0.7809576 0.81849676
vt 0.7955107 0.83031553
vt 0.04375717 0.8594109
vt 0.05236548 0.8373273
vt 0.023536444 0.86352646
vt 0.023536444 0.86352646
vt 0.025703132 0.8468632
vt 0.44404978 0.5196533
vt 0.4604346 0.52919745
vt 0.5003519 0.46683714
vt 0.576641 0.4954675
vt 0.5696533 0.47032738
vt 0.56323254 0.47742692
vt 0.6877182 0.36995044
vt 0.69908607 0.37131202
vt 0.66554767 0.34489208
vt 0.65858847 0.4282516
vt 0.6116774 0.41393292
vt 0.64990807 0.47094083
vt 0.5983714 0.4766209
vt 0.58870065 0.43361443
vt 0.58441186 0.45055056
vt 0.5899962 0.4886506
vt 0.63337 0.49671113
vt 0.6501104 0.4911363
vt 0.69864374 0.46763203
vt 0.65858847 0.4282516
vt 0.6676128 0.41719332
vt 0.6997327 0.4811787
vt 0.6508955 0.5018423
vt 0.63337 0.49671113
vt 0.6292531 0.51345766
vt 0.5899962 0.4886506
vt 0.576641 0.4954675
vt 0.5920388 0.5162382
vt 0.6571599 0.5109246
vt 0.6997327 0.4811787
vt 0.7074928 0.4939104
vt 0.63140124 0.557111
vt 0.5949062 0.5685788
vt 0.666654 0.52244544
vt 0.6571599 0.5109246
vt 0.6810442 0.54444736
vt 0.72003776 0.51339376
vt 0.7074928 0.4939104
vt 0.72003776 0.51339376
vt 0.84055656 0.8362949
vt 0.8460508 0.8156939
vt 0.820908 0.8054204
vt 0.8018192 0.80784285
vt 0.7955107 0.83031553
vt 0.81144595 0.8506778
vt 0.552166 0.4753375
vt 0.51178944 0.47619948
vt 0.52012753 0.50259936
vt 0.5245343 0.44855115
vt 0.5003519 0.46683714
vt 0.54527646 0.4462894
vt 0.558505 0.47421524
vt 0.69864374 0.46763203
vt 0.69746554 0.40316844
vt 0.6676128 0.41719332
vt 0.71064264 0.46823433
vt 0.7316034 0.42541754
vt 0.7206985 0.45720178
vt 0.69908607 0.37131202
vt 0.7844442 0.797877
vt 0.74884486 0.81205624
vt 0.7809576 0.81849676
vt 0.8018192 0.80784285
vt 0.8081957 0.78968143
vt 0.820908 0.8054204
vt 0.48394233 0.5446526
vt 0.5119705 0.5508585
vt 0.51257265 0.5179268
vt 0.49350128 0.57465065
vt 0.523244 0.5749924
vt 0.5340779 0.5951832
vt 0.5422902 0.6224324
vt 0.4765365 0.59082425
vt 0.5212997 0.64288884
vt 0.5400251 0.65588856
vt 0.563259 0.6308334
vt 0.56936944 0.608763
vt 0.5340779 0.5951832
vt 0.55029815 0.59609556
vt 0.523244 0.5749924
vt 0.54299116 0.57132554
vt 0.5119705 0.5508585
vt 0.51257265 0.5179268
vt 0.54625666 0.5456805
vt 0.55552423 0.53636646
vt 0.5619718 0.50274515
vt 0.52012753 0.50259936
vt 0.552166 0.4753375
vt 0.558505 0.47421524
vt 0.5696533 0.47032738
vt 0.576641 0.4954675
vt 0.5899962 0.4886506
vt 0.58441186 0.45055056
vt 0.6877182 0.36995044
vt 0.66554767 0.34489208
vt 0.6415405 0.36850554
vt 0.65894043 0.3944927
vt 0.61755264 0.38946378
vt 0.6096288 0.37471226
vt 0.597983 0.40423363
vt 0.5930984 0.3923378
vt 0.5003519 0.46683714
vt 0.4604346 0.52919745
vt 0.48394233 0.5446526
vt 0.51257265 0.5179268
vt 0.52012753 0.50259936
vt 0.51178944 0.47619948
vt 0.46114278 0.5634097
vt 0.49350128 0.57465065
vt 0.48394233 0.5446526
vt 0.4765365 0.59082425
vt 0.65894043 0.3944927
vt 0.6676128 0.41719332
vt 0.69746554 0.40316844
vt 0.69908607 0.37131202
vt 0.6877182 0.36995044
vt 0.8016213 0.8738506
vt 0.8014499 0.89782226
vt 0.8367792 0.8614317
vt 0.81144595 0.8506778
vt 0.84055656 0.8362949
vt 0.78882575 0.86734563
vt 0.78642154 0.88474035
vt 0.8014499 0.89782226
vt 0.78631246 0.84155446
vt 0.7955107 0.83031553
vt 0.7809576 0.81849676
vt 0.7507163 0.827375
vt 0.7713419 0.8656807
vt 0.74884486 0.81205624
vt 0.046621144 0.91230285
vt 0.02620107 0.9233377
vt 0.055131674 0.9332213
vt 0.057480216 0.92373836
vt 0.0770303 0.91106623
vt 0.07718715 0.90197617
vt 0.07718715 0.90197617
vt 0.06982216 0.8804638
vt 0.046621144 0.91230285
vt 0.019898087 0.89316374
vt 0.04375717 0.8594109
vt 0.023536444 0.86352646
vt 0.06731835 0.8621081
vt 0.05236548 0.8373273
vt 0.07204464 0.8519201
vt 0.06528854 0.8359575
vt 0.0881868 0.8862038
vt 0.07204464 0.8519201
vt 0.07718715 0.90197617
vt 0.08573589 0.90260243
vt 0.019898087 0.89316374
vt 0.02620107 0.9233377
vt 0.046621144 0.91230285
vt 0.0024875998 0.89094365
vt 0.008924395 0.91540456
vt 0.5930984 0.3923378
vt 0.6096288 0.37471226
vt 0.5753081 0.3822418
vt 0.57934 0.39947274
vt 0.6676128 0.41719332
vt 0.6116774 0.41393292
vt 0.65858847 0.4282516
vt 0.65894043 0.3944927
vt 0.61755264 0.38946378
vt 0.597983 0.40423363
vt 0.58870065 0.43361443
vt 0.57934 0.39947274
vt 0.5930984 0.3923378
vn -0.9008821 -0.19199033 0.3892957
vn -0.94156426 -0.08652839 0.32552958
vn -0.9626579 -0.001331159 0.27071756
vn -0.801395 -0.35760987 0.4794592
vn -0.9008821 -0.19199033 0.3892957
vn -0.4444742 -0.8801811 0.16650496
vn -0.2429106 -0.90583974 0.34705734
vn -0.43813166 -0.88818944 0.1384202
vn -0.037622202 -0.9010229 0.43213686
vn -0.2429106 -0.90583974 0.34705734
vn 0.795248 0.4753109 -0.3763777
vn 0.8441858 0.4603517 -0.274639
vn 0.93543136 0.2812864 0.2141169
vn -0.86815107 0.47714862 -0.13653927
vn -0.86815107 0.47714856 -0.13653927
vn -0.86815107 0.47714862 -0.13653927
vn -0.32710826 -0.27485883 0.904131
vn -0.32854226 -0.27811825 0.902613
vn -0.328934 -0.27900988 0.9021951
vn -0.328934 -0.27900988 0.9021951
vn -0.33133996 -0.2844977 0.8995971
vn -0.2429106 -0.90583974 0.34705734
vn -0.037622202 -0.9010229 0.43213686
vn 0.008502081 -0.90545803 0.42435074
vn -0.987519 -0.14285421 -0.066322275
vn -0.987519 -0.1428542 -0.066322275
vn -0.987519 -0.14285421 -0.066322275
vn 0.09748673 -0.6947164 0.7126468
vn 0.09748673 -0.6947164 0.71264684
vn 0.09748674 -0.69471645 0.7126468
vn 0.020615686 0.9997009 0.01315739
vn 0.004852946 0.9999597 0.0075526377
vn 0.23721957 0.9588872 -0.15576306
vn -0.031053139 0.9982815 -0.049695827
vn -0.016459186 0.99983156 0.008125682
vn 0.024856685 0.9996896 -0.0017226856
vn -0.07302227 0.9793788 -0.18837433
vn -0.022181036 0.97244215 -0.23208682
vn 0.4964506 0.6156974 -0.6119261
vn 0.62594724 0.6889165 -0.36549163
vn 0.6345707 0.74230474 -0.21518283
vn 0.6722683 0.71592677 -0.18842557
vn 0.582792 0.25669348 -0.77101356
vn 0.35111472 0.006773451 -0.93630797
vn -0.2860928 0.24842733 -0.9254376
vn -0.3323215 0.13441128 -0.93353957
vn -0.5338604 0.14198042 -0.8335674
vn -0.5483357 0.12245655 -0.8272438
vn -0.53412205 0.14823157 -0.8323107
vn 0.2905888 -0.34574074 -0.89220035
vn 0.32228974 -0.47399446 -0.81942576
vn 0.31588876 -0.4896288 -0.8126979
vn -0.34043604 0.09068737 -0.9358842
vn -0.51362884 0.1595633 -0.8430451
vn 0.30093777 0.13365893 -0.9442308
vn 0.46507645 0.40201557 -0.78872526
vn 0.29551116 -0.040468503 -0.9544818
vn 0.49663106 -0.01035887 -0.86789984
vn 0.795248 0.4753109 -0.3763777
vn 0.8441858 0.4603517 -0.274639
vn -0.24616781 0.9515869 -0.18407515
vn -0.0026494558 0.9864124 0.16426624
vn -0.26174557 0.94120497 -0.21359411
vn -0.32176092 0.90751594 -0.26997194
vn -0.31410155 0.908899 -0.2743041
vn -0.30276513 0.90342635 -0.30356908
vn 0.860285 0.18538523 0.4749128
vn 0.75256175 0.23603174 0.61476815
vn 0.6989844 0.36279544 0.6162794
vn 0.8841768 0.08048534 0.4601669
vn 0.72853345 -0.049575087 0.68321395
vn 0.9976273 -0.031889204 0.061015274
vn 0.9979358 -0.0004705095 -0.06421808
vn 0.996651 -0.06354329 -0.05146987
vn 0.99013865 -0.13949342 0.012926202
vn 0.98830324 0.14944969 0.030356497
vn 0.95302814 -0.26223743 -0.151555
vn 0.9618729 -0.2570826 -0.093322195
vn 0.8089813 -0.4232898 -0.40789092
vn 0.8537264 -0.5139776 0.08353625
vn -0.81915766 0.094171494 0.5657847
vn -0.83726406 0.10299823 0.53701055
vn -0.83790886 0.08887118 0.5385264
vn -0.75585467 0.22004911 0.616654
vn -0.6752147 0.35535747 0.64637923
vn -0.55172414 0.5772692 0.60196406
vn -0.3714721 0.7820007 0.500483
vn -0.40299442 0.7691163 0.4960401
vn -0.23605542 0.80772424 0.5402401
vn -0.9295383 0.28412887 0.23500913
vn -0.75347024 0.59121937 0.28764942
vn -0.94636995 0.3075723 0.098910846
vn -0.9593129 0.24067551 -0.1476283
vn -0.99449134 -0.032226387 0.09974204
vn -0.9987287 -0.03429986 -0.036940392
vn -0.84791243 -0.03850269 -0.52873635
vn -0.769547 0.37238458 -0.5187747
vn -0.5491109 0.78121734 -0.29694566
vn -0.5208265 0.8293072 -0.20245863
vn -0.5004559 0.8328416 -0.23647164
vn -0.086031504 0.9959884 -0.0246127
vn -0.015025149 0.9996699 -0.020837417
vn 0.038638584 0.9992337 -0.0062426673
vn 0.14336462 0.9894378 -0.021431398
vn 0.059900757 0.99819714 -0.003812969
vn 0.17528018 0.9840062 -0.031757288
vn 0.22458069 0.97413063 -0.025159828
vn 0.22193447 0.97481155 -0.022082642
vn 0.26891416 0.9626816 -0.03048463
vn 0.31714955 0.93589205 -0.15336956
vn -0.45255372 0.88972795 -0.059826545
vn -0.7567044 0.6065072 -0.2440236
vn -0.5689209 0.81281203 -0.12516184
vn -0.3906916 0.9201312 -0.026807092
vn 0.007771627 0.0043370747 0.9999604
vn -0.018962134 -0.030572746 0.99935263
vn 0.0010741547 -0.0016403648 0.9999981
vn 0.028977659 0.026403422 0.9992312
vn -0.2566874 -0.034811232 0.96586734
vn -0.30011672 -0.060827088 0.9519611
vn -0.116594896 0.23574996 0.96479404
vn 0.5112083 0.3860535 0.76787287
vn 0.109356485 -0.0015358576 0.9940013
vn 0.101398475 -0.019569328 0.99465334
vn 0.1057548 -0.009719598 0.9943447
vn 0.1159588 0.00761508 0.9932248
vn 0.14136353 0.02647864 0.9896035
vn 0.062260266 0.000669346 0.9980597
vn -0.70162165 -0.003543173 0.71254086
vn -0.7085023 -0.015580411 0.70553654
vn -0.67438257 0.04149053 0.73721546
vn -0.7398967 -0.074819446 0.66854674
vn 0.75978017 0.08135419 0.6450703
vn 0.7615595 0.083859056 0.6426467
vn 0.7597108 0.07992447 0.64533055
vn 0.7538701 0.07632692 0.65257484
vn 0.7301262 0.06888831 0.679831
vn 0.57745725 -0.06263593 -0.8140146
vn 0.8100693 -0.12107994 -0.5736962
vn 0.54887116 0.38900456 -0.7398757
vn 0.1631966 0.30089143 -0.939591
vn 0.37789434 0.70073587 -0.60511583
vn -0.36238012 -0.2559891 -0.8961864
vn 0.1684889 -0.47631225 -0.8629821
vn 0.19001299 -0.48759103 -0.8521445
vn -0.5771433 -0.26404464 -0.77277815
vn -0.59382087 -0.013953176 -0.80447626
vn -0.76272595 -0.34248024 -0.548595
vn -0.7848557 -0.41600242 -0.45928574
vn -0.5656333 -0.43472356 -0.7007671
vn -0.935221 -0.34253258 -0.08962779
vn 0.13259168 0.2789999 -0.9510933
vn 0.06487485 0.18824746 -0.97997665
vn 0.056856018 0.18230397 -0.98159695
vn 0.2005707 0.39812985 -0.89513344
vn 0.28484926 0.42770725 -0.8578621
vn 0.2859821 0.39464006 -0.87319726
vn -0.10783922 0.98317045 -0.14746659
vn -0.1140264 0.9798695 0.163871
vn -0.36894384 0.92762405 0.058259662
vn -0.40968013 0.9050077 0.11455687
vn -0.27865303 0.8757476 0.39423165
vn -0.38064316 0.91767174 0.113970906
vn 0.5167494 0.4738296 0.7130607
vn 0.3982361 0.022325985 0.91701126
vn 0.4973952 -0.03627571 0.86676526
vn 0.4923441 -0.029618282 0.86989653
vn 0.83052605 0.54898834 0.09401252
vn 0.9277451 0.096746184 0.36045697
vn 0.77809364 0.6071453 -0.16107398
vn 0.8457016 0.35184932 -0.40123665
vn -0.89662427 0.049926374 -0.43996838
vn -0.83441556 0.29312268 -0.46672234
vn -0.7181676 0.51486003 -0.4681392
vn -0.90389913 -0.19881375 -0.3787341
vn -0.91125745 -0.17430705 -0.37313125
vn -0.17248122 -0.061562106 0.9830872
vn -0.13179186 -0.12279298 0.9836426
vn -0.19698593 -0.023827437 0.98011667
vn -0.30473405 0.15076976 0.9404285
vn 0.14047647 0.7975912 0.5866128
vn 0.034573253 0.7823225 0.6219133
vn 0.13995785 0.9000238 0.4127577
vn 0.13521753 0.7388387 0.660177
vn 0.091982335 0.7197845 0.68807673
vn -0.17247926 0.86758256 0.46642405
vn -0.21017408 0.9179537 0.33643407
vn -0.12893438 0.9069044 0.40112394
vn -0.04475029 0.6914013 0.7210837
g polySurface24_0
f 3/3/3 2/2/2 1/1/1
f 5/5/5 2/2/2 4/4/4
f 8/8/8 7/7/7 6/6/6
f 10/10/10 9/9/9 6/6/6
f 13/13/13 12/12/12 11/11/11
f 16/16/16 15/15/15 14/14/14
f 19/19/19 18/18/18 17/17/17
f 21/21/21 18/18/18 20/20/20
f 24/24/24 23/23/23 22/22/22
f 27/27/27 26/26/26 25/25/25
f 30/30/30 29/29/29 28/28/28
f 33/33/33 32/32/32 31/31/31
f 33/33/33 34/34/34 32/32/32
f 35/35/35 32/32/32 34/34/34
f 36/36/36 35/35/35 34/34/34
f 37/37/37 36/36/36 34/34/34
f 34/34/34 33/33/33 37/37/37
f 37/37/37 33/33/33 38/38/38
f 38/38/38 33/33/33 39/39/39
f 40/40/40 39/39/39 33/33/33
f 40/40/40 33/33/33 41/41/41
f 41/41/41 42/42/42 40/40/40
f 40/40/40 43/43/43 39/39/39
f 39/39/39 43/43/43 44/44/44
f 45/45/45 39/39/39 44/44/44
f 44/44/44 46/46/46 45/45/45
f 47/47/47 45/45/45 46/46/46
f 47/47/47 46/46/46 48/48/48
f 48/48/48 46/46/46 49/49/49
f 44/44/44 50/50/50 46/46/46
f 51/51/51 50/50/50 44/44/44
f 52/52/52 50/50/50 51/51/51
f 46/46/46 53/53/53 49/49/49
f 54/54/54 49/49/49 53/53/53
f 55/55/55 53/53/53 46/46/46
f 46/46/46 56/56/56 55/55/55
f 57/57/57 53/53/53 55/55/55
f 58/58/58 57/57/57 55/55/55
f 56/56/56 59/59/59 55/55/55
f 60/60/60 55/55/55 59/59/59
f 63/63/63 62/62/62 61/61/61
f 64/64/64 63/63/63 61/61/61
f 64/64/64 61/61/61 65/65/65
f 65/65/65 61/61/61 66/66/66
f 69/69/69 68/68/68 67/67/67
f 68/68/68 70/70/70 67/67/67
f 71/71/71 70/70/70 68/68/68
f 67/67/67 70/70/70 72/72/72
f 67/67/67 72/72/72 73/73/73
f 76/76/76 75/75/75 74/74/74
f 77/77/77 74/74/74 75/75/75
f 75/75/75 78/78/78 77/77/77
f 77/77/77 78/78/78 79/79/79
f 78/78/78 75/75/75 80/80/80
f 83/83/83 82/82/82 81/81/81
f 81/81/81 84/84/84 83/83/83
f 85/85/85 84/84/84 81/81/81
f 85/85/85 86/86/86 84/84/84
f 89/89/89 88/88/88 87/87/87
f 87/87/87 88/88/88 90/90/90
f 88/88/88 91/91/91 90/90/90
f 91/91/91 92/92/92 90/90/90
f 92/92/92 93/93/93 90/90/90
f 93/93/93 94/94/94 90/90/90
f 95/95/95 94/94/94 93/93/93
f 93/93/93 96/96/96 95/95/95
f 97/97/97 96/96/96 93/93/93
f 98/98/98 97/97/97 93/93/93
f 98/98/98 93/93/93 99/99/99
f 99/99/99 100/100/100 98/98/98
f 101/101/101 100/100/100 99/99/99
f 100/100/100 101/101/101 102/102/102
f 101/101/101 103/103/103 102/102/102
f 103/103/103 104/104/104 102/102/102
f 102/102/102 104/104/104 105/105/105
f 105/105/105 104/104/104 106/106/106
f 106/106/106 104/104/104 107/107/107
f 107/107/107 104/104/104 108/108/108
f 107/107/107 108/108/108 109/109/109
f 107/107/107 109/109/109 110/110/110
f 113/113/113 112/112/112 111/111/111
f 111/111/111 114/114/114 113/113/113
f 117/117/117 116/116/116 115/115/115
f 117/117/117 115/115/115 118/118/118
f 119/119/119 117/117/117 118/118/118
f 120/120/120 117/117/117 119/119/119
f 119/119/119 121/121/121 120/120/120
f 121/121/121 122/122/122 120/120/120
f 125/125/125 124/124/124 123/123/123
f 125/125/125 123/123/123 126/126/126
f 123/123/123 127/127/127 126/126/126
f 127/127/127 123/123/123 128/128/128
f 131/131/131 130/130/130 129/129/129
f 130/130/130 132/132/132 129/129/129
f 135/135/135 134/134/134 133/133/133
f 136/136/136 135/135/135 133/133/133
f 137/137/137 136/136/136 133/133/133
f 140/140/140 139/139/139 138/138/138
f 140/140/140 138/138/138 141/141/141
f 141/141/141 142/142/142 140/140/140
f 138/138/138 143/143/143 141/141/141
f 138/138/138 144/144/144 143/143/143
f 138/138/138 145/145/145 144/144/144
f 141/141/141 143/143/143 146/146/146
f 146/146/146 147/147/147 141/141/141
f 147/147/147 146/146/146 148/148/148
f 146/146/146 143/143/143 149/149/149
f 149/149/149 148/148/148 146/146/146
f 150/150/150 149/149/149 143/143/143
f 149/149/149 151/151/151 148/148/148
f 154/154/154 153/153/153 152/152/152
f 155/155/155 154/154/154 152/152/152
f 152/152/152 156/156/156 155/155/155
f 157/157/157 156/156/156 152/152/152
f 160/160/160 159/159/159 158/158/158
f 161/161/161 159/159/159 160/160/160
f 162/162/162 159/159/159 161/161/161
f 163/163/163 162/162/162 161/161/161
f 159/159/159 162/162/162 164/164/164
f 164/164/164 162/162/162 165/165/165
f 165/165/165 166/166/166 164/164/164
f 167/167/167 166/166/166 165/165/165
f 164/164/164 168/168/168 159/159/159
f 169/169/169 168/168/168 164/164/164
f 170/170/170 159/159/159 168/168/168
f 170/170/170 168/168/168 171/171/171
f 174/174/174 173/173/173 172/172/172
f 173/173/173 175/175/175 172/172/172
f 173/173/173 176/176/176 175/175/175
f 179/179/179 178/178/178 177/177/177
f 180/180/180 179/179/179 177/177/177
f 183/183/183 182/182/182 181/181/181
f 184/184/184 181/181/181 182/182/182
f 184/184/184 182/182/182 185/185/185
f 186/186/186 185/185/185 182/182/182
f 182/182/182 187/187/187 186/186/186
f 188/188/188 186/186/186 187/187/187
f 186/186/186 188/188/188 189/189/189
