g popper01
v 0.22903708 1.3721981 0.16640387
v 0.004041342 0.7389233 -0.046911545
v 0.050590415 0.80626464 -0.12352287
v 0.08747823 1.3721981 0.2692408
v -0.092229106 0.7149499 0.0060401154
v 0.08747823 1.3721981 0.2692408
v 0.004041342 0.7389233 -0.046911545
v 0.22903708 1.3721981 0.16640387
v -0.051039834 0.96118134 -0.23243645
v -0.14007823 0.7387772 -0.49687004
v -0.16035928 0.9895443 -0.222976
v -0.087477826 1.3721981 -0.26924065
v -0.2565873 0.96553814 -0.16983634
v -0.14007823 0.7387772 -0.49687004
v -0.22903664 1.3721981 -0.16640373
v -0.1703721 1.6622168 -0.52435297
v -0.30298775 0.8983439 -0.09340812
v -0.28190714 0.81354886 -0.02279045
v -0.44603983 1.6622168 -0.32406974
v -0.22280985 1.8002423 -0.68573964
v -0.28312477 1.3721981 7.65852E-08
v -0.5833238 1.8819079 -0.42381096
v -0.26663798 1.7976583 -0.8206322
v -0.6980698 1.8793237 -0.5071801
v -0.5513353 1.6622168 7.65852E-08
v -0.7210288 1.8002423 7.65852E-08
v -0.8628611 1.7976581 7.65852E-08
v -0.22903664 1.3721981 0.16640387
v -0.20142648 0.7434843 0.015195388
v -0.087477826 1.3721981 0.2692408
v -0.44603983 1.6622168 0.3240699
v -0.5833238 1.8002423 0.4238111
v -0.6980698 1.7976583 0.5071802
v -0.1703721 1.6622168 0.5243531
v -0.22280985 1.9704412 0.6857374
v -0.26663798 1.9678574 0.8206275
v 0.22281027 1.9704412 0.6857374
v 0.2666384 1.967857 0.8206275
v 0.17037313 1.6622168 0.5243531
v 0.08747823 1.3721981 0.2692408
v -0.092229106 0.7149499 0.0060401154
v -0.20142648 0.7434843 0.015195388
v 0.22903708 1.3721981 0.16640387
v 0.58332413 1.8853844 0.4238111
v 0.6980697 1.8828002 0.5071754
v 0.44603962 1.6622168 0.3240699
v 0.7210286 1.8467392 7.65852E-08
v 0.86286217 1.844155 7.65852E-08
v 0.2831252 1.3721981 7.65852E-08
v 0.050590415 0.80626464 -0.12352287
v 0.55133563 1.6622168 7.65852E-08
v 0.58332413 1.9217981 -0.42381096
v 0.6980697 1.9192138 -0.5071801
v 0.44603962 1.6622168 -0.32406974
v 0.22903708 1.3721981 -0.16640373
v 0.029559225 0.8911864 -0.19444816
v 0.22281027 1.8967279 -0.68573964
v 0.2666384 1.8941436 -0.8206322
v 0.17037313 1.6622168 -0.52435297
v -0.22280985 1.8002423 -0.68573964
v -0.26663798 1.7976583 -0.8206322
v -0.1703721 1.6622168 -0.52435297
v -0.087477826 1.3721981 -0.26924065
v 0.08747823 1.3721981 -0.26924065
v -0.16035928 0.9895443 -0.222976
v -0.051039834 0.96118134 -0.23243645
v -0.14007823 0.7387772 -0.49687004
v 0.004041342 0.7389233 -0.046911545
v -0.092229106 0.7149499 0.0060401154
v -0.32196757 1.1803744 -0.990913
v -0.48155466 -1.0455213 -1.4820726
v 0.48155504 -1.0455213 -1.482075
v 0.3397475 1.1803744 -1.0488427
v -0.29418314 1.6797894 -0.9054027
v 1.2607266 -1.0455213 -0.9159667
v 0.29418355 1.6797894 -0.9054027
v -0.26663798 1.7976583 -0.8206322
v 0.2666384 1.8941436 -0.8206322
v 0.89536273 1.1803738 -0.67728263
v 1.5583436 -1.0455213 7.65852E-08
v 0.7701827 1.6797894 -0.5595678
v 0.6980697 1.9192138 -0.5071801
v 1.0419087 1.1803738 7.65852E-08
v 1.2607266 -1.0455213 0.9159742
v 0.9519985 1.6797894 7.65852E-08
v 0.86286217 1.844155 7.65852E-08
v 0.9111403 1.1803738 0.65999764
v 0.48155504 -1.0455213 1.4820777
v 0.7701827 1.6797894 0.5595704
v 0.6980697 1.8828002 0.5071754
v 0.33744648 1.1803738 1.0722218
v -0.48155314 -1.0455213 1.4820704
v 0.29418355 1.6797894 0.9054029
v 0.2666384 1.967857 0.8206275
v -0.32196757 1.1803738 0.99091315
v -1.2607261 -1.0455213 0.9159742
v -0.29418314 1.6797894 0.9054029
v -0.26663798 1.9678574 0.8206275
v -0.92426246 1.1803738 0.6614674
v -1.5583438 -1.0455213 2.5179916E-06
v -0.77018166 1.6797894 0.5595704
v -0.6980698 1.7976583 0.5071802
v -1.041909 1.1803738 7.65852E-08
v -1.2607261 -1.0455213 -0.9159667
v -0.95199805 1.6797894 7.65852E-08
v -0.8628611 1.7976581 7.65852E-08
v -0.8429221 1.1803738 -0.61241937
v -0.48155466 -1.0455213 -1.4820726
v -0.32196757 1.1803744 -0.990913
v -0.77018166 1.6797894 -0.5595678
v -0.6980698 1.8793237 -0.5071801
v -0.29418314 1.6797894 -0.9054027
v -0.26663798 1.7976583 -0.8206322
v -0.20142648 0.7434843 0.015195388
v -0.14007823 0.7387772 -0.49687004
v -0.092229106 0.7149499 0.0060401154
vt 0.80003536 0.7569299
vt 1.4726784 0.4996262
vt 1.3762994 0.5269874
vt 2.6000292 0.7569299
vt 2.0208397 0.48988563
vt 2.6000292 0.7569299
vt 1.4726784 0.4996262
vt 2.8000355 0.7569299
vt -0.43116456 0.5899311
vt -0.41250044 0.49956682
vt -0.3015098 0.6014551
vt -0.39997315 0.7569299
vt -0.18608576 0.59170127
vt -0.41250044 0.49956682
vt -0.19996947 0.7569299
vt -0.39996892 0.87476635
vt -0.09515959 0.56439984
vt -0.025648534 0.52994704
vt -0.19997072 0.87476635
vt -0.39996874 0.93084705
vt 2.9087067E-05 0.7569299
vt -0.19996959 0.96402836
vt -0.39996904 0.97418827
vt -0.19996971 1.0073695
vt 3.0428171E-05 0.87476635
vt 3.0755997E-05 0.93084705
vt 3.093481E-05 0.97418815
vt 0.20002872 0.7569299
vt 0.02399543 0.5014793
vt 0.40003514 0.7569299
vt 0.20003209 0.87476635
vt 0.20003152 0.93084705
vt 0.20003194 0.97418827
vt 0.40003175 0.87476635
vt 0.40003142 1
vt 0.4000316 1.0433413
vt 0.6000325 1
vt 0.60003227 1.0433412
vt 0.60003257 0.87476635
vt 0.6000292 0.7569299
vt 0.020839691 0.48988563
vt 0.02399543 0.5014793
vt 0.80003536 0.7569299
vt 0.80003226 0.96544087
vt 0.8000332 1.008782
vt 0.80003154 0.87476635
vt 1.0000329 0.94973904
vt 1.0000327 0.99308014
vt 1.0000346 0.7569299
vt 1.3762994 0.5269874
vt 1.0000333 0.87476635
vt 1.2000332 0.98023593
vt 1.2000334 1.0235771
vt 1.2000344 0.87476635
vt 1.2000327 0.7569299
vt 1.4520118 0.56149167
vt 1.4000322 0.97004974
vt 1.4000325 1.0133909
vt 1.4000319 0.87476635
vt 1.6000313 0.93084705
vt 1.6000309 0.97418827
vt 1.6000311 0.87476635
vt 1.6000268 0.7569299
vt 1.4000362 0.7569299
vt 1.6984901 0.6014551
vt 1.5688355 0.5899311
vt 1.5874996 0.49956682
vt 1.4726784 0.4996262
vt 2.0208397 0.48988563
vt 1.6000316 0.67899066
vt 1.6000316 0
vt 1.400032 0
vt 1.4003181 0.67899066
vt 1.6000316 0.8819063
vt 1.2000316 0
vt 1.4000319 0.8819063
vt 1.6000309 0.97418827
vt 1.4000325 1.0133909
vt 1.2061718 0.6789904
vt 1.0000324 0
vt 1.2000318 0.8819063
vt 1.2000334 1.0235771
vt 1.0000327 0.6789904
vt 0.800032 0
vt 1.0000327 0.8819063
vt 1.0000327 0.99308014
vt 0.8004867 0.6789904
vt 0.60003173 0
vt 0.80003256 0.8819063
vt 0.8000332 1.008782
vt 0.59708583 0.6789904
vt 0.40003178 0
vt 0.6000322 0.8819063
vt 0.60003227 1.0433412
vt 0.4000315 0.6789904
vt 0.20003173 0
vt 0.40003163 0.8819063
vt 0.4000316 1.0433413
vt 0.1977545 0.6789904
vt 3.182888E-05 0
vt 0.20003134 0.8819063
vt 0.20003194 0.97418827
vt 3.1083822E-05 0.6789904
vt -0.1999681 0
vt 3.1024218E-05 0.8819063
vt 3.093481E-05 0.97418815
vt -0.19996893 0.6789904
vt -0.3999684 0
vt -0.39996833 0.67899066
vt -0.19996834 0.8819063
vt -0.19996971 1.0073695
vt -0.39996845 0.8819063
vt -0.39996904 0.97418827
vt 0.02399543 0.5014793
vt -0.41250044 0.49956682
vt 0.020839691 0.48988563
vn -0.6531557 0.5826154 -0.48368064
vn -0.656785 0.5731502 -0.49003282
vn -0.90362835 0.42831737 5.376752E-05
vn -0.25945592 0.5714569 -0.7785368
vn -0.20663531 0.60409606 -0.76965564
vn -0.25945592 0.5714569 -0.7785368
vn -0.656785 0.5731502 -0.49003282
vn -0.6531557 0.5826154 -0.48368064
vn -0.3221035 -0.016291855 0.9465643
vn 0.15865646 0.52464914 0.83640385
vn 0.32880756 -0.14852941 0.93264395
vn 0.2537206 0.495988 0.83043474
vn 0.82908607 -0.12943201 0.5439336
vn 0.15865646 0.52464914 0.83640385
vn 0.7063184 0.46477598 0.53394526
vn 0.21872096 0.6867228 0.6932336
vn 0.998946 0.041872047 -0.018803954
vn 0.792346 0.29855585 -0.5320267
vn 0.5946174 0.6780742 0.43202487
vn 0.10062912 0.92779875 0.3592538
vn 0.8910417 0.4536961 -0.014301594
vn 0.32676238 0.9148029 0.23740686
vn -0.21917029 0.70858 -0.67073005
vn -0.50882083 0.77745456 -0.36968338
vn 0.7028192 0.7104887 0.035368994
vn 0.33471453 0.9385751 0.08392229
vn -0.63551587 0.7720454 0.008099342
vn 0.68360484 0.48733422 -0.5433137
vn 0.32331693 0.51057124 -0.79673284
vn 0.23272161 0.5366945 -0.8110485
vn 0.5431932 0.68694013 -0.4827571
vn 0.19812909 0.9127166 -0.3573417
vn -0.5790162 0.7085149 0.40341878
vn 0.1920418 0.58967376 -0.7844775
vn 0.017630702 0.8237177 -0.56672585
vn -0.24694535 0.61973965 0.74494344
vn -0.10009738 0.81599116 -0.56933194
vn 0.25303394 0.5761211 0.7772119
vn -0.22522093 0.5740095 -0.78726655
vn -0.25945592 0.5714569 -0.7785368
vn -0.20663531 0.60409606 -0.76965564
vn 0.32331693 0.51057124 -0.79673284
vn -0.6531557 0.5826154 -0.48368064
vn -0.32290697 0.8641161 -0.38605
vn 0.63037324 0.63074946 0.4525315
vn -0.6024851 0.6258492 -0.49530253
vn -0.44305727 0.89572775 0.037040707
vn 0.75101054 0.66028756 0.0018777545
vn -0.8214723 0.5702477 -0.0009395865
vn -0.90362835 0.42831737 5.376752E-05
vn -0.7589236 0.6510218 0.014339965
vn -0.3716168 0.8676323 0.33032548
vn 0.60790914 0.661536 -0.43910894
vn -0.6223308 0.6220265 0.47517103
vn -0.6718093 0.5442881 0.5024169
vn -0.79869235 0.20567437 0.5654985
vn -0.25691876 0.8776121 0.40470946
vn 0.21918765 0.6840236 -0.69575036
vn -0.28137684 0.64030665 0.71472675
vn 0.10062912 0.92779875 0.3592538
vn -0.21917029 0.70858 -0.67073005
vn 0.21872096 0.6867228 0.6932336
vn 0.2537206 0.495988 0.83043474
vn -0.25859216 0.52010244 0.81401694
vn 0.32880756 -0.14852941 0.93264395
vn -0.3221035 -0.016291855 0.9465643
vn 0.15865646 0.52464914 0.83640385
vn -0.656785 0.5731502 -0.49003282
vn -0.20663531 0.60409606 -0.76965564
vn -0.32056427 0.19597732 -0.9267315
vn -0.31909525 0.19398229 -0.9276578
vn 0.27902603 0.17467347 -0.9442636
vn 0.27582365 0.19350612 -0.941529
vn -0.31242764 0.26567408 -0.9120341
vn 0.8078071 0.17444575 -0.56304216
vn 0.2771031 0.3095837 -0.9095997
vn -0.21917029 0.70858 -0.67073005
vn 0.21918765 0.6840236 -0.69575036
vn 0.80153537 0.19426532 -0.5655104
vn 0.9837911 0.17924231 -0.005224694
vn 0.7802658 0.30793622 -0.54439014
vn 0.60790914 0.661536 -0.43910894
vn 0.9814162 0.1918093 -0.005605709
vn 0.8088789 0.17038935 0.56274545
vn 0.95806134 0.2864888 -0.0065301587
vn 0.75101054 0.66028756 0.0018777545
vn 0.80652815 0.19321322 0.5587317
vn 0.2843588 0.1698949 0.9435442
vn 0.77437204 0.31573746 0.54832274
vn 0.63037324 0.63074946 0.4525315
vn 0.2785433 0.19300608 0.94083065
vn -0.30443594 0.17596543 0.9361383
vn 0.275798 0.30087858 0.91291165
vn 0.25303394 0.5761211 0.7772119
vn -0.30353028 0.1909406 0.93349403
vn -0.7950081 0.18076551 0.5790387
vn -0.28919703 0.27903003 0.91570044
vn -0.24694535 0.61973965 0.74494344
vn -0.7941548 0.19659609 0.57503754
vn -0.98174584 0.1882039 -0.027465496
vn -0.76121837 0.31498477 0.5668608
vn -0.5790162 0.7085149 0.40341878
vn -0.98046356 0.19438556 -0.030090142
vn -0.7920564 0.20369379 -0.5754612
vn -0.9579022 0.28540164 -0.031134121
vn -0.63551587 0.7720454 0.008099342
vn -0.79286677 0.19881463 -0.57605135
vn -0.31909525 0.19398229 -0.9276578
vn -0.32056427 0.19597732 -0.9267315
vn -0.7832277 0.25047958 -0.569047
vn -0.50882083 0.77745456 -0.36968338
vn -0.31242764 0.26567408 -0.9120341
vn -0.21917029 0.70858 -0.67073005
vn 0.32331693 0.51057124 -0.79673284
vn 0.15865646 0.52464914 0.83640385
vn -0.20663531 0.60409606 -0.76965564
g popper01_0
f 3/3/3 2/2/2 1/1/1
f 2/2/2 5/5/5 4/4/4
f 8/8/8 7/7/7 6/6/6
f 11/11/11 10/10/10 9/9/9
f 13/13/13 11/11/11 12/12/12
f 13/13/13 14/14/14 11/11/11
f 15/15/15 13/13/13 12/12/12
f 15/15/15 12/12/12 16/16/16
f 17/17/17 14/14/14 13/13/13
f 17/17/17 13/13/13 15/15/15
f 18/18/18 14/14/14 17/17/17
f 19/19/19 15/15/15 16/16/16
f 19/19/19 16/16/16 20/20/20
f 21/21/21 17/17/17 15/15/15
f 18/18/18 17/17/17 21/21/21
f 21/21/21 15/15/15 19/19/19
f 22/22/22 19/19/19 20/20/20
f 22/22/22 20/20/20 23/23/23
f 24/24/24 22/22/22 23/23/23
f 25/25/25 21/21/21 19/19/19
f 25/25/25 19/19/19 22/22/22
f 26/26/26 22/22/22 24/24/24
f 26/26/26 25/25/25 22/22/22
f 27/27/27 26/26/26 24/24/24
f 28/28/28 18/18/18 21/21/21
f 28/28/28 21/21/21 25/25/25
f 29/29/29 18/18/18 28/28/28
f 30/30/30 29/29/29 28/28/28
f 31/31/31 28/28/28 25/25/25
f 31/31/31 25/25/25 26/26/26
f 30/30/30 28/28/28 31/31/31
f 32/32/32 26/26/26 27/27/27
f 32/32/32 31/31/31 26/26/26
f 33/33/33 32/32/32 27/27/27
f 34/34/34 31/31/31 32/32/32
f 34/34/34 30/30/30 31/31/31
f 35/35/35 32/32/32 33/33/33
f 35/35/35 34/34/34 32/32/32
f 36/36/36 35/35/35 33/33/33
f 37/37/37 35/35/35 36/36/36
f 38/38/38 37/37/37 36/36/36
f 39/39/39 34/34/34 35/35/35
f 37/37/37 39/39/39 35/35/35
f 40/40/40 30/30/30 34/34/34
f 39/39/39 40/40/40 34/34/34
f 40/40/40 41/41/41 30/30/30
f 41/41/41 42/42/42 30/30/30
f 43/43/43 40/40/40 39/39/39
f 44/44/44 37/37/37 38/38/38
f 45/45/45 44/44/44 38/38/38
f 46/46/46 39/39/39 37/37/37
f 46/46/46 43/43/43 39/39/39
f 44/44/44 46/46/46 37/37/37
f 47/47/47 44/44/44 45/45/45
f 48/48/48 47/47/47 45/45/45
f 49/49/49 43/43/43 46/46/46
f 49/49/49 50/50/50 43/43/43
f 51/51/51 46/46/46 44/44/44
f 47/47/47 51/51/51 44/44/44
f 51/51/51 49/49/49 46/46/46
f 52/52/52 47/47/47 48/48/48
f 53/53/53 52/52/52 48/48/48
f 54/54/54 51/51/51 47/47/47
f 52/52/52 54/54/54 47/47/47
f 55/55/55 49/49/49 51/51/51
f 54/54/54 55/55/55 51/51/51
f 56/56/56 50/50/50 49/49/49
f 55/55/55 56/56/56 49/49/49
f 57/57/57 52/52/52 53/53/53
f 58/58/58 57/57/57 53/53/53
f 59/59/59 54/54/54 52/52/52
f 57/57/57 59/59/59 52/52/52
f 60/60/60 57/57/57 58/58/58
f 61/61/61 60/60/60 58/58/58
f 60/60/60 62/62/62 57/57/57
f 62/62/62 59/59/59 57/57/57
f 62/62/62 63/63/63 59/59/59
f 59/59/59 64/64/64 54/54/54
f 63/63/63 64/64/64 59/59/59
f 64/64/64 55/55/55 54/54/54
f 63/63/63 65/65/65 64/64/64
f 65/65/65 66/66/66 64/64/64
f 64/64/64 66/66/66 55/55/55
f 66/66/66 56/56/56 55/55/55
f 66/66/66 67/67/67 56/56/56
f 56/56/56 67/67/67 50/50/50
f 50/50/50 67/67/67 68/68/68
f 68/68/68 67/67/67 69/69/69
f 72/72/72 71/71/71 70/70/70
f 73/73/73 72/72/72 70/70/70
f 70/70/70 74/74/74 73/73/73
f 75/75/75 72/72/72 73/73/73
f 74/74/74 76/76/76 73/73/73
f 74/74/74 77/77/77 76/76/76
f 77/77/77 78/78/78 76/76/76
f 79/79/79 75/75/75 73/73/73
f 73/73/73 76/76/76 79/79/79
f 80/80/80 75/75/75 79/79/79
f 76/76/76 78/78/78 81/81/81
f 76/76/76 81/81/81 79/79/79
f 78/78/78 82/82/82 81/81/81
f 83/83/83 80/80/80 79/79/79
f 79/79/79 81/81/81 83/83/83
f 84/84/84 80/80/80 83/83/83
f 81/81/81 82/82/82 85/85/85
f 81/81/81 85/85/85 83/83/83
f 82/82/82 86/86/86 85/85/85
f 87/87/87 84/84/84 83/83/83
f 83/83/83 85/85/85 87/87/87
f 88/88/88 84/84/84 87/87/87
f 85/85/85 86/86/86 89/89/89
f 85/85/85 89/89/89 87/87/87
f 86/86/86 90/90/90 89/89/89
f 91/91/91 88/88/88 87/87/87
f 87/87/87 89/89/89 91/91/91
f 92/92/92 88/88/88 91/91/91
f 89/89/89 90/90/90 93/93/93
f 89/89/89 93/93/93 91/91/91
f 90/90/90 94/94/94 93/93/93
f 95/95/95 92/92/92 91/91/91
f 91/91/91 93/93/93 95/95/95
f 96/96/96 92/92/92 95/95/95
f 93/93/93 94/94/94 97/97/97
f 93/93/93 97/97/97 95/95/95
f 94/94/94 98/98/98 97/97/97
f 99/99/99 96/96/96 95/95/95
f 95/95/95 97/97/97 99/99/99
f 100/100/100 96/96/96 99/99/99
f 97/97/97 98/98/98 101/101/101
f 97/97/97 101/101/101 99/99/99
f 98/98/98 102/102/102 101/101/101
f 103/103/103 100/100/100 99/99/99
f 99/99/99 101/101/101 103/103/103
f 104/104/104 100/100/100 103/103/103
f 101/101/101 102/102/102 105/105/105
f 101/101/101 105/105/105 103/103/103
f 102/102/102 106/106/106 105/105/105
f 107/107/107 104/104/104 103/103/103
f 103/103/103 105/105/105 107/107/107
f 108/108/108 104/104/104 107/107/107
f 109/109/109 108/108/108 107/107/107
f 105/105/105 106/106/106 110/110/110
f 105/105/105 110/110/110 107/107/107
f 107/107/107 110/110/110 109/109/109
f 106/106/106 111/111/111 110/110/110
f 110/110/110 112/112/112 109/109/109
f 110/110/110 111/111/111 112/112/112
f 111/111/111 113/113/113 112/112/112
f 116/116/116 115/115/115 114/114/114
f 114/114/114 115/115/115 18/18/18
