g ranchUp_stoneBlock05
v -1.173958 0.15323186 -1.043755
v -1.173958 0.007680912 -1.0831639
v -1.1281788 0.007680912 -1.128943
v -1.089009 0.15323186 -1.128943
v 0.042936172 0.007680912 -1.128943
v 0.042936172 0.16170143 -1.128943
v 1.1281788 0.19082029 -1.128943
v 1.1281788 0.007680912 -1.128943
v 1.173958 0.007680912 -1.0831639
v 1.173958 0.19082029 -1.0831639
v 1.1281788 0.23659942 -1.0831639
v 1.173958 0.19082029 -1.0831639
v 0.042936172 0.23659942 -1.0831637
v 1.128179 0.23659942 -0.19603722
v 1.173958 0.19082029 -0.19603698
v 1.1281788 0.23659942 1.1713133
v 1.173958 0.19082029 1.1713133
v -1.0919648 0.23659942 -1.0375943
v -1.173958 0.15323186 -1.043755
v -1.1739578 0.14256294 -0.19603722
v -1.0705963 0.23659942 -0.19603698
v -1.173958 0.19082029 1.1713133
v -1.1281788 0.23659942 1.1713133
v 0.042936094 0.23659942 -0.19603705
v 0.042936172 0.23659942 1.1375078
v 1.1281788 0.19082029 1.2170924
v 1.173958 0.19082029 1.1713133
v 0.042936172 0.19082029 1.2170924
v 1.1281788 0.007680912 1.2170924
v 1.173958 0.007680912 1.1713133
v 1.1739578 0.007680912 -0.19603722
v 1.173958 0.19082029 -0.19603698
v 1.173958 0.007680912 -1.0831639
v 1.173958 0.19082029 -1.0831639
v 0.042936172 0.007680912 1.2170924
v -1.1281788 0.19082029 1.2170924
v -1.1281788 0.007680912 1.2170924
v -1.173958 0.19082029 1.1713133
v -1.173958 0.007680912 1.1713133
v -1.1739578 0.14256294 -0.19603722
v -1.1739578 0.007680912 -0.19603722
v -1.173958 0.15323186 -1.043755
v -1.173958 0.007680912 -1.0831639
vt 0.375 0.549995
vt 0.375 0.75
vt 0.37734994 0.75
vt 0.37734994 0.549995
vt 0.43746588 0.75
vt 0.4374659 0.549995
vt 0.6226501 0.549995
vt 0.62265 0.75000006
vt 0.625 0.75
vt 0.625 0.549995
vt 0.62265 0.49765006
vt 0.625 0.49765006
vt 0.43746588 0.49765006
vt 0.62265 0.33161402
vt 0.625 0.33161402
vt 0.62265 0.25234994
vt 0.625 0.25234994
vt 0.37734994 0.49765006
vt 0.37500003 0.49765006
vt 0.375 0.33161402
vt 0.37734994 0.33161402
vt 0.375 0.25234994
vt 0.37734994 0.25234994
vt 0.43746588 0.33161402
vt 0.43746588 0.25234994
vt 0.6226501 0.200005
vt 0.6273499 0.20000498
vt 0.43746585 0.20000498
vt 0.6226501 -2.7939677E-09
vt 0.62735 -1.1641532E-09
vt 0.706614 -1.6907968E-09
vt 0.706614 0.200005
vt 0.8726501 -2.7939677E-09
vt 0.8726501 0.200005
vt 0.4374659 -1.5635735E-09
vt 0.3773499 0.20000498
vt 0.37734994 -1.1641532E-09
vt 0.37265006 0.200005
vt 0.3726501 -2.7939677E-09
vt 0.29338598 0.20000498
vt 0.293386 -2.267324E-09
vt 0.12734994 0.20000498
vt 0.12734994 -1.1641532E-09
vn -0.9402026 0.3383161 -0.039512552
vn -0.99518484 0.025565432 -0.09462317
vn -0.06891514 0.018585583 -0.99744934
vn -0.040612806 0.26437184 -0.96356535
vn -0 0 -1
vn -0.0052273003 0.24055403 -0.9706217
vn 0.032293685 0.19580628 -0.9801107
vn 0.043776408 0 -0.99904126
vn 0.99879813 0 -0.049012464
vn 0.98070097 0.19095312 -0.041983142
vn 0.0384668 0.99729484 -0.0626355
vn 0.98070097 0.19095312 -0.041983142
vn -0.0013637163 0.99706906 -0.07649445
vn 0.04073535 0.99916995 0
vn 0.9805846 0.19609663 0
vn 0.03979356 0.99867874 0.03251498
vn 0.9808585 0.1927476 0.027658574
vn -0.0721045 0.9944746 -0.07629726
vn -0.9402026 0.3383161 -0.039512552
vn -0.9447323 0.32781485 -0.0042668767
vn -0.060917165 0.9981425 -0.00083951897
vn -0.9503089 0.31092066 0.015533771
vn -0.058795784 0.9977921 0.030888058
vn -0 1 0
vn 3.039223E-07 0.9994978 0.031688236
vn 0.031158935 0.25772324 0.96571624
vn 0.9808585 0.1927476 0.027658574
vn -0 0.26409596 0.9644964
vn 0.040442776 0 0.9991818
vn 0.99947566 -7.542904E-07 0.032378513
vn 1 -4.730447E-07 0
vn 0.9805846 0.19609663 0
vn 0.99879813 0 -0.049012464
vn 0.98070097 0.19095312 -0.041983142
vn -0 0 1
vn -0.028947437 0.25818443 0.9656619
vn -0.037593048 0 0.9992931
vn -0.9503089 0.31092066 0.015533771
vn -0.99931145 0 0.037103135
vn -0.9447323 0.32781485 -0.0042668767
vn -1 0 0
vn -0.9402026 0.3383161 -0.039512552
vn -0.99518484 0.025565432 -0.09462317
g ranchUp_stoneBlock05_0
f 3/3/3 2/2/2 1/1/1
f 4/4/4 3/3/3 1/1/1
f 5/5/5 3/3/3 4/4/4
f 6/6/6 5/5/5 4/4/4
f 6/6/6 7/7/7 5/5/5
f 7/7/7 8/8/8 5/5/5
f 9/9/9 8/8/8 7/7/7
f 10/10/10 9/9/9 7/7/7
f 11/11/11 7/7/7 6/6/6
f 11/11/11 12/12/12 7/7/7
f 13/13/13 6/6/6 4/4/4
f 13/13/13 11/11/11 6/6/6
f 12/12/12 11/11/11 14/14/14
f 14/14/14 11/11/11 13/13/13
f 15/15/15 12/12/12 14/14/14
f 15/15/15 14/14/14 16/16/16
f 17/17/17 15/15/15 16/16/16
f 18/18/18 13/13/13 4/4/4
f 18/18/18 4/4/4 19/19/19
f 18/18/18 19/19/19 20/20/20
f 21/21/21 18/18/18 20/20/20
f 13/13/13 18/18/18 21/21/21
f 21/21/21 20/20/20 22/22/22
f 23/23/23 21/21/21 22/22/22
f 24/24/24 14/14/14 13/13/13
f 24/24/24 13/13/13 21/21/21
f 16/16/16 14/14/14 24/24/24
f 24/24/24 21/21/21 23/23/23
f 25/25/25 16/16/16 24/24/24
f 25/25/25 24/24/24 23/23/23
f 26/26/26 16/16/16 25/25/25
f 26/26/26 27/27/27 16/16/16
f 28/28/28 25/25/25 23/23/23
f 28/28/28 26/26/26 25/25/25
f 26/26/26 29/29/29 27/27/27
f 29/29/29 26/26/26 28/28/28
f 29/29/29 30/30/30 27/27/27
f 30/30/30 31/31/31 27/27/27
f 31/31/31 32/32/32 27/27/27
f 31/31/31 33/33/33 32/32/32
f 33/33/33 34/34/34 32/32/32
f 35/35/35 29/29/29 28/28/28
f 36/36/36 28/28/28 23/23/23
f 35/35/35 28/28/28 36/36/36
f 37/37/37 35/35/35 36/36/36
f 36/36/36 23/23/23 38/38/38
f 39/39/39 37/37/37 36/36/36
f 38/38/38 39/39/39 36/36/36
f 39/39/39 38/38/38 40/40/40
f 41/41/41 39/39/39 40/40/40
f 41/41/41 40/40/40 42/42/42
f 43/43/43 41/41/41 42/42/42
