g rock_square
v -0.30409765 0.2680971 -0.8054472
v -0.18142796 -0.06463586 -0.7427003
v -0.2255187 0.24111414 -0.7936963
v -0.4970536 -0.13976188 -0.75720435
v -0.4563675 -0.3168479 -0.72557926
v -0.04618168 -0.40579286 -0.68367934
v -0.14855528 -0.52289087 -0.66030824
v -0.080340385 -0.70016974 -0.47262186
v -0.7682919 -0.32502794 -0.30911672
v -0.61703724 -0.2039749 -0.64258116
v -0.8089623 0.103084065 -0.39389926
v -0.5853801 0.3102791 -0.57952416
v -0.48360538 0.47282508 -0.6378742
v -0.34946537 0.5825511 -0.6080152
v -0.72524685 0.47106707 -0.3838091
v -0.67943764 0.53288704 -0.3524811
v -0.3654642 -0.646871 -0.12606876
v -0.10831022 -0.7831749 -0.22911042
v -0.79499435 -0.15872993 -0.45597872
v -0.7815594 -0.21224996 -0.07302746
v -0.7883854 0.43912303 -0.13735317
v -0.16709995 0.65189713 -0.4483511
v -0.083147526 0.6505239 -0.52607733
v -0.42918158 0.59498906 -0.12339612
v -0.28140783 0.5937689 -0.1734261
v -0.6975464 0.524204 -0.066843
v -0.77479213 0.3599659 0.32181358
v -0.5289316 0.5835048 0.14665368
v -0.7971325 0.056839015 -0.12718825
v -0.80085844 0.20397499 0.112838715
v -0.4553971 0.54154396 0.27110866
v -0.7662754 0.11206195 0.32512656
v -0.6943755 0.16322789 0.4448108
v -0.6197605 0.34514686 0.42823574
v -0.18063545 0.5603979 0.37620974
v 0.03463936 0.6011378 0.1861749
v -0.7225895 -0.119828 0.26250473
v -0.38355872 0.45695484 0.43332794
v -0.7235245 -0.29792 0.032093655
v -0.7136654 -0.30534104 0.2803756
v -0.71414655 -0.460039 -0.035109416
v -0.6718626 -0.461429 0.25798854
v -0.5637665 -0.4104041 0.4654275
v -0.45550728 -0.52946603 0.45063433
v -0.5777292 0.31987688 0.5402908
v -0.094070435 -0.69128007 0.4491041
v 0.024253368 -0.793957 0.056559853
v -0.5030308 -0.42899507 0.50375664
v -0.43469524 -0.14045912 0.7109727
v -0.20922518 -0.40909117 0.6223741
v -0.13438034 -0.2252401 0.7572686
v -0.5289984 0.123543896 0.65980977
v 0.0071988106 -0.6447361 0.49938923
v -0.4066863 0.2979829 0.63845086
v -0.3958044 0.43327692 0.5736697
v -0.15845442 0.4958238 0.6281328
v 0.3877635 -0.704031 0.020966593
v -0.10831022 -0.7831749 -0.22911042
v -0.0019750595 -0.39113212 0.6823726
v -0.050880432 0.59311986 0.5195649
v 0.18303633 0.62761194 0.3438919
v 0.03463936 0.6011378 0.1861749
v 0.13890076 -0.4444771 0.6553625
v 0.09990358 -0.25841513 0.8054472
v 0.12486744 -0.05096211 0.7341146
v 0.42532063 -0.1241311 0.6192266
v -0.028561592 0.5120889 0.6298938
v 0.12327433 0.6065868 0.478108
v 0.21004057 0.34573594 0.5680377
v 0.2629819 0.35726887 0.45490074
v 0.4190426 -0.5677711 0.3954521
v 0.2484417 -0.30970213 0.7425111
v 0.5028014 -0.3722841 0.50661767
v 0.5458035 -0.58821 0.1597546
v 0.5018854 -0.49529096 0.37447247
v 0.59508747 -0.23351707 0.43597162
v 0.44401646 0.03729793 0.43557185
v 0.44238135 -0.63306195 -0.26226965
v 0.64834446 -0.21849203 0.26361525
v 0.5767407 -0.059328053 0.35321563
v 0.62852764 -0.43193197 -0.023956668
v 0.46238852 0.37955394 0.29967472
v 0.63034964 0.060477953 0.31381768
v 0.69384044 -0.16921104 0.2358047
v 0.7756705 -0.262303 -0.01729141
v 0.4037957 -0.49784887 -0.49503577
v 0.46356627 -0.38513282 -0.56307125
v 0.34990546 -0.6172699 -0.4614028
v 0.8089623 -0.102700956 -0.16907032
v 0.6818943 0.442808 -0.026712166
v 0.04318142 -0.67813987 -0.56697935
v -0.080340385 -0.70016974 -0.47262186
v -0.14855528 -0.52289087 -0.66030824
v -0.04618168 -0.40579286 -0.68367934
v 0.33177137 -0.47308284 -0.5740032
v 0.07186556 -0.28988788 -0.6707554
v -0.18142796 -0.06463586 -0.7427003
v 0.12427664 -0.08604486 -0.7189862
v 0.25996494 0.2729971 -0.7518911
v -0.2255187 0.24111414 -0.7936963
v -0.15051126 0.3710991 -0.7439292
v -0.30409765 0.2680971 -0.8054472
v -0.34946537 0.5825511 -0.6080152
v 0.042049885 0.5495191 -0.5997852
v -0.083147526 0.6505239 -0.52607733
v 0.30147076 0.6376911 -0.40030593
v -0.16709995 0.65189713 -0.4483511
v 0.45748043 0.56066704 -0.47153518
v 0.22675133 0.6772369 -0.042028137
v -0.28140783 0.5937689 -0.1734261
v 0.03463936 0.6011378 0.1861749
v 0.44207954 0.6853129 -0.050702997
v 0.31519842 0.669381 0.22996835
v 0.24255657 0.58479595 0.37221885
v 0.63927174 0.42211798 0.10344673
v 0.5986256 0.5912289 -0.17044206
v 0.56234455 0.44694 -0.46220207
v 0.5540137 0.277631 -0.49871325
v 0.75159454 -0.07383192 -0.31322724
vt 0.9640901 0.71855384
vt 0.96335304 0.82698065
vt 0.97593546 0.7348929
vt 0.9146184 0.8074785
vt 0.89741313 0.8495846
vt 0.9145894 0.9245772
vt 0.8763039 0.9282624
vt 0.81623626 0.9712893
vt 0.83096886 0.8135501
vt 0.88780165 0.8104444
vt 0.85783374 0.72825617
vt 0.9006475 0.68920887
vt 0.90986 0.6477282
vt 0.9103316 0.60226333
vt 0.8569716 0.6534883
vt 0.8514707 0.6361973
vt 0.76235807 0.91142994
vt 0.73773515 0.96860063
vt 0.8561442 0.7842875
vt 0.8069364 0.78116685
vt 0.8201946 0.6545059
vt 0.87425363 0.54345006
vt 0.8901392 0.52784926
vt 0.7980796 0.57191014
vt 0.79654276 0.5419872
vt 0.80528116 0.6295348
vt 0.76071537 0.6649966
vt 0.7597389 0.6054416
vt 0.82022727 0.73061305
vt 0.79042673 0.6965612
vt 0.73143077 0.60417145
vt 0.7628094 0.7084372
vt 0.74558794 0.6960995
vt 0.73559415 0.65835315
vt 0.66760945 0.58315754
vt 0.6175773 0.5460082
vt 0.76517797 0.75340635
vt 0.7050085 0.616807
vt 0.78922355 0.79513806
vt 0.7599993 0.78648144
vt 0.7884122 0.82856953
vt 0.7570363 0.8168112
vt 0.72983384 0.80350107
vt 0.71434605 0.82877517
vt 0.7232561 0.6659751
vt 0.66360176 0.874801
vt 0.65571356 0.94117504
vt 0.7203828 0.8065874
vt 0.7035397 0.74964803
vt 0.68235576 0.80730337
vt 0.6723006 0.7648116
vt 0.7136322 0.70171857
vt 0.6531451 0.862294
vt 0.69867814 0.6685376
vt 0.698773 0.6416814
vt 0.6663103 0.63281786
vt 0.5884131 0.8993045
vt 0.5729097 0.9896042
vt 0.6599139 0.8015079
vt 0.6492375 0.6060876
vt 0.60475993 0.59103644
vt 0.6175773 0.5460082
vt 0.6442094 0.8114291
vt 0.64858675 0.7700755
vt 0.6413238 0.73271376
vt 0.60799325 0.7510175
vt 0.6497364 0.6308074
vt 0.62250197 0.6084491
vt 0.61986065 0.66026783
vt 0.6046827 0.6544225
vt 0.60408723 0.8381865
vt 0.6334003 0.78045696
vt 0.5993118 0.79763836
vt 0.57723653 0.85928416
vt 0.5935596 0.8268391
vt 0.5835737 0.7767715
vt 0.5903928 0.72030646
vt 0.5284215 0.89075255
vt 0.565794 0.7834285
vt 0.57541955 0.74641234
vt 0.543345 0.8376969
vt 0.573668 0.66077715
vt 0.566309 0.72768885
vt 0.5602598 0.7742067
vt 0.5340946 0.79982644
vt 0.47809136 0.8773004
vt 0.46152902 0.85328877
vt 0.49205887 0.90049124
vt 0.51115763 0.775497
vt 0.52228105 0.67374873
vt 0.4724754 0.9458267
vt 0.49421775 0.97389334
vt 0.41686827 0.94516075
vt 0.40005642 0.9004192
vt 0.45781553 0.8793782
vt 0.402978 0.85867375
vt 0.33766347 0.79478127
vt 0.39158553 0.8023583
vt 0.40190887 0.71530336
vt 0.32916844 0.70221436
vt 0.35174686 0.66983664
vt 0.316669 0.6870673
vt 0.3438049 0.5940073
vt 0.40470707 0.62610704
vt 0.4075662 0.5848119
vt 0.46249986 0.6211016
vt 0.4218465 0.55480236
vt 0.4580747 0.6539964
vt 0.5390525 0.57683647
vt 0.48406804 0.50046766
vt 0.6175773 0.5460082
vt 0.52715707 0.613469
vt 0.57560766 0.5983352
vt 0.59898794 0.6069176
vt 0.5397432 0.6705107
vt 0.5060365 0.6494054
vt 0.46219838 0.6808846
vt 0.4556433 0.7130613
vt 0.4927386 0.7749751
vn -0.33174565 0.18115552 -0.92581177
vn 0.07777137 -0.15579452 -0.9847231
vn 0.0928814 -0.025223603 -0.9953576
vn -0.42179257 0.009827155 -0.90663916
vn -0.4116076 -0.6440913 -0.6447679
vn 0.14933895 -0.21118169 -0.9659711
vn -0.16575477 -0.5703334 -0.8045155
vn -0.44773307 -0.8068144 -0.38546818
vn -0.6674414 -0.68123037 -0.30074424
vn -0.7214026 -0.24313037 -0.6484334
vn -0.9190314 0.09253137 -0.38317
vn -0.67444205 0.16424021 -0.7198284
vn -0.5191199 0.44351593 -0.73062176
vn -0.20382561 0.8283227 -0.52185875
vn -0.8363794 0.31288406 -0.45008105
vn -0.3722705 0.9191876 -0.12848721
vn -0.49966168 -0.8473729 -0.17971471
vn -0.18234898 -0.978784 -0.09343768
vn -0.9219532 -0.14579634 -0.3588115
vn -0.97772413 -0.18279138 0.10316429
vn -0.952059 0.30475596 -0.02659799
vn -0.14283027 0.98961896 -0.015936185
vn 0.06861875 0.88558775 -0.45937526
vn -0.18224111 0.9832328 0.006440164
vn -0.112869665 0.9844114 0.13488714
vn -0.5057163 0.8586916 0.0830641
vn -0.79884267 0.47648355 0.36717
vn -0.2719218 0.93575245 0.22455715
vn -0.99961025 -0.017338602 0.021880247
vn -0.99817896 -0.0039509432 0.060191896
vn -0.17550066 0.93890035 0.2960838
vn -0.94593775 -0.14121604 0.29199305
vn -0.800815 -0.05615126 0.5962738
vn -0.4765014 0.65387636 0.58770066
vn -0.18537934 0.9768673 0.106605165
vn -0.17577858 0.9796871 0.09651494
vn -0.9644252 -0.15872504 0.2114014
vn -0.3680874 0.8453851 0.38708633
vn -0.9743516 -0.18325038 0.13060677
vn -0.9039601 -0.16612348 0.39402944
vn -0.66888195 -0.73986524 -0.07208538
vn -0.5682552 -0.8039864 0.17519121
vn -0.76975316 -0.26453948 0.58094674
vn -0.40586394 -0.8664562 0.29073724
vn -0.6303032 0.49722755 0.5962237
vn -0.29830527 -0.89993536 0.3180098
vn 0.065060705 -0.9885338 0.13626446
vn -0.3688062 -0.50487024 0.78044087
vn -0.54391205 -0.18008357 0.81959116
vn -0.24666889 -0.5441789 0.8018877
vn -0.13371418 -0.040112916 0.99020785
vn -0.4437824 0.0931245 0.89128286
vn 0.17954516 -0.8259563 0.5343778
vn -0.15615211 0.22687718 0.96132374
vn -0.41401976 0.7544381 0.5093238
vn -0.16592325 0.3915252 0.90508425
vn 0.3363098 -0.9397937 0.060692124
vn -0.18234898 -0.978784 -0.09343768
vn -0.16066672 -0.57741743 0.8004845
vn -0.21750525 0.9511113 0.2192684
vn 0.059214495 0.97333187 0.22162746
vn -0.17577858 0.9796871 0.09651494
vn 0.23081948 -0.66773164 0.70771235
vn 0.083156474 -0.030656187 0.99606484
vn 0.18398547 0.23936394 0.95333844
vn 0.6273091 0.21662246 0.7480361
vn 0.21472336 0.3613034 0.9073884
vn 0.516592 0.65151244 0.5555755
vn 0.551522 0.3421682 0.7607525
vn 0.6977004 0.36656022 0.61550605
vn 0.34058797 -0.8170663 0.46519083
vn 0.46323887 -0.3454761 0.8161226
vn 0.6133507 -0.40959594 0.6753014
vn 0.7642773 -0.62892246 0.14260735
vn 0.7916745 -0.4694787 0.39094922
vn 0.88275874 -0.038274072 0.468265
vn 0.69231975 0.36556274 0.62213933
vn 0.5469252 -0.7988451 -0.25043818
vn 0.89298695 -0.31278318 0.32363716
vn 0.71413624 0.16570382 0.68011147
vn 0.83089715 -0.5513408 -0.07505493
vn 0.6003941 0.37329367 0.7072332
vn 0.80685437 0.20874318 0.5526412
vn 0.9328632 0.07138386 0.35308722
vn 0.8875648 -0.46011713 -0.022827629
vn 0.7573409 -0.53315014 -0.3770751
vn 0.629847 -0.25160307 -0.73483926
vn 0.36799654 -0.8563455 -0.36228558
vn 0.99821496 -0.005801841 -0.05944135
vn 0.9593186 0.28154635 -0.020965373
vn 0.19452807 -0.78503406 -0.58811593
vn -0.44773307 -0.8068144 -0.38546818
vn -0.16575477 -0.5703334 -0.8045155
vn 0.14933895 -0.21118169 -0.9659711
vn 0.27819595 -0.34876755 -0.8949682
vn 0.1748168 -0.19476697 -0.965145
vn 0.07777137 -0.15579452 -0.9847231
vn 0.17301564 -0.18283314 -0.9678004
vn 0.37601453 0.13155836 -0.917227
vn 0.0928814 -0.025223603 -0.9953576
vn 0.062125884 0.49800318 -0.8649469
vn -0.33174565 0.18115552 -0.92581177
vn -0.20382561 0.8283227 -0.52185875
vn 0.16113164 0.6266891 -0.76242864
vn 0.06861875 0.88558775 -0.45937526
vn 0.12941585 0.95750976 -0.25773355
vn -0.14283027 0.98961896 -0.015936185
vn 0.3898694 0.6948201 -0.60434014
vn -0.103161566 0.99427694 0.027766693
vn -0.112869665 0.9844114 0.13488714
vn -0.17577858 0.9796871 0.09651494
vn 0.39730918 0.91232115 0.09907252
vn 0.3467268 0.8566702 0.38196433
vn 0.4601379 0.46090034 0.7588439
vn 0.73978734 0.46525618 0.48605695
vn 0.7218598 0.6827533 -0.112987906
vn 0.8277736 0.32571128 -0.45684016
vn 0.676857 0.024669634 -0.735701
vn 0.8011824 -0.03856795 -0.597176
g rock_square_0
f 3/3/3 2/2/2 1/1/1
f 4/4/4 1/1/1 2/2/2
f 4/4/4 2/2/2 5/5/5
f 2/2/2 6/6/6 5/5/5
f 7/7/7 5/5/5 6/6/6
f 7/7/7 8/8/8 5/5/5
f 8/8/8 9/9/9 5/5/5
f 5/5/5 10/10/10 4/4/4
f 9/9/9 10/10/10 5/5/5
f 4/4/4 10/10/10 11/11/11
f 1/1/1 4/4/4 12/12/12
f 4/4/4 11/11/11 12/12/12
f 12/12/12 13/13/13 1/1/1
f 1/1/1 13/13/13 14/14/14
f 15/15/15 13/13/13 12/12/12
f 11/11/11 15/15/15 12/12/12
f 16/16/16 14/14/14 13/13/13
f 16/16/16 13/13/13 15/15/15
f 17/17/17 9/9/9 8/8/8
f 8/8/8 18/18/18 17/17/17
f 19/19/19 11/11/11 10/10/10
f 9/9/9 19/19/19 10/10/10
f 19/19/19 20/20/20 11/11/11
f 20/20/20 19/19/19 9/9/9
f 15/15/15 11/11/11 21/21/21
f 21/21/21 16/16/16 15/15/15
f 22/22/22 14/14/14 16/16/16
f 23/23/23 14/14/14 22/22/22
f 16/16/16 24/24/24 22/22/22
f 24/24/24 25/25/25 22/22/22
f 16/16/16 26/26/26 24/24/24
f 26/26/26 16/16/16 21/21/21
f 27/27/27 26/26/26 21/21/21
f 24/24/24 26/26/26 28/28/28
f 28/28/28 25/25/25 24/24/24
f 27/27/27 28/28/28 26/26/26
f 21/21/21 11/11/11 29/29/29
f 11/11/11 20/20/20 29/29/29
f 29/29/29 30/30/30 21/21/21
f 30/30/30 27/27/27 21/21/21
f 20/20/20 30/30/30 29/29/29
f 28/28/28 31/31/31 25/25/25
f 31/31/31 28/28/28 27/27/27
f 30/30/30 32/32/32 27/27/27
f 32/32/32 30/30/30 20/20/20
f 32/32/32 33/33/33 27/27/27
f 33/33/33 34/34/34 27/27/27
f 34/34/34 31/31/31 27/27/27
f 31/31/31 35/35/35 25/25/25
f 36/36/36 25/25/25 35/35/35
f 37/37/37 32/32/32 20/20/20
f 33/33/33 32/32/32 37/37/37
f 34/34/34 38/38/38 31/31/31
f 35/35/35 31/31/31 38/38/38
f 37/37/37 20/20/20 39/39/39
f 9/9/9 39/39/39 20/20/20
f 37/37/37 39/39/39 40/40/40
f 37/37/37 40/40/40 33/33/33
f 9/9/9 41/41/41 39/39/39
f 39/39/39 41/41/41 40/40/40
f 41/41/41 9/9/9 17/17/17
f 17/17/17 42/42/42 41/41/41
f 40/40/40 41/41/41 42/42/42
f 18/18/18 42/42/42 17/17/17
f 40/40/40 42/42/42 43/43/43
f 40/40/40 43/43/43 33/33/33
f 42/42/42 18/18/18 44/44/44
f 43/43/43 42/42/42 44/44/44
f 45/45/45 34/34/34 33/33/33
f 34/34/34 45/45/45 38/38/38
f 44/44/44 18/18/18 46/46/46
f 18/18/18 47/47/47 46/46/46
f 44/44/44 48/48/48 43/43/43
f 43/43/43 49/49/49 33/33/33
f 49/49/49 43/43/43 48/48/48
f 48/48/48 44/44/44 50/50/50
f 50/50/50 44/44/44 46/46/46
f 48/48/48 50/50/50 49/49/49
f 50/50/50 51/51/51 49/49/49
f 49/49/49 52/52/52 33/33/33
f 52/52/52 45/45/45 33/33/33
f 51/51/51 52/52/52 49/49/49
f 46/46/46 47/47/47 53/53/53
f 53/53/53 50/50/50 46/46/46
f 45/45/45 52/52/52 54/54/54
f 54/54/54 52/52/52 51/51/51
f 55/55/55 45/45/45 54/54/54
f 45/45/45 55/55/55 38/38/38
f 54/54/54 56/56/56 55/55/55
f 55/55/55 56/56/56 38/38/38
f 51/51/51 56/56/56 54/54/54
f 53/53/53 47/47/47 57/57/57
f 58/58/58 57/57/57 47/47/47
f 59/59/59 50/50/50 53/53/53
f 51/51/51 50/50/50 59/59/59
f 60/60/60 38/38/38 56/56/56
f 38/38/38 60/60/60 35/35/35
f 61/61/61 35/35/35 60/60/60
f 35/35/35 61/61/61 62/62/62
f 53/53/53 63/63/63 59/59/59
f 59/59/59 64/64/64 51/51/51
f 64/64/64 59/59/59 63/63/63
f 51/51/51 65/65/65 56/56/56
f 65/65/65 51/51/51 64/64/64
f 64/64/64 66/66/66 65/65/65
f 56/56/56 67/67/67 60/60/60
f 67/67/67 56/56/56 65/65/65
f 68/68/68 60/60/60 67/67/67
f 61/61/61 60/60/60 68/68/68
f 69/69/69 67/67/67 65/65/65
f 68/68/68 67/67/67 69/69/69
f 65/65/65 66/66/66 69/69/69
f 70/70/70 68/68/68 69/69/69
f 68/68/68 70/70/70 61/61/61
f 69/69/69 66/66/66 70/70/70
f 71/71/71 63/63/63 53/53/53
f 53/53/53 57/57/57 71/71/71
f 64/64/64 63/63/63 72/72/72
f 64/64/64 72/72/72 66/66/66
f 63/63/63 73/73/73 72/72/72
f 73/73/73 63/63/63 71/71/71
f 66/66/66 72/72/72 73/73/73
f 57/57/57 74/74/74 71/71/71
f 73/73/73 71/71/71 75/75/75
f 71/71/71 74/74/74 75/75/75
f 73/73/73 75/75/75 76/76/76
f 76/76/76 66/66/66 73/73/73
f 75/75/75 74/74/74 76/76/76
f 70/70/70 66/66/66 77/77/77
f 66/66/66 76/76/76 77/77/77
f 78/78/78 74/74/74 57/57/57
f 57/57/57 58/58/58 78/78/78
f 74/74/74 79/79/79 76/76/76
f 80/80/80 77/77/77 76/76/76
f 76/76/76 79/79/79 80/80/80
f 78/78/78 81/81/81 74/74/74
f 81/81/81 79/79/79 74/74/74
f 70/70/70 77/77/77 82/82/82
f 83/83/83 77/77/77 80/80/80
f 83/83/83 82/82/82 77/77/77
f 80/80/80 79/79/79 84/84/84
f 83/83/83 80/80/80 84/84/84
f 85/85/85 79/79/79 81/81/81
f 84/84/84 79/79/79 85/85/85
f 81/81/81 78/78/78 86/86/86
f 86/86/86 85/85/85 81/81/81
f 86/86/86 87/87/87 85/85/85
f 88/88/88 78/78/78 58/58/58
f 78/78/78 88/88/88 86/86/86
f 85/85/85 89/89/89 84/84/84
f 85/85/85 87/87/87 89/89/89
f 90/90/90 83/83/83 84/84/84
f 84/84/84 89/89/89 90/90/90
f 91/91/91 88/88/88 58/58/58
f 58/58/58 92/92/92 91/91/91
f 92/92/92 93/93/93 91/91/91
f 91/91/91 93/93/93 94/94/94
f 95/95/95 86/86/86 88/88/88
f 91/91/91 95/95/95 88/88/88
f 95/95/95 91/91/91 94/94/94
f 86/86/86 95/95/95 87/87/87
f 96/96/96 95/95/95 94/94/94
f 96/96/96 94/94/94 97/97/97
f 98/98/98 95/95/95 96/96/96
f 97/97/97 98/98/98 96/96/96
f 87/87/87 95/95/95 98/98/98
f 99/99/99 87/87/87 98/98/98
f 97/97/97 100/100/100 98/98/98
f 98/98/98 100/100/100 99/99/99
f 100/100/100 101/101/101 99/99/99
f 102/102/102 101/101/101 100/100/100
f 101/101/101 102/102/102 103/103/103
f 104/104/104 101/101/101 103/103/103
f 101/101/101 104/104/104 99/99/99
f 105/105/105 104/104/104 103/103/103
f 106/106/106 104/104/104 105/105/105
f 106/106/106 105/105/105 107/107/107
f 104/104/104 108/108/108 99/99/99
f 104/104/104 106/106/106 108/108/108
f 107/107/107 109/109/109 106/106/106
f 109/109/109 107/107/107 110/110/110
f 111/111/111 109/109/109 110/110/110
f 109/109/109 112/112/112 106/106/106
f 112/112/112 108/108/108 106/106/106
f 111/111/111 113/113/113 109/109/109
f 109/109/109 113/113/113 112/112/112
f 113/113/113 111/111/111 61/61/61
f 61/61/61 114/114/114 113/113/113
f 70/70/70 114/114/114 61/61/61
f 70/70/70 82/82/82 114/114/114
f 114/114/114 82/82/82 113/113/113
f 82/82/82 115/115/115 113/113/113
f 115/115/115 112/112/112 113/113/113
f 83/83/83 115/115/115 82/82/82
f 115/115/115 83/83/83 90/90/90
f 112/112/112 115/115/115 116/116/116
f 112/112/112 116/116/116 108/108/108
f 115/115/115 90/90/90 116/116/116
f 117/117/117 108/108/108 116/116/116
f 117/117/117 116/116/116 90/90/90
f 117/117/117 99/99/99 108/108/108
f 89/89/89 117/117/117 90/90/90
f 118/118/118 99/99/99 117/117/117
f 87/87/87 99/99/99 118/118/118
f 87/87/87 119/119/119 89/89/89
f 89/89/89 119/119/119 117/117/117
f 117/117/117 119/119/119 118/118/118
f 119/119/119 87/87/87 118/118/118
