g rock_tall
v 0.0012483597 -0.8082839 -0.29712808
v -0.49130964 -0.698948 -0.109009385
v -0.17659259 -0.799178 0.08515487
v -0.6394756 -0.57028097 -0.35254604
v -0.10221958 -0.7147228 -0.47759044
v 0.19179939 -0.6731069 -0.46755323
v 0.1823864 -0.81074584 -0.27186716
v 0.40164065 -0.71437377 -0.39046416
v 0.41718218 -0.5641159 -0.5419261
v 0.6278243 -0.4238159 -0.4421223
v 0.63354725 -0.2764919 -0.5334873
v 0.42102337 -0.10885886 -0.683779
v 0.71879554 0.0039600716 -0.4400921
v 0.28771544 -0.4929938 -0.613357
v -0.10828471 -0.6314059 -0.5992842
v -0.25034857 -0.56561494 -0.56547004
v 0.40024447 0.19718306 -0.6417352
v 0.6624474 0.29759806 -0.39061087
v 0.3742752 0.51307106 -0.586524
v 0.6235163 0.45094305 -0.41588488
v 0.55223227 0.870034 -0.40019497
v 0.2541294 1.1822561 -0.47996715
v 0.3859274 1.214099 -0.3804279
v 0.50024223 1.151093 -0.28678992
v 0.22371028 1.515897 -0.31480762
v 0.12127733 1.458833 -0.42081574
v -0.17377567 1.0412261 -0.5016952
v 0.1574843 1.591094 -0.26716372
v -0.12210941 1.459677 -0.38887596
v -0.103509665 1.618701 -0.24118492
v 0.043515444 1.678467 -0.04710862
v 0.19718432 0.5383741 -0.6216323
v 0.18921924 0.79627395 -0.5741029
v 0.0043923855 0.8983769 -0.5327938
v 0.20428634 0.1401591 -0.654931
v -0.04614663 0.057743106 -0.68448913
v -0.34037063 0.732467 -0.5083693
v 0.13933039 -0.35188988 -0.7070363
v 0.037944317 -0.5041519 -0.686549
v -0.064089775 -0.32035488 -0.71204406
v -0.48638365 -0.1987619 -0.5962813
v -0.54564166 -0.51191694 -0.4802981
v -0.7425546 -0.28162295 -0.3367191
v -0.5596203 -0.032577906 -0.56216395
v -0.47302246 0.2726171 -0.55281
v -0.7176675 -0.482938 -0.055363502
v -0.7406647 0.01591706 -0.395401
v -0.6840327 0.30859604 -0.506421
v -0.5481686 0.71930504 -0.4661468
v -0.5193286 0.992401 -0.40057188
v -0.6715987 0.5955471 -0.4349569
v -0.6353376 -0.653906 -0.04725753
v -0.36382365 -0.741705 0.14449106
v -0.17659259 -0.799178 0.08515487
v -0.0061206818 -0.831798 0.16278492
v -0.72945064 0.36048105 -0.4021789
v -0.66772336 -0.48373604 0.2687637
v -0.43927646 1.4095739 -0.32954884
v -0.5592575 1.2588722 -0.2845619
v -0.2933466 1.392753 -0.39482284
v -0.24594545 1.5081048 -0.24454185
v -0.49851966 1.463311 0.053499214
v -0.5858176 0.938373 -0.12630019
v -0.6227753 0.603408 0.109670244
v -0.5495298 1.0280212 0.19228213
v -0.6745093 0.052496996 -0.04164409
v -0.6702647 -0.13804601 0.1375265
v -0.6380656 0.31044894 0.30571297
v -0.6799617 -0.385372 0.3055157
v -0.62431645 -0.44125503 0.49242488
v -0.5728786 0.75118697 0.58344996
v -0.6601452 -0.15814109 0.6138379
v -0.5921657 0.47479087 0.677219
v -0.4472971 0.9295799 0.6496428
v -0.5253687 1.1332439 0.46642298
v -0.50544477 1.3682902 0.2783353
v -0.3728571 1.416751 0.43840122
v -0.27183962 1.5761471 0.27538824
v -0.21714568 1.6218991 0.1375294
v -0.047789335 1.6956283 0.21882728
v 0.043515444 1.678467 -0.04710862
v 0.13684034 1.6751591 0.12413504
v -0.12967467 1.6615009 0.27366877
v -0.20666933 1.4579841 0.4660089
v -0.073106766 1.589626 0.28168514
v -0.23466158 1.3480967 0.5723703
v 0.066657305 1.5979911 0.20065215
v -0.17639971 1.4308681 0.45598507
v -0.0889771 1.4793879 0.45727775
v 0.117889404 1.5422949 0.3637803
v -0.12777972 1.2953268 0.58877015
v 0.019598246 1.1904249 0.6029431
v -0.22939372 1.0662699 0.61703485
v 0.30044723 1.5439723 0.12594604
v 0.31171438 1.5993938 0.0810752
v 0.44933128 1.3459339 0.064715356
v 0.25953123 1.4895152 0.31620812
v 0.33098936 1.577045 -0.07086777
v 0.1574843 1.591094 -0.26716372
v 0.043515444 1.678467 -0.04710862
v 0.22371028 1.515897 -0.31480762
v 0.50024223 1.151093 -0.28678992
v 0.48440123 1.324073 -0.09336999
v 0.5676725 1.07702 -0.20679624
v 0.55223227 0.870034 -0.40019497
v 0.3153393 1.3958209 0.38794804
v 0.5566523 1.123221 -0.078947134
v 0.6752633 0.37986603 -0.30999607
v 0.6235163 0.45094305 -0.41588488
v 0.6624474 0.29759806 -0.39061087
v 0.67990744 0.29873002 -0.09007498
v 0.60561836 0.18962896 0.15014103
v 0.6838583 0.13026202 -0.101696
v 0.71879554 0.0039600716 -0.4400921
v 0.74255455 -0.17605792 -0.29656842
v 0.63354725 -0.2764919 -0.5334873
v 0.6278243 -0.4238159 -0.4421223
v 0.5067222 1.1156622 0.037720855
v 0.48512244 0.8587238 0.51272786
v 0.46818423 1.3329432 0.18581602
v 0.46436834 1.1568788 0.4141497
v 0.3501694 1.1691378 0.5025658
v 0.19136928 1.0779469 0.60624903
v -0.05286479 0.648301 0.6116475
v 0.37826324 0.7265209 0.6133913
v 0.37116027 0.27484688 0.630378
v 0.5564892 0.2131209 0.4536288
v 0.6164243 -0.14168306 0.40597385
v -0.18664764 0.800044 0.6231631
v -0.27974558 0.928808 0.65710205
v -0.21842265 0.6743299 0.690193
v -0.43326068 0.13070588 0.709888
v -0.009877682 0.3838419 0.71204406
v 0.64482534 -0.120308 0.13745473
v -0.46761367 -0.3156121 0.6654304
v -0.4003284 -0.5753161 0.5635189
v -0.1459217 -0.47327006 0.6653918
v -0.23403168 -0.70179504 0.5244366
v 0.13133836 0.4321918 0.620966
v 0.047077417 0.055635884 0.7085845
v 0.3007543 -0.37225908 0.6341518
v 0.13034034 -0.62230194 0.5738994
v 0.13911533 -0.49997717 0.64982784
v 0.33428428 -0.66660506 0.48565853
v 0.37861443 -0.23341206 0.6334185
v 0.29367423 -0.832821 0.14350997
v 0.6211213 -0.43656394 0.3141748
v 0.06349921 -0.8257 -0.019652268
v -0.17659259 -0.799178 0.08515487
v 0.0012483597 -0.8082839 -0.29712808
v 0.1823864 -0.81074584 -0.27186716
v 0.57695854 -0.6036581 0.2827016
v 0.42995334 -0.80753994 0.020554883
v 0.62126243 -0.62647206 0.1467389
v 0.71637046 -0.396322 0.03937595
v 0.51799226 -0.723646 -0.21846543
v 0.40164065 -0.71437377 -0.39046416
v 0.6474836 -0.5965579 -0.18805417
v 0.6923406 -0.552875 -0.054720495
v 0.6995803 -0.08256296 -0.037312288
vt 0.45334595 0.1716973
vt 0.41317084 0.23313898
vt 0.45313054 0.28630412
vt 0.37673312 0.20532398
vt 0.41831028 0.15582453
vt 0.4216827 0.11380044
vt 0.45820287 0.13196315
vt 0.43451396 0.08175058
vt 0.396982 0.07279868
vt 0.3798673 0.033189252
vt 0.34572288 0.030355498
vt 0.31160524 0.058235794
vt 0.28656745 0.008035213
vt 0.38221052 0.08721856
vt 0.39675802 0.14300416
vt 0.3849731 0.1555737
vt 0.25436413 0.058345675
vt 0.22587636 0.015065491
vt 0.195548 0.068448246
vt 0.19630003 0.027843118
vt 0.11684171 0.070081055
vt 0.08388028 0.13588989
vt 0.0665823 0.12343997
vt 0.061993036 0.098540306
vt 0.029982924 0.18729973
vt 0.05279973 0.18690008
vt 0.13163048 0.16584182
vt 0.025020719 0.22038966
vt 0.07155675 0.21122563
vt 0.050926 0.25041342
vt 0.03924346 0.30346173
vt 0.19789839 0.0924913
vt 0.1548108 0.11057371
vt 0.1448094 0.13695109
vt 0.26668033 0.08121312
vt 0.28327042 0.10904792
vt 0.18390945 0.16057763
vt 0.35216123 0.09832154
vt 0.37458563 0.11742038
vt 0.3453018 0.12027083
vt 0.3253099 0.1623907
vt 0.36836693 0.18542157
vt 0.33630276 0.20245421
vt 0.3017818 0.16812383
vt 0.25685585 0.159657
vt 0.36635718 0.23356108
vt 0.2964507 0.19373994
vt 0.2564964 0.18128622
vt 0.1959174 0.18192226
vt 0.16117784 0.19703963
vt 0.21738714 0.1896942
vt 0.39323077 0.23780142
vt 0.42662176 0.27329347
vt 0.45313054 0.28630412
vt 0.45073667 0.32690296
vt 0.2502844 0.19293594
vt 0.3666554 0.26562747
vt 0.10554421 0.22309327
vt 0.1323019 0.22145134
vt 0.09557763 0.21249348
vt 0.075733066 0.23815763
vt 0.11575839 0.2630763
vt 0.1771658 0.22951022
vt 0.22368118 0.24757183
vt 0.1729025 0.26467326
vt 0.2937512 0.23000644
vt 0.31987116 0.24898341
vt 0.2626016 0.26503322
vt 0.35255802 0.2668172
vt 0.3558308 0.2868776
vt 0.2133584 0.29985753
vt 0.31981266 0.2950949
vt 0.24639562 0.30543423
vt 0.19285026 0.31501272
vt 0.1665718 0.29562965
vt 0.1336331 0.28291297
vt 0.12950161 0.3049828
vt 0.09814936 0.30061513
vt 0.08335295 0.29051387
vt 0.06990731 0.31735724
vt 0.03924346 0.30346173
vt 0.057643473 0.32974923
vt 0.08301252 0.31302798
vt 0.119021624 0.32002458
vt 0.08660436 0.32357883
vt 0.13794261 0.3254484
vt 0.07233292 0.33489764
vt 0.11902022 0.32445934
vt 0.11233884 0.3326114
vt 0.09356767 0.3495511
vt 0.141348 0.3377624
vt 0.14983582 0.3564892
vt 0.17157432 0.33408692
vt 0.070421994 0.36992562
vt 0.06096089 0.36553133
vt 0.0865953 0.4121332
vt 0.09329313 0.36840358
vt 0.04614383 0.37696105
vt 0.012553871 0.35835683
vt 0.03924346 0.30346173
vt 0.013507068 0.38602453
vt 0.07924062 0.47295886
vt 0.07797474 0.42944193
vt 0.10560411 0.47629172
vt 0.13590413 0.51457757
vt 0.108532846 0.37900144
vt 0.1074962 0.45935932
vt 0.23749846 0.52962786
vt 0.21786493 0.540287
vt 0.25641257 0.5426218
vt 0.25606817 0.5049695
vt 0.27717704 0.47871572
vt 0.29014415 0.5068152
vt 0.32969117 0.5440868
vt 0.3588096 0.5166601
vt 0.39686698 0.53615546
vt 0.41842425 0.51023215
vt 0.11566216 0.44610667
vt 0.18153334 0.41611108
vt 0.10077703 0.40881032
vt 0.13727027 0.40632284
vt 0.14183491 0.39145148
vt 0.16032171 0.37755302
vt 0.21947119 0.36344376
vt 0.20351946 0.4045843
vt 0.26714253 0.41124114
vt 0.27548438 0.44029006
vt 0.3260051 0.44069967
vt 0.20291147 0.34593934
vt 0.19005436 0.33213797
vt 0.2201727 0.34364942
vt 0.2861453 0.3220493
vt 0.25468186 0.3672949
vt 0.32868278 0.47034976
vt 0.3411012 0.31131393
vt 0.375826 0.30792293
vt 0.36416942 0.3396712
vt 0.39605194 0.31878534
vt 0.24744523 0.38542446
vt 0.29698113 0.36866295
vt 0.35135123 0.38953778
vt 0.38837472 0.36313355
vt 0.36904016 0.36854133
vt 0.39361563 0.38681808
vt 0.3334288 0.40141758
vt 0.44076312 0.37871742
vt 0.36948496 0.43291473
vt 0.47140893 0.34921774
vt 0.45313054 0.28630412
vt 0.51414865 0.36717674
vt 0.49465078 0.3946458
vt 0.39395672 0.42140526
vt 0.4427271 0.40716994
vt 0.40368477 0.43229127
vt 0.37585974 0.4640693
vt 0.4506696 0.44477153
vt 0.4779162 0.4513367
vt 0.42329794 0.46499398
vt 0.40505314 0.4590066
vt 0.32825655 0.4919071
vn -0.15831791 -0.9533338 -0.2570802
vn -0.3048523 -0.93329763 -0.18979084
vn -0.23281454 -0.9715963 -0.042403534
vn -0.6274852 -0.6828789 -0.374084
vn -0.19513354 -0.87525403 -0.44255313
vn 0.13727841 -0.75271577 -0.6438739
vn 0.10930169 -0.96091056 -0.2543699
vn 0.397187 -0.7724027 -0.49561724
vn 0.40517944 -0.50023925 -0.76523864
vn 0.81152374 -0.39937276 -0.42653337
vn 0.6496553 -0.18083166 -0.73840904
vn 0.3320024 0.014319034 -0.94316983
vn 0.8671952 0.1440469 -0.47667912
vn 0.26863545 -0.44193083 -0.85588086
vn -0.11332194 -0.6154734 -0.77996826
vn -0.34462845 -0.46322975 -0.81648606
vn 0.4293147 0.16762988 -0.88746214
vn 0.83703625 0.18603852 -0.5145483
vn 0.4648475 0.17745759 -0.86742467
vn 0.71861976 0.11754364 -0.685397
vn 0.7089989 0.21956825 -0.6701569
vn 0.23447973 0.26134887 -0.9363311
vn 0.59622854 0.40337238 -0.69411975
vn 0.76507366 0.43616953 -0.47372818
vn 0.63497806 0.5453984 -0.54712296
vn 0.06390367 0.40660337 -0.9113672
vn -0.16777404 0.1897031 -0.9674009
vn 0.19653335 0.8719731 -0.44837204
vn -0.14118898 0.457393 -0.87798476
vn -0.2773895 0.8667572 -0.41447183
vn 0.04391523 0.9820796 -0.18327886
vn -0.0572516 0.17786841 -0.9823874
vn 0.08533166 0.2037384 -0.97529954
vn -0.09894989 0.17433883 -0.9797014
vn 0.056052677 0.09667838 -0.993736
vn -0.11955786 0.12873602 -0.9844455
vn -0.18717471 0.17320427 -0.96693635
vn 0.13982481 -0.07914588 -0.98700804
vn 0.045184657 -0.46424466 -0.8845537
vn -0.20363013 -0.06516422 -0.9768769
vn -0.40983683 -0.0923657 -0.9074703
vn -0.5035761 -0.35138765 -0.78926414
vn -0.93054324 -0.13191457 -0.34159598
vn -0.4392826 -0.0016919367 -0.8983474
vn -0.21866667 0.1345852 -0.96647394
vn -0.9891333 -0.13235776 0.064006224
vn -0.98339593 -0.018836856 -0.18049294
vn -0.49582973 0.08349362 -0.86439675
vn -0.27848017 0.20411026 -0.93850297
vn -0.38391075 0.23353395 -0.8933502
vn -0.96164465 0.23286809 -0.1449549
vn -0.6533566 -0.74900424 0.11008071
vn -0.400092 -0.8937545 0.20280349
vn -0.23281454 -0.9715963 -0.042403534
vn -0.040480234 -0.95944345 0.27897945
vn -0.99248415 0.10300839 0.06606505
vn -0.7008913 -0.65915203 0.27252516
vn -0.5264627 0.5888135 -0.613299
vn -0.95207953 0.2588065 -0.16298422
vn -0.24177094 0.38325405 -0.89143884
vn -0.43092474 0.859471 -0.27497905
vn -0.7714867 0.6361633 -0.010227418
vn -0.98452675 0.14883777 0.09249049
vn -0.98839045 0.122409165 0.09000241
vn -0.98800117 0.14379326 0.05636672
vn -0.98778594 0.06594917 0.14117207
vn -0.9938034 0.06416468 0.090762556
vn -0.99449414 0.08556443 0.060499497
vn -0.99676466 0.006295799 0.08012837
vn -0.6952332 -0.57722396 0.42832616
vn -0.96163857 0.17046024 0.21492928
vn -0.9130143 -0.014793173 0.40765944
vn -0.710168 0.09838004 0.69712466
vn -0.37663567 0.23139867 0.89699507
vn -0.8991391 0.26785415 0.34612584
vn -0.8941466 0.39601105 0.20899063
vn -0.5783519 0.5657234 0.5877636
vn -0.4998462 0.8432538 0.19767855
vn -0.55728406 0.82340324 -0.106965624
vn -0.109507725 0.98561877 0.1286997
vn 0.04391523 0.9820796 -0.18327886
vn 0.32295102 0.93170625 0.16621102
vn -0.18060103 0.84749365 0.499137
vn -0.12429815 0.72661185 0.67571086
vn 0.23197708 0.7338706 0.63845164
vn -0.3241097 0.4274947 0.8439202
vn 0.33314365 0.79357994 0.5091624
vn -0.06895156 0.7945821 0.6032286
vn 0.007066426 0.7026785 0.71147245
vn 0.30965787 0.69062656 0.6535647
vn 0.130535 0.3720187 0.9190009
vn 0.15322301 0.26856017 0.95099854
vn 0.046773147 0.10864382 0.9929798
vn 0.65164685 0.60935074 0.4517168
vn 0.67268384 0.70479673 0.22529504
vn 0.8768509 0.46367645 0.12703061
vn 0.53665686 0.64595115 0.5429056
vn 0.64673233 0.71721613 -0.2594961
vn 0.19653335 0.8719731 -0.44837204
vn 0.04391523 0.9820796 -0.18327886
vn 0.63497806 0.5453984 -0.54712296
vn 0.76507366 0.43616953 -0.47372818
vn 0.8663928 0.47605598 -0.15077916
vn 0.9689352 0.21732244 -0.11804821
vn 0.7089989 0.21956825 -0.6701569
vn 0.4833495 0.61481017 0.62320286
vn 0.95665956 0.18181363 0.2274783
vn 0.9901366 0.1287578 -0.05523463
vn 0.71861976 0.11754364 -0.685397
vn 0.83703625 0.18603852 -0.5145483
vn 0.96860886 0.1160591 0.21983425
vn 0.97261715 0.11702734 0.20079942
vn 0.9849245 0.10952726 0.13389368
vn 0.8671952 0.1440469 -0.47667912
vn 0.9942168 -0.050763946 -0.09463536
vn 0.6496553 -0.18083166 -0.73840904
vn 0.81152374 -0.39937276 -0.42653337
vn 0.9719054 0.13045159 0.19591364
vn 0.94401276 0.13564005 0.30073518
vn 0.88903856 0.4312714 0.15367289
vn 0.91669136 0.23786968 0.321084
vn 0.4508579 0.35411048 0.81934917
vn 0.1583828 0.17323878 0.9720613
vn 0.11453146 0.11118142 0.98717844
vn 0.20433506 0.058890164 0.977128
vn 0.32409757 0.017442107 0.9458629
vn 0.90689695 0.073476985 0.41489652
vn 0.85480416 -0.04931522 0.5166022
vn 0.2158746 0.08160934 0.9730047
vn 0.12504439 0.17055343 0.9773819
vn 0.024236346 0.11623345 0.9929262
vn -0.12179877 -0.034718756 0.99194735
vn 0.19201732 0.09716958 0.9765693
vn 0.9703743 0.09943261 0.22019716
vn -0.22759797 -0.21192548 0.950414
vn -0.45734534 -0.67859906 0.5747509
vn -0.02461318 -0.22215916 0.9746996
vn -0.15407743 -0.85678595 0.4921158
vn 0.28026742 0.11456233 0.95306116
vn 0.082416646 -0.03847289 0.99585503
vn 0.2859949 -0.1482987 0.94668597
vn 0.08292057 -0.7983538 0.5964524
vn 0.1350482 -0.22743762 0.9643827
vn 0.43365127 -0.6748243 0.5971255
vn 0.6114038 -0.13665873 0.7794292
vn 0.1975616 -0.93738157 0.28685394
vn 0.8185707 -0.16343004 0.55066574
vn -0.031939395 -0.9983785 -0.047118858
vn -0.23281454 -0.9715963 -0.042403534
vn -0.15831791 -0.9533338 -0.2570802
vn 0.10930169 -0.96091056 -0.2543699
vn 0.6292352 -0.62258285 0.4652458
vn 0.40784028 -0.91282123 0.020584246
vn 0.78494847 -0.5917354 0.18358909
vn 0.979905 -0.04576447 0.19414367
vn 0.53390175 -0.80010986 -0.27344677
vn 0.397187 -0.7724027 -0.49561724
vn 0.8252274 -0.51820046 -0.2246509
vn 0.94087595 -0.3373807 -0.0304427
vn 0.97201174 0.11705445 0.20369439
g rock_tall_0
f 3/3/3 2/2/2 1/1/1
f 2/2/2 4/4/4 1/1/1
f 5/5/5 1/1/1 4/4/4
f 1/1/1 5/5/5 6/6/6
f 7/7/7 1/1/1 6/6/6
f 6/6/6 8/8/8 7/7/7
f 9/9/9 8/8/8 6/6/6
f 10/10/10 8/8/8 9/9/9
f 11/11/11 10/10/10 9/9/9
f 11/11/11 9/9/9 12/12/12
f 11/11/11 12/12/12 13/13/13
f 9/9/9 6/6/6 14/14/14
f 14/14/14 12/12/12 9/9/9
f 6/6/6 5/5/5 15/15/15
f 6/6/6 15/15/15 14/14/14
f 5/5/5 4/4/4 16/16/16
f 5/5/5 16/16/16 15/15/15
f 13/13/13 12/12/12 17/17/17
f 18/18/18 13/13/13 17/17/17
f 19/19/19 18/18/18 17/17/17
f 19/19/19 20/20/20 18/18/18
f 20/20/20 19/19/19 21/21/21
f 22/22/22 21/21/21 19/19/19
f 23/23/23 21/21/21 22/22/22
f 24/24/24 21/21/21 23/23/23
f 25/25/25 24/24/24 23/23/23
f 25/25/25 23/23/23 22/22/22
f 22/22/22 26/26/26 25/25/25
f 26/26/26 22/22/22 27/27/27
f 26/26/26 28/28/28 25/25/25
f 26/26/26 29/29/29 28/28/28
f 27/27/27 29/29/29 26/26/26
f 29/29/29 30/30/30 28/28/28
f 28/28/28 30/30/30 31/31/31
f 32/32/32 19/19/19 17/17/17
f 33/33/33 22/22/22 19/19/19
f 32/32/32 33/33/33 19/19/19
f 33/33/33 34/34/34 22/22/22
f 22/22/22 34/34/34 27/27/27
f 33/33/33 32/32/32 34/34/34
f 32/32/32 17/17/17 35/35/35
f 32/32/32 35/35/35 36/36/36
f 35/35/35 17/17/17 12/12/12
f 34/34/34 32/32/32 37/37/37
f 27/27/27 34/34/34 37/37/37
f 37/37/37 32/32/32 36/36/36
f 35/35/35 12/12/12 38/38/38
f 38/38/38 36/36/36 35/35/35
f 38/38/38 12/12/12 14/14/14
f 39/39/39 38/38/38 14/14/14
f 14/14/14 15/15/15 39/39/39
f 40/40/40 38/38/38 39/39/39
f 39/39/39 15/15/15 40/40/40
f 36/36/36 38/38/38 40/40/40
f 40/40/40 15/15/15 16/16/16
f 41/41/41 40/40/40 16/16/16
f 40/40/40 41/41/41 36/36/36
f 42/42/42 41/41/41 16/16/16
f 42/42/42 16/16/16 4/4/4
f 43/43/43 41/41/41 42/42/42
f 4/4/4 43/43/43 42/42/42
f 36/36/36 41/41/41 44/44/44
f 41/41/41 43/43/43 44/44/44
f 36/36/36 45/45/45 37/37/37
f 36/36/36 44/44/44 45/45/45
f 4/4/4 46/46/46 43/43/43
f 47/47/47 44/44/44 43/43/43
f 46/46/46 47/47/47 43/43/43
f 44/44/44 48/48/48 45/45/45
f 47/47/47 48/48/48 44/44/44
f 45/45/45 49/49/49 37/37/37
f 48/48/48 49/49/49 45/45/45
f 50/50/50 37/37/37 49/49/49
f 50/50/50 27/27/27 37/37/37
f 49/49/49 48/48/48 51/51/51
f 50/50/50 49/49/49 51/51/51
f 52/52/52 46/46/46 4/4/4
f 2/2/2 52/52/52 4/4/4
f 53/53/53 52/52/52 2/2/2
f 2/2/2 54/54/54 53/53/53
f 53/53/53 54/54/54 55/55/55
f 48/48/48 47/47/47 56/56/56
f 48/48/48 56/56/56 51/51/51
f 46/46/46 52/52/52 57/57/57
f 53/53/53 57/57/57 52/52/52
f 50/50/50 58/58/58 27/27/27
f 51/51/51 59/59/59 50/50/50
f 59/59/59 58/58/58 50/50/50
f 60/60/60 27/27/27 58/58/58
f 27/27/27 60/60/60 29/29/29
f 61/61/61 29/29/29 60/60/60
f 61/61/61 60/60/60 58/58/58
f 61/61/61 30/30/30 29/29/29
f 59/59/59 62/62/62 58/58/58
f 62/62/62 61/61/61 58/58/58
f 59/59/59 51/51/51 63/63/63
f 63/63/63 62/62/62 59/59/59
f 64/64/64 63/63/63 51/51/51
f 64/64/64 51/51/51 56/56/56
f 62/62/62 63/63/63 65/65/65
f 65/65/65 63/63/63 64/64/64
f 66/66/66 64/64/64 56/56/56
f 56/56/56 47/47/47 66/66/66
f 47/47/47 67/67/67 66/66/66
f 47/47/47 46/46/46 67/67/67
f 68/68/68 64/64/64 66/66/66
f 66/66/66 67/67/67 68/68/68
f 69/69/69 67/67/67 46/46/46
f 67/67/67 69/69/69 68/68/68
f 69/69/69 46/46/46 57/57/57
f 70/70/70 69/69/69 57/57/57
f 57/57/57 53/53/53 70/70/70
f 65/65/65 64/64/64 71/71/71
f 71/71/71 64/64/64 68/68/68
f 69/69/69 72/72/72 68/68/68
f 72/72/72 69/69/69 70/70/70
f 68/68/68 73/73/73 71/71/71
f 68/68/68 72/72/72 73/73/73
f 74/74/74 71/71/71 73/73/73
f 75/75/75 65/65/65 71/71/71
f 75/75/75 71/71/71 74/74/74
f 65/65/65 75/75/75 76/76/76
f 65/65/65 76/76/76 62/62/62
f 75/75/75 77/77/77 76/76/76
f 77/77/77 75/75/75 74/74/74
f 78/78/78 62/62/62 76/76/76
f 78/78/78 76/76/76 77/77/77
f 61/61/61 62/62/62 78/78/78
f 78/78/78 79/79/79 61/61/61
f 30/30/30 61/61/61 79/79/79
f 80/80/80 30/30/30 79/79/79
f 80/80/80 81/81/81 30/30/30
f 80/80/80 82/82/82 81/81/81
f 79/79/79 78/78/78 83/83/83
f 80/80/80 79/79/79 83/83/83
f 78/78/78 77/77/77 84/84/84
f 83/83/83 78/78/78 84/84/84
f 83/83/83 85/85/85 80/80/80
f 84/84/84 85/85/85 83/83/83
f 84/84/84 77/77/77 86/86/86
f 74/74/74 86/86/86 77/77/77
f 80/80/80 87/87/87 82/82/82
f 85/85/85 87/87/87 80/80/80
f 88/88/88 84/84/84 86/86/86
f 84/84/84 88/88/88 85/85/85
f 89/89/89 85/85/85 88/88/88
f 88/88/88 86/86/86 89/89/89
f 89/89/89 90/90/90 85/85/85
f 85/85/85 90/90/90 87/87/87
f 89/89/89 86/86/86 91/91/91
f 91/91/91 90/90/90 89/89/89
f 90/90/90 91/91/91 92/92/92
f 91/91/91 86/86/86 93/93/93
f 74/74/74 93/93/93 86/86/86
f 93/93/93 92/92/92 91/91/91
f 87/87/87 90/90/90 94/94/94
f 82/82/82 87/87/87 95/95/95
f 95/95/95 87/87/87 94/94/94
f 95/95/95 94/94/94 96/96/96
f 96/96/96 94/94/94 97/97/97
f 97/97/97 94/94/94 90/90/90
f 90/90/90 92/92/92 97/97/97
f 95/95/95 98/98/98 82/82/82
f 98/98/98 95/95/95 96/96/96
f 98/98/98 99/99/99 82/82/82
f 82/82/82 99/99/99 100/100/100
f 101/101/101 99/99/99 98/98/98
f 98/98/98 102/102/102 101/101/101
f 103/103/103 102/102/102 98/98/98
f 98/98/98 96/96/96 103/103/103
f 104/104/104 102/102/102 103/103/103
f 102/102/102 104/104/104 105/105/105
f 97/97/97 106/106/106 96/96/96
f 106/106/106 97/97/97 92/92/92
f 107/107/107 104/104/104 103/103/103
f 96/96/96 107/107/107 103/103/103
f 105/105/105 104/104/104 108/108/108
f 108/108/108 109/109/109 105/105/105
f 109/109/109 108/108/108 110/110/110
f 104/104/104 111/111/111 108/108/108
f 111/111/111 110/110/110 108/108/108
f 107/107/107 111/111/111 104/104/104
f 112/112/112 111/111/111 107/107/107
f 111/111/111 113/113/113 110/110/110
f 113/113/113 111/111/111 112/112/112
f 113/113/113 114/114/114 110/110/110
f 113/113/113 115/115/115 114/114/114
f 116/116/116 114/114/114 115/115/115
f 116/116/116 115/115/115 117/117/117
f 118/118/118 107/107/107 96/96/96
f 112/112/112 107/107/107 118/118/118
f 112/112/112 118/118/118 119/119/119
f 120/120/120 118/118/118 96/96/96
f 96/96/96 106/106/106 120/120/120
f 120/120/120 121/121/121 118/118/118
f 118/118/118 121/121/121 119/119/119
f 106/106/106 121/121/121 120/120/120
f 106/106/106 122/122/122 121/121/121
f 119/119/119 121/121/121 122/122/122
f 122/122/122 106/106/106 123/123/123
f 122/122/122 123/123/123 119/119/119
f 123/123/123 106/106/106 92/92/92
f 123/123/123 92/92/92 124/124/124
f 119/119/119 123/123/123 125/125/125
f 124/124/124 125/125/125 123/123/123
f 119/119/119 125/125/125 126/126/126
f 125/125/125 124/124/124 126/126/126
f 112/112/112 119/119/119 127/127/127
f 126/126/126 127/127/127 119/119/119
f 127/127/127 128/128/128 112/112/112
f 127/127/127 126/126/126 128/128/128
f 124/124/124 92/92/92 129/129/129
f 92/92/92 93/93/93 129/129/129
f 93/93/93 130/130/130 129/129/129
f 130/130/130 93/93/93 74/74/74
f 129/129/129 130/130/130 131/131/131
f 74/74/74 131/131/131 130/130/130
f 129/129/129 131/131/131 124/124/124
f 74/74/74 73/73/73 131/131/131
f 73/73/73 132/132/132 131/131/131
f 72/72/72 132/132/132 73/73/73
f 124/124/124 131/131/131 133/133/133
f 132/132/132 133/133/133 131/131/131
f 134/134/134 112/112/112 128/128/128
f 134/134/134 113/113/113 112/112/112
f 132/132/132 72/72/72 135/135/135
f 135/135/135 72/72/72 70/70/70
f 136/136/136 135/135/135 70/70/70
f 136/136/136 70/70/70 53/53/53
f 135/135/135 137/137/137 132/132/132
f 137/137/137 135/135/135 136/136/136
f 136/136/136 53/53/53 138/138/138
f 136/136/136 138/138/138 137/137/137
f 138/138/138 53/53/53 55/55/55
f 124/124/124 133/133/133 139/139/139
f 139/139/139 126/126/126 124/124/124
f 133/133/133 132/132/132 140/140/140
f 140/140/140 132/132/132 137/137/137
f 139/139/139 133/133/133 141/141/141
f 139/139/139 141/141/141 126/126/126
f 140/140/140 141/141/141 133/133/133
f 142/142/142 137/137/137 138/138/138
f 142/142/142 138/138/138 55/55/55
f 137/137/137 143/143/143 140/140/140
f 143/143/143 141/141/141 140/140/140
f 137/137/137 142/142/142 143/143/143
f 143/143/143 144/144/144 141/141/141
f 144/144/144 143/143/143 142/142/142
f 141/141/141 145/145/145 126/126/126
f 145/145/145 141/141/141 144/144/144
f 145/145/145 128/128/128 126/126/126
f 145/145/145 144/144/144 128/128/128
f 55/55/55 146/146/146 142/142/142
f 146/146/146 144/144/144 142/142/142
f 144/144/144 147/147/147 128/128/128
f 134/134/134 128/128/128 147/147/147
f 55/55/55 148/148/148 146/146/146
f 148/148/148 55/55/55 149/149/149
f 150/150/150 148/148/148 149/149/149
f 148/148/148 150/150/150 151/151/151
f 152/152/152 144/144/144 146/146/146
f 152/152/152 147/147/147 144/144/144
f 146/146/146 148/148/148 153/153/153
f 148/148/148 151/151/151 153/153/153
f 153/153/153 152/152/152 146/146/146
f 152/152/152 154/154/154 147/147/147
f 154/154/154 152/152/152 153/153/153
f 155/155/155 134/134/134 147/147/147
f 155/155/155 147/147/147 154/154/154
f 151/151/151 156/156/156 153/153/153
f 157/157/157 156/156/156 151/151/151
f 156/156/156 157/157/157 117/117/117
f 153/153/153 156/156/156 158/158/158
f 156/156/156 117/117/117 158/158/158
f 154/154/154 153/153/153 158/158/158
f 115/115/115 158/158/158 117/117/117
f 159/159/159 154/154/154 158/158/158
f 154/154/154 159/159/159 155/155/155
f 158/158/158 115/115/115 159/159/159
f 155/155/155 159/159/159 115/115/115
f 134/134/134 155/155/155 160/160/160
f 115/115/115 160/160/160 155/155/155
f 113/113/113 134/134/134 160/160/160
f 115/115/115 113/113/113 160/160/160
