g root01
v 2.466888 1.1196755 -0.4203102
v 3.1531441 1.085195 0.029586734
v 2.236802 1.0998807 0.3035894
v 2.5875719 0.7752605 -0.95765465
v 3.9147856 1.0916009 0.010492266
v 3.0417821 0.9611479 0.87258464
v 5.2799053 0.24833918 1.5457306
v 2.039007 0.55570096 1.4348092
v 0.78096557 0.77998734 1.5519911
v 3.2543414 0.7587374 -1.0073538
v 2.647319 0.2609732 -1.304086
v 3.2860665 0.2141101 1.5251596
v 4.2070065 0.34941378 -0.547004
v 1.8738962 -0.4351395 1.6083755
v 2.621942 -0.22156058 1.5562115
v 3.0819016 -0.62221 1.3093586
v 5.6061583 0.42967284 1.0115056
v 4.37058 0.7715163 0.13566566
v 5.2009907 0.35187858 -0.57283264
v 4.544195 -0.4489936 -0.65936685
v 5.172283 0.6821723 0.2182151
v 2.4598224 -0.640727 -1.21272
v 3.994376 -1.0937219 -0.2551716
v 3.7461236 -1.0582345 0.9131829
v 4.3938065 -0.31461 1.5401258
v 5.3039656 -0.53973997 1.7493794
v 6.4194574 -0.75158197 1.177982
v 5.7424545 -1.1797785 1.8401321
v 5.118523 -1.9601969 0.99162793
v 5.118523 -1.9601969 0.99162793
v 4.7098618 -1.8614887 0.39340812
v 5.1306467 -1.9882193 -0.019087706
v 3.4744432 -1.2294316 0.33231193
v 6.0892124 0.32047188 0.60798603
v 6.1484613 -2.43562 1.3192899
v 4.544195 -0.4489936 -0.65936685
v 1.7410852 -1.1865747 0.7649863
v 1.4950604 -1.4396672 -0.6463943
v 0.46221992 -0.6218619 1.1830575
v 1.1850793 -0.73471135 -1.6684518
v 0.4010694 -1.4377981 0.2603061
v -0.30644915 -1.0938259 -1.0732096
v 1.7066712 0.87736535 -1.4117107
v 2.5875719 0.7752605 -0.95765465
v -0.4831259 -0.6401631 0.62030923
v 2.1054525 1.6840093 -0.8098252
v 2.466888 1.1196755 -0.4203102
v 2.236802 1.0998807 0.3035894
v 1.0141152 1.7071347 0.74917066
v 1.5039806 1.9922802 -0.7078578
v 0.3003584 1.098996 1.2010207
v -0.5951921 0.9634854 0.95540106
v -1.0009071 -0.074651256 -0.12099193
v 0.15522516 2.2559345 0.9432845
v 1.0141152 1.7071347 0.74917066
v -1.0604678 1.5804324 -0.6640514
v -1.1079098 2.897941 0.24353461
v -0.5752956 3.037578 0.7638678
v 0.4593719 2.998163 0.843534
v -0.6427249 5.0376053 0.8591483
v 0.18713878 -0.0076978556 -1.6777714
v -1.160829 4.3306165 -0.11194189
v 1.2052392 2.9319203 0.23295276
v 1.5039806 1.9922802 -0.7078578
v 0.98221123 0.56482357 -1.8171762
v -0.35844612 3.1623342 -1.0388602
v 1.3749858 1.7840906 -1.4088316
v 0.7197986 1.6559368 -1.6273259
v 1.3038168 2.864107 -0.8091492
v 0.43309307 3.196821 -1.0788422
v 0.33580595 4.6240454 -0.9055318
v 0.8570988 3.5735261 -0.6300972
v 0.89352804 3.9464562 0.41131297
v -0.75698304 6.2216372 -0.62300324
v 0.11249881 5.105586 0.88773626
v -1.0372875 6.4898996 0.5701048
v -0.24936488 7.1405187 0.9466905
v 0.66753864 5.364136 0.3874847
v -1.1180182 7.5256515 -0.025077084
v 0.8362503 4.876182 -0.5370505
v -1.0379779 9.518735 0.56606114
v -0.78811026 10.688963 -0.24215049
v 0.3613506 7.8755875 0.5024406
v -0.35731208 7.4907618 -0.65305763
v -0.45454547 10.44019 0.87732166
v 0.5475626 6.1084013 -0.5395971
v 0.39008224 8.116247 -0.20539379
v 0.15840769 10.008256 0.6023886
v -0.06457186 10.203358 -0.23009583
v -0.4671142 12.040983 0.35646728
v -1.0863805 11.5649 0.36472282
v 6.918131 -2.7519314 0.8365338
v 6.105376 -3.640732 0.9427809
v 6.8383822 -1.2486533 0.53415245
v 5.720203 -3.6784313 0.43546188
v 6.4782085 -0.06652164 0.047561295
v 6.1124125 -0.14666614 -0.60186225
v 6.4893665 -0.6879473 -0.44011104
v 5.638546 -0.424795 -1.045757
v 6.1154923 -2.4156003 -0.49867338
v 6.9390388 -1.8490448 -0.028783377
v 6.617353 -2.1263769 -0.47222865
v 6.8617997 -3.3903465 -0.20894754
v 6.9804316 -3.936607 0.053838298
v 6.3980374 -4.276869 -0.30782577
v 6.2603016 -6.581842 0.3244959
v 7.0503983 -5.441616 -0.10266504
v 6.969258 -4.2207346 0.70264584
v 6.9623094 -5.378663 0.9088008
v 6.264574 -5.752825 0.9925893
v 6.1312723 -7.3784037 1.5198638
v 6.740046 -5.8222775 -0.19187963
v 6.4493637 -7.6935883 0.51909953
v 7.3177886 -6.2911377 0.9173505
v 7.13338 -6.610714 0.31614983
v 6.389448 -7.671146 1.197149
v 6.104273 -6.6288786 1.0671955
v 5.4415483 -7.936374 1.2869229
v 5.7443795 -9.722144 1.6837449
v 5.7581162 -7.7661724 0.5989278
v 5.4765797 -9.047516 1.7107495
v 5.396908 -9.378632 1.0219046
v 6.0336113 -9.229116 1.0952984
v 5.580546 -12.161662 0.884814
v 5.329771 -12.054299 0.9699063
v 5.495915 -12.862222 1.0165943
vt 0 0
vt 0 0
vt 0 0
vt 0 0
vt 0 0
vt 0 0
vt 0 0
vt 0 0
vt 0 0
vt 0 0
vt 0 0
vt 0 0
vt 0 0
vt 0 0
vt 0 0
vt 0 0
vt 0 0
vt 0 0
vt 0 0
vt 0 0
vt 0 0
vt 0 0
vt 0 0
vt 0 0
vt 0 0
vt 0 0
vt 0 0
vt 0 0
vt 0 0
vt 0 0
vt 0 0
vt 0 0
vt 0 0
vt 0 0
vt 0 0
vt 0 0
vt 0 0
vt 0 0
vt 0 0
vt 0 0
vt 0 0
vt 0 0
vt 0 0
vt 0 0
vt 0 0
vt 0 0
vt 0 0
vt 0 0
vt 0 0
vt 0 0
vt 0 0
vt 0 0
vt 0 0
vt 0 0
vt 0 0
vt 0 0
vt 0 0
vt 0 0
vt 0 0
vt 0 0
vt 0 0
vt 0 0
vt 0 0
vt 0 0
vt 0 0
vt 0 0
vt 0 0
vt 0 0
vt 0 0
vt 0 0
vt 0 0
vt 0 0
vt 0 0
vt 0 0
vt 0 0
vt 0 0
vt 0 0
vt 0 0
vt 0 0
vt 0 0
vt 0 0
vt 0 0
vt 0 0
vt 0 0
vt 0 0
vt 0 0
vt 0 0
vt 0 0
vt 0 0
vt 0 0
vt 0 0
vt 0 0
vt 0 0
vt 0 0
vt 0 0
vt 0 0
vt 0 0
vt 0 0
vt 0 0
vt 0 0
vt 0 0
vt 0 0
vt 0 0
vt 0 0
vt 0 0
vt 0 0
vt 0 0
vt 0 0
vt 0 0
vt 0 0
vt 0 0
vt 0 0
vt 0 0
vt 0 0
vt 0 0
vt 0 0
vt 0 0
vt 0 0
vt 0 0
vt 0 0
vt 0 0
vt 0 0
vt 0 0
vt 0 0
vt 0 0
vt 0 0
vn 0.20736597 0.9474234 -0.24369687
vn 0.031200105 0.99720037 -0.06795693
vn 0.031599075 0.94562596 0.32371768
vn 0.05426991 0.8464379 -0.5297149
vn 0.26501146 0.9623886 0.059810482
vn 0.07170889 0.869465 0.48876214
vn 0.24488357 0.6763397 0.6946917
vn 0.11217572 0.6250683 0.7724676
vn -0.08857925 0.27967075 0.95600104
vn 0.32159123 0.58671004 -0.7432028
vn 0.28188464 0.04954771 -0.95816815
vn 0.00074862945 0.34920126 0.9370474
vn 0.33744252 0.46759132 -0.8170011
vn -0.05892859 -0.4090749 0.91059613
vn 0.07916255 -0.06368756 0.99482524
vn 0.15118594 -0.6669401 0.7296121
vn 0.38607112 0.81091183 0.43973973
vn 0.35103455 0.8039479 -0.48004436
vn 0.1168157 0.7013982 -0.70313203
vn 0.27443862 -0.18509498 -0.9436224
vn 0.26055852 0.95752156 -0.12353821
vn 0.3098649 -0.56353736 -0.7657738
vn -0.060771715 -0.7486793 -0.66014093
vn -0.31968254 -0.6110887 0.7241366
vn -0.1840025 -0.25425878 0.9494712
vn -0.28552052 -0.20701984 0.9357461
vn 0.7518175 0.25548178 0.60786456
vn 0.18257304 -0.11015638 0.97700197
vn -0.39520895 -0.57898474 0.71315247
vn -0.7453432 -0.40734714 0.5277612
vn -0.49688232 -0.8675421 -0.021878846
vn -0.6637976 -0.51154685 -0.54561216
vn -0.039339695 -0.99921143 0.00536977
vn 0.6690851 0.7156233 0.20052066
vn 0.11959995 -0.23267293 0.9651731
vn -0.32311144 -0.27115157 -0.9066839
vn 0.015837736 -0.9049644 0.4251924
vn 0.11135017 -0.9550937 -0.2745855
vn -0.30448732 -0.44257784 0.84345263
vn 0.077715635 -0.5122567 -0.855309
vn -0.256347 -0.9411884 0.22011504
vn -0.59927833 -0.62010014 -0.5063016
vn 0.3829036 0.20273015 -0.9012687
vn 0.54918504 0.47931772 -0.6845804
vn -0.6967243 -0.50208 0.5123385
vn 0.56340015 0.79907066 -0.20991959
vn 0.80758774 0.58218974 0.094112635
vn 0.54181856 0.7063041 0.4555956
vn 0.4744552 0.63003975 0.61477
vn 0.45869777 0.88836807 0.01996577
vn -0.22297785 0.16756812 0.9603134
vn -0.7163485 -0.059215132 0.6952254
vn -0.96741194 -0.25318244 -0.0035603077
vn 0.00022649544 0.122619316 0.99245375
vn 0.6906036 0.12468347 0.7124048
vn -0.83182883 0.0077384324 -0.55497825
vn -0.93782234 -0.01728732 0.34668487
vn -0.41031244 0.0051173023 0.9119306
vn 0.28894666 0.07038855 0.9547541
vn -0.5123451 -0.051511593 0.85723335
vn -0.49018952 -0.08635988 -0.8673271
vn -0.9621889 0.01880436 -0.27173316
vn 0.8997399 0.18620467 0.39470983
vn 0.98880017 0.14291884 0.042993374
vn 0.13288133 0.03720958 -0.9904332
vn -0.49839824 0.11909349 -0.8587293
vn 0.56798 0.34124148 -0.74896795
vn -0.14595848 0.19929259 -0.9690091
vn 0.79342645 0.45243376 -0.40715873
vn 0.1659663 0.29597715 -0.9406662
vn 0.19794162 0.11186632 -0.9738096
vn 0.84742427 0.37972632 -0.3710526
vn 0.8843227 0.16702808 0.43597588
vn -0.5674687 0.04169218 -0.82233876
vn 0.29984424 0.031750742 0.95345956
vn -0.8172305 0.00525707 0.5762869
vn 0.060674034 0.026817542 0.99779737
vn 0.8989228 0.117635265 0.42201874
vn -0.95243335 0.03168523 -0.3030955
vn 0.95980287 -0.008229834 -0.28055447
vn -0.8849903 0.04061377 0.46383476
vn -0.5134654 0.172508 -0.84059155
vn 0.83442426 0.08519784 0.5444975
vn 0.027385877 0.11608303 -0.9928619
vn -0.041579098 0.1307223 0.9905468
vn 0.47402343 0.17214777 -0.8635201
vn 0.8628272 0.14310984 -0.4848182
vn 0.91423726 0.18748572 0.35919252
vn 0.6283618 0.240083 -0.73994696
vn 0.4815295 0.87092894 0.09804183
vn -0.86503404 0.4346515 0.25058782
vn 0.8469313 -0.03866344 0.5302947
vn -0.30248314 -0.18317002 0.93538904
vn 0.9526855 0.228213 0.20077124
vn -0.94210815 -0.2731062 -0.19453858
vn 0.80093235 0.59011906 -0.101326555
vn 0.52461994 0.64558864 -0.55496764
vn 0.78282905 0.16877651 -0.5989101
vn -0.062123165 -0.057070717 -0.9964355
vn -0.32844055 -0.32340726 -0.88743144
vn 0.9716641 0.10370578 -0.21240097
vn 0.5063764 -0.07200093 -0.8593013
vn 0.55190337 -0.034897715 -0.8331775
vn 0.9979528 0.0371803 -0.05203603
vn -0.5153726 -0.12363824 -0.8480004
vn -0.8436354 -0.06953434 -0.532395
vn 0.90415627 0.049737222 -0.42429662
vn 0.7534731 0.060154356 0.65472114
vn 0.6179155 0.17814767 0.76579624
vn -0.67856556 0.016628044 0.73435163
vn 0.14183255 0.13530779 0.9805995
vn -0.19668339 -0.23416518 -0.95209366
vn 0.6230224 -0.46767113 -0.62699825
vn 0.8183503 -0.017901402 0.5744409
vn 0.76638 -0.42020774 -0.48588794
vn 0.87672865 -0.2861946 0.3865741
vn -0.9396441 0.33852655 0.04968723
vn -0.9361192 0.28105834 0.2113931
vn 0.5916244 -0.21302296 0.7775615
vn -0.59842944 0.0019283036 -0.80117315
vn -0.69097775 0.04045758 0.7217429
vn -0.7513313 -0.016238488 -0.65972537
vn 0.7987938 -0.23888476 -0.55214363
vn 0.910278 -0.119542345 -0.39636275
vn -0.9915331 -0.10110259 0.08148871
vn 0.23081264 -0.34831628 0.908516
g root01_0
f 3/3/3 2/2/2 1/1/1
f 2/2/2 4/4/4 1/1/1
f 2/2/2 5/5/5 4/4/4
f 3/3/3 6/6/6 2/2/2
f 2/2/2 6/6/6 5/5/5
f 5/5/5 6/6/6 7/7/7
f 8/8/8 6/6/6 3/3/3
f 3/3/3 9/9/9 8/8/8
f 10/10/10 4/4/4 5/5/5
f 4/4/4 10/10/10 11/11/11
f 6/6/6 12/12/12 7/7/7
f 12/12/12 6/6/6 8/8/8
f 10/10/10 5/5/5 13/13/13
f 10/10/10 13/13/13 11/11/11
f 14/14/14 8/8/8 9/9/9
f 8/8/8 15/15/15 12/12/12
f 14/14/14 15/15/15 8/8/8
f 12/12/12 15/15/15 16/16/16
f 16/16/16 15/15/15 14/14/14
f 7/7/7 17/17/17 5/5/5
f 5/5/5 18/18/18 13/13/13
f 17/17/17 18/18/18 5/5/5
f 13/13/13 18/18/18 19/19/19
f 20/20/20 11/11/11 13/13/13
f 20/20/20 13/13/13 19/19/19
f 18/18/18 17/17/17 21/21/21
f 19/19/19 18/18/18 21/21/21
f 11/11/11 20/20/20 22/22/22
f 20/20/20 23/23/23 22/22/22
f 24/24/24 12/12/12 16/16/16
f 7/7/7 12/12/12 25/25/25
f 25/25/25 12/12/12 24/24/24
f 26/26/26 7/7/7 25/25/25
f 25/25/25 24/24/24 26/26/26
f 27/27/27 17/17/17 7/7/7
f 7/7/7 26/26/26 28/28/28
f 28/28/28 27/27/27 7/7/7
f 29/29/29 26/26/26 24/24/24
f 28/28/28 26/26/26 30/30/30
f 24/24/24 31/31/31 29/29/29
f 31/31/31 32/32/32 29/29/29
f 23/23/23 32/32/32 31/31/31
f 33/33/33 31/31/31 24/24/24
f 33/33/33 24/24/24 16/16/16
f 23/23/23 31/31/31 33/33/33
f 27/27/27 34/34/34 17/17/17
f 17/17/17 34/34/34 21/21/21
f 30/30/30 35/35/35 28/28/28
f 27/27/27 28/28/28 35/35/35
f 32/32/32 23/23/23 36/36/36
f 23/23/23 33/33/33 22/22/22
f 16/16/16 37/37/37 33/33/33
f 37/37/37 16/16/16 14/14/14
f 22/22/22 33/33/33 38/38/38
f 38/38/38 33/33/33 37/37/37
f 39/39/39 37/37/37 14/14/14
f 39/39/39 14/14/14 9/9/9
f 38/38/38 40/40/40 22/22/22
f 11/11/11 22/22/22 40/40/40
f 41/41/41 38/38/38 37/37/37
f 41/41/41 37/37/37 39/39/39
f 38/38/38 41/41/41 42/42/42
f 42/42/42 40/40/40 38/38/38
f 11/11/11 40/40/40 43/43/43
f 43/43/43 44/44/44 11/11/11
f 45/45/45 41/41/41 39/39/39
f 45/45/45 42/42/42 41/41/41
f 44/44/44 43/43/43 46/46/46
f 44/44/44 46/46/46 47/47/47
f 48/48/48 47/47/47 46/46/46
f 9/9/9 48/48/48 49/49/49
f 49/49/49 48/48/48 46/46/46
f 50/50/50 49/49/49 46/46/46
f 50/50/50 46/46/46 43/43/43
f 49/49/49 51/51/51 9/9/9
f 9/9/9 51/51/51 39/39/39
f 39/39/39 52/52/52 45/45/45
f 51/51/51 52/52/52 39/39/39
f 45/45/45 53/53/53 42/42/42
f 45/45/45 52/52/52 53/53/53
f 54/54/54 52/52/52 51/51/51
f 54/54/54 51/51/51 55/55/55
f 56/56/56 42/42/42 53/53/53
f 53/53/53 52/52/52 57/57/57
f 56/56/56 53/53/53 57/57/57
f 58/58/58 52/52/52 54/54/54
f 57/57/57 52/52/52 58/58/58
f 54/54/54 55/55/55 59/59/59
f 54/54/54 59/59/59 58/58/58
f 60/60/60 57/57/57 58/58/58
f 59/59/59 60/60/60 58/58/58
f 56/56/56 61/61/61 42/42/42
f 42/42/42 61/61/61 40/40/40
f 62/62/62 56/56/56 57/57/57
f 60/60/60 62/62/62 57/57/57
f 55/55/55 63/63/63 59/59/59
f 64/64/64 63/63/63 55/55/55
f 40/40/40 61/61/61 65/65/65
f 40/40/40 65/65/65 43/43/43
f 56/56/56 66/66/66 61/61/61
f 56/56/56 62/62/62 66/66/66
f 43/43/43 67/67/67 64/64/64
f 43/43/43 65/65/65 67/67/67
f 68/68/68 65/65/65 61/61/61
f 68/68/68 61/61/61 66/66/66
f 67/67/67 65/65/65 68/68/68
f 69/69/69 64/64/64 67/67/67
f 64/64/64 69/69/69 63/63/63
f 67/67/67 68/68/68 70/70/70
f 69/69/69 67/67/67 70/70/70
f 66/66/66 70/70/70 68/68/68
f 66/66/66 71/71/71 70/70/70
f 70/70/70 72/72/72 69/69/69
f 63/63/63 69/69/69 72/72/72
f 72/72/72 70/70/70 71/71/71
f 73/73/73 63/63/63 72/72/72
f 72/72/72 71/71/71 73/73/73
f 73/73/73 59/59/59 63/63/63
f 74/74/74 66/66/66 62/62/62
f 66/66/66 74/74/74 71/71/71
f 59/59/59 73/73/73 75/75/75
f 59/59/59 75/75/75 60/60/60
f 62/62/62 60/60/60 76/76/76
f 75/75/75 77/77/77 60/60/60
f 60/60/60 77/77/77 76/76/76
f 78/78/78 75/75/75 73/73/73
f 77/77/77 75/75/75 78/78/78
f 62/62/62 76/76/76 79/79/79
f 79/79/79 74/74/74 62/62/62
f 80/80/80 78/78/78 73/73/73
f 80/80/80 73/73/73 71/71/71
f 79/79/79 76/76/76 81/81/81
f 76/76/76 77/77/77 81/81/81
f 79/79/79 82/82/82 74/74/74
f 79/79/79 81/81/81 82/82/82
f 78/78/78 83/83/83 77/77/77
f 78/78/78 80/80/80 83/83/83
f 71/71/71 74/74/74 84/84/84
f 74/74/74 82/82/82 84/84/84
f 77/77/77 85/85/85 81/81/81
f 83/83/83 85/85/85 77/77/77
f 80/80/80 71/71/71 86/86/86
f 71/71/71 84/84/84 86/86/86
f 87/87/87 80/80/80 86/86/86
f 87/87/87 83/83/83 80/80/80
f 86/86/86 84/84/84 87/87/87
f 87/87/87 88/88/88 83/83/83
f 83/83/83 88/88/88 85/85/85
f 89/89/89 87/87/87 84/84/84
f 87/87/87 89/89/89 88/88/88
f 84/84/84 82/82/82 89/89/89
f 88/88/88 89/89/89 90/90/90
f 85/85/85 88/88/88 90/90/90
f 89/89/89 82/82/82 90/90/90
f 81/81/81 85/85/85 91/91/91
f 91/91/91 85/85/85 90/90/90
f 90/90/90 82/82/82 91/91/91
f 91/91/91 82/82/82 81/81/81
f 92/92/92 27/27/27 35/35/35
f 93/93/93 92/92/92 35/35/35
f 35/35/35 30/30/30 93/93/93
f 94/94/94 27/27/27 92/92/92
f 27/27/27 94/94/94 34/34/34
f 95/95/95 93/93/93 30/30/30
f 95/95/95 30/30/30 32/32/32
f 34/34/34 94/94/94 96/96/96
f 96/96/96 21/21/21 34/34/34
f 96/96/96 97/97/97 21/21/21
f 97/97/97 19/19/19 21/21/21
f 98/98/98 96/96/96 94/94/94
f 96/96/96 98/98/98 97/97/97
f 97/97/97 99/99/99 19/19/19
f 97/97/97 98/98/98 99/99/99
f 19/19/19 99/99/99 36/36/36
f 32/32/32 36/36/36 100/100/100
f 100/100/100 36/36/36 99/99/99
f 100/100/100 95/95/95 32/32/32
f 94/94/94 101/101/101 98/98/98
f 94/94/94 92/92/92 101/101/101
f 99/99/99 98/98/98 102/102/102
f 99/99/99 102/102/102 100/100/100
f 98/98/98 101/101/101 102/102/102
f 103/103/103 100/100/100 102/102/102
f 102/102/102 101/101/101 103/103/103
f 92/92/92 104/104/104 101/101/101
f 103/103/103 101/101/101 104/104/104
f 100/100/100 103/103/103 105/105/105
f 105/105/105 95/95/95 100/100/100
f 95/95/95 105/105/105 106/106/106
f 105/105/105 103/103/103 107/107/107
f 104/104/104 107/107/107 103/103/103
f 108/108/108 104/104/104 92/92/92
f 92/92/92 93/93/93 108/108/108
f 109/109/109 104/104/104 108/108/108
f 108/108/108 93/93/93 109/109/109
f 109/109/109 107/107/107 104/104/104
f 110/110/110 93/93/93 95/95/95
f 95/95/95 106/106/106 110/110/110
f 93/93/93 110/110/110 109/109/109
f 111/111/111 109/109/109 110/110/110
f 106/106/106 105/105/105 112/112/112
f 105/105/105 107/107/107 112/112/112
f 113/113/113 106/106/106 112/112/112
f 109/109/109 114/114/114 107/107/107
f 111/111/111 114/114/114 109/109/109
f 115/115/115 112/112/112 107/107/107
f 114/114/114 115/115/115 107/107/107
f 113/113/113 112/112/112 115/115/115
f 115/115/115 114/114/114 116/116/116
f 116/116/116 114/114/114 111/111/111
f 115/115/115 116/116/116 113/113/113
f 110/110/110 106/106/106 117/117/117
f 111/111/111 110/110/110 117/117/117
f 117/117/117 106/106/106 118/118/118
f 117/117/117 118/118/118 111/111/111
f 119/119/119 116/116/116 111/111/111
f 116/116/116 119/119/119 113/113/113
f 106/106/106 113/113/113 120/120/120
f 106/106/106 120/120/120 118/118/118
f 121/121/121 111/111/111 118/118/118
f 111/111/111 121/121/121 119/119/119
f 118/118/118 120/120/120 122/122/122
f 122/122/122 120/120/120 113/113/113
f 122/122/122 121/121/121 118/118/118
f 113/113/113 119/119/119 123/123/123
f 113/113/113 123/123/123 122/122/122
f 123/123/123 119/119/119 124/124/124
f 124/124/124 122/122/122 123/123/123
f 125/125/125 121/121/121 122/122/122
f 124/124/124 125/125/125 122/122/122
f 119/119/119 121/121/121 126/126/126
f 121/121/121 125/125/125 126/126/126
f 124/124/124 126/126/126 125/125/125
f 126/126/126 124/124/124 119/119/119
