g ruinDoorLock_COL
v -1.524448 1.172293 1.2004329
v -2.1139004 1.5581452 -0.4982447
v 2.1139004 1.5581452 -0.4982447
v 1.524448 1.172293 1.2004329
v -1.2028494 -1.172293 1.2004329
v -1.6679513 -1.5581452 -0.4982447
v -2.1139004 1.5581452 -0.4982447
v 1.2028494 -1.172293 1.2004329
v 2.1139004 1.5581452 -0.4982447
v 1.6679513 -1.5581452 -0.4982447
v -1.6679513 -1.5581452 -0.4982447
v -1.2028494 -1.172293 1.2004329
v 1.2028494 -1.172293 1.2004329
v 1.6679513 -1.5581452 -0.4982447
vt 0.375 0.25
vt 0.375 0.5
vt 0.625 0.5
vt 0.625 0.25
vt 0.375 0
vt 0.125 0
vt 0.125 0.25
vt 0.625 0
vt 0.875 0.25
vt 0.875 0
vt 0.375 0.75
vt 0.375 1
vt 0.625 1
vt 0.625 0.75
vn -0.42761502 0.53222245 0.730674
vn -0.61874145 0.6933735 0.3693132
vn 0.61874145 0.69337344 0.36931324
vn 0.42761505 0.53222245 0.730674
vn -0.4023655 -0.4996857 0.7670829
vn -0.62517637 -0.70526546 0.3342979
vn -0.61874145 0.6933735 0.3693132
vn 0.4023655 -0.49968567 0.76708287
vn 0.61874145 0.69337344 0.36931324
vn 0.6251765 -0.70526546 0.3342979
vn -0.62517637 -0.70526546 0.3342979
vn -0.4023655 -0.4996857 0.7670829
vn 0.4023655 -0.49968567 0.76708287
vn 0.6251765 -0.70526546 0.3342979
g ruinDoorLock_COL_0
f 3/3/3 2/2/2 1/1/1
f 4/4/4 3/3/3 1/1/1
f 4/4/4 1/1/1 5/5/5
f 5/5/5 1/1/1 6/6/6
f 1/1/1 7/7/7 6/6/6
f 8/8/8 4/4/4 5/5/5
f 9/9/9 4/4/4 8/8/8
f 10/10/10 9/9/9 8/8/8
f 13/13/13 12/12/12 11/11/11
f 14/14/14 13/13/13 11/11/11
