g ruinBlock04
v 0.62335384 0.13217819 0.8905185
v 0.51927674 9.155273E-06 -0.89894634
v 0.51927674 3.8146973E-06 0.8905185
v 0.62335384 0.13217819 -0.89894634
v 0.62335384 1.063348 -0.89894634
v 0.6130255 1.063348 0.89051956
v 0.62335384 1.063348 -0.89894634
v 0.51927674 1.1690271 0.89051956
v 0.51927674 1.1844722 -0.89894634
v -0.50905883 1.1697421 0.89051956
v -0.50905883 1.1844741 -0.89894634
v -0.62335694 1.063348 0.8905185
v -0.50905883 1.1844741 -0.89894634
v -0.62335205 1.063348 -0.89894634
v -0.6233557 0.13217819 -0.89894634
v -0.6233551 0.13217819 0.8905185
v -0.6233557 0.13217819 -0.89894634
v -0.50905883 2.8991699E-06 0.89051956
v -0.50905883 2.8991699E-06 -0.89894634
v 0.51927674 3.8146973E-06 0.8905185
v 0.51927674 9.155273E-06 -0.89894634
v -0.50905883 2.8991699E-06 -0.89894634
v -0.50905883 2.8991699E-06 0.89051956
v 0.51927674 1.1844722 -0.89894634
v -0.50905883 1.1844741 -0.89894634
v -0.50905883 1.063348 -0.9999905
v -0.62335205 1.063348 -0.89894634
v -0.6233557 0.13217819 -0.89894634
v 0.51927674 1.063348 -0.9999875
v 0.62335384 1.063348 -0.89894634
v -0.50905883 0.13217819 -0.9999925
v -0.50905883 2.8991699E-06 -0.89894634
v 0.51927674 0.13217819 -0.99998546
v 0.62335384 0.13217819 -0.89894634
v 0.51927674 9.155273E-06 -0.89894634
v 0.51927674 1.1690271 0.89051956
v 0.6130255 1.063348 0.89051956
v 0.51927674 1.063348 0.9969514
v -0.50905883 1.1697421 0.89051956
v 0.62335384 0.13217819 0.8905185
v -0.50905883 1.063348 0.9895325
v -0.62335694 1.063348 0.8905185
v 0.51927674 0.13217819 0.9999646
v 0.51927674 3.8146973E-06 0.8905185
v -0.50905883 0.13217819 0.9999925
v -0.6233551 0.13217819 0.8905185
v -0.50905883 2.8991699E-06 0.89051956
vt 0.773167 0.832188
vt 0.636673 0.84620994
vt 0.773277 0.84503096
vt 0.636567 0.833369
vt 0.635935 0.762289
vt 0.772554 0.761102
vt 0.635935 0.762289
vt 0.772473 0.750316
vt 0.63590896 0.750094
vt 0.772626 0.67174196
vt 0.635986 0.671589
vt 0.772698 0.659824
vt 0.635986 0.671589
vt 0.636088 0.658876
vt 0.636584 0.5878
vt 0.773185 0.588748
vt 0.636584 0.5878
vt 0.773277 0.575409
vt 0.63667595 0.574461
vt 0.14660601 0.063559994
vt 0.01 0.063559994
vt 0.01 0.142062
vt 0.14660601 0.142062
vt 0.588004 0.751159
vt 0.50568503 0.75095
vt 0.507765 0.762729
vt 0.496348 0.761043
vt 0.49878398 0.835604
vt 0.585983 0.76308197
vt 0.596913 0.760872
vt 0.51033396 0.833584
vt 0.508524 0.84620994
vt 0.588673 0.833841
vt 0.599589 0.835422
vt 0.59086096 0.84620994
vt 0.986218 0.120520994
vt 0.97747004 0.112717
vt 0.9752191 0.123237
vt 0.98665804 0.203039
vt 0.902479 0.114342004
vt 0.975574 0.201416
vt 0.97804505 0.21274799
vt 0.904677 0.125784
vt 0.891771 0.12336999
vt 0.904526 0.204229
vt 0.902905 0.216072
vt 0.891771 0.206499
vn 0.99158317 -0.08545251 0.097266644
vn 0.110471755 -0.9857692 -0.12670904
vn 0.110374846 -0.9860161 0.124858916
vn 0.9912088 -0.09052686 -0.09648816
vn 0.99501896 0.099632226 0.0032734198
vn 0.991248 0.09347934 0.09321379
vn 0.99070555 0.0966407 -0.09572427
vn 0.08985511 0.98952776 0.11296339
vn 0.10040084 0.9886755 -0.11153694
vn -0.09382085 0.98956746 0.10933342
vn -0.1011662 0.9948377 0.007958575
vn -0.98877746 0.10433303 0.106929034
vn -0.10194112 0.9885649 -0.111118436
vn -0.9882896 0.10624435 -0.109525464
vn -0.99427265 -0.10687286 -8.951056E-07
vn -0.98852646 -0.10276417 0.1107026
vn -0.9885894 -0.10315526 -0.10977289
vn -0.109637275 -0.98611844 0.124699965
vn -0.10972977 -0.9858743 -0.12653576
vn 0.110374846 -0.9860161 0.124858916
vn 0.110471755 -0.9857692 -0.12670904
vn -0.10972977 -0.9858743 -0.12653576
vn -0.114910156 -0.99337596 -1.2796186E-06
vn 0.10040084 0.9886755 -0.11153694
vn -0.10194112 0.9885649 -0.111118436
vn -0.085178435 0.09289693 -0.99202555
vn -0.9882896 0.10624435 -0.109525464
vn -0.9885894 -0.10315526 -0.10977289
vn 0.085780665 0.09296079 -0.99196774
vn 0.99070555 0.0966407 -0.09572427
vn -0.085135 -0.092091575 -0.9921044
vn -0.10972977 -0.9858743 -0.12653576
vn 0.08573293 -0.09214942 -0.9920476
vn 0.9912088 -0.09052686 -0.09648816
vn 0.110471755 -0.9857692 -0.12670904
vn 0.08985511 0.98952776 0.11296339
vn 0.991248 0.09347934 0.09321379
vn 0.08595844 0.1030296 0.99095714
vn -0.09382085 0.98956746 0.10933342
vn 0.99158317 -0.08545251 0.097266644
vn -0.08960771 0.10075381 0.99086785
vn -0.98877746 0.10433303 0.106929034
vn 0.091153875 -0.093369484 0.99145
vn 0.110374846 -0.9860161 0.124858916
vn -0.0919962 -0.09312591 0.99139506
vn -0.98852646 -0.10276417 0.1107026
vn -0.109637275 -0.98611844 0.124699965
g ruinBlock04_0
f 3/3/3 2/2/2 1/1/1
f 2/2/2 4/4/4 1/1/1
f 1/1/1 4/4/4 5/5/5
f 6/6/6 1/1/1 5/5/5
f 8/8/8 6/6/6 7/7/7
f 9/9/9 8/8/8 7/7/7
f 10/10/10 8/8/8 9/9/9
f 11/11/11 10/10/10 9/9/9
f 10/10/10 13/13/13 12/12/12
f 13/13/13 14/14/14 12/12/12
f 14/14/14 15/15/15 12/12/12
f 15/15/15 16/16/16 12/12/12
f 18/18/18 16/16/16 17/17/17
f 19/19/19 18/18/18 17/17/17
f 22/22/22 21/21/21 20/20/20
f 23/23/23 22/22/22 20/20/20
f 26/26/26 25/25/25 24/24/24
f 26/26/26 27/27/27 25/25/25
f 28/28/28 27/27/27 26/26/26
f 29/29/29 26/26/26 24/24/24
f 24/24/24 30/30/30 29/29/29
f 31/31/31 28/28/28 26/26/26
f 31/31/31 26/26/26 29/29/29
f 32/32/32 28/28/28 31/31/31
f 29/29/29 30/30/30 33/33/33
f 33/33/33 31/31/31 29/29/29
f 32/32/32 31/31/31 33/33/33
f 30/30/30 34/34/34 33/33/33
f 35/35/35 32/32/32 33/33/33
f 33/33/33 34/34/34 35/35/35
f 38/38/38 37/37/37 36/36/36
f 36/36/36 39/39/39 38/38/38
f 40/40/40 37/37/37 38/38/38
f 39/39/39 41/41/41 38/38/38
f 39/39/39 42/42/42 41/41/41
f 43/43/43 40/40/40 38/38/38
f 38/38/38 41/41/41 43/43/43
f 44/44/44 40/40/40 43/43/43
f 41/41/41 42/42/42 45/45/45
f 41/41/41 45/45/45 43/43/43
f 43/43/43 45/45/45 44/44/44
f 42/42/42 46/46/46 45/45/45
f 45/45/45 47/47/47 44/44/44
f 45/45/45 46/46/46 47/47/47
