g ruinRamp01_LOD1
v 2 2.8765085 -6.003184
v 2 -0.07518287 0.003184471
v -2 -0.07518287 0.003184471
v -2 2.8765087 -6.003184
v 1.9169662 -2 -7.4169664
v 1.9169662 2.7971935 -7.4169664
v -1.9169662 2.7971935 -7.4169664
v -1.9169662 -2 -7.4169664
v 1.9169662 -0.16014817 1.4169662
v 1.9169662 -2 1.4169662
v -1.9169662 -2 1.4169662
v -1.9169662 -0.16014817 1.4169662
v -2 -2 -6
v -1.9169662 -2 -7.4169664
v -1.9169662 2.7971935 -7.4169664
v -2 2.8765087 -6.003184
v -2 -2 -3.330669E-16
v -2 -0.07518287 0.003184471
v -1.9169662 -0.16014817 1.4169662
v -1.9169662 -2 1.4169662
v -1.9169662 2.7971935 -7.4169664
v 1.9169662 2.7971935 -7.4169664
v 2 2.8765085 -6.003184
v -2 2.8765087 -6.003184
v 1.9169662 2.7971935 -7.4169664
v 1.9169662 -2 -7.4169664
v 2 -2 -6
v 2 2.8765085 -6.003184
v 2 -0.07518287 0.003184471
v 2 -2 3.330669E-16
v 1.9169662 -0.16014817 1.4169662
v 1.9169662 -2 1.4169662
v 2 -0.07518287 0.003184471
v 1.9169662 -0.16014817 1.4169662
v -1.9169662 -0.16014817 1.4169662
v -2 -0.07518287 0.003184471
vt -0.48244348 -0.27548528
vt -0.48244348 0.5354217
vt 0.057016015 0.5354217
vt 0.057016015 -0.27548528
vt 0.95418227 0.7223376
vt 0.95418227 1.3693104
vt 1.4712453 1.3693104
vt 1.4712452 0.7223376
vt 0.90928227 0.7335359
vt 0.6611509 0.7335359
vt 0.6611509 1.2505987
vt 0.90928227 1.2505987
vt 1.434132 -0.27462623
vt 1.434132 -0.4545268
vt 0.78156 -0.4545268
vt 0.7795882 -0.28005028
vt 1.434132 0.5345628
vt 1.1745417 0.5349923
vt 1.1804014 0.7144635
vt 1.434132 0.7144635
vt 0.057016015 -0.4545268
vt -0.48244348 -0.4545268
vt -0.48244348 -0.27548528
vt 0.057016015 -0.27548528
vt 0.7241625 -0.4545268
vt 0.07159054 -0.4545268
vt 0.07159054 -0.27462623
vt 0.7292602 -0.27505574
vt 0.32537523 0.53998685
vt 0.07159054 0.5345628
vt 0.32532108 0.7144635
vt 0.07159054 0.7144635
vt -0.48244348 0.5354217
vt -0.48244348 0.7144635
vt 0.057016015 0.7144635
vt 0.057016015 0.5354217
vn -0 0.89748365 0.44104773
vn -0 0.89748365 0.44104773
vn -0 0.89748365 0.44104773
vn -0 0.89748365 0.4410477
vn -0 0 -1
vn -0 0 -1
vn -0 0 -1
vn -0 0 -1
vn -0 0 1
vn -0 0 1
vn -0 0 1
vn -0 0 1
vn -1 0 0
vn -0.9982836 -1.9281224E-05 -0.05856434
vn -0.9982836 -1.9281224E-05 -0.05856434
vn -0.99983096 -6.0259417E-06 -0.018382851
vn -0.99997723 -5.676189E-06 0.006759497
vn -0.9999864 -4.3648965E-06 0.0052083996
vn -0.99828374 -4.9471113E-05 0.058563415
vn -0.99828374 -4.9471113E-05 0.05856342
vn -0 0.99842995 -0.05601321
vn -0 0.99842995 -0.05601321
vn -0 0.99842995 -0.056013208
vn -0 0.99842995 -0.056013208
vn 0.9982836 -1.9281215E-05 -0.058564316
vn 0.9982836 -1.9281215E-05 -0.058564316
vn 1 0 0
vn 0.99983096 -6.025942E-06 -0.01838285
vn 0.9999864 -4.364896E-06 0.0052083996
vn 1 0 0
vn 0.99828374 -4.9471113E-05 0.058563415
vn 0.99828374 -4.9471113E-05 0.05856342
vn -0 0.99819905 0.05998967
vn -0 0.99819905 0.059989665
vn -0 0.99819905 0.059989665
vn -0 0.99819905 0.05998967
g ruinRamp01_LOD1_0
f 3/3/3 2/2/2 1/1/1
f 4/4/4 3/3/3 1/1/1
f 7/7/7 6/6/6 5/5/5
f 8/8/8 7/7/7 5/5/5
f 11/11/11 10/10/10 9/9/9
f 12/12/12 11/11/11 9/9/9
f 15/15/15 14/14/14 13/13/13
f 16/16/16 15/15/15 13/13/13
f 16/16/16 13/13/13 17/17/17
f 18/18/18 16/16/16 17/17/17
f 18/18/18 17/17/17 19/19/19
f 17/17/17 20/20/20 19/19/19
f 23/23/23 22/22/22 21/21/21
f 24/24/24 23/23/23 21/21/21
f 27/27/27 26/26/26 25/25/25
f 28/28/28 27/27/27 25/25/25
f 28/28/28 29/29/29 27/27/27
f 29/29/29 30/30/30 27/27/27
f 29/29/29 31/31/31 30/30/30
f 31/31/31 32/32/32 30/30/30
f 35/35/35 34/34/34 33/33/33
f 36/36/36 35/35/35 33/33/33
