g ruinBlock06
v 1.6031718 0.6726626 0.99075687
v -1.5789982 0.6726626 0.95598996
v -1.5789982 0.7472766 0.90759003
v 1.6031718 0.7473428 0.90759003
v 1.6031718 0.7473428 0.90759003
v 1.6829387 0.6726626 0.90759003
v 1.6031718 0.6726626 0.99075687
v 1.6160649 0.09776672 0.90758896
v 1.603173 0.09776672 0.929954
v 1.603173 0.07364471 0.90759003
v 1.6031718 0.7473428 0.90759003
v -1.5789982 0.7472766 0.90759003
v -1.5789982 0.7124539 -0.923637
v 1.6031718 0.74854183 -0.923637
v 1.6031718 0.7473428 0.90759003
v 1.6031718 0.74854183 -0.923637
v 1.683148 0.6726626 -0.923637
v 1.6829387 0.6726626 0.90759003
v 1.6031718 0.74854183 -0.923637
v -1.5789982 0.7124539 -0.923637
v -1.5789982 0.6726626 -0.97098905
v 1.603173 0.6726626 -0.992341
v 1.603173 0.6726626 -0.992341
v 1.683148 0.6726626 -0.923637
v 1.6031718 0.74854183 -0.923637
v 1.603173 0.0977658 -0.953663
v 1.6261046 0.0977658 -0.923637
v 1.6031718 0.06080597 -0.923637
v 1.603173 0.6726626 -0.992341
v -1.5789982 0.6726626 -0.97098905
v -1.5789982 0.0977658 -0.99248
v 1.603173 0.0977658 -0.953663
v -1.6828982 0.09776672 -0.923637
v -1.5789982 0.000211792 -0.923637
v -1.5789982 0.6726626 -0.97098905
v -1.6336263 0.6726626 -0.923637
v -1.5789982 0.7124539 -0.923637
v 1.603173 0.0977658 -0.953663
v -1.5789982 0.0977658 -0.99248
v -1.5789982 0.000211792 -0.923637
v 1.6031718 0.06080597 -0.923637
v 1.6031718 0.06080597 -0.923637
v -1.5789982 0.000211792 -0.923637
v -1.5789982 0.003128662 0.90758896
v 1.603173 0.07364471 0.90759003
v 1.6031718 0.06080597 -0.923637
v 1.603173 0.07364471 0.90759003
v 1.6160649 0.09776672 0.90758896
v 1.6261046 0.0977658 -0.923637
v 1.6261046 0.0977658 -0.923637
v 1.6829387 0.6726626 0.90759003
v 1.683148 0.6726626 -0.923637
v 1.603173 0.07364471 0.90759003
v -1.5789982 0.003128662 0.90758896
v -1.5789982 0.09776672 0.990805
v 1.603173 0.09776672 0.929954
v 1.603173 0.09776672 0.929954
v -1.5789982 0.09776672 0.990805
v -1.5789982 0.6726626 0.95598996
v 1.6031718 0.6726626 0.99075687
v -1.6830801 0.6726626 0.90759003
v -1.5789982 0.7472766 0.90759003
v -1.5789982 0.09776672 0.990805
v -1.6833183 0.09776672 0.90759003
v -1.5789982 0.003128662 0.90758896
v -1.5789982 0.003128662 0.90758896
v -1.5789982 0.000211792 -0.923637
v -1.6828982 0.09776672 -0.923637
v -1.6833183 0.09776672 0.90759003
v -1.5789982 0.7124539 -0.923637
v -1.5789982 0.7472766 0.90759003
v -1.6830801 0.6726626 0.90759003
v -1.6336263 0.6726626 -0.923637
v -1.6833183 0.09776672 0.90759003
v -1.6828982 0.09776672 -0.923637
v -1.6336263 0.6726626 -0.923637
v -1.6830801 0.6726626 0.90759003
vt 0.88667303 0.55404705
vt 0.644658 0.55532205
vt 0.64366096 0.56198
vt 0.88909405 0.56198
vt 0.88909405 0.56198
vt 0.89523095 0.555803
vt 0.88667303 0.55404705
vt 0.88663894 0.51179
vt 0.88851297 0.511217
vt 0.887768 0.513632
vt 0.318014 0.403641
vt 0.074893 0.40261298
vt 0.074006 0.542344
vt 0.317396 0.543507
vt 0.318014 0.403641
vt 0.317396 0.543507
vt 0.325847 0.543589
vt 0.326382 0.403628
vt 0.88132405 0.084612
vt 0.637654 0.084612
vt 0.638683 0.089121
vt 0.87930304 0.092044
vt 0.87930304 0.092044
vt 0.887242 0.091063
vt 0.88132405 0.084612
vt 0.87899405 0.135049
vt 0.88182306 0.135761
vt 0.879841 0.138484
vt 0.87930304 0.092044
vt 0.638683 0.089121
vt 0.636921 0.131798
vt 0.87899405 0.135049
vt 0.627451 0.132084
vt 0.634917 0.140539
vt 0.638683 0.089121
vt 0.633394 0.087629
vt 0.637654 0.084612
vt 0.87899405 0.135049
vt 0.636921 0.131798
vt 0.634917 0.140539
vt 0.879841 0.138484
vt 0.15017399 0.393695
vt 0.150163 0.150596
vt 0.010368 0.150514
vt 0.01 0.393695
vt 0.373727 0.54377097
vt 0.373088 0.40375802
vt 0.37098998 0.40377802
vt 0.370392 0.54371804
vt 0.370392 0.54371804
vt 0.326382 0.403628
vt 0.325847 0.543589
vt 0.887768 0.513632
vt 0.64444 0.503322
vt 0.646248 0.512553
vt 0.88851297 0.511217
vt 0.88851297 0.511217
vt 0.646248 0.512553
vt 0.644658 0.55532205
vt 0.88667303 0.55404705
vt 0.63590896 0.555585
vt 0.64366096 0.56198
vt 0.646248 0.512553
vt 0.63633 0.51087004
vt 0.64444 0.503322
vt 0.01 0.403996
vt 0.0135240005 0.54382795
vt 0.024408 0.543557
vt 0.020781 0.403641
vt 0.074006 0.542344
vt 0.074893 0.40261298
vt 0.065052 0.402651
vt 0.068818 0.542369
vt 0.020781 0.403641
vt 0.024408 0.543557
vt 0.068818 0.542369
vt 0.065052 0.402651
vn 0.12136802 0.07156507 0.9900243
vn -0.010914782 0.13162935 0.9912389
vn -0.079233795 0.99490005 0.06241851
vn -0.00027352918 0.9972264 0.07442621
vn 0.08403297 0.9939557 0.070643954
vn 0.9930021 0.06444155 0.09896467
vn 0.12136802 0.07156507 0.9900243
vn 0.9948289 -0.08538297 0.055001102
vn 0.06420927 -0.08930716 0.9939323
vn 0.07310436 -0.99505275 0.0672734
vn 0.08502491 0.9963787 0.00034869157
vn -0.0033784516 0.9969632 0.07780027
vn -0.08612178 0.9962309 -0.010348071
vn -0.00014028298 0.9971349 -0.07564333
vn 0.08403297 0.9939557 0.070643954
vn 0.08440371 0.99383116 -0.071941726
vn 0.99268335 0.07388779 -0.095500134
vn 0.99728596 0.07358243 0.0025132776
vn 0.08440371 0.99383116 -0.071941726
vn -0.013687632 0.9966665 -0.08042647
vn -0.059545446 0.08897761 -0.99425215
vn -2.5804899E-05 0.105259806 -0.9944448
vn 0.097225994 0.06980231 -0.9928115
vn 0.99268335 0.07388779 -0.095500134
vn 0.08440371 0.99383116 -0.071941726
vn 0.05693922 -0.07880102 -0.995263
vn 0.9939698 -0.09155367 -0.060348224
vn 0.07984128 -0.9940175 -0.07452959
vn 0.097225994 0.06980231 -0.9928115
vn -0.0078221215 0.116492875 -0.9931607
vn -0.08311215 -0.081359714 -0.9932134
vn -2.1660138E-05 -0.10184786 -0.9948
vn -0.98768336 -0.10992927 -0.11134216
vn -0.099119864 -0.99060106 -0.094259515
vn -0.059545446 0.08897761 -0.99425215
vn -0.98757124 0.13144796 -0.08616492
vn -0.06660999 0.99598384 -0.059826862
vn 0.05693922 -0.07880102 -0.995263
vn -0.005670593 -0.093561344 -0.9955974
vn -0.099119864 -0.99060106 -0.094259515
vn -0.00014622569 -0.9951148 -0.098724484
vn 0.14719342 -0.98910064 0.0037360024
vn -7.466305E-05 -0.9951308 -0.09856329
vn -0.1016241 -0.9948226 0.00077268004
vn -0.00015121796 -0.99525464 0.09730426
vn 0.07984128 -0.9940175 -0.07452959
vn 0.07310436 -0.99505275 0.0672734
vn 0.9948289 -0.08538297 0.055001102
vn 0.9879615 -0.15466893 0.0031164538
vn 0.9939698 -0.09155367 -0.060348224
vn 0.9930021 0.06444155 0.09896467
vn 0.99268335 0.07388779 -0.095500134
vn 0.07310436 -0.99505275 0.0672734
vn -0.0009951231 -0.9952369 0.09748054
vn -0.086581856 -0.09227791 0.9919619
vn -0.0005403773 -0.12355436 0.99233764
vn 0.06420927 -0.08930716 0.9939323
vn -0.009402814 -0.11013068 0.99387264
vn -0.08140842 0.11599972 0.9899074
vn -0.0006388328 0.12714697 0.99188364
vn -0.9833196 0.15757214 0.09084924
vn -0.079233795 0.99490005 0.06241851
vn -0.086581856 -0.09227791 0.9919619
vn -0.9838164 -0.14558265 0.104455724
vn -0.09862889 -0.99079263 0.09274857
vn -0.09862889 -0.99079263 0.09274857
vn -0.099119864 -0.99060106 -0.094259515
vn -0.98768336 -0.10992927 -0.11134216
vn -0.9908478 -0.1344984 -0.011432925
vn -0.06660999 0.99598384 -0.059826862
vn -0.079233795 0.99490005 0.06241851
vn -0.9833196 0.15757214 0.09084924
vn -0.98497623 0.1720525 -0.014823359
vn -0.9838164 -0.14558265 0.104455724
vn -0.98768336 -0.10992927 -0.11134216
vn -0.98757124 0.13144796 -0.08616492
vn -0.9833196 0.15757214 0.09084924
g ruinBlock06_0
f 3/3/3 2/2/2 1/1/1
f 4/4/4 3/3/3 1/1/1
f 7/7/7 6/6/6 5/5/5
f 8/8/8 6/6/6 7/7/7
f 9/9/9 8/8/8 7/7/7
f 10/10/10 8/8/8 9/9/9
f 13/13/13 12/12/12 11/11/11
f 14/14/14 13/13/13 11/11/11
f 17/17/17 16/16/16 15/15/15
f 18/18/18 17/17/17 15/15/15
f 21/21/21 20/20/20 19/19/19
f 22/22/22 21/21/21 19/19/19
f 25/25/25 24/24/24 23/23/23
f 23/23/23 24/24/24 26/26/26
f 24/24/24 27/27/27 26/26/26
f 26/26/26 27/27/27 28/28/28
f 31/31/31 30/30/30 29/29/29
f 32/32/32 31/31/31 29/29/29
f 34/34/34 33/33/33 31/31/31
f 31/31/31 33/33/33 35/35/35
f 33/33/33 36/36/36 35/35/35
f 35/35/35 36/36/36 37/37/37
f 40/40/40 39/39/39 38/38/38
f 41/41/41 40/40/40 38/38/38
f 44/44/44 43/43/43 42/42/42
f 45/45/45 44/44/44 42/42/42
f 48/48/48 47/47/47 46/46/46
f 49/49/49 48/48/48 46/46/46
f 51/51/51 48/48/48 50/50/50
f 52/52/52 51/51/51 50/50/50
f 55/55/55 54/54/54 53/53/53
f 56/56/56 55/55/55 53/53/53
f 59/59/59 58/58/58 57/57/57
f 60/60/60 59/59/59 57/57/57
f 62/62/62 61/61/61 59/59/59
f 59/59/59 61/61/61 63/63/63
f 61/61/61 64/64/64 63/63/63
f 63/63/63 64/64/64 65/65/65
f 68/68/68 67/67/67 66/66/66
f 69/69/69 68/68/68 66/66/66
f 72/72/72 71/71/71 70/70/70
f 73/73/73 72/72/72 70/70/70
f 76/76/76 75/75/75 74/74/74
f 77/77/77 76/76/76 74/74/74
