g ruinArc03_COL
v -1.5296129 4.707664 -0.5766717
v -0.91994184 4.9499307 0.5766717
v -0.91994184 4.9499307 -0.5766717
v -1.5296129 4.707664 0.5766717
v -0.8780862 5.8608646 0.5766717
v -2.9094963 4.004578 -0.5766717
v -1.9620317 7.7701178 0.5766717
v -2.9094963 4.004578 0.5766717
v -4.0045786 2.9094963 -0.5766717
v -2.5493546 7.8461056 0.5766717
v -1.9620317 7.7701178 -0.5766717
v -4.0045786 2.9094963 0.5766717
v -4.7076645 1.5296129 -0.5766717
v -4.8491607 6.674297 0.5766717
v -2.5493546 7.8461056 -0.5766717
v -0.86312574 5.8393607 -0.5766717
v -4.7076645 1.5296129 0.5766717
v -4.949931 7.878742E-16 -0.5766717
v -4.949931 -7.878742E-16 0.5766717
v -6.6742973 4.8491607 0.5766717
v -7.8461075 2.5493546 0.5766717
v -8.249886 -1.5735404E-07 0.5766717
v -4.8491607 6.674297 -0.5766717
v -1.5296129 4.707664 -0.5766717
v -0.91994184 4.9499307 -0.5766717
v -2.9094963 4.004578 -0.5766717
v -6.6742973 4.8491607 -0.5766717
v -4.0045786 2.9094963 -0.5766717
v -7.8461075 2.5493546 -0.5766717
v -8.249886 -1.5735404E-07 -0.5766717
v -4.7076645 1.5296129 -0.5766717
v -4.949931 7.878742E-16 -0.5766717
v -1.9620317 7.7701178 0.5766717
v -1.9620317 7.7701178 -0.5766717
v -0.86312574 5.8393607 -0.5766717
v -0.8780862 5.8608646 0.5766717
v -0.91994184 4.9499307 0.5766717
v -0.91994184 4.9499307 -0.5766717
v -8.249886 -1.5735404E-07 -0.5766717
v -8.249886 -1.5735404E-07 0.5766717
v -4.949931 -7.878742E-16 0.5766717
v -4.949931 7.878742E-16 -0.5766717
vt 0.3 1
vt 0.25 0.75
vt 0.25 1
vt 0.3 0.75
vt 0.25 0.69855577
vt 0.35000002 1
vt 0.25 0.5
vt 0.35000002 0.75
vt 0.40000004 1
vt 0.3 0.5
vt 0.25 0.25
vt 0.40000004 0.75
vt 0.45000005 1
vt 0.35000002 0.5
vt 0.3 0.25
vt 0.25 0.049538
vt 0.45000005 0.75
vt 0.50000006 1
vt 0.50000006 0.75
vt 0.40000004 0.5
vt 0.45000005 0.5
vt 0.50000006 0.5
vt 0.35000002 0.25
vt 0.3 0
vt 0.25 0
vt 0.35000002 0
vt 0.40000004 0.25
vt 0.40000004 0
vt 0.45000005 0.25
vt 0.50000006 0.25
vt 0.45000005 0
vt 0.50000006 0
vt 0 1
vt 0 0
vt 0.32073918 0
vt 0.31768918 1
vt 0.39999998 1
vt 0.39999998 0
vt 0 0
vt 0 1
vt 0.40000015 1
vt 0.40000015 0
vn 0.12066011 -0.25393692 -0.95966506
vn 0.84373504 -0.4866977 0.22635497
vn 0.846371 -0.48821822 -0.21283591
vn 0.1210144 -0.25468254 0.95942295
vn 0.71546006 0.2668621 0.6456792
vn 0.1362526 -0.18753561 -0.97276187
vn 0.54123825 0.45521343 0.706995
vn 0.13625257 -0.1875356 0.97276187
vn 0.18753551 -0.13625258 -0.97276187
vn -0.15079957 0.3973073 0.9052107
vn 0.53926486 0.45355368 -0.7095649
vn 0.18753551 -0.13625258 0.97276187
vn 0.2204612 -0.07163219 -0.972762
vn -0.25668007 0.35328993 0.89961183
vn -0.15058626 0.39674535 -0.90549266
vn 0.71513367 0.2617435 -0.6481313
vn 0.2204612 -0.07163219 0.97276187
vn 0.20423974 -0.47297084 -0.8570792
vn 0.20423976 -0.47297096 0.85707915
vn -0.3532898 0.2566802 0.89961195
vn -0.41531712 0.13494475 0.89961183
vn -0.39119613 -0.44441572 0.8058911
vn -0.25668007 0.35328993 -0.89961183
vn 0.12066011 -0.25393692 -0.95966506
vn 0.846371 -0.48821822 -0.21283591
vn 0.1362526 -0.18753561 -0.97276187
vn -0.35328987 0.25668022 -0.89961183
vn 0.18753551 -0.13625258 -0.97276187
vn -0.4153171 0.13494474 -0.89961183
vn -0.39119613 -0.44441572 -0.8058911
vn 0.2204612 -0.07163219 -0.972762
vn 0.20423974 -0.47297084 -0.8570792
vn 0.54123825 0.45521343 0.706995
vn 0.53926486 0.45355368 -0.7095649
vn 0.71513367 0.2617435 -0.6481313
vn 0.71546006 0.2668621 0.6456792
vn 0.84373504 -0.4866977 0.22635497
vn 0.846371 -0.48821822 -0.21283591
vn -0.39119613 -0.44441572 -0.8058911
vn -0.39119613 -0.44441572 0.8058911
vn 0.20423976 -0.47297096 0.85707915
vn 0.20423974 -0.47297084 -0.8570792
g ruinArc03_COL_0
f 3/3/3 2/2/2 1/1/1
f 2/2/2 4/4/4 1/1/1
f 2/2/2 5/5/5 4/4/4
f 1/1/1 4/4/4 6/6/6
f 5/5/5 7/7/7 4/4/4
f 4/4/4 8/8/8 6/6/6
f 6/6/6 8/8/8 9/9/9
f 7/7/7 10/10/10 4/4/4
f 4/4/4 10/10/10 8/8/8
f 7/7/7 11/11/11 10/10/10
f 8/8/8 12/12/12 9/9/9
f 9/9/9 12/12/12 13/13/13
f 10/10/10 14/14/14 8/8/8
f 8/8/8 14/14/14 12/12/12
f 11/11/11 15/15/15 10/10/10
f 10/10/10 15/15/15 14/14/14
f 11/11/11 16/16/16 15/15/15
f 12/12/12 17/17/17 13/13/13
f 13/13/13 17/17/17 18/18/18
f 17/17/17 19/19/19 18/18/18
f 14/14/14 20/20/20 12/12/12
f 12/12/12 20/20/20 17/17/17
f 17/17/17 21/21/21 19/19/19
f 20/20/20 21/21/21 17/17/17
f 21/21/21 22/22/22 19/19/19
f 15/15/15 23/23/23 14/14/14
f 14/14/14 23/23/23 20/20/20
f 16/16/16 24/24/24 15/15/15
f 15/15/15 24/24/24 23/23/23
f 16/16/16 25/25/25 24/24/24
f 24/24/24 26/26/26 23/23/23
f 23/23/23 27/27/27 20/20/20
f 23/23/23 26/26/26 27/27/27
f 20/20/20 27/27/27 21/21/21
f 26/26/26 28/28/28 27/27/27
f 21/21/21 29/29/29 22/22/22
f 27/27/27 29/29/29 21/21/21
f 27/27/27 28/28/28 29/29/29
f 29/29/29 30/30/30 22/22/22
f 28/28/28 31/31/31 29/29/29
f 29/29/29 31/31/31 30/30/30
f 31/31/31 32/32/32 30/30/30
f 35/35/35 34/34/34 33/33/33
f 36/36/36 35/35/35 33/33/33
f 36/36/36 37/37/37 35/35/35
f 37/37/37 38/38/38 35/35/35
f 41/41/41 40/40/40 39/39/39
f 42/42/42 41/41/41 39/39/39
