g ruinDoorFrame02_COL
v 1.6992378 1.4387316 0.64315563
v 1.6992378 2.07901E-06 -0.65202314
v 1.6992378 2.07901E-06 0.65202314
v 1.6992378 1.4387316 -0.64315563
v 0.6167186 2.5212505 -0.47189224
v 0.6167186 2.5212505 0.47189227
v 0.22048919 3.9999993 -0.47189227
v 0.22048919 3.9999993 0.47189227
v 0.6167186 5.4787474 -0.47189227
v 0.6167186 5.4787474 0.47189224
v 1.6992378 6.5612674 -0.47189227
v 1.6992378 6.5612683 0.47189224
v 2.1052792 6.670066 -0.47189224
v 2.1052792 6.6700664 0.47189224
v 1.6992378 6.5612674 -0.47189227
v 0.554642 7.1177206 -0.47189227
v -1.1692733 6.887519 -0.47189227
v 0.6167186 5.4787474 -0.47189227
v 0.6167186 5.4787474 -0.47189227
v -1.1692733 6.887519 -0.47189227
v -1.1692728 3.9999995 -0.6724796
v 0.22048919 3.9999993 -0.47189227
v 0.22048919 3.9999993 -0.47189227
v -1.1692728 3.9999995 -0.6724796
v -1.1692728 1.8514467 -0.76229095
v 0.6167186 2.5212505 -0.47189224
v 0.6167186 2.5212505 -0.47189224
v -1.1692728 1.8514467 -0.76229095
v -1.1692723 0.9484004 -0.76229095
v 1.6992378 1.4387316 -0.64315563
v 1.6992378 6.5612683 0.47189224
v 0.554642 7.1177216 0.47189224
v 1.6418222 7.718942 0.47189224
v 2.1052792 6.6700664 0.47189224
v 0.6167186 5.4787474 0.47189224
v -1.1692733 6.8875194 0.47189224
v 0.554642 7.1177216 0.47189224
v 1.6992378 6.5612683 0.47189224
v 0.22048919 3.9999993 0.47189227
v -1.1692728 3.9999995 0.6724796
v -1.1692733 6.8875194 0.47189224
v 0.6167186 5.4787474 0.47189224
v 0.6167186 2.5212505 0.47189227
v -1.1692728 1.8514466 0.76229095
v -1.1692728 3.9999995 0.6724796
v 0.22048919 3.9999993 0.47189227
v 1.6992378 1.4387316 0.64315563
v -1.1692723 0.9484005 0.76229095
v -1.1692728 1.8514466 0.76229095
v 0.6167186 2.5212505 0.47189227
v 1.6992378 1.4387316 -0.64315563
v -1.1692723 0.9484004 -0.76229095
v -1.1692723 2.07901E-06 -0.76229095
v 1.6992378 2.07901E-06 -0.65202314
v 1.6992378 2.07901E-06 0.65202314
v -1.1692723 2.07901E-06 0.76229095
v -1.1692723 0.9484005 0.76229095
v 1.6992378 1.4387316 0.64315563
v -1.1692723 2.07901E-06 0.76229095
v -1.1692723 2.07901E-06 -0.76229095
v -1.1692723 0.9484004 -0.76229095
v -1.1692723 0.9484005 0.76229095
v -1.1692723 0.9484005 0.76229095
v -1.1692723 0.9484004 -0.76229095
v -1.1692728 1.8514467 -0.76229095
v -1.1692728 1.8514466 0.76229095
v -1.1692728 1.8514466 0.76229095
v -1.1692728 1.8514467 -0.76229095
v -1.1692728 3.9999995 -0.6724796
v -1.1692728 3.9999995 0.6724796
v -1.1692728 3.9999995 0.6724796
v -1.1692728 3.9999995 -0.6724796
v -1.1692733 6.887519 -0.47189227
v -1.1692733 6.8875194 0.47189224
v -1.1692733 6.8875194 0.47189224
v -1.1692733 6.887519 -0.47189227
v 0.554642 7.1177206 -0.47189227
v 0.554642 7.1177216 0.47189224
v 0.554642 7.1177216 0.47189224
v 0.554642 7.1177206 -0.47189227
v 1.6418222 7.718942 -0.47189224
v 1.6418222 7.718942 0.47189224
v 1.6418222 7.718942 -0.47189224
v 0.554642 7.1177206 -0.47189227
v 1.6992378 6.5612674 -0.47189227
v 2.1052792 6.670066 -0.47189224
v 1.6418222 7.718942 0.47189224
v 1.6418222 7.718942 -0.47189224
v 2.1052792 6.670066 -0.47189224
v 2.1052792 6.6700664 0.47189224
vt 0.5208334 0.68843985
vt 0.5208334 0.3125
vt 0.5208334 0.68843985
vt 0.5208334 0.3125
vt 0.50000006 0.3125
vt 0.50000006 0.68843985
vt 0.47916672 0.3125
vt 0.47916672 0.68843985
vt 0.45833337 0.3125
vt 0.45833337 0.68843985
vt 0.43750003 0.3125
vt 0.43750003 0.68843985
vt 0.4317795 0.3125
vt 0.4317795 0.68843985
vt 0 0
vt 0 1
vt 1 1
vt 1 0
vt 0 0
vt 0 1
vt 1 1
vt 1 0
vt 0 0
vt 0 1
vt 1 1
vt 1 0
vt 0 0
vt 0 1
vt 1 1
vt 1 0
vt 0 0
vt 0 1
vt 0.2850237 1
vt 0.2745844 0
vt 0 0
vt 0 1
vt 1 1
vt 1 0
vt 0 0
vt 0 1
vt 1 1
vt 1 0
vt 0 0
vt 0 1
vt 1 1
vt 1 0
vt 0 0
vt 0 1
vt 1 1
vt 1 0
vt 0 0
vt 0 1
vt 1 1
vt 1 0
vt 0 0
vt 0 1
vt 1 1
vt 1 0
vt 0 0.99999994
vt 0 0
vt 0.62207127 0
vt 0.62207127 0.99999994
vt 0 0.99999994
vt 0 0
vt 0.5923237 0
vt 0.5923237 0.99999994
vt 0 0
vt 0.028855793 0.690316
vt 1 0.6089846
vt 0.9745439 2.9998633E-15
vt 0 0
vt 0.020377375 0.3664198
vt 0.99999994 0.25712404
vt 0.9857007 7.454153E-16
vt 0 0
vt 0 0.42924526
vt 1 0.42924526
vt 1 0
vt 0 0.43209273
vt 0 0
vt 0.2850237 0
vt 0.2850237 0.43209273
vt 0.7149763 1
vt 1 1
vt 1 0
vt 0.7254156 0
vt 0 0.82304007
vt 4.0487745E-08 0
vt 1 7.378938E-08
vt 0.99999994 0.82304007
vn 0.55156 0.22754699 0.8024985
vn 0.5028225 0.0032109367 -0.86438364
vn 0.5028225 0.0032109367 0.86438364
vn 0.55156 0.22754698 -0.8024985
vn 0.44162342 0.28886348 -0.84942716
vn 0.44162342 0.28886348 0.84942716
vn 0.4291809 0.035719316 -0.902512
vn 0.4291809 0.03571934 0.902512
vn 0.36219534 -0.15887545 -0.9184624
vn 0.36219525 -0.15887544 0.9184624
vn 0.3054136 -0.38161626 -0.8724056
vn 0.30541325 -0.38161585 0.8724058
vn 0.8069577 0.040021405 -0.5892517
vn 0.80695754 0.04002169 0.5892518
vn 0.3054136 -0.38161626 -0.8724056
vn -0.15224761 0.5147592 -0.84370834
vn -0.6883525 0.335706 -0.64301807
vn 0.36219534 -0.15887545 -0.9184624
vn 0.36219534 -0.15887545 -0.9184624
vn -0.6883525 0.335706 -0.64301807
vn -0.65030926 0.030046307 -0.7590751
vn 0.4291809 0.035719316 -0.902512
vn 0.4291809 0.035719316 -0.902512
vn -0.65030926 0.030046307 -0.7590751
vn -0.5738009 0.07027738 -0.8159741
vn 0.44162342 0.28886348 -0.84942716
vn 0.44162342 0.28886348 -0.84942716
vn -0.5738009 0.07027738 -0.8159741
vn -0.38158068 0.0437713 -0.9232986
vn 0.55156 0.22754698 -0.8024985
vn 0.30541325 -0.38161585 0.8724058
vn -0.15224774 0.51475954 0.8437081
vn 0.243249 0.84259284 0.48048642
vn 0.80695754 0.04002169 0.5892518
vn 0.36219525 -0.15887544 0.9184624
vn -0.68835264 0.33570635 0.64301795
vn -0.15224774 0.51475954 0.8437081
vn 0.30541325 -0.38161585 0.8724058
vn 0.4291809 0.03571934 0.902512
vn -0.65030926 0.030046316 0.7590751
vn -0.68835264 0.33570635 0.64301795
vn 0.36219525 -0.15887544 0.9184624
vn 0.44162342 0.28886348 0.84942716
vn -0.57380086 0.07027738 0.8159741
vn -0.65030926 0.030046316 0.7590751
vn 0.4291809 0.03571934 0.902512
vn 0.55156 0.22754699 0.8024985
vn -0.38158074 0.043771297 0.9232986
vn -0.57380086 0.07027738 0.8159741
vn 0.44162342 0.28886348 0.84942716
vn 0.55156 0.22754698 -0.8024985
vn -0.38158068 0.0437713 -0.9232986
vn -0.35737655 0.0034693698 -0.93395394
vn 0.5028225 0.0032109367 -0.86438364
vn 0.5028225 0.0032109367 0.86438364
vn -0.35737655 0.00346937 0.93395394
vn -0.38158074 0.043771297 0.9232986
vn 0.55156 0.22754699 0.8024985
vn -0.35737655 0.00346937 0.93395394
vn -0.35737655 0.0034693698 -0.93395394
vn -0.38158068 0.0437713 -0.9232986
vn -0.38158074 0.043771297 0.9232986
vn -0.38158074 0.043771297 0.9232986
vn -0.38158068 0.0437713 -0.9232986
vn -0.5738009 0.07027738 -0.8159741
vn -0.57380086 0.07027738 0.8159741
vn -0.57380086 0.07027738 0.8159741
vn -0.5738009 0.07027738 -0.8159741
vn -0.65030926 0.030046307 -0.7590751
vn -0.65030926 0.030046316 0.7590751
vn -0.65030926 0.030046316 0.7590751
vn -0.65030926 0.030046307 -0.7590751
vn -0.6883525 0.335706 -0.64301807
vn -0.68835264 0.33570635 0.64301795
vn -0.68835264 0.33570635 0.64301795
vn -0.6883525 0.335706 -0.64301807
vn -0.15224761 0.5147592 -0.84370834
vn -0.15224774 0.51475954 0.8437081
vn -0.15224774 0.51475954 0.8437081
vn -0.15224761 0.5147592 -0.84370834
vn 0.24324894 0.84259254 -0.48048696
vn 0.243249 0.84259284 0.48048642
vn 0.24324894 0.84259254 -0.48048696
vn -0.15224761 0.5147592 -0.84370834
vn 0.3054136 -0.38161626 -0.8724056
vn 0.8069577 0.040021405 -0.5892517
vn 0.243249 0.84259284 0.48048642
vn 0.24324894 0.84259254 -0.48048696
vn 0.8069577 0.040021405 -0.5892517
vn 0.80695754 0.04002169 0.5892518
g ruinDoorFrame02_COL_0
f 3/3/3 2/2/2 1/1/1
f 2/2/2 4/4/4 1/1/1
f 1/1/1 4/4/4 5/5/5
f 6/6/6 1/1/1 5/5/5
f 6/6/6 5/5/5 7/7/7
f 8/8/8 6/6/6 7/7/7
f 8/8/8 7/7/7 9/9/9
f 10/10/10 8/8/8 9/9/9
f 10/10/10 9/9/9 11/11/11
f 12/12/12 10/10/10 11/11/11
f 12/12/12 11/11/11 13/13/13
f 14/14/14 12/12/12 13/13/13
f 17/17/17 16/16/16 15/15/15
f 18/18/18 17/17/17 15/15/15
f 21/21/21 20/20/20 19/19/19
f 22/22/22 21/21/21 19/19/19
f 25/25/25 24/24/24 23/23/23
f 26/26/26 25/25/25 23/23/23
f 29/29/29 28/28/28 27/27/27
f 30/30/30 29/29/29 27/27/27
f 33/33/33 32/32/32 31/31/31
f 34/34/34 33/33/33 31/31/31
f 37/37/37 36/36/36 35/35/35
f 38/38/38 37/37/37 35/35/35
f 41/41/41 40/40/40 39/39/39
f 42/42/42 41/41/41 39/39/39
f 45/45/45 44/44/44 43/43/43
f 46/46/46 45/45/45 43/43/43
f 49/49/49 48/48/48 47/47/47
f 50/50/50 49/49/49 47/47/47
f 53/53/53 52/52/52 51/51/51
f 54/54/54 53/53/53 51/51/51
f 57/57/57 56/56/56 55/55/55
f 58/58/58 57/57/57 55/55/55
f 61/61/61 60/60/60 59/59/59
f 62/62/62 61/61/61 59/59/59
f 65/65/65 64/64/64 63/63/63
f 66/66/66 65/65/65 63/63/63
f 69/69/69 68/68/68 67/67/67
f 70/70/70 69/69/69 67/67/67
f 73/73/73 72/72/72 71/71/71
f 74/74/74 73/73/73 71/71/71
f 77/77/77 76/76/76 75/75/75
f 78/78/78 77/77/77 75/75/75
f 81/81/81 80/80/80 79/79/79
f 82/82/82 81/81/81 79/79/79
f 85/85/85 84/84/84 83/83/83
f 86/86/86 85/85/85 83/83/83
f 89/89/89 88/88/88 87/87/87
f 90/90/90 89/89/89 87/87/87
