g ruinWall04_COL
v -6.084135 6.066759 0.75750047
v -5.9788847 2.6175866 -0.61355716
v -6.084135 6.066759 -0.75750047
v -5.9788847 2.6175866 0.61355716
v -6.2562957 0 -0.66512555
v -6.2562957 0 0.66512555
v -1.7967405 0 0.7736262
v -1.9974897 5.610803 0.61775315
v -6.084135 6.066759 -0.75750047
v -2.0626671 4.3026505 0.5013437
v 0.5820105 0 0.75020915
v 1.7164655 1.9895074 0.687166
v 4.7151656 0 0.7596559
v 0.6270311 5.4217486 0.6135973
v -1.9974897 5.610803 -0.61775315
v 4.716178 1.8226942 0.5013437
v 6.2562957 0 0.5805878
v 1.5278246 4.6432877 0.5057735
v -2.0626671 4.3026505 -0.5013437
v -5.9788847 2.6175866 -0.61355716
v 0.6270311 5.4217486 -0.6135973
v -1.7967405 0 -0.7736262
v -6.2562957 0 -0.66512555
v 1.7164655 1.9895074 -0.687166
v -1.7967405 0 0.7736262
v -6.2562957 0 0.66512555
v 0.5820105 0 -0.75020915
v 0.5820105 0 0.75020915
v 4.716178 1.8226943 -0.7858078
v 4.7151656 0 -0.7596559
v 4.7151656 0 0.7596559
v 6.2562957 0 -0.5805878
v 6.2562957 0 0.5805878
v 6.3910894 1.856057 -0.8809297
v 1.5278246 4.6432877 -0.5057735
v 5.7616296 3.3977478 -0.5901894
v 5.7616296 3.3977478 0.5901894
v 6.3910894 1.8560568 0.12175769
v 5.7616296 3.3977478 -0.5901894
v 6.3910894 1.856057 -0.8809297
v 6.2562957 0 -0.5805878
vt 0.375 0.25
vt 0.125 0.058185503
vt 0.125 0.25
vt 0.375 0.0581855
vt 0.125 0
vt 0.375 0
vt 0.45635343 0
vt 0.45635343 0.25
vt 0.375 0.5
vt 0.45635343 0.058185503
vt 0.5116285 0
vt 0.5116285 0.058185503
vt 0.5942084 0
vt 0.5116285 0.25
vt 0.45635343 0.5
vt 0.5942084 0.0581855
vt 0.625 0
vt 0.5942084 0.25
vt 0.45635343 0.6918145
vt 0.375 0.69181454
vt 0.5116285 0.5
vt 0.45635343 0.75
vt 0.375 0.75
vt 0.5116285 0.6918145
vt 0.45635343 1
vt 0.375 1
vt 0.5116285 0.75
vt 0.5116285 1
vt 0.5942084 0.69181454
vt 0.5942084 0.75
vt 0.5942084 1
vt 0.625 0.75
vt 0.625 1
vt 0.625 0.69181454
vt 0.5942084 0.5
vt 0.625 0.5
vt 0.625 0.25
vt 0.625 0.0581855
vt 0.875 0.25
vt 0.875 0.058185503
vt 0.875 0
vn -0.34405938 0.46130314 0.8178156
vn -0.29339528 0.02582686 -0.9556423
vn -0.3440594 0.46130314 -0.8178156
vn -0.29339528 0.02582686 0.9556423
vn -0.22841276 -0.3687853 -0.9010133
vn -0.22841276 -0.3687853 0.9010133
vn -0.007262394 -0.33460188 0.94233155
vn 0.054924183 0.44365966 0.89451075
vn -0.3440594 0.46130314 -0.8178156
vn 0.0008168787 0.0012066799 0.9999989
vn 0.0019727706 -0.43701437 0.8994523
vn 0.022509323 0.05766578 0.99808216
vn 0.05661395 -0.58525443 0.8088709
vn 0.081841365 0.37027484 0.92531
vn 0.05492418 0.44365966 -0.89451075
vn 0.058323234 0.03191041 0.9977876
vn 0.52862686 -0.41296753 0.7416276
vn 0.24386114 0.47540432 0.84529436
vn 0.0008168755 0.0012066799 -0.9999989
vn -0.29339528 0.02582686 -0.9556423
vn 0.06997804 0.36987722 -0.9264416
vn -0.007262394 -0.3346019 -0.94233155
vn -0.22841276 -0.3687853 -0.9010133
vn -0.006397724 0.037354622 -0.9992816
vn -0.007262394 -0.33460188 0.94233155
vn -0.22841276 -0.3687853 0.9010133
vn -0.0073856274 -0.44836473 -0.89382017
vn 0.0019727706 -0.43701437 0.8994523
vn -0.0008439384 0.049535453 -0.99877197
vn -0.0016746274 -0.6466644 -0.76277274
vn 0.05661395 -0.58525443 0.8088709
vn 0.49339023 -0.5701819 -0.6568551
vn 0.52862686 -0.41296753 0.7416276
vn 0.44053748 0.09769516 -0.89240265
vn 0.1880475 0.50177187 -0.8443122
vn 0.30846688 0.6106376 -0.7293626
vn 0.32412001 0.49505904 0.80614066
vn 0.5919087 0.101477616 0.7995914
vn 0.30846688 0.6106376 -0.7293626
vn 0.44053748 0.09769516 -0.89240265
vn 0.49339023 -0.5701819 -0.6568551
g ruinWall04_COL_0
f 3/3/3 2/2/2 1/1/1
f 2/2/2 4/4/4 1/1/1
f 2/2/2 5/5/5 4/4/4
f 5/5/5 6/6/6 4/4/4
f 4/4/4 6/6/6 7/7/7
f 8/8/8 1/1/1 4/4/4
f 9/9/9 1/1/1 8/8/8
f 10/10/10 4/4/4 7/7/7
f 10/10/10 8/8/8 4/4/4
f 10/10/10 7/7/7 11/11/11
f 12/12/12 10/10/10 11/11/11
f 12/12/12 11/11/11 13/13/13
f 14/14/14 8/8/8 10/10/10
f 12/12/12 14/14/14 10/10/10
f 15/15/15 9/9/9 8/8/8
f 15/15/15 8/8/8 14/14/14
f 16/16/16 12/12/12 13/13/13
f 16/16/16 13/13/13 17/17/17
f 18/18/18 14/14/14 12/12/12
f 16/16/16 18/18/18 12/12/12
f 15/15/15 19/19/19 9/9/9
f 19/19/19 20/20/20 9/9/9
f 21/21/21 15/15/15 14/14/14
f 21/21/21 14/14/14 18/18/18
f 19/19/19 22/22/22 20/20/20
f 22/22/22 23/23/23 20/20/20
f 19/19/19 15/15/15 24/24/24
f 15/15/15 21/21/21 24/24/24
f 19/19/19 24/24/24 22/22/22
f 22/22/22 25/25/25 23/23/23
f 25/25/25 26/26/26 23/23/23
f 22/22/22 27/27/27 25/25/25
f 24/24/24 27/27/27 22/22/22
f 27/27/27 28/28/28 25/25/25
f 24/24/24 21/21/21 29/29/29
f 24/24/24 29/29/29 27/27/27
f 27/27/27 30/30/30 28/28/28
f 29/29/29 30/30/30 27/27/27
f 30/30/30 31/31/31 28/28/28
f 30/30/30 32/32/32 31/31/31
f 32/32/32 33/33/33 31/31/31
f 34/34/34 32/32/32 30/30/30
f 29/29/29 34/34/34 30/30/30
f 21/21/21 35/35/35 29/29/29
f 29/29/29 35/35/35 34/34/34
f 35/35/35 36/36/36 34/34/34
f 35/35/35 21/21/21 18/18/18
f 36/36/36 35/35/35 37/37/37
f 35/35/35 18/18/18 37/37/37
f 37/37/37 18/18/18 16/16/16
f 38/38/38 37/37/37 16/16/16
f 37/37/37 38/38/38 39/39/39
f 38/38/38 16/16/16 17/17/17
f 38/38/38 40/40/40 39/39/39
f 38/38/38 17/17/17 40/40/40
f 17/17/17 41/41/41 40/40/40
