g ruinStatue01_LOD1
v -0.6054989 0.0046582413 0.8940414
v -1.0793055 -0.007711563 0.20724592
v -1.1903007 0.028777275 0.21707183
v -0.6990208 0.04632885 0.9659912
v -0 0.0054289624 1.0111102
v -1.540417 0.68011236 0.26975858
v -0 0.00870552 1.0905259
v 0.6990208 0.04632885 0.9659912
v 0.6054989 0.0046582413 0.8940414
v 1.1903007 0.028777275 0.21707183
v 1.0793055 -0.007711563 0.20724592
v 1.540417 0.68011236 0.26975858
v -0 0.5466491 1.4869092
v 1.1849202 0.66368544 0.9654609
v 1.4638617 1.5760534 0.29422966
v 0.43349174 0.70441085 1.4533048
v 0.8355597 1.4503607 1.2420171
v 0.91995335 2.2864537 0.49668512
v 0.46208918 1.2186565 1.4771626
v 0.7694152 2.037161 1.0010858
v -0 2.5711303 0.6230096
v 0.33475488 1.8163235 1.3582768
v -0 1.2299554 1.5530363
v -0 1.7904748 1.4095913
v -0.43349174 0.70441085 1.4533048
v -1.1849202 0.66368544 0.9654609
v -0.46208918 1.2186565 1.4771626
v -0.8355597 1.4503607 1.2420171
v -1.4638617 1.5760534 0.29422966
v -0.7694152 2.037161 1.0010858
v -0.91995335 2.2864537 0.49668512
v -0.33475488 1.8163235 1.3582768
v 0.7606883 0.023370856 -0.8127842
v -0 0.004775772 -1.0765712
v -0.7606883 0.023370856 -0.8127842
v 1.0793055 -0.007711563 0.20724592
v -1.0793055 -0.007711563 0.20724592
v 0.6054989 0.0046582413 0.8940414
v -0.6054989 0.0046582413 0.8940414
v -0 0.0054289624 1.0111102
v -0.7606883 0.023370856 -0.8127842
v -0 0.004775772 -1.0765712
v -0 0.025377503 -1.1937376
v -0.8570044 0.05952049 -0.88920146
v -1.0793055 -0.007711563 0.20724592
v -0 0.6422533 -1.5258936
v -1.1903007 0.028777275 0.21707183
v -1.1285255 0.6796063 -1.0814276
v -1.540417 0.68011236 0.26975858
v -0 1.5636761 -1.414582
v -1.0911807 1.5612357 -0.9980829
v -1.4638617 1.5760534 0.29422966
v -0.91995335 2.2864537 0.49668512
v -0.68424314 2.3213818 -0.65266484
v -0 2.3679879 -0.8374825
v -0 2.5711303 0.6230096
v 0.7606883 0.023370856 -0.8127842
v 1.0793055 -0.007711563 0.20724592
v 1.1903007 0.028777275 0.21707183
v 0.8570044 0.05952049 -0.88920146
v -0 0.004775772 -1.0765712
v -0 0.025377503 -1.1937376
v -0 0.6422533 -1.5258936
v 1.1285255 0.6796063 -1.0814276
v 1.540417 0.68011236 0.26975858
v 1.4638617 1.5760534 0.29422966
v -0 1.5636761 -1.414582
v 1.0911807 1.5612357 -0.9980829
v 0.91995335 2.2864537 0.49668512
v 0.68424314 2.3213818 -0.65266484
v -0 2.3679879 -0.8374825
v -0 2.5711303 0.6230096
vt 0.637259 0.930189
vt 0.797671 0.967855
vt 0.812913 0.951349
vt 0.647667 0.910521
vt 0.506313 0.938346
vt 0.873266 0.803779
vt 0.503023 0.924279
vt 0.357291 0.910507
vt 0.372807 0.930481
vt 0.194565 0.953916
vt 0.210428 0.972857
vt 0.128994 0.792307
vt 0.500782 0.807296
vt 0.263147 0.785103
vt 0.141405 0.579367
vt 0.42166 0.7747175
vt 0.339725 0.631561
vt 0.286231 0.423598
vt 0.417736 0.6715615
vt 0.341903 0.509924
vt 0.49683 0.370315
vt 0.435791 0.557481
vt 0.500538 0.661455
vt 0.49966 0.563255
vt 0.5780285 0.773677
vt 0.737576 0.782512
vt 0.5811795 0.6719735
vt 0.658796 0.628785
vt 0.865217 0.598921
vt 0.658504 0.509829
vt 0.728019 0.437606
vt 0.562971 0.559247
vt 0.395828 0.242102
vt 0.486972 0.273953
vt 0.578157 0.242146
vt 0.357318 0.11973
vt 0.616775 0.11963
vt 0.414429 0.037376
vt 0.559604 0.037389
vt 0.487032 0.023313
vt 0.793377 0.039988
vt 0.696155 0.017114
vt 0.687529 0.029186
vt 0.796156 0.054675
vt 0.930743 0.010878
vt 0.654447 0.129096
vt 0.937996 0.024413
vt 0.800961 0.135083
vt 0.971985 0.12391
vt 0.667478 0.262212
vt 0.805775 0.233531
vt 0.967446 0.250088
vt 0.946242 0.372044
vt 0.809535 0.339707
vt 0.735798 0.381484
vt 0.903596 0.486658
vt 0.184835 0.051882
vt 0.049021 0.033449
vt 0.042928 0.046534
vt 0.18557 0.067093
vt 0.279494 0.016821
vt 0.289014 0.028847
vt 0.327813 0.119898
vt 0.185673 0.14708
vt 0.015374 0.142259
vt 0.017234 0.26648
vt 0.32024 0.261641
vt 0.181637 0.244915
vt 0.040989 0.391968
vt 0.18034 0.348973
vt 0.253934 0.387015
vt 0.097072 0.503699
vn 0.023642005 -0.99969625 0.0069610015
vn 0.04230601 -0.9988783 -0.021270007
vn -0.68652797 -0.7121889 0.14651397
vn -0.38667908 -0.7084022 0.59046215
vn -0 -0.99595827 -0.089817025
vn -0.9614339 -0.21165499 0.17563298
vn -0 -0.838187 0.5453829
vn 0.38667908 -0.7084022 0.59046215
vn -0.023642005 -0.99969625 0.0069610015
vn 0.68652797 -0.7121889 0.14651397
vn -0.04230601 -0.9988783 -0.021270007
vn 0.9614339 -0.21165499 0.17563298
vn -0 -0.19578709 0.9806465
vn 0.7465348 -0.25452295 0.6147389
vn 0.9183235 0.34318382 0.1972479
vn 0.13401397 -0.16512297 0.97712576
vn 0.4565322 0.11623606 0.8820814
vn 0.6102761 0.7230031 0.32377407
vn 0.176186 -0.0055790003 0.9843411
vn 0.52389306 0.62960106 0.57370603
vn -0 0.928846 0.37046602
vn 0.37325397 0.5123159 0.7734429
vn -0 -0.32368588 0.94616455
vn -0 0.44099 0.897512
vn -0.61889595 -0.227052 0.751941
vn -0.63280404 -0.45253107 0.62831104
vn -0.27545106 -0.2680761 0.9231803
vn -0.76469713 -0.019977003 0.64408016
vn -0.9183235 0.34318382 0.1972479
vn -0.52389306 0.62960106 0.57370603
vn -0.6102761 0.7230031 0.32377407
vn -0.2566829 0.3902349 0.88421184
vn -0.045225013 -0.9989624 -0.0053670024
vn 0.014542003 -0.9996191 0.023454003
vn -0.014542003 -0.9996191 0.023454003
vn -0.04230601 -0.9988783 -0.021270007
vn 0.04230601 -0.9988783 -0.021270007
vn -0.023642005 -0.99969625 0.0069610015
vn 0.023642005 -0.99969625 0.0069610015
vn -0 -0.99595827 -0.089817025
vn -0.014542003 -0.9996191 0.023454003
vn 0.014542003 -0.9996191 0.023454003
vn -0 -0.7734092 -0.63390714
vn -0.43740112 -0.76232517 -0.47701216
vn 0.04230601 -0.9988783 -0.021270007
vn -0 -0.17409094 -0.9847296
vn -0.68652797 -0.7121889 0.14651397
vn -0.6988078 -0.18315493 -0.6914637
vn -0.9614339 -0.21165499 0.17563298
vn -0 0.10848205 -0.9940984
vn -0.6577542 0.3681871 -0.6571132
vn -0.9183235 0.34318382 0.1972479
vn -0.6102761 0.7230031 0.32377407
vn -0.4631338 0.73277766 -0.49854183
vn -0 0.7746834 -0.6323494
vn -0 0.928846 0.37046602
vn -0.045225013 -0.9989624 -0.0053670024
vn -0.04230601 -0.9988783 -0.021270007
vn 0.68652797 -0.7121889 0.14651397
vn 0.43740112 -0.76232517 -0.47701216
vn 0.014542003 -0.9996191 0.023454003
vn -0 -0.7734092 -0.63390714
vn -0 -0.17409094 -0.9847296
vn 0.6988078 -0.18315493 -0.6914637
vn 0.9614339 -0.21165499 0.17563298
vn 0.9183235 0.34318382 0.1972479
vn -0 0.10848205 -0.9940984
vn 0.6577542 0.3681871 -0.6571132
vn 0.6102761 0.7230031 0.32377407
vn 0.4631338 0.73277766 -0.49854183
vn -0 0.7746834 -0.6323494
vn -0 0.928846 0.37046602
g ruinStatue01_LOD1_0
f 3/3/3 2/2/2 1/1/1
f 4/4/4 3/3/3 1/1/1
f 4/4/4 1/1/1 5/5/5
f 6/6/6 3/3/3 4/4/4
f 7/7/7 4/4/4 5/5/5
f 8/8/8 7/7/7 5/5/5
f 9/9/9 8/8/8 5/5/5
f 10/10/10 8/8/8 9/9/9
f 11/11/11 10/10/10 9/9/9
f 10/10/10 12/12/12 8/8/8
f 7/7/7 13/13/13 4/4/4
f 7/7/7 8/8/8 13/13/13
f 12/12/12 14/14/14 8/8/8
f 12/12/12 15/15/15 14/14/14
f 14/14/14 16/16/16 8/8/8
f 8/8/8 16/16/16 13/13/13
f 15/15/15 17/17/17 14/14/14
f 14/14/14 17/17/17 16/16/16
f 15/15/15 18/18/18 17/17/17
f 16/16/16 19/19/19 13/13/13
f 17/17/17 19/19/19 16/16/16
f 18/18/18 20/20/20 17/17/17
f 20/20/20 18/18/18 21/21/21
f 19/19/19 17/17/17 22/22/22
f 17/17/17 20/20/20 22/22/22
f 19/19/19 23/23/23 13/13/13
f 23/23/23 19/19/19 22/22/22
f 24/24/24 22/22/22 20/20/20
f 21/21/21 24/24/24 20/20/20
f 24/24/24 23/23/23 22/22/22
f 13/13/13 25/25/25 4/4/4
f 25/25/25 13/13/13 23/23/23
f 4/4/4 25/25/25 26/26/26
f 26/26/26 6/6/6 4/4/4
f 27/27/27 25/25/25 23/23/23
f 26/26/26 25/25/25 27/27/27
f 23/23/23 24/24/24 27/27/27
f 6/6/6 26/26/26 28/28/28
f 28/28/28 26/26/26 27/27/27
f 29/29/29 6/6/6 28/28/28
f 30/30/30 24/24/24 21/21/21
f 28/28/28 30/30/30 29/29/29
f 21/21/21 31/31/31 30/30/30
f 30/30/30 31/31/31 29/29/29
f 24/24/24 32/32/32 27/27/27
f 27/27/27 32/32/32 28/28/28
f 32/32/32 30/30/30 28/28/28
f 30/30/30 32/32/32 24/24/24
f 35/35/35 34/34/34 33/33/33
f 33/33/33 36/36/36 35/35/35
f 36/36/36 37/37/37 35/35/35
f 36/36/36 38/38/38 37/37/37
f 38/38/38 39/39/39 37/37/37
f 38/38/38 40/40/40 39/39/39
f 43/43/43 42/42/42 41/41/41
f 44/44/44 43/43/43 41/41/41
f 44/44/44 41/41/41 45/45/45
f 46/46/46 43/43/43 44/44/44
f 47/47/47 44/44/44 45/45/45
f 48/48/48 46/46/46 44/44/44
f 48/48/48 44/44/44 47/47/47
f 49/49/49 48/48/48 47/47/47
f 50/50/50 46/46/46 48/48/48
f 51/51/51 48/48/48 49/49/49
f 51/51/51 50/50/50 48/48/48
f 52/52/52 51/51/51 49/49/49
f 52/52/52 53/53/53 51/51/51
f 51/51/51 54/54/54 50/50/50
f 53/53/53 54/54/54 51/51/51
f 54/54/54 55/55/55 50/50/50
f 53/53/53 56/56/56 54/54/54
f 56/56/56 55/55/55 54/54/54
f 59/59/59 58/58/58 57/57/57
f 60/60/60 59/59/59 57/57/57
f 60/60/60 57/57/57 61/61/61
f 62/62/62 60/60/60 61/61/61
f 62/62/62 63/63/63 60/60/60
f 60/60/60 64/64/64 59/59/59
f 63/63/63 64/64/64 60/60/60
f 64/64/64 65/65/65 59/59/59
f 65/65/65 64/64/64 66/66/66
f 63/63/63 67/67/67 64/64/64
f 64/64/64 68/68/68 66/66/66
f 67/67/67 68/68/68 64/64/64
f 69/69/69 66/66/66 68/68/68
f 70/70/70 68/68/68 67/67/67
f 70/70/70 69/69/69 68/68/68
f 71/71/71 70/70/70 67/67/67
f 69/69/69 70/70/70 71/71/71
f 72/72/72 69/69/69 71/71/71
