g ruinBlock01
v 0.94577897 0.08550415 0.87330043
v 0.969711 0.08550415 -0.86993146
v 0.87653285 4.1198728E-06 -0.86993146
v 0.87653285 3.2043456E-06 0.87330043
v 0.87653285 4.1198728E-06 -0.86993146
v -0.8952769 3.2043456E-06 -0.86993146
v -0.8952769 3.2043456E-06 0.87330043
v 0.87653285 3.2043456E-06 0.87330043
v 0.969711 0.08550415 -0.86993146
v 0.87653285 3.343348 -0.99017346
v 0.87653196 0.08550415 -0.95006955
v 1.0001129 3.343348 -0.86993146
v 0.87653285 3.4532652 -0.86993146
v -0.8952769 3.343348 -0.9506155
v -0.89527786 3.4529712 -0.86993146
v -0.98773223 3.343348 -0.86993146
v -0.8952769 0.08550415 -0.9995546
v -0.8952769 3.343348 -0.9506155
v -0.99958694 0.08550415 -0.86993146
v -0.8952769 3.2043456E-06 -0.86993146
v 0.87653196 0.08550415 -0.95006955
v 0.87653285 4.1198728E-06 -0.86993146
v 1.0001129 3.343348 -0.86993146
v 0.99959916 3.3433485 0.8733003
v 0.87653303 3.4529762 0.8733003
v 0.87653285 3.4532652 -0.86993146
v -0.89527786 3.4529712 -0.86993146
v -0.8952769 3.41198 0.87330043
v -0.98886 3.343348 0.87330043
v -0.98773223 3.343348 -0.86993146
v 0.99959916 3.3433485 0.8733003
v 0.87653285 0.08550415 0.9567883
v 0.87653196 3.3433485 0.99887055
v 0.94577897 0.08550415 0.87330043
v 0.87653285 3.2043456E-06 0.87330043
v 0.87653303 3.4529762 0.8733003
v 0.87653196 3.3433485 0.99887055
v -0.8952769 3.41198 0.87330043
v -0.8952769 3.343348 0.9316965
v 0.87653285 0.08550415 0.9567883
v -0.8952769 0.08550415 0.9988954
v -0.98886 3.343348 0.87330043
v -1.000399 0.08550415 0.87330043
v -0.8952769 0.08550415 0.9988954
v -0.8952769 3.2043456E-06 0.87330043
v -0.8952769 0.08550415 0.9988954
v 0.87653285 3.2043456E-06 0.87330043
v 0.87653285 0.08550415 0.9567883
v -0.99958694 0.08550415 -0.86993146
v -1.000399 0.08550415 0.87330043
v -0.8952769 3.2043456E-06 0.87330043
v -0.8952769 3.2043456E-06 -0.86993146
v 0.99959916 3.3433485 0.8733003
v 1.0001129 3.343348 -0.86993146
v 0.969711 0.08550415 -0.86993146
v 0.94577897 0.08550415 0.87330043
v -0.98773223 3.343348 -0.86993146
v -0.98886 3.343348 0.87330043
v -1.000399 0.08550415 0.87330043
v -0.99958694 0.08550415 -0.86993146
vt 0.677406 0.854504
vt 0.67781603 0.987432
vt 0.687491 0.987379
vt 0.68582004 0.854336
vt 0.914891 0.723565
vt 0.914891 0.58830696
vt 0.78181404 0.588306
vt 0.78181404 0.723566
vt 0.78318 0.416796
vt 0.77305 0.168552
vt 0.77414703 0.41467002
vt 0.785609 0.165279
vt 0.77575 0.156534
vt 0.640835 0.166946
vt 0.639231 0.156756
vt 0.631725 0.16515401
vt 0.642703 0.41219702
vt 0.640835 0.166946
vt 0.630944 0.416475
vt 0.639215 0.423429
vt 0.77414703 0.41467002
vt 0.775764 0.423429
vt 0.428673 0.989148
vt 0.427731 0.856076
vt 0.415145 0.856164
vt 0.41604102 0.989252
vt 0.280231 0.99
vt 0.27958798 0.856988
vt 0.270673 0.856903
vt 0.26921102 0.989918
vt 0.623559 0.682401
vt 0.611303 0.433487
vt 0.610942 0.679183
vt 0.618992 0.431083
vt 0.613137 0.42459503
vt 0.613829 0.691296
vt 0.610942 0.679183
vt 0.47756898 0.68852204
vt 0.478313 0.68169504
vt 0.611303 0.433487
vt 0.480088 0.43549198
vt 0.470125 0.683272
vt 0.468606 0.43171299
vt 0.480088 0.43549198
vt 0.476679 0.42459503
vt 0.480088 0.43549198
vt 0.613137 0.42459503
vt 0.611303 0.433487
vt 0.020296 0.9875
vt 0.02153 0.854431
vt 0.011185 0.854336
vt 0.01 0.987411
vt 0.427731 0.856076
vt 0.428673 0.989148
vt 0.67781603 0.987432
vt 0.677406 0.854504
vt 0.26921102 0.989918
vt 0.270673 0.856903
vt 0.02153 0.854431
vt 0.020296 0.9875
vn 0.9864487 -0.124370694 0.107009165
vn 0.98665607 -0.12868844 -0.09974495
vn 0.079970516 -0.99405044 -0.07394855
vn 0.07775161 -0.9938897 0.078345515
vn 0.079970516 -0.99405044 -0.07394855
vn -0.08222398 -0.9933137 -0.08103829
vn -0.08410867 -0.9928854 0.08428729
vn 0.0012018906 -0.99558914 0.09381224
vn 0.98665607 -0.12868844 -0.09974495
vn 0.121991575 0.134174 -0.98342025
vn 0.12496587 0.0033654808 -0.9921554
vn 0.98421615 0.13546467 -0.11387705
vn 0.10617935 0.98920095 -0.10103186
vn -0.110777654 0.13747327 -0.9842913
vn -0.10391277 0.9899753 -0.09566182
vn -0.9887707 0.12015198 -0.0888591
vn -0.12256629 -0.14356075 -0.9820224
vn -0.12959534 -0.0004544814 -0.99156684
vn -0.988299 -0.11662744 -0.09830103
vn -0.08222398 -0.9933137 -0.08103829
vn 0.11431961 -0.13610904 -0.98407584
vn 0.079970516 -0.99405044 -0.07394855
vn 0.98421615 0.13546467 -0.11387705
vn 0.98354024 0.1376249 0.11708136
vn 0.10541524 0.9885902 0.10759678
vn 0.10617935 0.98920095 -0.10103186
vn -0.10391277 0.9899753 -0.09566182
vn -0.09964078 0.9908636 0.09089053
vn -0.9894498 0.10996923 0.0943179
vn -0.9887707 0.12015198 -0.0888591
vn 0.98354024 0.1376249 0.11708136
vn 0.10846233 -0.11957691 0.9868826
vn 0.13249984 -0.008949333 0.99114263
vn 0.9864487 -0.124370694 0.107009165
vn 0.07775161 -0.9938897 0.078345515
vn 0.10541524 0.9885902 0.10759678
vn 0.11336544 0.13634452 0.9841537
vn -0.09964078 0.9908636 0.09089053
vn -0.107286476 0.112712815 0.9878185
vn 0.10846233 -0.11957691 0.9868826
vn -0.11750521 -0.13443778 0.9839304
vn -0.9894498 0.10996923 0.0943179
vn -0.9878011 -0.11648531 0.10334596
vn -0.12525149 0.013733667 0.9920299
vn -0.08410867 -0.9928854 0.08428729
vn -0.11750521 -0.13443778 0.9839304
vn 0.07775161 -0.9938897 0.078345515
vn 0.015831878 -0.14406289 0.9894419
vn -0.988299 -0.11662744 -0.09830103
vn -0.9878011 -0.11648531 0.10334596
vn -0.08410867 -0.9928854 0.08428729
vn -0.08222398 -0.9933137 -0.08103829
vn 0.99123424 -0.015557846 0.13119748
vn 0.98979366 0.14250495 -0.00087510253
vn 0.9931706 0.00024070764 -0.116671234
vn 0.9864487 -0.124370694 0.107009165
vn -0.9947455 -0.00031780926 -0.10237874
vn -0.9912211 0.13219558 0.0022287564
vn -0.9928461 0.0022968717 0.119379446
vn -0.9925472 -0.12186005 -0.0002286357
g ruinBlock01_0
f 3/3/3 2/2/2 1/1/1
f 4/4/4 3/3/3 1/1/1
f 7/7/7 6/6/6 5/5/5
f 8/8/8 7/7/7 5/5/5
f 11/11/11 10/10/10 9/9/9
f 10/10/10 12/12/12 9/9/9
f 13/13/13 12/12/12 10/10/10
f 10/10/10 14/14/14 13/13/13
f 14/14/14 15/15/15 13/13/13
f 14/14/14 16/16/16 15/15/15
f 17/17/17 14/14/14 10/10/10
f 18/18/18 17/17/17 16/16/16
f 17/17/17 19/19/19 16/16/16
f 20/20/20 19/19/19 17/17/17
f 21/21/21 17/17/17 10/10/10
f 20/20/20 17/17/17 21/21/21
f 21/21/21 9/9/9 22/22/22
f 22/22/22 20/20/20 21/21/21
f 25/25/25 24/24/24 23/23/23
f 26/26/26 25/25/25 23/23/23
f 26/26/26 27/27/27 25/25/25
f 27/27/27 28/28/28 25/25/25
f 28/28/28 27/27/27 29/29/29
f 27/27/27 30/30/30 29/29/29
f 33/33/33 32/32/32 31/31/31
f 32/32/32 34/34/34 31/31/31
f 35/35/35 34/34/34 32/32/32
f 37/37/37 31/31/31 36/36/36
f 36/36/36 38/38/38 37/37/37
f 38/38/38 39/39/39 37/37/37
f 37/37/37 39/39/39 40/40/40
f 39/39/39 41/41/41 40/40/40
f 38/38/38 42/42/42 39/39/39
f 39/39/39 42/42/42 43/43/43
f 44/44/44 39/39/39 43/43/43
f 46/46/46 43/43/43 45/45/45
f 46/46/46 45/45/45 47/47/47
f 48/48/48 46/46/46 47/47/47
f 51/51/51 50/50/50 49/49/49
f 52/52/52 51/51/51 49/49/49
f 55/55/55 54/54/54 53/53/53
f 56/56/56 55/55/55 53/53/53
f 59/59/59 58/58/58 57/57/57
f 60/60/60 59/59/59 57/57/57
