g ruinPath01_LOD1
v 0.53909457 0.07140479 1.3708409
v -0.8501374 0.07267442 1.4201661
v -0.9028582 0.073170945 0.7701803
v 0.53553784 0.07182137 0.79449165
v 0.9316459 0.053948153 0.69540465
v -1.395297 0.086755805 0.68381566
v -1.3796088 0.06845897 -1.2801504
v 0.9072135 0.05493374 -1.2503889
v -1.5162082 0.08290534 -1.454954
v -1.519651 0.07478236 -0.6084207
v -2.3313363 0.07515841 -0.6108941
v -2.3313346 0.08290638 -1.4549551
v -2.9860888 0.07081239 -0.4563196
v -1.4674217 0.07147508 -0.45138788
v -1.4730139 0.060673445 1.3857548
v -2.975777 0.057403903 1.3945488
v 1.6411917 0.085811354 -1.5072141
v 2.3585691 0.08580857 -1.5072141
v 2.3585715 0.08581185 -0.9237972
v 1.6411821 0.08581185 -0.92379737
v 1.3864456 0.085811354 0.91698384
v 2.457181 0.08580857 0.91698384
v 2.4571834 0.08581185 1.5004008
v 1.386436 0.08581185 1.5004005
v 2.9536335 0.07776611 -0.8271386
v 2.9930835 0.07776821 0.7825721
v 1.6993117 0.06288713 0.81347847
v 1.6472359 0.07776868 -0.7997156
v 1.547637 0.07085178 -1.286
v 1.5476314 0.062442824 0.82564545
v 1.0264848 0.062896766 0.8220465
v 1.0196388 0.07172008 -1.2886224
v -1.3952649 0.085811354 0.7672921
v -0.9596976 0.08580857 0.7786963
v -0.95995504 0.08581185 1.2227464
v -1.3955343 0.08581185 1.2113419
vt 0.186836 0.553393
vt 0.1867735 0.6918435
vt 0.27660102 0.691749
vt 0.2764175 0.553289
vt 0.322198 0.4036345
vt 0.0699725 0.402632
vt 0.071412 0.5423565
vt 0.32162148 0.543548
vt 0.63592196 0.7561915
vt 0.7725135 0.75570905
vt 0.772662 0.665783
vt 0.636037 0.66523254
vt 0.412948 0.258884
vt 0.263941 0.2590425
vt 0.2651795 0.3948295
vt 0.4115595 0.39461648
vt 0.14660601 0.063559994
vt 0.01 0.063559994
vt 0.01 0.142062
vt 0.14660601 0.142062
vt 0.14660601 0.063559994
vt 0.01 0.063559994
vt 0.01 0.142062
vt 0.14660601 0.142062
vt 0.1699315 0.701836
vt 0.1711005 0.84461504
vt 0.3246725 0.84372604
vt 0.325504 0.7009965
vt 0.208583 0.2599355
vt 0.211306 0.3957195
vt 0.2651795 0.3948295
vt 0.263941 0.2590425
vt 0.14660601 0.063559994
vt 0.01 0.063559994
vt 0.01 0.142062
vt 0.14660601 0.142062
vn 0.08185578 0.99425876 -0.06891363
vn -0.08071749 0.9941386 0.07192529
vn -0.083123244 0.99407333 -0.07006208
vn 0.08188006 0.99422246 0.06940645
vn -0.00027352918 0.9972264 0.07442621
vn -0.079233795 0.99490005 0.06241851
vn -0.08612178 0.9962309 -0.010348071
vn -0.00014028298 0.9971349 -0.07564333
vn 0.10040084 0.9886755 -0.11153694
vn -0.09382085 0.98956746 0.10933342
vn 0.08985511 0.98952776 0.11296339
vn -0.10194112 0.9885649 -0.111118436
vn 0.0023851562 0.996929 -0.07827515
vn 0.065957844 0.99608034 0.058936566
vn 0.073099665 0.994911 -0.06934323
vn -0.06540854 0.99545336 0.069239736
vn -0.124858916 0.9860161 -0.110374846
vn 0.12653576 0.9858743 0.10972977
vn 0.12670904 0.9857692 -0.110471755
vn 1.2796186E-06 0.99337596 0.114910156
vn -0.124858916 0.9860161 -0.110374846
vn 0.12653576 0.9858743 0.10972977
vn 0.12670904 0.9857692 -0.110471755
vn 1.2796186E-06 0.99337596 0.114910156
vn -0.0076856003 0.99534214 0.09609874
vn 0.09773729 0.9907566 0.094068065
vn 0.00053248514 0.9953614 -0.09620494
vn 0.09943317 0.9905261 -0.0947161
vn 0.1102929 0.9909759 -0.07617284
vn -0.08940094 0.99341774 0.07161568
vn 0.09471424 0.9926641 0.07514847
vn -0.109279595 0.99083334 -0.0794187
vn -0.124858916 0.9860161 -0.110374846
vn 0.12653576 0.9858743 0.10972977
vn 0.12670904 0.9857692 -0.110471755
vn 1.2796186E-06 0.99337596 0.114910156
g ruinPath01_LOD1_0
f 3/3/3 2/2/2 1/1/1
f 4/4/4 3/3/3 1/1/1
f 7/7/7 6/6/6 5/5/5
f 8/8/8 7/7/7 5/5/5
f 11/11/11 10/10/10 9/9/9
f 12/12/12 11/11/11 9/9/9
f 15/15/15 14/14/14 13/13/13
f 16/16/16 15/15/15 13/13/13
f 19/19/19 18/18/18 17/17/17
f 20/20/20 19/19/19 17/17/17
f 23/23/23 22/22/22 21/21/21
f 24/24/24 23/23/23 21/21/21
f 27/27/27 26/26/26 25/25/25
f 28/28/28 27/27/27 25/25/25
f 31/31/31 30/30/30 29/29/29
f 32/32/32 31/31/31 29/29/29
f 35/35/35 34/34/34 33/33/33
f 36/36/36 35/35/35 33/33/33
