g ruinPlatform04
v 9.700575 -2.5642335 -2.2753708
v 8.500843 -0.8875563 -5.7426624
v 7.879604 -2.5101998 -5.19274
v 10.530498 -1.0821533 -2.3028865
v 8.4150095 0.10855045 -5.607555
v 9.024393 -2.664082 2.321306
v 10.406726 0.1616868 -2.2027447
v 9.701609 -1.0038335 2.9193993
v 6.592108 -2.6213818 5.9290514
v 9.5806875 0.006317291 2.6539464
v 7.0431437 -0.94768834 6.5000157
v 4.9674826 -2.9862764 6.2466345
v 6.9959903 -0.18328728 6.3120203
v 5.042344 -1.0844765 7.21605
v -0.5592817 -3.246205 5.863617
v 4.9860926 0.19921486 6.837484
v 9.5806875 0.006317291 2.6539464
v -0.07436858 -1.0638726 6.713288
v -5.5703726 -3.048524 3.8742354
v 6.001655 0.6317547 2.2051253
v 10.406726 0.1616868 -2.2027447
v -0.035305347 -0.065249674 6.4745073
v -7.013577 -0.8594533 4.3990803
v 6.0092297 0.6077384 -2.943628
v 8.4150095 0.10855045 -5.607555
v -11.045124 -1.1715392 2.9110363
v -11.14364 -2.473558 2.7125719
v -11.19793 -2.4898593 0.7777011
v -6.7725086 0.2078092 4.1965485
v 0.3575122 0.5985448 2.1632361
v -11.42829 -1.1850454 1.05601
v -10.509902 -3.3330302 -0.73849076
v -8.936807 -0.08036022 3.425302
v -5.396169 0.59171915 1.6809565
v -11.710848 -1.1962988 -1.1308427
v -10.368744 -3.2664824 -2.787821
v -9.279815 -1.0342224 -3.7763155
v -11.399049 -0.06521259 1.0761545
v -11.381657 0.009485511 -0.99081945
v -9.149058 0.11462526 -3.7374904
v 0.35832208 0.5686354 -2.5276499
v -8.664228 0.38736406 1.4163073
v -11.399049 -0.06521259 1.0761545
v -8.821206 0.3964559 -1.3671566
v -11.381657 0.009485511 -0.99081945
v -9.149058 0.11462526 -3.7374904
v -5.39495 0.5776573 -1.6944995
v 2.907447 0.110491425 -6.9344516
v -0.07637642 -0.012151298 -6.3094487
v -5.4553466 0.29574502 -4.5790796
v 6.1632566 0.20508607 -7.382695
v 8.500843 -0.8875563 -5.7426624
v -5.3577423 -0.8665817 -4.694487
v -9.279815 -1.0342224 -3.7763155
v -0.018232984 -0.9726802 -6.4575067
v 2.850235 -1.0194633 -6.980722
v 6.2117944 -1.0582584 -7.3751383
v 7.879604 -2.5101998 -5.19274
v -8.209298 -5.4922333 -3.170044
v -10.368744 -3.2664824 -2.787821
v -0.24912767 -3.2710009 -5.610445
v -1.751805 -6.7830205 -3.4779665
v 5.9310374 -2.9945235 -6.7805614
v 6.6492815 -5.616768 -3.2723525
v 9.700575 -2.5642335 -2.2753708
v 9.024393 -2.664082 2.321306
v -8.2212305 -5.3856735 -1.2109762
v -1.7356358 -5.8164606 4.0655913
v -10.509902 -3.3330302 -0.73849076
v 2.4787219 -5.5292664 -5.2643113
v -9.144722 -3.402369 1.9456407
v -11.19793 -2.4898593 0.7777011
v -11.14364 -2.473558 2.7125719
v -5.5703726 -3.048524 3.8742354
v -0.5592817 -3.246205 5.863617
v 4.9674826 -2.9862764 6.2466345
v 7.800106 -5.615002 4.395791
v 6.592108 -2.6213818 5.9290514
v 4.0623536 -6.440747 -0.83509153
v 1.3563828 -6.570193 -0.92498577
v 4.0983024 -6.3943815 2.3031814
v 1.3658972 -6.5280523 2.241405
vt 0.7916667 0
vt 0.875 0.125
vt 0.875 0
vt 0.7916667 0.125
vt 0.875 0.25
vt 0.7083334 0
vt 0.7916667 0.25
vt 0.7083334 0.125
vt 0.625 0
vt 0.7083334 0.25
vt 0.625 0.125
vt 0.5625 0
vt 0.625 0.25
vt 0.5625 0.125
vt 0.5 0
vt 0.5625 0.25
vt 0.625 0.33333334
vt 0.5 0.125
vt 0.4375 0
vt 0.5625 0.33333334
vt 0.625 0.4166667
vt 0.5 0.25
vt 0.4375 0.125
vt 0.5625 0.4166667
vt 0.625 0.5
vt 0.375 0.125
vt 0.375 0
vt 0.2916667 0
vt 0.4375 0.25
vt 0.5 0.33333334
vt 0.2916667 0.125
vt 0.20833334 0
vt 0.375 0.25
vt 0.4375 0.33333334
vt 0.20833334 0.125
vt 0.125 0
vt 0.125 0.125
vt 0.2916667 0.25
vt 0.20833334 0.25
vt 0.125 0.25
vt 0.5 0.4166667
vt 0.41015124 0.33333334
vt 0.375 0.33333334
vt 0.4084258 0.4166667
vt 0.375 0.4166667
vt 0.375 0.5
vt 0.4375 0.4166667
vt 0.53528476 0.5
vt 0.5 0.5
vt 0.4375 0.5
vt 0.5625 0.5
vt 0.625 0.625
vt 0.4375 0.625
vt 0.375 0.625
vt 0.5 0.625
vt 0.534167 0.625
vt 0.5625 0.625
vt 0.625 0.75
vt 0.4375 0.75
vt 0.375 0.75
vt 0.5 0.75
vt 0.5 0.8333333
vt 0.5625 0.75
vt 0.5625 0.8333333
vt 0.625 0.8333333
vt 0.625 0.9166666
vt 0.4375 0.8333333
vt 0.5 0.9166666
vt 0.375 0.8333333
vt 0.53441536 0.78744614
vt 0.4375 0.9166666
vt 0.375 0.9166666
vt 0.375 0.99999994
vt 0.4375 0.99999994
vt 0.5 0.99999994
vt 0.5625 0.99999994
vt 0.5625 0.9166666
vt 0.625 0.99999994
vt 0.5625 0.8333333
vt 0.5 0.8333333
vt 0.5625 0.9166666
vt 0.5 0.9166666
vn 0.8305835 -0.5451961 -0.11354374
vn 0.7490734 -0.20199785 -0.6309405
vn 0.6772909 -0.48577246 -0.55254143
vn 0.96290636 -0.23314479 -0.13584864
vn 0.34441355 0.8970031 -0.27706438
vn 0.84910107 -0.5135761 0.12355985
vn 0.42042208 0.9063624 -0.04186112
vn 0.8985326 -0.22855198 0.37470412
vn 0.6165959 -0.34322065 0.708526
vn 0.40551835 0.90240663 0.14566043
vn 0.6614096 -0.206364 0.7210764
vn -0.0017597801 -0.5215395 0.8532253
vn 0.34229133 0.87404287 0.344798
vn 0.02029489 -0.18526885 0.9824783
vn -0.15927018 -0.48318505 0.8609096
vn 0.018997584 0.9497654 0.3123856
vn 0.40551835 0.90240663 0.14566043
vn -0.20643495 -0.1711215 0.9633805
vn -0.3443395 -0.41365457 0.84280497
vn 0.050737932 0.997104 0.056650154
vn 0.42042208 0.9063624 -0.04186112
vn -0.07921851 0.9211441 0.38107473
vn -0.3308666 -0.13423844 0.934081
vn 0.049917758 0.99835074 -0.02835682
vn 0.34441355 0.8970031 -0.27706438
vn -0.65459305 0.13834164 0.7432156
vn -0.6048431 -0.4757936 0.6385807
vn -0.8484259 -0.52429 0.07275439
vn -0.13584322 0.8963177 0.4220913
vn -0.012971464 0.99798775 0.062066343
vn -0.97907203 0.07881928 0.18763115
vn -0.73733205 -0.6710163 0.077965334
vn -0.3022353 0.7975651 0.5220572
vn -0.021717252 0.9971916 0.0716753
vn -0.9379767 -0.048511203 -0.3432874
vn -0.74165183 -0.46031433 -0.4879172
vn -0.4273204 -0.029943677 -0.9036043
vn -0.5061861 0.84418195 0.17644389
vn -0.58567345 0.7811166 -0.21643354
vn -0.31590834 0.7865246 -0.5306422
vn -0.006266859 0.9987457 -0.049676638
vn -0.10784616 0.9921558 0.06321492
vn -0.5061861 0.84418195 0.17644389
vn -0.0924435 0.9949543 -0.038989596
vn -0.58567345 0.7811166 -0.21643354
vn -0.31590834 0.7865246 -0.5306422
vn -0.020009086 0.99832076 -0.05436183
vn -0.085318916 0.88390905 -0.45981014
vn -0.11474491 0.8808863 -0.45920905
vn -0.09573705 0.91625893 -0.38897797
vn 0.11762316 0.8701862 -0.47847748
vn 0.7490734 -0.20199785 -0.6309405
vn -0.25594053 -0.09889113 -0.9616209
vn -0.4273204 -0.029943677 -0.9036043
vn -0.2640225 -0.1228969 -0.95665485
vn -0.15955505 -0.18877673 -0.9689714
vn 0.2978623 -0.17922747 -0.9376329
vn 0.6772909 -0.48577246 -0.55254143
vn -0.30189815 -0.59626186 -0.743861
vn -0.74165183 -0.46031433 -0.4879172
vn -0.22405288 -0.42538118 -0.8768416
vn -0.18885168 -0.96723 -0.1697094
vn 0.2535595 -0.5279775 -0.8105229
vn 0.5206876 -0.83106494 -0.19548781
vn 0.8305835 -0.5451961 -0.11354374
vn 0.84910107 -0.5135761 0.12355985
vn -0.31516287 -0.9470967 0.06066475
vn -0.20717408 -0.8370082 0.5064546
vn -0.73733205 -0.6710163 0.077965334
vn 0.020746946 -0.71710813 -0.69665307
vn -0.29361764 -0.89954436 0.32343286
vn -0.8484259 -0.52429 0.07275439
vn -0.6048431 -0.4757936 0.6385807
vn -0.3443395 -0.41365457 0.84280497
vn -0.15927018 -0.48318505 0.8609096
vn -0.0017597801 -0.5215395 0.8532253
vn 0.48792726 -0.7803625 0.3911026
vn 0.6165959 -0.34322065 0.708526
vn 0.16698405 -0.98420596 -0.058779128
vn 0.015623757 -0.9998203 -0.010740282
vn 0.124355726 -0.9826401 0.13767408
vn -0.02565285 -0.98214906 0.18634696
g ruinPlatform04_0
f 3/3/3 2/2/2 1/1/1
f 2/2/2 4/4/4 1/1/1
f 2/2/2 5/5/5 4/4/4
f 1/1/1 4/4/4 6/6/6
f 5/5/5 7/7/7 4/4/4
f 4/4/4 8/8/8 6/6/6
f 4/4/4 7/7/7 8/8/8
f 6/6/6 8/8/8 9/9/9
f 7/7/7 10/10/10 8/8/8
f 8/8/8 11/11/11 9/9/9
f 8/8/8 10/10/10 11/11/11
f 9/9/9 11/11/11 12/12/12
f 10/10/10 13/13/13 11/11/11
f 11/11/11 14/14/14 12/12/12
f 11/11/11 13/13/13 14/14/14
f 12/12/12 14/14/14 15/15/15
f 13/13/13 16/16/16 14/14/14
f 13/13/13 17/17/17 16/16/16
f 14/14/14 18/18/18 15/15/15
f 14/14/14 16/16/16 18/18/18
f 15/15/15 18/18/18 19/19/19
f 17/17/17 20/20/20 16/16/16
f 17/17/17 21/21/21 20/20/20
f 16/16/16 22/22/22 18/18/18
f 16/16/16 20/20/20 22/22/22
f 18/18/18 23/23/23 19/19/19
f 18/18/18 22/22/22 23/23/23
f 21/21/21 24/24/24 20/20/20
f 21/21/21 25/25/25 24/24/24
f 19/19/19 23/23/23 26/26/26
f 19/19/19 26/26/26 27/27/27
f 27/27/27 26/26/26 28/28/28
f 22/22/22 29/29/29 23/23/23
f 23/23/23 29/29/29 26/26/26
f 20/20/20 30/30/30 22/22/22
f 20/20/20 24/24/24 30/30/30
f 22/22/22 30/30/30 29/29/29
f 26/26/26 31/31/31 28/28/28
f 28/28/28 31/31/31 32/32/32
f 29/29/29 33/33/33 26/26/26
f 26/26/26 33/33/33 31/31/31
f 30/30/30 34/34/34 29/29/29
f 29/29/29 34/34/34 33/33/33
f 31/31/31 35/35/35 32/32/32
f 32/32/32 35/35/35 36/36/36
f 35/35/35 37/37/37 36/36/36
f 33/33/33 38/38/38 31/31/31
f 31/31/31 38/38/38 35/35/35
f 38/38/38 39/39/39 35/35/35
f 35/35/35 39/39/39 37/37/37
f 39/39/39 40/40/40 37/37/37
f 30/30/30 41/41/41 34/34/34
f 24/24/24 41/41/41 30/30/30
f 34/34/34 42/42/42 33/33/33
f 42/42/42 43/43/43 33/33/33
f 42/42/42 44/44/44 43/43/43
f 42/42/42 34/34/34 44/44/44
f 44/44/44 45/45/45 43/43/43
f 44/44/44 46/46/46 45/45/45
f 34/34/34 47/47/47 44/44/44
f 41/41/41 47/47/47 34/34/34
f 44/44/44 47/47/47 46/46/46
f 24/24/24 48/48/48 41/41/41
f 41/41/41 49/49/49 47/47/47
f 48/48/48 49/49/49 41/41/41
f 47/47/47 50/50/50 46/46/46
f 49/49/49 50/50/50 47/47/47
f 24/24/24 51/51/51 48/48/48
f 25/25/25 51/51/51 24/24/24
f 25/25/25 52/52/52 51/51/51
f 50/50/50 53/53/53 46/46/46
f 53/53/53 54/54/54 46/46/46
f 49/49/49 55/55/55 50/50/50
f 55/55/55 53/53/53 50/50/50
f 48/48/48 56/56/56 49/49/49
f 48/48/48 51/51/51 56/56/56
f 56/56/56 55/55/55 49/49/49
f 52/52/52 57/57/57 51/51/51
f 51/51/51 57/57/57 56/56/56
f 52/52/52 58/58/58 57/57/57
f 53/53/53 59/59/59 54/54/54
f 59/59/59 60/60/60 54/54/54
f 55/55/55 61/61/61 53/53/53
f 56/56/56 61/61/61 55/55/55
f 61/61/61 59/59/59 53/53/53
f 61/61/61 62/62/62 59/59/59
f 56/56/56 57/57/57 63/63/63
f 58/58/58 63/63/63 57/57/57
f 56/56/56 63/63/63 61/61/61
f 58/58/58 64/64/64 63/63/63
f 58/58/58 65/65/65 64/64/64
f 65/65/65 66/66/66 64/64/64
f 59/59/59 67/67/67 60/60/60
f 62/62/62 67/67/67 59/59/59
f 62/62/62 68/68/68 67/67/67
f 67/67/67 69/69/69 60/60/60
f 63/63/63 70/70/70 61/61/61
f 70/70/70 63/63/63 64/64/64
f 70/70/70 62/62/62 61/61/61
f 70/70/70 64/64/64 62/62/62
f 67/67/67 71/71/71 69/69/69
f 68/68/68 71/71/71 67/67/67
f 71/71/71 72/72/72 69/69/69
f 71/71/71 73/73/73 72/72/72
f 71/71/71 74/74/74 73/73/73
f 75/75/75 74/74/74 71/71/71
f 68/68/68 75/75/75 71/71/71
f 76/76/76 75/75/75 68/68/68
f 77/77/77 76/76/76 68/68/68
f 78/78/78 76/76/76 77/77/77
f 66/66/66 78/78/78 77/77/77
f 66/66/66 77/77/77 64/64/64
f 64/64/64 79/79/79 62/62/62
f 62/62/62 80/80/80 68/68/68
f 79/79/79 80/80/80 62/62/62
f 81/81/81 79/79/79 64/64/64
f 77/77/77 81/81/81 64/64/64
f 79/79/79 81/81/81 80/80/80
f 68/68/68 82/82/82 77/77/77
f 80/80/80 82/82/82 68/68/68
f 81/81/81 82/82/82 80/80/80
f 82/82/82 81/81/81 77/77/77
