g ruinWaterSpout_COL
v -1.3414489 -1.4533627 -2.1484833
v -0.74295086 -0.74295086 0.10941475
v 0.74295086 -0.74295086 0.10941475
v 1.2681235 -1.4533627 -2.1484833
v -1.3414489 1.4619718 -2.3289375
v 1.3414489 1.4619718 -2.3289375
v -0.74295086 0.74295086 0.10941475
v 0.74295086 0.74295086 0.10941475
v -0.74295086 -0.74295086 0.10941475
v -1.3414489 -1.4533627 -2.1484833
v -1.3414489 1.4619718 -2.3289375
v 0.74295086 -0.74295086 0.10941475
v 1.3414489 1.4619718 -2.3289375
v 1.2681235 -1.4533627 -2.1484833
vt 0.375 0.75
vt 0.375 1
vt 0.625 1
vt 0.625 0.75
vt 0.375 0.5
vt 0.625 0.5
vt 0.375 0.25
vt 0.625 0.25
vt 0.375 0
vt 0.125 0
vt 0.125 0.25
vt 0.625 0
vt 0.875 0.25
vt 0.875 0
vn -0.5372535 -0.52915365 -0.6567763
vn -0.6283744 -0.54138845 0.55860907
vn 0.6324605 -0.54634064 0.5490953
vn 0.5257372 -0.5365594 -0.66007906
vn -0.51957506 0.49996698 -0.69287425
vn 0.5223764 0.49704388 -0.692871
vn -0.60311884 0.58426857 0.54302657
vn 0.6099407 0.5803242 0.539626
vn -0.6283744 -0.54138845 0.55860907
vn -0.5372535 -0.52915365 -0.6567763
vn -0.51957506 0.49996698 -0.69287425
vn 0.6324605 -0.54634064 0.5490953
vn 0.5223764 0.49704388 -0.692871
vn 0.5257372 -0.5365594 -0.66007906
g ruinWaterSpout_COL_0
f 3/3/3 2/2/2 1/1/1
f 4/4/4 3/3/3 1/1/1
f 4/4/4 1/1/1 5/5/5
f 6/6/6 4/4/4 5/5/5
f 6/6/6 5/5/5 7/7/7
f 8/8/8 6/6/6 7/7/7
f 8/8/8 7/7/7 9/9/9
f 9/9/9 7/7/7 10/10/10
f 7/7/7 11/11/11 10/10/10
f 12/12/12 8/8/8 9/9/9
f 13/13/13 8/8/8 12/12/12
f 14/14/14 13/13/13 12/12/12
