g Scaffolding_Wooden_Filler_LOD0
v 1.5999999 -0.20055816 0.16
v 1.5999999 3.8146972E-08 0.16
v 1.5999999 3.8146972E-08 0
v 1.5999999 -0.20055816 0
v 0.8030721 -0.19268222 0.15136205
v 1.5999999 3.8146972E-08 0.16
v 1.5999999 -0.20055816 0.16
v 0.8030721 -0.0077510453 0.15136203
v 1.9073486E-08 0 0.16
v 1.9073486E-08 -0.2005582 0.16
v 1.9073486E-08 0 0.16
v 1.9073486E-08 -0.2005582 0.16
v 1.9073486E-08 -0.2005582 0
v 1.9073486E-08 0 5.008147E-17
v 0.8030721 -0.19268222 0.008277931
v 1.5999999 -0.20055816 0
v 1.5999999 3.8146972E-08 0
v 0.8030721 -0.0077510453 0.008277931
v 1.9073486E-08 0 5.008147E-17
v 1.9073486E-08 -0.2005582 0
v 0.8030721 -0.19268222 0.15136205
v 1.5999999 -0.20055816 0.16
v 1.5999999 -0.20055816 0
v 0.8030721 -0.19268222 0.008277931
v 1.9073486E-08 -0.2005582 0.16
v 1.9073486E-08 -0.2005582 0
v 0.8030721 -0.0077510453 0.15136203
v 1.9073486E-08 0 0.16
v 1.9073486E-08 0 5.008147E-17
v 0.8030721 -0.0077510453 0.008277931
v 1.5999999 3.8146972E-08 0.16
v 1.5999999 3.8146972E-08 0
v 1.5999999 -0.2005046 1.5999999
v 1.5999999 0 1.6000947
v 1.5999999 0 1.4399939
v 1.5999999 -0.20050445 1.4399939
v 0.81116116 -0.0061808773 1.4462261
v -1.9012578E-15 0 1.6000947
v -1.881651E-15 0 1.4399939
v 0.8111613 -0.0061808773 1.5938623
v 1.5999999 0 1.6000947
v 1.5999999 0 1.4399939
v 0.8111613 -0.0061808773 1.5938623
v -1.9012578E-15 -0.2004422 1.6000949
v -1.9012578E-15 0 1.6000947
v 0.8111613 -0.19408904 1.5938623
v 1.5999999 0 1.6000947
v 1.5999999 -0.2005046 1.5999999
v 0.8111613 -0.19408904 1.5938623
v -1.881651E-15 -0.2004422 1.4399939
v -1.9012578E-15 -0.2004422 1.6000949
v 0.81116116 -0.19408904 1.4462265
v 1.5999999 -0.20050445 1.4399939
v 1.5999999 -0.2005046 1.5999999
v 0.81116116 -0.0061808773 1.4462261
v -1.881651E-15 0 1.4399939
v -1.881651E-15 -0.2004422 1.4399939
v 0.81116116 -0.19408904 1.4462265
v 1.5999999 -0.20050445 1.4399939
v 1.5999999 0 1.4399939
v -1.881651E-15 -0.2004422 1.4399939
v -1.881651E-15 0 1.4399939
v -1.9012578E-15 0 1.6000947
v -1.9012578E-15 -0.2004422 1.6000949
v 0.15964156 -0.17731948 0.80431646
v 0.16599457 -0.023451146 0.15972514
v 0.16599472 -0.18355206 0.15972507
v 0.15964156 -0.029683609 0.8043165
v 0.16599457 -0.02345108 1.4399835
v 0.1659944 -0.18355209 1.4399835
v 0.15964156 -0.029683609 0.8043165
v 0.0062216185 -0.023451108 0.15972514
v 0.16599457 -0.023451146 0.15972514
v 0.012574768 -0.029683609 0.8043165
v 0.16599457 -0.02345108 1.4399835
v 0.00615921 -0.023545837 1.4399835
v 0.012574768 -0.029683609 0.8043165
v 0.0062216185 -0.18355201 0.15972507
v 0.0062216185 -0.023451108 0.15972514
v 0.012574768 -0.17731948 0.80431646
v 0.006159363 -0.18355194 1.4399835
v 0.00615921 -0.023545837 1.4399835
v 0.15964156 -0.17731948 0.80431646
v 0.16599472 -0.18355206 0.15972507
v 0.0062216185 -0.18355201 0.15972507
v 0.012574768 -0.17731948 0.80431646
v 0.006159363 -0.18355194 1.4399835
v 0.1659944 -0.18355209 1.4399835
v 1.5844237 -0.17405243 0.8044124
v 1.4322996 -0.18269043 1.4426821
v 1.5922996 -0.18269043 1.4426821
v 1.4396 -0.17405243 0.80441254
v 1.4322996 -0.18269043 0.15915771
v 1.5922996 -0.18269043 0.15915783
v 1.5844237 -0.030365905 0.8044124
v 1.5922996 -0.022690428 1.4426821
v 1.4322996 -0.022690428 1.4426821
v 1.4396 -0.030365905 0.80441254
v 1.4322996 -0.022690428 0.15915771
v 1.5922996 -0.022690428 0.15915771
v 1.5844237 -0.17405243 0.8044124
v 1.5922996 -0.18269043 1.4426821
v 1.5922996 -0.022690428 1.4426821
v 1.5844237 -0.030365905 0.8044124
v 1.5922996 -0.18269043 0.15915783
v 1.5922996 -0.022690428 0.15915771
v 1.4396 -0.17405243 0.80441254
v 1.4322996 -0.18269043 0.15915771
v 1.4322996 -0.022690428 0.15915771
v 1.4396 -0.030365905 0.80441254
v 1.4322996 -0.18269043 1.4426821
v 1.4322996 -0.022690428 1.4426821
vt 0.6537877 0.96247315
vt 0.65378755 0.9980203
vt 0.6900224 0.9980204
vt 0.6900225 0.9624733
vt 0.79735154 0.7499442
vt 0.76180446 0.9624733
vt 0.79735154 0.9624733
vt 0.7618044 0.7499442
vt 0.7618044 0.5374152
vt 0.79735154 0.5374152
vt 0.6537877 0.50186807
vt 0.6537877 0.5374152
vt 0.6900225 0.5374152
vt 0.6900225 0.5018681
vt 0.6900225 0.7499442
vt 0.6900225 0.9624733
vt 0.7255696 0.9624733
vt 0.7255696 0.7499442
vt 0.7255696 0.5374152
vt 0.6900225 0.5374152
vt 0.6537877 0.7499442
vt 0.6537877 0.96247315
vt 0.6900225 0.9624733
vt 0.6900225 0.7499442
vt 0.6537877 0.5374152
vt 0.6900225 0.5374152
vt 0.7618044 0.7499442
vt 0.7618044 0.5374152
vt 0.7255696 0.5374152
vt 0.7255696 0.7499442
vt 0.76180446 0.9624733
vt 0.7255696 0.9624733
vt 0.5406924 0.9624733
vt 0.50445753 0.96247315
vt 0.5044575 0.9980203
vt 0.54069227 0.9980204
vt 0.6124743 0.7499442
vt 0.64802146 0.537441
vt 0.6124743 0.537441
vt 0.64802146 0.7499442
vt 0.64802146 0.9624733
vt 0.6124743 0.9624733
vt 0.50445753 0.7499442
vt 0.5406924 0.5374152
vt 0.50445753 0.5374152
vt 0.5406924 0.7499442
vt 0.50445753 0.96247315
vt 0.5406924 0.9624733
vt 0.5406924 0.7499442
vt 0.5762395 0.5374152
vt 0.5406924 0.5374152
vt 0.5762395 0.7499442
vt 0.5762395 0.9624733
vt 0.5406924 0.9624733
vt 0.6124743 0.7499442
vt 0.6124743 0.537441
vt 0.5762395 0.5374152
vt 0.5762395 0.7499442
vt 0.5762395 0.9624733
vt 0.6124743 0.9624733
vt 0.5406924 0.5018681
vt 0.5044576 0.50186807
vt 0.50445753 0.5374152
vt 0.5406924 0.5374152
vt 0.6124743 0.7499442
vt 0.64802146 0.537441
vt 0.6124743 0.537441
vt 0.64802146 0.7499442
vt 0.64802146 0.9624733
vt 0.6124743 0.9624733
vt 0.50445753 0.7499442
vt 0.5406924 0.5374152
vt 0.50445753 0.5374152
vt 0.5406924 0.7499442
vt 0.50445753 0.96247315
vt 0.5406924 0.9624733
vt 0.5406924 0.7499442
vt 0.5762395 0.5374152
vt 0.5406924 0.5374152
vt 0.5762395 0.7499442
vt 0.5762395 0.9624733
vt 0.5406924 0.9624733
vt 0.6124743 0.7499442
vt 0.6124743 0.537441
vt 0.5762395 0.5374152
vt 0.5762395 0.7499442
vt 0.5762395 0.9624733
vt 0.6124743 0.9624733
vt 0.79735154 0.7499442
vt 0.76180446 0.9624733
vt 0.79735154 0.9624733
vt 0.7618044 0.7499442
vt 0.7618044 0.5374152
vt 0.79735154 0.5374152
vt 0.6900225 0.7499442
vt 0.6900225 0.9624733
vt 0.7255696 0.9624733
vt 0.7255696 0.7499442
vt 0.7255696 0.5374152
vt 0.6900225 0.5374152
vt 0.6537877 0.7499442
vt 0.6537877 0.96247315
vt 0.6900225 0.9624733
vt 0.6900225 0.7499442
vt 0.6537877 0.5374152
vt 0.6900225 0.5374152
vt 0.7618044 0.7499442
vt 0.7618044 0.5374152
vt 0.7255696 0.5374152
vt 0.7255696 0.7499442
vt 0.76180446 0.9624733
vt 0.7255696 0.9624733
vn 1 0 0
vn 1 0 0
vn 1 0 0
vn 1 0 0
vn -2.625531E-07 0 1
vn -0.010838431 0 0.99994123
vn -0.010838433 0 0.99994123
vn -2.5827444E-07 0 1
vn 0.010755507 0 0.9999422
vn 0.010755509 0 0.9999422
vn -1 0 0
vn -1 0 0
vn -1 0 0
vn -1 0 0
vn -2.469016E-07 0 -1
vn -0.010386744 0 -0.9999461
vn -0.010386743 0 -0.9999461
vn -2.4301275E-07 0 -1
vn 0.010307285 0 -0.99994695
vn 0.010307285 0 -0.99994695
vn -2.3426269E-07 -1 0
vn -0.009882393 -0.99995124 0
vn -0.009882393 -0.99995124 0
vn -2.2388154E-07 -1 0
vn 0.009806837 -0.99995196 0
vn 0.009806837 -0.99995196 0
vn -2.7753416E-07 1 0
vn 0.009651291 0.9999535 0
vn 0.009651292 0.9999535 0
vn -2.6716532E-07 1 0
vn -0.009725742 0.9999527 0
vn -0.009725743 0.9999527 0
vn 1 0 0
vn 1 0 0
vn 1 0 0
vn 1 0 0
vn -5.2980334E-07 1 0
vn 0.007619563 0.99997103 0
vn 0.007619563 0.99997103 0
vn -5.344658E-07 1 0
vn -0.007835164 0.99996936 0
vn -0.007835164 0.99996936 0
vn 2.8622215E-05 -0.000120097575 1
vn 0.0076832557 3.9233888E-07 0.99997056
vn 0.0076832557 3.923389E-07 0.99997056
vn 2.8412689E-05 -0.00012010087 1
vn -0.007840275 -0.00024395277 0.99996924
vn -0.007840273 -0.00024395279 0.99996924
vn -3.7975147E-05 -1 -1.8780652E-07
vn 0.0078319255 -0.99996936 0
vn 0.0078319255 -0.99996936 0
vn -3.827388E-05 -1 -1.8781446E-07
vn -0.008132548 -0.999967 -4.023944E-07
vn -0.008132548 -0.999967 -4.023944E-07
vn -1.1316819E-06 -7.8523715E-07 -1
vn 0.0076830043 -7.8588886E-07 -0.99997056
vn 0.0076830033 -7.8588886E-07 -0.99997056
vn -1.34108E-06 -7.8523703E-07 -1
vn -0.007900351 -7.845188E-07 -0.99996877
vn -0.007900352 -7.8451893E-07 -0.99996877
vn -1 0 0
vn -1 0 0
vn -1 0 0
vn -1 0 0
vn 1 0 -3.059956E-07
vn 0.9999515 4.920075E-07 0.00985549
vn 0.9999515 4.920075E-07 0.00985549
vn 1 0 -3.1242797E-07
vn 0.99995005 -4.9919373E-07 -0.0099936025
vn 0.99995005 -4.9919373E-07 -0.0099936025
vn -0.00015326001 1 3.5550893E-05
vn 1.2535943E-07 0.99995327 0.009668433
vn 1.2535943E-07 0.99995327 0.009668433
vn -0.0001532648 1 3.524912E-05
vn -0.000308739 0.9999527 -0.00972973
vn -0.000308739 0.9999527 -0.009729729
vn -1 -2.4696698E-07 -4.7111607E-05
vn -0.9999515 0 0.009855609
vn -0.9999515 0 0.0098556075
vn -1 -2.4697823E-07 -4.757474E-05
vn -0.9999491 -4.9154494E-07 -0.010092005
vn -0.9999491 -4.9154494E-07 -0.010092006
vn -3.1169046E-07 -1 -1.3906842E-06
vn -1.2535938E-07 -0.99995327 0.009668542
vn -1.2535938E-07 -0.99995327 0.009668542
vn -3.1169628E-07 -1 -1.6937688E-06
vn -5.0055286E-07 -0.99995196 -0.009804235
vn -5.0055286E-07 -0.99995196 -0.009804235
vn -0 -1 -5.660094E-07
vn -0 -0.99990845 -0.0135322325
vn -0 -0.99990845 -0.0135322325
vn -0 -1 -5.336691E-07
vn -0 -0.9999105 0.013385756
vn -0 -0.9999105 0.013385755
vn -0 1 -5.013402E-07
vn -0 0.99992776 -0.012024581
vn -0 0.99992776 -0.012024581
vn -0 1 -4.7327697E-07
vn -0 0.9999293 0.011894421
vn -0 0.9999293 0.011894421
vn 1 0 -5.6770284E-07
vn 0.99992394 0 -0.012338635
vn 0.99992394 0 -0.012338635
vn 1 0 -5.057898E-07
vn 0.9999255 0 0.012205089
vn 0.9999255 0 0.012205089
vn -1 0 -5.24461E-07
vn -0.999936 0 0.011313278
vn -0.999936 0 0.011313277
vn -1 0 -4.6745365E-07
vn -0.9999347 0 -0.011437076
vn -0.9999347 0 -0.011437073
g Scaffolding_Wooden_Filler_LOD0_0
f 3/3/3 2/2/2 1/1/1
f 4/4/4 3/3/3 1/1/1
f 7/7/7 6/6/6 5/5/5
f 6/6/6 8/8/8 5/5/5
f 5/5/5 8/8/8 9/9/9
f 10/10/10 5/5/5 9/9/9
f 13/13/13 12/12/12 11/11/11
f 14/14/14 13/13/13 11/11/11
f 17/17/17 16/16/16 15/15/15
f 18/18/18 17/17/17 15/15/15
f 19/19/19 18/18/18 15/15/15
f 20/20/20 19/19/19 15/15/15
f 23/23/23 22/22/22 21/21/21
f 24/24/24 23/23/23 21/21/21
f 21/21/21 25/25/25 24/24/24
f 25/25/25 26/26/26 24/24/24
f 29/29/29 28/28/28 27/27/27
f 30/30/30 29/29/29 27/27/27
f 27/27/27 31/31/31 30/30/30
f 31/31/31 32/32/32 30/30/30
f 35/35/35 34/34/34 33/33/33
f 36/36/36 35/35/35 33/33/33
f 39/39/39 38/38/38 37/37/37
f 38/38/38 40/40/40 37/37/37
f 40/40/40 41/41/41 37/37/37
f 41/41/41 42/42/42 37/37/37
f 45/45/45 44/44/44 43/43/43
f 44/44/44 46/46/46 43/43/43
f 43/43/43 46/46/46 47/47/47
f 46/46/46 48/48/48 47/47/47
f 51/51/51 50/50/50 49/49/49
f 50/50/50 52/52/52 49/49/49
f 52/52/52 53/53/53 49/49/49
f 53/53/53 54/54/54 49/49/49
f 57/57/57 56/56/56 55/55/55
f 58/58/58 57/57/57 55/55/55
f 59/59/59 58/58/58 55/55/55
f 60/60/60 59/59/59 55/55/55
f 63/63/63 62/62/62 61/61/61
f 64/64/64 63/63/63 61/61/61
f 67/67/67 66/66/66 65/65/65
f 66/66/66 68/68/68 65/65/65
f 68/68/68 69/69/69 65/65/65
f 69/69/69 70/70/70 65/65/65
f 73/73/73 72/72/72 71/71/71
f 72/72/72 74/74/74 71/71/71
f 71/71/71 74/74/74 75/75/75
f 74/74/74 76/76/76 75/75/75
f 79/79/79 78/78/78 77/77/77
f 78/78/78 80/80/80 77/77/77
f 80/80/80 81/81/81 77/77/77
f 81/81/81 82/82/82 77/77/77
f 85/85/85 84/84/84 83/83/83
f 86/86/86 85/85/85 83/83/83
f 87/87/87 86/86/86 83/83/83
f 88/88/88 87/87/87 83/83/83
f 91/91/91 90/90/90 89/89/89
f 90/90/90 92/92/92 89/89/89
f 89/89/89 92/92/92 93/93/93
f 94/94/94 89/89/89 93/93/93
f 97/97/97 96/96/96 95/95/95
f 98/98/98 97/97/97 95/95/95
f 99/99/99 98/98/98 95/95/95
f 100/100/100 99/99/99 95/95/95
f 103/103/103 102/102/102 101/101/101
f 104/104/104 103/103/103 101/101/101
f 101/101/101 105/105/105 104/104/104
f 105/105/105 106/106/106 104/104/104
f 109/109/109 108/108/108 107/107/107
f 110/110/110 109/109/109 107/107/107
f 107/107/107 111/111/111 110/110/110
f 111/111/111 112/112/112 110/110/110
