g sci_fi_bench
v -0.2365686 0.50970536 0.32496718
v -0.2365686 0 0.32496718
v -0.2365686 0 0.18232788
v -0.2365686 0.50970536 0.18232788
v 0.15409912 0.4341234 0.21501984
v -0.006442871 0 0.21501984
v -0.006442871 0 0.292275
v 0.15409912 0.4341234 0.292275
v -0.26339722 0 0.18232788
v -0.26339722 0 -0.18232788
v -0.26339722 0.50970536 -0.18232788
v -0.26339722 0.50970536 0.18232788
v 0.08582641 0.50970536 0.18232788
v 0.08582641 0.50970536 -0.18232788
v -0.07471313 0 -0.18232788
v -0.07471313 0 0.18232788
v -0.07471313 0 0.5073456
v 0.08582641 0.50970536 0.5073456
v 0.08582641 0.50970536 0.32496718
v -0.07471313 0 0.32496718
v -0.26339722 0.50970536 0.32496718
v -0.26339722 0.50970536 0.5073456
v -0.26339722 0 0.5073456
v -0.26339722 0 0.32496718
v 0.08582641 0.50970536 0.18232788
v 0.15409912 0.4341234 0.21501984
v 0.15409912 0.4341234 0.292275
v 0.08582641 0.50970536 0.32496718
v 0.08582641 0.50970536 0.32496718
v 0.15409912 0.4341234 0.292275
v -0.006442871 0 0.292275
v -0.07471313 0 0.32496718
v -0.07471313 0 0.32496718
v -0.006442871 0 0.292275
v -0.006442871 0 0.21501984
v -0.07471313 0 0.18232788
v -0.07471313 0 0.18232788
v -0.006442871 0 0.21501984
v 0.15409912 0.4341234 0.21501984
v 0.08582641 0.50970536 0.18232788
v -0.07471313 0 -0.507346
v 0.08582641 0.50970536 -0.507346
v -0.088785395 0.50970536 -0.507346
v -0.26339722 0 -0.507346
v -0.26339722 0.50970536 -0.507346
v -0.2365686 0.50970536 -0.3249677
v -0.2365686 0.50970536 -0.18232788
v -0.2365686 0 -0.18232788
v -0.2365686 0 -0.3249677
v 0.15409912 0.4341234 -0.21502006
v 0.15409912 0.4341234 -0.292275
v -0.006442871 0 -0.292275
v -0.006442871 0 -0.21502006
v -0.07471313 0 -0.507346
v -0.07471313 0 -0.3249677
v 0.08582641 0.50970536 -0.3249677
v 0.08582641 0.50970536 -0.507346
v -0.26339722 0.50970536 -0.3249677
v -0.26339722 0 -0.3249677
v -0.26339722 0 -0.507346
v -0.26339722 0.50970536 -0.507346
v 0.08582641 0.50970536 -0.18232788
v 0.08582641 0.50970536 -0.3249677
v 0.15409912 0.4341234 -0.292275
v 0.15409912 0.4341234 -0.21502006
v 0.08582641 0.50970536 -0.3249677
v -0.07471313 0 -0.3249677
v -0.006442871 0 -0.292275
v 0.15409912 0.4341234 -0.292275
v -0.07471313 0 -0.3249677
v -0.07471313 0 -0.18232788
v -0.006442871 0 -0.21502006
v -0.006442871 0 -0.292275
v -0.07471313 0 -0.18232788
v 0.08582641 0.50970536 -0.18232788
v 0.15409912 0.4341234 -0.21502006
v -0.006442871 0 -0.21502006
v -0.26339722 0.50970536 0.18232788
v -0.2365686 0.50970536 0.18232788
v -0.2365686 0 0.18232788
v -0.26339722 0 0.18232788
v -0.26339722 0 0.32496718
v -0.2365686 0 0.32496718
v -0.2365686 0.50970536 0.32496718
v -0.26339722 0.50970536 0.32496718
v -0.26339722 0.50970536 -0.3249677
v -0.2365686 0.50970536 -0.3249677
v -0.2365686 0 -0.3249677
v -0.26339722 0 -0.3249677
v -0.26339722 0 -0.18232788
v -0.2365686 0 -0.18232788
v -0.2365686 0.50970536 -0.18232788
v -0.26339722 0.50970536 -0.18232788
v -0.07471313 0 0.32496718
v -0.26339722 0 0.5073456
v -0.07471313 0 0.5073456
v -0.2365686 0 0.32496718
v -0.26339722 0 0.32496718
v -0.2365686 0 0.18232788
v -0.07471313 0 0.18232788
v -0.07471313 0 -0.18232788
v -0.2365686 0 -0.18232788
v -0.26339722 0 0.18232788
v -0.26339722 0 -0.18232788
v -0.07471313 0 -0.3249677
v -0.2365686 0 -0.3249677
v -0.07471313 0 -0.507346
v -0.26339722 0 -0.507346
v -0.26339722 0 -0.3249677
v -0.088785395 0.50970536 0.5073456
v 0.08582641 0.50970536 0.5073456
v -0.07471313 0 0.5073456
v -0.26339722 0 0.5073456
v -0.26339722 0.50970536 0.5073456
v -0.26485595 0.60202557 -0.51758164
v -0.26485595 0.60202557 0.5175825
v -0.30427855 0.57665753 0.54295003
v -0.30427855 0.57665753 -0.54295003
v -0.26485595 0.60202557 0.5175825
v 0.19595337 0.60202557 0.5175825
v 0.20645995 0.57665753 0.54295003
v -0.30427855 0.57665753 0.54295003
v 0.19595337 0.60202557 0.5175825
v 0.32349485 0.60202557 0.39004165
v 0.3488623 0.57665753 0.4005487
v 0.20645995 0.57665753 0.54295003
v -0.30427855 0.57665753 -0.54295003
v 0.20645995 0.57665753 -0.54295003
v 0.19595337 0.60202557 -0.51758164
v -0.26485595 0.60202557 -0.51758164
v 0.20645995 0.57665753 -0.54295003
v 0.3488623 0.57665753 -0.4005477
v 0.32349485 0.60202557 -0.3900402
v 0.19595337 0.60202557 -0.51758164
v 0.3488623 0.57665753 -0.4005477
v 0.3488623 0.57665753 0.4005487
v 0.32349485 0.60202557 0.39004165
v 0.32349485 0.60202557 -0.3900402
v 0.20645995 0.57665753 0.54295003
v 0.20645995 0.50970536 0.54295003
v -0.30427855 0.50970536 0.54295003
v -0.30427855 0.57665753 0.54295003
v 0.19595337 0.60202557 -0.51758164
v -0.26485595 0.60202557 0.5175825
v -0.26485595 0.60202557 -0.51758164
v 0.19595337 0.60202557 0.5175825
v 0.32349485 0.60202557 -0.3900402
v 0.32349485 0.60202557 0.39004165
v -0.30427855 0.50970536 -0.54295003
v -0.30427855 0.57665753 -0.54295003
v -0.30427855 0.57665753 0.54295003
v -0.30427855 0.50970536 0.54295003
v -0.26485595 0.4843372 0.5175825
v -0.30427855 0.50970536 0.54295003
v 0.20645995 0.50970536 0.54295003
v 0.19595337 0.4843372 0.5175825
v 0.19595337 0.4843372 0.5175825
v 0.20645995 0.50970536 0.54295003
v 0.3488623 0.50970536 0.4005487
v 0.32349485 0.4843372 0.39004165
v -0.30427855 0.50970536 -0.54295003
v -0.26485595 0.4843372 -0.51758164
v 0.19595337 0.4843372 -0.51758164
v 0.20645995 0.50970536 -0.54295003
v 0.20645995 0.50970536 -0.54295003
v 0.19595337 0.4843372 -0.51758164
v 0.32349485 0.4843372 -0.3900402
v 0.3488623 0.50970536 -0.4005477
v 0.20645995 0.57665753 -0.54295003
v -0.30427855 0.57665753 -0.54295003
v -0.30427855 0.50970536 -0.54295003
v 0.20645995 0.50970536 -0.54295003
v 0.20645995 0.57665753 0.54295003
v 0.3488623 0.57665753 0.4005487
v 0.3488623 0.50970536 0.4005487
v 0.20645995 0.50970536 0.54295003
v 0.3488623 0.57665753 -0.4005477
v 0.20645995 0.57665753 -0.54295003
v 0.20645995 0.50970536 -0.54295003
v 0.3488623 0.50970536 -0.4005477
v -0.26485595 0.4843372 -0.51758164
v -0.30427855 0.50970536 -0.54295003
v -0.30427855 0.50970536 0.54295003
v -0.26485595 0.4843372 0.5175825
v 0.19595337 0.4843372 -0.51758164
v -0.26485595 0.4843372 -0.51758164
v -0.26485595 0.4843372 0.5175825
v 0.19595337 0.4843372 0.5175825
v 0.32349485 0.4843372 -0.3900402
v 0.32349485 0.4843372 0.39004165
v 0.3488623 0.50970536 -0.4005477
v 0.32349485 0.4843372 -0.3900402
v 0.32349485 0.4843372 0.39004165
v 0.3488623 0.50970536 0.4005487
v 0.3488623 0.57665753 -0.4005477
v 0.3488623 0.50970536 -0.4005477
v 0.3488623 0.50970536 0.4005487
v 0.3488623 0.57665753 0.4005487
v -0.2233252 0.619911 0.525065
v -0.2233252 1.1490194 0.525065
v -0.2233252 1.1490194 -0.52506393
v -0.2233252 0.619911 -0.52506405
v -0.26338866 0.6020257 0.54295003
v -0.2233252 0.619911 0.525065
v -0.2233252 0.619911 -0.52506405
v -0.26338866 0.6020257 -0.54295003
v -0.26338866 0.6020257 -0.54295003
v -0.2233252 0.619911 -0.52506405
v -0.2233252 1.1490194 -0.52506393
v -0.26338866 1.1669047 -0.54295003
v -0.26338866 1.1669047 -0.54295003
v -0.2233252 1.1490194 -0.52506393
v -0.2233252 1.1490194 0.525065
v -0.26338866 1.1669047 0.54295003
v -0.26338866 1.1669047 0.54295003
v -0.2233252 1.1490194 0.525065
v -0.2233252 0.619911 0.525065
v -0.26338866 0.6020257 0.54295003
v -0.26338866 0.6020257 0.54295003
v -0.30879638 0.6020257 0.54295003
v -0.30879638 1.1669047 0.54295003
v -0.26338866 1.1669047 0.54295003
v -0.26338866 1.1669047 -0.54295003
v -0.30879638 1.1669047 -0.54295003
v -0.30879638 0.6020257 -0.54295003
v -0.26338866 0.6020257 -0.54295003
v -0.26338866 0.6020257 -0.54295003
v -0.30879638 0.6020257 -0.54295003
v -0.30879638 0.6020257 0.54295003
v -0.26338866 0.6020257 0.54295003
v -0.26338866 1.1669047 0.54295003
v -0.30879638 1.1669047 0.54295003
v -0.30879638 1.1669047 -0.54295003
v -0.26338866 1.1669047 -0.54295003
v -0.3488623 0.619911 0.525065
v -0.3488623 0.619911 -0.52506405
v -0.3488623 1.1490194 -0.52506393
v -0.3488623 1.1490194 0.525065
v -0.30879638 0.6020257 0.54295003
v -0.30879638 0.6020257 -0.54295003
v -0.3488623 0.619911 -0.52506405
v -0.3488623 0.619911 0.525065
v -0.30879638 0.6020257 -0.54295003
v -0.30879638 1.1669047 -0.54295003
v -0.3488623 1.1490194 -0.52506393
v -0.3488623 0.619911 -0.52506405
v -0.30879638 1.1669047 -0.54295003
v -0.30879638 1.1669047 0.54295003
v -0.3488623 1.1490194 0.525065
v -0.3488623 1.1490194 -0.52506393
v -0.30879638 1.1669047 0.54295003
v -0.30879638 0.6020257 0.54295003
v -0.3488623 0.619911 0.525065
v -0.3488623 1.1490194 0.525065
vt 0.45701802 0.77689934
vt 0.45645443 0.71103024
vt 0.4398413 0.71107256
vt 0.43933442 0.77652735
vt 0.5881249 0.7537394
vt 0.5903246 0.70811623
vt 0.5827097 0.7077492
vt 0.58051014 0.7533724
vt 0.43668562 0.7110115
vt 0.3908901 0.71100926
vt 0.39147347 0.77644444
vt 0.4360973 0.7764391
vt 0.59736204 0.7588491
vt 0.6333473 0.7589575
vt 0.6335061 0.70622253
vt 0.5975209 0.706114
vt 0.55781615 0.70339876
vt 0.5529091 0.7559053
vt 0.57082874 0.7575799
vt 0.5757357 0.7050734
vt 0.46036983 0.7769233
vt 0.4838919 0.7769965
vt 0.48325783 0.7102407
vt 0.4596535 0.71094555
vt 0.5908632 0.7639341
vt 0.5881249 0.7537394
vt 0.58051014 0.7533724
vt 0.57680357 0.76325625
vt 0.57082874 0.7575799
vt 0.58051014 0.7533724
vt 0.5827097 0.7077492
vt 0.5757357 0.7050734
vt 0.5798117 0.7008645
vt 0.5827097 0.7077492
vt 0.5903246 0.70811623
vt 0.59387153 0.7015423
vt 0.5975209 0.706114
vt 0.5903246 0.70811623
vt 0.5881249 0.7537394
vt 0.59736204 0.7588491
vt 0.6732267 0.7037468
vt 0.6778169 0.75628185
vt 0.69373924 0.74969447
vt 0.6904325 0.6966285
vt 0.7096616 0.74310696
vt 0.37056062 0.77690864
vt 0.3882525 0.7765335
vt 0.38773626 0.7110704
vt 0.3711208 0.7110256
vt 0.64261484 0.75390375
vt 0.6502317 0.75358254
vt 0.6483073 0.70794696
vt 0.6406904 0.70826817
vt 0.6732267 0.7037468
vt 0.65529734 0.70531327
vt 0.65988743 0.75784844
vt 0.6778169 0.75628185
vt 0.36719447 0.776931
vt 0.3679184 0.71094066
vt 0.3443113 0.71023184
vt 0.3436718 0.77700514
vt 0.63981503 0.7640817
vt 0.65387857 0.7634887
vt 0.6502317 0.75358254
vt 0.64261484 0.75390375
vt 0.65988743 0.75784844
vt 0.65529734 0.70531327
vt 0.6483073 0.70794696
vt 0.6502317 0.75358254
vt 0.65124685 0.70107985
vt 0.6371833 0.70167303
vt 0.6406904 0.70826817
vt 0.6483073 0.70794696
vt 0.6335061 0.70622253
vt 0.6333473 0.7589575
vt 0.64261484 0.75390375
vt 0.6406904 0.70826817
vt 0.4360973 0.7764391
vt 0.43933442 0.77652735
vt 0.4398413 0.71107256
vt 0.43668562 0.7110115
vt 0.4596535 0.71094555
vt 0.45645443 0.71103024
vt 0.45701802 0.77689934
vt 0.46036983 0.7769233
vt 0.36719447 0.776931
vt 0.37056062 0.77690864
vt 0.3711208 0.7110256
vt 0.3679184 0.71094066
vt 0.3908901 0.71100926
vt 0.38773626 0.7110704
vt 0.3882525 0.7765335
vt 0.39147347 0.77644444
vt 0.45778793 0.68501496
vt 0.48325783 0.7102407
vt 0.4823157 0.6845944
vt 0.4587986 0.7074255
vt 0.4596535 0.71094555
vt 0.43714926 0.7074729
vt 0.43760312 0.68539214
vt 0.3899762 0.6853906
vt 0.39042866 0.7074716
vt 0.43668562 0.7110115
vt 0.3908901 0.71100926
vt 0.36979106 0.6850092
vt 0.3687763 0.7074206
vt 0.34526122 0.6845814
vt 0.3443113 0.71023184
vt 0.3679184 0.71094066
vt 0.5370269 0.74922186
vt 0.5529091 0.7559053
vt 0.55781615 0.70339876
vt 0.5406536 0.6961768
vt 0.5211445 0.7425385
vt 0.6728655 0.9661964
vt 0.5397246 0.96804637
vt 0.5365538 0.97415346
vt 0.67620546 0.9722133
vt 0.5397246 0.96804637
vt 0.5400068 0.9103139
vt 0.5358256 0.9088433
vt 0.53485906 0.9727904
vt 0.5400068 0.9103139
vt 0.55524874 0.8938254
vt 0.5521724 0.8897901
vt 0.5358256 0.9088433
vt 0.67786306 0.9708029
vt 0.6751077 0.9069079
vt 0.67096853 0.9084941
vt 0.6728655 0.9661964
vt 0.6751077 0.9069079
vt 0.65823126 0.88831645
vt 0.65527177 0.89243746
vt 0.67096853 0.9084941
vt 0.6568586 0.88782626
vt 0.5535341 0.88925946
vt 0.55524874 0.8938254
vt 0.65527177 0.89243746
vt 0.5358256 0.9088433
vt 0.52788854 0.90705293
vt 0.52600825 0.97247267
vt 0.53485906 0.9727904
vt 0.67096853 0.9084941
vt 0.5397246 0.96804637
vt 0.6728655 0.9661964
vt 0.5400068 0.9103139
vt 0.65527177 0.89243746
vt 0.55524874 0.8938254
vt 0.67632735 0.9808703
vt 0.67620546 0.9722133
vt 0.5365538 0.97415346
vt 0.536673 0.9828103
vt 0.53492683 0.7985109
vt 0.53008276 0.793403
vt 0.53124094 0.8611773
vt 0.53596467 0.85940254
vt 0.53596467 0.85940254
vt 0.53124094 0.8611773
vt 0.55081224 0.88021123
vt 0.5534178 0.87591386
vt 0.6776734 0.7913588
vt 0.6729694 0.7965979
vt 0.6735991 0.8574955
vt 0.6783693 0.859139
vt 0.6783693 0.859139
vt 0.6735991 0.8574955
vt 0.65660614 0.87448347
vt 0.6593321 0.8787099
vt 0.6751077 0.9069079
vt 0.67786306 0.9708029
vt 0.6867026 0.970238
vt 0.68299156 0.9048989
vt 0.5358256 0.9088433
vt 0.5521724 0.8897901
vt 0.54482466 0.88454264
vt 0.52788854 0.90705293
vt 0.65823126 0.88831645
vt 0.6751077 0.9069079
vt 0.68299156 0.9048989
vt 0.6654359 0.8828577
vt 0.6729694 0.7965979
vt 0.67626077 0.79033256
vt 0.531464 0.7923397
vt 0.53492683 0.7985109
vt 0.6735991 0.8574955
vt 0.6729694 0.7965979
vt 0.53492683 0.7985109
vt 0.53596467 0.85940254
vt 0.65660614 0.87448347
vt 0.5534178 0.87591386
vt 0.65750265 0.87917703
vt 0.65660614 0.87448347
vt 0.5534178 0.87591386
vt 0.55265087 0.88063097
vt 0.6568586 0.88782626
vt 0.65750265 0.87917703
vt 0.55265087 0.88063097
vt 0.5535341 0.88925946
vt 0.3436506 0.82172006
vt 0.34370175 0.8883469
vt 0.47882354 0.88818747
vt 0.47880468 0.8215544
vt 0.34127662 0.8160869
vt 0.3436506 0.82172006
vt 0.47880468 0.8215544
vt 0.48116568 0.81591195
vt 0.48447838 0.8194834
vt 0.47880468 0.8215544
vt 0.47882354 0.88818747
vt 0.48448387 0.89028305
vt 0.48119098 0.8938135
vt 0.47882354 0.88818747
vt 0.34370175 0.8883469
vt 0.34134123 0.893981
vt 0.33803222 0.8904519
vt 0.34370175 0.8883469
vt 0.3436506 0.82172006
vt 0.33799002 0.81965595
vt 0.33799002 0.81965595
vt 0.33222094 0.81963456
vt 0.33226433 0.8904281
vt 0.33803222 0.8904519
vt 0.48448387 0.89028305
vt 0.4902448 0.89025617
vt 0.49024266 0.8194565
vt 0.48447838 0.8194834
vt 0.48116568 0.81591195
vt 0.48117116 0.8100662
vt 0.3412641 0.81024134
vt 0.34127662 0.8160869
vt 0.34134123 0.893981
vt 0.34042937 0.8998528
vt 0.4821164 0.89968145
vt 0.48119098 0.8938135
vt 0.34212852 0.9743559
vt 0.48074946 0.9741863
vt 0.48058692 0.905283
vt 0.34195077 0.90545565
vt 0.33969626 0.9798186
vt 0.48322025 0.9796407
vt 0.48074946 0.9741863
vt 0.34212852 0.9743559
vt 0.4864947 0.9762145
vt 0.48633108 0.9031353
vt 0.48058692 0.905283
vt 0.48074946 0.9741863
vt 0.4821164 0.89968145
vt 0.34042937 0.8998528
vt 0.34195077 0.90545565
vt 0.48058692 0.905283
vt 0.3362122 0.9033292
vt 0.33641043 0.976413
vt 0.34212852 0.9743559
vt 0.34195077 0.90545565
vn -1 0 0
vn -1 0 0
vn -1 0 0
vn -1 0 0
vn 0.9379206 -0.34684992 0
vn 0.9379206 -0.34684992 0
vn 0.9379206 -0.34684992 0
vn 0.9379206 -0.34684992 0
vn -1 0 0
vn -1 0 0
vn -1 0 0
vn -1 0 0
vn 0.9538081 -0.30041656 0
vn 0.9538081 -0.30041656 0
vn 0.9538081 -0.30041656 0
vn 0.9538081 -0.30041656 0
vn 0.9538081 -0.3004165 0
vn 0.9538081 -0.3004165 0
vn 0.9538081 -0.3004165 0
vn 0.9538081 -0.3004165 0
vn -1 0 0
vn -1 0 0
vn -1 0 0
vn -1 0 0
vn 0.74207747 0.6703141 0
vn 0.74207747 0.670314 0
vn 0.74207747 0.670314 0
vn 0.74207747 0.6703141 0
vn 0.3707808 -0.12613611 0.9201149
vn 0.37078083 -0.12613612 0.9201149
vn 0.3707808 -0.12613611 0.9201149
vn 0.37078083 -0.12613611 0.9201149
vn -0 -1 0
vn -0 -1 0
vn -0 -1 0
vn -0 -1 0
vn 0.37077874 -0.12613535 -0.92011577
vn 0.37077883 -0.12613538 -0.92011577
vn 0.3707788 -0.12613538 -0.92011577
vn 0.3707788 -0.12613538 -0.92011577
vn -0 0 -1
vn -0 0 -1
vn -0 0 -1
vn -0 0 -1
vn -0 0 -1
vn -1 0 0
vn -1 0 0
vn -1 0 0
vn -1 0 0
vn 0.9379207 -0.3468499 0
vn 0.9379207 -0.3468499 0
vn 0.9379207 -0.3468499 0
vn 0.9379207 -0.3468499 0
vn 0.9538081 -0.3004166 0
vn 0.9538081 -0.3004166 0
vn 0.9538081 -0.3004166 0
vn 0.9538081 -0.3004166 0
vn -1 0 0
vn -1 0 0
vn -1 0 0
vn -1 0 0
vn 0.74207747 0.670314 0
vn 0.74207747 0.670314 0
vn 0.74207747 0.670314 0
vn 0.74207747 0.670314 0
vn 0.37078616 -0.12613784 -0.92011243
vn 0.3707862 -0.12613782 -0.92011243
vn 0.3707862 -0.12613784 -0.92011243
vn 0.3707862 -0.12613784 -0.92011243
vn -0 -1 0
vn -0 -1 0
vn -0 -1 0
vn -0 -1 0
vn 0.3707807 -0.12613611 0.9201149
vn 0.3707807 -0.12613611 0.9201149
vn 0.37078065 -0.12613611 0.9201149
vn 0.3707807 -0.12613611 0.9201149
vn -0 0 1
vn -0 0 1
vn -0 0 1
vn -0 0 1
vn -0 0 -1
vn -0 0 -1
vn -0 0 -1
vn -0 0 -1
vn -0 0 1
vn -0 0 1
vn -0 0 1
vn -0 0 1
vn -0 0 -1
vn -0 0 -1
vn -0 0 -1
vn -0 0 -1
vn -0 -1 0
vn -0 -1 0
vn -0 -1 0
vn -0 -1 0
vn -0 -1 0
vn -0 -1 0
vn -0 -1 0
vn -0 -1 0
vn -0 -1 0
vn -0 -1 0
vn -0 -1 0
vn -0 -1 0
vn -0 -1 0
vn -0 -1 0
vn -0 -1 0
vn -0 -1 0
vn -0 0 1
vn -0 0 1
vn -0 0 1
vn -0 0 1
vn -0 0 1
vn -0.54113376 0.84093654 0
vn -0.54113376 0.8409365 0
vn -0.54113376 0.8409365 0
vn -0.54113376 0.8409365 0
vn -0 0.70710075 0.7071127
vn -0 0.70710075 0.7071128
vn -0 0.70710075 0.7071127
vn -0 0.70710075 0.7071127
vn 0.5000088 0.7070919 0.5000121
vn 0.5000088 0.707092 0.5000121
vn 0.5000088 0.707092 0.5000121
vn 0.50000876 0.707092 0.5000121
vn -0 0.70711243 -0.70710105
vn -0 0.70711243 -0.70710105
vn -0 0.70711243 -0.70710105
vn -0 0.7071125 -0.70710105
vn 0.50000626 0.7070984 -0.50000554
vn 0.50000626 0.7070983 -0.50000554
vn 0.50000626 0.7070983 -0.50000554
vn 0.50000626 0.7070983 -0.50000554
vn 0.70711553 0.70709807 0
vn 0.70711553 0.70709807 0
vn 0.70711553 0.707098 0
vn 0.70711553 0.707098 0
vn -0 0 1
vn -0 0 1
vn -0 0 1
vn -0 0 1
vn -0 1 0
vn -0 1 0
vn -0 1 0
vn -0 1 0
vn -0 1 0
vn -0 1 0
vn -1 0 0
vn -1 0 0
vn -1 0 0
vn -1 0 0
vn -0 -0.7070987 0.70711476
vn -0 -0.7070988 0.7071147
vn -0 -0.7070987 0.70711476
vn -0 -0.7070987 0.70711476
vn 0.50000966 -0.707091 0.5000127
vn 0.50000966 -0.707091 0.5000127
vn 0.50000966 -0.707091 0.5000127
vn 0.50000966 -0.707091 0.5000127
vn -0 -0.70711046 -0.707103
vn -0 -0.7071104 -0.7071031
vn -0 -0.70711046 -0.7071031
vn -0 -0.70711046 -0.7071031
vn 0.50000644 -0.7070975 -0.5000066
vn 0.50000644 -0.7070975 -0.5000066
vn 0.50000644 -0.7070975 -0.5000066
vn 0.50000644 -0.7070975 -0.5000066
vn -0 0 -1
vn -0 0 -1
vn -0 0 -1
vn -0 0 -1
vn 0.7071044 0 0.7071091
vn 0.7071044 0 0.7071091
vn 0.7071044 0 0.7071091
vn 0.7071044 0 0.7071091
vn 0.70710695 0 -0.7071066
vn 0.70710695 0 -0.7071066
vn 0.70710695 0 -0.7071066
vn 0.70710695 0 -0.7071066
vn -0.541135 -0.8409357 0
vn -0.541135 -0.8409357 0
vn -0.541135 -0.8409357 0
vn -0.541135 -0.8409357 0
vn -0 -1 0
vn -0 -1 0
vn -0 -1 0
vn -0 -1 0
vn -0 -1 0
vn -0 -1 0
vn 0.7071166 -0.70709693 0
vn 0.70711666 -0.7070969 0
vn 0.70711666 -0.7070969 0
vn 0.70711666 -0.7070968 0
vn 1 0 0
vn 1 0 0
vn 1 0 0
vn 1 0 0
vn 1 0 0
vn 1 0 0
vn 1 0 0
vn 1 0 0
vn 0.40764862 -0.9131389 0
vn 0.40764865 -0.9131389 0
vn 0.40764862 -0.9131389 0
vn 0.40764868 -0.9131389 0
vn 0.40766102 1.271608E-07 -0.9131333
vn 0.407661 1.271608E-07 -0.9131333
vn 0.40766102 1.2716082E-07 -0.9131333
vn 0.40766102 1.271608E-07 -0.9131333
vn 0.4076469 0.9131396 0
vn 0.40764683 0.9131396 0
vn 0.4076469 0.9131396 0
vn 0.40764683 0.9131396 0
vn 0.40764183 0 0.9131419
vn 0.4076418 0 0.9131419
vn 0.40764177 0 0.91314197
vn 0.40764177 0 0.9131419
vn -0 0 1
vn -0 0 1
vn -0 0 1
vn -0 0 1
vn -0 0 -1
vn -0 0 -1
vn -0 0 -1
vn -0 0 -1
vn -0 -1 0
vn -0 -1 0
vn -0 -1 0
vn -0 -1 0
vn -0 1 0
vn -0 1 0
vn -0 1 0
vn -0 1 0
vn -1 0 0
vn -1 0 0
vn -1 0 0
vn -1 0 0
vn -0.4076278 -0.91314816 0
vn -0.4076278 -0.91314816 0
vn -0.4076278 -0.91314816 0
vn -0.4076278 -0.91314816 0
vn -0.40764055 1.4304865E-07 -0.9131425
vn -0.40764055 1.4304865E-07 -0.9131425
vn -0.40764055 1.4304864E-07 -0.9131425
vn -0.4076406 1.4304864E-07 -0.9131425
vn -0.40762627 0.9131488 0
vn -0.40762636 0.9131488 0
vn -0.4076263 0.9131488 0
vn -0.40762627 0.9131488 0
vn -0.40762103 0 0.91315114
vn -0.40762103 0 0.91315114
vn -0.40762103 0 0.91315114
vn -0.40762103 0 0.91315114
g sci_fi_bench_0
f 3/3/3 2/2/2 1/1/1
f 4/4/4 3/3/3 1/1/1
f 7/7/7 6/6/6 5/5/5
f 8/8/8 7/7/7 5/5/5
f 11/11/11 10/10/10 9/9/9
f 12/12/12 11/11/11 9/9/9
f 15/15/15 14/14/14 13/13/13
f 16/16/16 15/15/15 13/13/13
f 19/19/19 18/18/18 17/17/17
f 20/20/20 19/19/19 17/17/17
f 23/23/23 22/22/22 21/21/21
f 24/24/24 23/23/23 21/21/21
f 27/27/27 26/26/26 25/25/25
f 28/28/28 27/27/27 25/25/25
f 31/31/31 30/30/30 29/29/29
f 32/32/32 31/31/31 29/29/29
f 35/35/35 34/34/34 33/33/33
f 36/36/36 35/35/35 33/33/33
f 39/39/39 38/38/38 37/37/37
f 40/40/40 39/39/39 37/37/37
f 43/43/43 42/42/42 41/41/41
f 41/41/41 44/44/44 43/43/43
f 44/44/44 45/45/45 43/43/43
f 48/48/48 47/47/47 46/46/46
f 49/49/49 48/48/48 46/46/46
f 52/52/52 51/51/51 50/50/50
f 53/53/53 52/52/52 50/50/50
f 56/56/56 55/55/55 54/54/54
f 57/57/57 56/56/56 54/54/54
f 60/60/60 59/59/59 58/58/58
f 61/61/61 60/60/60 58/58/58
f 64/64/64 63/63/63 62/62/62
f 65/65/65 64/64/64 62/62/62
f 68/68/68 67/67/67 66/66/66
f 69/69/69 68/68/68 66/66/66
f 72/72/72 71/71/71 70/70/70
f 73/73/73 72/72/72 70/70/70
f 76/76/76 75/75/75 74/74/74
f 77/77/77 76/76/76 74/74/74
f 80/80/80 79/79/79 78/78/78
f 81/81/81 80/80/80 78/78/78
f 84/84/84 83/83/83 82/82/82
f 85/85/85 84/84/84 82/82/82
f 88/88/88 87/87/87 86/86/86
f 89/89/89 88/88/88 86/86/86
f 92/92/92 91/91/91 90/90/90
f 93/93/93 92/92/92 90/90/90
f 96/96/96 95/95/95 94/94/94
f 95/95/95 97/97/97 94/94/94
f 95/95/95 98/98/98 97/97/97
f 97/97/97 99/99/99 94/94/94
f 99/99/99 100/100/100 94/94/94
f 100/100/100 99/99/99 101/101/101
f 99/99/99 102/102/102 101/101/101
f 99/99/99 103/103/103 102/102/102
f 103/103/103 104/104/104 102/102/102
f 101/101/101 102/102/102 105/105/105
f 102/102/102 106/106/106 105/105/105
f 105/105/105 106/106/106 107/107/107
f 106/106/106 108/108/108 107/107/107
f 106/106/106 109/109/109 108/108/108
f 112/112/112 111/111/111 110/110/110
f 110/110/110 113/113/113 112/112/112
f 110/110/110 114/114/114 113/113/113
f 117/117/117 116/116/116 115/115/115
f 118/118/118 117/117/117 115/115/115
f 121/121/121 120/120/120 119/119/119
f 122/122/122 121/121/121 119/119/119
f 125/125/125 124/124/124 123/123/123
f 126/126/126 125/125/125 123/123/123
f 129/129/129 128/128/128 127/127/127
f 130/130/130 129/129/129 127/127/127
f 133/133/133 132/132/132 131/131/131
f 134/134/134 133/133/133 131/131/131
f 137/137/137 136/136/136 135/135/135
f 138/138/138 137/137/137 135/135/135
f 141/141/141 140/140/140 139/139/139
f 142/142/142 141/141/141 139/139/139
f 145/145/145 144/144/144 143/143/143
f 144/144/144 146/146/146 143/143/143
f 143/143/143 146/146/146 147/147/147
f 146/146/146 148/148/148 147/147/147
f 151/151/151 150/150/150 149/149/149
f 152/152/152 151/151/151 149/149/149
f 155/155/155 154/154/154 153/153/153
f 156/156/156 155/155/155 153/153/153
f 159/159/159 158/158/158 157/157/157
f 160/160/160 159/159/159 157/157/157
f 163/163/163 162/162/162 161/161/161
f 164/164/164 163/163/163 161/161/161
f 167/167/167 166/166/166 165/165/165
f 168/168/168 167/167/167 165/165/165
f 171/171/171 170/170/170 169/169/169
f 172/172/172 171/171/171 169/169/169
f 175/175/175 174/174/174 173/173/173
f 176/176/176 175/175/175 173/173/173
f 179/179/179 178/178/178 177/177/177
f 180/180/180 179/179/179 177/177/177
f 183/183/183 182/182/182 181/181/181
f 184/184/184 183/183/183 181/181/181
f 187/187/187 186/186/186 185/185/185
f 188/188/188 187/187/187 185/185/185
f 188/188/188 185/185/185 189/189/189
f 190/190/190 188/188/188 189/189/189
f 193/193/193 192/192/192 191/191/191
f 194/194/194 193/193/193 191/191/191
f 197/197/197 196/196/196 195/195/195
f 198/198/198 197/197/197 195/195/195
f 201/201/201 200/200/200 199/199/199
f 202/202/202 201/201/201 199/199/199
f 205/205/205 204/204/204 203/203/203
f 206/206/206 205/205/205 203/203/203
f 209/209/209 208/208/208 207/207/207
f 210/210/210 209/209/209 207/207/207
f 213/213/213 212/212/212 211/211/211
f 214/214/214 213/213/213 211/211/211
f 217/217/217 216/216/216 215/215/215
f 218/218/218 217/217/217 215/215/215
f 221/221/221 220/220/220 219/219/219
f 222/222/222 221/221/221 219/219/219
f 225/225/225 224/224/224 223/223/223
f 226/226/226 225/225/225 223/223/223
f 229/229/229 228/228/228 227/227/227
f 230/230/230 229/229/229 227/227/227
f 233/233/233 232/232/232 231/231/231
f 234/234/234 233/233/233 231/231/231
f 237/237/237 236/236/236 235/235/235
f 238/238/238 237/237/237 235/235/235
f 241/241/241 240/240/240 239/239/239
f 242/242/242 241/241/241 239/239/239
f 245/245/245 244/244/244 243/243/243
f 246/246/246 245/245/245 243/243/243
f 249/249/249 248/248/248 247/247/247
f 250/250/250 249/249/249 247/247/247
f 253/253/253 252/252/252 251/251/251
f 254/254/254 253/253/253 251/251/251
