g skydome
v -0.5170385 -8.940697E-08 -0.738758
v -0.6427814 -8.940697E-08 -0.64302176
v -0.602792 0.04944828 -0.6023954
v -0.7401896 -8.940697E-08 -0.5164457
v -0.4944968 0.054477096 -0.6785142
v -0.3638971 -2.9802322E-08 -0.8111504
v -0.6806761 0.053828984 -0.49391356
v -0.8123843 -2.9802322E-08 -0.36230478
v -0.35240862 0.06421116 -0.73774844
v -0.18664104 0 -0.8583351
v -0.74035764 0.06279421 -0.3514209
v -0.85916615 0 -0.18571848
v -0.18220115 0.07255587 -0.77776265
v 0.0045741694 2.9802322E-08 -0.8747195
v -0.7806885 0.070608646 -0.18201655
v -0.8752542 0 0.0037683789
v 0.0038335137 0.07560077 -0.7918763
v 0.19460857 0 -0.85734016
v -0.7950661 0.07345143 0.0026127342
v -0.85812443 0 0.19231758
v 0.18896627 0.071998924 -0.7769989
v 0.36914858 -2.9802322E-08 -0.8100088
v -0.7804503 0.07003394 0.1867882
v -0.8111663 -2.9802322E-08 0.36697805
v 0.35704303 0.06338522 -0.7368063
v 0.5198734 -8.940697E-08 -0.73830384
v -0.74008894 0.06187612 0.3552982
v -0.7387707 -8.940697E-08 0.5194372
v 0.49715835 0.053790063 -0.67798615
v 0.6439732 -8.940697E-08 -0.64289707
v -0.6801156 0.052761197 0.49712843
v -0.6402424 -1.1920929E-07 0.644028
v 0.60417986 0.049061447 -0.60206723
v 0.7405013 -8.940697E-08 -0.51638097
v -0.60120624 0.048188597 0.60459536
v -0.51474005 -8.940697E-08 0.74174833
v -0.4929223 0.052811682 0.6830098
v -0.3606471 -2.9802322E-08 0.8132714
v -0.5679602 0.0827204 0.5711399
v -0.6033407 0.096931815 0.48640078
v -0.35010022 0.06153235 0.7427739
v -0.18432319 0 0.85966545
v -0.48260856 0.096365035 0.60651356
v -0.6437415 0.113391936 0.35067973
v -0.18051499 0.06915882 0.783133
v 0.0047272868 0 0.87579364
v -0.34662157 0.1122421 0.64767873
v -0.17964567 0.12423158 0.6786264
v -0.49526915 0.12803715 0.49910355
v 0.00404736 0.071983635 0.7974047
v 0.19274156 0 0.8588182
v -0.67377424 0.12592494 0.18398736
v -0.3529788 0.15225339 0.5231506
v -0.5184057 0.15270144 0.3565541
v 0.1878116 0.06870654 0.7824516
v 0.3665825 -2.9802322E-08 0.8119697
v -0.6843632 0.13067281 0.0005771341
v -0.53788394 0.1694898 0.18589804
v -0.36501503 0.18243408 0.3689084
v -0.6723713 0.12619746 -0.18245341
v -0.54478467 0.17567074 -0.00044836616
v -0.6416816 0.11398363 -0.34818408
v 0.35543543 0.06080234 0.74167436
v 0.51801777 -8.940697E-08 0.7402285
v -0.18227848 0.16846836 0.54338735
v -0.37558627 0.2020024 0.19031635
v -0.53633654 0.17008948 -0.18594137
v -0.60192096 0.09793466 -0.48301733
v -0.18705219 0.20157331 0.37994915
v -0.37897757 0.2088567 -0.0016558575
v -0.51620734 0.15399277 -0.3544855
v 0.0041801343 0.1741556 0.55066526
v -0.19127291 0.222686 0.19445671
v -0.37348682 0.20219505 -0.19182394
v 0.0048100064 0.2081384 0.3837687
v -0.19246037 0.22988886 -0.0026706527
v 0.005393368 0.22966844 0.19574124
v -0.49370375 0.12995172 -0.49480945
v -0.36201578 0.183353 -0.3661674
v -0.18993184 0.22254264 -0.19726536
v 0.0055632126 0.23692834 -0.003124684
v -0.5678877 0.08412057 -0.5676451
v -0.4825799 0.098526835 -0.6012785
v -0.3508366 0.15437281 -0.51653284
v -0.34667856 0.115294695 -0.64029604
v -0.1851949 0.20217001 -0.37687117
v -0.18104997 0.1707061 -0.53515446
v -0.17986977 0.12791348 -0.6696911
v 0.0051362845 0.22936225 -0.19917093
v 0.0043084407 0.20855713 -0.38066962
v 0.0035975901 0.17639208 -0.54192936
v 0.0034259758 0.13244635 -0.6803086
v 0.18602008 0.12751955 -0.66892123
v 0.18750443 0.17040479 -0.53407425
v 0.19276771 0.20174885 -0.37562916
v 0.19879857 0.22193116 -0.19647738
v 0.20199162 0.22918802 -0.0028521607
v 0.35108462 0.11470336 -0.63914216
v 0.355466 0.15393758 -0.51484793
v 0.3671544 0.18280625 -0.36430478
v 0.37916398 0.20142746 -0.19070585
v 0.4851627 0.09799796 -0.6001271
v 0.49631405 0.12948269 -0.49299005
v 0.51885784 0.15346074 -0.3526761
v 0.569435 0.0837622 -0.56676906
v 0.6030823 0.09761357 -0.48188648
v 0.6425559 0.11364961 -0.34721556
v 0.6813836 0.053580344 -0.49351427
v 0.81245255 -2.9802322E-08 -0.3625695
v 0.74073267 0.06262842 -0.35126185
v 0.8592034 0 -0.18626206
v 0.5390747 0.16949391 -0.18505219
v 0.6731794 0.12588614 -0.1822284
v 0.7809237 0.07048094 -0.18227355
v 0.875247 0 0.0030656066
v 0.6851893 0.13040417 -0.00014152238
v 0.79519176 0.07332137 0.0019136854
v 0.8581478 0 0.19158053
v 0.547553 0.17508322 -0.0010078219
v 0.7806501 0.069907725 0.18577516
v 0.8113886 -2.9802322E-08 0.36630464
v 0.6747671 0.12575024 0.1825561
v 0.38490388 0.20797801 -0.0020217597
v 0.7406425 0.061739355 0.3542449
v 0.73935527 -8.940697E-08 0.5186618
v 0.5407127 0.16907573 0.18406087
v 0.645094 0.11331463 0.34910625
v 0.38140693 0.20126921 0.18849237
v 0.68116707 0.05248952 0.49613708
v 0.64149284 -1.1920929E-07 0.64290786
v 0.5213486 0.15252209 0.35425106
v 0.6050348 0.09677261 0.4850988
v 0.20054756 0.2220977 0.19331226
v 0.3704949 0.18198526 0.36643177
v 0.19543132 0.20120716 0.37837842
v 0.4982193 0.1278342 0.49705368
v 0.5698771 0.08232066 0.57000697
v 0.18967964 0.16821516 0.5419756
v 0.35806167 0.15190959 0.5208944
v 0.60276973 0.04762408 0.6035564
v 0.48561484 0.09587568 0.6049971
v 0.49608612 0.05199322 0.6816847
v 0.3516123 0.11177033 0.6461194
v 0.18657215 0.12392652 0.6776563
v 0.0038549155 0.12857497 0.6897571
vt 0.20455718 0.077595234
vt 0.13272512 0.13228571
vt 0.15556943 0.15549397
vt 0.077079535 0.20459372
vt 0.21743435 0.11201024
vt 0.29204094 0.03624034
vt 0.11107731 0.21746546
vt 0.03583747 0.2926485
vt 0.2986039 0.07817197
vt 0.39330047 0.00928545
vt 0.07698357 0.29886603
vt 0.009112835 0.39352542
vt 0.39583683 0.05531341
vt 0.5025344 -7.429719E-05
vt 0.05394405 0.3956402
vt -7.7694654E-05 0.5017719
vt 0.5021113 0.047250807
vt 0.61109376 0.00985384
vt 0.04573071 0.50111175
vt 0.009707928 0.6094829
vt 0.60787046 0.055749714
vt 0.7108017 0.036892414
vt 0.05408013 0.6063242
vt 0.036533237 0.7092596
vt 0.7038863 0.0787102
vt 0.7969049 0.07785475
vt 0.07713699 0.70258737
vt 0.07789004 0.7963537
vt 0.78392875 0.1123119
vt 0.8677983 0.13235688
vt 0.111397505 0.7836096
vt 0.13417554 0.8675276
vt 0.84506595 0.15568143
vt 0.9229412 0.20463073
vt 0.15647537 0.8450012
vt 0.20587015 0.9233515
vt 0.21833384 0.8897965
vt 0.2938975 0.9642098
vt 0.17546755 0.82588947
vt 0.15525603 0.7774813
vt 0.2999226 0.9239373
vt 0.3946246 0.990713
vt 0.22422564 0.8460971
vt 0.13217664 0.699949
vt 0.39680004 0.9469929
vt 0.5026219 0.9999263
vt 0.3019098 0.8696132
vt 0.39729667 0.8872924
vt 0.21699315 0.7847378
vt 0.5022334 0.95514584
vt 0.6100272 0.990229
vt 0.11502004 0.60472417
vt 0.29827815 0.798475
vt 0.20377612 0.7033049
vt 0.6072109 0.9466038
vt 0.7093358 0.9634663
vt 0.108971 0.49994892
vt 0.19264895 0.60581565
vt 0.29140228 0.71036243
vt 0.11582148 0.39539063
vt 0.18870687 0.49936312
vt 0.13335335 0.3007151
vt 0.7029679 0.9233092
vt 0.7958449 0.9224832
vt 0.39579266 0.81003547
vt 0.28536338 0.60833967
vt 0.19353294 0.3933981
vt 0.15606707 0.22369003
vt 0.39306563 0.71666956
vt 0.28342605 0.49867332
vt 0.20503199 0.29711533
vt 0.5023093 0.8141931
vt 0.39065444 0.6107049
vt 0.28656268 0.3900376
vt 0.5026691 0.71885157
vt 0.38997614 0.4980936
vt 0.5030023 0.61143863
vt 0.2178874 0.21695364
vt 0.29311568 0.29044193
vt 0.3914206 0.38692915
vt 0.5030993 0.4978342
vt 0.17550898 0.17534548
vt 0.22424203 0.15613198
vt 0.2995019 0.20454395
vt 0.3018772 0.13384283
vt 0.3941266 0.28432727
vt 0.39649445 0.19390613
vt 0.39716864 0.11705053
vt 0.50285554 0.38584054
vt 0.5023825 0.28215736
vt 0.5019765 0.19003588
vt 0.5018785 0.11098516
vt 0.60618746 0.11749029
vt 0.6070354 0.19452322
vt 0.6100421 0.2850368
vt 0.61348724 0.3873793
vt 0.6153114 0.4979899
vt 0.7004825 0.13450193
vt 0.7029854 0.20550644
vt 0.70966244 0.29150593
vt 0.71652305 0.39067632
vt 0.777076 0.15678978
vt 0.78344643 0.21799302
vt 0.79632485 0.298149
vt 0.8252176 0.17584592
vt 0.844439 0.22433603
vt 0.8669888 0.30126834
vt 0.88916945 0.21769357
vt 0.9640441 0.29249728
vt 0.9230733 0.29895687
vt 0.99075115 0.39321494
vt 0.80787396 0.39390606
vt 0.88448274 0.3955192
vt 0.946033 0.3954934
vt 0.9999162 0.50137055
vt 0.8913436 0.49953842
vt 0.9541837 0.5007125
vt 0.99014807 0.60906184
vt 0.8127172 0.49904352
vt 0.9458766 0.60574543
vt 0.96343637 0.70887494
vt 0.8853898 0.6039065
vt 0.71980214 0.4984643
vt 0.9230218 0.7019857
vt 0.9222865 0.7959107
vt 0.80880964 0.60476613
vt 0.8684387 0.6990502
vt 0.71780443 0.60729766
vt 0.88904583 0.78304327
vt 0.8663814 0.8668877
vt 0.7977476 0.7019892
vt 0.84555435 0.77673745
vt 0.61448646 0.61005104
vt 0.71157074 0.70894766
vt 0.6115637 0.7157723
vt 0.7845348 0.78356683
vt 0.8254702 0.8252423
vt 0.60827804 0.809229
vt 0.70446813 0.79718614
vt 0.84426045 0.8444078
vt 0.77733433 0.8452308
vt 0.78331614 0.8890394
vt 0.70078385 0.86872244
vt 0.6065028 0.8867382
vt 0.5021235 0.8936509
vn 0.33397684 -0.75252604 0.567595
vn 0.46373764 -0.75348943 0.4660483
vn 0.43777484 -0.78468066 0.4388957
vn 0.56688607 -0.75308084 0.33393046
vn 0.30895677 -0.80149543 0.5120067
vn 0.22306457 -0.74852645 0.62446004
vn 0.5107813 -0.8026711 0.30793098
vn 0.6243976 -0.74888843 0.22202185
vn 0.2074466 -0.816527 0.5387481
vn 0.112764105 -0.7435306 0.65912557
vn 0.53793705 -0.8173645 0.20624979
vn 0.6595116 -0.743208 0.11263299
vn 0.10545984 -0.8225136 0.5588825
vn -0.0021908742 -0.7422073 0.6701668
vn 0.55884355 -0.82249993 0.10577185
vn 0.6713986 -0.74109393 -0.0019403773
vn -0.0019985128 -0.8243749 0.56604064
vn -0.116387494 -0.74557406 0.65618074
vn 0.56739384 -0.8234459 -0.0009965732
vn 0.658094 -0.7439712 -0.115841016
vn -0.10891634 -0.82331043 0.55704325
vn -0.22451717 -0.75223076 0.61946833
vn 0.5599666 -0.82148755 -0.10768253
vn 0.6217051 -0.7504523 -0.22428611
vn -0.20924301 -0.81817746 0.53554
vn -0.33342478 -0.7567945 0.5622187
vn 0.5396444 -0.81560534 -0.20873857
vn 0.56286895 -0.7545511 -0.3373887
vn -0.30903152 -0.8039408 0.508113
vn -0.46320775 -0.7562562 0.46207702
vn 0.5114431 -0.80019903 -0.3132214
vn 0.4632813 -0.75334036 -0.46674266
vn -0.43745357 -0.7869025 0.4352228
vn -0.5664648 -0.75398666 0.33259872
vn 0.43935567 -0.78172404 -0.44257662
vn 0.33367738 -0.7535001 -0.5664777
vn 0.30975524 -0.8001547 -0.5136187
vn 0.22093049 -0.748557 -0.6251817
vn 0.35154116 -0.86599225 -0.35563505
vn 0.36632088 -0.89539546 -0.25313258
vn 0.2062008 -0.8144127 -0.54241425
vn 0.112429254 -0.74228245 -0.660588
vn 0.250453 -0.89478046 -0.36965004
vn 0.3744063 -0.91099066 -0.17296182
vn 0.105452076 -0.819437 -0.5633851
vn -0.0019220582 -0.74045455 -0.6721038
vn 0.17147706 -0.909744 -0.3781024
vn 0.056334257 -0.928457 -0.36714306
vn 0.23627165 -0.94183004 -0.23902294
vn -0.0017798265 -0.82110757 -0.5707707
vn -0.11610824 -0.7441701 -0.65782195
vn 0.37908822 -0.92110914 -0.08860025
vn 0.15522493 -0.95628124 -0.24785368
vn 0.24419034 -0.95703214 -0.15639843
vn -0.1089882 -0.82032144 -0.5614217
vn -0.22421399 -0.75179 -0.6201127
vn 0.38039762 -0.924823 8.369981E-05
vn 0.24754648 -0.9656822 -0.078603745
vn 0.15273361 -0.9761303 -0.1544091
vn 0.37857613 -0.92134213 0.088368095
vn 0.24846616 -0.9686406 1.0342183E-05
vn 0.37378922 -0.9115645 0.1712648
vn -0.20963028 -0.815802 -0.53900117
vn -0.3354942 -0.7570251 -0.5606752
vn 0.053945273 -0.96324635 -0.26314723
vn 0.15234022 -0.98545176 -0.07534713
vn 0.24783058 -0.9656317 0.07832855
vn 0.365881 -0.89687526 0.24848716
vn 0.07381337 -0.9852541 -0.15435699
vn 0.15185992 -0.98840207 0.00017515341
vn 0.244525 -0.9571493 0.15515344
vn -0.0016222096 -0.96294117 -0.26970688
vn 0.07287045 -0.9945701 -0.07429858
vn 0.15128632 -0.9856328 0.07510316
vn -0.0015934051 -0.9880213 -0.15430959
vn 0.07256829 -0.99736327 0.00049974775
vn -0.0016490978 -0.9972556 -0.07401672
vn 0.23608127 -0.9426181 0.23608668
vn 0.15096438 -0.97670287 0.15251599
vn 0.07253857 -0.9945738 0.07457264
vn -0.0016909846 -0.99999845 0.0006295737
vn 0.34928894 -0.8696559 0.34884915
vn 0.24885337 -0.8972835 0.36462915
vn 0.15345825 -0.95766944 0.24355634
vn 0.17051545 -0.9126673 0.3714337
vn 0.07323015 -0.9855907 0.15247439
vn 0.076475546 -0.96617717 0.24627891
vn 0.08658131 -0.92280686 0.37540808
vn -0.00165718 -0.9972184 0.07451721
vn -0.0015742515 -0.98830694 0.15246916
vn -0.00157636 -0.9690443 0.24688168
vn -0.0018301748 -0.92627555 0.3768426
vn -0.09005026 -0.92246264 0.37543795
vn -0.07948929 -0.96594197 0.24624702
vn -0.07616798 -0.9853774 0.15241358
vn -0.07559802 -0.9943435 0.074605405
vn -0.07572169 -0.9971288 0.00063207344
vn -0.17334904 -0.9122348 0.3711843
vn -0.15631518 -0.9572299 0.24346747
vn -0.1537281 -0.9762621 0.15257812
vn -0.15393475 -0.98520887 0.075283214
vn -0.25053367 -0.8972106 0.36365625
vn -0.23831746 -0.9421382 0.23575494
vn -0.24684434 -0.9565077 0.1554374
vn -0.3497979 -0.870201 0.34697485
vn -0.3666227 -0.89675635 0.24782224
vn -0.37482387 -0.91107726 0.17159644
vn -0.51047873 -0.8034242 0.30646536
vn -0.62413883 -0.74910575 0.2220167
vn -0.5378189 -0.8174473 0.20622972
vn -0.6594864 -0.7432255 0.112665646
vn -0.2501086 -0.96500486 0.07881135
vn -0.38015845 -0.9206349 0.08894309
vn -0.55933344 -0.8221435 0.105953686
vn -0.6714247 -0.74107015 -0.0019843818
vn -0.3825007 -0.923955 0.00050215615
vn -0.5683549 -0.82278305 -0.0008932892
vn -0.65814924 -0.7439801 -0.115469
vn -0.2506612 -0.9680748 0.0004549679
vn -0.5612328 -0.82068044 -0.10724448
vn -0.6219237 -0.7505425 -0.2233762
vn -0.38150126 -0.92015964 -0.08810784
vn -0.1544156 -0.98800594 0.00044334203
vn -0.54113567 -0.8148161 -0.20795862
vn -0.56279004 -0.75514346 -0.3361929
vn -0.24961078 -0.96519953 -0.07800151
vn -0.3769035 -0.9100322 -0.17258352
vn -0.15479484 -0.9851061 -0.074863024
vn -0.5126474 -0.79972005 -0.31247503
vn -0.4630845 -0.75555587 -0.4633445
vn -0.24604864 -0.9566329 -0.15592764
vn -0.36865303 -0.89429605 -0.25363252
vn -0.07600951 -0.9943551 -0.07403108
vn -0.15515523 -0.975817 -0.15397415
vn -0.07692474 -0.98505616 -0.1541004
vn -0.23807901 -0.94134015 -0.23915909
vn -0.3537952 -0.8645823 -0.35682815
vn -0.057210866 -0.96308124 -0.26306167
vn -0.15794249 -0.9558848 -0.24766614
vn -0.44011337 -0.7824197 -0.44059017
vn -0.25308323 -0.89394766 -0.3698736
vn -0.31206295 -0.80158925 -0.5099721
vn -0.17498402 -0.90924144 -0.37770423
vn -0.05968356 -0.9284074 -0.36673918
vn -0.0018342169 -0.93298227 -0.3599177
g skydome_0
f 3/3/3 2/2/2 1/1/1
f 4/4/4 2/2/2 3/3/3
f 5/5/5 3/3/3 1/1/1
f 5/5/5 1/1/1 6/6/6
f 7/7/7 4/4/4 3/3/3
f 8/8/8 4/4/4 7/7/7
f 9/9/9 5/5/5 6/6/6
f 9/9/9 6/6/6 10/10/10
f 11/11/11 8/8/8 7/7/7
f 12/12/12 8/8/8 11/11/11
f 13/13/13 9/9/9 10/10/10
f 13/13/13 10/10/10 14/14/14
f 15/15/15 12/12/12 11/11/11
f 16/16/16 12/12/12 15/15/15
f 17/17/17 13/13/13 14/14/14
f 17/17/17 14/14/14 18/18/18
f 19/19/19 16/16/16 15/15/15
f 20/20/20 16/16/16 19/19/19
f 21/21/21 17/17/17 18/18/18
f 21/21/21 18/18/18 22/22/22
f 23/23/23 20/20/20 19/19/19
f 24/24/24 20/20/20 23/23/23
f 25/25/25 21/21/21 22/22/22
f 25/25/25 22/22/22 26/26/26
f 27/27/27 24/24/24 23/23/23
f 28/28/28 24/24/24 27/27/27
f 29/29/29 25/25/25 26/26/26
f 29/29/29 26/26/26 30/30/30
f 31/31/31 28/28/28 27/27/27
f 32/32/32 28/28/28 31/31/31
f 33/33/33 29/29/29 30/30/30
f 30/30/30 34/34/34 33/33/33
f 35/35/35 32/32/32 31/31/31
f 36/36/36 32/32/32 35/35/35
f 37/37/37 36/36/36 35/35/35
f 38/38/38 36/36/36 37/37/37
f 35/35/35 31/31/31 39/39/39
f 37/37/37 35/35/35 39/39/39
f 31/31/31 27/27/27 40/40/40
f 31/31/31 40/40/40 39/39/39
f 41/41/41 38/38/38 37/37/37
f 42/42/42 38/38/38 41/41/41
f 43/43/43 37/37/37 39/39/39
f 43/43/43 39/39/39 40/40/40
f 41/41/41 37/37/37 43/43/43
f 27/27/27 44/44/44 40/40/40
f 27/27/27 23/23/23 44/44/44
f 45/45/45 42/42/42 41/41/41
f 46/46/46 42/42/42 45/45/45
f 47/47/47 41/41/41 43/43/43
f 45/45/45 41/41/41 47/47/47
f 48/48/48 45/45/45 47/47/47
f 49/49/49 43/43/43 40/40/40
f 47/47/47 43/43/43 49/49/49
f 49/49/49 40/40/40 44/44/44
f 50/50/50 46/46/46 45/45/45
f 50/50/50 45/45/45 48/48/48
f 51/51/51 46/46/46 50/50/50
f 23/23/23 52/52/52 44/44/44
f 23/23/23 19/19/19 52/52/52
f 53/53/53 47/47/47 49/49/49
f 48/48/48 47/47/47 53/53/53
f 54/54/54 49/49/49 44/44/44
f 54/54/54 44/44/44 52/52/52
f 53/53/53 49/49/49 54/54/54
f 55/55/55 51/51/51 50/50/50
f 56/56/56 51/51/51 55/55/55
f 19/19/19 57/57/57 52/52/52
f 19/19/19 15/15/15 57/57/57
f 58/58/58 54/54/54 52/52/52
f 58/58/58 52/52/52 57/57/57
f 59/59/59 53/53/53 54/54/54
f 59/59/59 54/54/54 58/58/58
f 15/15/15 60/60/60 57/57/57
f 15/15/15 11/11/11 60/60/60
f 61/61/61 58/58/58 57/57/57
f 61/61/61 57/57/57 60/60/60
f 11/11/11 62/62/62 60/60/60
f 11/11/11 7/7/7 62/62/62
f 63/63/63 56/56/56 55/55/55
f 64/64/64 56/56/56 63/63/63
f 65/65/65 53/53/53 59/59/59
f 65/65/65 48/48/48 53/53/53
f 66/66/66 59/59/59 58/58/58
f 66/66/66 58/58/58 61/61/61
f 67/67/67 61/61/61 60/60/60
f 67/67/67 60/60/60 62/62/62
f 7/7/7 68/68/68 62/62/62
f 7/7/7 3/3/3 68/68/68
f 69/69/69 65/65/65 59/59/59
f 69/69/69 59/59/59 66/66/66
f 70/70/70 66/66/66 61/61/61
f 70/70/70 61/61/61 67/67/67
f 71/71/71 67/67/67 62/62/62
f 71/71/71 62/62/62 68/68/68
f 48/48/48 65/65/65 72/72/72
f 72/72/72 65/65/65 69/69/69
f 73/73/73 69/69/69 66/66/66
f 73/73/73 66/66/66 70/70/70
f 74/74/74 70/70/70 67/67/67
f 74/74/74 67/67/67 71/71/71
f 75/75/75 72/72/72 69/69/69
f 75/75/75 69/69/69 73/73/73
f 76/76/76 73/73/73 70/70/70
f 76/76/76 70/70/70 74/74/74
f 77/77/77 75/75/75 73/73/73
f 77/77/77 73/73/73 76/76/76
f 78/78/78 71/71/71 68/68/68
f 79/79/79 74/74/74 71/71/71
f 79/79/79 71/71/71 78/78/78
f 80/80/80 76/76/76 74/74/74
f 80/80/80 74/74/74 79/79/79
f 81/81/81 77/77/77 76/76/76
f 81/81/81 76/76/76 80/80/80
f 78/78/78 68/68/68 82/82/82
f 3/3/3 82/82/82 68/68/68
f 83/83/83 82/82/82 3/3/3
f 83/83/83 78/78/78 82/82/82
f 5/5/5 83/83/83 3/3/3
f 84/84/84 79/79/79 78/78/78
f 84/84/84 78/78/78 83/83/83
f 85/85/85 83/83/83 5/5/5
f 85/85/85 84/84/84 83/83/83
f 9/9/9 85/85/85 5/5/5
f 86/86/86 80/80/80 79/79/79
f 86/86/86 79/79/79 84/84/84
f 87/87/87 84/84/84 85/85/85
f 87/87/87 86/86/86 84/84/84
f 88/88/88 85/85/85 9/9/9
f 88/88/88 87/87/87 85/85/85
f 13/13/13 88/88/88 9/9/9
f 89/89/89 80/80/80 86/86/86
f 89/89/89 81/81/81 80/80/80
f 90/90/90 86/86/86 87/87/87
f 90/90/90 89/89/89 86/86/86
f 91/91/91 87/87/87 88/88/88
f 91/91/91 90/90/90 87/87/87
f 92/92/92 88/88/88 13/13/13
f 92/92/92 91/91/91 88/88/88
f 17/17/17 92/92/92 13/13/13
f 93/93/93 92/92/92 17/17/17
f 21/21/21 93/93/93 17/17/17
f 94/94/94 91/91/91 92/92/92
f 93/93/93 94/94/94 92/92/92
f 95/95/95 90/90/90 91/91/91
f 94/94/94 95/95/95 91/91/91
f 96/96/96 89/89/89 90/90/90
f 95/95/95 96/96/96 90/90/90
f 97/97/97 81/81/81 89/89/89
f 96/96/96 97/97/97 89/89/89
f 98/98/98 93/93/93 21/21/21
f 25/25/25 98/98/98 21/21/21
f 99/99/99 94/94/94 93/93/93
f 98/98/98 99/99/99 93/93/93
f 100/100/100 95/95/95 94/94/94
f 99/99/99 100/100/100 94/94/94
f 101/101/101 96/96/96 95/95/95
f 100/100/100 101/101/101 95/95/95
f 102/102/102 98/98/98 25/25/25
f 29/29/29 102/102/102 25/25/25
f 103/103/103 99/99/99 98/98/98
f 102/102/102 103/103/103 98/98/98
f 104/104/104 100/100/100 99/99/99
f 103/103/103 104/104/104 99/99/99
f 105/105/105 102/102/102 29/29/29
f 33/33/33 105/105/105 29/29/29
f 105/105/105 106/106/106 102/102/102
f 106/106/106 103/103/103 102/102/102
f 105/105/105 33/33/33 106/106/106
f 106/106/106 107/107/107 103/103/103
f 107/107/107 104/104/104 103/103/103
f 33/33/33 108/108/108 106/106/106
f 106/106/106 108/108/108 107/107/107
f 34/34/34 108/108/108 33/33/33
f 34/34/34 109/109/109 108/108/108
f 109/109/109 110/110/110 108/108/108
f 108/108/108 110/110/110 107/107/107
f 109/109/109 111/111/111 110/110/110
f 104/104/104 112/112/112 100/100/100
f 112/112/112 101/101/101 100/100/100
f 107/107/107 113/113/113 104/104/104
f 107/107/107 110/110/110 113/113/113
f 113/113/113 112/112/112 104/104/104
f 111/111/111 114/114/114 110/110/110
f 110/110/110 114/114/114 113/113/113
f 111/111/111 115/115/115 114/114/114
f 113/113/113 116/116/116 112/112/112
f 113/113/113 114/114/114 116/116/116
f 115/115/115 117/117/117 114/114/114
f 114/114/114 117/117/117 116/116/116
f 115/115/115 118/118/118 117/117/117
f 112/112/112 119/119/119 101/101/101
f 116/116/116 119/119/119 112/112/112
f 118/118/118 120/120/120 117/117/117
f 118/118/118 121/121/121 120/120/120
f 116/116/116 117/117/117 122/122/122
f 116/116/116 122/122/122 119/119/119
f 117/117/117 120/120/120 122/122/122
f 119/119/119 123/123/123 101/101/101
f 101/101/101 123/123/123 96/96/96
f 123/123/123 97/97/97 96/96/96
f 121/121/121 124/124/124 120/120/120
f 121/121/121 125/125/125 124/124/124
f 122/122/122 126/126/126 119/119/119
f 119/119/119 126/126/126 123/123/123
f 122/122/122 120/120/120 127/127/127
f 120/120/120 124/124/124 127/127/127
f 122/122/122 127/127/127 126/126/126
f 123/123/123 128/128/128 97/97/97
f 126/126/126 128/128/128 123/123/123
f 125/125/125 129/129/129 124/124/124
f 125/125/125 130/130/130 129/129/129
f 127/127/127 131/131/131 126/126/126
f 126/126/126 131/131/131 128/128/128
f 127/127/127 124/124/124 132/132/132
f 124/124/124 129/129/129 132/132/132
f 127/127/127 132/132/132 131/131/131
f 128/128/128 133/133/133 97/97/97
f 97/97/97 133/133/133 81/81/81
f 133/133/133 77/77/77 81/81/81
f 131/131/131 134/134/134 128/128/128
f 128/128/128 134/134/134 133/133/133
f 133/133/133 135/135/135 77/77/77
f 134/134/134 135/135/135 133/133/133
f 135/135/135 75/75/75 77/77/77
f 132/132/132 136/136/136 131/131/131
f 131/131/131 136/136/136 134/134/134
f 132/132/132 129/129/129 137/137/137
f 132/132/132 137/137/137 136/136/136
f 135/135/135 138/138/138 75/75/75
f 138/138/138 72/72/72 75/75/75
f 134/134/134 139/139/139 135/135/135
f 136/136/136 139/139/139 134/134/134
f 139/139/139 138/138/138 135/135/135
f 129/129/129 140/140/140 137/137/137
f 130/130/130 140/140/140 129/129/129
f 137/137/137 141/141/141 136/136/136
f 136/136/136 141/141/141 139/139/139
f 137/137/137 140/140/140 141/141/141
f 140/140/140 130/130/130 142/142/142
f 140/140/140 142/142/142 141/141/141
f 130/130/130 64/64/64 142/142/142
f 142/142/142 64/64/64 63/63/63
f 141/141/141 143/143/143 139/139/139
f 141/141/141 142/142/142 143/143/143
f 139/139/139 143/143/143 138/138/138
f 142/142/142 63/63/63 143/143/143
f 72/72/72 138/138/138 144/144/144
f 143/143/143 144/144/144 138/138/138
f 143/143/143 63/63/63 144/144/144
f 72/72/72 144/144/144 48/48/48
f 63/63/63 55/55/55 144/144/144
f 144/144/144 145/145/145 48/48/48
f 144/144/144 55/55/55 145/145/145
f 145/145/145 50/50/50 48/48/48
f 55/55/55 50/50/50 145/145/145
