g sprout_parsnip
v 0.25973195 1.3423812 0.06631315
v 0.80502534 3.2246416 -1.4681219
v 0.68509495 1.7189251 0.08489622
v -0.25399432 1.1894776 -0.19576035
v -0.5936741 1.3376184 -0.53893006
v -0.13395943 0.81735915 0.04720315
v 0.10266183 0.8717279 0.14197853
v -0.0017542974 0.014690124 -0.01007325
v -0.39220053 0.6930112 -0.32827252
v -1.7252992 2.0779321 -0.66194355
v -0.44569662 0.78977257 -0.743303
v -0.46035665 0.7976743 0.1847442
v -0.6342873 0.9954642 0.5235455
v -0.2366921 0.4614878 0.11564192
v -0.19727865 0.44138175 -0.11057113
v -0.0017542974 0.014690124 -0.01007325
vt 0.92240393 0.5655433
vt 0.84300077 0.9831989
vt 0.98616326 0.636477
vt 0.8232635 0.538707
vt 0.74481964 0.57017756
vt 0.8573166 0.47186768
vt 0.9071009 0.48433495
vt 0.8946202 0.29176772
vt 0.7170139 0.21725181
vt 0.7217528 0.54518825
vt 0.78284055 0.24581552
vt 0.6263415 0.22535875
vt 0.56282824 0.25926456
vt 0.64576644 0.1611965
vt 0.6928691 0.15897453
vt 0.67636687 0.06435155
vn -0.5135007 0.5977844 0.6156061
vn -0.4867136 0.6266335 0.60863817
vn -0.5666872 0.6129879 0.55055565
vn -0.45740095 0.59548765 0.66043836
vn -0.40156615 0.6265592 0.6679582
vn -0.44551024 0.18343946 0.8762823
vn -0.4553518 0.2226976 0.8620095
vn -0.3444761 -0.123148724 0.9306828
vn 0.7326862 0.6805663 0.00058729225
vn 0.72096175 0.69290406 -0.009904112
vn 0.70989096 0.7006376 0.07184557
vn 0.73448914 0.6778455 -0.03242187
vn 0.72179765 0.6913153 -0.033035167
vn 0.83016753 0.55616266 0.038791884
vn 0.83333546 0.5511502 0.042254332
vn 0.89219856 0.43631414 0.11666918
g sprout_parsnip_0
f 3/3/3 2/2/2 1/1/1
f 4/4/4 1/1/1 2/2/2
f 2/2/2 5/5/5 4/4/4
f 4/4/4 6/6/6 1/1/1
f 6/6/6 7/7/7 1/1/1
f 6/6/6 8/8/8 7/7/7
f 11/11/11 10/10/10 9/9/9
f 12/12/12 9/9/9 10/10/10
f 10/10/10 13/13/13 12/12/12
f 12/12/12 14/14/14 9/9/9
f 14/14/14 15/15/15 9/9/9
f 14/14/14 16/16/16 15/15/15
