g straight_pipe2_back_faces
v -0 0.18583049 0.91837645
v -0.092915036 0.16093403 0.91837645
v -0.09961548 0.17254005 0.90497804
v -0 0.19923213 0.90497804
v 0.092915036 0.16093399 0.91837645
v 0.09961548 0.17254008 0.90497804
v 0.16093384 0.09291519 0.91837645
v 0.17254028 0.099616125 0.90497804
v 0.1858313 3.8146972E-08 0.91837645
v 0.19923218 -3.8146972E-08 0.90497804
v 0.16093384 -0.09291527 0.91837645
v 0.17254028 -0.09961615 0.90497804
v 0.092915036 -0.16093406 0.91837645
v 0.09961548 -0.17254004 0.9049804
v -0 -0.18583034 0.91837645
v -0 -0.19923206 0.90497804
v -0.092915036 -0.16093406 0.91837645
v -0.09961548 -0.17254005 0.9049804
v -0.16093384 -0.092915095 0.91837645
v -0.17254028 -0.099616125 0.90497804
v -0.1858313 3.8146972E-08 0.91837645
v -0.19923218 7.6293944E-08 0.90497804
v -0.16093384 0.09291523 0.91837645
v -0.17254028 0.09961582 0.90497804
v -0.092915036 0.16093403 0.91837645
v -0.09961548 0.17254005 0.90497804
v 0.092915036 0.16093399 0.91837645
v 0.086909175 0.15053184 0.91837645
v -0 0.17381915 0.91837645
v -0 0.18583049 0.91837645
v -0 0.18583049 0.91837645
v -0 0.17381915 0.91837645
v -0.086909175 0.15053187 0.91837645
v -0.092915036 0.16093403 0.91837645
v -0.092915036 0.16093403 0.91837645
v -0.086909175 0.15053187 0.91837645
v -0.15053222 0.08690956 0.91837645
v -0.16093384 0.09291523 0.91837645
v -0.16093384 0.09291523 0.91837645
v -0.15053222 0.08690956 0.91837645
v -0.17381957 3.8146972E-08 0.91837645
v -0.1858313 3.8146972E-08 0.91837645
v -0.1858313 3.8146972E-08 0.91837645
v -0.17381957 3.8146972E-08 0.91837645
v -0.15053222 -0.08690943 0.91837645
v -0.16093384 -0.092915095 0.91837645
v -0.16093384 -0.092915095 0.91837645
v -0.15053222 -0.08690943 0.91837645
v -0.086909175 -0.15053192 0.91837645
v -0.092915036 -0.16093406 0.91837645
v -0.092915036 -0.16093406 0.91837645
v -0.086909175 -0.15053192 0.91837645
v -0 -0.173819 0.91837645
v -0 -0.18583034 0.91837645
v -0 -0.18583034 0.91837645
v -0 -0.173819 0.91837645
v 0.086909175 -0.15053192 0.91837645
v 0.092915036 -0.16093406 0.91837645
v 0.092915036 -0.16093406 0.91837645
v 0.086909175 -0.15053192 0.91837645
v 0.15053222 -0.08690958 0.91837645
v 0.16093384 -0.09291527 0.91837645
v 0.16093384 -0.09291527 0.91837645
v 0.15053222 -0.08690958 0.91837645
v 0.17381957 3.8146972E-08 0.91837645
v 0.1858313 3.8146972E-08 0.91837645
v 0.1858313 3.8146972E-08 0.91837645
v 0.17381957 3.8146972E-08 0.91837645
v 0.15053222 0.08690952 0.91837645
v 0.16093384 0.09291519 0.91837645
v 0.16093384 0.09291519 0.91837645
v 0.15053222 0.08690952 0.91837645
v 0.086909175 0.15053184 0.91837645
v 0.092915036 0.16093399 0.91837645
v -0 0.17381915 0.91837645
v -0.086909175 0.15053187 0.030861815
v -0.086909175 0.15053187 0.91837645
v -0 0.17381915 0.030856933
v 0.086909175 0.15053184 0.91837645
v 0.086909175 0.15053184 0.030856933
v 0.15053222 0.08690952 0.91837645
v 0.15053222 0.08690952 0.030856933
v 0.17381957 3.8146972E-08 0.91837645
v 0.17381957 3.8146972E-08 0.030856933
v 0.15053222 -0.08690958 0.91837645
v 0.15053222 -0.08690958 0.030856933
v 0.086909175 -0.15053192 0.91837645
v 0.086909175 -0.15053192 0.030856933
v -0 -0.173819 0.91837645
v -0 -0.173819 0.030856933
v -0.086909175 -0.15053192 0.91837645
v -0.086909175 -0.15053192 0.030856933
v -0.15053222 -0.08690943 0.91837645
v -0.15053222 -0.08690943 0.030856933
v -0.17381957 3.8146972E-08 0.91837645
v -0.17381957 3.8146972E-08 0.030856933
v -0.15053222 0.08690956 0.91837645
v -0.15053222 0.08690956 0.030856933
v -0.086909175 0.15053187 0.91837645
v -0.086909175 0.15053187 0.030861815
v -0 0.17381915 0.030856933
v 0.086909175 0.15053184 0.030856933
v -0.086909175 0.15053187 0.030861815
v -0.15053222 0.08690956 0.030856933
v -0.17381957 3.8146972E-08 0.030856933
v -0.15053222 -0.08690943 0.030856933
v -0.086909175 -0.15053192 0.030856933
v -0 -0.173819 0.030856933
v 0.086909175 -0.15053192 0.030856933
v 0.15053222 -0.08690958 0.030856933
v 0.17381957 3.8146972E-08 0.030856933
v 0.15053222 0.08690952 0.030856933
v -0 -0.19923206 0.90497804
v -0.09961548 -0.17254005 0.66937745
v -0.09961548 -0.17254005 0.9049804
v -0 -0.19923213 0.66937745
v 0.09961548 -0.17254014 0.66937745
v 0.09961548 -0.17254004 0.9049804
v 0.17254028 -0.09961612 0.66937745
v 0.17254028 -0.09961615 0.90497804
v 0.19923218 3.8146972E-08 0.66937745
v 0.19923218 -3.8146972E-08 0.90497804
v 0.17254028 0.099616125 0.66937745
v 0.17254028 0.099616125 0.90497804
v 0.09961548 0.17254005 0.66937745
v 0.09961548 0.17254008 0.90497804
v -0 0.19923206 0.6693799
v -0 0.19923213 0.90497804
v -0.09961548 0.17254005 0.66937745
v -0.09961548 0.17254005 0.90497804
v -0.17254028 0.099616125 0.66937745
v -0.17254028 0.09961582 0.90497804
v -0.19923218 -1.14440915E-07 0.66937745
v -0.19923218 7.6293944E-08 0.90497804
v -0.17254028 -0.09961585 0.66937745
v -0.17254028 -0.099616125 0.90497804
v -0.09961548 -0.17254005 0.66937745
v -0.09961548 -0.17254005 0.9049804
v -0 -0.18583049 0.6559814
v -0.092915036 -0.16093403 0.655979
v -0.09961548 -0.17254005 0.66937745
v -0 -0.19923213 0.66937745
v 0.092915036 -0.16093397 0.6559814
v 0.09961548 -0.17254014 0.66937745
v 0.16093384 -0.09291518 0.6559814
v 0.17254028 -0.09961612 0.66937745
v 0.1858313 -3.8146972E-08 0.6559814
v 0.19923218 3.8146972E-08 0.66937745
v 0.16093384 0.09291527 0.6559814
v 0.17254028 0.099616125 0.66937745
v 0.092915036 0.16093406 0.6559814
v 0.09961548 0.17254005 0.66937745
v -0 0.18583034 0.6559814
v -0 0.19923206 0.6693799
v -0.092915036 0.16093406 0.6559814
v -0.09961548 0.17254005 0.66937745
v -0.16093384 0.092915095 0.6559814
v -0.17254028 0.099616125 0.66937745
v -0.1858313 -3.8146972E-08 0.6559814
v -0.19923218 -1.14440915E-07 0.66937745
v -0.16093384 -0.09291523 0.6559814
v -0.17254028 -0.09961585 0.66937745
v -0.092915036 -0.16093403 0.655979
v -0.09961548 -0.17254005 0.66937745
v -0.092915036 -0.16093403 0.655979
v -0 -0.18583049 -0.91837645
v -0.092915036 -0.16093403 -0.91837645
v -0 -0.18583049 0.6559814
v 0.092915036 -0.16093397 -0.91837645
v 0.092915036 -0.16093397 0.6559814
v 0.16093384 -0.09291518 -0.91837645
v 0.16093384 -0.09291518 0.6559814
v 0.1858313 -3.8146972E-08 -0.91837645
v 0.1858313 -3.8146972E-08 0.6559814
v 0.16093384 0.09291527 -0.91837645
v 0.16093384 0.09291527 0.6559814
v 0.092915036 0.16093406 -0.91837645
v 0.092915036 0.16093406 0.6559814
v -0 0.18583034 -0.91837645
v -0 0.18583034 0.6559814
v -0.092915036 0.16093406 -0.91837645
v -0.092915036 0.16093406 0.6559814
v -0.16093384 0.092915095 -0.91837645
v -0.16093384 0.092915095 0.6559814
v -0.1858313 -3.8146972E-08 -0.91837645
v -0.1858313 -3.8146972E-08 0.6559814
v -0.16093384 -0.09291523 -0.91837645
v -0.16093384 -0.09291523 0.6559814
v -0.092915036 -0.16093403 -0.91837645
v -0.092915036 -0.16093403 0.655979
vt 0.609304 0.3285265
vt 0.5939034 0.32830366
vt 0.593903 0.33060881
vt 0.60934925 0.33060738
vt 0.6248194 0.32852805
vt 0.62479216 0.33060542
vt 0.64023286 0.32829943
vt 0.64023244 0.33060446
vt 0.65567124 0.32829937
vt 0.65567124 0.3306041
vt 0.6711095 0.32829943
vt 0.6711099 0.33060446
vt 0.6865496 0.32830086
vt 0.6865504 0.33060548
vt 0.7019925 0.32830235
vt 0.7019932 0.33060732
vt 0.71743876 0.32830366
vt 0.71743965 0.33060876
vt 0.732888 0.32830516
vt 0.7328886 0.3306102
vt 0.7483392 0.32830557
vt 0.7483392 0.33061066
vt 0.76378995 0.32830516
vt 0.76378936 0.33061013
vt 0.77923936 0.32830366
vt 0.7792387 0.33060881
vt 0.62563235 0.33897033
vt 0.6259011 0.33711737
vt 0.6114588 0.3351253
vt 0.6112699 0.33691972
vt 0.6112699 0.33691972
vt 0.6114588 0.3351253
vt 0.59696746 0.33496544
vt 0.59644186 0.3368266
vt 0.7755267 0.33379254
vt 0.7745776 0.33206892
vt 0.76000506 0.33470044
vt 0.7603178 0.33657923
vt 0.7603178 0.33657923
vt 0.76000506 0.33470044
vt 0.7451486 0.33590767
vt 0.7452737 0.3377814
vt 0.7452737 0.3377814
vt 0.7451486 0.33590767
vt 0.73024553 0.33661512
vt 0.7303073 0.33848444
vt 0.7303073 0.33848444
vt 0.73024553 0.33661512
vt 0.71531844 0.33711106
vt 0.715355 0.3389804
vt 0.715355 0.3389804
vt 0.71531844 0.33711106
vt 0.70038605 0.337478
vt 0.70040286 0.3393467
vt 0.70040286 0.3393467
vt 0.70038605 0.337478
vt 0.6854452 0.33773857
vt 0.68544763 0.33960602
vt 0.68544763 0.33960602
vt 0.6854452 0.33773857
vt 0.6705075 0.33789155
vt 0.67049366 0.339759
vt 0.67049366 0.339759
vt 0.6705075 0.33789155
vt 0.65558374 0.33791986
vt 0.655544 0.3397873
vt 0.655544 0.3397873
vt 0.65558374 0.33791986
vt 0.64069206 0.33774993
vt 0.64059585 0.33961484
vt 0.64059585 0.33961484
vt 0.64069206 0.33774993
vt 0.6259011 0.33711737
vt 0.62563235 0.33897033
vt 0.9334238 0.83595544
vt 0.93080735 0.8090088
vt 0.93067914 0.83592516
vt 0.93354833 0.8090424
vt 0.9361592 0.83633274
vt 0.9362851 0.8090797
vt 0.9389606 0.83645254
vt 0.9389873 0.8091106
vt 0.94178104 0.83648473
vt 0.9416825 0.809125
vt 0.9446076 0.83647937
vt 0.9443745 0.80912083
vt 0.9474368 0.8364504
vt 0.94706523 0.80909806
vt 0.9502666 0.83640105
vt 0.9497553 0.8090562
vt 0.9530949 0.83633155
vt 0.95244557 0.8089954
vt 0.955922 0.8362376
vt 0.9551367 0.8089159
vt 0.9587447 0.8361036
vt 0.95783025 0.8088179
vt 0.96155846 0.835875
vt 0.9605277 0.8087023
vt 0.9643185 0.83537656
vt 0.9632328 0.80857104
vt 0.9144161 0.81695217
vt 0.9110211 0.8178883
vt 0.9178109 0.817846
vt 0.9202963 0.82032984
vt 0.921206 0.8237384
vt 0.9202963 0.8271584
vt 0.91781104 0.82967335
vt 0.9144161 0.8306094
vt 0.9110211 0.82971567
vt 0.90853584 0.8272318
vt 0.9076263 0.8238233
vt 0.90853584 0.8204033
vt 0.81423634 0.33125204
vt 0.7987865 0.2907164
vt 0.79878926 0.33125353
vt 0.8142327 0.29071492
vt 0.82967556 0.290713
vt 0.8296787 0.33125025
vt 0.84511596 0.29071206
vt 0.8451179 0.33124876
vt 0.86055464 0.29071164
vt 0.8605546 0.33124822
vt 0.87599343 0.29071206
vt 0.8759917 0.33124876
vt 0.89143366 0.29071307
vt 0.8914307 0.3312502
vt 0.9068766 0.29071492
vt 0.9068733 0.33125204
vt 0.922323 0.2907164
vt 0.92232 0.33125353
vt 0.93777204 0.29071778
vt 0.9377703 0.33125484
vt 0.9532225 0.29071826
vt 0.9532225 0.33125538
vt 0.9686731 0.29071772
vt 0.9686751 0.33125544
vt 0.984122 0.29071635
vt 0.9841252 0.33125353
vt 0.8142336 0.28840995
vt 0.798787 0.28841126
vt 0.7987865 0.2907164
vt 0.8142327 0.29071492
vt 0.8296765 0.28840846
vt 0.82967556 0.290713
vt 0.8451163 0.28840703
vt 0.84511596 0.29071206
vt 0.8605546 0.28840703
vt 0.86055464 0.29071164
vt 0.8759931 0.28840703
vt 0.87599343 0.29071206
vt 0.8914332 0.28840846
vt 0.89143366 0.29071307
vt 0.906876 0.2884099
vt 0.9068766 0.29071492
vt 0.9223223 0.28841126
vt 0.922323 0.2907164
vt 0.93777174 0.28841275
vt 0.93777204 0.29071778
vt 0.9532225 0.28841323
vt 0.9532225 0.29071826
vt 0.9686734 0.28841275
vt 0.9686731 0.29071772
vt 0.98412275 0.28841132
vt 0.984122 0.29071635
vt 0.798787 0.28841126
vt 0.8142084 0.017528728
vt 0.79876536 0.017530307
vt 0.8142336 0.28840995
vt 0.82965446 0.017527267
vt 0.8296765 0.28840846
vt 0.8451038 0.017526045
vt 0.8451163 0.28840703
vt 0.8605546 0.017525539
vt 0.8605546 0.28840703
vt 0.8760056 0.017526075
vt 0.8759931 0.28840703
vt 0.8914546 0.017527267
vt 0.8914332 0.28840846
vt 0.906901 0.017528757
vt 0.906876 0.2884099
vt 0.92234385 0.017530248
vt 0.9223223 0.28841126
vt 0.93778425 0.0175315
vt 0.93777174 0.28841275
vt 0.9532225 0.017532036
vt 0.9532225 0.28841323
vt 0.968661 0.0175315
vt 0.9686734 0.28841275
vt 0.9841011 0.017530277
vt 0.98412275 0.28841132
vn 4.2450327E-07 0.7070244 0.7071892
vn -0.35351446 0.6123019 0.70718735
vn -0.35351166 0.6123035 0.70718735
vn 4.2410525E-07 0.70702446 0.7071892
vn 0.35351375 0.6122995 0.7071898
vn 0.35351068 0.61230135 0.70718974
vn 0.6123005 0.35351557 0.70718795
vn 0.61230105 0.35351467 0.70718795
vn 0.7070282 6.106889E-07 0.70718545
vn 0.7070282 -3.675561E-07 0.70718545
vn 0.612294 -0.3534975 0.70720273
vn 0.61229545 -0.35349497 0.7072027
vn 0.35349572 -0.6122725 0.70722216
vn 0.3534934 -0.6122739 0.70722216
vn 3.947316E-07 -0.706994 0.7072196
vn 3.8642915E-07 -0.706994 0.7072196
vn -0.35349467 -0.6122717 0.7072234
vn -0.35349223 -0.6122731 0.70722336
vn -0.6122936 -0.3534962 0.70720375
vn -0.6122942 -0.35349518 0.7072036
vn -0.7070288 0 0.7071848
vn -0.70702887 3.9583009E-07 0.70718473
vn -0.6123022 0.3535185 0.70718515
vn -0.61230457 0.35351434 0.70718515
vn -0.35351446 0.6123019 0.70718735
vn -0.35351166 0.6123035 0.70718735
vn -0 0 1
vn -0 0 1
vn -0 0 1
vn -0 0 1
vn -0 0 1
vn -0 0 1
vn -0 0 1
vn -0 0 1
vn 2.8258025E-06 0 1
vn 2.825802E-06 0 1
vn 2.825802E-06 0 1
vn 2.8258023E-06 0 1
vn 1.4128989E-06 0 1
vn 1.412899E-06 0 1
vn 1.412899E-06 0 1
vn 1.4128987E-06 0 1
vn -0 0 1
vn -0 0 1
vn -0 0 1
vn -0 0 1
vn 4.238693E-06 0 1
vn 4.2386923E-06 0 1
vn 4.2386923E-06 0 1
vn 4.2386923E-06 0 1
vn -1.4128941E-06 0 1
vn -1.4128939E-06 0 1
vn -1.4128939E-06 0 1
vn -1.4128939E-06 0 1
vn -0 0 1
vn -0 0 1
vn -0 0 1
vn -0 0 1
vn -2.8257962E-06 0 1
vn -2.8257962E-06 0 1
vn -2.825796E-06 0 1
vn -2.8257962E-06 0 1
vn -2.119345E-06 0 1
vn -2.1193448E-06 0 1
vn -2.1193453E-06 0 1
vn -2.1193448E-06 0 1
vn -0 0 1
vn -0 0 1
vn -0 0 1
vn -0 0 1
vn -4.2386964E-06 0 1
vn -4.2386964E-06 0 1
vn -4.2386964E-06 0 1
vn -4.2386964E-06 0 1
vn -5.7931527E-07 -1 0
vn 0.499999 -0.866026 0
vn 0.49999896 -0.86602604 0
vn -5.2139276E-06 -1 0
vn -0.49999923 -0.86602587 0
vn -0.49999923 -0.86602587 0
vn -0.86602336 -0.50000364 0
vn -0.86602336 -0.50000364 0
vn -1 0 0
vn -1 0 0
vn -0.86602366 0.50000316 0
vn -0.86602366 0.50000316 0
vn -0.4999983 0.8660264 0
vn -0.4999983 0.8660264 0
vn -0 1 0
vn -0 1 0
vn 0.49999896 0.86602604 0
vn 0.49999896 0.86602604 0
vn 0.86602366 0.50000316 0
vn 0.86602366 0.50000316 0
vn 1 0 0
vn 1 0 0
vn 0.86602366 -0.50000316 0
vn 0.86602587 -0.49999914 0
vn 0.49999896 -0.86602604 0
vn 0.499999 -0.866026 0
vn 2.8107817E-05 0.00010483885 1
vn 2.3401722E-06 -4.054635E-06 1
vn 2.81074E-05 -9.664435E-05 1
vn 3.527796E-06 -1.3223339E-05 1
vn -0 0 1
vn -0 0 1
vn -0 0 1
vn -0 0 1
vn -0 0 1
vn -0 0 1
vn -0 0 1
vn -0 0 1
vn -1.862519E-07 -1 2.885048E-07
vn -0.49999976 -0.8660256 -1.3612457E-07
vn -0.49999973 -0.8660255 -1.3612454E-07
vn -1.8625472E-07 -1 2.885048E-07
vn 0.49999914 -0.86602587 2.6209068E-07
vn 0.49999914 -0.86602587 2.6209065E-07
vn 0.8660237 -0.5000029 0
vn 0.86602277 -0.5000047 0
vn 1 0 0
vn 1 0 0
vn 0.8660241 0.5000024 0
vn 0.8660241 0.5000024 0
vn 0.5000016 0.86602443 -1.6253735E-07
vn 0.4999998 0.8660255 -1.625381E-07
vn -0 1 -2.6006333E-07
vn -1.0347591E-07 1 -2.6006333E-07
vn -0.5000022 0.8660241 1.3003334E-07
vn -0.5000004 0.86602515 1.3003037E-07
vn -0.866024 0.50000256 2.9256773E-07
vn -0.8660241 0.50000215 2.9256734E-07
vn -1 -1.2416983E-07 0
vn -1 1.448648E-07 0
vn -0.8660237 -0.5000029 -2.3567868E-07
vn -0.8660226 -0.500005 -2.3568052E-07
vn -0.49999976 -0.8660256 -1.3612457E-07
vn -0.49999973 -0.8660255 -1.3612454E-07
vn -4.751707E-06 -0.70697653 -0.70723706
vn -0.35349724 -0.6122728 -0.70722115
vn -0.35349447 -0.6122744 -0.7072211
vn -3.7324223E-06 -0.70697653 -0.70723706
vn 0.35348165 -0.6122429 -0.7072548
vn 0.35347822 -0.61224496 -0.70725477
vn 0.6122451 -0.353483 -0.7072522
vn 0.61224556 -0.35348204 -0.7072523
vn 0.7069636 -3.2771337E-07 -0.70724994
vn 0.70696354 6.409332E-07 -0.70724994
vn 0.6122454 0.353484 -0.7072514
vn 0.6122464 0.35348237 -0.7072515
vn 0.35347748 0.6122657 -0.7072371
vn 0.3534741 0.61226773 -0.7072371
vn -0 0.70699453 -0.707219
vn -0 0.70699453 -0.707219
vn -0.35347703 0.6122648 -0.7072382
vn -0.3534736 0.6122668 -0.7072382
vn -0.61224484 0.35348272 -0.7072526
vn -0.61224484 0.35348272 -0.7072526
vn -0.70696336 4.3943442E-07 -0.70725024
vn -0.7069634 -4.7127503E-07 -0.7072502
vn -0.6122568 -0.3534992 -0.707234
vn -0.61225957 -0.35349444 -0.7072341
vn -0.35349724 -0.6122728 -0.70722115
vn -0.35349447 -0.6122744 -0.7072211
vn -0.5000003 -0.86602527 0
vn 3.4531408E-07 -1 0
vn -0.5000003 -0.86602527 0
vn 2.5234694E-06 -1 0
vn 0.50000054 -0.86602515 0
vn 0.50000054 -0.86602515 0
vn 0.8660231 -0.5000041 0
vn 0.8660231 -0.5000041 0
vn 1 0 0
vn 1 0 0
vn 0.8660233 0.5000037 0
vn 0.8660233 0.5000037 0
vn 0.4999995 0.8660257 0
vn 0.4999995 0.8660257 0
vn -0 1 0
vn -0 1 0
vn -0.50000024 0.86602527 0
vn -0.50000024 0.86602527 0
vn -0.86602336 0.50000364 0
vn -0.86602336 0.50000364 0
vn -1 0 0
vn -1 0 0
vn -0.8660232 -0.5000039 0
vn -0.86602426 -0.50000197 0
vn -0.5000003 -0.86602527 0
vn -0.5000003 -0.86602527 0
g straight_pipe2_back_faces_0
f 3/3/3 2/2/2 1/1/1
f 4/4/4 3/3/3 1/1/1
f 4/4/4 1/1/1 5/5/5
f 6/6/6 4/4/4 5/5/5
f 6/6/6 5/5/5 7/7/7
f 8/8/8 6/6/6 7/7/7
f 8/8/8 7/7/7 9/9/9
f 10/10/10 8/8/8 9/9/9
f 10/10/10 9/9/9 11/11/11
f 12/12/12 10/10/10 11/11/11
f 12/12/12 11/11/11 13/13/13
f 14/14/14 12/12/12 13/13/13
f 14/14/14 13/13/13 15/15/15
f 16/16/16 14/14/14 15/15/15
f 16/16/16 15/15/15 17/17/17
f 18/18/18 16/16/16 17/17/17
f 18/18/18 17/17/17 19/19/19
f 20/20/20 18/18/18 19/19/19
f 20/20/20 19/19/19 21/21/21
f 22/22/22 20/20/20 21/21/21
f 22/22/22 21/21/21 23/23/23
f 24/24/24 22/22/22 23/23/23
f 24/24/24 23/23/23 25/25/25
f 26/26/26 24/24/24 25/25/25
f 29/29/29 28/28/28 27/27/27
f 30/30/30 29/29/29 27/27/27
f 33/33/33 32/32/32 31/31/31
f 34/34/34 33/33/33 31/31/31
f 37/37/37 36/36/36 35/35/35
f 38/38/38 37/37/37 35/35/35
f 41/41/41 40/40/40 39/39/39
f 42/42/42 41/41/41 39/39/39
f 45/45/45 44/44/44 43/43/43
f 46/46/46 45/45/45 43/43/43
f 49/49/49 48/48/48 47/47/47
f 50/50/50 49/49/49 47/47/47
f 53/53/53 52/52/52 51/51/51
f 54/54/54 53/53/53 51/51/51
f 57/57/57 56/56/56 55/55/55
f 58/58/58 57/57/57 55/55/55
f 61/61/61 60/60/60 59/59/59
f 62/62/62 61/61/61 59/59/59
f 65/65/65 64/64/64 63/63/63
f 66/66/66 65/65/65 63/63/63
f 69/69/69 68/68/68 67/67/67
f 70/70/70 69/69/69 67/67/67
f 73/73/73 72/72/72 71/71/71
f 74/74/74 73/73/73 71/71/71
f 77/77/77 76/76/76 75/75/75
f 76/76/76 78/78/78 75/75/75
f 75/75/75 78/78/78 79/79/79
f 78/78/78 80/80/80 79/79/79
f 79/79/79 80/80/80 81/81/81
f 80/80/80 82/82/82 81/81/81
f 81/81/81 82/82/82 83/83/83
f 82/82/82 84/84/84 83/83/83
f 83/83/83 84/84/84 85/85/85
f 84/84/84 86/86/86 85/85/85
f 85/85/85 86/86/86 87/87/87
f 86/86/86 88/88/88 87/87/87
f 87/87/87 88/88/88 89/89/89
f 88/88/88 90/90/90 89/89/89
f 89/89/89 90/90/90 91/91/91
f 90/90/90 92/92/92 91/91/91
f 91/91/91 92/92/92 93/93/93
f 92/92/92 94/94/94 93/93/93
f 93/93/93 94/94/94 95/95/95
f 94/94/94 96/96/96 95/95/95
f 95/95/95 96/96/96 97/97/97
f 96/96/96 98/98/98 97/97/97
f 97/97/97 98/98/98 99/99/99
f 98/98/98 100/100/100 99/99/99
f 103/103/103 102/102/102 101/101/101
f 104/104/104 102/102/102 103/103/103
f 105/105/105 102/102/102 104/104/104
f 106/106/106 102/102/102 105/105/105
f 107/107/107 102/102/102 106/106/106
f 108/108/108 102/102/102 107/107/107
f 109/109/109 102/102/102 108/108/108
f 110/110/110 102/102/102 109/109/109
f 111/111/111 102/102/102 110/110/110
f 112/112/112 102/102/102 111/111/111
f 115/115/115 114/114/114 113/113/113
f 114/114/114 116/116/116 113/113/113
f 113/113/113 116/116/116 117/117/117
f 118/118/118 113/113/113 117/117/117
f 118/118/118 117/117/117 119/119/119
f 120/120/120 118/118/118 119/119/119
f 120/120/120 119/119/119 121/121/121
f 122/122/122 120/120/120 121/121/121
f 122/122/122 121/121/121 123/123/123
f 124/124/124 122/122/122 123/123/123
f 124/124/124 123/123/123 125/125/125
f 126/126/126 124/124/124 125/125/125
f 126/126/126 125/125/125 127/127/127
f 128/128/128 126/126/126 127/127/127
f 128/128/128 127/127/127 129/129/129
f 130/130/130 128/128/128 129/129/129
f 130/130/130 129/129/129 131/131/131
f 132/132/132 130/130/130 131/131/131
f 132/132/132 131/131/131 133/133/133
f 134/134/134 132/132/132 133/133/133
f 134/134/134 133/133/133 135/135/135
f 136/136/136 134/134/134 135/135/135
f 136/136/136 135/135/135 137/137/137
f 138/138/138 136/136/136 137/137/137
f 141/141/141 140/140/140 139/139/139
f 142/142/142 141/141/141 139/139/139
f 142/142/142 139/139/139 143/143/143
f 144/144/144 142/142/142 143/143/143
f 144/144/144 143/143/143 145/145/145
f 146/146/146 144/144/144 145/145/145
f 146/146/146 145/145/145 147/147/147
f 148/148/148 146/146/146 147/147/147
f 148/148/148 147/147/147 149/149/149
f 150/150/150 148/148/148 149/149/149
f 150/150/150 149/149/149 151/151/151
f 152/152/152 150/150/150 151/151/151
f 152/152/152 151/151/151 153/153/153
f 154/154/154 152/152/152 153/153/153
f 154/154/154 153/153/153 155/155/155
f 156/156/156 154/154/154 155/155/155
f 156/156/156 155/155/155 157/157/157
f 158/158/158 156/156/156 157/157/157
f 158/158/158 157/157/157 159/159/159
f 160/160/160 158/158/158 159/159/159
f 160/160/160 159/159/159 161/161/161
f 162/162/162 160/160/160 161/161/161
f 162/162/162 161/161/161 163/163/163
f 164/164/164 162/162/162 163/163/163
f 167/167/167 166/166/166 165/165/165
f 166/166/166 168/168/168 165/165/165
f 166/166/166 169/169/169 168/168/168
f 169/169/169 170/170/170 168/168/168
f 169/169/169 171/171/171 170/170/170
f 171/171/171 172/172/172 170/170/170
f 171/171/171 173/173/173 172/172/172
f 173/173/173 174/174/174 172/172/172
f 173/173/173 175/175/175 174/174/174
f 175/175/175 176/176/176 174/174/174
f 175/175/175 177/177/177 176/176/176
f 177/177/177 178/178/178 176/176/176
f 177/177/177 179/179/179 178/178/178
f 179/179/179 180/180/180 178/178/178
f 179/179/179 181/181/181 180/180/180
f 181/181/181 182/182/182 180/180/180
f 181/181/181 183/183/183 182/182/182
f 183/183/183 184/184/184 182/182/182
f 183/183/183 185/185/185 184/184/184
f 185/185/185 186/186/186 184/184/184
f 185/185/185 187/187/187 186/186/186
f 187/187/187 188/188/188 186/186/186
f 187/187/187 189/189/189 188/188/188
f 189/189/189 190/190/190 188/188/188
