g switch_rock
v -1.2784699 0.10556976 0
v -1.0989115 0.5982574 0.45518386
v -1.1811521 0.10556976 0.48924923
v -1.1894535 0.5982574 -4.1163162E-07
v -1.1811521 0.10556976 -0.48924923
v -0.8410708 1.0159384 0.34838256
v -1.0989113 0.5982574 -0.4551847
v -0.90401465 0.10556976 -0.9040149
v -0.9103686 1.0159384 -3.1182293E-07
v -0.45518434 1.2950232 0.18854327
v -0.8410704 0.5982574 -0.841071
v -0.4892491 0.10556976 -1.1811523
v -0.84107053 1.0159384 -0.34838313
v -0.4926878 1.2950232 -1.6244867E-07
v -0 1.3930252 1.3750165E-08
v -0.45518366 0.5982574 -1.0989118
v 2.2860826E-07 0.10556976 -1.2784699
v -0.6437274 1.0159384 -0.64372784
v -0.45518428 1.2950232 -0.1885436
v -0 1.3930252 1.3750165E-08
v 6.0262414E-07 0.5982574 -1.1894532
v 0.48924956 0.10556976 -1.181152
v -0.34838238 1.0159384 -0.8410708
v -0.34838268 1.2950232 -0.34838295
v -0 1.3930252 1.3750165E-08
v 0.45518485 0.5982574 -1.0989113
v 0.904015 0.10556976 -0.9040146
v 4.6122847E-07 1.0159384 -0.91036856
v -0.18854322 1.2950232 -0.4551843
v -0 1.3930252 1.3750165E-08
v 0.8410711 0.5982574 -0.8410702
v 1.1811523 0.10556976 -0.48924887
v 1.0989118 0.5982574 -0.45518357
v 0.34838325 1.0159384 -0.8410705
v 2.4961508E-07 1.2950232 -0.49268776
v -0 1.3930252 1.3750165E-08
v 0.64372796 1.0159384 -0.64372724
v 0.8410709 1.0159384 -0.3483823
v 0.18854368 1.2950232 -0.4551842
v -0 1.3930252 1.3750165E-08
v 0.348383 1.2950232 -0.34838262
v -0 1.3930252 1.3750165E-08
v 0.4551844 1.2950232 -0.18854316
v -0 1.3930252 1.3750165E-08
v 1.2784699 0.10556976 0
v 1.0989118 0.5982574 -0.45518357
v 1.1811523 0.10556976 -0.48924887
v 1.1894535 0.5982574 1.3750165E-08
v 1.1811523 0.10556976 0.48924887
v 0.8410709 1.0159384 -0.3483823
v 1.0989115 0.5982574 0.4551843
v 0.904015 0.10556976 0.9040146
v 0.9103686 1.0159384 1.3750165E-08
v 0.4551844 1.2950232 -0.18854316
v 0.84107053 0.5982574 0.8410707
v 0.48924956 0.10556976 1.181152
v 0.8410707 1.0159384 0.34838286
v 0.4926878 1.2950232 1.3750165E-08
v -0 1.3930252 1.3750165E-08
v 0.45518404 0.5982574 1.0989115
v 2.2860826E-07 0.10556976 1.2784699
v 0.6437275 1.0159384 0.64372766
v 0.4551843 1.2950232 0.18854347
v -0 1.3930252 1.3750165E-08
v -1.772424E-07 0.5982574 1.1894534
v -0.4892491 0.10556976 1.1811523
v 0.34838268 1.0159384 0.8410707
v 0.34838283 1.2950232 0.3483829
v -0 1.3930252 1.3750165E-08
v -0.45518446 0.5982574 1.0989115
v -0.90401465 0.10556976 0.9040149
v -1.3565547E-07 1.0159384 0.9103686
v 0.18854338 1.2950232 0.4551844
v -0 1.3930252 1.3750165E-08
v -0.8410708 0.5982574 0.8410704
v -1.1811521 0.10556976 0.48924923
v -1.0989115 0.5982574 0.45518386
v -0.34838298 1.0159384 0.8410706
v -7.341621E-08 1.2950232 0.4926878
v -0 1.3930252 1.3750165E-08
v -0.6437278 1.0159384 0.6437275
v -0.8410708 1.0159384 0.34838256
v -0.18854351 1.2950232 0.4551843
v -0 1.3930252 1.3750165E-08
v -0.34838295 1.2950232 0.34838274
v -0 1.3930252 1.3750165E-08
v -0.45518434 1.2950232 0.18854327
v -0 1.3930252 1.3750165E-08
v -1.2784699 0.10556976 0
v -1.0989115 -0.38711792 -0.45518386
v -1.1811521 0.10556976 -0.48924923
v -1.1894535 -0.38711792 4.1163162E-07
v -1.1811521 0.10556976 0.48924923
v -0.8410708 -0.80479884 -0.34838256
v -1.0989113 -0.38711792 0.4551847
v -0.90401465 0.10556976 0.9040149
v -0.9103686 -0.80479884 3.1182293E-07
v -0.45518434 -1.0838836 -0.18854327
v -0.8410704 -0.38711792 0.841071
v -0.4892491 0.10556976 1.1811523
v -0.84107053 -0.80479884 0.34838313
v -0.4926878 -1.0838836 1.6244867E-07
v -0 -1.1818855 -1.3750165E-08
v -0.45518366 -0.38711792 1.0989118
v 2.2860826E-07 0.10556976 1.2784699
v -0.6437274 -0.80479884 0.64372784
v -0.45518428 -1.0838836 0.1885436
v -0 -1.1818855 -1.3750165E-08
v 6.0262414E-07 -0.38711792 1.1894532
v 0.48924956 0.10556976 1.181152
v -0.34838238 -0.80479884 0.8410708
v -0.34838268 -1.0838836 0.34838295
v -0 -1.1818855 -1.3750165E-08
v 0.45518485 -0.38711792 1.0989113
v 0.904015 0.10556976 0.9040146
v 4.6122847E-07 -0.80479884 0.91036856
v -0.18854322 -1.0838836 0.4551843
v -0 -1.1818855 -1.3750165E-08
v 0.8410711 -0.38711792 0.8410702
v 1.1811523 0.10556976 0.48924887
v 1.0989118 -0.38711792 0.45518357
v 0.34838325 -0.80479884 0.8410705
v 2.4961508E-07 -1.0838836 0.49268776
v -0 -1.1818855 -1.3750165E-08
v 0.64372796 -0.80479884 0.64372724
v 0.8410709 -0.80479884 0.3483823
v 0.18854368 -1.0838836 0.4551842
v -0 -1.1818855 -1.3750165E-08
v 0.348383 -1.0838836 0.34838262
v -0 -1.1818855 -1.3750165E-08
v 0.4551844 -1.0838836 0.18854316
v -0 -1.1818855 -1.3750165E-08
v 1.2784699 0.10556976 0
v 1.0989118 -0.38711792 0.45518357
v 1.1811523 0.10556976 0.48924887
v 1.1894535 -0.38711792 -1.3750165E-08
v 1.1811523 0.10556976 -0.48924887
v 0.8410709 -0.80479884 0.3483823
v 1.0989115 -0.38711792 -0.4551843
v 0.904015 0.10556976 -0.9040146
v 0.9103686 -0.80479884 -1.3750165E-08
v 0.4551844 -1.0838836 0.18854316
v 0.84107053 -0.38711792 -0.8410707
v 0.48924956 0.10556976 -1.181152
v 0.8410707 -0.80479884 -0.34838286
v 0.4926878 -1.0838836 -1.3750165E-08
v -0 -1.1818855 -1.3750165E-08
v 0.45518404 -0.38711792 -1.0989115
v 2.2860826E-07 0.10556976 -1.2784699
v 0.6437275 -0.80479884 -0.64372766
v 0.4551843 -1.0838836 -0.18854347
v -0 -1.1818855 -1.3750165E-08
v -1.772424E-07 -0.38711792 -1.1894534
v -0.4892491 0.10556976 -1.1811523
v 0.34838268 -0.80479884 -0.8410707
v 0.34838283 -1.0838836 -0.3483829
v -0 -1.1818855 -1.3750165E-08
v -0.45518446 -0.38711792 -1.0989115
v -0.90401465 0.10556976 -0.9040149
v -1.3565547E-07 -0.80479884 -0.9103686
v 0.18854338 -1.0838836 -0.4551844
v -0 -1.1818855 -1.3750165E-08
v -0.8410708 -0.38711792 -0.8410704
v -1.1811521 0.10556976 -0.48924923
v -1.0989115 -0.38711792 -0.45518386
v -0.34838298 -0.80479884 -0.8410706
v -7.341621E-08 -1.0838836 -0.4926878
v -0 -1.1818855 -1.3750165E-08
v -0.6437278 -0.80479884 -0.6437275
v -0.8410708 -0.80479884 -0.34838256
v -0.18854351 -1.0838836 -0.4551843
v -0 -1.1818855 -1.3750165E-08
v -0.34838295 -1.0838836 -0.34838274
v -0 -1.1818855 -1.3750165E-08
v -0.45518434 -1.0838836 -0.18854327
v -0 -1.1818855 -1.3750165E-08
vt 0.616576 0.6064185
vt 0.59437287 0.624109
vt 0.616576 0.624109
vt 0.5943728 0.6064186
vt 0.616576 0.58872783
vt 0.5699287 0.624109
vt 0.5943728 0.5887281
vt 0.616576 0.5710376
vt 0.5699287 0.6064187
vt 0.54988414 0.62410927
vt 0.5943728 0.5710376
vt 0.616576 0.55334723
vt 0.5699287 0.58872813
vt 0.54988426 0.6064189
vt 0.52580655 0.6152641
vt 0.5943728 0.55334723
vt 0.616576 0.5356568
vt 0.5699287 0.5710377
vt 0.5498842 0.58872825
vt 0.5258064 0.5975739
vt 0.5943728 0.53565687
vt 0.616576 0.5179663
vt 0.5699287 0.55334735
vt 0.5498842 0.5710379
vt 0.5258064 0.5798831
vt 0.5943728 0.5179663
vt 0.6165759 0.50027573
vt 0.5699287 0.53565687
vt 0.5498842 0.55334735
vt 0.5258064 0.5621925
vt 0.5943728 0.5002759
vt 0.616576 0.48258522
vt 0.5943728 0.48258522
vt 0.5699287 0.5179662
vt 0.5498842 0.5356571
vt 0.5258064 0.54450214
vt 0.5699287 0.50027585
vt 0.5699287 0.48258543
vt 0.5498841 0.51796633
vt 0.5258064 0.5268117
vt 0.5498842 0.50027597
vt 0.5258064 0.50912136
vt 0.5498842 0.48258522
vt 0.5258064 0.49143097
vt 0.6165761 0.500108
vt 0.5943728 0.48241732
vt 0.6165761 0.48241732
vt 0.5943729 0.5001078
vt 0.6165761 0.51779836
vt 0.5699287 0.48241723
vt 0.59437287 0.51779824
vt 0.6165761 0.5354888
vt 0.5699287 0.500108
vt 0.5498841 0.48241723
vt 0.59437287 0.5354888
vt 0.6165761 0.5531793
vt 0.5699287 0.51779836
vt 0.5498841 0.5001076
vt 0.5258064 0.49126232
vt 0.59437287 0.55317926
vt 0.6165761 0.57086986
vt 0.5699287 0.5354888
vt 0.54988414 0.517798
vt 0.52580655 0.508953
vt 0.59437287 0.5708698
vt 0.6165761 0.5885602
vt 0.56992865 0.5531793
vt 0.54988414 0.5354888
vt 0.52580655 0.5266434
vt 0.59437287 0.5885602
vt 0.6165761 0.6062508
vt 0.5699287 0.57086986
vt 0.54988414 0.5531791
vt 0.5258064 0.5443337
vt 0.59437287 0.6062508
vt 0.616576 0.62394124
vt 0.59437287 0.62394124
vt 0.5699287 0.5885601
vt 0.54988414 0.57086945
vt 0.52580655 0.56202435
vt 0.5699287 0.6062508
vt 0.5699287 0.62394124
vt 0.54988414 0.5885601
vt 0.5258064 0.5797149
vt 0.5498841 0.60625064
vt 0.5258064 0.5974052
vt 0.54988414 0.623941
vt 0.5258064 0.61509585
vt 0.616576 0.6064185
vt 0.59437287 0.624109
vt 0.616576 0.624109
vt 0.5943728 0.6064186
vt 0.616576 0.58872783
vt 0.5699287 0.624109
vt 0.5943728 0.5887281
vt 0.616576 0.5710376
vt 0.5699287 0.6064187
vt 0.54988414 0.62410927
vt 0.5943728 0.5710376
vt 0.616576 0.55334723
vt 0.5699287 0.58872813
vt 0.54988426 0.6064189
vt 0.52580655 0.6152641
vt 0.5943728 0.55334723
vt 0.616576 0.5356568
vt 0.5699287 0.5710377
vt 0.5498842 0.58872825
vt 0.5258064 0.5975739
vt 0.5943728 0.53565687
vt 0.616576 0.5179663
vt 0.5699287 0.55334735
vt 0.5498842 0.5710379
vt 0.5258064 0.5798831
vt 0.5943728 0.5179663
vt 0.6165759 0.50027573
vt 0.5699287 0.53565687
vt 0.5498842 0.55334735
vt 0.5258064 0.5621925
vt 0.5943728 0.5002759
vt 0.616576 0.48258522
vt 0.5943728 0.48258522
vt 0.5699287 0.5179662
vt 0.5498842 0.5356571
vt 0.5258064 0.54450214
vt 0.5699287 0.50027585
vt 0.5699287 0.48258543
vt 0.5498841 0.51796633
vt 0.5258064 0.5268117
vt 0.5498842 0.50027597
vt 0.5258064 0.50912136
vt 0.5498842 0.48258522
vt 0.5258064 0.49143097
vt 0.6165761 0.500108
vt 0.5943728 0.48241732
vt 0.6165761 0.48241732
vt 0.5943729 0.5001078
vt 0.6165761 0.51779836
vt 0.5699287 0.48241723
vt 0.59437287 0.51779824
vt 0.6165761 0.5354888
vt 0.5699287 0.500108
vt 0.5498841 0.48241723
vt 0.59437287 0.5354888
vt 0.6165761 0.5531793
vt 0.5699287 0.51779836
vt 0.5498841 0.5001076
vt 0.5258064 0.49126232
vt 0.59437287 0.55317926
vt 0.6165761 0.57086986
vt 0.5699287 0.5354888
vt 0.54988414 0.517798
vt 0.52580655 0.508953
vt 0.59437287 0.5708698
vt 0.6165761 0.5885602
vt 0.56992865 0.5531793
vt 0.54988414 0.5354888
vt 0.52580655 0.5266434
vt 0.59437287 0.5885602
vt 0.6165761 0.6062508
vt 0.5699287 0.57086986
vt 0.54988414 0.5531791
vt 0.5258064 0.5443337
vt 0.59437287 0.6062508
vt 0.616576 0.62394124
vt 0.59437287 0.62394124
vt 0.5699287 0.5885601
vt 0.54988414 0.57086945
vt 0.52580655 0.56202435
vt 0.5699287 0.6062508
vt 0.5699287 0.62394124
vt 0.54988414 0.5885601
vt 0.5258064 0.5797149
vt 0.5498841 0.60625064
vt 0.5258064 0.5974052
vt 0.54988414 0.623941
vt 0.5258064 0.61509585
vn -0.9840672 0.17779686 0
vn -0.86535144 0.3502677 0.3584402
vn -0.90915954 0.17779689 0.3765862
vn -0.9366496 0.35026774 -2.6325472E-07
vn -0.90915954 0.17779672 -0.3765862
vn -0.6888354 0.66640496 0.28532493
vn -0.86535126 0.35026777 -0.3584406
vn -0.69584054 0.17779666 -0.6958407
vn -0.74559003 0.6664049 -2.305823E-07
vn -0.44643444 0.8755005 0.18491916
vn -0.6623111 0.35026786 -0.66231155
vn -0.3765859 0.17779684 -0.90915966
vn -0.6888351 0.6664051 -0.28532526
vn -0.48321697 0.8755007 0
vn -0 1 0
vn -0.35843986 0.35026783 -0.86535156
vn 3.1931913E-07 0.17779693 -0.9840672
vn -0.52721137 0.66640514 -0.52721184
vn -0.44643432 0.87550056 -0.18491942
vn -0 1 0
vn 5.1265386E-07 0.35026774 -0.9366496
vn 0.3765863 0.17779672 -0.90915954
vn -0.28532454 0.6664051 -0.6888354
vn -0.3416859 0.87550056 -0.34168616
vn -0 1 0
vn 0.3584406 0.3502678 -0.86535126
vn 0.6958408 0.17779675 -0.6958405
vn 3.9066816E-07 0.666405 -0.74559003
vn -0.18491909 0.87550056 -0.44643447
vn -0 1 0
vn 0.6623116 0.35026786 -0.6623108
vn 0.90915966 0.17779681 -0.37658593
vn 0.86535156 0.35026777 -0.35844007
vn 0.2853253 0.6664051 -0.6888351
vn 1.8157816E-07 0.87550056 -0.48321703
vn -0 1 0
vn 0.5272119 0.6664052 -0.5272113
vn 0.6888354 0.666405 -0.28532487
vn 0.18491955 0.87550056 -0.44643426
vn -0 1 0
vn 0.34168625 0.87550056 -0.3416859
vn -0 1 0
vn 0.44643438 0.8755005 -0.18491925
vn -0 1 0
vn 0.9840672 0.17779668 1.008377E-07
vn 0.86535156 0.35026777 -0.35844007
vn 0.90915966 0.17779681 -0.37658593
vn 0.9366496 0.3502677 1.847403E-07
vn 0.90915966 0.17779663 0.37658602
vn 0.6888354 0.666405 -0.28532487
vn 0.8653514 0.35026777 0.3584405
vn 0.6958407 0.1777968 0.69584054
vn 0.74559003 0.666405 2.4526926E-07
vn 0.44643438 0.8755005 -0.18491925
vn 0.66231114 0.35026786 0.6623113
vn 0.37658623 0.17779683 0.90915954
vn 0.6888351 0.6664051 0.2853252
vn 0.4832169 0.8755007 1.4959211E-07
vn -0 1 0
vn 0.3584403 0.35026774 0.8653514
vn 3.1091602E-07 0.17779686 0.9840672
vn 0.52721155 0.666405 0.5272118
vn 0.44643432 0.87550056 0.18491946
vn -0 1 0
vn -0 0.3502677 0.9366496
vn -0.37658605 0.17779681 0.90915966
vn 0.28532505 0.66640496 0.68883526
vn 0.34168607 0.8755005 0.34168634
vn -0 1 0
vn -0.35844052 0.35026777 0.86535126
vn -0.6958407 0.1777969 0.69584054
vn -1.2630625E-07 0.6664049 0.7455901
vn 0.18491933 0.8755005 0.44643444
vn -0 1 0
vn -0.66231155 0.35026786 0.662311
vn -0.90915954 0.17779689 0.3765862
vn -0.86535144 0.3502677 0.3584402
vn -0.28532514 0.6664051 0.6888351
vn -1.1534415E-07 0.8755007 0.48321697
vn -0 1 0
vn -0.52721184 0.666405 0.5272115
vn -0.6888354 0.66640496 0.28532493
vn -0.1849193 0.87550056 0.44643426
vn -0 1 0
vn -0.3416861 0.87550056 0.34168598
vn -0 1 0
vn -0.44643444 0.8755005 0.18491916
vn -0 1 0
vn -0.9840672 -0.17779686 0
vn -0.86535144 -0.3502677 -0.3584402
vn -0.90915954 -0.17779689 -0.3765862
vn -0.9366496 -0.35026774 2.493992E-07
vn -0.90915954 -0.17779672 0.3765862
vn -0.6888354 -0.66640496 -0.28532493
vn -0.86535126 -0.35026777 0.3584406
vn -0.69584054 -0.17779666 0.6958407
vn -0.74559003 -0.6664049 1.2924359E-07
vn -0.44643435 -0.87550056 -0.1849191
vn -0.66231114 -0.3502679 0.66231143
vn -0.37658587 -0.17779687 0.90915966
vn -0.6888351 -0.6664051 0.28532514
vn -0.48321688 -0.8755007 0
vn -0 -1 0
vn -0.35843983 -0.35026783 0.86535156
vn 3.1931913E-07 -0.17779693 0.9840672
vn -0.52721137 -0.66640514 0.52721184
vn -0.44643432 -0.87550056 0.18491934
vn -0 -1 0
vn 5.172723E-07 -0.3502677 0.9366496
vn 0.3765863 -0.17779674 0.90915954
vn -0.28532457 -0.6664051 0.6888354
vn -0.34168586 -0.8755007 0.34168616
vn -0 -1 0
vn 0.3584406 -0.35026783 0.8653512
vn 0.69584084 -0.17779674 0.6958405
vn 4.0241758E-07 -0.6664049 0.74559003
vn -0.18491904 -0.87550056 0.44643432
vn -0 -1 0
vn 0.6623116 -0.35026786 0.6623108
vn 0.90915966 -0.17779681 0.37658593
vn 0.86535156 -0.35026777 0.35844007
vn 0.28532532 -0.6664051 0.6888351
vn 1.8610152E-07 -0.8755007 0.4832169
vn -0 -1 0
vn 0.5272119 -0.66640526 0.5272113
vn 0.6888354 -0.666405 0.28532487
vn 0.18491946 -0.87550056 0.44643414
vn -0 -1 0
vn 0.34168625 -0.8755007 0.34168574
vn -0 -1 0
vn 0.44643432 -0.87550056 0.18491904
vn -0 -1 0
vn 0.9840672 -0.17779666 -1.17643985E-07
vn 0.86535156 -0.35026777 0.35844007
vn 0.90915966 -0.17779681 0.37658593
vn 0.9366496 -0.3502677 -1.6164775E-07
vn 0.90915966 -0.17779663 -0.37658608
vn 0.6888354 -0.666405 0.28532487
vn 0.8653514 -0.35026777 -0.3584405
vn 0.6958407 -0.1777968 -0.69584054
vn 0.74559003 -0.666405 -1.7183535E-07
vn 0.44643432 -0.87550056 0.18491904
vn 0.66231114 -0.35026786 -0.6623114
vn 0.37658623 -0.17779683 -0.90915954
vn 0.6888351 -0.6664051 -0.2853251
vn 0.48321688 -0.8755007 -1.9094803E-07
vn -0 -1 0
vn 0.3584403 -0.35026774 -0.8653514
vn 3.025129E-07 -0.17779686 -0.9840672
vn 0.5272116 -0.666405 -0.5272118
vn 0.4464342 -0.8755007 -0.18491931
vn -0 -1 0
vn -0 -0.35026774 -0.9366496
vn -0.37658605 -0.17779681 -0.90915966
vn 0.28532508 -0.666405 -0.6888354
vn 0.34168604 -0.87550056 -0.34168604
vn -0 -1 0
vn -0.3584405 -0.35026777 -0.8653514
vn -0.6958407 -0.1777969 -0.69584054
vn -1.2630623E-07 -0.6664049 -0.74559003
vn 0.18491928 -0.87550056 -0.4464342
vn -0 -1 0
vn -0.66231155 -0.35026783 -0.6623111
vn -0.90915954 -0.17779689 -0.3765862
vn -0.86535144 -0.3502677 -0.3584402
vn -0.2853251 -0.66640496 -0.68883526
vn -1.188982E-07 -0.8755007 -0.4832169
vn -0 -1 0
vn -0.52721184 -0.66640496 -0.52721155
vn -0.6888354 -0.66640496 -0.28532493
vn -0.18491933 -0.87550056 -0.44643426
vn -0 -1 0
vn -0.34168607 -0.8755007 -0.34168583
vn -0 -1 0
vn -0.44643435 -0.87550056 -0.1849191
vn -0 -1 0
g switch_rock_0
f 3/3/3 2/2/2 1/1/1
f 2/2/2 4/4/4 1/1/1
f 1/1/1 4/4/4 5/5/5
f 2/2/2 6/6/6 4/4/4
f 4/4/4 7/7/7 5/5/5
f 5/5/5 7/7/7 8/8/8
f 6/6/6 9/9/9 4/4/4
f 4/4/4 9/9/9 7/7/7
f 6/6/6 10/10/10 9/9/9
f 7/7/7 11/11/11 8/8/8
f 8/8/8 11/11/11 12/12/12
f 9/9/9 13/13/13 7/7/7
f 7/7/7 13/13/13 11/11/11
f 10/10/10 14/14/14 9/9/9
f 9/9/9 14/14/14 13/13/13
f 10/10/10 15/15/15 14/14/14
f 11/11/11 16/16/16 12/12/12
f 12/12/12 16/16/16 17/17/17
f 13/13/13 18/18/18 11/11/11
f 11/11/11 18/18/18 16/16/16
f 14/14/14 19/19/19 13/13/13
f 13/13/13 19/19/19 18/18/18
f 14/14/14 20/20/20 19/19/19
f 16/16/16 21/21/21 17/17/17
f 17/17/17 21/21/21 22/22/22
f 18/18/18 23/23/23 16/16/16
f 16/16/16 23/23/23 21/21/21
f 19/19/19 24/24/24 18/18/18
f 18/18/18 24/24/24 23/23/23
f 19/19/19 25/25/25 24/24/24
f 21/21/21 26/26/26 22/22/22
f 22/22/22 26/26/26 27/27/27
f 23/23/23 28/28/28 21/21/21
f 21/21/21 28/28/28 26/26/26
f 24/24/24 29/29/29 23/23/23
f 23/23/23 29/29/29 28/28/28
f 24/24/24 30/30/30 29/29/29
f 26/26/26 31/31/31 27/27/27
f 27/27/27 31/31/31 32/32/32
f 31/31/31 33/33/33 32/32/32
f 28/28/28 34/34/34 26/26/26
f 26/26/26 34/34/34 31/31/31
f 29/29/29 35/35/35 28/28/28
f 28/28/28 35/35/35 34/34/34
f 29/29/29 36/36/36 35/35/35
f 31/31/31 37/37/37 33/33/33
f 34/34/34 37/37/37 31/31/31
f 37/37/37 38/38/38 33/33/33
f 35/35/35 39/39/39 34/34/34
f 34/34/34 39/39/39 37/37/37
f 35/35/35 40/40/40 39/39/39
f 37/37/37 41/41/41 38/38/38
f 39/39/39 41/41/41 37/37/37
f 39/39/39 42/42/42 41/41/41
f 41/41/41 43/43/43 38/38/38
f 41/41/41 44/44/44 43/43/43
f 47/47/47 46/46/46 45/45/45
f 46/46/46 48/48/48 45/45/45
f 45/45/45 48/48/48 49/49/49
f 46/46/46 50/50/50 48/48/48
f 48/48/48 51/51/51 49/49/49
f 49/49/49 51/51/51 52/52/52
f 50/50/50 53/53/53 48/48/48
f 48/48/48 53/53/53 51/51/51
f 50/50/50 54/54/54 53/53/53
f 51/51/51 55/55/55 52/52/52
f 52/52/52 55/55/55 56/56/56
f 53/53/53 57/57/57 51/51/51
f 51/51/51 57/57/57 55/55/55
f 54/54/54 58/58/58 53/53/53
f 53/53/53 58/58/58 57/57/57
f 54/54/54 59/59/59 58/58/58
f 55/55/55 60/60/60 56/56/56
f 56/56/56 60/60/60 61/61/61
f 57/57/57 62/62/62 55/55/55
f 55/55/55 62/62/62 60/60/60
f 58/58/58 63/63/63 57/57/57
f 57/57/57 63/63/63 62/62/62
f 58/58/58 64/64/64 63/63/63
f 60/60/60 65/65/65 61/61/61
f 61/61/61 65/65/65 66/66/66
f 62/62/62 67/67/67 60/60/60
f 60/60/60 67/67/67 65/65/65
f 63/63/63 68/68/68 62/62/62
f 62/62/62 68/68/68 67/67/67
f 63/63/63 69/69/69 68/68/68
f 65/65/65 70/70/70 66/66/66
f 66/66/66 70/70/70 71/71/71
f 67/67/67 72/72/72 65/65/65
f 65/65/65 72/72/72 70/70/70
f 68/68/68 73/73/73 67/67/67
f 67/67/67 73/73/73 72/72/72
f 68/68/68 74/74/74 73/73/73
f 70/70/70 75/75/75 71/71/71
f 71/71/71 75/75/75 76/76/76
f 75/75/75 77/77/77 76/76/76
f 72/72/72 78/78/78 70/70/70
f 70/70/70 78/78/78 75/75/75
f 73/73/73 79/79/79 72/72/72
f 72/72/72 79/79/79 78/78/78
f 73/73/73 80/80/80 79/79/79
f 75/75/75 81/81/81 77/77/77
f 78/78/78 81/81/81 75/75/75
f 81/81/81 82/82/82 77/77/77
f 79/79/79 83/83/83 78/78/78
f 78/78/78 83/83/83 81/81/81
f 79/79/79 84/84/84 83/83/83
f 81/81/81 85/85/85 82/82/82
f 83/83/83 85/85/85 81/81/81
f 83/83/83 86/86/86 85/85/85
f 85/85/85 87/87/87 82/82/82
f 85/85/85 88/88/88 87/87/87
f 91/91/91 90/90/90 89/89/89
f 90/90/90 92/92/92 89/89/89
f 89/89/89 92/92/92 93/93/93
f 90/90/90 94/94/94 92/92/92
f 92/92/92 95/95/95 93/93/93
f 93/93/93 95/95/95 96/96/96
f 94/94/94 97/97/97 92/92/92
f 92/92/92 97/97/97 95/95/95
f 94/94/94 98/98/98 97/97/97
f 95/95/95 99/99/99 96/96/96
f 96/96/96 99/99/99 100/100/100
f 97/97/97 101/101/101 95/95/95
f 95/95/95 101/101/101 99/99/99
f 98/98/98 102/102/102 97/97/97
f 97/97/97 102/102/102 101/101/101
f 98/98/98 103/103/103 102/102/102
f 99/99/99 104/104/104 100/100/100
f 100/100/100 104/104/104 105/105/105
f 101/101/101 106/106/106 99/99/99
f 99/99/99 106/106/106 104/104/104
f 102/102/102 107/107/107 101/101/101
f 101/101/101 107/107/107 106/106/106
f 102/102/102 108/108/108 107/107/107
f 104/104/104 109/109/109 105/105/105
f 105/105/105 109/109/109 110/110/110
f 106/106/106 111/111/111 104/104/104
f 104/104/104 111/111/111 109/109/109
f 107/107/107 112/112/112 106/106/106
f 106/106/106 112/112/112 111/111/111
f 107/107/107 113/113/113 112/112/112
f 109/109/109 114/114/114 110/110/110
f 110/110/110 114/114/114 115/115/115
f 111/111/111 116/116/116 109/109/109
f 109/109/109 116/116/116 114/114/114
f 112/112/112 117/117/117 111/111/111
f 111/111/111 117/117/117 116/116/116
f 112/112/112 118/118/118 117/117/117
f 114/114/114 119/119/119 115/115/115
f 115/115/115 119/119/119 120/120/120
f 119/119/119 121/121/121 120/120/120
f 116/116/116 122/122/122 114/114/114
f 114/114/114 122/122/122 119/119/119
f 117/117/117 123/123/123 116/116/116
f 116/116/116 123/123/123 122/122/122
f 117/117/117 124/124/124 123/123/123
f 119/119/119 125/125/125 121/121/121
f 122/122/122 125/125/125 119/119/119
f 125/125/125 126/126/126 121/121/121
f 123/123/123 127/127/127 122/122/122
f 122/122/122 127/127/127 125/125/125
f 123/123/123 128/128/128 127/127/127
f 125/125/125 129/129/129 126/126/126
f 127/127/127 129/129/129 125/125/125
f 127/127/127 130/130/130 129/129/129
f 129/129/129 131/131/131 126/126/126
f 129/129/129 132/132/132 131/131/131
f 135/135/135 134/134/134 133/133/133
f 134/134/134 136/136/136 133/133/133
f 133/133/133 136/136/136 137/137/137
f 134/134/134 138/138/138 136/136/136
f 136/136/136 139/139/139 137/137/137
f 137/137/137 139/139/139 140/140/140
f 138/138/138 141/141/141 136/136/136
f 136/136/136 141/141/141 139/139/139
f 138/138/138 142/142/142 141/141/141
f 139/139/139 143/143/143 140/140/140
f 140/140/140 143/143/143 144/144/144
f 141/141/141 145/145/145 139/139/139
f 139/139/139 145/145/145 143/143/143
f 142/142/142 146/146/146 141/141/141
f 141/141/141 146/146/146 145/145/145
f 142/142/142 147/147/147 146/146/146
f 143/143/143 148/148/148 144/144/144
f 144/144/144 148/148/148 149/149/149
f 145/145/145 150/150/150 143/143/143
f 143/143/143 150/150/150 148/148/148
f 146/146/146 151/151/151 145/145/145
f 145/145/145 151/151/151 150/150/150
f 146/146/146 152/152/152 151/151/151
f 148/148/148 153/153/153 149/149/149
f 149/149/149 153/153/153 154/154/154
f 150/150/150 155/155/155 148/148/148
f 148/148/148 155/155/155 153/153/153
f 151/151/151 156/156/156 150/150/150
f 150/150/150 156/156/156 155/155/155
f 151/151/151 157/157/157 156/156/156
f 153/153/153 158/158/158 154/154/154
f 154/154/154 158/158/158 159/159/159
f 155/155/155 160/160/160 153/153/153
f 153/153/153 160/160/160 158/158/158
f 156/156/156 161/161/161 155/155/155
f 155/155/155 161/161/161 160/160/160
f 156/156/156 162/162/162 161/161/161
f 158/158/158 163/163/163 159/159/159
f 159/159/159 163/163/163 164/164/164
f 163/163/163 165/165/165 164/164/164
f 160/160/160 166/166/166 158/158/158
f 158/158/158 166/166/166 163/163/163
f 161/161/161 167/167/167 160/160/160
f 160/160/160 167/167/167 166/166/166
f 161/161/161 168/168/168 167/167/167
f 163/163/163 169/169/169 165/165/165
f 166/166/166 169/169/169 163/163/163
f 169/169/169 170/170/170 165/165/165
f 167/167/167 171/171/171 166/166/166
f 166/166/166 171/171/171 169/169/169
f 167/167/167 172/172/172 171/171/171
f 169/169/169 173/173/173 170/170/170
f 171/171/171 173/173/173 169/169/169
f 171/171/171 174/174/174 173/173/173
f 173/173/173 175/175/175 170/170/170
f 173/173/173 176/176/176 175/175/175
