g tornado_1
v -0.25845307 0.7954364 -0.25
v -0 0.83637136 0.24999994
v -0 0.8363714 -0.25
v -0.25845307 0.79543644 0.24999994
v -0.49160677 0.6766387 -0.24999999
v -0.49160677 0.6766387 0.24999997
v -0.6766388 0.49160683 -0.24999997
v -0.6766388 0.4916068 0.24999994
v -0.7954365 0.258453 -0.25
v -0.7954365 0.25845304 0.25
v -0.8363714 0 -0.25
v -0.8363714 0 0.25
v -0.7954365 -0.25845295 -0.25
v -0.7954365 -0.25845295 0.25
v -0.6766388 -0.4916068 -0.25
v -0.6766388 -0.49160683 0.25
v -0.49160683 -0.6766387 -0.24999999
v -0.49160683 -0.6766387 0.25000003
v -0.25845307 -0.7954366 -0.25000006
v -0.25845307 -0.7954366 0.24999996
v -0 -0.83637154 -0.25
v -0 -0.83637154 0.25
v 0.258453 -0.7954366 -0.25
v 0.258453 -0.7954366 0.24999999
v 0.4916069 -0.6766388 -0.24999997
v 0.4916069 -0.6766388 0.24999999
v 0.67663884 -0.4916069 -0.25
v 0.67663884 -0.4916069 0.25
v 0.79543674 -0.25845298 -0.25000006
v 0.7954366 -0.258453 0.25
v 0.83637166 5.9604645E-08 -0.25
v 0.83637166 4.4703484E-08 0.25
v 0.79543674 0.25845313 -0.25
v 0.79543674 0.25845313 0.25
v 0.67663896 0.49160695 -0.25
v 0.67663896 0.49160695 0.24999997
v 0.49160695 0.676639 -0.25000003
v 0.49160695 0.676639 0.25
v 0.25845307 0.79543686 -0.24999997
v 0.25845307 0.7954368 0.24999993
v -0 0.8363714 -0.25
v -0 0.83637136 0.24999994
v -0.309017 0.95105654 0.24999994
v -0 1 -0.25
v -0 1 0.25
v -0.309017 0.9510565 -0.25
v -0.5877853 0.809017 0.24999994
v -0.5877853 0.80901694 -0.25
v -0.80901706 0.58778524 0.25
v -0.80901706 0.58778524 -0.25
v -0.9510566 0.30901697 0.25
v -0.9510566 0.30901694 -0.25
v -1.0000001 -2.9802322E-08 0.25
v -1.0000001 -2.9802322E-08 -0.25
v -0.95105666 -0.30901706 0.24999994
v -0.9510567 -0.30901706 -0.25
v -0.8090171 -0.58778536 0.24999994
v -0.8090172 -0.58778536 -0.25
v -0.58778536 -0.8090172 0.25
v -0.58778536 -0.8090172 -0.25
v -0.30901706 -0.9510567 0.25
v -0.30901706 -0.9510568 -0.24999994
v -0 -1.0000002 0.25
v -0 -1.0000002 -0.25
v 0.30901712 -0.9510567 0.25
v 0.30901712 -0.9510568 -0.24999994
v 0.5877854 -0.8090172 0.25
v 0.5877854 -0.80901724 -0.24999994
v 0.8090173 -0.5877855 0.25
v 0.8090173 -0.5877855 -0.25
v 0.95105696 -0.30901718 0.25
v 0.95105696 -0.30901715 -0.25
v 1.0000005 0 0.25
v 1.0000005 0 -0.25
v 0.9510571 0.30901715 0.25000006
v 0.9510571 0.30901718 -0.24999994
v 0.8090174 0.5877856 0.25
v 0.8090175 0.5877856 -0.24999994
v 0.5877856 0.80901754 0.25
v 0.5877856 0.80901754 -0.25
v 0.30901718 0.95105714 0.24999994
v 0.30901718 0.9510572 -0.25
v -0 1 0.25
v -0 1 -0.25
vt 0.05 1
vt 0 0
vt 0 1
vt 0.05 0
vt 0.1 1
vt 0.1 0
vt 0.15 1
vt 0.15 0
vt 0.2 1
vt 0.2 0
vt 0.25 1
vt 0.25 0
vt 0.3 1
vt 0.3 0
vt 0.35000002 1
vt 0.35000002 0
vt 0.40000004 1
vt 0.40000004 0
vt 0.45000005 1
vt 0.45000005 0
vt 0.50000006 1
vt 0.50000006 0
vt 0.5500001 1
vt 0.5500001 0
vt 0.6000001 1
vt 0.6000001 0
vt 0.6500001 1
vt 0.6500001 0
vt 0.7000001 1
vt 0.7000001 0
vt 0.7500001 1
vt 0.7500001 0
vt 0.80000013 1
vt 0.80000013 0
vt 0.85000014 1
vt 0.85000014 0
vt 0.90000015 1
vt 0.90000015 0
vt 0.95000017 1
vt 0.95000017 0
vt 1.0000001 1
vt 1.0000001 0
vt 0.05 1
vt 0 0
vt 0 1
vt 0.05 0
vt 0.1 1
vt 0.1 0
vt 0.15 1
vt 0.15 0
vt 0.2 1
vt 0.2 0
vt 0.25 1
vt 0.25 0
vt 0.3 1
vt 0.3 0
vt 0.35000002 1
vt 0.35000002 0
vt 0.40000004 1
vt 0.40000004 0
vt 0.45000005 1
vt 0.45000005 0
vt 0.50000006 1
vt 0.50000006 0
vt 0.5500001 1
vt 0.5500001 0
vt 0.6000001 1
vt 0.6000001 0
vt 0.6500001 1
vt 0.6500001 0
vt 0.7000001 1
vt 0.7000001 0
vt 0.7500001 1
vt 0.7500001 0
vt 0.80000013 1
vt 0.80000013 0
vt 0.85000014 1
vt 0.85000014 0
vt 0.90000015 1
vt 0.90000015 0
vt 0.95000017 1
vt 0.95000017 0
vt 1.0000001 1
vt 1.0000001 0
vn 0.3090169 -0.95105654 0
vn -0 -1 0
vn -0 -1 0
vn 0.30901694 -0.95105654 0
vn 0.5877851 -0.8090171 0
vn 0.5877851 -0.8090171 0
vn 0.8090169 -0.5877853 0
vn 0.8090169 -0.5877853 0
vn 0.95105654 -0.3090168 0
vn 0.95105654 -0.30901682 0
vn 1 0 0
vn 1 0 0
vn 0.95105654 0.3090168 0
vn 0.95105654 0.3090168 0
vn 0.80901706 0.5877852 0
vn 0.809017 0.5877853 0
vn 0.58778536 0.809017 0
vn 0.58778536 0.809017 0
vn 0.30901715 0.9510565 0
vn 0.30901715 0.9510565 0
vn -0 1 0
vn -0 1 0
vn -0.309017 0.95105654 0
vn -0.30901697 0.95105654 0
vn -0.5877852 0.809017 0
vn -0.5877852 0.80901706 0
vn -0.809017 0.5877853 0
vn -0.809017 0.58778536 0
vn -0.9510565 0.30901712 0
vn -0.9510565 0.30901715 0
vn -1 0 0
vn -1 0 0
vn -0.95105654 -0.30901688 0
vn -0.95105654 -0.30901688 0
vn -0.809017 -0.5877853 0
vn -0.809017 -0.5877853 0
vn -0.58778536 -0.809017 0
vn -0.5877853 -0.809017 0
vn -0.30901632 -0.95105666 0
vn -0.30901632 -0.95105666 0
vn -0 -1 0
vn -0 -1 0
vn -0.30901697 0.95105654 0
vn -0 1 0
vn -0 1 0
vn -0.309017 0.95105654 0
vn -0.58778524 0.809017 0
vn -0.5877852 0.809017 0
vn -0.809017 0.5877853 0
vn -0.809017 0.5877853 0
vn -0.95105654 0.30901706 0
vn -0.95105654 0.30901706 0
vn -1 0 0
vn -1 0 0
vn -0.95105654 -0.30901685 0
vn -0.95105654 -0.30901688 0
vn -0.809017 -0.5877852 0
vn -0.809017 -0.58778524 0
vn -0.5877853 -0.8090169 0
vn -0.5877854 -0.8090169 0
vn -0.30901706 -0.95105654 0
vn -0.30901703 -0.95105654 0
vn -0 -1 0
vn -0 -1 0
vn 0.3090169 -0.95105654 0
vn 0.3090169 -0.95105654 0
vn 0.58778507 -0.8090171 0
vn 0.5877852 -0.80901706 0
vn 0.8090168 -0.58778554 0
vn 0.8090168 -0.58778554 0
vn 0.9510565 -0.30901715 0
vn 0.9510565 -0.3090171 0
vn 1 0 0
vn 1 0 0
vn 0.95105654 0.30901685 0
vn 0.95105654 0.30901685 0
vn 0.80901706 0.5877851 0
vn 0.80901706 0.5877851 0
vn 0.5877854 0.8090168 0
vn 0.5877855 0.8090168 0
vn 0.30901605 0.9510568 0
vn 0.30901602 0.9510568 0
vn -0 1 0
vn -0 1 0
g tornado_1_0
f 3/3/3 2/2/2 1/1/1
f 2/2/2 4/4/4 1/1/1
f 1/1/1 4/4/4 5/5/5
f 4/4/4 6/6/6 5/5/5
f 5/5/5 6/6/6 7/7/7
f 6/6/6 8/8/8 7/7/7
f 7/7/7 8/8/8 9/9/9
f 8/8/8 10/10/10 9/9/9
f 9/9/9 10/10/10 11/11/11
f 10/10/10 12/12/12 11/11/11
f 11/11/11 12/12/12 13/13/13
f 12/12/12 14/14/14 13/13/13
f 13/13/13 14/14/14 15/15/15
f 14/14/14 16/16/16 15/15/15
f 15/15/15 16/16/16 17/17/17
f 16/16/16 18/18/18 17/17/17
f 17/17/17 18/18/18 19/19/19
f 18/18/18 20/20/20 19/19/19
f 19/19/19 20/20/20 21/21/21
f 20/20/20 22/22/22 21/21/21
f 21/21/21 22/22/22 23/23/23
f 22/22/22 24/24/24 23/23/23
f 23/23/23 24/24/24 25/25/25
f 24/24/24 26/26/26 25/25/25
f 25/25/25 26/26/26 27/27/27
f 26/26/26 28/28/28 27/27/27
f 27/27/27 28/28/28 29/29/29
f 28/28/28 30/30/30 29/29/29
f 29/29/29 30/30/30 31/31/31
f 30/30/30 32/32/32 31/31/31
f 31/31/31 32/32/32 33/33/33
f 32/32/32 34/34/34 33/33/33
f 33/33/33 34/34/34 35/35/35
f 34/34/34 36/36/36 35/35/35
f 35/35/35 36/36/36 37/37/37
f 36/36/36 38/38/38 37/37/37
f 37/37/37 38/38/38 39/39/39
f 38/38/38 40/40/40 39/39/39
f 39/39/39 40/40/40 41/41/41
f 40/40/40 42/42/42 41/41/41
f 45/45/45 44/44/44 43/43/43
f 44/44/44 46/46/46 43/43/43
f 43/43/43 46/46/46 47/47/47
f 46/46/46 48/48/48 47/47/47
f 47/47/47 48/48/48 49/49/49
f 48/48/48 50/50/50 49/49/49
f 49/49/49 50/50/50 51/51/51
f 50/50/50 52/52/52 51/51/51
f 51/51/51 52/52/52 53/53/53
f 52/52/52 54/54/54 53/53/53
f 53/53/53 54/54/54 55/55/55
f 54/54/54 56/56/56 55/55/55
f 55/55/55 56/56/56 57/57/57
f 56/56/56 58/58/58 57/57/57
f 57/57/57 58/58/58 59/59/59
f 58/58/58 60/60/60 59/59/59
f 59/59/59 60/60/60 61/61/61
f 60/60/60 62/62/62 61/61/61
f 61/61/61 62/62/62 63/63/63
f 62/62/62 64/64/64 63/63/63
f 63/63/63 64/64/64 65/65/65
f 64/64/64 66/66/66 65/65/65
f 65/65/65 66/66/66 67/67/67
f 66/66/66 68/68/68 67/67/67
f 67/67/67 68/68/68 69/69/69
f 68/68/68 70/70/70 69/69/69
f 69/69/69 70/70/70 71/71/71
f 70/70/70 72/72/72 71/71/71
f 71/71/71 72/72/72 73/73/73
f 72/72/72 74/74/74 73/73/73
f 73/73/73 74/74/74 75/75/75
f 74/74/74 76/76/76 75/75/75
f 75/75/75 76/76/76 77/77/77
f 76/76/76 78/78/78 77/77/77
f 77/77/77 78/78/78 79/79/79
f 78/78/78 80/80/80 79/79/79
f 79/79/79 80/80/80 81/81/81
f 80/80/80 82/82/82 81/81/81
f 81/81/81 82/82/82 83/83/83
f 82/82/82 84/84/84 83/83/83
