g tornado_5
v -0.25845414 0.79543626 -0.052269608
v -0 1.0131806 0.45462173
v 5.9604645E-08 0.8363715 -0.0454412
v -0.3130905 0.9635922 0.44779772
v -0.49160635 0.6766389 -0.07912737
v -0.5955328 0.8196805 0.4209065
v -0.67663884 0.49160647 -0.12015492
v -0.8196806 0.5955328 0.37018466
v -0.7954378 0.2584534 -0.16101336
v -0.9635924 0.31309018 0.3132522
v -0.83637106 -1.4901161E-08 -0.2146796
v -1.0131807 0 0.25464606
v -0.7954362 -0.25845295 -0.27275515
v -0.96359247 -0.31309012 0.1946541
v -0.6766389 -0.49160692 -0.34284812
v -0.8196806 -0.5955328 0.13120252
v -0.4916069 -0.67663896 -0.40455696
v -0.59553283 -0.8196805 0.07533592
v -0.25845277 -0.7954364 -0.4420855
v -0.31309003 -0.9635925 0.042497277
v 5.9604645E-08 -0.83637124 -0.4542023
v -0 -1.013181 0.03267902
v 0.2584542 -0.7954364 -0.4420851
v 0.31309044 -0.96359247 0.042497218
v 0.49160665 -0.676639 -0.40455726
v 0.59553295 -0.8196806 0.07533592
v 0.67663914 -0.49160698 -0.3428489
v 0.81968075 -0.5955329 0.13120246
v 0.7954382 -0.25845298 -0.27275354
v 0.9635925 -0.31309015 0.1946541
v 0.83637136 1.4901161E-08 -0.2146796
v 1.013181 5.9604645E-08 0.25464606
v 0.7954365 0.25845346 -0.1610133
v 0.96359265 0.31309026 0.3132522
v 0.67663896 0.4916066 -0.12015486
v 0.8196808 0.59553295 0.37018472
v 0.49160698 0.67663914 -0.07912737
v 0.5955329 0.8196808 0.42090648
v 0.25845265 0.7954365 -0.05226955
v 0.3130899 0.96359247 0.44779772
v 5.9604645E-08 0.8363715 -0.0454412
v -0 1.0131806 0.45462173
v -0.26613265 0.8190722 0.44226652
v 5.9604645E-08 1.0000015 -0.04496891
v -0 0.86122346 0.45503104
v -0.30901676 0.9510569 -0.057746977
v -0.5062147 0.69674444 0.40992838
v -0.58778626 0.80901706 -0.09007344
v -0.69674397 0.5062144 0.35601783
v -0.809016 0.58778465 -0.1430813
v -0.81907225 0.26613265 0.29844165
v -0.95105696 0.3090168 -0.18488222
v -0.8612236 -2.9802322E-08 0.25327468
v -1.0000015 -4.4703484E-08 -0.22501487
v -0.81907225 -0.26613277 0.20518428
v -0.951057 -0.30901712 -0.27387285
v -0.69674456 -0.50621456 0.14002472
v -0.809017 -0.5877856 -0.3454498
v -0.5062145 -0.6967446 0.07926619
v -0.5877855 -0.8090173 -0.4097154
v -0.26613277 -0.81907237 0.03754407
v -0.30901682 -0.9510572 -0.4581467
v -0 -0.86122346 0.019959152
v -0 -1.0000002 -0.47867984
v 0.26613277 -0.81907237 0.037544012
v 0.309017 -0.95105714 -0.45814753
v 0.50621504 -0.6967447 0.07926613
v 0.5877865 -0.8090173 -0.4097144
v 0.6967447 -0.5062147 0.14002472
v 0.80901635 -0.5877857 -0.34544826
v 0.8190725 -0.26613283 0.20518434
v 0.95105743 -0.30901718 -0.27387285
v 0.86122394 0 0.25327468
v 1.000002 -1.4901161E-08 -0.2250148
v 0.8190726 0.2661328 0.2984417
v 0.95105743 0.30901694 -0.18488222
v 0.69674486 0.50621474 0.3560179
v 0.80901736 0.58778495 -0.1430813
v 0.50621474 0.6967449 0.40992844
v 0.5877855 0.8090174 -0.09007341
v 0.2661329 0.8190727 0.44226652
v 0.309017 0.9510575 -0.057746977
v -0 0.86122346 0.45503104
v 5.9604645E-08 1.0000015 -0.04496891
vt 0.05 1
vt 0 0
vt 0 1
vt 0.05 0
vt 0.1 1
vt 0.1 0
vt 0.15 1
vt 0.15 0
vt 0.2 1
vt 0.2 0
vt 0.25 1
vt 0.25 0
vt 0.3 1
vt 0.3 0
vt 0.35000002 1
vt 0.35000002 0
vt 0.40000004 1
vt 0.40000004 0
vt 0.45000005 1
vt 0.45000005 0
vt 0.50000006 1
vt 0.50000006 0
vt 0.5500001 1
vt 0.5500001 0
vt 0.6000001 1
vt 0.6000001 0
vt 0.6500001 1
vt 0.6500001 0
vt 0.7000001 1
vt 0.7000001 0
vt 0.7500001 1
vt 0.7500001 0
vt 0.80000013 1
vt 0.80000013 0
vt 0.85000014 1
vt 0.85000014 0
vt 0.90000015 1
vt 0.90000015 0
vt 0.95000017 1
vt 0.95000017 0
vt 1.0000001 1
vt 1.0000001 0
vt 0.05 1
vt 0 0
vt 0 1
vt 0.05 0
vt 0.1 1
vt 0.1 0
vt 0.15 1
vt 0.15 0
vt 0.2 1
vt 0.2 0
vt 0.25 1
vt 0.25 0
vt 0.3 1
vt 0.3 0
vt 0.35000002 1
vt 0.35000002 0
vt 0.40000004 1
vt 0.40000004 0
vt 0.45000005 1
vt 0.45000005 0
vt 0.50000006 1
vt 0.50000006 0
vt 0.5500001 1
vt 0.5500001 0
vt 0.6000001 1
vt 0.6000001 0
vt 0.6500001 1
vt 0.6500001 0
vt 0.7000001 1
vt 0.7000001 0
vt 0.7500001 1
vt 0.7500001 0
vt 0.80000013 1
vt 0.80000013 0
vt 0.85000014 1
vt 0.85000014 0
vt 0.90000015 1
vt 0.90000015 0
vt 0.95000017 1
vt 0.95000017 0
vt 1.0000001 1
vt 1.0000001 0
vn 0.27795485 -0.90113217 0.3327191
vn -0 -0.9429399 0.3329631
vn -0 -0.9429399 0.33296308
vn 0.26870844 -0.9039303 0.3327246
vn 0.5278 -0.78092265 0.33404627
vn 0.510431 -0.7924696 0.33384436
vn 0.7343458 -0.58755374 0.33987784
vn 0.7164019 -0.6097449 0.33908635
vn 0.87556875 -0.33621168 0.34690207
vn 0.86438245 -0.36468998 0.34618506
vn 0.9348652 -0.051950436 0.3511812
vn 0.93242365 -0.086229965 0.35092795
vn 0.9061386 0.2360793 0.35096908
vn 0.9146089 0.20034012 0.35121846
vn 0.78758574 0.50817496 0.34852117
vn 0.80818945 0.47433534 0.3490499
vn 0.58071625 0.7369764 0.34588203
vn 0.60530734 0.7167686 0.34618723
vn 0.30665478 0.8876097 0.34367394
vn 0.32156292 0.88227826 0.34377682
vn -0 0.93944365 0.3427036
vn -0 0.93944365 0.34270358
vn -0.30665496 0.88760966 0.343674
vn -0.32156265 0.8822783 0.3437768
vn -0.5807168 0.73697615 0.3458819
vn -0.60530764 0.7167685 0.3461871
vn -0.787585 0.5081764 0.34852058
vn -0.80818903 0.47433645 0.34904915
vn -0.906139 0.2360796 0.3509679
vn -0.9146093 0.20034033 0.35121733
vn -0.9348651 -0.05195303 0.35118103
vn -0.9324234 -0.086232394 0.35092813
vn -0.8755679 -0.3362125 0.3469032
vn -0.8643819 -0.36469012 0.34618625
vn -0.7343464 -0.58755255 0.33987844
vn -0.71640253 -0.6097439 0.33908683
vn -0.52779937 -0.7809232 0.33404624
vn -0.51043004 -0.7924703 0.3338443
vn -0.27795407 -0.9011324 0.33271912
vn -0.26870802 -0.9039305 0.3327247
vn -0 -0.9429399 0.33296308
vn -0 -0.9429399 0.3329631
vn -0.30935532 0.9124771 0.26774022
vn -0 0.9634426 0.26791498
vn -0 0.9634426 0.26791498
vn -0.32393116 0.9074058 0.26773757
vn -0.584891 0.76565987 0.26770762
vn -0.6079374 0.74748844 0.2677186
vn -0.7949596 0.5437187 0.26908928
vn -0.8129922 0.51611036 0.2695808
vn -0.92206097 0.2735144 0.2738496
vn -0.92968345 0.24574079 0.27440897
vn -0.9603083 -0.026740612 0.2776559
vn -0.9590001 -0.056238372 0.27776965
vn -0.9021649 -0.33025387 0.27754438
vn -0.8880335 -0.36676034 0.27727854
vn -0.7528125 -0.59817106 0.2747082
vn -0.72701854 -0.6294202 0.2743616
vn -0.5372339 -0.79835975 0.27203193
vn -0.5102821 -0.81594205 0.2717549
vn -0.2774131 -0.9221702 0.2695256
vn -0.25929224 -0.9274741 0.26936844
vn -0 -0.9633779 0.26814735
vn -0 -0.96337795 0.26814732
vn 0.27741235 -0.9221704 0.26952565
vn 0.25929165 -0.9274742 0.26936844
vn 0.5372334 -0.79835993 0.27203244
vn 0.5102811 -0.8159426 0.27175534
vn 0.75281286 -0.5981706 0.27470833
vn 0.7270191 -0.6294194 0.27436185
vn 0.9021647 -0.3302543 0.27754447
vn 0.88803333 -0.36676058 0.27727857
vn 0.9603083 -0.026740719 0.27765617
vn 0.959 -0.05623842 0.2777699
vn 0.92206126 0.27351287 0.27384984
vn 0.9296836 0.24573945 0.27440917
vn 0.794959 0.5437196 0.26908934
vn 0.81299186 0.51611066 0.26958096
vn 0.5848909 0.76566017 0.26770714
vn 0.60793674 0.74748904 0.26771814
vn 0.30935487 0.91247725 0.26774016
vn 0.32393077 0.90740585 0.26773748
vn -0 0.9634426 0.26791498
vn -0 0.9634426 0.26791498
g tornado_5_0
f 3/3/3 2/2/2 1/1/1
f 2/2/2 4/4/4 1/1/1
f 1/1/1 4/4/4 5/5/5
f 4/4/4 6/6/6 5/5/5
f 5/5/5 6/6/6 7/7/7
f 6/6/6 8/8/8 7/7/7
f 7/7/7 8/8/8 9/9/9
f 8/8/8 10/10/10 9/9/9
f 9/9/9 10/10/10 11/11/11
f 10/10/10 12/12/12 11/11/11
f 11/11/11 12/12/12 13/13/13
f 12/12/12 14/14/14 13/13/13
f 13/13/13 14/14/14 15/15/15
f 14/14/14 16/16/16 15/15/15
f 15/15/15 16/16/16 17/17/17
f 16/16/16 18/18/18 17/17/17
f 17/17/17 18/18/18 19/19/19
f 18/18/18 20/20/20 19/19/19
f 19/19/19 20/20/20 21/21/21
f 20/20/20 22/22/22 21/21/21
f 21/21/21 22/22/22 23/23/23
f 22/22/22 24/24/24 23/23/23
f 23/23/23 24/24/24 25/25/25
f 24/24/24 26/26/26 25/25/25
f 25/25/25 26/26/26 27/27/27
f 26/26/26 28/28/28 27/27/27
f 27/27/27 28/28/28 29/29/29
f 28/28/28 30/30/30 29/29/29
f 29/29/29 30/30/30 31/31/31
f 30/30/30 32/32/32 31/31/31
f 31/31/31 32/32/32 33/33/33
f 32/32/32 34/34/34 33/33/33
f 33/33/33 34/34/34 35/35/35
f 34/34/34 36/36/36 35/35/35
f 35/35/35 36/36/36 37/37/37
f 36/36/36 38/38/38 37/37/37
f 37/37/37 38/38/38 39/39/39
f 38/38/38 40/40/40 39/39/39
f 39/39/39 40/40/40 41/41/41
f 40/40/40 42/42/42 41/41/41
f 45/45/45 44/44/44 43/43/43
f 44/44/44 46/46/46 43/43/43
f 43/43/43 46/46/46 47/47/47
f 46/46/46 48/48/48 47/47/47
f 47/47/47 48/48/48 49/49/49
f 48/48/48 50/50/50 49/49/49
f 49/49/49 50/50/50 51/51/51
f 50/50/50 52/52/52 51/51/51
f 51/51/51 52/52/52 53/53/53
f 52/52/52 54/54/54 53/53/53
f 53/53/53 54/54/54 55/55/55
f 54/54/54 56/56/56 55/55/55
f 55/55/55 56/56/56 57/57/57
f 56/56/56 58/58/58 57/57/57
f 57/57/57 58/58/58 59/59/59
f 58/58/58 60/60/60 59/59/59
f 59/59/59 60/60/60 61/61/61
f 60/60/60 62/62/62 61/61/61
f 61/61/61 62/62/62 63/63/63
f 62/62/62 64/64/64 63/63/63
f 63/63/63 64/64/64 65/65/65
f 64/64/64 66/66/66 65/65/65
f 65/65/65 66/66/66 67/67/67
f 66/66/66 68/68/68 67/67/67
f 67/67/67 68/68/68 69/69/69
f 68/68/68 70/70/70 69/69/69
f 69/69/69 70/70/70 71/71/71
f 70/70/70 72/72/72 71/71/71
f 71/71/71 72/72/72 73/73/73
f 72/72/72 74/74/74 73/73/73
f 73/73/73 74/74/74 75/75/75
f 74/74/74 76/76/76 75/75/75
f 75/75/75 76/76/76 77/77/77
f 76/76/76 78/78/78 77/77/77
f 77/77/77 78/78/78 79/79/79
f 78/78/78 80/80/80 79/79/79
f 79/79/79 80/80/80 81/81/81
f 80/80/80 82/82/82 81/81/81
f 81/81/81 82/82/82 83/83/83
f 82/82/82 84/84/84 83/83/83
