g treeLeaves05
v -0.226304 1.4511495 -0.13022217
v 0.00019014826 1.409751 1.2207031E-06
v -0.2586624 1.4641899 1.2207031E-06
v -0.1378665 1.41552 -0.22554931
v -0.226304 1.4511495 -0.13022217
v -0.01709989 1.3668472 -0.2604419
v -0.12104032 1.2077167 -0.5031372
v -0.3633938 1.2751604 -0.43572876
v -0.226304 1.4511495 -0.13022217
v -0.5408157 1.3245356 -0.2515686
v 0.10367647 1.3181767 -0.22554931
v 0.12132295 1.1402702 -0.43572876
v 0.1921042 1.2825462 -0.13022217
v 0.22446749 1.2695043 1.2207031E-06
v 0.3636765 1.0728253 1.2207031E-06
v 0.29874483 1.0908966 -0.2515686
v 0.44109836 0.9473152 1.2207031E-06
v 0.34581515 0.9444867 -0.3557727
v 0.58596164 0.7749992 1.2207031E-06
v 0.08548311 0.9367562 -0.6162146
v 0.4709128 0.7551113 -0.43572876
v 0.7153024 0.64204687 1.2207031E-06
v -0.27012724 0.92619574 -0.7115417
v 0.5934714 0.59604454 -0.48599243
v 0.9028512 0.44435513 1.2207031E-06
v 0.15659639 0.70078003 -0.7547046
v -0.62574244 0.9156367 -0.6162146
v 0.7818893 0.38482428 -0.5031372
v 1.0556101 0.3018048 1.2207031E-06
v 0.26063937 0.47037157 -0.8417639
v -0.27276394 0.62656444 -0.8714575
v 0.9442526 0.22568808 -0.5034143
v 1.2008786 0.17790379 1.2207031E-06
v 0.45142063 0.22217757 -0.8714575
v -0.19402371 0.2986978 -0.97198606
v -0.7021243 0.5523456 -0.7547046
v 1.1194772 0.08732834 -0.454469
v 1.3962448 -0.017877808 1.2207031E-06
v 0.63999486 0.017734757 -0.87193966
v -2.8143285E-07 0 -1.0062732
v 1.3410445 -0.10058132 -0.37107298
v 1.5326022 -0.23524189 1.2207031E-06
v 0.89710414 -0.16013229 -0.7871643
v 1.5016354 -0.29836115 -0.2623877
v 1.5481051 -0.52479917 1.2207031E-06
v -0.8860696 0.9079073 -0.3557727
v -0.64868194 0.12702507 -0.8417639
v 0.22438936 -0.26633704 -1.0068299
v 1.1902585 -0.32652655 -0.64271724
v 1.5320748 -0.5574722 -0.13582154
v 1.4717818 -0.78992355 1.2207031E-06
v 1.4170358 -0.47081092 -0.454469
v 0.5933542 -0.4981673 -0.90894043
v -0.45142114 -0.22217716 -0.8714575
v -1.0164407 0.4980154 -0.43572876
v 1.4882809 -0.64673704 -0.23524901
v 0.98425746 -0.6351757 -0.74214596
v -0.1912161 -0.55040556 -0.87193966
v -0.9815237 0.0013521004 -0.48599243
v 1.3014791 -0.70638 -0.5247778
v 0.2895749 -0.8362051 -0.7871643
v -0.7818899 -0.3848228 -0.5031372
v 1.4284616 -0.76867765 -0.27164307
v 0.778276 -0.9438253 -0.64271724
v -0.4954739 -0.7583615 -0.5034143
v 1.185903 -0.9419502 -0.454469
v 1.3686471 -0.89061666 -0.23524901
v 0.06720187 -1.0836631 -0.454469
v 1.3248532 -0.9798841 -0.13582154
v 1.3088229 -1.0125571 1.2207031E-06
v 1.0703464 -1.1775212 1.2207031E-06
v 1.1013033 -1.1143974 -0.2623877
v 0.6274753 -1.169772 -0.37107298
v 0.57228976 -1.2524744 1.2207031E-06
v 1.0703464 -1.1775212 1.2207031E-06
v -0.014194617 -1.1742401 1.2207031E-06
v -0.6068264 -0.8344757 1.2207031E-06
v -0.014194617 -1.1742401 1.2207031E-06
v -0.902847 -0.44435468 1.2207031E-06
v -1.103345 -0.04464874 1.2207031E-06
v -1.1314895 0.4781293 1.2207031E-06
v -0.9813528 0.9050778 1.2207031E-06
v -0.60576195 1.3426083 1.2207031E-06
v -0.2586624 1.4641899 1.2207031E-06
v -0.226304 1.4511495 -0.13022217
v -0.2586624 1.4641899 1.2207031E-06
v 0.00019014826 1.409751 1.2207031E-06
v -0.226304 1.4511495 0.13022338
v -0.226304 1.4511495 0.13022338
v -0.1378665 1.41552 0.22555053
v -0.01709989 1.3668472 0.26044312
v -0.3633938 1.2751604 0.43572998
v -0.5408157 1.3245356 0.2515698
v -0.226304 1.4511495 0.13022338
v 0.10367647 1.3181767 0.22555053
v -0.12104032 1.2077167 0.5031384
v 0.1921042 1.2825462 0.13022338
v 0.22446749 1.2695043 1.2207031E-06
v 0.12132295 1.1402702 0.43572998
v 0.29874483 1.0908966 0.2515698
v 0.3636765 1.0728253 1.2207031E-06
v 0.34581515 0.9444867 0.35577393
v 0.44109836 0.9473152 1.2207031E-06
v 0.08548311 0.9367562 0.6162158
v -0.27012724 0.92619574 0.71154296
v -0.62574244 0.9156367 0.6162158
v 0.4709128 0.7551113 0.43572998
v 0.58596164 0.7749992 1.2207031E-06
v 0.15659639 0.70078003 0.7547058
v -0.27276394 0.62656444 0.8714587
v 0.5934714 0.59604454 0.48599365
v 0.7153024 0.64204687 1.2207031E-06
v 0.26063937 0.47037157 0.8417651
v 0.7818893 0.38482428 0.5031384
v 0.9028512 0.44435513 1.2207031E-06
v -0.8860696 0.9079073 0.35577393
v -0.7021243 0.5523456 0.7547058
v -0.19402371 0.2986978 0.9719873
v 0.45142063 0.22217757 0.8714587
v 0.9442526 0.22568808 0.5034155
v 1.0556101 0.3018048 1.2207031E-06
v -1.0164407 0.4980154 0.43572998
v -0.64868194 0.12702507 0.8417651
v -2.8143285E-07 0 1.0062743
v 0.63999486 0.017734757 0.8719409
v 1.1194772 0.08732834 0.45447022
v 1.2008786 0.17790379 1.2207031E-06
v -0.9815237 0.0013521004 0.48599365
v -0.45142114 -0.22217716 0.8714587
v 0.22438936 -0.26633704 1.006831
v 0.89710414 -0.16013229 0.7871655
v 1.3410445 -0.10058132 0.3710742
v 1.3962448 -0.017877808 1.2207031E-06
v -0.7818899 -0.3848228 0.5031384
v -0.1912161 -0.55040556 0.8719409
v 0.5933542 -0.4981673 0.9089416
v 1.1902585 -0.32652655 0.6427185
v 1.5016354 -0.29836115 0.2623889
v 1.5326022 -0.23524189 1.2207031E-06
v -0.4954739 -0.7583615 0.5034155
v 0.2895749 -0.8362051 0.7871655
v 0.98425746 -0.6351757 0.7421472
v 1.4170358 -0.47081092 0.45447022
v 1.5320748 -0.5574722 0.13582276
v 1.5481051 -0.52479917 1.2207031E-06
v 1.4717818 -0.78992355 1.2207031E-06
v 1.4882809 -0.64673704 0.23525023
v 1.3014791 -0.70638 0.524779
v 1.4284616 -0.76867765 0.2716443
v 0.778276 -0.9438253 0.6427185
v 1.3686471 -0.89061666 0.23525023
v 1.185903 -0.9419502 0.45447022
v 1.3248532 -0.9798841 0.13582276
v 1.3088229 -1.0125571 1.2207031E-06
v 1.1013033 -1.1143974 0.2623889
v 1.0703464 -1.1775212 1.2207031E-06
v 0.6274753 -1.169772 0.3710742
v 1.0703464 -1.1775212 1.2207031E-06
v 0.57228976 -1.2524744 1.2207031E-06
v 0.06720187 -1.0836631 0.45447022
v -0.014194617 -1.1742401 1.2207031E-06
v -0.014194617 -1.1742401 1.2207031E-06
v -0.6068264 -0.8344757 1.2207031E-06
v -0.902847 -0.44435468 1.2207031E-06
v -1.103345 -0.04464874 1.2207031E-06
v -1.1314895 0.4781293 1.2207031E-06
v -0.9813528 0.9050778 1.2207031E-06
v -0.60576195 1.3426083 1.2207031E-06
v -0.226304 1.4511495 0.13022338
v -0.2586624 1.4641899 1.2207031E-06
vt 0.66219044 0.99519944
vt 0.5776653 0.9799609
vt 0.6742697 1
vt 0.6291933 0.98208416
vt 0.66219044 0.99519944
vt 0.5841179 0.9641683
vt 0.6229086 0.9055923
vt 0.71335506 0.9304191
vt 0.66219044 0.99519944
vt 0.7795658 0.9485935
vt 0.5390434 0.9462526
vt 0.5324621 0.88076556
vt 0.5060463 0.9331373
vt 0.49396706 0.92833674
vt 0.44201565 0.8559387
vt 0.46625233 0.862591
vt 0.41312218 0.80973923
vt 0.44868183 0.8086977
vt 0.3590641 0.7463094
vt 0.54583454 0.8058524
vt 0.40199852 0.7389891
vt 0.31079483 0.69737005
vt 0.6785469 0.8019655
vt 0.3562584 0.68043756
vt 0.24080372 0.6246004
vt 0.51929855 0.7189901
vt 0.81125927 0.7980788
vt 0.28594398 0.60268664
vt 0.18379402 0.5721276
vt 0.4804697 0.6341772
vt 0.6795311 0.6916709
vt 0.22535324 0.5441092
vt 0.12958145 0.5265199
vt 0.4092703 0.54281723
vt 0.6501465 0.5709845
vt 0.83976555 0.6643516
vt 0.15995693 0.4931789
vt 0.056674004 0.45445293
vt 0.33889484 0.46756178
vt 0.57773876 0.461034
vt 0.077272415 0.42401046
vt 0.005785942 0.37444192
vt 0.24294376 0.40208924
vt 0.017341614 0.35120726
vt 0 0.2678566
vt 0.908412 0.79523337
vt 0.81982136 0.50779176
vt 0.49399853 0.36299598
vt 0.13354778 0.3408398
vt 0.005982399 0.2558295
vt 0.028484344 0.17026365
vt 0.048913002 0.28772902
vt 0.35630703 0.27765876
vt 0.74620724 0.37925076
vt 0.95706654 0.64435256
vt 0.022324562 0.22297084
vt 0.21042061 0.22722644
vt 0.64909935 0.25843018
vt 0.94403267 0.4615314
vt 0.09203911 0.2010163
vt 0.4696722 0.15322828
vt 0.8695326 0.31938136
vt 0.044649124 0.17808491
vt 0.28729343 0.11361313
vt 0.76264095 0.18188274
vt 0.13516712 0.11430359
vt 0.06697273 0.13319921
vt 0.55265903 0.062138915
vt 0.08331585 0.100340545
vt 0.089297295 0.08831322
vt 0.17829227 0.027590752
vt 0.16673756 0.050825477
vt 0.3435688 0.030442595
vt 0.36416626 -5.9604645E-08
vt 0.17829227 0.027590752
vt 0.5830345 0.028797746
vt 0.8042011 0.15386426
vt 0.5830345 0.028797746
vt 0.9146738 0.2974676
vt 0.98949814 0.44459897
vt 1 0.6370324
vt 0.94397163 0.79419184
vt 0.80380154 0.95524585
vt 0.6742697 1
vt 0.66219044 0.99519944
vt 0.6742697 1
vt 0.5776653 0.9799609
vt 0.66219044 0.99519944
vt 0.66219044 0.99519944
vt 0.6291933 0.98208416
vt 0.5841179 0.9641683
vt 0.71335506 0.9304191
vt 0.7795658 0.9485935
vt 0.66219044 0.99519944
vt 0.5390434 0.9462526
vt 0.6229086 0.9055923
vt 0.5060463 0.9331373
vt 0.49396706 0.92833674
vt 0.5324621 0.88076556
vt 0.46625233 0.862591
vt 0.44201565 0.8559387
vt 0.44868183 0.8086977
vt 0.41312218 0.80973923
vt 0.54583454 0.8058524
vt 0.6785469 0.8019655
vt 0.81125927 0.7980788
vt 0.40199852 0.7389891
vt 0.3590641 0.7463094
vt 0.51929855 0.7189901
vt 0.6795311 0.6916709
vt 0.3562584 0.68043756
vt 0.31079483 0.69737005
vt 0.4804697 0.6341772
vt 0.28594398 0.60268664
vt 0.24080372 0.6246004
vt 0.908412 0.79523337
vt 0.83976555 0.6643516
vt 0.6501465 0.5709845
vt 0.4092703 0.54281723
vt 0.22535324 0.5441092
vt 0.18379402 0.5721276
vt 0.95706654 0.64435256
vt 0.81982136 0.50779176
vt 0.57773876 0.461034
vt 0.33889484 0.46756178
vt 0.15995693 0.4931789
vt 0.12958145 0.5265199
vt 0.94403267 0.4615314
vt 0.74620724 0.37925076
vt 0.49399853 0.36299598
vt 0.24294376 0.40208924
vt 0.077272415 0.42401046
vt 0.056674004 0.45445293
vt 0.8695326 0.31938136
vt 0.64909935 0.25843018
vt 0.35630703 0.27765876
vt 0.13354778 0.3408398
vt 0.017341614 0.35120732
vt 0.005785942 0.37444192
vt 0.76264095 0.18188274
vt 0.4696722 0.15322828
vt 0.21042061 0.22722644
vt 0.048913002 0.28772902
vt 0.005982399 0.25582945
vt 0 0.2678566
vt 0.028484344 0.17026365
vt 0.022324562 0.22297084
vt 0.09203911 0.20101637
vt 0.044649124 0.17808497
vt 0.28729343 0.11361313
vt 0.06697273 0.13319921
vt 0.13516712 0.11430359
vt 0.08331585 0.100340545
vt 0.089297295 0.08831322
vt 0.16673756 0.050825417
vt 0.17829227 0.027590752
vt 0.3435688 0.030442595
vt 0.17829227 0.027590752
vt 0.36416626 -5.9604645E-08
vt 0.55265903 0.062138915
vt 0.5830345 0.028797746
vt 0.5830345 0.028797746
vt 0.8042011 0.15386426
vt 0.9146738 0.2974676
vt 0.98949814 0.44459897
vt 1 0.6370324
vt 0.94397163 0.79419184
vt 0.80380154 0.95524585
vt 0.66219044 0.99519944
vt 0.6742697 1
vn -0.1775 0.9460632 -0.2710315
vn 0.37376535 0.9275233 4.4606693E-07
vn -0.24779455 0.9688126 0
vn 0.013732501 0.88415045 -0.46700045
vn -0.1775 0.9460632 -0.2710315
vn 0.27194232 0.80043113 -0.53418845
vn 0.09681068 0.6425134 -0.7601343
vn -0.2858691 0.6973681 -0.65723395
vn -0.1775 0.9460632 -0.2710315
vn -0.5624049 0.73557115 -0.37767148
vn 0.52472883 0.718376 -0.4567226
vn 0.4796424 0.5845008 -0.65444785
vn 0.70476633 0.6598779 -0.26051024
vn 0.7692965 0.6388919 6.957545E-07
vn 0.8528558 0.52214646 3.5264597E-07
vn 0.75490314 0.5394653 -0.37295908
vn 0.8091774 0.58756435 5.322814E-07
vn 0.68723637 0.57113755 -0.4488965
vn 0.755511 0.65513587 5.5361517E-07
vn 0.36645997 0.5414074 -0.75669366
vn 0.6445433 0.60694194 -0.46495748
vn 0.73296 0.6802718 4.8395896E-07
vn -0.055936616 0.5176531 -0.8537601
vn 0.6283071 0.59901893 -0.49639353
vn 0.71259344 0.7015772 1.6511315E-07
vn 0.3305501 0.48923427 -0.80708516
vn -0.46723485 0.50258094 -0.7273953
vn 0.6211979 0.6038631 -0.4994622
vn 0.67466587 0.7381233 -5.584968E-07
vn 0.32526034 0.3957767 -0.858817
vn -0.10939531 0.34982228 -0.93040687
vn 0.6059022 0.5928779 -0.530451
vn 0.6836434 0.7298163 0
vn 0.3488933 0.34793043 -0.8701827
vn -0.10444586 0.15455621 -0.9824477
vn -0.55234927 0.22493732 -0.80269134
vn 0.633158 0.5754361 -0.5176719
vn 0.76280385 0.64663 8.1742155E-07
vn 0.3782858 0.25043768 -0.8911683
vn -0.04713298 0.026679324 -0.9985323
vn 0.7144872 0.5092247 -0.4797896
vn 0.9254162 0.3789524 5.0317277E-07
vn 0.46297133 0.19531082 -0.86458737
vn 0.8812362 0.2838708 -0.3779421
vn 0.9999515 -0.009849294 0
vn -0.76327693 0.49435815 -0.41595468
vn -0.53719103 -0.057322185 -0.8415105
vn 0.039196227 -0.13557735 -0.9899912
vn 0.573603 0.15668182 -0.804009
vn 0.9744844 -0.06176058 -0.21579117
vn 0.8977912 -0.44042137 -1.91015E-07
vn 0.75849646 0.026003102 -0.6511582
vn 0.1978 -0.23639561 -0.9513109
vn -0.4486971 -0.26503325 -0.85348016
vn -0.8759467 0.13943006 -0.46181875
vn 0.9049153 -0.20357724 -0.3737441
vn 0.37261316 -0.2726488 -0.8870299
vn -0.30295974 -0.46761066 -0.8303949
vn -0.853018 -0.19976883 -0.48213348
vn 0.5889027 -0.3172329 -0.7433416
vn -0.076829016 -0.60464936 -0.7927777
vn -0.74037045 -0.46308553 -0.4872407
vn 0.8098819 -0.39730057 -0.43155935
vn 0.17126791 -0.6537129 -0.73710704
vn -0.55095184 -0.68956923 -0.47004917
vn 0.4195014 -0.648353 -0.63534003
vn 0.714836 -0.591033 -0.37375075
vn -0.2783263 -0.84994775 -0.44735137
vn 0.6452573 -0.7328553 -0.21579173
vn 0.61980027 -0.78475964 0
vn 0.2516043 -0.9678302 0
vn 0.29639786 -0.8833144 -0.363186
vn 0.025818039 -0.90978885 -0.41426775
vn -0.02689138 -0.9996383 0
vn 0.2516043 -0.9678302 0
vn -0.35185185 -0.93605566 -2.3008488E-07
vn -0.6410135 -0.76752967 0
vn -0.35185185 -0.93605566 -2.3008488E-07
vn -0.8462553 -0.53277767 1.7684715E-07
vn -0.9682769 -0.24987964 0
vn -0.9940322 0.109087184 0
vn -0.87074786 0.49172974 0
vn -0.6624233 0.7491297 1.201475E-07
vn -0.24779455 0.9688126 0
vn -0.1775 0.9460632 -0.2710315
vn -0.24779455 0.9688126 0
vn 0.37376535 0.9275233 4.4606693E-07
vn -0.17749828 0.94606405 0.27103
vn -0.17749828 0.94606405 0.27103
vn 0.013731894 0.884151 0.4669994
vn 0.27194428 0.80043083 0.53418803
vn -0.28587034 0.6973683 0.6572333
vn -0.5624034 0.73557174 0.3776727
vn -0.17749828 0.94606405 0.27103
vn 0.52473336 0.7183724 0.45672306
vn 0.09681478 0.64251286 0.7601343
vn 0.7047655 0.6598784 0.26051134
vn 0.7692965 0.6388919 6.957545E-07
vn 0.47964746 0.5844945 0.6544498
vn 0.7549071 0.53945696 0.37296313
vn 0.8528558 0.52214646 3.5264597E-07
vn 0.6872392 0.57113194 0.44889924
vn 0.8091774 0.58756435 5.322814E-07
vn 0.36646485 0.5414039 0.75669366
vn -0.055933185 0.5176551 0.85375917
vn -0.46723574 0.5025807 0.72739494
vn 0.6445446 0.60693884 0.46495974
vn 0.755511 0.65513587 5.5361517E-07
vn 0.33055383 0.4892323 0.8070849
vn -0.10939433 0.34982392 0.93040645
vn 0.6283079 0.59901565 0.49639642
vn 0.73296 0.6802718 4.8395896E-07
vn 0.32526112 0.39577496 0.8588174
vn 0.62119704 0.60386276 0.4994636
vn 0.71259344 0.7015772 1.6511315E-07
vn -0.7632774 0.49435595 0.4159565
vn -0.55235106 0.22493584 0.8026905
vn -0.104445934 0.15455799 0.9824473
vn 0.3488949 0.34793004 0.8701822
vn 0.60590076 0.5928789 0.5304517
vn 0.67466587 0.7381233 -5.584968E-07
vn -0.875947 0.13942747 0.46181908
vn -0.5371915 -0.057322968 0.8415101
vn -0.04713239 0.026681045 0.9985323
vn 0.37828565 0.250438 0.8911683
vn 0.63315773 0.5754365 0.5176719
vn 0.6836434 0.7298163 0
vn -0.85301775 -0.19976988 0.48213354
vn -0.44869706 -0.26503244 0.8534804
vn 0.03919666 -0.13557675 0.9899912
vn 0.46297252 0.19531007 0.86458683
vn 0.7144881 0.5092235 0.47978976
vn 0.76280385 0.64663 8.1742155E-07
vn -0.74037015 -0.4630847 0.48724183
vn -0.30296078 -0.46761033 0.8303947
vn 0.19780073 -0.23639591 0.9513106
vn 0.57360613 0.1566799 0.8040072
vn 0.88123554 0.28387126 0.37794316
vn 0.9254162 0.3789524 5.0317277E-07
vn -0.55095243 -0.6895682 0.47005004
vn -0.07682896 -0.6046497 0.7927774
vn 0.37261778 -0.27265 0.8870276
vn 0.75849795 0.02600379 0.6511565
vn 0.9744845 -0.06175526 0.21579227
vn 0.9999515 -0.009849294 0
vn 0.8977912 -0.44042137 -1.91015E-07
vn 0.9049165 -0.20356922 0.37374544
vn 0.5889037 -0.31723326 0.7433406
vn 0.8098781 -0.3973054 0.43156216
vn 0.17127009 -0.6537124 0.7371069
vn 0.71483415 -0.5910341 0.37375247
vn 0.41950482 -0.64835083 0.63534
vn 0.6452653 -0.7328472 0.2157957
vn 0.61980027 -0.78475964 0
vn 0.29639968 -0.8833135 0.3631866
vn 0.2516043 -0.9678302 0
vn 0.025818182 -0.90978897 0.41426727
vn 0.2516043 -0.9678302 0
vn -0.02689138 -0.9996383 0
vn -0.2783265 -0.84994787 0.44735104
vn -0.35185185 -0.93605566 -2.3008488E-07
vn -0.35185185 -0.93605566 -2.3008488E-07
vn -0.6410135 -0.76752967 0
vn -0.8462553 -0.53277767 1.7684715E-07
vn -0.9682769 -0.24987964 0
vn -0.9940322 0.109087184 0
vn -0.87074786 0.49172974 0
vn -0.6624233 0.7491297 1.201475E-07
vn -0.17749828 0.94606405 0.27103
vn -0.24779455 0.9688126 0
g treeLeaves05_0
f 3/3/3 2/2/2 1/1/1
f 5/5/5 2/2/2 4/4/4
f 4/4/4 2/2/2 6/6/6
f 4/4/4 6/6/6 7/7/7
f 8/8/8 4/4/4 7/7/7
f 9/9/9 4/4/4 8/8/8
f 10/10/10 9/9/9 8/8/8
f 6/6/6 2/2/2 11/11/11
f 7/7/7 6/6/6 12/12/12
f 6/6/6 11/11/11 12/12/12
f 11/11/11 2/2/2 13/13/13
f 13/13/13 2/2/2 14/14/14
f 13/13/13 14/14/14 15/15/15
f 11/11/11 13/13/13 16/16/16
f 16/16/16 13/13/13 15/15/15
f 12/12/12 11/11/11 16/16/16
f 16/16/16 15/15/15 17/17/17
f 18/18/18 16/16/16 17/17/17
f 12/12/12 16/16/16 18/18/18
f 18/18/18 17/17/17 19/19/19
f 7/7/7 12/12/12 20/20/20
f 20/20/20 12/12/12 18/18/18
f 21/21/21 18/18/18 19/19/19
f 20/20/20 18/18/18 21/21/21
f 21/21/21 19/19/19 22/22/22
f 23/23/23 7/7/7 20/20/20
f 8/8/8 7/7/7 23/23/23
f 24/24/24 21/21/21 22/22/22
f 24/24/24 22/22/22 25/25/25
f 26/26/26 20/20/20 21/21/21
f 23/23/23 20/20/20 26/26/26
f 26/26/26 21/21/21 24/24/24
f 27/27/27 8/8/8 23/23/23
f 10/10/10 8/8/8 27/27/27
f 28/28/28 24/24/24 25/25/25
f 28/28/28 25/25/25 29/29/29
f 30/30/30 26/26/26 24/24/24
f 30/30/30 24/24/24 28/28/28
f 31/31/31 23/23/23 26/26/26
f 27/27/27 23/23/23 31/31/31
f 31/31/31 26/26/26 30/30/30
f 32/32/32 28/28/28 29/29/29
f 32/32/32 29/29/29 33/33/33
f 34/34/34 30/30/30 28/28/28
f 34/34/34 28/28/28 32/32/32
f 35/35/35 31/31/31 30/30/30
f 35/35/35 30/30/30 34/34/34
f 36/36/36 27/27/27 31/31/31
f 36/36/36 31/31/31 35/35/35
f 37/37/37 32/32/32 33/33/33
f 37/37/37 33/33/33 38/38/38
f 39/39/39 34/34/34 32/32/32
f 39/39/39 32/32/32 37/37/37
f 40/40/40 35/35/35 34/34/34
f 40/40/40 34/34/34 39/39/39
f 41/41/41 37/37/37 38/38/38
f 41/41/41 38/38/38 42/42/42
f 43/43/43 39/39/39 37/37/37
f 43/43/43 37/37/37 41/41/41
f 44/44/44 41/41/41 42/42/42
f 44/44/44 42/42/42 45/45/45
f 46/46/46 27/27/27 36/36/36
f 46/46/46 10/10/10 27/27/27
f 47/47/47 36/36/36 35/35/35
f 47/47/47 35/35/35 40/40/40
f 48/48/48 40/40/40 39/39/39
f 48/48/48 39/39/39 43/43/43
f 49/49/49 43/43/43 41/41/41
f 49/49/49 41/41/41 44/44/44
f 50/50/50 44/44/44 45/45/45
f 45/45/45 51/51/51 50/50/50
f 52/52/52 44/44/44 50/50/50
f 52/52/52 49/49/49 44/44/44
f 53/53/53 43/43/43 49/49/49
f 53/53/53 48/48/48 43/43/43
f 54/54/54 40/40/40 48/48/48
f 54/54/54 47/47/47 40/40/40
f 55/55/55 36/36/36 47/47/47
f 55/55/55 46/46/46 36/36/36
f 50/50/50 51/51/51 56/56/56
f 56/56/56 52/52/52 50/50/50
f 57/57/57 49/49/49 52/52/52
f 57/57/57 53/53/53 49/49/49
f 58/58/58 48/48/48 53/53/53
f 58/58/58 54/54/54 48/48/48
f 59/59/59 47/47/47 54/54/54
f 59/59/59 55/55/55 47/47/47
f 60/60/60 52/52/52 56/56/56
f 60/60/60 57/57/57 52/52/52
f 61/61/61 53/53/53 57/57/57
f 61/61/61 58/58/58 53/53/53
f 62/62/62 54/54/54 58/58/58
f 62/62/62 59/59/59 54/54/54
f 56/56/56 51/51/51 63/63/63
f 63/63/63 60/60/60 56/56/56
f 64/64/64 57/57/57 60/60/60
f 64/64/64 61/61/61 57/57/57
f 65/65/65 58/58/58 61/61/61
f 65/65/65 62/62/62 58/58/58
f 66/66/66 60/60/60 63/63/63
f 66/66/66 64/64/64 60/60/60
f 63/63/63 51/51/51 67/67/67
f 67/67/67 66/66/66 63/63/63
f 68/68/68 61/61/61 64/64/64
f 68/68/68 65/65/65 61/61/61
f 67/67/67 51/51/51 69/69/69
f 69/69/69 51/51/51 70/70/70
f 70/70/70 71/71/71 69/69/69
f 71/71/71 72/72/72 69/69/69
f 69/69/69 72/72/72 67/67/67
f 72/72/72 66/66/66 67/67/67
f 73/73/73 64/64/64 66/66/66
f 72/72/72 73/73/73 66/66/66
f 73/73/73 68/68/68 64/64/64
f 74/74/74 73/73/73 72/72/72
f 75/75/75 74/74/74 72/72/72
f 74/74/74 76/76/76 73/73/73
f 76/76/76 68/68/68 73/73/73
f 77/77/77 65/65/65 68/68/68
f 78/78/78 77/77/77 68/68/68
f 77/77/77 79/79/79 65/65/65
f 79/79/79 62/62/62 65/65/65
f 79/79/79 80/80/80 62/62/62
f 80/80/80 59/59/59 62/62/62
f 80/80/80 81/81/81 59/59/59
f 81/81/81 55/55/55 59/59/59
f 81/81/81 82/82/82 55/55/55
f 82/82/82 46/46/46 55/55/55
f 82/82/82 83/83/83 46/46/46
f 83/83/83 10/10/10 46/46/46
f 83/83/83 84/84/84 10/10/10
f 84/84/84 85/85/85 10/10/10
f 88/88/88 87/87/87 86/86/86
f 90/90/90 87/87/87 89/89/89
f 91/91/91 87/87/87 90/90/90
f 91/91/91 90/90/90 92/92/92
f 92/92/92 90/90/90 93/93/93
f 90/90/90 94/94/94 93/93/93
f 95/95/95 87/87/87 91/91/91
f 96/96/96 91/91/91 92/92/92
f 95/95/95 91/91/91 96/96/96
f 97/97/97 87/87/87 95/95/95
f 98/98/98 87/87/87 97/97/97
f 97/97/97 95/95/95 99/99/99
f 99/99/99 95/95/95 96/96/96
f 98/98/98 97/97/97 100/100/100
f 100/100/100 97/97/97 99/99/99
f 101/101/101 98/98/98 100/100/100
f 101/101/101 100/100/100 102/102/102
f 103/103/103 101/101/101 102/102/102
f 100/100/100 99/99/99 104/104/104
f 102/102/102 100/100/100 104/104/104
f 99/99/99 96/96/96 105/105/105
f 104/104/104 99/99/99 105/105/105
f 96/96/96 92/92/92 106/106/106
f 105/105/105 96/96/96 106/106/106
f 103/103/103 102/102/102 107/107/107
f 108/108/108 103/103/103 107/107/107
f 102/102/102 104/104/104 109/109/109
f 107/107/107 102/102/102 109/109/109
f 104/104/104 105/105/105 110/110/110
f 109/109/109 104/104/104 110/110/110
f 108/108/108 107/107/107 111/111/111
f 112/112/112 108/108/108 111/111/111
f 107/107/107 109/109/109 113/113/113
f 111/111/111 107/107/107 113/113/113
f 112/112/112 111/111/111 114/114/114
f 115/115/115 112/112/112 114/114/114
f 106/106/106 92/92/92 116/116/116
f 92/92/92 93/93/93 116/116/116
f 105/105/105 106/106/106 117/117/117
f 110/110/110 105/105/105 117/117/117
f 109/109/109 110/110/110 118/118/118
f 113/113/113 109/109/109 118/118/118
f 111/111/111 113/113/113 119/119/119
f 114/114/114 111/111/111 119/119/119
f 115/115/115 114/114/114 120/120/120
f 121/121/121 115/115/115 120/120/120
f 106/106/106 116/116/116 122/122/122
f 117/117/117 106/106/106 122/122/122
f 110/110/110 117/117/117 123/123/123
f 118/118/118 110/110/110 123/123/123
f 113/113/113 118/118/118 124/124/124
f 119/119/119 113/113/113 124/124/124
f 114/114/114 119/119/119 125/125/125
f 120/120/120 114/114/114 125/125/125
f 121/121/121 120/120/120 126/126/126
f 127/127/127 121/121/121 126/126/126
f 117/117/117 122/122/122 128/128/128
f 123/123/123 117/117/117 128/128/128
f 118/118/118 123/123/123 129/129/129
f 124/124/124 118/118/118 129/129/129
f 119/119/119 124/124/124 130/130/130
f 125/125/125 119/119/119 130/130/130
f 120/120/120 125/125/125 131/131/131
f 126/126/126 120/120/120 131/131/131
f 127/127/127 126/126/126 132/132/132
f 133/133/133 127/127/127 132/132/132
f 123/123/123 128/128/128 134/134/134
f 129/129/129 123/123/123 134/134/134
f 124/124/124 129/129/129 135/135/135
f 130/130/130 124/124/124 135/135/135
f 125/125/125 130/130/130 136/136/136
f 131/131/131 125/125/125 136/136/136
f 126/126/126 131/131/131 137/137/137
f 132/132/132 126/126/126 137/137/137
f 133/133/133 132/132/132 138/138/138
f 139/139/139 133/133/133 138/138/138
f 129/129/129 134/134/134 140/140/140
f 135/135/135 129/129/129 140/140/140
f 130/130/130 135/135/135 141/141/141
f 136/136/136 130/130/130 141/141/141
f 131/131/131 136/136/136 142/142/142
f 137/137/137 131/131/131 142/142/142
f 132/132/132 137/137/137 143/143/143
f 138/138/138 132/132/132 143/143/143
f 139/139/139 138/138/138 144/144/144
f 145/145/145 139/139/139 144/144/144
f 144/144/144 146/146/146 145/145/145
f 144/144/144 138/138/138 147/147/147
f 138/138/138 143/143/143 147/147/147
f 147/147/147 146/146/146 144/144/144
f 143/143/143 137/137/137 148/148/148
f 137/137/137 142/142/142 148/148/148
f 147/147/147 143/143/143 149/149/149
f 149/149/149 146/146/146 147/147/147
f 143/143/143 148/148/148 149/149/149
f 142/142/142 136/136/136 150/150/150
f 136/136/136 141/141/141 150/150/150
f 151/151/151 146/146/146 149/149/149
f 149/149/149 148/148/148 151/151/151
f 148/148/148 142/142/142 152/152/152
f 148/148/148 152/152/152 151/151/151
f 142/142/142 150/150/150 152/152/152
f 153/153/153 146/146/146 151/151/151
f 151/151/151 152/152/152 153/153/153
f 154/154/154 146/146/146 153/153/153
f 152/152/152 155/155/155 153/153/153
f 153/153/153 155/155/155 154/154/154
f 152/152/152 150/150/150 155/155/155
f 155/155/155 156/156/156 154/154/154
f 150/150/150 157/157/157 155/155/155
f 150/150/150 141/141/141 157/157/157
f 155/155/155 157/157/157 158/158/158
f 157/157/157 159/159/159 158/158/158
f 141/141/141 160/160/160 157/157/157
f 157/157/157 160/160/160 159/159/159
f 160/160/160 161/161/161 159/159/159
f 141/141/141 135/135/135 160/160/160
f 135/135/135 140/140/140 160/160/160
f 160/160/160 140/140/140 162/162/162
f 140/140/140 163/163/163 162/162/162
f 140/140/140 134/134/134 163/163/163
f 134/134/134 164/164/164 163/163/163
f 134/134/134 128/128/128 164/164/164
f 128/128/128 165/165/165 164/164/164
f 128/128/128 122/122/122 165/165/165
f 122/122/122 166/166/166 165/165/165
f 122/122/122 116/116/116 166/166/166
f 116/116/116 167/167/167 166/166/166
f 116/116/116 93/93/93 167/167/167
f 93/93/93 168/168/168 167/167/167
f 93/93/93 169/169/169 168/168/168
f 169/169/169 170/170/170 168/168/168
