g valley_mound03
v -2.1383877 0 -1.0824566
v -2.0664077 0.46471423 -0.6176551
v -2.3579063 -2.7939677E-08 -0.6389675
v -2.4608984 1.9930303E-07 -0.1881733
v -1.6528941 0.4684969 -1.0609049
v -1.7403564 -3.7252903E-09 -1.2748051
v -1.6358867 0.55782175 -1.0590588
v -0.73867416 0.28629676 -1.3829575
v -0.76698685 0.20954174 -1.3978424
v -0.9565735 -1.4901161E-08 -1.5475178
v -0.08467674 -1.5049864E-08 -1.5035534
v -0.06565857 0.21827748 -1.5023365
v -0.53654313 0.9250604 -1.5004705
v 0.5291273 0.55600363 -1.3279526
v 0.0399189 0.19579148 -1.4804783
v 0.06498146 -2.0651896E-08 -1.5142708
v 0.59913254 2.0489551E-08 -1.601368
v 1.2493324 -1.6654791E-21 -1.4423313
v 0.6684107 0.5359179 -1.3065087
v 1.6374454 3.7252903E-09 -1.2958717
v -1.3803092 0.9600407 -1.3358784
v -1.2398016 0.9824615 -1.4033291
v -0.5846854 1.0888295 -1.4241288
v -1.2867649 1.1005454 -1.3799993
v -1.4194287 1.0534106 -1.324086
v -1.4092407 1.2983012 -1.2538756
v 0.5936084 0.66162926 -1.3106927
v 0.6810809 0.6466786 -1.2962604
v 1.3670044 0.5050502 -1.1441288
v 1.385498 0.42128137 -1.1498985
v 1.9810925 0.5060996 -0.78149223
v 1.9832554 0.59133637 -0.76516724
v 1.9384193 3.7252903E-08 -1.0642872
v 2.3081512 2.3785105E-08 -0.7790966
v 2.3435297 1.3876706E-07 -0.7057514
v 0.57669634 0.9249643 -1.3378134
v 2.0279808 0.49914214 -0.70671463
v 1.127652 1.0521307 -1.2931174
v 0.619844 1.049013 -1.2899336
v 1.2671916 1.1525466 -1.2738415
v 1.2282348 1.0504042 -1.2750739
v 1.6410519 1.1827728 -1.2108618
v 1.5969093 1.5892912 -1.0787548
v 2.1819515 0.34493676 -0.032089233
v 2.4134464 4.0978193E-08 -0.029819489
v 2.0730696 0.27793372 0.61499214
v 2.361887 -7.450581E-09 0.5966339
v 1.9749622 3.7248356E-09 1.052288
v 2.2542944 1.4733245 -0.7258209
v 0.3054818 1.4542341 -0.8531857
v 1.3262889 0.2864024 1.1773262
v 1.6465435 1.1175871E-08 1.2829399
v 1.2623444 -1.8625997E-08 1.4584808
v 0.9847927 8.5537977E-10 1.4764252
v 0.9706783 0.0981229 1.4272766
v 0.8855009 1.4062971E-07 1.4719372
v 1.2821445 0.3658389 1.1692562
v 2.0434284 0.36223015 0.6147804
v 1.4625357 0.9552243 1.1375751
v 1.0171249 0.57994795 1.2889392
v 1.1974986 1.8409545 -0.6283398
v 1.6134341 1.8463168 -0.75124836
v 1.546616 2.1324081 -0.28074536
v 2.2498071 1.8010366 -0.20753996
v 1.7395141 2.0218618 0.49009177
v 0.7938442 2.0359445 0.018018723
v 2.3771763 1.0285645 -0.013463974
v 1.2699288 1.9790688 0.33047843
v 2.2938347 1.1473716 0.44563437
v 1.1832404 1.8700637 0.74185115
v 0.36698723 1.7041423 0.6812248
v 1.7951508 1.5038372 0.84839064
v 0.2741623 1.7921342 0.07038498
v -0.56015205 1.6268358 -0.5817051
v -0.50198555 1.9415468 0.25270844
v -1.0410243 1.5882175 -0.95418024
v -1.513657 1.6325588 -0.689572
v -0.91906166 1.8123074 -0.5765438
v -1.1227207 2.026383 0.0784893
v -1.5841144 1.1720915 -1.1921613
v -1.5852888 1.0782317 -1.214639
v -1.7047325 1.1978378 -1.0288397
v -1.5946159 1.8178695 -0.29349518
v -2.092078 1.7604257 0.11284242
v -2.1276572 1.521181 -0.5332126
v -1.7354405 0.99111336 -1.0585775
v -1.9730493 1.3087003 -0.710034
v -2.0105045 1.019975 -0.7827468
v -2.0400972 0.5727927 -0.62867236
v -2.2089887 1.0227442 -0.56385964
v -2.2902975 1.2997273 -0.41803318
v -2.3382015 1.0232992 -0.3942172
v -2.0790842 0.5592068 -0.5418764
v -2.1797104 0.42390165 -0.22629884
v -2.4382708 1.5787171 -0.12693457
v -2.1601458 0.58064574 -0.24909247
v -2.4240074 0.07514438 -0.16123009
v -2.4729614 3.9709448E-08 -0.106954575
v -2.2767017 0.37169525 -0.058630425
v -2.2895567 0.33691114 0.16175511
v -2.384161 -3.7248356E-09 0.5523567
v -2.1417727 0.35099542 0.52771056
v -2.142332 0.48889655 0.5217817
v -2.2481139 0.49914086 0.1712424
v -2.1281147 -2.561137E-08 1.0436478
v -2.247212 0.52353495 -0.024720594
v -2.3264503 0.64857227 0.037196774
v -2.632259 1.1094029 0.4429293
v -2.5983107 1.2173914 -0.13288528
v -2.5946774 1.3133907 -0.14200594
v -2.6322823 1.2443982 0.42511794
v -2.087672 0.7304413 0.84617585
v -2.543609 1.1474894 0.6436724
v -2.1593943 0.8341042 0.8465889
v -2.5303714 1.2574143 0.6478273
v -2.3243 1.5300286 0.57395196
v -2.4182725 1.1315049 0.74635774
v -1.8885801 1.7267561 0.84328836
v -2.2240682 1.2535242 0.83750594
v -2.2027087 1.1010787 0.89583033
v -1.9376043 1.0737555 1.1708329
v -2.169831 0.936217 0.87249535
v -2.0604722 0.83975494 0.9486018
v -1.2822971 1.8343456 0.5998192
v -1.9162295 1.2248006 1.1556478
v -0.896574 1.9968274 0.51963997
v -1.385966 1.6808077 1.073281
v -0.48955536 1.6272848 0.8029747
v -0.91138077 1.8041111 1.0112953
v -0.49836388 1.5792848 1.0885903
v -0.8266577 1.4380571 1.2540556
v -0.6055585 1.2119439 1.3675559
v 0.42100185 1.1831056 1.3660057
v -1.3848033 1.1624401 1.4580925
v 0.22225884 1.4502847 1.1432066
v 0.7081258 1.5908153 0.9955654
v 1.096768 1.4457086 1.3428433
v -1.3885089 1.0773587 1.4718319
v -0.80820215 0.90414244 1.424906
v -1.4584565 0.45791247 1.2457126
v -1.0742247 0.42718485 1.3485737
v -1.8169308 0.44196236 1.0338478
v -2.010223 0.68163246 0.9340567
v -2.044375 0.66310537 0.88963854
v -1.9771729 0.44192055 0.8655014
v -1.9799099 0.35897374 0.8787613
v -1.8400612 0.35926428 1.0255775
v -1.4729997 0.35106343 1.2536182
v -1.9489632 -7.450581E-09 1.200882
v -1.5734177 -1.1175871E-08 1.4784889
v -1.0546336 0.2739197 1.370521
v -0.42896575 2.1606684E-07 1.5483087
v -0.582879 0.34498978 1.3523862
v -0.7569126 0.556728 1.3775933
v -0.34773037 0.26569235 1.4196597
v -0.055103652 1.7136381E-07 1.4455906
v -0.54972214 0.7181784 1.4080333
v -0.36705446 0.91476375 1.4234223
v -0.58129805 0.53520083 1.38418
v -0.43647406 0.5107697 1.3976209
v -0.2904495 0.48212868 1.3909365
v -0.08965015 0.43192416 1.37519
v 0.37570867 0.3124052 1.2789193
v 0.3885479 7.450126E-09 1.5025063
v 0.44440275 1.0137324 1.392943
v 0.345842 0.36087203 1.268042
v 0.43357033 0.43086818 1.261139
v 0.4735189 0.3402575 1.2676287
v 0.8300835 0.52673453 1.3186537
v 0.74994963 0.74008703 1.3085462
v 1.0829648 1.116543 1.4089206
v 1.1011604 0.8877979 1.2810692
v 1.0985837 1.2247334 1.41503
v 1.3798473 1.1251818 1.2554067
v 1.4276478 1.289326 1.2259563
v 1.6435583 1.1626191 1.0838145
v 1.7180936 1.2932304 1.0201756
v 1.8136294 1.1020952 0.96117485
v 1.8810945 1.2138616 0.91178703
v 2.2308278 1.1461678 0.5589553
v 2.1809273 1.3259126 0.48803404
v 1.9856057 1.5969013 0.4761642
v 2.0883064 0.36520723 0.5458374
v 2.1013489 0.28411174 0.5390415
v 2.1717758 0.42754057 -0.024019241
v 2.0165787 0.57817125 -0.68605995
vn -0 1 0
vn -0.7606038 0.48644224 -0.4299487
vn -0 1 0
vn -0 1 0
vn -0.4013461 0.41856042 -0.8146953
vn -0 1 0
vn -0.52428615 -0.16109717 -0.8361649
vn -0.23526008 -0.09709987 -0.9670699
vn -0.15013912 0.39607784 -0.90585905
vn -0 1 0
vn -0 1 0
vn 0.08457514 0.0834107 -0.99291974
vn 0.0017053343 0.10367481 -0.99460983
vn 0.14755298 0.2093889 -0.96663564
vn 0.101403624 0.22253777 -0.9696361
vn -0 1 0
vn -0 1 0
vn -0 1 0
vn 0.22162612 0.40027535 -0.8891915
vn -0 1 0
vn -0.45768076 -0.27593932 -0.8452134
vn -0.30051696 -0.16059193 -0.9401594
vn 0.07115521 0.67953247 -0.7301867
vn -0.16129525 0.37690416 -0.9121004
vn -0.5697018 -0.024129078 -0.8214972
vn -0.26195487 0.6746218 -0.6901197
vn 0.14489579 -0.056544643 -0.9878299
vn 0.16054633 -0.09149839 -0.98277813
vn 0.35838398 -0.14184596 -0.9227354
vn 0.33786705 0.39843193 -0.8527003
vn 0.5558638 0.3734476 -0.7426657
vn 0.7671245 -0.22409405 -0.60108393
vn -0 1 0
vn -0 1 0
vn -0 1 0
vn 0.12811467 0.13505755 -0.9825203
vn 0.87545013 0.44940734 -0.17782049
vn 0.13115607 -0.07078581 -0.9888314
vn -0.037319157 0.6203246 -0.78345686
vn 0.07820874 0.18152815 -0.98027086
vn 0.18819427 -0.1732583 -0.96672875
vn 0.4979001 -0.059812818 -0.8651692
vn 0.1032084 0.6407118 -0.76081294
vn 0.88941497 0.45673037 0.018397134
vn -0 1 0
vn 0.6279941 0.61956304 0.47091937
vn -0 1 0
vn -0 1 0
vn 0.8456482 0.15090036 -0.5119649
vn -0.06535283 0.83539003 -0.54575866
vn 0.4364506 0.5328698 0.7249556
vn -0 1 0
vn -0 1 0
vn -0 1 0
vn 0.26229623 0.30278632 0.9162538
vn -0 1 0
vn 0.5211262 0.010700835 0.8534125
vn 0.665037 -0.055457424 0.7447486
vn 0.51034874 -0.1749428 0.84198534
vn 0.30285332 0.038812514 0.9522465
vn -0.22987427 0.8293776 -0.50920576
vn 0.24665686 0.8065568 -0.5372396
vn 0.14262043 0.9713708 -0.18999483
vn 0.78335786 0.62134314 0.016826702
vn 0.4653936 0.78724384 0.40454423
vn -0.281679 0.9546292 -0.09664419
vn 0.988867 -0.12669109 -0.0780481
vn -0.09135009 0.9716741 0.21795571
vn 0.92795753 0.17017066 0.33156723
vn 0.01315766 0.8589997 0.511807
vn -0.07226785 0.9321579 0.3547661
vn 0.5067183 0.56094766 0.65465593
vn -0.09494317 0.9796997 -0.17656258
vn 0.14186291 0.89155823 -0.43011495
vn 0.1676438 0.9845428 -0.05070543
vn 0.08662582 0.8073778 -0.58364123
vn -0.28488156 0.8077979 -0.51604754
vn 0.14472711 0.9179819 -0.369274
vn -0.056989294 0.99253076 -0.10786504
vn -0.60932225 0.49952498 -0.61579317
vn -0.6178538 -0.044639487 -0.7850248
vn -0.62139946 0.50057524 -0.6027331
vn -0.24774097 0.9144604 -0.31997895
vn -0.365836 0.93066937 0.0043073026
vn -0.4353509 0.7171112 -0.54426205
vn -0.68136764 -0.035842877 -0.7310632
vn -0.5617217 0.38983583 -0.72972375
vn -0.7184254 0.03784438 -0.69457376
vn -0.7552549 -0.12035843 -0.64428556
vn -0.7567104 0.00076456973 -0.6537497
vn -0.70391685 0.17841345 -0.68750983
vn -0.80934846 -0.29897702 -0.5055371
vn -0.9040832 -0.18905278 -0.38326582
vn -0.8806378 0.39842346 -0.25638995
vn -0.6054904 0.7862328 -0.12336679
vn -0.89969665 -0.29027733 -0.32601374
vn -0.84726894 0.511938 -0.14161555
vn -0 1 0
vn -0.91224515 0.38206905 -0.14775656
vn -0.9135671 0.37504002 0.1572899
vn -0 1 0
vn -0.84444064 0.39285818 0.36411878
vn -0.8522559 -0.40189964 0.33486795
vn -0.8949177 -0.42138588 0.14682029
vn -0 1 0
vn -0.9203641 -0.23478802 -0.31273714
vn -0.8481194 -0.52071667 -0.09771236
vn -0.8930874 -0.42913482 0.13504913
vn -0.8970779 -0.26991263 -0.34985477
vn -0.88327414 0.27882624 -0.3769387
vn -0.8688125 0.47973937 0.12253584
vn -0.74904233 -0.44272742 0.4928773
vn -0.7881088 -0.351774 0.50511354
vn -0.71072495 -0.46609694 0.5269
vn -0.68464917 0.4421703 0.5794315
vn -0.6184543 0.7297382 0.29154173
vn -0.5862653 -0.0331224 0.8094416
vn -0.32659402 0.85134244 0.41055143
vn -0.60102737 0.36962336 0.7086217
vn -0.6753048 0.001968211 0.7375362
vn -0.5707334 -0.11990289 0.81233406
vn -0.67066324 -0.26591638 0.6924589
vn -0.69870013 -0.2758161 0.6601087
vn -0.21201822 0.94797754 0.23745905
vn -0.4898269 0.4088848 0.76998883
vn 0.09477038 0.9549157 0.28134412
vn -0.17429444 0.7366258 0.6534553
vn 0.14199013 0.91616964 0.37479565
vn 0.09574679 0.83450574 0.54261655
vn 0.097841725 0.7770702 0.6217627
vn 0.060891178 0.5558552 0.8290461
vn 0.043195743 0.37342584 0.92665374
vn -0.03477184 0.39929473 0.9161631
vn -0.14201649 0.3939818 0.9080802
vn 0.057347536 0.77915424 0.62420356
vn -0.18551923 0.8051363 0.56332767
vn 0.069160104 0.70274013 0.7080772
vn -0.2057044 -0.081853665 0.9751849
vn 0.04414462 -0.0053319326 0.9990109
vn -0.39380094 -0.19700791 0.89783555
vn -0.10816099 -0.11933071 0.98694545
vn -0.56203943 -0.186154 0.80588984
vn -0.6939587 -0.28351763 0.66184527
vn -0.81105405 -0.30743533 0.49766946
vn -0.8477605 -0.15304941 0.50781703
vn -0.79597276 0.38241974 0.46923617
vn -0.53817135 0.35820943 0.76292706
vn -0.34316152 0.40721482 0.8464138
vn -0 1 0
vn -0 1 0
vn -0.07280547 0.36007676 0.9300774
vn -0 1 0
vn -0.07699257 0.2518351 0.9647027
vn -0.026963547 -0.08870543 0.9956929
vn 0.042317674 0.22831364 0.97266746
vn -0 1 0
vn -0.011124748 -0.02089866 0.9997197
vn 0.034335267 0.062253658 0.99746954
vn -0.10376878 -0.11699061 0.98769695
vn -0.072798796 -0.055846456 0.9957819
vn 0.05524236 0.03985819 0.99767715
vn 0.1826819 0.07600238 0.9802301
vn 0.04129207 0.42913866 0.90229434
vn -0 1 0
vn 0.03533169 -0.066316016 0.99717295
vn 0.22349574 0.0835828 0.9711146
vn 0.065147564 -0.11078856 0.9917065
vn -0.11963331 0.3541894 0.92749
vn -0.054792352 0.14942363 0.98725396
vn 0.06178825 -0.20784836 0.97620755
vn 0.13642499 -0.17795187 0.97453654
vn 0.25351766 -0.19674502 0.9471115
vn 0.12594795 0.16057113 0.9789556
vn 0.4922021 -0.17496763 0.8527154
vn 0.514247 0.2880644 0.8078174
vn 0.5310735 -0.1656441 0.8309771
vn 0.6152417 0.2738185 0.73925716
vn 0.6108834 -0.15935251 0.77551794
vn 0.70228595 0.050670974 0.7100894
vn 0.7607732 0.027255412 0.6484452
vn 0.76706237 0.4767658 0.42931303
vn 0.6932876 0.43186924 0.57692397
vn 0.94425017 -0.17254053 0.2803951
vn 0.86623466 0.45962867 0.19590527
vn 0.9708693 -0.21840832 -0.098542176
vn 0.9280335 -0.23517132 -0.28887415
g valley_mound03_0
f 3/3/3 2/2/2 1/1/1
f 2/2/2 3/3/3 4/4/4
f 2/2/2 5/5/5 1/1/1
f 6/6/6 1/1/1 5/5/5
f 7/7/7 5/5/5 2/2/2
f 7/7/7 8/8/8 5/5/5
f 9/9/9 6/6/6 5/5/5
f 8/8/8 9/9/9 5/5/5
f 10/10/10 6/6/6 9/9/9
f 11/11/11 10/10/10 9/9/9
f 12/12/12 11/11/11 9/9/9
f 8/8/8 12/12/12 9/9/9
f 12/12/12 8/8/8 13/13/13
f 12/12/12 13/13/13 14/14/14
f 15/15/15 12/12/12 14/14/14
f 12/12/12 15/15/15 11/11/11
f 15/15/15 16/16/16 11/11/11
f 15/15/15 14/14/14 16/16/16
f 14/14/14 17/17/17 16/16/16
f 17/17/17 14/14/14 18/18/18
f 14/14/14 19/19/19 18/18/18
f 20/20/20 18/18/18 19/19/19
f 7/7/7 21/21/21 8/8/8
f 8/8/8 22/22/22 13/13/13
f 21/21/21 22/22/22 8/8/8
f 13/13/13 22/22/22 23/23/23
f 24/24/24 22/22/22 21/21/21
f 22/22/22 24/24/24 23/23/23
f 25/25/25 24/24/24 21/21/21
f 25/25/25 21/21/21 7/7/7
f 24/24/24 26/26/26 23/23/23
f 26/26/26 24/24/24 25/25/25
f 27/27/27 14/14/14 13/13/13
f 14/14/14 27/27/27 28/28/28
f 19/19/19 14/14/14 28/28/28
f 19/19/19 28/28/28 29/29/29
f 20/20/20 19/19/19 30/30/30
f 30/30/30 19/19/19 29/29/29
f 30/30/30 31/31/31 20/20/20
f 30/30/30 29/29/29 31/31/31
f 29/29/29 32/32/32 31/31/31
f 20/20/20 31/31/31 33/33/33
f 34/34/34 33/33/33 31/31/31
f 34/34/34 31/31/31 35/35/35
f 36/36/36 27/27/27 13/13/13
f 27/27/27 36/36/36 28/28/28
f 31/31/31 37/37/37 35/35/35
f 31/31/31 32/32/32 37/37/37
f 28/28/28 38/38/38 29/29/29
f 36/36/36 38/38/38 28/28/28
f 36/36/36 13/13/13 39/39/39
f 13/13/13 23/23/23 39/39/39
f 40/40/40 38/38/38 36/36/36
f 39/39/39 40/40/40 36/36/36
f 38/38/38 41/41/41 29/29/29
f 40/40/40 41/41/41 38/38/38
f 29/29/29 41/41/41 42/42/42
f 41/41/41 40/40/40 42/42/42
f 42/42/42 32/32/32 29/29/29
f 39/39/39 43/43/43 40/40/40
f 40/40/40 43/43/43 42/42/42
f 44/44/44 35/35/35 37/37/37
f 35/35/35 44/44/44 45/45/45
f 45/45/45 44/44/44 46/46/46
f 47/47/47 45/45/45 46/46/46
f 46/46/46 48/48/48 47/47/47
f 32/32/32 42/42/42 49/49/49
f 43/43/43 49/49/49 42/42/42
f 43/43/43 39/39/39 50/50/50
f 23/23/23 50/50/50 39/39/39
f 51/51/51 48/48/48 46/46/46
f 52/52/52 48/48/48 51/51/51
f 51/51/51 53/53/53 52/52/52
f 54/54/54 53/53/53 51/51/51
f 54/54/54 51/51/51 55/55/55
f 55/55/55 56/56/56 54/54/54
f 51/51/51 57/57/57 55/55/55
f 51/51/51 46/46/46 57/57/57
f 46/46/46 58/58/58 57/57/57
f 58/58/58 59/59/59 57/57/57
f 55/55/55 57/57/57 60/60/60
f 55/55/55 60/60/60 56/56/56
f 60/60/60 57/57/57 59/59/59
f 50/50/50 61/61/61 43/43/43
f 62/62/62 43/43/43 61/61/61
f 62/62/62 49/49/49 43/43/43
f 61/61/61 63/63/63 62/62/62
f 62/62/62 64/64/64 49/49/49
f 64/64/64 62/62/62 63/63/63
f 64/64/64 63/63/63 65/65/65
f 61/61/61 66/66/66 63/63/63
f 66/66/66 61/61/61 50/50/50
f 49/49/49 64/64/64 67/67/67
f 32/32/32 49/49/49 67/67/67
f 65/65/65 63/63/63 68/68/68
f 66/66/66 68/68/68 63/63/63
f 69/69/69 67/67/67 64/64/64
f 69/69/69 64/64/64 65/65/65
f 70/70/70 65/65/65 68/68/68
f 68/68/68 66/66/66 70/70/70
f 71/71/71 70/70/70 66/66/66
f 72/72/72 65/65/65 70/70/70
f 50/50/50 73/73/73 66/66/66
f 73/73/73 71/71/71 66/66/66
f 73/73/73 50/50/50 74/74/74
f 74/74/74 50/50/50 23/23/23
f 75/75/75 71/71/71 73/73/73
f 74/74/74 75/75/75 73/73/73
f 76/76/76 74/74/74 23/23/23
f 23/23/23 26/26/26 76/76/76
f 76/76/76 26/26/26 77/77/77
f 78/78/78 74/74/74 76/76/76
f 76/76/76 77/77/77 78/78/78
f 79/79/79 74/74/74 78/78/78
f 74/74/74 79/79/79 75/75/75
f 26/26/26 80/80/80 77/77/77
f 25/25/25 80/80/80 26/26/26
f 25/25/25 81/81/81 80/80/80
f 7/7/7 81/81/81 25/25/25
f 80/80/80 81/81/81 82/82/82
f 80/80/80 82/82/82 77/77/77
f 79/79/79 78/78/78 83/83/83
f 78/78/78 77/77/77 83/83/83
f 79/79/79 83/83/83 84/84/84
f 77/77/77 85/85/85 83/83/83
f 84/84/84 83/83/83 85/85/85
f 7/7/7 86/86/86 81/81/81
f 81/81/81 86/86/86 82/82/82
f 77/77/77 82/82/82 87/87/87
f 87/87/87 85/85/85 77/77/77
f 82/82/82 86/86/86 88/88/88
f 88/88/88 86/86/86 7/7/7
f 87/87/87 82/82/82 88/88/88
f 7/7/7 89/89/89 88/88/88
f 89/89/89 7/7/7 2/2/2
f 87/87/87 88/88/88 90/90/90
f 90/90/90 88/88/88 89/89/89
f 91/91/91 85/85/85 87/87/87
f 91/91/91 87/87/87 90/90/90
f 92/92/92 90/90/90 89/89/89
f 92/92/92 91/91/91 90/90/90
f 89/89/89 2/2/2 93/93/93
f 93/93/93 92/92/92 89/89/89
f 2/2/2 94/94/94 93/93/93
f 2/2/2 4/4/4 94/94/94
f 85/85/85 91/91/91 95/95/95
f 95/95/95 84/84/84 85/85/85
f 96/96/96 92/92/92 93/93/93
f 94/94/94 96/96/96 93/93/93
f 4/4/4 97/97/97 94/94/94
f 97/97/97 4/4/4 98/98/98
f 99/99/99 94/94/94 97/97/97
f 96/96/96 94/94/94 99/99/99
f 98/98/98 100/100/100 97/97/97
f 100/100/100 99/99/99 97/97/97
f 98/98/98 101/101/101 100/100/100
f 100/100/100 101/101/101 102/102/102
f 102/102/102 103/103/103 100/100/100
f 103/103/103 104/104/104 100/100/100
f 99/99/99 100/100/100 104/104/104
f 101/101/101 105/105/105 102/102/102
f 106/106/106 96/96/96 99/99/99
f 106/106/106 99/99/99 104/104/104
f 106/106/106 107/107/107 96/96/96
f 106/106/106 104/104/104 107/107/107
f 107/107/107 92/92/92 96/96/96
f 107/107/107 104/104/104 103/103/103
f 108/108/108 107/107/107 103/103/103
f 92/92/92 107/107/107 109/109/109
f 108/108/108 109/109/109 107/107/107
f 91/91/91 92/92/92 109/109/109
f 110/110/110 91/91/91 109/109/109
f 110/110/110 109/109/109 108/108/108
f 110/110/110 95/95/95 91/91/91
f 110/110/110 111/111/111 95/95/95
f 111/111/111 110/110/110 108/108/108
f 84/84/84 95/95/95 111/111/111
f 103/103/103 112/112/112 108/108/108
f 111/111/111 108/108/108 113/113/113
f 112/112/112 114/114/114 108/108/108
f 108/108/108 114/114/114 113/113/113
f 115/115/115 111/111/111 113/113/113
f 111/111/111 116/116/116 84/84/84
f 111/111/111 115/115/115 116/116/116
f 113/113/113 114/114/114 117/117/117
f 117/117/117 115/115/115 113/113/113
f 116/116/116 118/118/118 84/84/84
f 116/116/116 115/115/115 119/119/119
f 119/119/119 118/118/118 116/116/116
f 117/117/117 120/120/120 115/115/115
f 120/120/120 119/119/119 115/115/115
f 120/120/120 121/121/121 119/119/119
f 117/117/117 122/122/122 120/120/120
f 114/114/114 122/122/122 117/117/117
f 121/121/121 120/120/120 122/122/122
f 123/123/123 122/122/122 114/114/114
f 123/123/123 114/114/114 112/112/112
f 123/123/123 121/121/121 122/122/122
f 84/84/84 118/118/118 124/124/124
f 124/124/124 79/79/79 84/84/84
f 125/125/125 118/118/118 119/119/119
f 121/121/121 125/125/125 119/119/119
f 79/79/79 124/124/124 126/126/126
f 75/75/75 79/79/79 126/126/126
f 127/127/127 124/124/124 118/118/118
f 125/125/125 127/127/127 118/118/118
f 126/126/126 128/128/128 75/75/75
f 128/128/128 71/71/71 75/75/75
f 124/124/124 129/129/129 126/126/126
f 129/129/129 128/128/128 126/126/126
f 129/129/129 124/124/124 127/127/127
f 129/129/129 130/130/130 128/128/128
f 128/128/128 130/130/130 71/71/71
f 131/131/131 129/129/129 127/127/127
f 129/129/129 131/131/131 130/130/130
f 130/130/130 131/131/131 132/132/132
f 133/133/133 130/130/130 132/132/132
f 131/131/131 127/127/127 134/134/134
f 127/127/127 125/125/125 134/134/134
f 132/132/132 131/131/131 134/134/134
f 130/130/130 135/135/135 71/71/71
f 133/133/133 135/135/135 130/130/130
f 71/71/71 135/135/135 136/136/136
f 135/135/135 133/133/133 136/136/136
f 70/70/70 71/71/71 136/136/136
f 70/70/70 136/136/136 137/137/137
f 137/137/137 136/136/136 133/133/133
f 72/72/72 70/70/70 137/137/137
f 138/138/138 134/134/134 125/125/125
f 121/121/121 138/138/138 125/125/125
f 132/132/132 134/134/134 139/139/139
f 134/134/134 138/138/138 139/139/139
f 121/121/121 140/140/140 138/138/138
f 138/138/138 141/141/141 139/139/139
f 141/141/141 138/138/138 140/140/140
f 142/142/142 140/140/140 121/121/121
f 142/142/142 121/121/121 123/123/123
f 143/143/143 142/142/142 123/123/123
f 143/143/143 123/123/123 112/112/112
f 112/112/112 144/144/144 143/143/143
f 112/112/112 103/103/103 144/144/144
f 144/144/144 145/145/145 143/143/143
f 103/103/103 145/145/145 144/144/144
f 145/145/145 142/142/142 143/143/143
f 146/146/146 145/145/145 103/103/103
f 102/102/102 146/146/146 103/103/103
f 102/102/102 105/105/105 146/146/146
f 145/145/145 146/146/146 147/147/147
f 142/142/142 145/145/145 147/147/147
f 146/146/146 105/105/105 147/147/147
f 142/142/142 147/147/147 148/148/148
f 147/147/147 105/105/105 148/148/148
f 140/140/140 142/142/142 148/148/148
f 149/149/149 148/148/148 105/105/105
f 150/150/150 148/148/148 149/149/149
f 148/148/148 151/151/151 140/140/140
f 150/150/150 151/151/151 148/148/148
f 151/151/151 141/141/141 140/140/140
f 150/150/150 152/152/152 151/151/151
f 151/151/151 153/153/153 141/141/141
f 153/153/153 151/151/151 152/152/152
f 153/153/153 154/154/154 141/141/141
f 154/154/154 139/139/139 141/141/141
f 155/155/155 153/153/153 152/152/152
f 152/152/152 156/156/156 155/155/155
f 157/157/157 139/139/139 154/154/154
f 132/132/132 139/139/139 157/157/157
f 158/158/158 132/132/132 157/157/157
f 159/159/159 154/154/154 153/153/153
f 159/159/159 157/157/157 154/154/154
f 153/153/153 155/155/155 159/159/159
f 160/160/160 157/157/157 159/159/159
f 155/155/155 160/160/160 159/159/159
f 158/158/158 157/157/157 160/160/160
f 161/161/161 160/160/160 155/155/155
f 161/161/161 155/155/155 156/156/156
f 161/161/161 158/158/158 160/160/160
f 162/162/162 161/161/161 156/156/156
f 161/161/161 162/162/162 158/158/158
f 156/156/156 163/163/163 162/162/162
f 163/163/163 156/156/156 164/164/164
f 158/158/158 165/165/165 132/132/132
f 165/165/165 133/133/133 132/132/132
f 162/162/162 166/166/166 158/158/158
f 163/163/163 166/166/166 162/162/162
f 166/166/166 167/167/167 158/158/158
f 167/167/167 166/166/166 163/163/163
f 158/158/158 167/167/167 165/165/165
f 168/168/168 163/163/163 164/164/164
f 168/168/168 167/167/167 163/163/163
f 56/56/56 168/168/168 164/164/164
f 169/169/169 168/168/168 56/56/56
f 167/167/167 168/168/168 169/169/169
f 60/60/60 169/169/169 56/56/56
f 170/170/170 167/167/167 169/169/169
f 170/170/170 165/165/165 167/167/167
f 169/169/169 60/60/60 170/170/170
f 133/133/133 165/165/165 171/171/171
f 165/165/165 170/170/170 171/171/171
f 60/60/60 172/172/172 170/170/170
f 170/170/170 172/172/172 171/171/171
f 172/172/172 60/60/60 59/59/59
f 173/173/173 133/133/133 171/171/171
f 133/133/133 173/173/173 137/137/137
f 172/172/172 174/174/174 171/171/171
f 59/59/59 174/174/174 172/172/172
f 173/173/173 171/171/171 174/174/174
f 173/173/173 175/175/175 137/137/137
f 175/175/175 173/173/173 174/174/174
f 137/137/137 175/175/175 72/72/72
f 174/174/174 59/59/59 176/176/176
f 175/175/175 174/174/174 176/176/176
f 176/176/176 59/59/59 58/58/58
f 177/177/177 175/175/175 176/176/176
f 175/175/175 177/177/177 72/72/72
f 178/178/178 176/176/176 58/58/58
f 177/177/177 176/176/176 178/178/178
f 179/179/179 177/177/177 178/178/178
f 178/178/178 58/58/58 179/179/179
f 179/179/179 180/180/180 177/177/177
f 180/180/180 72/72/72 177/177/177
f 58/58/58 180/180/180 179/179/179
f 180/180/180 181/181/181 72/72/72
f 69/69/69 180/180/180 58/58/58
f 181/181/181 180/180/180 69/69/69
f 181/181/181 182/182/182 72/72/72
f 182/182/182 65/65/65 72/72/72
f 181/181/181 65/65/65 182/182/182
f 181/181/181 69/69/69 65/65/65
f 183/183/183 69/69/69 58/58/58
f 183/183/183 58/58/58 46/46/46
f 69/69/69 183/183/183 67/67/67
f 184/184/184 183/183/183 46/46/46
f 44/44/44 184/184/184 46/46/46
f 184/184/184 44/44/44 183/183/183
f 67/67/67 183/183/183 185/185/185
f 44/44/44 185/185/185 183/183/183
f 67/67/67 185/185/185 32/32/32
f 185/185/185 44/44/44 37/37/37
f 185/185/185 186/186/186 32/32/32
f 186/186/186 185/185/185 37/37/37
f 32/32/32 186/186/186 37/37/37
