g valley_tree07
v -0.62063706 0.8970995 0.45572627
v -0.78013676 0.16518387 -0.012412684
v -0.7703696 1.0015961 -0.039821118
v -0.5887629 -0.16108236 -0.41466647
v -0.74729854 1.7251557 -0.15324107
v -0.51599616 0.43656516 0.5445173
v -0.5298301 -0.22842464 0.28808063
v -0.53683484 2.0398052 0.43777794
v -0.29712054 1.6316274 0.6560815
v 0.11747232 -0.36335087 0.4938993
v -0.14284946 -0.57315916 -0.0037311623
v 0.057367913 0.74947226 0.7623249
v 0.19430946 1.4496858 0.70423317
v -0.032164335 2.5810785 0.60288274
v 0.45637617 0.22056998 0.57137173
v 0.5551889 -0.35162336 -0.022697365
v 0.68518335 0.29507533 0.33142486
v 0.7372862 1.3182331 0.25337327
v -0.12315863 -0.38772082 -0.48279232
v 0.38620618 2.3200495 0.5032115
v 0.34244606 4.0289116 0.4513991
v 0.5623121 3.3059788 0.18405086
v 0.482764 4.515968 -0.0317723
v 0.48426914 4.6851416 0.15297045
v 0.5686262 3.5032604 -0.039783604
v 0.49589208 3.270391 -0.33257705
v 0.5394087 3.4968457 -0.114269614
v 0.62664294 2.0668845 0.21619736
v 0.63280797 2.0480494 -0.24122304
v 0.34497654 5.1990504 0.36671257
v 0.45199263 4.793836 0.026083231
v -0.10346274 5.077472 0.53013366
v 0.6600818 4.891101 -0.073843196
v 0.45065546 4.7796946 -0.09898567
v 0.4495511 4.8569603 -0.07809591
v 0.5560627 3.4854863 -0.10310769
v 0.56198096 3.2563255 -0.11146326
v -0.12622167 3.8865685 0.55013204
v -0.52853477 4.4651203 0.18700318
v -0.27726194 6.005283 0.33258826
v -0.39183095 2.9968557 0.45304257
v -0.58950186 2.9241374 0.07279474
v -0.12625782 6.103273 0.4301232
v -0.0513602 6.482616 0.4269837
v -0.37366074 6.505779 0.69153595
v -0.542981 6.03683 0.77169573
v -0.3552344 2.609541 -0.51321614
v -0.4586519 3.6286488 -0.17179333
v -0.37526053 1.3688262 -0.6715753
v -0.067889616 0.36164048 -0.83010685
v 0.26655525 -0.12598404 -0.64518124
v 0.17856054 1.481605 -0.73816276
v 0.6844525 0.06265451 -0.3440052
v 0.17046405 2.442809 -0.65016294
v -0.045355804 3.5641012 -0.55878836
v -0.42695493 4.317004 -0.36887342
v 0.7089571 0.8335274 -0.35365573
v 0.46913168 1.2555724 -0.61284673
v -0.48002538 5.4399414 -0.12078942
v 0.293502 4.430311 -0.37821972
v -0.20166332 5.1720805 -0.44956648
v -0.28544718 6.0451927 -0.26860544
v -0.3835234 6.4107895 0.030207893
v 0.040945716 5.8215938 -0.43426555
v 0.46766704 5.5653687 -0.089760825
v 0.28663474 6.092204 -0.30093893
v -0.26935318 6.353121 0.23153476
v -0.65951353 6.28703 0.4755425
v -0.23517874 7.1162148 -0.20283183
v -0.016272929 6.866508 -0.31350756
v 0.24339071 6.8090987 -0.18081781
v -0.32753623 6.942875 0.19194877
v 0.29563522 6.6467886 0.20915693
v -0.045683883 7.0852394 0.17287016
v 0.45317245 4.8569603 0.014298317
v 0.36720312 4.7870646 -0.040237147
v -0.2855022 6.4712467 0.4023689
v -0.2855022 6.449091 0.4023689
v -0.5166538 6.4744906 0.5172709
v -0.7560363 6.371431 0.7556568
v -0.54508585 6.4565496 0.85909617
v 1.111462 4.879168 -0.19385849
v 0.8423996 4.549025 -0.07244122
v 1.1085538 4.776892 -0.010949124
vn -0.8517336 0.028818665 0.523182
vn -0.9866564 -0.1621032 0.01522075
vn -0.9990602 0.01416666 -0.040963106
vn -0.72813946 -0.3413445 -0.5943877
vn -0.96407497 0.0826489 -0.25244522
vn -0.49830732 -0.17536224 0.84908056
vn -0.6392361 -0.54750836 0.5400109
vn -0.82705045 0.099246904 0.553297
vn -0.33860466 0.07216516 0.93815726
vn 0.11039699 -0.6095131 0.78505176
vn -0.15369101 -0.98765403 0.030308088
vn -0.04950633 -0.08357731 0.9952708
vn 0.39803267 0.06610594 0.9149863
vn 0.0069311694 0.06232037 0.99803215
vn 0.5016704 -0.16935493 0.8483193
vn 0.70405704 -0.70364237 0.09587014
vn 0.9307421 -0.15463045 0.33137384
vn 0.9208044 0.05025568 0.38677338
vn -0.07916057 -0.7527897 -0.6534839
vn 0.55387217 0.078715034 0.8288725
vn 0.5710656 0.0675186 0.81812304
vn 0.91296506 0.05929454 0.40370655
vn 0.975812 -0.03236579 -0.2162024
vn 0.8551222 0.017406961 0.5181342
vn 0.9888221 0.0760365 -0.12825425
vn 0.65408164 0.09716829 -0.75015706
vn 0.9782073 0.029500352 0.2055242
vn 0.9599707 0.101730384 0.26097363
vn 0.9073197 0.103536524 -0.40749365
vn 0.65917784 0.07005815 0.7487166
vn 0.79815793 0.5279226 0.29024413
vn -0.24058266 0.05925163 0.9688185
vn -0.17100778 0.8602015 -0.48042667
vn 0.8152401 -0.028225025 -0.5784348
vn 0.9839023 0.06929762 0.16472454
vn 0.9349677 -0.10562721 -0.33864197
vn 0.98994863 0.07053779 -0.12258112
vn -0.23145546 0.05786999 0.97112274
vn -0.92207795 0.033790417 0.38552603
vn -0.8992018 -0.10387167 0.42502552
vn -0.680076 0.04052136 0.732021
vn -0.9961094 0.08783192 0.0071769874
vn 0.22071965 -0.09031811 0.97114646
vn 0.32445663 0.16593516 0.9312322
vn 0.6119889 0.26684305 0.7444894
vn -0.027536768 -0.77969974 0.62554777
vn -0.6224181 0.12748238 -0.7722331
vn -0.8655553 0.033768386 -0.49967366
vn -0.5971352 0.055092026 -0.8002464
vn -0.16834365 -0.083398394 -0.98219407
vn 0.44938186 -0.32943588 -0.8303782
vn 0.13298494 0.06541946 -0.98895675
vn 0.84752035 -0.1590328 -0.5063773
vn 0.27286702 0.09631181 -0.9572187
vn -0.060926296 0.08021923 -0.99491346
vn -0.7762723 -0.0026327171 -0.6303922
vn 0.9646764 -0.0026114797 -0.26342466
vn 0.6198722 0.022119261 -0.78439105
vn -0.98733926 0.109369576 -0.11488936
vn 0.51249725 0.08690822 -0.8542795
vn -0.25836173 0.05930942 -0.9642259
vn -0.5659576 0.11802443 -0.8159425
vn -0.99418044 0.071957834 -0.080171496
vn 0.24051864 0.13239704 -0.9615725
vn 0.9647964 0.08156745 -0.25002897
vn 0.66071844 0.13315691 -0.7387289
vn -0.978284 0.12056211 0.16859767
vn -0.786046 -0.29039788 -0.54571116
vn -0.51818085 0.6338619 -0.5742019
vn -0.031329103 0.1676623 -0.98534656
vn 0.8415004 0.40099448 -0.36205027
vn -0.8127946 0.38481817 0.4373554
vn 0.8193947 0.24728322 0.5171493
vn 0.33312124 0.8131464 0.47730827
vn 0.9257311 0.31588387 0.2079403
vn 0.8923018 0.4512205 0.014052205
vn 0.010638713 0.9187889 -0.3946058
vn -0.3085712 0.8558585 -0.41507825
vn -0.39280412 0.8270777 -0.40205407
vn -0.93702745 0.08099064 0.3397351
vn 0.13207181 0.36203456 0.9227611
vn 0.3110297 0.48597562 -0.8167546
vn 0.2923068 -0.95568836 -0.034878213
vn 0.6515282 0.13952705 0.7456831
g valley_tree07_0
f 3/3/3 2/2/2 1/1/1
f 3/3/3 4/4/4 2/2/2
f 3/3/3 1/1/1 5/5/5
f 4/4/4 3/3/3 5/5/5
f 2/2/2 6/6/6 1/1/1
f 7/7/7 2/2/2 4/4/4
f 7/7/7 6/6/6 2/2/2
f 8/8/8 5/5/5 1/1/1
f 9/9/9 1/1/1 6/6/6
f 1/1/1 9/9/9 8/8/8
f 10/10/10 6/6/6 7/7/7
f 7/7/7 4/4/4 11/11/11
f 11/11/11 10/10/10 7/7/7
f 9/9/9 6/6/6 12/12/12
f 6/6/6 10/10/10 12/12/12
f 13/13/13 9/9/9 12/12/12
f 14/14/14 8/8/8 9/9/9
f 9/9/9 13/13/13 14/14/14
f 12/12/12 10/10/10 15/15/15
f 15/15/15 13/13/13 12/12/12
f 16/16/16 10/10/10 11/11/11
f 17/17/17 15/15/15 10/10/10
f 10/10/10 16/16/16 17/17/17
f 13/13/13 15/15/15 18/18/18
f 17/17/17 18/18/18 15/15/15
f 4/4/4 19/19/19 11/11/11
f 11/11/11 19/19/19 16/16/16
f 13/13/13 20/20/20 14/14/14
f 13/13/13 18/18/18 20/20/20
f 20/20/20 21/21/21 14/14/14
f 20/20/20 22/22/22 21/21/21
f 22/22/22 23/23/23 21/21/21
f 21/21/21 23/23/23 24/24/24
f 25/25/25 23/23/23 22/22/22
f 26/26/26 23/23/23 25/25/25
f 25/25/25 27/27/27 26/26/26
f 28/28/28 20/20/20 18/18/18
f 22/22/22 20/20/20 28/28/28
f 18/18/18 29/29/29 28/28/28
f 28/28/28 29/29/29 22/22/22
f 30/30/30 21/21/21 24/24/24
f 24/24/24 31/31/31 30/30/30
f 21/21/21 30/30/30 32/32/32
f 33/33/33 31/31/31 24/24/24
f 34/34/34 33/33/33 23/23/23
f 35/35/35 34/34/34 31/31/31
f 35/35/35 33/33/33 34/34/34
f 25/25/25 36/36/36 27/27/27
f 25/25/25 22/22/22 36/36/36
f 22/22/22 27/27/27 36/36/36
f 22/22/22 37/37/37 27/27/27
f 29/29/29 37/37/37 22/22/22
f 27/27/27 37/37/37 36/36/36
f 36/36/36 26/26/26 27/27/27
f 37/37/37 26/26/26 36/36/36
f 29/29/29 26/26/26 37/37/37
f 38/38/38 21/21/21 32/32/32
f 32/32/32 39/39/39 38/38/38
f 40/40/40 39/39/39 32/32/32
f 21/21/21 38/38/38 14/14/14
f 14/14/14 38/38/38 41/41/41
f 38/38/38 39/39/39 41/41/41
f 41/41/41 8/8/8 14/14/14
f 41/41/41 42/42/42 8/8/8
f 41/41/41 39/39/39 42/42/42
f 8/8/8 42/42/42 5/5/5
f 43/43/43 40/40/40 32/32/32
f 43/43/43 32/32/32 30/30/30
f 43/43/43 30/30/30 44/44/44
f 45/45/45 43/43/43 44/44/44
f 43/43/43 46/46/46 40/40/40
f 45/45/45 46/46/46 43/43/43
f 42/42/42 47/47/47 5/5/5
f 48/48/48 42/42/42 39/39/39
f 42/42/42 48/48/48 47/47/47
f 5/5/5 47/47/47 49/49/49
f 4/4/4 5/5/5 49/49/49
f 50/50/50 4/4/4 49/49/49
f 4/4/4 50/50/50 19/19/19
f 51/51/51 19/19/19 50/50/50
f 16/16/16 19/19/19 51/51/51
f 50/50/50 49/49/49 52/52/52
f 51/51/51 50/50/50 52/52/52
f 16/16/16 51/51/51 53/53/53
f 53/53/53 51/51/51 52/52/52
f 17/17/17 16/16/16 53/53/53
f 54/54/54 49/49/49 47/47/47
f 52/52/52 49/49/49 54/54/54
f 48/48/48 55/55/55 47/47/47
f 55/55/55 54/54/54 47/47/47
f 48/48/48 39/39/39 56/56/56
f 48/48/48 56/56/56 55/55/55
f 57/57/57 17/17/17 53/53/53
f 17/17/17 57/57/57 18/18/18
f 18/18/18 57/57/57 29/29/29
f 58/58/58 53/53/53 52/52/52
f 58/58/58 57/57/57 53/53/53
f 58/58/58 29/29/29 57/57/57
f 52/52/52 54/54/54 58/58/58
f 29/29/29 58/58/58 54/54/54
f 29/29/29 54/54/54 26/26/26
f 54/54/54 55/55/55 26/26/26
f 59/59/59 56/56/56 39/39/39
f 59/59/59 39/39/39 40/40/40
f 26/26/26 55/55/55 60/60/60
f 60/60/60 23/23/23 26/26/26
f 55/55/55 56/56/56 61/61/61
f 59/59/59 61/61/61 56/56/56
f 60/60/60 55/55/55 61/61/61
f 61/61/61 59/59/59 62/62/62
f 59/59/59 40/40/40 63/63/63
f 63/63/63 62/62/62 59/59/59
f 60/60/60 61/61/61 64/64/64
f 61/61/61 62/62/62 64/64/64
f 64/64/64 65/65/65 60/60/60
f 34/34/34 23/23/23 60/60/60
f 34/34/34 60/60/60 65/65/65
f 66/66/66 64/64/64 62/62/62
f 65/65/65 64/64/64 66/66/66
f 40/40/40 67/67/67 63/63/63
f 68/68/68 67/67/67 40/40/40
f 40/40/40 46/46/46 68/68/68
f 63/63/63 69/69/69 62/62/62
f 70/70/70 66/66/66 62/62/62
f 69/69/69 70/70/70 62/62/62
f 71/71/71 66/66/66 70/70/70
f 69/69/69 71/71/71 70/70/70
f 63/63/63 72/72/72 69/69/69
f 67/67/67 72/72/72 63/63/63
f 66/66/66 71/71/71 73/73/73
f 66/66/66 73/73/73 65/65/65
f 71/71/71 69/69/69 74/74/74
f 74/74/74 69/69/69 72/72/72
f 71/71/71 74/74/74 73/73/73
f 72/72/72 44/44/44 74/74/74
f 74/74/74 44/44/44 73/73/73
f 72/72/72 67/67/67 44/44/44
f 73/73/73 30/30/30 65/65/65
f 44/44/44 30/30/30 73/73/73
f 35/35/35 65/65/65 30/30/30
f 35/35/35 34/34/34 65/65/65
f 75/75/75 35/35/35 30/30/30
f 31/31/31 75/75/75 30/30/30
f 75/75/75 35/35/35 31/31/31
f 31/31/31 34/34/34 76/76/76
f 35/35/35 76/76/76 34/34/34
f 75/75/75 76/76/76 35/35/35
f 75/75/75 31/31/31 76/76/76
f 75/75/75 33/33/33 35/35/35
f 75/75/75 31/31/31 33/33/33
f 44/44/44 67/67/67 77/77/77
f 77/77/77 67/67/67 78/78/78
f 77/77/77 78/78/78 44/44/44
f 67/67/67 68/68/68 78/78/78
f 78/78/78 45/45/45 44/44/44
f 78/78/78 77/77/77 45/45/45
f 77/77/77 78/78/78 79/79/79
f 78/78/78 68/68/68 79/79/79
f 77/77/77 79/79/79 45/45/45
f 80/80/80 79/79/79 68/68/68
f 80/80/80 68/68/68 46/46/46
f 81/81/81 46/46/46 45/45/45
f 45/45/45 79/79/79 81/81/81
f 79/79/79 80/80/80 81/81/81
f 81/81/81 80/80/80 46/46/46
f 33/33/33 82/82/82 23/23/23
f 82/82/82 83/83/83 23/23/23
f 24/24/24 23/23/23 83/83/83
f 82/82/82 33/33/33 84/84/84
f 82/82/82 84/84/84 83/83/83
f 83/83/83 84/84/84 24/24/24
f 84/84/84 33/33/33 24/24/24
