g valley_cord_x20
v 9.8350625E-09 0.049188368 -19.674957
v 9.8350625E-09 -0.252432 -17.42293
v -0.075 -0.32743177 -17.422754
v -0.075 -0.025811618 -19.674944
v 0.075 -0.025811618 -19.674944
v -3.2783543E-09 -0.40243158 -17.42258
v -3.2783545E-09 -0.10081161 -19.674929
v 0.075 -0.32743177 -17.422754
v -0.075 -0.5912162 -15.330984
v -3.2783543E-09 -0.6662156 -15.330665
v 0.075 -0.5912162 -15.330984
v 9.8350625E-09 -0.51621693 -15.331302
v -3.2783543E-09 -0.84299517 -13.746433
v 0.075 -0.7679963 -13.746854
v -0.075 -0.7679963 -13.746854
v 9.8350625E-09 -0.6929975 -13.7472725
v -3.2783543E-09 -0.9790745 -12.412226
v 0.075 -0.9040763 -12.412723
v -0.075 -0.9040763 -12.412723
v 9.8350625E-09 -0.82907784 -12.413219
v -3.2783543E-09 -1.0770359 -11.281132
v 0.075 -1.0020379 -11.281688
v -0.075 -1.0020379 -11.281688
v 9.8350625E-09 -0.92704 -11.282244
v -3.2783543E-09 -1.142161 -10.303654
v 0.075 -1.0671632 -10.30425
v -0.075 -1.0671632 -10.30425
v 9.8350625E-09 -0.99216574 -10.304846
v -3.2783543E-09 -1.1888567 -9.412676
v 0.075 -1.1138593 -9.413301
v -0.075 -1.1138593 -9.413301
v 9.8350625E-09 -1.0388618 -9.413928
v -3.2783543E-09 -1.2211488 -8.5837965
v 0.075 -1.1461517 -8.584445
v -0.075 -1.1461517 -8.584445
v 9.8350625E-09 -1.0711544 -8.5850935
v -3.2783543E-09 -1.2365333 -7.812268
v 0.075 -1.1615362 -7.8129287
v -0.075 -1.1615362 -7.8129287
v 9.8350625E-09 -1.086539 -7.8135896
v -3.2783543E-09 -1.2434635 -7.0683856
v 0.075 -1.1684662 -7.069054
v -0.075 -1.1684662 -7.069054
v 9.8350625E-09 -1.0934693 -7.0697227
v -3.2783543E-09 -1.2239136 -6.3803177
v 0.075 -1.1489165 -6.3809786
v -0.075 -1.1489165 -6.3809786
v 9.8350625E-09 -1.0739194 -6.3816395
v -3.2783543E-09 -1.1962175 -5.7000694
v 0.075 -1.1212202 -5.700718
v -0.075 -1.1212202 -5.700718
v 9.8350625E-09 -1.046223 -5.7013664
v -3.2783543E-09 -1.1522986 -5.034273
v 0.075 -1.0773011 -5.034899
v -0.075 -1.0773011 -5.034899
v 9.8350625E-09 -1.0023037 -5.0355253
v -3.2783543E-09 -1.0950025 -4.3691063
v 0.075 -1.020005 -4.3697023
v -0.075 -1.020005 -4.3697023
v 9.8350625E-09 -0.94500726 -4.370298
v -3.2783543E-09 -1.020879 -3.6999083
v 0.075 -0.9458812 -3.7004638
v -0.075 -0.9458812 -3.7004638
v 9.8350625E-09 -0.87088335 -3.701019
v -3.2783543E-09 -0.91687965 -3.027966
v 0.075 -0.84188133 -3.028463
v -0.075 -0.84188133 -3.028463
v 9.8350625E-09 -0.76688296 -3.0289602
v -3.2783543E-09 -0.7793932 -2.33843
v 0.075 -0.70439434 -2.3388484
v -0.075 -0.70439434 -2.338848
v 9.8350625E-09 -0.6293955 -2.3392663
v -3.2783543E-09 -0.608011 -1.6123929
v 0.075 -0.5330117 -1.6127112
v -0.075 -0.5330117 -1.6127112
v 9.8350625E-09 -0.45801234 -1.6130294
v -3.2783543E-09 -0.36406243 -0.84738195
v 0.075 -0.28906265 -0.8475555
v -0.075 -0.28906265 -0.8475555
v 9.8350625E-09 -0.21406284 -0.84772915
v -3.2783543E-09 -0.119273156 -0.16928679
v -0.075 -0.04564996 -0.18359168
v 0.075 -0.04564996 -0.18359168
v 9.8350625E-09 0.02797322 -0.19789656
v 9.8350625E-09 0.02797322 -0.19789656
v -2.3283064E-09 0.04749241 -0.18417597
v -0.08751339 -0.038414966 -0.16748717
v -0.075 -0.04564996 -0.18359168
v 0.075 -0.04564996 -0.18359168
v -1.5366822E-08 -0.1243224 -0.15079838
v -3.2783543E-09 -0.119273156 -0.16928679
v 0.08751336 -0.038414966 -0.16748717
v -0.089449175 0.014871562 0.0071433103
v 7.813737E-08 -0.07293868 0.024187788
v 0.0894492 0.014871562 0.0071433103
v -4.121916E-09 0.10268187 -0.009901181
v 8.434936E-08 0.022693785 0.04744207
v -0.075 -0.025811618 -19.674944
v -0.08751337 -0.022029033 -19.712528
v 1.071021E-08 0.06548435 -19.712542
v 9.8350625E-09 0.049188368 -19.674957
v -3.2783545E-09 -0.10081161 -19.674929
v 0.08751337 -0.022029033 -19.712528
v 0.075 -0.025811618 -19.674944
v -3.7252903E-09 -0.109542415 -19.712517
v 2.2241268E-08 0.08944917 -20.010218
v 0.089449205 0 -20.010218
v -0.08944917 0 -20.010218
v 1.0421082E-07 -0.08944923 -20.010218
v 1.03170436E-07 0 -20.051268
vt 0.25 0.65000004
vt 0.25 0.65000004
vt 0.25 0.65000004
vt 0.25 0.65000004
vt 0.25 0.65000004
vt 0.25 0.65000004
vt 0.25 0.65000004
vt 0.25 0.65000004
vt 0.25 0.65000004
vt 0.25 0.65000004
vt 0.25 0.65000004
vt 0.25 0.65000004
vt 0.25 0.65000004
vt 0.25 0.65000004
vt 0.25 0.65000004
vt 0.25 0.65000004
vt 0.25 0.65000004
vt 0.25 0.65000004
vt 0.25 0.65000004
vt 0.25 0.65000004
vt 0.25 0.65000004
vt 0.25 0.65000004
vt 0.25 0.65000004
vt 0.25 0.65000004
vt 0.25 0.65000004
vt 0.25 0.65000004
vt 0.25 0.65000004
vt 0.25 0.65000004
vt 0.25 0.65000004
vt 0.25 0.65000004
vt 0.25 0.65000004
vt 0.25 0.65000004
vt 0.25 0.65000004
vt 0.25 0.65000004
vt 0.25 0.65000004
vt 0.25 0.65000004
vt 0.25 0.65000004
vt 0.25 0.65000004
vt 0.25 0.65000004
vt 0.25 0.65000004
vt 0.25 0.65000004
vt 0.25 0.65000004
vt 0.25 0.65000004
vt 0.25 0.65000004
vt 0.25 0.65000004
vt 0.25 0.65000004
vt 0.25 0.65000004
vt 0.25 0.65000004
vt 0.25 0.65000004
vt 0.25 0.65000004
vt 0.25 0.65000004
vt 0.25 0.65000004
vt 0.25 0.65000004
vt 0.25 0.65000004
vt 0.25 0.65000004
vt 0.25 0.65000004
vt 0.25 0.65000004
vt 0.25 0.65000004
vt 0.25 0.65000004
vt 0.25 0.65000004
vt 0.25 0.65000004
vt 0.25 0.65000004
vt 0.25 0.65000004
vt 0.25 0.65000004
vt 0.25 0.65000004
vt 0.25 0.65000004
vt 0.25 0.65000004
vt 0.25 0.65000004
vt 0.25 0.65000004
vt 0.25 0.65000004
vt 0.25 0.65000004
vt 0.25 0.65000004
vt 0.25 0.65000004
vt 0.25 0.65000004
vt 0.25 0.65000004
vt 0.25 0.65000004
vt 0.25 0.65000004
vt 0.25 0.65000004
vt 0.25 0.65000004
vt 0.25 0.65000004
vt 0.25 0.65000004
vt 0.25 0.65000004
vt 0.25 0.65000004
vt 0.25 0.65000004
vt 0.25 0.34999996
vt 0.25 0.34999996
vt 0.25 0.34999996
vt 0.25 0.34999996
vt 0.25 0.34999996
vt 0.25 0.34999996
vt 0.25 0.34999996
vt 0.25 0.34999996
vt 0.25 0.34999996
vt 0.25 0.34999996
vt 0.25 0.34999996
vt 0.25 0.34999996
vt 0.25 0.34999996
vt 0.25 0.34999996
vt 0.25 0.34999996
vt 0.25 0.34999996
vt 0.25 0.34999996
vt 0.25 0.34999996
vt 0.25 0.34999996
vt 0.25 0.34999996
vt 0.25 0.34999996
vt 0.25 0.34999996
vt 0.25 0.34999996
vt 0.25 0.34999996
vt 0.25 0.34999996
vt 0.25 0.34999996
vn -0 0.9911505 0.13274275
vn -0 0.99160564 0.12929894
vn -0.999992 -0.0039437115 -0.00073967077
vn -0.9981787 0.05979244 0.008012387
vn 0.9981787 0.059792325 0.008012372
vn -0 -0.9916654 -0.12883952
vn -0 -0.99115175 -0.13273337
vn 0.999992 -0.0039434917 -0.00073963415
vn -0.9999397 -0.010854455 -0.0016890684
vn -0 -0.99294114 -0.118608415
vn 0.9999397 -0.010854312 -0.0016890356
vn -0 0.99284816 0.11938419
vn -0 -0.9943281 -0.10635618
vn 0.99997866 -0.0064772973 -0.0009309505
vn -0.99997866 -0.0064769275 -0.0009309192
vn -0 0.9942768 0.106834464
vn -0 -0.9955563 -0.09416806
vn 0.99997365 -0.0071855662 -0.0010255071
vn -0.99997365 -0.0071851793 -0.0010254761
vn -0 0.9954911 0.094856136
vn -0 -0.997051 -0.07674175
vn 0.9999734 -0.0072401674 -0.00093325414
vn -0.9999734 -0.0072400314 -0.000933254
vn -0 0.9969932 0.07748916
vn -0 -0.9982267 -0.05952607
vn 0.9999893 -0.0046101077 -0.0004898666
vn -0.9999893 -0.0046095825 -0.00048985385
vn -0 0.998201 0.059956517
vn -0 -0.9989544 -0.04571611
vn 0.9999924 -0.0039135665 -0.00034220057
vn -0.9999924 -0.0039129774 -0.00034217813
vn -0 0.99893945 0.046043243
vn -0 -0.99956137 -0.029614046
vn 0.99998796 -0.004902036 -0.00030840831
vn -0.99998796 -0.0049017784 -0.00030841044
vn -0 0.9995517 0.0299402
vn -0 -0.9998925 -0.014667455
vn 0.99999666 -0.002590401 -9.408305E-05
vn -0.99999666 -0.0025898376 -9.4044575E-05
vn -0 0.9998908 0.014779705
vn -0 -0.99996126 0.008807274
vn 0.9999641 -0.008478301 8.009668E-05
vn -0.9999641 -0.008477969 8.0131875E-05
vn -0 0.99996114 -0.008817864
vn -0 -0.9994068 0.03443644
vn 0.9999964 -0.0026910685 0.00016440288
vn -0.9999964 -0.002690768 0.000164361
vn -0 0.99940205 -0.03457823
vn -0 -0.99860114 0.052874375
vn 0.9999851 -0.005432929 0.0005429973
vn -0.9999851 -0.0054327417 0.00054295926
vn -0 0.9985744 -0.053378403
vn -0 -0.99714416 0.07552078
vn 0.99998987 -0.0044722464 0.0006477978
vn -0.99998987 -0.004471961 0.0006477859
vn -0 0.9970982 -0.07612594
vn -0 -0.99523383 0.09751678
vn 0.9999839 -0.0055699763 0.0010500548
vn -0.999984 -0.0055697407 0.001050061
vn -0 0.9951374 -0.09849634
vn -0 -0.991456 0.13044184
vn 0.9999492 -0.009761536 0.0025312798
vn -0.9999492 -0.009761889 0.0025313392
vn -0 0.9911385 -0.13283244
vn -0 -0.98492056 0.17300679
vn 0.99993765 -0.010579236 0.0035703464
vn -0.99993765 -0.010579513 0.003570416
vn -0 0.98435205 -0.17621288
vn -0 -0.97736746 0.21154886
vn 0.999941 -0.010127575 0.0039349645
vn -0.999941 -0.010127486 0.0039349534
vn -0 0.97667533 -0.21472162
vn -0 -0.9645738 0.26381332
vn 0.9997451 -0.019988049 0.010504596
vn -0.9997451 -0.019987734 0.010504534
vn -0 0.9621338 -0.2725777
vn -0 -0.9477503 0.31901303
vn 0.9999863 -0.0038493637 0.003569155
vn -0.9999863 -0.003849211 0.0035691385
vn -0 0.94505143 -0.32692185
vn -0 -0.9397529 0.34185463
vn -0.9979346 0.05936189 -0.024550118
vn 0.9979346 0.059361786 -0.024550125
vn -0 0.93801415 -0.3465969
vn -0 0.57503796 -0.8181268
vn -0 0.9391849 -0.34341186
vn -0.9980761 -0.045203235 -0.042436954
vn -0.8135904 -0.16830449 -0.5565466
vn 0.81359106 -0.16830474 -0.5565457
vn -0 -0.9698486 0.24370839
vn -0 -0.96467996 -0.263425
vn 0.9980761 -0.045202993 -0.042437367
vn -0.99237305 0.06519195 0.10462192
vn -0 -0.9201089 0.39166263
vn 0.99237305 0.065192245 0.10462132
vn -0 0.9867085 -0.16250037
vn -0 0.19054934 0.9816776
vn -0.9492589 -0.036540803 0.31236547
vn -0.9990902 -0.025576584 0.034125756
vn -0 0.9939908 0.10946378
vn -0 0.91747564 0.39779222
vn -0 -0.9740649 0.22626881
vn 0.9990902 -0.025578374 0.034125615
vn 0.94926023 -0.03654589 0.31236094
vn -0 -0.9992623 -0.03840428
vn -0 0.999977 -0.006784241
vn 0.9968477 0.031965062 -0.072614215
vn -0.9968477 0.031966295 -0.07261451
vn -0 -0.9897915 -0.14252265
vn -0 0 -1
g valley_cord_x20_0
f 3/3/3 2/2/2 1/1/1
f 4/4/4 3/3/3 1/1/1
f 1/1/1 2/2/2 5/5/5
f 6/6/6 3/3/3 4/4/4
f 7/7/7 6/6/6 4/4/4
f 5/5/5 8/8/8 7/7/7
f 2/2/2 8/8/8 5/5/5
f 8/8/8 6/6/6 7/7/7
f 3/3/3 9/9/9 2/2/2
f 6/6/6 10/10/10 3/3/3
f 10/10/10 9/9/9 3/3/3
f 8/8/8 11/11/11 6/6/6
f 11/11/11 10/10/10 6/6/6
f 2/2/2 12/12/12 8/8/8
f 9/9/9 12/12/12 2/2/2
f 12/12/12 11/11/11 8/8/8
f 10/10/10 13/13/13 9/9/9
f 11/11/11 14/14/14 10/10/10
f 14/14/14 13/13/13 10/10/10
f 9/9/9 15/15/15 12/12/12
f 13/13/13 15/15/15 9/9/9
f 12/12/12 16/16/16 11/11/11
f 16/16/16 14/14/14 11/11/11
f 15/15/15 16/16/16 12/12/12
f 13/13/13 17/17/17 15/15/15
f 14/14/14 18/18/18 13/13/13
f 18/18/18 17/17/17 13/13/13
f 15/15/15 19/19/19 16/16/16
f 17/17/17 19/19/19 15/15/15
f 16/16/16 20/20/20 14/14/14
f 20/20/20 18/18/18 14/14/14
f 19/19/19 20/20/20 16/16/16
f 17/17/17 21/21/21 19/19/19
f 18/18/18 22/22/22 17/17/17
f 22/22/22 21/21/21 17/17/17
f 19/19/19 23/23/23 20/20/20
f 21/21/21 23/23/23 19/19/19
f 20/20/20 24/24/24 18/18/18
f 24/24/24 22/22/22 18/18/18
f 23/23/23 24/24/24 20/20/20
f 21/21/21 25/25/25 23/23/23
f 22/22/22 26/26/26 21/21/21
f 26/26/26 25/25/25 21/21/21
f 23/23/23 27/27/27 24/24/24
f 25/25/25 27/27/27 23/23/23
f 24/24/24 28/28/28 22/22/22
f 28/28/28 26/26/26 22/22/22
f 27/27/27 28/28/28 24/24/24
f 25/25/25 29/29/29 27/27/27
f 26/26/26 30/30/30 25/25/25
f 30/30/30 29/29/29 25/25/25
f 27/27/27 31/31/31 28/28/28
f 29/29/29 31/31/31 27/27/27
f 28/28/28 32/32/32 26/26/26
f 32/32/32 30/30/30 26/26/26
f 31/31/31 32/32/32 28/28/28
f 29/29/29 33/33/33 31/31/31
f 30/30/30 34/34/34 29/29/29
f 34/34/34 33/33/33 29/29/29
f 31/31/31 35/35/35 32/32/32
f 33/33/33 35/35/35 31/31/31
f 32/32/32 36/36/36 30/30/30
f 36/36/36 34/34/34 30/30/30
f 35/35/35 36/36/36 32/32/32
f 33/33/33 37/37/37 35/35/35
f 34/34/34 38/38/38 33/33/33
f 38/38/38 37/37/37 33/33/33
f 35/35/35 39/39/39 36/36/36
f 37/37/37 39/39/39 35/35/35
f 36/36/36 40/40/40 34/34/34
f 40/40/40 38/38/38 34/34/34
f 39/39/39 40/40/40 36/36/36
f 37/37/37 41/41/41 39/39/39
f 38/38/38 42/42/42 37/37/37
f 42/42/42 41/41/41 37/37/37
f 39/39/39 43/43/43 40/40/40
f 41/41/41 43/43/43 39/39/39
f 40/40/40 44/44/44 38/38/38
f 44/44/44 42/42/42 38/38/38
f 43/43/43 44/44/44 40/40/40
f 41/41/41 45/45/45 43/43/43
f 42/42/42 46/46/46 41/41/41
f 46/46/46 45/45/45 41/41/41
f 43/43/43 47/47/47 44/44/44
f 45/45/45 47/47/47 43/43/43
f 44/44/44 48/48/48 42/42/42
f 48/48/48 46/46/46 42/42/42
f 47/47/47 48/48/48 44/44/44
f 45/45/45 49/49/49 47/47/47
f 46/46/46 50/50/50 45/45/45
f 50/50/50 49/49/49 45/45/45
f 47/47/47 51/51/51 48/48/48
f 49/49/49 51/51/51 47/47/47
f 48/48/48 52/52/52 46/46/46
f 52/52/52 50/50/50 46/46/46
f 51/51/51 52/52/52 48/48/48
f 49/49/49 53/53/53 51/51/51
f 50/50/50 54/54/54 49/49/49
f 54/54/54 53/53/53 49/49/49
f 51/51/51 55/55/55 52/52/52
f 53/53/53 55/55/55 51/51/51
f 52/52/52 56/56/56 50/50/50
f 56/56/56 54/54/54 50/50/50
f 55/55/55 56/56/56 52/52/52
f 53/53/53 57/57/57 55/55/55
f 54/54/54 58/58/58 53/53/53
f 58/58/58 57/57/57 53/53/53
f 55/55/55 59/59/59 56/56/56
f 57/57/57 59/59/59 55/55/55
f 56/56/56 60/60/60 54/54/54
f 60/60/60 58/58/58 54/54/54
f 59/59/59 60/60/60 56/56/56
f 57/57/57 61/61/61 59/59/59
f 58/58/58 62/62/62 57/57/57
f 62/62/62 61/61/61 57/57/57
f 59/59/59 63/63/63 60/60/60
f 61/61/61 63/63/63 59/59/59
f 60/60/60 64/64/64 58/58/58
f 64/64/64 62/62/62 58/58/58
f 63/63/63 64/64/64 60/60/60
f 61/61/61 65/65/65 63/63/63
f 62/62/62 66/66/66 61/61/61
f 66/66/66 65/65/65 61/61/61
f 63/63/63 67/67/67 64/64/64
f 65/65/65 67/67/67 63/63/63
f 64/64/64 68/68/68 62/62/62
f 68/68/68 66/66/66 62/62/62
f 67/67/67 68/68/68 64/64/64
f 65/65/65 69/69/69 67/67/67
f 66/66/66 70/70/70 65/65/65
f 70/70/70 69/69/69 65/65/65
f 67/67/67 71/71/71 68/68/68
f 69/69/69 71/71/71 67/67/67
f 68/68/68 72/72/72 66/66/66
f 72/72/72 70/70/70 66/66/66
f 71/71/71 72/72/72 68/68/68
f 69/69/69 73/73/73 71/71/71
f 70/70/70 74/74/74 69/69/69
f 74/74/74 73/73/73 69/69/69
f 71/71/71 75/75/75 72/72/72
f 73/73/73 75/75/75 71/71/71
f 72/72/72 76/76/76 70/70/70
f 76/76/76 74/74/74 70/70/70
f 75/75/75 76/76/76 72/72/72
f 73/73/73 77/77/77 75/75/75
f 74/74/74 78/78/78 73/73/73
f 78/78/78 77/77/77 73/73/73
f 75/75/75 79/79/79 76/76/76
f 77/77/77 79/79/79 75/75/75
f 76/76/76 80/80/80 74/74/74
f 80/80/80 78/78/78 74/74/74
f 79/79/79 80/80/80 76/76/76
f 77/77/77 81/81/81 79/79/79
f 81/81/81 82/82/82 79/79/79
f 79/79/79 82/82/82 80/80/80
f 83/83/83 81/81/81 77/77/77
f 78/78/78 83/83/83 77/77/77
f 82/82/82 84/84/84 80/80/80
f 84/84/84 83/83/83 78/78/78
f 80/80/80 84/84/84 78/78/78
f 87/87/87 86/86/86 85/85/85
f 88/88/88 87/87/87 85/85/85
f 85/85/85 86/86/86 89/89/89
f 90/90/90 87/87/87 88/88/88
f 91/91/91 90/90/90 88/88/88
f 89/89/89 92/92/92 91/91/91
f 86/86/86 92/92/92 89/89/89
f 92/92/92 90/90/90 91/91/91
f 87/87/87 93/93/93 86/86/86
f 90/90/90 94/94/94 87/87/87
f 94/94/94 93/93/93 87/87/87
f 92/92/92 95/95/95 90/90/90
f 95/95/95 94/94/94 90/90/90
f 86/86/86 96/96/96 92/92/92
f 93/93/93 96/96/96 86/86/86
f 96/96/96 95/95/95 92/92/92
f 94/94/94 97/97/97 93/93/93
f 95/95/95 97/97/97 94/94/94
f 93/93/93 97/97/97 96/96/96
f 96/96/96 97/97/97 95/95/95
f 100/100/100 99/99/99 98/98/98
f 101/101/101 100/100/100 98/98/98
f 98/98/98 99/99/99 102/102/102
f 103/103/103 100/100/100 101/101/101
f 104/104/104 103/103/103 101/101/101
f 102/102/102 105/105/105 104/104/104
f 99/99/99 105/105/105 102/102/102
f 105/105/105 103/103/103 104/104/104
f 99/99/99 100/100/100 106/106/106
f 100/100/100 103/103/103 107/107/107
f 106/106/106 100/100/100 107/107/107
f 105/105/105 99/99/99 108/108/108
f 108/108/108 99/99/99 106/106/106
f 103/103/103 105/105/105 109/109/109
f 107/107/107 103/103/103 109/109/109
f 109/109/109 105/105/105 108/108/108
f 106/106/106 110/110/110 108/108/108
f 107/107/107 110/110/110 106/106/106
f 108/108/108 110/110/110 109/109/109
f 109/109/109 110/110/110 107/107/107
