g valley_tree07_LOD1
v 0.191959 4.5047016 0.24828802
v 0.191959 5.001278 0.12035251
v 1.1819872 4.7450852 -0.13243009
v 0.191959 4.5047016 -0.24828802
v 0.191959 4.5047016 0.24828802
v 1.1819872 4.7450852 -0.13243009
v 0.20556569 6.5806837 0.35605013
v -0.048229814 6.924943 0.0015577481
v 0.41113138 6.5845375 -1.6992958E-08
v -0.2041404 6.6284876 0.078753844
v -0.008261994 6.6284876 0.21864863
v -0.6927103 6.31068 0.7737247
v 0.09584807 6.0757585 0.29300314
v -0.008261994 6.6284876 0.21864863
v -0.30825046 6.0757585 0.0043993522
v -0.6927103 6.31068 0.7737247
v 0.09584807 6.0757585 0.29300314
v -0.30825046 6.0757585 0.0043993522
v 0.191959 5.001278 0.12035251
v 0.191959 5.001278 -0.12035251
v 1.1819872 4.7450852 -0.13243009
v 0.191959 4.5047016 -0.24828802
v 0.191959 4.5047016 -0.24828802
v 0.191959 5.001278 -0.12035251
v 0.191959 5.001278 0.12035251
v 0.191959 4.5047016 0.24828802
v 0.5002502 0 -0.8664583
v 0.34531325 1.6453631 -0.59809977
v -0.345313 1.6453631 -0.5980999
v -0.50024986 0 -0.8664585
v -0.69062626 1.6453631 -1.1214628E-07
v -1.0005 0 -1.4908612E-07
v -0.34531322 1.6453631 0.5980998
v -0.5002501 0 0.8664584
v -0.2055657 7.144841 0.35605013
v -0.41113138 7.144841 -7.8256306E-08
v -0.18706633 6.891905 -0.35605016
v -0.048229814 6.924943 0.0015577481
v 0.20556578 6.5806837 -0.35605004
v -0.5002501 0 0.8664584
v 0.34531307 1.6453631 0.5980999
v 0.50025 0 0.8664585
v -0.34531322 1.6453631 0.5980998
v 0.20556569 6.5806837 0.35605013
v -0.2055657 7.144841 0.35605013
v -0.048229814 6.924943 0.0015577481
v -0.41113138 7.144841 -7.8256306E-08
v 0.41113138 6.5845375 -1.6992958E-08
v 0.69062626 1.6453631 -9.234958E-09
v 0.20556578 6.5806837 -0.35605004
v 0.34531325 1.6453631 -0.59809977
v -0.048229814 6.924943 0.0015577481
v 0.50025 0 0.8664585
v 0.34531307 1.6453631 0.5980999
v 0.69062626 1.6453631 -9.234958E-09
v 1.0005 0 0
v 1.0005 0 0
v 0.34531325 1.6453631 -0.59809977
v 0.5002502 0 -0.8664583
v 0.34531325 1.6453631 -0.59809977
v 0.20556578 6.5806837 -0.35605004
v -0.18706633 6.891905 -0.35605016
v -0.345313 1.6453631 -0.5980999
v -0.50024986 0 -0.8664585
v -0 -0.86284935 0
v 0.5002502 0 -0.8664583
v 1.0005 0 0
v 0.50025 0 0.8664585
v -1.0005 0 -1.4908612E-07
v -0 -0.86284935 0
v -0.50024986 0 -0.8664585
v -0.5002501 0 0.8664584
v 0.50025 0 0.8664585
vt 0.65625 0.15625
vt 0.5 0.8375
vt 0.5223214 0.5230512
vt 0.5 0.25
vt 0.625 0.25
vt 0.5223214 0.5230512
vt 0.375 0.75
vt 0.49107143 0.30357143
vt 0.625 0.75
vt 0.375 0.25
vt 0.375 0.5
vt 0.5327381 0.48214284
vt 0.125 0
vt 0.125 0.25
vt 0.375 0
vt 0.5327381 0.48214284
vt 0.375 0.75
vt 0.375 1
vt 0.5 0.8375
vt 0.65625 0.84375
vt 0.5223214 0.5230512
vt 0.5 0.25
vt 0.5 0.75
vt 0.375 0.75
vt 0.5 0.8375
vt 0.65625 0.15625
vt 0.625 0.75
vt 0.625 1
vt 0.375 1
vt 0.5 1
vt 0.875 0.25
vt 0.875 0
vt 0.125 0.25
vt 0.125 0
vt 0.5 0.75
vt 0.625 0.5
vt 0.5 0.5
vt 0.49107143 0.30357143
vt 0.375 0.5
vt 0.125 0
vt 0.5 0
vt 0.375 0
vt 0.125 0.25
vt 0.375 0.75
vt 0.5 0.75
vt 0.49107143 0.30357143
vt 0.625 0.5
vt 0.625 0.75
vt 0.375 0.25
vt 0.5 1
vt 0.625 0.25
vt 0.49107143 0.30357143
vt 0.375 0
vt 0.5 0
vt 0.375 0.25
vt 0.5 0.25
vt 0.5 0.25
vt 0.625 0.25
vt 0.625 0
vt 0.625 1
vt 0.375 0.5
vt 0.5 0.5
vt 0.375 1
vt 0.625 0.5
vt 0.375 0.75
vt 0.5 0.75
vt 0.625 1
vt 0.375 1
vt 0.625 0.75
vt 0.375 0.75
vt 0.625 0.5
vt 0.5 1
vt 0.375 1
vn 0.48595864 0.070611715 0.8711246
vn 0.87100506 0.073927246 0.4856798
vn 0.8604361 0.49825567 0.106728904
vn 0.43843004 0.08645606 -0.89459735
vn 0.48595864 0.070611715 0.8711246
vn 0.8604361 0.49825567 0.106728904
vn 0.67964035 0.22809218 0.69718224
vn 0.45874068 0.8885403 -0.007289408
vn 0.94777256 0.311727 0.06747844
vn -0.95023274 0.22618015 0.21424344
vn 0.49977085 0.37030625 0.7830085
vn -0.77781206 -0.08647198 0.62251985
vn 0.55022705 0.15491979 0.82051814
vn 0.49977085 0.37030625 0.7830085
vn -0.99860007 0.052846547 -0.0022622137
vn -0.77781206 -0.08647198 0.62251985
vn 0.55022705 0.15491979 0.82051814
vn -0.99860007 0.052846547 -0.0022622137
vn 0.87100506 0.073927246 0.4856798
vn 0.7205233 0.09769786 -0.6865139
vn 0.8604361 0.49825567 0.106728904
vn 0.43843004 0.08645606 -0.89459735
vn 0.43843004 0.08645606 -0.89459735
vn 0.7205233 0.09769786 -0.6865139
vn 0.87100506 0.073927246 0.4856798
vn 0.48595864 0.070611715 0.8711246
vn 0.5010839 -0.28735244 -0.8162987
vn 0.52530426 0.04837563 -0.8495382
vn -0.56956863 0.071886696 -0.8187942
vn -0.5103885 -0.24143282 -0.8253567
vn -0.99560505 0.08244571 -0.044421036
vn -0.98176277 -0.18781124 0.029476063
vn -0.44870424 0.075877756 0.8904533
vn -0.37450647 -0.36349228 0.8530054
vn -0.114493795 0.8111608 0.5735062
vn -0.7784143 0.6155086 -0.12337097
vn -0.32050285 0.39124298 -0.86267424
vn 0.45874068 0.8885403 -0.007289408
vn 0.5305918 0.24870665 -0.81031924
vn -0.37450647 -0.36349228 0.8530054
vn 0.5487043 0.0691191 0.83315426
vn 0.439498 -0.25990734 0.8598196
vn -0.44870424 0.075877756 0.8904533
vn 0.67964035 0.22809218 0.69718224
vn -0.114493795 0.8111608 0.5735062
vn 0.45874068 0.8885403 -0.007289408
vn -0.7784143 0.6155086 -0.12337097
vn 0.94777256 0.311727 0.06747844
vn 0.99676704 0.07997402 -0.0077293036
vn 0.5305918 0.24870665 -0.81031924
vn 0.52530426 0.04837563 -0.8495382
vn 0.45874068 0.8885403 -0.007289408
vn 0.439498 -0.25990734 0.8598196
vn 0.5487043 0.0691191 0.83315426
vn 0.99676704 0.07997402 -0.0077293036
vn 0.9570884 -0.27466318 -0.092422396
vn 0.9570884 -0.27466318 -0.092422396
vn 0.52530426 0.04837563 -0.8495382
vn 0.5010839 -0.28735244 -0.8162987
vn 0.52530426 0.04837563 -0.8495382
vn 0.5305918 0.24870665 -0.81031924
vn -0.32050285 0.39124298 -0.86267424
vn -0.56956863 0.071886696 -0.8187942
vn -0.5103885 -0.24143282 -0.8253567
vn -0.088147916 -0.9954333 0.036641434
vn 0.5010839 -0.28735244 -0.8162987
vn 0.9570884 -0.27466318 -0.092422396
vn 0.439498 -0.25990734 0.8598196
vn -0.98176277 -0.18781124 0.029476063
vn -0.088147916 -0.9954333 0.036641434
vn -0.5103885 -0.24143282 -0.8253567
vn -0.37450647 -0.36349228 0.8530054
vn 0.439498 -0.25990734 0.8598196
g valley_tree07_LOD1_0
f 3/3/3 2/2/2 1/1/1
f 6/6/6 5/5/5 4/4/4
f 9/9/9 8/8/8 7/7/7
f 12/12/12 11/11/11 10/10/10
f 10/10/10 14/14/14 13/13/13
f 15/15/15 10/10/10 13/13/13
f 16/16/16 10/10/10 15/15/15
f 16/16/16 17/17/17 11/11/11
f 16/16/16 18/18/18 17/17/17
f 21/21/21 20/20/20 19/19/19
f 21/21/21 22/22/22 20/20/20
f 25/25/25 24/24/24 23/23/23
f 26/26/26 25/25/25 23/23/23
f 29/29/29 28/28/28 27/27/27
f 30/30/30 29/29/29 27/27/27
f 31/31/31 29/29/29 30/30/30
f 32/32/32 31/31/31 30/30/30
f 33/33/33 31/31/31 32/32/32
f 34/34/34 33/33/33 32/32/32
f 33/33/33 35/35/35 31/31/31
f 35/35/35 36/36/36 31/31/31
f 31/31/31 36/36/36 29/29/29
f 36/36/36 37/37/37 29/29/29
f 36/36/36 38/38/38 37/37/37
f 37/37/37 38/38/38 39/39/39
f 42/42/42 41/41/41 40/40/40
f 41/41/41 43/43/43 40/40/40
f 41/41/41 44/44/44 43/43/43
f 44/44/44 45/45/45 43/43/43
f 44/44/44 46/46/46 45/45/45
f 45/45/45 46/46/46 47/47/47
f 48/48/48 44/44/44 41/41/41
f 49/49/49 48/48/48 41/41/41
f 50/50/50 48/48/48 49/49/49
f 51/51/51 50/50/50 49/49/49
f 50/50/50 52/52/52 48/48/48
f 55/55/55 54/54/54 53/53/53
f 56/56/56 55/55/55 53/53/53
f 58/58/58 55/55/55 57/57/57
f 59/59/59 58/58/58 57/57/57
f 62/62/62 61/61/61 60/60/60
f 63/63/63 62/62/62 60/60/60
f 66/66/66 65/65/65 64/64/64
f 67/67/67 65/65/65 66/66/66
f 68/68/68 65/65/65 67/67/67
f 71/71/71 70/70/70 69/69/69
f 69/69/69 70/70/70 72/72/72
f 72/72/72 70/70/70 73/73/73
