g valley_ramp03
v -4.481949 -2.0861626E-07 -2.2122266
v -3.86106 7.1525574E-07 -1.835375
v -3.7462604 0.6069877 -1.0209595
v -5.153493 4.8801303E-07 -1.7488744
v -2.6887155 0.27637672 -1.8884892
v -3.4079165 -5.3085387E-07 -2.3654737
v -2.8839111 -6.270129E-07 -2.2404046
v -1.6479373 -5.932525E-07 -2.2083426
v -2.2807388 0.59613127 -1.1190491
v -1.4314529 0.25237918 -1.497732
v -1.3148222 0.73220855 -0.8193531
v -0.4025944 -6.2352046E-07 -2.0718462
v -0.42627183 -3.3155084E-07 -1.526948
v -0.05954857 0.61494 -1.0741875
v 0.32329407 -3.091991E-07 -1.2614537
v 0.49819207 1.1175871E-07 -1.2703142
v 1.129278 4.0233135E-07 -1.4881146
v 1.2988374 0.20730521 -1.4621794
v 1.4483846 3.799796E-07 -1.603625
v -3.163967 0.72006536 -0.5949691
v -2.4799156 0.86020374 -0.6198729
v -2.8983765 1.3919309 -0.16062473
v -4.0134716 1.4251766 -0.12893486
v -0.42048016 1.4182252 -0.41273573
v -2.7573795 1.4405123 -0.13607033
v 0.63467395 1.2011762 -0.41964534
v -0.097515106 1.7921411 0.0006637573
v 1.8035688 1.8892624 -0.07763243
v 1.5917277 1.3273182 -0.53975964
v -2.9862518 1.4638126 -0.053936634
v -0.88249624 1.6348376 0.041788463
v -3.19121 1.4913244 0.15494913
v -3.7512321 1.4927379 -0.014085567
v 1.6497883 1.2554076 -0.6201394
v 1.7134335 1.3503544 -0.52947366
v 1.9445801 0.7864582 -1.1593065
v 2.0535097 0.86022747 -1.0771255
v 2.1639225 0.7810468 -1.2098852
v 3.6145065 0.6327209 -1.31874
v 2.603202 1.1069028 -0.38592267
v 3.0612142 0.26859817 -1.9280001
v 2.312394 -5.559996E-07 -2.1615388
v 4.062832 -5.578622E-07 -2.5396268
v 3.9689755 0.3444055 -1.8397771
v 4.6504307 -5.494803E-07 -2.5020099
v 5.215461 -5.159527E-07 -2.021939
v 5.3373466 0.35567868 -0.90702844
v 5.7368517 -5.19678E-07 -1.4880478
v 5.975254 -4.786998E-07 -0.9523784
v 6.1502323 -4.6752393E-07 -0.31445834
v 5.249512 0.5464109 0.22921586
v 6.3393064 -5.6345016E-07 0.5349468
v 6.295143 -5.764887E-07 0.63109624
v 4.5331903 0.90521586 0.022204451
v 5.206126 0.5236774 0.41734913
v 5.645763 -3.1292439E-07 1.0191101
v 4.9513407 1.3411045E-07 1.3264567
v 3.5244796 0.97445303 -0.5835082
v 3.95424 1.3133575 0.073477216
v 3.948646 1.3135484 0.2060638
v 2.6715775 1.5206344 -0.07708359
v 4.386571 0.52704 1.1237466
v 2.7168121 1.5315489 0.019893646
v 4.4742136 0.21793512 1.7484373
v 4.784624 -5.364418E-07 2.3774521
v 4.6733465 -5.355105E-07 2.426055
v 4.2948585 0.25299737 1.7841258
v 4.1313386 -3.3155084E-07 2.1469684
v 3.5373168 0.6531973 1.0984625
v 3.509146 -3.9674342E-07 2.2364125
v 3.0047095 -5.848706E-07 2.478827
v 4.167312 0.638157 1.0855483
v 2.8954997 1.2162722 0.31030092
v 1.8123121 1.9184496 -0.008703232
v 2.3132856 0.14867249 2.0348415
v 2.0571833 -2.6077032E-07 2.2443836
v 2.5481374 0.7583618 0.81177306
v 1.8470943 1.0853326 0.6902251
v 0.30956894 1.3335891 0.6393928
v 1.5855333 0.6560033 1.3457448
v 1.8648101 -3.7625432E-07 2.2264428
v 1.0018616 1.9866714 0.03269577
v 1.0055504 1.9868666 0.1271553
v 1.4044586 0.5778355 1.4444301
v 1.0356576 7.4505806E-08 1.807526
v -0.15818824 5.2154064E-07 1.6682851
v -0.07247925 1.8029641 0.093429565
v -1.2867352 1.5174979 0.27376664
v -0.8410771 1.6493654 0.12182078
v 1.2884023 0.711713 1.3025452
v 0.034697615 0.80748415 0.97793436
v -1.010429 0.67293376 0.79841816
v -1.8389578 0.43452555 1.3658155
v -1.6147537 -6.163027E-07 2.19738
v -2.889576 -6.2584877E-07 2.2825432
v -2.4461665 1.0694418 0.6923951
v -1.3039935 1.5796703 0.15777242
v -3.2417746 1.4470663 0.25150582
v -3.452872 0.6193157 1.2498292
v -3.5022044 1.0366678 0.62537026
v -4.078617 1.4112792 0.024263252
v -4.7388344 0.40893793 0.67200553
v -3.7405472 0.31532693 1.9903717
v -3.6615257 0.29199764 2.0546227
v -3.6395645 -6.2584877E-07 2.4321938
v -4.447214 -6.0815364E-07 2.2452202
v -4.7298546 -6.2584877E-07 1.7555733
v -5.2070217 -6.109476E-07 1.5389938
v -6.2201023 -6.109476E-07 1.5560226
v -4.2519836 1.3665675 -0.11994395
v -5.9635215 0.3023092 0.7651726
v -6.8540688 -6.109476E-07 1.0222778
v -6.507218 0.23341127 0.40487134
v -7.2083035 -6.109476E-07 0.62057114
v -6.777616 -6.2119216E-07 0.03512146
v -6.3013353 0.3245544 -0.4546166
v -6.857031 -6.095506E-07 -0.72728574
v -6.8059564 -6.1420724E-07 -0.8084795
v -6.1520233 -4.1117892E-07 -1.0976355
v -5.67688 0.7085706 -0.029446006
v -4.8865514 0.90227836 0.059250697
v -4.9258533 0.97169656 -0.1776379
v -5.469778 0.66204166 -0.70235056
v -5.792631 -5.2154064E-07 -1.6077249
v -5.274538 0.78767735 -0.5731312
v -5.308197 0.687523 -0.7965714
v -5.163326 0.7528942 -0.7060026
v -4.5450163 1.0968208 -0.3838785
v -4.383076 1.0327972 -0.51503986
vn -0 1 0
vn -0 1 0
vn -0.021434706 0.8436004 -0.5365435
vn -0 1 0
vn -0.02345652 0.8856466 -0.46376702
vn -0 1 0
vn -0 1 0
vn -0 1 0
vn 0.03268558 0.9014518 -0.4316437
vn 0.13702145 0.8815092 -0.45184815
vn -0.04397396 0.6618824 -0.7483167
vn -0 1 0
vn -0 1 0
vn 0.004732705 0.6395158 -0.76876336
vn -0 1 0
vn -0 1 0
vn -0 1 0
vn -0.17291568 0.61426115 -0.76992434
vn -0 1 0
vn 0.043362208 0.799064 -0.59968036
vn -0.089659356 0.70597607 -0.70253754
vn -0.05285468 0.60931385 -0.7911657
vn 0.0116669955 0.75268626 -0.658276
vn -0.029583788 0.6834789 -0.7293706
vn -0.07380254 0.78253144 -0.6182214
vn -0.038130715 0.64080125 -0.76675934
vn -0.049715523 0.7548292 -0.65403455
vn 0.06534325 0.6735866 -0.7362143
vn -0.17386326 0.6574271 -0.7331857
vn -0.046043772 0.94460434 -0.32496536
vn -0.07461208 0.9088321 -0.4104355
vn -0.053490683 0.9899609 0.13082857
vn -0.06857238 0.9891936 -0.1295914
vn -0.17362367 0.6631035 -0.728113
vn 0.07725913 0.69565004 -0.71421427
vn -0.22025394 0.61693126 -0.75556874
vn 0.10338931 0.88352054 -0.45683923
vn -0.089054205 0.7679952 -0.6342339
vn 0.14585286 0.90300804 -0.40410817
vn 0.14405544 0.81542784 -0.5606473
vn -0.091972515 0.80381554 -0.5877257
vn -0 1 0
vn -0 1 0
vn 0.08820463 0.9088437 -0.4077046
vn -0 1 0
vn -0 1 0
vn 0.31236473 0.91187054 -0.26630887
vn -0 1 0
vn -0 1 0
vn -0 1 0
vn 0.46936053 0.8823556 -0.03390294
vn -0 1 0
vn -0 1 0
vn 0.33283386 0.87921566 -0.34088343
vn 0.4013899 0.82026047 0.40750325
vn -0 1 0
vn -0 1 0
vn 0.15328117 0.88490593 -0.4398254
vn 0.34172103 0.8638807 -0.37004983
vn 0.25178593 0.8628674 0.43825063
vn 0.23671632 0.6829055 -0.69109005
vn 0.41576222 0.7789347 0.46947035
vn 0.22701386 0.89644617 0.38059032
vn 0.4241382 0.8757861 0.2304462
vn -0 1 0
vn -0 1 0
vn 0.0440296 0.8787937 0.47516623
vn -0 1 0
vn -0.0206746 0.85694665 0.51499027
vn -0 1 0
vn -0 1 0
vn 0.27632028 0.8173392 0.5055727
vn 0.05505872 0.728585 0.68273896
vn 0.15713234 0.7147372 0.6815131
vn -0.0662675 0.9012748 0.42814985
vn -0 1 0
vn 0.040564377 0.8336837 0.55075043
vn 0.13960503 0.70829046 0.69197917
vn -0.059319086 0.65451604 0.7537174
vn 0.1360939 0.81532735 0.5627786
vn -0 1 0
vn -0.07378106 0.7722988 -0.6309603
vn 0.06514448 0.69617164 0.71491355
vn -0.14622323 0.6775518 0.7207929
vn -0 1 0
vn -0 1 0
vn -0.11572221 0.8008891 0.5875246
vn -0.03248712 0.618672 0.7849774
vn -0.17984022 0.97370625 0.13983387
vn -0.030428527 0.7329855 0.67956334
vn -0.17321421 0.6399915 0.7486038
vn 0.0008282605 0.6830574 0.7303642
vn 0.103828125 0.8444248 0.5255153
vn -0 1 0
vn -0 1 0
vn 0.025666593 0.7267711 0.6864
vn -0.05012587 0.92928386 0.36594936
vn -0.09618969 0.78224343 0.61550206
vn -0.10663237 0.8695139 0.4822604
vn -0.2274433 0.7426754 0.6298434
vn -0.32427263 0.72698855 0.6052561
vn -0.23508671 0.8425771 0.48455966
vn -0.29024655 0.90614545 0.3076643
vn 0.10392507 0.86167306 0.49670818
vn -0 1 0
vn -0 1 0
vn -0 1 0
vn -0 1 0
vn -0 1 0
vn -0.4278854 0.9024548 -0.04989443
vn -0.13945366 0.9269883 0.34820318
vn -0 1 0
vn -0.39571732 0.9138672 0.09085549
vn -0 1 0
vn -0 1 0
vn -0.46450746 0.8581059 -0.21883145
vn -0 1 0
vn -0 1 0
vn -0 1 0
vn -0.314778 0.93299216 0.17447168
vn -0.35549432 0.74238557 0.56787974
vn -0.4023789 0.9122663 0.07655953
vn -0.43559015 0.84980005 -0.29681852
vn -0 1 0
vn -0.36061585 0.90223217 -0.23650247
vn -0.07913478 0.81541634 -0.5734404
vn -0.066116646 0.80864125 -0.58457506
vn -0.28651956 0.8449965 -0.45153904
vn -0.09859984 0.7387413 -0.6667379
g valley_ramp03_0
f 3/3/3 2/2/2 1/1/1
f 3/3/3 1/1/1 4/4/4
f 5/5/5 2/2/2 3/3/3
f 6/6/6 2/2/2 5/5/5
f 5/5/5 7/7/7 6/6/6
f 7/7/7 5/5/5 8/8/8
f 5/5/5 9/9/9 8/8/8
f 5/5/5 3/3/3 9/9/9
f 10/10/10 8/8/8 9/9/9
f 9/9/9 11/11/11 10/10/10
f 12/12/12 8/8/8 10/10/10
f 12/12/12 10/10/10 13/13/13
f 10/10/10 11/11/11 13/13/13
f 11/11/11 14/14/14 13/13/13
f 15/15/15 13/13/13 14/14/14
f 16/16/16 15/15/15 14/14/14
f 14/14/14 17/17/17 16/16/16
f 18/18/18 17/17/17 14/14/14
f 18/18/18 19/19/19 17/17/17
f 20/20/20 9/9/9 3/3/3
f 21/21/21 11/11/11 9/9/9
f 9/9/9 20/20/20 21/21/21
f 21/21/21 20/20/20 22/22/22
f 21/21/21 22/22/22 11/11/11
f 3/3/3 23/23/23 20/20/20
f 23/23/23 22/22/22 20/20/20
f 14/14/14 11/11/11 24/24/24
f 22/22/22 25/25/25 11/11/11
f 11/11/11 25/25/25 24/24/24
f 14/14/14 26/26/26 18/18/18
f 24/24/24 26/26/26 14/14/14
f 24/24/24 27/27/27 26/26/26
f 27/27/27 28/28/28 26/26/26
f 29/29/29 26/26/26 28/28/28
f 18/18/18 26/26/26 29/29/29
f 30/30/30 22/22/22 23/23/23
f 22/22/22 30/30/30 25/25/25
f 25/25/25 31/31/31 24/24/24
f 31/31/31 27/27/27 24/24/24
f 25/25/25 30/30/30 32/32/32
f 31/31/31 25/25/25 32/32/32
f 33/33/33 30/30/30 23/23/23
f 30/30/30 33/33/33 32/32/32
f 34/34/34 18/18/18 29/29/29
f 35/35/35 29/29/29 28/28/28
f 29/29/29 35/35/35 34/34/34
f 36/36/36 18/18/18 34/34/34
f 19/19/19 18/18/18 36/36/36
f 34/34/34 35/35/35 37/37/37
f 36/36/36 34/34/34 37/37/37
f 19/19/19 36/36/36 38/38/38
f 36/36/36 37/37/37 38/38/38
f 38/38/38 37/37/37 39/39/39
f 37/37/37 40/40/40 39/39/39
f 35/35/35 40/40/40 37/37/37
f 35/35/35 28/28/28 40/40/40
f 38/38/38 41/41/41 19/19/19
f 38/38/38 39/39/39 41/41/41
f 41/41/41 42/42/42 19/19/19
f 42/42/42 41/41/41 43/43/43
f 44/44/44 43/43/43 41/41/41
f 44/44/44 41/41/41 39/39/39
f 45/45/45 43/43/43 44/44/44
f 45/45/45 44/44/44 46/46/46
f 44/44/44 39/39/39 46/46/46
f 47/47/47 46/46/46 39/39/39
f 47/47/47 48/48/48 46/46/46
f 49/49/49 48/48/48 47/47/47
f 47/47/47 50/50/50 49/49/49
f 50/50/50 47/47/47 51/51/51
f 52/52/52 50/50/50 51/51/51
f 53/53/53 52/52/52 51/51/51
f 47/47/47 39/39/39 54/54/54
f 54/54/54 51/51/51 47/47/47
f 55/55/55 53/53/53 51/51/51
f 53/53/53 55/55/55 56/56/56
f 56/56/56 55/55/55 57/57/57
f 58/58/58 54/54/54 39/39/39
f 58/58/58 39/39/39 40/40/40
f 54/54/54 59/59/59 51/51/51
f 54/54/54 58/58/58 59/59/59
f 59/59/59 58/58/58 40/40/40
f 51/51/51 59/59/59 55/55/55
f 59/59/59 60/60/60 55/55/55
f 61/61/61 59/59/59 40/40/40
f 60/60/60 59/59/59 61/61/61
f 40/40/40 28/28/28 61/61/61
f 62/62/62 57/57/57 55/55/55
f 62/62/62 55/55/55 60/60/60
f 63/63/63 61/61/61 28/28/28
f 63/63/63 60/60/60 61/61/61
f 62/62/62 64/64/64 57/57/57
f 65/65/65 57/57/57 64/64/64
f 66/66/66 65/65/65 64/64/64
f 67/67/67 66/66/66 64/64/64
f 67/67/67 64/64/64 62/62/62
f 66/66/66 67/67/67 68/68/68
f 67/67/67 69/69/69 68/68/68
f 69/69/69 70/70/70 68/68/68
f 69/69/69 71/71/71 70/70/70
f 72/72/72 67/67/67 62/62/62
f 72/72/72 62/62/62 60/60/60
f 72/72/72 69/69/69 67/67/67
f 72/72/72 60/60/60 69/69/69
f 63/63/63 73/73/73 60/60/60
f 69/69/69 60/60/60 73/73/73
f 74/74/74 63/63/63 28/28/28
f 74/74/74 73/73/73 63/63/63
f 69/69/69 75/75/75 71/71/71
f 75/75/75 76/76/76 71/71/71
f 75/75/75 69/69/69 77/77/77
f 69/69/69 73/73/73 77/77/77
f 76/76/76 75/75/75 77/77/77
f 77/77/77 73/73/73 78/78/78
f 74/74/74 78/78/78 73/73/73
f 79/79/79 78/78/78 74/74/74
f 80/80/80 78/78/78 79/79/79
f 80/80/80 77/77/77 78/78/78
f 80/80/80 76/76/76 77/77/77
f 81/81/81 76/76/76 80/80/80
f 28/28/28 82/82/82 74/74/74
f 28/28/28 27/27/27 82/82/82
f 82/82/82 83/83/83 74/74/74
f 74/74/74 83/83/83 79/79/79
f 83/83/83 82/82/82 27/27/27
f 84/84/84 81/81/81 80/80/80
f 84/84/84 85/85/85 81/81/81
f 86/86/86 85/85/85 84/84/84
f 87/87/87 83/83/83 27/27/27
f 83/83/83 87/87/87 79/79/79
f 87/87/87 88/88/88 79/79/79
f 27/27/27 89/89/89 87/87/87
f 89/89/89 88/88/88 87/87/87
f 89/89/89 27/27/27 31/31/31
f 88/88/88 89/89/89 31/31/31
f 84/84/84 80/80/80 90/90/90
f 90/90/90 80/80/80 79/79/79
f 90/90/90 91/91/91 84/84/84
f 90/90/90 79/79/79 91/91/91
f 91/91/91 86/86/86 84/84/84
f 79/79/79 92/92/92 91/91/91
f 92/92/92 86/86/86 91/91/91
f 79/79/79 88/88/88 92/92/92
f 92/92/92 93/93/93 86/86/86
f 94/94/94 86/86/86 93/93/93
f 94/94/94 93/93/93 95/95/95
f 93/93/93 92/92/92 96/96/96
f 92/92/92 88/88/88 96/96/96
f 97/97/97 88/88/88 31/31/31
f 31/31/31 32/32/32 97/97/97
f 97/97/97 98/98/98 88/88/88
f 32/32/32 98/98/98 97/97/97
f 88/88/88 98/98/98 96/96/96
f 98/98/98 32/32/32 33/33/33
f 95/95/95 93/93/93 99/99/99
f 96/96/96 99/99/99 93/93/93
f 100/100/100 96/96/96 98/98/98
f 96/96/96 100/100/100 99/99/99
f 101/101/101 98/98/98 33/33/33
f 100/100/100 98/98/98 101/101/101
f 102/102/102 99/99/99 100/100/100
f 100/100/100 101/101/101 102/102/102
f 103/103/103 99/99/99 102/102/102
f 99/99/99 104/104/104 95/95/95
f 104/104/104 99/99/99 103/103/103
f 105/105/105 95/95/95 104/104/104
f 106/106/106 105/105/105 104/104/104
f 104/104/104 103/103/103 106/106/106
f 103/103/103 107/107/107 106/106/106
f 107/107/107 103/103/103 102/102/102
f 102/102/102 108/108/108 107/107/107
f 109/109/109 108/108/108 102/102/102
f 110/110/110 101/101/101 33/33/33
f 23/23/23 110/110/110 33/33/33
f 111/111/111 109/109/109 102/102/102
f 111/111/111 112/112/112 109/109/109
f 112/112/112 111/111/111 113/113/113
f 112/112/112 113/113/113 114/114/114
f 115/115/115 114/114/114 113/113/113
f 113/113/113 116/116/116 115/115/115
f 116/116/116 117/117/117 115/115/115
f 117/117/117 116/116/116 118/118/118
f 116/116/116 119/119/119 118/118/118
f 113/113/113 111/111/111 120/120/120
f 102/102/102 120/120/120 111/111/111
f 116/116/116 113/113/113 120/120/120
f 102/102/102 101/101/101 121/121/121
f 121/121/121 120/120/120 102/102/102
f 122/122/122 121/121/121 101/101/101
f 122/122/122 120/120/120 121/121/121
f 110/110/110 122/122/122 101/101/101
f 119/119/119 116/116/116 123/123/123
f 124/124/124 119/119/119 123/123/123
f 120/120/120 125/125/125 116/116/116
f 122/122/122 125/125/125 120/120/120
f 125/125/125 123/123/123 116/116/116
f 124/124/124 123/123/123 126/126/126
f 126/126/126 123/123/123 125/125/125
f 124/124/124 126/126/126 4/4/4
f 126/126/126 127/127/127 4/4/4
f 127/127/127 126/126/126 125/125/125
f 127/127/127 3/3/3 4/4/4
f 125/125/125 122/122/122 128/128/128
f 128/128/128 122/122/122 110/110/110
f 127/127/127 125/125/125 128/128/128
f 3/3/3 127/127/127 129/129/129
f 129/129/129 127/127/127 128/128/128
f 129/129/129 128/128/128 110/110/110
f 23/23/23 3/3/3 129/129/129
f 23/23/23 129/129/129 110/110/110
