g valley_rockLip01
v 2.2609375 -3.3802435 2.0563598
v 3.7371993 -3.3921597 1.4416765
v 3.751767 -3.4880557 1.2862381
v 4.9876733 -2.19178 1.429827
v 2.1571681 -3.530184 1.8724427
v 0.42421246 -3.551214 2.0424805
v 1.0519483 -4.024661 -0.27308983
v 0.57671005 -1.1382912 4.1212997
v -3.664451 -2.7299404 0.26935783
v -1.591809 -0.9823257 4.207102
v -2.419383 -2.646788 2.089714
v -3.5241916 -2.5447347 1.4969956
v 3.922637 -2.14785 2.3799362
v -2.5188322 -1.7245914 3.2817688
v 3.8761053 -1.2364377 2.8859253
v 5.92406 -0.74980646 1.2034912
v 3.9002829 -1.1507235 2.9421234
v 4.9535723 -3.151655 0.28495026
v 5.6464972 -2.2655478 -0.409139
v 3.823436 -3.7676945 -0.12631147
v 4.634357 -3.2939963 -0.5956381
v 3.4659474 -3.3766081 -1.5779101
v 4.674813 -3.2179132 -0.71141243
v 5.8060503 -1.2079842 0.39265442
v 3.9074166 -3.2526753 -1.5422906
v 5.600525 -1.2043461 -1.2878623
v 4.739217 -2.2107332 -2.0418708
v 4.342702 -1.2291433 -2.951278
v 4.5233774 -2.2795184 -2.2240577
v 5.952184 -0.7192312 -1.3919482
v 5.3566136 -0.7065282 -2.416542
v 0.3314468 -3.4939716 -1.907233
v -1.7804263 -3.0259473 -1.8551759
v 2.1105063 -2.2641284 -3.13821
v 1.8887303 -2.692399 -2.3800907
v -1.4294398 -2.2786767 -2.6761096
v 0.8826923 -3.2695858 -2.2307765
v 0.9323699 -3.4544559 -2.0931118
v 0.17700824 -3.3231874 -2.2198632
v -1.7559521 -2.8536234 -2.0212874
v -3.5968769 -2.564467 -0.9334573
v -3.6774452 -2.4133518 -1.0757661
v -3.3503237 -1.8582518 -2.112202
v -4.3818803 -1.8262584 -0.54297084
v -3.9794528 -2.5086455 0.055109218
v -0.9108137 -1.8982714 -3.2634096
v -3.8917432 -2.5539918 0.44187057
v -4.5945587 -1.8527292 0.28515995
v -4.4902472 -1.271576 1.9426651
v 2.3636315 -1.144568 -3.7181401
v -5.221271 -0.7710314 -0.3792209
v -3.8969395 -0.68211156 3.4698014
v -0.8153459 -1.0534993 -3.6462467
v -3.6697764 -1.1905254 -2.300048
v 3.6747148 -0.73921853 -3.9611707
v 2.8504236 -0.65429705 -4.2887087
v 4.5779605 -0.64717823 -3.2729166
v 4.607834 -0.39707118 -3.3706481
v 5.4100027 -0.39451444 -2.4346516
v 5.963873 -0.60845524 -1.3887892
v 3.698184 -0.592918 -4.022875
v 5.0113688 1.1730213 -1.8589096
v 5.992425 -0.6616492 1.117218
v 5.6079397 0.99398965 0.31742096
v 2.9179804 -0.536808 -4.3109226
v 3.496811 0.45523122 -3.9115431
v 1.0569564 -0.5796883 -4.5500054
v 1.276776 -0.35635945 -4.621345
v 3.823812 1.002002 -3.4576952
v -0.62635964 -0.61515945 -4.4135036
v 1.3085049 0.88088816 -4.2896123
v -3.70608 -1.0776962 -2.3520389
v 3.3602495 2.1585722 -2.1521225
v 4.627389 1.6546606 -1.001152
v 4.757714 1.6999639 0.9131114
v 1.6659017 1.5165753 -3.3126955
v 3.716407 2.6269562 -0.85542756
v -4.8362017 -0.690287 -1.5200424
v -4.40811 -0.7400333 -2.132759
v -4.302749 -1.5633022 -1.4776098
v -0.71137965 -0.47328666 -4.4603786
v -4.4916635 -0.6357266 -2.0830002
v -4.403749 0.43329033 -1.6670097
v -4.972871 -0.5560533 -1.3994522
v -0.49585795 0.64335877 -4.325311
v -0.21180624 -0.35670453 -4.582706
v -0.028446734 0.5325179 -4.4706182
v -0.3811111 0.7851371 -4.2206607
v 0.024156056 1.0372872 -3.5941727
v 0.12106609 2.0183694 -2.8321762
v -4.9668384 -0.66919446 -1.351181
v -1.5639851 0.75020957 -3.2316668
v 1.8412046 2.3098793 -2.7263184
v 2.198062 2.7647357 -1.661232
v 0.47417164 2.7275546 -1.7483826
v 1.1290474 2.8158646 2.1813202
v -3.2252169 1.8254465 -0.4464798
v -4.472284 -1.4893144 -1.2327187
v -4.234318 -1.679426 -1.3329406
v -3.7243373 -1.8142604 -1.7862036
v -4.321621 -1.8215909 -0.75145423
v -5.241361 -0.5967772 -0.39164686
v -5.1184835 -0.5986262 1.7797928
v -4.749686 -0.58376086 2.6944187
v -5.1423726 -0.49643263 1.7618637
v -5.0936947 0.5206369 0.58167267
v -4.8029757 -0.3532843 2.710355
v -4.6657104 -0.41888767 2.949266
v -4.708551 0.5985485 2.0394516
v -3.833538 1.4554601 1.6107025
v -4.330727 1.0876606 0.20903778
v -3.6127727 0.9684293 -1.4731497
v -3.9397407 -0.47216597 3.5645397
v -4.1597905 0.15709531 3.4493337
v -4.209659 0.3337358 3.322991
v -3.3733451 0.56242144 4.0170245
v -4.0293407 0.7369991 3.0859506
v -3.7085369 -0.62654775 3.66915
v -3.0828035 -0.5806119 4.1970463
v -3.168262 -0.4494862 4.2232733
v -1.6731348 -0.61162126 4.9060974
v -0.014993668 -0.6289661 5.106064
v 1.737278 -0.56418705 4.8004913
v -1.6781368 -0.5208549 4.9528427
v -1.506628 -0.5327436 5.0017166
v -0.9634406 0.009246106 5.229121
v -0.09859848 -0.54663694 5.172661
v 1.7456446 -0.47765487 4.834507
v -0.76796305 -0.057249833 5.264426
v 1.8635426 0.8822669 4.4844513
v -0.35401475 0.735828 4.969441
v -0.5403264 0.8056787 4.9030023
v -0.300063 0.84784317 4.8832355
v 0.38591766 1.8604001 3.956379
v 0.46408653 1.8061109 4.011055
v -0.96797085 1.8549001 3.102707
v -0.99624634 2.286281 2.4354095
v 0.86351156 1.3814132 4.094063
v 1.6870928 2.133792 3.4088554
v 1.6452436 2.2167335 3.3591385
v 1.853198 0.9698075 4.423397
v 2.3027697 2.8147333 1.2525177
v 2.6808987 2.8099563 1.0451508
v 3.6156874 2.2894099 2.0375671
v 3.971693 2.6354117 0.7418823
v 4.0623026 2.581439 0.72450256
v 3.6899395 2.2167945 2.0782318
v 3.8121376 1.4912374 2.5518646
v 1.8872433 1.6617 3.3604736
v 3.865118 1.4128813 2.60878
v 1.9366493 1.5718054 3.401081
v 4.7850456 1.0668254 2.5934677
v 2.9936361 1.0662931 3.8368797
v 5.706576 -0.0018092645 1.8189011
v 4.7973566 0.9831333 2.6618347
v 3.024311 0.97542524 3.8803406
v 3.7467268 0.59151846 3.5021067
v 5.6715794 -0.5619793 1.890831
v 4.471669 -0.48093894 3.258072
v 5.5911694 -0.65226704 1.9239044
v 2.1653976 0.90509284 4.3198395
v 4.439972 -0.58050686 3.244339
v 3.315401 -0.17276455 4.1404305
v 2.835732 -0.6623992 4.190735
v 3.28191 -0.28030482 4.1526375
v 2.0609694 -0.5262283 4.6868706
v 2.7546577 0.4104825 4.3119965
v 2.1755772 0.8103104 4.3639374
v 2.7618704 0.5058323 4.2498093
v 2.7618704 0.62160504 4.0683594
v 3.286271 0.5812182 3.8118896
v 2.7700863 0.71197253 4.0126305
v -3.3986893 1.0201681 -1.5718155
v -1.4028826 0.8924735 -2.8926558
v -3.43182 0.9471401 -1.6416626
v -1.4815131 0.8257147 -2.960469
vn 0.200558 -0.6118044 0.7651614
vn 0.36239594 -0.4981448 0.7877314
vn 0.24170716 -0.9286341 0.28145394
vn 0.67847043 -0.45803326 0.5743547
vn 0.07955472 -0.96662927 0.24351363
vn -0.1366974 -0.88735443 0.4403589
vn -0.10559491 -0.9937989 -0.034835454
vn 0.07731308 -0.7167975 0.692982
vn -0.2882993 -0.95704484 0.030799832
vn -0.14148432 -0.73749393 0.66036725
vn -0.25265384 -0.77823704 0.5749026
vn -0.43945017 -0.8317698 0.33917928
vn 0.36954346 -0.56648046 0.73657143
vn -0.31327945 -0.6947146 0.6474779
vn 0.42605087 -0.4299383 0.79601115
vn 0.7907838 -0.43712932 0.42846102
vn 0.3646781 -0.74980795 0.55208504
vn 0.6883186 -0.67860824 0.25633627
vn 0.9020617 -0.42065355 -0.09661977
vn 0.18609098 -0.9821193 -0.028492197
vn 0.48968053 -0.8481825 -0.20198889
vn 0.14605407 -0.8486283 -0.5084273
vn 0.5959385 -0.6353659 -0.49108794
vn 0.9339185 -0.33777472 0.11706662
vn 0.5091365 -0.72754943 -0.4598389
vn 0.84011585 -0.3969825 -0.36960828
vn 0.7115125 -0.4867069 -0.50681984
vn 0.44162393 -0.5425601 -0.7145606
vn 0.29991233 -0.59615165 -0.7447521
vn 0.858709 -0.4550267 -0.23573186
vn 0.68040895 -0.52601135 -0.5102508
vn -0.073356576 -0.95146227 -0.29889515
vn -0.2861671 -0.93818474 -0.19472459
vn 0.08653488 -0.666306 -0.7406403
vn 0.09009025 -0.70025414 -0.7081863
vn -0.23181382 -0.6622027 -0.71256566
vn 0.08258763 -0.43154255 -0.8983041
vn 0.09447909 -0.8901618 -0.44574183
vn -0.039449167 -0.4983512 -0.8660773
vn -0.3629216 -0.6540219 -0.6637343
vn -0.41005707 -0.874559 -0.25884295
vn -0.58175427 -0.6478719 -0.491756
vn -0.41578397 -0.6218362 -0.6636591
vn -0.7578589 -0.5963242 -0.26466465
vn -0.68165874 -0.7141742 -0.1590489
vn -0.17930178 -0.5520441 -0.8143084
vn -0.6706994 -0.71198034 0.2079575
vn -0.83013296 -0.5425662 0.12845702
vn -0.6594476 -0.6487645 0.37978107
vn 0.07805817 -0.6097741 -0.78872204
vn -0.8834758 -0.4665514 -0.04243015
vn -0.46808535 -0.68420726 0.55924636
vn -0.18056394 -0.62930405 -0.75589216
vn -0.4727235 -0.43025404 -0.7690344
vn 0.27740422 -0.74199474 -0.6103202
vn 0.07510766 -0.70020884 -0.7099764
vn 0.6232188 -0.44255993 -0.6447784
vn 0.7061601 0.22392058 -0.6717123
vn 0.80313003 0.26710102 -0.53257793
vn 0.94538265 0.26200306 -0.19392282
vn 0.4950567 0.023967925 -0.86853004
vn 0.7420635 0.5664571 -0.35842443
vn 0.9892519 0.13779841 0.048910815
vn 0.8746781 0.4847041 -0.0005310434
vn 0.23429494 0.11173798 -0.9657228
vn 0.3446428 0.34835485 -0.87170535
vn 0.013524442 -0.7981724 -0.6022771
vn 0.13237262 0.09372364 -0.986759
vn 0.44867736 0.6249635 -0.63883424
vn -0.20917511 -0.72342575 -0.6579521
vn 0.093518645 0.5741325 -0.8134041
vn -0.4417204 -0.49408552 -0.74884087
vn 0.36314824 0.7838365 -0.5037099
vn 0.6497817 0.74345547 -0.15829599
vn 0.697271 0.70273703 0.14132877
vn 0.0784379 0.74049675 -0.6674669
vn 0.39491817 0.9038252 -0.1647412
vn -0.7040749 -0.46658546 -0.5353283
vn -0.51322955 -0.47318947 -0.71602184
vn -0.636903 -0.4817846 -0.60186225
vn -0.52365106 0.12380644 -0.8428888
vn -0.5632542 0.26229593 -0.7835467
vn -0.6122038 0.5105335 -0.60378987
vn -0.8788597 0.3295471 -0.34496984
vn -0.505358 0.2974055 -0.81003904
vn -0.1185423 -0.044753898 -0.99193996
vn -0.081127994 0.29511994 -0.95200974
vn -0.22294652 0.8806751 -0.41797864
vn -0.20607603 0.78804654 -0.58009946
vn -0.28952533 0.7604569 -0.58127475
vn -0.8299165 -0.47264883 -0.2963812
vn -0.24100628 0.92790824 -0.2844329
vn 0.11241453 0.76166487 -0.63814545
vn 0.06396922 0.98648703 -0.15083584
vn -0.20068674 0.97217464 -0.120836616
vn -0.13191706 0.98499274 0.11129803
vn -0.3474259 0.9279159 -0.13515668
vn -0.7923694 -0.5491729 -0.2656311
vn -0.55482066 -0.7684122 -0.31893077
vn -0.37994444 -0.87976587 -0.28575206
vn -0.44415632 -0.87489766 -0.19307813
vn -0.9576238 0.23131065 -0.17161599
vn -0.8200331 -0.5515485 0.15277411
vn -0.6460874 -0.61452395 0.45269352
vn -0.97541225 0.1352881 0.17397691
vn -0.8834482 0.46659213 -0.042556614
vn -0.889614 0.24619786 0.38467333
vn -0.73597187 -0.170565 0.6551741
vn -0.7773291 0.57621896 0.25245047
vn -0.3908827 0.8990061 0.19748093
vn -0.6079191 0.7822673 -0.13598591
vn -0.43802336 0.7731748 -0.45862433
vn -0.63123727 -0.17114662 0.756471
vn -0.67236894 0.054991838 0.7381707
vn -0.76059496 0.42523286 0.49058357
vn -0.38587403 0.7072014 0.592425
vn -0.48953372 0.7797123 0.39039156
vn -0.3878629 -0.73232436 0.5596994
vn -0.32559398 -0.78690284 0.52418727
vn -0.49568236 0.0043746256 0.86849284
vn -0.18360418 -0.826202 0.532616
vn 0.016599152 -0.8439246 0.5362049
vn 0.15977749 -0.8492714 0.5031989
vn -0.4283708 -0.004513162 0.90359175
vn -0.15718369 -0.44808403 0.8800647
vn -0.31297126 0.3637427 0.8773483
vn 0.09528965 -0.17857406 0.97930145
vn 0.23102067 0.1644138 0.9589565
vn 0.07470624 0.09831347 0.99234736
vn 0.22133766 0.27667272 0.93512666
vn 0.1496853 0.31272903 0.9379738
vn -0.253763 0.6892748 0.67860496
vn 0.08839381 0.6495104 0.75519717
vn -0.21300608 0.84470606 0.49101943
vn 0.20878881 0.56255597 0.7999613
vn -0.2895937 0.8515505 0.43703225
vn -0.2667148 0.9470043 0.17901394
vn 0.21006927 0.6671443 0.7146953
vn 0.4205601 0.41062224 0.8090233
vn 0.13158 0.8888435 0.43891218
vn 0.16865663 0.7758144 0.6080024
vn 0.07914918 0.98857063 0.12831062
vn 0.11569536 0.9903529 0.07626038
vn 0.24334125 0.8985462 0.36523944
vn 0.2052887 0.97283924 0.10695971
vn 0.756532 0.650482 0.06732281
vn 0.6000045 0.5590839 0.5722061
vn 0.53393483 0.5343646 0.655262
vn 0.43637034 0.2061809 0.8758255
vn 0.32596084 0.83898664 0.4357189
vn 0.24018581 0.81329244 0.5299681
vn 0.59108704 0.72191125 0.3598059
vn 0.27837265 0.817458 0.50425303
vn 0.86644197 0.31175107 0.38998675
vn 0.6688298 0.21741855 0.7109119
vn 0.48079565 0.30817294 0.8208929
vn 0.5760427 0.2394595 0.7815587
vn 0.81385887 -0.06710497 0.57717466
vn 0.6704018 0.090557836 0.7364514
vn 0.53485537 -0.7331811 0.4199705
vn 0.40639523 0.44684556 0.79697675
vn 0.5051559 -0.63269424 0.58695453
vn 0.5418697 0.16781634 0.82353806
vn 0.32440194 -0.7043554 0.63138485
vn 0.47657707 -0.3340051 0.81321263
vn 0.4084072 -0.24023563 0.88061935
vn 0.39826387 0.21574347 0.89153844
vn 0.43949232 0.48305795 0.7572989
vn 0.44404224 0.60171926 0.66389793
vn 0.43925783 0.64214975 0.6282486
vn 0.4469616 0.5685164 0.6906622
vn 0.47582105 0.21287498 0.8533925
vn -0.39607197 0.76372045 -0.5097627
vn -0.4044899 0.6201254 -0.67218477
vn -0.37291765 0.7566227 -0.5370797
vn -0.2101297 0.9159254 -0.34194475
g valley_rockLip01_0
f 3/3/3 2/2/2 1/1/1
f 4/4/4 1/1/1 2/2/2
f 3/3/3 4/4/4 2/2/2
f 5/5/5 3/3/3 1/1/1
f 1/1/1 6/6/6 5/5/5
f 3/3/3 5/5/5 7/7/7
f 6/6/6 7/7/7 5/5/5
f 1/1/1 8/8/8 6/6/6
f 6/6/6 9/9/9 7/7/7
f 6/6/6 8/8/8 10/10/10
f 11/11/11 6/6/6 10/10/10
f 12/12/12 6/6/6 11/11/11
f 6/6/6 12/12/12 9/9/9
f 4/4/4 13/13/13 1/1/1
f 8/8/8 1/1/1 13/13/13
f 14/14/14 11/11/11 10/10/10
f 11/11/11 14/14/14 12/12/12
f 4/4/4 15/15/15 13/13/13
f 8/8/8 13/13/13 15/15/15
f 15/15/15 4/4/4 16/16/16
f 17/17/17 8/8/8 15/15/15
f 17/17/17 15/15/15 16/16/16
f 18/18/18 4/4/4 3/3/3
f 4/4/4 18/18/18 19/19/19
f 20/20/20 18/18/18 3/3/3
f 3/3/3 7/7/7 20/20/20
f 20/20/20 21/21/21 18/18/18
f 19/19/19 18/18/18 21/21/21
f 22/22/22 21/21/21 20/20/20
f 7/7/7 22/22/22 20/20/20
f 23/23/23 21/21/21 22/22/22
f 23/23/23 19/19/19 21/21/21
f 4/4/4 24/24/24 16/16/16
f 19/19/19 24/24/24 4/4/4
f 25/25/25 23/23/23 22/22/22
f 19/19/19 23/23/23 25/25/25
f 24/24/24 19/19/19 26/26/26
f 27/27/27 19/19/19 25/25/25
f 19/19/19 27/27/27 26/26/26
f 28/28/28 26/26/26 27/27/27
f 29/29/29 27/27/27 25/25/25
f 22/22/22 29/29/29 25/25/25
f 29/29/29 28/28/28 27/27/27
f 26/26/26 30/30/30 24/24/24
f 16/16/16 24/24/24 30/30/30
f 28/28/28 31/31/31 26/26/26
f 30/30/30 26/26/26 31/31/31
f 22/22/22 7/7/7 32/32/32
f 32/32/32 7/7/7 33/33/33
f 7/7/7 9/9/9 33/33/33
f 34/34/34 28/28/28 29/29/29
f 29/29/29 22/22/22 35/35/35
f 29/29/29 35/35/35 34/34/34
f 36/36/36 34/34/34 35/35/35
f 37/37/37 35/35/35 22/22/22
f 35/35/35 37/37/37 36/36/36
f 38/38/38 22/22/22 32/32/32
f 38/38/38 37/37/37 22/22/22
f 37/37/37 38/38/38 32/32/32
f 39/39/39 37/37/37 32/32/32
f 39/39/39 32/32/32 33/33/33
f 37/37/37 39/39/39 36/36/36
f 40/40/40 39/39/39 33/33/33
f 40/40/40 36/36/36 39/39/39
f 40/40/40 33/33/33 41/41/41
f 41/41/41 33/33/33 9/9/9
f 42/42/42 40/40/40 41/41/41
f 42/42/42 36/36/36 40/40/40
f 41/41/41 9/9/9 42/42/42
f 36/36/36 42/42/42 43/43/43
f 44/44/44 43/43/43 42/42/42
f 42/42/42 45/45/45 44/44/44
f 9/9/9 45/45/45 42/42/42
f 34/34/34 36/36/36 46/46/46
f 46/46/46 36/36/36 43/43/43
f 45/45/45 9/9/9 47/47/47
f 9/9/9 12/12/12 47/47/47
f 47/47/47 48/48/48 45/45/45
f 12/12/12 48/48/48 47/47/47
f 48/48/48 44/44/44 45/45/45
f 12/12/12 49/49/49 48/48/48
f 49/49/49 12/12/12 14/14/14
f 46/46/46 50/50/50 34/34/34
f 28/28/28 34/34/34 50/50/50
f 48/48/48 51/51/51 44/44/44
f 48/48/48 49/49/49 51/51/51
f 52/52/52 49/49/49 14/14/14
f 10/10/10 52/52/52 14/14/14
f 53/53/53 50/50/50 46/46/46
f 54/54/54 53/53/53 46/46/46
f 43/43/43 54/54/54 46/46/46
f 55/55/55 28/28/28 50/50/50
f 56/56/56 50/50/50 53/53/53
f 50/50/50 56/56/56 55/55/55
f 28/28/28 55/55/55 57/57/57
f 31/31/31 28/28/28 57/57/57
f 58/58/58 57/57/57 55/55/55
f 59/59/59 31/31/31 57/57/57
f 58/58/58 59/59/59 57/57/57
f 59/59/59 60/60/60 31/31/31
f 60/60/60 30/30/30 31/31/31
f 55/55/55 56/56/56 61/61/61
f 61/61/61 58/58/58 55/55/55
f 58/58/58 62/62/62 59/59/59
f 62/62/62 60/60/60 59/59/59
f 30/30/30 60/60/60 63/63/63
f 16/16/16 30/30/30 63/63/63
f 62/62/62 64/64/64 60/60/60
f 64/64/64 63/63/63 60/60/60
f 56/56/56 65/65/65 61/61/61
f 61/61/61 66/66/66 58/58/58
f 65/65/65 66/66/66 61/61/61
f 65/65/65 56/56/56 67/67/67
f 53/53/53 67/67/67 56/56/56
f 68/68/68 65/65/65 67/67/67
f 65/65/65 68/68/68 66/66/66
f 69/69/69 58/58/58 66/66/66
f 58/58/58 69/69/69 62/62/62
f 67/67/67 53/53/53 70/70/70
f 68/68/68 67/67/67 70/70/70
f 69/69/69 66/66/66 71/71/71
f 66/66/66 68/68/68 71/71/71
f 70/70/70 53/53/53 72/72/72
f 72/72/72 53/53/53 54/54/54
f 69/69/69 73/73/73 62/62/62
f 62/62/62 74/74/74 64/64/64
f 74/74/74 62/62/62 73/73/73
f 75/75/75 64/64/64 74/74/74
f 71/71/71 76/76/76 69/69/69
f 73/73/73 69/69/69 76/76/76
f 73/73/73 77/77/77 74/74/74
f 74/74/74 77/77/77 75/75/75
f 72/72/72 54/54/54 78/78/78
f 70/70/70 72/72/72 79/79/79
f 79/79/79 72/72/72 78/78/78
f 78/78/78 54/54/54 80/80/80
f 80/80/80 54/54/54 43/43/43
f 81/81/81 70/70/70 79/79/79
f 82/82/82 79/79/79 78/78/78
f 82/82/82 81/81/81 79/79/79
f 82/82/82 83/83/83 81/81/81
f 82/82/82 84/84/84 83/83/83
f 84/84/84 82/82/82 78/78/78
f 85/85/85 81/81/81 83/83/83
f 70/70/70 81/81/81 86/86/86
f 86/86/86 81/81/81 85/85/85
f 86/86/86 68/68/68 70/70/70
f 87/87/87 68/68/68 86/86/86
f 87/87/87 86/86/86 85/85/85
f 71/71/71 68/68/68 87/87/87
f 88/88/88 87/87/87 85/85/85
f 88/88/88 71/71/71 87/87/87
f 85/85/85 83/83/83 88/88/88
f 71/71/71 88/88/88 89/89/89
f 76/76/76 71/71/71 89/89/89
f 90/90/90 76/76/76 89/89/89
f 78/78/78 91/91/91 84/84/84
f 78/78/78 80/80/80 91/91/91
f 83/83/83 92/92/92 88/88/88
f 92/92/92 89/89/89 88/88/88
f 76/76/76 90/90/90 93/93/93
f 73/73/73 76/76/76 93/93/93
f 94/94/94 73/73/73 93/93/93
f 73/73/73 94/94/94 77/77/77
f 93/93/93 90/90/90 95/95/95
f 94/94/94 93/93/93 95/95/95
f 96/96/96 94/94/94 95/95/95
f 95/95/95 90/90/90 97/97/97
f 95/95/95 97/97/97 96/96/96
f 80/80/80 98/98/98 91/91/91
f 98/98/98 80/80/80 99/99/99
f 80/80/80 43/43/43 99/99/99
f 43/43/43 100/100/100 99/99/99
f 100/100/100 43/43/43 44/44/44
f 98/98/98 44/44/44 91/91/91
f 99/99/99 101/101/101 98/98/98
f 100/100/100 101/101/101 99/99/99
f 101/101/101 44/44/44 98/98/98
f 101/101/101 100/100/100 44/44/44
f 91/91/91 44/44/44 51/51/51
f 84/84/84 91/91/91 51/51/51
f 102/102/102 84/84/84 51/51/51
f 84/84/84 102/102/102 83/83/83
f 51/51/51 103/103/103 102/102/102
f 51/51/51 49/49/49 103/103/103
f 103/103/103 49/49/49 104/104/104
f 52/52/52 104/104/104 49/49/49
f 103/103/103 105/105/105 102/102/102
f 103/103/103 104/104/104 105/105/105
f 102/102/102 106/106/106 83/83/83
f 102/102/102 105/105/105 106/106/106
f 104/104/104 107/107/107 105/105/105
f 104/104/104 52/52/52 108/108/108
f 104/104/104 108/108/108 107/107/107
f 109/109/109 106/106/106 105/105/105
f 107/107/107 109/109/109 105/105/105
f 109/109/109 110/110/110 106/106/106
f 106/106/106 111/111/111 83/83/83
f 111/111/111 106/106/106 110/110/110
f 112/112/112 83/83/83 111/111/111
f 92/92/92 83/83/83 112/112/112
f 111/111/111 110/110/110 97/97/97
f 97/97/97 112/112/112 111/111/111
f 52/52/52 113/113/113 108/108/108
f 107/107/107 108/108/108 114/114/114
f 114/114/114 108/108/108 113/113/113
f 107/107/107 115/115/115 109/109/109
f 115/115/115 107/107/107 114/114/114
f 114/114/114 116/116/116 115/115/115
f 114/114/114 113/113/113 116/116/116
f 116/116/116 117/117/117 115/115/115
f 115/115/115 117/117/117 109/109/109
f 110/110/110 109/109/109 117/117/117
f 110/110/110 117/117/117 116/116/116
f 118/118/118 113/113/113 52/52/52
f 52/52/52 10/10/10 118/118/118
f 113/113/113 118/118/118 119/119/119
f 10/10/10 119/119/119 118/118/118
f 120/120/120 113/113/113 119/119/119
f 116/116/116 113/113/113 120/120/120
f 119/119/119 10/10/10 121/121/121
f 119/119/119 121/121/121 120/120/120
f 10/10/10 122/122/122 121/121/121
f 10/10/10 8/8/8 122/122/122
f 122/122/122 8/8/8 123/123/123
f 17/17/17 123/123/123 8/8/8
f 121/121/121 124/124/124 120/120/120
f 121/121/121 122/122/122 125/125/125
f 124/124/124 121/121/121 125/125/125
f 124/124/124 126/126/126 120/120/120
f 116/116/116 120/120/120 126/126/126
f 122/122/122 127/127/127 125/125/125
f 127/127/127 122/122/122 123/123/123
f 128/128/128 127/127/127 123/123/123
f 124/124/124 125/125/125 129/129/129
f 125/125/125 127/127/127 129/129/129
f 126/126/126 124/124/124 129/129/129
f 128/128/128 129/129/129 127/127/127
f 129/129/129 128/128/128 130/130/130
f 126/126/126 129/129/129 131/131/131
f 131/131/131 129/129/129 130/130/130
f 132/132/132 126/126/126 131/131/131
f 116/116/116 126/126/126 132/132/132
f 131/131/131 130/130/130 133/133/133
f 132/132/132 131/131/131 133/133/133
f 116/116/116 132/132/132 134/134/134
f 133/133/133 135/135/135 132/132/132
f 135/135/135 134/134/134 132/132/132
f 134/134/134 136/136/136 116/116/116
f 116/116/116 136/136/136 110/110/110
f 136/136/136 137/137/137 110/110/110
f 137/137/137 97/97/97 110/110/110
f 137/137/137 136/136/136 96/96/96
f 96/96/96 97/97/97 137/137/137
f 136/136/136 134/134/134 96/96/96
f 138/138/138 135/135/135 133/133/133
f 135/135/135 139/139/139 134/134/134
f 135/135/135 138/138/138 139/139/139
f 134/134/134 140/140/140 96/96/96
f 139/139/139 140/140/140 134/134/134
f 130/130/130 141/141/141 133/133/133
f 133/133/133 141/141/141 138/138/138
f 96/96/96 140/140/140 142/142/142
f 94/94/94 96/96/96 142/142/142
f 143/143/143 94/94/94 142/142/142
f 77/77/77 94/94/94 143/143/143
f 144/144/144 142/142/142 140/140/140
f 142/142/142 144/144/144 143/143/143
f 145/145/145 77/77/77 143/143/143
f 145/145/145 143/143/143 144/144/144
f 145/145/145 146/146/146 77/77/77
f 146/146/146 145/145/145 144/144/144
f 146/146/146 75/75/75 77/77/77
f 147/147/147 144/144/144 140/140/140
f 147/147/147 146/146/146 144/144/144
f 139/139/139 147/147/147 140/140/140
f 147/147/147 75/75/75 146/146/146
f 148/148/148 147/147/147 139/139/139
f 148/148/148 75/75/75 147/147/147
f 149/149/149 139/139/139 138/138/138
f 149/149/149 148/148/148 139/139/139
f 150/150/150 75/75/75 148/148/148
f 148/148/148 149/149/149 150/150/150
f 149/149/149 138/138/138 151/151/151
f 149/149/149 151/151/151 150/150/150
f 138/138/138 141/141/141 151/151/151
f 150/150/150 152/152/152 75/75/75
f 75/75/75 152/152/152 64/64/64
f 150/150/150 151/151/151 153/153/153
f 153/153/153 151/151/151 141/141/141
f 152/152/152 150/150/150 153/153/153
f 154/154/154 64/64/64 152/152/152
f 154/154/154 63/63/63 64/64/64
f 152/152/152 153/153/153 155/155/155
f 152/152/152 155/155/155 154/154/154
f 156/156/156 153/153/153 141/141/141
f 153/153/153 156/156/156 155/155/155
f 157/157/157 155/155/155 156/156/156
f 154/154/154 158/158/158 63/63/63
f 63/63/63 158/158/158 16/16/16
f 154/154/154 155/155/155 159/159/159
f 159/159/159 158/158/158 154/154/154
f 155/155/155 157/157/157 159/159/159
f 158/158/158 160/160/160 16/16/16
f 158/158/158 159/159/159 160/160/160
f 16/16/16 160/160/160 17/17/17
f 161/161/161 156/156/156 141/141/141
f 161/161/161 141/141/141 130/130/130
f 159/159/159 162/162/162 160/160/160
f 162/162/162 17/17/17 160/160/160
f 159/159/159 157/157/157 163/163/163
f 162/162/162 159/159/159 163/163/163
f 162/162/162 164/164/164 17/17/17
f 123/123/123 17/17/17 164/164/164
f 165/165/165 164/164/164 162/162/162
f 165/165/165 162/162/162 163/163/163
f 123/123/123 164/164/164 166/166/166
f 166/166/166 164/164/164 165/165/165
f 128/128/128 123/123/123 166/166/166
f 166/166/166 165/165/165 128/128/128
f 165/165/165 163/163/163 128/128/128
f 163/163/163 167/167/167 128/128/128
f 130/130/130 128/128/128 167/167/167
f 167/167/167 163/163/163 157/157/157
f 130/130/130 167/167/167 168/168/168
f 168/168/168 161/161/161 130/130/130
f 167/167/167 169/169/169 168/168/168
f 167/167/167 157/157/157 169/169/169
f 168/168/168 170/170/170 161/161/161
f 170/170/170 168/168/168 169/169/169
f 157/157/157 171/171/171 169/169/169
f 171/171/171 170/170/170 169/169/169
f 170/170/170 172/172/172 161/161/161
f 170/170/170 171/171/171 172/172/172
f 171/171/171 157/157/157 172/172/172
f 161/161/161 172/172/172 156/156/156
f 157/157/157 156/156/156 172/172/172
f 112/112/112 97/97/97 90/90/90
f 173/173/173 112/112/112 90/90/90
f 173/173/173 90/90/90 174/174/174
f 174/174/174 90/90/90 89/89/89
f 112/112/112 173/173/173 175/175/175
f 173/173/173 174/174/174 175/175/175
f 175/175/175 92/92/92 112/112/112
f 174/174/174 89/89/89 176/176/176
f 89/89/89 92/92/92 176/176/176
f 174/174/174 176/176/176 175/175/175
f 176/176/176 92/92/92 175/175/175
