g vine01
v 0.02835739 0.41026786 -0.11149264
v -1.2054443E-05 -3.364541E-16 0.112023965
v -0.3946904 -0.00061999576 -0.20237258
v 0.39469132 1.5258789E-07 -0.20237263
v 0.42697608 -2.903181 -0.25284117
v 0.037526105 -2.8880587 0.0835573
v -0.35202026 -2.903181 -0.25284114
v -0.44336215 -6.226025 -0.15242727
v -0.059690654 -6.20354 0.13943616
v 0.32374632 -6.226026 -0.1524273
v -0.24445312 -9.582053 -0.11349767
v 0.00012161787 -9.569758 0.06247133
v 0.24445373 -9.582053 -0.11349767
v 1.3639529E-07 -10.687088 -0.0001174754
v 0.02835739 0.41026786 0.112023965
v -0.3946904 -0.00061999576 0.20237258
v -1.2054443E-05 -3.364541E-16 -0.11149264
v 0.39469132 1.5258789E-07 0.20237263
v 0.42700312 -2.8880587 0.15190406
v 0.037526418 -2.903181 -0.1399594
v -0.35204735 -2.8880584 0.15190403
v 0.3237866 -6.20354 0.25231794
v -0.05969019 -6.226026 -0.08408054
v -0.44340244 -6.20354 0.2523179
v 0.24447128 -9.569758 0.11349767
v 0.000121822966 -9.582053 -0.06299458
v -0.24447067 -9.569758 0.11349767
v 1.3639529E-07 -10.687088 -0.0001174754
vt 0.5 0.5
vt 0.5 0.5
vt 0.5 0.5
vt 0.5 0.5
vt 0.5 0.5
vt 0.5 0.5
vt 0.5 0.5
vt 0.5 0.5
vt 0.5 0.5
vt 0.5 0.5
vt 0.5 0.5
vt 0.5 0.5
vt 0.5 0.5
vt 0.5 0.5
vt 0.5 0.5
vt 0.5 0.5
vt 0.5 0.5
vt 0.5 0.5
vt 0.5 0.5
vt 0.5 0.5
vt 0.5 0.5
vt 0.5 0.5
vt 0.5 0.5
vt 0.5 0.5
vt 0.5 0.5
vt 0.5 0.5
vt 0.5 0.5
vt 0.5 0.5
vn 0.019345872 0.47729203 0.87853175
vn -0.006489939 0.016262189 0.9998467
vn -0.6378271 -0.0012115317 0.77017856
vn 0.63796604 0.012070066 0.7699699
vn 0.6344124 -0.0017130261 0.77299285
vn 0.008519638 0.004891482 0.9999517
vn -0.63473684 0.010533679 0.7726566
vn -0.61586094 0.0075082714 0.787819
vn -0.009693573 0.0038187157 0.99994576
vn 0.6159522 -0.0032299028 0.78777695
vn -0.59465903 -0.029272178 0.8034449
vn 0.0059088194 -0.024657527 0.9996785
vn 0.5958394 -0.010258853 0.8030382
vn -0.0002358332 -0.05592872 0.9984347
vn 0.01931875 0.4772938 -0.8785314
vn -0.6115659 0.02036242 -0.7909313
vn -0.006097658 0.041847374 -0.9991054
vn 0.6112109 0.032775257 -0.7907888
vn 0.62197393 -0.0109215155 -0.7829618
vn 0.008869983 -0.0073012165 -0.9999341
vn -0.6215199 0.00090449315 -0.78339785
vn 0.63193446 -0.016225418 -0.77485204
vn -0.009390364 -0.012631578 -0.99987614
vn -0.63150173 -0.0048635863 -0.7753592
vn 0.6283731 0.0066648643 -0.7778835
vn 0.0067938995 -0.005964143 -0.9999591
vn -0.62877184 -0.013834512 -0.7774667
vn -0.00024322218 -0.05680862 -0.9983851
g vine01_0
f 3/3/3 2/2/2 1/1/1
f 2/2/2 4/4/4 1/1/1
f 5/5/5 4/4/4 2/2/2
f 6/6/6 2/2/2 3/3/3
f 6/6/6 5/5/5 2/2/2
f 7/7/7 6/6/6 3/3/3
f 7/7/7 8/8/8 6/6/6
f 6/6/6 9/9/9 5/5/5
f 8/8/8 9/9/9 6/6/6
f 9/9/9 10/10/10 5/5/5
f 8/8/8 11/11/11 9/9/9
f 9/9/9 12/12/12 10/10/10
f 11/11/11 12/12/12 9/9/9
f 12/12/12 13/13/13 10/10/10
f 11/11/11 14/14/14 12/12/12
f 12/12/12 14/14/14 13/13/13
f 17/17/17 16/16/16 15/15/15
f 18/18/18 17/17/17 15/15/15
f 18/18/18 19/19/19 17/17/17
f 17/17/17 20/20/20 16/16/16
f 19/19/19 20/20/20 17/17/17
f 20/20/20 21/21/21 16/16/16
f 19/19/19 22/22/22 20/20/20
f 20/20/20 23/23/23 21/21/21
f 22/22/22 23/23/23 20/20/20
f 23/23/23 24/24/24 21/21/21
f 22/22/22 25/25/25 23/23/23
f 23/23/23 26/26/26 24/24/24
f 25/25/25 26/26/26 23/23/23
f 26/26/26 27/27/27 24/24/24
f 25/25/25 28/28/28 26/26/26
f 26/26/26 28/28/28 27/27/27
