g voxCliff02_COL
v 0.33571494 -0.310054 3.182445
v 2.2277038 -0.310054 3.182445
v 2.2084255 -0.310054 2.2073257
v 0.4272415 -0.310054 1.834674
v -2.2277038 -0.310054 2.206629
v -2.2277038 -0.310054 3.182445
v -2.2277038 -0.310054 1.2425506
v 0.48089328 -0.310054 1.0446265
v 2.2084255 -0.310054 1.2687337
v -2.2277038 -0.310054 -0.44741362
v 0.5749412 -0.310054 -0.34027344
v 2.2084255 -0.310054 -0.3765545
v -1.9245968 -0.310054 -3.1738455
v 0.76795185 -0.310054 -3.182445
v 2.2277038 -0.310054 -3.182445
v 2.170899 1.8410467 -3.1513104
v -1.8695812 4.1487293 -3.128016
v 0.6308922 1.8410467 -3.1513104
v 1.7785659 4.153583 -3.1585433
v 0.45759323 4.5609107 -3.1119432
v -0.09081657 4.5609107 -3.1119432
v 0.8679297 4.5609107 -3.1119432
v 1.8289133 4.4539576 -2.2810233
v 0.65642875 4.7398615 -0.48348793
v 1.8289133 4.4539576 -2.2810233
v 1.8289133 4.4539576 -0.49594337
v 0.80321765 4.758533 1.2401314
v 1.8079733 4.710178 1.1898239
v -0.25393906 4.6976633 -0.47879687
v 0.88695675 4.769185 2.223409
v 1.7960275 4.692015 2.1935747
v 1.6792283 4.5609107 3.1348517
v 0.37652105 4.7162337 3.1422315
v -1.0101912 4.7320533 2.1672432
v -0.9955841 4.719561 1.2729013
v 2.106693 1.1303338 3.1513104
v 1.7960275 4.692015 2.1935747
v -1.9536865 4.5609107 -0.46359444
v -1.9536865 4.5609107 -1.3950841
v -1.8695812 4.1487293 -3.128016
v -1.9536865 4.5609107 0.8768946
v -1.9536865 4.5609107 1.6416068
v -1.9536865 4.5609107 2.2382119
v -1.0307373 4.6066027 3.1119432
v -2.063851 1.1303338 3.1291945
v 0.380579 1.1826082 3.1513104
v -1.9193159 4.1961517 3.1215835
v -1.9536865 4.5609107 2.2382119
v -1.9536865 4.5609107 1.6416068
v -2.2541041 1.1103214 2.1077783
v -1.9536865 4.5609107 0.8768946
v -2.2436616 1.1103214 1.1672041
v -1.9536865 4.5609107 -0.46359444
v -2.2277038 -0.310054 3.182445
v -2.2277038 -0.310054 2.206629
v 0.33571494 -0.310054 3.182445
v -2.2277038 -0.310054 1.2425506
v 2.2277038 -0.310054 3.182445
v -2.225357 1.1103214 -0.48155907
v -2.2277038 -0.310054 -0.44741362
v -1.9245968 -0.310054 -3.1738455
v -1.9536865 4.5609107 -1.3950841
v 2.2084246 1.12488 2.2179847
v 2.2084255 -0.310054 2.2073257
v 2.2084255 -0.310054 1.2687337
v 2.2177749 1.0310001 1.198962
v 1.8079733 4.710178 1.1898239
v 2.2726305 1.8366154 -0.49599174
v 2.2084255 -0.310054 -0.3765545
v 1.8289133 4.4539576 -0.49594337
v 2.170899 1.8410467 -3.1513104
v 2.2277038 -0.310054 -3.182445
v 1.7785659 4.153583 -3.1585433
vt 0.5188375 1
vt 0.625 1
vt 0.625 0.94624275
vt 0.5239732 0.94706225
vt 0.375 0.9482709
vt 0.375 1
vt 0.375 0.91527176
vt 0.52698374 0.91603076
vt 0.625 0.91641045
vt 0.375 0.8574265
vt 0.5322609 0.86163473
vt 0.625 0.86411655
vt 0.375 0.75
vt 0.543091 0.75
vt 0.625 0.75
vt 0.625 0.63959575
vt 0.375 0.63392055
vt 0.53699076 0.63959575
vt 0.625 0.568725
vt 0.52927756 0.5
vt 0.48179722 0.5
vt 0.55553156 0.5
vt 0.8416237 0.25
vt 0.52872944 0.39442068
vt 0.625 0.46662372
vt 0.625 0.39492095
vt 0.52843165 0.337061
vt 0.625 0.33534515
vt 0.4924788 0.39423224
vt 0.5282618 0.30433887
vt 0.625 0.30135876
vt 0.625 0.25
vt 0.5279795 0.25
vt 0.4939961 0.30539444
vt 0.49344495 0.33766466
vt 0.625 0.11040425
vt 0.67635876 0.25
vt 0.375 0.39362156
vt 0.375 0.4310375
vt 0.125 0.116079494
vt 0.375 0.33977705
vt 0.375 0.30906022
vt 0.375 0.28509587
vt 0.43405175 0.25
vt 0.375 0.11040425
vt 0.5228748 0.11040425
vt 0.375 0.21581635
vt 0.33990413 0.25
vt 0.31593978 0.25
vt 0.32003337 0.11040425
vt 0.28522295 0.25
vt 0.28804213 0.11040425
vt 0.23137842 0.25
vt 0.375 0
vt 0.32327092 0
vt 0.5188375 0
vt 0.29027176 0
vt 0.625 0
vt 0.23196365 0.11040425
vt 0.23242651 0
vt 0.125 0
vt 0.1939625 0.25
vt 0.6776981 0.11040425
vt 0.6787573 0
vt 0.70858955 0
vt 0.7093649 0.11040425
vt 0.71034515 0.25
vt 0.76487464 0.11040425
vt 0.76088357 0
vt 0.76992095 0.25
vt 0.875 0.11040425
vt 0.875 0
vt 0.875 0.18127507
vn -0.0020811888 -0.6219802 0.7830302
vn 0.38348728 -0.56776845 0.7284068
vn 0.5919955 -0.80581605 0.014208473
vn -0 -1 0
vn -0.46044752 -0.8874094 0.022198826
vn -0.29681665 -0.5990917 0.7436323
vn -0.49225795 -0.8704452 -0.0026988157
vn -0 -1 0
vn 0.71834356 -0.6956565 0.0066704755
vn -0.66612506 -0.7433919 -0.0603813
vn -0 -1 0
vn 0.77534777 -0.6315177 -0.004603416
vn -0.5370762 -0.5487758 -0.6406203
vn -0.00048402292 -0.71259296 -0.7015775
vn 0.7322696 -0.54326546 -0.41066274
vn 0.8777264 0.0780649 -0.4727603
vn -0.6854581 0.1752075 -0.70671743
vn -0.002966898 0.011549776 -0.99992895
vn 0.8243765 0.16788836 -0.5405709
vn 0.040394865 0.5635492 -0.82509416
vn -0.03778374 0.55641806 -0.830043
vn 0.08843567 0.58912474 -0.8031881
vn 0.8958982 0.44169262 -0.047685772
vn 0.068410344 0.99660206 -0.045872368
vn 0.8958982 0.44169262 -0.047685772
vn 0.896858 0.4419854 -0.017165096
vn 0.035230685 0.9988644 -0.03207428
vn 0.9133272 0.4071596 0.0073766243
vn -0.05187227 0.998014 -0.035740092
vn 0.036144502 0.9984295 0.042801723
vn 0.9290641 0.36307302 0.07083762
vn 0.47387767 0.19930817 0.85773903
vn -0.0057599684 0.16401897 0.98644036
vn -0.09022179 0.9946852 0.049612477
vn -0.072619 0.99717283 -0.019307645
vn 0.5032565 0.057445332 0.86222565
vn 0.9290641 0.36307302 0.07083762
vn -0.86583644 0.49904186 -0.035840448
vn -0.8396399 0.5388295 -0.06832002
vn -0.6854581 0.1752075 -0.70671743
vn -0.9097101 0.41497165 -0.015031864
vn -0.94298685 0.3279335 0.05688054
vn -0.9315435 0.34178346 0.12414033
vn -0.034830835 0.16337813 0.98594844
vn -0.4242977 0.03929136 0.90466994
vn -0.0041717878 0.01127876 0.99992776
vn -0.437649 0.06276426 0.89695257
vn -0.9315435 0.34178346 0.12414033
vn -0.94298685 0.3279335 0.05688054
vn -0.9967463 0.05979888 0.05404541
vn -0.9097101 0.41497165 -0.015031864
vn -0.9985594 0.0533317 -0.0059097647
vn -0.86583644 0.49904186 -0.035840448
vn -0.29681665 -0.5990917 0.7436323
vn -0.46044752 -0.8874094 0.022198826
vn -0.0020811888 -0.6219802 0.7830302
vn -0.49225795 -0.8704452 -0.0026988157
vn 0.38348728 -0.56776845 0.7284068
vn -0.9969683 0.030702699 -0.07149412
vn -0.66612506 -0.7433919 -0.0603813
vn -0.5370762 -0.5487758 -0.6406203
vn -0.8396399 0.5388295 -0.06832002
vn 0.9946498 0.090146996 0.05044944
vn 0.5919955 -0.80581605 0.014208473
vn 0.71834356 -0.6956565 0.0066704755
vn 0.9976025 0.06642933 0.019400882
vn 0.9133272 0.4071596 0.0073766243
vn 0.99604166 0.08888492 -0.0007263128
vn 0.77534777 -0.6315177 -0.004603416
vn 0.896858 0.4419854 -0.017165096
vn 0.8777264 0.0780649 -0.4727603
vn 0.7322696 -0.54326546 -0.41066274
vn 0.8243765 0.16788836 -0.5405709
g voxCliff02_COL_0
f 3/3/3 2/2/2 1/1/1
f 4/4/4 3/3/3 1/1/1
f 4/4/4 1/1/1 5/5/5
f 1/1/1 6/6/6 5/5/5
f 4/4/4 5/5/5 7/7/7
f 4/4/4 8/8/8 3/3/3
f 8/8/8 4/4/4 7/7/7
f 8/8/8 9/9/9 3/3/3
f 8/8/8 7/7/7 10/10/10
f 8/8/8 11/11/11 9/9/9
f 11/11/11 8/8/8 10/10/10
f 11/11/11 12/12/12 9/9/9
f 11/11/11 10/10/10 13/13/13
f 11/11/11 14/14/14 12/12/12
f 14/14/14 11/11/11 13/13/13
f 14/14/14 15/15/15 12/12/12
f 16/16/16 15/15/15 14/14/14
f 14/14/14 13/13/13 17/17/17
f 18/18/18 16/16/16 14/14/14
f 18/18/18 14/14/14 17/17/17
f 19/19/19 16/16/16 18/18/18
f 20/20/20 18/18/18 17/17/17
f 21/21/21 20/20/20 17/17/17
f 18/18/18 22/22/22 19/19/19
f 18/18/18 20/20/20 22/22/22
f 22/22/22 23/23/23 19/19/19
f 22/22/22 20/20/20 24/24/24
f 24/24/24 20/20/20 21/21/21
f 24/24/24 25/25/25 22/22/22
f 24/24/24 26/26/26 25/25/25
f 24/24/24 27/27/27 26/26/26
f 27/27/27 28/28/28 26/26/26
f 29/29/29 24/24/24 21/21/21
f 27/27/27 24/24/24 29/29/29
f 27/27/27 30/30/30 28/28/28
f 30/30/30 31/31/31 28/28/28
f 32/32/32 31/31/31 30/30/30
f 33/33/33 32/32/32 30/30/30
f 34/34/34 30/30/30 27/27/27
f 33/33/33 30/30/30 34/34/34
f 35/35/35 27/27/27 29/29/29
f 35/35/35 34/34/34 27/27/27
f 36/36/36 32/32/32 33/33/33
f 37/37/37 32/32/32 36/36/36
f 29/29/29 21/21/21 38/38/38
f 21/21/21 39/39/39 38/38/38
f 39/39/39 21/21/21 40/40/40
f 29/29/29 38/38/38 41/41/41
f 35/35/35 29/29/29 41/41/41
f 35/35/35 41/41/41 42/42/42
f 34/34/34 35/35/35 42/42/42
f 34/34/34 42/42/42 43/43/43
f 43/43/43 33/33/33 34/34/34
f 43/43/43 44/44/44 33/33/33
f 33/33/33 44/44/44 45/45/45
f 46/46/46 36/36/36 33/33/33
f 45/45/45 46/46/46 33/33/33
f 44/44/44 47/47/47 45/45/45
f 47/47/47 44/44/44 48/48/48
f 47/47/47 48/48/48 49/49/49
f 45/45/45 47/47/47 49/49/49
f 49/49/49 50/50/50 45/45/45
f 50/50/50 49/49/49 51/51/51
f 52/52/52 50/50/50 51/51/51
f 52/52/52 51/51/51 53/53/53
f 46/46/46 45/45/45 54/54/54
f 55/55/55 54/54/54 45/45/45
f 50/50/50 55/55/55 45/45/45
f 56/56/56 46/46/46 54/54/54
f 46/46/46 56/56/56 36/36/36
f 57/57/57 55/55/55 50/50/50
f 52/52/52 57/57/57 50/50/50
f 56/56/56 58/58/58 36/36/36
f 52/52/52 59/59/59 57/57/57
f 59/59/59 52/52/52 53/53/53
f 59/59/59 60/60/60 57/57/57
f 60/60/60 59/59/59 61/61/61
f 59/59/59 40/40/40 61/61/61
f 59/59/59 53/53/53 40/40/40
f 53/53/53 62/62/62 40/40/40
f 63/63/63 36/36/36 58/58/58
f 64/64/64 63/63/63 58/58/58
f 63/63/63 37/37/37 36/36/36
f 63/63/63 64/64/64 65/65/65
f 63/63/63 66/66/66 37/37/37
f 66/66/66 63/63/63 65/65/65
f 66/66/66 67/67/67 37/37/37
f 66/66/66 65/65/65 68/68/68
f 66/66/66 68/68/68 67/67/67
f 65/65/65 69/69/69 68/68/68
f 68/68/68 70/70/70 67/67/67
f 68/68/68 69/69/69 71/71/71
f 70/70/70 68/68/68 71/71/71
f 69/69/69 72/72/72 71/71/71
f 71/71/71 73/73/73 70/70/70
f 73/73/73 23/23/23 70/70/70
