g voxCliff01_COL
v 2.1952462 3.946239 -3.861657
v 2.1572316 3.946239 -4.9706025
v 2.1107352 1.3928463 -5.1314898
v 2.4279752 1.3928463 -4.5987716
v 2.1107352 -0.37503752 -5.1314898
v 2.4279752 -0.37503752 -4.598771
v 2.4279752 1.3928463 -2.8542588
v 2.4279754 -0.37503752 -2.8542588
v 2.1967256 3.9462392 -2.8542604
v 2.4279752 1.3928463 2.818595
v 2.4279752 -0.37503752 2.8185942
v 2.4279752 -0.37503752 5.584122
v 2.1644056 3.946239 1.2300363
v 2.2073257 4.6993732 -2.8542614
v 2.2073271 4.6993732 -3.8031137
v 1.7987758 4.6117883 0.62483823
v 2.1572316 3.946239 -4.9706025
v 2.150723 3.946239 2.7797594
v 1.9077029 4.7865434 2.217421
v 2.374592 1.3928463 5.453538
v 1.3071319 1.3928463 5.584122
v 1.3071319 -0.37503752 5.584122
v 1.897671 3.9462392 5.4186954
v 1.8976711 5.039034 5.4186954
v -1.2151386 1.3928463 5.584122
v -1.2151386 -0.37503752 5.584122
v -2.0463543 -0.37503752 5.535411
v -1.6740968 3.946239 5.370543
v -2.0463543 1.3928463 5.535411
v -1.6318398 5.0111613 5.370543
v 1.5530792 4.987968 2.2357292
v 1.7987758 4.6117883 0.62483823
v 2.2073257 4.6993732 -2.8542614
v -1.1728815 5.0250797 2.818595
v -2.0463543 3.946239 5.1948886
v -2.3540225 1.3928463 3.5532231
v -2.3540225 -0.37503752 3.5532231
v 1.3071318 5.0390344 -2.8542569
v -2.0514941 4.9474244 4.9469748
v -2.1153653 4.932835 2.818595
v -2.1153653 4.932835 2.818595
v -2.2892413 3.946239 2.818595
v -2.1072147 4.7241797 -2.7056327
v -1.2151386 5.0390344 -2.8542588
v -2.1072147 4.7241797 -2.7056327
v -2.2892413 2.3363671 -2.8542588
v -2.1072147 4.7241797 -3.842781
v -2.2892413 2.3363671 -3.9914072
v -1.2151386 5.0390344 -3.9914072
v -2.1072147 4.7241797 -3.842781
v -2.3540225 1.3928463 -3.5888875
v -2.3540225 -0.37503752 -3.5888875
v -2.3254406 1.3928463 -4.5680385
v -2.3254406 -0.37503752 -4.5680385
v -2.2892413 -0.37503752 -4.9706025
v -2.2892413 1.3928463 -4.9706025
v -2.2892413 2.4077642 -4.9706025
v -1.2151386 4.906412 -4.8847837
v -1.2151386 3.946239 -4.9706025
v 1.3071318 5.0390344 -3.8031137
v 2.2073271 4.6993732 -3.8031137
v 1.3071319 4.9064116 -4.8847837
v 1.3071319 3.946239 -4.9706025
v -1.2151386 1.3928463 -4.9706025
v -2.2892413 2.4077642 -4.9706025
v -2.2892413 1.3928463 -4.9706025
v 0.4236811 1.3928463 -5.171805
v 2.1107352 1.3928463 -5.1314898
v -1.2151386 -0.37503752 -4.9706025
v -2.2892413 -0.37503752 -4.9706025
v 0.42368126 -0.37503752 -5.171805
v 2.1107352 -0.37503752 -5.1314898
v -1.2151386 -0.37503752 -3.9914067
v -2.3254406 -0.37503752 -4.5680385
v 1.3071319 -0.37503752 -3.9914067
v 2.4279752 -0.37503752 -4.598771
v 2.4279754 -0.37503752 -2.8542588
v -1.2151386 -0.37503752 -2.8542588
v -2.3540225 -0.37503752 -3.5888875
v 1.3071319 -0.37503752 -2.8542588
v -1.2151386 -0.37503752 2.8185942
v -2.3540225 -0.37503752 3.5532231
v 1.3071318 -0.37503752 2.8185942
v 2.4279752 -0.37503752 2.8185942
v -1.2151386 -0.37503752 5.584122
v -2.0463543 -0.37503752 5.535411
v 1.3071319 -0.37503752 5.584122
v 2.4279752 -0.37503752 5.584122
vt 0.85180664 0.19953912
vt 0.875 0.19953912
vt 0.875 0.08163375
vt 0.8518067 0.08163375
vt 0.875 0
vt 0.85180664 0
vt 0.81854653 0.08163375
vt 0.8185465 0
vt 0.8185465 0.19953912
vt 0.69050455 0.08163375
vt 0.69050455 0
vt 0.625 0
vt 0.69050455 0.19953912
vt 0.81854653 0.25
vt 0.8518067 0.25
vt 0.69050455 0.25
vt 0.625 0.5504609
vt 0.625 0.19953911
vt 0.625 0.25
vt 0.625 0.08163375
vt 0.57137364 0.08163375
vt 0.57137364 0
vt 0.57137364 0.19953912
vt 0.57137364 0.25
vt 0.43364948 0.08163375
vt 0.43364948 0
vt 0.375 0
vt 0.43364948 0.19953911
vt 0.375 0.08163375
vt 0.43364948 0.25
vt 0.57137364 0.3155045
vt 0.625 0.3155045
vt 0.625 0.4435465
vt 0.43364948 0.3155045
vt 0.375 0.19953911
vt 0.30949548 0.08163375
vt 0.30949548 0
vt 0.57137364 0.4435465
vt 0.375 0.25
vt 0.375 0.3155045
vt 0.3094955 0.25
vt 0.3094955 0.19953912
vt 0.1814535 0.25
vt 0.4336495 0.44354653
vt 0.375 0.4435465
vt 0.1814535 0.19953912
vt 0.1481933 0.25
vt 0.1481933 0.19953912
vt 0.43364948 0.4768067
vt 0.375 0.4768067
vt 0.1814535 0.08163375
vt 0.1814535 0
vt 0.1481933 0.08163374
vt 0.1481933 0
vt 0.125 0
vt 0.125 0.08163375
vt 0.125 0.19953912
vt 0.43364948 0.5
vt 0.43364948 0.5504609
vt 0.57137364 0.4768067
vt 0.625 0.4768067
vt 0.57137364 0.5
vt 0.57137364 0.5504609
vt 0.43364948 0.6683663
vt 0.375 0.5504609
vt 0.375 0.66836625
vt 0.57137364 0.6683663
vt 0.625 0.66836625
vt 0.43364948 0.75
vt 0.375 0.75
vt 0.57137364 0.75
vt 0.625 0.75
vt 0.43364948 0.77319324
vt 0.37499997 0.77319324
vt 0.57137364 0.77319324
vt 0.625 0.77319324
vt 0.625 0.80645347
vt 0.43364948 0.80645347
vt 0.375 0.80645347
vt 0.57137364 0.80645347
vt 0.43364948 0.9344955
vt 0.375 0.9344955
vt 0.57137364 0.93449557
vt 0.625 0.9344955
vt 0.43364948 1
vt 0.375 1
vt 0.57137364 1
vt 0.625 1
vn 0.99602866 0.069488846 -0.055663012
vn 0.54805654 0.1494973 -0.82297295
vn 0.38981673 0.047254194 -0.9196793
vn 0.99228424 0.046897605 -0.11477185
vn 0.24532267 -0.4511599 -0.8580627
vn 0.8490235 -0.5149462 -0.11827716
vn 0.9986014 0.05285402 0.001351952
vn 0.8544452 -0.51954156 0
vn 0.99317616 0.11615874 0.010401261
vn 0.99881065 0.04844507 0.0055104317
vn 0.8445767 -0.53542787 0.002692334
vn 0.79661745 -0.50527424 0.33181098
vn 0.99122953 0.13210924 0.0033465151
vn 0.8049211 0.5923453 0.035059486
vn 0.7757422 0.6213651 -0.110134274
vn 0.7912865 0.6105477 0.03312246
vn 0.54805654 0.1494973 -0.82297295
vn 0.98797977 0.15125918 0.0318834
vn 0.92270637 0.38496104 -0.020440012
vn 0.927079 0.07491072 0.3673047
vn 0.011352985 0.047225796 0.99881965
vn 0.009723284 -0.842531 0.5385601
vn 0.47559506 0.118458994 0.8716517
vn 0.27308628 0.878971 0.3909399
vn -0.025538137 0.048154727 0.9985134
vn -0.00782146 -0.84261584 0.53845847
vn -0.72813785 -0.5505333 0.4083239
vn -0.05834337 0.056844342 0.9966769
vn -0.9051923 0.0344794 0.42360118
vn -0.04432973 0.9043198 0.42454758
vn 0.034929685 0.9993893 -0.0010404072
vn 0.7912865 0.6105477 0.03312246
vn 0.8049211 0.5923453 0.035059486
vn -0.039813023 0.9992017 -0.0033064801
vn -0.94777 0.06750186 0.31173003
vn -0.99896 0.018733388 0.041567594
vn -0.90280104 -0.42897964 0.030442143
vn 0.09636858 0.9953181 0.007409747
vn -0.7442302 0.65559363 0.12774323
vn -0.8489313 0.5284495 -0.0075295568
vn -0.8489313 0.5284495 -0.0075295568
vn -0.9975656 0.06776159 0.01646952
vn -0.87618935 0.48167056 -0.016903762
vn -0.05869574 0.9982759 0.00020388198
vn -0.87618935 0.48167056 -0.016903762
vn -0.9982206 0.059118472 -0.007787506
vn -0.90231365 0.3928008 -0.17758802
vn -0.99764365 0.068479255 -0.004211825
vn -0.07250499 0.99532807 -0.063757144
vn -0.90231365 0.3928008 -0.17758802
vn -0.9998803 0.014803598 -0.004485164
vn -0.9168763 -0.39915827 -0.00322684
vn -0.99920803 0.01611093 -0.03638445
vn -0.8038349 -0.59365743 -0.03768761
vn -0.31813213 -0.35903022 -0.8774333
vn -0.33782297 0.00428124 -0.9411999
vn -0.49258268 0.07182223 -0.8672969
vn -0.21215439 0.6580297 -0.7224869
vn -0.03891142 0.058340713 -0.9975381
vn 0.07904733 0.9951775 -0.058079403
vn 0.7757422 0.6213651 -0.110134274
vn 0.09963 0.712959 -0.69409174
vn -0.0127833625 0.06563836 -0.9977616
vn -0.050864976 0.021069402 -0.99848324
vn -0.49258268 0.07182223 -0.8672969
vn -0.33782297 0.00428124 -0.9411999
vn -0.037263636 0.032264363 -0.9987845
vn 0.38981673 0.047254194 -0.9196793
vn -0.06140513 -0.55741876 -0.8279576
vn -0.31813213 -0.35903022 -0.8774333
vn -0.040467907 -0.54638743 -0.8365542
vn 0.24532267 -0.4511599 -0.8580627
vn -0 -1 0
vn -0.8038349 -0.59365743 -0.03768761
vn -0 -1 0
vn 0.8490235 -0.5149462 -0.11827716
vn 0.8544452 -0.51954156 0
vn -0 -1 0
vn -0.9168763 -0.39915827 -0.00322684
vn -0 -1 0
vn -0 -1 0
vn -0.90280104 -0.42897964 0.030442143
vn -0 -1 0
vn 0.8445767 -0.53542787 0.002692334
vn -0.00782146 -0.84261584 0.53845847
vn -0.72813785 -0.5505333 0.4083239
vn 0.009723284 -0.842531 0.5385601
vn 0.79661745 -0.50527424 0.33181098
g voxCliff01_COL_0
f 3/3/3 2/2/2 1/1/1
f 4/4/4 3/3/3 1/1/1
f 5/5/5 3/3/3 4/4/4
f 6/6/6 5/5/5 4/4/4
f 6/6/6 4/4/4 7/7/7
f 8/8/8 6/6/6 7/7/7
f 4/4/4 1/1/1 9/9/9
f 7/7/7 4/4/4 9/9/9
f 8/8/8 7/7/7 10/10/10
f 11/11/11 8/8/8 10/10/10
f 11/11/11 10/10/10 12/12/12
f 7/7/7 9/9/9 13/13/13
f 10/10/10 7/7/7 13/13/13
f 9/9/9 1/1/1 14/14/14
f 1/1/1 15/15/15 14/14/14
f 9/9/9 14/14/14 16/16/16
f 13/13/13 9/9/9 16/16/16
f 15/15/15 1/1/1 17/17/17
f 13/13/13 16/16/16 18/18/18
f 10/10/10 13/13/13 18/18/18
f 16/16/16 19/19/19 18/18/18
f 10/10/10 20/20/20 12/12/12
f 10/10/10 18/18/18 20/20/20
f 12/12/12 20/20/20 21/21/21
f 22/22/22 12/12/12 21/21/21
f 20/20/20 18/18/18 23/23/23
f 21/21/21 20/20/20 23/23/23
f 18/18/18 19/19/19 24/24/24
f 23/23/23 18/18/18 24/24/24
f 22/22/22 21/21/21 25/25/25
f 26/26/26 22/22/22 25/25/25
f 26/26/26 25/25/25 27/27/27
f 21/21/21 23/23/23 28/28/28
f 25/25/25 21/21/21 28/28/28
f 25/25/25 29/29/29 27/27/27
f 25/25/25 28/28/28 29/29/29
f 28/28/28 23/23/23 30/30/30
f 23/23/23 24/24/24 30/30/30
f 24/24/24 19/19/19 31/31/31
f 19/19/19 32/32/32 31/31/31
f 31/31/31 32/32/32 33/33/33
f 24/24/24 31/31/31 34/34/34
f 30/30/30 24/24/24 34/34/34
f 28/28/28 30/30/30 35/35/35
f 28/28/28 35/35/35 29/29/29
f 27/27/27 29/29/29 36/36/36
f 37/37/37 27/27/27 36/36/36
f 38/38/38 31/31/31 33/33/33
f 34/34/34 31/31/31 38/38/38
f 30/30/30 34/34/34 39/39/39
f 30/30/30 39/39/39 35/35/35
f 34/34/34 40/40/40 39/39/39
f 35/35/35 39/39/39 41/41/41
f 29/29/29 35/35/35 42/42/42
f 42/42/42 35/35/35 41/41/41
f 36/36/36 29/29/29 42/42/42
f 42/42/42 41/41/41 43/43/43
f 34/34/34 44/44/44 40/40/40
f 44/44/44 34/34/34 38/38/38
f 44/44/44 45/45/45 40/40/40
f 46/46/46 42/42/42 43/43/43
f 36/36/36 42/42/42 46/46/46
f 46/46/46 43/43/43 47/47/47
f 48/48/48 46/46/46 47/47/47
f 44/44/44 49/49/49 45/45/45
f 44/44/44 38/38/38 49/49/49
f 49/49/49 50/50/50 45/45/45
f 51/51/51 36/36/36 46/46/46
f 51/51/51 46/46/46 48/48/48
f 37/37/37 36/36/36 51/51/51
f 52/52/52 37/37/37 51/51/51
f 52/52/52 51/51/51 53/53/53
f 53/53/53 51/51/51 48/48/48
f 54/54/54 52/52/52 53/53/53
f 54/54/54 53/53/53 55/55/55
f 53/53/53 56/56/56 55/55/55
f 53/53/53 48/48/48 56/56/56
f 48/48/48 57/57/57 56/56/56
f 57/57/57 48/48/48 50/50/50
f 57/57/57 50/50/50 58/58/58
f 50/50/50 49/49/49 58/58/58
f 59/59/59 57/57/57 58/58/58
f 49/49/49 60/60/60 58/58/58
f 38/38/38 60/60/60 49/49/49
f 38/38/38 33/33/33 60/60/60
f 33/33/33 61/61/61 60/60/60
f 60/60/60 62/62/62 58/58/58
f 58/58/58 62/62/62 59/59/59
f 62/62/62 60/60/60 15/15/15
f 62/62/62 15/15/15 17/17/17
f 62/62/62 63/63/63 59/59/59
f 63/63/63 62/62/62 17/17/17
f 59/59/59 63/63/63 64/64/64
f 59/59/59 64/64/64 65/65/65
f 64/64/64 66/66/66 65/65/65
f 63/63/63 17/17/17 67/67/67
f 63/63/63 67/67/67 64/64/64
f 17/17/17 68/68/68 67/67/67
f 64/64/64 69/69/69 66/66/66
f 64/64/64 67/67/67 69/69/69
f 69/69/69 70/70/70 66/66/66
f 67/67/67 68/68/68 71/71/71
f 67/67/67 71/71/71 69/69/69
f 68/68/68 72/72/72 71/71/71
f 69/69/69 73/73/73 70/70/70
f 69/69/69 71/71/71 73/73/73
f 73/73/73 74/74/74 70/70/70
f 71/71/71 72/72/72 75/75/75
f 71/71/71 75/75/75 73/73/73
f 72/72/72 76/76/76 75/75/75
f 75/75/75 76/76/76 77/77/77
f 73/73/73 78/78/78 74/74/74
f 78/78/78 79/79/79 74/74/74
f 73/73/73 75/75/75 80/80/80
f 80/80/80 75/75/75 77/77/77
f 78/78/78 73/73/73 80/80/80
f 78/78/78 81/81/81 79/79/79
f 78/78/78 80/80/80 81/81/81
f 81/81/81 82/82/82 79/79/79
f 80/80/80 77/77/77 83/83/83
f 80/80/80 83/83/83 81/81/81
f 77/77/77 84/84/84 83/83/83
f 81/81/81 85/85/85 82/82/82
f 81/81/81 83/83/83 85/85/85
f 85/85/85 86/86/86 82/82/82
f 83/83/83 87/87/87 85/85/85
f 83/83/83 84/84/84 87/87/87
f 84/84/84 88/88/88 87/87/87
