g voxFX_rimFade_plane
v -0.5 -1.110223E-16 0.5
v -0.5 0 0
v -0 0 0
v -0 -1.110223E-16 0.5
v -0.5 1.110223E-16 -0.5
v 0.5 -1.110223E-16 0.5
v -0 1.110223E-16 -0.5
v 0.5 0 0
v 0.5 1.110223E-16 -0.5
vt 0 0
vt 0 0.5
vt 0.5 0.5
vt 0.5 0
vt 0 1
vt 1 0
vt 0.5 1
vt 1 0.5
vt 1 1
vn -0 1 0
vn -0 1 0
vn -0 1 0
vn -0 1 0
vn -0 1 0
vn -0 1 0
vn -0 1 0
vn -0 1 0
vn -0 1 0
g voxFX_rimFade_plane_0
f 3/3/3 2/2/2 1/1/1
f 4/4/4 3/3/3 1/1/1
f 3/3/3 5/5/5 2/2/2
f 6/6/6 3/3/3 4/4/4
f 3/3/3 7/7/7 5/5/5
f 6/6/6 8/8/8 3/3/3
f 9/9/9 7/7/7 3/3/3
f 8/8/8 9/9/9 3/3/3
