g voxPlatform02_COL
v 2.6891897 0.110141255 -1.043725
v 2.68919 0.110141255 -2.9816656
v 2.68919 -2.0554354 -2.9816656
v 2.6891904 -2.0649514 -1.0437244
v 2.6891897 0.110141255 1.0171471
v 2.68919 -2.0649514 1.0171471
v 2.68919 -1.4002446 3.182445
v 2.68919 0.110141255 3.182445
v 0.026877226 0.110141255 3.182445
v 0.026877226 -1.4002446 3.182445
v 0.026877226 0.110141255 1.0171471
v 2.6891897 0.110141255 1.0171471
v -0.9796053 0.110141255 3.182445
v -0.9796053 -1.4002444 3.182445
v -0.9796053 0.110141255 1.0171478
v 0.026876615 0.110141255 -1.043725
v 2.6891897 0.110141255 -1.043725
v -2.0125012 0.110141255 3.182445
v -2.0125012 -1.4002446 3.182445
v -2.8679092 -1.4002446 2.964902
v -2.0125012 0.110141255 1.0171471
v -0.9796059 0.110141255 -1.043725
v 0.026877226 0.110141255 -2.993557
v 2.68919 0.110141255 -2.9816656
v -2.8679092 0.110141255 2.964902
v -2.9702823 0.110141255 1.0171471
v -2.9702823 -2.1657805 1.0171471
v -2.9702823 0.110141255 -1.043725
v -2.9702823 -2.1657805 -1.0437244
v -2.9702823 -2.0554354 -2.35463
v -2.9702823 0.110141255 -2.35463
v -2.9702823 0.110141255 1.0171471
v -2.0125012 0.110141255 -1.043725
v -2.9702823 0.110141255 -1.043725
v -2.0125012 0.110141255 -2.9816656
v -2.9702823 0.110141255 -2.35463
v -0.9796053 0.110141255 -3.6087017
v -2.0125012 -2.0554354 -2.9816656
v -2.9702823 -2.0554354 -2.35463
v -0.9796053 -2.0554354 -3.3076787
v -2.0125012 -2.4016907 -1.0437244
v -2.9702823 -2.1657805 -1.0437244
v 0.026877226 -2.0554357 -2.993557
v 2.68919 -2.0554354 -2.9816656
v -2.0125012 -2.4016907 1.0171471
v -2.9702823 -2.1657805 1.0171471
v -0.9796053 -2.7344513 -1.0437244
v 0.026877226 -2.7344513 -1.043725
v 2.6891904 -2.0649514 -1.0437244
v -2.0125012 -1.4002446 3.182445
v -2.8679092 -1.4002446 2.964902
v -0.9796059 -2.7344513 1.0171471
v -0.9796053 -1.4002444 3.182445
v 0.026876615 -2.7344513 1.0171471
v 2.68919 -2.0649514 1.0171471
v 0.026877226 -1.4002446 3.182445
v 2.68919 -1.4002446 3.182445
vt 0.7964022 0.25
vt 0.875 0.25
vt 0.875 0
vt 0.7964022 0
vt 0.71281874 0.25
vt 0.71281874 0
vt 0.625 0
vt 0.625 0.25
vt 0.50739574 0.25
vt 0.50739574 0
vt 0.50739574 0.3378187
vt 0.625 0.33781874
vt 0.46293563 0.25
vt 0.46293563 0
vt 0.46293563 0.3378187
vt 0.5073957 0.42140228
vt 0.625 0.42140228
vt 0.41730875 0.25
vt 0.41730875 0
vt 0.375 0
vt 0.41730875 0.33781874
vt 0.4629356 0.42140228
vt 0.50739574 0.5
vt 0.625 0.5
vt 0.375 0.25
vt 0.28718126 0.25
vt 0.28718123 0
vt 0.20359772 0.25
vt 0.20359772 0
vt 0.125 0
vt 0.125 0.25
vt 0.375 0.33781874
vt 0.41730875 0.42140228
vt 0.375 0.42140228
vt 0.41730875 0.5
vt 0.375 0.5
vt 0.46293563 0.5
vt 0.41730875 0.75
vt 0.375 0.75
vt 0.46293563 0.75
vt 0.41730875 0.8285977
vt 0.375 0.8285977
vt 0.50739574 0.75
vt 0.625 0.75
vt 0.41730875 0.91218126
vt 0.375 0.91218126
vt 0.46293563 0.8285977
vt 0.50739574 0.8285977
vt 0.625 0.8285977
vt 0.41730875 1
vt 0.375 1
vt 0.4629356 0.91218126
vt 0.46293563 1
vt 0.5073957 0.91218126
vt 0.625 0.91218126
vt 0.50739574 1
vt 0.625 1
vn 0.6317198 0.77519673 0
vn 0.4788932 0.58733195 -0.65245885
vn 0.50103396 -0.53073627 -0.6835817
vn 0.70721245 -0.7044012 -0.06057699
vn 0.6015495 0.79883546 0
vn 0.63950855 -0.74727833 0.18056585
vn 0.52693945 -0.55517644 0.64351684
vn 0.4936876 0.71325904 0.4975281
vn -0 0.820178 0.5721085
vn 0.058268834 -0.63861513 0.76731706
vn -0 1 0
vn 0.6015495 0.79883546 0
vn -0 0.82017803 0.5721083
vn -0.050289713 -0.61641854 0.7858112
vn -0 1 0
vn -0 1 0
vn 0.6317198 0.77519673 0
vn -0.06898273 0.79793805 0.598779
vn -0.15843591 -0.6196509 0.7687202
vn -0.8477981 -0.35083345 0.3976862
vn -0 1 0
vn -0 1 0
vn 0.09072203 0.7098614 -0.69847435
vn 0.4788932 0.58733195 -0.65245885
vn -0.83296275 0.4595669 0.3081741
vn -0.9116947 0.41032654 0.021090742
vn -0.9014927 -0.41973957 0.105496295
vn -0.90699065 0.42115074 0
vn -0.9174036 -0.39718583 -0.02478
vn -0.83224535 -0.37009364 -0.41279325
vn -0.8206142 0.4094293 -0.39869797
vn -0.9116947 0.41032654 0.021090742
vn -0 1 0
vn -0.90699065 0.42115074 0
vn -0.37799308 0.6262609 -0.68184936
vn -0.8206142 0.4094293 -0.39869797
vn -0.0049541444 0.5398733 -0.8417318
vn -0.4381989 -0.53217846 -0.72440857
vn -0.83224535 -0.37009364 -0.41279325
vn -0.04351377 -0.56754434 -0.8221922
vn -0.23110923 -0.96840703 -0.09368258
vn -0.9174036 -0.39718583 -0.02478
vn 0.14398523 -0.6223062 -0.76941746
vn 0.50103396 -0.53073627 -0.6835817
vn -0.21544619 -0.9474934 0.23630352
vn -0.9014927 -0.41973957 0.105496295
vn -0.11605794 -0.9834688 -0.13899572
vn 0.14204441 -0.9843007 -0.104763635
vn 0.70721245 -0.7044012 -0.06057699
vn -0.15843591 -0.6196509 0.7687202
vn -0.8477981 -0.35083345 0.3976862
vn -0.11478381 -0.95431507 0.2758756
vn -0.050289713 -0.61641854 0.7858112
vn 0.1307963 -0.9613874 0.24212912
vn 0.63950855 -0.74727833 0.18056585
vn 0.058268834 -0.63861513 0.76731706
vn 0.52693945 -0.55517644 0.64351684
g voxPlatform02_COL_0
f 3/3/3 2/2/2 1/1/1
f 4/4/4 3/3/3 1/1/1
f 4/4/4 1/1/1 5/5/5
f 6/6/6 4/4/4 5/5/5
f 6/6/6 5/5/5 7/7/7
f 5/5/5 8/8/8 7/7/7
f 7/7/7 8/8/8 9/9/9
f 10/10/10 7/7/7 9/9/9
f 9/9/9 8/8/8 11/11/11
f 8/8/8 12/12/12 11/11/11
f 10/10/10 9/9/9 13/13/13
f 14/14/14 10/10/10 13/13/13
f 9/9/9 11/11/11 15/15/15
f 13/13/13 9/9/9 15/15/15
f 11/11/11 12/12/12 16/16/16
f 12/12/12 17/17/17 16/16/16
f 14/14/14 13/13/13 18/18/18
f 19/19/19 14/14/14 18/18/18
f 19/19/19 18/18/18 20/20/20
f 18/18/18 13/13/13 21/21/21
f 13/13/13 15/15/15 21/21/21
f 15/15/15 11/11/11 22/22/22
f 11/11/11 16/16/16 22/22/22
f 16/16/16 17/17/17 23/23/23
f 17/17/17 24/24/24 23/23/23
f 18/18/18 25/25/25 20/20/20
f 18/18/18 21/21/21 25/25/25
f 20/20/20 25/25/25 26/26/26
f 27/27/27 20/20/20 26/26/26
f 27/27/27 26/26/26 28/28/28
f 29/29/29 27/27/27 28/28/28
f 29/29/29 28/28/28 30/30/30
f 28/28/28 31/31/31 30/30/30
f 21/21/21 32/32/32 25/25/25
f 21/21/21 33/33/33 32/32/32
f 21/21/21 15/15/15 33/33/33
f 33/33/33 34/34/34 32/32/32
f 15/15/15 22/22/22 33/33/33
f 33/33/33 35/35/35 34/34/34
f 33/33/33 22/22/22 35/35/35
f 35/35/35 36/36/36 34/34/34
f 22/22/22 37/37/37 35/35/35
f 22/22/22 16/16/16 37/37/37
f 16/16/16 23/23/23 37/37/37
f 35/35/35 38/38/38 36/36/36
f 35/35/35 37/37/37 38/38/38
f 38/38/38 39/39/39 36/36/36
f 37/37/37 23/23/23 40/40/40
f 37/37/37 40/40/40 38/38/38
f 38/38/38 41/41/41 39/39/39
f 38/38/38 40/40/40 41/41/41
f 41/41/41 42/42/42 39/39/39
f 23/23/23 43/43/43 40/40/40
f 23/23/23 24/24/24 43/43/43
f 24/24/24 44/44/44 43/43/43
f 41/41/41 45/45/45 42/42/42
f 45/45/45 46/46/46 42/42/42
f 40/40/40 47/47/47 41/41/41
f 40/40/40 43/43/43 47/47/47
f 41/41/41 47/47/47 45/45/45
f 43/43/43 44/44/44 48/48/48
f 43/43/43 48/48/48 47/47/47
f 44/44/44 49/49/49 48/48/48
f 45/45/45 50/50/50 46/46/46
f 50/50/50 51/51/51 46/46/46
f 47/47/47 52/52/52 45/45/45
f 45/45/45 52/52/52 50/50/50
f 47/47/47 48/48/48 52/52/52
f 52/52/52 53/53/53 50/50/50
f 48/48/48 49/49/49 54/54/54
f 48/48/48 54/54/54 52/52/52
f 52/52/52 54/54/54 53/53/53
f 49/49/49 55/55/55 54/54/54
f 54/54/54 56/56/56 53/53/53
f 54/54/54 55/55/55 56/56/56
f 55/55/55 57/57/57 56/56/56
