g voxRamp01_COL
v -2.930122 -2.2432637 0.0030792237
v -2.930122 2.8069396 9.067992
v 3.0104284 2.8069396 9.067992
v 3.0104284 -2.2432637 0.0030792237
v -3.275262 -0.85913575 -0.57450944
v 3.3555684 -0.85913575 -0.57450944
v -2.930122 0.029832153 0.0030792237
v 3.0104284 0.029832153 0.0030792237
v -2.930122 5.0800314 9.067992
v 3.0104284 5.0800314 9.067992
v -3.275262 4.48768 9.787966
v -3.275262 -0.85913575 -0.57450944
v -2.930122 0.029832153 0.0030792237
v -2.930122 -2.2432637 0.0030792237
v -2.930122 2.8069396 9.067992
v 3.3555684 4.48768 9.787966
v 3.0104284 0.029832153 0.0030792237
v 3.0104284 2.8069396 9.067992
v 3.3555684 -0.85913575 -0.57450944
v 3.0104284 -2.2432637 0.0030792237
vt 0.375 0.75
vt 0.375 1
vt 0.625 1
vt 0.625 0.75
vt 0.375 0.63064826
vt 0.625 0.63064826
vt 0.375 0.5
vt 0.625 0.5
vt 0.375 0.25
vt 0.625 0.25
vt 0.375 0.11935175
vt 0.125 0.119351745
vt 0.125 0.25
vt 0.125 0
vt 0.375 0
vt 0.625 0.11935175
vt 0.875 0.25
vt 0.625 0
vt 0.875 0.119351745
vt 0.875 0
vn -0.20373444 -0.9225272 0.32777402
vn -0.27943608 -0.78823936 0.54826474
vn 0.27943617 -0.7882393 0.54826474
vn 0.20373446 -0.9225272 0.32777402
vn -0.8551144 -0.11545635 -0.50541985
vn 0.8551144 -0.11545631 -0.50541985
vn -0.16272654 0.8376668 -0.5213775
vn 0.16272652 0.8376668 -0.5213775
vn -0.13238731 0.908874 -0.39550182
vn 0.13238733 0.908874 -0.39550188
vn -0.7259383 0.032003965 0.68701476
vn -0.8551144 -0.11545635 -0.50541985
vn -0.16272654 0.8376668 -0.5213775
vn -0.20373444 -0.9225272 0.32777402
vn -0.27943608 -0.78823936 0.54826474
vn 0.7259383 0.032003876 0.68701476
vn 0.16272652 0.8376668 -0.5213775
vn 0.27943617 -0.7882393 0.54826474
vn 0.8551144 -0.11545631 -0.50541985
vn 0.20373446 -0.9225272 0.32777402
g voxRamp01_COL_0
f 3/3/3 2/2/2 1/1/1
f 4/4/4 3/3/3 1/1/1
f 4/4/4 1/1/1 5/5/5
f 6/6/6 4/4/4 5/5/5
f 6/6/6 5/5/5 7/7/7
f 8/8/8 6/6/6 7/7/7
f 8/8/8 7/7/7 9/9/9
f 10/10/10 8/8/8 9/9/9
f 10/10/10 9/9/9 11/11/11
f 11/11/11 9/9/9 12/12/12
f 9/9/9 13/13/13 12/12/12
f 11/11/11 12/12/12 14/14/14
f 15/15/15 11/11/11 14/14/14
f 16/16/16 10/10/10 11/11/11
f 16/16/16 11/11/11 15/15/15
f 17/17/17 10/10/10 16/16/16
f 18/18/18 16/16/16 15/15/15
f 19/19/19 17/17/17 16/16/16
f 19/19/19 16/16/16 18/18/18
f 20/20/20 19/19/19 18/18/18
