g wall_y22_A_rampR
v -13.999999 3 -1.1920929E-07
v -20 0.25 -0.24999964
v -20 0 2.3841858E-07
v -13.999999 3.25 -0.25
v -7.999999 6 1.4189541E-10
v -7.999999 6.25 -0.24999991
v -20 0.75 -0.24999988
v -13.999999 3.75 -0.25000024
v -20 1.0366955 -0.17660928
v -7.999999 6.25 -0.24999991
v -13.999999 4.0366955 -0.17660964
v -20 1.25 2.3841858E-07
v -13.999999 4.25 -1.1920929E-07
v -8.152915 6.6353135 -0.25000012
v -8.1445 6.9283204 -0.17660952
v -8.144782 7.1414123 -4.3148933E-09
v -7.995969 7.2221503 1.200737E-10
v -7.9959784 7.0089006 -0.17660952
v -7.839505 7.25 4.7830695E-09
v -7.9993277 6.720611 -0.25000012
v -7.83982 7.0366955 -0.17660952
v -7.8444605 6.75 -0.25000012
v -3.999999 6.25 -0.24999976
v -3.999999 7.0366955 -0.1766094
v -3.999999 7.25 1.1920929E-07
v 8.7966504E-07 7.25 2.3841858E-07
v 8.7966504E-07 7.0366955 -0.17660928
v -3.999999 6.75 -0.25
v 8.7966504E-07 6.75 -0.24999987
v 8.7966504E-07 6.25 -0.24999966
v -3.999999 6 1.1920929E-07
v 8.7966504E-07 6 2.3841858E-07
v -7.999999 6.25 -0.24999991
v -7.999999 6 1.4189541E-10
v -13.999999 4.25 -1.1920929E-07
v -20 2.39 7.5340273E-07
v -20 1.25 2.3841858E-07
v -13.999999 5.3900003 3.957749E-07
v -8.144782 7.1414123 -4.3148933E-09
v -7.985612 8.346843 5.1541286E-07
v -7.995969 7.2221503 1.200737E-10
v -7.999999 11.05 1.7166138E-06
v -13.999999 11.05 1.5974045E-06
v -7.999999 12 2.1457672E-06
v -20 11.05 1.4781953E-06
v -13.999999 12 2.026558E-06
v -20 12 1.9073486E-06
v -20 12 1.9073486E-06
v -13.999999 20 2.026558E-06
v -20 20 1.9073486E-06
v -13.999999 12 2.026558E-06
v -7.999999 12 2.1457672E-06
v -7.999999 20 2.1457672E-06
v -20 22 -0.5
v -13.999999 22 3.7252903E-09
v -20 22 0
v -13.999999 22 -0.5
v -20 21.75 -0.75000024
v -7.999999 22 -0.5
v -7.999999 22 7.450581E-09
v -3.999999 22 -0.5
v -3.999999 22 1.1175871E-08
v -13.999999 21.75 -0.7500001
v -20 20.5 -0.50000024
v 8.7966504E-07 22 -0.5
v 8.7966504E-07 22 1.4901161E-08
v 8.7966504E-07 21.75 -0.74999976
v -3.999999 21.75 -0.7499999
v -7.999999 22 -0.5
v 8.7966504E-07 20.5 -0.49999976
v -7.999999 21.75 -0.75
v -3.999999 20.5 -0.49999988
v -7.999999 21.75 -0.75
v 8.7966504E-07 20.18829 -0.31171095
v -7.999999 20.5 -0.5
v -3.999999 20.18829 -0.31171095
v 8.7966504E-07 20 2.3841858E-06
v -3.999999 20 2.2649765E-06
v -7.999999 20.18829 -0.31171095
v -7.999999 20 2.1457672E-06
v -13.999999 20.5 -0.5000001
v -13.999999 20.18829 -0.31171095
v -13.999999 20 2.026558E-06
v -20 20.18829 -0.31171095
v -20 20 1.9073486E-06
v 8.7966504E-07 8.39 7.5340273E-07
v -3.999999 7.25 1.1920929E-07
v 8.7966504E-07 7.25 2.3841858E-07
v -3.999999 8.39 6.341934E-07
v 8.7966504E-07 11.05 1.9550323E-06
v -7.985612 8.346843 5.1541286E-07
v -7.839505 7.25 4.7830695E-09
v -7.995969 7.2221503 1.200737E-10
v -3.999999 11.05 1.835823E-06
v 8.7966504E-07 12 2.3841858E-06
v -7.999999 11.05 1.7166138E-06
v -3.999999 12 2.2649765E-06
v -7.999999 12 2.1457672E-06
v -3.999999 20 2.2649765E-06
v 8.7966504E-07 12 2.3841858E-06
v 8.7966504E-07 20 2.3841858E-06
v -3.999999 12 2.2649765E-06
v -7.999999 20 2.1457672E-06
v -7.999999 12 2.1457672E-06
vt -0.24999997 0.40000004
vt 0 0.36736876
vt 0 0.40000004
vt -0.25 0.36736876
vt -0.49560302 0.40000004
vt -0.5 0.36202955
vt 0 0.28727263
vt -0.24999997 0.28727263
vt 0 0.2712465
vt -0.5 0.36202955
vt -0.24999997 0.27124646
vt 0 0.24587518
vt -0.24999999 0.24587546
vt -0.49044272 0.2872726
vt -0.49096864 0.27124646
vt -0.49095103 0.24587578
vt -0.49999997 0.24587575
vt -0.49999994 0.2712465
vt -0.5100308 0.24587576
vt -0.49999994 0.28727263
vt -0.51001114 0.2712465
vt -0.5097211 0.28727263
vt -0.75 0.36736876
vt -0.7499999 0.2712465
vt -0.74999994 0.24587603
vt -0.99999994 0.24587631
vt -0.9999999 0.2712465
vt -0.7499999 0.28727263
vt -0.9999999 0.28727263
vt -1 0.36736876
vt -0.7499999 0.40000004
vt -0.9999999 0.40000004
vt -0.5 0.36202955
vt -0.5099539 0.40000004
vt 0.55941045 0.12190017
vt 0.6372285 0.14578065
vt 0.6372285 0.12190022
vt 0.5594105 0.1457806
vt 0.48440918 0.12190011
vt 0.48059022 0.14578053
vt 0.48159248 0.12190011
vt 0.48168224 0.20150158
vt 0.5594105 0.2015016
vt 0.48159248 0.22140193
vt 0.63722855 0.20150165
vt 0.5594105 0.22140196
vt 0.63722855 0.221402
vt 0.0035187053 0.22821265
vt 0.04940115 0.23921299
vt 0.0035187092 0.23921299
vt 0.049401138 0.22821265
vt 0.09439716 0.22821265
vt 0.09439719 0.23921299
vt 0 0.381358
vt 0.24999997 0.40000004
vt 0 0.40000004
vt 0.24999997 0.3813579
vt 0 0.36736876
vt 0.49999967 0.38135782
vt 0.49908754 0.40000004
vt 0.7499999 0.3813578
vt 0.7499999 0.40000004
vt 0.24999997 0.36736876
vt 0 0.28727263
vt 0.9999999 0.3813577
vt 0.9999999 0.40000004
vt 0.9999999 0.36736876
vt 0.7499999 0.36736876
vt 0.49999967 0.38135782
vt 1.0000001 0.28727263
vt 0.4999999 0.3673688
vt 0.7500001 0.28727263
vt 0.4999999 0.3673688
vt 1.0000001 0.2712465
vt 0.50000006 0.28727263
vt 0.7500001 0.2712465
vt 1.0000001 0.24828896
vt 0.7500001 0.24828912
vt 0.5 0.2712465
vt 0.50000006 0.24828929
vt 0.25000003 0.28727263
vt 0.25000003 0.27124655
vt 0.25000003 0.24828947
vt 0 0.2712465
vt 0 0.24828963
vt 0.32595646 0.14578044
vt 0.40377444 0.12190005
vt 0.32595646 0.12189999
vt 0.40377444 0.14578049
vt 0.32595646 0.20150149
vt 0.48059022 0.14578053
vt 0.47847015 0.12190011
vt 0.48159248 0.12190011
vt 0.4037745 0.20150153
vt 0.32595646 0.22140186
vt 0.48168224 0.20150158
vt 0.4037745 0.2214019
vt 0.48159248 0.22140193
vt 0.14116603 0.23921299
vt 0.18704844 0.22821265
vt 0.18704847 0.23921299
vt 0.141166 0.22821265
vt 0.097056404 0.23921299
vt 0.09705638 0.22821265
vn 0.33333325 -0.6666665 -0.6666668
vn 0.20482619 -0.40965244 -0.88894945
vn 0.3333332 -0.6666665 -0.6666668
vn 0.1578322 -0.3156645 -0.93565214
vn 0.22193411 -0.68947256 -0.68947285
vn 0.18885528 -0.6943822 -0.6943824
vn -0.030692916 0.061385717 -0.99764204
vn -0.04697533 0.09437353 -0.9944279
vn -0.19497685 0.38995364 -0.89995563
vn -0 0 -1
vn -0.21723971 0.436974 -0.8728463
vn -0.30380017 0.6076002 -0.7338442
vn -0.30175176 0.6080523 -0.73431486
vn -0.055953998 0.11318148 -0.99199754
vn -0.23915538 0.48323217 -0.8421944
vn -0.30146226 0.6081365 -0.7343641
vn -0.20221835 0.62466717 -0.75425375
vn -0.16769747 0.45695195 -0.8735403
vn -0.004065363 0.63774014 -0.7702409
vn -0.06025691 0.1504021 -0.98678684
vn -0.0032056407 0.44694218 -0.89455706
vn -0.0006718054 0.083060466 -0.9965443
vn -0 -0.31808254 -0.94806296
vn -0 0.44718203 -0.89444304
vn -0 0.6377422 -0.77024984
vn -0 0.63774264 -0.7702495
vn -0 0.44721374 -0.89442706
vn -0 0.092292204 -0.995732
vn -0 0.09288614 -0.9956768
vn -0 -0.31622803 -0.9486832
vn -0 -0.70710665 -0.7071069
vn -0 0 -1
vn 0.18885528 -0.6943822 -0.6943824
vn 0.22193411 -0.68947256 -0.68947285
vn -0 0 -1
vn -0 0 -1
vn -0 0 -1
vn -0 0 -1
vn -0 0 -1
vn -0 0 -1
vn -0 0 -1
vn -0 0 -1
vn -0 0 -1
vn -0 0 -1
vn -0 0 -1
vn -0 0 -1
vn -0 0 -1
vn -0 0 -1
vn -0 0 -1
vn -0 0 -1
vn -0 0 -1
vn -0 0 -1
vn -0 0 -1
vn -0 0.9486833 -0.3162277
vn -0 1 0
vn -0 1 0
vn -0 0.9486833 -0.31622776
vn -0 0 -1
vn -0 1 0
vn -0 1 0
vn -0 0.9486833 -0.31622785
vn -0 1 0
vn -0 0 -1
vn -0 -0.27020746 -0.9628021
vn -0 0.9486832 -0.3162279
vn -0 1 0
vn -0 0 -1
vn -0 0 -1
vn -0 0.70710677 -0.70710677
vn -0 -0.2702073 -0.96280223
vn -0 0.70710677 -0.70710677
vn -0 -0.27020732 -0.9628021
vn -0 -0.19611613 -0.9805807
vn -0 -0.70710826 -0.7071053
vn -0 -0.27020735 -0.9628021
vn -0 -0.70710826 -0.7071052
vn -0 -0.85596067 -0.517041
vn -0 -0.8559606 -0.517041
vn -0 -0.70710826 -0.7071052
vn -0 -0.8559605 -0.51704115
vn -0 -0.27020743 -0.9628021
vn -0 -0.70710826 -0.7071053
vn -0 -0.8559604 -0.5170413
vn -0 -0.70710826 -0.7071053
vn -0 -0.8559604 -0.5170415
vn -0 0 -1
vn -0 0 -1
vn -0 0 -1
vn -0 0 -1
vn -0 0 -1
vn -0 0 -1
vn -0 0 -1
vn -0 0 -1
vn -0 0 -1
vn -0 0 -1
vn -0 0 -1
vn -0 0 -1
vn -0 0 -1
vn -0 0 -1
vn -0 0 -1
vn -0 0 -1
vn -0 0 -1
vn -0 0 -1
vn -0 0 -1
g wall_y22_A_rampR_0
f 3/3/3 2/2/2 1/1/1
f 2/2/2 4/4/4 1/1/1
f 1/1/1 4/4/4 5/5/5
f 4/4/4 6/6/6 5/5/5
f 2/2/2 7/7/7 4/4/4
f 7/7/7 8/8/8 4/4/4
f 7/7/7 9/9/9 8/8/8
f 4/4/4 8/8/8 10/10/10
f 9/9/9 11/11/11 8/8/8
f 9/9/9 12/12/12 11/11/11
f 12/12/12 13/13/13 11/11/11
f 8/8/8 11/11/11 14/14/14
f 8/8/8 14/14/14 10/10/10
f 11/11/11 13/13/13 15/15/15
f 11/11/11 15/15/15 14/14/14
f 13/13/13 16/16/16 15/15/15
f 16/16/16 17/17/17 15/15/15
f 17/17/17 18/18/18 15/15/15
f 15/15/15 18/18/18 14/14/14
f 17/17/17 19/19/19 18/18/18
f 14/14/14 20/20/20 10/10/10
f 18/18/18 20/20/20 14/14/14
f 19/19/19 21/21/21 18/18/18
f 18/18/18 21/21/21 20/20/20
f 20/20/20 22/22/22 10/10/10
f 21/21/21 22/22/22 20/20/20
f 10/10/10 22/22/22 23/23/23
f 21/21/21 19/19/19 24/24/24
f 19/19/19 25/25/25 24/24/24
f 24/24/24 25/25/25 26/26/26
f 27/27/27 24/24/24 26/26/26
f 22/22/22 21/21/21 28/28/28
f 21/21/21 24/24/24 28/28/28
f 28/28/28 24/24/24 27/27/27
f 22/22/22 28/28/28 23/23/23
f 29/29/29 28/28/28 27/27/27
f 23/23/23 28/28/28 29/29/29
f 30/30/30 23/23/23 29/29/29
f 31/31/31 23/23/23 30/30/30
f 32/32/32 31/31/31 30/30/30
f 33/33/33 23/23/23 31/31/31
f 34/34/34 33/33/33 31/31/31
f 37/37/37 36/36/36 35/35/35
f 36/36/36 38/38/38 35/35/35
f 35/35/35 38/38/38 39/39/39
f 38/38/38 40/40/40 39/39/39
f 40/40/40 41/41/41 39/39/39
f 42/42/42 40/40/40 38/38/38
f 43/43/43 38/38/38 36/36/36
f 43/43/43 42/42/42 38/38/38
f 44/44/44 42/42/42 43/43/43
f 45/45/45 43/43/43 36/36/36
f 46/46/46 44/44/44 43/43/43
f 46/46/46 43/43/43 45/45/45
f 47/47/47 46/46/46 45/45/45
f 50/50/50 49/49/49 48/48/48
f 49/49/49 51/51/51 48/48/48
f 52/52/52 51/51/51 49/49/49
f 53/53/53 52/52/52 49/49/49
f 56/56/56 55/55/55 54/54/54
f 55/55/55 57/57/57 54/54/54
f 54/54/54 57/57/57 58/58/58
f 59/59/59 57/57/57 55/55/55
f 60/60/60 59/59/59 55/55/55
f 61/61/61 59/59/59 60/60/60
f 62/62/62 61/61/61 60/60/60
f 57/57/57 63/63/63 58/58/58
f 58/58/58 63/63/63 64/64/64
f 65/65/65 61/61/61 62/62/62
f 66/66/66 65/65/65 62/62/62
f 65/65/65 67/67/67 61/61/61
f 67/67/67 68/68/68 61/61/61
f 61/61/61 68/68/68 69/69/69
f 67/67/67 70/70/70 68/68/68
f 69/69/69 71/71/71 57/57/57
f 68/68/68 71/71/71 69/69/69
f 71/71/71 63/63/63 57/57/57
f 70/70/70 72/72/72 68/68/68
f 68/68/68 72/72/72 73/73/73
f 72/72/72 70/70/70 74/74/74
f 73/73/73 75/75/75 63/63/63
f 72/72/72 75/75/75 73/73/73
f 76/76/76 72/72/72 74/74/74
f 75/75/75 72/72/72 76/76/76
f 74/74/74 77/77/77 76/76/76
f 77/77/77 78/78/78 76/76/76
f 76/76/76 78/78/78 79/79/79
f 79/79/79 75/75/75 76/76/76
f 78/78/78 80/80/80 79/79/79
f 75/75/75 81/81/81 63/63/63
f 81/81/81 75/75/75 79/79/79
f 63/63/63 81/81/81 64/64/64
f 79/79/79 80/80/80 82/82/82
f 82/82/82 81/81/81 79/79/79
f 64/64/64 81/81/81 82/82/82
f 80/80/80 83/83/83 82/82/82
f 84/84/84 64/64/64 82/82/82
f 82/82/82 83/83/83 85/85/85
f 84/84/84 82/82/82 85/85/85
f 88/88/88 87/87/87 86/86/86
f 87/87/87 89/89/89 86/86/86
f 86/86/86 89/89/89 90/90/90
f 91/91/91 89/89/89 87/87/87
f 92/92/92 91/91/91 87/87/87
f 91/91/91 92/92/92 93/93/93
f 89/89/89 94/94/94 90/90/90
f 94/94/94 89/89/89 91/91/91
f 90/90/90 94/94/94 95/95/95
f 96/96/96 94/94/94 91/91/91
f 94/94/94 97/97/97 95/95/95
f 97/97/97 94/94/94 96/96/96
f 98/98/98 97/97/97 96/96/96
f 101/101/101 100/100/100 99/99/99
f 100/100/100 102/102/102 99/99/99
f 99/99/99 102/102/102 103/103/103
f 102/102/102 104/104/104 103/103/103
