g wall_y22_A_x8
v -4 0 -1.1920929E-07
v -0 0 -2.3841858E-07
v -0 0.25 -0.25000012
v -4 0.25 -0.25
v -8 0 0
v -0 0.75 -0.25000036
v -8 0.25 -0.24999988
v -4 0.75 -0.25000024
v -0 1.0366955 -0.17660975
v -8 0.75 -0.25000012
v -4 1.0366955 -0.17660964
v -0 1.25 -2.3841858E-07
v -8 1.0366955 -0.17660952
v -4 1.25 -1.1920929E-07
v -8 1.25 0
v -4 1.25 -1.1920929E-07
v -0 1.25 -2.3841858E-07
v -0 2.3881588 2.7656557E-07
v -4 2.3881588 3.957749E-07
v -8 1.25 0
v -8 2.3881588 5.1498415E-07
v -8 11.050007 1.7166138E-06
v -4 11.050007 1.5974045E-06
v -8 12 2.1457672E-06
v -0 11.050007 1.4781953E-06
v -4 12 2.026558E-06
v -0 12 1.9073486E-06
v -0 12 1.9073486E-06
v -0 20 1.9073486E-06
v -4 20 2.026558E-06
v -4 12 2.026558E-06
v -8 12 2.1457672E-06
v -8 20 2.1457672E-06
v -0 22 -0.5
v -0 22 0
v -4 22 3.7252903E-09
v -4 22 -0.5
v -0 21.75 -0.75000024
v -8 22 -0.5
v -8 22 7.450581E-09
v -8 21.75 -0.75
v -4 21.75 -0.7500001
v -8 20.5 -0.5
v -0 20.5 -0.50000024
v -4 20.5 -0.5000001
v -8 20.18829 -0.31171095
v -4 20.18829 -0.31171095
v -0 20.18829 -0.31171095
v -8 20 2.1457672E-06
v -0 20 1.9073486E-06
v -4 20 2.026558E-06
vt -0.24999997 0.40000004
vt 0 0.40000004
vt 0 0.36736876
vt -0.25 0.36736876
vt -0.49999994 0.40000004
vt 0 0.28727263
vt -0.5 0.36736876
vt -0.24999997 0.28727263
vt 0 0.2712465
vt -0.49999994 0.28727263
vt -0.24999997 0.2712465
vt 0 0.24587518
vt -0.49999994 0.2712465
vt -0.24999997 0.24587546
vt -0.49999997 0.24587575
vt 0.68245 0.12190017
vt 0.604632 0.12190022
vt 0.60463196 0.14578065
vt 0.68245 0.1457806
vt 0.760268 0.12190011
vt 0.760268 0.14578055
vt 0.760268 0.20150158
vt 0.68244994 0.20150158
vt 0.760268 0.22140193
vt 0.60463196 0.20150165
vt 0.68245 0.22140196
vt 0.60463196 0.221402
vt 0.0035187053 0.22821265
vt 0.0035187092 0.23921299
vt 0.04940115 0.23921299
vt 0.049401138 0.22821265
vt 0.09528357 0.22821265
vt 0.09528359 0.23921299
vt 0 0.381358
vt 0 0.40000004
vt 0.24999997 0.40000004
vt 0.24999997 0.3813579
vt 1.0012883E-15 0.36736876
vt 0.49999994 0.38135785
vt 0.49999994 0.40000004
vt 0.49999994 0.36736876
vt 0.24999997 0.36736876
vt 0.50000006 0.28727263
vt 0 0.28727263
vt 0.25000003 0.28727263
vt 0.50000006 0.2712465
vt 0.25000003 0.2712465
vt 0 0.2712465
vt 0.50000006 0.24828929
vt 0 0.24828963
vt 0.25000003 0.24828947
vn -0 -0.7071066 -0.7071069
vn -0 -0.7071066 -0.7071069
vn -0 -0.3162279 -0.9486833
vn -0 -0.3162279 -0.9486833
vn -0 -0.7071066 -0.70710695
vn -0 0.09288613 -0.9956768
vn -0 -0.3162279 -0.9486833
vn -0 0.09288613 -0.9956768
vn -0 0.44721368 -0.89442706
vn -0 0.09288613 -0.9956768
vn -0 0.44721368 -0.89442706
vn -0 0.63774264 -0.7702495
vn -0 0.44721374 -0.89442706
vn -0 0.63774264 -0.7702495
vn -0 0.63774264 -0.7702495
vn -0 0 -1
vn -0 0 -1
vn -0 0 -1
vn -0 0 -1
vn -0 0 -1
vn -0 0 -1
vn -0 0 -1
vn -0 0 -1
vn -0 0 -1
vn -0 0 -1
vn -0 0 -1
vn -0 0 -1
vn -0 0 -1
vn -0 0 -1
vn -0 0 -1
vn -0 0 -1
vn -0 0 -1
vn -0 0 -1
vn -0 0.9486833 -0.31622764
vn -0 1 0
vn -0 1 0
vn -0 0.9486833 -0.3162277
vn -0 0 -1
vn -0 0.9486833 -0.3162278
vn -0 1 0
vn -0 0 -1
vn -0 0 -1
vn -0 -0.2702074 -0.9628021
vn -0 -0.2702075 -0.9628021
vn -0 -0.27020743 -0.9628021
vn -0 -0.70710826 -0.7071052
vn -0 -0.70710826 -0.7071052
vn -0 -0.70710826 -0.7071052
vn -0 -0.8559605 -0.5170412
vn -0 -0.8559604 -0.5170413
vn -0 -0.8559605 -0.5170413
g wall_y22_A_x8_0
f 3/3/3 2/2/2 1/1/1
f 4/4/4 3/3/3 1/1/1
f 4/4/4 1/1/1 5/5/5
f 6/6/6 3/3/3 4/4/4
f 7/7/7 4/4/4 5/5/5
f 8/8/8 6/6/6 4/4/4
f 8/8/8 4/4/4 7/7/7
f 9/9/9 6/6/6 8/8/8
f 10/10/10 8/8/8 7/7/7
f 11/11/11 9/9/9 8/8/8
f 11/11/11 8/8/8 10/10/10
f 12/12/12 9/9/9 11/11/11
f 13/13/13 11/11/11 10/10/10
f 14/14/14 12/12/12 11/11/11
f 14/14/14 11/11/11 13/13/13
f 15/15/15 14/14/14 13/13/13
f 18/18/18 17/17/17 16/16/16
f 19/19/19 18/18/18 16/16/16
f 19/19/19 16/16/16 20/20/20
f 21/21/21 19/19/19 20/20/20
f 21/21/21 22/22/22 19/19/19
f 19/19/19 23/23/23 18/18/18
f 22/22/22 23/23/23 19/19/19
f 22/22/22 24/24/24 23/23/23
f 23/23/23 25/25/25 18/18/18
f 24/24/24 26/26/26 23/23/23
f 23/23/23 26/26/26 25/25/25
f 26/26/26 27/27/27 25/25/25
f 30/30/30 29/29/29 28/28/28
f 31/31/31 30/30/30 28/28/28
f 31/31/31 32/32/32 30/30/30
f 32/32/32 33/33/33 30/30/30
f 36/36/36 35/35/35 34/34/34
f 37/37/37 36/36/36 34/34/34
f 37/37/37 34/34/34 38/38/38
f 37/37/37 39/39/39 36/36/36
f 39/39/39 40/40/40 36/36/36
f 41/41/41 39/39/39 37/37/37
f 42/42/42 37/37/37 38/38/38
f 42/42/42 41/41/41 37/37/37
f 43/43/43 41/41/41 42/42/42
f 42/42/42 38/38/38 44/44/44
f 45/45/45 43/43/43 42/42/42
f 45/45/45 42/42/42 44/44/44
f 43/43/43 45/45/45 46/46/46
f 45/45/45 44/44/44 47/47/47
f 45/45/45 47/47/47 46/46/46
f 44/44/44 48/48/48 47/47/47
f 49/49/49 46/46/46 47/47/47
f 47/47/47 48/48/48 50/50/50
f 51/51/51 49/49/49 47/47/47
f 51/51/51 47/47/47 50/50/50
