g wall_deco_cap
v -0.6377754 0 3.7386208
v -0.9388542 -0.09597111 0
v -0.6377754 0 0
v -0.9388542 -0.09597111 3.686329
v -1.0635643 -0.32766533 0
v -1.0635643 -0.32175064 3.5562744
v -0.9388542 -0.2739029 3.8011436
v -0 0 0
v -0.6377754 0 3.7386208
v -0.6377754 0 0
v -0 0 3.7386208
v -0.6377754 -0.25653362 3.904152
v -0.9388542 -0.09597111 3.686329
v -0 -0.25653362 3.904152
v -0.9388542 -0.2739029 3.8011436
v -0.6377754 -5.71128 2.5753403
v -0 -5.71128 2.5753403
v -0.9388542 -5.663172 2.4882812
v -0.6377754 -5.8172226 2.4724617
v -0 -5.8172226 2.4724617
v -0.9388542 -5.738247 2.4153786
v -0.6377754 -6.921479 0.19612122
v -0 -6.921479 0.19612122
v -0 -7 0
v -0.9388542 -6.833647 0.15729523
v -0.6377754 -7 0
v -0.9388542 -6.8966236 0
v -1.0635643 -6.647051 0
v -1.0635643 -0.32766533 0
v -1.0635643 -0.32175064 3.5562744
v -1.0635643 -5.547306 2.2778358
v -0.9388542 -6.833647 0.15729523
v -0.9388542 -6.8966236 0
v -0.9388542 -5.738247 2.4153786
v -0.9388542 -5.663172 2.4882812
v -0.9388542 -0.2739029 3.8011436
v -0.6377754 0 -3.7386208
v -0.6377754 0 0
v -0.9388542 -0.09597111 0
v -0.9388542 -0.09597111 -3.686329
v -1.0635643 -0.32766533 0
v -1.0635643 -0.32175064 -3.5562744
v -0.9388542 -0.2739029 -3.8011436
v -0 0 0
v -0.6377754 0 0
v -0.6377754 0 -3.7386208
v -0 0 -3.7386208
v -0.6377754 -0.25653362 -3.904152
v -0.9388542 -0.09597111 -3.686329
v -0 -0.25653362 -3.904152
v -0.9388542 -0.2739029 -3.8011436
v -0.6377754 -5.71128 -2.5753403
v -0 -5.71128 -2.5753403
v -0.9388542 -5.663172 -2.4882812
v -0.6377754 -5.8172226 -2.4724617
v -0 -5.8172226 -2.4724617
v -0.9388542 -5.738247 -2.4153786
v -0.6377754 -6.921479 -0.19612122
v -0 -6.921479 -0.19612122
v -0 -7 0
v -0.9388542 -6.833647 -0.15729523
v -0.6377754 -7 0
v -0.9388542 -6.8966236 0
v -1.0635643 -6.647051 0
v -1.0635643 -0.32175064 -3.5562744
v -1.0635643 -0.32766533 0
v -1.0635643 -5.547306 -2.2778358
v -0.9388542 -6.833647 -0.15729523
v -0.9388542 -6.8966236 0
v -0.9388542 -5.738247 -2.4153786
v -0.9388542 -5.663172 -2.4882812
v -0.9388542 -0.2739029 -3.8011436
vt 1.2156563 0.387271
vt 1.0011945 0.38146043
vt 1.0011945 0.38727093
vt 1.2124908 0.38146064
vt 1.0011945 0.36743283
vt 1.2046168 0.36779103
vt 1.2194421 0.36808774
vt 0.96741927 0.40000004
vt 0.9795208 0.3813577
vt 0.9795208 0.40000004
vt 0.96741927 0.38135773
vt 0.97952074 0.36736876
vt 0.9999999 0.3813577
vt 0.9674192 0.36736876
vt 0.9999999 0.36736876
vt 0.97952104 0.28727263
vt 0.9674195 0.28727263
vt 1.0000001 0.28727263
vt 0.979521 0.2712465
vt 0.96741945 0.2712465
vt 1.0000001 0.2712465
vt 0.97952104 0.26378864
vt 0.9674195 0.26378864
vt 0.9674195 0.24828897
vt 1.0000001 0.26378864
vt 0.97952104 0.2521491
vt 1.0000001 0.25214908
vt 0.9602511 0.25989014
vt 0.9602511 0.3589951
vt 0.9052874 0.35842136
vt 0.9250462 0.2767102
vt 0.95754606 0.25703174
vt 0.95997727 0.25607365
vt 0.9226465 0.27378738
vt 0.9215199 0.2749511
vt 0.901229 0.35922334
vt 1.2156563 0.387271
vt 1.0011945 0.38727093
vt 1.0011945 0.38146043
vt 1.2124908 0.38146064
vt 1.0011945 0.36743283
vt 1.2046168 0.36779103
vt 1.2194421 0.36808774
vt 0.96741927 0.40000004
vt 0.9795208 0.40000004
vt 0.9795208 0.3813577
vt 0.96741927 0.38135773
vt 0.97952074 0.36736876
vt 0.9999999 0.3813577
vt 0.9674192 0.36736876
vt 0.9999999 0.36736876
vt 0.97952104 0.28727263
vt 0.9674195 0.28727263
vt 1.0000001 0.28727263
vt 0.979521 0.2712465
vt 0.96741945 0.2712465
vt 1.0000001 0.2712465
vt 0.97952104 0.26378864
vt 0.9674195 0.26378864
vt 0.9674195 0.24828897
vt 1.0000001 0.26378864
vt 0.97952104 0.2521491
vt 1.0000001 0.25214908
vt 0.9602511 0.25989014
vt 0.9052874 0.35842136
vt 0.9602511 0.3589951
vt 0.9250462 0.2767102
vt 0.95754606 0.25703174
vt 0.95997727 0.25607365
vt 0.9226465 0.27378738
vt 0.9215199 0.2749511
vt 0.901229 0.35922334
vn -0.09608425 0.99340606 0.06254832
vn -0.60240704 0.7981891 0
vn -0.1012124 0.9948649 0
vn -0.53648055 0.8428629 0.042081576
vn -0.9996612 0.026026415 0
vn -0.99848205 0.023382105 0.049870066
vn -0.5479981 -0.17473221 0.8180262
vn -0 1 0
vn -0.09608425 0.99340606 0.06254832
vn -0.1012124 0.9948649 0
vn -0 0.9978483 0.065566376
vn -0.09638695 -0.20024773 0.97499245
vn -0.53648055 0.8428629 0.042081576
vn -0 -0.19958335 0.97988087
vn -0.5479981 -0.17473221 0.8180262
vn -0.0977125 -0.24760972 0.96392
vn -0 -0.24933486 0.9684173
vn -0.5691031 -0.2024262 0.79696006
vn -0.098833814 -0.8873158 0.450447
vn -0 -0.89132035 0.45337394
vn -0.58740085 -0.72325766 0.36312327
vn -0.10046335 -0.8974625 0.42949754
vn -0 -0.90209216 0.43154332
vn -0 -0.92835915 0.3716842
vn -0.6247281 -0.7039797 0.33782753
vn -0.09634494 -0.99534804 0
vn -0.4748485 -0.8800676 0
vn -0.99979836 -0.020081913 0
vn -0.9996612 0.026026415 0
vn -0.99848205 0.023382105 0.049870066
vn -0.9991918 -0.019248428 0.035286825
vn -0.6247281 -0.7039797 0.33782753
vn -0.4748485 -0.8800676 0
vn -0.58740085 -0.72325766 0.36312327
vn -0.5691031 -0.2024262 0.79696006
vn -0.5479981 -0.17473221 0.8180262
vn -0.09608422 0.99340606 -0.062548324
vn -0.1012124 0.9948649 0
vn -0.60240704 0.7981891 0
vn -0.53648055 0.8428629 -0.04208159
vn -0.9996612 0.026026415 0
vn -0.99848205 0.023382114 -0.049870063
vn -0.5479977 -0.17473224 -0.8180263
vn -0 1 0
vn -0.1012124 0.9948649 0
vn -0.09608422 0.99340606 -0.062548324
vn -0 0.9978483 -0.065566376
vn -0.096386805 -0.20024775 -0.9749926
vn -0.53648055 0.8428629 -0.04208159
vn -0 -0.19958335 -0.97988087
vn -0.5479977 -0.17473224 -0.8180263
vn -0.09771237 -0.24760972 -0.96392
vn -0 -0.24933486 -0.9684173
vn -0.5691029 -0.20242621 -0.7969601
vn -0.09883382 -0.8873158 -0.450447
vn -0 -0.89132035 -0.45337394
vn -0.58740085 -0.7232577 -0.36312324
vn -0.10046336 -0.8974625 -0.42949754
vn -0 -0.90209216 -0.43154332
vn -0 -0.92835915 -0.3716842
vn -0.624728 -0.7039797 -0.33782753
vn -0.09634494 -0.99534804 0
vn -0.4748485 -0.8800676 0
vn -0.99979836 -0.020081913 0
vn -0.99848205 0.023382114 -0.049870063
vn -0.9996612 0.026026415 0
vn -0.9991918 -0.019248428 -0.035286818
vn -0.624728 -0.7039797 -0.33782753
vn -0.4748485 -0.8800676 0
vn -0.58740085 -0.7232577 -0.36312324
vn -0.5691029 -0.20242621 -0.7969601
vn -0.5479977 -0.17473224 -0.8180263
g wall_deco_cap_0
f 3/3/3 2/2/2 1/1/1
f 2/2/2 4/4/4 1/1/1
f 2/2/2 5/5/5 4/4/4
f 5/5/5 6/6/6 4/4/4
f 4/4/4 6/6/6 7/7/7
f 10/10/10 9/9/9 8/8/8
f 9/9/9 11/11/11 8/8/8
f 9/9/9 12/12/12 11/11/11
f 9/9/9 13/13/13 12/12/12
f 12/12/12 14/14/14 11/11/11
f 13/13/13 15/15/15 12/12/12
f 12/12/12 16/16/16 14/14/14
f 12/12/12 15/15/15 16/16/16
f 16/16/16 17/17/17 14/14/14
f 15/15/15 18/18/18 16/16/16
f 17/17/17 16/16/16 19/19/19
f 19/19/19 16/16/16 18/18/18
f 20/20/20 17/17/17 19/19/19
f 21/21/21 19/19/19 18/18/18
f 19/19/19 22/22/22 20/20/20
f 19/19/19 21/21/21 22/22/22
f 22/22/22 23/23/23 20/20/20
f 24/24/24 23/23/23 22/22/22
f 21/21/21 25/25/25 22/22/22
f 26/26/26 24/24/24 22/22/22
f 22/22/22 25/25/25 26/26/26
f 25/25/25 27/27/27 26/26/26
f 30/30/30 29/29/29 28/28/28
f 31/31/31 30/30/30 28/28/28
f 31/31/31 28/28/28 32/32/32
f 32/32/32 28/28/28 33/33/33
f 34/34/34 31/31/31 32/32/32
f 34/34/34 35/35/35 31/31/31
f 30/30/30 31/31/31 35/35/35
f 36/36/36 30/30/30 35/35/35
f 39/39/39 38/38/38 37/37/37
f 40/40/40 39/39/39 37/37/37
f 41/41/41 39/39/39 40/40/40
f 42/42/42 41/41/41 40/40/40
f 42/42/42 40/40/40 43/43/43
f 46/46/46 45/45/45 44/44/44
f 47/47/47 46/46/46 44/44/44
f 48/48/48 46/46/46 47/47/47
f 49/49/49 46/46/46 48/48/48
f 50/50/50 48/48/48 47/47/47
f 51/51/51 49/49/49 48/48/48
f 52/52/52 48/48/48 50/50/50
f 51/51/51 48/48/48 52/52/52
f 53/53/53 52/52/52 50/50/50
f 54/54/54 51/51/51 52/52/52
f 52/52/52 53/53/53 55/55/55
f 52/52/52 55/55/55 54/54/54
f 53/53/53 56/56/56 55/55/55
f 55/55/55 57/57/57 54/54/54
f 58/58/58 55/55/55 56/56/56
f 57/57/57 55/55/55 58/58/58
f 59/59/59 58/58/58 56/56/56
f 59/59/59 60/60/60 58/58/58
f 61/61/61 57/57/57 58/58/58
f 60/60/60 62/62/62 58/58/58
f 61/61/61 58/58/58 62/62/62
f 63/63/63 61/61/61 62/62/62
f 66/66/66 65/65/65 64/64/64
f 65/65/65 67/67/67 64/64/64
f 64/64/64 67/67/67 68/68/68
f 64/64/64 68/68/68 69/69/69
f 67/67/67 70/70/70 68/68/68
f 71/71/71 70/70/70 67/67/67
f 67/67/67 65/65/65 71/71/71
f 65/65/65 72/72/72 71/71/71
