g wall_y6_A_x8
v -4 6 0.75
v -8 6 0.75
v -8 6.0972795 0.6813718
v -4 6.0972795 0.6813718
v -8 6.121196 0.38227797
v -0 6.0972795 0.6813718
v -0 6 0.75
v -0 6.1211953 0.38227797
v -4 6.121196 0.38227797
v -8 6.0972795 0.08318424
v -0 6.0972795 0.08318424
v -4 6.0972795 0.08318424
v -8 6 0.022952795
v -0 6 0.022952795
v -4 6 0.022952795
v -4 0 -1.1920929E-07
v -0 0 -2.3841858E-07
v -0 0.25 -0.25000012
v -4 0.25 -0.25
v -8 0 0
v -0 0.75 -0.25000036
v -8 0.25 -0.24999988
v -4 0.75 -0.25000024
v -0 1.0366955 -0.17660975
v -8 0.75 -0.25000012
v -4 1.0366955 -0.17660964
v -0 1.25 -2.3841858E-07
v -8 1.0366955 -0.17660952
v -4 1.25 -1.1920929E-07
v -8 1.25 0
v -4 1.25 -1.1920929E-07
v -0 1.25 -2.3841858E-07
v -0 2.3881588 2.7656557E-07
v -4 2.3881588 3.957749E-07
v -8 1.25 0
v -8 2.3881588 5.1498415E-07
v -4 2.3881588 3.957749E-07
v -8 5.7806716 9.475708E-07
v -8 2.3881588 5.1498415E-07
v -4 5.7806716 8.283615E-07
v -0 2.3881588 2.7656557E-07
v -0 5.7806716 7.091523E-07
v -0 6 7.572175E-07
v -0 6 0.24999976
v -4 6 0.24999988
v -4 6 8.764267E-07
v -0 5.7806716 7.091523E-07
v -8 6 0.25
v -4 5.7806716 8.283615E-07
v -8 6 9.95636E-07
v -8 5.7806716 9.475708E-07
vt -0.7499999 0.37723908
vt -0.49999994 0.37723908
vt -0.5 0.36736876
vt -0.75 0.36736876
vt -0.49999994 0.31313133
vt -1 0.36736876
vt -0.9999999 0.37723908
vt -0.9999999 0.31313133
vt -0.7499999 0.31313133
vt -0.49999994 0.25986603
vt -0.9999999 0.25986603
vt -0.7499999 0.25986603
vt -0.49999997 0.24675116
vt -0.99999994 0.24675173
vt -0.74999994 0.24675144
vt -0.24999997 0.40000004
vt 0 0.40000004
vt 0 0.36736876
vt -0.25 0.36736876
vt -0.49999994 0.40000004
vt 0 0.28727263
vt -0.5 0.36736876
vt -0.24999997 0.28727263
vt 0 0.2712465
vt -0.49999994 0.28727263
vt -0.24999997 0.2712465
vt 0 0.24587518
vt -0.49999994 0.2712465
vt -0.24999999 0.24587546
vt -0.49999997 0.24587575
vt 1.1216617 0.39825606
vt 1.1994796 0.3982561
vt 1.1994796 0.37437567
vt 1.1216615 0.37437576
vt 1.0438436 0.39825612
vt 1.0438436 0.37437573
vt 1.1216615 0.37437576
vt 1.0438437 0.35431612
vt 1.0438436 0.37437573
vt 1.1216615 0.354316
vt 1.1994796 0.37437567
vt 1.1994796 0.35431603
vt 0.604632 0.3717932
vt 0.604632 0.3815527
vt 0.68245006 0.3815525
vt 0.6824501 0.37179303
vt 0.604632 0.3652869
vt 0.760268 0.38155234
vt 0.68245006 0.36528677
vt 0.760268 0.37179297
vt 0.760268 0.36528677
vn -0 0.5764605 0.817125
vn -0 0.5764605 0.817125
vn -0 0.94974583 0.31302238
vn -0 0.94974583 0.31302238
vn -0 1 0
vn -0 0.94974583 0.31302238
vn -0 1 0
vn -0 1 0
vn -0 1 0
vn -0 0.9475534 -0.31959766
vn -0 0.9475534 -0.31959766
vn -0 0.94755334 -0.3195977
vn -0 0.5264227 -0.850223
vn -0 0.5264227 -0.850223
vn -0 0.5264227 -0.850223
vn -0 -0.7071066 -0.7071069
vn -0 -0.7071066 -0.7071069
vn -0 -0.3162279 -0.9486833
vn -0 -0.3162279 -0.9486833
vn -0 -0.7071066 -0.70710695
vn -0 0.09288613 -0.9956768
vn -0 -0.3162279 -0.9486833
vn -0 0.09288613 -0.9956768
vn -0 0.44721368 -0.89442706
vn -0 0.09288613 -0.9956768
vn -0 0.44721368 -0.89442706
vn -0 0.63774264 -0.7702495
vn -0 0.44721374 -0.89442706
vn -0 0.63774264 -0.7702495
vn -0 0.63774264 -0.7702495
vn -0 0 -1
vn -0 0 -1
vn -0 0 -1
vn -0 0 -1
vn -0 0 -1
vn -0 0 -1
vn -0 0 -1
vn -0 0 -1
vn -0 0 -1
vn -0 0 -1
vn -0 0 -1
vn -0 0 -1
vn -0 0.75171286 -0.6594906
vn -0 1 0
vn -0 1 0
vn -0 0.75171286 -0.6594906
vn -0 0 -1
vn -0 1 0
vn -0 0 -1
vn -0 0.75171286 -0.6594905
vn -0 0 -1
g wall_y6_A_x8_0
f 3/3/3 2/2/2 1/1/1
f 4/4/4 3/3/3 1/1/1
f 5/5/5 3/3/3 4/4/4
f 4/4/4 1/1/1 6/6/6
f 1/1/1 7/7/7 6/6/6
f 4/4/4 6/6/6 8/8/8
f 9/9/9 5/5/5 4/4/4
f 9/9/9 4/4/4 8/8/8
f 10/10/10 5/5/5 9/9/9
f 9/9/9 8/8/8 11/11/11
f 12/12/12 10/10/10 9/9/9
f 12/12/12 9/9/9 11/11/11
f 13/13/13 10/10/10 12/12/12
f 12/12/12 11/11/11 14/14/14
f 15/15/15 13/13/13 12/12/12
f 15/15/15 12/12/12 14/14/14
f 18/18/18 17/17/17 16/16/16
f 19/19/19 18/18/18 16/16/16
f 19/19/19 16/16/16 20/20/20
f 21/21/21 18/18/18 19/19/19
f 22/22/22 19/19/19 20/20/20
f 23/23/23 21/21/21 19/19/19
f 23/23/23 19/19/19 22/22/22
f 24/24/24 21/21/21 23/23/23
f 25/25/25 23/23/23 22/22/22
f 26/26/26 24/24/24 23/23/23
f 26/26/26 23/23/23 25/25/25
f 27/27/27 24/24/24 26/26/26
f 28/28/28 26/26/26 25/25/25
f 29/29/29 27/27/27 26/26/26
f 29/29/29 26/26/26 28/28/28
f 30/30/30 29/29/29 28/28/28
f 33/33/33 32/32/32 31/31/31
f 34/34/34 33/33/33 31/31/31
f 34/34/34 31/31/31 35/35/35
f 36/36/36 34/34/34 35/35/35
f 39/39/39 38/38/38 37/37/37
f 38/38/38 40/40/40 37/37/37
f 37/37/37 40/40/40 41/41/41
f 40/40/40 42/42/42 41/41/41
f 45/45/45 44/44/44 43/43/43
f 46/46/46 45/45/45 43/43/43
f 46/46/46 43/43/43 47/47/47
f 48/48/48 45/45/45 46/46/46
f 49/49/49 46/46/46 47/47/47
f 50/50/50 48/48/48 46/46/46
f 50/50/50 46/46/46 49/49/49
f 51/51/51 50/50/50 49/49/49
