g wall_y6_A_angled1
v -7.75 6 6.749998
v -8 6 6.75
v -8 6.0972795 6.6813717
v -7.75 6.0972805 6.6813717
v -7.5 6 6.6998386
v -8 6.1211953 6.3822765
v -7.5 6.09728 6.6312103
v -0.5 6 0.81056404
v -7.75 6.121196 6.3822746
v -8 6.0972795 6.0831814
v -0.5 6.0972795 0.74193573
v -0.25 6 0.75
v -7.75 6.0972805 6.0831814
v -8 6 6.022953
v -7.75 6.0000005 6.022953
v -7.5 6.121196 6.3321133
v -7.5 6.09728 6.03302
v -7.5 6 5.9727917
v -0.5 6 0.083517075
v -0.5 6.121196 0.44284248
v -0.25 6.0972795 0.6813717
v -0.5 6.0972795 0.14374924
v -0 6.0972795 0.6813717
v -0 6 0.75
v -0 6.1211953 0.38227844
v -0.25 6.1211953 0.38227844
v -0 6.0972795 0.083185196
v -0.25 6.0972795 0.083185196
v -0.25 6 0.022953033
v -0 6 0.022953033
v -0 0.25 -0.2500038
v -0.25071716 3.5527137E-15 -3.8146973E-06
v -0 3.5527137E-15 -3.8146973E-06
v -0.24837494 0.25 -0.2500038
v -0.4995575 3.5527137E-15 0.051267624
v -0.49589157 0.25 -0.20082855
v -7.5041046 0.25 5.7008247
v -7.5004425 0 5.9487286
v -7.749283 0 6
v -7.751625 0.25 5.75
v -8.001526 0.25 5.75
v -7.9993286 0 6
v -0 0.75 -0.2500038
v -0.24837494 0.25 -0.2500038
v -0 0.25 -0.2500038
v -0.24910355 0.75 -0.2500038
v -0 1.0366955 -0.17661285
v -0.49589157 0.25 -0.20082855
v -0.248806 1.0366955 -0.17661285
v -0 1.25 -3.8146973E-06
v -0.24853134 1.25 -3.8146973E-06
v -0.49525833 0.75 -0.20119095
v -0.49617386 1.0366955 -0.12727547
v -0.49575424 1.25 0.049093246
v -7.504242 1.25 5.950903
v -7.5047455 0.75 5.701185
v -7.5041046 0.25 5.7008247
v -7.751625 0.25 5.75
v -7.5038223 1.0366955 5.7740536
v -7.7508926 0.75 5.75
v -7.75119 1.0366955 5.823391
v -7.751465 1.25 6
v -8.001373 1.25 6
v -8.0011215 1.0366955 5.823391
v -8.000839 0.75 5.75
v -8.001526 0.25 5.75
v -0 2.3881588 -3.8146973E-06
v -0.24853134 1.25 -3.8146973E-06
v -0 1.25 -3.8146973E-06
v -0.24920654 2.3881588 -3.8146973E-06
v -0.49575424 1.25 0.049093246
v -0.4951706 2.3881588 0.048761368
v -7.5048294 2.3881588 5.951235
v -7.504242 1.25 5.950903
v -7.751465 1.25 6
v -7.7507935 2.3881588 6
v -8.000748 2.3881588 6
v -8.001373 1.25 6
v -0 5.7806716 -3.8146973E-06
v -0.24920654 2.3881588 -3.8146973E-06
v -0 2.3881588 -3.8146973E-06
v -0.24920654 5.7806716 -3.8146973E-06
v -0.4951706 2.3881588 0.048761368
v -0.4951706 5.7806716 0.048761368
v -7.5048294 2.3881588 5.951235
v -7.5048294 5.7806716 5.951235
v -7.7507935 2.3881588 6
v -7.7507935 5.7806716 6
v -8.000748 5.780671 6
v -8.000748 2.3881588 6
v -0 6 -3.8146973E-06
v -0.24920654 5.7806716 -3.8146973E-06
v -0 5.7806716 -3.8146973E-06
v -0.24750137 6 -3.8146973E-06
v -0 6.09728 0.24999619
v -0.4951706 5.7806716 0.048761368
v -0.25249863 6.09728 0.24999619
v -0.4966507 6 0.049606323
v -7.5048294 5.7806716 5.951235
v -0.5048294 6.09728 0.30427742
v -7.5033493 6 5.950392
v -7.4951706 6.09728 6.195717
v -7.7507935 5.7806716 6
v -7.7525024 6 6
v -7.7474976 6.09728 6.25
v -7.997658 6.09728 6.25
v -8.002342 6 6
v -8.000748 5.780671 6
v -2 6 6
v -0 6 4
v -0 6 6
v -2 6 4
v -4 6 6
v -0 6 2
v -4 6 4
v -6 6 6
v -2 6 2
v -0 6 0
v -2.166668 6 1.8571434
v -4.333336 6 3.714285
v -6 6 5.1428585
v -7 6 6
vt -0.025157794 0.37723908
vt 0 0.37723908
vt 0 0.36736876
vt -0.025157824 0.36736876
vt -0.049699545 0.37723908
vt 0 0.31313133
vt -0.049699575 0.36736876
vt -0.95030034 0.37723908
vt -0.025157794 0.31313133
vt 0 0.25986603
vt -0.95030046 0.36736876
vt -0.97484195 0.37723908
vt -0.025157794 0.25986603
vt 0 0.2467506
vt -0.02515781 0.24675088
vt -0.049699545 0.31313133
vt -0.049699545 0.25986603
vt -0.04969956 0.24675088
vt -0.95030034 0.24675144
vt -0.95030034 0.31313133
vt -0.9748422 0.36736876
vt -0.95030034 0.25986603
vt -1 0.36736876
vt -0.9999999 0.37723908
vt -0.9999999 0.31313133
vt -0.9748421 0.31313133
vt -0.9999999 0.25986603
vt -0.9748421 0.25986603
vt -0.9748421 0.24675152
vt -0.99999994 0.24675173
vt -1 0.36736876
vt -0.7741929 0.40000004
vt -0.9999999 0.40000004
vt -0.7747792 0.36736876
vt -0.7467954 0.40000004
vt -0.7469276 0.36736876
vt -0.5030735 0.3673688
vt -0.5032044 0.40000004
vt -0.49395174 0.40000004
vt -0.49380493 0.36736876
vt -0.4785933 0.36736873
vt -0.47873083 0.40000004
vt -0.9999999 0.28727263
vt -0.7747792 0.36736876
vt -1 0.36736876
vt -0.7745966 0.28727263
vt -0.9999999 0.2712465
vt -0.7469276 0.36736876
vt -0.77467144 0.27124646
vt -0.99999994 0.24587633
vt -0.7747397 0.24587607
vt -0.746949 0.28727263
vt -0.74691623 0.2712465
vt -0.7469312 0.24587603
vt -0.50306857 0.24587575
vt -0.5030508 0.28727263
vt -0.5030735 0.3673688
vt -0.49380493 0.36736876
vt -0.5030835 0.2712465
vt -0.49385026 0.28727263
vt -0.49383196 0.2712465
vt -0.49381503 0.24587575
vt -0.47860277 0.24587573
vt -0.47861862 0.2712465
vt -0.4786358 0.28727263
vt -0.4785933 0.36736873
vt 1.0371834 0.37454754
vt 1.1073006 0.3984279
vt 1.0371834 0.3984279
vt 1.107353 0.37454742
vt 1.1159568 0.39842796
vt 1.1159501 0.37454742
vt 1.1918708 0.37454733
vt 1.1918644 0.39842772
vt 1.1947446 0.39842784
vt 1.1947316 0.37454733
vt 1.1994675 0.37454733
vt 1.1994798 0.39842787
vt 1.0371833 0.3544879
vt 1.107353 0.37454742
vt 1.0371834 0.37454754
vt 1.107353 0.35448787
vt 1.1159501 0.37454742
vt 1.1159501 0.3544879
vt 1.1918708 0.37454733
vt 1.1918708 0.35448784
vt 1.1947316 0.37454733
vt 1.1947316 0.35448784
vt 1.1994675 0.35448784
vt 1.1994675 0.37454733
vt 0.915904 0.37173328
vt 0.8457345 0.3652272
vt 0.91590405 0.36522686
vt 0.84586704 0.37173346
vt 0.91590405 0.3814927
vt 0.83713734 0.36522716
vt 0.84547824 0.38149282
vt 0.8371209 0.37173346
vt 0.7421607 0.36522737
vt 0.8370298 0.38149282
vt 0.7421775 0.37173358
vt 0.7422681 0.38149303
vt 0.7392999 0.36522734
vt 0.7392664 0.37173364
vt 0.739364 0.38149297
vt 0.734624 0.381493
vt 0.7345326 0.37173358
vt 0.7345639 0.36522737
vt 0.75 0
vt 1 0.25
vt 1 0
vt 0.75 0.25
vt 0.5 0
vt 1 0.5
vt 0.5 0.25
vt 0.25 0
vt 0.75 0.5
vt 1 0.75
vt 0.7291666 0.51785713
vt 0.45833337 0.28571424
vt 0.25 0.10714275
vt 0.125 0
vn 0.07865527 0.5746671 0.81459874
vn -0 0.576454 0.8171297
vn -0 0.949746 0.3130216
vn 0.033716973 0.94314003 0.33068126
vn 0.55216986 0.48061427 0.6812624
vn -0 1 0
vn 0.35459983 0.82954156 0.43141598
vn 0.5594391 0.47781295 0.6772906
vn 0.0010070051 0.9999869 0.005023336
vn -0 0.94755244 -0.31960016
vn 0.17845994 0.9594203 0.21832253
vn 0.10254407 0.5734223 0.8128171
vn -0.029927084 0.952638 -0.30263048
vn -0 0.52640134 -0.8502363
vn -0.0876857 0.52437276 -0.8469619
vn 0.028713886 0.9990138 0.033865668
vn -0.18303828 0.9572056 -0.22417513
vn -0.57391435 0.43108934 -0.6962645
vn -0.56866777 0.4330126 -0.6993691
vn -0.028682716 0.9990171 -0.033796553
vn 0.03477449 0.9554686 0.2930368
vn -0.3622359 0.8216002 -0.44017988
vn -0 0.949746 0.31302154
vn -0 1 0
vn -0 1 0
vn -0.0014602983 0.9999808 -0.006029831
vn -0 0.94755375 -0.31959635
vn -0.04201711 0.9390422 -0.3412246
vn -0.09826595 0.52387935 -0.84610534
vn -0 0.52642715 -0.85022014
vn -0 -0.70710677 -0.70710677
vn -0.07451545 -0.7054652 -0.7048164
vn -0 -0.70710677 -0.70710677
vn -0.06756174 -0.70578516 -0.705197
vn -0.5047883 -0.61041594 -0.61039424
vn -0.4961942 -0.61394507 -0.6138915
vn -0.5046014 -0.6104672 -0.6104975
vn -0.49666643 -0.6136975 -0.6137572
vn -0.06805855 -0.7051708 -0.7057634
vn -0.07384936 -0.70485437 -0.70549744
vn -0 -0.70710677 -0.70710677
vn -0 -0.70710677 -0.70710677
vn -0 0.09293756 -0.995672
vn -0.09829359 -0.00018881822 -0.9951574
vn -0 0 -1
vn -0.097548366 0.09156723 -0.9910095
vn -0 0.4470987 -0.8944846
vn -0.6341829 -1.6451559E-05 -0.77318305
vn -0.087819085 0.44008628 -0.8936509
vn -0 0.6377421 -0.77025
vn -0.07906966 0.63568884 -0.7678853
vn -0.63221383 0.067309424 -0.7718647
vn -0.5985999 0.32714975 -0.73119855
vn -0.5368098 0.5380625 -0.64986455
vn -0.5294084 0.54104376 -0.65345114
vn -0.6327593 0.07614509 -0.7705956
vn -0.63418317 0 -0.7731828
vn -0.09806306 0.00018707439 -0.99518025
vn -0.58480966 0.38924238 -0.71167976
vn -0.09841095 0.09330329 -0.9907622
vn -0.088533744 0.45087448 -0.88818574
vn -0.07283233 0.6360998 -0.7681617
vn -0 0.63774157 -0.77025044
vn -0 0.4473247 -0.89437157
vn -0 0.092874825 -0.9956779
vn -0 0 -1
vn -0 0 -1
vn -0.098243564 -7.61265E-05 -0.9951624
vn -0 0 -1
vn -0.09808486 -1.9146932E-05 -0.995178
vn -0.6341775 0 -0.7731874
vn -0.63417834 0 -0.7731868
vn -0.63417834 0 -0.77318686
vn -0.6341775 0 -0.7731874
vn -0.09803575 7.564723E-05 -0.99518293
vn -0.09792331 1.9035258E-05 -0.9951939
vn -0 0 -1
vn -0 0 -1
vn -0 0 -1
vn -0.09808486 -1.9146932E-05 -0.995178
vn -0 0 -1
vn -0.098078474 6.156688E-05 -0.9951787
vn -0.63417834 0 -0.7731868
vn -0.63417566 0 -0.773189
vn -0.63417834 0 -0.77318686
vn -0.63417566 0 -0.7731889
vn -0.09792331 1.9035258E-05 -0.9951939
vn -0.09792306 -6.139178E-05 -0.9951939
vn -0 0 -1
vn -0 0 -1
vn -0 0.621459 -0.7834467
vn -0.098078474 6.156688E-05 -0.9951787
vn -0 0 -1
vn -0.077551566 0.60544765 -0.7920978
vn -0 0.9319318 -0.36263344
vn -0.63417566 0 -0.773189
vn -0.040151432 0.9314343 -0.36168757
vn -0.58475417 0.38049036 -0.7164423
vn -0.63417566 0 -0.7731889
vn -0.2879265 0.89247614 -0.34725305
vn -0.50887233 0.5991392 -0.6181271
vn -0.27987355 0.8946608 -0.34821397
vn -0.09792306 -6.139178E-05 -0.9951939
vn -0.07820753 0.63317317 -0.7700489
vn -0.03561136 0.9311146 -0.36298406
vn -0 0.9319316 -0.362634
vn -0 0.6180911 -0.78610647
vn -0 0 -1
vn -0 1 0
vn -0 1 0
vn -0 1 0
vn -0 1 0
vn -0 1 0
vn -0 1 0
vn -0 1 0
vn -0 1 0
vn -0 1 0
vn -0 1 0
vn -0 1 0
vn -0 1 0
vn -0 1 0
vn -0 1 0
g wall_y6_A_angled1_0
f 3/3/3 2/2/2 1/1/1
f 4/4/4 3/3/3 1/1/1
f 4/4/4 1/1/1 5/5/5
f 6/6/6 3/3/3 4/4/4
f 7/7/7 4/4/4 5/5/5
f 5/5/5 8/8/8 7/7/7
f 9/9/9 6/6/6 4/4/4
f 9/9/9 4/4/4 7/7/7
f 10/10/10 6/6/6 9/9/9
f 8/8/8 11/11/11 7/7/7
f 11/11/11 8/8/8 12/12/12
f 13/13/13 10/10/10 9/9/9
f 14/14/14 10/10/10 13/13/13
f 15/15/15 14/14/14 13/13/13
f 16/16/16 9/9/9 7/7/7
f 13/13/13 9/9/9 16/16/16
f 7/7/7 11/11/11 16/16/16
f 15/15/15 13/13/13 17/17/17
f 17/17/17 13/13/13 16/16/16
f 18/18/18 15/15/15 17/17/17
f 18/18/18 17/17/17 19/19/19
f 11/11/11 20/20/20 16/16/16
f 16/16/16 20/20/20 17/17/17
f 21/21/21 11/11/11 12/12/12
f 20/20/20 11/11/11 21/21/21
f 17/17/17 22/22/22 19/19/19
f 20/20/20 22/22/22 17/17/17
f 21/21/21 12/12/12 23/23/23
f 12/12/12 24/24/24 23/23/23
f 21/21/21 23/23/23 25/25/25
f 26/26/26 20/20/20 21/21/21
f 26/26/26 21/21/21 25/25/25
f 22/22/22 20/20/20 26/26/26
f 26/26/26 25/25/25 27/27/27
f 19/19/19 22/22/22 28/28/28
f 28/28/28 22/22/22 26/26/26
f 28/28/28 26/26/26 27/27/27
f 29/29/29 19/19/19 28/28/28
f 28/28/28 27/27/27 30/30/30
f 29/29/29 28/28/28 30/30/30
f 33/33/33 32/32/32 31/31/31
f 32/32/32 34/34/34 31/31/31
f 34/34/34 32/32/32 35/35/35
f 36/36/36 34/34/34 35/35/35
f 37/37/37 36/36/36 35/35/35
f 38/38/38 37/37/37 35/35/35
f 37/37/37 38/38/38 39/39/39
f 40/40/40 37/37/37 39/39/39
f 41/41/41 40/40/40 39/39/39
f 42/42/42 41/41/41 39/39/39
f 45/45/45 44/44/44 43/43/43
f 44/44/44 46/46/46 43/43/43
f 43/43/43 46/46/46 47/47/47
f 46/46/46 44/44/44 48/48/48
f 46/46/46 49/49/49 47/47/47
f 47/47/47 49/49/49 50/50/50
f 49/49/49 51/51/51 50/50/50
f 52/52/52 46/46/46 48/48/48
f 49/49/49 46/46/46 52/52/52
f 51/51/51 49/49/49 53/53/53
f 53/53/53 49/49/49 52/52/52
f 54/54/54 51/51/51 53/53/53
f 55/55/55 54/54/54 53/53/53
f 56/56/56 52/52/52 48/48/48
f 57/57/57 56/56/56 48/48/48
f 56/56/56 57/57/57 58/58/58
f 59/59/59 53/53/53 52/52/52
f 59/59/59 55/55/55 53/53/53
f 56/56/56 59/59/59 52/52/52
f 60/60/60 56/56/56 58/58/58
f 59/59/59 56/56/56 60/60/60
f 55/55/55 59/59/59 61/61/61
f 61/61/61 59/59/59 60/60/60
f 62/62/62 55/55/55 61/61/61
f 63/63/63 62/62/62 61/61/61
f 64/64/64 63/63/63 61/61/61
f 64/64/64 61/61/61 60/60/60
f 65/65/65 64/64/64 60/60/60
f 65/65/65 60/60/60 58/58/58
f 66/66/66 65/65/65 58/58/58
f 69/69/69 68/68/68 67/67/67
f 68/68/68 70/70/70 67/67/67
f 70/70/70 68/68/68 71/71/71
f 72/72/72 70/70/70 71/71/71
f 73/73/73 72/72/72 71/71/71
f 74/74/74 73/73/73 71/71/71
f 73/73/73 74/74/74 75/75/75
f 76/76/76 73/73/73 75/75/75
f 77/77/77 76/76/76 75/75/75
f 78/78/78 77/77/77 75/75/75
f 81/81/81 80/80/80 79/79/79
f 80/80/80 82/82/82 79/79/79
f 82/82/82 80/80/80 83/83/83
f 84/84/84 82/82/82 83/83/83
f 84/84/84 83/83/83 85/85/85
f 86/86/86 84/84/84 85/85/85
f 86/86/86 85/85/85 87/87/87
f 88/88/88 86/86/86 87/87/87
f 88/88/88 87/87/87 89/89/89
f 87/87/87 90/90/90 89/89/89
f 93/93/93 92/92/92 91/91/91
f 92/92/92 94/94/94 91/91/91
f 91/91/91 94/94/94 95/95/95
f 94/94/94 92/92/92 96/96/96
f 94/94/94 97/97/97 95/95/95
f 98/98/98 94/94/94 96/96/96
f 97/97/97 94/94/94 98/98/98
f 98/98/98 96/96/96 99/99/99
f 100/100/100 97/97/97 98/98/98
f 101/101/101 98/98/98 99/99/99
f 100/100/100 98/98/98 101/101/101
f 102/102/102 100/100/100 101/101/101
f 101/101/101 99/99/99 103/103/103
f 102/102/102 101/101/101 104/104/104
f 104/104/104 101/101/101 103/103/103
f 105/105/105 102/102/102 104/104/104
f 105/105/105 104/104/104 106/106/106
f 104/104/104 107/107/107 106/106/106
f 104/104/104 103/103/103 107/107/107
f 103/103/103 108/108/108 107/107/107
g wall_y6_A_angled1_1
f 111/111/111 110/110/110 109/109/109
f 110/110/110 112/112/112 109/109/109
f 109/109/109 112/112/112 113/113/113
f 110/110/110 114/114/114 112/112/112
f 112/112/112 115/115/115 113/113/113
f 113/113/113 115/115/115 116/116/116
f 114/114/114 117/117/117 112/112/112
f 112/112/112 117/117/117 115/115/115
f 114/114/114 118/118/118 117/117/117
f 118/118/118 119/119/119 117/117/117
f 117/117/117 119/119/119 115/115/115
f 119/119/119 120/120/120 115/115/115
f 115/115/115 120/120/120 116/116/116
f 120/120/120 121/121/121 116/116/116
f 122/122/122 116/116/116 121/121/121
