g wall_y16_B_x8_doorFrame_tall
v -2.5755367 0 -1.1920929E-07
v -0 0 -2.3841858E-07
v -0 0.25 -0.25000012
v -2.5755367 0.25 -0.25
v -0 0.75 -0.25000036
v -2.5755367 0.75 -0.25000024
v -0 1.0366952 -0.17660975
v -2.5755367 1.0366952 -0.17660964
v -0 1.25 -2.3841858E-07
v -2.5755367 1.25 -1.1920929E-07
v -2.5755367 1.25 -1.1920929E-07
v -0 1.25 -2.3841858E-07
v -0 6 1.9073486E-06
v -2.5755367 6 2.026558E-06
v -0 6 1.9073486E-06
v -3.2729225 8.4 2.026558E-06
v -2.5755367 6 2.026558E-06
v -0 8.4 1.9073486E-06
v -4.550933 10.8 2.026558E-06
v -0 10.8 1.9073486E-06
v -7 14 2.026558E-06
v -0 14 1.9073486E-06
v -14 10.8 2.1457672E-06
v -14 14 2.1457672E-06
v -0 15.999999 -0.5
v -0 15.999999 0
v -7 16 3.7252903E-09
v -7 16 -0.5
v -0 15.749999 -0.75000024
v -14 16 -0.5
v -14 16 7.450581E-09
v -7 15.75 -0.7500001
v -0 14.5 -0.50000024
v -21 16 -0.5
v -21 16 1.1175871E-08
v -14 15.75 -0.75
v -28 16 -0.5
v -28 16 1.4901161E-08
v -28 15.750001 -0.74999976
v -21 15.75 -0.7499999
v -28 14.5 -0.49999976
v -21 14.5 -0.49999988
v -28 14.188289 -0.31171095
v -14 14.5 -0.5
v -21 14.188289 -0.31171095
v -28 14 2.3841858E-06
v -21 14 2.2649765E-06
v -14 14.188289 -0.31171095
v -14 14 2.1457672E-06
v -7 14.5 -0.5000001
v -7 14.188289 -0.31171095
v -7 14 2.026558E-06
v -0 14.188289 -0.31171095
v -0 14 1.9073486E-06
v -28 0.25 -0.24999966
v -28 0 2.3841858E-07
v -25.424463 0 1.1920929E-07
v -25.424463 0.25 -0.24999976
v -28 0.75 -0.24999987
v -25.424463 0.75 -0.25
v -28 1.0366952 -0.17660928
v -25.424463 1.0366952 -0.1766094
v -28 1.25 2.3841858E-07
v -25.424463 1.25 1.1920929E-07
v -28 6 2.3841858E-06
v -28 1.25 2.3841858E-07
v -25.424463 1.25 1.1920929E-07
v -25.424463 6 2.2649765E-06
v -28 8.4 2.3841858E-06
v -28 6 2.3841858E-06
v -25.424463 6 2.2649765E-06
v -24.727077 8.4 2.2649765E-06
v -28 10.8 2.3841858E-06
v -23.449068 10.8 2.2649765E-06
v -21 14 2.2649765E-06
v -28 14 2.3841858E-06
v -14 14 2.1457672E-06
v -14 10.8 2.1457672E-06
vt -0.24999997 0.40000004
vt -2.7755572E-17 0.40000004
vt 0 0.36736876
vt -0.25 0.36736876
vt 0 0.28727263
vt -0.24999997 0.28727263
vt 0 0.2712465
vt -0.24999997 0.2712465
vt 0 0.24587518
vt -0.24999999 0.24587546
vt 1.5355961 0.21961509
vt 1.6103514 0.2196149
vt 1.6103513 0.12402943
vt 1.5355963 0.12402943
vt 1.3105146 0.12368818
vt 1.3856088 0.15260062
vt 1.3856088 0.12368818
vt 1.3105146 0.15260062
vt 1.3856088 0.18151288
vt 1.3105146 0.18151288
vt 1.3856088 0.22006282
vt 1.3105146 0.22006282
vt 1.4607034 0.18151288
vt 1.4607034 0.22006282
vt 0 0.381358
vt 0 0.40000004
vt 0.24999997 0.40000004
vt 0.24999997 0.3813579
vt 0 0.36736876
vt 0.4999999 0.38135785
vt 0.49999994 0.40000004
vt 0.24999997 0.36736876
vt 0 0.28727263
vt 0.7499999 0.3813578
vt 0.7499999 0.40000004
vt 0.4999999 0.36736873
vt 0.9999999 0.3813577
vt 0.9999999 0.40000004
vt 0.9999999 0.36736876
vt 0.7499999 0.36736876
vt 1.0000001 0.28727263
vt 0.7500001 0.28727263
vt 1.0000001 0.2712465
vt 0.50000006 0.2872726
vt 0.7500001 0.2712465
vt 1.0000001 0.24828896
vt 0.7500001 0.24828912
vt 0.50000006 0.2712465
vt 0.50000006 0.2482893
vt 0.25000003 0.28727263
vt 0.25000003 0.2712465
vt 0.25000003 0.24828947
vt 0 0.2712465
vt 0 0.24828963
vt -1 0.36736876
vt -0.9999999 0.40000004
vt -0.7499999 0.40000004
vt -0.75 0.36736876
vt -0.9999999 0.28727263
vt -0.7499999 0.28727263
vt -0.9999999 0.2712465
vt -0.7499999 0.2712465
vt -0.99999994 0.24587631
vt -0.74999994 0.24587603
vt 1.3113301 0.1240294
vt 1.3113301 0.21961518
vt 1.3860854 0.21961518
vt 1.3860854 0.1240294
vt 1.6108922 0.15260062
vt 1.6108922 0.12368818
vt 1.5357977 0.12368818
vt 1.5357977 0.15260062
vt 1.6108922 0.18151288
vt 1.5357978 0.18151288
vt 1.5357978 0.22006282
vt 1.6108922 0.22006282
vt 1.4607034 0.22006282
vt 1.4607034 0.18151288
vn -0 -0.7071066 -0.70710695
vn -0 -0.7071066 -0.70710695
vn -0 -0.3162279 -0.9486833
vn -0 -0.3162279 -0.9486832
vn -0 0.09288615 -0.9956768
vn -0 0.09288615 -0.9956768
vn -0 0.44721368 -0.89442706
vn -0 0.44721374 -0.89442706
vn -0 0.6377421 -0.77024984
vn -0 0.6377421 -0.77024996
vn -0 0 -1
vn -0 0 -1
vn -0 0 -1
vn -0 0 -1
vn -0 0 -1
vn -0 0 -1
vn -0 0 -1
vn -0 0 -1
vn -0 0 -1
vn -0 0 -1
vn -0 0 -1
vn -0 0 -1
vn -0 0 -1
vn -0 0 -1
vn -0 0.9486833 -0.3162277
vn -0 1 0
vn -0 1 0
vn -0 0.9486833 -0.3162277
vn -0 0 -1
vn -0 0.9486833 -0.3162278
vn -0 1 0
vn -0 0 -1
vn -0 -0.27020738 -0.9628021
vn -0 0.9486833 -0.31622785
vn -0 1 0
vn -0 0 -1
vn -0 0.9486833 -0.31622788
vn -0 1 0
vn -0 0 -1
vn -0 0 -1
vn -0 -0.2702072 -0.96280223
vn -0 -0.27020723 -0.96280223
vn -0 -0.7071084 -0.70710516
vn -0 -0.2702073 -0.96280223
vn -0 -0.7071084 -0.70710516
vn -0 -0.8559614 -0.5170397
vn -0 -0.85596126 -0.51703984
vn -0 -0.70710826 -0.7071052
vn -0 -0.8559612 -0.51704
vn -0 -0.27020735 -0.9628021
vn -0 -0.70710826 -0.7071052
vn -0 -0.8559611 -0.5170402
vn -0 -0.70710826 -0.7071052
vn -0 -0.8559611 -0.51704025
vn -0 -0.31622788 -0.9486833
vn -0 0 -1
vn -0 -0.7071065 -0.70710707
vn -0 -0.3162279 -0.9486833
vn -0 0.09288609 -0.9956768
vn -0 0.09288609 -0.9956768
vn -0 0.44721374 -0.89442706
vn -0 0.44721374 -0.89442706
vn -0 0.63774234 -0.7702498
vn -0 0.6377423 -0.7702498
vn -0 0 -1
vn -0 0 -1
vn -0 0 -1
vn -0 0 -1
vn -0 0 -1
vn -0 0 -1
vn -0 0 -1
vn -0 0 -1
vn -0 0 -1
vn -0 0 -1
vn -0 0 -1
vn -0 0 -1
vn -0 0 -1
vn -0 0 -1
g wall_y16_B_x8_doorFrame_tall_0
f 3/3/3 2/2/2 1/1/1
f 4/4/4 3/3/3 1/1/1
f 5/5/5 3/3/3 4/4/4
f 6/6/6 5/5/5 4/4/4
f 7/7/7 5/5/5 6/6/6
f 8/8/8 7/7/7 6/6/6
f 9/9/9 7/7/7 8/8/8
f 10/10/10 9/9/9 8/8/8
f 13/13/13 12/12/12 11/11/11
f 14/14/14 13/13/13 11/11/11
f 17/17/17 16/16/16 15/15/15
f 16/16/16 18/18/18 15/15/15
f 16/16/16 19/19/19 18/18/18
f 19/19/19 20/20/20 18/18/18
f 19/19/19 21/21/21 20/20/20
f 21/21/21 22/22/22 20/20/20
f 19/19/19 23/23/23 21/21/21
f 23/23/23 24/24/24 21/21/21
f 27/27/27 26/26/26 25/25/25
f 28/28/28 27/27/27 25/25/25
f 28/28/28 25/25/25 29/29/29
f 28/28/28 30/30/30 27/27/27
f 30/30/30 31/31/31 27/27/27
f 32/32/32 28/28/28 29/29/29
f 32/32/32 29/29/29 33/33/33
f 30/30/30 34/34/34 31/31/31
f 34/34/34 35/35/35 31/31/31
f 36/36/36 30/30/30 28/28/28
f 32/32/32 36/36/36 28/28/28
f 34/34/34 37/37/37 35/35/35
f 37/37/37 38/38/38 35/35/35
f 39/39/39 37/37/37 34/34/34
f 40/40/40 34/34/34 30/30/30
f 40/40/40 39/39/39 34/34/34
f 36/36/36 40/40/40 30/30/30
f 41/41/41 39/39/39 40/40/40
f 42/42/42 41/41/41 40/40/40
f 42/42/42 40/40/40 36/36/36
f 41/41/41 42/42/42 43/43/43
f 44/44/44 36/36/36 32/32/32
f 44/44/44 42/42/42 36/36/36
f 42/42/42 45/45/45 43/43/43
f 42/42/42 44/44/44 45/45/45
f 46/46/46 43/43/43 45/45/45
f 47/47/47 46/46/46 45/45/45
f 47/47/47 45/45/45 48/48/48
f 44/44/44 48/48/48 45/45/45
f 49/49/49 47/47/47 48/48/48
f 50/50/50 44/44/44 32/32/32
f 44/44/44 50/50/50 48/48/48
f 50/50/50 32/32/32 33/33/33
f 49/49/49 48/48/48 51/51/51
f 50/50/50 51/51/51 48/48/48
f 50/50/50 33/33/33 51/51/51
f 52/52/52 49/49/49 51/51/51
f 33/33/33 53/53/53 51/51/51
f 52/52/52 51/51/51 54/54/54
f 51/51/51 53/53/53 54/54/54
f 57/57/57 56/56/56 55/55/55
f 58/58/58 57/57/57 55/55/55
f 58/58/58 55/55/55 59/59/59
f 60/60/60 58/58/58 59/59/59
f 60/60/60 59/59/59 61/61/61
f 62/62/62 60/60/60 61/61/61
f 62/62/62 61/61/61 63/63/63
f 64/64/64 62/62/62 63/63/63
f 67/67/67 66/66/66 65/65/65
f 68/68/68 67/67/67 65/65/65
f 71/71/71 70/70/70 69/69/69
f 72/72/72 71/71/71 69/69/69
f 72/72/72 69/69/69 73/73/73
f 74/74/74 72/72/72 73/73/73
f 74/74/74 73/73/73 75/75/75
f 73/73/73 76/76/76 75/75/75
f 74/74/74 75/75/75 77/77/77
f 78/78/78 74/74/74 77/77/77
