g cliffBase04B_COL
v 1.6909568 -0.00071113586 5.9534717
v 0.9983592 -0.00071113586 4.572749
v 2.711211 -0.00071113586 0.4639794
v -6.274785 -0.00071113586 -6.610073
v -5.205371 -0.00071113586 -6.7497506
v -5.927129 -0.00071113586 -1.7676417
v -7.1902733 -23.000025 -5.8163233
v -7.190244 -0.00071113586 -5.8163133
v -7.7370996 -0.00071113586 -5.5097704
v -7.7334375 -22.999975 -5.521284
v -6.535996 -23.000025 -6.473608
v -7.190244 -0.00071113586 -5.8163133
v -7.1902733 -23.000025 -5.8163233
v -6.274785 -0.00071113586 -6.610073
v -5.205371 -23.000025 -6.7497506
v -5.205371 -0.00071113586 -6.7497506
v -4.256318 -23.000025 -7.4125633
v -4.178984 -0.00071113586 -7.3652782
v -2.1396875 -23.000025 -7.2213917
v -4.178984 -0.00071113586 -7.3652782
v -2.1396875 -0.00071113586 -7.2213917
v -1.1964064 -23.000025 -6.140581
v -1.0391994 -0.00071113586 -5.9636765
v 0.7823631 -23.000025 -5.820034
v 1.2921678 -0.00071113586 -5.8873386
v 1.7489647 -23.000025 -5.61729
v 1.7513865 -0.00071113586 -5.5706787
v 2.2033787 -0.00071113586 -5.393813
v 2.439199 -23.000025 -5.020425
v 2.439199 -0.00071113586 -5.020425
v 3.9329784 -23.000025 -4.8167334
v 4.012246 -0.00071113586 -4.752505
v 4.630371 -23.000025 -3.5366845
v 4.4240623 -0.00071113586 -3.64479
v 5.883027 -23.000025 -3.9707372
v 5.899814 -0.00071113586 -3.9276805
v 7.1681247 -0.00071113586 -3.9430711
v 7.1101074 -23.000025 -3.9290283
v 8.845293 -23.000025 -3.1929247
v 8.975195 -0.00071113586 -3.1482372
v 10.0642185 -23.000025 -2.4066944
v 10.0642185 -0.00071113586 -2.4066944
v 10.2600975 -0.00071113586 -1.1926514
v 10.287294 -23.000025 -1.7380519
v 10.197607 -23.000025 0.57072747
v 10.237871 -0.00071113586 0.4782372
v 9.868056 -0.00071113586 1.0695361
v 9.731015 -23.000025 1.1966845
v 10.047939 -23.000025 1.8316356
v 10.074033 -0.00071113586 2.16728
v 9.978691 -23.000025 3.447378
v 9.978691 -0.00071113586 3.447378
v 10.001025 -0.00071113586 4.245737
v 10.055537 -23.000025 4.137729
v 9.53459 -0.00071113586 4.8562646
v 9.6293745 -23.000025 4.7278757
v 8.65792 -0.00071113586 5.128247
v 8.589462 -23.000025 5.053208
v 7.692832 -23.000025 5.2567334
v 7.4205174 -0.00071113586 5.50645
v 6.386543 -23.000025 6.351958
v 6.2973633 -0.00071113586 6.499917
v 4.7635546 -23.000025 7.4528756
v 5.126787 -0.00071113586 7.2659717
v 3.329795 -23.000025 7.5607467
v 4.270381 -0.00071113586 7.5342526
v 3.44458 -0.00071113586 7.595093
v 2.7810547 -0.00071113586 7.2545652
v 1.7298436 -23.000025 5.93437
v 1.6909568 -0.00071113586 5.9534717
v 1.0333787 -23.000025 4.5934324
v 0.9983592 -0.00071113586 4.572749
v -0.68976575 -23.000025 4.073901
v -0.7926271 -0.00071113586 4.305376
v -1.4060353 -0.00071113586 4.369165
v -1.3472755 -23.000025 4.1658936
v -1.8858693 -0.00071113586 3.970493
v -1.7926369 -23.000025 3.8964598
v -2.1314747 -0.00071113586 3.2606785
v -2.1712794 -23.000025 3.2093604
v -3.2795312 -23.000025 2.211489
v -3.1223047 -0.00071113586 2.280288
v -5.4799314 -23.000025 2.572915
v -5.4825487 -0.00071113586 2.6228368
v -6.1018066 -0.00071113586 2.5270164
v -5.972871 -23.000025 2.522866
v -6.486797 -23.000025 2.0416453
v -6.8506055 -0.00071113586 1.9550632
v -8.439971 -23.000025 2.4163034
v -8.652256 -0.00071113586 2.4346824
v -9.506357 -23.000025 2.1446922
v -9.506357 -0.00071113586 2.1446922
v -10.05001 -0.00071113586 1.2663037
v -10.124072 -23.000025 1.5664207
v -9.909912 -23.000025 -0.3595655
v -9.874346 -0.00071113586 0.23773918
v -9.993964 -0.00071113586 -0.6263526
v -9.897754 -0.00071113586 -1.7271436
v -9.773417 -23.000025 -1.693589
v -9.964726 -23.000025 -2.67353
v -9.964726 -0.00071113586 -2.6735399
v -9.828047 -23.000025 -3.2935987
v -10.04039 -0.00071113586 -3.5748096
v -10.335449 -23.000025 -4.305747
v -10.23832 -0.00071113586 -4.4018016
v -9.568144 -23.000025 -5.3348584
v -9.568154 -0.00071113586 -5.334829
v -9.062226 -23.000025 -5.906919
v -9.062187 -0.00071113586 -5.9069676
v -8.465703 -23 -6.0197897
v -8.467539 -0.00071113586 -6.0139694
v -7.7370996 -0.00071113586 -5.5097704
v -7.7334375 -22.999975 -5.521284
v -7.190244 -0.00071113586 -5.8163133
v -6.274785 -0.00071113586 -6.610073
v -5.927129 -0.00071113586 -1.7676417
v -7.7370996 -0.00071113586 -5.5097704
v -9.062187 -0.00071113586 -5.9069676
v -9.568154 -0.00071113586 -5.334829
v -8.467539 -0.00071113586 -6.0139694
v -10.23832 -0.00071113586 -4.4018016
v -10.04039 -0.00071113586 -3.5748096
v -9.964726 -0.00071113586 -2.6735399
v -9.897754 -0.00071113586 -1.7271436
v -9.993964 -0.00071113586 -0.6263526
v -9.874346 -0.00071113586 0.23773918
v -10.05001 -0.00071113586 1.2663037
v -9.506357 -0.00071113586 2.1446922
v -8.652256 -0.00071113586 2.4346824
v -6.8506055 -0.00071113586 1.9550632
v -6.1018066 -0.00071113586 2.5270164
v -5.4825487 -0.00071113586 2.6228368
v -3.1223047 -0.00071113586 2.280288
v -2.0807521 -0.00071113586 -1.8416945
v -5.205371 -0.00071113586 -6.7497506
v -2.1314747 -0.00071113586 3.2606785
v -4.178984 -0.00071113586 -7.3652782
v -1.8858693 -0.00071113586 3.970493
v -1.4060353 -0.00071113586 4.369165
v -2.1396875 -0.00071113586 -7.2213917
v -1.0391994 -0.00071113586 -5.9636765
v 1.2921678 -0.00071113586 -5.8873386
v 1.7513865 -0.00071113586 -5.5706787
v 2.2033787 -0.00071113586 -5.393813
v 2.439199 -0.00071113586 -5.020425
v 2.711211 -0.00071113586 0.4639794
v 4.012246 -0.00071113586 -4.752505
v 4.4240623 -0.00071113586 -3.64479
v 5.899814 -0.00071113586 -3.9276805
v 7.1681247 -0.00071113586 -3.9430711
v 8.975195 -0.00071113586 -3.1482372
v 6.0417285 -0.00071113586 2.590874
v 10.0642185 -0.00071113586 -2.4066944
v 10.2600975 -0.00071113586 -1.1926514
v 10.237871 -0.00071113586 0.4782372
v 9.868056 -0.00071113586 1.0695361
v 10.074033 -0.00071113586 2.16728
v 9.978691 -0.00071113586 3.447378
v 2.711211 -0.00071113586 0.4639794
v 4.4240623 -0.00071113586 -3.64479
v 1.6909568 -0.00071113586 5.9534717
v 9.53459 -0.00071113586 4.8562646
v 10.001025 -0.00071113586 4.245737
v 7.4205174 -0.00071113586 5.50645
v 8.65792 -0.00071113586 5.128247
v 6.2973633 -0.00071113586 6.499917
v 2.711211 -0.00071113586 0.4639794
v 0.9983592 -0.00071113586 4.572749
v -0.7926271 -0.00071113586 4.305376
v -1.4060353 -0.00071113586 4.369165
v -2.0807521 -0.00071113586 -1.8416945
v 2.7810547 -0.00071113586 7.2545652
v 1.6909568 -0.00071113586 5.9534717
v 6.0417285 -0.00071113586 2.590874
v 3.44458 -0.00071113586 7.595093
v 4.270381 -0.00071113586 7.5342526
v 5.126787 -0.00071113586 7.2659717
v 6.2973633 -0.00071113586 6.499917
vt 0.16897264 0.09369044
vt 0.15901278 0.09365733
vt 0.24143872 0.09380968
vt 0.40661094 0.09385891
vt 0.39909905 0.093840495
vt 0.14890285 0.09324277
vt 0.4138015 0.026428118
vt 0.41451502 0.09386535
vt 0.41866645 0.09387042
vt 0.017851802 0.024631396
vt 0.40779132 0.026400879
vt 0.41451502 0.09386535
vt 0.4138015 0.026428118
vt 0.40661094 0.09385891
vt 0.39845213 0.02635844
vt 0.39909905 0.093840495
vt 0.39057285 0.026322737
vt 0.39391023 0.09384179
vt 0.3765426 0.02625908
vt 0.38769287 0.093845084
vt 0.37729326 0.09382649
vt 0.36705607 0.026216045
vt 0.36659962 0.09386028
vt 0.35285562 0.026151553
vt 0.3507303 0.09393157
vt 0.34628472 0.02612175
vt 0.34716544 0.09393628
vt 0.3440634 0.09394218
vt 0.34020376 0.026094154
vt 0.34124008 0.09394224
vt 0.33342004 0.026063398
vt 0.33400574 0.09395474
vt 0.3210978 0.026007488
vt 0.32386467 0.09396203
vt 0.31257772 0.025968805
vt 0.31355065 0.09391125
vt 0.30364496 0.09384438
vt 0.30299756 0.025925342
vt 0.28903374 0.025861993
vt 0.2892066 0.0937469
vt 0.28025866 0.025822118
vt 0.28221986 0.09371032
vt 0.27423766 0.09369146
vt 0.27570298 0.025801495
vt 0.25868466 0.025724247
vt 0.263093 0.093683794
vt 0.25856838 0.09368189
vt 0.25442004 0.025704935
vt 0.24414662 0.025658265
vt 0.24746822 0.093694285
vt 0.23825431 0.025631502
vt 0.24185957 0.09371312
vt 0.23632666 0.09374499
vt 0.23521256 0.025617732
vt 0.23158512 0.093772314
vt 0.23260589 0.025605932
vt 0.22486614 0.09380135
vt 0.22548842 0.025573632
vt 0.21623385 0.025531635
vt 0.21612974 0.0938391
vt 0.20303082 0.025471702
vt 0.20559168 0.0938694
vt 0.19497344 0.025435165
vt 0.19537559 0.09380598
vt 0.18149617 0.02537395
vt 0.18948612 0.09377296
vt 0.18556811 0.09376122
vt 0.1803801 0.093745396
vt 0.16572599 0.025302425
vt 0.16897264 0.09369044
vt 0.15731701 0.025264218
vt 0.15901278 0.09365733
vt 0.14369789 0.025202459
vt 0.14255299 0.13688332
vt 0.13843803 0.14768982
vt 0.14218464 0.025195599
vt 0.13432407 0.13140514
vt 0.13578773 0.025166564
vt 0.12992576 0.1139948
vt 0.12785558 0.02513056
vt 0.12086159 0.025098816
vt 0.12472486 0.09340756
vt 0.102920726 0.025017396
vt 0.105655916 0.09329565
vt 0.10245094 0.093280435
vt 0.100844055 0.025007986
vt 0.09813285 0.0249957
vt 0.09826666 0.093260564
vt 0.089276254 0.024955526
vt 0.088402085 0.09320908
vt 0.078064546 0.024904624
vt 0.08028741 0.093160406
vt 0.07255036 0.09311397
vt 0.07277677 0.024880633
vt 0.05940049 0.02481994
vt 0.06472389 0.09303014
vt 0.058928818 0.09296267
vt 0.052143455 0.092851624
vt 0.051399745 0.024783686
vt 0.04508818 0.024755016
vt 0.045480516 0.092705235
vt 0.041155674 0.024737135
vt 0.039190732 0.092558585
vt 0.033178993 0.024700895
vt 0.032265935 0.09238478
vt 0.025935588 0.024668112
vt 0.02565854 0.09219436
vt 0.021210216 0.024646655
vt 0.020742677 0.09204464
vt 0.019506264 0.024638912
vt 0.017361578 0.09192936
vt 0.014078679 0.09181744
vt 0.017851802 0.024631396
vt 0.41451502 0.09386535
vt 0.40661094 0.09385891
vt 0.14890285 0.09324277
vt 0.014078679 0.09181744
vt 0.020742677 0.09204464
vt 0.02565854 0.09219436
vt 0.017361578 0.09192936
vt 0.032265935 0.09238478
vt 0.039190732 0.092558585
vt 0.045480516 0.092705235
vt 0.052143455 0.092851624
vt 0.058928818 0.09296267
vt 0.06472389 0.09303014
vt 0.07255036 0.09311397
vt 0.08028741 0.093160406
vt 0.088402085 0.09320908
vt 0.09826666 0.093260564
vt 0.10245094 0.093280435
vt 0.105655916 0.09329565
vt 0.12472486 0.09340756
vt 0.24566224 0.09363392
vt 0.39909905 0.093840495
vt 0.12992576 0.1139948
vt 0.39391023 0.09384179
vt 0.13432407 0.13140514
vt 0.13843803 0.14768982
vt 0.37729326 0.09382649
vt 0.36659962 0.09386028
vt 0.3507303 0.09393157
vt 0.34716544 0.09393628
vt 0.3440634 0.09394218
vt 0.34124008 0.09394224
vt 0.24143872 0.09380968
vt 0.33400574 0.09395474
vt 0.32386467 0.09396203
vt 0.31355065 0.09391125
vt 0.30364496 0.09384438
vt 0.2892066 0.0937469
vt 0.23651192 0.09379099
vt 0.28221986 0.09371032
vt 0.27423766 0.09369146
vt 0.263093 0.093683794
vt 0.25856838 0.09368189
vt 0.24746822 0.093694285
vt 0.24185957 0.09371312
vt 0.24143872 0.09380968
vt 0.32386467 0.09396203
vt 0.16897264 0.09369044
vt 0.23158512 0.093772314
vt 0.23632666 0.09374499
vt 0.21612974 0.0938391
vt 0.22486614 0.09380135
vt 0.20559168 0.0938694
vt 0.24143872 0.09380968
vt 0.15901278 0.09365733
vt 0.14255299 0.13688332
vt 0.13843803 0.14768982
vt 0.24566224 0.09363392
vt 0.1803801 0.093745396
vt 0.16897264 0.09369044
vt 0.23651192 0.09379099
vt 0.18556811 0.09376122
vt 0.18948612 0.09377296
vt 0.19537559 0.09380598
vt 0.20559168 0.0938694
vn -0 1 0
vn -0 1 0
vn -0 1 0
vn -0 1 0
vn -0 1 0
vn -0 1 0
vn -0.6109526 0.0011337482 -0.7916663
vn -0.6109505 0.0011337318 -0.79166806
vn 0.15528147 0.0003469535 -0.98787016
vn 0.15518664 0.0003469389 -0.9878852
vn -0.4276417 -0.00025319913 -0.90394825
vn -0.6109505 0.0011337318 -0.79166806
vn -0.6109526 0.0011337482 -0.7916663
vn -0.42348704 -0.00028259063 -0.9059021
vn -0.36107537 -0.00012344273 -0.9325366
vn -0.36107537 -0.00012344273 -0.9325366
vn -0.15255594 0.0012724161 -0.988294
vn -0.15153629 0.0012708635 -0.9884509
vn 0.39599067 0.0005297403 -0.9182544
vn -0.15153629 0.0012708635 -0.9884509
vn 0.39599067 0.0005297403 -0.9182544
vn 0.39748928 0.00063026696 -0.9176066
vn 0.39345276 0.0006365236 -0.91934466
vn 0.15642872 -0.00030148693 -0.98768914
vn 0.15895805 -0.00035427744 -0.9872853
vn 0.44968095 -0.0036918395 -0.8931816
vn 0.44982123 -0.0036910756 -0.89311093
vn 0.6384915 -0.0023481334 -0.76962525
vn 0.2834341 -0.00015306086 -0.95899165
vn 0.2478706 0.0010177669 -0.9687927
vn 0.5638627 0.001778319 -0.82586664
vn 0.566035 0.0017812747 -0.82437927
vn 0.3954415 -0.0003186138 -0.9184911
vn 0.40294778 -0.00028984126 -0.9152229
vn -0.13110124 -0.001002605 -0.9913685
vn -0.13101913 -0.0010016651 -0.9913794
vn 0.25002065 -0.00038018543 -0.9682404
vn 0.24947833 -0.00037789022 -0.96838033
vn 0.4630443 -0.00090425025 -0.8863348
vn 0.46361506 -0.0009033076 -0.8860362
vn 0.78103113 0.0009181879 -0.6244915
vn 0.78103113 0.0009181879 -0.6244915
vn 0.99871445 0.0006312371 -0.050685614
vn 0.9985461 0.0006798864 -0.053900804
vn 0.9836459 -0.0005544262 0.18011189
vn 0.98386484 -0.000554527 0.1789127
vn 0.99420327 -0.001504494 0.10750603
vn 0.994562 -0.0015105747 0.10413532
vn 0.99689937 -0.0014306715 -0.07867499
vn 0.9971336 -0.0014208416 -0.07564797
vn 0.9998888 -0.00019322716 0.014916676
vn 0.9998888 -0.00019322716 0.014916676
vn 0.95880556 0.00046278234 0.28406283
vn 0.9594492 0.00046870305 0.28188145
vn 0.53800714 -0.0026529601 0.84293616
vn 0.5401433 -0.0026385523 0.8415689
vn 0.27949998 -0.0048873397 0.9601332
vn 0.27945706 -0.004889317 0.9601457
vn 0.50325054 -0.0032499325 0.8641344
vn 0.5068734 -0.00320917 0.86201453
vn 0.60395795 -0.002034454 0.7970136
vn 0.60353005 -0.0020396668 0.79733753
vn 0.40161204 -0.0015691114 0.9158086
vn 0.40581906 -0.0015969987 0.9139521
vn -0.4564238 -0.003683767 0.8897549
vn 0.13974652 -0.00048219474 0.99018717
vn -0.1836979 -0.0005513174 0.9829827
vn -0.699019 -0.004276441 0.7150904
vn -0.81071264 -0.0035786314 0.58543336
vn -0.8107401 -0.003577979 0.58539534
vn -0.5823113 -0.0037773214 0.81295717
vn -0.58154607 -0.0037812933 0.8135047
vn -0.13106005 -0.006196867 0.991355
vn -0.13040456 -0.006204658 0.9914415
vn -0.22715244 -0.008535844 0.97382176
vn -0.227015 -0.00853623 0.97385377
vn -0.7998381 -0.0043034363 0.60020036
vn -0.79982394 -0.004303652 0.6002192
vn -0.77844995 -7.9089674E-05 0.6277067
vn -0.77805156 -7.388487E-05 0.6282004
vn -0.18602553 -0.0016524201 0.9825435
vn -0.18982992 -0.0016349305 0.98181564
vn 0.09791571 -0.0027827001 0.99519086
vn 0.09789981 -0.0027826177 0.9951924
vn -0.45147058 -0.004044354 0.89227676
vn -0.4499344 -0.004032525 0.8930526
vn -0.043300156 0.0014030874 0.99906117
vn -0.035920028 0.0014834114 0.9993536
vn 0.05282334 0.0022866859 0.99860126
vn 0.05019795 0.0022562053 0.9987368
vn -0.54785544 0.0017818161 0.8365712
vn -0.54785544 0.0017818161 0.8365712
vn -0.98553014 0.0043416815 0.16944465
vn -0.984597 0.0043587405 0.17478442
vn -0.99351573 -0.000576126 -0.1136936
vn -0.99739504 0.0020643775 -0.07210276
vn -0.99938047 -0.0043474864 -0.034925036
vn -0.99997413 -0.004027174 0.0059659933
vn -0.99997544 -0.0040296563 0.0057428633
vn -0.9983607 -0.0035947612 0.057123046
vn -0.9983607 -0.0035947617 0.057122998
vn -0.9824123 -0.0018390173 0.18671589
vn -0.9817806 -0.0017934939 0.1900098
vn -0.9822015 0.0005995102 -0.18782902
vn -0.9816626 0.00059902825 -0.1906262
vn -0.78525335 0.00028856855 -0.61917454
vn -0.78525335 0.00028856893 -0.61917454
vn -0.5264366 5.4324057E-05 -0.8502144
vn -0.526432 5.4325024E-05 -0.8502172
vn 0.28291464 0.0002934953 -0.95914507
vn 0.28291148 0.00029349426 -0.9591461
vn 0.15528147 0.0003469535 -0.98787016
vn 0.15518664 0.0003469389 -0.9878852
vn -0 1 0
vn -0 1 0
vn -0 1 0
vn -0 1 0
vn -0 1 0
vn -0 1 0
vn -0 1 0
vn -0 1 0
vn -0 1 0
vn -0 1 0
vn -0 1 0
vn -0 1 0
vn -0 1 0
vn -0 1 0
vn -0 1 0
vn -0 1 0
vn -0 1 0
vn -0 1 0
vn -0 1 0
vn -0 1 0
vn -0 1 0
vn -0 1 0
vn -0 1 0
vn -0 1 0
vn -0 1 0
vn -0 1 0
vn -0 1 0
vn -0 1 0
vn -0 1 0
vn -0 1 0
vn -0 1 0
vn -0 1 0
vn -0 1 0
vn -0 1 0
vn -0 1 0
vn -0 1 0
vn -0 1 0
vn -0 1 0
vn -0 1 0
vn -0 1 0
vn -0 1 0
vn -0 1 0
vn -0 1 0
vn -0 1 0
vn -0 1 0
vn -0 1 0
vn -0 1 0
vn -0 1 0
vn -0 1 0
vn -0 1 0
vn -0 1 0
vn -0 1 0
vn -0 1 0
vn -0 1 0
vn -0 1 0
vn -0 1 0
vn -0 1 0
vn -0 1 0
vn -0 1 0
vn -0 1 0
vn -0 1 0
vn -0 1 0
vn -0 1 0
vn -0 1 0
vn -0 1 0
g cliffBase04B_COL_0
f 3/3/3 2/2/2 1/1/1
f 6/6/6 5/5/5 4/4/4
f 9/9/9 8/8/8 7/7/7
f 10/10/10 9/9/9 7/7/7
f 13/13/13 12/12/12 11/11/11
f 12/12/12 14/14/14 11/11/11
f 15/15/15 11/11/11 14/14/14
f 16/16/16 15/15/15 14/14/14
f 15/15/15 16/16/16 17/17/17
f 16/16/16 18/18/18 17/17/17
f 17/17/17 20/20/20 19/19/19
f 20/20/20 21/21/21 19/19/19
f 19/19/19 21/21/21 22/22/22
f 21/21/21 23/23/23 22/22/22
f 22/22/22 23/23/23 24/24/24
f 23/23/23 25/25/25 24/24/24
f 24/24/24 25/25/25 26/26/26
f 25/25/25 27/27/27 26/26/26
f 27/27/27 28/28/28 26/26/26
f 28/28/28 29/29/29 26/26/26
f 29/29/29 28/28/28 30/30/30
f 29/29/29 30/30/30 31/31/31
f 30/30/30 32/32/32 31/31/31
f 31/31/31 32/32/32 33/33/33
f 32/32/32 34/34/34 33/33/33
f 33/33/33 34/34/34 35/35/35
f 34/34/34 36/36/36 35/35/35
f 35/35/35 36/36/36 37/37/37
f 38/38/38 35/35/35 37/37/37
f 38/38/38 37/37/37 39/39/39
f 37/37/37 40/40/40 39/39/39
f 39/39/39 40/40/40 41/41/41
f 40/40/40 42/42/42 41/41/41
f 42/42/42 43/43/43 41/41/41
f 43/43/43 44/44/44 41/41/41
f 44/44/44 43/43/43 45/45/45
f 43/43/43 46/46/46 45/45/45
f 46/46/46 47/47/47 45/45/45
f 47/47/47 48/48/48 45/45/45
f 48/48/48 47/47/47 49/49/49
f 47/47/47 50/50/50 49/49/49
f 49/49/49 50/50/50 51/51/51
f 50/50/50 52/52/52 51/51/51
f 52/52/52 53/53/53 51/51/51
f 53/53/53 54/54/54 51/51/51
f 53/53/53 55/55/55 54/54/54
f 55/55/55 56/56/56 54/54/54
f 56/56/56 55/55/55 57/57/57
f 58/58/58 56/56/56 57/57/57
f 58/58/58 57/57/57 59/59/59
f 57/57/57 60/60/60 59/59/59
f 59/59/59 60/60/60 61/61/61
f 60/60/60 62/62/62 61/61/61
f 61/61/61 62/62/62 63/63/63
f 62/62/62 64/64/64 63/63/63
f 63/63/63 64/64/64 65/65/65
f 64/64/64 66/66/66 65/65/65
f 65/65/65 66/66/66 67/67/67
f 68/68/68 65/65/65 67/67/67
f 65/65/65 68/68/68 69/69/69
f 68/68/68 70/70/70 69/69/69
f 69/69/69 70/70/70 71/71/71
f 70/70/70 72/72/72 71/71/71
f 73/73/73 71/71/71 72/72/72
f 74/74/74 73/73/73 72/72/72
f 74/74/74 75/75/75 73/73/73
f 75/75/75 76/76/76 73/73/73
f 76/76/76 75/75/75 77/77/77
f 78/78/78 76/76/76 77/77/77
f 78/78/78 77/77/77 79/79/79
f 80/80/80 78/78/78 79/79/79
f 80/80/80 79/79/79 81/81/81
f 79/79/79 82/82/82 81/81/81
f 81/81/81 82/82/82 83/83/83
f 82/82/82 84/84/84 83/83/83
f 83/83/83 84/84/84 85/85/85
f 86/86/86 83/83/83 85/85/85
f 86/86/86 85/85/85 87/87/87
f 85/85/85 88/88/88 87/87/87
f 87/87/87 88/88/88 89/89/89
f 88/88/88 90/90/90 89/89/89
f 89/89/89 90/90/90 91/91/91
f 90/90/90 92/92/92 91/91/91
f 92/92/92 93/93/93 91/91/91
f 93/93/93 94/94/94 91/91/91
f 94/94/94 93/93/93 95/95/95
f 93/93/93 96/96/96 95/95/95
f 97/97/97 95/95/95 96/96/96
f 97/97/97 98/98/98 95/95/95
f 98/98/98 99/99/99 95/95/95
f 99/99/99 98/98/98 100/100/100
f 98/98/98 101/101/101 100/100/100
f 102/102/102 100/100/100 101/101/101
f 103/103/103 102/102/102 101/101/101
f 102/102/102 103/103/103 104/104/104
f 103/103/103 105/105/105 104/104/104
f 104/104/104 105/105/105 106/106/106
f 105/105/105 107/107/107 106/106/106
f 106/106/106 107/107/107 108/108/108
f 107/107/107 109/109/109 108/108/108
f 110/110/110 108/108/108 109/109/109
f 111/111/111 110/110/110 109/109/109
f 111/111/111 112/112/112 110/110/110
f 112/112/112 113/113/113 110/110/110
f 116/116/116 115/115/115 114/114/114
f 116/116/116 114/114/114 117/117/117
f 116/116/116 117/117/117 118/118/118
f 116/116/116 118/118/118 119/119/119
f 117/117/117 120/120/120 118/118/118
f 116/116/116 119/119/119 121/121/121
f 116/116/116 121/121/121 122/122/122
f 116/116/116 122/122/122 123/123/123
f 116/116/116 123/123/123 124/124/124
f 116/116/116 124/124/124 125/125/125
f 116/116/116 125/125/125 126/126/126
f 116/116/116 126/126/126 127/127/127
f 116/116/116 127/127/127 128/128/128
f 129/129/129 116/116/116 128/128/128
f 129/129/129 130/130/130 116/116/116
f 130/130/130 131/131/131 116/116/116
f 131/131/131 132/132/132 116/116/116
f 132/132/132 133/133/133 116/116/116
f 133/133/133 134/134/134 116/116/116
f 116/116/116 134/134/134 135/135/135
f 134/134/134 133/133/133 136/136/136
f 134/134/134 137/137/137 135/135/135
f 134/134/134 136/136/136 138/138/138
f 134/134/134 138/138/138 139/139/139
f 134/134/134 140/140/140 137/137/137
f 134/134/134 141/141/141 140/140/140
f 134/134/134 142/142/142 141/141/141
f 134/134/134 143/143/143 142/142/142
f 134/134/134 144/144/144 143/143/143
f 134/134/134 145/145/145 144/144/144
f 134/134/134 146/146/146 145/145/145
f 146/146/146 147/147/147 145/145/145
f 146/146/146 148/148/148 147/147/147
f 151/151/151 150/150/150 149/149/149
f 152/152/152 151/151/151 149/149/149
f 152/152/152 153/153/153 151/151/151
f 152/152/152 154/154/154 153/153/153
f 152/152/152 155/155/155 154/154/154
f 152/152/152 156/156/156 155/155/155
f 152/152/152 157/157/157 156/156/156
f 152/152/152 158/158/158 157/157/157
f 159/159/159 152/152/152 149/149/149
f 159/159/159 149/149/149 160/160/160
f 152/152/152 159/159/159 161/161/161
f 152/152/152 162/162/162 158/158/158
f 162/162/162 163/163/163 158/158/158
f 152/152/152 164/164/164 162/162/162
f 164/164/164 165/165/165 162/162/162
f 152/152/152 166/166/166 164/164/164
f 169/169/169 168/168/168 167/167/167
f 170/170/170 169/169/169 167/167/167
f 171/171/171 170/170/170 167/167/167
f 174/174/174 173/173/173 172/172/172
f 174/174/174 172/172/172 175/175/175
f 174/174/174 175/175/175 176/176/176
f 174/174/174 176/176/176 177/177/177
f 174/174/174 177/177/177 178/178/178
