g COL_rock_round
v -0.8031218 -0.43845612 0.04599304
v -0.7262764 -0.3401284 0.41307494
v -0.31433493 -0.4032392 0.5894367
v -0.36946312 -0.7276277 -0.025086617
v -0.76669097 -0.19265747 -0.5652043
v 0.25303057 -0.37840933 0.64113003
v -0.29930818 -0.33876806 -0.6265078
v -0.85494673 -0.06512313 -0.60589087
v 0.37291625 -0.69389045 -0.013729554
v 0.7340315 -0.25716728 0.43954557
v 0.8100415 -0.4181297 -0.07157938
v 0.26165953 -0.41424042 -0.5728178
v 0.76047176 -0.20255812 -0.53468454
v -0.38538894 -0.04696814 -0.8447092
v -0.8316455 0.17070206 -0.597801
v 0.36049384 -0.06948604 -0.84693503
v 0.8383528 0.010603995 -0.6057671
v -0.32313788 0.25719932 -0.7108966
v -0.9327478 0.27221775 -0.039487038
v 0.38283065 0.28791347 -0.6793549
v 0.7740368 0.21339352 -0.5319967
v -0.3569915 0.45446074 -0.005835191
v -0.7315193 0.21681353 0.5800863
v 0.36032867 0.494367 -0.023431338
v 0.8747084 0.31990322 0.034943204
v -0.34555686 0.2998599 0.6786022
v 0.23197086 0.2973423 0.6824458
v 0.7532791 0.26283887 0.47785085
v -0.84325 -0.06279058 0.587136
v -0.35555622 -0.04966316 0.8369302
v 0.30778423 -0.087065816 0.78799915
v -1.1176707 -0.08417686 -0.0031371287
v -0.9327478 0.27221775 -0.039487038
v -0.85494673 -0.06512313 -0.60589087
v -0.8316455 0.17070206 -0.597801
v -0.76669097 -0.19265747 -0.5652043
v -0.8031218 -0.43845612 0.04599304
v -0.7262764 -0.3401284 0.41307494
v -0.31433493 -0.4032392 0.5894367
v 0.25303057 -0.37840933 0.64113003
v 0.84260684 -0.08020246 0.5512291
v 0.8747084 0.31990322 0.034943204
v 0.7340315 -0.25716728 0.43954557
v 1.0791194 -0.076842114 -0.015403727
v 0.7740368 0.21339352 -0.5319967
v 0.8100415 -0.4181297 -0.07157938
v 0.8383528 0.010603995 -0.6057671
v 0.76047176 -0.20255812 -0.53468454
vt 0.375 0.875
vt 0.375 1
vt 0.45833334 1
vt 0.45833334 0.875
vt 0.375 0.75
vt 0.5416667 1
vt 0.45833334 0.75
vt 0.375 0.625
vt 0.5416667 0.875
vt 0.625 1
vt 0.625 0.875
vt 0.5416667 0.75
vt 0.625 0.75
vt 0.45833334 0.625
vt 0.375 0.5
vt 0.5416667 0.625
vt 0.625 0.625
vt 0.45833334 0.5
vt 0.375 0.375
vt 0.5416667 0.5
vt 0.625 0.5
vt 0.45833334 0.375
vt 0.375 0.25
vt 0.5416667 0.375
vt 0.625 0.375
vt 0.45833334 0.25
vt 0.5416667 0.25
vt 0.625 0.25
vt 0.375 0.125
vt 0.45833334 0.125
vt 0.5416667 0.125
vt 0.25 0.125
vt 0.25 0.25
vt 0.125 0.125
vt 0.125 0.25
vt 0.125 0
vt 0.25 0
vt 0.375 0
vt 0.45833334 0
vt 0.5416667 0
vt 0.625 0.125
vt 0.75 0.25
vt 0.625 0
vt 0.75 0.125
vt 0.875 0.25
vt 0.75 0
vt 0.875 0.125
vt 0.875 0
vn -0.5908602 -0.80609745 -0.033033334
vn -0.5242765 -0.6988264 0.48659638
vn -0.12974674 -0.7883293 0.60141724
vn -0.18232165 -0.9813973 -0.060152452
vn -0.51152164 -0.70978636 -0.48430252
vn 0.15811916 -0.7824587 0.60229284
vn -0.162933 -0.7774474 -0.607477
vn -0.7702402 -0.16595896 -0.6157822
vn 0.2154096 -0.976495 0.0074912133
vn 0.53694 -0.70681643 0.46054944
vn 0.5972666 -0.8002188 -0.05406025
vn 0.13523471 -0.7909547 -0.596743
vn 0.5417367 -0.65679115 -0.5245443
vn -0.14333631 -0.103426486 -0.98425484
vn -0.50494736 0.7351705 -0.4522747
vn 0.16306777 -0.13043953 -0.97795415
vn 0.76528263 -0.025316216 -0.6431964
vn -0.12398978 0.83231497 -0.54025775
vn -0.58802897 0.8086201 -0.018856017
vn 0.108749434 0.83953965 -0.5323033
vn 0.5480173 0.72328866 -0.42015532
vn -0.13603775 0.990276 -0.029105773
vn -0.5109352 0.73345774 0.44831362
vn 0.08698298 0.99566466 -0.03295199
vn 0.5978175 0.8003411 0.04548009
vn -0.13549857 0.8426601 0.5211181
vn 0.114954546 0.8064409 0.58003324
vn 0.50215906 0.70074135 0.50675225
vn -0.7559448 -0.09524277 0.64767
vn -0.16278839 -0.12134272 0.97917104
vn 0.21222185 -0.08271847 0.9737143
vn -0.99110454 -0.1281822 0.035790116
vn -0.58802897 0.8086201 -0.018856017
vn -0.7702402 -0.16595896 -0.6157822
vn -0.50494736 0.7351705 -0.4522747
vn -0.51152164 -0.70978636 -0.48430252
vn -0.5908602 -0.80609745 -0.033033334
vn -0.5242765 -0.6988264 0.48659638
vn -0.12974674 -0.7883293 0.60141724
vn 0.15811916 -0.7824587 0.60229284
vn 0.7296486 -0.06271418 0.6809404
vn 0.5978175 0.8003411 0.04548009
vn 0.53694 -0.70681643 0.46054944
vn 0.9968143 -0.078788795 0.012395235
vn 0.5480173 0.72328866 -0.42015532
vn 0.5972666 -0.8002188 -0.05406025
vn 0.76528263 -0.025316216 -0.6431964
vn 0.5417367 -0.65679115 -0.5245443
g COL_rock_round_0
f 3/3/3 2/2/2 1/1/1
f 4/4/4 3/3/3 1/1/1
f 4/4/4 1/1/1 5/5/5
f 6/6/6 3/3/3 4/4/4
f 7/7/7 4/4/4 5/5/5
f 7/7/7 5/5/5 8/8/8
f 9/9/9 6/6/6 4/4/4
f 9/9/9 4/4/4 7/7/7
f 10/10/10 6/6/6 9/9/9
f 11/11/11 10/10/10 9/9/9
f 11/11/11 9/9/9 12/12/12
f 12/12/12 9/9/9 7/7/7
f 13/13/13 11/11/11 12/12/12
f 14/14/14 7/7/7 8/8/8
f 12/12/12 7/7/7 14/14/14
f 14/14/14 8/8/8 15/15/15
f 13/13/13 12/12/12 16/16/16
f 16/16/16 12/12/12 14/14/14
f 17/17/17 13/13/13 16/16/16
f 18/18/18 14/14/14 15/15/15
f 16/16/16 14/14/14 18/18/18
f 18/18/18 15/15/15 19/19/19
f 17/17/17 16/16/16 20/20/20
f 20/20/20 16/16/16 18/18/18
f 21/21/21 17/17/17 20/20/20
f 22/22/22 18/18/18 19/19/19
f 20/20/20 18/18/18 22/22/22
f 22/22/22 19/19/19 23/23/23
f 21/21/21 20/20/20 24/24/24
f 24/24/24 20/20/20 22/22/22
f 25/25/25 21/21/21 24/24/24
f 24/24/24 22/22/22 26/26/26
f 26/26/26 22/22/22 23/23/23
f 25/25/25 24/24/24 27/27/27
f 27/27/27 24/24/24 26/26/26
f 28/28/28 25/25/25 27/27/27
f 26/26/26 23/23/23 29/29/29
f 27/27/27 26/26/26 30/30/30
f 30/30/30 26/26/26 29/29/29
f 28/28/28 27/27/27 31/31/31
f 31/31/31 27/27/27 30/30/30
f 29/29/29 23/23/23 32/32/32
f 23/23/23 33/33/33 32/32/32
f 32/32/32 33/33/33 34/34/34
f 33/33/33 35/35/35 34/34/34
f 32/32/32 34/34/34 36/36/36
f 37/37/37 32/32/32 36/36/36
f 29/29/29 32/32/32 37/37/37
f 38/38/38 29/29/29 37/37/37
f 30/30/30 29/29/29 38/38/38
f 39/39/39 30/30/30 38/38/38
f 31/31/31 30/30/30 39/39/39
f 40/40/40 31/31/31 39/39/39
f 41/41/41 28/28/28 31/31/31
f 41/41/41 31/31/31 40/40/40
f 42/42/42 28/28/28 41/41/41
f 43/43/43 41/41/41 40/40/40
f 44/44/44 42/42/42 41/41/41
f 44/44/44 41/41/41 43/43/43
f 45/45/45 42/42/42 44/44/44
f 46/46/46 44/44/44 43/43/43
f 47/47/47 45/45/45 44/44/44
f 47/47/47 44/44/44 46/46/46
f 48/48/48 47/47/47 46/46/46
