g COL_branch03
v -6.1401916 26.699018 2.2853298
v -4.525589 27.193151 1.8509668
v -3.9538505 26.708815 3.4252343
v -5.5684533 26.214684 3.8595984
v -2.422482 -1.5881162 -2.659338
v -2.422482 -1.5881162 2.659338
v 2.8961937 -1.5881162 2.659338
v 2.8961937 -1.5881162 -2.659338
v -2.422482 -1.5881162 -2.659338
v 2.8961937 -1.5881162 -2.659338
v 2.7708962 9.355845 -1.9349753
v -0.86455166 7.719606 -1.9349753
v -2.422482 -1.5881162 2.659338
v 2.7708962 9.355845 2.0517228
v 2.8961937 -1.5881162 2.659338
v -0.86455166 7.719606 2.0517228
v -1.0335431 16.527447 -1.8734926
v -4.3109803 15.133301 -1.902491
v -0.57952297 15.390538 1.4712623
v -3.8569603 13.996392 1.4422641
v -4.525589 27.193151 1.8509668
v -6.1401916 26.699018 2.2853298
v -3.9538505 26.708815 3.4252343
v -5.5684533 26.214684 3.8595984
vt 0.375 0.75
vt 0.625 0.75
vt 0.625 1
vt 0.375 1
vt 0.375 0.75
vt 0.375 1
vt 0.625 1
vt 0.625 0.75
vt 0.375 0.75
vt 0.625 0.75
vt 0.625 0.75
vt 0.375 0.75
vt 0.375 1
vt 0.625 1
vt 0.625 1
vt 0.375 1
vt 0.625 0.75
vt 0.375 0.75
vt 0.625 1
vt 0.375 1
vt 0.625 0.75
vt 0.375 0.75
vt 0.625 1
vt 0.375 1
vn -0.83382946 0.13270031 -0.5358348
vn 0.47052342 0.4872765 -0.73564214
vn 0.76797014 0.18723089 0.6125083
vn -0.604591 -0.17656788 0.77671975
vn -0.6872565 -0.30458343 -0.6594751
vn -0.688059 -0.30983347 0.6561845
vn 0.69016886 -0.35518447 0.6304847
vn 0.6886681 -0.35028395 -0.63485223
vn -0.6872565 -0.30458343 -0.6594751
vn 0.6886681 -0.35028395 -0.63485223
vn 0.7672072 0.16226977 -0.6205334
vn -0.60847247 0.0048539136 -0.7935602
vn -0.688059 -0.30983347 0.6561845
vn 0.77424365 0.17610544 0.6078928
vn 0.69016886 -0.35518447 0.6304847
vn -0.62551963 0.019915158 0.77995414
vn 0.5042651 0.35824338 -0.78573424
vn -0.73915195 -0.094404474 -0.66688997
vn 0.6884982 0.25531188 0.67881227
vn -0.6971389 -0.27095756 0.6637615
vn 0.47052342 0.4872765 -0.73564214
vn -0.83382946 0.13270031 -0.5358348
vn 0.76797014 0.18723089 0.6125083
vn -0.604591 -0.17656788 0.77671975
g COL_branch03_0
f 3/3/3 2/2/2 1/1/1
f 4/4/4 3/3/3 1/1/1
f 7/7/7 6/6/6 5/5/5
f 8/8/8 7/7/7 5/5/5
f 11/11/11 10/10/10 9/9/9
f 12/12/12 11/11/11 9/9/9
f 12/12/12 9/9/9 13/13/13
f 11/11/11 14/14/14 10/10/10
f 14/14/14 15/15/15 10/10/10
f 16/16/16 13/13/13 15/15/15
f 16/16/16 12/12/12 13/13/13
f 14/14/14 16/16/16 15/15/15
f 17/17/17 11/11/11 12/12/12
f 18/18/18 12/12/12 16/16/16
f 18/18/18 17/17/17 12/12/12
f 19/19/19 14/14/14 11/11/11
f 17/17/17 19/19/19 11/11/11
f 20/20/20 16/16/16 14/14/14
f 20/20/20 18/18/18 16/16/16
f 19/19/19 20/20/20 14/14/14
f 21/21/21 17/17/17 18/18/18
f 22/22/22 21/21/21 18/18/18
f 22/22/22 18/18/18 20/20/20
f 21/21/21 23/23/23 17/17/17
f 23/23/23 19/19/19 17/17/17
f 24/24/24 22/22/22 20/20/20
f 24/24/24 20/20/20 19/19/19
f 23/23/23 24/24/24 19/19/19
