g COL_growthFlower02
v -0.63118756 -0.13239254 0.63118756
v 0.29487574 2.1991234 0.35551134
v 0.63118756 -0.13239254 0.63118756
v -0.29487574 2.1991234 0.35551134
v 0.29487574 2.1991234 -0.23424
v -0.29487574 2.1991234 -0.23424
v 0.63118756 -0.13239254 -0.63118756
v -0.63118756 -0.13239254 -0.63118756
v 0.63118756 -0.13239254 0.63118756
v -0.63118756 -0.13239254 0.63118756
v 0.63118756 -0.13239254 0.63118756
v 0.29487574 2.1991234 0.35551134
v 0.29487574 2.1991234 -0.23424
v 0.63118756 -0.13239254 -0.63118756
v -0.63118756 -0.13239254 -0.63118756
v -0.29487574 2.1991234 -0.23424
v -0.29487574 2.1991234 0.35551134
v -0.63118756 -0.13239254 0.63118756
vt 0.375 0
vt 0.625 0.25
vt 0.625 0
vt 0.375 0.25
vt 0.625 0.5
vt 0.375 0.5
vt 0.625 0.75
vt 0.375 0.75
vt 0.625 1
vt 0.375 1
vt 0.625 0
vt 0.625 0.25
vt 0.875 0.25
vt 0.875 0
vt 0.125 0
vt 0.125 0.25
vt 0.375 0.25
vt 0.375 0
vn -0.66622 -0.3576306 0.6544091
vn 0.67383206 0.27913907 0.6841284
vn 0.66622 -0.3576306 0.6544091
vn -0.67383206 0.27913907 0.6841284
vn 0.67727834 0.30991817 -0.66726655
vn -0.67727834 0.30991817 -0.66726655
vn 0.6600663 -0.33546188 -0.6721442
vn -0.6600663 -0.33546188 -0.6721442
vn 0.66622 -0.3576306 0.6544091
vn -0.66622 -0.3576306 0.6544091
vn 0.66622 -0.3576306 0.6544091
vn 0.67383206 0.27913907 0.6841284
vn 0.67727834 0.30991817 -0.66726655
vn 0.6600663 -0.33546188 -0.6721442
vn -0.6600663 -0.33546188 -0.6721442
vn -0.67727834 0.30991817 -0.66726655
vn -0.67383206 0.27913907 0.6841284
vn -0.66622 -0.3576306 0.6544091
g COL_growthFlower02_0
f 3/3/3 2/2/2 1/1/1
f 2/2/2 4/4/4 1/1/1
f 2/2/2 5/5/5 4/4/4
f 5/5/5 6/6/6 4/4/4
f 5/5/5 7/7/7 6/6/6
f 7/7/7 8/8/8 6/6/6
f 7/7/7 9/9/9 8/8/8
f 9/9/9 10/10/10 8/8/8
f 13/13/13 12/12/12 11/11/11
f 14/14/14 13/13/13 11/11/11
f 17/17/17 16/16/16 15/15/15
f 18/18/18 17/17/17 15/15/15
