g COL_treeRoots
v -3.3926494 3.7880745 -5.3964777
v -6.1461244 3.250991 -4.7548914
v -5.364337 0.36450806 -4.49886
v -3.3926494 3.7880745 -5.3964777
v -4.581469 8.754023 -3.36915
v -2.2122307 12.78479 -4.6606193
v -0.45277467 5.1191983 -6.6063867
v -2.4682546 2.3762078 -6.0460653
v -0.25297004 2.5100517 -7.463418
v 1.5272386 3.5067575 -5.507244
v -0.14449675 13.387568 -5.0074186
v -4.0819526 13.310213 -3.150575
v 2.471792 12.456672 -4.3709917
v -5.021669 12.803232 -1.4266156
v 4.558048 3.4404416 -3.648175
v 5.471467 9.206148 -1.5630243
v 4.2827835 13.44322 -1.2631688
v 7.560397 3.0452945 -2.1325164
v -5.9885926 3.7198248 -1.4691609
v -6.1461244 3.250991 -4.7548914
v -5.364337 0.36450806 -4.49886
v -4.0149446 14.838579 1.0890782
v -7.848568 3.0971897 2.0687172
v -2.5950258 11.510877 3.9018598
v -4.494436 3.7880745 4.4462814
v -0.43788406 12.595095 4.497873
v -1.5112197 3.7880745 7.829192
v 1.3618268 11.532285 4.4336324
v 2.016341 4.0800147 5.638376
v 3.34644 13.264958 3.2173696
v 5.5333652 3.3553724 4.5366025
v 4.266863 12.432875 1.7198209
v 6.2073812 3.7880745 1.64928
v 4.2827835 13.44322 -1.2631688
v 5.471467 9.206148 -1.5630243
v 7.560397 3.0452945 -2.1325164
v -7.4581122 -1.5859265 1.8081155
v -6.5085425 -4.377366 1.8193959
v -6.75619 -1.3509549 0.42373458
v -6.192322 -1.3252008 2.7384624
v -6.5085425 -4.377366 1.8193959
v -7.4581122 -1.5859265 1.8081155
v -5.277314 -2.5346801 1.5810988
v -6.5085425 -4.377366 1.8193959
v -6.75619 -1.3509549 0.42373458
v 0.12919454 -0.69768125 6.8359265
v -1.2490345 -4.8148007 6.777468
v -1.4698563 0.0058740233 7.9282794
v -1.2490345 -4.8148007 6.777468
v -2.550396 -0.0932991 6.774676
v 0.12919454 -0.69768125 6.8359265
v -0.9468426 0.2677861 4.4980135
v -2.550396 -0.0932991 6.774676
v 0.6935264 -0.40910584 -7.7268095
v 0.74062735 -4.466686 -7.0033445
v 1.6899868 -0.25244904 -6.507944
v -4.038576 -1.2261136 -4.516391
v -4.0992694 -4.3202043 -4.7452803
v -3.4335244 -1.6561211 -5.874198
v -2.3762245 -2.176007 -4.1634436
v -4.0992694 -4.3202043 -4.7452803
v -2.5090654 -2.0359583 -5.9559608
v -4.0992694 -4.3202043 -4.7452803
v -3.4335244 -1.6561211 -5.874198
v -4.0992694 -4.3202043 -4.7452803
v -2.5090654 -2.0359583 -5.9559608
v -3.3926494 3.7880745 -5.3964777
v -2.5610056 1.642211 -3.6666558
v -4.038576 -1.2261136 -4.516391
v -3.3926494 3.7880745 -5.3964777
v -3.3540263 1.8214346 -2.070563
v -4.038576 -1.2261136 -4.516391
v -3.4335244 -1.6561211 -5.874198
v -2.4682546 2.3762078 -6.0460653
v -5.9885926 3.7198248 -1.4691609
v -3.5234442 2.5516205 0.9332557
v -3.3540263 1.8214346 -2.070563
v 0.87436104 -1.0990695 -5.6769834
v 1.6899868 -0.25244904 -6.507944
v 0.74062735 -4.466686 -7.0033445
v -0.028471926 -1.0380539 -6.6962476
v 0.74062735 -4.466686 -7.0033445
v 0.6935264 -0.40910584 -7.7268095
v -0.028471926 -1.0380539 -6.6962476
v -1.0739986 1.3966616 -6.1918316
v -0.25297004 2.5100517 -7.463418
v -2.4682546 2.3762078 -6.0460653
v -1.3436148 1.0464909 -4.4006567
v 0.06567975 1.732442 -4.4547997
v -1.0739986 1.3966616 -6.1918316
v 6.0447145 -0.13857543 3.6140597
v 5.6770945 -3.9293056 3.5976317
v 5.990856 -0.2762677 4.8105936
v 5.990856 -0.2762677 4.8105936
v 4.7894993 -0.045679778 5.1241813
v 5.6770945 -3.9293056 3.5976317
v 4.408405 -0.094086304 3.318547
v 6.0447145 -0.13857543 3.6140597
v 4.558048 3.4404416 -3.648175
v 6.5203137 -5.581916 -1.408958
v 7.560397 3.0452945 -2.1325164
v 7.560397 3.0452945 -2.1325164
v 6.5203137 -5.581916 -1.408958
v 6.2073812 3.7880745 1.64928
v 6.5203137 -5.581916 -1.408958
v 4.558048 3.4404416 -3.648175
v 2.4827144 3.6146364 -0.49984
v 6.5203137 -5.581916 -1.408958
v 6.2073812 3.7880745 1.64928
v -0.9468426 0.2677861 4.4980135
v 0.12919454 -0.69768125 6.8359265
v 0.57571 2.1639962 5.999822
v -2.550396 -0.0932991 6.774676
v -2.9558992 2.3564556 5.773767
v 2.0117996 3.9282176 1.8068615
v -0.8653095 3.4258218 2.3223226
v 2.016341 4.0800147 5.638376
v 5.5333652 3.3553724 4.5366025
v 4.7894993 -0.045679778 5.1241813
v 5.990856 -0.2762677 4.8105936
v 4.7894993 -0.045679778 5.1241813
v 2.0117996 3.9282176 1.8068615
v 4.408405 -0.094086304 3.318547
v 6.2073812 3.7880745 1.64928
v 6.0447145 -0.13857543 3.6140597
v -0.8653095 3.4258218 2.3223226
v -3.5234442 2.5516205 0.9332557
v -4.494436 3.7880745 4.4462814
v -1.5112197 3.7880745 7.829192
v -2.9558992 2.3564556 5.773767
v -2.550396 -0.0932991 6.774676
v -1.4698563 0.0058740233 7.9282794
v 6.2073812 3.7880745 1.64928
v 2.4827144 3.6146364 -0.49984
v 2.0117996 3.9282176 1.8068615
v 6.0447145 -0.13857543 3.6140597
v 5.990856 -0.2762677 4.8105936
v 5.5333652 3.3553724 4.5366025
v 4.558048 3.4404416 -3.648175
v 1.5272386 3.5067575 -5.507244
v 0.06567975 1.732442 -4.4547997
v 4.558048 3.4404416 -3.648175
v 0.06567975 1.732442 -4.4547997
v 2.4827144 3.6146364 -0.49984
v -7.848568 3.0971897 2.0687172
v -7.4581122 -1.5859265 1.8081155
v -6.75619 -1.3509549 0.42373458
v -5.9885926 3.7198248 -1.4691609
v -4.494436 3.7880745 4.4462814
v -6.192322 -1.3252008 2.7384624
v -7.4581122 -1.5859265 1.8081155
v -7.848568 3.0971897 2.0687172
v -5.277314 -2.5346801 1.5810988
v -6.192322 -1.3252008 2.7384624
v -3.5234442 2.5516205 0.9332557
v -6.75619 -1.3509549 0.42373458
v -5.9885926 3.7198248 -1.4691609
v -5.364337 0.36450806 -4.49886
v -3.3540263 1.8214346 -2.070563
v -3.3926494 3.7880745 -5.3964777
v -5.9885926 3.7198248 -1.4691609
v 2.016341 4.0800147 5.638376
v 0.57571 2.1639962 5.999822
v -1.5112197 3.7880745 7.829192
v -1.4698563 0.0058740233 7.9282794
v 0.12919454 -0.69768125 6.8359265
v -0.25297004 2.5100517 -7.463418
v 0.6935264 -0.40910584 -7.7268095
v 1.6899868 -0.25244904 -6.507944
v 1.5272386 3.5067575 -5.507244
v -2.4682546 2.3762078 -6.0460653
v -3.4335244 -1.6561211 -5.874198
v -2.5090654 -2.0359583 -5.9559608
v -1.0739986 1.3966616 -6.1918316
v -2.5610056 1.642211 -3.6666558
v -2.3762245 -2.176007 -4.1634436
v -4.038576 -1.2261136 -4.516391
v -1.3436148 1.0464909 -4.4006567
v -2.5090654 -2.0359583 -5.9559608
v -1.0739986 1.3966616 -6.1918316
v -1.0739986 1.3966616 -6.1918316
v 0.87436104 -1.0990695 -5.6769834
v -0.028471926 -1.0380539 -6.6962476
v 0.06567975 1.732442 -4.4547997
v 1.6899868 -0.25244904 -6.507944
v 1.5272386 3.5067575 -5.507244
v -0.9468426 0.2677861 4.4980135
v 0.57571 2.1639962 5.999822
v 2.016341 4.0800147 5.638376
v -0.8653095 3.4258218 2.3223226
v -2.9558992 2.3564556 5.773767
v -4.494436 3.7880745 4.4462814
v -0.8653095 3.4258218 2.3223226
v 2.0117996 3.9282176 1.8068615
v 2.4827144 3.6146364 -0.49984
v -3.5234442 2.5516205 0.9332557
v 0.06567975 1.732442 -4.4547997
v -3.3540263 1.8214346 -2.070563
v -3.5234442 2.5516205 0.9332557
v 2.4827144 3.6146364 -0.49984
v -3.3540263 1.8214346 -2.070563
v 0.06567975 1.732442 -4.4547997
v -1.3436148 1.0464909 -4.4006567
v -2.5610056 1.642211 -3.6666558
v 4.2827835 13.44322 -1.2631688
v -0.14449655 11.178462 0
v 2.471792 12.456672 -4.3709917
v 4.266863 12.432875 1.7198209
v -0.14449675 13.387568 -5.0074186
v 3.34644 13.264958 3.2173696
v -2.2122307 12.78479 -4.6606193
v 1.3618268 11.532285 4.4336324
v -4.0819526 13.310213 -3.150575
v -0.43788406 12.595095 4.497873
v -5.021669 12.803232 -1.4266156
v -2.5950258 11.510877 3.9018598
v -2.7421427 12.397095 0.5486083
v -4.0149446 14.838579 1.0890782
vt 0.43750003 0.3125
vt 0.45833337 0.33136937
vt 0.45833337 0.3125
vt 0.43750003 0.3125
vt 0.45833337 0.50855863
vt 0.43750003 0.68843985
vt 0.4166667 0.3867402
vt 0.42460954 0.3125
vt 0.4166667 0.3125
vt 0.40416422 0.3125
vt 0.4166667 0.68843985
vt 0.45833337 0.68843985
vt 0.39583334 0.68843985
vt 0.47916672 0.68843985
vt 0.39583334 0.3125
vt 0.375 0.5109372
vt 0.375 0.68843985
vt 0.375 0.3125
vt 0.47916672 0.3125
vt 0.45833337 0.33136937
vt 0.45833337 0.3125
vt 0.50000006 0.68843985
vt 0.50000006 0.3125
vt 0.5208334 0.68843985
vt 0.5208334 0.3125
vt 0.5416667 0.68843985
vt 0.5416667 0.3125
vt 0.5625 0.68843985
vt 0.5625 0.3125
vt 0.5833333 0.68843985
vt 0.5833333 0.3125
vt 0.6041666 0.68843985
vt 0.6041666 0.3125
vt 0.62499994 0.68843985
vt 0.62499994 0.5109372
vt 0.62499994 0.3125
vt 0 0
vt 0 1
vt 1 0
vt 0 0
vt 1 1
vt 1 0
vt 0.042672835 0.2077155
vt 1 0
vt 0.08534567 0.415431
vt 0 0
vt 0 1
vt 1 0
vt 0 0
vt 0.964307 0.18642688
vt 0.8236641 0.3017308
vt 0.91307527 0.1487382
vt 1 0
vt 0 0
vt 0.5 1
vt 1 0
vt 0 0
vt 0.5 1
vt 1 0
vt 0.14025356 0.20225939
vt 1 1.6313043E-16
vt 0.2695587 0.3887301
vt 1 1.6313043E-16
vt 0.19350785 0
vt 0 0.30284745
vt 1 0
vt 0 0
vt 0.7170883 0.16856463
vt 1 0
vt 0 0
vt 0.42441925 0.34294283
vt 0 1
vt 1 1
vt 1 0
vt 0 0
vt 0.64630806 0.68298155
vt 1 1.0252409E-16
vt 0.07950603 0.13295433
vt 0 0.26590866
vt 0.99999994 1.840851E-16
vt 0.15901206 0
vt 1 1.4493017E-16
vt 0.41425008 0
vt 0.5517308 0.11813664
vt 0.26900628 0.19264573
vt 0 0.09530005
vt 0.025421252 0.25684
vt 0 0
vt 0.32598153 0.90650856
vt 1 9.106698E-16
vt 0 0
vt 0.5 1
vt 1 0
vt 0 0
vt 1 0
vt 0 0
vt 0.95103955 0.14025828
vt 0.90604156 0.26916534
vt 0 0
vt 1 1
vt 1 0
vt 0 0
vt 0 1
vt 1 0
vt 0 5.2966426E-17
vt 0.9059575 0.32679525
vt 0.95308113 0.16304207
vt 0 5.2966426E-17
vt 1 0
vt 0.52588737 0.26859945
vt 0 0.4583677
vt 0.87514174 0.6181378
vt 0.22609954 3.0922897E-16
vt 1 0
vt 0 0
vt 0.18093178 0.74948806
vt 1 0
vt 0 0
vt 1 1
vt 0 1
vt 0.084611475 1.0417631E-16
vt 0.85934085 0.33348355
vt 0.040521618 0.113989934
vt 0.7294808 0.64136386
vt 0 0.21875456
vt 0 0
vt 0.4216522 0.84481585
vt 1 0
vt 0 0
vt 1 0.565552
vt 1 1
vt 0 1
vt 0 0
vt 0.86037886 0.55709493
vt 0.99999994 6.7171444E-16
vt 0 1
vt 1 1
vt 1 0
vt 0 0.35719973
vt 0.03292769 0
vt 0.4125482 0.7259339
vt 0 0.35719973
vt 0.4125482 0.7259339
vt 1 0.35719973
vt 0 0
vt 0 1
vt 1 1
vt 1 0
vt 0 0
vt 0 1
vt 1 1
vt 1 0
vt 0.9700483 0.11909546
vt 0.9400967 0
vt 0.077261426 0.30486923
vt 1 0.23819092
vt 0.15452285 0.60973847
vt 0 0
vt 0.8814802 0.35599214
vt 1 0
vt 0.7629605 0.7119843
vt 0 0
vt 0 0.519788
vt 1 0
vt 1 1
vt 0 1
vt 0 0
vt 0 1
vt 1 1
vt 1 0
vt 0 1
vt 0.84855664 0.612414
vt 0.45891553 0
vt 0.30236438 1
vt 0.09522412 0
vt 0.9153587 0.17777589
vt 0.8235507 2.223288E-16
vt 0.04449804 0.26629943
vt 1 0.34167433
vt 0 0.4999032
vt 0.40446684 0
vt 0.9375958 0.13666473
vt 1 0
vt 0.20223342 0.23426941
vt 0.87519157 0.27332947
vt 0 0.46853882
vt 0.17638025 0.25093502
vt 0 0.4983586
vt 0.34617886 1
vt 0.63931006 0.47854
vt 0.35526368 3.0110166E-16
vt 0.9083144 0
vt 0.30183148 0
vt 0 0.4369104
vt 0.16847797 0.7780292
vt 1 1.1694403E-16
vt 0 3.6917736E-17
vt 0.049872443 0.70509696
vt 0.51676255 1
vt 0.9606 0
vt 0 0
vt 1 0.5072252
vt 0.8720148 0.019804448
vt 0.4983514 0
vt 0.6353165 0.921875
vt 0.5 0.8375
vt 0.578125 0.9790665
vt 0.65625 0.84375
vt 0.5 1
vt 0.6353165 0.765625
vt 0.421875 0.9790665
vt 0.578125 0.7084335
vt 0.36468354 0.921875
vt 0.5 0.6875
vt 0.34375 0.84375
vt 0.421875 0.7084335
vt 0.41623598 0.7930077
vt 0.36468354 0.765625
vn -0.39098695 0.1035519 -0.91455245
vn -0.8357651 0.107594274 -0.5384423
vn -0.11313332 -0.96373296 -0.2417017
vn -0.39098695 0.1035519 -0.91455245
vn -0.79331124 0.15558726 -0.5885999
vn -0.38289607 0.42735228 -0.8189998
vn 0.04269065 0.15528695 -0.9869465
vn -0.57397914 0.049898032 -0.8173482
vn 0.1840604 0.17888546 -0.96649975
vn 0.6520575 -0.215224 -0.72697973
vn 0.048701335 0.4307354 -0.9011633
vn -0.31794247 0.903199 -0.28834724
vn 0.5604699 0.36003467 -0.74582064
vn -0.91999954 0.3256177 -0.21811481
vn 0.26509643 -0.27443993 -0.9243412
vn 0.92988276 0.22559781 -0.2905577
vn 0.7993513 0.54229414 -0.25875607
vn 0.95457214 0.030018033 -0.29646406
vn -0.94926935 0.029069778 -0.31311756
vn -0.8357651 0.107594274 -0.5384423
vn -0.11313332 -0.96373296 -0.2417017
vn -0.87794507 0.36369672 0.31134722
vn -0.9356367 0.15652405 0.31636095
vn -0.6206863 0.3336367 0.70953155
vn -0.6198804 0.08881404 0.77965397
vn -0.13544738 0.51235753 0.8480234
vn -0.1679377 0.25016913 0.95352626
vn 0.34736836 0.32186618 0.8807596
vn 0.3364768 -0.011794904 0.94161785
vn 0.59027696 0.45735237 0.66513294
vn 0.6924089 0.19211958 0.6954567
vn 0.8911004 0.3975462 0.21885413
vn 0.907813 -0.05381602 0.4159079
vn 0.7993513 0.54229414 -0.25875607
vn 0.92988276 0.22559781 -0.2905577
vn 0.95457214 0.030018033 -0.29646406
vn -0.96766984 -0.12334837 0.22000055
vn -0.1242186 -0.991286 -0.043838523
vn -0.21380576 -0.29595628 -0.9309656
vn 0.17493956 -0.29982254 0.93781805
vn -0.1242186 -0.991286 -0.043838523
vn -0.96766984 -0.12334837 0.22000055
vn 0.86602694 -0.45254457 -0.21260461
vn -0.1242186 -0.991286 -0.043838523
vn -0.21380576 -0.29595628 -0.9309656
vn 0.92119074 -0.16781916 0.3510618
vn -0.13064079 -0.8806781 -0.45534497
vn 0.009335149 -0.009521254 0.99991107
vn -0.13064079 -0.8806781 -0.45534497
vn -0.98048097 -0.16368385 0.108924486
vn 0.92119074 -0.16781916 0.3510618
vn 0.060319867 -0.6251287 -0.7781874
vn -0.98048097 -0.16368385 0.108924486
vn 0.21535394 0.02908834 -0.9761027
vn 0.36554468 -0.8598036 -0.35653165
vn 0.9965329 0.030078903 -0.07757127
vn -0.9389363 0.00372026 0.3440709
vn -0.2731696 -0.8491052 0.45210475
vn -0.5342319 -0.007612485 -0.8453037
vn 0.6638482 -0.39399678 0.6356666
vn -0.2731696 -0.8491052 0.45210475
vn 0.66652304 -0.38314408 -0.63949025
vn -0.2731696 -0.8491052 0.45210475
vn -0.5342319 -0.007612485 -0.8453037
vn -0.2731696 -0.8491052 0.45210475
vn 0.66652304 -0.38314408 -0.63949025
vn -0.39098695 0.1035519 -0.91455245
vn -0.46539196 -0.40538687 0.7868111
vn -0.9389363 0.00372026 0.3440709
vn -0.39098695 0.1035519 -0.91455245
vn 0.1278519 -0.9525254 0.27631375
vn -0.9389363 0.00372026 0.3440709
vn -0.5342319 -0.007612485 -0.8453037
vn -0.57397914 0.049898032 -0.8173482
vn -0.94926935 0.029069778 -0.31311756
vn 0.53955555 -0.84002364 0.056921408
vn 0.1278519 -0.9525254 0.27631375
vn 0.12698051 -0.38856703 0.91262895
vn 0.9965329 0.030078903 -0.07757127
vn 0.36554468 -0.8598036 -0.35653165
vn -0.93869495 -0.34474027 -0.0024420603
vn 0.36554468 -0.8598036 -0.35653165
vn 0.21535394 0.02908834 -0.9761027
vn -0.93869495 -0.34474027 -0.0024420603
vn -0.36165804 -0.6141871 -0.7014112
vn 0.1840604 0.17888546 -0.96649975
vn -0.57397914 0.049898032 -0.8173482
vn 0.6364586 -0.56481296 0.5252683
vn 0.3053251 -0.8827995 0.3569899
vn -0.36165804 -0.6141871 -0.7014112
vn 0.71398515 -0.22473146 -0.66311455
vn -0.47653127 -0.82673866 -0.29903364
vn 0.7242016 0.01771509 0.6893607
vn 0.7242016 0.01771509 0.6893607
vn -0.49815086 -0.36614978 0.7859899
vn -0.47653127 -0.82673866 -0.29903364
vn -0.58860654 -0.58347905 -0.55954844
vn 0.71398515 -0.22473146 -0.66311455
vn 0.26509643 -0.27443993 -0.9243412
vn -0.06064472 -0.9502651 0.3054806
vn 0.95457214 0.030018033 -0.29646406
vn 0.95457214 0.030018033 -0.29646406
vn -0.06064472 -0.9502651 0.3054806
vn 0.907813 -0.05381602 0.4159079
vn -0.06064472 -0.9502651 0.3054806
vn 0.26509643 -0.27443993 -0.9243412
vn -0.2544814 -0.92388767 0.28578085
vn -0.06064472 -0.9502651 0.3054806
vn 0.907813 -0.05381602 0.4159079
vn 0.060319867 -0.6251287 -0.7781874
vn 0.92119074 -0.16781916 0.3510618
vn 0.9342552 -0.34265628 0.098762125
vn -0.98048097 -0.16368385 0.108924486
vn -0.885155 -0.45699975 -0.08747483
vn -0.20248069 -0.9709348 -0.12762083
vn 0.17263067 -0.97632116 -0.13036706
vn 0.3364768 -0.011794904 0.94161785
vn 0.6924089 0.19211958 0.6954567
vn -0.49815086 -0.36614978 0.7859899
vn 0.7242016 0.01771509 0.6893607
vn -0.49815086 -0.36614978 0.7859899
vn -0.20248069 -0.9709348 -0.12762083
vn -0.58860654 -0.58347905 -0.55954844
vn 0.907813 -0.05381602 0.4159079
vn 0.71398515 -0.22473146 -0.66311455
vn 0.17263067 -0.97632116 -0.13036706
vn 0.53955555 -0.84002364 0.056921408
vn -0.6198804 0.08881404 0.77965397
vn -0.1679377 0.25016913 0.95352626
vn -0.885155 -0.45699975 -0.08747483
vn -0.98048097 -0.16368385 0.108924486
vn 0.009335149 -0.009521254 0.99991107
vn 0.907813 -0.05381602 0.4159079
vn -0.2544814 -0.92388767 0.28578085
vn -0.20248069 -0.9709348 -0.12762083
vn 0.71398515 -0.22473146 -0.66311455
vn 0.7242016 0.01771509 0.6893607
vn 0.6924089 0.19211958 0.6954567
vn 0.26509643 -0.27443993 -0.9243412
vn 0.6520575 -0.215224 -0.72697973
vn 0.3053251 -0.8827995 0.3569899
vn 0.26509643 -0.27443993 -0.9243412
vn 0.3053251 -0.8827995 0.3569899
vn -0.2544814 -0.92388767 0.28578085
vn -0.9356367 0.15652405 0.31636095
vn -0.96766984 -0.12334837 0.22000055
vn -0.21380576 -0.29595628 -0.9309656
vn -0.94926935 0.029069778 -0.31311756
vn -0.6198804 0.08881404 0.77965397
vn 0.17493956 -0.29982254 0.93781805
vn -0.96766984 -0.12334837 0.22000055
vn -0.9356367 0.15652405 0.31636095
vn 0.86602694 -0.45254457 -0.21260461
vn 0.17493956 -0.29982254 0.93781805
vn 0.53955555 -0.84002364 0.056921408
vn -0.21380576 -0.29595628 -0.9309656
vn -0.94926935 0.029069778 -0.31311756
vn -0.11313332 -0.96373296 -0.2417017
vn 0.1278519 -0.9525254 0.27631375
vn -0.39098695 0.1035519 -0.91455245
vn -0.94926935 0.029069778 -0.31311756
vn 0.3364768 -0.011794904 0.94161785
vn 0.9342552 -0.34265628 0.098762125
vn -0.1679377 0.25016913 0.95352626
vn 0.009335149 -0.009521254 0.99991107
vn 0.92119074 -0.16781916 0.3510618
vn 0.1840604 0.17888546 -0.96649975
vn 0.21535394 0.02908834 -0.9761027
vn 0.9965329 0.030078903 -0.07757127
vn 0.6520575 -0.215224 -0.72697973
vn -0.57397914 0.049898032 -0.8173482
vn -0.5342319 -0.007612485 -0.8453037
vn 0.66652304 -0.38314408 -0.63949025
vn -0.36165804 -0.6141871 -0.7014112
vn -0.46539196 -0.40538687 0.7868111
vn 0.6638482 -0.39399678 0.6356666
vn -0.9389363 0.00372026 0.3440709
vn 0.6364586 -0.56481296 0.5252683
vn 0.66652304 -0.38314408 -0.63949025
vn -0.36165804 -0.6141871 -0.7014112
vn -0.36165804 -0.6141871 -0.7014112
vn 0.12698051 -0.38856703 0.91262895
vn -0.93869495 -0.34474027 -0.0024420603
vn 0.3053251 -0.8827995 0.3569899
vn 0.9965329 0.030078903 -0.07757127
vn 0.6520575 -0.215224 -0.72697973
vn 0.060319867 -0.6251287 -0.7781874
vn 0.9342552 -0.34265628 0.098762125
vn 0.3364768 -0.011794904 0.94161785
vn 0.17263067 -0.97632116 -0.13036706
vn -0.885155 -0.45699975 -0.08747483
vn -0.6198804 0.08881404 0.77965397
vn 0.17263067 -0.97632116 -0.13036706
vn -0.20248069 -0.9709348 -0.12762083
vn -0.2544814 -0.92388767 0.28578085
vn 0.53955555 -0.84002364 0.056921408
vn 0.3053251 -0.8827995 0.3569899
vn 0.1278519 -0.9525254 0.27631375
vn 0.53955555 -0.84002364 0.056921408
vn -0.2544814 -0.92388767 0.28578085
vn 0.1278519 -0.9525254 0.27631375
vn 0.3053251 -0.8827995 0.3569899
vn 0.6364586 -0.56481296 0.5252683
vn -0.46539196 -0.40538687 0.7868111
vn 0.7993513 0.54229414 -0.25875607
vn -0.08023035 0.9911389 0.10586257
vn 0.5604699 0.36003467 -0.74582064
vn 0.8911004 0.3975462 0.21885413
vn 0.048701335 0.4307354 -0.9011633
vn 0.59027696 0.45735237 0.66513294
vn -0.38289607 0.42735228 -0.8189998
vn 0.34736836 0.32186618 0.8807596
vn -0.31794247 0.903199 -0.28834724
vn -0.13544738 0.51235753 0.8480234
vn -0.91999954 0.3256177 -0.21811481
vn -0.6206863 0.3336367 0.70953155
vn 0.63894206 0.76237845 -0.102626376
vn -0.87794507 0.36369672 0.31134722
g COL_treeRoots_0
f 3/3/3 2/2/2 1/1/1
f 2/2/2 5/5/5 4/4/4
f 5/5/5 6/6/6 4/4/4
f 4/4/4 6/6/6 7/7/7
f 8/8/8 4/4/4 7/7/7
f 8/8/8 7/7/7 9/9/9
f 10/10/10 9/9/9 7/7/7
f 6/6/6 11/11/11 7/7/7
f 5/5/5 12/12/12 6/6/6
f 7/7/7 11/11/11 13/13/13
f 10/10/10 7/7/7 13/13/13
f 14/14/14 12/12/12 5/5/5
f 10/10/10 13/13/13 15/15/15
f 15/15/15 13/13/13 16/16/16
f 13/13/13 17/17/17 16/16/16
f 15/15/15 16/16/16 18/18/18
f 19/19/19 14/14/14 5/5/5
f 19/19/19 5/5/5 20/20/20
f 19/19/19 20/20/20 21/21/21
f 22/22/22 14/14/14 19/19/19
f 23/23/23 22/22/22 19/19/19
f 24/24/24 22/22/22 23/23/23
f 25/25/25 24/24/24 23/23/23
f 26/26/26 24/24/24 25/25/25
f 27/27/27 26/26/26 25/25/25
f 28/28/28 26/26/26 27/27/27
f 29/29/29 28/28/28 27/27/27
f 30/30/30 28/28/28 29/29/29
f 31/31/31 30/30/30 29/29/29
f 32/32/32 30/30/30 31/31/31
f 33/33/33 32/32/32 31/31/31
f 34/34/34 32/32/32 33/33/33
f 35/35/35 34/34/34 33/33/33
f 36/36/36 35/35/35 33/33/33
f 39/39/39 38/38/38 37/37/37
f 42/42/42 41/41/41 40/40/40
f 44/44/44 43/43/43 40/40/40
f 44/44/44 45/45/45 43/43/43
f 48/48/48 47/47/47 46/46/46
f 48/48/48 50/50/50 49/49/49
f 52/52/52 51/51/51 49/49/49
f 53/53/53 52/52/52 49/49/49
f 56/56/56 55/55/55 54/54/54
f 59/59/59 58/58/58 57/57/57
f 61/61/61 60/60/60 57/57/57
f 63/63/63 62/62/62 60/60/60
f 66/66/66 65/65/65 64/64/64
f 69/69/69 68/68/68 67/67/67
f 68/68/68 71/71/71 70/70/70
f 73/73/73 72/72/72 70/70/70
f 74/74/74 73/73/73 70/70/70
f 77/77/77 76/76/76 75/75/75
f 80/80/80 79/79/79 78/78/78
f 82/82/82 78/78/78 81/81/81
f 82/82/82 84/84/84 83/83/83
f 84/84/84 85/85/85 83/83/83
f 85/85/85 86/86/86 83/83/83
f 85/85/85 87/87/87 86/86/86
f 90/90/90 89/89/89 88/88/88
f 93/93/93 92/92/92 91/91/91
f 95/95/95 92/92/92 94/94/94
f 95/95/95 97/97/97 96/96/96
f 97/97/97 98/98/98 96/96/96
f 101/101/101 100/100/100 99/99/99
f 104/104/104 103/103/103 102/102/102
f 107/107/107 106/106/106 105/105/105
f 109/109/109 107/107/107 108/108/108
f 112/112/112 111/111/111 110/110/110
f 114/114/114 110/110/110 113/113/113
f 117/117/117 116/116/116 115/115/115
f 117/117/117 119/119/119 118/118/118
f 119/119/119 120/120/120 118/118/118
f 117/117/117 122/122/122 121/121/121
f 122/122/122 123/123/123 121/121/121
f 122/122/122 124/124/124 123/123/123
f 124/124/124 125/125/125 123/123/123
f 128/128/128 127/127/127 126/126/126
f 128/128/128 130/130/130 129/129/129
f 130/130/130 131/131/131 129/129/129
f 131/131/131 132/132/132 129/129/129
f 135/135/135 134/134/134 133/133/133
f 137/137/137 136/136/136 133/133/133
f 138/138/138 137/137/137 133/133/133
f 141/141/141 140/140/140 139/139/139
f 144/144/144 143/143/143 142/142/142
f 147/147/147 146/146/146 145/145/145
f 148/148/148 147/147/147 145/145/145
f 151/151/151 150/150/150 149/149/149
f 152/152/152 151/151/151 149/149/149
f 154/154/154 153/153/153 149/149/149
f 153/153/153 155/155/155 149/149/149
f 153/153/153 156/156/156 155/155/155
f 156/156/156 157/157/157 155/155/155
f 160/160/160 159/159/159 158/158/158
f 159/159/159 161/161/161 158/158/158
f 164/164/164 163/163/163 162/162/162
f 164/164/164 165/165/165 163/163/163
f 165/165/165 166/166/166 163/163/163
f 169/169/169 168/168/168 167/167/167
f 170/170/170 169/169/169 167/167/167
f 173/173/173 172/172/172 171/171/171
f 174/174/174 173/173/173 171/171/171
f 177/177/177 176/176/176 175/175/175
f 176/176/176 178/178/178 175/175/175
f 176/176/176 179/179/179 178/178/178
f 179/179/179 180/180/180 178/178/178
f 183/183/183 182/182/182 181/181/181
f 182/182/182 184/184/184 181/181/181
f 182/182/182 185/185/185 184/184/184
f 185/185/185 186/186/186 184/184/184
f 189/189/189 188/188/188 187/187/187
f 190/190/190 189/189/189 187/187/187
f 190/190/190 187/187/187 191/191/191
f 192/192/192 190/190/190 191/191/191
f 195/195/195 194/194/194 193/193/193
f 196/196/196 195/195/195 193/193/193
f 199/199/199 198/198/198 197/197/197
f 200/200/200 199/199/199 197/197/197
f 203/203/203 202/202/202 201/201/201
f 204/204/204 203/203/203 201/201/201
f 207/207/207 206/206/206 205/205/205
f 205/205/205 206/206/206 208/208/208
f 209/209/209 206/206/206 207/207/207
f 208/208/208 206/206/206 210/210/210
f 211/211/211 206/206/206 209/209/209
f 210/210/210 206/206/206 212/212/212
f 213/213/213 206/206/206 211/211/211
f 212/212/212 206/206/206 214/214/214
f 215/215/215 206/206/206 213/213/213
f 214/214/214 206/206/206 216/216/216
f 217/217/217 206/206/206 215/215/215
f 216/216/216 206/206/206 217/217/217
f 218/218/218 217/217/217 215/215/215
f 216/216/216 217/217/217 218/218/218
