g col_caveRoof1
v -3.0065093 1.2868135 3.3957663
v -0.47893518 3.183198 1.8754457
v -1.8810258 2.218351 -1.9380907
v 2.145552 2.3285494 -1.5573394
v -1.8810258 2.218351 -1.9380907
v -0.47893518 3.183198 1.8754457
v -0.47893518 3.183198 1.8754457
v 3.305816 0.65163827 0.8134703
v 2.145552 2.3285494 -1.5573394
v 3.305816 0.65163827 0.8134703
v -0.47893518 3.183198 1.8754457
v 2.7651675 1.6226298 3.668222
v -3.0065093 1.2868135 3.3957663
v -3.3707454 -0.08319243 0.23065834
v -2.560975 0.3190413 5.7912345
v -5.4469304 -0.60768616 -2.8398857
v -5.5179553 -0.2461915 2.279756
v -3.3707454 -0.08319243 0.23065834
v -3.92112 -0.85788035 -5.178908
v -3.3707454 -0.08319243 0.23065834
v -1.8810258 2.218351 -1.9380907
v 2.0527399 1.2182535 -5.136959
v -1.8810258 2.218351 -1.9380907
v 2.145552 2.3285494 -1.5573394
v -5.0278215 -0.9464445 5.8012958
v -3.3707454 -0.08319243 0.23065834
v -5.5179553 -0.2461915 2.279756
v -5.0278215 -0.9464445 5.8012958
v -2.560975 0.3190413 5.7912345
v -3.3707454 -0.08319243 0.23065834
v -1.48536 1.521144 -5.397627
v -3.92112 -0.85788035 -5.178908
v -1.8810258 2.218351 -1.9380907
v -1.48536 1.521144 -5.397627
v -1.8810258 2.218351 -1.9380907
v 2.0527399 1.2182535 -5.136959
v 3.9478219 -0.8252572 -2.9522076
v 3.305816 0.65163827 0.8134703
v 5.086618 -0.8110908 -1.2059277
v -1.6046809 4.207441 4.3766146
v -5.0157914 1.2634472 5.7520647
v -2.099083 3.8186238 -1.6887237
v 3.9478219 -0.8252572 -2.9522076
v 5.086618 -0.8110908 -1.2059277
v 4.7312717 -1.2650399 -5.070078
v 5.5100403 -0.49807304 5.537406
v 5.086618 -0.8110908 -1.2059277
v 4.308933 -1.0013473 2.0946922
v -5.0157914 1.2634472 5.7520647
v -5.5179553 -0.2461915 2.279756
v -2.099083 3.8186238 -1.6887237
v 5.5100403 -0.49807304 5.537406
v 5.676886 0.94654745 2.883396
v 5.086618 -0.8110908 -1.2059277
v 4.4570255 3.0619915 5.1876807
v 5.676886 0.94654745 2.883396
v 5.5100403 -0.49807304 5.537406
v 5.676886 0.94654745 2.883396
v 5.8292136 -0.13965282 -3.943136
v 5.086618 -0.8110908 -1.2059277
v -2.099083 3.8186238 -1.6887237
v -4.834981 1.6828588 -5.5673
v 0.7888204 3.5342553 -5.382492
v -2.099083 3.8186238 -1.6887237
v -0.33551964 4.7717595 1.2555002
v -1.6046809 4.207441 4.3766146
v -5.0157914 1.2634472 5.7520647
v -5.0278215 -0.9464445 5.8012958
v -5.5179553 -0.2461915 2.279756
v 5.4849973 1.5438327 -5.9270854
v 5.8292136 -0.13965282 -3.943136
v 4.6071296 1.9271972 -2.0352674
v 4.6071296 1.9271972 -2.0352674
v 5.8292136 -0.13965282 -3.943136
v 5.676886 0.94654745 2.883396
v 5.086618 -0.8110908 -1.2059277
v 3.305816 0.65163827 0.8134703
v 4.308933 -1.0013473 2.0946922
v -5.4469304 -0.60768616 -2.8398857
v -3.3707454 -0.08319243 0.23065834
v -3.92112 -0.85788035 -5.178908
v 3.305816 0.65163827 0.8134703
v 3.9478219 -0.8252572 -2.9522076
v 2.145552 2.3285494 -1.5573394
v 2.0527399 1.2182535 -5.136959
v 2.145552 2.3285494 -1.5573394
v 3.9478219 -0.8252572 -2.9522076
v -0.55766124 2.4335763 5.3145
v -2.560975 0.3190413 5.7912345
v -5.0157914 1.2634472 5.7520647
v 2.3846848 3.819127 -1.225877
v -0.33551964 4.7717595 1.2555002
v -2.099083 3.8186238 -1.6887237
v 4.6071296 1.9271972 -2.0352674
v 2.3846848 3.819127 -1.225877
v 5.4849973 1.5438327 -5.9270854
v 5.676886 0.94654745 2.883396
v 4.4570255 3.0619915 5.1876807
v 2.3846848 3.819127 -1.225877
v -1.6046809 4.207441 4.3766146
v 2.3846848 3.819127 -1.225877
v 4.4570255 3.0619915 5.1876807
v -0.33551964 4.7717595 1.2555002
v 2.3846848 3.819127 -1.225877
v -1.6046809 4.207441 4.3766146
v 0.7888204 3.5342553 -5.382492
v 2.3846848 3.819127 -1.225877
v -2.099083 3.8186238 -1.6887237
v 4.6071296 1.9271972 -2.0352674
v 5.676886 0.94654745 2.883396
v 2.3846848 3.819127 -1.225877
v 0.7888204 3.5342553 -5.382492
v 5.4849973 1.5438327 -5.9270854
v 2.3846848 3.819127 -1.225877
v -4.9479685 1.1270858 -2.012104
v -5.4469304 -0.60768616 -2.8398857
v -4.834981 1.6828588 -5.5673
v -1.48536 1.521144 -5.397627
v 0.7888204 3.5342553 -5.382492
v -4.834981 1.6828588 -5.5673
v 4.938846 -0.12519324 -6.0116253
v 4.7312717 -1.2650399 -5.070078
v 5.8292136 -0.13965282 -3.943136
v 4.7312717 -1.2650399 -5.070078
v 4.938846 -0.12519324 -6.0116253
v 2.0527399 1.2182535 -5.136959
v -5.1194315 -0.2203815 -5.7386894
v -1.48536 1.521144 -5.397627
v -4.834981 1.6828588 -5.5673
v 2.0527399 1.2182535 -5.136959
v 4.938846 -0.12519324 -6.0116253
v 5.4849973 1.5438327 -5.9270854
v -5.4469304 -0.60768616 -2.8398857
v -5.1194315 -0.2203815 -5.7386894
v -4.834981 1.6828588 -5.5673
v 4.7312717 -1.2650399 -5.070078
v 5.086618 -0.8110908 -1.2059277
v 5.8292136 -0.13965282 -3.943136
v 4.7312717 -1.2650399 -5.070078
v 2.0527399 1.2182535 -5.136959
v 3.9478219 -0.8252572 -2.9522076
v -5.1194315 -0.2203815 -5.7386894
v -5.4469304 -0.60768616 -2.8398857
v -3.92112 -0.85788035 -5.178908
v 5.8292136 -0.13965282 -3.943136
v 5.4849973 1.5438327 -5.9270854
v 4.938846 -0.12519324 -6.0116253
v -5.5179553 -0.2461915 2.279756
v -5.4469304 -0.60768616 -2.8398857
v -4.9479685 1.1270858 -2.012104
v -2.560975 0.3190413 5.7912345
v -0.55766124 2.4335763 5.3145
v -3.0065093 1.2868135 3.3957663
v 2.0527399 1.2182535 -5.136959
v 5.4849973 1.5438327 -5.9270854
v -1.48536 1.521144 -5.397627
v -5.1194315 -0.2203815 -5.7386894
v -3.92112 -0.85788035 -5.178908
v -1.48536 1.521144 -5.397627
v 4.308933 -1.0013473 2.0946922
v 3.305816 0.65163827 0.8134703
v 5.5100403 -0.49807304 5.537406
v 5.5100403 -0.49807304 5.537406
v 3.305816 0.65163827 0.8134703
v 2.7651675 1.6226298 3.668222
v 0.7888204 3.5342553 -5.382492
v -1.48536 1.521144 -5.397627
v 5.4849973 1.5438327 -5.9270854
v 2.7651675 1.6226298 3.668222
v -0.47893518 3.183198 1.8754457
v -0.55766124 2.4335763 5.3145
v -0.55766124 2.4335763 5.3145
v 5.5100403 -0.49807304 5.537406
v 2.7651675 1.6226298 3.668222
v -5.0157914 1.2634472 5.7520647
v -2.560975 0.3190413 5.7912345
v -5.0278215 -0.9464445 5.8012958
v 5.5100403 -0.49807304 5.537406
v -0.55766124 2.4335763 5.3145
v 4.4570255 3.0619915 5.1876807
v -3.0065093 1.2868135 3.3957663
v -1.8810258 2.218351 -1.9380907
v -3.3707454 -0.08319243 0.23065834
v -0.47893518 3.183198 1.8754457
v -3.0065093 1.2868135 3.3957663
v -0.55766124 2.4335763 5.3145
v -2.099083 3.8186238 -1.6887237
v -5.5179553 -0.2461915 2.279756
v -4.9479685 1.1270858 -2.012104
v -4.834981 1.6828588 -5.5673
v -1.6046809 4.207441 4.3766146
v 4.4570255 3.0619915 5.1876807
v -0.55766124 2.4335763 5.3145
v -5.0157914 1.2634472 5.7520647
vt 0 0
vt 0 0
vt 0 0
vt 0 0
vt 0 0
vt 0 0
vt 0 0
vt 0 0
vt 0 0
vt 0 0
vt 0 0
vt 0 0
vt 0 0
vt 0 0
vt 0 0
vt 0 0
vt 0 0
vt 0 0
vt 0 0
vt 0 0
vt 0 0
vt 0 0
vt 0 0
vt 0 0
vt 0 0
vt 0 0
vt 0 0
vt 0 0
vt 0 0
vt 0 0
vt 0 0
vt 0 0
vt 0 0
vt 0 0
vt 0 0
vt 0 0
vt 0 0
vt 0 0
vt 0 0
vt 0 0
vt 0 0
vt 0 0
vt 0 0
vt 0 0
vt 0 0
vt 0 0
vt 0 0
vt 0 0
vt 0 0
vt 0 0
vt 0 0
vt 0 0
vt 0 0
vt 0 0
vt 0 0
vt 0 0
vt 0 0
vt 0 0
vt 0 0
vt 0 0
vt 0 0
vt 0 0
vt 0 0
vt 0 0
vt 0 0
vt 0 0
vt 0 0
vt 0 0
vt 0 0
vt 0 0
vt 0 0
vt 0 0
vt 0 0
vt 0 0
vt 0 0
vt 0 0
vt 0 0
vt 0 0
vt 0 0
vt 0 0
vt 0 0
vt 0 0
vt 0 0
vt 0 0
vt 0 0
vt 0 0
vt 0 0
vt 0 0
vt 0 0
vt 0 0
vt 0 0
vt 0 0
vt 0 0
vt 0 0
vt 0 0
vt 0 0
vt 0 0
vt 0 0
vt 0 0
vt 0 0
vt 0 0
vt 0 0
vt 0 0
vt 0 0
vt 0 0
vt 0 0
vt 0 0
vt 0 0
vt 0 0
vt 0 0
vt 0 0
vt 0 0
vt 0 0
vt 0 0
vt 0 0
vt 0 0
vt 0 0
vt 0 0
vt 0 0
vt 0 0
vt 0 0
vt 0 0
vt 0 0
vt 0 0
vt 0 0
vt 0 0
vt 0 0
vt 0 0
vt 0 0
vt 0 0
vt 0 0
vt 0 0
vt 0 0
vt 0 0
vt 0 0
vt 0 0
vt 0 0
vt 0 0
vt 0 0
vt 0 0
vt 0 0
vt 0 0
vt 0 0
vt 0 0
vt 0 0
vt 0 0
vt 0 0
vt 0 0
vt 0 0
vt 0 0
vt 0 0
vt 0 0
vt 0 0
vt 0 0
vt 0 0
vt 0 0
vt 0 0
vt 0 0
vt 0 0
vt 0 0
vt 0 0
vt 0 0
vt 0 0
vt 0 0
vt 0 0
vt 0 0
vt 0 0
vt 0 0
vt 0 0
vt 0 0
vt 0 0
vt 0 0
vt 0 0
vt 0 0
vt 0 0
vt 0 0
vt 0 0
vt 0 0
vt 0 0
vt 0 0
vt 0 0
vt 0 0
vt 0 0
vt 0 0
vt 0 0
vt 0 0
vt 0 0
vt 0 0
vt 0 0
vt 0 0
vt 0 0
vt 0 0
vt 0 0
vt 0 0
vn 0.59427 -0.80412495 -0.01504192
vn 0.59427 -0.80412495 -0.01504192
vn 0.59427 -0.80412495 -0.01504192
vn 0.0034597581 -0.969749 0.24408005
vn 0.0034597581 -0.969749 0.24408005
vn 0.0034597581 -0.969749 0.24408005
vn -0.58607894 -0.76849985 -0.25674763
vn -0.58607894 -0.76849985 -0.25674763
vn -0.58607894 -0.76849985 -0.25674763
vn -0.5086611 -0.8398894 0.18933995
vn -0.5086611 -0.8398894 0.18933995
vn -0.5086611 -0.8398894 0.18933995
vn 0.98522866 0.083485246 -0.14951499
vn 0.98522866 0.083485246 -0.14951499
vn 0.98522866 0.083485246 -0.14951499
vn 0.14334057 -0.9870738 0.07168527
vn 0.14334057 -0.9870738 0.07168527
vn 0.14334057 -0.9870738 0.07168527
vn 0.8365924 -0.5477852 -0.006668994
vn 0.8365924 -0.5477852 -0.006668994
vn 0.8365924 -0.5477852 -0.006668994
vn -0.0018783192 -0.9550955 0.29629207
vn -0.0018783192 -0.9550955 0.29629207
vn -0.0018783192 -0.9550955 0.29629207
vn -0.09834823 -0.9785719 -0.18089938
vn -0.09834823 -0.9785719 -0.18089938
vn -0.09834823 -0.9785719 -0.18089938
vn 0.45643353 -0.8897551 -0.0021071685
vn 0.45643353 -0.8897551 -0.0021071685
vn 0.45643353 -0.8897551 -0.0021071685
vn 0.69188476 -0.6883561 0.21785633
vn 0.69188476 -0.6883561 0.21785633
vn 0.69188476 -0.6883561 0.21785633
vn -0.09739803 -0.97772866 0.18590409
vn -0.09739803 -0.97772866 0.18590409
vn -0.09739803 -0.97772866 0.18590409
vn -0.40705264 -0.87180257 0.27252233
vn -0.40705264 -0.87180257 0.27252233
vn -0.40705264 -0.87180257 0.27252233
vn -0.65230334 0.7579441 0.0045832046
vn -0.65230334 0.7579441 0.0045832046
vn -0.65230334 0.7579441 0.0045832046
vn -0.18994735 -0.9729125 0.13176236
vn -0.18994735 -0.9729125 0.13176236
vn -0.18994735 -0.9729125 0.13176236
vn 0.32918596 -0.94398135 0.023148526
vn 0.32918596 -0.94398135 0.023148526
vn 0.32918596 -0.94398135 0.023148526
vn -0.81660426 0.56311464 -0.12672567
vn -0.81660426 0.56311464 -0.12672567
vn -0.81660426 0.56311464 -0.12672567
vn 0.97680897 -0.20777951 -0.05169002
vn 0.97680897 -0.20777951 -0.05169002
vn 0.97680897 -0.20777951 -0.05169002
vn 0.92939377 0.29649448 0.21981403
vn 0.92939377 0.29649448 0.21981403
vn 0.92939377 0.29649448 0.21981403
vn 0.8471215 -0.5215401 0.101887405
vn 0.8471215 -0.5215401 0.101887405
vn 0.8471215 -0.5215401 0.101887405
vn -0.28981465 0.90995187 -0.29663977
vn -0.28981465 0.90995187 -0.29663977
vn -0.28981465 0.90995187 -0.29663977
vn -0.44834223 0.8936214 -0.02073976
vn -0.44834223 0.8936214 -0.02073976
vn -0.44834223 0.8936214 -0.02073976
vn -0.9901849 0.008498081 0.13950518
vn -0.9901849 0.008498081 0.13950518
vn -0.9901849 0.008498081 0.13950518
vn 0.9085518 0.38284263 0.1672277
vn 0.9085518 0.38284263 0.1672277
vn 0.9085518 0.38284263 0.1672277
vn 0.8291565 0.5546479 -0.06975061
vn 0.8291565 0.5546479 -0.06975061
vn 0.8291565 0.5546479 -0.06975061
vn -0.7531004 -0.62236243 -0.21331869
vn -0.7531004 -0.62236243 -0.21331869
vn -0.7531004 -0.62236243 -0.21331869
vn 0.04755444 -0.98944855 0.13685769
vn 0.04755444 -0.98944855 0.13685769
vn 0.04755444 -0.98944855 0.13685769
vn -0.8561083 -0.5138016 0.055555787
vn -0.8561083 -0.5138016 0.055555787
vn -0.8561083 -0.5138016 0.055555787
vn -0.8132776 -0.54945654 0.19151238
vn -0.8132776 -0.54945654 0.19151238
vn -0.8132776 -0.54945654 0.19151238
vn 0.051018737 0.17340727 0.9835278
vn 0.051018737 0.17340727 0.9835278
vn 0.051018737 0.17340727 0.9835278
vn 0.033540897 0.9447922 -0.32594892
vn 0.033540897 0.9447922 -0.32594892
vn 0.033540897 0.9447922 -0.32594892
vn 0.66223687 0.74543536 0.07594992
vn 0.66223687 0.74543536 0.07594992
vn 0.66223687 0.74543536 0.07594992
vn 0.7607095 0.625914 -0.17190886
vn 0.7607095 0.625914 -0.17190886
vn 0.7607095 0.625914 -0.17190886
vn 0.17779547 0.9823261 0.05851686
vn 0.17779547 0.9823261 0.05851686
vn 0.17779547 0.9823261 0.05851686
vn 0.58875567 0.71896297 0.36940363
vn 0.58875567 0.71896297 0.36940363
vn 0.58875567 0.71896297 0.36940363
vn 0.007231165 0.99744046 -0.07113545
vn 0.007231165 0.99744046 -0.07113545
vn 0.007231165 0.99744046 -0.07113545
vn 0.6502952 0.75961566 0.010014731
vn 0.6502952 0.75961566 0.010014731
vn 0.6502952 0.75961566 0.010014731
vn 0.3623334 0.9100113 -0.20147923
vn 0.3623334 0.9100113 -0.20147923
vn 0.3623334 0.9100113 -0.20147923
vn -0.96245325 0.2711905 0.011806261
vn -0.96245325 0.2711905 0.011806261
vn -0.96245325 0.2711905 0.011806261
vn 0.048268702 -0.047027245 -0.99772674
vn 0.048268702 -0.047027245 -0.99772674
vn 0.048268702 -0.047027245 -0.99772674
vn 0.8217164 -0.44437537 -0.35680887
vn 0.8217164 -0.44437537 -0.35680887
vn 0.8217164 -0.44437537 -0.35680887
vn -0.45902476 -0.5146183 -0.724199
vn -0.45902476 -0.5146183 -0.724199
vn -0.45902476 -0.5146183 -0.724199
vn 0.05434516 0.081496194 -0.99519086
vn 0.05434516 0.081496194 -0.99519086
vn 0.05434516 0.081496194 -0.99519086
vn -0.23384625 0.12535772 -0.9641584
vn -0.23384625 0.12535772 -0.9641584
vn -0.23384625 0.12535772 -0.9641584
vn -0.9837426 0.15516756 -0.09040835
vn -0.9837426 0.15516756 -0.09040835
vn -0.9837426 0.15516756 -0.09040835
vn 0.70652384 -0.7074568 0.018138353
vn 0.70652384 -0.7074568 0.018138353
vn 0.70652384 -0.7074568 0.018138353
vn -0.6752853 -0.73101616 -0.09800593
vn -0.6752853 -0.73101616 -0.09800593
vn -0.6752853 -0.73101616 -0.09800593
vn -0.40172452 -0.9006412 -0.1657191
vn -0.40172452 -0.9006412 -0.1657191
vn -0.40172452 -0.9006412 -0.1657191
vn 0.88376534 -0.26982856 -0.38229728
vn 0.88376534 -0.26982856 -0.38229728
vn 0.88376534 -0.26982856 -0.38229728
vn -0.95608526 0.29113072 -0.0338202
vn -0.95608526 0.29113072 -0.0338202
vn -0.95608526 0.29113072 -0.0338202
vn 0.6230161 -0.6781391 -0.3898441
vn 0.6230161 -0.6781391 -0.3898441
vn 0.6230161 -0.6781391 -0.3898441
vn -0.035963804 -0.8592516 -0.5102875
vn -0.035963804 -0.8592516 -0.5102875
vn -0.035963804 -0.8592516 -0.5102875
vn 0.24618435 -0.33564878 -0.90924877
vn 0.24618435 -0.33564878 -0.90924877
vn 0.24618435 -0.33564878 -0.90924877
vn -0.8959276 -0.2707428 0.35215345
vn -0.8959276 -0.2707428 0.35215345
vn -0.8959276 -0.2707428 0.35215345
vn -0.65922153 -0.74110746 0.12722702
vn -0.65922153 -0.74110746 0.12722702
vn -0.65922153 -0.74110746 0.12722702
vn -0.0757131 0.09299576 -0.99278367
vn -0.0757131 0.09299576 -0.99278367
vn -0.0757131 0.09299576 -0.99278367
vn -0.32809123 -0.9213835 -0.20834738
vn -0.32809123 -0.9213835 -0.20834738
vn -0.32809123 -0.9213835 -0.20834738
vn -0.39165664 -0.8392925 -0.37708512
vn -0.39165664 -0.8392925 -0.37708512
vn -0.39165664 -0.8392925 -0.37708512
vn -0.0073684845 0.022311145 0.99972385
vn -0.0073684845 0.022311145 0.99972385
vn -0.0073684845 0.022311145 0.99972385
vn 0.01244981 0.10140462 0.9947674
vn 0.01244981 0.10140462 0.9947674
vn 0.01244981 0.10140462 0.9947674
vn 0.87642574 -0.47044227 0.10277154
vn 0.87642574 -0.47044227 0.10277154
vn 0.87642574 -0.47044227 0.10277154
vn 0.52397835 -0.8346085 -0.16992736
vn 0.52397835 -0.8346085 -0.16992736
vn 0.52397835 -0.8346085 -0.16992736
vn -0.68846345 0.7123126 0.13648798
vn -0.68846345 0.7123126 0.13648798
vn -0.68846345 0.7123126 0.13648798
vn -0.68933874 0.7187697 0.09045527
vn -0.03401409 0.4513784 0.89168406
vn -0.03401409 0.4513784 0.89168406
vn -0.03401409 0.4513784 0.89168406
vn -0.031345937 0.4526611 0.8911315
g col_caveRoof1_0
f 3/3/3 2/2/2 1/1/1
f 6/6/6 5/5/5 4/4/4
f 9/9/9 8/8/8 7/7/7
f 12/12/12 11/11/11 10/10/10
f 15/15/15 14/14/14 13/13/13
f 18/18/18 17/17/17 16/16/16
f 21/21/21 20/20/20 19/19/19
f 24/24/24 23/23/23 22/22/22
f 27/27/27 26/26/26 25/25/25
f 30/30/30 29/29/29 28/28/28
f 33/33/33 32/32/32 31/31/31
f 36/36/36 35/35/35 34/34/34
f 39/39/39 38/38/38 37/37/37
f 42/42/42 41/41/41 40/40/40
f 45/45/45 44/44/44 43/43/43
f 48/48/48 47/47/47 46/46/46
f 51/51/51 50/50/50 49/49/49
f 54/54/54 53/53/53 52/52/52
f 57/57/57 56/56/56 55/55/55
f 60/60/60 59/59/59 58/58/58
f 63/63/63 62/62/62 61/61/61
f 66/66/66 65/65/65 64/64/64
f 69/69/69 68/68/68 67/67/67
f 72/72/72 71/71/71 70/70/70
f 75/75/75 74/74/74 73/73/73
f 78/78/78 77/77/77 76/76/76
f 81/81/81 80/80/80 79/79/79
f 84/84/84 83/83/83 82/82/82
f 87/87/87 86/86/86 85/85/85
f 90/90/90 89/89/89 88/88/88
f 93/93/93 92/92/92 91/91/91
f 96/96/96 95/95/95 94/94/94
f 99/99/99 98/98/98 97/97/97
f 102/102/102 101/101/101 100/100/100
f 105/105/105 104/104/104 103/103/103
f 108/108/108 107/107/107 106/106/106
f 111/111/111 110/110/110 109/109/109
f 114/114/114 113/113/113 112/112/112
f 117/117/117 116/116/116 115/115/115
f 120/120/120 119/119/119 118/118/118
f 123/123/123 122/122/122 121/121/121
f 126/126/126 125/125/125 124/124/124
f 129/129/129 128/128/128 127/127/127
f 132/132/132 131/131/131 130/130/130
f 135/135/135 134/134/134 133/133/133
f 138/138/138 137/137/137 136/136/136
f 141/141/141 140/140/140 139/139/139
f 144/144/144 143/143/143 142/142/142
f 147/147/147 146/146/146 145/145/145
f 150/150/150 149/149/149 148/148/148
f 153/153/153 152/152/152 151/151/151
f 156/156/156 155/155/155 154/154/154
f 159/159/159 158/158/158 157/157/157
f 162/162/162 161/161/161 160/160/160
f 165/165/165 164/164/164 163/163/163
f 168/168/168 167/167/167 166/166/166
f 171/171/171 170/170/170 169/169/169
f 174/174/174 173/173/173 172/172/172
f 177/177/177 176/176/176 175/175/175
f 180/180/180 179/179/179 178/178/178
f 183/183/183 182/182/182 181/181/181
f 186/186/186 185/185/185 184/184/184
f 189/189/189 188/188/188 187/187/187
f 187/187/187 190/190/190 189/189/189
f 193/193/193 192/192/192 191/191/191
f 191/191/191 194/194/194 193/193/193
