g COL_branch01
v 0.00956604 21.451107 1.5121435
v 5.0393934 23.81267 1.7391837
v 4.8737082 23.836044 2.7112582
v -0.1429637 21.472637 2.4069898
v -2.8055522 -0.6967471 -1.3543756
v -2.8055522 -0.6967471 1.8818779
v 2.1901832 -0.6967471 1.8818779
v 2.1901832 -0.6967471 -1.3543756
v -2.8055522 -0.6967471 -1.3543756
v 2.1901832 -0.6967471 -1.3543756
v 0.8845599 3.1070514 -1.308519
v -1.7784513 3.1070514 -1.308519
v -2.8055522 -0.6967471 1.8818779
v 0.8845599 3.1070514 1.5896233
v 2.1901832 -0.6967471 1.8818779
v -1.7784513 3.1070514 1.5896233
v 2.9807324 9.473163 -1.4995673
v -1.170396 10.35811 -1.5452735
v 2.7777884 8.70614 2.0813918
v -1.3733401 9.591087 2.0356858
v 5.515538 13.047533 1.0755005
v 2.156105 12.725876 0.8754585
v 5.3317337 12.646464 2.9756923
v 1.9722973 12.324807 2.7756512
v 5.0393934 23.81267 1.7391837
v 0.00956604 21.451107 1.5121435
v 4.8737082 23.836044 2.7112582
v -0.1429637 21.472637 2.4069898
vt 0.375 0.75
vt 0.625 0.75
vt 0.625 1
vt 0.375 1
vt 0.375 0.75
vt 0.375 1
vt 0.625 1
vt 0.625 0.75
vt 0.375 0.75
vt 0.625 0.75
vt 0.625 0.75
vt 0.375 0.75
vt 0.375 1
vt 0.625 1
vt 0.625 1
vt 0.375 1
vt 0.625 0.75
vt 0.375 0.75
vt 0.625 1
vt 0.375 1
vt 0.625 0.75
vt 0.375 0.75
vt 0.625 1
vt 0.375 1
vt 0.625 0.75
vt 0.375 0.75
vt 0.625 1
vt 0.375 1
vn -0.27479213 0.09860585 -0.9564341
vn 0.44782215 0.21125509 -0.86880755
vn 0.30277812 0.17278633 0.93726754
vn -0.3478607 0.052535117 0.93607324
vn -0.5475665 -0.6096873 -0.5731076
vn -0.542244 -0.5967161 0.5915246
vn 0.5651706 -0.58220416 0.5844832
vn 0.5708355 -0.5940475 -0.5667932
vn -0.5475665 -0.6096873 -0.5731076
vn 0.5708355 -0.5940475 -0.5667932
vn 0.56210244 -0.057993237 -0.8250319
vn -0.64983517 0.081980035 -0.75564116
vn -0.542244 -0.5967161 0.5915246
vn 0.59978855 -0.058989093 0.79798126
vn 0.5651706 -0.58220416 0.5844832
vn -0.6949477 0.09354211 0.7129499
vn 0.5793964 -0.019735308 -0.81480694
vn -0.6102572 0.3378075 -0.71656984
vn 0.61587864 -0.3760822 0.6922829
vn -0.751239 0.18773374 0.63276863
vn 0.54662794 0.0075104986 -0.83734196
vn -0.27335525 0.35125998 -0.895485
vn 0.36667332 -0.12630707 0.921736
vn -0.3151543 0.052016795 0.9476139
vn 0.44782215 0.21125509 -0.86880755
vn -0.27479213 0.09860585 -0.9564341
vn 0.30277812 0.17278633 0.93726754
vn -0.3478607 0.052535117 0.93607324
g COL_branch01_0
f 3/3/3 2/2/2 1/1/1
f 4/4/4 3/3/3 1/1/1
f 7/7/7 6/6/6 5/5/5
f 8/8/8 7/7/7 5/5/5
f 11/11/11 10/10/10 9/9/9
f 12/12/12 11/11/11 9/9/9
f 12/12/12 9/9/9 13/13/13
f 11/11/11 14/14/14 10/10/10
f 14/14/14 15/15/15 10/10/10
f 16/16/16 13/13/13 15/15/15
f 16/16/16 12/12/12 13/13/13
f 14/14/14 16/16/16 15/15/15
f 17/17/17 11/11/11 12/12/12
f 18/18/18 12/12/12 16/16/16
f 18/18/18 17/17/17 12/12/12
f 19/19/19 14/14/14 11/11/11
f 17/17/17 19/19/19 11/11/11
f 20/20/20 16/16/16 14/14/14
f 20/20/20 18/18/18 16/16/16
f 19/19/19 20/20/20 14/14/14
f 21/21/21 17/17/17 18/18/18
f 22/22/22 18/18/18 20/20/20
f 22/22/22 21/21/21 18/18/18
f 23/23/23 19/19/19 17/17/17
f 21/21/21 23/23/23 17/17/17
f 24/24/24 20/20/20 19/19/19
f 24/24/24 22/22/22 20/20/20
f 23/23/23 24/24/24 19/19/19
f 25/25/25 21/21/21 22/22/22
f 26/26/26 25/25/25 22/22/22
f 26/26/26 22/22/22 24/24/24
f 25/25/25 27/27/27 21/21/21
f 27/27/27 23/23/23 21/21/21
f 28/28/28 26/26/26 24/24/24
f 28/28/28 24/24/24 23/23/23
f 27/27/27 28/28/28 23/23/23
