g colCylinder01
v 2.598076 -24.328653 -1.5
v 2.598076 9.766078E-08 -1.5
v 1.5 9.766078E-08 -2.598076
v 1.5 -24.328653 -2.598076
v 1.5 -24.328653 -2.598076
v 1.5 9.766078E-08 -2.598076
v -0 9.766078E-08 -3
v -0 -24.328653 -3
v -0 -24.328653 -3
v -0 9.766078E-08 -3
v -1.5 9.766078E-08 -2.598076
v -1.5 -24.328653 -2.598076
v -1.5 -24.328653 -2.598076
v -1.5 9.766078E-08 -2.598076
v -2.598076 9.766078E-08 -1.5
v -2.598076 -24.328653 -1.5
v -2.598076 -24.328653 -1.5
v -2.598076 9.766078E-08 -1.5
v -3 9.766078E-08 0
v -3 -24.328653 0
v -3 -24.328653 0
v -3 9.766078E-08 0
v -2.598076 9.766078E-08 1.5
v -2.598076 -24.328653 1.5
v -2.598076 -24.328653 1.5
v -2.598076 9.766078E-08 1.5
v -1.5 9.766078E-08 2.598076
v -1.5 -24.328653 2.598076
v -1.5 -24.328653 2.598076
v -1.5 9.766078E-08 2.598076
v -0 9.766078E-08 3
v -0 -24.328653 3
v -0 -24.328653 3
v -0 9.766078E-08 3
v 1.5 9.766078E-08 2.598076
v 1.5 -24.328653 2.598076
v 1.5 -24.328653 2.598076
v 1.5 9.766078E-08 2.598076
v 2.598076 9.766078E-08 1.5
v 2.598076 -24.328653 1.5
v 2.598076 -24.328653 1.5
v 2.598076 9.766078E-08 1.5
v 3 9.766078E-08 0
v 3 -24.328653 0
v 3 -24.328653 0
v 3 9.766078E-08 0
v 2.598076 9.766078E-08 -1.5
v 2.598076 -24.328653 -1.5
v 2.598076 9.766078E-08 -1.5
v -0 9.766078E-08 0
v 1.5 9.766078E-08 -2.598076
v 3 9.766078E-08 0
v -0 9.766078E-08 -3
v 2.598076 9.766078E-08 1.5
v -1.5 9.766078E-08 -2.598076
v 1.5 9.766078E-08 2.598076
v -2.598076 9.766078E-08 -1.5
v -0 9.766078E-08 3
v -3 9.766078E-08 0
v -1.5 9.766078E-08 2.598076
v -2.598076 9.766078E-08 1.5
vt 0.375 0.3125
vt 0.375 0.68843985
vt 0.39583334 0.68843985
vt 0.39583334 0.3125
vt 0.39583334 0.3125
vt 0.39583334 0.68843985
vt 0.4166667 0.68843985
vt 0.4166667 0.3125
vt 0.4166667 0.3125
vt 0.4166667 0.68843985
vt 0.43750003 0.68843985
vt 0.43750003 0.3125
vt 0.43750003 0.3125
vt 0.43750003 0.68843985
vt 0.45833337 0.68843985
vt 0.45833337 0.3125
vt 0.45833337 0.3125
vt 0.45833337 0.68843985
vt 0.47916672 0.68843985
vt 0.47916672 0.3125
vt 0.47916672 0.3125
vt 0.47916672 0.68843985
vt 0.50000006 0.68843985
vt 0.50000006 0.3125
vt 0.50000006 0.3125
vt 0.50000006 0.68843985
vt 0.5208334 0.68843985
vt 0.5208334 0.3125
vt 0.5208334 0.3125
vt 0.5208334 0.68843985
vt 0.5416667 0.68843985
vt 0.5416667 0.3125
vt 0.5416667 0.3125
vt 0.5416667 0.68843985
vt 0.5625 0.68843985
vt 0.5625 0.3125
vt 0.5625 0.3125
vt 0.5625 0.68843985
vt 0.5833333 0.68843985
vt 0.5833333 0.3125
vt 0.5833333 0.3125
vt 0.5833333 0.68843985
vt 0.6041666 0.68843985
vt 0.6041666 0.3125
vt 0.6041666 0.3125
vt 0.6041666 0.68843985
vt 0.62499994 0.68843985
vt 0.62499994 0.3125
vt 0.6353165 0.921875
vt 0.5 0.8375
vt 0.578125 0.9790665
vt 0.65625 0.84375
vt 0.5 1
vt 0.6353165 0.765625
vt 0.421875 0.9790665
vt 0.578125 0.7084335
vt 0.36468354 0.921875
vt 0.5 0.6875
vt 0.34375 0.84375
vt 0.421875 0.7084335
vt 0.36468354 0.765625
vn 0.70710653 0 -0.707107
vn 0.70710653 0 -0.707107
vn 0.70710653 0 -0.707107
vn 0.70710653 0 -0.707107
vn 0.2588199 0 -0.96592563
vn 0.2588199 0 -0.96592563
vn 0.2588199 0 -0.96592563
vn 0.2588199 0 -0.96592563
vn -0.2588199 0 -0.96592563
vn -0.2588199 0 -0.96592563
vn -0.2588199 0 -0.96592563
vn -0.2588199 0 -0.96592563
vn -0.70710653 0 -0.707107
vn -0.70710653 0 -0.707107
vn -0.70710653 0 -0.707107
vn -0.70710653 0 -0.707107
vn -0.9659258 0 -0.25881898
vn -0.9659258 0 -0.25881898
vn -0.9659258 0 -0.25881898
vn -0.9659258 0 -0.25881898
vn -0.9659258 0 0.25881898
vn -0.9659258 0 0.25881898
vn -0.9659258 0 0.25881898
vn -0.9659258 0 0.25881898
vn -0.70710653 0 0.707107
vn -0.70710653 0 0.707107
vn -0.70710653 0 0.707107
vn -0.70710653 0 0.707107
vn -0.2588199 0 0.96592563
vn -0.2588199 0 0.96592563
vn -0.2588199 0 0.96592563
vn -0.2588199 0 0.96592563
vn 0.2588199 0 0.96592563
vn 0.2588199 0 0.96592563
vn 0.2588199 0 0.96592563
vn 0.2588199 0 0.96592563
vn 0.70710653 0 0.707107
vn 0.70710653 0 0.707107
vn 0.70710653 0 0.707107
vn 0.70710653 0 0.707107
vn 0.9659258 0 0.25881898
vn 0.9659258 0 0.25881898
vn 0.9659258 0 0.25881898
vn 0.9659258 0 0.25881898
vn 0.9659258 0 -0.25881898
vn 0.9659258 0 -0.25881898
vn 0.9659258 0 -0.25881898
vn 0.9659258 0 -0.25881898
vn -0 1 0
vn -0 1 0
vn -0 1 0
vn -0 1 0
vn -0 1 0
vn -0 1 1.7361111E-07
vn -0 1 -1.7361111E-07
vn -0 1 1.7361111E-07
vn -0 1 -1.7361111E-07
vn -0 1 0
vn -0 1 0
vn -0 1 0
vn -0 1 0
g colCylinder01_0
f 3/3/3 2/2/2 1/1/1
f 4/4/4 3/3/3 1/1/1
f 7/7/7 6/6/6 5/5/5
f 8/8/8 7/7/7 5/5/5
f 11/11/11 10/10/10 9/9/9
f 12/12/12 11/11/11 9/9/9
f 15/15/15 14/14/14 13/13/13
f 16/16/16 15/15/15 13/13/13
f 19/19/19 18/18/18 17/17/17
f 20/20/20 19/19/19 17/17/17
f 23/23/23 22/22/22 21/21/21
f 24/24/24 23/23/23 21/21/21
f 27/27/27 26/26/26 25/25/25
f 28/28/28 27/27/27 25/25/25
f 31/31/31 30/30/30 29/29/29
f 32/32/32 31/31/31 29/29/29
f 35/35/35 34/34/34 33/33/33
f 36/36/36 35/35/35 33/33/33
f 39/39/39 38/38/38 37/37/37
f 40/40/40 39/39/39 37/37/37
f 43/43/43 42/42/42 41/41/41
f 44/44/44 43/43/43 41/41/41
f 47/47/47 46/46/46 45/45/45
f 48/48/48 47/47/47 45/45/45
f 51/51/51 50/50/50 49/49/49
f 49/49/49 50/50/50 52/52/52
f 53/53/53 50/50/50 51/51/51
f 52/52/52 50/50/50 54/54/54
f 55/55/55 50/50/50 53/53/53
f 54/54/54 50/50/50 56/56/56
f 57/57/57 50/50/50 55/55/55
f 56/56/56 50/50/50 58/58/58
f 59/59/59 50/50/50 57/57/57
f 58/58/58 50/50/50 60/60/60
f 61/61/61 50/50/50 59/59/59
f 60/60/60 50/50/50 61/61/61
