g desert_tree_trunk01_COL
v 1.2624699 12.145486 -0.8883721
v 0.9787548 11.968988 -0.87324643
v 1.2975138 11.885943 -1.3117224
v 1.2624699 12.145486 -0.8883721
v 1.2978306 12.048551 -0.4605782
v 0.9787548 11.968988 -0.87324643
v 1.2624699 12.145486 -0.8883721
v 1.6373289 11.968906 -0.8768482
v 1.2978306 12.048551 -0.4605782
v 1.2624699 12.145486 -0.8883721
v 1.2975138 11.885943 -1.3117224
v 1.6373289 11.968906 -0.8768482
v 1.2978306 12.048551 -0.4605782
v 1.6373289 11.968906 -0.8768482
v 2.2642727 11.160163 -0.9864258
v 1.4460685 11.358641 -0.039960854
v 0.9787548 11.968988 -0.87324643
v 1.8946178 9.670566 -0.88816047
v 0.77690196 11.057073 -0.9690279
v 1.2975138 11.885943 -1.3117224
v 1.4295576 10.527543 -2.0058396
v 1.3937757 9.745867 -0.23711312
v 1.4346108 7.0671196 -0.8110094
v 0.9060836 9.639042 -0.8806279
v 1.4071462 9.942337 -1.6574181
v 1.0836841 7.143116 -0.43373156
v 0.72425365 7.1220627 -0.8327224
v 1.0835567 7.1904173 -1.236514
v 0.44537273 3.3922849 -0.84027827
v 0.427405 3.4796093 -0.22651765
v 0.88001543 3.2886138 -0.53457296
v 0.7024796 1.1948678 -0.13141224
v 0.11846747 3.4426703 -0.52077645
v 0.13769963 1.1217823 0.56323636
v 0.6123758 -0.26503322 -6.942544E-05
v 0.030252162 -0.20190564 0.57872283
v -0.43945643 1.1622038 -0.12245989
v 0.14189678 0.9878084 -0.74902034
v -0.5080737 -0.16072866 0.0016752724
v 0.030339327 -0.2772933 -0.58687204
v 1.2975138 11.885943 -1.3117224
v 2.2642727 11.160163 -0.9864258
v 1.6373289 11.968906 -0.8768482
v 1.4295576 10.527543 -2.0058396
v 1.8946178 9.670566 -0.88816047
v 1.4071462 9.942337 -1.6574181
v 1.4346108 7.0671196 -0.8110094
v 1.0835567 7.1904173 -1.236514
v 0.44537273 3.3922849 -0.84027827
v 0.88001543 3.2886138 -0.53457296
v 0.7024796 1.1948678 -0.13141224
v 0.14189678 0.9878084 -0.74902034
v 0.6123758 -0.26503322 -6.942544E-05
v 0.030339327 -0.2772933 -0.58687204
v 0.022399321 -0.49596038 0.02039278
v 0.030339327 -0.2772933 -0.58687204
v -0.5080737 -0.16072866 0.0016752724
v 0.030252162 -0.20190564 0.57872283
v 0.6123758 -0.26503322 -6.942544E-05
vt 0.45037952 0.9172976
vt 0.34375 0.84375
vt 0.5 1
vt 0.42433786 0.7920149
vt 0.5 0.6875
vt 0.34375 0.84375
vt 0.5496205 0.7659732
vt 0.65625 0.84375
vt 0.5 0.6875
vt 0.55044144 0.87377137
vt 0.5 1
vt 0.65625 0.84375
vt 0.53125 0.68843985
vt 0.59375 0.68843985
vt 0.59375 0.65253675
vt 0.53125 0.65253675
vt 0.46875 0.68843985
vt 0.59375 0.60404605
vt 0.46875 0.65253675
vt 0.40625 0.68843985
vt 0.40625 0.65253675
vt 0.53125 0.60404605
vt 0.59375 0.55399346
vt 0.46875 0.60404605
vt 0.40625 0.60404605
vt 0.53125 0.55399346
vt 0.46875 0.55399346
vt 0.40625 0.55399346
vt 0.40625 0.49438727
vt 0.53125 0.49438727
vt 0.59375 0.49438727
vt 0.59375 0.38902703
vt 0.46875003 0.49438727
vt 0.53125 0.38902703
vt 0.59375 0.3125
vt 0.53125 0.3125
vt 0.46875 0.38902703
vt 0.40625 0.38902703
vt 0.46875 0.3125
vt 0.40625 0.3125
vt 0.40625 0.68843985
vt 0.59375 0.65253675
vt 0.59375 0.68843985
vt 0.40625 0.65253675
vt 0.59375 0.60404605
vt 0.40625 0.60404605
vt 0.59375 0.55399346
vt 0.40625 0.55399346
vt 0.40625 0.49438727
vt 0.59375 0.49438727
vt 0.59375 0.38902703
vt 0.40625 0.38902703
vt 0.59375 0.3125
vt 0.40625 0.3125
vt 0.5 0.1513021
vt 0.5 1.4901161E-08
vt 0.34375 0.15625
vt 0.5 0.3125
vt 0.65625 0.15625
vn -0.019194888 0.9841368 -0.17636956
vn -0.9609424 0.27363032 -0.04142653
vn -0.07181786 0.4917676 -0.86775964
vn -0.019194888 0.9841368 -0.17636956
vn -0.11034821 0.5306399 0.84038365
vn -0.9609424 0.27363032 -0.04142653
vn -0.019194888 0.9841368 -0.17636956
vn 0.7785198 0.6010018 -0.18084171
vn -0.11034821 0.5306399 0.84038365
vn -0.019194888 0.9841368 -0.17636956
vn -0.07181786 0.4917676 -0.86775964
vn 0.7785198 0.6010018 -0.18084171
vn -0.11034821 0.5306399 0.84038365
vn 0.7785198 0.6010018 -0.18084171
vn 0.99292094 0.11872246 0.0036193854
vn 0.0798158 0.08193305 0.99343663
vn -0.9609424 0.27363032 -0.04142653
vn 0.977019 -0.20548327 0.05666169
vn -0.9983424 0.042693216 0.038597472
vn -0.07181786 0.4917676 -0.86775964
vn 0.063346416 -0.060202513 -0.99617416
vn 0.037654094 -0.10176638 0.99409544
vn 0.98286426 -0.18283431 -0.023441639
vn -0.998871 -0.0063677607 0.0470754
vn 0.053292826 -0.2661103 -0.96246827
vn 0.018035159 0.007553141 0.99980885
vn -0.99406415 0.10381394 -0.032546017
vn 0.018282864 -0.10948605 -0.99382025
vn -0.024815546 -0.075918145 -0.9968052
vn -0.00830199 0.16624436 0.9860497
vn 0.9950322 -0.09904341 -0.010068971
vn 0.99804294 -0.044876095 0.04354831
vn -0.97937876 0.19600977 -0.04896327
vn 0.0011019954 0.18124194 0.98343796
vn 0.9689726 -0.2405623 0.056762666
vn 0.019673131 -0.13598707 0.99051535
vn -0.9863132 0.16488244 2.615481E-05
vn -0.029598784 -0.08135377 -0.9962457
vn -0.99279517 -0.110079825 0.047331188
vn 0.009192546 -0.22071402 -0.97529525
vn -0.07181786 0.4917676 -0.86775964
vn 0.99292094 0.11872246 0.0036193854
vn 0.7785198 0.6010018 -0.18084171
vn 0.063346416 -0.060202513 -0.99617416
vn 0.977019 -0.20548327 0.05666169
vn 0.053292826 -0.2661103 -0.96246827
vn 0.98286426 -0.18283431 -0.023441639
vn 0.018282864 -0.10948605 -0.99382025
vn -0.024815546 -0.075918145 -0.9968052
vn 0.9950322 -0.09904341 -0.010068971
vn 0.99804294 -0.044876095 0.04354831
vn -0.029598784 -0.08135377 -0.9962457
vn 0.9689726 -0.2405623 0.056762666
vn 0.009192546 -0.22071402 -0.97529525
vn -0.08878725 -0.98255783 0.16339213
vn 0.009192546 -0.22071402 -0.97529525
vn -0.99279517 -0.110079825 0.047331188
vn 0.019673131 -0.13598707 0.99051535
vn 0.9689726 -0.2405623 0.056762666
g desert_tree_trunk01_COL_0
f 3/3/3 2/2/2 1/1/1
f 6/6/6 5/5/5 4/4/4
f 9/9/9 8/8/8 7/7/7
f 12/12/12 11/11/11 10/10/10
f 15/15/15 14/14/14 13/13/13
f 16/16/16 15/15/15 13/13/13
f 16/16/16 13/13/13 17/17/17
f 18/18/18 15/15/15 16/16/16
f 19/19/19 16/16/16 17/17/17
f 19/19/19 17/17/17 20/20/20
f 21/21/21 19/19/19 20/20/20
f 22/22/22 18/18/18 16/16/16
f 22/22/22 16/16/16 19/19/19
f 23/23/23 18/18/18 22/22/22
f 24/24/24 19/19/19 21/21/21
f 24/24/24 22/22/22 19/19/19
f 25/25/25 24/24/24 21/21/21
f 26/26/26 23/23/23 22/22/22
f 26/26/26 22/22/22 24/24/24
f 27/27/27 24/24/24 25/25/25
f 27/27/27 26/26/26 24/24/24
f 28/28/28 27/27/27 25/25/25
f 28/28/28 29/29/29 27/27/27
f 26/26/26 30/30/30 23/23/23
f 30/30/30 31/31/31 23/23/23
f 32/32/32 31/31/31 30/30/30
f 27/27/27 33/33/33 26/26/26
f 29/29/29 33/33/33 27/27/27
f 33/33/33 30/30/30 26/26/26
f 34/34/34 32/32/32 30/30/30
f 34/34/34 30/30/30 33/33/33
f 35/35/35 32/32/32 34/34/34
f 36/36/36 35/35/35 34/34/34
f 37/37/37 33/33/33 29/29/29
f 37/37/37 34/34/34 33/33/33
f 36/36/36 34/34/34 37/37/37
f 38/38/38 37/37/37 29/29/29
f 39/39/39 36/36/36 37/37/37
f 39/39/39 37/37/37 38/38/38
f 40/40/40 39/39/39 38/38/38
f 43/43/43 42/42/42 41/41/41
f 42/42/42 44/44/44 41/41/41
f 42/42/42 45/45/45 44/44/44
f 45/45/45 46/46/46 44/44/44
f 45/45/45 47/47/47 46/46/46
f 47/47/47 48/48/48 46/46/46
f 49/49/49 48/48/48 47/47/47
f 50/50/50 49/49/49 47/47/47
f 50/50/50 51/51/51 49/49/49
f 51/51/51 52/52/52 49/49/49
f 51/51/51 53/53/53 52/52/52
f 53/53/53 54/54/54 52/52/52
f 57/57/57 56/56/56 55/55/55
f 58/58/58 57/57/57 55/55/55
f 56/56/56 59/59/59 55/55/55
f 59/59/59 58/58/58 55/55/55
