g exterior_shell_cap_COL1
v -9.51932 15.260049 -3.3884115E-15
v -9.51932 15.260049 11.485028
v -11.451761 13.337772 11.485028
v -11.451761 13.337772 -2.9615804E-15
v -13.102221 11.087075 11.485028
v -13.102221 11.087075 -2.4618252E-15
v -14.43006 8.563376 11.485028
v -14.43006 8.563376 -1.9014515E-15
v -15.402585 5.828821 11.485028
v -15.402585 5.828821 -1.2942583E-15
v -15.995847 2.9507406 11.485028
v -15.995847 2.9507406 -6.55196E-16
v -16.195236 3.0917954E-06 11.485028
v -16.195236 3.0917954E-06 -6.865165E-22
v -9.51932 15.260049 11.485028
v -8.952588 14.351549 11.485028
v -10.769981 12.54371 11.485028
v -11.451761 13.337772 11.485028
v -12.322186 10.427008 11.485028
v -13.102221 11.087075 11.485028
v -13.570971 8.053558 11.485028
v -14.43006 8.563376 11.485028
v -14.485597 5.481803 11.485028
v -15.402585 5.828821 11.485028
v -15.043531 2.775067 11.485028
v -15.995847 2.9507406 11.485028
v -15.231058 1.3230531E-06 11.485028
v -16.195236 3.0917954E-06 11.485028
v -8.952588 14.351549 11.485028
v -8.952588 14.351549 9.872786
v -10.769981 12.54371 9.872786
v -10.769981 12.54371 11.485028
v -10.769981 12.54371 11.485028
v -10.769981 12.54371 9.872786
v -12.322186 10.427008 9.872786
v -12.322186 10.427008 11.485028
v -12.322186 10.427008 11.485028
v -12.322186 10.427008 9.872786
v -13.570971 8.053558 9.872786
v -13.570971 8.053558 11.485028
v -13.570971 8.053558 11.485028
v -13.570971 8.053558 9.872786
v -14.485597 5.481803 9.872786
v -14.485597 5.481803 11.485028
v -14.485597 5.481803 11.485028
v -14.485597 5.481803 9.872786
v -15.043531 2.775067 9.872786
v -15.043531 2.775067 11.485028
v -15.043531 2.775067 11.485028
v -15.043531 2.775067 9.872786
v -15.231058 1.3230531E-06 9.872786
v -15.231058 1.3230531E-06 11.485028
vt 0.45624992 0.3125
vt 0.45624992 0.68843985
vt 0.46249992 0.68843985
vt 0.46249992 0.3125
vt 0.4687499 0.68843985
vt 0.4687499 0.3125
vt 0.4749999 0.68843985
vt 0.4749999 0.3125
vt 0.4812499 0.68843985
vt 0.4812499 0.3125
vt 0.4874999 0.68843985
vt 0.4874999 0.3125
vt 0.4937499 0.68843985
vt 0.4937499 0.3125
vt 0.4081585 0.97015893
vt 0.45407927 0.90695447
vt 0.44475725 0.8989927
vt 0.3895145 0.95423543
vt 0.43679553 0.8896707
vt 0.37359104 0.93559146
vt 0.4303901 0.879218
vt 0.36078018 0.914686
vt 0.4256987 0.86789197
vt 0.35139737 0.89203393
vt 0.4228368 0.85597146
vt 0.34567362 0.86819285
vt 0.42187497 0.84375
vt 0.34374994 0.84375
vt 0 0
vt 0 1
vt 1 1
vt 1 0
vt 0 0
vt 0 1
vt 1 1
vt 1 0
vt 0 0
vt 0 1
vt 1 1
vt 1 0
vt 0 0
vt 0 1
vt 1 1
vt 1 0
vt 0 0
vt 0 1
vt 1 1
vt 1 0
vt 0 0
vt 0 1
vt 1 1
vt 1 0
vn -0.6458365 0.76347584 0
vn -0.6451557 0.764051 0
vn -0.7587113 0.65142703 0
vn -0.7587113 0.65142703 0
vn -0.84845304 0.5292705 0
vn -0.84845304 0.5292705 0
vn -0.9161652 0.40080106 0
vn -0.9161652 0.40080106 0
vn -0.9632199 0.26871446 0
vn -0.9632199 0.26871446 0
vn -0.9908799 0.13474815 0
vn -0.9908799 0.13474815 0
vn -0.9977247 0.067419186 0
vn -0.9977247 0.067419186 0
vn -0.03864543 0.0045812265 0.99924254
vn -0.032194223 0.0038164675 0.99947435
vn 1.5447095E-07 0 1
vn 1.2720665E-07 0 1
vn -3.324892E-07 0 1
vn -2.2865787E-07 0 1
vn -0 0 1
vn -1.3437406E-07 0 1
vn 1.8530268E-07 0 1
vn 2.4172036E-07 0 1
vn -1.0105627E-07 0 1
vn -1.1167113E-07 0 1
vn -0 0 1
vn -0 0 1
vn 0.70524085 -0.7089678 0
vn 0.70524085 -0.7089678 0
vn 0.70524085 -0.7089678 0
vn 0.70524085 -0.7089678 0
vn 0.8064128 -0.5913529 0
vn 0.8064128 -0.5913529 0
vn 0.8064128 -0.5913529 0
vn 0.8064128 -0.5913529 0
vn 0.8849797 -0.46562955 0
vn 0.8849797 -0.46562955 0
vn 0.8849797 -0.46562955 0
vn 0.8849797 -0.46562955 0
vn 0.9421887 -0.33508286 0
vn 0.9421887 -0.33508286 0
vn 0.9421887 -0.33508286 0
vn 0.9421887 -0.33508286 0
vn 0.9794095 -0.201884 0
vn 0.9794095 -0.201884 0
vn 0.9794095 -0.201884 0
vn 0.9794095 -0.201884 0
vn 0.9977246 -0.067421615 0
vn 0.9977246 -0.067421615 0
vn 0.9977246 -0.067421615 0
vn 0.9977246 -0.067421615 0
g exterior_shell_cap_COL1_0
f 3/3/3 2/2/2 1/1/1
f 4/4/4 3/3/3 1/1/1
f 5/5/5 3/3/3 4/4/4
f 6/6/6 5/5/5 4/4/4
f 7/7/7 5/5/5 6/6/6
f 8/8/8 7/7/7 6/6/6
f 9/9/9 7/7/7 8/8/8
f 10/10/10 9/9/9 8/8/8
f 11/11/11 9/9/9 10/10/10
f 12/12/12 11/11/11 10/10/10
f 13/13/13 11/11/11 12/12/12
f 14/14/14 13/13/13 12/12/12
f 17/17/17 16/16/16 15/15/15
f 18/18/18 17/17/17 15/15/15
f 19/19/19 17/17/17 18/18/18
f 20/20/20 19/19/19 18/18/18
f 21/21/21 19/19/19 20/20/20
f 22/22/22 21/21/21 20/20/20
f 23/23/23 21/21/21 22/22/22
f 24/24/24 23/23/23 22/22/22
f 25/25/25 23/23/23 24/24/24
f 26/26/26 25/25/25 24/24/24
f 27/27/27 25/25/25 26/26/26
f 28/28/28 27/27/27 26/26/26
f 31/31/31 30/30/30 29/29/29
f 32/32/32 31/31/31 29/29/29
f 35/35/35 34/34/34 33/33/33
f 36/36/36 35/35/35 33/33/33
f 39/39/39 38/38/38 37/37/37
f 40/40/40 39/39/39 37/37/37
f 43/43/43 42/42/42 41/41/41
f 44/44/44 43/43/43 41/41/41
f 47/47/47 46/46/46 45/45/45
f 48/48/48 47/47/47 45/45/45
f 51/51/51 50/50/50 49/49/49
f 52/52/52 51/51/51 49/49/49
