g housekit_roof_corner_x1a_COL
v -0.42579132 1.5533173 0.022048036
v -0.022048036 1.5533173 0.42579132
v -0.00039253235 1.575 0.00013137817
v -0.022047501 0.7223909 1.7440058
v -0.022047501 0.022047501 1.902952
v -0.951994 0.022047501 1.6489013
v -0.8819417 0.7303633 1.5275682
v -0.022048036 1.4976119 1.1491585
v -1.5275682 0.7303633 0.8819417
v -1.6489013 0.022047501 0.951994
v -0.5819973 1.5141393 1.0080492
v -0.022048036 1.8391107 0.4927883
v -1.7440058 0.7223909 0.022048036
v -1.902952 0.022047501 0.022048036
v -1.149158 1.4976119 0.022048036
v -1.0080492 1.5141393 0.5819973
v -0.4927883 1.8391107 0.022048036
v -0.25388566 1.8594071 0.4397425
v -0.022047501 1.902952 0.022047501
v -0.4397425 1.8594071 0.25388566
v -0.7773999 -0.502952 1.3464954
v -0.022047501 0.022047501 1.902952
v -0.022048036 -0.5029525 1.5529519
v -0.951994 0.022047501 1.6489013
v -1.6489013 0.022047501 0.951994
v -1.3464954 -0.502952 0.77739936
v -1.902952 0.022047501 0.022048036
v -1.5529519 -0.5029525 0.022048036
v -0.4740776 -0.5029525 1.144525
v -0.022048036 -0.5029525 1.5529519
v -0.022048036 -0.5029525 1.247048
v -0.7773999 -0.502952 1.3464954
v -1.3464954 -0.502952 0.77739936
v -1.144525 -0.5029525 0.4740776
v -1.5529519 -0.5029525 0.022048036
v -1.247048 -0.5029525 0.022048036
v -0.022048036 0.42579132 1.5533173
v -0.022048036 1.1100013 1.1100013
v -1.1100013 1.1100013 0.022048036
v -1.5533173 0.42579132 0.022048036
v -1.144525 -0.5029525 0.4740776
v -1.247048 -0.5029525 0.022048036
v -0.4740776 -0.5029525 1.144525
v -0.022048036 -0.5029525 1.247048
v -0.022048036 1.5533173 0.42579132
v -0.022047501 1.902952 0.022047501
v -0.00039253235 1.575 0.00013137817
v -0.022048036 1.8391107 0.4927883
v -0.022048036 1.4976119 1.1491585
v -0.022048036 1.1100013 1.1100013
v -0.022047501 0.7223909 1.7440058
v -0.022048036 0.42579132 1.5533173
v -0.022047501 0.022047501 1.902952
v -0.022048036 -0.5029525 1.247048
v -0.022048036 -0.5029525 1.5529519
v -0.00039253235 1.575 0.00013137817
v -0.022047501 1.902952 0.022047501
v -0.4927883 1.8391107 0.022048036
v -0.42579132 1.5533173 0.022048036
v -1.149158 1.4976119 0.022048036
v -1.1100013 1.1100013 0.022048036
v -1.7440058 0.7223909 0.022048036
v -1.5533173 0.42579132 0.022048036
v -1.902952 0.022047501 0.022048036
v -1.247048 -0.5029525 0.022048036
v -1.5529519 -0.5029525 0.022048036
v -0.42579132 1.5533173 0.022048036
v -1.1100013 1.1100013 0.022048036
v -0.022048036 1.1100013 1.1100013
v -0.022048036 1.5533173 0.42579132
vt 0.57898796 0.90806925
vt 0.9469964 0.8546096
vt 0.55926466 0.9080694
vt 0.9888073 0.77408993
vt 0.99214363 0.7041279
vt 0.9676141 0.7041279
vt 0.9664212 0.77408993
vt 0.9764023 0.8509728
vt 0.9395998 0.77408993
vt 0.9383429 0.7041279
vt 0.96197915 0.8509728
vt 0.96271425 0.8889846
vt 0.91738826 0.77408993
vt 0.9140051 0.7041279
vt 0.92996776 0.8509728
vt 0.9442796 0.8509728
vt 0.94384825 0.8889846
vt 0.9571199 0.8889846
vt 0.95334715 0.8993225
vt 0.94939876 0.8889846
vt 0.85991216 0.6754743
vt 0.71155345 0.705412
vt 0.91826457 0.6754743
vt 0.66935617 0.705412
vt 0.62054634 0.70541203
vt 0.7889359 0.6754743
vt 0.5783492 0.705412
vt 0.73105043 0.6754743
vt 0.75905466 0.67547435
vt 0.7850914 0.70541215
vt 0.7834295 0.67547435
vt 0.7506341 0.70541215
vt 0.71113133 0.70541215
vt 0.70271075 0.6754745
vt 0.676674 0.705412
vt 0.6783359 0.6754745
vt 0.5626161 0.705412
vt 0.93666726 0.8407359
vt 0.9685157 0.8400565
vt 0.97604275 0.8249125
vt 0.6105143 0.6754743
vt 0.6382746 0.6754743
vt 0.5378257 0.6754743
vt 0.50831354 0.6754743
vt 0.57898796 0.90806925
vt 0.5592401 0.9224219
vt 0.55926466 0.9080694
vt 0.58210576 0.91950893
vt 0.6125617 0.90366304
vt 0.61198753 0.8869203
vt 0.6401632 0.8676923
vt 0.63313675 0.8539208
vt 0.6474893 0.83417296
vt 0.61878407 0.8095408
vt 0.6310677 0.80954087
vt 0.5592647 0.9080694
vt 0.5592401 0.9224219
vt 0.58210576 0.9195086
vt 0.57898796 0.90806925
vt 0.6125617 0.90366304
vt 0.61198753 0.8869204
vt 0.640163 0.8676923
vt 0.6331365 0.8539208
vt 0.6474891 0.83417296
vt 0.61878395 0.80954075
vt 0.63106763 0.8095408
vt 0.57898796 0.90806925
vt 0.9685157 0.8400565
vt 0.93666726 0.8407359
vt 0.9469964 0.8546096
vn 0.4619554 -0.7570961 -0.46195522
vn 0.46196717 -0.7570818 -0.46196693
vn 0.048359644 -0.9976586 -0.048360676
vn -0.22390786 0.39949206 0.88897204
vn -0.24820846 0.20089567 0.9476463
vn -0.49093726 0.2009147 0.84771097
vn -0.4542012 0.40988985 0.7910067
vn -0.16251586 0.6749747 0.7197206
vn -0.7910066 0.40988982 0.45420125
vn -0.8477108 0.20091425 0.49093774
vn -0.35354176 0.6908185 0.6306966
vn -0.059521336 0.89866364 0.4345812
vn -0.88897204 0.39949203 0.22390792
vn -0.9476462 0.2008948 0.24820933
vn -0.71972066 0.6749747 0.16251524
vn -0.63069665 0.6908185 0.35354146
vn -0.43458226 0.89866316 0.05952202
vn -0.18974821 0.9082334 0.37297142
vn -0.049816117 0.9975152 0.04981711
vn -0.3729718 0.90823317 0.1897487
vn -0.42060155 -0.55377114 0.71863186
vn -0.221689 -0.54095876 0.81130606
vn -0.221689 -0.5409588 0.81130606
vn -0.4202744 -0.55377215 0.7188226
vn -0.71882266 -0.55377173 0.42027465
vn -0.7186321 -0.55377084 0.42060164
vn -0.8113065 -0.5409581 0.22168931
vn -0.8113065 -0.5409581 0.22168934
vn -8.417082E-07 -1 1.3157662E-06
vn -6.1711216E-07 -1 1.6922579E-06
vn -6.171121E-07 -1 1.6922577E-06
vn -9.627275E-07 -1 1.1129015E-06
vn -9.76837E-07 -1 9.769841E-07
vn -8.7394517E-07 -1 1.0052339E-06
vn -6.8299056E-07 -1 1.0576621E-06
vn -6.8299056E-07 -1 1.0576621E-06
vn 0.67722034 -0.22719082 -0.6998263
vn 0.6188593 -0.4837627 -0.6188593
vn 0.6188593 -0.4837627 -0.6188593
vn 0.69982636 -0.22719082 -0.6772203
vn 0.7328983 -0.008512383 -0.680285
vn 0.928402 0.30615556 -0.2105667
vn 0.68028516 -0.008512316 -0.7328981
vn 0.21056652 0.30615628 -0.9284018
vn 0.9999002 0.010679637 0.009249196
vn 0.9991411 0.031324215 0.027126584
vn 0.9991411 0.031324215 0.027126586
vn 0.99987113 0.012133611 0.010508279
vn 1 -1.0068283E-06 0
vn 1 -5.53718E-07 -4.907434E-07
vn 1 0 -1.45572E-06
vn 1 0 -1.4794176E-06
vn 1 0 -1.1434786E-06
vn 1 0 -7.7967496E-07
vn 1 0 0
vn -0.027462762 0.031710774 -0.9991197
vn -0.02746276 0.03171077 -0.9991197
vn -0.010636571 0.012281865 -0.99986804
vn -0.009361845 0.010809961 -0.9998977
vn -0 0 -1
vn -0 0 -1
vn -3.6840237E-07 0 -1
vn -5.0541564E-07 0 -1
vn -1.7781713E-07 0 -1
vn -0 0 -1
vn -0 0 -1
vn 0.4619554 -0.7570961 -0.46195522
vn 0.6188593 -0.4837627 -0.6188593
vn 0.6188593 -0.4837627 -0.6188593
vn 0.46196717 -0.7570818 -0.46196693
g housekit_roof_corner_x1a_COL_0
f 3/3/3 2/2/2 1/1/1
f 6/6/6 5/5/5 4/4/4
f 7/7/7 6/6/6 4/4/4
f 7/7/7 4/4/4 8/8/8
f 7/7/7 9/9/9 6/6/6
f 9/9/9 10/10/10 6/6/6
f 11/11/11 7/7/7 8/8/8
f 11/11/11 8/8/8 12/12/12
f 10/10/10 9/9/9 13/13/13
f 14/14/14 10/10/10 13/13/13
f 13/13/13 9/9/9 15/15/15
f 16/16/16 9/9/9 7/7/7
f 9/9/9 16/16/16 15/15/15
f 11/11/11 16/16/16 7/7/7
f 15/15/15 16/16/16 17/17/17
f 18/18/18 11/11/11 12/12/12
f 16/16/16 11/11/11 18/18/18
f 18/18/18 12/12/12 19/19/19
f 16/16/16 20/20/20 17/17/17
f 17/17/17 20/20/20 19/19/19
f 20/20/20 16/16/16 18/18/18
f 20/20/20 18/18/18 19/19/19
f 23/23/23 22/22/22 21/21/21
f 22/22/22 24/24/24 21/21/21
f 24/24/24 25/25/25 21/21/21
f 25/25/25 26/26/26 21/21/21
f 25/25/25 27/27/27 26/26/26
f 27/27/27 28/28/28 26/26/26
f 31/31/31 30/30/30 29/29/29
f 30/30/30 32/32/32 29/29/29
f 32/32/32 33/33/33 29/29/29
f 33/33/33 34/34/34 29/29/29
f 33/33/33 35/35/35 34/34/34
f 35/35/35 36/36/36 34/34/34
f 39/39/39 38/38/38 37/37/37
f 40/40/40 39/39/39 37/37/37
f 40/40/40 37/37/37 41/41/41
f 42/42/42 40/40/40 41/41/41
f 37/37/37 43/43/43 41/41/41
f 37/37/37 44/44/44 43/43/43
f 47/47/47 46/46/46 45/45/45
f 46/46/46 48/48/48 45/45/45
f 48/48/48 49/49/49 45/45/45
f 49/49/49 50/50/50 45/45/45
f 49/49/49 51/51/51 50/50/50
f 50/50/50 51/51/51 52/52/52
f 52/52/52 51/51/51 53/53/53
f 54/54/54 52/52/52 53/53/53
f 54/54/54 53/53/53 55/55/55
f 58/58/58 57/57/57 56/56/56
f 59/59/59 58/58/58 56/56/56
f 60/60/60 58/58/58 59/59/59
f 61/61/61 60/60/60 59/59/59
f 62/62/62 60/60/60 61/61/61
f 62/62/62 61/61/61 63/63/63
f 64/64/64 62/62/62 63/63/63
f 64/64/64 63/63/63 65/65/65
f 64/64/64 65/65/65 66/66/66
f 69/69/69 68/68/68 67/67/67
f 70/70/70 69/69/69 67/67/67
