g housekit_roof_x3_COL
v 5.227952 1.5529519 -0.5029525
v 5.227952 1.247048 -0.5029525
v 5.227952 1.902952 0.022047501
v 5.227952 1.7440058 0.722391
v 5.227952 1.1100013 1.1100013
v 5.227952 1.3463224 1.3463224
v 5.2279525 0.7223909 1.744006
v 5.227952 -0.5029525 1.2470478
v 5.2279525 0.022047501 1.9029521
v 5.227952 -0.5029525 1.5529523
v 5.2279525 0.022047501 1.9029521
v 0.022047767 0.022047501 1.9029521
v 0.022047902 0.7223909 1.744006
v 5.2279525 0.7223909 1.744006
v 0.022047767 1.3463224 1.3463224
v 5.227952 1.3463224 1.3463224
v 5.227952 1.7440058 0.722391
v 0.022047633 1.7440058 0.722391
v 5.227952 1.902952 0.022047501
v 0.022047633 1.902952 0.022047501
v 5.227952 -0.5029525 1.2470478
v 0.022047834 -0.5029525 1.2470478
v 0.022047834 -0.5029525 1.5529523
v 5.227952 -0.5029525 1.5529523
v 0.022047767 1.5529519 -0.5029525
v 5.227952 1.5529519 -0.5029525
v 5.227952 1.902952 0.022047501
v 0.022047633 1.902952 0.022047501
v 0.022047868 1.1100013 1.1100013
v 5.227952 1.1100013 1.1100013
v 5.227952 1.247048 -0.5029525
v 0.022047767 1.247048 -0.5029525
v 0.022047834 -0.5029525 1.2470478
v 5.227952 -0.5029525 1.2470478
v 5.227952 1.1100013 1.1100013
v 5.227952 1.247048 -0.5029525
v 5.227952 1.5529519 -0.5029525
v 0.022047767 1.5529519 -0.5029525
v 0.022047767 1.247048 -0.5029525
v 0.022047834 -0.5029525 1.5529523
v 0.022047767 0.022047501 1.9029521
v 5.2279525 0.022047501 1.9029521
v 5.227952 -0.5029525 1.5529523
v 0.022047767 1.247048 -0.5029525
v 0.022047767 1.5529519 -0.5029525
v 0.022047633 1.902952 0.022047501
v 0.022047633 1.7440058 0.722391
v 0.022047868 1.1100013 1.1100013
v 0.022047767 1.3463224 1.3463224
v 0.022047902 0.7223909 1.744006
v 0.022047834 -0.5029525 1.2470478
v 0.022047767 0.022047501 1.9029521
v 0.022047834 -0.5029525 1.5529523
vt 0.5346079 0.90600044
vt 0.5346079 0.8937168
vt 0.5592401 0.9224219
vt 0.5927595 0.915096
vt 0.61198753 0.8869203
vt 0.6217102 0.8966431
vt 0.6401632 0.8676923
vt 0.61878407 0.8095408
vt 0.6474893 0.83417296
vt 0.6310677 0.80954087
vt 0.84178746 0.7075591
vt 0.7220215 0.707559
vt 0.7220215 0.7753033
vt 0.84178674 0.7753035
vt 0.7220215 0.83923054
vt 0.8417861 0.8392307
vt 0.8417872 0.9031586
vt 0.7220215 0.9031583
vt 0.8417881 0.9507606
vt 0.7220215 0.9507606
vt 0.9963389 0.6762954
vt 0.8843999 0.6762954
vt 0.8844 0.7043093
vt 0.996339 0.70430934
vt 0.6261143 0.7043092
vt 0.85687023 0.7043093
vt 0.6149813 0.7043093
vt 0.6888568 0.7043093
vt 0.64810365 0.8659971
vt 0.53290397 0.8659975
vt 0.97103536 0.6762953
vt 0.6667155 0.6762953
vt 0.63030267 0.6762953
vt 0.5183636 0.6762953
vt 0.53290397 0.8659975
vt 0.7888933 0.6762953
vt 0.7888933 0.70430934
vt 0.7942546 0.7043093
vt 0.79425454 0.6762953
vt 0.82584566 0.6762953
vt 0.68885684 0.6762953
vt 0.6149815 0.6762953
vt 0.8997211 0.6762953
vt 0.534608 0.89371675
vt 0.534608 0.9060005
vt 0.5592401 0.9224219
vt 0.5927595 0.91509575
vt 0.61198753 0.8869204
vt 0.6217102 0.8966431
vt 0.640163 0.8676923
vt 0.61878395 0.80954075
vt 0.6474891 0.83417296
vt 0.63106763 0.8095408
vn 1 0 0
vn 1 7.371498E-07 0
vn 1 7.7845726E-07 0
vn 1 8.044907E-07 0
vn 1 4.369685E-07 -3.812271E-07
vn 1 6.19379E-07 -2.6137857E-07
vn 1 0 -8.0808223E-07
vn 1 0 -7.612703E-07
vn 1 0 -8.039295E-07
vn 1 -1.86222E-06 0
vn -0 0.22132616 0.9751999
vn -0 0.22132619 0.9751999
vn -0 0.38748965 0.9218741
vn -0 0.38748956 0.9218741
vn -0 0.70710677 0.7071068
vn -0 0.70710665 0.7071069
vn -0 0.921874 0.38748974
vn -0 0.921874 0.38748977
vn -0 0.9751999 0.22132614
vn -0 0.9751999 0.22132614
vn -0 -1 0
vn -0 -1 0
vn -0 -1 0
vn -0 -1 0
vn -0 0.8320498 -0.554701
vn -0 0.8320498 -0.554701
vn -0 0.8320498 -0.554701
vn -0 0.8320497 -0.55470103
vn -0 -0.70710677 -0.7071068
vn -0 -0.70710677 -0.7071068
vn -0 -0.9964097 -0.08466128
vn -0 -0.9964097 -0.08466128
vn -0 -0.0846611 -0.99640983
vn -0 -0.0846611 -0.99640983
vn -0 -0.70710677 -0.7071068
vn -0 0 -1
vn -0 0 -1
vn -0 0 -1
vn -0 0 -1
vn -0 -0.55469984 0.83205044
vn -0 -0.55469984 0.83205056
vn -0 -0.55469984 0.83205044
vn -0 -0.55469984 0.83205056
vn -1 -2.6923246E-07 0
vn -1 0 -2.5431314E-07
vn -1 -2.8431936E-07 0
vn -1 -2.9201016E-07 0
vn -1 0 0
vn -1 -3.435618E-07 0
vn -1 0 0
vn -1 0 0
vn -1 0 0
vn -1 0 0
g housekit_roof_x3_COL_0
f 3/3/3 2/2/2 1/1/1
f 3/3/3 4/4/4 2/2/2
f 4/4/4 5/5/5 2/2/2
f 4/4/4 6/6/6 5/5/5
f 6/6/6 7/7/7 5/5/5
f 5/5/5 7/7/7 8/8/8
f 7/7/7 9/9/9 8/8/8
f 9/9/9 10/10/10 8/8/8
f 13/13/13 12/12/12 11/11/11
f 14/14/14 13/13/13 11/11/11
f 15/15/15 13/13/13 14/14/14
f 16/16/16 15/15/15 14/14/14
f 15/15/15 16/16/16 17/17/17
f 18/18/18 15/15/15 17/17/17
f 18/18/18 17/17/17 19/19/19
f 20/20/20 18/18/18 19/19/19
f 23/23/23 22/22/22 21/21/21
f 24/24/24 23/23/23 21/21/21
f 27/27/27 26/26/26 25/25/25
f 28/28/28 27/27/27 25/25/25
f 31/31/31 30/30/30 29/29/29
f 32/32/32 31/31/31 29/29/29
f 34/34/34 33/33/33 29/29/29
f 35/35/35 34/34/34 29/29/29
f 38/38/38 37/37/37 36/36/36
f 39/39/39 38/38/38 36/36/36
f 42/42/42 41/41/41 40/40/40
f 43/43/43 42/42/42 40/40/40
f 46/46/46 45/45/45 44/44/44
f 47/47/47 46/46/46 44/44/44
f 48/48/48 47/47/47 44/44/44
f 49/49/49 47/47/47 48/48/48
f 50/50/50 49/49/49 48/48/48
f 50/50/50 48/48/48 51/51/51
f 52/52/52 50/50/50 51/51/51
f 52/52/52 51/51/51 53/53/53
