g housekit_understructure_corner_x1a_COL
v -0 0.35 0
v -0 0.35 1.7548358
v -0.87528735 0.35 1.516044
v -1.5160443 0.35 0.8752881
v -1.7548358 0.35 0
v -0 0 0
v -0.87528735 0 1.516044
v -0 0 1.7548358
v -1.5160443 0 0.8752881
v -1.7548358 0 0
v -0.87528735 0 1.516044
v -0 0.35 1.7548358
v -0 0 1.7548358
v -0.87528735 0.35 1.516044
v -1.5160443 0 0.8752881
v -1.5160443 0.35 0.8752881
v -1.7548358 0 0
v -1.7548358 0.35 0
v -0 0 1.7548358
v -0 0.35 1.7548358
v -0 0.35 0
v -0 0 0
v -0 0 0
v -0 0.35 0
v -1.7548358 0.35 0
v -1.7548358 0 0
vt 0.30993056 0.76751876
vt 0.35616934 0.98198074
vt 0.35616934 0.8494891
vt 0.35616934 0.6982633
vt 0.3561693 0.5403418
vt 0.30993056 0.76751876
vt 0.35616934 0.8494891
vt 0.35616934 0.98198074
vt 0.35616934 0.6982633
vt 0.3561693 0.5403418
vt 0.35616934 0.8494891
vt 0.35616934 0.98198074
vt 0.35616934 0.98198074
vt 0.35616934 0.8494891
vt 0.35616934 0.6982633
vt 0.35616934 0.6982633
vt 0.3561693 0.5403418
vt 0.3561693 0.5403418
vt 0.35616934 0.98198074
vt 0.35616934 0.98198074
vt 0.30993056 0.76751876
vt 0.30993056 0.915735
vt 0.30993056 0.6193025
vt 0.30993056 0.76751876
vt 0.3561693 0.5403418
vt 0.3561693 0.5403418
vn -0 1 0
vn -0 1 0
vn -0 1 0
vn -0 1 0
vn -0 1 0
vn -0 -1 0
vn -0 -1 0
vn -0 -1 0
vn -0 -1 0
vn -0 -1 0
vn -0.5018215 0 0.8649713
vn -0.26319656 0 0.9647422
vn -0.26319656 0 0.9647422
vn -0.5018215 0 0.8649713
vn -0.864971 0 0.5018218
vn -0.864971 0 0.5018218
vn -0.9647424 0 0.26319602
vn -0.9647424 0 0.26319602
vn 1 0 0
vn 1 0 0
vn 1 0 0
vn 1 0 0
vn -0 0 -1
vn -0 0 -1
vn -0 0 -1
vn -0 0 -1
g housekit_understructure_corner_x1a_COL_0
f 3/3/3 2/2/2 1/1/1
f 3/3/3 1/1/1 4/4/4
f 5/5/5 4/4/4 1/1/1
f 8/8/8 7/7/7 6/6/6
f 6/6/6 7/7/7 9/9/9
f 9/9/9 10/10/10 6/6/6
f 13/13/13 12/12/12 11/11/11
f 12/12/12 14/14/14 11/11/11
f 11/11/11 14/14/14 15/15/15
f 14/14/14 16/16/16 15/15/15
f 15/15/15 16/16/16 17/17/17
f 16/16/16 18/18/18 17/17/17
f 21/21/21 20/20/20 19/19/19
f 22/22/22 21/21/21 19/19/19
f 25/25/25 24/24/24 23/23/23
f 26/26/26 25/25/25 23/23/23
