g interior_doorway_COL3
v 4.5915112 11.17123 -0.79525954
v 12.85907 8.57172 -0.6253796
v 11.812607 11.170367 -0.79525954
v 4.5915112 8.57172 -0.6253796
v 4.5915112 4.105411 -0.6253796
v 14.774722 4.1054106 -0.6253796
v 4.5915112 -3.862381E-07 -0.6253796
v 14.774722 -3.862381E-07 -0.6253796
v 4.5915112 8.57172 -0.6253796
v 4.5915112 8.57172 0
v 4.5915112 4.105411 0
v 4.5915112 4.105411 -0.6253796
v 4.5915112 4.105411 -0.6253796
v 4.5915112 4.105411 0
v 4.5915112 -3.862381E-07 0
v 4.5915112 -3.862381E-07 -0.6253796
vt 0.004625723 0.30582312
vt 0.18329953 0.8821361
vt 0.012175007 0.80493325
vt 0.1803702 0.3071053
vt 0.48284656 0.30735558
vt 0.4993426 0.99896806
vt 0.77380085 0.3075963
vt 0.7832213 1
vt 0 0
vt 0 1
vt 1 1
vt 1 0
vt 0 0
vt 0 1
vt 1 1
vt 1 0
vn -3.671248E-06 -0.065216415 -0.99787116
vn -8.2638456E-07 -0.01484385 -0.99988985
vn -3.6310942E-06 -0.065223165 -0.9978707
vn -1.6094366E-06 -0.028590228 -0.9995913
vn -0 0 -1
vn -0 0 -1
vn -0 0 -1
vn -0 0 -1
vn -1 0 0
vn -1 0 0
vn -1 0 0
vn -1 0 0
vn -1 0 0
vn -1 0 0
vn -1 0 0
vn -1 0 0
g interior_doorway_COL3_0
f 3/3/3 2/2/2 1/1/1
f 2/2/2 4/4/4 1/1/1
f 5/5/5 4/4/4 2/2/2
f 6/6/6 5/5/5 2/2/2
f 7/7/7 5/5/5 6/6/6
f 8/8/8 7/7/7 6/6/6
f 11/11/11 10/10/10 9/9/9
f 12/12/12 11/11/11 9/9/9
f 15/15/15 14/14/14 13/13/13
f 16/16/16 15/15/15 13/13/13
