g leaves_cube_COL
v -2.367377 1.7052808 1.8075194
v -2.3983693 4.393666 1.5844449
v -0.7460838 1.9158069 1.5644629
v -0.75195473 3.1830072 1.4581002
v 1.7117026 4.393666 1.0134218
v 1.7248443 3.253697 1.1080132
v 1.7248443 3.253697 1.1080132
v 1.7117026 4.393666 1.0134218
v 1.6166605 3.369182 0.32933405
v 1.4808934 2.6605535 -0.647881
v 1.6027734 2.7012873 0.22937939
v 1.0605487 3.9972594 -3.6734092
v 1.3786964 2.6263983 -1.3834666
v 1.38246 1.9214325 -1.3563771
v 1.1082186 -0.13780554 -3.3302934
v 1.389928 0.52262074 -1.3026255
v 1.5529829 0.30661064 -0.12899908
v 1.6565791 0.19602288 0.61665857
v 1.5586467 0.5790081 -0.0882331
v -3.0495234 3.9972594 -3.102386
v 1.0605487 3.9972594 -3.6734092
v -2.3983693 4.393666 1.5844449
v 1.7117026 4.393666 1.0134218
v -2.367377 1.7052808 1.8075194
v -2.6333566 1.7707977 -0.106930606
v -2.3983693 4.393666 1.5844449
v -3.0495234 3.9972594 -3.102386
v -2.6730738 1.7805804 -0.39280236
v -3.0018532 -0.13780554 -2.7592707
v -2.6842227 0.055560246 -0.47305068
v 1.0605487 3.9972594 -3.6734092
v -3.0495234 3.9972594 -3.102386
v 1.1082186 -0.13780554 -3.3302934
v -3.0018532 -0.13780554 -2.7592707
v -2.6842227 0.055560246 -0.47305068
v -0.7252066 0.07231256 -0.5433287
v -3.0018532 -0.13780554 -2.7592707
v 1.1082186 -0.13780554 -3.3302934
v -0.49316868 0.07429682 -0.5516529
v 1.6565791 0.19602288 0.61665857
v -0.46993425 0.15968317 0.47415146
v -0.46585882 0.17466028 0.6540841
v -0.75772995 1.863427 2.559779
v -0.74556035 -0.09825445 2.4676194
v -3.389592 1.5377704 2.640021
v -3.0700116 -1.2075641 2.5000713
v -0.37572414 -0.09353552 2.4544246
v -0.2861405 -0.8630979 2.4151945
v -3.1842184 -1.0675446 -0.50742424
v -3.5037987 1.6777899 -0.3674746
v -3.0700116 -1.2075641 2.5000713
v -3.389592 1.5377704 2.640021
v -0.2861405 -0.8630979 2.4151945
v -0.40034735 -0.72307867 -0.59230095
v -3.0700116 -1.2075641 2.5000713
v -3.1842184 -1.0675446 -0.50742424
v -2.6730738 1.7805804 -0.39280236
v -3.5037987 1.6777899 -0.3674746
v -2.6842227 0.055560246 -0.47305068
v -3.1842184 -1.0675446 -0.50742424
v -0.40034735 -0.72307867 -0.59230095
v -0.7252066 0.07231256 -0.5433287
v -0.49316868 0.07429682 -0.5516529
v -0.7460838 1.9158069 1.5644629
v -0.75772995 1.863427 2.559779
v -2.367377 1.7052808 1.8075194
v -3.389592 1.5377704 2.640021
v -3.5037987 1.6777899 -0.3674746
v -2.6333566 1.7707977 -0.106930606
v -2.6730738 1.7805804 -0.39280236
v -0.46585882 0.17466028 0.6540841
v -0.2861405 -0.8630979 2.4151945
v -0.37572414 -0.09353552 2.4544246
v -0.46993425 0.15968317 0.47415146
v -0.40034735 -0.72307867 -0.59230095
v -0.49316868 0.07429682 -0.5516529
v 1.5529829 0.30661064 -0.12899908
v 1.6565791 0.19602288 0.61665857
v 2.5145037 0.31203362 -0.11746292
v 2.4773178 -0.18608403 3.216113
v -0.7534774 -0.20430578 3.1773508
v -0.37572414 -0.09353552 2.4544246
v -0.46585882 0.17466028 0.6540841
v -0.74556035 -0.09825445 2.4676194
v -0.75195473 3.1830072 1.4581002
v -0.77623403 2.8577783 3.6346471
v -0.7460838 1.9158069 1.5644629
v -0.75772995 1.863427 2.559779
v -0.7534774 -0.20430578 3.1773508
v -0.74556035 -0.09825445 2.4676194
v 1.5586467 0.5790081 -0.0882331
v 1.5529829 0.30661064 -0.12899908
v 2.5128598 0.53323597 -0.084428236
v 2.5145037 0.31203362 -0.11746292
v -0.77623403 2.8577783 3.6346471
v 2.454561 2.8759997 3.6734097
v -0.7534774 -0.20430578 3.1773508
v 2.4773178 -0.18608403 3.216113
v 1.6166605 3.369182 0.32933405
v 2.4917471 3.3741174 0.3398332
v 1.7248443 3.253697 1.1080132
v 2.454561 2.8759997 3.6734097
v -0.77623403 2.8577783 3.6346471
v -0.75195473 3.1830072 1.4581002
v 2.499201 0.59288627 1.0259811
v 3.402777 0.53628653 0.78005475
v 2.5128598 0.53323597 -0.084428236
v 2.7305121 0.43864676 -1.6674922
v 1.389928 0.52262074 -1.3026255
v 1.5586467 0.5790081 -0.0882331
v 2.497066 2.6583893 0.23294532
v 2.4883068 2.6966424 0.94504803
v 2.4917471 3.3741174 0.3398332
v 2.454561 2.8759997 3.6734097
v 2.4773178 -0.18608403 3.216113
v 2.499201 0.59288627 1.0259811
v 2.5128598 0.53323597 -0.084428236
v 2.5145037 0.31203362 -0.11746292
v 1.6166605 3.369182 0.32933405
v 1.6027734 2.7012873 0.22937939
v 2.4917471 3.3741174 0.3398332
v 2.497066 2.6583893 0.23294532
v 1.3786964 2.6263983 -1.3834666
v 1.38246 1.9214325 -1.3563771
v 2.8315337 2.535393 -1.7788854
v 2.7305121 0.43864676 -1.6674922
v 1.389928 0.52262074 -1.3026255
v 3.402777 0.53628653 0.78005475
v 3.5037987 2.6330328 0.66866165
v 2.7305121 0.43864676 -1.6674922
v 2.8315337 2.535393 -1.7788854
v 3.402777 0.53628653 0.78005475
v 2.499201 0.59288627 1.0259811
v 3.5037987 2.6330328 0.66866165
v 2.4883068 2.6966424 0.94504803
v 2.4883068 2.6966424 0.94504803
v 2.497066 2.6583893 0.23294532
v 3.5037987 2.6330328 0.66866165
v 2.8315337 2.535393 -1.7788854
v 1.3786964 2.6263983 -1.3834666
v 1.4808934 2.6605535 -0.647881
v 1.6027734 2.7012873 0.22937939
vt 0.375 0.08746416
vt 0.375 0.25
vt 0.47376472 0.10019225
vt 0.4742962 0.17680538
vt 0.625 0.25
vt 0.625 0.18107913
vt 0.625 0.18107913
vt 0.625 0.25
vt 0.66573846 0.19196658
vt 0.72061527 0.15438469
vt 0.6739685 0.1523756
vt 0.875 0.25
vt 0.7597288 0.15606931
vt 0.76139235 0.1136076
vt 0.875 0
vt 0.7646933 0.029353889
vt 0.70347667 0.010425738
vt 0.66446584 0
vt 0.7001201 0.026572706
vt 0.375 0.5
vt 0.625 0.5
vt 0.375 0.25
vt 0.625 0.25
vt 0.375 0.08746416
vt 0.27388108 0.10111893
vt 0.375 0.25
vt 0.125 0.25
vt 0.25878167 0.1031579
vt 0.125 0
vt 0.2469491 0
vt 0.625 0.5
vt 0.375 0.5
vt 0.625 0.75
vt 0.375 0.75
vt 0.375 0.8719491
vt 0.49248564 0.88251436
vt 0.375 0.75
vt 0.625 0.75
vt 0.50640136 0.88376576
vt 0.625 0.9605341
vt 0.4992832 0.93761593
vt 0.49803466 0.94706154
vt 0.61134917 0.25
vt 0.59221053 0.07376358
vt 0.375 0.25
vt 0.375 0
vt 0.625 0.07007912
vt 0.625 0
vt 0.125 0
vt 0.125 0.25
vt 0.375 0
vt 0.375 0.25
vt 0.625 1
vt 0.625 0.75
vt 0.375 1
vt 0.375 0.75
vt 0.44960165 0.5
vt 0.375 0.5
vt 0.43083757 0.65473217
vt 0.375 0.75
vt 0.625 0.75
vt 0.60443777 0.67498887
vt 0.625 0.6773881
vt 0.61578405 0.3326111
vt 0.61134917 0.25
vt 0.46952754 0.3165345
vt 0.375 0.25
vt 0.375 0.5
vt 0.45219046 0.47616366
vt 0.44960165 0.5
vt 0.77543396 0.08682948
vt 0.625 0
vt 0.625 0.07007912
vt 0.7902922 0.08470778
vt 0.875 0
vt 0.875 0.07261188
vt 0.5505972 0.75
vt 0.55925596 0.8058196
vt 0.625 0.75
vt 0.625 1
vt 0.375 1
vt 0.40360284 0.9454519
vt 0.39507526 0.8105353
vt 0.375 0.946774
vt 0.21177088 0.25
vt 0.375 0.25
vt 0.23345597 0.15006855
vt 0.30704373 0.15776283
vt 0.375 0
vt 0.32177404 -1.0894262E-18
vt 0.5511921 0.727764
vt 0.5505972 0.75
vt 0.625 0.7319402
vt 0.625 0.75
vt 0.375 0.25
vt 0.625 0.25
vt 0.375 0
vt 0.625 0
vt 0.5572855 0.5
vt 0.625 0.5
vt 0.56632775 0.44170845
vt 0.625 0.25
vt 0.375 0.25
vt 0.375 0.4132291
vt 0.50772935 1
vt 0.625 1
vt 0.5462092 0.8948219
vt 0.625 0.75
vt 0.45101222 0.75
vt 0.43110693 0.86977804
vt 0.875 0.19156528
vt 0.82318103 0.20311798
vt 0.875 0.25
vt 0.625 0.25
vt 0.625 0
vt 0.79419667 0.036074378
vt 0.875 0.01805979
vt 0.875 0
vt 0.5572855 0.5
vt 0.5558269 0.5545207
vt 0.625 0.5
vt 0.625 0.5584347
vt 0.43644345 0.5
vt 0.44132534 0.5837738
vt 0.625 0.5
vt 0.625 0.75
vt 0.45101222 0.75
vt 0.625 0
vt 0.625 0.25
vt 0.875 0
vt 0.875 0.25
vt 0.625 0
vt 0.50772935 -4.2095097E-18
vt 0.625 0.25
vt 0.49320436 0.25
vt 0.49320436 0.25
vt 0.5178814 0.31745046
vt 0.625 0.25
vt 0.625 0.5
vt 0.43644345 0.5
vt 0.42438635 0.42744768
vt 0.410007 0.34092167
vn 0.13713062 0.08348174 0.98702884
vn 0.13713053 0.08348173 0.98702884
vn 0.13713053 0.0834817 0.98702884
vn 0.1371304 0.08348169 0.98702896
vn 0.13713042 0.08348168 0.98702896
vn 0.13713033 0.08348162 0.98702896
vn 0.9904863 0 -0.1376108
vn 0.9904863 0 -0.13761085
vn 0.9904863 4.4556646E-07 -0.13761096
vn 0.9904863 0 -0.13761082
vn 0.99048644 3.3248372E-07 -0.13761036
vn 0.9904863 0 -0.13761084
vn 0.9904863 1.3460694E-07 -0.13761096
vn 0.9904863 0 -0.13761087
vn 0.9904863 0 -0.13761087
vn 0.9904863 -2.4901698E-07 -0.13761103
vn 0.99048644 0 -0.13761057
vn 0.99048644 5.6449556E-07 -0.13761047
vn 0.99048644 -1.1778089E-06 -0.1376105
vn -0.011487985 0.99650925 -0.08268734
vn -0.011487982 0.99650925 -0.0826874
vn -0.011487982 0.99650925 -0.082687415
vn -0.011487981 0.99650925 -0.08268748
vn -0.9904863 0 0.13761088
vn -0.9904863 -1.5413426E-07 0.13761085
vn -0.9904863 -2.0167015E-07 0.13761082
vn -0.9904863 -1.2728381E-07 0.13761087
vn -0.9904863 2.410208E-07 0.13761093
vn -0.9904863 0 0.13761087
vn -0.9904863 0 0.13761084
vn -0.13713071 -0.083481796 -0.98702884
vn -0.1371306 -0.08348175 -0.98702884
vn -0.1371306 -0.08348175 -0.98702884
vn -0.13713047 -0.0834817 -0.98702884
vn 0.011487888 -0.99650925 0.0826876
vn 0.01148796 -0.99650925 0.082687356
vn 0.011487956 -0.99650925 0.08268733
vn 0.011488005 -0.99650925 0.08268725
vn 0.0114880325 -0.99650925 0.08268733
vn 0.008701006 -0.9970925 -0.07570257
vn 0.011487962 -0.99650925 0.08268781
vn 0.0077485237 -0.99190384 -0.12675491
vn 0.036210783 -0.04667311 0.99825364
vn 0.036210556 -0.04667309 0.99825364
vn 0.03621062 -0.046673056 0.99825364
vn 0.036210533 -0.046673022 0.99825364
vn 0.036210556 -0.046672888 0.99825364
vn 0.036210615 -0.046672873 0.99825364
vn -0.9925862 -0.11718912 0.03223657
vn -0.9925863 -0.11718902 0.03223659
vn -0.9925863 -0.11718902 0.032236602
vn -0.9925863 -0.11718895 0.03223663
vn 0.12111749 -0.99133986 -0.050752643
vn 0.12111742 -0.99133986 -0.05075288
vn 0.12111742 -0.99133986 -0.050752856
vn 0.12111736 -0.99133986 -0.050753094
vn -0.036210656 0.046672985 -0.99825364
vn -0.036210652 0.046673015 -0.99825364
vn -0.036210638 0.046673045 -0.99825364
vn -0.03621064 0.046673045 -0.99825364
vn -0.036210645 0.046673033 -0.99825364
vn -0.036210638 0.046673022 -0.99825364
vn -0.036210522 0.046672996 -0.99825364
vn -0.121117495 0.99133986 0.05075377
vn -0.121117435 0.99133986 0.05075275
vn -0.1211173 0.99133986 0.050752267
vn -0.12111726 0.99133986 0.05075232
vn -0.121117294 0.99133986 0.050753154
vn -0.12111733 0.99133986 0.050753314
vn -0.12111697 0.99133986 0.050753854
vn 0.9925862 0.11718919 -0.03223631
vn 0.9925863 0.11718885 -0.03223663
vn 0.9925863 0.11718878 -0.03223659
vn 0.9925863 0.11718892 -0.032236658
vn 0.9925863 0.117188886 -0.032236658
vn 0.9925863 0.11718884 -0.032236606
vn 0.0073500667 -0.989005 -0.1476989
vn 0.008701006 -0.9970925 -0.07570257
vn 0.007350078 -0.989005 -0.1476992
vn 0.007350089 -0.989005 -0.14769931
vn 0.007350086 -0.989005 -0.14769937
vn 0.0073500546 -0.9890049 -0.14769994
vn 0.0077485237 -0.99190384 -0.12675491
vn 0.0073497016 -0.9890049 -0.14770004
vn -0.99991214 -0.0056394483 -0.011996664
vn -0.99991214 -0.005639493 -0.011996661
vn -0.99991214 -0.0056394814 -0.011996672
vn -0.99991214 -0.0056395475 -0.011996669
vn -0.99991214 -0.0056394627 -0.011996644
vn -0.99991214 -0.005639439 -0.011996642
vn 0.011031915 0.14777447 -0.98895955
vn 0.011031906 0.14777438 -0.98895955
vn 0.0110318605 0.14777397 -0.98895967
vn 0.011031846 0.14777385 -0.98895967
vn -0.011031946 -0.14777467 0.98895955
vn -0.011031907 -0.14777468 0.98895955
vn -0.01103191 -0.1477747 0.98895955
vn -0.011031873 -0.1477747 0.98895955
vn -0.0073498418 0.9890049 0.14769992
vn -0.007349968 0.9890049 0.14769952
vn -0.0073500085 0.9890049 0.14769953
vn -0.007349973 0.9890049 0.14769992
vn -0.0073500355 0.989005 0.14769946
vn -0.0073501416 0.98900515 0.14769863
vn -0.048056807 -0.99743795 0.052990712
vn -0.0480568 -0.99743795 0.052990593
vn -0.04805685 -0.99743795 0.052990384
vn -0.048056934 -0.99743795 0.05298996
vn -0.04805693 -0.99743795 0.052990083
vn -0.04805683 -0.99743795 0.052990917
vn 0.99991214 0.0056396504 0.011996592
vn 0.99991214 0.0056394166 0.011996676
vn 0.99991214 0.005639289 0.011996649
vn 0.99991214 0.005639448 0.011996685
vn 0.99991214 0.005639502 0.011996684
vn 0.99991214 0.005639319 0.011996668
vn 0.99991214 0.0056407843 0.011996686
vn 0.99991214 0.0056413743 0.011996698
vn 0.011031979 0.14777438 -0.98895955
vn 0.011031947 0.14777456 -0.98895955
vn 0.011031936 0.14777462 -0.98895955
vn 0.011031908 0.14777477 -0.98895955
vn -0.2646639 -0.038439896 -0.9635743
vn -0.2646639 -0.03843992 -0.9635743
vn -0.2646638 -0.038439915 -0.9635743
vn -0.26466393 -0.038439922 -0.9635743
vn -0.264664 -0.038439922 -0.9635743
vn 0.9631425 -0.06033098 -0.26213852
vn 0.9631425 -0.060330935 -0.26213858
vn 0.9631425 -0.060330935 -0.2621386
vn 0.9631425 -0.06033088 -0.2621386
vn 0.2646637 0.038439933 0.9635743
vn 0.26466373 0.03843993 0.9635743
vn 0.26466376 0.038439903 0.9635743
vn 0.2646638 0.03843989 0.9635743
vn 0.048056472 0.9974381 -0.052989695
vn 0.04805672 0.99743795 -0.05299048
vn 0.04805664 0.99743795 -0.05299036
vn 0.048056766 0.99743795 -0.052990694
vn 0.0480568 0.99743795 -0.052990627
vn 0.048056953 0.9974381 -0.05298968
vn 0.048056997 0.99743795 -0.05299058
g leaves_cube_COL_0
f 3/3/3 2/2/2 1/1/1
f 4/4/4 2/2/2 3/3/3
f 4/4/4 5/5/5 2/2/2
f 5/5/5 4/4/4 6/6/6
f 9/9/9 8/8/8 7/7/7
f 9/9/9 10/10/10 8/8/8
f 9/9/9 11/11/11 10/10/10
f 10/10/10 12/12/12 8/8/8
f 13/13/13 12/12/12 10/10/10
f 14/14/14 12/12/12 13/13/13
f 12/12/12 14/14/14 15/15/15
f 16/16/16 15/15/15 14/14/14
f 16/16/16 17/17/17 15/15/15
f 15/15/15 17/17/17 18/18/18
f 17/17/17 16/16/16 19/19/19
f 22/22/22 21/21/21 20/20/20
f 22/22/22 23/23/23 21/21/21
f 26/26/26 25/25/25 24/24/24
f 26/26/26 27/27/27 25/25/25
f 27/27/27 28/28/28 25/25/25
f 29/29/29 28/28/28 27/27/27
f 30/30/30 28/28/28 29/29/29
f 33/33/33 32/32/32 31/31/31
f 33/33/33 34/34/34 32/32/32
f 37/37/37 36/36/36 35/35/35
f 37/37/37 38/38/38 36/36/36
f 38/38/38 39/39/39 36/36/36
f 40/40/40 39/39/39 38/38/38
f 39/39/39 40/40/40 41/41/41
f 41/41/41 40/40/40 42/42/42
f 45/45/45 44/44/44 43/43/43
f 46/46/46 44/44/44 45/45/45
f 47/47/47 44/44/44 46/46/46
f 47/47/47 46/46/46 48/48/48
f 51/51/51 50/50/50 49/49/49
f 51/51/51 52/52/52 50/50/50
f 55/55/55 54/54/54 53/53/53
f 55/55/55 56/56/56 54/54/54
f 59/59/59 58/58/58 57/57/57
f 59/59/59 60/60/60 58/58/58
f 59/59/59 61/61/61 60/60/60
f 62/62/62 61/61/61 59/59/59
f 61/61/61 62/62/62 63/63/63
f 66/66/66 65/65/65 64/64/64
f 66/66/66 67/67/67 65/65/65
f 66/66/66 68/68/68 67/67/67
f 69/69/69 68/68/68 66/66/66
f 68/68/68 69/69/69 70/70/70
f 73/73/73 72/72/72 71/71/71
f 71/71/71 72/72/72 74/74/74
f 74/74/74 72/72/72 75/75/75
f 75/75/75 76/76/76 74/74/74
f 79/79/79 78/78/78 77/77/77
f 80/80/80 78/78/78 79/79/79
f 81/81/81 78/78/78 80/80/80
f 81/81/81 82/82/82 78/78/78
f 78/78/78 82/82/82 83/83/83
f 84/84/84 82/82/82 81/81/81
f 87/87/87 86/86/86 85/85/85
f 88/88/88 86/86/86 87/87/87
f 88/88/88 89/89/89 86/86/86
f 90/90/90 89/89/89 88/88/88
f 93/93/93 92/92/92 91/91/91
f 93/93/93 94/94/94 92/92/92
f 97/97/97 96/96/96 95/95/95
f 97/97/97 98/98/98 96/96/96
f 101/101/101 100/100/100 99/99/99
f 101/101/101 102/102/102 100/100/100
f 101/101/101 103/103/103 102/102/102
f 101/101/101 104/104/104 103/103/103
f 107/107/107 106/106/106 105/105/105
f 107/107/107 108/108/108 106/106/106
f 107/107/107 109/109/109 108/108/108
f 107/107/107 110/110/110 109/109/109
f 113/113/113 112/112/112 111/111/111
f 114/114/114 112/112/112 113/113/113
f 115/115/115 112/112/112 114/114/114
f 115/115/115 116/116/116 112/112/112
f 117/117/117 116/116/116 115/115/115
f 117/117/117 115/115/115 118/118/118
f 121/121/121 120/120/120 119/119/119
f 121/121/121 122/122/122 120/120/120
f 125/125/125 124/124/124 123/123/123
f 126/126/126 124/124/124 125/125/125
f 127/127/127 124/124/124 126/126/126
f 130/130/130 129/129/129 128/128/128
f 130/130/130 131/131/131 129/129/129
f 134/134/134 133/133/133 132/132/132
f 134/134/134 135/135/135 133/133/133
f 138/138/138 137/137/137 136/136/136
f 139/139/139 137/137/137 138/138/138
f 140/140/140 137/137/137 139/139/139
f 141/141/141 137/137/137 140/140/140
f 142/142/142 137/137/137 141/141/141
