g market_curve_COL
v 1.0383385 2.0778334 -0.50157416
v 1.0383385 2.0778334 0.50157416
v 0.3966095 3.362005 0.50157416
v 0.3966095 3.3620052 -0.50157416
v -0.3966101 3.3620043 0.50157416
v -0.3966101 3.3620045 -0.50157416
v -1.0383385 2.077833 0.50157416
v -1.0383385 2.077833 -0.50157416
v -1.283457 -2.2888183E-07 0.50157416
v -1.283457 -2.2888183E-07 -0.50157416
v 1.283457 0 -0.50157416
v 1.283457 0 0.50157416
v 1.0383385 2.0778334 0.50157416
v 1.0383385 2.0778334 -0.50157416
v -1.283457 -2.2888183E-07 -0.50157416
v 9.094947E-15 0 -0.50157416
v -1.0383385 2.077833 -0.50157416
v -0.3966101 3.3620045 -0.50157416
v 0.3966095 3.3620052 -0.50157416
v 1.0383385 2.0778334 -0.50157416
v 1.283457 0 -0.50157416
v -1.0383385 2.077833 0.50157416
v 9.094947E-15 0 0.50157416
v -1.283457 -2.2888183E-07 0.50157416
v -0.3966101 3.3620043 0.50157416
v 0.3966095 3.362005 0.50157416
v 1.0383385 2.0778334 0.50157416
v 1.283457 0 0.50157416
vt 0.375 0.3125
vt 0.375 0.68843985
vt 0.4 0.68843985
vt 0.4 0.3125
vt 0.425 0.68843985
vt 0.425 0.3125
vt 0.45000002 0.68843985
vt 0.45000002 0.3125
vt 0.47500002 0.68843985
vt 0.47500002 0.3125
vt 0.5999999 0.3125
vt 0.5999999 0.68843985
vt 0.6249999 0.68843985
vt 0.6249999 0.3125
vt 0.34375 0.15625001
vt 0.5 0.15
vt 0.37359107 0.064408556
vt 0.45171607 0.00764741
vt 0.5482839 0.007647395
vt 0.62640893 0.064408526
vt 0.65625 0.15625
vt 0.37359107 0.93559146
vt 0.5 0.8375
vt 0.34375 0.84375
vt 0.4517161 0.9923526
vt 0.54828393 0.9923526
vt 0.62640893 0.93559146
vt 0.65625 0.84375
vn 0.79943824 0.21087986 -0.5625195
vn 0.79943824 0.21087986 0.5625195
vn 0.49718466 0.55556023 0.6664534
vn 0.49718457 0.55556035 -0.6664534
vn -0.4971849 0.55556005 0.6664534
vn -0.49718484 0.5555601 -0.6664535
vn -0.79943824 0.21087992 0.5625195
vn -0.79943824 0.21087992 -0.56251943
vn -0.85615534 0.10099907 0.5067518
vn -0.85615534 0.10099907 -0.5067517
vn 0.85615534 0.100999035 -0.5067518
vn 0.85615534 0.100999035 0.5067518
vn 0.79943824 0.21087986 0.5625195
vn 0.79943824 0.21087986 -0.5625195
vn -0.85615534 0.10099907 -0.5067517
vn -0 0 -1
vn -0.79943824 0.21087992 -0.56251943
vn -0.49718484 0.5555601 -0.6664535
vn 0.49718457 0.55556035 -0.6664534
vn 0.79943824 0.21087986 -0.5625195
vn 0.85615534 0.100999035 -0.5067518
vn -0.79943824 0.21087992 0.5625195
vn -0 0 1
vn -0.85615534 0.10099907 0.5067518
vn -0.4971849 0.55556005 0.6664534
vn 0.49718466 0.55556023 0.6664534
vn 0.79943824 0.21087986 0.5625195
vn 0.85615534 0.100999035 0.5067518
g market_curve_COL_0
f 3/3/3 2/2/2 1/1/1
f 4/4/4 3/3/3 1/1/1
f 5/5/5 3/3/3 4/4/4
f 6/6/6 5/5/5 4/4/4
f 7/7/7 5/5/5 6/6/6
f 8/8/8 7/7/7 6/6/6
f 9/9/9 7/7/7 8/8/8
f 10/10/10 9/9/9 8/8/8
f 13/13/13 12/12/12 11/11/11
f 14/14/14 13/13/13 11/11/11
f 17/17/17 16/16/16 15/15/15
f 18/18/18 16/16/16 17/17/17
f 19/19/19 16/16/16 18/18/18
f 20/20/20 16/16/16 19/19/19
f 21/21/21 16/16/16 20/20/20
f 24/24/24 23/23/23 22/22/22
f 22/22/22 23/23/23 25/25/25
f 25/25/25 23/23/23 26/26/26
f 26/26/26 23/23/23 27/27/27
f 27/27/27 23/23/23 28/28/28
