g mesh_sandpile02_COL
v 0.030761752 1.432692 -0.056077495
v -2.2935936 0 -0.13850477
v -0.96184707 0 -2.9236646
v 0.030761752 1.432692 -0.056077495
v -1.5570284 0 2.0557296
v -2.2935936 0 -0.13850477
v 0.030761752 1.432692 -0.056077495
v 0.3402047 0 2.9145746
v -1.5570284 0 2.0557296
v 2.0937145 0 1.2435828
v 0.3402047 0 2.9145746
v 0.030761752 1.432692 -0.056077495
v 1.63486 0 -1.8946154
v 2.0937145 0 1.2435828
v 0.030761752 1.432692 -0.056077495
v -0.96184707 0 -2.9236646
v 1.63486 0 -1.8946154
vt 0 9.3983274E-09
vt 0.25796568 0.75698817
vt 1 0
vt 0 1.3274418E-15
vt 0.6191342 0.94762063
vt 1 0
vt 0 1.414031E-16
vt 0.8886453 0.7495647
vt 1 0
vt 0.50436527 0.64190644
vt 1 1.7839235E-17
vt 0 0
vt 0.27210248 0.9014245
vt 0.99999994 1.5892669E-17
vt 0 0
vt 0.42892683 1.0000001
vt 0.8802417 1.2999945E-16
vn 0.032123927 0.99834895 -0.047617815
vn -0.52229196 0.850735 -0.058830183
vn -0.160672 0.9040561 -0.3960646
vn 0.032123927 0.99834895 -0.047617815
vn -0.34507114 0.8766459 0.33528772
vn -0.52229196 0.850735 -0.058830183
vn 0.032123927 0.99834895 -0.047617815
vn 0.07891579 0.9011022 0.426365
vn -0.34507114 0.8766459 0.33528772
vn 0.484483 0.85697925 0.17567816
vn 0.07891579 0.9011022 0.426365
vn 0.032123927 0.99834895 -0.047617815
vn 0.38661146 0.8600644 -0.33289754
vn 0.484483 0.85697925 0.17567816
vn 0.032123927 0.99834895 -0.047617815
vn -0.160672 0.9040561 -0.3960646
vn 0.38661146 0.8600644 -0.33289754
g mesh_sandpile02_COL_0
f 3/3/3 2/2/2 1/1/1
f 6/6/6 5/5/5 4/4/4
f 9/9/9 8/8/8 7/7/7
f 11/11/11 10/10/10 7/7/7
f 14/14/14 13/13/13 12/12/12
f 17/17/17 16/16/16 15/15/15
