g mesh_tamingbell_COL
v 0.40645617 0.19612204 -0.40645617
v 0.19399497 0.39239806 -0.19399497
v 1.0980104E-08 0.39239806 -0.27435055
v -6.360204E-09 0.19612204 -0.574816
v -0.19399497 0.39239806 -0.19399497
v -0.40645617 0.19612204 -0.40645617
v -0.2743505 0.39239806 5.490052E-09
v -0.574816 0.19612204 -2.5330478E-09
v -0.19399497 0.39239806 0.19399497
v -0.40645617 0.19612204 0.40645617
v 1.0980104E-08 0.39239806 0.27435055
v -6.360204E-09 0.19612204 0.574816
v 0.193995 0.39239806 0.19399497
v 0.40645617 0.19612204 0.4064562
v 0.27435055 0.39239806 5.490052E-09
v 0.574816 0.19612204 -2.5330478E-09
v 0.19399497 0.39239806 -0.19399497
v 0.40645617 0.19612204 -0.40645617
v -6.360204E-09 0.19612204 -0.574816
v -6.360204E-09 0 -0.574816
v 0.40645617 0 -0.40645617
v 0.40645617 0.19612204 -0.40645617
v -0.40645617 0.19612204 -0.40645617
v -0.40645617 0 -0.40645617
v -6.360204E-09 0 -0.574816
v -6.360204E-09 0.19612204 -0.574816
v -0.574816 0.19612204 -2.5330478E-09
v -0.574816 0 -2.5330478E-09
v -0.40645617 0 -0.40645617
v -0.40645617 0.19612204 -0.40645617
v -0.40645617 0.19612204 0.40645617
v -0.40645617 0 0.40645617
v -0.574816 0 -2.5330478E-09
v -0.574816 0.19612204 -2.5330478E-09
v -6.360204E-09 0.19612204 0.574816
v -6.360204E-09 0 0.574816
v -0.40645617 0 0.40645617
v -0.40645617 0.19612204 0.40645617
v 0.40645617 0.19612204 0.4064562
v 0.40645617 0 0.4064562
v -6.360204E-09 0 0.574816
v -6.360204E-09 0.19612204 0.574816
v 0.574816 0.19612204 -2.5330478E-09
v 0.574816 0 -2.5330478E-09
v 0.40645617 0 0.4064562
v 0.40645617 0.19612204 0.4064562
v 0.40645617 0.19612204 -0.40645617
v 0.40645617 0 -0.40645617
v 0.574816 0 -2.5330478E-09
v 0.574816 0.19612204 -2.5330478E-09
v -0.120114505 1.3437576 -0.17886591
v -0.120114505 1.3437576 0.17886591
v 0.120114505 1.3437576 0.17886591
v 0.120114505 1.3437576 -0.17886591
v -0 1.7743524 -0.17886597
v -0.29925898 1.6644906 -0.121346064
v 0.29925898 1.6644906 -0.121346064
v -0.29925898 1.6644906 0.121346064
v 0.29925898 1.6644906 0.121346064
v -0 1.7743524 0.17886597
v 0.120114505 1.3437576 0.17886591
v 0.29925898 1.6644906 -0.121346064
v 0.120114505 1.3437576 -0.17886591
v -0.120114505 1.3437576 0.17886591
v -0.120114505 1.3437576 -0.17886591
v -0.29925898 1.6644906 -0.121346064
v 0.56239194 1.3148746 -0.092042014
v 0.70144314 0.9328345 0.092042014
v 0.70144314 0.9328345 -0.092042014
v 0.56239194 1.3148746 0.092042014
v 0.21030189 1.5181539 -0.092042014
v 0.85003036 0.9328345 0.092042014
v 0.21030189 1.5181539 0.092042014
v 0.67621636 1.4103847 0.092042014
v 0.85003036 0.9328345 -0.092042014
v 0.23610376 1.6644838 0.092042014
v 0.67621636 1.4103847 -0.092042014
v 0.70144314 0.9328345 -0.092042014
v 0.23610376 1.6644838 -0.092042014
v 0.56239194 1.3148746 -0.092042014
v 0.21030189 1.5181539 -0.092042014
v 0.56239206 0.5507944 -0.092042014
v 0.21030197 0.34751505 0.092042014
v 0.21030197 0.34751505 -0.092042014
v 0.56239206 0.5507944 0.092042014
v 0.70144314 0.9328345 -0.092042014
v 0.23610394 0.20118523 0.092042014
v 0.70144314 0.9328345 0.092042014
v 0.67621654 0.45528445 0.092042014
v 0.23610394 0.20118523 -0.092042014
v 0.85003036 0.9328345 0.092042014
v 0.67621654 0.45528445 -0.092042014
v 0.21030197 0.34751505 -0.092042014
v 0.85003036 0.9328345 -0.092042014
v 0.56239206 0.5507944 -0.092042014
v 0.70144314 0.9328345 -0.092042014
v 0.19399497 0.39239806 -0.19399497
v -0 0.45856607 0
v 1.0980104E-08 0.39239806 -0.27435055
v 0.27435055 0.39239806 5.490052E-09
v -0.19399497 0.39239806 -0.19399497
v 0.193995 0.39239806 0.19399497
v -0.2743505 0.39239806 5.490052E-09
v 1.0980104E-08 0.39239806 0.27435055
v -0.19399497 0.39239806 0.19399497
vt 0.375 0.3125
vt 0.375 0.68843985
vt 0.40625 0.68843985
vt 0.40625 0.3125
vt 0.4375 0.68843985
vt 0.4375 0.3125
vt 0.46875 0.68843985
vt 0.46875 0.3125
vt 0.5 0.68843985
vt 0.5 0.3125
vt 0.53125 0.68843985
vt 0.53125 0.3125
vt 0.5625 0.68843985
vt 0.5625 0.3125
vt 0.59375 0.68843985
vt 0.59375 0.3125
vt 0.625 0.68843985
vt 0.625 0.3125
vt 0 0
vt 0 1
vt 1 1
vt 1 0
vt 0 0
vt 0 1
vt 1 1
vt 1 0
vt 0 0
vt 0 1
vt 1 1
vt 1 0
vt 0 0
vt 0 1
vt 1 1
vt 1 0
vt 0 0
vt 0 1
vt 1 1
vt 1 0
vt 0 0
vt 0 1
vt 1 1
vt 1 0
vt 0 0
vt 0 1
vt 1 1
vt 1 0
vt 0 0
vt 0 1
vt 1 1
vt 1 0
vt 0.375 0.75
vt 0.375 1
vt 0.625 1
vt 0.625 0.75
vt 0.5 0.5
vt 0.375 0.5
vt 0.625 0.5
vt 0.375 0.25
vt 0.625 0.25
vt 0.5 0.25
vt 0.625 0
vt 0.875 0.25
vt 0.875 0
vt 0.375 0
vt 0.125 0
vt 0.125 0.25
vt 0.11111111 1
vt 0 0.75
vt 0 1
vt 0.11111111 0.75
vt 0.22222222 1
vt 0 0.5
vt 0.22222222 0.75
vt 0.11111111 0.5
vt 0 0.25
vt 0.22222222 0.5
vt 0.11111111 0.25
vt 0 0
vt 0.22222222 0.25
vt 0.11111111 0
vt 0.22222222 0
vt 0.8888889 1
vt 0.7777778 0.75
vt 0.7777778 1
vt 0.8888889 0.75
vt 1 1
vt 0.7777778 0.5
vt 1 0.75
vt 0.8888889 0.5
vt 0.7777778 0.25
vt 1 0.5
vt 0.8888889 0.25
vt 0.7777778 0
vt 1 0.25
vt 0.8888889 0
vt 1 0
vt 0.61048543 0.95423543
vt 0.5 0.8375
vt 0.5 1
vt 0.65625 0.84375
vt 0.38951457 0.95423543
vt 0.61048543 0.73326457
vt 0.34375 0.84375
vt 0.5 0.6875
vt 0.38951457 0.73326457
vn 0.6155172 0.49221668 -0.6155171
vn 0.35882235 0.8616803 -0.35882238
vn -0 0.86168045 -0.50745136
vn -0 0.49221674 -0.8704726
vn -0.3588223 0.8616803 -0.3588223
vn -0.6155172 0.4922167 -0.6155171
vn -0.50745136 0.8616803 0
vn -0.8704727 0.49221677 0
vn -0.35882235 0.8616803 0.35882235
vn -0.6155172 0.4922167 0.61551714
vn -0 0.86168045 0.50745136
vn -0 0.4922168 0.8704726
vn 0.35882235 0.8616803 0.35882235
vn 0.6155171 0.49221674 0.6155171
vn 0.50745136 0.86168045 0
vn 0.8704727 0.49221677 0
vn 0.35882235 0.8616803 -0.35882238
vn 0.6155172 0.49221668 -0.6155171
vn -0 0.49221674 -0.8704726
vn -0 0 -1
vn 0.70710677 0 -0.70710677
vn 0.6155172 0.49221668 -0.6155171
vn -0.6155172 0.4922167 -0.6155171
vn -0.70710677 0 -0.70710677
vn -0 0 -1
vn -0 0.49221674 -0.8704726
vn -0.8704727 0.49221677 0
vn -1 0 0
vn -0.70710677 0 -0.70710677
vn -0.6155172 0.4922167 -0.6155171
vn -0.6155172 0.4922167 0.61551714
vn -0.70710677 0 0.70710677
vn -1 0 0
vn -0.8704727 0.49221677 0
vn -0 0.4922168 0.8704726
vn -0 0 1
vn -0.70710677 0 0.70710677
vn -0.6155172 0.4922167 0.61551714
vn 0.6155171 0.49221674 0.6155171
vn 0.70710677 0 0.7071068
vn -0 0 1
vn -0 0.4922168 0.8704726
vn 0.8704727 0.49221677 0
vn 1 0 0
vn 0.70710677 0 0.7071068
vn 0.6155171 0.49221674 0.6155171
vn 0.6155172 0.49221668 -0.6155171
vn 0.70710677 0 -0.70710677
vn 1 0 0
vn 0.8704727 0.49221677 0
vn -0.52469575 -0.74824566 -0.40598384
vn -0.52469575 -0.74824566 0.40598384
vn 0.5246957 -0.7482457 0.4059838
vn 0.52469575 -0.74824566 -0.4059838
vn -0 0.8794537 -0.47598445
vn -0.91541976 0.26246047 -0.30515757
vn 0.91541976 0.26246056 -0.30515763
vn -0.91541976 0.26246044 0.30515766
vn 0.91541976 0.26246056 0.30515754
vn -0 0.8794537 0.4759844
vn 0.5246957 -0.7482457 0.4059838
vn 0.91541976 0.26246056 -0.30515763
vn 0.52469575 -0.74824566 -0.4059838
vn -0.52469575 -0.74824566 0.40598384
vn -0.52469575 -0.74824566 -0.40598384
vn -0.91541976 0.26246047 -0.30515757
vn -0.5127758 -0.4302699 -0.7429191
vn -0.66938126 -1.1095067E-07 0.742919
vn -0.66938126 -1.1095067E-07 -0.742919
vn -0.5127758 -0.4302699 0.7429191
vn -0.34604797 -0.5993727 -0.7218055
vn 0.8706366 2.0203252E-07 0.49192658
vn -0.34604797 -0.5993727 0.7218055
vn 0.6669465 0.5596344 0.49192658
vn 0.8706366 2.0203252E-07 -0.49192658
vn 0.44161376 0.76489747 0.46894476
vn 0.6669465 0.5596344 -0.49192658
vn -0.66938126 -1.1095067E-07 -0.742919
vn 0.44161376 0.76489747 -0.46894476
vn -0.5127758 -0.4302699 -0.7429191
vn -0.34604797 -0.5993727 -0.7218055
vn -0.5127757 0.4302698 -0.7429192
vn -0.34604803 0.5993727 0.72180545
vn -0.34604803 0.5993727 -0.72180545
vn -0.5127757 0.4302698 0.7429192
vn -0.66938126 -1.1095067E-07 -0.742919
vn 0.44161382 -0.7648973 0.46894497
vn -0.66938126 -1.1095067E-07 0.742919
vn 0.66694653 -0.55963427 0.49192658
vn 0.44161382 -0.7648973 -0.46894497
vn 0.8706366 2.0203252E-07 0.49192658
vn 0.66694653 -0.55963427 -0.4919266
vn -0.34604803 0.5993727 -0.72180545
vn 0.8706366 2.0203252E-07 -0.49192658
vn -0.5127757 0.4302698 -0.7429192
vn -0.66938126 -1.1095067E-07 -0.742919
vn 0.35882235 0.8616803 -0.35882238
vn -0 1 0
vn -0 0.86168045 -0.50745136
vn 0.50745136 0.86168045 0
vn -0.3588223 0.8616803 -0.3588223
vn 0.35882235 0.8616803 0.35882235
vn -0.50745136 0.8616803 0
vn -0 0.86168045 0.50745136
vn -0.35882235 0.8616803 0.35882235
g mesh_tamingbell_COL_0
f 3/3/3 2/2/2 1/1/1
f 4/4/4 3/3/3 1/1/1
f 5/5/5 3/3/3 4/4/4
f 6/6/6 5/5/5 4/4/4
f 7/7/7 5/5/5 6/6/6
f 8/8/8 7/7/7 6/6/6
f 9/9/9 7/7/7 8/8/8
f 10/10/10 9/9/9 8/8/8
f 11/11/11 9/9/9 10/10/10
f 12/12/12 11/11/11 10/10/10
f 13/13/13 11/11/11 12/12/12
f 14/14/14 13/13/13 12/12/12
f 15/15/15 13/13/13 14/14/14
f 16/16/16 15/15/15 14/14/14
f 17/17/17 15/15/15 16/16/16
f 18/18/18 17/17/17 16/16/16
f 21/21/21 20/20/20 19/19/19
f 22/22/22 21/21/21 19/19/19
f 25/25/25 24/24/24 23/23/23
f 26/26/26 25/25/25 23/23/23
f 29/29/29 28/28/28 27/27/27
f 30/30/30 29/29/29 27/27/27
f 33/33/33 32/32/32 31/31/31
f 34/34/34 33/33/33 31/31/31
f 37/37/37 36/36/36 35/35/35
f 38/38/38 37/37/37 35/35/35
f 41/41/41 40/40/40 39/39/39
f 42/42/42 41/41/41 39/39/39
f 45/45/45 44/44/44 43/43/43
f 46/46/46 45/45/45 43/43/43
f 49/49/49 48/48/48 47/47/47
f 50/50/50 49/49/49 47/47/47
f 53/53/53 52/52/52 51/51/51
f 54/54/54 53/53/53 51/51/51
f 55/55/55 54/54/54 51/51/51
f 55/55/55 51/51/51 56/56/56
f 55/55/55 57/57/57 54/54/54
f 55/55/55 56/56/56 58/58/58
f 59/59/59 57/57/57 55/55/55
f 60/60/60 59/59/59 55/55/55
f 60/60/60 55/55/55 58/58/58
f 61/61/61 59/59/59 60/60/60
f 62/62/62 59/59/59 61/61/61
f 63/63/63 62/62/62 61/61/61
f 61/61/61 60/60/60 64/64/64
f 60/60/60 58/58/58 64/64/64
f 64/64/64 58/58/58 65/65/65
f 58/58/58 66/66/66 65/65/65
f 69/69/69 68/68/68 67/67/67
f 68/68/68 70/70/70 67/67/67
f 67/67/67 70/70/70 71/71/71
f 68/68/68 72/72/72 70/70/70
f 70/70/70 73/73/73 71/71/71
f 72/72/72 74/74/74 70/70/70
f 70/70/70 74/74/74 73/73/73
f 72/72/72 75/75/75 74/74/74
f 74/74/74 76/76/76 73/73/73
f 75/75/75 77/77/77 74/74/74
f 74/74/74 77/77/77 76/76/76
f 75/75/75 78/78/78 77/77/77
f 77/77/77 79/79/79 76/76/76
f 78/78/78 80/80/80 77/77/77
f 77/77/77 80/80/80 79/79/79
f 80/80/80 81/81/81 79/79/79
f 84/84/84 83/83/83 82/82/82
f 83/83/83 85/85/85 82/82/82
f 82/82/82 85/85/85 86/86/86
f 83/83/83 87/87/87 85/85/85
f 85/85/85 88/88/88 86/86/86
f 87/87/87 89/89/89 85/85/85
f 85/85/85 89/89/89 88/88/88
f 87/87/87 90/90/90 89/89/89
f 89/89/89 91/91/91 88/88/88
f 90/90/90 92/92/92 89/89/89
f 89/89/89 92/92/92 91/91/91
f 90/90/90 93/93/93 92/92/92
f 92/92/92 94/94/94 91/91/91
f 93/93/93 95/95/95 92/92/92
f 92/92/92 95/95/95 94/94/94
f 95/95/95 96/96/96 94/94/94
f 99/99/99 98/98/98 97/97/97
f 97/97/97 98/98/98 100/100/100
f 101/101/101 98/98/98 99/99/99
f 100/100/100 98/98/98 102/102/102
f 103/103/103 98/98/98 101/101/101
f 102/102/102 98/98/98 104/104/104
f 105/105/105 98/98/98 103/103/103
f 104/104/104 98/98/98 105/105/105
