g ore_06_COL
v 0.7278733 0.6923909 -0.5544678
v 0.50996816 1.2513967 -0.37261054
v -0.31925336 1.3550296 -0.50765723
v -0.5133684 0.6922898 -0.7542041
v 0.50996816 1.2513967 -0.37261054
v 0.4158553 1.2516093 0.4602309
v -0.38231617 1.3527722 0.40994233
v -0.31925336 1.3550296 -0.50765723
v 0.4158553 1.2516093 0.4602309
v 0.5873379 0.69246626 0.68802416
v -0.60400593 0.6912708 0.60790163
v -0.38231617 1.3527722 0.40994233
v 0.41753238 -1.1082482 0.4589789
v 0.5112312 -1.1080136 -0.37113494
v -0.31600747 -1.2340739 -0.50809467
v -0.37994406 -1.2312295 0.4112475
v -0.5133684 0.6922898 -0.7542041
v -0.31925336 1.3550296 -0.50765723
v -0.38231617 1.3527722 0.40994233
v -0.60400593 0.6912708 0.60790163
v 0.5873379 0.69246626 0.68802416
v 0.4158553 1.2516093 0.4602309
v 0.50996816 1.2513967 -0.37261054
v 0.7278733 0.6923909 -0.5544678
v 0.5112312 -1.1080136 -0.37113494
v 0.7278733 0.6923909 -0.5544678
v -0.5133684 0.6922898 -0.7542041
v -0.31600747 -1.2340739 -0.50809467
v -0.31600747 -1.2340739 -0.50809467
v -0.5133684 0.6922898 -0.7542041
v -0.60400593 0.6912708 0.60790163
v -0.37994406 -1.2312295 0.4112475
v 0.5873379 0.69246626 0.68802416
v 0.41753238 -1.1082482 0.4589789
v -0.37994406 -1.2312295 0.4112475
v -0.60400593 0.6912708 0.60790163
v 0.41753238 -1.1082482 0.4589789
v 0.5873379 0.69246626 0.68802416
v 0.7278733 0.6923909 -0.5544678
v 0.5112312 -1.1080136 -0.37113494
vt 0.375 0.135377
vt 0.375 0.25
vt 0.625 0.25
vt 0.625 0.135377
vt 0.375 0.25
vt 0.375 0.5
vt 0.625 0.5
vt 0.625 0.25
vt 0.375 0.5
vt 0.375 0.61462295
vt 0.625 0.61462295
vt 0.625 0.5
vt 0.375 0.75
vt 0.375 1
vt 0.625 1
vt 0.625 0.75
vt 0.625 0.135377
vt 0.625 0.25
vt 0.875 0.25
vt 0.875 0.13537699
vt 0.125 0.13537699
vt 0.125 0.25
vt 0.375 0.25
vt 0.375 0.135377
vt 0.375 0
vt 0.375 0.135377
vt 0.625 0.135377
vt 0.625 0
vt 0.625 0
vt 0.625 0.135377
vt 0.875 0.13537699
vt 0.875 0
vt 0.375 0.61462295
vt 0.375 0.75
vt 0.625 0.75
vt 0.625 0.61462295
vt 0.125 0
vt 0.125 0.13537699
vt 0.375 0.135377
vt 0.375 0
vn 0.16674417 0.3291535 -0.92943764
vn 0.16674417 0.3291535 -0.92943764
vn 0.16674417 0.3291535 -0.92943764
vn 0.16674416 0.3291535 -0.92943764
vn 0.123475716 0.992272 0.012246221
vn 0.123475716 0.992272 0.01224622
vn 0.123475716 0.992272 0.012246221
vn 0.12347572 0.992272 0.01224622
vn -0.045176778 0.33065507 0.94266975
vn -0.045176774 0.33065504 0.94266975
vn -0.045176778 0.33065507 0.94266975
vn -0.045176778 0.33065507 0.94266975
vn 0.14983313 -0.98859787 0.014975623
vn 0.14983311 -0.98859787 0.014975622
vn 0.1498331 -0.98859787 0.014975621
vn 0.14983311 -0.98859787 0.014975622
vn -0.9514639 0.30109254 -0.06371606
vn -0.9514639 0.30109254 -0.06371606
vn -0.9514639 0.30109257 -0.06371606
vn -0.9514639 0.30109257 -0.06371606
vn 0.93769634 0.33090025 0.10597504
vn 0.93769634 0.33090025 0.105975054
vn 0.93769634 0.33090025 0.10597505
vn 0.93769634 0.33090022 0.10597504
vn 0.16637148 -0.11372833 -0.97948265
vn 0.1663715 -0.113728315 -0.97948265
vn 0.1663715 -0.11372833 -0.97948265
vn 0.16637148 -0.113728315 -0.97948265
vn -0.9917247 -0.109448954 -0.06710439
vn -0.9917247 -0.109448954 -0.06710439
vn -0.9917247 -0.10944895 -0.06710439
vn -0.9917247 -0.109448954 -0.067104384
vn -0.05662953 -0.11422868 0.9918391
vn -0.05662953 -0.114228666 0.9918391
vn -0.05662953 -0.114228666 0.9918391
vn -0.05662953 -0.11422867 0.9918391
vn 0.9879241 -0.10743451 0.111641355
vn 0.9879241 -0.10743452 0.11164137
vn 0.9879241 -0.107434504 0.111641355
vn 0.9879241 -0.10743452 0.11164136
g ore_06_COL_0
f 3/3/3 2/2/2 1/1/1
f 4/4/4 3/3/3 1/1/1
f 7/7/7 6/6/6 5/5/5
f 8/8/8 7/7/7 5/5/5
f 11/11/11 10/10/10 9/9/9
f 12/12/12 11/11/11 9/9/9
f 15/15/15 14/14/14 13/13/13
f 16/16/16 15/15/15 13/13/13
f 19/19/19 18/18/18 17/17/17
f 20/20/20 19/19/19 17/17/17
f 23/23/23 22/22/22 21/21/21
f 24/24/24 23/23/23 21/21/21
f 27/27/27 26/26/26 25/25/25
f 28/28/28 27/27/27 25/25/25
f 31/31/31 30/30/30 29/29/29
f 32/32/32 31/31/31 29/29/29
f 35/35/35 34/34/34 33/33/33
f 36/36/36 35/35/35 33/33/33
f 39/39/39 38/38/38 37/37/37
f 40/40/40 39/39/39 37/37/37
