g ore_01_COL
v -2.6996224 2.390955 0.6404442
v -2.0361776 2.7282379 0.4191518
v -0.15668294 2.6076617 1.2457149
v 0.093406916 2.0994232 1.8719151
v -2.0361776 2.7282379 0.4191518
v -1.3399439 2.6554072 -1.223712
v 0.5014885 2.5388138 -0.5945163
v -0.15668294 2.6076617 1.2457149
v -1.3399439 2.6554072 -1.223712
v -1.6639616 2.2828078 -1.8026638
v 1.071243 1.9973135 -0.86300826
v 0.5014885 2.5388138 -0.5945163
v -1.4029927 1.7793847 -1.1841644
v -2.0762715 1.8495855 0.40489587
v -0.2779428 1.5712526 1.2027695
v 0.35882133 1.5048603 -0.57709956
v 0.093406916 2.0994232 1.8719151
v -0.15668294 2.6076617 1.2457149
v 0.5014885 2.5388138 -0.5945163
v 1.071243 1.9973135 -0.86300826
v -1.6639616 2.2828078 -1.8026638
v -1.3399439 2.6554072 -1.223712
v -2.0361776 2.7282379 0.4191518
v -2.6996224 2.390955 0.6404442
v -2.0762715 1.8495855 0.40489587
v -2.6996224 2.390955 0.6404442
v 0.093406916 2.0994232 1.8719151
v -0.2779428 1.5712526 1.2027695
v -0.2779428 1.5712526 1.2027695
v 0.093406916 2.0994232 1.8719151
v 1.071243 1.9973135 -0.86300826
v 0.35882133 1.5048603 -0.57709956
v -1.6639616 2.2828078 -1.8026638
v -1.4029927 1.7793847 -1.1841644
v 0.35882133 1.5048603 -0.57709956
v 1.071243 1.9973135 -0.86300826
v -1.4029927 1.7793847 -1.1841644
v -1.6639616 2.2828078 -1.8026638
v -2.6996224 2.390955 0.6404442
v -2.0762715 1.8495855 0.40489587
v -0.53322625 1.0108517 0.4575666
v -0.31716505 1.5375346 0.17254546
v 0.14335606 1.6089387 0.17284146
v 0.42268348 1.1567916 0.45814142
v -0.31716505 1.5375346 0.17254546
v -0.3116597 1.459707 -0.28655678
v 0.14789508 1.5306865 -0.2871438
v 0.14335606 1.6089387 0.17284146
v -0.3116597 1.459707 -0.28655678
v -0.52267325 0.85152644 -0.49626017
v 0.43195584 0.9972695 -0.49667376
v 0.14789508 1.5306865 -0.2871438
v -0.34727293 -0.021049777 -0.33579853
v -0.34743822 -0.020480923 0.32251853
v 0.31123593 -0.01955651 0.3228686
v 0.31121027 -0.020159556 -0.33601627
v 0.42268348 1.1567916 0.45814142
v 0.14335606 1.6089387 0.17284146
v 0.14789508 1.5306865 -0.2871438
v 0.43195584 0.9972695 -0.49667376
v -0.52267325 0.85152644 -0.49626017
v -0.3116597 1.459707 -0.28655678
v -0.31716505 1.5375346 0.17254546
v -0.53322625 1.0108517 0.4575666
v -0.34743822 -0.020480923 0.32251853
v -0.53322625 1.0108517 0.4575666
v 0.42268348 1.1567916 0.45814142
v 0.31123593 -0.01955651 0.3228686
v 0.31123593 -0.01955651 0.3228686
v 0.42268348 1.1567916 0.45814142
v 0.43195584 0.9972695 -0.49667376
v 0.31121027 -0.020159556 -0.33601627
v -0.52267325 0.85152644 -0.49626017
v -0.34727293 -0.021049777 -0.33579853
v 0.31121027 -0.020159556 -0.33601627
v 0.43195584 0.9972695 -0.49667376
v -0.34727293 -0.021049777 -0.33579853
v -0.52267325 0.85152644 -0.49626017
v -0.53322625 1.0108517 0.4575666
v -0.34743822 -0.020480923 0.32251853
v 1.0133488 4.6377525 0.8921585
v 1.2179631 5.450344 0.67692596
v 1.9966094 5.66767 0.34528446
v 2.1288748 4.7198796 0.388335
v 1.2179631 5.450344 0.67692596
v 0.8811666 5.416234 0.0021281391
v 1.5836425 5.626549 -0.377128
v 1.9966094 5.66767 0.34528446
v 0.8811666 5.416234 0.0021281391
v 0.51427144 4.589883 -0.10467099
v 1.5233666 4.6627765 -0.67291594
v 1.5836425 5.626549 -0.377128
v 0.6448822 3.6604486 -0.06250803
v 0.9744122 3.6928725 0.59148204
v 1.6739053 3.5578167 0.25580096
v 1.2774427 3.5188255 -0.44219542
v 2.1288748 4.7198796 0.388335
v 1.9966094 5.66767 0.34528446
v 1.5836425 5.626549 -0.377128
v 1.5233666 4.6627765 -0.67291594
v 0.51427144 4.589883 -0.10467099
v 0.8811666 5.416234 0.0021281391
v 1.2179631 5.450344 0.67692596
v 1.0133488 4.6377525 0.8921585
v 0.9744122 3.6928725 0.59148204
v 1.0133488 4.6377525 0.8921585
v 2.1288748 4.7198796 0.388335
v 1.6739053 3.5578167 0.25580096
v 1.6739053 3.5578167 0.25580096
v 2.1288748 4.7198796 0.388335
v 1.5233666 4.6627765 -0.67291594
v 1.2774427 3.5188255 -0.44219542
v 0.51427144 4.589883 -0.10467099
v 0.6448822 3.6604486 -0.06250803
v 1.2774427 3.5188255 -0.44219542
v 1.5233666 4.6627765 -0.67291594
v 0.6448822 3.6604486 -0.06250803
v 0.51427144 4.589883 -0.10467099
v 1.0133488 4.6377525 0.8921585
v 0.9744122 3.6928725 0.59148204
v 3.1596012 3.047493 -0.9683845
v 2.5369387 3.5502663 -0.69165075
v -0.48136067 3.5888605 -0.95874995
v -0.99248767 3.0477324 -1.334425
v 2.5369387 3.5502663 -0.69165075
v 2.1921184 3.5494928 0.93530023
v -0.69257164 3.589075 0.83277446
v -0.48136067 3.5888605 -0.95874995
v 2.1921184 3.5494928 0.93530023
v 2.684873 3.0477772 1.2716591
v -1.2822688 3.0476236 1.1304626
v -0.69257164 3.589075 0.83277446
v 2.1445155 2.6036468 0.9038956
v 2.4774456 2.6030302 -0.6671649
v -0.43138754 2.556778 -0.9246364
v -0.63554645 2.5566127 0.8054141
v -0.99248767 3.0477324 -1.334425
v -0.48136067 3.5888605 -0.95874995
v -0.69257164 3.589075 0.83277446
v -1.2822688 3.0476236 1.1304626
v 2.684873 3.0477772 1.2716591
v 2.1921184 3.5494928 0.93530023
v 2.5369387 3.5502663 -0.69165075
v 3.1596012 3.047493 -0.9683845
v 2.4774456 2.6030302 -0.6671649
v 3.1596012 3.047493 -0.9683845
v -0.99248767 3.0477324 -1.334425
v -0.43138754 2.556778 -0.9246364
v -0.43138754 2.556778 -0.9246364
v -0.99248767 3.0477324 -1.334425
v -1.2822688 3.0476236 1.1304626
v -0.63554645 2.5566127 0.8054141
v 2.684873 3.0477772 1.2716591
v 2.1445155 2.6036468 0.9038956
v -0.63554645 2.5566127 0.8054141
v -1.2822688 3.0476236 1.1304626
v 2.1445155 2.6036468 0.9038956
v 2.684873 3.0477772 1.2716591
v 3.1596012 3.047493 -0.9683845
v 2.4774456 2.6030302 -0.6671649
vt 0.375 0.135377
vt 0.375 0.25
vt 0.625 0.25
vt 0.625 0.135377
vt 0.375 0.25
vt 0.375 0.5
vt 0.625 0.5
vt 0.625 0.25
vt 0.375 0.5
vt 0.375 0.61462295
vt 0.625 0.61462295
vt 0.625 0.5
vt 0.375 0.75
vt 0.375 1
vt 0.625 1
vt 0.625 0.75
vt 0.625 0.135377
vt 0.625 0.25
vt 0.875 0.25
vt 0.875 0.13537699
vt 0.125 0.13537699
vt 0.125 0.25
vt 0.375 0.25
vt 0.375 0.135377
vt 0.375 0
vt 0.375 0.135377
vt 0.625 0.135377
vt 0.625 0
vt 0.625 0
vt 0.625 0.135377
vt 0.875 0.13537699
vt 0.875 0
vt 0.375 0.61462295
vt 0.375 0.75
vt 0.625 0.75
vt 0.625 0.61462295
vt 0.125 0
vt 0.125 0.13537699
vt 0.375 0.135377
vt 0.375 0
vt 0.375 0.14938974
vt 0.375 0.25
vt 0.625 0.25
vt 0.625 0.14938974
vt 0.375 0.25
vt 0.375 0.5
vt 0.625 0.5
vt 0.625 0.25
vt 0.375 0.5
vt 0.375 0.60061026
vt 0.625 0.60061026
vt 0.625 0.5
vt 0.375 0.75
vt 0.375 1
vt 0.625 1
vt 0.625 0.75
vt 0.625 0.14938974
vt 0.625 0.25
vt 0.875 0.25
vt 0.875 0.14938974
vt 0.125 0.14938974
vt 0.125 0.25
vt 0.375 0.25
vt 0.375 0.14938974
vt 0.375 0
vt 0.375 0.14938974
vt 0.625 0.14938974
vt 0.625 0
vt 0.625 0
vt 0.625 0.14938974
vt 0.875 0.14938974
vt 0.875 0
vt 0.375 0.60061026
vt 0.375 0.75
vt 0.625 0.75
vt 0.625 0.60061026
vt 0.125 0
vt 0.125 0.14938974
vt 0.375 0.14938974
vt 0.375 0
vt 0.375 0.135377
vt 0.375 0.25
vt 0.625 0.25
vt 0.625 0.135377
vt 0.375 0.25
vt 0.375 0.5
vt 0.625 0.5
vt 0.625 0.25
vt 0.375 0.5
vt 0.375 0.61462295
vt 0.625 0.61462295
vt 0.625 0.5
vt 0.375 0.75
vt 0.375 1
vt 0.625 1
vt 0.625 0.75
vt 0.625 0.135377
vt 0.625 0.25
vt 0.875 0.25
vt 0.875 0.13537699
vt 0.125 0.13537699
vt 0.125 0.25
vt 0.375 0.25
vt 0.375 0.135377
vt 0.375 0
vt 0.375 0.135377
vt 0.625 0.135377
vt 0.625 0
vt 0.625 0
vt 0.625 0.135377
vt 0.875 0.13537699
vt 0.875 0
vt 0.375 0.61462295
vt 0.375 0.75
vt 0.625 0.75
vt 0.625 0.61462295
vt 0.125 0
vt 0.125 0.13537699
vt 0.375 0.135377
vt 0.375 0
vt 0.375 0.135377
vt 0.375 0.25
vt 0.625 0.25
vt 0.625 0.135377
vt 0.375 0.25
vt 0.375 0.5
vt 0.625 0.5
vt 0.625 0.25
vt 0.375 0.5
vt 0.375 0.61462295
vt 0.625 0.61462295
vt 0.625 0.5
vt 0.375 0.75
vt 0.375 1
vt 0.625 1
vt 0.625 0.75
vt 0.625 0.135377
vt 0.625 0.25
vt 0.875 0.25
vt 0.875 0.13537699
vt 0.125 0.13537699
vt 0.125 0.25
vt 0.375 0.25
vt 0.375 0.135377
vt 0.375 0
vt 0.375 0.135377
vt 0.625 0.135377
vt 0.625 0
vt 0.625 0
vt 0.625 0.135377
vt 0.875 0.13537699
vt 0.875 0
vt 0.375 0.61462295
vt 0.375 0.75
vt 0.625 0.75
vt 0.625 0.61462295
vt 0.125 0
vt 0.125 0.13537699
vt 0.375 0.135377
vt 0.375 0
vn -0.2144608 0.74176836 0.63544184
vn -0.21446076 0.74176836 0.6354417
vn -0.21446075 0.74176836 0.6354417
vn -0.21446079 0.74176836 0.63544184
vn 0.06896436 0.9975242 -0.0137584
vn 0.068964355 0.9975242 -0.0137583995
vn 0.06896436 0.9975242 -0.0137584
vn 0.06896437 0.9975242 -0.0137584
vn 0.2878547 0.69155955 -0.662484
vn 0.28785467 0.69155955 -0.662484
vn 0.28785464 0.69155955 -0.6624839
vn 0.2878547 0.69155955 -0.66248393
vn -0.14687032 -0.98900944 -0.017012672
vn -0.14687033 -0.98900944 -0.017012672
vn -0.14687032 -0.98900944 -0.01701267
vn -0.14687032 -0.98900944 -0.017012672
vn 0.72549146 0.6467737 0.23525718
vn 0.72549146 0.64677376 0.2352572
vn 0.7254914 0.64677376 0.23525722
vn 0.72549146 0.6467737 0.2352572
vn -0.5037854 0.82681394 -0.25015786
vn -0.5037854 0.82681394 -0.2501579
vn -0.50378543 0.82681394 -0.2501579
vn -0.5037853 0.82681394 -0.25015786
vn -0.37355155 -0.64879733 0.662964
vn -0.37355155 -0.64879733 0.662964
vn -0.37355146 -0.64879733 0.662964
vn -0.37355152 -0.64879733 0.662964
vn 0.61614823 -0.74748534 0.24824761
vn 0.61614823 -0.7474854 0.24824764
vn 0.61614823 -0.7474854 0.24824765
vn 0.61614823 -0.74748534 0.24824761
vn 0.15216424 -0.7013787 -0.6963576
vn 0.15216422 -0.7013786 -0.69635767
vn 0.15216422 -0.7013786 -0.69635767
vn 0.15216422 -0.70137864 -0.6963576
vn -0.6874003 -0.6776198 -0.2613664
vn -0.6874003 -0.67761976 -0.26136643
vn -0.6874003 -0.67761976 -0.26136646
vn -0.6874003 -0.67761976 -0.26136643
vn -0.07698036 0.49822107 0.86362594
vn -0.07698037 0.498221 0.86362594
vn -0.076980375 0.49822107 0.86362594
vn -0.07698037 0.498221 0.86362594
vn -0.15083274 0.97433245 -0.16710994
vn -0.15083274 0.97433245 -0.1671099
vn -0.15083273 0.97433245 -0.16710994
vn -0.15083273 0.97433245 -0.1671099
vn -0.052960616 0.34125227 -0.9384786
vn -0.052960616 0.34125227 -0.9384786
vn -0.052960612 0.34125227 -0.9384786
vn -0.05296061 0.3412523 -0.9384786
vn 0.0013775994 -0.9999987 0.00088983716
vn 0.0013775993 -0.9999987 0.00088983716
vn 0.0013775993 -0.9999987 0.00088983716
vn 0.0013775993 -0.9999987 0.0008898371
vn 0.86822486 0.49062473 -0.07397963
vn 0.86822486 0.49062473 -0.07397963
vn 0.86822486 0.4906248 -0.07397964
vn 0.86822486 0.4906248 -0.07397962
vn -0.93519473 0.34736028 -0.06893142
vn -0.93519473 0.34736025 -0.06893143
vn -0.93519473 0.3473603 -0.06893143
vn -0.93519473 0.34736025 -0.06893142
vn 0.010454405 -0.12118444 0.99257493
vn 0.010454404 -0.12118444 0.99257493
vn 0.010454406 -0.12118444 0.99257493
vn 0.010454405 -0.121184446 0.99257493
vn 0.9943356 -0.10505559 0.016122177
vn 0.9943357 -0.10505559 0.016122177
vn 0.9943356 -0.10505559 0.016122177
vn 0.9943356 -0.10505559 0.016122177
vn 0.014800852 -0.16706902 -0.98583406
vn 0.014800852 -0.16706902 -0.9858342
vn 0.014800852 -0.16706899 -0.9858342
vn 0.014800852 -0.167069 -0.9858342
vn -0.98243606 -0.1862175 0.011937552
vn -0.98243606 -0.18621752 0.011937553
vn -0.98243606 -0.1862175 0.011937552
vn -0.98243606 -0.1862175 0.011937553
vn 0.38497907 0.118469305 0.9152902
vn 0.384979 0.11846929 0.9152902
vn 0.384979 0.11846932 0.9152902
vn 0.384979 0.118469305 0.9152902
vn -0.2419323 0.96717316 0.07774817
vn -0.24193233 0.96717316 0.07774818
vn -0.2419323 0.96717316 0.07774817
vn -0.24193233 0.96717316 0.07774819
vn -0.4994803 0.3018143 -0.8120514
vn -0.49948037 0.30181435 -0.8120514
vn -0.4994803 0.3018143 -0.8120514
vn -0.4994803 0.3018143 -0.8120515
vn -0.13678156 -0.9826377 0.1253548
vn -0.13678156 -0.9826377 0.12535478
vn -0.13678156 -0.9826377 0.1253548
vn -0.13678154 -0.9826377 0.1253548
vn 0.8618631 0.09823942 -0.49753508
vn 0.8618631 0.09823944 -0.49753508
vn 0.8618631 0.09823943 -0.49753508
vn 0.8618631 0.09823942 -0.49753508
vn -0.85232526 0.32435587 0.41028652
vn -0.85232526 0.32435584 0.41028652
vn -0.85232526 0.32435587 0.41028655
vn -0.85232526 0.32435587 0.4102865
vn 0.3972492 -0.27325535 0.87608486
vn 0.3972492 -0.27325532 0.87608486
vn 0.39724916 -0.2732553 0.87608486
vn 0.39724916 -0.27325532 0.87608486
vn 0.8416925 -0.27559572 -0.4643282
vn 0.84169257 -0.2755957 -0.4643281
vn 0.8416925 -0.27559572 -0.4643282
vn 0.8416925 -0.27559572 -0.4643282
vn -0.5008992 -0.08549631 -0.8612725
vn -0.5008992 -0.08549631 -0.8612726
vn -0.5008992 -0.08549631 -0.8612725
vn -0.5008993 -0.08549631 -0.8612725
vn -0.88668376 -0.10546036 0.45018893
vn -0.88668376 -0.10546036 0.45018893
vn -0.88668376 -0.10546037 0.45018893
vn -0.88668376 -0.10546036 0.45018893
vn 0.07721952 0.53431946 -0.84174806
vn 0.077219516 0.53431946 -0.84174806
vn 0.077219516 0.53431946 -0.84174806
vn 0.07721953 0.53431946 -0.8417482
vn 0.013098728 0.99991155 0.002293907
vn 0.013098728 0.99991155 0.0022939069
vn 0.013098727 0.99991155 0.0022939069
vn 0.013098728 0.99991155 0.0022939069
vn -0.027346164 0.5210547 0.85308516
vn -0.027346164 0.5210547 0.85308516
vn -0.02734616 0.5210546 0.85308516
vn -0.02734616 0.5210546 0.85308516
vn 0.016222045 -0.9998646 0.0027759634
vn 0.016222043 -0.9998646 0.0027759632
vn 0.016222043 -0.9998646 0.002775963
vn 0.016222045 -0.9998646 0.0027759634
vn -0.6958605 0.7134892 -0.081922494
vn -0.6958605 0.7134892 -0.081922494
vn -0.6958605 0.71348923 -0.081922494
vn -0.6958605 0.7134892 -0.081922494
vn 0.6585002 0.7395098 0.13965225
vn 0.6585002 0.7395099 0.13965227
vn 0.6585002 0.7395098 0.13965225
vn 0.65850025 0.73950976 0.13965227
vn 0.07367471 -0.6095134 -0.78934497
vn 0.07367471 -0.6095134 -0.78934497
vn 0.07367471 -0.60951334 -0.78934497
vn 0.073674716 -0.60951346 -0.78934497
vn -0.6259895 -0.7763354 -0.073758766
vn -0.6259895 -0.77633554 -0.073758766
vn -0.6259895 -0.7763354 -0.073758766
vn -0.62598956 -0.77633554 -0.07375877
vn -0.024312725 -0.5968993 0.8019478
vn -0.024312729 -0.5968993 0.8019478
vn -0.024312729 -0.5968993 0.8019477
vn -0.024312729 -0.5968993 0.8019478
vn 0.5791072 -0.80593204 0.1229163
vn 0.5791072 -0.80593204 0.12291629
vn 0.5791072 -0.80593204 0.1229163
vn 0.5791072 -0.80593204 0.1229163
g ore_01_COL_0
f 3/3/3 2/2/2 1/1/1
f 4/4/4 3/3/3 1/1/1
f 7/7/7 6/6/6 5/5/5
f 8/8/8 7/7/7 5/5/5
f 11/11/11 10/10/10 9/9/9
f 12/12/12 11/11/11 9/9/9
f 15/15/15 14/14/14 13/13/13
f 16/16/16 15/15/15 13/13/13
f 19/19/19 18/18/18 17/17/17
f 20/20/20 19/19/19 17/17/17
f 23/23/23 22/22/22 21/21/21
f 24/24/24 23/23/23 21/21/21
f 27/27/27 26/26/26 25/25/25
f 28/28/28 27/27/27 25/25/25
f 31/31/31 30/30/30 29/29/29
f 32/32/32 31/31/31 29/29/29
f 35/35/35 34/34/34 33/33/33
f 36/36/36 35/35/35 33/33/33
f 39/39/39 38/38/38 37/37/37
f 40/40/40 39/39/39 37/37/37
f 43/43/43 42/42/42 41/41/41
f 44/44/44 43/43/43 41/41/41
f 47/47/47 46/46/46 45/45/45
f 48/48/48 47/47/47 45/45/45
f 51/51/51 50/50/50 49/49/49
f 52/52/52 51/51/51 49/49/49
f 55/55/55 54/54/54 53/53/53
f 56/56/56 55/55/55 53/53/53
f 59/59/59 58/58/58 57/57/57
f 60/60/60 59/59/59 57/57/57
f 63/63/63 62/62/62 61/61/61
f 64/64/64 63/63/63 61/61/61
f 67/67/67 66/66/66 65/65/65
f 68/68/68 67/67/67 65/65/65
f 71/71/71 70/70/70 69/69/69
f 72/72/72 71/71/71 69/69/69
f 75/75/75 74/74/74 73/73/73
f 76/76/76 75/75/75 73/73/73
f 79/79/79 78/78/78 77/77/77
f 80/80/80 79/79/79 77/77/77
f 83/83/83 82/82/82 81/81/81
f 84/84/84 83/83/83 81/81/81
f 87/87/87 86/86/86 85/85/85
f 88/88/88 87/87/87 85/85/85
f 91/91/91 90/90/90 89/89/89
f 92/92/92 91/91/91 89/89/89
f 95/95/95 94/94/94 93/93/93
f 96/96/96 95/95/95 93/93/93
f 99/99/99 98/98/98 97/97/97
f 100/100/100 99/99/99 97/97/97
f 103/103/103 102/102/102 101/101/101
f 104/104/104 103/103/103 101/101/101
f 107/107/107 106/106/106 105/105/105
f 108/108/108 107/107/107 105/105/105
f 111/111/111 110/110/110 109/109/109
f 112/112/112 111/111/111 109/109/109
f 115/115/115 114/114/114 113/113/113
f 116/116/116 115/115/115 113/113/113
f 119/119/119 118/118/118 117/117/117
f 120/120/120 119/119/119 117/117/117
f 123/123/123 122/122/122 121/121/121
f 124/124/124 123/123/123 121/121/121
f 127/127/127 126/126/126 125/125/125
f 128/128/128 127/127/127 125/125/125
f 131/131/131 130/130/130 129/129/129
f 132/132/132 131/131/131 129/129/129
f 135/135/135 134/134/134 133/133/133
f 136/136/136 135/135/135 133/133/133
f 139/139/139 138/138/138 137/137/137
f 140/140/140 139/139/139 137/137/137
f 143/143/143 142/142/142 141/141/141
f 144/144/144 143/143/143 141/141/141
f 147/147/147 146/146/146 145/145/145
f 148/148/148 147/147/147 145/145/145
f 151/151/151 150/150/150 149/149/149
f 152/152/152 151/151/151 149/149/149
f 155/155/155 154/154/154 153/153/153
f 156/156/156 155/155/155 153/153/153
f 159/159/159 158/158/158 157/157/157
f 160/160/160 159/159/159 157/157/157
