g ore_03_COL
v -0.6880561 6.1018505 0.24261104
v -0.4801574 6.498351 0.16438393
v 0.13326105 6.5653214 0.43374014
v 0.23624362 6.101837 0.6457958
v -0.4801574 6.498351 0.16438393
v -0.2506072 6.497439 -0.3802144
v 0.35375586 6.564373 -0.17365584
v 0.13326105 6.5653214 0.43374014
v -0.2506072 6.497439 -0.3802144
v -0.34211743 6.1017847 -0.57539785
v 0.56489223 6.101777 -0.26287755
v 0.35375586 6.564373 -0.17365584
v -0.24655247 5.6472473 -0.37066805
v -0.4702356 5.646316 0.16027069
v 0.12649184 5.5660286 0.42306644
v 0.3420211 5.567033 -0.17025095
v 0.23624362 6.101837 0.6457958
v 0.13326105 6.5653214 0.43374014
v 0.35375586 6.564373 -0.17365584
v 0.56489223 6.101777 -0.26287755
v -0.34211743 6.1017847 -0.57539785
v -0.2506072 6.497439 -0.3802144
v -0.4801574 6.498351 0.16438393
v -0.6880561 6.1018505 0.24261104
v -0.4702356 5.646316 0.16027069
v -0.6880561 6.1018505 0.24261104
v 0.23624362 6.101837 0.6457958
v 0.12649184 5.5660286 0.42306644
v 0.12649184 5.5660286 0.42306644
v 0.23624362 6.101837 0.6457958
v 0.56489223 6.101777 -0.26287755
v 0.3420211 5.567033 -0.17025095
v -0.34211743 6.1017847 -0.57539785
v -0.24655247 5.6472473 -0.37066805
v 0.3420211 5.567033 -0.17025095
v 0.56489223 6.101777 -0.26287755
v -0.24655247 5.6472473 -0.37066805
v -0.34211743 6.1017847 -0.57539785
v -0.6880561 6.1018505 0.24261104
v -0.4702356 5.646316 0.16027069
v -0.6798163 0.5080213 0.6760267
v -0.26035377 1.0237888 0.2573584
v 0.41272 0.97225237 0.25755614
v 0.72015077 0.40135062 0.6750007
v -0.26035377 1.0237888 0.2573584
v -0.26866576 0.94011045 -0.4118492
v 0.40355727 0.88839644 -0.4123589
v 0.41272 0.97225237 0.25755614
v -0.26866576 0.94011045 -0.4118492
v -0.69716364 0.3345577 -0.7177402
v 0.7013389 0.2280938 -0.71665883
v 0.40355727 0.88839644 -0.4123589
v -0.550254 -0.08715887 -0.54447025
v -0.5523889 -0.080299124 0.5539199
v 0.5476136 -0.08435386 0.5521271
v 0.5447348 -0.09061009 -0.54345477
v 0.72015077 0.40135062 0.6750007
v 0.41272 0.97225237 0.25755614
v 0.40355727 0.88839644 -0.4123589
v 0.7013389 0.2280938 -0.71665883
v -0.69716364 0.3345577 -0.7177402
v -0.26866576 0.94011045 -0.4118492
v -0.26035377 1.0237888 0.2573584
v -0.6798163 0.5080213 0.6760267
v -0.5523889 -0.080299124 0.5539199
v -0.6798163 0.5080213 0.6760267
v 0.72015077 0.40135062 0.6750007
v 0.5476136 -0.08435386 0.5521271
v 0.5476136 -0.08435386 0.5521271
v 0.72015077 0.40135062 0.6750007
v 0.7013389 0.2280938 -0.71665883
v 0.5447348 -0.09061009 -0.54345477
v -0.69716364 0.3345577 -0.7177402
v -0.550254 -0.08715887 -0.54447025
v 0.5447348 -0.09061009 -0.54345477
v 0.7013389 0.2280938 -0.71665883
v -0.550254 -0.08715887 -0.54447025
v -0.69716364 0.3345577 -0.7177402
v -0.6798163 0.5080213 0.6760267
v -0.5523889 -0.080299124 0.5539199
v -0.017533422 1.5681906 0.6175787
v 0.19287974 1.846178 0.3777366
v 0.7656961 1.8120575 0.2335563
v 0.8389933 1.4431028 0.390518
v 0.19287974 1.846178 0.3777366
v 0.16331339 1.8380442 -0.26700976
v 0.70912766 1.822331 -0.467148
v 0.7656961 1.8120575 0.2335563
v 0.16331339 1.8380442 -0.26700976
v -0.052654564 1.5608048 -0.36665398
v 0.75959516 1.4421282 -0.66964626
v 0.70912766 1.822331 -0.467148
v 0.014400184 1.19978 -0.21624397
v 0.04038638 1.1907454 0.41766495
v 0.5756444 1.0699744 0.28230393
v 0.5170025 1.066864 -0.39608204
v 0.8389933 1.4431028 0.390518
v 0.7656961 1.8120575 0.2335563
v 0.70912766 1.822331 -0.467148
v 0.75959516 1.4421282 -0.66964626
v -0.052654564 1.5608048 -0.36665398
v 0.16331339 1.8380442 -0.26700976
v 0.19287974 1.846178 0.3777366
v -0.017533422 1.5681906 0.6175787
v 0.04038638 1.1907454 0.41766495
v -0.017533422 1.5681906 0.6175787
v 0.8389933 1.4431028 0.390518
v 0.5756444 1.0699744 0.28230393
v 0.5756444 1.0699744 0.28230393
v 0.8389933 1.4431028 0.390518
v 0.75959516 1.4421282 -0.66964626
v 0.5170025 1.066864 -0.39608204
v -0.052654564 1.5608048 -0.36665398
v 0.014400184 1.19978 -0.21624397
v 0.5170025 1.066864 -0.39608204
v 0.75959516 1.4421282 -0.66964626
v 0.014400184 1.19978 -0.21624397
v -0.052654564 1.5608048 -0.36665398
v -0.017533422 1.5681906 0.6175787
v 0.04038638 1.1907454 0.41766495
v 0.6543024 4.7576885 -0.9635482
v 0.14938238 5.514131 -0.64066166
v -1.3392761 5.461899 -0.8845842
v -1.536721 4.449411 -1.3264585
v 0.14938238 5.514131 -0.64066166
v -0.017971307 5.49078 0.8549764
v -1.4453173 5.4453044 0.7623944
v -1.3392761 5.461899 -0.8845842
v -0.017971307 5.49078 0.8549764
v 0.4051962 4.722743 1.2611011
v -1.6921902 4.426544 1.1196098
v -1.4453173 5.4453044 0.7623944
v 0.4720646 1.9348288 0.84034777
v 0.6362872 1.9581382 -0.6288134
v -0.77730316 1.5694407 -0.86947
v -0.8829988 1.5568568 0.75108606
v -1.536721 4.449411 -1.3264585
v -1.3392761 5.461899 -0.8845842
v -1.4453173 5.4453044 0.7623944
v -1.6921902 4.426544 1.1196098
v 0.4051962 4.722743 1.2611011
v -0.017971307 5.49078 0.8549764
v 0.14938238 5.514131 -0.64066166
v 0.6543024 4.7576885 -0.9635482
v 0.6362872 1.9581382 -0.6288134
v 0.6543024 4.7576885 -0.9635482
v -1.536721 4.449411 -1.3264585
v -0.77730316 1.5694407 -0.86947
v -0.77730316 1.5694407 -0.86947
v -1.536721 4.449411 -1.3264585
v -1.6921902 4.426544 1.1196098
v -0.8829988 1.5568568 0.75108606
v 0.4051962 4.722743 1.2611011
v 0.4720646 1.9348288 0.84034777
v -0.8829988 1.5568568 0.75108606
v -1.6921902 4.426544 1.1196098
v 0.4720646 1.9348288 0.84034777
v 0.4051962 4.722743 1.2611011
v 0.6543024 4.7576885 -0.9635482
v 0.6362872 1.9581382 -0.6288134
vt 0.375 0.135377
vt 0.375 0.25
vt 0.625 0.25
vt 0.625 0.135377
vt 0.375 0.25
vt 0.375 0.5
vt 0.625 0.5
vt 0.625 0.25
vt 0.375 0.5
vt 0.375 0.61462295
vt 0.625 0.61462295
vt 0.625 0.5
vt 0.375 0.75
vt 0.375 1
vt 0.625 1
vt 0.625 0.75
vt 0.625 0.135377
vt 0.625 0.25
vt 0.875 0.25
vt 0.875 0.13537699
vt 0.125 0.13537699
vt 0.125 0.25
vt 0.375 0.25
vt 0.375 0.135377
vt 0.375 0
vt 0.375 0.135377
vt 0.625 0.135377
vt 0.625 0
vt 0.625 0
vt 0.625 0.135377
vt 0.875 0.13537699
vt 0.875 0
vt 0.375 0.61462295
vt 0.375 0.75
vt 0.625 0.75
vt 0.625 0.61462295
vt 0.125 0
vt 0.125 0.13537699
vt 0.375 0.135377
vt 0.375 0
vt 0.375 0.14938974
vt 0.375 0.25
vt 0.625 0.25
vt 0.625 0.14938974
vt 0.375 0.25
vt 0.375 0.5
vt 0.625 0.5
vt 0.625 0.25
vt 0.375 0.5
vt 0.375 0.60061026
vt 0.625 0.60061026
vt 0.625 0.5
vt 0.375 0.75
vt 0.375 1
vt 0.625 1
vt 0.625 0.75
vt 0.625 0.14938974
vt 0.625 0.25
vt 0.875 0.25
vt 0.875 0.14938974
vt 0.125 0.14938974
vt 0.125 0.25
vt 0.375 0.25
vt 0.375 0.14938974
vt 0.375 0
vt 0.375 0.14938974
vt 0.625 0.14938974
vt 0.625 0
vt 0.625 0
vt 0.625 0.14938974
vt 0.875 0.14938974
vt 0.875 0
vt 0.375 0.60061026
vt 0.375 0.75
vt 0.625 0.75
vt 0.625 0.60061026
vt 0.125 0
vt 0.125 0.14938974
vt 0.375 0.14938974
vt 0.375 0
vt 0.375 0.135377
vt 0.375 0.25
vt 0.625 0.25
vt 0.625 0.135377
vt 0.375 0.25
vt 0.375 0.5
vt 0.625 0.5
vt 0.625 0.25
vt 0.375 0.5
vt 0.375 0.61462295
vt 0.625 0.61462295
vt 0.625 0.5
vt 0.375 0.75
vt 0.375 1
vt 0.625 1
vt 0.625 0.75
vt 0.625 0.135377
vt 0.625 0.25
vt 0.875 0.25
vt 0.875 0.13537699
vt 0.125 0.13537699
vt 0.125 0.25
vt 0.375 0.25
vt 0.375 0.135377
vt 0.375 0
vt 0.375 0.135377
vt 0.625 0.135377
vt 0.625 0
vt 0.625 0
vt 0.625 0.135377
vt 0.875 0.13537699
vt 0.875 0
vt 0.375 0.61462295
vt 0.375 0.75
vt 0.625 0.75
vt 0.625 0.61462295
vt 0.125 0
vt 0.125 0.13537699
vt 0.375 0.135377
vt 0.375 0
vt 0.375 0.135377
vt 0.375 0.25
vt 0.625 0.25
vt 0.625 0.135377
vt 0.375 0.25
vt 0.375 0.5
vt 0.625 0.5
vt 0.625 0.25
vt 0.375 0.5
vt 0.375 0.61462295
vt 0.625 0.61462295
vt 0.625 0.5
vt 0.375 0.75
vt 0.375 1
vt 0.625 1
vt 0.625 0.75
vt 0.625 0.135377
vt 0.625 0.25
vt 0.875 0.25
vt 0.875 0.13537699
vt 0.125 0.13537699
vt 0.125 0.25
vt 0.375 0.25
vt 0.375 0.135377
vt 0.375 0
vt 0.375 0.135377
vt 0.625 0.135377
vt 0.625 0
vt 0.625 0
vt 0.625 0.135377
vt 0.875 0.13537699
vt 0.875 0
vt 0.375 0.61462295
vt 0.375 0.75
vt 0.625 0.75
vt 0.625 0.61462295
vt 0.125 0
vt 0.125 0.13537699
vt 0.375 0.135377
vt 0.375 0
vn -0.38956732 0.33686265 0.85718197
vn -0.38956726 0.33686265 0.85718197
vn -0.38956732 0.33686265 0.85718197
vn -0.38956726 0.33686265 0.85718197
vn -0.094352335 0.9947954 -0.038466524
vn -0.094352335 0.9947954 -0.038466524
vn -0.09435234 0.9947954 -0.038466524
vn -0.094352335 0.9947954 -0.038466524
vn 0.29239666 0.33728638 -0.8948419
vn 0.29239666 0.33728638 -0.8948419
vn 0.29239666 0.33728635 -0.8948419
vn 0.29239663 0.33728635 -0.8948419
vn -0.115972504 -0.99213904 -0.047015022
vn -0.115972504 -0.99213904 -0.047015022
vn -0.115972504 -0.99213904 -0.047015022
vn -0.11597249 -0.99213904 -0.047015026
vn 0.8835598 0.34211564 0.31981078
vn 0.8835598 0.34211567 0.31981078
vn 0.8835598 0.34211564 0.31981075
vn 0.8835598 0.3421157 0.31981078
vn -0.8535579 0.37588182 -0.36076555
vn -0.8535579 0.3758818 -0.36076555
vn -0.8535579 0.3758818 -0.36076555
vn -0.8535579 0.3758818 -0.36076555
vn -0.39507797 -0.309266 0.86502486
vn -0.39507794 -0.30926594 0.86502486
vn -0.39507797 -0.30926594 0.86502486
vn -0.3950779 -0.30926594 0.86502486
vn 0.891962 -0.3163837 0.32296336
vn 0.8919619 -0.31638366 0.32296336
vn 0.8919619 -0.31638366 0.32296336
vn 0.8919619 -0.3163837 0.32296336
vn 0.29357418 -0.30962315 -0.90440464
vn 0.29357424 -0.30962318 -0.90440464
vn 0.2935742 -0.30962315 -0.90440464
vn 0.29357424 -0.30962315 -0.90440464
vn -0.8640389 -0.34663126 -0.3650803
vn -0.8640389 -0.34663126 -0.3650803
vn -0.8640389 -0.3466313 -0.3650803
vn -0.8640389 -0.34663126 -0.3650803
vn 0.046574667 0.6061263 0.79400355
vn 0.046574663 0.6061263 0.7940035
vn 0.046574667 0.6061263 0.79400355
vn 0.046574667 0.60612625 0.79400355
vn 0.07589752 0.98928016 -0.12475678
vn 0.07589752 0.98928016 -0.12475678
vn 0.07589752 0.98928016 -0.12475678
vn 0.07589752 0.98928016 -0.12475678
vn 0.033187326 0.43120062 -0.90164554
vn 0.033187322 0.43120065 -0.9016454
vn 0.03318733 0.43120065 -0.9016454
vn 0.03318733 0.43120065 -0.90164554
vn -0.0034173804 -0.9999763 0.005979216
vn -0.0034173804 -0.9999763 0.0059792157
vn -0.0034173806 -0.9999763 0.0059792157
vn -0.0034173804 -0.9999763 0.005979216
vn 0.8978561 0.43524328 -0.06646558
vn 0.8978561 0.43524325 -0.06646557
vn 0.8978561 0.43524328 -0.06646559
vn 0.8978561 0.43524322 -0.06646558
vn -0.7990629 0.59777004 -0.064570956
vn -0.7990629 0.59777 -0.06457095
vn -0.7990629 0.59777 -0.06457095
vn -0.7990629 0.59777004 -0.064570956
vn -0.008734398 -0.22202675 0.9750014
vn -0.008734397 -0.22202674 0.9750014
vn -0.008734397 -0.22202672 0.9750014
vn -0.008734396 -0.22202672 0.9750014
vn 0.92577046 -0.37759918 0.019179221
vn 0.92577046 -0.3775992 0.019179221
vn 0.92577046 -0.37759915 0.019179221
vn 0.92577046 -0.37759912 0.01917922
vn -0.017909886 -0.42357358 -0.90568465
vn -0.017909888 -0.42357358 -0.90568465
vn -0.017909884 -0.42357358 -0.90568465
vn -0.017909888 -0.42357358 -0.90568465
vn -0.9650574 -0.2608657 0.024766097
vn -0.9650574 -0.26086566 0.024766097
vn -0.9650574 -0.26086566 0.024766095
vn -0.9650574 -0.26086566 0.024766093
vn 0.27083677 0.46093822 0.8450937
vn 0.2708368 0.46093822 0.8450937
vn 0.27083674 0.46093822 0.8450937
vn 0.27083677 0.46093822 0.8450937
vn 0.04412498 0.9990252 -0.0012360974
vn 0.04412498 0.9990252 -0.0012360973
vn 0.044124983 0.9990252 -0.0012360974
vn 0.04412498 0.9990252 -0.0012360973
vn -0.26881486 0.45726395 -0.84773123
vn -0.26881486 0.45726395 -0.84773123
vn -0.26881486 0.45726395 -0.84773123
vn -0.26881486 0.45726395 -0.84773123
vn -0.23435394 -0.97209215 0.010724737
vn -0.23435393 -0.97209215 0.010724736
vn -0.23435396 -0.97209215 0.010724736
vn -0.23435393 -0.97209215 0.010724736
vn 0.9831024 0.1669741 -0.07502912
vn 0.9831024 0.16697408 -0.07502911
vn 0.9831024 0.16697408 -0.07502912
vn 0.9831024 0.16697407 -0.07502911
vn -0.7897366 0.61291486 0.025521379
vn -0.7897366 0.6129149 0.025521379
vn -0.7897366 0.6129149 0.02552138
vn -0.78973657 0.6129149 0.025521377
vn 0.16072612 -0.4121572 0.8968242
vn 0.16072612 -0.41215724 0.89682406
vn 0.16072612 -0.41215727 0.8968242
vn 0.16072612 -0.41215724 0.89682406
vn 0.8201675 -0.5685568 -0.06378498
vn 0.8201675 -0.5685568 -0.06378497
vn 0.82016754 -0.5685567 -0.06378497
vn 0.8201675 -0.5685568 -0.063784964
vn -0.38226596 -0.39098114 -0.8372613
vn -0.38226596 -0.39098117 -0.8372613
vn -0.382266 -0.39098123 -0.8372613
vn -0.38226599 -0.39098117 -0.8372613
vn -0.9848932 -0.16915952 0.03702104
vn -0.9848932 -0.16915953 0.03702104
vn -0.9848932 -0.16915953 0.03702104
vn -0.9848932 -0.16915955 0.03702104
vn 0.109101586 0.41037995 -0.90536463
vn 0.10910159 0.41037998 -0.90536463
vn 0.109101586 0.41038 -0.90536463
vn 0.109101586 0.41037998 -0.90536463
vn -0.034604248 0.99935406 0.009691849
vn -0.034604244 0.99935406 0.009691848
vn -0.03460424 0.99935406 0.009691848
vn -0.034604248 0.99935406 0.0096918475
vn -0.09810836 0.38276553 0.91862136
vn -0.09810836 0.38276553 0.91862136
vn -0.09810835 0.38276553 0.91862136
vn -0.09810835 0.38276553 0.91862136
vn 0.26552066 -0.9640305 0.011996666
vn 0.2655207 -0.9640305 0.011996665
vn 0.2655207 -0.9640305 0.011996666
vn 0.2655207 -0.9640305 0.011996666
vn -0.97460407 0.21569459 -0.060189303
vn -0.97460407 0.21569456 -0.060189296
vn -0.97460407 0.21569459 -0.0601893
vn -0.97460407 0.21569458 -0.060189303
vn 0.84711224 0.5213371 0.10299766
vn 0.84711224 0.52133703 0.10299765
vn 0.84711224 0.521337 0.10299765
vn 0.84711224 0.52133703 0.10299765
vn 0.18512088 -0.11193309 -0.97632027
vn 0.18512088 -0.11193309 -0.97632027
vn 0.1851209 -0.1119331 -0.97632027
vn 0.18512088 -0.11193309 -0.97632027
vn -0.96250606 -0.2635752 -0.06411132
vn -0.96250606 -0.26357517 -0.06411132
vn -0.96250606 -0.2635752 -0.064111315
vn -0.96250606 -0.26357517 -0.064111315
vn -0.038005587 -0.14383982 0.9888709
vn -0.038005587 -0.1438398 0.9888709
vn -0.03800559 -0.14383984 0.9888709
vn -0.038005587 -0.14383984 0.9888709
vn 0.99376124 0.0069752075 0.11130958
vn 0.99376124 0.0069752065 0.11130957
vn 0.99376124 0.006975207 0.11130958
vn 0.99376124 0.0069752075 0.11130959
g ore_03_COL_0
f 3/3/3 2/2/2 1/1/1
f 4/4/4 3/3/3 1/1/1
f 7/7/7 6/6/6 5/5/5
f 8/8/8 7/7/7 5/5/5
f 11/11/11 10/10/10 9/9/9
f 12/12/12 11/11/11 9/9/9
f 15/15/15 14/14/14 13/13/13
f 16/16/16 15/15/15 13/13/13
f 19/19/19 18/18/18 17/17/17
f 20/20/20 19/19/19 17/17/17
f 23/23/23 22/22/22 21/21/21
f 24/24/24 23/23/23 21/21/21
f 27/27/27 26/26/26 25/25/25
f 28/28/28 27/27/27 25/25/25
f 31/31/31 30/30/30 29/29/29
f 32/32/32 31/31/31 29/29/29
f 35/35/35 34/34/34 33/33/33
f 36/36/36 35/35/35 33/33/33
f 39/39/39 38/38/38 37/37/37
f 40/40/40 39/39/39 37/37/37
f 43/43/43 42/42/42 41/41/41
f 44/44/44 43/43/43 41/41/41
f 47/47/47 46/46/46 45/45/45
f 48/48/48 47/47/47 45/45/45
f 51/51/51 50/50/50 49/49/49
f 52/52/52 51/51/51 49/49/49
f 55/55/55 54/54/54 53/53/53
f 56/56/56 55/55/55 53/53/53
f 59/59/59 58/58/58 57/57/57
f 60/60/60 59/59/59 57/57/57
f 63/63/63 62/62/62 61/61/61
f 64/64/64 63/63/63 61/61/61
f 67/67/67 66/66/66 65/65/65
f 68/68/68 67/67/67 65/65/65
f 71/71/71 70/70/70 69/69/69
f 72/72/72 71/71/71 69/69/69
f 75/75/75 74/74/74 73/73/73
f 76/76/76 75/75/75 73/73/73
f 79/79/79 78/78/78 77/77/77
f 80/80/80 79/79/79 77/77/77
f 83/83/83 82/82/82 81/81/81
f 84/84/84 83/83/83 81/81/81
f 87/87/87 86/86/86 85/85/85
f 88/88/88 87/87/87 85/85/85
f 91/91/91 90/90/90 89/89/89
f 92/92/92 91/91/91 89/89/89
f 95/95/95 94/94/94 93/93/93
f 96/96/96 95/95/95 93/93/93
f 99/99/99 98/98/98 97/97/97
f 100/100/100 99/99/99 97/97/97
f 103/103/103 102/102/102 101/101/101
f 104/104/104 103/103/103 101/101/101
f 107/107/107 106/106/106 105/105/105
f 108/108/108 107/107/107 105/105/105
f 111/111/111 110/110/110 109/109/109
f 112/112/112 111/111/111 109/109/109
f 115/115/115 114/114/114 113/113/113
f 116/116/116 115/115/115 113/113/113
f 119/119/119 118/118/118 117/117/117
f 120/120/120 119/119/119 117/117/117
f 123/123/123 122/122/122 121/121/121
f 124/124/124 123/123/123 121/121/121
f 127/127/127 126/126/126 125/125/125
f 128/128/128 127/127/127 125/125/125
f 131/131/131 130/130/130 129/129/129
f 132/132/132 131/131/131 129/129/129
f 135/135/135 134/134/134 133/133/133
f 136/136/136 135/135/135 133/133/133
f 139/139/139 138/138/138 137/137/137
f 140/140/140 139/139/139 137/137/137
f 143/143/143 142/142/142 141/141/141
f 144/144/144 143/143/143 141/141/141
f 147/147/147 146/146/146 145/145/145
f 148/148/148 147/147/147 145/145/145
f 151/151/151 150/150/150 149/149/149
f 152/152/152 151/151/151 149/149/149
f 155/155/155 154/154/154 153/153/153
f 156/156/156 155/155/155 153/153/153
f 159/159/159 158/158/158 157/157/157
f 160/160/160 159/159/159 157/157/157
