g ranchUp_stairs01_COL
v -4.51333 -0.99980754 4.9087057
v 6.0987353 2.0001917 4.9087057
v 6.5488524 1.5913491 4.9086585
v 6.5488524 -0.9998082 4.909235
v -4.513286 -0.99999934 -4.912628
v 6.548894 -1 -4.912097
v 6.548894 1.5911576 -4.912668
v 6.098777 2 -4.912628
v 6.548894 -1 -4.912097
v 6.5488524 -0.9998082 4.909235
v 6.5488524 1.5913491 4.9086585
v 6.548894 1.5911576 -4.912668
v 6.548894 1.5911576 -4.912668
v 6.5488524 1.5913491 4.9086585
v 6.0987353 2.0001917 4.9087057
v 6.098777 2 -4.912628
v 6.098777 2 -4.912628
v 6.0987353 2.0001917 4.9087057
v -4.51333 -0.99980754 4.9087057
v -4.513286 -0.99999934 -4.912628
vt 0.375 0
vt 0.625 0.25
vt 0.625 0.21603175
vt 0.625 0
vt 0.375 0
vt 0.625 0
vt 0.625 0.21603175
vt 0.625 0.25
vt 0.625 0
vt 0.625 0
vt 0.625 0.21603175
vt 0.625 0.21603175
vt 0.625 0.21603175
vt 0.625 0.21603175
vt 0.625 0.25
vt 0.625 0.25
vt 0.625 0.25
vt 0.625 0.25
vt 0.375 0
vt 0.375 0
vn -3.565932E-05 0.00017102667 1
vn -3.565932E-05 0.0001710267 1
vn -3.5659323E-05 0.00017102668 1
vn -3.565932E-05 0.00017102668 1
vn 3.6516143E-05 -0.00017152035 -1
vn 3.6516143E-05 -0.00017152034 -1
vn 3.6516147E-05 -0.00017152037 -1
vn 3.6516143E-05 -0.00017152038 -1
vn 1 2.45593E-07 4.2258953E-06
vn 1 2.4559301E-07 4.2258953E-06
vn 1 2.45593E-07 4.2258953E-06
vn 1 2.4559296E-07 4.2258953E-06
vn 0.67235357 0.7402301 -1.1606382E-05
vn 0.67235357 0.74023014 -1.160638E-05
vn 0.67235357 0.7402301 -1.1606379E-05
vn 0.67235357 0.74023014 -1.160638E-05
vn -0.27203572 0.9622871 -1.9967807E-05
vn -0.27203578 0.9622871 -1.996781E-05
vn -0.27203575 0.9622871 -1.9967809E-05
vn -0.27203572 0.9622871 -1.9967809E-05
g ranchUp_stairs01_COL_0
f 3/3/3 2/2/2 1/1/1
f 4/4/4 3/3/3 1/1/1
f 7/7/7 6/6/6 5/5/5
f 8/8/8 7/7/7 5/5/5
f 11/11/11 10/10/10 9/9/9
f 12/12/12 11/11/11 9/9/9
f 15/15/15 14/14/14 13/13/13
f 16/16/16 15/15/15 13/13/13
f 19/19/19 18/18/18 17/17/17
f 20/20/20 19/19/19 17/17/17
