g rockBoulder01_COL
v 0.14744751 -0.5403223 1.2466336
v -0.785686 -1.0322665 0.61827534
v -0.5981494 -0.5267828 1.1768081
v -0.8337781 0.059640452 1.1251115
v 0.14744751 -0.5403223 1.2466336
v -0.5981494 -0.5267828 1.1768081
v -0.785686 -1.0322665 0.61827534
v -0.056348875 -0.96770895 0.85967034
v 0.23039916 -1.1703535 0.06471492
v 0.8823218 -0.8683383 0.23261006
v -0.02974243 0.7602238 1.0536547
v -1.17974 -0.029322654 0.09232828
v -1.0661206 0.3100984 0.45839772
v -0.56619626 1.0045727 0.04760663
v 0.9318396 0.0020763683 1.0284623
v 1.17974 -0.43798697 0.57616216
v 0.56481075 1.1008191 0.45007202
v 1.1483008 0.54142666 0.057464227
v 1.0570788 -0.5334588 -0.29272214
v 0.5296948 -0.9616029 -0.59098876
v 0.2996289 1.1703535 -0.31246364
v -0.46453002 -1.069784 -0.71289223
v -0.97940916 -0.75143194 -0.21581767
v -0.78677 0.16769299 -0.69902897
v -0.023801269 -1.0668286 -0.8600342
v 0.657843 -0.3448525 -1.0814198
v 0.09230224 -0.32137176 -1.2466336
v -0.16684082 0.8479726 -0.9470008
v 0.60588133 0.6843355 -0.89050853
v 0.9893274 0.38052818 -0.6438006
vt 0 0
vt 0 0
vt 0 0
vt 0 0
vt 0 0
vt 0 0
vt 0 0
vt 0 0
vt 0 0
vt 0 0
vt 0 0
vt 0 0
vt 0 0
vt 0 0
vt 0 0
vt 0 0
vt 0 0
vt 0 0
vt 0 0
vt 0 0
vt 0 0
vt 0 0
vt 0 0
vt 0 0
vt 0 0
vt 0 0
vt 0 0
vt 0 0
vt 0 0
vt 0 0
vn -0.07716361 -0.7262022 0.683137
vn -0.07716361 -0.7262022 0.683137
vn -0.07716361 -0.7262022 0.68313694
vn -0.63229924 0.19299978 0.7502991
vn 0.18120359 -0.36720723 0.912318
vn -0.38839087 -0.35949153 0.84848005
vn -0.57071435 -0.7467187 0.34160855
vn 0.08790372 -0.8182347 0.56812406
vn 0.1834923 -0.98035896 0.07229697
vn 0.60710067 -0.7794008 0.15480016
vn -0.081799075 0.6305928 0.7717912
vn -0.99393094 0.0741023 -0.08130253
vn -0.8756279 0.42361346 0.23200737
vn -0.5685111 0.8225161 0.016200317
vn 0.63781565 0.09410231 0.7644187
vn 0.8716018 -0.35140073 0.34180075
vn 0.38299146 0.8642807 0.3260927
vn 0.90789485 0.4191976 0.0005999966
vn 0.88484997 -0.3695209 -0.283716
vn 0.50731 -0.7751152 -0.37660736
vn 0.18849981 0.95779896 -0.21699975
vn -0.45971277 -0.7211201 -0.5183145
vn -0.8592259 -0.43011296 -0.27700838
vn -0.7622865 0.1864967 -0.61978894
vn 0.039699484 -0.7914896 -0.609892
vn 0.56650835 -0.21240315 -0.7962117
vn -0.09459818 -0.11729774 -0.988581
vn -0.2867016 0.6191034 -0.7311041
vn 0.4670141 0.53751624 -0.70212114
vn 0.8445701 0.2617907 -0.46708348
g rockBoulder01_COL_0
f 3/3/3 2/2/2 1/1/1
f 6/6/6 5/5/5 4/4/4
f 7/7/7 6/6/6 4/4/4
f 8/8/8 5/5/5 7/7/7
f 7/7/7 9/9/9 8/8/8
f 5/5/5 8/8/8 10/10/10
f 10/10/10 8/8/8 9/9/9
f 5/5/5 11/11/11 4/4/4
f 7/7/7 4/4/4 12/12/12
f 11/11/11 13/13/13 4/4/4
f 13/13/13 12/12/12 4/4/4
f 13/13/13 11/11/11 14/14/14
f 12/12/12 13/13/13 14/14/14
f 5/5/5 15/15/15 11/11/11
f 10/10/10 16/16/16 5/5/5
f 5/5/5 16/16/16 15/15/15
f 15/15/15 17/17/17 11/11/11
f 17/17/17 14/14/14 11/11/11
f 16/16/16 18/18/18 15/15/15
f 18/18/18 17/17/17 15/15/15
f 19/19/19 16/16/16 10/10/10
f 19/19/19 18/18/18 16/16/16
f 9/9/9 20/20/20 10/10/10
f 20/20/20 19/19/19 10/10/10
f 17/17/17 21/21/21 14/14/14
f 17/17/17 18/18/18 21/21/21
f 9/9/9 7/7/7 22/22/22
f 12/12/12 23/23/23 7/7/7
f 23/23/23 22/22/22 7/7/7
f 24/24/24 23/23/23 12/12/12
f 12/12/12 14/14/14 24/24/24
f 23/23/23 24/24/24 22/22/22
f 25/25/25 20/20/20 9/9/9
f 22/22/22 25/25/25 9/9/9
f 26/26/26 19/19/19 20/20/20
f 20/20/20 25/25/25 26/26/26
f 25/25/25 22/22/22 27/27/27
f 24/24/24 27/27/27 22/22/22
f 27/27/27 26/26/26 25/25/25
f 14/14/14 28/28/28 24/24/24
f 28/28/28 14/14/14 21/21/21
f 28/28/28 27/27/27 24/24/24
f 29/29/29 28/28/28 21/21/21
f 28/28/28 29/29/29 27/27/27
f 27/27/27 29/29/29 26/26/26
f 21/21/21 18/18/18 29/29/29
f 30/30/30 19/19/19 26/26/26
f 30/30/30 26/26/26 29/29/29
f 18/18/18 30/30/30 29/29/29
f 18/18/18 19/19/19 30/30/30
