g rockStairs01_COL
v -0 -1.8049303 1.7557324
v 2.4695325 -1.3894737 2.5007055
v 2.4695325 -1.8049303 1.7557324
v -0 -1.3894737 2.5007055
v -2.4695325 -1.8049303 1.7557324
v 2.4695325 -0.59470123 2.2202806
v -2.4695325 -1.3894737 2.5007055
v -0 -0.59470123 2.2202806
v -2.4695325 -0.59470123 2.2202806
v -0 -0.59470123 2.2202806
v 2.4695325 1.6645843 -1.3367529
v 2.4695325 -0.59470123 2.2202806
v -0 1.6645843 -1.3367529
v -2.4695325 -0.59470123 2.2202806
v 2.4695325 1.6645843 -2.326765
v -2.4695325 1.6645843 -1.3367529
v -0 1.6645843 -2.326765
v -2.4695325 1.6645843 -2.326765
v -0 1.6645843 -2.326765
v 2.4695325 1.161685 -2.326765
v 2.4695325 1.6645843 -2.326765
v -0 1.161685 -2.326765
v -2.4695325 1.6645843 -2.326765
v 2.4695325 0.42423385 -2.326765
v -2.4695325 1.161685 -2.326765
v -0 0.42423385 -2.326765
v -2.4695325 0.42423385 -2.326765
v -0 0.42423385 -2.326765
v 2.4695325 -0.40711245 -1.3367529
v 2.4695325 0.42423385 -2.326765
v -0 -0.40711245 -1.3367529
v -2.4695325 0.42423385 -2.326765
v 2.4695325 -1.8049303 1.7557324
v -2.4695325 -0.40711245 -1.3367529
v -0 -1.8049303 1.7557324
v -2.4695325 -1.8049303 1.7557324
v 2.4695325 -0.40711245 -1.3367529
v 2.4695325 1.161685 -2.326765
v 2.4695325 0.42423385 -2.326765
v 2.4695325 0.7523007 -1.3367529
v 2.4695325 -1.8049303 1.7557324
v 2.4695325 1.6645843 -2.326765
v 2.4695325 -1.3894737 2.5007055
v 2.4695325 1.6645843 -1.3367529
v 2.4695325 -0.59470123 2.2202806
v -2.4695325 -0.40711245 -1.3367529
v -2.4695325 -1.3894737 2.5007055
v -2.4695325 -1.8049303 1.7557324
v -2.4695325 0.7523007 -1.3367529
v -2.4695325 0.42423385 -2.326765
v -2.4695325 -0.59470123 2.2202806
v -2.4695325 1.161685 -2.326765
v -2.4695325 1.6645843 -1.3367529
v -2.4695325 1.6645843 -2.326765
vt 0.5 0
vt 0.625 0.125
vt 0.625 0
vt 0.5 0.125
vt 0.375 0
vt 0.625 0.25
vt 0.375 0.125
vt 0.5 0.25
vt 0.375 0.25
vt 0.5 0.25
vt 0.625 0.375
vt 0.625 0.25
vt 0.5 0.375
vt 0.375 0.25
vt 0.625 0.5
vt 0.375 0.375
vt 0.5 0.5
vt 0.375 0.5
vt 0.5 0.5
vt 0.625 0.625
vt 0.625 0.5
vt 0.5 0.625
vt 0.375 0.5
vt 0.625 0.75
vt 0.375 0.625
vt 0.5 0.75
vt 0.375 0.75
vt 0.5 0.75
vt 0.625 0.875
vt 0.625 0.75
vt 0.5 0.875
vt 0.375 0.75
vt 0.625 1
vt 0.375 0.875
vt 0.5 1
vt 0.375 1
vt 0.75 0
vt 0.875 0.125
vt 0.875 0
vt 0.75 0.125
vt 0.625 0
vt 0.875 0.25
vt 0.625 0.125
vt 0.75 0.25
vt 0.625 0.25
vt 0.25 0
vt 0.375 0.125
vt 0.375 0
vt 0.25 0.125
vt 0.125 0
vt 0.375 0.25
vt 0.125 0.125
vt 0.25 0.25
vt 0.125 0.25
vn -0 -0.8733684 0.48706025
vn -0 -0.35835767 0.93358445
vn -0 -0.8733684 0.48706034
vn -0 -0.35835776 0.93358433
vn -0 -0.8733684 0.48706025
vn -0 0.33273238 0.9430213
vn -0 -0.3583578 0.93358433
vn -0 0.33273238 0.9430213
vn -0 0.33273238 0.9430213
vn -0 0.84412146 0.5361521
vn -0 0.895546 0.44496888
vn -0 0.84412134 0.53615206
vn -0 0.895546 0.44496888
vn -0 0.84412134 0.5361521
vn -0 1 0
vn -0 0.895546 0.44496888
vn -0 1 0
vn -0 1 0
vn -0 0 -1
vn -0 0 -1
vn -0 0 -1
vn -0 0 -1
vn -0 0 -1
vn -0 0 -1
vn -0 0 -1
vn -0 0 -1
vn -0 0 -1
vn -0 -0.7658054 -0.6430724
vn -0 -0.87768334 -0.47924104
vn -0 -0.76580536 -0.6430724
vn -0 -0.87768334 -0.47924104
vn -0 -0.7658054 -0.6430723
vn -0 -0.9112366 -0.41188326
vn -0 -0.87768334 -0.479241
vn -0 -0.9112366 -0.41188326
vn -0 -0.9112366 -0.41188332
vn 1 2.0569209E-07 0
vn 1 0 0
vn 1 0 0
vn 1 -1.652604E-07 0
vn 1 2.3061583E-07 0
vn 1 0 0
vn 1 0 0
vn 1 -3.4681355E-07 0
vn 1 -4.801947E-07 0
vn -1 0 0
vn -1 1.02538614E-07 0
vn -1 0 0
vn -1 1.3332655E-07 0
vn -1 0 0
vn -1 2.7439674E-07 0
vn -1 0 0
vn -1 1.9817897E-07 0
vn -1 0 0
g rockStairs01_COL_0
f 3/3/3 2/2/2 1/1/1
f 2/2/2 4/4/4 1/1/1
f 1/1/1 4/4/4 5/5/5
f 2/2/2 6/6/6 4/4/4
f 4/4/4 7/7/7 5/5/5
f 6/6/6 8/8/8 4/4/4
f 4/4/4 8/8/8 7/7/7
f 8/8/8 9/9/9 7/7/7
f 12/12/12 11/11/11 10/10/10
f 11/11/11 13/13/13 10/10/10
f 10/10/10 13/13/13 14/14/14
f 11/11/11 15/15/15 13/13/13
f 13/13/13 16/16/16 14/14/14
f 15/15/15 17/17/17 13/13/13
f 13/13/13 17/17/17 16/16/16
f 17/17/17 18/18/18 16/16/16
f 21/21/21 20/20/20 19/19/19
f 20/20/20 22/22/22 19/19/19
f 19/19/19 22/22/22 23/23/23
f 20/20/20 24/24/24 22/22/22
f 22/22/22 25/25/25 23/23/23
f 24/24/24 26/26/26 22/22/22
f 22/22/22 26/26/26 25/25/25
f 26/26/26 27/27/27 25/25/25
f 30/30/30 29/29/29 28/28/28
f 29/29/29 31/31/31 28/28/28
f 28/28/28 31/31/31 32/32/32
f 29/29/29 33/33/33 31/31/31
f 31/31/31 34/34/34 32/32/32
f 33/33/33 35/35/35 31/31/31
f 31/31/31 35/35/35 34/34/34
f 35/35/35 36/36/36 34/34/34
f 39/39/39 38/38/38 37/37/37
f 38/38/38 40/40/40 37/37/37
f 37/37/37 40/40/40 41/41/41
f 38/38/38 42/42/42 40/40/40
f 40/40/40 43/43/43 41/41/41
f 42/42/42 44/44/44 40/40/40
f 40/40/40 44/44/44 43/43/43
f 44/44/44 45/45/45 43/43/43
f 48/48/48 47/47/47 46/46/46
f 47/47/47 49/49/49 46/46/46
f 46/46/46 49/49/49 50/50/50
f 47/47/47 51/51/51 49/49/49
f 49/49/49 52/52/52 50/50/50
f 51/51/51 53/53/53 49/49/49
f 49/49/49 53/53/53 52/52/52
f 53/53/53 54/54/54 52/52/52
