g ruinArc04_COL
v 3.8670526 1.2564816 -0.5766717
v 4.0660596 0 0.5766717
v 4.0660596 0 -0.5766717
v 3.8670526 1.2564816 0.5766717
v 6.776766 0 0.5766717
v 3.2895117 2.3899698 -0.5766717
v 6.4450865 2.0941358 0.5766717
v 6.776766 0 -0.5766717
v 3.2895117 2.3899698 0.5766717
v 5.4825187 3.9832833 0.5766717
v 6.4450865 2.0941358 -0.5766717
v 4.0660596 0 -0.5766717
v 3.8670526 1.2564816 -0.5766717
v 2.9097528 2.8055322 0.5766717
v 2.9097528 2.8055322 -0.5766717
v 3.145448 4.0553055 0.5766717
v 4.2216372 5.179719 0.57667166
v 4.2216372 5.179719 -0.57667166
v 5.4825187 3.9832833 -0.5766717
v 3.2895117 2.3899698 -0.5766717
v 3.1454482 4.0553055 -0.5766717
v 2.9097528 2.8055322 -0.5766717
v 6.776766 0 0.5766717
v 6.776766 0 -0.5766717
v 4.0660596 0 -0.5766717
v 4.0660596 0 0.5766717
v 3.1454482 4.0553055 -0.5766717
v 3.145448 4.0553055 0.5766717
v 2.9097528 2.8055322 0.5766717
v 2.9097528 2.8055322 -0.5766717
v 3.145448 4.0553055 0.5766717
v 3.1454482 4.0553055 -0.5766717
v 4.2216372 5.179719 -0.57667166
v 4.2216372 5.179719 0.57667166
vt 0.3 1
vt 0.25 0.75
vt 0.25 1
vt 0.3 0.75
vt 0.25 0.5
vt 0.35000002 1
vt 0.3 0.5
vt 0.25 0.25
vt 0.35000002 0.75
vt 0.35000002 0.5
vt 0.3 0.25
vt 0.25 0
vt 0.3 0
vt 0.36832237 0.75
vt 0.36832237 1
vt 0.39260525 0.6467179
vt 0.3846477 0.5
vt 0.3846477 0.25
vt 0.35000002 0.25
vt 0.35000002 0
vt 0.39260525 0.10328208
vt 0.36832237 0
vt 0 1
vt 0 0
vt 0.39999998 0
vt 0.39999998 1
vt 0 0
vt 4.4469346E-08 0.90685606
vt 1 0.90685606
vt 1 0
vt 0 0
vt 1.7189758E-07 0.74101627
vt 0.99999994 0.74101615
vt 0.9999999 9.1303885E-17
vn -0.2649752 -0.08609562 -0.960404
vn -0.23411228 -0.54214853 0.8070108
vn -0.23411228 -0.54214853 -0.8070108
vn -0.2649752 -0.08609562 0.960404
vn 0.44047338 -0.50039643 0.7453768
vn -0.23279864 -0.14386754 -0.96182483
vn 0.48384932 0.15721214 0.86091477
vn 0.44047338 -0.50039643 -0.7453768
vn -0.23279864 -0.14386754 0.96182483
vn 0.49758843 0.3585587 0.78983635
vn 0.48384932 0.15721214 -0.86091477
vn -0.23411228 -0.54214853 -0.8070108
vn -0.2649752 -0.08609562 -0.960404
vn -0.521261 -0.04509283 0.85220516
vn -0.5212608 -0.04509282 -0.8522052
vn -0.61486983 0.33975348 0.71169
vn 0.02751806 0.8929379 0.4493379
vn 0.027518043 0.8929379 -0.4493379
vn 0.49758843 0.35855874 -0.7898363
vn -0.23279864 -0.14386754 -0.96182483
vn -0.6148697 0.33975342 -0.7116902
vn -0.5212608 -0.04509282 -0.8522052
vn 0.44047338 -0.50039643 0.7453768
vn 0.44047338 -0.50039643 -0.7453768
vn -0.23411228 -0.54214853 -0.8070108
vn -0.23411228 -0.54214853 0.8070108
vn -0.6148697 0.33975342 -0.7116902
vn -0.61486983 0.33975348 0.71169
vn -0.521261 -0.04509283 0.85220516
vn -0.5212608 -0.04509282 -0.8522052
vn -0.61486983 0.33975348 0.71169
vn -0.6148697 0.33975342 -0.7116902
vn 0.027518043 0.8929379 -0.4493379
vn 0.02751806 0.8929379 0.4493379
g ruinArc04_COL_0
f 3/3/3 2/2/2 1/1/1
f 2/2/2 4/4/4 1/1/1
f 2/2/2 5/5/5 4/4/4
f 1/1/1 4/4/4 6/6/6
f 5/5/5 7/7/7 4/4/4
f 5/5/5 8/8/8 7/7/7
f 4/4/4 9/9/9 6/6/6
f 4/4/4 7/7/7 9/9/9
f 7/7/7 10/10/10 9/9/9
f 8/8/8 11/11/11 7/7/7
f 7/7/7 11/11/11 10/10/10
f 8/8/8 12/12/12 11/11/11
f 12/12/12 13/13/13 11/11/11
f 6/6/6 9/9/9 14/14/14
f 14/14/14 9/9/9 10/10/10
f 15/15/15 6/6/6 14/14/14
f 16/16/16 14/14/14 10/10/10
f 16/16/16 10/10/10 17/17/17
f 17/17/17 10/10/10 18/18/18
f 11/11/11 19/19/19 10/10/10
f 11/11/11 13/13/13 19/19/19
f 10/10/10 19/19/19 18/18/18
f 13/13/13 20/20/20 19/19/19
f 18/18/18 19/19/19 21/21/21
f 19/19/19 20/20/20 21/21/21
f 20/20/20 22/22/22 21/21/21
f 25/25/25 24/24/24 23/23/23
f 26/26/26 25/25/25 23/23/23
f 29/29/29 28/28/28 27/27/27
f 30/30/30 29/29/29 27/27/27
f 33/33/33 32/32/32 31/31/31
f 34/34/34 33/33/33 31/31/31
