g Support_Wooden_Tall_COL
v -9.40396E-40 -3.8146972E-08 0
v 4.9303807E-32 2 0
v 0.16 2 0
v 0.16 -3.8146972E-08 0
v 4.9303807E-32 2 0
v 1.8636695E-17 2 -0.15218017
v 0.16 2 -0.15218017
v 0.16 2 0
v 1.8636695E-17 2 -0.15218017
v 1.8636695E-17 -3.8146972E-08 -0.15218017
v 0.16 -3.8146972E-08 -0.15218017
v 0.16 2 -0.15218017
v 1.8636695E-17 -3.8146972E-08 -0.15218017
v -9.40396E-40 -3.8146972E-08 0
v 0.16 -3.8146972E-08 0
v 0.16 -3.8146972E-08 -0.15218017
v 0.16 -3.8146972E-08 0
v 0.16 2 0
v 0.16 2 -0.15218017
v 0.16 -3.8146972E-08 -0.15218017
v 1.8636695E-17 -3.8146972E-08 -0.15218017
v 1.8636695E-17 2 -0.15218017
v 4.9303807E-32 2 0
v -9.40396E-40 -3.8146972E-08 0
v 0.032782134 1.6155065 8.9874266E-05
v 0.032782134 1.7676867 -0.0011856079
v 0.032782134 2 0.30363464
v 0.032782134 2 0.45736036
v 0.032782134 1.7676867 -0.0011856079
v 0.13271087 1.7676867 -0.0011856079
v 0.13271087 2 0.30363464
v 0.032782134 2 0.30363464
v 0.13271087 1.7676867 -0.0011856079
v 0.13271087 1.6155065 8.9874266E-05
v 0.13271087 2 0.45736036
v 0.13271087 2 0.30363464
v 0.13271087 1.6155065 8.9874266E-05
v 0.032782134 1.6155065 8.9874266E-05
v 0.032782134 2 0.45736036
v 0.13271087 2 0.45736036
v 0.032782134 2 0.45736036
v 0.032782134 2 0.30363464
v 0.13271087 2 0.30363464
v 0.13271087 2 0.45736036
v 0.13271087 1.6155065 8.9874266E-05
v 0.13271087 1.7676867 -0.0011856079
v 0.032782134 1.7676867 -0.0011856079
v 0.032782134 1.6155065 8.9874266E-05
v 0.14081879 1.5629065 -0.15765609
v 0.14081879 1.7276968 -0.15765609
v 0.13491912 2 -0.4610359
v 0.13491912 2 -0.6230723
v 0.14081879 1.7276968 -0.15765609
v 0.040890045 1.7276968 -0.15765609
v 0.034990385 2 -0.4610359
v 0.13491912 2 -0.4610359
v 0.040890045 1.7276968 -0.15765609
v 0.040890045 1.5629065 -0.15765609
v 0.034990385 2 -0.6230723
v 0.034990385 2 -0.4610359
v 0.040890045 1.5629065 -0.15765609
v 0.14081879 1.5629065 -0.15765609
v 0.13491912 2 -0.6230723
v 0.034990385 2 -0.6230723
v 0.13491912 2 -0.6230723
v 0.13491912 2 -0.4610359
v 0.034990385 2 -0.4610359
v 0.034990385 2 -0.6230723
v 0.040890045 1.5629065 -0.15765609
v 0.040890045 1.7276968 -0.15765609
v 0.14081879 1.7276968 -0.15765609
v 0.14081879 1.5629065 -0.15765609
vt 0.375 0
vt 0.375 0.25
vt 0.625 0.25
vt 0.625 0
vt 0.375 0.25
vt 0.375 0.5
vt 0.625 0.5
vt 0.625 0.25
vt 0.375 0.5
vt 0.375 0.75
vt 0.625 0.75
vt 0.625 0.5
vt 0.375 0.75
vt 0.375 1
vt 0.625 1
vt 0.625 0.75
vt 0.625 0
vt 0.625 0.25
vt 0.875 0.25
vt 0.875 0
vt 0.125 0
vt 0.125 0.25
vt 0.375 0.25
vt 0.375 0
vt 0.375 0
vt 0.375 0.25
vt 0.625 0.25
vt 0.625 0
vt 0.375 0.25
vt 0.375 0.5
vt 0.625 0.5
vt 0.625 0.25
vt 0.375 0.5
vt 0.375 0.75
vt 0.625 0.75
vt 0.625 0.5
vt 0.375 0.75
vt 0.375 1
vt 0.625 1
vt 0.625 0.75
vt 0.625 0
vt 0.625 0.25
vt 0.875 0.25
vt 0.875 0
vt 0.125 0
vt 0.125 0.25
vt 0.375 0.25
vt 0.375 0
vt 0.375 0
vt 0.375 0.25
vt 0.625 0.25
vt 0.625 0
vt 0.375 0.25
vt 0.375 0.5
vt 0.625 0.5
vt 0.625 0.25
vt 0.375 0.5
vt 0.375 0.75
vt 0.625 0.75
vt 0.625 0.5
vt 0.375 0.75
vt 0.375 1
vt 0.625 1
vt 0.625 0.75
vt 0.625 0
vt 0.625 0.25
vt 0.875 0.25
vt 0.875 0
vt 0.125 0
vt 0.125 0.25
vt 0.375 0.25
vt 0.375 0
vn -0 0 1
vn -0 0 1
vn -0 0 1
vn -0 0 1
vn -0 1 0
vn -0 1 0
vn -0 1 0
vn -0 1 0
vn -0 0 -1
vn -0 0 -1
vn -0 0 -1
vn -0 0 -1
vn -0 -1 0
vn -0 -1 0
vn -0 -1 0
vn -0 -1 0
vn 1 0 0
vn 1 0 0
vn 1 0 0
vn 1 0 0
vn -1 0 0
vn -1 0 0
vn -1 0 0
vn -1 0 0
vn -1 0 0
vn -1 0 0
vn -1 0 0
vn -1 0 0
vn -0 0.79534465 -0.60615754
vn -0 0.79534465 -0.60615754
vn -0 0.79534465 -0.60615754
vn -0 0.79534465 -0.60615754
vn 1 0 0
vn 1 0 0
vn 1 0 0
vn 1 0 0
vn -0 -0.7653864 0.643571
vn -0 -0.7653864 0.643571
vn -0 -0.7653864 0.643571
vn -0 -0.7653864 0.643571
vn -0 1 0
vn -0 1 0
vn -0 1 0
vn -0 1 0
vn -0 -0.008381099 -0.99996495
vn -0 -0.008381099 -0.99996495
vn -0 -0.008381099 -0.99996495
vn -0 -0.008381099 -0.99996495
vn 0.99993634 0.007911794 -0.008046277
vn 0.99993634 0.007911793 -0.008046276
vn 0.99993634 0.007911795 -0.008046276
vn 0.99993634 0.007911794 -0.008046276
vn -0 0.74419457 0.66796285
vn -0 0.74419457 0.66796285
vn -0 0.74419457 0.66796285
vn -0 0.74419457 0.66796285
vn -0.99993634 -0.00791182 0.008046278
vn -0.99993634 -0.007911819 0.008046276
vn -0.99993634 -0.007911819 0.008046276
vn -0.99993634 -0.007911819 0.008046276
vn -0 -0.7289385 -0.68457913
vn -0 -0.7289385 -0.68457913
vn -0 -0.7289385 -0.68457913
vn -0 -0.7289385 -0.68457913
vn -0 1 0
vn -0 1 0
vn -0 1 0
vn -0 1 0
vn -0 0 1
vn -0 0 1
vn -0 0 1
vn -0 0 1
g Support_Wooden_Tall_COL_0
f 3/3/3 2/2/2 1/1/1
f 4/4/4 3/3/3 1/1/1
f 7/7/7 6/6/6 5/5/5
f 8/8/8 7/7/7 5/5/5
f 11/11/11 10/10/10 9/9/9
f 12/12/12 11/11/11 9/9/9
f 15/15/15 14/14/14 13/13/13
f 16/16/16 15/15/15 13/13/13
f 19/19/19 18/18/18 17/17/17
f 20/20/20 19/19/19 17/17/17
f 23/23/23 22/22/22 21/21/21
f 24/24/24 23/23/23 21/21/21
f 27/27/27 26/26/26 25/25/25
f 28/28/28 27/27/27 25/25/25
f 31/31/31 30/30/30 29/29/29
f 32/32/32 31/31/31 29/29/29
f 35/35/35 34/34/34 33/33/33
f 36/36/36 35/35/35 33/33/33
f 39/39/39 38/38/38 37/37/37
f 40/40/40 39/39/39 37/37/37
f 43/43/43 42/42/42 41/41/41
f 44/44/44 43/43/43 41/41/41
f 47/47/47 46/46/46 45/45/45
f 48/48/48 47/47/47 45/45/45
f 51/51/51 50/50/50 49/49/49
f 52/52/52 51/51/51 49/49/49
f 55/55/55 54/54/54 53/53/53
f 56/56/56 55/55/55 53/53/53
f 59/59/59 58/58/58 57/57/57
f 60/60/60 59/59/59 57/57/57
f 63/63/63 62/62/62 61/61/61
f 64/64/64 63/63/63 61/61/61
f 67/67/67 66/66/66 65/65/65
f 68/68/68 67/67/67 65/65/65
f 71/71/71 70/70/70 69/69/69
f 72/72/72 71/71/71 69/69/69
