g valley_tree04_COL
v -0.897423 0 0.8974235
v 2.0721135 11.109182 0.37113476
v 0.897423 0 0.8974235
v 0.7614744 11.109182 0.37113476
v 2.5071692 20.942068 1.2052891
v 1.6303797 20.942068 1.2052891
v 0.35694605 30.251684 0.93143976
v -0.11654574 30.251684 0.93143976
v -0.11654574 30.251684 0.93143976
v -0.11654574 30.251684 0.45794874
v 0.35694605 30.251684 0.45794874
v 0.35694605 30.251684 0.93143976
v -0.11654574 30.251684 0.45794874
v 2.5071692 20.942068 0.32849962
v 0.35694605 30.251684 0.45794874
v 1.6303797 20.942068 0.32849962
v 2.0721135 11.109182 -0.93950474
v 0.7614744 11.109182 -0.93950474
v 0.897423 0 -0.8974235
v -0.897423 0 -0.8974235
v -0.897423 0 -0.8974235
v -0.897423 0 0.8974235
v 0.897423 0 0.8974235
v 0.897423 0 -0.8974235
v 0.897423 0 0.8974235
v 2.0721135 11.109182 -0.93950474
v 0.897423 0 -0.8974235
v 2.0721135 11.109182 0.37113476
v 2.5071692 20.942068 0.32849962
v 2.5071692 20.942068 1.2052891
v 0.35694605 30.251684 0.45794874
v 0.35694605 30.251684 0.93143976
v -0.897423 0 -0.8974235
v 0.7614744 11.109182 0.37113476
v -0.897423 0 0.8974235
v 0.7614744 11.109182 -0.93950474
v 1.6303797 20.942068 1.2052891
v 1.6303797 20.942068 0.32849962
v -0.11654574 30.251684 0.93143976
v -0.11654574 30.251684 0.45794874
vt 0.375 0
vt 0.625 0.09161187
vt 0.625 0
vt 0.375 0.09161187
vt 0.625 0.1736961
vt 0.375 0.1736961
vt 0.625 0.25
vt 0.375 0.25
vt 0.375 0.25
vt 0.375 0.5
vt 0.625 0.5
vt 0.625 0.25
vt 0.375 0.5
vt 0.625 0.5763039
vt 0.625 0.5
vt 0.375 0.5763039
vt 0.625 0.65838814
vt 0.375 0.65838814
vt 0.625 0.75
vt 0.375 0.75
vt 0.375 0.75
vt 0.375 1
vt 0.625 1
vt 0.625 0.75
vt 0.625 0
vt 0.875 0.09161187
vt 0.875 0
vt 0.625 0.09161187
vt 0.875 0.1736961
vt 0.625 0.1736961
vt 0.875 0.25
vt 0.625 0.25
vt 0.125 0
vt 0.375 0.09161187
vt 0.375 0
vt 0.125 0.09161187
vt 0.375 0.1736961
vt 0.125 0.1736961
vt 0.375 0.25
vt 0.125 0.25
vn -0 0.04732114 0.99887973
vn -0 -0.0064628366 0.99997914
vn -0 0.047321137 0.99887973
vn -0 0.0011335008 0.9999994
vn -0 -0.04597466 0.9989427
vn -0 -0.041124463 0.9991541
vn -0 0.02940304 0.99956757
vn -0 0.02940304 0.99956757
vn -0 1 0
vn -0 1 0
vn -0 1 0
vn -0 1 0
vn -0 0.0139035415 -0.9999033
vn -0 0.089517355 -0.99598527
vn -0 0.0139035415 -0.9999033
vn -0 0.0846625 -0.9964097
vn -0 0.050202623 -0.99873906
vn -0 0.04260693 -0.99909186
vn -0 -0.0037879448 -0.99999285
vn -0 -0.0037879443 -0.99999285
vn -0 -1 0
vn -0 -1 0
vn -0 -1 0
vn -0 -1 0
vn 0.994456 -0.10515428 0
vn 0.9965473 -0.08302746 0
vn 0.994456 -0.10515427 0
vn 0.9966718 -0.08151827 0
vn 0.9986632 0.051689316 0
vn 0.99822587 0.059541583 0
vn 0.9743488 0.22504339 0
vn 0.9743488 0.22504339 0
vn -0.9890338 0.14768915 0
vn -0.9922063 0.12460656 0
vn -0.9890338 0.14768915 0
vn -0.9920202 0.12607923 0
vn -0.99987507 -0.01580459 0
vn -0.99996865 -0.007924443 0
vn -0.98284596 -0.1844285 0
vn -0.98284596 -0.18442851 0
g valley_tree04_COL_0
f 3/3/3 2/2/2 1/1/1
f 2/2/2 4/4/4 1/1/1
f 2/2/2 5/5/5 4/4/4
f 5/5/5 6/6/6 4/4/4
f 5/5/5 7/7/7 6/6/6
f 7/7/7 8/8/8 6/6/6
f 11/11/11 10/10/10 9/9/9
f 12/12/12 11/11/11 9/9/9
f 15/15/15 14/14/14 13/13/13
f 14/14/14 16/16/16 13/13/13
f 14/14/14 17/17/17 16/16/16
f 17/17/17 18/18/18 16/16/16
f 17/17/17 19/19/19 18/18/18
f 19/19/19 20/20/20 18/18/18
f 23/23/23 22/22/22 21/21/21
f 24/24/24 23/23/23 21/21/21
f 27/27/27 26/26/26 25/25/25
f 26/26/26 28/28/28 25/25/25
f 26/26/26 29/29/29 28/28/28
f 29/29/29 30/30/30 28/28/28
f 29/29/29 31/31/31 30/30/30
f 31/31/31 32/32/32 30/30/30
f 35/35/35 34/34/34 33/33/33
f 34/34/34 36/36/36 33/33/33
f 34/34/34 37/37/37 36/36/36
f 37/37/37 38/38/38 36/36/36
f 37/37/37 39/39/39 38/38/38
f 39/39/39 40/40/40 38/38/38
