g voxPlatform01_COL
v 1.0101898 -2.0488029 1.6973004
v 1.6972985 -1.6339637 1.6973004
v 1.6972985 -2.0488029 0.38571268
v 1.0101898 -2.0488029 0.38571268
v -1.025304 -2.0488029 1.6973004
v 1.0101898 -2.0488029 -1.0026327
v 1.6972985 -2.0488029 -1.0026327
v 1.0101898 -2.0488029 -1.6973004
v 1.3899591 -2.0488029 -1.359731
v 1.3899591 0.13088256 -1.359731
v 1.0101898 0.13088256 -1.6973004
v 1.6972985 0.13088256 -1.0026326
v -0.45695147 -1.9788418 -1.6973004
v -0.45695147 -2.0488029 -1.0026326
v -1.025304 -2.0488029 0.9975916
v -1.6972985 -2.0488029 0.9975916
v -1.4403427 -1.794769 1.4252294
v -1.6972985 -2.0488029 -1.0026327
v -1.0316938 -1.6823695 -1.6874564
v -1.4453809 -0.009383735 -1.4252294
v -1.025304 -0.009383735 -1.6973004
v -1.6972985 -0.009383735 -1.0026326
v 1.0101898 0.13088256 -1.0026326
v -1.025304 -0.009383735 -1.0026327
v -1.6972985 0.13088256 0.9975916
v -1.025304 0.13088256 0.9975916
v -1.4403427 0.13088256 1.4252294
v 1.0101898 0.13088256 0.9975916
v 1.6972985 0.13088256 0.9975916
v -1.025304 0.13088256 1.6973004
v 1.0101898 0.13088256 1.6973004
v 1.6972985 0.13088256 1.6973004
v 1.6972985 -1.6339637 1.6973004
v 1.6972985 0.13088256 0.9975916
v 1.0101898 -2.0488029 1.6973004
v 1.6972985 -2.0488029 0.38571268
v -1.025304 -2.0488029 1.6973004
v 1.6972985 -2.0488029 -1.0026327
v 1.6972985 0.13088256 -1.0026326
v 1.3899591 -2.0488029 -1.359731
v 1.3899591 0.13088256 -1.359731
v -1.4403427 -1.794769 1.4252294
v -1.6972985 0.13088256 0.9975916
v -1.6972985 -2.0488029 0.9975916
v -1.6972985 -0.009383735 -1.0026326
v -1.6972985 -2.0488029 -1.0026327
v -1.0316938 -1.6823695 -1.6874564
v -1.4453809 -0.009383735 -1.4252294
vt 0.57439685 1
vt 0.625 1
vt 0.625 0.948469
vt 0.57439685 0.948469
vt 0.42448997 1
vt 0.57439685 0.80115974
vt 0.625 0.80115974
vt 0.57439685 0.75
vt 0.625 0.75
vt 0.625 0.5
vt 0.57439685 0.5
vt 0.625 0.44884023
vt 0.42448997 0.74999994
vt 0.42448997 0.80115974
vt 0.42448997 0.948469
vt 0.375 0.948469
vt 0.375 1
vt 0.375 0.80115974
vt 0.375 0.75
vt 0.375 0.5
vt 0.42448997 0.5
vt 0.375 0.44884023
vt 0.57439685 0.44884023
vt 0.42448997 0.44884026
vt 0.375 0.301531
vt 0.42448997 0.30153102
vt 0.375 0.25
vt 0.57439685 0.301531
vt 0.625 0.301531
vt 0.42448997 0.25
vt 0.57439685 0.25
vt 0.625 0.25
vt 0.625 0
vt 0.67653096 0.25
vt 0.57439685 0
vt 0.67653096 0
vt 0.42448997 0
vt 0.82384026 0
vt 0.82384026 0.25
vt 0.875 0
vt 0.875 0.25
vt 0.375 0
vt 0.323469 0.25
vt 0.323469 0
vt 0.17615977 0.25
vt 0.17615975 0
vt 0.125 0
vt 0.125 0.25
vn 0.043764602 -0.47427705 0.8792872
vn 0.76853186 -0.2455773 0.5908051
vn 0.95250136 -0.30363974 0.023326794
vn 0.039176784 -0.99902153 0.020523757
vn -0.08069928 -0.4018212 0.91215533
vn -0.004756913 -0.99993825 -0.010046627
vn 0.96125513 -0.2350493 -0.14401585
vn 0.15413992 -0.25043714 -0.95578355
vn 0.69303685 -0.22314933 -0.68549573
vn 0.69303685 0.22314942 -0.6854957
vn 0.13798995 0.3352298 -0.9319763
vn 0.937795 0.31749034 -0.140501
vn -0.046705373 -0.30609173 -0.9508556
vn -0.019292668 -0.99879384 -0.045152336
vn -0.013061425 -0.99983597 0.012544122
vn -0.9151415 -0.3950872 0.08013816
vn -0.7141619 -0.13905351 0.6860299
vn -0.90162885 -0.4074578 -0.14506425
vn -0.5194168 -0.28182858 -0.80670863
vn -0.6252883 0.18785204 -0.7574472
vn -0.08371711 0.3600089 -0.9291851
vn -0.95092905 0.2576349 -0.1713423
vn -0.033388656 0.99924135 -0.020050513
vn -0.03336063 0.99888986 -0.033260208
vn -0.9511477 0.29710984 0.08392725
vn -0.01966375 0.9992545 -0.033222925
vn -0.6999369 0.24128251 0.6722136
vn -0.019076725 0.9996295 -0.0194131
vn 0.94392866 0.33014965 0
vn -0.10052758 0.28916427 0.9519865
vn -0 0.31244597 0.94993556
vn 0.80040866 0.2004311 0.5649542
vn 0.76853186 -0.2455773 0.5908051
vn 0.94392866 0.33014965 0
vn 0.043764602 -0.47427705 0.8792872
vn 0.95250136 -0.30363974 0.023326794
vn -0.08069928 -0.4018212 0.91215533
vn 0.96125513 -0.2350493 -0.14401585
vn 0.937795 0.31749034 -0.140501
vn 0.69303685 -0.22314933 -0.68549573
vn 0.69303685 0.22314942 -0.6854957
vn -0.7141619 -0.13905351 0.6860299
vn -0.9511477 0.29710984 0.08392725
vn -0.9151415 -0.3950872 0.08013816
vn -0.95092905 0.2576349 -0.1713423
vn -0.90162885 -0.4074578 -0.14506425
vn -0.5194168 -0.28182858 -0.80670863
vn -0.6252883 0.18785204 -0.7574472
g voxPlatform01_COL_0
f 3/3/3 2/2/2 1/1/1
f 4/4/4 3/3/3 1/1/1
f 4/4/4 1/1/1 5/5/5
f 4/4/4 6/6/6 3/3/3
f 6/6/6 7/7/7 3/3/3
f 6/6/6 8/8/8 7/7/7
f 8/8/8 9/9/9 7/7/7
f 10/10/10 9/9/9 8/8/8
f 11/11/11 10/10/10 8/8/8
f 12/12/12 10/10/10 11/11/11
f 13/13/13 8/8/8 6/6/6
f 11/11/11 8/8/8 13/13/13
f 14/14/14 6/6/6 4/4/4
f 14/14/14 13/13/13 6/6/6
f 15/15/15 4/4/4 5/5/5
f 15/15/15 14/14/14 4/4/4
f 15/15/15 5/5/5 16/16/16
f 5/5/5 17/17/17 16/16/16
f 15/15/15 16/16/16 18/18/18
f 14/14/14 15/15/15 18/18/18
f 14/14/14 18/18/18 19/19/19
f 13/13/13 14/14/14 19/19/19
f 13/13/13 19/19/19 20/20/20
f 21/21/21 13/13/13 20/20/20
f 21/21/21 11/11/11 13/13/13
f 21/21/21 20/20/20 22/22/22
f 23/23/23 12/12/12 11/11/11
f 23/23/23 11/11/11 21/21/21
f 24/24/24 21/21/21 22/22/22
f 24/24/24 23/23/23 21/21/21
f 24/24/24 22/22/22 25/25/25
f 26/26/26 24/24/24 25/25/25
f 24/24/24 26/26/26 23/23/23
f 26/26/26 25/25/25 27/27/27
f 23/23/23 28/28/28 12/12/12
f 26/26/26 28/28/28 23/23/23
f 28/28/28 29/29/29 12/12/12
f 30/30/30 26/26/26 27/27/27
f 26/26/26 30/30/30 28/28/28
f 28/28/28 31/31/31 29/29/29
f 30/30/30 31/31/31 28/28/28
f 31/31/31 32/32/32 29/29/29
f 33/33/33 32/32/32 31/31/31
f 34/34/34 32/32/32 33/33/33
f 35/35/35 33/33/33 31/31/31
f 35/35/35 31/31/31 30/30/30
f 36/36/36 34/34/34 33/33/33
f 37/37/37 35/35/35 30/30/30
f 36/36/36 38/38/38 34/34/34
f 38/38/38 39/39/39 34/34/34
f 38/38/38 40/40/40 39/39/39
f 40/40/40 41/41/41 39/39/39
f 37/37/37 30/30/30 42/42/42
f 30/30/30 27/27/27 42/42/42
f 42/42/42 27/27/27 43/43/43
f 44/44/44 42/42/42 43/43/43
f 44/44/44 43/43/43 45/45/45
f 46/46/46 44/44/44 45/45/45
f 46/46/46 45/45/45 47/47/47
f 45/45/45 48/48/48 47/47/47
