g cratepart0
v -0.029122353 0.29457474 -0.3951893
v -0.07722187 0.28081894 0.18152237
v -0.028790474 0.43808365 0.18300438
v -0.028790474 0.43808365 0.18300438
v -0.029122353 0.43813324 -0.39610672
v -0.029122353 0.29457474 -0.3951893
v -0.06390095 0.3757019 0.38111115
v 0.01766491 0.37220383 0.38027573
v 0.013213158 0.32234955 0.38027573
v -0.06390095 0.3757019 0.38111115
v -0.07745075 0.3757019 0.26662064
v -0.07745075 0.3205967 0.2690239
v 0.01375103 -0.38303375 0.3736801
v 0.018202782 -0.33317947 0.3736801
v -0.068421364 -0.3296814 0.3723297
v -0.068421364 -0.3296814 0.3723297
v -0.07691288 -0.3296814 0.2661209
v -0.07691288 -0.3847847 0.26852417
v -0.07688999 0.29457474 -0.3951893
v -0.07722187 0.28081894 0.18152237
v -0.029122353 0.29457474 -0.3951893
v -0.028790474 0.28081894 0.18152237
v -0.07688999 0.43813324 -0.39610672
v -0.029122353 0.43813324 -0.39610672
v -0.07722187 0.43808365 0.18300438
v -0.028790474 0.43808365 0.18300438
v -0.07688999 0.43813324 -0.39610672
v -0.07722187 0.43808365 0.18300438
v -0.07688999 0.29457474 -0.3951893
v -0.07722187 0.28081894 0.18152237
v -0.077801704 -0.4420433 0.1678009
v -0.071801186 0.0025417358 0.324337
v -0.077801704 -0.44390106 0.3251381
v -0.071801186 0.005705178 0.18394852
v -0.07746601 0.40457153 0.28149796
v -0.07813358 0.45383453 0.18321037
v -0.07813358 0.4489479 0.25211334
v -0.07813358 0.4446602 0.34033966
v -0.07813358 0.44141388 0.2850685
v -0.07813358 0.4446602 0.34033966
v -0.07813358 0.44141388 0.2850685
v -0.029698372 0.4446602 0.34033966
v -0.029698372 0.4414444 0.28379822
v -0.03003025 -0.4420433 0.1678009
v -0.077801704 -0.4420433 0.1678009
v -0.03003025 -0.44390106 0.3251381
v -0.077801704 -0.44390106 0.3251381
v -0.03003025 -0.44390106 0.3251381
v -0.077801704 -0.44390106 0.3251381
v -0.036026955 0.0025417358 0.324337
v -0.071801186 0.0025417358 0.324337
v -0.029698372 0.4446602 0.34033966
v -0.07813358 0.4446602 0.34033966
v -0.03003025 -0.4420433 0.1678009
v -0.071801186 0.005705178 0.18394852
v -0.077801704 -0.4420433 0.1678009
v -0.036026955 0.005705178 0.18394852
v -0.029698372 0.45383453 0.18321037
v -0.07813358 0.45383453 0.18321037
v -0.07813358 0.44141388 0.2850685
v -0.07746601 0.40457153 0.28149796
v -0.029698372 0.4414444 0.28379822
v -0.030365944 0.40433884 0.28082657
v -0.07746601 0.40457153 0.28149796
v -0.07813358 0.4489479 0.25211334
v -0.030365944 0.40433884 0.28082657
v -0.029698372 0.44889832 0.25439835
v -0.07813358 0.4489479 0.25211334
v -0.07813358 0.45383453 0.18321037
v -0.029698372 0.44889832 0.25439835
v -0.029698372 0.45383453 0.18321037
v -0.06390095 0.32532883 0.38111115
v 0.012759209 0.32234955 0.3956566
v 0.013213158 0.32234955 0.38027573
v -0.08029652 0.32532883 0.39610672
v -0.07745075 0.3205967 0.2690239
v -0.09325504 0.3205967 0.2685051
v -0.07745075 0.3757019 0.26662064
v -0.06390095 0.3757019 0.38111115
v -0.09325504 0.3757019 0.26610184
v -0.08029652 0.3757019 0.39610672
v 0.01721096 0.37220383 0.3956566
v 0.01766491 0.37220383 0.38027573
v 0.012759209 0.32234955 0.3956566
v 0.01721096 0.37220383 0.3956566
v 0.013213158 0.32234955 0.38027573
v 0.01766491 0.37220383 0.38027573
v -0.07745075 0.3205967 0.2690239
v -0.07745075 0.3757019 0.26662064
v -0.09325504 0.3205967 0.2685051
v -0.09325504 0.3757019 0.26610184
v -0.09325504 0.3205967 0.2685051
v -0.09325504 0.3757019 0.26610184
v -0.08029652 0.32532883 0.39610672
v -0.08029652 0.3757019 0.39610672
v -0.08029652 0.32532883 0.39610672
v -0.08029652 0.3757019 0.39610672
v 0.012759209 0.32234955 0.3956566
v 0.01721096 0.37220383 0.3956566
v -0.064061165 -0.45383453 0.3285637
v -0.064061165 -0.45383453 0.3769951
v 0.09320545 -0.45100784 0.3285637
v 0.09320545 -0.45100784 0.3769951
v -0.006173134 0.4334526 0.38137436
v 0.09325504 0.44535446 0.3818283
v 0.08478451 -0.0058354735 0.368927
v -0.055638313 -0.0058354735 0.368927
v -0.064110756 0.44535446 0.3818283
v -0.064061165 -0.45383453 0.3769951
v 0.09320545 -0.45100784 0.3769951
v -0.064110756 0.44535446 0.3818283
v -0.064110756 0.44535446 0.33405685
v -0.006173134 0.4334526 0.38137436
v -0.011055946 0.4349785 0.33448792
v 0.09325504 0.44535446 0.33405685
v 0.09325504 0.44535446 0.3818283
v 0.09325504 0.44535446 0.3818283
v 0.09325504 0.44535446 0.33405685
v 0.08478451 -0.0058354735 0.368927
v 0.08478451 -0.0058354735 0.33314896
v 0.09320545 -0.45100784 0.3769951
v 0.09320545 -0.45100784 0.3285637
v -0.055638313 -0.0058354735 0.368927
v -0.064110756 0.44535446 0.33405685
v -0.064110756 0.44535446 0.3818283
v -0.055638313 -0.0058354735 0.33314896
v -0.064061165 -0.45383453 0.3285637
v -0.064061165 -0.45383453 0.3769951
v -0.068421364 -0.38005447 0.3723297
v 0.013297081 -0.38303375 0.38906097
v 0.01375103 -0.38303375 0.3736801
v -0.08481693 -0.38005447 0.3873253
v -0.07691288 -0.3847847 0.26852417
v -0.09271717 -0.3847847 0.26800537
v -0.07691288 -0.3296814 0.2661209
v -0.068421364 -0.3296814 0.3723297
v -0.09271717 -0.3296814 0.2656021
v -0.08481693 -0.3296814 0.3873253
v 0.017748833 -0.33317947 0.38906097
v 0.018202782 -0.33317947 0.3736801
v 0.013297081 -0.38303375 0.38906097
v 0.017748833 -0.33317947 0.38906097
v 0.01375103 -0.38303375 0.3736801
v 0.018202782 -0.33317947 0.3736801
v -0.07691288 -0.3847847 0.26852417
v -0.07691288 -0.3296814 0.2661209
v -0.09271717 -0.3847847 0.26800537
v -0.09271717 -0.3296814 0.2656021
v -0.09271717 -0.3847847 0.26800537
v -0.09271717 -0.3296814 0.2656021
v -0.08481693 -0.38005447 0.3873253
v -0.08481693 -0.3296814 0.3873253
v -0.08481693 -0.38005447 0.3873253
v -0.08481693 -0.3296814 0.3873253
v 0.013297081 -0.38303375 0.38906097
v 0.017748833 -0.33317947 0.38906097
v -0.07688999 0.43813324 -0.39610672
v -0.07688999 0.29457474 -0.3951893
v -0.029122353 0.29457474 -0.3951893
v -0.029122353 0.43813324 -0.39610672
v -0.030365944 0.40433884 0.28082657
v -0.029698372 0.44889832 0.25439835
v -0.029698372 0.45383453 0.18321037
v -0.036026955 0.005705178 0.18394852
v -0.029698372 0.4446602 0.34033966
v -0.029698372 0.4414444 0.28379822
v -0.036026955 0.0025417358 0.324337
v -0.03003025 -0.4420433 0.1678009
v -0.03003025 -0.44390106 0.3251381
v -0.011055946 0.4349785 0.33448792
v 0.08478451 -0.0058354735 0.33314896
v 0.09325504 0.44535446 0.33405685
v -0.064061165 -0.45383453 0.3285637
v 0.09320545 -0.45100784 0.3285637
v -0.055638313 -0.0058354735 0.33314896
v -0.064110756 0.44535446 0.33405685
vt 0.33273306 0.99999994
vt 0.3586518 0.9818144
vt 0.2986707 0.9818144
vt 0.2986707 0.9818144
vt 0.2986707 0.5395833
vt 0.33273306 0.99999994
vt 0.7044378 0.4343863
vt 0.7090666 0.4973039
vt 0.7470151 0.4870317
vt 0.7044378 0.4343863
vt 0.6992641 0.3833976
vt 0.7387699 0.3729715
vt 0.7470151 0.4870317
vt 0.7090666 0.4973039
vt 0.7044378 0.4343863
vt 0.7044378 0.4343863
vt 0.6992641 0.3833976
vt 0.7387699 0.3729715
vt 0.3586518 0.5395833
vt 0.3586518 0.9818144
vt 0.3707521 0.5395833
vt 0.3707521 0.9818144
vt 0.3108854 0.5395833
vt 0.2986707 0.5395833
vt 0.3108854 0.9818144
vt 0.2986707 0.9818144
vt 0.3108854 0.5395833
vt 0.3108854 0.9818144
vt 0.3586518 0.5395833
vt 0.3586518 0.9818144
vt 0.4343016 0.5395833
vt 0.4820678 0.7606988
vt 0.4820678 0.5395833
vt 0.4343016 0.7606988
vt 0.4637084 0.9651699
vt 0.4343016 0.9818144
vt 0.4513962 0.9820132
vt 0.4820678 0.9818144
vt 0.4699616 0.9812717
vt 0.4820678 0.9818144
vt 0.4699616 0.9812717
vt 0.4820678 0.9960918
vt 0.4649138 0.9960919
vt 0.4343016 0.5253059
vt 0.4343016 0.5395833
vt 0.4820678 0.5253059
vt 0.4820678 0.5395833
vt 0.494168 0.5395833
vt 0.4820678 0.5395833
vt 0.494168 0.7606988
vt 0.4820678 0.7606988
vt 0.494168 0.9818144
vt 0.4820678 0.9818144
vt 0.4220869 0.5395833
vt 0.4343016 0.7606988
vt 0.4343016 0.5395833
vt 0.4220869 0.7606988
vt 0.4220869 0.9818144
vt 0.4343016 0.9818144
vt 0.4699616 0.9812717
vt 0.4637084 0.9651699
vt 0.4649138 0.9960919
vt 0.4604299 0.9960919
vt 0.4637084 0.9651699
vt 0.4513962 0.9820132
vt 0.4604299 0.9960919
vt 0.4559459 0.9960919
vt 0.4513962 0.9820132
vt 0.4343016 0.9818144
vt 0.4559459 0.9960919
vt 0.4343016 0.9960919
vt 0.7432244 0.4343589
vt 0.7377748 0.4883479
vt 0.7470151 0.4870317
vt 0.7348498 0.4342745
vt 0.7480851 0.383368
vt 0.7388487 0.3814442
vt 0.6992641 0.3833976
vt 0.7044378 0.4343863
vt 0.7082779 0.3814622
vt 0.7126257 0.4342911
vt 0.7090922 0.4883659
vt 0.7003074 0.4870622
vt 0.7377748 0.4883479
vt 0.7090922 0.4883659
vt 0.737798 0.4972863
vt 0.7090666 0.4973039
vt 0.7387699 0.3729715
vt 0.7083513 0.372989
vt 0.7388487 0.3814442
vt 0.7082779 0.3814622
vt 0.7388487 0.3814442
vt 0.7082779 0.3814622
vt 0.7348498 0.4342745
vt 0.7126257 0.4342911
vt 0.7348498 0.4342745
vt 0.7126257 0.4342911
vt 0.7377748 0.4883479
vt 0.7090922 0.4883659
vt 0.1871044 0.9818144
vt 0.1871044 0.9960919
vt 0.2348709 0.9818144
vt 0.2348709 0.9960918
vt 0.1579029 0.5556495
vt 0.127244 0.5395833
vt 0.127244 0.7606988
vt 0.1748898 0.7606988
vt 0.1748898 0.5395833
vt 0.1748898 0.9818144
vt 0.127244 0.9818144
vt 0.1871044 0.5253059
vt 0.1871044 0.5395833
vt 0.2071321 0.5253059
vt 0.2035441 0.5523375
vt 0.2348709 0.5395833
vt 0.2348709 0.5253059
vt 0.2469711 0.5395833
vt 0.2348709 0.5395833
vt 0.2469711 0.7606988
vt 0.2348709 0.7606988
vt 0.2469711 0.9818144
vt 0.2348709 0.9818144
vt 0.1748898 0.7606988
vt 0.1871044 0.5395833
vt 0.1748898 0.5395833
vt 0.1871044 0.7606988
vt 0.1871044 0.9818144
vt 0.1748898 0.9818144
vt 0.7432244 0.4343589
vt 0.7377748 0.4883479
vt 0.7470151 0.4870317
vt 0.7348498 0.4342745
vt 0.7480851 0.383368
vt 0.7388487 0.3814442
vt 0.6992641 0.3833976
vt 0.7044378 0.4343863
vt 0.7082779 0.3814622
vt 0.7126257 0.4342911
vt 0.7090922 0.4883659
vt 0.7003074 0.4870622
vt 0.7377748 0.4883479
vt 0.7090922 0.4883659
vt 0.737798 0.4972863
vt 0.7090666 0.4973039
vt 0.7387699 0.3729715
vt 0.7083513 0.372989
vt 0.7388487 0.3814442
vt 0.7082779 0.3814622
vt 0.7388487 0.3814442
vt 0.7082779 0.3814622
vt 0.7348498 0.4342745
vt 0.7126257 0.4342911
vt 0.7348498 0.4342745
vt 0.7126257 0.4342911
vt 0.7377748 0.4883479
vt 0.7090922 0.4883659
vt 0 0
vt 0 0.99999994
vt 0.33273306 0.99999994
vt 0.33273306 0
vt 0.4604299 0.9960919
vt 0.4559459 0.9960919
vt 0.4343016 0.9960919
vt 0.4220869 0.7606988
vt 0.494168 0.9818144
vt 0.4649138 0.9960919
vt 0.494168 0.7606988
vt 0.4220869 0.5395833
vt 0.4820678 0.5253059
vt 0.2035441 0.5523375
vt 0.2348709 0.7606988
vt 0.2348709 0.5395833
vt 0.1871044 0.9818144
vt 0.2348709 0.9818144
vt 0.1871044 0.7606988
vt 0.1871044 0.5395833
vn 0.99623245 -0.0008214636 0.0867183
vn 0.99623245 -0.00082146353 0.08671831
vn 0.99623245 -0.0008214636 0.08671831
vn 0.99623245 -0.0008214636 0.08671831
vn 0.99623245 -0.0008214636 0.086718306
vn 0.99623245 -0.0008214636 0.0867183
vn 0.7841276 -0.0019054095 -0.6205967
vn 0.78412765 -0.0019054099 -0.62059665
vn 0.78412765 -0.0019054099 -0.6205967
vn 0.7841276 -0.0019054095 -0.6205967
vn 0.78412765 -0.0019054096 -0.6205967
vn 0.7841276 -0.0019054095 -0.6205967
vn 0.76748765 -0.0018077033 -0.6410611
vn 0.76748776 -0.0018077032 -0.6410611
vn 0.76748765 -0.001807703 -0.64106107
vn 0.76748765 -0.001807703 -0.64106107
vn 0.76748765 -0.0018077033 -0.6410612
vn 0.76748765 -0.001807703 -0.64106107
vn -0 -0.9997156 -0.023843888
vn -0 -0.9997156 -0.023844024
vn -0 -0.9997156 -0.023843894
vn -0 -0.9997156 -0.023844032
vn -0 1 8.372825E-05
vn -0 1 8.373679E-05
vn -0 1 8.3878855E-05
vn -0 1 8.388707E-05
vn -0.9999999 0 -0.0005728867
vn -0.9999999 0 -0.00057481293
vn -0.9999999 0 -0.0005732906
vn -0.9999999 0 -0.00057513895
vn -0.9999099 0.0134238815 0.00018414052
vn -0.9999995 0.0009552722 -2.1106931E-05
vn -0.99990976 0.013432871 0.00015857314
vn -0.9999999 0.0005761434 1.3093915E-05
vn -0.99989843 -0.0142309 -0.00073847454
vn -0.99989974 -0.014160261 -0.000334684
vn -0.9998759 -0.0157128 -0.0011144265
vn -0.99989486 -0.014428196 -0.0014662222
vn -0.9998349 -0.0181378 0.0010625498
vn -0 0.9982798 -0.058628835
vn -0.0011588896 0.9983381 -0.057617083
vn -0.000966184 0.9983285 -0.05778533
vn -0.0020860978 0.99838305 -0.056807507
vn -0 -0.9999304 -0.011804035
vn -0 -0.9999304 -0.011804031
vn -0 -0.9999304 -0.011804019
vn -0 -0.9999304 -0.011804015
vn -0 0.0017870205 0.99999845
vn -0 0.0017870208 0.99999845
vn -0 -0.016902098 0.9998572
vn -0 -0.017342634 0.99984956
vn -0 -0.036170904 0.9993456
vn -0 -0.036170907 0.9993456
vn -0 0.03604049 -0.99935037
vn -0 0.017179249 -0.9998524
vn -0 0.03604049 -0.99935037
vn -0 0.01719362 -0.9998522
vn -0 -0.001646822 -0.9999987
vn -0 -0.0016468219 -0.9999987
vn -0.026126703 0.09592071 -0.995046
vn -0.021096248 0.08944593 -0.9957682
vn -0.019148238 0.0869375 -0.99602973
vn -0.013883946 0.08015552 -0.9966857
vn 0.014667543 0.552206 0.83357877
vn -0.01432024 0.5302646 0.84771127
vn -0.011056447 0.53277624 0.846184
vn -0.039978117 0.51015615 0.8591522
vn -0.0022739342 0.9974927 0.0707345
vn -0.00084592006 0.997563 0.06976757
vn -0.0013663374 0.9975376 0.070119955
vn -0 0.99760324 0.06919468
vn 0.006113969 -0.99994993 0.007923945
vn -0.037720364 -0.99927145 -0.0058128797
vn -0.038606662 -0.9992538 -0.0011368046
vn 0.008268152 -0.99988997 0.0123148225
vn 0.0017984364 -0.9993044 0.03724872
vn -0.0012189087 -0.9993079 0.037181266
vn -0 1 0
vn 0.014901346 0.99977607 0.015027529
vn -0 1 0
vn 0.011957852 0.999843 0.01307199
vn 0.04198972 0.9990989 0.006192355
vn 0.04287228 0.9990798 0.0012658864
vn 0.9956039 -0.088933446 0.029387211
vn 0.9956039 -0.08893433 0.0293874
vn 0.9956039 -0.08893366 0.029387256
vn 0.9956039 -0.08893454 0.029387446
vn 0.032732856 -0.043535575 -0.99851555
vn 0.03273285 -0.043535206 -0.99851555
vn 0.03273285 -0.043535493 -0.99851555
vn 0.032732848 -0.043535132 -0.99851555
vn -0.9948881 0.0043984544 0.1008879
vn -0.9949308 0.0033962885 0.10050382
vn -0.9950218 0.0011692545 0.099649884
vn -0.99506736 0 0.099201314
vn 0.004851449 0 0.9999883
vn 0.004774987 -0.00013350413 0.9999887
vn 0.0046845507 -0.00029141022 0.99998903
vn 0.0046157497 -0.00041153803 0.9999893
vn 0.01798117 -0.99983835 0
vn 0.017981172 -0.99983835 0
vn 0.017981177 -0.99983835 0
vn 0.017981179 -0.99983835 0
vn 6.707586E-05 -0.028519556 0.9995932
vn -0.0011230326 -0.028559724 0.9995915
vn -9.633926E-05 -0.004202033 0.9999912
vn 3.3963348E-05 -0.0043745823 0.99999046
vn 0.0019268291 -0.028544318 0.9995907
vn -0.00026680843 0.018098285 0.9998362
vn -0.00032554026 0.018117769 0.99983585
vn 0.20125808 0.97953826 0
vn 0.19749351 0.9802925 0.004799441
vn -0.006660041 0.9997008 0.0235375
vn 0.00901795 0.9994592 0.031623103
vn -0.11315776 0.99350256 0.012168428
vn -0.11887779 0.99290884 0
vn 0.99982387 -0.01876717 0
vn 0.99982387 -0.018767172 0
vn 1 -0.0003227619 0
vn 1 0.0002450554 0
vn 0.99982125 0.01891104 0
vn 0.99982125 0.01891104 0
vn -1 -9.948655E-05 0
vn -0.99982387 -0.018769328 0
vn -0.99982387 -0.018769322 0
vn -1 1.8762066E-05 0
vn -0.9998234 0.018794272 0
vn -0.9998234 0.018794276 0
vn 0.0067685028 -0.9999403 0.008587195
vn -0.035338767 -0.9993612 -0.005323924
vn -0.036209073 -0.9993437 -0.0010708694
vn 0.0071809134 -0.99990773 0.011534845
vn 0.002126871 -0.9991997 0.039942432
vn -0.0013018904 -0.99921024 0.03971475
vn -0 1 0
vn 0.015010962 0.9997718 0.015205291
vn -0 1 0
vn 0.012920434 0.9998167 0.01412675
vn 0.03947049 0.9992046 0.0056956173
vn 0.040344812 0.99918514 0.0011884664
vn 0.9956043 -0.08893109 0.02938441
vn 0.9956043 -0.088930815 0.029384116
vn 0.9956043 -0.088931024 0.029384341
vn 0.9956043 -0.08893075 0.029384045
vn 0.032732762 -0.04353655 -0.9985154
vn 0.032732815 -0.043535724 -0.99851555
vn 0.032732774 -0.043536372 -0.9985154
vn 0.032732826 -0.04353554 -0.99851555
vn -0.99781704 0.0028774545 0.06597625
vn -0.99783784 0.0021782208 0.065688334
vn -0.99787676 0.0008115877 0.06512551
vn -0.9978988 0 0.0647912
vn -0.01770701 0 0.99984324
vn -0.017452907 0.00046721674 0.99984753
vn -0.017115915 0.0010868285 0.9998529
vn -0.016886638 0.0015083835 0.99985623
vn -0 -0.0063905357 -0.9999796
vn -0 -0.0063905357 -0.9999796
vn -0 -0.0063905357 -0.9999796
vn -0 -0.0063905357 -0.9999796
vn 1 -0.0002950544 -0.00016290256
vn 1 -0.00029505437 -0.00016290255
vn 1 -0.00029505434 -0.00016290254
vn 1 -0.00029505434 -0.00016290255
vn 1 -0.00029505437 -0.00016290254
vn 1 -0.0002950544 -0.00016290256
vn 1 -0.00029505437 -0.00016290254
vn 1 -0.00029505437 -0.00016290254
vn 1 -0.00029505437 -0.00016290255
vn -4.8908536E-05 0.006410752 -0.9999795
vn -4.8908536E-05 0.006410752 -0.9999795
vn -4.890854E-05 0.0064107524 -0.9999795
vn -4.890854E-05 0.0064107515 -0.9999795
vn -4.8908536E-05 0.0064107524 -0.9999795
vn -4.8908536E-05 0.006410752 -0.9999795
vn -4.8908536E-05 0.006410752 -0.9999795
g cratepart0_0
f 3/3/3 2/2/2 1/1/1
f 6/6/6 5/5/5 4/4/4
f 9/9/9 8/8/8 7/7/7
f 12/12/12 11/11/11 10/10/10
f 15/15/15 14/14/14 13/13/13
f 18/18/18 17/17/17 16/16/16
f 21/21/21 20/20/20 19/19/19
f 22/22/22 20/20/20 21/21/21
f 25/25/25 24/24/24 23/23/23
f 26/26/26 24/24/24 25/25/25
f 29/29/29 28/28/28 27/27/27
f 30/30/30 28/28/28 29/29/29
f 33/33/33 32/32/32 31/31/31
f 31/31/31 32/32/32 34/34/34
f 34/34/34 32/32/32 35/35/35
f 36/36/36 34/34/34 35/35/35
f 37/37/37 36/36/36 35/35/35
f 38/38/38 35/35/35 32/32/32
f 39/39/39 35/35/35 38/38/38
f 42/42/42 41/41/41 40/40/40
f 43/43/43 41/41/41 42/42/42
f 46/46/46 45/45/45 44/44/44
f 47/47/47 45/45/45 46/46/46
f 50/50/50 49/49/49 48/48/48
f 51/51/51 49/49/49 50/50/50
f 52/52/52 51/51/51 50/50/50
f 53/53/53 51/51/51 52/52/52
f 56/56/56 55/55/55 54/54/54
f 54/54/54 55/55/55 57/57/57
f 55/55/55 58/58/58 57/57/57
f 59/59/59 58/58/58 55/55/55
f 62/62/62 61/61/61 60/60/60
f 63/63/63 61/61/61 62/62/62
f 66/66/66 65/65/65 64/64/64
f 67/67/67 65/65/65 66/66/66
f 70/70/70 69/69/69 68/68/68
f 71/71/71 69/69/69 70/70/70
f 74/74/74 73/73/73 72/72/72
f 72/72/72 73/73/73 75/75/75
f 72/72/72 75/75/75 76/76/76
f 76/76/76 75/75/75 77/77/77
f 80/80/80 79/79/79 78/78/78
f 81/81/81 79/79/79 80/80/80
f 81/81/81 82/82/82 79/79/79
f 79/79/79 82/82/82 83/83/83
f 86/86/86 85/85/85 84/84/84
f 87/87/87 85/85/85 86/86/86
f 90/90/90 89/89/89 88/88/88
f 91/91/91 89/89/89 90/90/90
f 94/94/94 93/93/93 92/92/92
f 95/95/95 93/93/93 94/94/94
f 98/98/98 97/97/97 96/96/96
f 99/99/99 97/97/97 98/98/98
f 102/102/102 101/101/101 100/100/100
f 103/103/103 101/101/101 102/102/102
f 106/106/106 105/105/105 104/104/104
f 107/107/107 106/106/106 104/104/104
f 104/104/104 108/108/108 107/107/107
f 109/109/109 106/106/106 107/107/107
f 110/110/110 106/106/106 109/109/109
f 113/113/113 112/112/112 111/111/111
f 114/114/114 112/112/112 113/113/113
f 114/114/114 113/113/113 115/115/115
f 115/115/115 113/113/113 116/116/116
f 119/119/119 118/118/118 117/117/117
f 120/120/120 118/118/118 119/119/119
f 119/119/119 121/121/121 120/120/120
f 120/120/120 121/121/121 122/122/122
f 125/125/125 124/124/124 123/123/123
f 123/123/123 124/124/124 126/126/126
f 126/126/126 127/127/127 123/123/123
f 123/123/123 127/127/127 128/128/128
f 131/131/131 130/130/130 129/129/129
f 129/129/129 130/130/130 132/132/132
f 129/129/129 132/132/132 133/133/133
f 133/133/133 132/132/132 134/134/134
f 137/137/137 136/136/136 135/135/135
f 138/138/138 136/136/136 137/137/137
f 138/138/138 139/139/139 136/136/136
f 136/136/136 139/139/139 140/140/140
f 143/143/143 142/142/142 141/141/141
f 144/144/144 142/142/142 143/143/143
f 147/147/147 146/146/146 145/145/145
f 148/148/148 146/146/146 147/147/147
f 151/151/151 150/150/150 149/149/149
f 152/152/152 150/150/150 151/151/151
f 155/155/155 154/154/154 153/153/153
f 156/156/156 154/154/154 155/155/155
f 159/159/159 158/158/158 157/157/157
f 160/160/160 159/159/159 157/157/157
f 163/163/163 162/162/162 161/161/161
f 161/161/161 164/164/164 163/163/163
f 164/164/164 161/161/161 165/165/165
f 161/161/161 166/166/166 165/165/165
f 164/164/164 165/165/165 167/167/167
f 168/168/168 164/164/164 167/167/167
f 167/167/167 169/169/169 168/168/168
f 172/172/172 171/171/171 170/170/170
f 173/173/173 170/170/170 171/171/171
f 171/171/171 174/174/174 173/173/173
f 173/173/173 175/175/175 170/170/170
f 170/170/170 175/175/175 176/176/176
