g decoRockCave03
v 0.06950593 0.0044993833 -0.091420494
v 0.3705911 0.22354272 0.0034708567
v 0.4007376 0.00045736614 -0.056324065
v 0.043924876 0.0009352561 -0.6928292
v 0.18792754 0.0011718628 -0.5108651
v 0.06643891 0.11439014 -0.67844075
v 0.15813264 0.0009407831 -0.40591758
v 0.11898286 0.11277111 -0.40455404
v 0.044254463 0.0009557701 -0.33944175
v -0.04848357 0.0011057464 -0.35605553
v 0.11142915 0.17629763 -0.56394494
v 0.06643891 0.11439014 -0.67844075
v -0.024259938 0.16764219 -0.4169222
v -0.06101836 0.17438468 -0.57332844
v -0.051455982 0.09656456 -0.66441
v -0.10532012 0.15122166 -0.46971518
v -0.13963164 0.0009665375 -0.46461752
v -0.14704742 0.06836385 -0.57440513
v -0.14704742 0.06836385 -0.57440513
v -0.12694426 0.0009400978 -0.55866414
v 0.043924876 0.0009352561 -0.6928292
v 0.06643891 0.11439014 -0.67844075
v -0.12694426 0.0009400978 -0.55866414
v -0.14704742 0.06836385 -0.57440513
v 0.521669 0.1850665 0.5025028
v 0.561055 0.0025993714 0.4910563
v 0.32103607 0.001777144 0.7129923
v 0.2928171 0.09791119 0.7301505
v 0.13672943 0.00268222 0.69035316
v 0.08899384 0.16905293 0.67418736
v 0.33747712 0.22614272 0.58455116
v 0.521669 0.1850665 0.5025028
v 0.38888457 0.22068094 0.45533606
v 0.07309358 0.23834845 0.6088541
v 0.08899384 0.16905293 0.67418736
v -0.025829762 0.12528013 0.5855155
v 0.19835724 0.18641827 0.27153483
v 0.03606843 0.18306299 0.31762123
v 0.41050687 0.10759539 0.27251992
v 0.54623747 0.0973169 0.3519767
v 0.521669 0.1850665 0.5025028
v 0.561055 0.0025993714 0.4910563
v 0.48796904 0.0019905218 0.31093058
v 0.38216582 0.002648425 0.30902505
v 0.3427353 0.0020437709 0.18804117
v 0.10809723 0.07670546 0.22341959
v 0.10662629 0.0026500463 0.20908487
v -0.036755055 0.06491285 0.34538245
v -0.019740285 0.0026490374 0.39912635
v -0.019740285 0.0026490374 0.39912635
v 0.13672943 0.00268222 0.69035316
v -0.019740285 0.0026490374 0.39912635
v 0.08899384 0.16905293 0.67418736
v -0.2132663 -7.4831325E-05 -0.4960897
v -0.10797087 -0.00016307518 -0.28532308
v -0.14618498 0.07663827 -0.3878011
v -0.10537871 0.06152376 -0.1831722
v -0.19317108 0.13447386 -0.343619
v -0.2132663 -7.4831325E-05 -0.4960897
v -0.2713516 0.07365566 -0.5020602
v -0.37117338 0.06623204 -0.010008147
v -0.28418243 0.0050084908 -0.0034554126
v -0.14934233 -0.00036820656 -0.13059407
v -0.10537871 0.06152376 -0.1831722
v -0.47259185 -0.00050305243 0.000464265
v -0.5329086 0.05198517 -0.02749472
v -0.62573636 0.0052744043 -0.1346224
v -0.5394424 0.15626806 -0.18324178
v -0.6174197 -0.00048767423 -0.24214925
v -0.5591647 0.13366249 -0.29836994
v -0.49738067 0.0011281088 -0.48361778
v -0.46496916 0.10448428 -0.47796103
v -0.49738067 0.0011281088 -0.48361778
v -0.2132663 -7.4831325E-05 -0.4960897
v 0.2421292 0.2795709 -0.42996788
v 0.27330413 0.00021290862 -0.50506794
v 0.4573941 0.2641693 -0.38618004
v 0.524498 0.00061646185 -0.34934896
v 0.51215786 0.20015822 -0.18412557
v 0.51487637 0.00011869956 -0.18566366
v 0.3705911 0.22354272 0.0034708567
v 0.4007376 0.00045736614 -0.056324065
v 0.2860257 0.37044066 -0.30210653
v 0.2421292 0.2795709 -0.42996788
v 0.32070097 0.31233242 -0.084849454
v 0.3705911 0.22354272 0.0034708567
v 0.06950593 0.0044993833 -0.091420494
v 0.10008881 0.2106478 -0.17465414
v 0.049292307 0.14935394 -0.33420494
v 0.06950593 0.0044993833 -0.091420494
v 0.06274445 0.00011318702 -0.28424153
v 0.27330413 0.00021290862 -0.50506794
v 0.2421292 0.2795709 -0.42996788
vt 0.6092649 0.87585235
vt 0.64461714 0.9152457
vt 0.6505911 0.8865326
vt 0.5931455 0.8272063
vt 0.6100413 0.86265975
vt 0.6095194 0.81915563
vt 0.62827766 0.8714898
vt 0.6332877 0.85692984
vt 0.6532834 0.86673254
vt 0.665369 0.8543275
vt 0.62023973 0.83654267
vt 0.6095194 0.81915563
vt 0.6455249 0.84190494
vt 0.6367254 0.82249016
vt 0.6285798 0.8103195
vt 0.6508794 0.82938975
vt 0.6688438 0.82724816
vt 0.6526183 0.8094514
vt 0.6526183 0.8094514
vt 0.64964646 0.79866296
vt 0.612509 0.7992052
vt 0.6095194 0.81915563
vt 0.6639798 0.8121818
vt 0.6526183 0.8094514
vt 0.05108536 0.9081204
vt 0.034957074 0.8919321
vt 0.008603606 0.92465925
vt 0.016743992 0.93325615
vt 0.0025191754 0.94900304
vt 0.021498736 0.9611756
vt 0.0396942 0.93038
vt 0.05108536 0.9081204
vt 0.055054016 0.92559457
vt 0.03214924 0.9589205
vt 0.021498736 0.9611756
vt 0.03642733 0.9737086
vt 0.07183685 0.94958675
vt 0.0637365 0.96502846
vt 0.08181135 0.9264623
vt 0.07305984 0.9101302
vt 0.05108536 0.9081204
vt 0.06935747 0.89157057
vt 0.08732415 0.9105264
vt 0.09439158 0.92216814
vt 0.09675713 0.9384827
vt 0.08136523 0.96528137
vt 0.08793682 0.9708667
vt 0.063190416 0.9803014
vt 0.06029083 0.9898413
vt 0.06029083 0.9898413
vt 0.01485553 0.9842055
vt 0.06029083 0.9898413
vt 0.021498736 0.9611756
vt 0.441237 0.9144321
vt 0.4121763 0.93118685
vt 0.42897472 0.9287271
vt 0.4131308 0.94573766
vt 0.43267816 0.9378776
vt 0.441237 0.9144321
vt 0.44819236 0.9245402
vt 0.42483103 0.9801348
vt 0.41221094 0.9768285
vt 0.40628833 0.9533605
vt 0.4131308 0.94573766
vt 0.43193153 0.9941209
vt 0.44093418 0.98889583
vt 0.46027008 0.9921039
vt 0.45274425 0.97278637
vt 0.47157001 0.98259264
vt 0.4635631 0.9649103
vt 0.48174384 0.94580644
vt 0.46932563 0.93939626
vt 0.47655234 0.928058
vt 0.441237 0.9144321
vt 0.588308 0.93356603
vt 0.5912434 0.9805381
vt 0.6085088 0.94904155
vt 0.63018656 0.97313714
vt 0.6335796 0.94345963
vt 0.6482548 0.9599316
vt 0.64461714 0.9152457
vt 0.65981126 0.9413038
vt 0.6057168 0.9289866
vt 0.588308 0.93356603
vt 0.62941104 0.9184503
vt 0.64461714 0.9152457
vt 0.6092649 0.87585235
vt 0.6065917 0.9010026
vt 0.5877396 0.90197843
vt 0.6092649 0.87585235
vt 0.58349407 0.8850461
vt 0.5549007 0.91787577
vt 0.588308 0.93356603
vn -0.6144417 0.1058657 0.7818272
vn 0.08122794 0.21005774 0.97430885
vn 0.25404754 -0.21822865 0.94225055
vn 0.30028832 -0.14490664 -0.9427773
vn 0.94393843 0.2856973 -0.16540065
vn 0.507804 0.40178204 -0.7620409
vn 0.77171785 0.2631066 0.57898754
vn 0.4562779 0.59525406 0.66142505
vn 0.059052687 0.38865516 0.91948897
vn -0.2515889 0.38535768 0.88780767
vn 0.5939664 0.78354776 -0.18236466
vn 0.507804 0.40178204 -0.7620409
vn -0.08641974 0.74625325 0.66002864
vn -0.29916662 0.9148787 -0.2711021
vn -0.5146901 0.17557779 -0.839206
vn -0.7426141 0.5587657 0.36919537
vn -0.87303054 0.17413026 0.45551783
vn -0.9248159 0.21341711 -0.3149107
vn -0.9248159 0.21341711 -0.3149107
vn -0.7395924 -0.35940439 -0.56906205
vn 0.30028832 -0.14490664 -0.9427773
vn 0.507804 0.40178204 -0.7620409
vn -0.7395924 -0.35940439 -0.56906205
vn -0.9248159 0.21341711 -0.3149107
vn 0.75281966 0.51113063 0.4147384
vn 0.85322624 0.08303865 0.5148879
vn 0.5360159 0.018093722 0.8440139
vn 0.2578274 0.3648604 0.89465183
vn -0.5089363 -0.2650801 0.81897277
vn -0.36546934 0.27561706 0.8890824
vn 0.22075933 0.861421 0.45740497
vn 0.75281966 0.51113063 0.4147384
vn 0.14791426 0.96082383 -0.23439032
vn -0.25369865 0.9554774 0.15066542
vn -0.36546934 0.27561706 0.8890824
vn -0.94014454 -0.0061967955 0.3407197
vn 0.02298093 0.8780514 -0.47801435
vn -0.4728738 0.8105678 -0.3455001
vn 0.37532216 0.6244506 -0.6849778
vn 0.79281545 0.40425062 -0.45609778
vn 0.75281966 0.51113063 0.4147384
vn 0.85322624 0.08303865 0.5148879
vn 0.6092569 -0.21936579 -0.76202667
vn 0.5938053 -0.4026708 -0.6965999
vn 0.25979006 0.38279098 -0.88655525
vn -0.27354887 0.3467988 -0.89716315
vn -0.37697682 0.09038297 -0.9218023
vn -0.9390518 0.11570088 -0.32372072
vn -0.8632052 -0.49409163 0.1036834
vn -0.8632052 -0.49409163 0.1036834
vn -0.5089363 -0.2650801 0.81897277
vn -0.8632052 -0.49409163 0.1036834
vn -0.36546934 0.27561706 0.8890824
vn 0.51699305 0.21217617 -0.82927644
vn 0.9800094 0.05788632 -0.19034393
vn 0.8100937 0.3605749 -0.46231374
vn 0.4839754 0.8053616 0.3422872
vn 0.23998152 0.9703231 0.029699247
vn 0.51699305 0.21217617 -0.82927644
vn 0.1873291 0.5979778 -0.77931404
vn 0.16959229 0.85925335 0.48261994
vn 0.39536133 0.59012926 0.70387286
vn 0.7718705 -0.008227344 0.6357266
vn 0.4839754 0.8053616 0.3422872
vn -0.23515205 0.14774643 0.9606635
vn -0.46582097 0.5611685 0.6841789
vn -0.8436717 0.48593706 0.22821766
vn -0.112463236 0.97210294 0.20583458
vn -0.9096895 0.3317181 -0.2498561
vn -0.46638992 0.83988404 -0.27762422
vn -0.64490527 0.18884796 -0.7405631
vn -0.21540368 0.8362564 -0.5042584
vn -0.64490527 0.18884796 -0.7405631
vn 0.51699305 0.21217617 -0.82927644
vn -0.2966857 0.5147018 -0.80440015
vn -0.01500597 0.09694829 -0.9951763
vn 0.6499554 0.46845007 -0.59842503
vn 0.8016258 0.07492231 -0.59311295
vn 0.88161683 0.41229174 0.22971101
vn 0.9172117 -0.011488581 0.39823446
vn 0.08122794 0.21005774 0.97430885
vn 0.25404754 -0.21822865 0.94225055
vn -0.09914726 0.99361426 -0.05385736
vn -0.2966857 0.5147018 -0.80440015
vn -0.082641825 0.8429294 0.5316391
vn 0.08122794 0.21005774 0.97430885
vn -0.6144417 0.1058657 0.7818272
vn -0.71338135 0.58097017 0.3918681
vn -0.8382179 0.2696914 -0.47398022
vn -0.6144417 0.1058657 0.7818272
vn -0.90251803 -0.20765465 -0.37728062
vn -0.01500597 0.09694829 -0.9951763
vn -0.2966857 0.5147018 -0.80440015
g decoRockCave03_0
f 3/3/3 2/2/2 1/1/1
f 6/6/6 5/5/5 4/4/4
f 8/8/8 7/7/7 5/5/5
f 8/8/8 9/9/9 7/7/7
f 10/10/10 9/9/9 8/8/8
f 5/5/5 11/11/11 8/8/8
f 11/11/11 5/5/5 12/12/12
f 13/13/13 10/10/10 8/8/8
f 8/8/8 11/11/11 13/13/13
f 14/14/14 11/11/11 12/12/12
f 13/13/13 11/11/11 14/14/14
f 14/14/14 12/12/12 15/15/15
f 16/16/16 10/10/10 13/13/13
f 16/16/16 13/13/13 14/14/14
f 16/16/16 17/17/17 10/10/10
f 16/16/16 14/14/14 18/18/18
f 17/17/17 16/16/16 18/18/18
f 15/15/15 19/19/19 14/14/14
f 15/15/15 20/20/20 19/19/19
f 15/15/15 21/21/21 20/20/20
f 22/22/22 21/21/21 15/15/15
f 24/24/24 23/23/23 17/17/17
f 27/27/27 26/26/26 25/25/25
f 27/27/27 25/25/25 28/28/28
f 28/28/28 29/29/29 27/27/27
f 30/30/30 29/29/29 28/28/28
f 28/28/28 32/32/32 31/31/31
f 31/31/31 32/32/32 33/33/33
f 28/28/28 31/31/31 34/34/34
f 34/34/34 31/31/31 33/33/33
f 34/34/34 35/35/35 28/28/28
f 34/34/34 36/36/36 35/35/35
f 34/34/34 33/33/33 37/37/37
f 36/36/36 34/34/34 38/38/38
f 38/38/38 34/34/34 37/37/37
f 39/39/39 37/37/37 33/33/33
f 39/39/39 33/33/33 40/40/40
f 33/33/33 41/41/41 40/40/40
f 42/42/42 40/40/40 41/41/41
f 40/40/40 42/42/42 43/43/43
f 39/39/39 40/40/40 43/43/43
f 43/43/43 44/44/44 39/39/39
f 44/44/44 45/45/45 39/39/39
f 37/37/37 39/39/39 45/45/45
f 46/46/46 37/37/37 45/45/45
f 37/37/37 46/46/46 38/38/38
f 45/45/45 47/47/47 46/46/46
f 38/38/38 46/46/46 48/48/48
f 46/46/46 47/47/47 48/48/48
f 38/38/38 48/48/48 36/36/36
f 47/47/47 49/49/49 48/48/48
f 48/48/48 50/50/50 36/36/36
f 52/52/52 51/51/51 36/36/36
f 51/51/51 53/53/53 36/36/36
f 56/56/56 55/55/55 54/54/54
f 57/57/57 55/55/55 56/56/56
f 56/56/56 58/58/58 57/57/57
f 58/58/58 56/56/56 59/59/59
f 60/60/60 58/58/58 59/59/59
f 58/58/58 61/61/61 57/57/57
f 57/57/57 61/61/61 62/62/62
f 57/57/57 62/62/62 63/63/63
f 55/55/55 64/64/64 63/63/63
f 65/65/65 62/62/62 61/61/61
f 66/66/66 65/65/65 61/61/61
f 66/66/66 67/67/67 65/65/65
f 61/61/61 68/68/68 66/66/66
f 66/66/66 68/68/68 67/67/67
f 68/68/68 61/61/61 58/58/58
f 69/69/69 67/67/67 68/68/68
f 70/70/70 69/69/69 68/68/68
f 58/58/58 70/70/70 68/68/68
f 71/71/71 69/69/69 70/70/70
f 72/72/72 71/71/71 70/70/70
f 72/72/72 70/70/70 58/58/58
f 72/72/72 58/58/58 60/60/60
f 60/60/60 73/73/73 72/72/72
f 60/60/60 74/74/74 73/73/73
f 77/77/77 76/76/76 75/75/75
f 78/78/78 76/76/76 77/77/77
f 78/78/78 77/77/77 79/79/79
f 80/80/80 78/78/78 79/79/79
f 81/81/81 80/80/80 79/79/79
f 82/82/82 80/80/80 81/81/81
f 77/77/77 83/83/83 79/79/79
f 84/84/84 83/83/83 77/77/77
f 83/83/83 85/85/85 79/79/79
f 85/85/85 86/86/86 79/79/79
f 85/85/85 87/87/87 86/86/86
f 88/88/88 83/83/83 84/84/84
f 83/83/83 88/88/88 85/85/85
f 85/85/85 88/88/88 87/87/87
f 84/84/84 89/89/89 88/88/88
f 88/88/88 89/89/89 87/87/87
f 89/89/89 91/91/91 90/90/90
f 92/92/92 91/91/91 89/89/89
f 92/92/92 89/89/89 93/93/93
