g grassColony06
v 1.3586181 -0.06503098 -0.70674133
v 1.177002 -0.065030985 0.023547973
v 0.9781445 0.5906997 -0.90226746
v 0.9781445 0.5906997 -0.90226746
v 1.177002 -0.065030985 0.023547973
v 0.7965283 0.6861798 -0.17197937
v 1.925625 -0.065030985 0.8355188
v 1.7396704 -0.06503098 0.22893798
v 2.2788575 0.55667263 0.6524853
v 2.2788575 0.55667263 0.6524853
v 1.7396704 -0.06503098 0.22893798
v 2.092903 0.4870626 0.045903318
v 1.3963623 -0.06503098 -1.1727868
v 1.7168994 -0.065030985 -0.5357202
v 1.0662597 0.6077386 -1.0869873
v 1.0662597 0.6077386 -1.0869873
v 1.7168994 -0.065030985 -0.5357202
v 1.3867968 0.67724186 -0.44991943
v 1.8828564 -0.06503098 0.3185205
v 1.4237353 -0.065030985 0.73309815
v 1.6724023 0.47324494 -0.012573242
v 1.6724023 0.47324494 -0.012573242
v 1.4237353 -0.065030985 0.73309815
v 1.2132862 0.5376976 0.4020044
v 1.4322436 -0.065030985 -0.6471948
v 1.9024658 -0.06503098 -1.206444
v 1.7621728 0.6842079 -0.48040527
v 1.7621728 0.6842079 -0.48040527
v 1.9024658 -0.06503098 -1.206444
v 2.2323925 0.60155636 -1.0396557
v 0.98552245 -0.065030985 -0.05149719
v 1.5755175 -0.06503098 -0.5223187
v 1.2646484 0.5881247 0.19010803
v 1.2646484 0.5881247 0.19010803
v 1.5755175 -0.06503098 -0.5223187
v 1.8546435 0.51295376 -0.28071105
v -0.10443359 -0.065030985 -0.13375793
v 0.07366943 -0.065030985 -0.83382565
v 0.27852538 0.5904481 -0.036330566
v 0.4566284 0.59044796 -0.7363977
v -1.2720605 -0.065030985 0.3551947
v -0.64357907 -0.065030985 0.036516722
v -1.0977343 0.60321045 0.6989941
v -0.4692529 0.60321045 0.38031617
v -1.8837402 -0.065030985 -0.37321776
v -1.952893 -0.065030985 0.3397998
v -2.2737818 0.61944926 -0.41104674
v -2.342937 0.61944914 0.3019708
v -2.1472485 -0.065030985 0.2991333
v -1.7071997 -0.065030985 -0.26614136
v -1.8380249 0.6219665 0.5398529
v -1.3979784 0.6219665 -0.025421752
v 1.1851025 -0.065030985 1.5780352
v 0.48933104 -0.065030985 1.2758343
v 1.350415 0.49840316 1.1974286
v 0.654646 0.49840316 0.89522886
v -0.7138867 -0.065030985 0.20939758
v -1.2574682 -0.065030985 -0.21015014
v -0.48437986 0.58273286 -0.08795776
v -1.0279639 0.5827328 -0.5075055
v -0.655415 -0.065030985 0.83600706
v -0.18336181 -0.065030985 1.4297998
v -0.98023677 0.6766488 1.0942334
v -0.5081836 0.6766487 1.6880273
v -0.96532714 -0.065030985 -0.23264404
v -1.1360253 -0.065030985 0.4510278
v -1.3393164 0.60321045 -0.3260211
v -1.5100147 0.60321045 0.35765013
v 0.26115477 -0.065030985 -0.7635339
v -0.26399168 -0.065030985 -0.2675128
v -0.010185546 0.59298635 -1.050805
v -0.535332 0.59298635 -0.55478394
v -0.35972166 -0.065030985 1.5356665
v -0.3763379 -0.065030985 0.77728516
v 0.055136718 0.5483512 1.5265783
v 0.038520508 0.5483512 0.768197
v 0.4259082 -0.065030985 1.5538812
v 1.1627295 -0.065030985 1.3735589
v 0.5245508 0.62670076 1.9569452
v 1.2613721 0.62670064 1.7766229
v -0.8503784 -0.065030985 -0.80491394
v -0.92395264 -0.065030985 -1.5599011
v -0.43737793 0.49440733 -0.8451605
v -0.5109521 0.49440733 -1.6001483
v -1.1978271 -0.065030985 -1.4803668
v -0.68247557 -0.065030985 -0.92373836
v -1.5023193 0.6227049 -1.1984546
v -0.98696774 0.6227049 -0.64182556
v 0.23650879 -0.065030985 0.6915283
v 0.95818603 -0.065030985 0.5505292
v 0.31364012 0.6293842 1.0863086
v 1.0353173 0.6293842 0.94531006
v 0.83838624 -0.065030985 0.70407283
v 0.41211668 -0.065030985 0.12811767
v 1.1534497 0.6080154 0.4708911
v 0.7271802 0.6080153 -0.10506409
v 0.71180904 -0.065030985 0.1887097
v 0.34579834 -0.065030985 0.8264673
v 0.36293456 0.6293842 -0.01151001
v -0.0030761717 0.62938416 0.6262475
v -1.1350634 -0.065030985 1.1520458
v -1.7725781 -0.065030985 1.0222522
v -1.0640625 0.5406317 0.8033056
v -1.7015771 0.5406317 0.67351437
v -1.7157421 -0.065030985 1.0242699
v -1.2086523 -0.065030985 1.4318591
v -1.938706 0.5406317 1.3016638
v -1.4316162 0.5406316 1.7092528
v -1.3416187 -0.065030985 1.5088208
v -1.3656274 -0.065030985 0.8586731
v -0.9859668 0.5406317 1.495686
v -1.009978 0.5406317 0.8455395
v 1.9868358 -0.06503098 -1.0555444
v 1.251958 -0.06503098 -1.0436718
v 1.999768 0.5458774 -1.5443835
v 1.2648901 0.5685011 -1.5325122
v 2.047312 0.14071365 0.46638182
v 1.5684521 0.1512561 0.44013548
v 2.0757031 0.6241809 0.14258057
v 1.5968432 0.63472337 0.116335444
v 1.4493408 -0.06503098 0.47102782
v 2.0323534 -0.06503098 0.7303149
v 1.3269922 0.5904389 0.70397216
v 1.9100049 0.60569805 0.9632593
v 0.83208984 -0.065030985 -1.4126806
v 0.3255005 -0.065030985 -1.0077399
v 0.6105737 0.6232005 -1.6898016
v 0.103981934 0.6232005 -1.2848614
v 0.97315913 -0.065030985 -1.0266949
v 0.4602954 -0.065030985 -1.423659
v 1.19031 0.6232005 -1.3072467
v 0.67744625 0.6232005 -1.704212
v 0.3633496 -0.065030985 -1.0499432
v 0.99920654 -0.065030985 -1.1776111
v 0.43318847 0.6232005 -0.70211
v 1.0690454 0.6232005 -0.82977784
vt 1 0
vt 0.75 0
vt 1 1
vt 1 1
vt 0.75 0
vt 0.75 1
vt 0.25 0
vt 0 0
vt 0.25 1
vt 0.25 1
vt 0 0
vt 0 1
vt 1 0
vt 0.75 0
vt 1 1
vt 1 1
vt 0.75 0
vt 0.75 1
vt 1 0
vt 0.75 0
vt 1 1
vt 1 1
vt 0.75 0
vt 0.75 1
vt 0.75 0
vt 0.5 0
vt 0.75 1
vt 0.75 1
vt 0.5 0
vt 0.5 1
vt 0.25 0
vt 0 0
vt 0.25 1
vt 0.25 1
vt 0 0
vt 0 1
vt 0.75 0
vt 0.5 0
vt 0.75 1
vt 0.5 1
vt 0.25 0
vt 0 0
vt 0.25 1
vt 0 1
vt 0.75 0
vt 0.5 0
vt 0.75 1
vt 0.5 1
vt 0.5 0
vt 0.25 0
vt 0.5 1
vt 0.25 1
vt 0.25 0
vt 0 0
vt 0.25 1
vt 0 1
vt 1 0
vt 0.75 0
vt 1 1
vt 0.75 1
vt 1 0
vt 0.75 0
vt 1 1
vt 0.75 1
vt 0.75 0
vt 0.5 0
vt 0.75 1
vt 0.5 1
vt 0.5 0
vt 0.25 0
vt 0.5 1
vt 0.25 1
vt 0.25 0
vt 0 0
vt 0.25 1
vt 0 1
vt 1 0
vt 0.75 0
vt 1 1
vt 0.75 1
vt 0.25 0
vt 0 0
vt 0.25 1
vt 0 1
vt 1 0
vt 0.75 0
vt 1 1
vt 0.75 1
vt 0.25 0
vt 0 0
vt 0.25 1
vt 0 1
vt 1 0
vt 0.75 0
vt 1 1
vt 0.75 1
vt 0.75 0
vt 0.5 0
vt 0.75 1
vt 0.5 1
vt 0.5 0
vt 0.25 0
vt 0.5 1
vt 0.25 1
vt 0.75 0
vt 0.5 0
vt 0.75 1
vt 0.5 1
vt 0.25 0
vt 0 0
vt 0.25 1
vt 0 1
vt 0.25 0
vt 0 0
vt 0.25 1
vt 0 1
vt 0.5 0
vt 0.25 0
vt 0.5 1
vt 0.25 1
vt 0.75 0
vt 0.5 0
vt 0.75 1
vt 0.5 1
vt 0.5 0
vt 0.25 0
vt 0.5 1
vt 0.25 1
vt 0.25 0
vt 0 0
vt 0.25 1
vt 0 1
vt 0.75 0
vt 0.5 0
vt 0.75 1
vt 0.5 1
vn 0.81921506 0.53607875 0.20373112
vn 0.81921494 0.53607875 0.20373109
vn 0.81921506 0.5360788 0.20373112
vn 0.865062 0.47787473 0.15265518
vn 0.865062 0.47787473 0.15265518
vn 0.865062 0.47787473 0.15265518
vn -0.809113 0.5327387 0.24804355
vn -0.809113 0.53273875 0.24804352
vn -0.809113 0.53273875 0.24804352
vn -0.8004818 0.57175785 0.17978321
vn -0.8004817 0.57175785 0.17978318
vn -0.8004818 0.57175785 0.17978321
vn 0.80038625 0.44407898 -0.40271062
vn 0.80038625 0.4440789 -0.40271056
vn 0.80038625 0.44407892 -0.40271056
vn 0.7976953 0.4062667 -0.44567898
vn 0.7976953 0.4062667 -0.44567892
vn 0.79769534 0.40626666 -0.44567892
vn 0.54425293 0.58352864 0.6027297
vn 0.5442529 0.58352864 0.6027297
vn 0.5442529 0.5835287 0.60272974
vn 0.6063772 0.5349201 0.5883597
vn 0.6063772 0.5349201 0.5883598
vn 0.6063772 0.5349201 0.5883597
vn -0.68994117 0.43296102 -0.5801087
vn -0.68994105 0.43296105 -0.5801087
vn -0.6899411 0.43296105 -0.5801087
vn -0.64056194 0.46915853 -0.60792327
vn -0.64056194 0.46915853 -0.60792315
vn -0.64056194 0.46915856 -0.6079232
vn -0.54521954 0.48573545 -0.6832253
vn -0.5452195 0.48573548 -0.6832252
vn -0.54521954 0.48573545 -0.6832253
vn -0.48822024 0.5266697 -0.69588786
vn -0.48822033 0.5266697 -0.6958879
vn -0.4882203 0.52666974 -0.6958878
vn -0.829974 0.51629245 -0.21115227
vn -0.829974 0.51629233 -0.21115227
vn -0.829974 0.5162924 -0.21115227
vn -0.82997364 0.516293 -0.21115255
vn -0.3917405 0.49967209 -0.77257174
vn -0.3917405 0.49967209 -0.77257174
vn -0.39174053 0.4996721 -0.77257174
vn -0.3917399 0.4996703 -0.77257323
vn 0.8637839 0.49684918 0.08377498
vn 0.8637839 0.49684924 0.08377498
vn 0.86378384 0.49684924 0.08377499
vn 0.8637833 0.49684966 0.083778106
vn -0.68542206 0.49547076 -0.5335778
vn -0.68542206 0.49547076 -0.5335778
vn -0.6854221 0.4954707 -0.5335778
vn -0.68542093 0.4954729 -0.5335772
vn -0.32077745 0.59300834 0.73854107
vn -0.32077742 0.59300834 0.7385411
vn -0.32077742 0.59300834 0.73854107
vn -0.32077682 0.5930093 0.7385406
vn -0.5285603 0.5016402 0.6848219
vn -0.5285603 0.5016402 0.684822
vn -0.5285603 0.5016402 0.6848219
vn -0.52856076 0.5016377 0.68482345
vn 0.68313307 0.48825872 -0.54307705
vn 0.68313307 0.48825872 -0.5430772
vn 0.683133 0.48825878 -0.5430771
vn 0.6831329 0.48826024 -0.5430759
vn 0.840414 0.49967417 0.20983343
vn 0.840414 0.4996742 0.20983343
vn 0.840414 0.4996742 0.20983346
vn 0.8404159 0.49967048 0.2098343
vn 0.5886686 0.5148292 0.6232337
vn 0.5886686 0.5148292 0.62323374
vn 0.5886685 0.5148293 0.62323374
vn 0.5886676 0.5148296 0.62323415
vn -0.82807016 0.56033087 0.0181431
vn -0.82807016 0.56033087 0.018143103
vn -0.82807016 0.5603308 0.018143103
vn -0.82807016 0.56033087 0.018143116
vn -0.20384866 0.5144236 -0.832955
vn -0.20384866 0.5144236 -0.83295506
vn -0.20384866 0.5144236 -0.832955
vn -0.20384908 0.51442075 -0.8329566
vn -0.7993836 0.5957495 0.077900685
vn -0.7993836 0.59574956 0.077900685
vn -0.7993836 0.59574956 0.077900685
vn -0.7993894 0.59574145 0.077901214
vn 0.62828535 0.5166132 -0.58169436
vn 0.62828535 0.5166131 -0.5816943
vn 0.6282854 0.5166132 -0.5816943
vn 0.6282851 0.51661336 -0.58169466
vn -0.16592398 0.5012381 -0.8492524
vn -0.165924 0.5012381 -0.8492524
vn -0.16592401 0.5012381 -0.8492524
vn -0.16592388 0.501239 -0.8492518
vn -0.6945941 0.50325406 0.51407635
vn -0.6945941 0.50325394 0.5140763
vn -0.6945941 0.503254 0.5140763
vn -0.69459325 0.50325614 0.51407546
vn 0.7504974 0.501239 0.43071228
vn 0.75049746 0.50123894 0.43071228
vn 0.7504974 0.501239 0.43071228
vn 0.7504989 0.50123554 0.43071386
vn -0.1720044 0.50662005 0.8448376
vn -0.17200439 0.5066201 0.8448376
vn -0.1720044 0.50662005 0.84483767
vn -0.17199944 0.5066205 0.8448384
vn 0.54014254 0.506616 -0.6720018
vn 0.54014254 0.506616 -0.6720017
vn 0.54014254 0.506616 -0.6720017
vn 0.54014003 0.5066203 -0.6720004
vn -0.8615829 0.50661874 0.03181669
vn -0.8615829 0.5066188 0.03181669
vn -0.8615829 0.50661874 0.031816684
vn -0.8615854 0.5066144 0.031820077
vn 0.012615643 0.6245669 0.78086936
vn 0.012615643 0.6245669 0.78086936
vn 0.012615644 0.6245669 0.78086936
vn 0.03157267 0.6101886 0.7916269
vn -0.033190902 0.5575122 0.82950497
vn -0.033190906 0.5575123 0.8295049
vn -0.03319091 0.5575123 0.82950497
vn -0.03318917 0.55751204 0.82950515
vn 0.37722388 0.37184682 -0.84819347
vn 0.37722388 0.37184682 -0.8481934
vn 0.37722385 0.37184677 -0.84819347
vn 0.37045577 0.36431766 -0.854421
vn 0.5549854 0.45819315 0.69429845
vn 0.55498546 0.4581932 0.69429845
vn 0.5549854 0.45819315 0.69429845
vn 0.55498195 0.45819724 0.69429845
vn -0.5440547 0.4581882 0.70289975
vn -0.5440546 0.4581882 0.70289975
vn -0.54405457 0.45818824 0.7028998
vn -0.54405546 0.45819014 0.70289785
vn -0.1749741 0.45818913 -0.87146246
vn -0.17497407 0.45818913 -0.87146246
vn -0.17497407 0.45818913 -0.87146246
vn -0.1749718 0.45819664 -0.87145895
g grassColony06_0
f 3/3/3 2/2/2 1/1/1
f 6/6/6 5/5/5 4/4/4
f 9/9/9 8/8/8 7/7/7
f 12/12/12 11/11/11 10/10/10
f 15/15/15 14/14/14 13/13/13
f 18/18/18 17/17/17 16/16/16
f 21/21/21 20/20/20 19/19/19
f 24/24/24 23/23/23 22/22/22
f 27/27/27 26/26/26 25/25/25
f 30/30/30 29/29/29 28/28/28
f 33/33/33 32/32/32 31/31/31
f 36/36/36 35/35/35 34/34/34
f 39/39/39 38/38/38 37/37/37
f 40/40/40 38/38/38 39/39/39
f 43/43/43 42/42/42 41/41/41
f 44/44/44 42/42/42 43/43/43
f 47/47/47 46/46/46 45/45/45
f 48/48/48 46/46/46 47/47/47
f 51/51/51 50/50/50 49/49/49
f 52/52/52 50/50/50 51/51/51
f 55/55/55 54/54/54 53/53/53
f 56/56/56 54/54/54 55/55/55
f 59/59/59 58/58/58 57/57/57
f 60/60/60 58/58/58 59/59/59
f 63/63/63 62/62/62 61/61/61
f 64/64/64 62/62/62 63/63/63
f 67/67/67 66/66/66 65/65/65
f 68/68/68 66/66/66 67/67/67
f 71/71/71 70/70/70 69/69/69
f 72/72/72 70/70/70 71/71/71
f 75/75/75 74/74/74 73/73/73
f 76/76/76 74/74/74 75/75/75
f 79/79/79 78/78/78 77/77/77
f 80/80/80 78/78/78 79/79/79
f 83/83/83 82/82/82 81/81/81
f 84/84/84 82/82/82 83/83/83
f 87/87/87 86/86/86 85/85/85
f 88/88/88 86/86/86 87/87/87
f 91/91/91 90/90/90 89/89/89
f 92/92/92 90/90/90 91/91/91
f 95/95/95 94/94/94 93/93/93
f 96/96/96 94/94/94 95/95/95
f 99/99/99 98/98/98 97/97/97
f 100/100/100 98/98/98 99/99/99
f 103/103/103 102/102/102 101/101/101
f 104/104/104 102/102/102 103/103/103
f 107/107/107 106/106/106 105/105/105
f 108/108/108 106/106/106 107/107/107
f 111/111/111 110/110/110 109/109/109
f 112/112/112 110/110/110 111/111/111
f 115/115/115 114/114/114 113/113/113
f 116/116/116 114/114/114 115/115/115
f 119/119/119 118/118/118 117/117/117
f 120/120/120 118/118/118 119/119/119
f 123/123/123 122/122/122 121/121/121
f 124/124/124 122/122/122 123/123/123
f 127/127/127 126/126/126 125/125/125
f 128/128/128 126/126/126 127/127/127
f 131/131/131 130/130/130 129/129/129
f 132/132/132 130/130/130 131/131/131
f 135/135/135 134/134/134 133/133/133
f 136/136/136 134/134/134 135/135/135
