g fire_DLC_horns_LOD0
v -0.21685378 1.097003 0.10417552
v -0.23661852 1.1016854 0.111353874
v -0.23267098 1.0953944 0.08942333
v -0.22425275 1.0609008 0.10019879
v -0.25032622 1.0861211 0.09905921
v -0.23661852 1.1016854 0.111353874
v -0.19046277 1.0746027 0.12074235
v -0.14899918 1.022325 0.13711
v -0.21897127 1.0922836 0.130454
v -0.23661852 1.1016854 0.111353874
v -0.23407365 1.0807248 0.1511383
v -0.19739486 1.060214 0.16754058
v -0.22657844 1.0437739 0.19861448
v -0.14719859 0.9918441 0.20656201
v -0.21013157 0.9587338 0.23751217
v -0.14790542 0.91035056 0.23802763
v -0.18884535 0.88800746 0.24527627
v -0.16893385 0.83039725 0.23707202
v -0.11918635 0.84809226 0.22600648
v -0.08291391 0.8760483 0.1955937
v -0.11349089 0.92788875 0.20852283
v -0.106035024 0.9529538 0.1686532
v -0.071232215 0.896178 0.14632116
v -0.0846299 0.9149325 0.09698428
v -0.11523669 0.9629047 0.12331514
v -0.15007785 0.9693998 0.091181085
v -0.12206825 0.91445476 0.057568997
v -0.17228428 0.9081789 0.039566368
v -0.21059242 1.015767 0.09451245
v -0.19091873 0.95680076 0.072325915
v -0.236264 0.9433201 0.081901774
v -0.22078884 0.88466 0.048041433
v -0.2581819 0.86255294 0.08023466
v -0.26298746 1.049012 0.1124631
v -0.2749645 0.98397285 0.12171155
v -0.26675296 0.91705626 0.107002005
v -0.27851027 0.90065736 0.1508294
v -0.26867843 0.8365951 0.12729864
v -0.25647473 0.82368034 0.17890143
v -0.25125125 1.0810827 0.12723598
v -0.23661852 1.1016854 0.111353874
v -0.26547858 1.038256 0.16047063
v -0.27353525 0.95297724 0.19379804
v -0.26518822 0.8817993 0.19350155
v -0.23419453 0.88413376 0.22948319
v -0.21791196 0.8183042 0.21651152
v -0.16893385 0.83039725 0.23707202
v -0.18884535 0.88800746 0.24527627
v -0.21013157 0.9587338 0.23751217
v -0.22657844 1.0437739 0.19861448
v -0.23407365 1.0807248 0.1511383
v -0.23661852 1.1016854 0.111353874
v 0.21685378 1.097003 0.10417552
v 0.23267098 1.0953944 0.08942333
v 0.23661852 1.1016854 0.111353874
v 0.22425275 1.0609008 0.10019879
v 0.25032622 1.0861211 0.09905921
v 0.23661852 1.1016854 0.111353874
v 0.19046277 1.0746027 0.12074235
v 0.14899918 1.022325 0.13711
v 0.21897127 1.0922836 0.130454
v 0.23661852 1.1016854 0.111353874
v 0.23407365 1.0807248 0.1511383
v 0.19739486 1.060214 0.16754058
v 0.22657844 1.0437739 0.19861448
v 0.14719859 0.9918441 0.20656201
v 0.21013157 0.9587338 0.23751217
v 0.14790542 0.91035056 0.23802763
v 0.18884535 0.88800746 0.24527627
v 0.16893385 0.83039725 0.23707202
v 0.11918635 0.84809226 0.22600648
v 0.08291391 0.8760483 0.1955937
v 0.11349089 0.92788875 0.20852283
v 0.106035024 0.9529538 0.1686532
v 0.071232215 0.896178 0.14632116
v 0.0846299 0.9149325 0.09698428
v 0.11523669 0.9629047 0.12331514
v 0.15007785 0.9693998 0.091181085
v 0.12206825 0.91445476 0.057568997
v 0.17228428 0.9081789 0.039566368
v 0.21059242 1.015767 0.09451245
v 0.19091873 0.95680076 0.072325915
v 0.236264 0.9433201 0.081901774
v 0.22078884 0.88466 0.048041433
v 0.2581819 0.86255294 0.08023466
v 0.26298746 1.049012 0.1124631
v 0.2749645 0.98397285 0.12171155
v 0.26675296 0.91705626 0.107002005
v 0.27851027 0.90065736 0.1508294
v 0.26867843 0.8365951 0.12729864
v 0.25647473 0.82368034 0.17890143
v 0.25125125 1.0810827 0.12723598
v 0.23661852 1.1016854 0.111353874
v 0.26547858 1.038256 0.16047063
v 0.27353525 0.95297724 0.19379804
v 0.26518822 0.8817993 0.19350155
v 0.23419453 0.88413376 0.22948319
v 0.21791196 0.8183042 0.21651152
v 0.16893385 0.83039725 0.23707202
v 0.18884535 0.88800746 0.24527627
v 0.21013157 0.9587338 0.23751217
v 0.22657844 1.0437739 0.19861448
v 0.23407365 1.0807248 0.1511383
v 0.23661852 1.1016854 0.111353874
vt 0.8903202 0.69404364
vt 0.8751626 0.6503711
vt 0.8740687 0.6919534
vt 0.87243414 0.73121405
vt 0.8572429 0.6940434
vt 0.8751626 0.6503711
vt 0.90192986 0.73121405
vt 0.9083643 0.81757927
vt 0.9114083 0.69404364
vt 0.8751626 0.6503711
vt 0.9291149 0.69404364
vt 0.93354005 0.73121405
vt 0.9649879 0.73121405
vt 0.94420797 0.81757927
vt 0.98273635 0.81757927
vt 0.96013784 0.8573338
vt 0.97794724 0.8573338
vt 0.973824 0.8915609
vt 0.9572672 0.8915609
vt 0.9407104 0.8915609
vt 0.941898 0.8655451
vt 0.9247309 0.8573338
vt 0.9233919 0.8915609
vt 0.90607333 0.8915609
vt 0.9069472 0.8655451
vt 0.8897166 0.8573338
vt 0.88893884 0.8915609
vt 0.87180436 0.8915609
vt 0.87287563 0.81757927
vt 0.8722185 0.8655451
vt 0.8549398 0.85733366
vt 0.85485584 0.8915609
vt 0.8379073 0.8915609
vt 0.8429679 0.73121405
vt 0.83719915 0.8175788
vt 0.837635 0.86554503
vt 0.82001007 0.85733366
vt 0.8211911 0.8915609
vt 0.8044748 0.8915609
vt 0.8359099 0.69404364
vt 0.8751626 0.6503711
vt 0.8112704 0.73121405
vt 0.80007744 0.81757927
vt 0.80265963 0.8655451
vt 0.78422225 0.8573338
vt 0.7869048 0.8915609
vt 0.7693348 0.8915609
vt 0.76600415 0.8573338
vt 0.7621356 0.81757927
vt 0.7822014 0.73121405
vt 0.8208843 0.69404364
vt 0.8751626 0.6503711
vt 0.8903202 0.69404364
vt 0.8740687 0.6919534
vt 0.8751626 0.6503711
vt 0.87243414 0.73121405
vt 0.8572429 0.6940434
vt 0.8751626 0.6503711
vt 0.90192986 0.73121405
vt 0.9083643 0.81757927
vt 0.9114083 0.69404364
vt 0.8751626 0.6503711
vt 0.9291149 0.69404364
vt 0.93354005 0.73121405
vt 0.9649879 0.73121405
vt 0.94420797 0.81757927
vt 0.98273635 0.81757927
vt 0.96013784 0.8573338
vt 0.97794724 0.8573338
vt 0.973824 0.8915609
vt 0.9572672 0.8915609
vt 0.9407104 0.8915609
vt 0.941898 0.8655451
vt 0.9247309 0.8573338
vt 0.9233919 0.8915609
vt 0.90607333 0.8915609
vt 0.9069472 0.8655451
vt 0.8897166 0.8573338
vt 0.88893884 0.8915609
vt 0.87180436 0.8915609
vt 0.87287563 0.81757927
vt 0.8722185 0.8655451
vt 0.8549398 0.85733366
vt 0.85485584 0.8915609
vt 0.8379073 0.8915609
vt 0.8429679 0.73121405
vt 0.83719915 0.8175788
vt 0.837635 0.86554503
vt 0.82001007 0.85733366
vt 0.8211911 0.8915609
vt 0.8044748 0.8915609
vt 0.8359099 0.69404364
vt 0.8751626 0.6503711
vt 0.8112704 0.73121405
vt 0.80007744 0.81757927
vt 0.80265963 0.8655451
vt 0.78422225 0.8573338
vt 0.7869048 0.8915609
vt 0.7693348 0.8915609
vt 0.76600415 0.8573338
vt 0.7621356 0.81757927
vt 0.7822014 0.73121405
vt 0.8208843 0.69404364
vt 0.8751626 0.6503711
vn 0.72854805 0.46610647 -0.50195867
vn -0.33291665 0.93218315 0.14213035
vn 0.13445622 -0.01342619 -0.9908285
vn 0.12806605 0.023407236 -0.9914894
vn -0.7202494 0.04289399 -0.6923878
vn -0.33291665 0.93218315 0.14213035
vn 0.75649 0.56919456 -0.32208753
vn 0.75279576 0.6460675 -0.12607624
vn 0.4320101 0.8301349 0.3524816
vn -0.33291665 0.93218315 0.14213035
vn -0.30983916 0.75104105 0.58304113
vn 0.5750463 0.7053669 0.41446257
vn -0.36231068 0.44859818 0.81700104
vn 0.54028475 0.54731125 0.6391736
vn -0.2805864 0.29682812 0.9127783
vn 0.3714528 0.12782137 0.91961104
vn -0.06962268 -0.09901034 0.9926479
vn -0.04038069 -0.16590956 0.98531383
vn 0.42404667 0.033766575 0.9050106
vn 0.7446437 0.26861635 0.61102456
vn 0.7202218 0.29632565 0.6272731
vn 0.8473895 0.49480167 0.19261955
vn 0.8625912 0.47476348 0.17474595
vn 0.7367216 0.6106794 -0.29036528
vn 0.7539046 0.5870211 -0.29501548
vn 0.4187805 0.5901552 -0.6901736
vn 0.39911163 0.6278008 -0.66826344
vn -0.06993046 0.52572036 -0.84777814
vn 0.047795024 0.24139176 -0.96925
vn -0.054216903 0.4775146 -0.8769494
vn -0.52335835 0.28952202 -0.80141944
vn -0.5339853 0.32431892 -0.78081816
vn -0.8743414 0.08438045 -0.4779196
vn -0.8375878 0.09950298 -0.5371647
vn -0.92910236 0.13635541 -0.3437674
vn -0.8739513 0.06136628 -0.4821236
vn -0.9960854 -0.087728396 -0.010846803
vn -0.9912985 -0.12804247 -0.030534033
vn -0.8605461 -0.25577822 0.44049725
vn -0.86771786 0.46666458 0.17114308
vn -0.33291665 0.93218315 0.14213035
vn -0.86592466 0.27643207 0.41684505
vn -0.8190542 0.17703299 0.5457194
vn -0.8657596 -0.21154 0.453554
vn -0.5407088 -0.16175114 0.8255123
vn -0.5157369 -0.27488327 0.81145215
vn -0.04038069 -0.16590956 0.98531383
vn -0.06962268 -0.09901034 0.9926479
vn -0.2805864 0.29682812 0.9127783
vn -0.36231068 0.44859818 0.81700104
vn -0.30983916 0.75104105 0.58304113
vn -0.33291665 0.93218315 0.14213035
vn -0.7285482 0.46610627 -0.5019585
vn -0.13445629 -0.01342602 -0.9908285
vn 0.33291686 0.932183 0.14213055
vn -0.12806585 0.023407148 -0.9914894
vn 0.72024935 0.04289395 -0.6923879
vn 0.33291686 0.932183 0.14213055
vn -0.75649 0.5691947 -0.32208747
vn -0.75279576 0.64606756 -0.12607622
vn -0.43200985 0.8301346 0.35248283
vn 0.33291686 0.932183 0.14213055
vn 0.30983913 0.75104046 0.58304197
vn -0.5750462 0.7053668 0.41446295
vn 0.36231053 0.448598 0.8170011
vn -0.5402848 0.5473112 0.6391735
vn 0.28058627 0.29682818 0.91277844
vn -0.37145278 0.12782143 0.9196111
vn 0.06962255 -0.09901019 0.9926479
vn 0.040380366 -0.16590932 0.9853139
vn -0.42404678 0.03376668 0.9050106
vn -0.7446439 0.2686165 0.6110243
vn -0.72022206 0.29632577 0.62727284
vn -0.8473896 0.4948017 0.19261937
vn -0.8625912 0.47476342 0.17474577
vn -0.7367216 0.6106795 -0.29036486
vn -0.7539046 0.58702123 -0.29501516
vn -0.4187806 0.59015554 -0.69017345
vn -0.39911184 0.6278012 -0.668263
vn 0.069930114 0.52572036 -0.84777826
vn -0.047794875 0.24139169 -0.96925
vn 0.054216575 0.47751465 -0.87694955
vn 0.52335817 0.28952175 -0.8014196
vn 0.533985 0.32431853 -0.7808184
vn 0.8743413 0.08438043 -0.47791958
vn 0.83758765 0.09950295 -0.5371648
vn 0.9291023 0.13635536 -0.34376743
vn 0.8739513 0.06136627 -0.4821236
vn 0.9960854 -0.08772839 -0.010846597
vn 0.9912985 -0.12804244 -0.03053378
vn 0.86054593 -0.25577816 0.44049758
vn 0.86771786 0.46666446 0.17114286
vn 0.33291686 0.932183 0.14213055
vn 0.86592466 0.27643204 0.4168451
vn 0.819054 0.17703292 0.5457195
vn 0.86575943 -0.21153994 0.45355415
vn 0.54070854 -0.16175099 0.8255125
vn 0.5157366 -0.2748831 0.81145245
vn 0.040380366 -0.16590932 0.9853139
vn 0.06962255 -0.09901019 0.9926479
vn 0.28058627 0.29682818 0.91277844
vn 0.36231053 0.448598 0.8170011
vn 0.30983913 0.75104046 0.58304197
vn 0.33291686 0.932183 0.14213055
g fire_DLC_horns_LOD0_0
f 3/3/3 2/2/2 1/1/1
f 4/4/4 3/3/3 1/1/1
f 5/5/5 3/3/3 4/4/4
f 5/5/5 6/6/6 3/3/3
f 7/7/7 4/4/4 1/1/1
f 4/4/4 7/7/7 8/8/8
f 7/7/7 1/1/1 9/9/9
f 1/1/1 10/10/10 9/9/9
f 9/9/9 10/10/10 11/11/11
f 12/12/12 7/7/7 9/9/9
f 12/12/12 9/9/9 11/11/11
f 8/8/8 7/7/7 12/12/12
f 12/12/12 11/11/11 13/13/13
f 14/14/14 12/12/12 13/13/13
f 14/14/14 8/8/8 12/12/12
f 14/14/14 13/13/13 15/15/15
f 16/16/16 14/14/14 15/15/15
f 17/17/17 16/16/16 15/15/15
f 17/17/17 18/18/18 16/16/16
f 18/18/18 19/19/19 16/16/16
f 19/19/19 20/20/20 16/16/16
f 21/21/21 14/14/14 16/16/16
f 20/20/20 21/21/21 16/16/16
f 21/21/21 22/22/22 14/14/14
f 21/21/21 20/20/20 22/22/22
f 14/14/14 22/22/22 8/8/8
f 20/20/20 23/23/23 22/22/22
f 23/23/23 24/24/24 22/22/22
f 24/24/24 25/25/25 22/22/22
f 8/8/8 22/22/22 25/25/25
f 25/25/25 24/24/24 26/26/26
f 25/25/25 26/26/26 8/8/8
f 24/24/24 27/27/27 26/26/26
f 27/27/27 28/28/28 26/26/26
f 8/8/8 26/26/26 29/29/29
f 29/29/29 4/4/4 8/8/8
f 28/28/28 30/30/30 26/26/26
f 29/29/29 26/26/26 30/30/30
f 30/30/30 28/28/28 31/31/31
f 30/30/30 31/31/31 29/29/29
f 28/28/28 32/32/32 31/31/31
f 32/32/32 33/33/33 31/31/31
f 34/34/34 4/4/4 29/29/29
f 34/34/34 5/5/5 4/4/4
f 29/29/29 31/31/31 35/35/35
f 35/35/35 34/34/34 29/29/29
f 33/33/33 36/36/36 31/31/31
f 35/35/35 31/31/31 36/36/36
f 36/36/36 33/33/33 37/37/37
f 36/36/36 37/37/37 35/35/35
f 33/33/33 38/38/38 37/37/37
f 38/38/38 39/39/39 37/37/37
f 40/40/40 5/5/5 34/34/34
f 40/40/40 41/41/41 5/5/5
f 42/42/42 34/34/34 35/35/35
f 42/42/42 40/40/40 34/34/34
f 37/37/37 43/43/43 35/35/35
f 43/43/43 42/42/42 35/35/35
f 39/39/39 44/44/44 37/37/37
f 44/44/44 43/43/43 37/37/37
f 44/44/44 39/39/39 45/45/45
f 44/44/44 45/45/45 43/43/43
f 39/39/39 46/46/46 45/45/45
f 46/46/46 47/47/47 45/45/45
f 47/47/47 48/48/48 45/45/45
f 48/48/48 49/49/49 45/45/45
f 45/45/45 49/49/49 43/43/43
f 43/43/43 49/49/49 42/42/42
f 49/49/49 50/50/50 42/42/42
f 51/51/51 42/42/42 50/50/50
f 42/42/42 51/51/51 40/40/40
f 51/51/51 52/52/52 40/40/40
f 55/55/55 54/54/54 53/53/53
f 54/54/54 56/56/56 53/53/53
f 54/54/54 57/57/57 56/56/56
f 58/58/58 57/57/57 54/54/54
f 56/56/56 59/59/59 53/53/53
f 59/59/59 56/56/56 60/60/60
f 53/53/53 59/59/59 61/61/61
f 62/62/62 53/53/53 61/61/61
f 62/62/62 61/61/61 63/63/63
f 59/59/59 64/64/64 61/61/61
f 61/61/61 64/64/64 63/63/63
f 59/59/59 60/60/60 64/64/64
f 63/63/63 64/64/64 65/65/65
f 64/64/64 66/66/66 65/65/65
f 60/60/60 66/66/66 64/64/64
f 65/65/65 66/66/66 67/67/67
f 66/66/66 68/68/68 67/67/67
f 68/68/68 69/69/69 67/67/67
f 70/70/70 69/69/69 68/68/68
f 71/71/71 70/70/70 68/68/68
f 72/72/72 71/71/71 68/68/68
f 66/66/66 73/73/73 68/68/68
f 73/73/73 72/72/72 68/68/68
f 74/74/74 73/73/73 66/66/66
f 72/72/72 73/73/73 74/74/74
f 74/74/74 66/66/66 60/60/60
f 75/75/75 72/72/72 74/74/74
f 76/76/76 75/75/75 74/74/74
f 77/77/77 76/76/76 74/74/74
f 74/74/74 60/60/60 77/77/77
f 76/76/76 77/77/77 78/78/78
f 78/78/78 77/77/77 60/60/60
f 79/79/79 76/76/76 78/78/78
f 80/80/80 79/79/79 78/78/78
f 78/78/78 60/60/60 81/81/81
f 56/56/56 81/81/81 60/60/60
f 82/82/82 80/80/80 78/78/78
f 78/78/78 81/81/81 82/82/82
f 80/80/80 82/82/82 83/83/83
f 83/83/83 82/82/82 81/81/81
f 84/84/84 80/80/80 83/83/83
f 85/85/85 84/84/84 83/83/83
f 56/56/56 86/86/86 81/81/81
f 57/57/57 86/86/86 56/56/56
f 83/83/83 81/81/81 87/87/87
f 86/86/86 87/87/87 81/81/81
f 88/88/88 85/85/85 83/83/83
f 83/83/83 87/87/87 88/88/88
f 85/85/85 88/88/88 89/89/89
f 89/89/89 88/88/88 87/87/87
f 90/90/90 85/85/85 89/89/89
f 91/91/91 90/90/90 89/89/89
f 57/57/57 92/92/92 86/86/86
f 93/93/93 92/92/92 57/57/57
f 86/86/86 94/94/94 87/87/87
f 92/92/92 94/94/94 86/86/86
f 95/95/95 89/89/89 87/87/87
f 94/94/94 95/95/95 87/87/87
f 96/96/96 91/91/91 89/89/89
f 95/95/95 96/96/96 89/89/89
f 91/91/91 96/96/96 97/97/97
f 97/97/97 96/96/96 95/95/95
f 98/98/98 91/91/91 97/97/97
f 99/99/99 98/98/98 97/97/97
f 100/100/100 99/99/99 97/97/97
f 101/101/101 100/100/100 97/97/97
f 101/101/101 97/97/97 95/95/95
f 101/101/101 95/95/95 94/94/94
f 102/102/102 101/101/101 94/94/94
f 94/94/94 103/103/103 102/102/102
f 103/103/103 94/94/94 92/92/92
f 104/104/104 103/103/103 92/92/92
