g lucky_DLC_bib_LOD3
v -1.041365E-07 -0.0047782697 -0.22038499
v -9.268631E-08 0.03981512 0.4019798
v 0.30027515 0.07084387 0.3002754
v 0.35641876 0.28434145 0.3564191
v 0.38499123 0.049566343 -0.14135443
v -1.041365E-07 -0.0047782697 -0.22038499
v -1.0579447E-07 0.28249127 0.50258857
v -0.3002752 0.07084387 0.3002752
v -1.041365E-07 -0.0047782697 -0.22038499
v 0.4849232 0.28284508 -0.15188652
v 0.34251237 0.36410335 0.34251276
v -8.9444185E-08 0.34946105 0.48950467
v 0.47202572 0.3526623 -0.13805337
v -0.3564187 0.28434145 0.35641885
v -0.34251237 0.36410353 0.34251246
v -0.48492315 0.2828451 -0.15188645
v -0.4720256 0.35266238 -0.13805328
v 0.30027533 0.075328425 -0.30027515
v -1.041365E-07 -0.0047782697 -0.22038499
v -8.330875E-08 0.044299655 -0.40197986
v 0.35641897 0.28434145 -0.3564188
v 0.3425126 0.36410335 -0.34251237
v -8.689955E-08 0.28249127 -0.5025887
v -6.655817E-08 0.3494609 -0.48950487
v -0.38499126 0.04956647 -0.14135443
v -1.041365E-07 -0.0047782697 -0.22038499
v -0.35641912 0.28434145 -0.35641873
v -0.34251264 0.3641034 -0.3425123
v -8.689955E-08 0.28249127 -0.5025887
v -6.655817E-08 0.3494609 -0.48950487
v -0.30027536 0.075328425 -0.30027515
v -8.330875E-08 0.044299655 -0.40197986
v -1.041365E-07 -0.0047782697 -0.22038499
v -0.29326478 0.4216086 -0.29326484
v 6.112218E-08 0.39478582 -0.5127297
v 5.04353E-08 0.4216086 -0.414739
v -0.36255467 0.39478582 -0.36255473
v -0.40359682 0.4216086 -0.10734239
v 6.2075856E-08 0.32706356 -0.49544197
v -0.49895498 0.39478582 -0.13270426
v -0.29326487 0.4216086 0.29326484
v -0.3503304 0.32706353 -0.35033047
v 5.9031635E-08 0.2985763 -0.42104298
v -0.29772234 0.29857627 -0.2977224
v -0.4821317 0.32706356 -0.12822986
v -0.4097314 0.2985763 -0.10897398
v -0.36255476 0.39478582 0.36255473
v -1.1365656E-08 0.4216086 0.41473913
v -0.35033047 0.32706353 0.35033047
v -0.29772243 0.29857627 0.29772243
v -1.5280545E-08 0.39478582 0.5127299
v 0.2932649 0.4216086 0.29326493
v -1.1750793E-08 0.32706356 0.49544215
v -3.7086854E-09 0.2985763 0.4210431
v 0.3625548 0.39478582 0.36255485
v 0.40359676 0.4216086 -0.107342295
v 0.35033053 0.32706353 0.3503306
v 0.29772246 0.29857627 0.2977225
v 0.49895486 0.39478582 -0.13270415
v 0.29326478 0.4216086 -0.2932647
v 0.48213157 0.32706356 -0.12822977
v 0.40973136 0.2985763 -0.108973876
v 0.36255467 0.39478582 -0.36255458
v 5.04353E-08 0.4216086 -0.414739
v 6.112218E-08 0.39478582 -0.5127297
v 0.3503304 0.32706353 -0.35033032
v 0.29772237 0.29857627 -0.29772228
v 6.2075856E-08 0.32706356 -0.49544197
v 5.9031635E-08 0.2985763 -0.42104298
v -0 0.27429482 0.44299325
v -0 0.20616055 0.5399754
v 0.07153523 0.2836191 0.49636272
v -0 0.37127692 0.5111275
v -0 0.20616055 0.5399754
v 0.059261724 0.298918 0.5839289
v -0 0.37127692 0.5111275
v -0 0.20616055 0.5399754
v -0 0.30314267 0.6081096
v -0 0.37127692 0.5111275
v -0 0.20616055 0.5399754
v -0.05926172 0.29891798 0.5839289
v -0 0.37127692 0.5111275
v -0 0.20616055 0.5399754
v -0.07153522 0.2836191 0.49636272
v -0 0.37127692 0.5111275
v -0 0.20616055 0.5399754
v -0 0.27429482 0.44299325
v -0 0.37127692 0.5111275
vt 0.9487028 0.12970433
vt 0.4996432 0.2246162
vt 0.62540185 0.25406417
vt 0.6255446 0.28347793
vt 0.75634444 0.22635195
vt 0.9487028 0.12970433
vt 0.49964315 0.271305
vt 0.3738935 0.25401244
vt 0.051299483 0.12966767
vt 0.7481701 0.27104756
vt 0.6256643 0.3346455
vt 0.49964315 0.32813677
vt 0.74500793 0.32697338
vt 0.3737499 0.2834265
vt 0.37362874 0.33461645
vt 0.25486577 0.27113807
vt 0.2580639 0.3270554
vt 0.8331821 0.25193655
vt 0.9487028 0.12970433
vt 0.94870454 0.22004938
vt 0.83334345 0.2815525
vt 0.83347833 0.3323871
vt 0.94870454 0.26749805
vt 0.94870454 0.3243285
vt 0.24660043 0.22640964
vt 0.051299483 0.12966767
vt 0.16874662 0.28145495
vt 0.1686098 0.3323266
vt 0.05129853 0.26762694
vt 0.051297992 0.32446963
vt 0.16891073 0.25184262
vt 0.05129856 0.22029331
vt 0.051299483 0.12966767
vt 0.13439354 0.63324726
vt 0.012009442 0.56685835
vt 0.012009442 0.63324726
vt 0.13439354 0.5668582
vt 0.21493064 0.63324726
vt 0.012009442 0.4974838
vt 0.21493064 0.5668582
vt 0.37916368 0.63324726
vt 0.13439354 0.4974838
vt 0.012009442 0.42242175
vt 0.13439354 0.42242175
vt 0.21493064 0.4974838
vt 0.21493065 0.42242175
vt 0.37916368 0.5668582
vt 0.5035334 0.63324726
vt 0.37916368 0.4974838
vt 0.37916368 0.42242175
vt 0.5035335 0.5668582
vt 0.6274712 0.6332474
vt 0.50353336 0.4974838
vt 0.5035335 0.42242175
vt 0.6274712 0.5668582
vt 0.78979576 0.63324726
vt 0.6274712 0.4974838
vt 0.6274713 0.42242175
vt 0.78979576 0.5668582
vt 0.8688275 0.63324726
vt 0.78979576 0.4974838
vt 0.7897957 0.42242175
vt 0.8688275 0.56685835
vt 0.98939127 0.63324726
vt 0.98939127 0.56685835
vt 0.8688276 0.4974838
vt 0.8688275 0.42242175
vt 0.98939127 0.4974838
vt 0.98939127 0.42242175
vt 0.53195834 0.83432627
vt 0.2785939 0.6475828
vt 0.441504 0.822465
vt 0.26573014 0.98477966
vt 0.2785939 0.6475828
vt 0.3373708 0.8188562
vt 0.26573014 0.98477966
vt 0.2785939 0.6475828
vt 0.27231836 0.8176624
vt 0.26573014 0.98477966
vt 0.2785939 0.6475828
vt 0.20725328 0.81654084
vt 0.26573014 0.98477966
vt 0.2785939 0.6475828
vt 0.103050485 0.81334764
vt 0.26573014 0.98477966
vt 0.2785939 0.6475828
vt 0.012456834 0.8021691
vt 0.26573014 0.98477966
vn -0 -0.9997614 -0.021843355
vn -0 -0.89659536 0.4428507
vn 0.4751817 -0.8133874 0.3355641
vn 0.77905375 -0.23649642 0.58064145
vn 0.54824966 -0.83614075 0.017059535
vn -0 -0.9997614 -0.021843355
vn -0 -0.22350433 0.9747029
vn -0.47518197 -0.8133874 0.33556393
vn -0 -0.9997614 -0.021843355
vn 0.9742225 -0.2254969 -0.006454263
vn 0.7907588 0.20395826 0.5771495
vn -0 0.21783613 0.9759854
vn 0.97838634 0.20484044 0.028295798
vn -0.7790539 -0.23649591 0.5806415
vn -0.79075915 0.20395839 0.577149
vn -0.9742226 -0.22549638 -0.006454117
vn -0.9783862 0.20484067 0.028296055
vn 0.4456235 -0.63547134 -0.6305521
vn -0 -0.9997614 -0.021843355
vn -0 -0.6520771 -0.75815266
vn 0.5715295 -0.21555308 -0.79176444
vn 0.57499254 0.22772434 -0.7858278
vn -0 -0.22644645 -0.97402364
vn -0 0.21783641 -0.9759853
vn -0.54824984 -0.8361406 0.017059518
vn -0 -0.9997614 -0.021843355
vn -0.57152987 -0.2155529 -0.79176414
vn -0.5749927 0.22772479 -0.7858275
vn -0 -0.22644645 -0.97402364
vn -0 0.21783641 -0.9759853
vn -0.44562367 -0.6354713 -0.63055193
vn -0 -0.6520771 -0.75815266
vn -0 -0.9997614 -0.021843355
vn -0.15910363 0.9637917 -0.21398936
vn -0 0.5353258 -0.8446456
vn -0 0.9645184 -0.26401564
vn -0.51157165 0.54755574 -0.6621761
vn -0.2723006 0.9621922 0.006206809
vn -0 -0.6081039 -0.7938575
vn -0.8573664 0.51455295 -0.012578733
vn -0.21310161 0.96383846 0.1600095
vn -0.47841355 -0.61534756 -0.6264725
vn -0 -0.93388176 -0.35758206
vn -0.21544343 -0.93259853 -0.28955868
vn -0.8073693 -0.59004223 -0.0022416092
vn -0.36800775 -0.9297871 0.008141001
vn -0.67411715 0.51346725 0.53095895
vn -0 0.9645184 0.26401561
vn -0.6364439 -0.59250975 0.49383327
vn -0.2883447 -0.9326827 0.21670303
vn -0 0.535326 0.8446455
vn 0.21310163 0.9638386 0.16000931
vn -0 -0.6081039 0.7938574
vn -0 -0.9338819 0.35758182
vn 0.67411715 0.5134672 0.53095907
vn 0.27230063 0.9621922 0.006206774
vn 0.63644403 -0.5925096 0.4938333
vn 0.28834477 -0.9326827 0.21670294
vn 0.85736644 0.51455283 -0.012578759
vn 0.15910372 0.9637917 -0.21398926
vn 0.80736935 -0.590042 -0.0022417288
vn 0.36800817 -0.9297869 0.008140951
vn 0.51157194 0.5475556 -0.662176
vn -0 0.9645184 -0.26401564
vn -0 0.5353258 -0.8446456
vn 0.47841382 -0.6153475 -0.62647235
vn 0.21544369 -0.9325983 -0.28955877
vn -0 -0.6081039 -0.7938575
vn -0 -0.93388176 -0.35758206
vn -0 -0.17210558 -0.98507845
vn -0 -0.99723595 0.07429953
vn 0.92387944 -0.06586203 -0.37697348
vn -0 0.9633522 -0.2682397
vn -0 -0.99723595 0.07429953
vn 0.82465464 0.09734947 0.5571963
vn -0 0.9633522 -0.2682397
vn -0 -0.99723595 0.07429953
vn -0 0.17210577 0.98507845
vn -0 0.9633522 -0.2682397
vn -0 -0.99723595 0.07429953
vn -0.8246549 0.097349025 0.55719614
vn -0 0.9633522 -0.2682397
vn -0 -0.99723595 0.07429953
vn -0.92387944 -0.06586214 -0.37697342
vn -0 0.9633522 -0.2682397
vn -0 -0.99723595 0.07429953
vn -0 -0.17210558 -0.98507845
vn -0 0.9633522 -0.2682397
g lucky_DLC_bib_LOD3_0
f 3/3/3 2/2/2 1/1/1
f 3/3/3 4/4/4 2/2/2
f 4/4/4 3/3/3 5/5/5
f 5/5/5 3/3/3 6/6/6
f 4/4/4 7/7/7 2/2/2
f 2/2/2 7/7/7 8/8/8
f 9/9/9 2/2/2 8/8/8
f 10/10/10 4/4/4 5/5/5
f 4/4/4 11/11/11 7/7/7
f 11/11/11 4/4/4 10/10/10
f 11/11/11 12/12/12 7/7/7
f 13/13/13 11/11/11 10/10/10
f 7/7/7 12/12/12 14/14/14
f 7/7/7 14/14/14 8/8/8
f 12/12/12 15/15/15 14/14/14
f 16/16/16 14/14/14 15/15/15
f 8/8/8 14/14/14 16/16/16
f 17/17/17 16/16/16 15/15/15
f 10/10/10 5/5/5 18/18/18
f 5/5/5 19/19/19 18/18/18
f 19/19/19 20/20/20 18/18/18
f 13/13/13 10/10/10 21/21/21
f 21/21/21 10/10/10 18/18/18
f 18/18/18 20/20/20 21/21/21
f 22/22/22 13/13/13 21/21/21
f 20/20/20 23/23/23 21/21/21
f 22/22/22 21/21/21 24/24/24
f 21/21/21 23/23/23 24/24/24
f 25/25/25 8/8/8 16/16/16
f 25/25/25 26/26/26 8/8/8
f 27/27/27 16/16/16 17/17/17
f 25/25/25 16/16/16 27/27/27
f 28/28/28 27/27/27 17/17/17
f 29/29/29 27/27/27 28/28/28
f 30/30/30 29/29/29 28/28/28
f 31/31/31 27/27/27 29/29/29
f 31/31/31 25/25/25 27/27/27
f 32/32/32 31/31/31 29/29/29
f 25/25/25 31/31/31 32/32/32
f 33/33/33 25/25/25 32/32/32
f 36/36/36 35/35/35 34/34/34
f 35/35/35 37/37/37 34/34/34
f 34/34/34 37/37/37 38/38/38
f 35/35/35 39/39/39 37/37/37
f 37/37/37 40/40/40 38/38/38
f 38/38/38 40/40/40 41/41/41
f 39/39/39 42/42/42 37/37/37
f 37/37/37 42/42/42 40/40/40
f 39/39/39 43/43/43 42/42/42
f 43/43/43 44/44/44 42/42/42
f 42/42/42 44/44/44 45/45/45
f 42/42/42 45/45/45 40/40/40
f 44/44/44 46/46/46 45/45/45
f 40/40/40 47/47/47 41/41/41
f 40/40/40 45/45/45 47/47/47
f 41/41/41 47/47/47 48/48/48
f 45/45/45 46/46/46 49/49/49
f 45/45/45 49/49/49 47/47/47
f 46/46/46 50/50/50 49/49/49
f 47/47/47 51/51/51 48/48/48
f 47/47/47 49/49/49 51/51/51
f 48/48/48 51/51/51 52/52/52
f 49/49/49 50/50/50 53/53/53
f 49/49/49 53/53/53 51/51/51
f 50/50/50 54/54/54 53/53/53
f 51/51/51 55/55/55 52/52/52
f 51/51/51 53/53/53 55/55/55
f 52/52/52 55/55/55 56/56/56
f 53/53/53 54/54/54 57/57/57
f 53/53/53 57/57/57 55/55/55
f 54/54/54 58/58/58 57/57/57
f 55/55/55 59/59/59 56/56/56
f 55/55/55 57/57/57 59/59/59
f 56/56/56 59/59/59 60/60/60
f 57/57/57 58/58/58 61/61/61
f 57/57/57 61/61/61 59/59/59
f 58/58/58 62/62/62 61/61/61
f 59/59/59 63/63/63 60/60/60
f 59/59/59 61/61/61 63/63/63
f 60/60/60 63/63/63 64/64/64
f 63/63/63 65/65/65 64/64/64
f 61/61/61 62/62/62 66/66/66
f 61/61/61 66/66/66 63/63/63
f 63/63/63 66/66/66 65/65/65
f 62/62/62 67/67/67 66/66/66
f 66/66/66 68/68/68 65/65/65
f 66/66/66 67/67/67 68/68/68
f 67/67/67 69/69/69 68/68/68
f 72/72/72 71/71/71 70/70/70
f 70/70/70 73/73/73 72/72/72
f 75/75/75 74/74/74 72/72/72
f 72/72/72 76/76/76 75/75/75
f 78/78/78 77/77/77 75/75/75
f 75/75/75 79/79/79 78/78/78
f 81/81/81 80/80/80 78/78/78
f 78/78/78 82/82/82 81/81/81
f 84/84/84 83/83/83 81/81/81
f 81/81/81 85/85/85 84/84/84
f 87/87/87 86/86/86 84/84/84
f 84/84/84 88/88/88 87/87/87
