g puddle_DLC_flower_LOD2
v -0.11131415 1.0268638 0.16682422
v -0.019830465 0.96474236 0.01178503
v -0.004027577 0.9323553 0.0007186786
v -0.004027577 0.9323553 0.0007186786
v -0.019830465 0.96474236 0.01178503
v -0.1698634 1.0360041 0.09624934
v -0.1698634 1.0360041 0.09624934
v -0.19876263 1.0259677 0.013310552
v -0.3172189 0.9612487 0.18314648
v -0.11131415 1.0268638 0.16682422
v -0.019830465 0.96474236 0.01178503
v 0.20013107 1.0268638 0.012988567
v 0.020121336 0.96474236 0.0112810135
v -0.0029981732 0.9323553 0.0015318962
v -0.0029981732 0.9323553 0.0015318962
v 0.020121336 0.96474236 0.0112810135
v 0.16828603 1.0360041 0.09898138
v 0.16828603 1.0360041 0.09898138
v 0.11090858 1.0259677 0.16547799
v 0.3172189 0.9612487 0.18314648
v 0.20013107 1.0268638 0.012988567
v 0.020121336 0.96474236 0.0112810135
v -0.08881703 1.0268638 -0.17981303
v -0.00029081106 0.96474236 -0.02306652
v -0.002808608 0.9323553 0.00023380108
v -0.002808608 0.9323553 0.00023380108
v 0.0015774512 1.0360041 -0.1952306
v 0.0015774512 1.0360041 -0.1952306
v 0.08785395 1.0259677 -0.17878854
v -0 0.9612487 -0.36629295
v -0.08881703 1.0268638 -0.17981303
v -0.00029081106 0.96474236 -0.02306652
v 0.024437208 1.0461142 -0.029431105
v -0.005375102 1.0421399 -0.04823111
v 0.0006109872 0.9617116 -0.022503601
v -0.011464636 1.2314048 -0.07297468
v 0.0006109872 0.9617116 -0.022503601
v -0.027461473 1.0434427 -0.02241087
v -0.011464636 1.2314048 -0.07297468
v 0.0006109872 0.9617116 -0.022503601
v -0.011132486 0.962244 -0.004546391
v 0.004940115 0.96392286 0.009579433
v 0.002415245 1.0477788 0.0048475266
v -0.011464636 1.2314048 -0.07297468
v 0.0006109872 0.9617116 -0.022503601
v 0.016683586 0.9633905 -0.008377777
v 0.002415245 1.0477788 0.0048475266
v 0.004940115 0.96392286 0.009579433
v -0.011464636 1.2314048 -0.07297468
v 0.0049342965 0.9699939 0.0044646263
v -0.01540125 1.03997 -0.009807825
v -0.008254614 0.96803105 -0.0074267387
v 0.007472951 1.0457705 0.01371336
v -0.059666555 1.144633 0.032503128
v -0.01540125 1.03997 -0.009807825
v -0.038552307 1.0258429 0.009512663
v -0.008254614 0.96803105 -0.0074267387
v -0.021017583 0.96253115 0.0038013458
v -0.038552307 1.0258429 0.009512663
v -0.007828651 0.96449393 0.01569295
v -0.015678111 1.0316433 0.033033848
v -0.059666555 1.144633 0.032503128
v 0.0049342965 0.9699939 0.0044646263
v 0.007472951 1.0457705 0.01371336
v 0.022953132 1.0448432 -0.012289286
v 0.0021287594 0.9795611 0.012145042
v 0.013996625 0.9795611 -0.0011968613
v 0.0008696229 1.0456486 0.012643456
v 0.06538257 1.1618266 0.0431571
v 0.0008696229 1.0456486 0.012643456
v 0.022035515 1.0416214 0.03793335
v 0.0021287594 0.9795611 0.012145042
v 0.013638126 0.9795611 0.025797367
v 0.00069248956 1.0480647 0.17992222
v 0.08881928 1.0697997 0.1798197
v 0.045380592 0.98212105 0.017673492
v -0 1.0072453 0.36629295
v -0.08785628 1.0689034 0.17879546
v -0.04523158 0.98655856 0.017347336
v -0.00021535158 0.95870626 0.021031857
v -0.00089126825 0.93381125 0.004067421
v -0.04523158 0.98655856 0.017347336
v -0.0015775093 1.0736713 0.1952442
v -0.08785628 1.0689034 0.17879546
v -0 1.0072453 0.36629295
v 0.08881928 1.0697997 0.1798197
v 0.00029075146 0.98242164 0.02306652
v -0.00089126825 0.93381125 0.004067421
v 0.045380592 0.98212105 0.017673492
v -0.15546471 1.005116 0.09055734
v -0.11131415 1.0268638 0.16682422
v -0.004027577 0.9323553 0.0007186786
v -0.19876263 1.0259677 0.013310552
v -0.3172189 0.9612487 0.18314648
v -0.15616341 1.0480647 -0.08936149
v -0.20013788 1.0697997 -0.012989998
v -0.037995815 0.9821211 0.030464172
v -0.3172189 1.0072453 -0.18314648
v -0.11091332 1.0689034 -0.16548347
v 0.0075924397 0.98655844 -0.047845364
v -0.01810658 0.9587062 -0.010702372
v -0.0030767918 0.93381125 -0.0028057098
v 0.0075924397 0.98655844 -0.047845364
v -0.16829783 1.0736713 -0.098988295
v -0.11091332 1.0689034 -0.16548347
v -0.3172189 1.0072453 -0.18314648
v -0.20013788 1.0697997 -0.012989998
v -0.020121336 0.9824215 -0.0112810135
v -0.0030767918 0.93381125 -0.0028057098
v -0.037995815 0.9821211 0.030464172
v 0.15615731 1.005116 0.089357674
v 0.20013107 1.0268638 0.012988567
v -0.0029981732 0.9323553 0.0015318962
v 0.11090858 1.0259677 0.16547799
v 0.3172189 0.9612487 0.18314648
v 0.044118866 1.040816 0.013000846
v 0.022953132 1.0448432 -0.012289286
v 0.013996625 0.9795611 -0.0011968613
v 0.025505813 0.9795611 0.012455463
v 0.06538257 1.1618266 0.0431571
v 0.013638126 0.9795611 0.025797367
v 0.022035515 1.0416214 0.03793335
v -0.0006926963 1.005116 -0.17991507
v -0.08881703 1.0268638 -0.17981303
v -0.002808608 0.9323553 0.00023380108
v 0.08785395 1.0259677 -0.17878854
v -0 0.9612487 -0.36629295
v 0.15547101 1.0480647 -0.090560794
v 0.11131873 1.0697997 -0.16682947
v -0.007384777 0.982121 -0.048137188
v 0.3172189 1.0072453 -0.18314648
v 0.19876966 1.0689034 -0.013311982
v 0.037638903 0.9865585 0.030498028
v 0.018321872 0.9587062 -0.010329485
v 0.0039680004 0.93381125 -0.0012617111
v 0.037638903 0.9865585 0.030498028
v 0.16987526 1.0736713 -0.09625602
v 0.19876966 1.0689034 -0.013311982
v 0.3172189 1.0072453 -0.18314648
v 0.11131873 1.0697997 -0.16682947
v 0.019830465 0.9824216 -0.01178503
v 0.0039680004 0.93381125 -0.0012617111
v -0.007384777 0.982121 -0.048137188
vt 0.58035934 0.83251524
vt 0.6589468 0.68089867
vt 0.6688297 0.6756602
vt 0.6688297 0.6756602
vt 0.6589468 0.68089867
vt 0.65611917 0.8325151
vt 0.65611917 0.8325151
vt 0.7310732 0.83251524
vt 0.65434694 0.98099613
vt 0.58035934 0.83251524
vt 0.6589468 0.68089867
vt 0.6906265 0.5617807
vt 0.76921374 0.410164
vt 0.7790968 0.40492553
vt 0.7790968 0.40492553
vt 0.76921374 0.410164
vt 0.76638633 0.5617806
vt 0.76638633 0.5617806
vt 0.8413403 0.5617807
vt 0.764614 0.71026146
vt 0.6906265 0.5617807
vt 0.76921374 0.410164
vt 0.21932167 0.27552927
vt 0.29790896 0.12391269
vt 0.307792 0.11867416
vt 0.307792 0.11867416
vt 0.29508153 0.27552915
vt 0.29508153 0.27552915
vt 0.37003547 0.2755292
vt 0.29330927 0.42401016
vt 0.21932167 0.27552927
vt 0.29790896 0.12391269
vt 0.924839 0.8545701
vt 0.87233996 0.8545701
vt 0.8720977 0.9674834
vt 0.8751626 0.6503711
vt 0.8720977 0.9674834
vt 0.8199147 0.85457
vt 0.8751626 0.6503711
vt 0.8720977 0.9674834
vt 0.8257738 0.9674833
vt 0.7870981 0.9674834
vt 0.7657352 0.8545701
vt 0.8751626 0.6503711
vt 0.8720977 0.9674834
vt 0.9180052 0.9674833
vt 0.9782802 0.8545701
vt 0.95506626 0.9674834
vt 0.8751626 0.6503711
vt 0.8277685 0.19620788
vt 0.7993446 0.14665926
vt 0.80659956 0.19620788
vt 0.8263381 0.14665926
vt 0.8801198 0.028511882
vt 0.9499467 0.14665931
vt 0.9003817 0.14665926
vt 0.93206227 0.19620788
vt 0.8979238 0.19620788
vt 0.9003817 0.14665926
vt 0.86524713 0.19620776
vt 0.8603659 0.14665914
vt 0.8801198 0.028511882
vt 0.8277685 0.19620788
vt 0.8263381 0.14665926
vt 0.9366887 0.28573358
vt 0.96436846 0.22645044
vt 0.93857133 0.22645044
vt 0.97013843 0.28573358
vt 0.87658775 0.4268397
vt 0.8071721 0.28573358
vt 0.85033196 0.28573358
vt 0.81068474 0.22645044
vt 0.85101634 0.22645044
vt 0.18294503 0.5674287
vt 0.25594175 0.5674287
vt 0.21999687 0.4333943
vt 0.18076247 0.70380914
vt 0.11037102 0.5674287
vt 0.14618534 0.43339455
vt 0.18424943 0.43339467
vt 0.18304396 0.4218763
vt 0.41836363 0.41677523
vt 0.3786768 0.5683917
vt 0.45363078 0.5683918
vt 0.3769046 0.71687245
vt 0.302917 0.5683918
vt 0.38150418 0.416775
vt 0.3839051 0.3958211
vt 0.34491694 0.41677523
vt 0.46989277 0.83319116
vt 0.54288936 0.83319116
vt 0.46095127 0.69771695
vt 0.39731872 0.83319116
vt 0.46771038 0.9695717
vt 0.098462574 0.839409
vt 0.17145929 0.8394088
vt 0.1355142 0.7053746
vt 0.09628016 0.97578955
vt 0.025888532 0.8394088
vt 0.061702907 0.7053746
vt 0.09976685 0.7053748
vt 0.09856182 0.6938566
vt 0.315722 0.6863942
vt 0.27603528 0.83801055
vt 0.35098922 0.8380105
vt 0.27426296 0.9864912
vt 0.20027542 0.8380105
vt 0.27886277 0.686394
vt 0.28126347 0.6654391
vt 0.24227542 0.6863942
vt 0.56547594 0.5616693
vt 0.63847244 0.56166935
vt 0.5565344 0.426195
vt 0.4929019 0.5616693
vt 0.5632937 0.69804955
vt 0.8947325 0.28573358
vt 0.9366887 0.28573358
vt 0.93857133 0.22645044
vt 0.89494073 0.22645044
vt 0.87658775 0.4268397
vt 0.85101634 0.22645044
vt 0.85033196 0.28573358
vt 0.09771093 0.30498365
vt 0.17070764 0.30498353
vt 0.088769406 0.1695097
vt 0.025136948 0.30498353
vt 0.0955286 0.4413638
vt 0.4768834 0.27174613
vt 0.54988 0.27174613
vt 0.513935 0.13771164
vt 0.47470105 0.40812647
vt 0.40430948 0.2717461
vt 0.4401238 0.13771164
vt 0.47818768 0.13771176
vt 0.4769824 0.12619352
vt 0.70496 0.13387537
vt 0.6652734 0.2854916
vt 0.7402273 0.2854916
vt 0.663501 0.43397236
vt 0.58951354 0.28549165
vt 0.6681009 0.13387513
vt 0.67050165 0.112920284
vt 0.6315135 0.13387537
vn 0.22465643 0.9670693 0.11960864
vn 0.41157123 0.879323 -0.23958309
vn 0.4071489 0.87927216 -0.24720477
vn 0.4071489 0.87927216 -0.24720477
vn 0.41157123 0.879323 -0.23958309
vn 0.021074876 0.99960464 -0.018615954
vn 0.021074876 0.99960464 -0.018615954
vn 0.015693234 0.9617814 -0.27336848
vn -0.3481902 0.9163101 0.19783689
vn 0.22465643 0.9670693 0.11960864
vn 0.41157123 0.879323 -0.23958309
vn -0.012454009 0.97033924 -0.24142615
vn -0.40402904 0.8850466 -0.23119906
vn -0.41204166 0.88494587 -0.21700828
vn -0.41204166 0.88494587 -0.21700828
vn -0.40402904 0.8850466 -0.23119906
vn -0.026313234 0.99961555 -0.008738316
vn -0.026313234 0.99961555 -0.008738316
vn -0.23801023 0.9652845 0.10759644
vn 0.34542605 0.91631037 0.20262285
vn -0.012454009 0.97033924 -0.24142615
vn -0.40402904 0.8850466 -0.23119906
vn -0.20097062 0.9691278 0.14283654
vn 0.001764173 0.8834568 0.46850935
vn -0.010880449 0.8835232 0.4682608
vn -0.010880449 0.8835232 0.4682608
vn 0.005587409 0.9996106 0.027341813
vn 0.005587409 0.9996106 0.027341813
vn 0.22312355 0.9644692 0.14147444
vn 0.0027643675 0.91631037 -0.4004593
vn -0.20097062 0.9691278 0.14283654
vn 0.001764173 0.8834568 0.46850935
vn 0.9904912 0.054141827 -0.12647453
vn -0.12555614 -0.21268971 -0.9690195
vn -0.1136796 -0.3374885 -0.9344402
vn 0.056929477 0.954034 0.29424167
vn -0.1136796 -0.3374885 -0.9344402
vn -0.98666084 0.014674158 0.16212666
vn 0.056929477 0.954034 0.29424167
vn -0.1136796 -0.3374885 -0.9344402
vn -0.96485615 -0.13561852 0.22507837
vn 0.123862185 0.063270606 0.99028033
vn 0.1139382 0.25713465 0.9596353
vn 0.056929477 0.954034 0.29424167
vn -0.1136796 -0.3374885 -0.9344402
vn 0.9937808 -0.09491502 -0.058232043
vn 0.1139382 0.25713465 0.9596353
vn 0.123862185 0.063270606 0.99028033
vn 0.056929477 0.954034 0.29424167
vn 0.9992293 -0.039242763 -0.0008072819
vn 0.06545526 0.18550137 -0.9804616
vn 0.020842701 -0.028756214 -0.9993692
vn 0.9536436 0.2984684 0.038477417
vn -0.38561505 0.90615964 0.1737114
vn 0.06545526 0.18550137 -0.9804616
vn -0.97464436 -0.21382317 -0.06593935
vn 0.020842701 -0.028756214 -0.9993692
vn -0.96356124 -0.26686805 -0.018197246
vn -0.97464436 -0.21382317 -0.06593935
vn -0.025158564 -0.24839148 0.9683329
vn 0.033693045 -0.12587494 0.9914738
vn -0.38561505 0.90615964 0.1737114
vn 0.9992293 -0.039242763 -0.0008072819
vn 0.9536436 0.2984684 0.038477417
vn -0.039876442 0.1811245 -0.9826514
vn -0.99941087 -0.019800067 -0.028032288
vn -0.07451858 -0.1595516 -0.9843731
vn -0.9606337 0.2718828 -0.05711978
vn 0.20231946 0.96587324 0.16172719
vn -0.9606337 0.2718828 -0.05711978
vn -0.08140015 -0.08048726 0.9934263
vn -0.99941087 -0.019800067 -0.028032288
vn -0.09728779 -0.17786932 0.9792332
vn -0.0045063216 -0.98225605 0.18749069
vn 0.28911453 -0.9361296 0.20018502
vn 0.29975718 -0.8497424 0.43368593
vn 0.0060587395 -0.97683126 -0.21392532
vn -0.30126137 -0.93411505 0.19149595
vn -0.3261082 -0.847648 0.41850492
vn -0.012773573 -0.87938166 0.4759462
vn -0.030068908 -0.56231195 0.82637835
vn 0.07609355 0.87469095 -0.47867054
vn 0.004037669 0.9939573 -0.10969334
vn 0.017647466 0.97192174 -0.23464179
vn -0.0039798412 0.9321558 0.3620354
vn -0.0012785632 0.9709701 -0.23919757
vn 0.01282399 0.86126053 -0.50800186
vn 0.020122131 0.3635296 -0.9313653
vn -0.04789929 0.8689666 -0.49254715
vn -0.06783265 -0.99664164 0.045871362
vn 0.057930734 -0.96839386 0.24260531
vn -0.33058888 -0.92419416 0.19124897
vn -0.18179359 -0.97023183 -0.16000403
vn 0.2014502 -0.97338796 -0.10924133
vn -0.16011891 -0.98225605 -0.097647265
vn -0.3179236 -0.936129 0.15028992
vn -0.5254622 -0.8497418 0.042758282
vn 0.18223579 -0.9768312 0.11220932
vn -0.015209877 -0.93411463 -0.35664892
vn -0.19938251 -0.8476474 -0.49167112
vn -0.40579623 -0.87938166 -0.2490327
vn -0.70063007 -0.562313 -0.43922848
vn 0.3764951 0.87469083 0.30523336
vn 0.09297815 0.9939574 0.05834226
vn 0.1943833 0.9719214 0.13260448
vn -0.3115425 0.9321556 -0.18446435
vn 0.20779152 0.9709701 0.11848927
vn 0.43353176 0.8612605 0.26510486
vn 0.79652905 0.3635231 0.4831071
vn 0.45050794 0.8689674 0.20478813
vn 0.0725805 -0.99676275 0.034582537
vn 0.18020594 -0.96846855 -0.17203058
vn 0.32173565 -0.9283647 0.18607835
vn -0.045755304 -0.97005635 0.23853108
vn -0.19532995 -0.9733881 -0.1198408
vn 0.97598547 -0.21228643 -0.048853487
vn -0.039876442 0.1811245 -0.9826514
vn -0.07451858 -0.1595516 -0.9843731
vn 0.9577031 -0.28770694 -0.0054264707
vn 0.20231946 0.96587324 0.16172719
vn -0.09728779 -0.17786932 0.9792332
vn -0.08140015 -0.08048726 0.9934263
vn -0.0042807665 -0.9967315 -0.08067276
vn -0.23897444 -0.96798795 -0.07674922
vn -0.0026757324 -0.9272129 -0.374525
vn 0.22948809 -0.9705886 -0.07275263
vn -0.0061205826 -0.9733882 0.22908086
vn 0.16462454 -0.98225605 -0.08984314
vn 0.028807405 -0.9361292 -0.35047445
vn 0.22570278 -0.84974164 -0.47644243
vn -0.18829435 -0.9768312 0.10171646
vn 0.31647095 -0.93411505 0.1651522
vn 0.5254903 -0.8476478 0.07316531
vn 0.41856712 -0.87938184 -0.22691235
vn 0.7306951 -0.5623176 -0.38714787
vn -0.4525868 0.874691 0.17343818
vn -0.09701554 0.9939574 0.051349718
vn -0.21202922 0.9719216 0.10203893
vn 0.31552187 0.93215567 -0.17757195
vn -0.20651174 0.9709701 0.120705806
vn -0.44635358 0.8612607 0.24289598
vn -0.8166465 0.36352733 0.44825926
vn -0.4026076 0.8689671 0.28775537
g puddle_DLC_flower_LOD2_0
f 3/3/3 2/2/2 1/1/1
f 6/6/6 5/5/5 4/4/4
f 8/8/8 7/7/7 4/4/4
f 7/7/7 8/8/8 9/9/9
f 7/7/7 9/9/9 10/10/10
f 11/11/11 7/7/7 10/10/10
f 14/14/14 13/13/13 12/12/12
f 17/17/17 16/16/16 15/15/15
f 19/19/19 18/18/18 15/15/15
f 18/18/18 19/19/19 20/20/20
f 18/18/18 20/20/20 21/21/21
f 22/22/22 18/18/18 21/21/21
f 25/25/25 24/24/24 23/23/23
f 27/27/27 24/24/24 26/26/26
f 29/29/29 28/28/28 26/26/26
f 28/28/28 29/29/29 30/30/30
f 28/28/28 30/30/30 31/31/31
f 32/32/32 28/28/28 31/31/31
f 35/35/35 34/34/34 33/33/33
f 34/34/34 36/36/36 33/33/33
f 38/38/38 34/34/34 37/37/37
f 38/38/38 39/39/39 34/34/34
f 41/41/41 38/38/38 40/40/40
f 41/41/41 42/42/42 38/38/38
f 42/42/42 43/43/43 38/38/38
f 43/43/43 44/44/44 38/38/38
f 46/46/46 45/45/45 33/33/33
f 46/46/46 33/33/33 47/47/47
f 48/48/48 46/46/46 47/47/47
f 33/33/33 49/49/49 47/47/47
f 52/52/52 51/51/51 50/50/50
f 51/51/51 53/53/53 50/50/50
f 51/51/51 54/54/54 53/53/53
f 56/56/56 54/54/54 55/55/55
f 56/56/56 55/55/55 57/57/57
f 58/58/58 56/56/56 57/57/57
f 58/58/58 60/60/60 59/59/59
f 60/60/60 61/61/61 59/59/59
f 61/61/61 62/62/62 59/59/59
f 60/60/60 63/63/63 61/61/61
f 64/64/64 62/62/62 61/61/61
f 63/63/63 64/64/64 61/61/61
f 67/67/67 66/66/66 65/65/65
f 66/66/66 68/68/68 65/65/65
f 68/68/68 69/69/69 65/65/65
f 71/71/71 69/69/69 70/70/70
f 71/71/71 70/70/70 72/72/72
f 73/73/73 71/71/71 72/72/72
f 76/76/76 75/75/75 74/74/74
f 75/75/75 77/77/77 74/74/74
f 74/74/74 77/77/77 78/78/78
f 74/74/74 78/78/78 79/79/79
f 80/80/80 76/76/76 74/74/74
f 80/80/80 74/74/74 79/79/79
f 80/80/80 81/81/81 76/76/76
f 79/79/79 81/81/81 80/80/80
f 84/84/84 83/83/83 82/82/82
f 83/83/83 84/84/84 85/85/85
f 83/83/83 85/85/85 86/86/86
f 83/83/83 87/87/87 82/82/82
f 87/87/87 83/83/83 86/86/86
f 87/87/87 88/88/88 82/82/82
f 89/89/89 87/87/87 86/86/86
f 88/88/88 87/87/87 89/89/89
f 92/92/92 91/91/91 90/90/90
f 90/90/90 93/93/93 92/92/92
f 91/91/91 94/94/94 90/90/90
f 90/90/90 94/94/94 93/93/93
f 97/97/97 96/96/96 95/95/95
f 96/96/96 98/98/98 95/95/95
f 95/95/95 98/98/98 99/99/99
f 95/95/95 99/99/99 100/100/100
f 101/101/101 97/97/97 95/95/95
f 101/101/101 95/95/95 100/100/100
f 101/101/101 102/102/102 97/97/97
f 100/100/100 102/102/102 101/101/101
f 105/105/105 104/104/104 103/103/103
f 104/104/104 105/105/105 106/106/106
f 104/104/104 106/106/106 107/107/107
f 104/104/104 108/108/108 103/103/103
f 108/108/108 104/104/104 107/107/107
f 108/108/108 109/109/109 103/103/103
f 110/110/110 108/108/108 107/107/107
f 109/109/109 108/108/108 110/110/110
f 113/113/113 112/112/112 111/111/111
f 111/111/111 114/114/114 113/113/113
f 112/112/112 115/115/115 111/111/111
f 111/111/111 115/115/115 114/114/114
f 118/118/118 117/117/117 116/116/116
f 119/119/119 118/118/118 116/116/116
f 117/117/117 120/120/120 116/116/116
f 119/119/119 116/116/116 121/121/121
f 116/116/116 120/120/120 122/122/122
f 116/116/116 122/122/122 121/121/121
f 125/125/125 124/124/124 123/123/123
f 123/123/123 126/126/126 125/125/125
f 124/124/124 127/127/127 123/123/123
f 123/123/123 127/127/127 126/126/126
f 130/130/130 129/129/129 128/128/128
f 129/129/129 131/131/131 128/128/128
f 128/128/128 131/131/131 132/132/132
f 128/128/128 132/132/132 133/133/133
f 134/134/134 130/130/130 128/128/128
f 134/134/134 128/128/128 133/133/133
f 134/134/134 135/135/135 130/130/130
f 133/133/133 135/135/135 134/134/134
f 138/138/138 137/137/137 136/136/136
f 137/137/137 138/138/138 139/139/139
f 137/137/137 139/139/139 140/140/140
f 137/137/137 141/141/141 136/136/136
f 141/141/141 137/137/137 140/140/140
f 141/141/141 142/142/142 136/136/136
f 143/143/143 141/141/141 140/140/140
f 142/142/142 141/141/141 143/143/143
