g slime_DLC_default_LOD3
v -3.870181E-08 0.92101336 -0.09805507
v -3.8244405E-08 0.782625 0.30424953
v -0.25644132 0.705281 0.2587577
v -3.870181E-08 0.92101336 -0.09805507
v -0.29100764 0.7692319 -0.10955054
v -0.25644153 0.7052811 -0.25875756
v -3.870181E-08 0.92101336 -0.09805507
v -3.8244426E-08 0.78262526 -0.30424944
v -6.234604E-08 0.30876505 -0.4868253
v -0.34322944 0.29509845 -0.34322897
v -0.27716827 0.070631646 -0.27716804
v -8.791423E-08 0.05400982 -0.36351007
v -0.34322906 0.29509845 0.3432291
v -3.8244405E-08 0.782625 0.30424953
v -0.29100764 0.7692319 -0.10955054
v -6.234604E-08 0.30876505 0.4868257
v 0.25644147 0.705281 0.25875777
v -0.47100002 0.30581006 -0.13612132
v -0.34322944 0.29509845 -0.34322897
v -0.25644153 0.7052811 -0.25875756
v -0.27716827 0.070631646 -0.27716804
v -0.34965503 0.05817845 -0.1190801
v -0.27716807 0.070631854 0.27716812
v -8.7914145E-08 0.05400998 0.36351004
v 0.3432292 0.2950984 0.34322935
v 0.27716804 0.07063159 0.27716827
v 0.34965497 0.058178276 -0.11908013
v 0.47100016 0.30581 -0.13612138
v 0.2910077 0.7692319 -0.10955058
v 0.25644153 0.7052811 -0.2587576
v 0.34322944 0.2950984 -0.3432291
v 0.27716818 0.07063154 -0.27716804
v 0.2910077 0.7692319 -0.10955058
v -3.8244405E-08 0.782625 0.30424953
v -3.870181E-08 0.92101336 -0.09805507
v -3.8244426E-08 0.78262526 -0.30424944
v 0.25644153 0.7052811 -0.2587576
v 0.34322944 0.2950984 -0.3432291
v -6.234604E-08 0.30876505 -0.4868253
v -8.791423E-08 0.05400982 -0.36351007
v 0.27716818 0.07063154 -0.27716804
v 0.27716818 0.07063154 -0.27716804
v -8.791423E-08 0.05400982 -0.36351007
v -9.946428E-08 0.026476674 -0.13685057
v 0.34965497 0.058178276 -0.11908013
v -9.946428E-08 0.026476674 -0.13685057
v 0.27716804 0.07063159 0.27716827
v -9.946428E-08 0.026476674 -0.13685057
v -8.7914145E-08 0.05400998 0.36351004
v -0.27716807 0.070631854 0.27716812
v -9.946428E-08 0.026476674 -0.13685057
v -9.946428E-08 0.026476674 -0.13685057
v -0.34965503 0.05817845 -0.1190801
v -8.791423E-08 0.05400982 -0.36351007
v -0.27716827 0.070631646 -0.27716804
v -9.946428E-08 0.026476674 -0.13685057
vt -0.49999967 0.8826321
vt 0.49920332 0.7146531
vt 0.21894215 0.64272237
vt -0.49999967 0.8826321
vt -0.06473753 0.70547485
vt -0.2378955 0.6466913
vt -0.49999967 0.8826321
vt -0.5000034 0.7211872
vt -0.5000008 0.36362836
vt -0.23868637 0.36334658
vt -0.238065 0.19600114
vt -0.4999979 0.1733125
vt 0.2182474 0.3643264
vt 0.49920332 0.7146531
vt -0.06473753 0.70547485
vt 0.49920318 0.36500573
vt 0.779475 0.64275473
vt -0.037332788 0.36432195
vt -0.23868637 0.36334658
vt -0.2378955 0.6466913
vt -0.238065 0.19600114
vt -0.055529065 0.17812623
vt 0.2187918 0.19807184
vt 0.49920326 0.17731297
vt 0.78017324 0.3643554
vt 0.7796338 0.19812343
vt 1.0621904 0.17805213
vt 1.0441958 0.36434275
vt 1.0712993 0.70540226
vt 1.2425431 0.64688736
vt 1.2433323 0.36341
vt 1.242723 0.1960969
vt 1.0712993 0.70540226
vt 0.49920332 0.7146531
vt 1.5000021 0.8826449
vt 1.5000017 0.7212515
vt 1.2425431 0.64688736
vt 1.2433323 0.36341
vt 1.5000017 0.3636655
vt 1.5000017 0.17312609
vt 1.242723 0.1960969
vt 1.242723 0.1960969
vt 1.5000017 0.17312609
vt 1.4999979 0.0590567
vt 1.0621904 0.17805213
vt 1.4999979 0.0590567
vt 0.7796338 0.19812343
vt 1.4999979 0.0590567
vt 0.49920326 0.17731297
vt 0.2187918 0.19807184
vt -0.49999592 0.059020042
vt -0.49999592 0.059020042
vt -0.055529065 0.17812623
vt -0.4999979 0.1733125
vt -0.238065 0.19600114
vt -0.49999592 0.059020042
vn -0 0.999713 0.023957286
vn -0 0.6997948 0.7143438
vn -0.69392115 0.505689 0.5125935
vn -0 0.999713 0.023957286
vn -0.79678285 0.6040841 0.014816023
vn -0.53556365 0.42746973 -0.728314
vn -0 0.999713 0.023957286
vn -0 0.51988304 -0.8542375
vn -0 0.0658067 -0.99783236
vn -0.5899385 0.0487088 -0.80597764
vn -0.419976 -0.69793046 -0.5800977
vn -0 -0.7010553 -0.7131069
vn -0.7986631 0.057334073 0.599041
vn -0 0.6997948 0.7143438
vn -0.79678285 0.6040841 0.014816023
vn -0 0.06580674 0.99783236
vn 0.69392097 0.50568926 0.51259345
vn -0.9978467 0.06558844 -0.00043196627
vn -0.5899385 0.0487088 -0.80597764
vn -0.53556365 0.42746973 -0.728314
vn -0.419976 -0.69793046 -0.5800977
vn -0.5819111 -0.8132141 0.007897492
vn -0.48966292 -0.79457796 0.35899338
vn -0 -0.86985123 0.4933142
vn 0.79866296 0.0573339 0.5990411
vn 0.48966244 -0.79457814 0.3589933
vn 0.5819108 -0.8132143 0.007897348
vn 0.9978467 0.06558817 -0.00043217183
vn 0.7967828 0.6040842 0.014815885
vn 0.5355634 0.42746982 -0.7283141
vn 0.5899384 0.048708674 -0.8059779
vn 0.41997558 -0.69793063 -0.58009785
vn 0.7967828 0.6040842 0.014815885
vn -0 0.6997948 0.7143438
vn -0 0.999713 0.023957286
vn -0 0.51988304 -0.8542375
vn 0.5355634 0.42746982 -0.7283141
vn 0.5899384 0.048708674 -0.8059779
vn -0 0.0658067 -0.99783236
vn -0 -0.7010553 -0.7131069
vn 0.41997558 -0.69793063 -0.58009785
vn 0.41997558 -0.69793063 -0.58009785
vn -0 -0.7010553 -0.7131069
vn -0 -0.9999976 -0.0022184835
vn 0.5819108 -0.8132143 0.007897348
vn -0 -0.9999976 -0.0022184835
vn 0.48966244 -0.79457814 0.3589933
vn -0 -0.9999976 -0.0022184835
vn -0 -0.86985123 0.4933142
vn -0.48966292 -0.79457796 0.35899338
vn -0 -0.9999976 -0.0022184835
vn -0 -0.9999976 -0.0022184835
vn -0.5819111 -0.8132141 0.007897492
vn -0 -0.7010553 -0.7131069
vn -0.419976 -0.69793046 -0.5800977
vn -0 -0.9999976 -0.0022184835
g slime_DLC_default_LOD3_0
f 3/3/3 2/2/2 1/1/1
f 5/5/5 3/3/3 4/4/4
f 5/5/5 7/7/7 6/6/6
f 7/7/7 8/8/8 6/6/6
f 8/8/8 9/9/9 6/6/6
f 9/9/9 10/10/10 6/6/6
f 11/11/11 10/10/10 9/9/9
f 12/12/12 11/11/11 9/9/9
f 14/14/14 3/3/3 13/13/13
f 13/13/13 3/3/3 15/15/15
f 16/16/16 14/14/14 13/13/13
f 17/17/17 14/14/14 16/16/16
f 18/18/18 13/13/13 15/15/15
f 18/18/18 15/15/15 19/19/19
f 15/15/15 20/20/20 19/19/19
f 18/18/18 19/19/19 21/21/21
f 22/22/22 18/18/18 21/21/21
f 22/22/22 23/23/23 18/18/18
f 23/23/23 13/13/13 18/18/18
f 16/16/16 13/13/13 23/23/23
f 24/24/24 16/16/16 23/23/23
f 25/25/25 16/16/16 24/24/24
f 25/25/25 17/17/17 16/16/16
f 26/26/26 25/25/25 24/24/24
f 25/25/25 26/26/26 27/27/27
f 17/17/17 25/25/25 28/28/28
f 28/28/28 25/25/25 27/27/27
f 29/29/29 17/17/17 28/28/28
f 29/29/29 28/28/28 30/30/30
f 28/28/28 31/31/31 30/30/30
f 28/28/28 27/27/27 31/31/31
f 27/27/27 32/32/32 31/31/31
f 34/34/34 17/17/17 33/33/33
f 35/35/35 34/34/34 33/33/33
f 35/35/35 33/33/33 36/36/36
f 33/33/33 37/37/37 36/36/36
f 37/37/37 38/38/38 36/36/36
f 38/38/38 39/39/39 36/36/36
f 40/40/40 39/39/39 38/38/38
f 41/41/41 40/40/40 38/38/38
f 44/44/44 43/43/43 42/42/42
f 45/45/45 44/44/44 42/42/42
f 45/45/45 47/47/47 46/46/46
f 47/47/47 49/49/49 48/48/48
f 51/51/51 49/49/49 50/50/50
f 53/53/53 52/52/52 50/50/50
f 53/53/53 55/55/55 54/54/54
f 56/56/56 53/53/53 54/54/54
