g slime_puddle_LOD1
v -0.13365442 0.95566666 -0.13365415
v -3.8434564E-08 0.98983157 1.6037232E-07
v -0.13685085 0.97550297 1.5999896E-07
v 0.13685076 0.97550297 1.6078266E-07
v 0.13365431 0.95566654 0.13365443
v -3.882867E-08 0.97550297 0.13685086
v 0.12776388 0.9067323 0.24736048
v 0.23250346 0.8651809 0.23250356
v 0.24736036 0.9067324 0.12776399
v 0.13685076 0.97550297 1.6078266E-07
v 0.2544857 0.9235158 1.579468E-07
v 0.13365433 0.95566666 -0.13365415
v 0.3635086 0.7346802 0.23270027
v 0.40539435 0.7497325 0.12796658
v 0.23270011 0.7346802 0.36350864
v 0.30788442 0.72436297 0.3078845
v 0.33299062 0.6168128 0.33299068
v 0.4022687 0.6209428 0.24584246
v 0.24584234 0.6209428 0.40226886
v 0.42153627 0.75646544 1.6190495E-07
v 0.2473604 0.90673244 -0.1277637
v 0.45318145 0.628297 0.1335055
v 0.12796643 0.7497323 0.40539432
v 0.13350533 0.628297 0.4531815
v -4.0177937E-08 0.9235156 0.25448573
v 0.61350924 0.4745795 0.37494004
v 0.50785124 0.47486064 0.5078517
v 0.69115734 0.47404408 0.20361236
v 0.37493962 0.4745795 0.61350936
v 0.47352353 0.6315294 1.6078276E-07
v 0.7221814 0.47453433 2.8368254E-07
v 0.40539438 0.7497325 -0.12796625
v 0.7465117 0.3879427 0.21991956
v 0.66264486 0.3885211 0.4049688
v 0.7800205 0.38847226 3.110207E-07
v 0.5485248 0.3888247 0.5485254
v 0.5405931 0.35719794 0.23972517
v 0.6911574 0.47404408 -0.20361191
v 0.7465118 0.3879427 -0.21991906
v 0.54059315 0.35719794 -0.23972481
v 0.31407595 0.34652203 1.7881393E-07
v 0.23972484 0.35719794 0.5405932
v 0.31407595 0.34652203 1.7881393E-07
v -0.54059297 0.35719794 0.23972492
v 0.40496832 0.3885211 0.66264504
v 0.20361198 0.47404408 0.6911575
v 0.21991915 0.3879427 0.74651194
v -5.004756E-08 0.6315293 0.4735232
v -1.6957543E-07 0.38847226 0.7800202
v -0.23972481 0.35719794 0.5405929
v -1.5258153E-07 0.47453433 0.7221811
v -4.4815078E-08 0.75646526 0.421536
v -0.13350534 0.62829685 0.45318118
v -0.20361212 0.47404408 0.69115716
v -0.21991931 0.3879427 0.7465116
v -0.12776393 0.9067322 0.24736036
v -0.12796646 0.7497322 0.40539423
v -0.24584226 0.6209428 0.40226853
v -0.3749396 0.4745795 0.613509
v -0.4049683 0.3885211 0.6626446
v -0.5485248 0.3888247 0.548525
v -0.54059297 0.35719794 0.23972492
v -0.50785124 0.47486064 0.5078514
v -0.33299047 0.6168127 0.33299056
v -0.23270014 0.73468006 0.3635085
v -0.66264474 0.3885211 0.40496835
v -0.6135091 0.4745795 0.37493965
v -0.7465116 0.3879427 0.21991943
v -0.78002036 0.38847226 3.1202129E-07
v -0.5405931 0.35719794 -0.23972471
v -0.6911572 0.47404408 0.20361222
v -0.40226862 0.6209428 0.2458423
v -0.23250347 0.86518073 0.23250347
v -0.30788428 0.72436297 0.3078844
v -0.3635085 0.73468006 0.23270014
v -0.45318133 0.628297 0.13350546
v -0.72218126 0.47453433 2.8460892E-07
v -0.40539423 0.7497322 0.12796651
v -0.24736041 0.9067323 0.12776399
v -0.47352332 0.6315294 1.6139026E-07
v -0.7465117 0.3879427 -0.21991888
v -0.6911573 0.47404408 -0.20361175
v -0.42153606 0.7564654 1.6406179E-07
v -0.13365439 0.95566654 0.13365442
v -0.13685085 0.97550297 1.5999896E-07
v -3.8434564E-08 0.98983157 1.6037232E-07
v -0.2544857 0.9235157 1.5772233E-07
v -0.13685085 0.97550297 1.5999896E-07
v -0.6626449 0.3885211 -0.4049681
v -0.45318133 0.628297 -0.13350515
v -0.40539432 0.7497322 -0.1279662
v -0.24736047 0.9067324 -0.12776367
v -0.13365442 0.95566666 -0.13365415
v -0.5485252 0.3888247 -0.5485247
v -0.23972511 0.35719794 -0.54059297
v -0.61350924 0.4745795 -0.3749394
v -0.4022688 0.6209428 -0.24584219
v -0.3635086 0.7346802 -0.23269993
v -0.5078516 0.47486064 -0.5078511
v -0.40496874 0.3885211 -0.6626448
v -0.33299065 0.61681294 -0.33299044
v -0.23250356 0.8651809 -0.23250324
v -0.21991952 0.3879427 -0.74651134
v -1.6957559E-07 0.38847226 -0.7800203
v -0.37493998 0.4745795 -0.6135091
v -0.20361231 0.47404408 -0.691157
v -1.5258169E-07 0.47453433 -0.7221812
v -0.30788454 0.7243631 -0.3078843
v -0.24584249 0.6209428 -0.40226862
v -0.1335055 0.628297 -0.4531813
v -5.004762E-08 0.6315294 -0.47352332
v -0.23270027 0.7346802 -0.36350846
v -0.12796655 0.7497325 -0.4053942
v -4.4815128E-08 0.75646544 -0.42153603
v -4.0177955E-08 0.9235158 -0.2544855
v -0.12776397 0.9067324 -0.24736023
v -3.8828674E-08 0.975503 -0.13685055
v -3.8434564E-08 0.98983157 1.6037232E-07
v -0.5405931 0.35719794 -0.23972471
v -0.54059297 0.35719794 0.23972492
v -0.23972511 0.35719794 -0.54059297
v -0.23972481 0.35719794 0.5405929
v 0.23972484 0.35719794 0.5405932
v -0.54059297 0.35719794 0.23972492
v -0.54059297 0.35719794 0.23972492
v 0.31407595 0.34652203 1.7881393E-07
v -0.23972511 0.35719794 -0.54059297
v -3.8828674E-08 0.975503 -0.13685055
v -3.8434564E-08 0.98983157 1.6037232E-07
v 0.13685076 0.97550297 1.6078266E-07
v -4.0177955E-08 0.9235158 -0.2544855
v 0.1277639 0.90673244 -0.24736029
v -4.4815128E-08 0.75646544 -0.42153603
v 0.23250349 0.86518097 -0.2325033
v 0.12796648 0.7497325 -0.4053942
v 0.13350543 0.628297 -0.45318133
v -5.004762E-08 0.6315294 -0.47352332
v 0.20361207 0.47404408 -0.691157
v -1.5258169E-07 0.47453433 -0.7221812
v 0.21991926 0.3879427 -0.74651134
v -1.6957559E-07 0.38847226 -0.7800203
v 0.23972492 0.35719794 -0.54059297
v -0.23972511 0.35719794 -0.54059297
v 0.31407595 0.34652203 1.7881393E-07
v 0.40496847 0.3885211 -0.6626448
v 0.37493977 0.4745795 -0.6135091
v 0.548525 0.3888247 -0.54852474
v 0.24584243 0.6209428 -0.4022687
v 0.66264486 0.3885211 -0.40496826
v 0.5078514 0.47486064 -0.50785124
v 0.61350924 0.4745795 -0.37493956
v 0.23270018 0.73468024 -0.36350852
v 0.45318145 0.628297 -0.1335052
v 0.3635086 0.73468024 -0.23269998
v 0.40226886 0.6209428 -0.24584228
v 0.3329907 0.61681294 -0.33299044
v 0.30788454 0.7243631 -0.3078843
vt -0.2499677 0.93851537
vt 0.50000006 0.9885591
vt 3.2424927E-05 0.9739885
vt 1.0000312 0.97398853
vt 0.7500315 0.9385151
vt 0.5000316 0.96285987
vt 0.65179145 0.7557614
vt 0.75003165 0.67750955
vt 0.8482718 0.7557615
vt 1.0000312 0.97398853
vt 1.0000315 0.7840779
vt 1.2500316 0.9385155
vt 0.8187797 0.47875994
vt 0.9027051 0.4903542
vt 0.6812837 0.47875994
vt 0.7500317 0.4718495
vt 0.7500317 0.42261666
vt 0.8254164 0.4241349
vt 0.67464703 0.4241349
vt 1.0000317 0.49580538
vt 1.1517913 0.7557616
vt 0.9088386 0.42684287
vt 0.59735835 0.490354
vt 0.5912248 0.42684287
vt 0.5000317 0.78365636
vt 0.8254164 0.3418455
vt 0.7500316 0.3420872
vt 0.9088386 0.34138507
vt 0.674647 0.3418455
vt 1.0000317 0.4282052
vt 1.0000317 0.3418066
vt 1.0973582 0.4903542
vt 0.90883857 0.098866984
vt 0.8254164 0.09441844
vt 1.0000317 0.08455282
vt 0.7500316 0.08431081
vt 0.86717165 0.056163583
vt 1.0912248 0.34138507
vt 1.0912248 0.0988671
vt 1.1328917 0.056163616
vt 1.0000315 0.028503869
vt 0.6328917 0.056163523
vt 1.0000315 0.028503869
vt 0.5 0.028503854
vt 0.674647 0.09441839
vt 0.5912248 0.34138507
vt 0.5912248 0.098867014
vt 0.50003177 0.4282052
vt 0.5000317 0.08455282
vt 0.36717185 0.05616355
vt 0.5000317 0.3418066
vt 0.50003177 0.49580514
vt 0.4088387 0.42684284
vt 0.4088387 0.34138507
vt 0.4088387 0.0988585
vt 0.34827197 0.75576127
vt 0.40270522 0.49035388
vt 0.3254165 0.4241349
vt 0.32541654 0.3418455
vt 0.32541656 0.094418414
vt 0.2500319 0.08431081
vt 0.13289186 0.05616357
vt 0.2500319 0.3420872
vt 0.2500319 0.4226166
vt 0.31877983 0.47875986
vt 0.17464712 0.09441842
vt 0.17464712 0.3418455
vt 0.09122503 0.098866984
vt 3.2007694E-05 0.08455282
vt -0.132828 0.056163557
vt 0.09122503 0.34138507
vt 0.17464718 0.4241349
vt 0.25003186 0.6775093
vt 0.2500319 0.4718495
vt 0.18128386 0.47875986
vt 0.09122503 0.42684287
vt 3.2007694E-05 0.3418066
vt 0.097358495 0.49035388
vt 0.15179178 0.7557614
vt 3.2007694E-05 0.4282052
vt -0.09116107 0.098867066
vt -0.09116107 0.34138507
vt 3.2007694E-05 0.49580526
vt 0.2500319 0.9385151
vt 3.2424927E-05 0.9739885
vt 0.50000006 0.9885591
vt 3.2126904E-05 0.78407764
vt 3.2424927E-05 0.9739885
vt -0.17458326 0.094418414
vt -0.09116107 0.42684287
vt -0.09729445 0.49035388
vt -0.15172762 0.7557614
vt -0.2499677 0.93851537
vt -0.24996799 0.08431081
vt -0.36710805 0.056163583
vt -0.17458326 0.3418455
vt -0.17458326 0.4241349
vt -0.18121994 0.47875994
vt -0.24996799 0.3420872
vt -0.32535273 0.094418414
vt -0.24996799 0.4226167
vt -0.24996781 0.67750955
vt -0.4087749 0.09886703
vt -0.49996805 0.08455282
vt -0.32535273 0.3418455
vt -0.4087749 0.34138507
vt -0.49996805 0.3418066
vt -0.24996793 0.47184956
vt -0.32535267 0.4241349
vt -0.4087749 0.42684287
vt -0.49996805 0.4282052
vt -0.318716 0.47875994
vt -0.40264142 0.4903542
vt -0.49996805 0.49580538
vt -0.49996805 0.7835439
vt -0.34820807 0.7557615
vt -0.49996793 0.98469174
vt 0.50000006 0.9885591
vt -0.132828 0.056163557
vt 0.13289186 0.05616357
vt -0.36710805 0.056163583
vt 0.36717185 0.05616355
vt 0.6328917 0.056163523
vt 0.13289186 0.05616357
vt 0.5 0.028503854
vt 1.0000315 0.028503869
vt 1.502471 0.03465797
vt 1.5000321 0.98469174
vt 0.5 0.98855907
vt 1.0000312 0.97398853
vt 1.500032 0.7835439
vt 1.348272 0.7557615
vt 1.500032 0.49580538
vt 1.2500317 0.67750967
vt 1.4027052 0.4903542
vt 1.4088387 0.42684287
vt 1.500032 0.4282052
vt 1.4088387 0.34138507
vt 1.500032 0.3418066
vt 1.4088387 0.0988671
vt 1.500032 0.08455282
vt 1.3671718 0.055930264
vt 1.502471 0.03465797
vt 1.0000315 0.028503869
vt 1.3254166 0.09424974
vt 1.3254166 0.3418455
vt 1.2500317 0.08431081
vt 1.3254166 0.4241349
vt 1.1746471 0.094418414
vt 1.2500317 0.3420872
vt 1.1746471 0.3418455
vt 1.3187798 0.47876
vt 1.0912248 0.42684287
vt 1.1812837 0.47876
vt 1.1746471 0.4241349
vt 1.2500317 0.4226167
vt 1.2500317 0.47184956
vn -0.25691673 0.93165857 -0.2569164
vn -0 1 0
vn -0.25855246 0.9659972 0
vn 0.25855216 0.96599734 0
vn 0.25691637 0.93165857 0.25691685
vn -0 0.96599716 0.2585527
vn 0.23678514 0.77500516 0.58591783
vn 0.50225675 0.70390034 0.5022572
vn 0.5859172 0.7750054 0.23678607
vn 0.25855216 0.96599734 0
vn 0.60390913 0.79705316 0
vn 0.2569165 0.93165874 -0.2569162
vn 0.7168905 0.5230781 0.460931
vn 0.782795 0.57386327 0.24065118
vn 0.4609301 0.52307826 0.71689093
vn 0.6226657 0.4738925 0.6226663
vn 0.44094056 0.78175604 0.44094095
vn 0.5366222 0.77390695 0.33631042
vn 0.33631033 0.7739068 0.5366224
vn 0.8044659 0.5939988 0
vn 0.58591735 0.7750054 -0.2367857
vn 0.6177519 0.76339144 0.18872204
vn 0.24064974 0.573863 0.78279555
vn 0.188721 0.76339173 0.6177519
vn -0 0.7970527 0.6039098
vn 0.5373306 0.77425665 0.33436874
vn 0.44422865 0.7780241 0.4442292
vn 0.6130674 0.7677369 0.18635567
vn 0.33436862 0.7742565 0.53733087
vn 0.6486262 0.7611071 0
vn 0.6435264 0.76542395 0
vn 0.78279513 0.5738632 -0.24065086
vn 0.8926086 -0.37334493 0.2527122
vn 0.800885 -0.34615484 0.48863086
vn 0.6518249 -0.75836945 0
vn 0.47030485 -0.7467437 0.4703055
vn 0.07368511 -0.99674857 0.032602653
vn 0.6130676 0.7677368 -0.18635556
vn 0.8926084 -0.37334555 -0.25271195
vn 0.07368511 -0.99674857 -0.03260261
vn 0.0009312732 -0.9999982 0.001683631
vn 0.011136452 -0.99887687 0.04605275
vn 0.0009312732 -0.9999982 0.001683631
vn -0.035154715 -0.99929774 0.012971328
vn 0.4886304 -0.34615397 0.8008856
vn 0.18635489 0.7677369 0.61306757
vn 0.25271106 -0.37334552 0.8926087
vn -0 0.76110715 0.648626
vn -0 -0.7583694 0.65182513
vn -0.02226156 -0.9982577 0.05464356
vn -0 0.7654242 0.64352614
vn -0 0.5939986 0.80446607
vn -0.18872172 0.76339173 0.6177518
vn -0.1863556 0.7677369 0.6130674
vn -0.25271225 -0.37334552 0.8926084
vn -0.23678589 0.77500486 0.58591795
vn -0.2406508 0.57386285 0.7827954
vn -0.33631036 0.77390665 0.5366225
vn -0.33436862 0.7742565 0.53733087
vn -0.48863065 -0.3461541 0.80088544
vn -0.47030523 -0.7467434 0.47030553
vn -0.035154715 -0.99929774 0.012971328
vn -0.44422883 0.7780239 0.4442292
vn -0.4409406 0.7817561 0.4409409
vn -0.4609305 0.523078 0.7168909
vn -0.8008852 -0.34615436 0.48863077
vn -0.5373307 0.77425647 0.334369
vn -0.8926084 -0.3733453 0.25271234
vn -0.65182513 -0.7583694 0
vn -0.054643583 -0.9982577 -0.02226152
vn -0.6130674 0.7677368 0.18635592
vn -0.5366222 0.7739068 0.33631077
vn -0.5022571 0.7039 0.5022576
vn -0.62266606 0.4738924 0.62266594
vn -0.7168906 0.523078 0.46093094
vn -0.6177518 0.7633916 0.18872221
vn -0.6435263 0.765424 0
vn -0.7827952 0.57386297 0.240651
vn -0.5859178 0.775005 0.2367862
vn -0.648626 0.76110715 0
vn -0.8926086 -0.37334502 -0.25271177
vn -0.6130677 0.76773673 -0.18635544
vn -0.80446595 0.5939988 0
vn -0.2569168 0.9316583 0.25691712
vn -0.25855246 0.9659972 0
vn -0 1 0
vn -0.6039097 0.79705274 0
vn -0.25855246 0.9659972 0
vn -0.8008857 -0.34615412 -0.48863018
vn -0.617752 0.76339155 -0.18872163
vn -0.7827955 0.5738628 -0.24065036
vn -0.585918 0.77500504 -0.23678547
vn -0.25691673 0.93165857 -0.2569164
vn -0.4703059 -0.7467434 -0.4703049
vn -0.018999934 -0.99926347 -0.033339456
vn -0.5373313 0.77425647 -0.33436835
vn -0.5366227 0.7739068 -0.33630982
vn -0.7168911 0.52307844 -0.46092972
vn -0.44422936 0.7780239 -0.44422862
vn -0.48863074 -0.3461544 -0.8008852
vn -0.4409412 0.7817558 -0.4409407
vn -0.50225765 0.7039002 -0.5022566
vn -0.25271195 -0.37334496 -0.8926087
vn -0 -0.75836945 -0.6518249
vn -0.33436862 0.77425647 -0.5373309
vn -0.1863556 0.7677368 -0.6130675
vn -0 0.76542383 -0.64352655
vn -0.6226663 0.473893 -0.6226654
vn -0.33631027 0.7739067 -0.5366225
vn -0.18872191 0.7633913 -0.6177521
vn -0 0.761107 -0.64862627
vn -0.4609308 0.5230783 -0.71689045
vn -0.24065082 0.5738634 -0.7827951
vn -0 0.5939989 -0.8044659
vn -0 0.79705304 -0.60390925
vn -0.23678587 0.7750052 -0.5859174
vn -0 0.96599734 -0.258552
vn -0 1 0
vn -0.054643583 -0.9982577 -0.02226152
vn -0.035154715 -0.99929774 0.012971328
vn -0.018999934 -0.99926347 -0.033339456
vn -0.02226156 -0.9982577 0.05464356
vn 0.011136452 -0.99887687 0.04605275
vn -0.035154715 -0.99929774 0.012971328
vn -0.035154715 -0.99929774 0.012971328
vn 0.0009312732 -0.9999982 0.001683631
vn -0.018999934 -0.99926347 -0.033339456
vn -0 0.96599734 -0.258552
vn -0 1 0
vn 0.25855216 0.96599734 0
vn -0 0.79705304 -0.60390925
vn 0.23678559 0.7750054 -0.5859175
vn -0 0.5939989 -0.8044659
vn 0.5022571 0.7039004 -0.50225693
vn 0.24065039 0.5738632 -0.7827952
vn 0.18872178 0.76339126 -0.6177523
vn -0 0.761107 -0.64862627
vn 0.18635556 0.7677367 -0.61306775
vn -0 0.76542383 -0.64352655
vn 0.2527119 -0.37334466 -0.8926088
vn -0 -0.75836945 -0.6518249
vn 0.019444408 -0.9983012 -0.05492487
vn -0.018999934 -0.99926347 -0.033339456
vn 0.0009312732 -0.9999982 0.001683631
vn 0.48863047 -0.34615397 -0.8008856
vn 0.33436874 0.7742563 -0.53733116
vn 0.4703055 -0.7467434 -0.47030526
vn 0.3363104 0.7739066 -0.53662264
vn 0.8008854 -0.34615394 -0.48863083
vn 0.44422916 0.7780238 -0.44422898
vn 0.5373311 0.7742564 -0.33436868
vn 0.46093065 0.52307826 -0.7168906
vn 0.6177521 0.7633913 -0.18872185
vn 0.71689063 0.5230784 -0.46093053
vn 0.5366226 0.7739067 -0.33631012
vn 0.44094124 0.7817557 -0.44094092
vn 0.6226661 0.47389296 -0.6226654
g slime_puddle_LOD1_0
f 3/3/3 2/2/2 1/1/1
f 5/5/5 4/4/4 2/2/2
f 6/6/6 5/5/5 2/2/2
f 7/7/7 5/5/5 6/6/6
f 7/7/7 8/8/8 5/5/5
f 8/8/8 9/9/9 5/5/5
f 5/5/5 9/9/9 10/10/10
f 9/9/9 11/11/11 10/10/10
f 10/10/10 11/11/11 12/12/12
f 8/8/8 13/13/13 9/9/9
f 9/9/9 14/14/14 11/11/11
f 13/13/13 14/14/14 9/9/9
f 15/15/15 8/8/8 7/7/7
f 16/16/16 13/13/13 8/8/8
f 15/15/15 16/16/16 8/8/8
f 16/16/16 17/17/17 13/13/13
f 13/13/13 18/18/18 14/14/14
f 17/17/17 18/18/18 13/13/13
f 16/16/16 15/15/15 19/19/19
f 17/17/17 16/16/16 19/19/19
f 14/14/14 20/20/20 11/11/11
f 11/11/11 21/21/21 12/12/12
f 11/11/11 20/20/20 21/21/21
f 18/18/18 22/22/22 14/14/14
f 14/14/14 22/22/22 20/20/20
f 23/23/23 15/15/15 7/7/7
f 19/19/19 15/15/15 24/24/24
f 15/15/15 23/23/23 24/24/24
f 23/23/23 7/7/7 25/25/25
f 25/25/25 7/7/7 6/6/6
f 26/26/26 18/18/18 17/17/17
f 27/27/27 17/17/17 19/19/19
f 27/27/27 26/26/26 17/17/17
f 28/28/28 22/22/22 18/18/18
f 26/26/26 28/28/28 18/18/18
f 29/29/29 19/19/19 24/24/24
f 29/29/29 27/27/27 19/19/19
f 22/22/22 30/30/30 20/20/20
f 28/28/28 31/31/31 22/22/22
f 31/31/31 30/30/30 22/22/22
f 20/20/20 30/30/30 32/32/32
f 20/20/20 32/32/32 21/21/21
f 33/33/33 28/28/28 26/26/26
f 34/34/34 26/26/26 27/27/27
f 34/34/34 33/33/33 26/26/26
f 33/33/33 35/35/35 28/28/28
f 35/35/35 31/31/31 28/28/28
f 36/36/36 34/34/34 27/27/27
f 36/36/36 27/27/27 29/29/29
f 34/34/34 37/37/37 33/33/33
f 33/33/33 37/37/37 35/35/35
f 36/36/36 37/37/37 34/34/34
f 31/31/31 38/38/38 30/30/30
f 35/35/35 39/39/39 31/31/31
f 39/39/39 38/38/38 31/31/31
f 35/35/35 40/40/40 39/39/39
f 35/35/35 37/37/37 40/40/40
f 40/40/40 37/37/37 41/41/41
f 36/36/36 42/42/42 37/37/37
f 37/37/37 42/42/42 43/43/43
f 44/44/44 43/43/43 42/42/42
f 45/45/45 36/36/36 29/29/29
f 45/45/45 42/42/42 36/36/36
f 45/45/45 29/29/29 46/46/46
f 46/46/46 29/29/29 24/24/24
f 47/47/47 42/42/42 45/45/45
f 47/47/47 45/45/45 46/46/46
f 46/46/46 24/24/24 48/48/48
f 24/24/24 23/23/23 48/48/48
f 49/49/49 42/42/42 47/47/47
f 49/49/49 50/50/50 42/42/42
f 47/47/47 46/46/46 51/51/51
f 51/51/51 46/46/46 48/48/48
f 49/49/49 47/47/47 51/51/51
f 23/23/23 52/52/52 48/48/48
f 52/52/52 23/23/23 25/25/25
f 51/51/51 48/48/48 53/53/53
f 48/48/48 52/52/52 53/53/53
f 49/49/49 51/51/51 54/54/54
f 54/54/54 51/51/51 53/53/53
f 55/55/55 50/50/50 49/49/49
f 55/55/55 49/49/49 54/54/54
f 52/52/52 25/25/25 56/56/56
f 52/52/52 57/57/57 53/53/53
f 57/57/57 52/52/52 56/56/56
f 54/54/54 53/53/53 58/58/58
f 53/53/53 57/57/57 58/58/58
f 55/55/55 54/54/54 59/59/59
f 59/59/59 54/54/54 58/58/58
f 60/60/60 50/50/50 55/55/55
f 60/60/60 55/55/55 59/59/59
f 61/61/61 50/50/50 60/60/60
f 50/50/50 61/61/61 62/62/62
f 60/60/60 59/59/59 63/63/63
f 61/61/61 60/60/60 63/63/63
f 59/59/59 58/58/58 64/64/64
f 63/63/63 59/59/59 64/64/64
f 57/57/57 65/65/65 58/58/58
f 58/58/58 65/65/65 64/64/64
f 66/66/66 61/61/61 63/63/63
f 66/66/66 62/62/62 61/61/61
f 67/67/67 66/66/66 63/63/63
f 67/67/67 63/63/63 64/64/64
f 68/68/68 62/62/62 66/66/66
f 68/68/68 66/66/66 67/67/67
f 69/69/69 62/62/62 68/68/68
f 62/62/62 69/69/69 70/70/70
f 71/71/71 68/68/68 67/67/67
f 69/69/69 68/68/68 71/71/71
f 72/72/72 67/67/67 64/64/64
f 71/71/71 67/67/67 72/72/72
f 65/65/65 57/57/57 73/73/73
f 57/57/57 56/56/56 73/73/73
f 65/65/65 74/74/74 64/64/64
f 64/64/64 74/74/74 72/72/72
f 74/74/74 65/65/65 75/75/75
f 74/74/74 75/75/75 72/72/72
f 65/65/65 73/73/73 75/75/75
f 76/76/76 71/71/71 72/72/72
f 72/72/72 75/75/75 76/76/76
f 77/77/77 69/69/69 71/71/71
f 77/77/77 71/71/71 76/76/76
f 75/75/75 73/73/73 78/78/78
f 75/75/75 78/78/78 76/76/76
f 73/73/73 56/56/56 79/79/79
f 73/73/73 79/79/79 78/78/78
f 76/76/76 78/78/78 80/80/80
f 80/80/80 77/77/77 76/76/76
f 81/81/81 69/69/69 77/77/77
f 81/81/81 70/70/70 69/69/69
f 82/82/82 81/81/81 77/77/77
f 82/82/82 77/77/77 80/80/80
f 78/78/78 83/83/83 80/80/80
f 78/78/78 79/79/79 83/83/83
f 56/56/56 84/84/84 79/79/79
f 56/56/56 25/25/25 84/84/84
f 25/25/25 6/6/6 84/84/84
f 84/84/84 6/6/6 85/85/85
f 6/6/6 86/86/86 85/85/85
f 79/79/79 84/84/84 87/87/87
f 79/79/79 87/87/87 83/83/83
f 84/84/84 88/88/88 87/87/87
f 89/89/89 70/70/70 81/81/81
f 89/89/89 81/81/81 82/82/82
f 80/80/80 83/83/83 90/90/90
f 90/90/90 82/82/82 80/80/80
f 83/83/83 87/87/87 91/91/91
f 83/83/83 91/91/91 90/90/90
f 87/87/87 88/88/88 92/92/92
f 87/87/87 92/92/92 91/91/91
f 88/88/88 93/93/93 92/92/92
f 94/94/94 70/70/70 89/89/89
f 94/94/94 95/95/95 70/70/70
f 96/96/96 89/89/89 82/82/82
f 96/96/96 82/82/82 90/90/90
f 94/94/94 89/89/89 96/96/96
f 90/90/90 91/91/91 97/97/97
f 97/97/97 96/96/96 90/90/90
f 91/91/91 92/92/92 98/98/98
f 91/91/91 98/98/98 97/97/97
f 99/99/99 94/94/94 96/96/96
f 99/99/99 96/96/96 97/97/97
f 100/100/100 95/95/95 94/94/94
f 100/100/100 94/94/94 99/99/99
f 101/101/101 99/99/99 97/97/97
f 97/97/97 98/98/98 101/101/101
f 92/92/92 102/102/102 98/98/98
f 92/92/92 93/93/93 102/102/102
f 103/103/103 95/95/95 100/100/100
f 104/104/104 95/95/95 103/103/103
f 105/105/105 100/100/100 99/99/99
f 103/103/103 100/100/100 105/105/105
f 105/105/105 99/99/99 101/101/101
f 104/104/104 103/103/103 106/106/106
f 106/106/106 103/103/103 105/105/105
f 107/107/107 104/104/104 106/106/106
f 98/98/98 108/108/108 101/101/101
f 98/98/98 102/102/102 108/108/108
f 109/109/109 105/105/105 101/101/101
f 106/106/106 105/105/105 109/109/109
f 101/101/101 108/108/108 109/109/109
f 107/107/107 106/106/106 110/110/110
f 110/110/110 106/106/106 109/109/109
f 111/111/111 107/107/107 110/110/110
f 108/108/108 112/112/112 109/109/109
f 102/102/102 112/112/112 108/108/108
f 109/109/109 112/112/112 110/110/110
f 110/110/110 113/113/113 111/111/111
f 112/112/112 113/113/113 110/110/110
f 113/113/113 114/114/114 111/111/111
f 115/115/115 114/114/114 113/113/113
f 102/102/102 116/116/116 112/112/112
f 116/116/116 113/113/113 112/112/112
f 116/116/116 115/115/115 113/113/113
f 93/93/93 116/116/116 102/102/102
f 117/117/117 115/115/115 116/116/116
f 93/93/93 117/117/117 116/116/116
f 118/118/118 117/117/117 93/93/93
f 121/121/121 120/120/120 119/119/119
f 124/124/124 123/123/123 122/122/122
f 127/127/127 126/126/126 125/125/125
f 129/129/129 10/10/10 128/128/128
f 130/130/130 12/12/12 128/128/128
f 128/128/128 12/12/12 131/131/131
f 12/12/12 132/132/132 131/131/131
f 12/12/12 21/21/21 132/132/132
f 131/131/131 132/132/132 133/133/133
f 21/21/21 134/134/134 132/132/132
f 21/21/21 32/32/32 134/134/134
f 132/132/132 135/135/135 133/133/133
f 132/132/132 134/134/134 135/135/135
f 133/133/133 135/135/135 136/136/136
f 137/137/137 133/133/133 136/136/136
f 136/136/136 138/138/138 137/137/137
f 138/138/138 139/139/139 137/137/137
f 138/138/138 140/140/140 139/139/139
f 140/140/140 141/141/141 139/139/139
f 140/140/140 142/142/142 141/141/141
f 143/143/143 141/141/141 142/142/142
f 144/144/144 143/143/143 142/142/142
f 142/142/142 40/40/40 144/144/144
f 145/145/145 140/140/140 138/138/138
f 145/145/145 142/142/142 140/140/140
f 146/146/146 138/138/138 136/136/136
f 146/146/146 145/145/145 138/138/138
f 147/147/147 142/142/142 145/145/145
f 142/142/142 147/147/147 40/40/40
f 147/147/147 145/145/145 146/146/146
f 136/136/136 135/135/135 148/148/148
f 148/148/148 146/146/146 136/136/136
f 149/149/149 40/40/40 147/147/147
f 39/39/39 40/40/40 149/149/149
f 39/39/39 149/149/149 38/38/38
f 150/150/150 147/147/147 146/146/146
f 150/150/150 146/146/146 148/148/148
f 149/149/149 147/147/147 151/151/151
f 149/149/149 151/151/151 38/38/38
f 147/147/147 150/150/150 151/151/151
f 135/135/135 152/152/152 148/148/148
f 134/134/134 152/152/152 135/135/135
f 38/38/38 151/151/151 153/153/153
f 38/38/38 153/153/153 30/30/30
f 30/30/30 153/153/153 32/32/32
f 32/32/32 154/154/154 134/134/134
f 32/32/32 153/153/153 154/154/154
f 134/134/134 154/154/154 152/152/152
f 151/151/151 155/155/155 153/153/153
f 151/151/151 150/150/150 155/155/155
f 153/153/153 155/155/155 154/154/154
f 156/156/156 150/150/150 148/148/148
f 148/148/148 152/152/152 156/156/156
f 150/150/150 156/156/156 155/155/155
f 154/154/154 157/157/157 152/152/152
f 154/154/154 155/155/155 157/157/157
f 155/155/155 156/156/156 157/157/157
f 152/152/152 157/157/157 156/156/156
