g slime_default_LOD2
v -3.952712E-08 0.68538624 -0.3814662
v 0.12437235 0.848959 -0.22104779
v -3.7648018E-08 0.8726008 -0.23188925
v 0.13541004 0.29426244 -0.4789914
v -6.21992E-08 0.29426244 -0.49459964
v 0.12285184 0.06708459 -0.39747375
v -8.4212715E-08 0.06563417 -0.41287187
v -9.548882E-08 0.018449767 -0.1306638
v 0.116273314 0.6730548 -0.36417413
v 0.12437235 0.848959 -0.22104779
v 0.12831236 0.02272282 -0.128133
v -9.5488815E-08 0.018449795 0.13226989
v 0.12831233 0.022722844 0.12889151
v 0.2964495 0.0878997 -0.3039508
v 0.34220603 0.29426244 -0.35125896
v 0.38919142 0.06708459 -0.12821728
v 0.31518114 0.7057508 -0.16573215
v 0.26485622 0.62024176 -0.2930257
v 0.468538 0.29426244 -0.14217073
v 0.31638777 0.74417454 0.06747351
v 0.12448843 0.9098471 0.027464928
v 0.38919142 0.06708459 0.120177105
v 0.468538 0.29426247 0.13165109
v 0.1228518 0.067084596 0.38943338
v 0.29644942 0.08789979 0.29554254
v 0.34220588 0.29426247 0.34073928
v -8.421263E-08 0.06563416 0.40511912
v -9.5488815E-08 0.018449795 0.13226989
v 0.26797283 0.68853116 0.23832837
v 0.13540992 0.29426247 0.4684715
v 0.117479995 0.7768703 0.2659155
v -3.662098E-08 0.93833387 0.022218935
v -3.879457E-08 0.79895616 0.2725859
v -6.21992E-08 0.29426247 0.48408008
v -0.122851916 0.06708464 0.3894332
v -9.5488815E-08 0.018449795 0.13226989
v -0.12831256 0.022722857 0.12889153
v -0.13540998 0.29426256 0.46847123
v -0.29644936 0.08790003 0.29554242
v -0.11748004 0.7768702 0.26591542
v -0.34220576 0.2942625 0.340739
v -0.38919133 0.06708464 0.12017706
v -0.12448849 0.9098471 0.027464917
v -3.662098E-08 0.93833387 0.022218935
v -0.12831257 0.022722844 -0.128133
v -9.548882E-08 0.018449767 -0.1306638
v -0.4685378 0.2942625 0.13165104
v -0.2679727 0.6885309 0.23832832
v -0.31638774 0.7441743 0.067473546
v -0.38919142 0.06708463 -0.12821725
v -0.46853784 0.29426247 -0.14217068
v -0.3151811 0.7057508 -0.16573209
v -0.12437244 0.848959 -0.22104779
v -0.12285201 0.06708458 -0.39747375
v -0.29644963 0.08789984 -0.30395076
v -0.34220603 0.29426247 -0.3512588
v -8.4212715E-08 0.06563417 -0.41287187
v -9.548882E-08 0.018449767 -0.1306638
v -0.13541017 0.29426247 -0.4789914
v -6.21992E-08 0.29426244 -0.49459964
v -0.26485616 0.6202417 -0.29302564
v -0.11627339 0.6730548 -0.3641741
v -3.952712E-08 0.68538624 -0.3814662
v -3.7648018E-08 0.8726008 -0.23188925
v -3.662098E-08 0.93833387 0.022218935
v 0.12448843 0.9098471 0.027464928
v -3.662098E-08 0.93833387 0.022218935
v -0.12437244 0.848959 -0.22104779
v -3.7648018E-08 0.8726008 -0.23188925
v 0.12437235 0.848959 -0.22104779
v -0.12831256 0.022722857 0.12889153
v -9.5488815E-08 0.018449795 0.13226989
vt 1.5000017 0.7212515
vt 1.2167823 0.87268645
vt 1.5000021 0.8826449
vt 1.3977692 0.36387697
vt 1.5000017 0.3636655
vt 1.3890252 0.19937775
vt 1.5000017 0.19685042
vt 1.4999976 0.0590567
vt 1.3716352 0.70748615
vt 1.2167823 0.87268645
vt 1.2167823 0.07918766
vt 0.49920353 0.064377934
vt 0.7752445 0.08191719
vt 1.2214187 0.21090487
vt 1.2217964 0.36341006
vt 1.0544692 0.20039994
vt 1.070492 0.70540226
vt 1.2211025 0.64688736
vt 1.0466548 0.36434275
vt 0.91415143 0.7029255
vt 0.7752447 0.86982477
vt 0.93259287 0.20238093
vt 0.94206285 0.36484694
vt 0.6082932 0.20325951
vt 0.7797929 0.21283032
vt 0.7801733 0.36435542
vt 0.49920315 0.20065737
vt 0.49920353 0.064377934
vt 0.77947503 0.64275473
vt 0.5997702 0.36528006
vt 0.62535334 0.7011006
vt 0.49920332 0.8804934
vt 0.49920332 0.7146531
vt 0.49920315 0.36500573
vt 0.3901383 0.20325887
vt 0.49920353 0.064377934
vt 0.22318369 0.08186409
vt 0.3986615 0.36528018
vt 0.2186318 0.21277887
vt 0.37307793 0.7011001
vt 0.21824741 0.36432642
vt 0.06824064 0.20230222
vt 0.22318554 0.8698205
vt 0.49920332 0.8804934
vt -0.21670675 0.079012334
vt 1.4999976 0.0590567
vt 0.05876994 0.36479485
vt 0.21894217 0.64272237
vt 0.08668023 0.7028756
vt -0.05332628 0.20049044
vt -0.04545833 0.36432195
vt -0.06945337 0.70547485
vt -0.21671422 0.872502
vt -0.39009547 0.19944626
vt -0.22137631 0.21080732
vt -0.22176023 0.36334658
vt -0.4999981 0.19697931
vt -0.4999959 0.059020042
vt -0.39890397 0.36384127
vt -0.50000083 0.36362836
vt -0.22106773 0.6466913
vt -0.37260157 0.7073376
vt -0.50000334 0.7211872
vt -0.49999964 0.8826321
vt 0.49920332 0.8804934
vt 0.7752447 0.86982477
vt 0.49920332 0.8804934
vt -0.21671422 0.872502
vt -0.49999964 0.8826321
vt 1.2167823 0.87268645
vt 0.22318369 0.08186409
vt 0.49920353 0.064377934
vn -0 0.4174761 -0.90868795
vn 0.47203797 0.77476144 -0.42062446
vn -0 0.8568086 -0.5156345
vn 0.36702424 0.04545877 -0.92910004
vn -0 0.050262943 -0.9987361
vn 0.2717425 -0.72638005 -0.6312907
vn -0 -0.77123946 -0.6365452
vn -0 -0.99635786 -0.08527078
vn 0.3662244 0.3967879 -0.8416882
vn 0.47203797 0.77476144 -0.42062446
vn 0.12266063 -0.98932475 -0.07868315
vn -0 -0.9962011 0.087082155
vn 0.12424929 -0.98895836 0.0807676
vn 0.5354673 -0.6584438 -0.5288918
vn 0.7096753 0.044570237 -0.7031176
vn 0.6549973 -0.73705673 -0.1665108
vn 0.8462628 0.47238526 -0.24635631
vn 0.661152 0.33768323 -0.6699612
vn 0.97255605 0.088337995 -0.21524678
vn 0.84496635 0.514634 0.1455465
vn 0.46759224 0.8789441 0.093887076
vn 0.6566067 -0.73554736 0.16684642
vn 0.97237456 0.10492175 0.20851666
vn 0.2760536 -0.71621525 0.6409604
vn 0.5406818 -0.6492821 0.5348793
vn 0.70391345 0.11302844 0.7012348
vn -0 -0.7605146 0.6493207
vn -0 -0.9962011 0.087082155
vn 0.65253085 0.41984603 0.6308191
vn 0.33242765 0.14094144 0.9325381
vn 0.33452725 0.555595 0.7611871
vn -0 0.99224687 0.12428245
vn -0 0.59346825 0.80485743
vn -0 0.17084552 0.98529786
vn -0.27605435 -0.7162149 0.64096045
vn -0 -0.9962011 0.087082155
vn -0.12424968 -0.98895836 0.08076783
vn -0.33242837 0.1409415 0.93253785
vn -0.54068226 -0.64928144 0.53487974
vn -0.33452788 0.55559474 0.76118684
vn -0.70391357 0.11302839 0.70123476
vn -0.656607 -0.7355471 0.16684662
vn -0.46759266 0.8789439 0.09388731
vn -0 0.99224687 0.12428245
vn -0.12266088 -0.9893246 -0.07868322
vn -0 -0.99635786 -0.08527078
vn -0.97237444 0.104921766 0.20851684
vn -0.65253097 0.41984582 0.63081914
vn -0.8449665 0.5146338 0.14554675
vn -0.6549977 -0.73705643 -0.16651064
vn -0.97255605 0.08833806 -0.21524657
vn -0.8462629 0.4723851 -0.24635607
vn -0.4720382 0.7747613 -0.42062426
vn -0.2717429 -0.72637993 -0.6312908
vn -0.5354678 -0.65844333 -0.52889186
vn -0.70967555 0.044570424 -0.7031173
vn -0 -0.77123946 -0.6365452
vn -0 -0.99635786 -0.08527078
vn -0.36702463 0.045458898 -0.9290998
vn -0 0.050262943 -0.9987361
vn -0.66115236 0.33768302 -0.66996104
vn -0.36622462 0.39678782 -0.8416881
vn -0 0.4174761 -0.90868795
vn -0 0.8568086 -0.5156345
vn -0 0.99224687 0.12428245
vn 0.46759224 0.8789441 0.093887076
vn -0 0.99224687 0.12428245
vn -0.4720382 0.7747613 -0.42062426
vn -0 0.8568086 -0.5156345
vn 0.47203797 0.77476144 -0.42062446
vn -0.12424968 -0.98895836 0.08076783
vn -0 -0.9962011 0.087082155
g slime_default_LOD2_0
f 3/3/3 2/2/2 1/1/1
f 5/5/5 1/1/1 4/4/4
f 5/5/5 4/4/4 6/6/6
f 7/7/7 5/5/5 6/6/6
f 8/8/8 7/7/7 6/6/6
f 1/1/1 9/9/9 4/4/4
f 10/10/10 9/9/9 1/1/1
f 11/11/11 8/8/8 6/6/6
f 12/12/12 8/8/8 11/11/11
f 13/13/13 12/12/12 11/11/11
f 6/6/6 4/4/4 14/14/14
f 11/11/11 6/6/6 14/14/14
f 4/4/4 15/15/15 14/14/14
f 4/4/4 9/9/9 15/15/15
f 16/16/16 11/11/11 14/14/14
f 13/13/13 11/11/11 16/16/16
f 16/16/16 14/14/14 15/15/15
f 10/10/10 17/17/17 9/9/9
f 9/9/9 18/18/18 15/15/15
f 17/17/17 18/18/18 9/9/9
f 19/19/19 15/15/15 18/18/18
f 19/19/19 16/16/16 15/15/15
f 17/17/17 19/19/19 18/18/18
f 20/20/20 17/17/17 10/10/10
f 21/21/21 20/20/20 10/10/10
f 22/22/22 16/16/16 19/19/19
f 22/22/22 13/13/13 16/16/16
f 23/23/23 19/19/19 17/17/17
f 20/20/20 23/23/23 17/17/17
f 23/23/23 22/22/22 19/19/19
f 24/24/24 13/13/13 22/22/22
f 25/25/25 22/22/22 23/23/23
f 25/25/25 24/24/24 22/22/22
f 26/26/26 25/25/25 23/23/23
f 26/26/26 23/23/23 20/20/20
f 25/25/25 26/26/26 24/24/24
f 24/24/24 27/27/27 13/13/13
f 27/27/27 28/28/28 13/13/13
f 29/29/29 26/26/26 20/20/20
f 29/29/29 20/20/20 21/21/21
f 26/26/26 30/30/30 24/24/24
f 26/26/26 29/29/29 30/30/30
f 24/24/24 30/30/30 27/27/27
f 31/31/31 29/29/29 21/21/21
f 29/29/29 31/31/31 30/30/30
f 31/31/31 21/21/21 32/32/32
f 33/33/33 31/31/31 32/32/32
f 30/30/30 31/31/31 34/34/34
f 30/30/30 34/34/34 27/27/27
f 31/31/31 33/33/33 34/34/34
f 27/27/27 34/34/34 35/35/35
f 27/27/27 35/35/35 36/36/36
f 35/35/35 37/37/37 36/36/36
f 34/34/34 38/38/38 35/35/35
f 34/34/34 33/33/33 38/38/38
f 35/35/35 39/39/39 37/37/37
f 35/35/35 38/38/38 39/39/39
f 33/33/33 40/40/40 38/38/38
f 38/38/38 41/41/41 39/39/39
f 38/38/38 40/40/40 41/41/41
f 39/39/39 42/42/42 37/37/37
f 39/39/39 41/41/41 42/42/42
f 40/40/40 33/33/33 43/43/43
f 33/33/33 44/44/44 43/43/43
f 37/37/37 42/42/42 45/45/45
f 37/37/37 45/45/45 46/46/46
f 41/41/41 47/47/47 42/42/42
f 40/40/40 48/48/48 41/41/41
f 41/41/41 48/48/48 47/47/47
f 48/48/48 40/40/40 49/49/49
f 40/40/40 43/43/43 49/49/49
f 48/48/48 49/49/49 47/47/47
f 42/42/42 47/47/47 50/50/50
f 42/42/42 50/50/50 45/45/45
f 47/47/47 49/49/49 51/51/51
f 47/47/47 51/51/51 50/50/50
f 49/49/49 43/43/43 52/52/52
f 49/49/49 52/52/52 51/51/51
f 43/43/43 53/53/53 52/52/52
f 45/45/45 50/50/50 54/54/54
f 50/50/50 51/51/51 55/55/55
f 50/50/50 55/55/55 54/54/54
f 51/51/51 56/56/56 55/55/55
f 51/51/51 52/52/52 56/56/56
f 55/55/55 56/56/56 54/54/54
f 45/45/45 54/54/54 57/57/57
f 58/58/58 45/45/45 57/57/57
f 54/54/54 59/59/59 57/57/57
f 56/56/56 59/59/59 54/54/54
f 59/59/59 60/60/60 57/57/57
f 52/52/52 61/61/61 56/56/56
f 56/56/56 61/61/61 59/59/59
f 52/52/52 53/53/53 61/61/61
f 59/59/59 62/62/62 60/60/60
f 61/61/61 62/62/62 59/59/59
f 53/53/53 62/62/62 61/61/61
f 62/62/62 63/63/63 60/60/60
f 64/64/64 63/63/63 62/62/62
f 53/53/53 64/64/64 62/62/62
f 65/65/65 64/64/64 53/53/53
f 67/67/67 66/66/66 64/64/64
f 43/43/43 65/65/65 68/68/68
f 21/21/21 70/70/70 69/69/69
f 72/72/72 71/71/71 8/8/8
