g slime_face_LOD1
v -0.35968316 0.59006107 0.2333204
v -0.2903675 0.75306374 0.21460941
v -0.27053133 0.71443295 0.27275115
v -0.30667946 0.5704922 0.30710265
v -0.40080428 0.47034588 0.24854669
v -0.20941067 0.75368094 0.29542527
v -0.2903675 0.75306374 0.21460941
v -0.20495085 0.83919626 0.21490198
v -0.3326132 0.46325666 0.3326045
v -0.43391797 0.29912922 0.26556566
v -0.11273783 0.7818968 0.3130901
v -0.10552833 0.88244635 0.21755554
v -0.23068723 0.59056836 0.3617577
v -0.3586903 0.2950572 0.35869035
v -0.4067881 0.15367736 0.25181976
v -4.8882473E-08 0.7958011 0.32169926
v -4.997711E-08 0.89776397 0.2184238
v -0.24644768 0.4704898 0.40229616
v -0.12580602 0.6170109 0.40092114
v -0.33723682 0.15634878 0.3372369
v -0.35526073 0.061449185 0.2300753
v -0.30209294 0.067948304 0.30209303
v 0.11273774 0.7818968 0.3130902
v 0.10552825 0.88244647 0.21755561
v -0.26339304 0.29905683 0.43548104
v -0.24973737 0.153423 0.40816164
v -0.2281256 0.06100163 0.35635215
v -0.13404933 0.48133108 0.4540735
v -5.3110796E-08 0.62759185 0.41543233
v 0.20941068 0.75368106 0.2954254
v 0.20495081 0.8391965 0.21490207
v -0.13600281 0.14793764 0.46122015
v -0.12528129 0.050548565 0.39681026
v -0.14235014 0.30610505 0.4919573
v -6.730008E-08 0.4863559 0.4746319
v 0.12580596 0.617011 0.40092123
v 0.27053148 0.71443295 0.2727512
v 0.29036754 0.7530639 0.21460953
v -9.77567E-08 0.14512545 0.48258328
v -1.0432932E-07 0.045806445 0.41229737
v -8.723798E-08 0.30913833 0.50868803
v 0.1340493 0.48133114 0.45407376
v 0.23068722 0.5905685 0.3617578
v 0.1360027 0.14793757 0.46122038
v 0.12528113 0.050548427 0.39681038
v 0.14235006 0.306105 0.49195763
v 0.3066796 0.5704922 0.3071028
v 0.29036754 0.7530639 0.21460953
v 0.35968328 0.5900612 0.23332053
v 0.24644776 0.4704898 0.40229648
v 0.33261335 0.4632568 0.33260456
v 0.4008044 0.47034588 0.24854685
v 0.2633931 0.29905677 0.43548134
v 0.24973743 0.15342297 0.40816194
v 0.22812551 0.061001457 0.35635227
v 0.35869044 0.29505715 0.35869062
v 0.43391824 0.29912916 0.26556578
v 0.33723682 0.15634862 0.33723715
v 0.30209297 0.067948185 0.3020932
v 0.40678826 0.15367733 0.2518199
v 0.35526073 0.061449047 0.23007537
vt 0.14121842 0.589298
vt 0.1618793 0.67160153
vt 0.21894215 0.64272237
vt 0.21862565 0.5785466
vt 0.13336933 0.48188236
vt 0.27625018 0.67100084
vt 0.1618793 0.67160153
vt 0.21977234 0.7331081
vt 0.21836029 0.47827858
vt 0.13127744 0.36445603
vt 0.3730779 0.70110005
vt 0.33031178 0.7820615
vt 0.29593843 0.5886993
vt 0.2182474 0.3643264
vt 0.13337272 0.2616487
vt 0.49920332 0.7146531
vt 0.4992035 0.8044636
vt 0.30316913 0.481661
vt 0.39013958 0.6039091
vt 0.21836172 0.26396883
vt 0.14122427 0.20848048
vt 0.21863179 0.21277887
vt 0.62535334 0.7011005
vt 0.66811985 0.7820643
vt 0.3050244 0.36470887
vt 0.30316865 0.2622005
vt 0.29594064 0.20893069
vt 0.39687043 0.48759103
vt 0.49920318 0.6109428
vt 0.7221734 0.6710159
vt 0.77865076 0.73312974
vt 0.39687002 0.25897145
vt 0.3901383 0.20325887
vt 0.3986615 0.36528018
vt 0.49920335 0.4905324
vt 0.6082932 0.6039091
vt 0.779475 0.64275473
vt 0.8365364 0.67164177
vt 0.49920318 0.25748914
vt 0.49920318 0.20065737
vt 0.49920318 0.36500573
vt 0.60156125 0.48759115
vt 0.70248777 0.58870935
vt 0.60156125 0.25897157
vt 0.6082932 0.20325951
vt 0.5997702 0.36528006
vt 0.779793 0.578577
vt 0.8365364 0.67164177
vt 0.85719836 0.58934
vt 0.6952566 0.4816688
vt 0.78005964 0.478308
vt 0.8650495 0.48192477
vt 0.69340074 0.3647166
vt 0.6952566 0.26220754
vt 0.70248777 0.2089437
vt 0.78017324 0.3643554
vt 0.8671428 0.3644976
vt 0.78005964 0.26399788
vt 0.77979285 0.2128303
vt 0.8650495 0.26168826
vt 0.85719836 0.20854399
vn -0.7348202 0.33972237 0.5870502
vn -0.6642255 0.4740596 0.57798964
vn -0.6473517 0.40314758 0.6468447
vn -0.6651404 0.33712253 0.6662858
vn -0.74337447 0.25296485 0.61919546
vn -0.42853674 0.50311047 0.75049067
vn -0.6642255 0.4740596 0.57798964
vn -0.38559553 0.64546496 0.659311
vn -0.6832422 0.25124067 0.68560797
vn -0.7734697 0.024876283 0.633345
vn -0.22177762 0.55806977 0.7996079
vn -0.19607548 0.6874744 0.6992377
vn -0.47168404 0.36861098 0.8010243
vn -0.70568585 0.0158894 0.70834666
vn -0.7364343 -0.31445926 0.59898245
vn -0 0.58099467 0.8139074
vn -0 0.7028159 0.7113717
vn -0.51223326 0.2614318 0.8180896
vn -0.24969256 0.41636375 0.8742395
vn -0.6692657 -0.31742623 0.67180663
vn -0.6707773 -0.4956271 0.55173504
vn -0.6122026 -0.4974838 0.6145874
vn 0.22177668 0.5580699 0.79960805
vn 0.1960744 0.6874745 0.69923794
vn -0.52587616 0.01896103 0.8503498
vn -0.49263778 -0.3263008 0.806744
vn -0.45123294 -0.5178261 0.7268046
vn -0.2725007 0.2759815 0.9217254
vn -0 0.43661043 0.89965063
vn 0.42853627 0.50311065 0.7504907
vn 0.38559505 0.64546514 0.6593111
vn -0.2597457 -0.33687973 0.9050106
vn -0.24109003 -0.55332 0.7973158
vn -0.2766433 0.02335243 0.96068895
vn -0 0.28127933 0.9596259
vn 0.24969165 0.41636425 0.8742396
vn 0.6473515 0.40314776 0.64684457
vn 0.6642255 0.47406033 0.5779891
vn -0 -0.33904862 0.94076884
vn -0 -0.56988865 0.8217219
vn -0 0.02443706 0.9997013
vn 0.2724996 0.27598184 0.9217256
vn 0.4716838 0.36861148 0.8010243
vn 0.25974435 -0.33688024 0.90501076
vn 0.24108878 -0.5533205 0.79731584
vn 0.27664202 0.023352295 0.96068925
vn 0.66514003 0.3371227 0.66628593
vn 0.6642255 0.47406033 0.5779891
vn 0.73482 0.3397226 0.5870503
vn 0.5122334 0.26143208 0.81808937
vn 0.68324214 0.25124103 0.6856079
vn 0.74337417 0.25296518 0.61919576
vn 0.52587616 0.018960977 0.8503498
vn 0.4926374 -0.32630128 0.806744
vn 0.4512321 -0.51782686 0.7268046
vn 0.7056859 0.015889456 0.7083466
vn 0.7734695 0.024876285 0.6333452
vn 0.6692655 -0.31742686 0.6718064
vn 0.61220264 -0.49748433 0.614587
vn 0.7364343 -0.31445965 0.5989823
vn 0.67077756 -0.4956275 0.5517343
g slime_face_LOD1_0
f 3/3/3 2/2/2 1/1/1
f 4/4/4 3/3/3 1/1/1
f 4/4/4 1/1/1 5/5/5
f 6/6/6 3/3/3 4/4/4
f 3/3/3 6/6/6 7/7/7
f 6/6/6 8/8/8 7/7/7
f 9/9/9 4/4/4 5/5/5
f 9/9/9 5/5/5 10/10/10
f 6/6/6 11/11/11 8/8/8
f 11/11/11 12/12/12 8/8/8
f 13/13/13 6/6/6 4/4/4
f 13/13/13 4/4/4 9/9/9
f 11/11/11 6/6/6 13/13/13
f 14/14/14 9/9/9 10/10/10
f 14/14/14 10/10/10 15/15/15
f 11/11/11 16/16/16 12/12/12
f 16/16/16 17/17/17 12/12/12
f 18/18/18 13/13/13 9/9/9
f 18/18/18 9/9/9 14/14/14
f 19/19/19 11/11/11 13/13/13
f 16/16/16 11/11/11 19/19/19
f 19/19/19 13/13/13 18/18/18
f 20/20/20 14/14/14 15/15/15
f 20/20/20 15/15/15 21/21/21
f 22/22/22 20/20/20 21/21/21
f 16/16/16 23/23/23 17/17/17
f 23/23/23 24/24/24 17/17/17
f 25/25/25 18/18/18 14/14/14
f 25/25/25 14/14/14 20/20/20
f 26/26/26 20/20/20 22/22/22
f 26/26/26 25/25/25 20/20/20
f 27/27/27 26/26/26 22/22/22
f 28/28/28 19/19/19 18/18/18
f 28/28/28 18/18/18 25/25/25
f 29/29/29 16/16/16 19/19/19
f 23/23/23 16/16/16 29/29/29
f 29/29/29 19/19/19 28/28/28
f 23/23/23 30/30/30 24/24/24
f 30/30/30 31/31/31 24/24/24
f 32/32/32 26/26/26 27/27/27
f 33/33/33 32/32/32 27/27/27
f 34/34/34 25/25/25 26/26/26
f 34/34/34 28/28/28 25/25/25
f 32/32/32 34/34/34 26/26/26
f 35/35/35 29/29/29 28/28/28
f 35/35/35 28/28/28 34/34/34
f 36/36/36 23/23/23 29/29/29
f 30/30/30 23/23/23 36/36/36
f 36/36/36 29/29/29 35/35/35
f 30/30/30 37/37/37 31/31/31
f 37/37/37 38/38/38 31/31/31
f 39/39/39 32/32/32 33/33/33
f 40/40/40 39/39/39 33/33/33
f 41/41/41 34/34/34 32/32/32
f 41/41/41 35/35/35 34/34/34
f 39/39/39 41/41/41 32/32/32
f 42/42/42 36/36/36 35/35/35
f 42/42/42 35/35/35 41/41/41
f 43/43/43 30/30/30 36/36/36
f 37/37/37 30/30/30 43/43/43
f 43/43/43 36/36/36 42/42/42
f 44/44/44 39/39/39 40/40/40
f 45/45/45 44/44/44 40/40/40
f 46/46/46 41/41/41 39/39/39
f 46/46/46 42/42/42 41/41/41
f 44/44/44 46/46/46 39/39/39
f 47/47/47 37/37/37 43/43/43
f 37/37/37 47/47/47 48/48/48
f 47/47/47 49/49/49 48/48/48
f 50/50/50 43/43/43 42/42/42
f 50/50/50 42/42/42 46/46/46
f 47/47/47 43/43/43 50/50/50
f 47/47/47 51/51/51 49/49/49
f 51/51/51 47/47/47 50/50/50
f 51/51/51 52/52/52 49/49/49
f 53/53/53 50/50/50 46/46/46
f 53/53/53 46/46/46 44/44/44
f 51/51/51 50/50/50 53/53/53
f 54/54/54 44/44/44 45/45/45
f 54/54/54 53/53/53 44/44/44
f 55/55/55 54/54/54 45/45/45
f 51/51/51 56/56/56 52/52/52
f 56/56/56 51/51/51 53/53/53
f 56/56/56 53/53/53 54/54/54
f 56/56/56 57/57/57 52/52/52
f 58/58/58 54/54/54 55/55/55
f 58/58/58 56/56/56 54/54/54
f 56/56/56 58/58/58 57/57/57
f 59/59/59 58/58/58 55/55/55
f 58/58/58 60/60/60 57/57/57
f 58/58/58 59/59/59 60/60/60
f 59/59/59 61/61/61 60/60/60
