g airnet
v 3.5269964 3.2113192 4.75
v 4.75 3.2113192 3.5269964
v 3.5152369 3.2389736 3.5152369
v 2.2305405 3.2976906 4.75
v 3.5269964 3.2113192 4.75
v 2.2086608 3.3234222 3.4793308
v 0.7804868 3.4468997 4.75
v 0.74702954 3.4731286 3.4156766
v 3.4793303 3.3234222 2.2086616
v 4.75 3.2976906 2.230541
v 4.75 3.2113192 3.5269964
v 4.75 3.4468997 0.7804869
v 3.415676 3.4731286 0.74702954
v 2.1272407 3.4191666 2.1272411
v 0.5935677 3.5934367 1.9790455
v 1.9790449 3.5934367 0.5935677
v 0.47541463 3.6877394 1.9002768
v 0.6395101 3.5617287 3.3798366
v 0.7804868 3.4468997 4.75
v 0.6816369 3.5293798 4.75
v 3.3798363 3.5617287 0.6395101
v 4.75 3.5293798 0.6816369
v 4.75 3.4468997 0.7804869
v 0.33268797 3.7979574 0.33268797
v 0.24035706 3.868243 0.24035706
v 1.9002763 3.6877394 0.47541463
v 0.74702954 3.6051784 3.4156766
v 0.7804868 3.5789495 4.75
v 0.6816369 3.5293798 4.75
v 0.5935677 3.7254868 1.9790455
v 0.33268797 3.9300072 0.33268797
v 1.9790449 3.7254868 0.5935677
v 2.1272407 3.5512164 2.1272411
v 3.415676 3.6051784 0.74702954
v 4.75 3.5293798 0.6816369
v 4.75 3.5789495 0.7804869
v 2.2086608 3.455472 3.4793308
v 0.7804868 3.5789495 4.75
v 2.2305405 3.4297404 4.75
v 3.4793303 3.455472 2.2086616
v 4.75 3.5789495 0.7804869
v 4.75 3.4297404 2.230541
v 3.5152369 3.3710234 3.5152369
v 3.5269964 3.343369 4.75
v 4.75 3.343369 3.5269964
v 3.5269964 3.343369 4.75
v 4.75 3.343369 3.5269964
v 3.415676 3.4731286 8.752971
v 4.75 3.4468997 8.719513
v 4.75 3.2976906 7.2694583
v 3.4793303 3.3234222 7.291339
v 4.75 3.2113192 5.9730053
v 3.5152369 3.2389736 5.9847636
v 1.9790449 3.5934367 8.906432
v 2.1272407 3.4191666 7.37276
v 1.9002763 3.6877394 9.024586
v 3.3798363 3.5617287 8.860491
v 4.75 3.4468997 8.719513
v 4.75 3.5293798 8.818363
v 0.33268797 3.7979574 9.167313
v 0.24035706 3.868243 9.259644
v 3.415676 3.6051784 8.752971
v 4.75 3.5789495 8.719513
v 4.75 3.5293798 8.818363
v 1.9790449 3.7254868 8.906432
v 0.5935677 3.5934367 7.5209556
v 0.47541463 3.6877394 7.599724
v 0.33268797 3.9300072 9.167313
v 2.2086608 3.3234222 6.02067
v 3.4793303 3.455472 7.291339
v 2.1272407 3.5512164 7.37276
v 0.5935677 3.7254868 7.5209556
v 0.6395101 3.5617287 6.120164
v 4.75 3.4297404 7.2694583
v 4.75 3.5789495 8.719513
v 4.75 3.343369 5.9730053
v 3.5152369 3.3710234 5.9847636
v 2.2086608 3.455472 6.02067
v 0.74702954 3.4731286 6.0843244
v 0.74702954 3.6051784 6.0843244
v 0.6816369 3.5293798 4.75
v 0.7804868 3.4468997 4.75
v 0.6816369 3.5293798 4.75
v 0.7804868 3.5789495 4.75
v 2.2305405 3.2976906 4.75
v 0.7804868 3.4468997 4.75
v 3.5269964 3.2113192 4.75
v 2.2305405 3.4297404 4.75
v 0.7804868 3.5789495 4.75
v 3.5269964 3.343369 4.75
v 4.75 3.2113192 4.75
v 4.75 3.2113192 3.5269964
v 4.75 3.343369 3.5269964
v 4.75 3.343369 4.75
v 4.75 3.2113192 5.9730053
v 4.75 3.2113192 4.75
v 3.5269964 3.2113192 4.75
v 3.5269964 3.343369 4.75
v 4.75 3.343369 4.75
v 4.75 3.343369 5.9730053
v 6.0206695 3.3234222 2.2086616
v 4.75 3.2976906 2.230541
v 5.9847636 3.2389736 3.5152369
v 6.0843234 3.4731286 0.74702954
v 4.75 3.4468997 0.7804869
v 7.3727584 3.4191666 2.1272411
v 7.5209546 3.5934367 0.5935677
v 7.599723 3.6877394 0.47541463
v 6.120163 3.5617287 0.6395101
v 4.75 3.4468997 0.7804869
v 4.75 3.5293798 0.6816369
v 9.167313 3.7979574 0.33268797
v 9.259644 3.868243 0.24035706
v 6.0843234 3.6051784 0.74702954
v 4.75 3.5789495 0.7804869
v 4.75 3.5293798 0.6816369
v 7.5209546 3.7254868 0.5935677
v 8.906432 3.5934367 1.9790455
v 9.024586 3.6877394 1.9002768
v 9.167313 3.9300072 0.33268797
v 7.2913384 3.3234222 3.4793308
v 5.9730053 3.2113192 4.75
v 7.2694583 3.2976906 4.75
v 8.752971 3.4731286 3.4156766
v 8.719513 3.4468997 4.75
v 8.860491 3.5617287 3.3798366
v 8.818363 3.5293798 4.75
v 8.719513 3.4468997 4.75
v 8.906432 3.7254868 1.9790455
v 7.3727584 3.5512164 2.1272411
v 8.752971 3.6051784 3.4156766
v 8.818363 3.5293798 4.75
v 8.719513 3.5789495 4.75
v 7.2913384 3.455472 3.4793308
v 6.0206695 3.455472 2.2086616
v 7.2694583 3.4297404 4.75
v 8.719513 3.5789495 4.75
v 5.9730053 3.343369 4.75
v 5.9847636 3.3710234 3.5152369
v 4.75 3.4297404 2.230541
v 4.75 3.5789495 0.7804869
v 4.75 3.343369 4.75
v 4.75 3.343369 3.5269964
v 5.9730053 3.343369 4.75
v 4.75 3.2976906 7.2694583
v 5.9847636 3.2389736 5.9847636
v 4.75 3.2113192 5.9730053
v 6.0206695 3.3234222 7.291339
v 4.75 3.4468997 8.719513
v 6.0843234 3.4731286 8.752971
v 7.2913384 3.3234222 6.02067
v 7.3727584 3.4191666 7.37276
v 7.2694583 3.2976906 4.75
v 5.9730053 3.2113192 4.75
v 8.719513 3.4468997 4.75
v 8.752971 3.4731286 6.0843244
v 7.5209546 3.5934367 8.906432
v 8.906432 3.5934367 7.5209556
v 6.120163 3.5617287 8.860491
v 4.75 3.5293798 8.818363
v 4.75 3.4468997 8.719513
v 9.024586 3.6877394 7.599724
v 8.860491 3.5617287 6.120164
v 8.719513 3.4468997 4.75
v 8.818363 3.5293798 4.75
v 9.167313 3.7979574 9.167313
v 7.599723 3.6877394 9.024586
v 9.259644 3.868243 9.259644
v 8.752971 3.6051784 6.0843244
v 8.719513 3.5789495 4.75
v 8.818363 3.5293798 4.75
v 8.906432 3.7254868 7.5209556
v 9.167313 3.9300072 9.167313
v 7.5209546 3.7254868 8.906432
v 7.3727584 3.5512164 7.37276
v 6.0843234 3.6051784 8.752971
v 4.75 3.5293798 8.818363
v 4.75 3.5789495 8.719513
v 7.2913384 3.455472 6.02067
v 8.719513 3.5789495 4.75
v 7.2694583 3.4297404 4.75
v 6.0206695 3.455472 7.291339
v 4.75 3.5789495 8.719513
v 4.75 3.4297404 7.2694583
v 5.9847636 3.3710234 5.9847636
v 5.9730053 3.343369 4.75
v 4.75 3.343369 5.9730053
v 4.75 3.343369 5.9730053
v 5.9730053 3.343369 4.75
v 4.75 3.343369 4.75
v 4.75 3.2113192 5.9730053
v 5.9730053 3.2113192 4.75
v 4.75 3.2113192 4.75
v 4.75 3.2113192 4.75
v 5.9730053 3.2113192 4.75
v 4.75 3.2113192 3.5269964
vt 0.5000202 0.34443066
vt 0.50002027 0.6614016
vt 0.4273124 0.5029162
vt 0.50002867 0.18594536
vt 0.5000202 0.34443066
vt 0.34945112 0.3083315
vt 0.49545032 0.02745986
vt 0.27340692 0.15777028
vt 0.34945124 0.6975013
vt 0.5000287 0.81988704
vt 0.50002027 0.6614016
vt 0.49545038 0.9783726
vt 0.27340704 0.8480625
vt 0.22093274 0.5029164
vt 0.12650853 0.32770205
vt 0.12650861 0.678131
vt 0.11605249 0.32403946
vt 0.26504204 0.15055582
vt 0.49545032 0.02745986
vt 0.49429628 0.01752168
vt 0.26504228 0.8552766
vt 0.4942963 0.98831034
vt 0.49545038 0.9783726
vt 0.026462138 0.50291646
vt 0.013914898 0.5029163
vt 0.11605257 0.681793
vt 0.27340665 0.15776983
vt 0.49545026 0.027459502
vt 0.49429628 0.01752168
vt 0.1265083 0.32770157
vt 0.026461884 0.50291604
vt 0.12650836 0.6781306
vt 0.22093247 0.5029159
vt 0.27340677 0.8480621
vt 0.4942963 0.98831034
vt 0.49545032 0.9783721
vt 0.34945086 0.308331
vt 0.49545026 0.027459502
vt 0.50002855 0.18594491
vt 0.34945107 0.6975008
vt 0.49545032 0.9783721
vt 0.50002867 0.81988657
vt 0.42731228 0.50291586
vt 0.5000201 0.34443033
vt 0.50002015 0.6614013
vt 0.5000201 0.34443033
vt 0.50002015 0.6614013
vt 0.27330256 0.8482419
vt 0.49543113 0.97853756
vt 0.49997148 0.8200524
vt 0.34936464 0.69770396
vt 0.4999798 0.66156685
vt 0.42725515 0.5030814
vt 0.12640417 0.6783131
vt 0.22082824 0.50308126
vt 0.11594808 0.68197525
vt 0.26493764 0.8554562
vt 0.49543113 0.97853756
vt 0.49427706 0.9884752
vt 0.02635771 0.5030811
vt 0.013810515 0.5030806
vt 0.27330226 0.84824145
vt 0.4954311 0.9785371
vt 0.49427706 0.9884752
vt 0.12640387 0.67831266
vt 0.12640417 0.32788417
vt 0.11594814 0.32422158
vt 0.026357472 0.5030807
vt 0.3493647 0.30853426
vt 0.34936446 0.6977035
vt 0.220828 0.50308084
vt 0.12640399 0.32788378
vt 0.26493785 0.15073526
vt 0.4999713 0.8200518
vt 0.4954311 0.9785371
vt 0.49997967 0.6615666
vt 0.42725503 0.503081
vt 0.34936452 0.3085338
vt 0.27330258 0.15794992
vt 0.27330235 0.15794948
vt 0.49429628 0.01752168
vt 0.49545032 0.02745986
vt 0.49429628 0.01752168
vt 0.49545026 0.027459502
vt 0.50002867 0.18594536
vt 0.49545032 0.02745986
vt 0.5000202 0.34443066
vt 0.50002855 0.18594491
vt 0.49545026 0.027459502
vt 0.5000201 0.34443033
vt 0.5 0.50291604
vt 0.50002027 0.6614016
vt 0.50002015 0.6614013
vt 0.5 0.5029156
vt 0.4999798 0.66156685
vt 0.5 0.50291604
vt 0.5000202 0.34443066
vt 0.5000201 0.34443033
vt 0.5 0.5029156
vt 0.49997967 0.6615666
vt 0.3493644 0.69729686
vt 0.5000287 0.81988704
vt 0.427255 0.5027497
vt 0.27330196 0.8478811
vt 0.49545038 0.9783726
vt 0.22082792 0.50274974
vt 0.12640364 0.67794657
vt 0.11594789 0.6816092
vt 0.2649374 0.8550954
vt 0.49545038 0.9783726
vt 0.4942963 0.98831034
vt 0.026357174 0.50274944
vt 0.013810262 0.50274956
vt 0.2733023 0.84788144
vt 0.49545032 0.9783721
vt 0.4942963 0.98831034
vt 0.12640393 0.67794716
vt 0.12640369 0.32751757
vt 0.11594793 0.32385534
vt 0.026357472 0.5027498
vt 0.34936434 0.30812705
vt 0.49997973 0.3442645
vt 0.4999714 0.18577898
vt 0.2733021 0.15758872
vt 0.49543107 0.027293205
vt 0.26493755 0.15037459
vt 0.4942771 0.017355442
vt 0.49543107 0.027293205
vt 0.126404 0.32751805
vt 0.22082822 0.50275016
vt 0.2733024 0.1575892
vt 0.4942771 0.017355442
vt 0.49543113 0.027293801
vt 0.3493646 0.30812776
vt 0.34936458 0.6972975
vt 0.49997157 0.18577945
vt 0.49543113 0.027293801
vt 0.4999798 0.34426492
vt 0.42725512 0.50275016
vt 0.50002867 0.81988657
vt 0.49545032 0.9783721
vt 0.5 0.5029156
vt 0.50002015 0.6614013
vt 0.4999798 0.34426492
vt 0.49997148 0.8200524
vt 0.4271978 0.50291556
vt 0.4999798 0.66156685
vt 0.3492779 0.6975005
vt 0.49543113 0.97853756
vt 0.27319783 0.8480618
vt 0.34927785 0.30833095
vt 0.22072345 0.5029157
vt 0.4999714 0.18577898
vt 0.49997973 0.3442645
vt 0.49543107 0.027293205
vt 0.27319756 0.1577695
vt 0.12629944 0.6781301
vt 0.12629914 0.3277012
vt 0.26483315 0.8552762
vt 0.49427706 0.9884752
vt 0.49543113 0.97853756
vt 0.115843356 0.32403898
vt 0.264833 0.15055543
vt 0.49543107 0.027293205
vt 0.4942771 0.017355442
vt 0.026252806 0.5029157
vt 0.11584365 0.6817928
vt 0.013705909 0.5029159
vt 0.27319792 0.15777004
vt 0.49543113 0.027293801
vt 0.4942771 0.017355442
vt 0.12629938 0.32770175
vt 0.026253164 0.50291616
vt 0.12629968 0.6781306
vt 0.22072375 0.50291616
vt 0.27319807 0.8480623
vt 0.49427706 0.9884752
vt 0.4954311 0.9785371
vt 0.34927815 0.30833143
vt 0.49543113 0.027293801
vt 0.49997157 0.18577945
vt 0.34927815 0.69750106
vt 0.4954311 0.9785371
vt 0.4999713 0.8200518
vt 0.42719805 0.5029161
vt 0.4999798 0.34426492
vt 0.49997967 0.6615666
vt 0.49997967 0.6615666
vt 0.4999798 0.34426492
vt 0.5 0.5029156
vt 0.4999798 0.66156685
vt 0.49997973 0.3442645
vt 0.5 0.50291604
vt 0.5 0.50291604
vt 0.49997973 0.3442645
vt 0.50002027 0.6614016
vn -0.039098024 -0.9992354 0
vn -0 -0.9992354 -0.03909807
vn -0.04130403 -0.9982925 -0.041304052
vn -0.08467016 -0.996409 0
vn -0.039098024 -0.9992354 0
vn -0.084715076 -0.99545467 -0.043512028
vn -0.14852503 -0.9889087 0
vn -0.14730255 -0.9881747 -0.042576026
vn -0.043512087 -0.99545467 -0.084715016
vn -0 -0.996409 -0.08467008
vn -0 -0.9992354 -0.03909807
vn -0 -0.9889087 -0.1485248
vn -0.04257608 -0.9881747 -0.14730236
vn -0.08633129 -0.9925189 -0.086331256
vn -0.1449356 -0.98582304 -0.08453717
vn -0.08453716 -0.98582304 -0.14493556
vn -0.99054104 -0.004430932 0.13714495
vn -0.9969093 -0.012467902 0.0775647
vn -0.14852503 -0.9889087 0
vn -0.99994385 -0.010595035 0
vn 0.07756484 -0.012467705 -0.9969093
vn -0 -0.010595229 -0.99994385
vn -0 -0.9889087 -0.1485248
vn -0.15691394 -0.97506714 -0.15691377
vn -0.6971247 0.16743068 -0.6971256
vn 0.13714431 -0.004430548 -0.99054116
vn 0.06689926 0.9966086 0.04791378
vn 0.06488215 0.9978929 0
vn -0.99994385 -0.010595035 0
vn 0.06788695 0.9931896 0.09468876
vn 0.045687467 0.99791044 0.04568742
vn 0.094688684 0.9931896 0.06788711
vn 0.08633129 0.9925189 0.08633135
vn 0.047913972 0.9966086 0.06689926
vn -0 -0.010595229 -0.99994385
vn -0 0.9978929 0.06488219
vn 0.08471508 0.99545467 0.04351191
vn 0.06488215 0.9978929 0
vn 0.08467016 0.996409 0
vn 0.04351209 0.99545467 0.08471515
vn -0 0.9978929 0.06488219
vn -0 0.996409 0.084670246
vn 0.041304033 0.9982925 0.04130392
vn 0.03909802 0.9992354 0
vn -0 0.9992354 0.03909793
vn 0.03909802 0.9992354 0
vn -0 0.9992354 0.03909793
vn -0.042576022 -0.9881748 0.14730233
vn -0 -0.9889087 0.14852472
vn -0 -0.996409 0.084670104
vn -0.04351207 -0.99545467 0.08471503
vn -0 -0.9992354 0.039098084
vn -0.04130403 -0.9982925 0.041304033
vn -0.08453717 -0.98582304 0.14493558
vn -0.08633129 -0.9925189 0.08633127
vn 0.13714372 -0.00443076 0.99054116
vn 0.07756489 -0.012467664 0.9969093
vn -0 -0.9889087 0.14852472
vn -0 -0.010594888 0.99994385
vn -0.15691406 -0.97506714 0.15691404
vn -0.6971239 0.16743076 0.69712645
vn 0.0479139 0.9966086 -0.06689921
vn -0 0.9978929 -0.06488215
vn -0 -0.010594888 0.99994385
vn 0.09468861 0.9931896 -0.067887
vn -0.14493562 -0.98582304 0.08453717
vn -0.99054104 -0.004430789 -0.13714471
vn 0.045687463 0.99791044 -0.045687247
vn -0.08471508 -0.99545467 0.04351201
vn 0.04351205 0.99545467 -0.08471516
vn 0.08633124 0.9925189 -0.08633132
vn 0.06788689 0.9931896 -0.094688684
vn -0.9969093 -0.012467836 -0.07756475
vn -0 0.996409 -0.08467025
vn -0 0.9978929 -0.06488215
vn -0 0.9992354 -0.039097954
vn 0.04130402 0.9982925 -0.041303895
vn 0.08471505 0.99545467 -0.04351189
vn -0.1473025 -0.9881747 0.042575985
vn 0.0668992 0.99660873 -0.04791374
vn -0.99994385 -0.010595035 0
vn -0.14852503 -0.9889087 0
vn -0.99994385 -0.010595035 0
vn 0.06488215 0.9978929 0
vn -0.08467016 -0.996409 0
vn -0.14852503 -0.9889087 0
vn -0.039098024 -0.9992354 0
vn 0.08467016 0.996409 0
vn 0.06488215 0.9978929 0
vn 0.03909802 0.9992354 0
vn -0 -1 0
vn -0 -0.9992354 -0.03909807
vn -0 0.9992354 0.03909793
vn -0 1 0
vn -0 -0.9992354 0.039098084
vn -0 -1 0
vn -0.039098024 -0.9992354 0
vn 0.03909802 0.9992354 0
vn -0 1 0
vn -0 0.9992354 -0.039097954
vn 0.0435121 -0.99545467 -0.08471504
vn -0 -0.996409 -0.08467008
vn 0.041304033 -0.9982925 -0.04130406
vn 0.04257608 -0.9881747 -0.14730239
vn -0 -0.9889087 -0.1485248
vn 0.08633126 -0.9925189 -0.086331286
vn 0.084537126 -0.98582304 -0.1449355
vn -0.13714407 -0.004431578 -0.99054116
vn -0.07756477 -0.012467681 -0.9969093
vn -0 -0.9889087 -0.1485248
vn -0 -0.010595229 -0.99994385
vn 0.15691397 -0.97506714 -0.15691395
vn 0.6971257 0.1674279 -0.6971254
vn -0.04791398 0.9966086 0.066899285
vn -0 0.9978929 0.06488219
vn -0 -0.010595229 -0.99994385
vn -0.09468864 0.9931896 0.067887045
vn 0.14493546 -0.98582304 -0.08453716
vn 0.99054104 -0.004431727 0.13714454
vn -0.045687415 0.99791044 0.045687694
vn 0.08471509 -0.99545467 -0.043512136
vn 0.03909805 -0.9992354 0
vn 0.08467018 -0.996409 0
vn 0.14730243 -0.9881747 -0.042576164
vn 0.14852491 -0.9889087 0
vn 0.9969093 -0.012467183 0.07756477
vn 0.99994385 -0.010595073 0
vn 0.14852491 -0.9889087 0
vn -0.067886904 0.9931896 0.09468872
vn -0.086331256 0.9925189 0.0863313
vn -0.06689921 0.9966086 0.04791384
vn 0.99994385 -0.010595073 0
vn -0.06488214 0.9978929 0
vn -0.08471508 0.99545467 0.043511994
vn -0.043512084 0.99545467 0.08471517
vn -0.08467018 0.996409 0
vn -0.06488214 0.9978929 0
vn -0.039098047 0.9992354 0
vn -0.041304033 0.9982925 0.04130396
vn -0 0.996409 0.084670246
vn -0 0.9978929 0.06488219
vn -0 1 0
vn -0 0.9992354 0.03909793
vn -0.039098047 0.9992354 0
vn -0 -0.996409 0.084670104
vn 0.041304026 -0.9982925 0.04130405
vn -0 -0.9992354 0.039098084
vn 0.043512065 -0.99545467 0.084715046
vn -0 -0.9889087 0.14852472
vn 0.042576037 -0.9881747 0.14730239
vn 0.084715076 -0.99545467 0.04351212
vn 0.086331256 -0.9925189 0.086331256
vn 0.08467018 -0.996409 0
vn 0.03909805 -0.9992354 0
vn 0.14852491 -0.9889087 0
vn 0.1473024 -0.9881747 0.042576108
vn 0.084537126 -0.98582304 0.14493543
vn 0.1449355 -0.98582304 0.08453709
vn -0.07756462 -0.012467357 0.9969093
vn -0 -0.010594888 0.99994385
vn -0 -0.9889087 0.14852472
vn 0.99054104 -0.004431055 -0.13714477
vn 0.9969093 -0.012466805 -0.07756505
vn 0.14852491 -0.9889087 0
vn 0.99994385 -0.010595073 0
vn 0.15691392 -0.97506714 0.15691397
vn -0.13714378 -0.004430711 0.99054116
vn 0.6971256 0.16742948 0.697125
vn -0.0668991 0.99660873 -0.047913816
vn -0.06488214 0.9978929 0
vn 0.99994385 -0.010595073 0
vn -0.06788673 0.9931896 -0.09468867
vn -0.045687284 0.99791044 -0.0456877
vn -0.094688594 0.9931896 -0.06788698
vn -0.08633124 0.9925189 -0.08633126
vn -0.04791394 0.9966086 -0.06689925
vn -0 -0.010594888 0.99994385
vn -0 0.9978929 -0.06488215
vn -0.08471507 0.99545467 -0.043511968
vn -0.06488214 0.9978929 0
vn -0.08467018 0.996409 0
vn -0.04351207 0.99545467 -0.08471519
vn -0 0.9978929 -0.06488215
vn -0 0.996409 -0.08467025
vn -0.04130402 0.9982925 -0.041303944
vn -0.039098047 0.9992354 0
vn -0 0.9992354 -0.039097954
vn -0 0.9992354 -0.039097954
vn -0.039098047 0.9992354 0
vn -0 1 0
vn -0 -0.9992354 0.039098084
vn 0.03909805 -0.9992354 0
vn -0 -1 0
vn -0 -1 0
vn 0.03909805 -0.9992354 0
vn -0 -0.9992354 -0.03909807
g airnet_0
f 3/3/3 2/2/2 1/1/1
f 3/3/3 5/5/5 4/4/4
f 6/6/6 3/3/3 4/4/4
f 6/6/6 4/4/4 7/7/7
f 8/8/8 6/6/6 7/7/7
f 9/9/9 3/3/3 6/6/6
f 9/9/9 10/10/10 3/3/3
f 10/10/10 11/11/11 3/3/3
f 12/12/12 10/10/10 9/9/9
f 13/13/13 12/12/12 9/9/9
f 14/14/14 9/9/9 6/6/6
f 14/14/14 6/6/6 8/8/8
f 13/13/13 9/9/9 14/14/14
f 15/15/15 14/14/14 8/8/8
f 16/16/16 13/13/13 14/14/14
f 16/16/16 14/14/14 15/15/15
f 17/17/17 15/15/15 8/8/8
f 18/18/18 17/17/17 8/8/8
f 18/18/18 8/8/8 19/19/19
f 20/20/20 18/18/18 19/19/19
f 21/21/21 13/13/13 16/16/16
f 21/21/21 22/22/22 13/13/13
f 22/22/22 23/23/23 13/13/13
f 24/24/24 16/16/16 15/15/15
f 25/25/25 24/24/24 15/15/15
f 17/17/17 25/25/25 15/15/15
f 26/26/26 16/16/16 24/24/24
f 26/26/26 21/21/21 16/16/16
f 25/25/25 26/26/26 24/24/24
f 17/17/17 18/18/18 27/27/27
f 27/27/27 18/18/18 28/28/28
f 18/18/18 29/29/29 28/28/28
f 25/25/25 17/17/17 30/30/30
f 30/30/30 17/17/17 27/27/27
f 26/26/26 25/25/25 31/31/31
f 31/31/31 25/25/25 30/30/30
f 32/32/32 26/26/26 31/31/31
f 21/21/21 26/26/26 32/32/32
f 32/32/32 31/31/31 30/30/30
f 33/33/33 30/30/30 27/27/27
f 33/33/33 32/32/32 30/30/30
f 34/34/34 21/21/21 32/32/32
f 34/34/34 32/32/32 33/33/33
f 35/35/35 21/21/21 34/34/34
f 36/36/36 35/35/35 34/34/34
f 37/37/37 33/33/33 27/27/27
f 37/37/37 27/27/27 38/38/38
f 39/39/39 37/37/37 38/38/38
f 40/40/40 34/34/34 33/33/33
f 40/40/40 33/33/33 37/37/37
f 41/41/41 34/34/34 40/40/40
f 42/42/42 41/41/41 40/40/40
f 43/43/43 37/37/37 39/39/39
f 43/43/43 40/40/40 37/37/37
f 42/42/42 40/40/40 43/43/43
f 44/44/44 43/43/43 39/39/39
f 45/45/45 42/42/42 43/43/43
f 47/47/47 43/43/43 46/46/46
f 50/50/50 49/49/49 48/48/48
f 51/51/51 50/50/50 48/48/48
f 52/52/52 50/50/50 51/51/51
f 53/53/53 52/52/52 51/51/51
f 51/51/51 48/48/48 54/54/54
f 53/53/53 51/51/51 55/55/55
f 55/55/55 51/51/51 54/54/54
f 56/56/56 54/54/54 48/48/48
f 57/57/57 56/56/56 48/48/48
f 57/57/57 48/48/48 58/58/58
f 59/59/59 57/57/57 58/58/58
f 55/55/55 54/54/54 60/60/60
f 56/56/56 61/61/61 54/54/54
f 61/61/61 60/60/60 54/54/54
f 56/56/56 57/57/57 62/62/62
f 62/62/62 57/57/57 63/63/63
f 57/57/57 64/64/64 63/63/63
f 61/61/61 56/56/56 65/65/65
f 65/65/65 56/56/56 62/62/62
f 66/66/66 55/55/55 60/60/60
f 61/61/61 67/67/67 60/60/60
f 67/67/67 66/66/66 60/60/60
f 68/68/68 61/61/61 65/65/65
f 67/67/67 61/61/61 68/68/68
f 69/69/69 55/55/55 66/66/66
f 69/69/69 53/53/53 55/55/55
f 62/62/62 70/70/70 65/65/65
f 65/65/65 71/71/71 68/68/68
f 70/70/70 71/71/71 65/65/65
f 72/72/72 67/67/67 68/68/68
f 71/71/71 72/72/72 68/68/68
f 67/67/67 73/73/73 66/66/66
f 73/73/73 67/67/67 72/72/72
f 74/74/74 70/70/70 62/62/62
f 75/75/75 74/74/74 62/62/62
f 74/74/74 76/76/76 70/70/70
f 76/76/76 77/77/77 70/70/70
f 70/70/70 77/77/77 71/71/71
f 71/71/71 78/78/78 72/72/72
f 77/77/77 78/78/78 71/71/71
f 79/79/79 69/69/69 66/66/66
f 73/73/73 79/79/79 66/66/66
f 80/80/80 73/73/73 72/72/72
f 78/78/78 80/80/80 72/72/72
f 73/73/73 81/81/81 79/79/79
f 81/81/81 82/82/82 79/79/79
f 83/83/83 73/73/73 80/80/80
f 84/84/84 83/83/83 80/80/80
f 85/85/85 69/69/69 79/79/79
f 86/86/86 85/85/85 79/79/79
f 85/85/85 87/87/87 69/69/69
f 87/87/87 53/53/53 69/69/69
f 78/78/78 88/88/88 80/80/80
f 88/88/88 89/89/89 80/80/80
f 90/90/90 88/88/88 78/78/78
f 77/77/77 90/90/90 78/78/78
f 92/92/92 91/91/91 87/87/87
f 94/94/94 93/93/93 90/90/90
f 96/96/96 95/95/95 53/53/53
f 97/97/97 96/96/96 53/53/53
f 99/99/99 98/98/98 77/77/77
f 100/100/100 99/99/99 77/77/77
f 102/102/102 101/101/101 92/92/92
f 101/101/101 103/103/103 92/92/92
f 104/104/104 101/101/101 102/102/102
f 105/105/105 104/104/104 102/102/102
f 101/101/101 106/106/106 103/103/103
f 104/104/104 107/107/107 101/101/101
f 107/107/107 106/106/106 101/101/101
f 108/108/108 107/107/107 104/104/104
f 109/109/109 108/108/108 104/104/104
f 109/109/109 104/104/104 110/110/110
f 111/111/111 109/109/109 110/110/110
f 107/107/107 112/112/112 106/106/106
f 108/108/108 113/113/113 107/107/107
f 113/113/113 112/112/112 107/107/107
f 108/108/108 109/109/109 114/114/114
f 114/114/114 109/109/109 115/115/115
f 109/109/109 116/116/116 115/115/115
f 113/113/113 108/108/108 117/117/117
f 117/117/117 108/108/108 114/114/114
f 112/112/112 118/118/118 106/106/106
f 113/113/113 119/119/119 112/112/112
f 119/119/119 118/118/118 112/112/112
f 120/120/120 113/113/113 117/117/117
f 119/119/119 113/113/113 120/120/120
f 106/106/106 118/118/118 121/121/121
f 106/106/106 121/121/121 103/103/103
f 103/103/103 121/121/121 122/122/122
f 121/121/121 123/123/123 122/122/122
f 121/121/121 124/124/124 123/123/123
f 118/118/118 124/124/124 121/121/121
f 124/124/124 125/125/125 123/123/123
f 119/119/119 126/126/126 118/118/118
f 126/126/126 124/124/124 118/118/118
f 126/126/126 127/127/127 124/124/124
f 127/127/127 128/128/128 124/124/124
f 129/129/129 119/119/119 120/120/120
f 126/126/126 119/119/119 129/129/129
f 120/120/120 117/117/117 130/130/130
f 129/129/129 120/120/120 130/130/130
f 131/131/131 126/126/126 129/129/129
f 132/132/132 126/126/126 131/131/131
f 133/133/133 132/132/132 131/131/131
f 131/131/131 129/129/129 134/134/134
f 129/129/129 130/130/130 134/134/134
f 130/130/130 117/117/117 135/135/135
f 117/117/117 114/114/114 135/135/135
f 131/131/131 134/134/134 136/136/136
f 137/137/137 131/131/131 136/136/136
f 136/136/136 134/134/134 138/138/138
f 134/134/134 139/139/139 138/138/138
f 134/134/134 130/130/130 139/139/139
f 130/130/130 135/135/135 139/139/139
f 135/135/135 114/114/114 140/140/140
f 114/114/114 141/141/141 140/140/140
f 135/135/135 140/140/140 93/93/93
f 139/139/139 135/135/135 93/93/93
f 139/139/139 143/143/143 142/142/142
f 144/144/144 139/139/139 142/142/142
f 147/147/147 146/146/146 145/145/145
f 146/146/146 148/148/148 145/145/145
f 145/145/145 148/148/148 149/149/149
f 148/148/148 150/150/150 149/149/149
f 146/146/146 151/151/151 148/148/148
f 148/148/148 152/152/152 150/150/150
f 151/151/151 152/152/152 148/148/148
f 153/153/153 151/151/151 146/146/146
f 154/154/154 153/153/153 146/146/146
f 153/153/153 155/155/155 151/151/151
f 155/155/155 156/156/156 151/151/151
f 151/151/151 156/156/156 152/152/152
f 152/152/152 157/157/157 150/150/150
f 156/156/156 158/158/158 152/152/152
f 152/152/152 158/158/158 157/157/157
f 159/159/159 150/150/150 157/157/157
f 159/159/159 160/160/160 150/150/150
f 160/160/160 161/161/161 150/150/150
f 162/162/162 158/158/158 156/156/156
f 163/163/163 162/162/162 156/156/156
f 163/163/163 156/156/156 164/164/164
f 165/165/165 163/163/163 164/164/164
f 158/158/158 166/166/166 157/157/157
f 167/167/167 157/157/157 166/166/166
f 167/167/167 159/159/159 157/157/157
f 168/168/168 166/166/166 158/158/158
f 162/162/162 168/168/168 158/158/158
f 168/168/168 167/167/167 166/166/166
f 162/162/162 163/163/163 169/169/169
f 169/169/169 163/163/163 170/170/170
f 163/163/163 171/171/171 170/170/170
f 168/168/168 162/162/162 172/172/172
f 172/172/172 162/162/162 169/169/169
f 167/167/167 168/168/168 173/173/173
f 173/173/173 168/168/168 172/172/172
f 174/174/174 167/167/167 173/173/173
f 159/159/159 167/167/167 174/174/174
f 173/173/173 172/172/172 174/174/174
f 172/172/172 169/169/169 175/175/175
f 172/172/172 175/175/175 174/174/174
f 176/176/176 159/159/159 174/174/174
f 174/174/174 175/175/175 176/176/176
f 177/177/177 159/159/159 176/176/176
f 178/178/178 177/177/177 176/176/176
f 169/169/169 179/179/179 175/175/175
f 169/169/169 180/180/180 179/179/179
f 180/180/180 181/181/181 179/179/179
f 175/175/175 182/182/182 176/176/176
f 175/175/175 179/179/179 182/182/182
f 176/176/176 182/182/182 183/183/183
f 182/182/182 184/184/184 183/183/183
f 179/179/179 181/181/181 185/185/185
f 179/179/179 185/185/185 182/182/182
f 182/182/182 185/185/185 184/184/184
f 181/181/181 186/186/186 185/185/185
f 185/185/185 187/187/187 184/184/184
f 185/185/185 189/189/189 188/188/188
f 189/189/189 190/190/190 188/188/188
f 193/193/193 192/192/192 191/191/191
f 192/192/192 146/146/146 191/191/191
f 103/103/103 195/195/195 194/194/194
f 196/196/196 103/103/103 194/194/194
