g areaBlock05_COL
v -0.005048828 -3.383071 1.8622998
v 1.8668554 -3.3114603 0.00049316406
v -0 -3.2197292 0.0008740234
v 1.5863818 -3.3012247 1.6502929
v -0.005209961 -3.173096 3.4431396
v 3.3823779 -3.173096 0.00049316406
v 1.5768701 -3.173096 3.3210742
v 3.0606983 -3.2545912 1.6479443
v 2.488108 -3.1675997 2.7173474
v 2.488108 -3.1675997 2.7173474
v 2.488108 -0.08723247 2.7173474
v 3.0606983 -0.039337575 1.6479443
v 3.0606983 -3.2545912 1.6479443
v 3.3823779 -3.173096 0.00049316406
v 3.3823779 -0.08173687 0.00049316406
v 2.488108 -0.08723247 2.7173474
v 1.5768701 -3.173096 3.3210742
v 1.5768701 -0.027693288 3.3210742
v 1.5863818 -4.180125E-07 1.6502929
v 3.0606983 -0.039337575 1.6479443
v -0.005209961 -0.08173687 3.4431396
v -0.005209961 -3.173096 3.4431396
v -0.005048828 -4.180125E-07 1.8622998
v -0 -4.180125E-07 0.0008740234
v 1.8668554 -4.180125E-07 0.00049316406
v 3.3823779 -0.08173687 0.00049316406
v -1.8668749 -3.282433 0.0005126953
v -0.005048828 -3.383071 1.8622998
v -0 -3.2197292 0.0008740234
v -1.59646 -3.4336085 1.6580762
v -3.3948827 -3.173096 0.00049316406
v -0.005209961 -3.173096 3.4431396
v -3.142964 -3.2545912 1.6479443
v -1.5873095 -3.2358005 3.360381
v -2.5182006 -3.1675997 2.731754
v -0.005209961 -0.08173687 3.4431396
v -0.005209961 -3.173096 3.4431396
v -1.5873095 -3.2358005 3.360381
v -1.5873095 -0.08173687 3.360381
v -2.5182006 -3.1675997 2.731754
v -1.59646 -4.180125E-07 1.6580762
v -0.005048828 -4.180125E-07 1.8622998
v -0 -4.180125E-07 0.0008740234
v -1.8668749 -4.180125E-07 0.0005126953
v -2.5182006 -0.08723247 2.731754
v -3.142964 -3.2545912 1.6479443
v -3.1910596 -0.036428638 1.6479443
v -3.4233837 -0.04208477 0.00049316406
v -3.1910596 -0.036428638 1.6479443
v -3.3948827 -3.173096 0.00049316406
v -3.4233837 -0.04208477 0.00049316406
v 1.8668554 -3.3114603 0.00049316406
v -0.005029297 -3.348298 -1.8622998
v -0 -3.2197292 0.0008740234
v 1.5871289 -3.3657846 -1.6508789
v 3.3823779 -3.173096 0.00049316406
v -0.005209961 -3.173096 -3.3387694
v 3.1703906 -3.2190914 -1.6485254
v 1.5768701 -3.173096 -3.1736572
v 2.489585 -3.1675997 -2.7190099
v -0.005209961 -0.08173687 -3.3387694
v -0.005209961 -3.173096 -3.3387694
v 1.5768701 -3.173096 -3.1736572
v 1.5768701 -0.08173687 -3.1736572
v 2.489585 -3.1675997 -2.7190099
v 1.5871289 -4.180125E-07 -1.6508789
v -0.005029297 -4.180125E-07 -1.8622998
v -0 -4.180125E-07 0.0008740234
v 1.8668554 -4.180125E-07 0.00049316406
v 2.489585 -0.08723247 -2.7190099
v 3.1703906 -3.2190914 -1.6485254
v 3.1703906 -0.08173687 -1.6485254
v 3.3823779 -0.08173687 0.00049316406
v 3.1703906 -0.08173687 -1.6485254
v 3.3823779 -3.173096 0.00049316406
v 3.3823779 -0.08173687 0.00049316406
v -0.005029297 -3.348298 -1.8622998
v -1.8668749 -3.282433 0.0005126953
v -0 -3.2197292 0.0008740234
v -1.597168 -3.412615 -1.658623
v -0.005209961 -3.173096 -3.3387694
v -3.3948827 -3.173096 0.00049316406
v -1.5873095 -3.2358005 -3.1868114
v -3.241831 -3.2190914 -1.6485254
v -2.5196142 -3.1675997 -2.7333617
v -2.5196142 -3.1675997 -2.7333617
v -2.5196142 -0.08723247 -2.7333617
v -3.241831 -0.08173687 -1.6485254
v -3.241831 -3.2190914 -1.6485254
v -3.3948827 -3.173096 0.00049316406
v -3.4233837 -0.04208477 0.00049316406
v -0.005209961 -0.08173687 -3.3387694
v -1.5873095 -3.2358005 -3.1868114
v -0.005209961 -3.173096 -3.3387694
v -1.5873095 -0.08173687 -3.1868114
v -1.597168 -4.180125E-07 -1.658623
v -0.005029297 -4.180125E-07 -1.8622998
v -0 -4.180125E-07 0.0008740234
v -1.8668749 -4.180125E-07 0.0005126953
v -2.5196142 -0.08723247 -2.7333617
v -2.5196142 -3.1675997 -2.7333617
v -3.241831 -0.08173687 -1.6485254
v -3.4233837 -0.04208477 0.00049316406
vt 0.5 0.9375
vt 0.5625 0.875
vt 0.5 0.875
vt 0.5625 0.9375
vt 0.5 1
vt 0.625 0.875
vt 0.5625 1
vt 0.625 0.9375
vt 0.62276375 0.99875844
vt 0.6240053 0
vt 0.6274831 0.25
vt 0.6875 0.25
vt 0.6875 0
vt 0.75 0
vt 0.75 0.25
vt 0.62243026 0.24820043
vt 0.5625 0
vt 0.56361616 0.23095383
vt 0.5625 0.3125
vt 0.625 0.3125
vt 0.50000155 0.23057051
vt 0.5 0
vt 0.5 0.3125
vt 0.5 0.375
vt 0.5625 0.375
vt 0.625 0.375
vt 0.5625 0.875
vt 0.5 0.9375
vt 0.5 0.875
vt 0.5625 0.9375
vt 0.625 0.875
vt 0.5 1
vt 0.625 0.9375
vt 0.5625 1
vt 0.62276375 0.99875844
vt 0.50000155 0.23057051
vt 0.5 0
vt 0.5625 0
vt 0.56361616 0.23095383
vt 0.6240053 0
vt 0.5625 0.3125
vt 0.5 0.3125
vt 0.5 0.375
vt 0.5625 0.375
vt 0.62305105 0.24757965
vt 0.6875 0
vt 0.625 0.3125
vt 0.625 0.375
vt 0.6875 0.25
vt 0.75 0
vt 0.75 0.25
vt 0.5625 0.875
vt 0.5 0.9375
vt 0.5 0.875
vt 0.5625 0.9375
vt 0.625 0.875
vt 0.5 1
vt 0.625 0.9375
vt 0.5625 1
vt 0.62276375 0.99875844
vt 0.50000155 0.23057051
vt 0.5 0
vt 0.5625 0
vt 0.56361616 0.23095383
vt 0.6240053 0
vt 0.5625 0.3125
vt 0.5 0.3125
vt 0.5 0.375
vt 0.5625 0.375
vt 0.62305105 0.24757965
vt 0.6875 0
vt 0.625 0.3125
vt 0.625 0.375
vt 0.6875 0.25
vt 0.75 0
vt 0.75 0.25
vt 0.5 0.9375
vt 0.5625 0.875
vt 0.5 0.875
vt 0.5625 0.9375
vt 0.5 1
vt 0.625 0.875
vt 0.5625 1
vt 0.625 0.9375
vt 0.62276375 0.99875844
vt 0.6240053 0
vt 0.6274831 0.25
vt 0.6875 0.25
vt 0.6875 0
vt 0.75 0
vt 0.75 0.25
vt 0.50000155 0.23057051
vt 0.5625 0
vt 0.5 0
vt 0.56361616 0.23095383
vt 0.5625 0.3125
vt 0.5 0.3125
vt 0.5 0.375
vt 0.5625 0.375
vt 0.62243026 0.24820043
vt 0.6240053 0
vt 0.625 0.3125
vt 0.625 0.375
vn -0.038027078 -0.99916625 -0.014855265
vn -0.06637402 -0.9975057 0.024019327
vn -0.019157749 -0.99975544 0.011051347
vn 0.017973604 -0.99983084 -0.0038894105
vn 0.009601706 -0.03651755 0.99928695
vn 0.82714045 -0.55366117 -0.09642566
vn 0.47316447 -0.46255672 0.74977106
vn 0.7440328 -0.6289971 0.22533964
vn 0.7129324 -0.021323822 0.7009085
vn 0.7129324 -0.021323822 0.7009085
vn 0.8007826 0.4067907 0.43962315
vn 0.95002514 0.047034815 0.30860955
vn 0.7440328 -0.6289971 0.22533964
vn 0.82714045 -0.55366117 -0.09642566
vn 0.9988446 0.048051093 0.0006499318
vn 0.8007826 0.4067907 0.43962315
vn 0.47316447 -0.46255672 0.74977106
vn 0.5212445 0.41018662 0.7483656
vn -0 1 -3.9869624E-07
vn 0.95002514 0.047034815 0.30860955
vn -0.040037297 0.6023738 0.7972094
vn 0.009601706 -0.03651755 0.99928695
vn -0 1 0
vn -0 1 0
vn -0 1 -1.7864846E-07
vn 0.9988446 0.048051093 0.0006499318
vn -0.013415118 -0.99977297 0.016555272
vn -0.038027078 -0.99916625 -0.014855265
vn -0.019157749 -0.99975544 0.011051347
vn -0.1021439 -0.9947108 -0.010826399
vn -0.99884653 -0.03441061 0.033488274
vn 0.009601706 -0.03651755 0.99928695
vn -0.9437031 -0.031214599 0.32931772
vn -0.2834056 -0.033458967 0.9584162
vn -0.6406484 -0.3300612 0.69327426
vn -0.040037297 0.6023738 0.7972094
vn 0.009601706 -0.03651755 0.99928695
vn -0.2834056 -0.033458967 0.9584162
vn -0.053524356 0.9947819 0.08685603
vn -0.6406484 -0.3300612 0.69327426
vn -0 1 0
vn -0 1 0
vn -0 1 0
vn -0 1 -2.8086367E-07
vn -0.6844198 0.30540672 0.66203946
vn -0.9437031 -0.031214599 0.32931772
vn -0.812837 0.5712981 0.1136419
vn -0.80662555 0.5895945 0.041637126
vn -0.812837 0.5712981 0.1136419
vn -0.99884653 -0.03441061 0.033488274
vn -0.80662555 0.5895945 0.041637126
vn -0.06637402 -0.9975057 0.024019327
vn 0.043915994 -0.9990004 -0.008341607
vn -0.019157749 -0.99975544 0.011051347
vn 0.037373364 -0.9992168 0.013000439
vn 0.82714045 -0.55366117 -0.09642566
vn -0.057468027 -0.5376534 -0.84120524
vn 0.9513812 -0.03135844 -0.30641538
vn 0.20981902 -0.033706374 -0.9771591
vn 0.66631067 -0.33126143 -0.668054
vn 0.0014858907 0.046575688 -0.99891365
vn -0.057468027 -0.5376534 -0.84120524
vn 0.20981902 -0.033706374 -0.9771591
vn 0.03639002 0.99544036 -0.088171944
vn 0.66631067 -0.33126143 -0.668054
vn -0 1 -2.2186674E-07
vn -0 1 0
vn -0 1 0
vn -0 1 -1.7864846E-07
vn 0.6733306 0.29696175 -0.6770817
vn 0.9513812 -0.03135844 -0.30641538
vn 0.81118184 0.57568634 -0.10280692
vn 0.9988446 0.048051093 0.0006499318
vn 0.81118184 0.57568634 -0.10280692
vn 0.82714045 -0.55366117 -0.09642566
vn 0.9988446 0.048051093 0.0006499318
vn 0.043915994 -0.9990004 -0.008341607
vn -0.013415118 -0.99977297 0.016555272
vn -0.019157749 -0.99975544 0.011051347
vn -0.0107508395 -0.99992216 -0.0063428297
vn -0.057468027 -0.5376534 -0.84120524
vn -0.99884653 -0.03441061 0.033488274
vn -0.41970116 -0.44987833 -0.7883276
vn -0.777027 -0.5643845 -0.2787455
vn -0.7206515 -0.021803433 -0.69295454
vn -0.7206515 -0.021803433 -0.69295454
vn -0.7642184 0.40203488 -0.50431955
vn -0.9340005 0.04440118 -0.3545017
vn -0.777027 -0.5643845 -0.2787455
vn -0.99884653 -0.03441061 0.033488274
vn -0.80662555 0.5895945 0.041637126
vn 0.0014858907 0.046575688 -0.99891365
vn -0.41970116 -0.44987833 -0.7883276
vn -0.057468027 -0.5376534 -0.84120524
vn -0.3702124 0.46043283 -0.8068112
vn 0.006441516 0.99996984 -0.004356045
vn -0 1 0
vn -0 1 0
vn -0 1 -2.8086367E-07
vn -0.7642184 0.40203488 -0.50431955
vn -0.7206515 -0.021803433 -0.69295454
vn -0.9340005 0.04440118 -0.3545017
vn -0.80662555 0.5895945 0.041637126
g areaBlock05_COL_0
f 3/3/3 2/2/2 1/1/1
f 2/2/2 4/4/4 1/1/1
f 1/1/1 4/4/4 5/5/5
f 4/4/4 2/2/2 6/6/6
f 4/4/4 7/7/7 5/5/5
f 8/8/8 4/4/4 6/6/6
f 7/7/7 4/4/4 9/9/9
f 4/4/4 8/8/8 9/9/9
f 12/12/12 11/11/11 10/10/10
f 13/13/13 12/12/12 10/10/10
f 12/12/12 13/13/13 14/14/14
f 15/15/15 12/12/12 14/14/14
f 17/17/17 10/10/10 16/16/16
f 18/18/18 17/17/17 16/16/16
f 19/19/19 18/18/18 16/16/16
f 20/20/20 19/19/19 16/16/16
f 17/17/17 18/18/18 21/21/21
f 18/18/18 19/19/19 21/21/21
f 22/22/22 17/17/17 21/21/21
f 19/19/19 23/23/23 21/21/21
f 23/23/23 19/19/19 24/24/24
f 19/19/19 25/25/25 24/24/24
f 25/25/25 19/19/19 20/20/20
f 26/26/26 25/25/25 20/20/20
f 29/29/29 28/28/28 27/27/27
f 28/28/28 30/30/30 27/27/27
f 27/27/27 30/30/30 31/31/31
f 30/30/30 28/28/28 32/32/32
f 30/30/30 33/33/33 31/31/31
f 34/34/34 30/30/30 32/32/32
f 33/33/33 30/30/30 35/35/35
f 30/30/30 34/34/34 35/35/35
f 38/38/38 37/37/37 36/36/36
f 39/39/39 38/38/38 36/36/36
f 38/38/38 39/39/39 40/40/40
f 41/41/41 39/39/39 36/36/36
f 42/42/42 41/41/41 36/36/36
f 42/42/42 43/43/43 41/41/41
f 43/43/43 44/44/44 41/41/41
f 39/39/39 45/45/45 40/40/40
f 39/39/39 41/41/41 45/45/45
f 40/40/40 45/45/45 46/46/46
f 41/41/41 44/44/44 47/47/47
f 41/41/41 47/47/47 45/45/45
f 44/44/44 48/48/48 47/47/47
f 45/45/45 49/49/49 46/46/46
f 46/46/46 49/49/49 50/50/50
f 49/49/49 51/51/51 50/50/50
f 54/54/54 53/53/53 52/52/52
f 53/53/53 55/55/55 52/52/52
f 52/52/52 55/55/55 56/56/56
f 55/55/55 53/53/53 57/57/57
f 55/55/55 58/58/58 56/56/56
f 59/59/59 55/55/55 57/57/57
f 58/58/58 55/55/55 60/60/60
f 55/55/55 59/59/59 60/60/60
f 63/63/63 62/62/62 61/61/61
f 64/64/64 63/63/63 61/61/61
f 63/63/63 64/64/64 65/65/65
f 66/66/66 64/64/64 61/61/61
f 67/67/67 66/66/66 61/61/61
f 67/67/67 68/68/68 66/66/66
f 68/68/68 69/69/69 66/66/66
f 64/64/64 70/70/70 65/65/65
f 64/64/64 66/66/66 70/70/70
f 65/65/65 70/70/70 71/71/71
f 66/66/66 69/69/69 72/72/72
f 66/66/66 72/72/72 70/70/70
f 69/69/69 73/73/73 72/72/72
f 70/70/70 74/74/74 71/71/71
f 71/71/71 74/74/74 75/75/75
f 74/74/74 76/76/76 75/75/75
f 79/79/79 78/78/78 77/77/77
f 78/78/78 80/80/80 77/77/77
f 77/77/77 80/80/80 81/81/81
f 80/80/80 78/78/78 82/82/82
f 80/80/80 83/83/83 81/81/81
f 84/84/84 80/80/80 82/82/82
f 83/83/83 80/80/80 85/85/85
f 80/80/80 84/84/84 85/85/85
f 88/88/88 87/87/87 86/86/86
f 89/89/89 88/88/88 86/86/86
f 88/88/88 89/89/89 90/90/90
f 91/91/91 88/88/88 90/90/90
f 94/94/94 93/93/93 92/92/92
f 93/93/93 95/95/95 92/92/92
f 95/95/95 96/96/96 92/92/92
f 96/96/96 97/97/97 92/92/92
f 97/97/97 96/96/96 98/98/98
f 96/96/96 99/99/99 98/98/98
f 95/95/95 93/93/93 100/100/100
f 96/96/96 95/95/95 100/100/100
f 93/93/93 101/101/101 100/100/100
f 102/102/102 96/96/96 100/100/100
f 99/99/99 96/96/96 102/102/102
f 103/103/103 99/99/99 102/102/102
