g areaBlockStratum01
v 1.5718896 -1.5961728 0.00049804687
v 0.00070312497 -1.2534311 -1.5714648
v 0.00070312497 -1.2965194 0.00049804687
v 1.5718896 -1.4284604 -1.5714648
v 3.1887548 -1.4105453 0.0002783203
v 0.0007324219 -1.2437339 -3.068579
v 3.1881542 -1.3032724 -1.5837207
v 1.5839697 -1.3948691 -3.0587695
v 2.9360156 -1.4135873 -2.9870262
v 3.2192626 -0.25855076 9.094947E-15
v 3.1881542 -1.3032724 -1.5837207
v 3.1887548 -1.4105453 0.0002783203
v 3.2186766 -0.1130454 -1.5991406
v 1.599126 0.02531153 -1.5991406
v 1.599126 -0.08196875 9.094947E-15
v 0.0007470703 -9.698664E-07 9.094947E-15
v 0.0007470703 0.10727198 -1.5991406
v 1.599126 -0.13547216 -3.088325
v 0.0007470703 -0.11153417 -3.0982177
v 2.9641309 -0.29908788 -3.0158935
v 2.9360156 -1.4135873 -2.9870262
v 1.599126 -0.13547216 -3.088325
v 1.5839697 -1.3948691 -3.0587695
v 0.0007324219 -1.2437339 -3.068579
v 0.0007470703 -0.11153417 -3.0982177
v 0.00070312497 -1.2204233 1.5724462
v 1.5718896 -1.5961728 0.00049804687
v 0.00070312497 -1.2965194 0.00049804687
v 1.5718896 -1.5389096 1.5724462
v 0.0007324219 -1.2875082 3.1286817
v 3.1887548 -1.4105453 0.0002783203
v 1.5839697 -1.4386483 3.1286817
v 3.213618 -1.3348544 1.5842773
v 2.9360156 -1.4573568 2.9875977
v 3.2192626 -0.25855076 9.094947E-15
v 3.1887548 -1.4105453 0.0002783203
v 3.213618 -1.3348544 1.5842773
v 3.24437 -0.09140722 1.5991406
v 1.599126 0.046947274 1.5991406
v 1.599126 -0.08196875 9.094947E-15
v 0.0007470703 -9.698664E-07 9.094947E-15
v 0.0007470703 0.12891015 1.5991406
v 2.9641309 -0.34286228 3.0158935
v 2.9360156 -1.4573568 2.9875977
v 1.5839697 -1.4386483 3.1286817
v 1.599126 -0.17924657 3.2068164
v 0.0007470703 -0.13815527 3.185161
v 1.599126 -0.17924657 3.2068164
v 0.0007324219 -1.2875082 3.1286817
v 0.0007470703 -0.13815527 3.185161
v 0.00070312497 -1.2534311 -1.5714648
v -1.5719775 -1.5314145 0.00049804687
v 0.00070312497 -1.2965194 0.00049804687
v -1.5719775 -1.4954427 -1.5714648
v 0.0007324219 -1.2437339 -3.068579
v -3.2178075 -1.2069882 0.0002783203
v -1.583999 -1.4093661 -3.1677196
v -3.0488622 -1.2287339 -1.5837207
v -2.9360547 -1.2100303 -2.9870262
v -3.248579 -0.052200675 9.094947E-15
v -3.2178075 -1.2069882 0.0002783203
v -3.0488622 -1.2287339 -1.5837207
v -3.078003 -0.10536962 -1.5991406
v -1.599126 -0.019317375 -1.5991406
v -1.599126 0.021935064 9.094947E-15
v 0.0007470703 -9.698664E-07 9.094947E-15
v 0.0007470703 0.10727198 -1.5991406
v -2.9641309 -0.0955332 -3.0158935
v -2.9360547 -1.2100303 -2.9870262
v -1.583999 -1.4093661 -3.1677196
v -1.599126 -0.18010107 -3.1982958
v 0.0007470703 -0.11153417 -3.0982177
v -1.599126 -0.18010107 -3.1982958
v 0.0007324219 -1.2437339 -3.068579
v 0.0007470703 -0.11153417 -3.0982177
v -1.5719775 -1.5314145 0.00049804687
v 0.00070312497 -1.2204233 1.5724462
v 0.00070312497 -1.2965194 0.00049804687
v -1.5719775 -1.5577158 1.5724462
v -3.2178075 -1.2069882 0.0002783203
v 0.0007324219 -1.2875082 3.1286817
v -3.0588868 -1.1312973 1.5842773
v -1.583999 -1.4531454 3.2264013
v -2.9360547 -1.2538022 2.9875977
v -3.248579 -0.052200675 9.094947E-15
v -3.0588868 -1.1312973 1.5842773
v -3.2178075 -1.2069882 0.0002783203
v -3.08812 0.112152345 1.5991406
v -1.599126 0.002318366 1.5991406
v -1.599126 0.021935064 9.094947E-15
v 0.0007470703 -9.698664E-07 9.094947E-15
v 0.0007470703 0.12891015 1.5991406
v -1.599126 -0.26211035 3.2569776
v 0.0007470703 -0.13815527 3.185161
v -2.9641309 -0.1393076 3.0158935
v -2.9360547 -1.2538022 2.9875977
v -1.599126 -0.26211035 3.2569776
v -1.583999 -1.4531454 3.2264013
v 0.0007324219 -1.2875082 3.1286817
v 0.0007470703 -0.13815527 3.185161
vt 0.5 0.9375
vt 0.5625 0.875
vt 0.5 0.875
vt 0.5625 0.9375
vt 0.5 1
vt 0.625 0.875
vt 0.5625 1
vt 0.625 0.9375
vt 0.625 1
vt 0.50000155 0.23057051
vt 0.5625 0
vt 0.5 0
vt 0.56361616 0.23095383
vt 0.5625 0.3125
vt 0.5 0.3125
vt 0.5 0.375
vt 0.5625 0.375
vt 0.625 0.3125
vt 0.625 0.375
vt 0.625 0.25
vt 0.625 0
vt 0.6875 0.25
vt 0.6875 0
vt 0.75 0
vt 0.75 0.25
vt 0.5625 0.875
vt 0.5 0.9375
vt 0.5 0.875
vt 0.5625 0.9375
vt 0.625 0.875
vt 0.5 1
vt 0.625 0.9375
vt 0.5625 1
vt 0.625 1
vt 0.50000155 0.23057051
vt 0.5 0
vt 0.5625 0
vt 0.56361616 0.23095383
vt 0.5625 0.3125
vt 0.5 0.3125
vt 0.5 0.375
vt 0.5625 0.375
vt 0.625 0.25
vt 0.625 0
vt 0.6875 0
vt 0.625 0.3125
vt 0.625 0.375
vt 0.6875 0.25
vt 0.75 0
vt 0.75 0.25
vt 0.5625 0.875
vt 0.5 0.9375
vt 0.5 0.875
vt 0.5625 0.9375
vt 0.625 0.875
vt 0.5 1
vt 0.625 0.9375
vt 0.5625 1
vt 0.625 1
vt 0.50000155 0.23057051
vt 0.5 0
vt 0.5625 0
vt 0.56361616 0.23095383
vt 0.5625 0.3125
vt 0.5 0.3125
vt 0.5 0.375
vt 0.5625 0.375
vt 0.625 0.25
vt 0.625 0
vt 0.6875 0
vt 0.625 0.3125
vt 0.625 0.375
vt 0.6875 0.25
vt 0.75 0
vt 0.75 0.25
vt 0.5 0.9375
vt 0.5625 0.875
vt 0.5 0.875
vt 0.5625 0.9375
vt 0.5 1
vt 0.625 0.875
vt 0.5625 1
vt 0.625 0.9375
vt 0.625 1
vt 0.50000155 0.23057051
vt 0.5625 0
vt 0.5 0
vt 0.56361616 0.23095383
vt 0.5625 0.3125
vt 0.5 0.3125
vt 0.5 0.375
vt 0.5625 0.375
vt 0.625 0.3125
vt 0.625 0.375
vt 0.625 0.25
vt 0.625 0
vt 0.6875 0.25
vt 0.6875 0
vt 0.75 0
vt 0.75 0.25
vn -0.063534394 -0.9890787 0.13299082
vn 0.10690822 -0.99409974 0.018340861
vn -0.08267034 -0.9865667 0.14089666
vn -0.051465113 -0.998114 -0.033463918
vn 0.99915254 0.040691637 -0.006206882
vn 0.11058411 -0.6751365 -0.72935724
vn 0.65682423 -0.7282765 -0.19543654
vn -0.009678606 -0.75274414 -0.65824205
vn 0.685195 0.050036274 -0.726639
vn 0.7601071 0.6447046 -0.081199236
vn 0.65682423 -0.7282765 -0.19543654
vn 0.99915254 0.040691637 -0.006206882
vn 0.9989976 0.044752315 0.00095643435
vn -0.03664289 0.9985532 0.03935502
vn 0.01936689 0.9966456 -0.07951348
vn 0.10737901 0.9881543 -0.10963889
vn 0.10665103 0.99250185 0.059712365
vn -0.0073633553 0.052778147 -0.99857914
vn 0.015557407 0.04664002 -0.9987907
vn 0.58629453 0.51855075 -0.6223855
vn 0.685195 0.050036274 -0.726639
vn -0.0073633553 0.052778147 -0.99857914
vn -0.009678606 -0.75274414 -0.65824205
vn 0.11058411 -0.6751365 -0.72935724
vn 0.015557407 0.04664002 -0.9987907
vn -0.108146474 -0.98744315 -0.115153976
vn -0.063534394 -0.9890787 0.13299082
vn -0.08267034 -0.9865667 0.14089666
vn 0.01996974 -0.99894804 -0.04127949
vn 0.036309414 -0.030331908 0.9988802
vn 0.99915254 0.040691637 -0.006206882
vn -0.002402554 0.010656428 0.9999404
vn 0.9996228 0.027461017 0.0002911232
vn 0.47409174 -0.7218265 0.504186
vn 0.7601071 0.6447046 -0.081199236
vn 0.99915254 0.040691637 -0.006206882
vn 0.9996228 0.027461017 0.0002911232
vn 0.71249264 0.6422458 0.2826207
vn 0.051169515 0.99670285 0.06296883
vn 0.01936689 0.9966456 -0.07951348
vn 0.10737901 0.9881543 -0.10963889
vn 0.0347797 0.995538 0.08771827
vn 0.6844962 0.0482593 0.72741735
vn 0.47409174 -0.7218265 0.504186
vn -0.002402554 0.010656428 0.9999404
vn 0.0046510976 0.6182082 0.78600055
vn 0.11151455 0.6388175 0.76123375
vn 0.0046510976 0.6182082 0.78600055
vn 0.036309414 -0.030331908 0.9988802
vn 0.11151455 0.6388175 0.76123375
vn 0.10690822 -0.99409974 0.018340861
vn -0.008623871 -0.9998765 0.013142807
vn -0.08267034 -0.9865667 0.14089666
vn 0.029469762 -0.9994217 -0.016963795
vn 0.11058411 -0.6751365 -0.72935724
vn -0.79594964 -0.5950006 0.11152762
vn 0.0031603135 0.041155484 -0.9991478
vn -0.998872 0.039673187 -0.02609051
vn -0.4732934 -0.72319543 -0.5029729
vn -0.9997162 0.023819864 4.4458928E-05
vn -0.79594964 -0.5950006 0.11152762
vn -0.998872 0.039673187 -0.02609051
vn -0.7085289 0.6298239 -0.31829
vn -0.057222873 0.99753296 0.040664602
vn 0.009202829 0.9979844 -0.062789604
vn 0.10737901 0.9881543 -0.10963889
vn 0.10665103 0.99250185 0.059712365
vn -0.684497 0.048260033 -0.72741646
vn -0.4732934 -0.72319543 -0.5029729
vn 0.0031603135 0.041155484 -0.9991478
vn 0.018617617 0.6446326 -0.76426584
vn 0.015557407 0.04664002 -0.9987907
vn 0.018617617 0.6446326 -0.76426584
vn 0.11058411 -0.6751365 -0.72935724
vn 0.015557407 0.04664002 -0.9987907
vn -0.008623871 -0.9998765 0.013142807
vn -0.108146474 -0.98744315 -0.115153976
vn -0.08267034 -0.9865667 0.14089666
vn -0.02815512 -0.9970061 -0.07201435
vn -0.79594964 -0.5950006 0.11152762
vn 0.036309414 -0.030331908 0.9988802
vn -0.600959 -0.7718394 0.20763496
vn -0.027864683 -0.73979557 0.67225444
vn -0.6851959 0.050036445 0.7266381
vn -0.9997162 0.023819864 4.4458928E-05
vn -0.600959 -0.7718394 0.20763496
vn -0.79594964 -0.5950006 0.11152762
vn -0.9980106 0.05287574 0.03433678
vn 0.0015252923 0.99297345 0.11832815
vn 0.009202829 0.9979844 -0.062789604
vn 0.10737901 0.9881543 -0.10963889
vn 0.0347797 0.995538 0.08771827
vn -0.036326587 0.014805263 0.99923027
vn 0.11151455 0.6388175 0.76123375
vn -0.58630115 0.5185605 0.6223712
vn -0.6851959 0.050036445 0.7266381
vn -0.036326587 0.014805263 0.99923027
vn -0.027864683 -0.73979557 0.67225444
vn 0.036309414 -0.030331908 0.9988802
vn 0.11151455 0.6388175 0.76123375
g areaBlockStratum01_0
f 3/3/3 2/2/2 1/1/1
f 2/2/2 4/4/4 1/1/1
f 1/1/1 4/4/4 5/5/5
f 4/4/4 2/2/2 6/6/6
f 4/4/4 7/7/7 5/5/5
f 8/8/8 4/4/4 6/6/6
f 7/7/7 4/4/4 9/9/9
f 4/4/4 8/8/8 9/9/9
f 12/12/12 11/11/11 10/10/10
f 11/11/11 13/13/13 10/10/10
f 13/13/13 14/14/14 10/10/10
f 14/14/14 15/15/15 10/10/10
f 15/15/15 14/14/14 16/16/16
f 14/14/14 17/17/17 16/16/16
f 17/17/17 14/14/14 18/18/18
f 14/14/14 13/13/13 18/18/18
f 19/19/19 17/17/17 18/18/18
f 13/13/13 20/20/20 18/18/18
f 13/13/13 11/11/11 20/20/20
f 11/11/11 21/21/21 20/20/20
f 20/20/20 21/21/21 22/22/22
f 21/21/21 23/23/23 22/22/22
f 22/22/22 23/23/23 24/24/24
f 25/25/25 22/22/22 24/24/24
f 28/28/28 27/27/27 26/26/26
f 27/27/27 29/29/29 26/26/26
f 26/26/26 29/29/29 30/30/30
f 29/29/29 27/27/27 31/31/31
f 29/29/29 32/32/32 30/30/30
f 33/33/33 29/29/29 31/31/31
f 32/32/32 29/29/29 34/34/34
f 29/29/29 33/33/33 34/34/34
f 37/37/37 36/36/36 35/35/35
f 38/38/38 37/37/37 35/35/35
f 39/39/39 38/38/38 35/35/35
f 40/40/40 39/39/39 35/35/35
f 40/40/40 41/41/41 39/39/39
f 41/41/41 42/42/42 39/39/39
f 37/37/37 38/38/38 43/43/43
f 38/38/38 39/39/39 43/43/43
f 44/44/44 37/37/37 43/43/43
f 44/44/44 43/43/43 45/45/45
f 39/39/39 42/42/42 46/46/46
f 39/39/39 46/46/46 43/43/43
f 42/42/42 47/47/47 46/46/46
f 43/43/43 48/48/48 45/45/45
f 45/45/45 48/48/48 49/49/49
f 48/48/48 50/50/50 49/49/49
f 53/53/53 52/52/52 51/51/51
f 52/52/52 54/54/54 51/51/51
f 51/51/51 54/54/54 55/55/55
f 54/54/54 52/52/52 56/56/56
f 54/54/54 57/57/57 55/55/55
f 58/58/58 54/54/54 56/56/56
f 57/57/57 54/54/54 59/59/59
f 54/54/54 58/58/58 59/59/59
f 62/62/62 61/61/61 60/60/60
f 63/63/63 62/62/62 60/60/60
f 64/64/64 63/63/63 60/60/60
f 65/65/65 64/64/64 60/60/60
f 65/65/65 66/66/66 64/64/64
f 66/66/66 67/67/67 64/64/64
f 62/62/62 63/63/63 68/68/68
f 63/63/63 64/64/64 68/68/68
f 69/69/69 62/62/62 68/68/68
f 69/69/69 68/68/68 70/70/70
f 64/64/64 67/67/67 71/71/71
f 64/64/64 71/71/71 68/68/68
f 67/67/67 72/72/72 71/71/71
f 68/68/68 73/73/73 70/70/70
f 70/70/70 73/73/73 74/74/74
f 73/73/73 75/75/75 74/74/74
f 78/78/78 77/77/77 76/76/76
f 77/77/77 79/79/79 76/76/76
f 76/76/76 79/79/79 80/80/80
f 79/79/79 77/77/77 81/81/81
f 79/79/79 82/82/82 80/80/80
f 83/83/83 79/79/79 81/81/81
f 82/82/82 79/79/79 84/84/84
f 79/79/79 83/83/83 84/84/84
f 87/87/87 86/86/86 85/85/85
f 86/86/86 88/88/88 85/85/85
f 88/88/88 89/89/89 85/85/85
f 89/89/89 90/90/90 85/85/85
f 90/90/90 89/89/89 91/91/91
f 89/89/89 92/92/92 91/91/91
f 92/92/92 89/89/89 93/93/93
f 89/89/89 88/88/88 93/93/93
f 94/94/94 92/92/92 93/93/93
f 88/88/88 95/95/95 93/93/93
f 88/88/88 86/86/86 95/95/95
f 86/86/86 96/96/96 95/95/95
f 95/95/95 96/96/96 97/97/97
f 96/96/96 98/98/98 97/97/97
f 97/97/97 98/98/98 99/99/99
f 100/100/100 97/97/97 99/99/99
