g areaCragChunk02
v -3.3673582 -0.076257415 -0.7442058
v -3.0300536 -0.5826569 1.9533137
v -3.4904149 -0.5850586 1.3369173
v -1.8192528 -0.7949244 2.483675
v -0.9032862 0.23486073 -0.7034343
v 0.44578606 -0.74918526 3.0199642
v -0.9228565 -0.9976246 3.3535678
v -0.13512212 -1.407032 3.7578354
v 0.90313953 -1.4994733 3.9140072
v 1.5351025 -1.047975 3.4991536
v 2.7641943 -0.44010627 1.6874348
v 3.1990283 -0.8653962 1.9312532
v 0.6315087 0.14657278 0.33829424
v 3.3887842 0.07991873 -1.7771451
v 3.6188426 -0.11921152 -1.9078873
v 1.061245 0.21946341 -3.633805
v 2.0159228 -0.06845956 -3.3284438
v -0.21090338 0.24613576 -3.4954848
v 0.7501513 0.38440362 -1.0669011
v -2.0213428 0.23304921 -3.133932
v -1.1332374 -0.04975778 -3.8420668
v -3.0460498 -0.30258006 -3.2925942
v -3.4189622 -0.2464979 -2.044616
v 0.31423333 -73.72453 -4.162106
v -0.23537603 -0.093837984 -3.864235
v -0.75982916 -73.72453 -3.6041372
v 1.1499169 -0.11783396 -4.0383267
v 2.1894872 -0.4313587 -3.705817
v 2.2624462 -73.72453 -3.4861293
v 3.9349706 -0.48662362 -2.1589322
v 4.111023 -73.72453 -1.2661394
v 3.7172313 -73.72453 0.20574543
v 3.47781 -1.2991639 2.0216243
v 3.763662 -73.72453 1.5910677
v 3.2316895 -73.72453 3.2163706
v 1.5990356 -1.496501 3.722093
v 2.2057664 -73.72453 4.144173
v 1.044077 -1.9582094 4.034769
v -0.9860694 -73.72453 4.1574836
v -0.24113774 -1.868029 3.9133725
v -1.0817554 -1.436313 3.5386457
v -1.9718603 -1.2109174 2.5942612
v -2.1440086 -73.72453 3.3785677
v -3.2089403 -73.72453 2.6622005
v -3.3052294 -0.991283 2.0456378
v -3.8065283 -0.99389774 1.374427
v -4.0409718 -73.72453 1.1786555
v -4.241111 -1.2445374 -0.45169598
v -3.638999 -0.4328321 -0.9093913
v -4.111023 -73.72453 -1.8564909
v -3.7287207 -0.6252253 -2.3078287
v -3.754033 -73.72453 -3.0681996
v -3.2085447 -0.7109174 -3.552438
v -2.8520947 -73.72453 -3.8537662
v -1.239712 -0.41099128 -4.2651334
v -1.8803954 -73.72453 -4.1569986
v -0.75982916 -73.72453 -3.6041372
v -0.23537603 -0.093837984 -3.864235
v -3.3052294 -0.991283 2.0456378
v -3.0300536 -0.5826569 1.9533137
v -1.8192528 -0.7949244 2.483675
v -1.9718603 -1.2109174 2.5942612
v -3.8065283 -0.99389774 1.374427
v -0.9228565 -0.9976246 3.3535678
v -3.4904149 -0.5850586 1.3369173
v -1.0817554 -1.436313 3.5386457
v -3.638999 -0.4328321 -0.9093913
v -0.13512212 -1.407032 3.7578354
v -3.3673582 -0.076257415 -0.7442058
v -0.24113774 -1.868029 3.9133725
v -3.7287207 -0.6252253 -2.3078287
v 0.90313953 -1.4994733 3.9140072
v -3.4189622 -0.2464979 -2.044616
v 1.044077 -1.9582094 4.034769
v -3.2085447 -0.7109174 -3.552438
v 1.5351025 -1.047975 3.4991536
v -3.0460498 -0.30258006 -3.2925942
v 1.5990356 -1.496501 3.722093
v -1.239712 -0.41099128 -4.2651334
v 3.1990283 -0.8653962 1.9312532
v -1.1332374 -0.04975778 -3.8420668
v 3.47781 -1.2991639 2.0216243
v -0.23537603 -0.093837984 -3.864235
v 3.6188426 -0.11921152 -1.9078873
v -0.21090338 0.24613576 -3.4954848
v 3.9349706 -0.48662362 -2.1589322
v 1.1499169 -0.11783396 -4.0383267
v 2.0159228 -0.06845956 -3.3284438
v 1.061245 0.21946341 -3.633805
v 2.1894872 -0.4313587 -3.705817
vt 0.54585254 0.83504426
vt 0.53659177 0.79523724
vt 0.5319715 0.8047864
vt 0.5545254 0.7881185
vt 0.5731399 0.8246553
vt 0.5843437 0.76718855
vt 0.55998963 0.76971763
vt 0.56948936 0.761492
vt 0.585065 0.7559545
vt 0.59279585 0.7598969
vt 0.61528933 0.78212774
vt 0.6216705 0.77569836
vt 0.5907176 0.80691993
vt 0.6338608 0.827415
vt 0.6384158 0.82826674
vt 0.60847783 0.8595239
vt 0.6212996 0.852765
vt 0.5900759 0.8578974
vt 0.5963974 0.8257123
vt 0.56573075 0.8609494
vt 0.5791793 0.8697162
vt 0.55025697 0.8648378
vt 0.5427642 0.851843
vt 0.24540323 0.017845452
vt 0.38861644 0.024609942
vt 0.2469672 0.0025891485
vt 0.38544136 0.04309839
vt 0.38105142 0.057078354
vt 0.23707166 0.043308742
vt 0.38147002 0.08670825
vt 0.23548177 0.0807565
vt 0.23123057 0.104222655
vt 0.37735644 0.14145596
vt 0.23202829 0.12118389
vt 0.23581424 0.14316864
vt 0.3768665 0.17507744
vt 0.2386277 0.16107437
vt 0.3716257 0.18225104
vt 0.23115134 0.20124388
vt 0.37158927 0.19859523
vt 0.37538776 0.21049842
vt 0.3764382 0.22915152
vt 0.22833899 0.21817872
vt 0.22575246 0.23375359
vt 0.37493345 0.24798858
vt 0.3724888 0.25829625
vt 0.23168471 0.25556058
vt 0.35498375 0.2779839
vt 0.37506324 0.29185498
vt 0.22761242 0.2936269
vt 0.3647331 0.30533445
vt 0.22535829 0.30947042
vt 0.35970578 0.31912017
vt 0.22631708 0.3246069
vt 0.36082834 0.34769523
vt 0.22900885 0.33752173
vt 0.22326866 0.3531186
vt 0.36583427 0.3624794
vt 0.53659177 0.79523724
vt 0.53659177 0.79523724
vt 0.5545254 0.7881185
vt 0.5545254 0.7881185
vt 0.5319715 0.8047864
vt 0.55998963 0.76971763
vt 0.5319715 0.8047864
vt 0.55998963 0.76971763
vt 0.54585254 0.83504426
vt 0.56948936 0.761492
vt 0.54585254 0.83504426
vt 0.56948936 0.761492
vt 0.5427642 0.851843
vt 0.585065 0.7559545
vt 0.5427642 0.851843
vt 0.585065 0.7559545
vt 0.55025697 0.8648378
vt 0.59279585 0.7598969
vt 0.55025697 0.8648378
vt 0.59279585 0.7598969
vt 0.5791793 0.8697162
vt 0.6216705 0.77569836
vt 0.5791793 0.8697162
vt 0.6216705 0.77569836
vt 0.5900759 0.8578974
vt 0.6384158 0.82826674
vt 0.5900759 0.8578974
vt 0.6384158 0.82826674
vt 0.60847783 0.8595239
vt 0.6212996 0.852765
vt 0.60847783 0.8595239
vt 0.6212996 0.852765
vn -0.02377952 0.9977552 -0.06260211
vn -0.005717178 0.99990284 -0.0127102565
vn -0.256795 0.96633923 -0.015651062
vn -0.02264818 0.99969757 0.009586897
vn -0.10517815 0.97627455 0.18927631
vn -0.008899157 0.99979717 0.018067114
vn -0.08575029 0.99054307 0.107103884
vn 0.0005785649 0.6737112 0.7389945
vn -0.0894472 0.70286524 0.7056768
vn 0.18638052 0.9541022 0.23441654
vn 0.07682 0.99697423 -0.011880493
vn 0.533251 0.8197914 0.20877118
vn 0.02223565 0.96973854 0.24313073
vn 0.0057117725 0.9970421 -0.07664449
vn 0.7051619 0.70637316 0.06151043
vn 3.717139E-05 0.99061686 -0.13666841
vn 0.37924644 0.7327805 -0.5649823
vn 0.001108473 0.98988825 -0.1418455
vn 0.091306694 0.99295384 0.07553745
vn -0.12725273 0.9369998 -0.32532763
vn 0.0026540738 0.83152616 -0.5554793
vn -0.44159743 0.09220164 -0.8924632
vn -0.39448538 0.8705861 -0.2940428
vn -0.42010465 -0.04980073 -0.90610814
vn -0.32435852 0.13920936 -0.93563473
vn -0.46070677 -0.05608663 -0.8857784
vn -0.2904613 0.14946847 -0.94514096
vn 0.5734345 -0.0013570255 -0.8192502
vn 0.512961 -0.01691141 -0.8582453
vn 0.65850925 0.00032091548 -0.75257266
vn 0.764437 -0.16576695 -0.62302274
vn 0.9097114 -0.09314658 -0.40465897
vn 0.99254733 0.049864773 0.11119034
vn 0.90540284 -0.09147121 -0.41458258
vn 0.9060081 -0.010609098 0.42312714
vn 0.6676011 0.1772878 0.7231029
vn 0.68566257 -0.001997216 0.72791684
vn -0.011813512 0.023753237 0.9996481
vn -0.009138127 0.0010166103 0.9999578
vn -0.19390985 0.024461681 0.98071426
vn -0.8184883 0.09440672 0.56671363
vn -0.86809576 0.1114716 0.4837188
vn -0.557309 0.00831798 0.8302636
vn -0.86947197 0.005762439 0.49394867
vn -0.79609525 0.017167442 0.6049278
vn -0.8784498 0.072382554 0.47232062
vn -0.9764558 0.0010340479 0.21571529
vn -0.99055064 0.07620174 -0.1140294
vn -0.80290455 0.5873437 -0.101841256
vn -0.9955581 0.009471129 -0.09367171
vn -0.9413949 0.031909496 -0.33579382
vn -0.6582857 0.022479722 -0.7524324
vn -0.44159743 0.09220164 -0.8924632
vn -0.5179429 0.026344344 -0.85500944
vn -0.18110953 0.0557205 -0.98188317
vn -0.047993813 -0.02160264 -0.99861395
vn -0.46070677 -0.05608663 -0.8857784
vn -0.32435852 0.13920936 -0.93563473
vn -0.79609525 0.017167442 0.6049278
vn -0.005717178 0.99990284 -0.0127102565
vn -0.02264818 0.99969757 0.009586897
vn -0.86809576 0.1114716 0.4837188
vn -0.8784498 0.072382554 0.47232062
vn -0.08575029 0.99054307 0.107103884
vn -0.256795 0.96633923 -0.015651062
vn -0.8184883 0.09440672 0.56671363
vn -0.80290455 0.5873437 -0.101841256
vn 0.0005785649 0.6737112 0.7389945
vn -0.02377952 0.9977552 -0.06260211
vn -0.19390985 0.024461681 0.98071426
vn -0.9413949 0.031909496 -0.33579382
vn -0.0894472 0.70286524 0.7056768
vn -0.39448538 0.8705861 -0.2940428
vn -0.011813512 0.023753237 0.9996481
vn -0.44159743 0.09220164 -0.8924632
vn 0.18638052 0.9541022 0.23441654
vn -0.44159743 0.09220164 -0.8924632
vn 0.6676011 0.1772878 0.7231029
vn -0.18110953 0.0557205 -0.98188317
vn 0.533251 0.8197914 0.20877118
vn 0.0026540738 0.83152616 -0.5554793
vn 0.99254733 0.049864773 0.11119034
vn -0.32435852 0.13920936 -0.93563473
vn 0.7051619 0.70637316 0.06151043
vn 0.001108473 0.98988825 -0.1418455
vn 0.65850925 0.00032091548 -0.75257266
vn -0.2904613 0.14946847 -0.94514096
vn 0.37924644 0.7327805 -0.5649823
vn 3.717139E-05 0.99061686 -0.13666841
vn 0.5734345 -0.0013570255 -0.8192502
g areaCragChunk02_0
f 3/3/3 2/2/2 1/1/1
f 1/1/1 2/2/2 4/4/4
f 5/5/5 1/1/1 4/4/4
f 5/5/5 4/4/4 6/6/6
f 7/7/7 6/6/6 4/4/4
f 7/7/7 8/8/8 6/6/6
f 6/6/6 8/8/8 9/9/9
f 9/9/9 10/10/10 6/6/6
f 6/6/6 10/10/10 11/11/11
f 12/12/12 11/11/11 10/10/10
f 13/13/13 6/6/6 11/11/11
f 13/13/13 5/5/5 6/6/6
f 11/11/11 12/12/12 14/14/14
f 13/13/13 11/11/11 14/14/14
f 12/12/12 15/15/15 14/14/14
f 16/16/16 14/14/14 15/15/15
f 16/16/16 15/15/15 17/17/17
f 16/16/16 18/18/18 14/14/14
f 19/19/19 13/13/13 14/14/14
f 19/19/19 5/5/5 13/13/13
f 18/18/18 19/19/19 14/14/14
f 18/18/18 5/5/5 19/19/19
f 5/5/5 18/18/18 20/20/20
f 20/20/20 18/18/18 21/21/21
f 5/5/5 20/20/20 1/1/1
f 22/22/22 20/20/20 21/21/21
f 1/1/1 20/20/20 23/23/23
f 20/20/20 22/22/22 23/23/23
f 26/26/26 25/25/25 24/24/24
f 25/25/25 27/27/27 24/24/24
f 24/24/24 27/27/27 28/28/28
f 29/29/29 24/24/24 28/28/28
f 30/30/30 29/29/29 28/28/28
f 30/30/30 31/31/31 29/29/29
f 30/30/30 32/32/32 31/31/31
f 32/32/32 30/30/30 33/33/33
f 34/34/34 32/32/32 33/33/33
f 34/34/34 33/33/33 35/35/35
f 33/33/33 36/36/36 35/35/35
f 35/35/35 36/36/36 37/37/37
f 36/36/36 38/38/38 37/37/37
f 39/39/39 37/37/37 38/38/38
f 40/40/40 39/39/39 38/38/38
f 41/41/41 39/39/39 40/40/40
f 39/39/39 41/41/41 42/42/42
f 43/43/43 39/39/39 42/42/42
f 43/43/43 42/42/42 44/44/44
f 42/42/42 45/45/45 44/44/44
f 46/46/46 44/44/44 45/45/45
f 46/46/46 47/47/47 44/44/44
f 46/46/46 48/48/48 47/47/47
f 48/48/48 46/46/46 49/49/49
f 50/50/50 47/47/47 48/48/48
f 51/51/51 48/48/48 49/49/49
f 51/51/51 50/50/50 48/48/48
f 51/51/51 52/52/52 50/50/50
f 53/53/53 52/52/52 51/51/51
f 53/53/53 54/54/54 52/52/52
f 55/55/55 54/54/54 53/53/53
f 55/55/55 56/56/56 54/54/54
f 56/56/56 55/55/55 57/57/57
f 55/55/55 58/58/58 57/57/57
f 61/61/61 60/60/60 59/59/59
f 62/62/62 61/61/61 59/59/59
f 59/59/59 60/60/60 63/63/63
f 64/64/64 61/61/61 62/62/62
f 60/60/60 65/65/65 63/63/63
f 66/66/66 64/64/64 62/62/62
f 63/63/63 65/65/65 67/67/67
f 68/68/68 64/64/64 66/66/66
f 65/65/65 69/69/69 67/67/67
f 70/70/70 68/68/68 66/66/66
f 67/67/67 69/69/69 71/71/71
f 72/72/72 68/68/68 70/70/70
f 69/69/69 73/73/73 71/71/71
f 74/74/74 72/72/72 70/70/70
f 71/71/71 73/73/73 75/75/75
f 76/76/76 72/72/72 74/74/74
f 73/73/73 77/77/77 75/75/75
f 78/78/78 76/76/76 74/74/74
f 75/75/75 77/77/77 79/79/79
f 80/80/80 76/76/76 78/78/78
f 77/77/77 81/81/81 79/79/79
f 82/82/82 80/80/80 78/78/78
f 79/79/79 81/81/81 83/83/83
f 84/84/84 80/80/80 82/82/82
f 81/81/81 85/85/85 83/83/83
f 86/86/86 84/84/84 82/82/82
f 83/83/83 85/85/85 87/87/87
f 88/88/88 84/84/84 86/86/86
f 85/85/85 89/89/89 87/87/87
f 90/90/90 88/88/88 86/86/86
f 87/87/87 89/89/89 90/90/90
f 89/89/89 88/88/88 90/90/90
