g areaRamp02
v 1.1401044 1.4660919 -7.9710855
v 2.2132392 0.90522885 -6.9800653
v 2.3288789 1.5439385 -7.098112
v 1.0766767 0.8333319 -7.8070965
v 2.0476387 -4.973943 -7.0833173
v -1.3035624 1.4696246 -7.931462
v 1.047287 -4.973943 -7.902907
v -1.3035624 0.83005977 -7.807394
v -2.7480388 1.514483 -7.2375016
v -1.1775615 -4.973943 -7.892487
v -2.6283758 0.8488128 -7.1678925
v -2.2463834 -4.973943 -7.520529
v 2.3684394 0.82996947 -5.4255047
v 2.3288789 1.5439385 -7.098112
v 2.2132392 0.90522885 -6.9800653
v 2.6050384 1.3297577 -5.2262177
v 3.3622699 0.33623716 -1.6795034
v 3.2274334 -0.101002194 -1.8242056
v 4.647383 -1.081991 1.5720931
v 4.5770073 -1.6281054 1.3937533
v 6.1155863 -2.9073305 4.096917
v 6.056055 -2.3050692 4.28596
v 6.0241218 -3.5460403 6.2334943
v 6.100772 -2.859117 6.301131
v 4.677144 -3.5586772 7.520838
v 4.677144 -2.8613741 7.64408
v -0.23064992 -3.5444908 7.39076
v -0.32286185 -2.8613741 7.64408
v -2.183278 -3.5219526 6.1197343
v -2.3947234 -2.8592682 6.1857305
v -2.9888835 -2.949997 4.0996127
v -2.9097235 -2.3751452 4.290897
v -3.1045673 -1.2004608 1.6838461
v -3.1201043 -1.666618 1.5216489
v -2.844157 0.20246276 -1.6028042
v -2.796076 -0.25825012 -1.7808071
v -2.9647088 0.80392027 -5.390817
v -3.140031 1.3012232 -5.1605825
v -2.6283758 0.8488128 -7.1678925
v -2.7480388 1.514483 -7.2375016
v -2.9647088 0.80392027 -5.390817
v -2.2463834 -4.973943 -7.520529
v -2.6283758 0.8488128 -7.1678925
v -2.7673504 -4.973943 -5.4793034
v -2.4733024 -4.973943 -1.9644887
v -2.796076 -0.25825012 -1.7808071
v -2.6961493 -4.973943 1.207474
v -3.1201043 -1.666618 1.5216489
v -2.9888835 -2.949997 4.0996127
v -2.5796943 -4.973943 3.7505405
v -2.183278 -3.5219526 6.1197343
v -2.138195 -4.9739447 5.237342
v -0.23064992 -3.5444908 7.39076
v -0.22804739 -4.9739447 6.506072
v 4.677144 -3.5586772 7.520838
v 4.603775 -4.9739447 6.5282497
v 6.0241218 -3.5460403 6.2334943
v 5.9759183 -4.9739447 5.470267
v 6.1155863 -2.9073305 4.096917
v 5.726026 -4.973943 3.8012338
v 3.9010491 -4.973943 1.167391
v 4.5770073 -1.6281054 1.3937533
v 3.0138469 -4.973943 -1.9812564
v 3.2274334 -0.101002194 -1.8242056
v 2.3684394 0.82996947 -5.4255047
v 2.4021382 -4.973943 -5.4439273
v 2.2132392 0.90522885 -6.9800653
v 2.0476387 -4.973943 -7.0833173
v -2.2054703 -2.4885004 5.9705157
v -2.5932977 -2.0427465 4.2990756
v 0.020473113 -1.851618 4.2100472
v -0.23195364 -2.4786725 7.238738
v -0.081501976 -0.7315399 1.6827865
v -2.7101922 -0.88823605 1.7437484
v 4.2828655 -1.851618 4.2100472
v 4.6068025 -2.470193 7.2387676
v 5.824878 -2.5413744 5.9912286
v 5.7396293 -1.9720422 4.3139634
v 4.2391353 -0.8192175 1.6271468
v 2.6067133 -0.7315399 1.6827865
v 2.9276483 0.6463153 -1.5462807
v 1.4747969 0.70124817 -1.4873648
v 2.1448262 1.5648444 -4.9877796
v -0.6868755 0.70124817 -1.4873648
v -2.4877849 0.5789831 -1.4544595
v 1.0511103 1.5648444 -4.9222865
v 2.0592306 1.812536 -6.7996745
v -1.1246612 1.5648444 -4.9222865
v -2.7827117 1.5648444 -4.9454994
v -2.4348454 1.812536 -6.9860415
v 1.0511103 1.812536 -6.7955923
v 1.0511103 1.812536 -7.598444
v -1.165324 1.812536 -6.7859683
v -1.182752 1.812536 -7.584689
v 4.5298295 -0.91341245 1.6242416
v 3.3622699 0.33623716 -1.6795034
v 4.647383 -1.081991 1.5720931
v 6.056055 -2.3050692 4.28596
v 3.2401457 0.49729368 -1.6100552
v 2.6050384 1.3297577 -5.2262177
v 5.943067 -2.1289732 4.3208137
v 6.100772 -2.859117 6.301131
v 4.2391353 -0.8192175 1.6271468
v 2.9276483 0.6463153 -1.5462807
v 5.7396293 -1.9720422 4.3139634
v 6.0022564 -2.6833117 6.190711
v 4.677144 -2.8613741 7.64408
v 5.824878 -2.5413744 5.9912286
v 2.473774 1.4757733 -5.1221695
v 2.1448262 1.5648444 -4.9877796
v 2.0592306 1.812536 -6.7996745
v 4.6520267 -2.6854427 7.4995
v -0.32286185 -2.8613741 7.64408
v 4.6068025 -2.470193 7.2387676
v 2.2325947 1.729278 -6.994367
v 2.3288789 1.5439385 -7.098112
v 1.0511103 1.812536 -7.598444
v -0.2904009 -2.6854427 7.4995
v -2.3947234 -2.8592682 6.1857305
v -0.23195364 -2.4786725 7.238738
v 1.108327 1.653692 -7.8419843
v 1.1401044 1.4660919 -7.9710855
v -1.182752 1.812536 -7.584689
v -2.3033805 -2.6834679 6.077166
v -2.2054703 -2.4885004 5.9705157
v -2.9097235 -2.3751452 4.290897
v -1.2604277 1.6563617 -7.8120575
v -1.3035624 1.4696246 -7.931462
v -2.4348454 1.812536 -6.9860415
v -2.796735 -2.1964993 4.319881
v -2.5932977 -2.0427465 4.2990756
v -2.7101922 -0.88823605 1.7437484
v -2.6362078 1.698261 -7.151266
v -2.7480388 1.514483 -7.2375016
v -2.7827117 1.5648444 -4.9454994
v -2.920202 -1.0297118 1.7309995
v -3.1045673 -1.2004608 1.6838461
v -2.4877849 0.5789831 -1.4544595
v -3.012443 1.4482788 -5.0589223
v -3.140031 1.3012232 -5.1605825
v -2.704367 0.44978333 -1.5007632
v -2.844157 0.20246276 -1.6028042
vt 0.5416667 0.5
vt 0.625 0.64583325
vt 0.625 0.5
vt 0.5416667 0.64583325
vt 0.625 0.74999994
vt 0.45833334 0.5
vt 0.5416667 0.74999994
vt 0.45833334 0.64583325
vt 0.375 0.5
vt 0.45833334 0.74999994
vt 0.375 0.64583325
vt 0.375 0.74999994
vt 0.7916667 0.10416667
vt 0.875 0.25
vt 0.875 0.10416667
vt 0.7916667 0.25
vt 0.75 0.25
vt 0.75 0.10416667
vt 0.7291667 0.25
vt 0.7291667 0.10416667
vt 0.7083334 0.10416667
vt 0.7083334 0.25
vt 0.625 0.10416667
vt 0.625 0.25
vt 0.5416667 0.10416667
vt 0.5416667 0.25
vt 0.45833334 0.10416667
vt 0.45833334 0.25
vt 0.375 0.10416667
vt 0.375 0.25
vt 0.2916667 0.10416667
vt 0.2916667 0.25
vt 0.27083334 0.25
vt 0.27083334 0.10416667
vt 0.25 0.25
vt 0.25 0.10416667
vt 0.20833334 0.10416667
vt 0.20833334 0.25
vt 0.125 0.10416667
vt 0.125 0.25
vt 0.375 0.83333325
vt 0.375 0.74999994
vt 0.375 0.64583325
vt 0.375 0.83333325
vt 0.375 0.8749999
vt 0.375 0.8749999
vt 0.375 0.89583325
vt 0.375 0.89583325
vt 0.375 0.91666657
vt 0.375 0.91666657
vt 0.375 0.9999999
vt 0.375 0.9999999
vt 0.45833334 0.9999999
vt 0.45833334 0.9999999
vt 0.5416667 0.9999999
vt 0.5416667 0.9999999
vt 0.625 0.9999999
vt 0.625 0.9999999
vt 0.625 0.91666657
vt 0.625 0.91666657
vt 0.625 0.89583325
vt 0.625 0.89583325
vt 0.625 0.8749999
vt 0.625 0.8749999
vt 0.625 0.83333325
vt 0.625 0.83333325
vt 0.625 0.64583325
vt 0.625 0.74999994
vt 0.375 0.25
vt 0.375 0.33333334
vt 0.45833334 0.33333334
vt 0.45833334 0.25
vt 0.45833334 0.3541667
vt 0.375 0.3541667
vt 0.5416667 0.33333334
vt 0.5416667 0.25
vt 0.625 0.25
vt 0.625 0.33333334
vt 0.625 0.3541667
vt 0.5416667 0.3541667
vt 0.625 0.375
vt 0.5416667 0.375
vt 0.625 0.4166667
vt 0.45833334 0.375
vt 0.375 0.375
vt 0.5416667 0.4166667
vt 0.625 0.5
vt 0.45833334 0.4166667
vt 0.375 0.4166667
vt 0.375 0.5
vt 0.5416667 0.47500002
vt 0.5416667 0.5
vt 0.4583333 0.47500002
vt 0.45833334 0.5
vt 0.625 0.3541667
vt 0.625 0.375
vt 0.625 0.3541667
vt 0.625 0.33333334
vt 0.625 0.375
vt 0.625 0.4166667
vt 0.625 0.33333334
vt 0.625 0.25
vt 0.625 0.3541667
vt 0.625 0.375
vt 0.625 0.33333334
vt 0.625 0.25
vt 0.5416667 0.25
vt 0.625 0.25
vt 0.625 0.4166667
vt 0.625 0.4166667
vt 0.625 0.5
vt 0.5416667 0.25
vt 0.45833334 0.25
vt 0.5416667 0.25
vt 0.625 0.5
vt 0.625 0.5
vt 0.5416667 0.5
vt 0.45833334 0.25
vt 0.375 0.25
vt 0.45833334 0.25
vt 0.5416667 0.5
vt 0.5416667 0.5
vt 0.45833334 0.5
vt 0.375 0.25
vt 0.375 0.25
vt 0.375 0.33333334
vt 0.45833334 0.5
vt 0.45833334 0.5
vt 0.375 0.5
vt 0.375 0.33333334
vt 0.375 0.33333334
vt 0.375 0.3541667
vt 0.375 0.5
vt 0.375 0.5
vt 0.375 0.4166667
vt 0.375 0.3541667
vt 0.375 0.3541667
vt 0.375 0.375
vt 0.375 0.4166667
vt 0.375 0.4166667
vt 0.375 0.375
vt 0.375 0.375
vn 0.2305515 -0.047213852 -0.9719141
vn 0.87953156 -0.037025347 -0.47439787
vn 0.8587832 -0.04356358 -0.51048374
vn 0.24148746 -0.01649565 -0.9702637
vn 0.87400824 -0.0038348862 -0.48589602
vn -0.17889325 -0.020326635 -0.9836585
vn 0.23482709 0.011634167 -0.97196746
vn -0.15216267 -0.008069753 -0.98832256
vn -0.8197063 0.013105895 -0.57263416
vn -0.14172493 0.016608087 -0.9897668
vn -0.83730817 -0.042565517 -0.5450717
vn -0.81512254 -0.0177015 -0.57901794
vn 0.98063976 -0.038722817 -0.19195369
vn 0.8587832 -0.04356358 -0.51048374
vn 0.87953156 -0.037025347 -0.47439787
vn 0.98088086 -0.01803047 -0.19377224
vn 0.95968723 0.083514586 -0.2683759
vn 0.9631962 -0.051645447 -0.26379114
vn 0.91830283 0.18581553 -0.34956062
vn 0.9070193 -0.07481807 -0.41438895
vn 0.91115403 -0.077514775 -0.4047095
vn 0.95965946 0.17415121 -0.22073756
vn 0.8890204 -0.25149143 0.3826159
vn 0.9175483 0.052852202 0.39409605
vn 0.14636797 -0.45361814 0.8790945
vn 0.18057688 -0.04387452 0.98258185
vn -0.16050276 -0.46117637 0.8726713
vn -0.1985292 -0.07282572 0.9773856
vn -0.7120033 -0.35324916 0.6068495
vn -0.79526526 -0.070191614 0.6021848
vn -0.9830566 -0.15092541 0.10402463
vn -0.9693263 0.104678415 0.22237127
vn -0.97523683 0.20842336 0.07397865
vn -0.9942762 -0.08576175 -0.063715495
vn -0.99247617 0.113879845 0.044972017
vn -0.99762887 -0.06882006 0.00065477734
vn -0.99575007 -0.06638944 -0.0638291
vn -0.99984145 0.0065504047 -0.01655427
vn -0.83730817 -0.042565517 -0.5450717
vn -0.8197063 0.013105895 -0.57263416
vn -0.99575007 -0.06638944 -0.0638291
vn -0.81512254 -0.0177015 -0.57901794
vn -0.83730817 -0.042565517 -0.5450717
vn -0.99768436 -0.047303192 -0.048870288
vn -0.99784946 -0.06517312 -0.0069901394
vn -0.99762887 -0.06882006 0.00065477734
vn -0.99185634 -0.1085085 -0.06668587
vn -0.9942762 -0.08576175 -0.063715495
vn -0.9830566 -0.15092541 0.10402463
vn -0.9797126 -0.17756468 0.09292007
vn -0.7120033 -0.35324916 0.6068495
vn -0.7955059 -0.33978236 0.50171536
vn -0.16050276 -0.46117637 0.8726713
vn -0.18536906 -0.5344414 0.82462764
vn 0.14636797 -0.45361814 0.8790945
vn 0.1653325 -0.5422779 0.8237718
vn 0.8890204 -0.25149143 0.3826159
vn 0.9465047 -0.24426252 0.21086633
vn 0.91115403 -0.077514775 -0.4047095
vn 0.8891115 -0.11204823 -0.4437633
vn 0.9028317 -0.094072945 -0.41957757
vn 0.9070193 -0.07481807 -0.41438895
vn 0.96330583 -0.0426779 -0.26499116
vn 0.9631962 -0.051645447 -0.26379114
vn 0.98063976 -0.038722817 -0.19195369
vn 0.9817452 -0.011927011 -0.18982652
vn 0.87953156 -0.037025347 -0.47439787
vn 0.87400824 -0.0038348862 -0.48589602
vn -0.20449312 0.9338245 0.29352054
vn -0.11446794 0.9162491 0.38390708
vn -0.018670198 0.9514506 0.30723467
vn -0.034613144 0.9636941 0.26475564
vn -0.021121807 0.9115717 0.4105983
vn -0.09969091 0.9064273 0.4104279
vn 0.019308768 0.95843834 0.2846456
vn 0.034697708 0.9656564 0.25749522
vn 0.28625935 0.9280568 0.23825638
vn 0.16201815 0.93603563 0.31239003
vn 0.11526439 0.92655 0.35807738
vn 0.018290274 0.91566336 0.40152982
vn 0.1100145 0.94197464 0.31714442
vn 0.015560342 0.9420121 0.3352182
vn 0.112770356 0.97104484 0.21060541
vn -0.020110577 0.94064456 0.3387971
vn -0.09537293 0.9323512 0.3487481
vn 0.0085093845 0.9771516 0.21237324
vn 0.17199352 0.984683 0.028593626
vn -0.012030662 0.97613335 0.2168383
vn -0.12007974 0.9656007 0.23064269
vn -0.16959584 0.98544955 -0.011242854
vn 0.00023323501 0.9957628 0.09195807
vn 0.035467137 0.98188317 -0.18613856
vn -0.0034476407 0.99564606 0.093150154
vn -0.028076794 0.9808246 -0.19285998
vn 0.6111734 0.78852165 0.068561144
vn 0.95968723 0.083514586 -0.2683759
vn 0.91830283 0.18581553 -0.34956062
vn 0.95965946 0.17415121 -0.22073756
vn 0.5520039 0.82417303 0.12661138
vn 0.98088086 -0.01803047 -0.19377224
vn 0.69594514 0.7166137 0.046098977
vn 0.9175483 0.052852202 0.39409605
vn 0.11526439 0.92655 0.35807738
vn 0.1100145 0.94197464 0.31714442
vn 0.16201815 0.93603563 0.31239003
vn 0.6270551 0.6937168 0.35434288
vn 0.18057688 -0.04387452 0.98258185
vn 0.28625935 0.9280568 0.23825638
vn 0.5621278 0.82270736 0.084645614
vn 0.112770356 0.97104484 0.21060541
vn 0.17199352 0.984683 0.028593626
vn 0.12976246 0.7325167 0.66826713
vn -0.1985292 -0.07282572 0.9773856
vn 0.034697708 0.9656564 0.25749522
vn 0.5532221 0.7949132 -0.2491154
vn 0.8587832 -0.04356358 -0.51048374
vn 0.035467137 0.98188317 -0.18613856
vn -0.13512988 0.7124191 0.6886211
vn -0.79526526 -0.070191614 0.6021848
vn -0.034613144 0.9636941 0.26475564
vn 0.13657147 0.7293397 -0.6703818
vn 0.2305515 -0.047213852 -0.9719141
vn -0.028076794 0.9808246 -0.19285998
vn -0.55950266 0.64331794 0.52258855
vn -0.20449312 0.9338245 0.29352054
vn -0.9693263 0.104678415 0.22237127
vn -0.11596733 0.7194131 -0.6848331
vn -0.17889325 -0.020326635 -0.9836585
vn -0.16959584 0.98544955 -0.011242854
vn -0.68450177 0.64293814 0.3436394
vn -0.11446794 0.9162491 0.38390708
vn -0.09969091 0.9064273 0.4104279
vn -0.539919 0.7805535 -0.31499776
vn -0.8197063 0.013105895 -0.57263416
vn -0.12007974 0.9656007 0.23064269
vn -0.68092227 0.67267287 0.28957903
vn -0.97523683 0.20842336 0.07397865
vn -0.09537293 0.9323512 0.3487481
vn -0.7091459 0.688462 0.1520928
vn -0.99984145 0.0065504047 -0.01655427
vn -0.693186 0.6742386 0.25474593
vn -0.99247617 0.113879845 0.044972017
g areaRamp02_0
f 3/3/3 2/2/2 1/1/1
f 2/2/2 4/4/4 1/1/1
f 2/2/2 5/5/5 4/4/4
f 1/1/1 4/4/4 6/6/6
f 5/5/5 7/7/7 4/4/4
f 4/4/4 8/8/8 6/6/6
f 4/4/4 7/7/7 8/8/8
f 6/6/6 8/8/8 9/9/9
f 7/7/7 10/10/10 8/8/8
f 8/8/8 11/11/11 9/9/9
f 8/8/8 10/10/10 11/11/11
f 10/10/10 12/12/12 11/11/11
f 15/15/15 14/14/14 13/13/13
f 14/14/14 16/16/16 13/13/13
f 13/13/13 16/16/16 17/17/17
f 18/18/18 13/13/13 17/17/17
f 18/18/18 17/17/17 19/19/19
f 20/20/20 18/18/18 19/19/19
f 20/20/20 19/19/19 21/21/21
f 19/19/19 22/22/22 21/21/21
f 21/21/21 22/22/22 23/23/23
f 22/22/22 24/24/24 23/23/23
f 23/23/23 24/24/24 25/25/25
f 24/24/24 26/26/26 25/25/25
f 25/25/25 26/26/26 27/27/27
f 26/26/26 28/28/28 27/27/27
f 27/27/27 28/28/28 29/29/29
f 28/28/28 30/30/30 29/29/29
f 29/29/29 30/30/30 31/31/31
f 30/30/30 32/32/32 31/31/31
f 31/31/31 32/32/32 33/33/33
f 34/34/34 31/31/31 33/33/33
f 34/34/34 33/33/33 35/35/35
f 36/36/36 34/34/34 35/35/35
f 36/36/36 35/35/35 37/37/37
f 35/35/35 38/38/38 37/37/37
f 37/37/37 38/38/38 39/39/39
f 38/38/38 40/40/40 39/39/39
f 43/43/43 42/42/42 41/41/41
f 42/42/42 44/44/44 41/41/41
f 41/41/41 44/44/44 45/45/45
f 46/46/46 41/41/41 45/45/45
f 46/46/46 45/45/45 47/47/47
f 48/48/48 46/46/46 47/47/47
f 48/48/48 47/47/47 49/49/49
f 47/47/47 50/50/50 49/49/49
f 49/49/49 50/50/50 51/51/51
f 50/50/50 52/52/52 51/51/51
f 51/51/51 52/52/52 53/53/53
f 52/52/52 54/54/54 53/53/53
f 53/53/53 54/54/54 55/55/55
f 54/54/54 56/56/56 55/55/55
f 55/55/55 56/56/56 57/57/57
f 56/56/56 58/58/58 57/57/57
f 57/57/57 58/58/58 59/59/59
f 58/58/58 60/60/60 59/59/59
f 59/59/59 60/60/60 61/61/61
f 62/62/62 59/59/59 61/61/61
f 62/62/62 61/61/61 63/63/63
f 64/64/64 62/62/62 63/63/63
f 64/64/64 63/63/63 65/65/65
f 63/63/63 66/66/66 65/65/65
f 65/65/65 66/66/66 67/67/67
f 66/66/66 68/68/68 67/67/67
f 71/71/71 70/70/70 69/69/69
f 72/72/72 71/71/71 69/69/69
f 71/71/71 73/73/73 70/70/70
f 73/73/73 74/74/74 70/70/70
f 75/75/75 71/71/71 72/72/72
f 76/76/76 75/75/75 72/72/72
f 77/77/77 75/75/75 76/76/76
f 77/77/77 78/78/78 75/75/75
f 78/78/78 79/79/79 75/75/75
f 75/75/75 80/80/80 71/71/71
f 79/79/79 80/80/80 75/75/75
f 80/80/80 73/73/73 71/71/71
f 79/79/79 81/81/81 80/80/80
f 81/81/81 82/82/82 80/80/80
f 80/80/80 82/82/82 73/73/73
f 81/81/81 83/83/83 82/82/82
f 73/73/73 84/84/84 74/74/74
f 82/82/82 84/84/84 73/73/73
f 84/84/84 85/85/85 74/74/74
f 83/83/83 86/86/86 82/82/82
f 82/82/82 86/86/86 84/84/84
f 83/83/83 87/87/87 86/86/86
f 84/84/84 88/88/88 85/85/85
f 86/86/86 88/88/88 84/84/84
f 88/88/88 89/89/89 85/85/85
f 88/88/88 90/90/90 89/89/89
f 87/87/87 91/91/91 86/86/86
f 86/86/86 91/91/91 88/88/88
f 87/87/87 92/92/92 91/91/91
f 88/88/88 93/93/93 90/90/90
f 91/91/91 93/93/93 88/88/88
f 91/91/91 92/92/92 93/93/93
f 93/93/93 94/94/94 90/90/90
f 92/92/92 94/94/94 93/93/93
f 97/97/97 96/96/96 95/95/95
f 97/97/97 95/95/95 98/98/98
f 96/96/96 99/99/99 95/95/95
f 96/96/96 100/100/100 99/99/99
f 95/95/95 101/101/101 98/98/98
f 98/98/98 101/101/101 102/102/102
f 95/95/95 99/99/99 103/103/103
f 95/95/95 103/103/103 101/101/101
f 99/99/99 104/104/104 103/103/103
f 103/103/103 105/105/105 101/101/101
f 101/101/101 106/106/106 102/102/102
f 101/101/101 105/105/105 106/106/106
f 102/102/102 106/106/106 107/107/107
f 105/105/105 108/108/108 106/106/106
f 99/99/99 109/109/109 104/104/104
f 100/100/100 109/109/109 99/99/99
f 109/109/109 110/110/110 104/104/104
f 111/111/111 110/110/110 109/109/109
f 106/106/106 112/112/112 107/107/107
f 106/106/106 108/108/108 112/112/112
f 107/107/107 112/112/112 113/113/113
f 108/108/108 114/114/114 112/112/112
f 115/115/115 109/109/109 100/100/100
f 115/115/115 111/111/111 109/109/109
f 116/116/116 115/115/115 100/100/100
f 117/117/117 111/111/111 115/115/115
f 112/112/112 118/118/118 113/113/113
f 112/112/112 114/114/114 118/118/118
f 113/113/113 118/118/118 119/119/119
f 114/114/114 120/120/120 118/118/118
f 121/121/121 115/115/115 116/116/116
f 121/121/121 117/117/117 115/115/115
f 122/122/122 121/121/121 116/116/116
f 123/123/123 117/117/117 121/121/121
f 118/118/118 124/124/124 119/119/119
f 118/118/118 120/120/120 124/124/124
f 120/120/120 125/125/125 124/124/124
f 119/119/119 124/124/124 126/126/126
f 127/127/127 121/121/121 122/122/122
f 127/127/127 123/123/123 121/121/121
f 128/128/128 127/127/127 122/122/122
f 129/129/129 123/123/123 127/127/127
f 124/124/124 125/125/125 130/130/130
f 124/124/124 130/130/130 126/126/126
f 125/125/125 131/131/131 130/130/130
f 130/130/130 131/131/131 132/132/132
f 133/133/133 127/127/127 128/128/128
f 133/133/133 129/129/129 127/127/127
f 134/134/134 133/133/133 128/128/128
f 135/135/135 129/129/129 133/133/133
f 126/126/126 130/130/130 136/136/136
f 136/136/136 130/130/130 132/132/132
f 137/137/137 126/126/126 136/136/136
f 136/136/136 132/132/132 138/138/138
f 139/139/139 133/133/133 134/134/134
f 139/139/139 135/135/135 133/133/133
f 138/138/138 135/135/135 139/139/139
f 140/140/140 139/139/139 134/134/134
f 137/137/137 136/136/136 141/141/141
f 141/141/141 136/136/136 138/138/138
f 141/141/141 138/138/138 139/139/139
f 141/141/141 139/139/139 140/140/140
f 142/142/142 137/137/137 141/141/141
f 142/142/142 141/141/141 140/140/140
