g Base
v -0.0046653748 0.4604833 -0.188694
v -0.0046653748 0.17355084 -0.18869495
v 0.12778664 0.17355108 -0.13383007
v 0.12778664 0.46048307 -0.13383102
v 0.18265295 0.17355108 -0.0013771057
v 0.18265343 0.46048307 -0.0013790131
v 0.127787 0.17355108 0.13107681
v 0.12778676 0.46048307 0.13107872
v -0.0046658516 0.17355084 0.1859417
v -0.0046658516 0.4604833 0.18593979
v -0.1371203 0.1735506 0.13107777
v -0.13711834 0.46048355 0.13107681
v -0.19198418 0.1735506 -0.0013780594
v -0.19198418 0.46048355 -0.0013771057
v -0.13712025 0.1735506 -0.13383007
v -0.13711834 0.46048355 -0.13382912
v -0.0046653748 0.17355084 -0.18869495
v -0.0046653748 0.4604833 -0.188694
v 0.5592413 0.00071525574 -0.0006413236
v 0.4654174 0.17607307 -0.00064086914
v 0.23005867 0.17607403 -0.40829277
v 0.2769699 0.0007162094 -0.48954827
v 0.2769699 0.0007162094 -0.48954827
v 0.23005867 0.17607403 -0.40829277
v -0.2406578 0.17607403 -0.40829277
v -0.28756714 0.0007171631 -0.48954797
v -0.28756714 0.0007171631 -0.48954797
v -0.2406578 0.17607403 -0.40829277
v -0.4760146 0.17607307 -0.00064086914
v -0.5698366 0.0007171631 -0.00064131245
v -0.5698366 0.0007171631 -0.00064131245
v -0.4760146 0.17607307 -0.00064086914
v -0.2406578 0.17607403 0.40701008
v -0.28756905 0.0007171631 0.48826152
v -0.28756905 0.0007171631 0.48826152
v -0.2406578 0.17607403 0.40701008
v 0.23005962 0.17607403 0.40701103
v 0.27697182 0.0007162094 0.48826122
v 0.27697182 0.0007162094 0.48826122
v 0.23005962 0.17607403 0.40701103
v 0.4654174 0.17607307 -0.00064086914
v 0.5592413 0.00071525574 -0.0006413236
v -0.4760146 0.17607307 -0.00064086914
v 0.4654174 0.17607307 -0.00064086914
v 0.23005962 0.17607403 0.40701103
v -0.2406578 0.17607403 0.40701008
v 0.23005867 0.17607403 -0.40829277
v 0.4654174 0.17607307 -0.00064086914
v -0.4760146 0.17607307 -0.00064086914
v -0.2406578 0.17607403 -0.40829277
vt 0.0569 0.0117
vt 0.0078 0.0117
vt 0.0078 0.0383
vt 0.0569 0.0383
vt 0.0078 0.0649
vt 0.0569 0.0649
vt 0.0078 0.0915
vt 0.0569 0.0915
vt 0.0078 0.1181
vt 0.0569 0.1181
vt 0.0078 0.1447
vt 0.0569 0.1447
vt 0.0078 0.1713
vt 0.0569 0.1713
vt 0.0078 0.1979
vt 0.0569 0.1979
vt 0.0078 0.2245
vt 0.0569 0.2245
vt 0.65 0.974
vt 0.6082 0.9863
vt 0.5566 0.8969
vt 0.5881 0.8668
vt 0.5668 0.8545
vt 0.5566 0.8969
vt 0.4533 0.8969
vt 0.4431 0.8545
vt 0.4218 0.8668
vt 0.4533 0.8969
vt 0.4017 0.9863
vt 0.3599 0.974
vt 0.3591 0.9735
vt 0.4009 0.9858
vt 0.4526 0.8964
vt 0.421 0.8663
vt 0.4423 0.854
vt 0.4526 0.8964
vt 0.5558 0.8964
vt 0.5661 0.854
vt 0.5873 0.8663
vt 0.5558 0.8964
vt 0.6074 0.9858
vt 0.6492 0.9735
vt 0.4009 0.9858
vt 0.6074 0.9858
vt 0.5558 0.8964
vt 0.4526 0.8964
vt 0.5566 0.8969
vt 0.6082 0.9863
vt 0.4017 0.9863
vt 0.4533 0.8969
vn -0 0 -1
vn -0 0 -1
vn 0.70710284 0 -0.70711064
vn 0.70710206 0 -0.7071114
vn 1 0 0
vn 1 0 0
vn 0.707107 0 0.7071065
vn 0.70710516 0 0.7071084
vn -0 0 1
vn -0 0 1
vn -0.7071075 0 0.707106
vn -0.7071066 0 0.7071069
vn -1 0 0
vn -1 0 0
vn -0.7071038 0 -0.7071097
vn -0.70710295 0 -0.7071105
vn -0 0 -1
vn -0 0 -1
vn 0.78576964 0.42042154 -0.4536648
vn 0.78576964 0.42042154 -0.4536648
vn 0.78576964 0.42042154 -0.45366487
vn 0.78576964 0.42042154 -0.4536648
vn -0 0.42042777 -0.907326
vn -0 0.42042774 -0.907326
vn -0 0.42042777 -0.9073261
vn -0 0.42042774 -0.907326
vn -0.78577274 0.42041695 -0.45366386
vn -0.78577274 0.42041695 -0.45366386
vn -0.7857727 0.42041698 -0.45366392
vn -0.78577274 0.42041695 -0.45366386
vn -0.785773 0.4204155 0.45366478
vn -0.785773 0.4204155 0.45366472
vn -0.78577286 0.4204155 0.45366475
vn -0.785773 0.4204155 0.45366472
vn -0 0.42040846 0.90733504
vn -0 0.42040843 0.90733504
vn -0 0.42040843 0.90733504
vn -0 0.42040846 0.90733504
vn 0.7857718 0.4204165 0.45366588
vn 0.7857718 0.4204165 0.45366588
vn 0.7857718 0.4204165 0.45366588
vn 0.7857718 0.4204165 0.45366582
vn -0 1 0
vn -0 1 0
vn -0 1 0
vn -0 1 0
vn -0 1 0
vn -0 1 0
vn -0 1 0
vn -0 1 0
g Base_0
f 3/3/3 2/2/2 1/1/1
f 4/4/4 3/3/3 1/1/1
f 5/5/5 3/3/3 4/4/4
f 6/6/6 5/5/5 4/4/4
f 7/7/7 5/5/5 6/6/6
f 8/8/8 7/7/7 6/6/6
f 9/9/9 7/7/7 8/8/8
f 10/10/10 9/9/9 8/8/8
f 11/11/11 9/9/9 10/10/10
f 12/12/12 11/11/11 10/10/10
f 13/13/13 11/11/11 12/12/12
f 14/14/14 13/13/13 12/12/12
f 15/15/15 13/13/13 14/14/14
f 16/16/16 15/15/15 14/14/14
f 17/17/17 15/15/15 16/16/16
f 18/18/18 17/17/17 16/16/16
f 21/21/21 20/20/20 19/19/19
f 22/22/22 21/21/21 19/19/19
f 25/25/25 24/24/24 23/23/23
f 26/26/26 25/25/25 23/23/23
f 29/29/29 28/28/28 27/27/27
f 30/30/30 29/29/29 27/27/27
f 33/33/33 32/32/32 31/31/31
f 34/34/34 33/33/33 31/31/31
f 37/37/37 36/36/36 35/35/35
f 38/38/38 37/37/37 35/35/35
f 41/41/41 40/40/40 39/39/39
f 42/42/42 41/41/41 39/39/39
f 45/45/45 44/44/44 43/43/43
f 46/46/46 45/45/45 43/43/43
f 49/49/49 48/48/48 47/47/47
f 50/50/50 49/49/49 47/47/47
