g branchSmall03
v 1.4597028 4.8590937 0.22889607
v 1.6028341 5.765146 0.32133502
v 0.8255659 5.3741183 0.3105685
v 0.102207184 6.2487144 -0.4708367
v 1.489485 5.370933 0.6374024
v 0.18411452 4.4084783 0.66971856
v 1.2936559 4.123771 0.2550394
v 1.0735002 3.6806488 -0.52523476
v 0.9131637 3.5423508 0.76487523
v 1.3077916 3.0549545 -0.0819453
v 0.97370267 1.2247967 -0.5672061
v 0.5325665 4.5359507 -0.6941752
v 1.1169983 1.2181917 -0.121336564
v -0.5192692 6.0147095 0.26535603
v -0.21216202 6.439539 0.093427084
v -1.0534047 7.467111 0.3110702
v -0.7243148 7.926331 -0.06884251
v -0.8233137 5.700405 0.006901289
v -0.4782064 6.085398 -0.9972483
v -0.61505127 7.232025 -0.87959975
v -1.5366027 7.2630687 -1.0777513
v -1.1941438 7.979358 -0.5208677
v -1.2103561 9.864891 0.5259018
v -1.4144026 9.236896 0.6173085
v -0.72283703 9.704543 1.1050559
v -1.0091329 10.330856 0.6677089
v -1.8979079 11.958066 0.70194787
v -1.5790029 11.185261 1.3841506
v -1.265655 9.467551 1.0870684
v -1.529453 7.5260973 -0.14776957
v -1.9672766 10.814943 1.1646566
v -2.055444 7.0312905 -0.34818548
v -1.7183279 12.116665 1.093572
v -2.590147 7.333141 -0.89869
v -2.8661807 7.018221 -0.9856235
v -1.6358457 6.7093134 -0.82926285
v -0.65502256 5.1713276 -0.35001412
v -0.18676591 3.9675853 0.01859835
v -0.12369024 4.5278053 -0.5386541
v -0.01829338 2.2170837 -0.6721555
v -0.21724533 2.3512402 0.323022
v 0.10162568 2.149754 0.69108474
v 0.49308497 1.446656 -0.9141092
v 0.6276684 1.6786618 0.7046688
v 0.8224526 -0.025589002 -1.186194
v -0.008332774 -0.0460788 -1.4535121
v 1.5903848 -0.25957868 -0.26120684
v 0.96355885 0.9063836 0.58259714
v 1.4590445 -0.17190716 0.70567083
v 0.287862 -0.38102764 1.2329568
v 0.88405645 -0.93050313 0.19805017
v 1.2815367 -0.64554375 -0.5575937
v 0.16566367 -0.9858775 -1.0305786
v -0.87517196 -0.37415192 0.9456288
v -0.64773047 -0.29404148 -1.265852
v -0.30436698 -0.59306824 1.033877
v -0.7714312 -0.851097 -0.3555542
v -1.2996043 -0.15468897 0.3058732
v -1.208527 0.116708554 -0.49798155
v -0.57594967 1.7166595 -0.14824775
v -2.0744963 11.2380495 0.68806344
v -3.6253567 11.9807 1.3924536
v -2.452632 11.623796 1.4320474
v -2.5795083 12.528482 1.3058175
v -3.6567476 12.556913 1.7277712
v -1.5110879 12.881105 0.4289146
v -3.783474 12.534254 1.2426196
v -2.753511 12.554027 1.0208443
v -4.631229 13.016018 1.4313074
v -1.4365139 13.473641 0.6124744
v -1.6229553 13.266383 0.9251797
v -4.8969054 13.261743 2.0483985
v -0.8877883 13.458735 0.6912652
v -1.0285742 14.22299 0.68899643
v -1.3665246 14.741073 0.41965315
v -5.312091 13.121209 1.8366541
v -5.4195914 13.909864 1.5715594
v -5.7241807 14.387496 1.6578727
vt 0 0
vt 0 0
vt 0 0
vt 0 0
vt 0 0
vt 0 0
vt 0 0
vt 0 0
vt 0 0
vt 0 0
vt 0 0
vt 0 0
vt 0 0
vt 0 0
vt 0 0
vt 0 0
vt 0 0
vt 0 0
vt 0 0
vt 0 0
vt 0 0
vt 0 0
vt 0 0
vt 0 0
vt 0 0
vt 0 0
vt 0 0
vt 0 0
vt 0 0
vt 0 0
vt 0 0
vt 0 0
vt 0 0
vt 0 0
vt 0 0
vt 0 0
vt 0 0
vt 0 0
vt 0 0
vt 0 0
vt 0 0
vt 0 0
vt 0 0
vt 0 0
vt 0 0
vt 0 0
vt 0 0
vt 0 0
vt 0 0
vt 0 0
vt 0 0
vt 0 0
vt 0 0
vt 0 0
vt 0 0
vt 0 0
vt 0 0
vt 0 0
vt 0 0
vt 0 0
vt 0 0
vt 0 0
vt 0 0
vt 0 0
vt 0 0
vt 0 0
vt 0 0
vt 0 0
vt 0 0
vt 0 0
vt 0 0
vt 0 0
vt 0 0
vt 0 0
vt 0 0
vt 0 0
vt 0 0
vt 0 0
vn 0.73197573 0.21118785 -0.647774
vn 0.21664615 0.64042675 -0.73682976
vn 0.19107197 0.66181886 0.7249051
vn 0.7855463 0.41687307 -0.45731148
vn 0.22954075 0.24185157 0.9427719
vn -0.35698366 0.05169221 0.9326793
vn 0.96368563 -0.19130252 0.18631524
vn 0.60662895 0.090654396 -0.78979933
vn 0.34923372 -0.045685913 0.93592125
vn 0.9966691 -0.06718124 0.046232898
vn 0.7669153 0.13193494 -0.6280398
vn 0.18684465 0.06780893 -0.9800465
vn 0.9827031 0.114253074 0.14574264
vn -0.17240964 0.07946201 0.98181504
vn 0.6315382 0.3896954 0.6702962
vn -0.13091512 -0.20381673 0.97021645
vn 0.97004145 0.23804499 -0.048520952
vn -0.7289611 -0.31552833 0.6075012
vn 0.09639473 -0.15336 -0.98345757
vn 0.5827151 0.40659234 -0.7036517
vn -0.16671358 0.379425 -0.91007864
vn 0.25366074 0.598713 -0.7597362
vn -0.4907137 0.05140663 -0.8698031
vn -0.98704904 0.13566515 -0.08561099
vn 0.90368396 0.041352585 0.42619863
vn 0.82281065 0.3658882 -0.43486604
vn 0.020701244 0.06890112 -0.9974087
vn 0.53859854 0.1166922 0.8344427
vn -0.36992282 -0.35493493 0.8585909
vn -0.93174714 0.18636711 0.31163204
vn -0.7251771 -0.6249336 0.2890954
vn -0.61279917 -0.36375213 0.7015424
vn 0.76948965 0.19716805 0.60746235
vn -0.41462326 0.89219165 -0.17911322
vn -0.6253173 -0.6694911 -0.40094867
vn -0.49093345 -0.66242075 -0.5658473
vn -0.8030822 -0.44886783 -0.39188868
vn -0.9794031 -0.07678374 0.18674506
vn -0.5295897 -0.20158549 -0.8239528
vn -0.6248209 0.18806353 -0.75778025
vn -0.9247374 0.19818394 0.3249368
vn -0.34413368 0.15125242 0.92665786
vn 0.32502747 0.19025572 -0.92636913
vn 0.51651007 0.05971551 0.85419625
vn 0.55858934 0.01039953 -0.8293792
vn -0.06515384 0.094576515 -0.9933832
vn 0.98169947 -0.018595405 -0.18952672
vn 0.8762016 0.40088475 0.2675111
vn 0.7158282 -0.067169204 0.6950383
vn 0.08290579 -0.062379975 0.9946031
vn 0.23350082 -0.94250053 0.2391028
vn 0.6129845 -0.6635818 -0.42884633
vn 0.031990442 -0.9049219 -0.42437366
vn -0.5599403 -0.009031808 0.8284838
vn -0.61771894 -0.030502088 -0.7858072
vn -0.15218769 -0.90141433 0.40532824
vn -0.43882868 -0.897434 -0.04518544
vn -0.9372608 0.053088773 0.34456316
vn -0.8845922 0.1880172 -0.42678598
vn -0.8859704 0.44226342 -0.13949755
vn -0.46665397 -0.2576867 -0.8460684
vn -0.57964617 -0.7888018 -0.20445545
vn 0.026298553 -0.13762812 0.9901348
vn 0.18875153 0.43693495 0.8794661
vn 0.16351108 0.16784732 0.9721582
vn 0.13453726 -0.1750909 -0.97531676
vn -0.21334597 0.311107 -0.9261188
vn -0.3755514 0.55306834 -0.7436911
vn -0.031283796 0.32150054 -0.9463925
vn -0.91082567 0.3784666 -0.16480155
vn 0.091752715 0.31645668 0.9441592
vn 0.22849107 0.09982345 0.9684147
vn 0.9240406 -0.116477095 -0.3641181
vn 0.11750851 0.3525473 0.9283868
vn 0.3138277 0.18592641 -0.931098
vn -0.75328666 -0.6053639 0.25708687
vn 0.27118105 0.34522834 -0.89848673
vn -0.4200928 0.34269488 0.840287
g branchSmall03_0
f 3/3/3 2/2/2 1/1/1
f 1/1/1 4/4/4 3/3/3
f 1/1/1 2/2/2 5/5/5
f 5/5/5 2/2/2 3/3/3
f 5/5/5 3/3/3 6/6/6
f 1/1/1 5/5/5 7/7/7
f 1/1/1 8/8/8 4/4/4
f 1/1/1 7/7/7 8/8/8
f 5/5/5 9/9/9 7/7/7
f 9/9/9 5/5/5 6/6/6
f 10/10/10 8/8/8 7/7/7
f 7/7/7 9/9/9 10/10/10
f 11/11/11 8/8/8 10/10/10
f 4/4/4 8/8/8 12/12/12
f 11/11/11 12/12/12 8/8/8
f 10/10/10 9/9/9 13/13/13
f 10/10/10 13/13/13 11/11/11
f 14/14/14 6/6/6 3/3/3
f 3/3/3 4/4/4 15/15/15
f 15/15/15 14/14/14 3/3/3
f 16/16/16 14/14/14 15/15/15
f 4/4/4 17/17/17 15/15/15
f 16/16/16 15/15/15 17/17/17
f 18/18/18 6/6/6 14/14/14
f 16/16/16 18/18/18 14/14/14
f 4/4/4 12/12/12 19/19/19
f 20/20/20 17/17/17 4/4/4
f 20/20/20 4/4/4 19/19/19
f 21/21/21 20/20/20 19/19/19
f 22/22/22 17/17/17 20/20/20
f 20/20/20 21/21/21 22/22/22
f 23/23/23 17/17/17 22/22/22
f 22/22/22 21/21/21 24/24/24
f 23/23/23 22/22/22 24/24/24
f 25/25/25 16/16/16 17/17/17
f 17/17/17 23/23/23 26/26/26
f 26/26/26 25/25/25 17/17/17
f 27/27/27 26/26/26 23/23/23
f 26/26/26 28/28/28 25/25/25
f 25/25/25 29/29/29 16/16/16
f 29/29/29 25/25/25 28/28/28
f 23/23/23 24/24/24 29/29/29
f 30/30/30 24/24/24 21/21/21
f 29/29/29 24/24/24 30/30/30
f 30/30/30 16/16/16 29/29/29
f 29/29/29 31/31/31 23/23/23
f 31/31/31 29/29/29 28/28/28
f 16/16/16 30/30/30 32/32/32
f 32/32/32 18/18/18 16/16/16
f 33/33/33 26/26/26 27/27/27
f 28/28/28 26/26/26 33/33/33
f 34/34/34 30/30/30 21/21/21
f 34/34/34 32/32/32 30/30/30
f 21/21/21 35/35/35 34/34/34
f 32/32/32 34/34/34 35/35/35
f 36/36/36 35/35/35 21/21/21
f 36/36/36 32/32/32 35/35/35
f 36/36/36 18/18/18 32/32/32
f 19/19/19 36/36/36 21/21/21
f 18/18/18 36/36/36 37/37/37
f 19/19/19 37/37/37 36/36/36
f 18/18/18 37/37/37 38/38/38
f 38/38/38 6/6/6 18/18/18
f 39/39/39 37/37/37 19/19/19
f 38/38/38 37/37/37 39/39/39
f 38/38/38 39/39/39 40/40/40
f 38/38/38 40/40/40 41/41/41
f 41/41/41 6/6/6 38/38/38
f 12/12/12 39/39/39 19/19/19
f 39/39/39 12/12/12 40/40/40
f 41/41/41 42/42/42 6/6/6
f 6/6/6 42/42/42 9/9/9
f 12/12/12 43/43/43 40/40/40
f 12/12/12 11/11/11 43/43/43
f 44/44/44 9/9/9 42/42/42
f 13/13/13 9/9/9 44/44/44
f 43/43/43 11/11/11 45/45/45
f 40/40/40 43/43/43 46/46/46
f 46/46/46 43/43/43 45/45/45
f 47/47/47 11/11/11 13/13/13
f 45/45/45 11/11/11 47/47/47
f 13/13/13 44/44/44 48/48/48
f 13/13/13 48/48/48 49/49/49
f 49/49/49 48/48/48 44/44/44
f 13/13/13 49/49/49 47/47/47
f 42/42/42 50/50/50 44/44/44
f 49/49/49 44/44/44 50/50/50
f 51/51/51 47/47/47 49/49/49
f 51/51/51 49/49/49 50/50/50
f 52/52/52 45/45/45 47/47/47
f 47/47/47 51/51/51 52/52/52
f 52/52/52 53/53/53 45/45/45
f 45/45/45 53/53/53 46/46/46
f 52/52/52 51/51/51 53/53/53
f 54/54/54 50/50/50 42/42/42
f 54/54/54 42/42/42 41/41/41
f 53/53/53 55/55/55 46/46/46
f 55/55/55 40/40/40 46/46/46
f 51/51/51 50/50/50 56/56/56
f 50/50/50 54/54/54 56/56/56
f 57/57/57 53/53/53 51/51/51
f 56/56/56 57/57/57 51/51/51
f 53/53/53 57/57/57 55/55/55
f 56/56/56 54/54/54 57/57/57
f 58/58/58 54/54/54 41/41/41
f 58/58/58 57/57/57 54/54/54
f 57/57/57 59/59/59 55/55/55
f 59/59/59 40/40/40 55/55/55
f 57/57/57 58/58/58 59/59/59
f 60/60/60 58/58/58 41/41/41
f 41/41/41 40/40/40 60/60/60
f 40/40/40 59/59/59 60/60/60
f 58/58/58 60/60/60 59/59/59
f 23/23/23 31/31/31 61/61/61
f 62/62/62 61/61/61 31/31/31
f 62/62/62 31/31/31 63/63/63
f 23/23/23 61/61/61 27/27/27
f 62/62/62 27/27/27 61/61/61
f 28/28/28 63/63/63 31/31/31
f 28/28/28 64/64/64 63/63/63
f 33/33/33 64/64/64 28/28/28
f 62/62/62 63/63/63 65/65/65
f 65/65/65 63/63/63 64/64/64
f 33/33/33 27/27/27 66/66/66
f 27/27/27 62/62/62 67/67/67
f 66/66/66 27/27/27 68/68/68
f 67/67/67 68/68/68 27/27/27
f 65/65/65 68/68/68 67/67/67
f 68/68/68 65/65/65 64/64/64
f 67/67/67 69/69/69 65/65/65
f 69/69/69 67/67/67 62/62/62
f 64/64/64 70/70/70 68/68/68
f 66/66/66 68/68/68 70/70/70
f 64/64/64 33/33/33 71/71/71
f 70/70/70 64/64/64 71/71/71
f 62/62/62 65/65/65 72/72/72
f 65/65/65 69/69/69 72/72/72
f 66/66/66 73/73/73 33/33/33
f 71/71/71 33/33/33 73/73/73
f 70/70/70 71/71/71 74/74/74
f 71/71/71 73/73/73 74/74/74
f 66/66/66 75/75/75 73/73/73
f 70/70/70 75/75/75 66/66/66
f 70/70/70 74/74/74 75/75/75
f 75/75/75 74/74/74 73/73/73
f 69/69/69 62/62/62 76/76/76
f 76/76/76 62/62/62 72/72/72
f 69/69/69 77/77/77 72/72/72
f 76/76/76 77/77/77 69/69/69
f 77/77/77 78/78/78 72/72/72
f 78/78/78 77/77/77 76/76/76
f 72/72/72 78/78/78 76/76/76
