g canvaskit_wall_corner_x2_COL
v -0.48199022 0 3.433466
v -0.48199022 3.5 3.433466
v -0.14823677 3.5 3.433466
v -0.14823677 0 3.433466
v -0.48199022 3.5 3.433466
v -0.48199022 3.5 3.119823
v -0.14823677 3.5 3.119823
v -0.14823677 3.5 3.433466
v -0.48199022 3.5 3.119823
v -0.48199022 0 3.119823
v -0.14823677 0 3.119823
v -0.14823677 3.5 3.119823
v -0.48199022 0 3.119823
v -0.48199022 0 3.433466
v -0.14823677 0 3.433466
v -0.14823677 0 3.119823
v -0.14823677 0 3.433466
v -0.14823677 3.5 3.433466
v -0.14823677 3.5 3.119823
v -0.14823677 0 3.119823
v -0.48199022 0 3.119823
v -0.48199022 3.5 3.119823
v -0.48199022 3.5 3.433466
v -0.48199022 0 3.433466
v -3.4476933 0 0.41618174
v -3.4476933 3.5 0.41618174
v -3.1198182 3.5 0.41618174
v -3.1198182 0 0.41618174
v -3.4476933 3.5 0.41618174
v -3.4476933 3.5 0.102538794
v -3.1198182 3.5 0.102538794
v -3.1198182 3.5 0.41618174
v -3.4476933 3.5 0.102538794
v -3.4476933 0 0.102538794
v -3.1198182 0 0.102538794
v -3.1198182 3.5 0.102538794
v -3.4476933 0 0.102538794
v -3.4476933 0 0.41618174
v -3.1198182 0 0.41618174
v -3.1198182 0 0.102538794
v -3.1198182 0 0.41618174
v -3.1198182 3.5 0.41618174
v -3.1198182 3.5 0.102538794
v -3.1198182 0 0.102538794
v -3.4476933 0 0.102538794
v -3.4476933 3.5 0.102538794
v -3.4476933 3.5 0.41618174
v -3.4476933 0 0.41618174
v -2.4766934 1.4572436 2.4694104
v -1.5591705 1.4304742 3.147847
v -1.5591705 1.0497653 3.147847
v -2.4766934 1.0765346 2.4694104
v -2.3695784 1.4572436 2.366389
v -1.4851576 1.4304742 3.0189705
v -1.5591705 1.4304742 3.147847
v -2.4766934 1.4572436 2.4694104
v -2.3695784 1.0765346 2.366389
v -1.4851576 1.0497653 3.0189705
v -1.4851576 1.4304742 3.0189705
v -2.3695784 1.4572436 2.366389
v -2.4766934 1.0765346 2.4694104
v -1.5591705 1.0497653 3.147847
v -1.4851576 1.0497653 3.0189705
v -2.3695784 1.0765346 2.366389
v -1.5591705 1.4304742 3.147847
v -0.1471286 1.4618183 3.5034838
v -0.1471286 1.0811096 3.5034838
v -1.5591705 1.0497653 3.147847
v -1.4851576 1.4304742 3.0189705
v -0.123761445 1.4618183 3.356715
v -0.1471286 1.4618183 3.5034838
v -1.5591705 1.4304742 3.147847
v -1.4851576 1.0497653 3.0189705
v -0.123761445 1.0811096 3.356715
v -0.123761445 1.4618183 3.356715
v -1.4851576 1.4304742 3.0189705
v -1.5591705 1.0497653 3.147847
v -0.1471286 1.0811096 3.5034838
v -0.123761445 1.0811096 3.356715
v -1.4851576 1.0497653 3.0189705
v -2.3010833 3.2652695 2.281356
v -1.2918597 3.2652695 3.0015955
v -1.2918597 2.9004786 3.0015955
v -2.3010833 2.9004786 2.281356
v -2.1915193 3.2652695 2.1759803
v -1.2354504 3.2652695 2.860435
v -1.2918597 3.2652695 3.0015955
v -2.3010833 3.2652695 2.281356
v -2.1915193 2.9004786 2.1759803
v -1.2354504 2.9004786 2.860435
v -1.2354504 3.2652695 2.860435
v -2.1915193 3.2652695 2.1759803
v -2.3010833 2.9004786 2.281356
v -1.2918597 2.9004786 3.0015955
v -1.2354504 2.9004786 2.860435
v -2.1915193 2.9004786 2.1759803
v -1.2918597 3.2652695 3.0015955
v -0.26432863 3.2652695 3.2477045
v -0.26432863 2.9004786 3.2477045
v -1.2918597 2.9004786 3.0015955
v -1.2354504 3.2652695 2.860435
v -0.25530198 3.2652695 3.0959587
v -0.26432863 3.2652695 3.2477045
v -1.2918597 3.2652695 3.0015955
v -1.2354504 2.9004786 2.860435
v -0.25530198 2.9004786 3.0959587
v -0.25530198 3.2652695 3.0959587
v -1.2354504 3.2652695 2.860435
v -1.2918597 2.9004786 3.0015955
v -0.26432863 2.9004786 3.2477045
v -0.25530198 2.9004786 3.0959587
v -1.2354504 2.9004786 2.860435
v -2.3010833 2.9004786 2.281356
v -2.9059174 2.9004786 1.4692124
v -2.9059174 3.2652695 1.4692124
v -2.3010833 3.2652695 2.281356
v -2.3010833 3.2652695 2.281356
v -2.9059174 3.2652695 1.4692124
v -2.769544 3.2652695 1.4020516
v -2.1915193 3.2652695 2.1759803
v -2.1915193 3.2652695 2.1759803
v -2.769544 3.2652695 1.4020516
v -2.769544 2.9004786 1.4020516
v -2.1915193 2.9004786 2.1759803
v -2.1915193 2.9004786 2.1759803
v -2.769544 2.9004786 1.4020516
v -2.9059174 2.9004786 1.4692124
v -2.3010833 2.9004786 2.281356
v -2.4766934 1.0765346 2.4694104
v -3.150688 1.1360353 1.5668557
v -3.150688 1.516744 1.5668557
v -2.4766934 1.4572436 2.4694104
v -2.4766934 1.4572436 2.4694104
v -3.150688 1.516744 1.5668557
v -3.0173626 1.516744 1.501195
v -2.3695784 1.4572436 2.366389
v -2.3695784 1.4572436 2.366389
v -3.0173626 1.516744 1.501195
v -3.0173626 1.1360353 1.501195
v -2.3695784 1.0765346 2.366389
v -2.3695784 1.0765346 2.366389
v -3.0173626 1.1360353 1.501195
v -3.150688 1.1360353 1.5668557
v -2.4766934 1.0765346 2.4694104
v -2.9059174 2.9004786 1.4692124
v -3.279932 2.9004786 0.23069687
v -3.279932 3.2652695 0.23069687
v -2.9059174 3.2652695 1.4692124
v -2.9059174 3.2652695 1.4692124
v -3.279932 3.2652695 0.23069687
v -3.1287146 3.2652695 0.21516034
v -2.769544 3.2652695 1.4020516
v -2.769544 3.2652695 1.4020516
v -3.1287146 3.2652695 0.21516034
v -3.1287146 2.9004786 0.21516034
v -2.769544 2.9004786 1.4020516
v -2.769544 2.9004786 1.4020516
v -3.1287146 2.9004786 0.21516034
v -3.279932 2.9004786 0.23069687
v -2.9059174 2.9004786 1.4692124
v -3.150688 1.1360353 1.5668557
v -3.5647438 1.1360353 0.2092168
v -3.5647438 1.516744 0.2092168
v -3.150688 1.516744 1.5668557
v -3.150688 1.516744 1.5668557
v -3.5647438 1.516744 0.2092168
v -3.416905 1.516744 0.19402526
v -3.0173626 1.516744 1.501195
v -3.0173626 1.516744 1.501195
v -3.416905 1.516744 0.19402526
v -3.416905 1.1360353 0.19402526
v -3.0173626 1.1360353 1.501195
v -3.0173626 1.1360353 1.501195
v -3.416905 1.1360353 0.19402526
v -3.5647438 1.1360353 0.2092168
v -3.150688 1.1360353 1.5668557
vt 0.375 0
vt 0.375 0.25
vt 0.625 0.25
vt 0.625 0
vt 0.375 0.25
vt 0.375 0.5
vt 0.625 0.5
vt 0.625 0.25
vt 0.375 0.5
vt 0.375 0.75
vt 0.625 0.75
vt 0.625 0.5
vt 0.375 0.75
vt 0.375 1
vt 0.625 1
vt 0.625 0.75
vt 0.625 0
vt 0.625 0.25
vt 0.875 0.25
vt 0.875 0
vt 0.125 0
vt 0.125 0.25
vt 0.375 0.25
vt 0.375 0
vt 0.375 0
vt 0.375 0.25
vt 0.625 0.25
vt 0.625 0
vt 0.375 0.25
vt 0.375 0.5
vt 0.625 0.5
vt 0.625 0.25
vt 0.375 0.5
vt 0.375 0.75
vt 0.625 0.75
vt 0.625 0.5
vt 0.375 0.75
vt 0.375 1
vt 0.625 1
vt 0.625 0.75
vt 0.625 0
vt 0.625 0.25
vt 0.875 0.25
vt 0.875 0
vt 0.125 0
vt 0.125 0.25
vt 0.375 0.25
vt 0.375 0
vt 0 0
vt 0 1
vt 1 1
vt 1 0
vt 0 0
vt 0 1
vt 1 1
vt 1 0
vt 0 0
vt 0 1
vt 1 1
vt 1 0
vt 0 0
vt 0 1
vt 1 1
vt 1 0
vt 0 0
vt 0 1
vt 1 1
vt 1 0
vt 0 0
vt 0 1
vt 1 1
vt 1 0
vt 0 0
vt 0 1
vt 1 1
vt 1 0
vt 0 0
vt 0 1
vt 1 1
vt 1 0
vt 0 0
vt 0 1
vt 1 1
vt 1 0
vt 0 0
vt 0 1
vt 1 1
vt 1 0
vt 0 0
vt 0 1
vt 1 1
vt 1 0
vt 0 0
vt 0 1
vt 1 1
vt 1 0
vt 0 0
vt 0 1
vt 1 1
vt 1 0
vt 0 0
vt 0 1
vt 1 1
vt 1 0
vt 0 0
vt 0 1
vt 1 1
vt 1 0
vt 0 0
vt 0 1
vt 1 1
vt 1 0
vt 0 0
vt 0 1
vt 1 1
vt 1 0
vt 0 0
vt 0 1
vt 1 1
vt 1 0
vt 0 0
vt 0 1
vt 1 1
vt 1 0
vt 0 0
vt 0 1
vt 1 1
vt 1 0
vt 0 0
vt 0 1
vt 1 1
vt 1 0
vt 0 0
vt 0 1
vt 1 1
vt 1 0
vt 0 0
vt 0 1
vt 1 1
vt 1 0
vt 0 0
vt 0 1
vt 1 1
vt 1 0
vt 0 0
vt 0 1
vt 1 1
vt 1 0
vt 0 0
vt 0 1
vt 1 1
vt 1 0
vt 0 0
vt 0 1
vt 1 1
vt 1 0
vt 0 0
vt 0 1
vt 1 1
vt 1 0
vt 0 0
vt 0 1
vt 1 1
vt 1 0
vt 0 0
vt 0 1
vt 1 1
vt 1 0
vt 0 0
vt 0 1
vt 1 1
vt 1 0
vt 0 0
vt 0 1
vt 1 1
vt 1 0
vn -0 0 1
vn -0 0 1
vn -0 0 1
vn -0 0 1
vn -0 1 0
vn -0 1 0
vn -0 1 0
vn -0 1 0
vn -0 0 -1
vn -0 0 -1
vn -0 0 -1
vn -0 0 -1
vn -0 -1 0
vn -0 -1 0
vn -0 -1 0
vn -0 -1 0
vn 1 0 0
vn 1 0 0
vn 1 0 0
vn 1 0 0
vn -1 0 0
vn -1 0 0
vn -1 0 0
vn -1 0 0
vn -0 0 1
vn -0 0 1
vn -0 0 1
vn -0 0 1
vn -0 1 0
vn -0 1 0
vn -0 1 0
vn -0 1 0
vn -0 0 -1
vn -0 0 -1
vn -0 0 -1
vn -0 0 -1
vn -0 -1 0
vn -0 -1 0
vn -0 -1 0
vn -0 -1 0
vn 1 0 0
vn 1 0 0
vn 1 0 0
vn 1 0 0
vn -1 0 0
vn -1 0 0
vn -1 0 0
vn -1 0 0
vn -0.5945426 0 0.8040641
vn -0.5945426 0 0.8040641
vn -0.5945427 0 0.80406404
vn -0.5945426 0 0.8040641
vn 0.018835852 0.9997143 0.014711717
vn 0.018835852 0.9997143 0.014711715
vn 0.018835854 0.9997143 0.014711717
vn 0.018835852 0.9997143 0.014711716
vn 0.5937314 0 -0.80466336
vn 0.5937314 0 -0.80466324
vn 0.5937314 0 -0.80466336
vn 0.5937314 0 -0.80466324
vn -0.01883581 -0.9997143 -0.014711716
vn -0.018835811 -0.9997143 -0.014711717
vn -0.018835811 -0.9997143 -0.014711715
vn -0.018835811 -0.9997143 -0.014711717
vn -0.24423267 0 0.9697167
vn -0.24423267 0 0.9697167
vn -0.24423267 0 0.9697167
vn -0.24423267 0 0.9697167
vn -0.020763772 0.99975747 -0.007335504
vn -0.020763772 0.99975747 -0.0073355045
vn -0.020763772 0.99975747 -0.007335505
vn -0.020763768 0.99975747 -0.007335504
vn 0.24078758 0 -0.97057784
vn 0.24078757 0 -0.97057784
vn 0.24078758 0 -0.97057784
vn 0.24078757 0 -0.97057784
vn 0.020763772 -0.99975747 0.0073355045
vn 0.020763772 -0.99975747 0.007335505
vn 0.020763768 -0.99975747 0.007335504
vn 0.02076377 -0.99975747 0.0073355045
vn -0.5808995 0 0.8139754
vn -0.5808995 0 0.8139754
vn -0.5808995 0 0.8139754
vn -0.5808995 0 0.8139754
vn -0 1 1.6669389E-06
vn -0 1 1.6669388E-06
vn -0 1 1.666939E-06
vn -0 1 1.6669388E-06
vn 0.5821096 0 -0.81311035
vn 0.5821096 0 -0.81311035
vn 0.5821096 0 -0.81311035
vn 0.5821096 0 -0.81311035
vn -0 -1 1.6669388E-06
vn -0 -1 1.666939E-06
vn -0 -1 1.6669388E-06
vn -0 -1 1.6669389E-06
vn -0.23292677 0 0.97249424
vn -0.23292677 0 0.97249424
vn -0.23292677 0 0.97249424
vn -0.23292677 0 0.97249424
vn -0 1 0
vn -0 1 0
vn -0 1 0
vn -0 1 0
vn 0.23364303 0 -0.97232246
vn 0.23364303 0 -0.97232246
vn 0.23364303 0 -0.97232246
vn 0.23364303 0 -0.97232246
vn -0 -1 0
vn -0 -1 0
vn -0 -1 0
vn -0 -1 0
vn -0.8020213 0 0.5972955
vn -0.8020213 0 0.5972955
vn -0.8020213 0 0.5972955
vn -0.8020213 0 0.5972955
vn -0 1 0
vn -0 1 0
vn -0 1 0
vn -0 1 0
vn 0.8012018 0 -0.59839416
vn 0.8012018 0 -0.59839416
vn 0.8012018 0 -0.59839416
vn 0.8012018 0 -0.59839416
vn -0 -1 1.0066965E-06
vn -0 -1 1.0066966E-06
vn -0 -1 1.0066966E-06
vn -0 -1 1.0066966E-06
vn -0.80124325 0 0.5983388
vn -0.80124325 0 0.5983388
vn -0.80124325 0 0.5983387
vn -0.80124325 0 0.5983388
vn 0.030932613 0.99854845 0.04409131
vn 0.030932615 0.99854845 0.044091314
vn 0.030932613 0.99854845 0.044091318
vn 0.030932613 0.99854845 0.044091318
vn 0.8004933 0 -0.5993417
vn 0.8004933 0 -0.5993417
vn 0.80049324 0 -0.59934175
vn 0.8004933 0 -0.5993417
vn -0.030932559 -0.99854845 -0.044091154
vn -0.030932557 -0.99854845 -0.04409115
vn -0.030932559 -0.99854845 -0.044091158
vn -0.030932557 -0.99854845 -0.044091154
vn -0.9573014 0 0.28909162
vn -0.9573014 0 0.28909162
vn -0.9573014 0 0.28909162
vn -0.9573014 0 0.28909162
vn -0 1 0
vn -0 1 0
vn -0 1 0
vn -0 1 0
vn 0.9571347 0 -0.2896432
vn 0.9571347 0 -0.2896432
vn 0.9571347 0 -0.2896432
vn 0.9571347 0 -0.2896432
vn -0 -1 3.9447352E-07
vn -0 -1 3.944736E-07
vn -0 -1 3.9447355E-07
vn -0 -1 3.9447357E-07
vn -0.95650464 0 0.29171714
vn -0.95650464 0 0.29171714
vn -0.95650464 0 0.29171714
vn -0.95650464 0 0.29171714
vn -0 1 0
vn -0 1 0
vn -0 1 0
vn -0 1 0
vn 0.95632505 0 -0.29230517
vn 0.95632505 0 -0.29230517
vn 0.95632505 0 -0.29230517
vn 0.95632505 0 -0.29230517
vn -0 -1 0
vn -0 -1 0
vn -0 -1 0
vn -0 -1 0
g canvaskit_wall_corner_x2_COL_0
f 3/3/3 2/2/2 1/1/1
f 4/4/4 3/3/3 1/1/1
f 7/7/7 6/6/6 5/5/5
f 8/8/8 7/7/7 5/5/5
f 11/11/11 10/10/10 9/9/9
f 12/12/12 11/11/11 9/9/9
f 15/15/15 14/14/14 13/13/13
f 16/16/16 15/15/15 13/13/13
f 19/19/19 18/18/18 17/17/17
f 20/20/20 19/19/19 17/17/17
f 23/23/23 22/22/22 21/21/21
f 24/24/24 23/23/23 21/21/21
f 27/27/27 26/26/26 25/25/25
f 28/28/28 27/27/27 25/25/25
f 31/31/31 30/30/30 29/29/29
f 32/32/32 31/31/31 29/29/29
f 35/35/35 34/34/34 33/33/33
f 36/36/36 35/35/35 33/33/33
f 39/39/39 38/38/38 37/37/37
f 40/40/40 39/39/39 37/37/37
f 43/43/43 42/42/42 41/41/41
f 44/44/44 43/43/43 41/41/41
f 47/47/47 46/46/46 45/45/45
f 48/48/48 47/47/47 45/45/45
f 51/51/51 50/50/50 49/49/49
f 52/52/52 51/51/51 49/49/49
f 55/55/55 54/54/54 53/53/53
f 56/56/56 55/55/55 53/53/53
f 59/59/59 58/58/58 57/57/57
f 60/60/60 59/59/59 57/57/57
f 63/63/63 62/62/62 61/61/61
f 64/64/64 63/63/63 61/61/61
f 67/67/67 66/66/66 65/65/65
f 68/68/68 67/67/67 65/65/65
f 71/71/71 70/70/70 69/69/69
f 72/72/72 71/71/71 69/69/69
f 75/75/75 74/74/74 73/73/73
f 76/76/76 75/75/75 73/73/73
f 79/79/79 78/78/78 77/77/77
f 80/80/80 79/79/79 77/77/77
f 83/83/83 82/82/82 81/81/81
f 84/84/84 83/83/83 81/81/81
f 87/87/87 86/86/86 85/85/85
f 88/88/88 87/87/87 85/85/85
f 91/91/91 90/90/90 89/89/89
f 92/92/92 91/91/91 89/89/89
f 95/95/95 94/94/94 93/93/93
f 96/96/96 95/95/95 93/93/93
f 99/99/99 98/98/98 97/97/97
f 100/100/100 99/99/99 97/97/97
f 103/103/103 102/102/102 101/101/101
f 104/104/104 103/103/103 101/101/101
f 107/107/107 106/106/106 105/105/105
f 108/108/108 107/107/107 105/105/105
f 111/111/111 110/110/110 109/109/109
f 112/112/112 111/111/111 109/109/109
f 115/115/115 114/114/114 113/113/113
f 116/116/116 115/115/115 113/113/113
f 119/119/119 118/118/118 117/117/117
f 120/120/120 119/119/119 117/117/117
f 123/123/123 122/122/122 121/121/121
f 124/124/124 123/123/123 121/121/121
f 127/127/127 126/126/126 125/125/125
f 128/128/128 127/127/127 125/125/125
f 131/131/131 130/130/130 129/129/129
f 132/132/132 131/131/131 129/129/129
f 135/135/135 134/134/134 133/133/133
f 136/136/136 135/135/135 133/133/133
f 139/139/139 138/138/138 137/137/137
f 140/140/140 139/139/139 137/137/137
f 143/143/143 142/142/142 141/141/141
f 144/144/144 143/143/143 141/141/141
f 147/147/147 146/146/146 145/145/145
f 148/148/148 147/147/147 145/145/145
f 151/151/151 150/150/150 149/149/149
f 152/152/152 151/151/151 149/149/149
f 155/155/155 154/154/154 153/153/153
f 156/156/156 155/155/155 153/153/153
f 159/159/159 158/158/158 157/157/157
f 160/160/160 159/159/159 157/157/157
f 163/163/163 162/162/162 161/161/161
f 164/164/164 163/163/163 161/161/161
f 167/167/167 166/166/166 165/165/165
f 168/168/168 167/167/167 165/165/165
f 171/171/171 170/170/170 169/169/169
f 172/172/172 171/171/171 169/169/169
f 175/175/175 174/174/174 173/173/173
f 176/176/176 175/175/175 173/173/173
