g canvaskit_canvas_corner_x2_COL
v -0.82991505 0.21553978 3.4763408
v -0.013810962 0.29994813 3.4856586
v -0.009589771 0.525361 2.1605995
v -0.7314562 0.33163083 2.456364
v -2.0837243 0.13444473 3.0323572
v -1.2150304 0.48224843 1.206266
v -0.015575489 1.6864792 0.015575769
v -2.0787725 0.2071743 2.049809
v -3.0350902 0.13444473 1.9989588
v -3.4763393 0.21553925 0.74515015
v -2.1605988 0.5253613 0.009591123
v -3.4856577 0.29994813 0.013810744
v -2.4564838 0.33163083 0.68915534
v -3.0350902 0.13444473 1.9989588
v -2.0787725 0.2071743 2.049809
v -1.2150304 0.48224843 1.206266
v -0.015575489 1.6864792 0.015575769
v -0.82991505 0.24449532 3.4763408
v -0.009589771 0.5543166 2.1605995
v -0.013810962 0.32890365 3.4856586
v -0.7314562 0.36058635 2.456364
v -2.0837243 0.16340026 3.0323572
v -1.2150304 0.51120394 1.206266
v -0.015575489 1.7154348 0.015575769
v -2.0787725 0.23612984 2.049809
v -3.0350902 0.16340026 1.9989588
v -3.4763393 0.24449478 0.74515015
v -3.4856577 0.32890365 0.013810744
v -2.1605988 0.5543168 0.009591123
v -2.4564838 0.36058635 0.68915534
v -3.0350902 0.16340026 1.9989588
v -2.0787725 0.23612984 2.049809
v -1.2150304 0.51120394 1.206266
v -0.015575489 1.7154348 0.015575769
vt 0.7437895 0.09521992
vt 0.9065069 0.093336195
vt 0.9072787 0.40439624
vt 0.7467443 0.32425874
vt 0.4695215 0.17400742
vt 0.7222901 0.50457305
vt 0.9077423 0.9009674
vt 0.51798105 0.3277067
vt 0.46952143 0.17400742
vt 0.7437895 0.09521992
vt 0.9072788 0.40439624
vt 0.9065069 0.0933362
vt 0.7467444 0.32425871
vt 0.46952143 0.17400742
vt 0.51798105 0.3277067
vt 0.7222901 0.50457305
vt 0.9077423 0.9009674
vt 0.7437895 0.09521992
vt 0.9072787 0.40439624
vt 0.9065069 0.093336195
vt 0.7467443 0.32425874
vt 0.4695215 0.17400742
vt 0.7222901 0.50457305
vt 0.9077423 0.9009674
vt 0.51798105 0.3277067
vt 0.46952143 0.17400742
vt 0.7437895 0.09521992
vt 0.9065069 0.0933362
vt 0.9072788 0.40439624
vt 0.7467444 0.32425871
vt 0.46952143 0.17400742
vt 0.51798105 0.3277067
vt 0.7222901 0.50457305
vt 0.9077423 0.9009674
vn 0.12630378 -0.98603016 -0.10859099
vn 0.15173794 -0.9790294 -0.13593009
vn 0.27490512 -0.9127522 -0.30217636
vn 0.13690032 -0.9822422 -0.12829068
vn 0.10362165 -0.99088645 -0.08606182
vn 0.3338002 -0.88198847 -0.3326767
vn 0.41018638 -0.81441075 -0.41046593
vn 0.11448712 -0.9872543 -0.11055185
vn 0.09243741 -0.9903702 -0.103064254
vn 0.113162115 -0.984768 -0.13200867
vn 0.30942222 -0.9076708 -0.2835341
vn 0.13801481 -0.97667295 -0.16450517
vn 0.13293229 -0.9810574 -0.14090875
vn 0.09243741 -0.9903702 -0.103064254
vn 0.11448712 -0.9872543 -0.11055185
vn 0.3338002 -0.88198847 -0.3326767
vn 0.41018638 -0.81441075 -0.41046593
vn -0.12630388 0.98603004 0.108591236
vn -0.27490562 0.9127518 0.30217707
vn -0.15173836 0.9790292 0.13593069
vn -0.13690042 0.9822422 0.1282908
vn -0.10362163 0.99088645 0.08606185
vn -0.33380026 0.88198835 0.33267695
vn -0.4101866 0.8144104 0.41046634
vn -0.11448713 0.9872543 0.11055188
vn -0.09243759 0.9903702 0.1030644
vn -0.11316221 0.984768 0.13200852
vn -0.13801481 0.97667295 0.16450457
vn -0.30942208 0.907671 0.28353372
vn -0.13293225 0.9810575 0.14090863
vn -0.09243759 0.9903702 0.1030644
vn -0.11448713 0.9872543 0.11055188
vn -0.33380026 0.88198835 0.33267695
vn -0.4101866 0.8144104 0.41046634
g canvaskit_canvas_corner_x2_COL_0
f 3/3/3 2/2/2 1/1/1
f 4/4/4 3/3/3 1/1/1
f 1/1/1 5/5/5 4/4/4
f 4/4/4 6/6/6 3/3/3
f 7/7/7 3/3/3 6/6/6
f 4/4/4 8/8/8 6/6/6
f 5/5/5 8/8/8 4/4/4
f 5/5/5 9/9/9 8/8/8
f 12/12/12 11/11/11 10/10/10
f 11/11/11 13/13/13 10/10/10
f 14/14/14 10/10/10 13/13/13
f 15/15/15 14/14/14 13/13/13
f 15/15/15 13/13/13 16/16/16
f 16/16/16 13/13/13 11/11/11
f 11/11/11 17/17/17 16/16/16
f 20/20/20 19/19/19 18/18/18
f 19/19/19 21/21/21 18/18/18
f 22/22/22 18/18/18 21/21/21
f 23/23/23 21/21/21 19/19/19
f 19/19/19 24/24/24 23/23/23
f 25/25/25 21/21/21 23/23/23
f 25/25/25 22/22/22 21/21/21
f 26/26/26 22/22/22 25/25/25
f 29/29/29 28/28/28 27/27/27
f 30/30/30 29/29/29 27/27/27
f 27/27/27 31/31/31 30/30/30
f 31/31/31 32/32/32 30/30/30
f 30/30/30 32/32/32 33/33/33
f 30/30/30 33/33/33 29/29/29
f 34/34/34 29/29/29 33/33/33
