g Cliff_D
v -0.8390509 1.0046973 0.83356124
v -1.0542022 -1.2290523E-06 0.9041539
v -1.0193671 -1.2290523E-06 0.65192425
v -0.024663696 2.2976334 -0.20355545
v 0.94569516 2.4485767 0.7188725
v 0.2308783 2.3427398 0.7784416
v -0.024663696 2.2976334 -0.20355545
v 0.7743695 2.337024 -0.48497146
v 0.94569516 2.4485767 0.7188725
v -0.39344054 1.7437512 0.8622197
v -0.5063238 1.6756259 0.8605778
v -0.46738952 1.8928965 0.8485075
v -1.1274383 -1.2290523E-06 0.26652694
v -1.1274371 -1.2290523E-06 -0.27115187
v -0.9217547 1.5869151 -0.22854263
v -0.75591975 2.1424117 -0.10069473
v -0.8273297 2.1130137 -0.5886122
v -1.0193671 -1.2290523E-06 0.65192425
v -0.8390509 1.0046973 0.83356124
v -0.69150203 2.1917012 0.27331954
v -0.6624884 2.2292175 -0.12326126
v -0.5963983 2.276889 0.2513646
v -0.6308099 2.2094762 0.7519493
v -0.5963983 2.276889 0.2513646
v -0.5354046 2.300061 0.7353642
v -0.52938414 2.214318 0.83085126
v -0.7422992 0.9917506 0.9185881
v -0.7422992 0.9917506 0.9185881
v -1.0542022 -1.2290523E-06 0.9041539
v -0.96465635 -1.2290523E-06 0.99850017
v 0.96708435 0.3411904 -1.0714259
v 0.22909118 -1.2290523E-06 -0.9305958
v 0.97873473 -1.2290523E-06 -1.083813
v 0.40776792 0.96254 -0.90544814
v -0.37067688 1.1462135 -0.78264844
v -0.2065924 -1.2290523E-06 -0.8736946
v -1.0112823 -1.2290523E-06 -0.8440449
v -0.9711114 0.29045781 -0.8305128
v -1.1029816 -1.2290523E-06 -0.7526039
v -1.0748858 0.31085756 -0.7548097
v 0.7671991 1.8839059 -0.8656953
v 0.30895934 1.9837712 -0.7966487
v -0.7427545 2.1082752 -0.6789186
v 1.073825 0.32250887 -0.99735975
v 0.97873473 -1.2290523E-06 -1.083813
v 1.0817425 -1.2290523E-06 -1.0054164
v 0.86913025 1.9012871 -0.7866371
v 1.0469989 2.3695693 0.7195811
v 0.87195003 2.253318 -0.5039992
v 0.94569516 2.4485767 0.7188725
v 0.7743695 2.337024 -0.48497146
v 0.77321225 2.2153413 -0.7633119
v 0.6579022 2.1951046 -0.8206129
v 0.5348334 2.1920676 -0.8034279
v -0.13186584 2.1333356 -0.7438014
v 0.5421039 2.2852075 -0.71355546
v -0.12944397 2.228335 -0.65588576
v -0.72830135 2.202054 -0.5964784
v -0.8273297 2.1130137 -0.5886122
v -1.0748858 0.31085756 -0.7548097
v -0.9217547 1.5869151 -0.22854263
v -1.1274371 -1.2290523E-06 -0.27115187
v -1.1029816 -1.2290523E-06 -0.7526039
v -1.0112823 -1.2290523E-06 -0.8440449
v -0.5354046 2.300061 0.7353642
v -0.43014342 2.2214022 0.8256627
v -0.52938414 2.214318 0.83085126
v -0.435495 2.307409 0.7287456
v -0.5963983 2.276889 0.2513646
v -0.024663696 2.2976334 -0.20355545
v 0.2308783 2.3427398 0.7784416
v -0.6624884 2.2292175 -0.12326126
v -0.72830135 2.202054 -0.5964784
v -0.75591975 2.1424117 -0.10069473
v -0.8273297 2.1130137 -0.5886122
v -0.12944397 2.228335 -0.65588576
v 0.5421039 2.2852075 -0.71355546
v 0.7743695 2.337024 -0.48497146
v 0.77321225 2.2153413 -0.7633119
v 0.87195003 2.253318 -0.5039992
v 0.6636419 2.2897813 -0.73516923
v 0.6579022 2.1951046 -0.8206129
v 0.5348334 2.1920676 -0.8034279
v 0.5421039 2.2852075 -0.71355546
v -0.024663696 2.2976334 -0.20355545
v 0.951242 2.3599489 0.81424236
v 0.2308783 2.3427398 0.7784416
v 0.94569516 2.4485767 0.7188725
v 0.2399237 2.2555525 0.874362
v 0.9119427 1.6381397 0.8686467
v 0.2885443 1.7235701 0.9182878
v -0.46738952 1.8928965 0.8485075
v -0.39344054 1.7437512 0.8622197
v -0.5063238 1.6756259 0.8605778
v -0.43014342 2.2214022 0.8256627
v -0.435495 2.307409 0.7287456
v 0.2308783 2.3427398 0.7784416
v -0.52938414 2.214318 0.83085126
v -0.7422992 0.9917506 0.9185881
v -0.81206113 -1.2290523E-06 0.98959273
v -0.96465635 -1.2290523E-06 0.99850017
v -0.7427545 2.1082752 -0.6789186
v -0.13186584 2.1333356 -0.7438014
v -0.12944397 2.228335 -0.65588576
v -0.72830135 2.202054 -0.5964784
v 1.0005755 1.5478384 0.7854979
v 0.9051239 1.6247401 1.0588036
v 0.9119427 1.6381397 0.8686467
v 0.99009216 1.5270026 1.0589702
v 1.0029778 -1.2290523E-06 1.0067595
v 1.1089447 -1.2290523E-06 -0.58403885
v 1.0075775 -1.2290523E-06 1.1874058
v 0.9165057 -1.2290523E-06 1.2796245
v 0.99009216 1.5270026 1.0589702
v 1.0075775 -1.2290523E-06 1.1874058
v 0.9035858 1.5338075 1.1511625
v 0.9051239 1.6247401 1.0588036
v 0.2998529 1.7131857 1.1049309
v 0.21591003 -1.2290523E-06 1.2676872
v 0.29076597 1.622061 1.1964324
v -0.6002179 -1.2290523E-06 1.2621074
v -0.32904112 1.6468043 1.1427983
v -0.710777 -1.2290523E-06 1.1936467
v -0.4316046 1.6541799 1.0613847
v -0.3302716 1.7363534 1.0499724
v 0.2998529 1.7131857 1.1049309
v -0.4316046 1.6541799 1.0613847
v -0.5063238 1.6756259 0.8605778
v -0.39344054 1.7437512 0.8622197
v -0.3302716 1.7363534 1.0499724
v 0.2885443 1.7235701 0.9182878
v 0.2998529 1.7131857 1.1049309
v 0.9119427 1.6381397 0.8686467
v 0.9051239 1.6247401 1.0588036
v 1.1089447 -1.2290523E-06 -0.58403885
v 1.0005755 1.5478384 0.7854979
v 1.073825 0.32250887 -0.99735975
v 1.0817425 -1.2290523E-06 -1.0054164
v 0.97873473 -1.2290523E-06 -1.083813
v 0.96708435 0.3411904 -1.0714259
v 1.0005755 1.5478384 0.7854979
v 1.0469989 2.3695693 0.7195811
v 1.073825 0.32250887 -0.99735975
v 0.9119427 1.6381397 0.8686467
v 0.951242 2.3599489 0.81424236
v 0.94569516 2.4485767 0.7188725
v -0.4316046 1.6541799 1.0613847
v -0.710777 -1.2290523E-06 1.1936467
v -0.81206113 -1.2290523E-06 0.98959273
v -0.5063238 1.6756259 0.8605778
vt 0.15625072 0.34860584
vt 0.08515197 0.018310132
vt 0.09868458 0.018310122
vt 0.5087849 0.9841562
vt 0.8394012 0.98415613
vt 0.5958515 0.9841562
vt 0.5087849 0.9841562
vt 0.78102803 0.9841562
vt 0.8394012 0.98415613
vt 0.36411187 0.9841562
vt 0.33062595 0.9841562
vt 0.34168896 0.9841562
vt 0.05870912 0.018310122
vt 0.058235887 0.018310122
vt 0.13660389 0.58042616
vt 0.20087531 0.777225
vt 0.17328528 0.7667803
vt 0.09868458 0.018310122
vt 0.15625072 0.34860584
vt 0.22516967 0.79284847
vt 0.20771365 0.8057324
vt 0.23161848 0.8230433
vt 0.2486688 0.7989857
vt 0.23193218 0.8231468
vt 0.2553855 0.83088535
vt 0.28510427 0.80266446
vt 0.18734106 0.35275435
vt 0.18734106 0.35275435
vt 0.08515197 0.018310132
vt 0.11000233 0.018310122
vt 0.870358 0.0736278
vt 0.58367175 0.1028972
vt 0.8748837 0.027972061
vt 0.65308225 0.35926035
vt 0.3506803 0.42432112
vt 0.41442144 0.10163528
vt 0.10182518 0.026576163
vt 0.117430516 0.09001642
vt 0.06866596 0.02723258
vt 0.07711744 0.09724195
vt 0.79270923 0.68562603
vt 0.6146978 0.7210002
vt 0.20613982 0.76510197
vt 0.9118232 0.06701058
vt 0.9120344 0.02288944
vt 0.9148986 0.018310122
vt 0.8323064 0.6917829
vt 0.9014027 0.85765797
vt 0.83340156 0.81647885
vt 0.89557815 0.88767684
vt 0.8296306 0.84813136
vt 0.79504526 0.8030267
vt 0.7502512 0.7958586
vt 0.7024429 0.7947829
vt 0.4434508 0.77397895
vt 0.69715047 0.82338333
vt 0.45246497 0.80424774
vt 0.21043742 0.79497993
vt 0.17328528 0.7667803
vt 0.07711744 0.09724195
vt 0.13660389 0.58042616
vt 0.058235887 0.018310122
vt 0.06620276 0.018310089
vt 0.0678697 0.022126412
vt 0.33476728 0.9841562
vt 0.36768976 0.9841562
vt 0.3342549 0.98415613
vt 0.3688081 0.9841562
vt 0.31398582 0.9841562
vt 0.5087849 0.9841562
vt 0.5958515 0.9841562
vt 0.2914678 0.9841562
vt 0.26904434 0.9841562
vt 0.26460105 0.9841562
vt 0.2430471 0.9841562
vt 0.47308454 0.98415625
vt 0.7018917 0.9841562
vt 0.78102803 0.9841562
vt 0.7663831 0.9841562
vt 0.8058579 0.98415613
vt 0.7433016 0.9841562
vt 0.74492717 0.9841562
vt 0.706426 0.9841562
vt 0.7018917 0.9841562
vt 0.5087849 0.9841562
vt 0.86420393 0.85424966
vt 0.588417 0.8489288
vt 0.86461663 0.8862199
vt 0.5878789 0.81727046
vt 0.8489372 0.5985709
vt 0.60676724 0.62883204
vt 0.29490793 0.6888107
vt 0.32014582 0.6359804
vt 0.2737889 0.61064947
vt 0.32364464 0.80517375
vt 0.32540232 0.83693594
vt 0.5789851 0.8481574
vt 0.28510427 0.80266446
vt 0.18734106 0.35275435
vt 0.15461944 0.018310122
vt 0.11000233 0.018310122
vt 0.2701932 0.9841562
vt 0.47066557 0.9841562
vt 0.47308454 0.98415625
vt 0.26904434 0.9841562
vt 0.88278264 0.56651586
vt 0.87871224 0.5891673
vt 0.8807196 0.59388155
vt 0.8789937 0.55920124
vt 0.88430226 0.018310122
vt 0.925467 0.018310122
vt 0.88608855 0.018310122
vt 0.85004723 0.018310122
vt 0.8789937 0.55920124
vt 0.88608855 0.018310122
vt 0.84510815 0.56155336
vt 0.847174 0.5914269
vt 0.6115727 0.6233144
vt 0.5729186 0.018310122
vt 0.60480297 0.59286994
vt 0.20143145 0.018310128
vt 0.31785116 0.60157686
vt 0.16349952 0.018310122
vt 0.28016037 0.6043864
vt 0.31430888 0.6327997
vt 0.6050681 0.6238416
vt 0.33457714 0.9841562
vt 0.33062595 0.9841562
vt 0.36411187 0.9841562
vt 0.36795178 0.9841562
vt 0.6155 0.9841562
vt 0.61794186 0.98415613
vt 0.8278645 0.9841562
vt 0.8255336 0.9841562
vt 0.925467 0.018310122
vt 0.88278264 0.56651586
vt 0.9118232 0.06701058
vt 0.9148986 0.018310122
vt 0.91219825 0.022654882
vt 0.910004 0.062623166
vt 0.88278264 0.56651586
vt 0.9014027 0.85765797
vt 0.9118232 0.06701058
vt 0.8489372 0.5985709
vt 0.86420393 0.85424966
vt 0.90179867 0.86268103
vt 0.28016037 0.6043864
vt 0.16349952 0.018310122
vt 0.15461944 0.018310122
vt 0.2737889 0.61064947
vn -0.949228 0.1735877 0.26236135
vn -0.9179757 0.22355671 0.32763264
vn -0.9626239 0.19889148 0.18384093
vn -0.08725714 0.99356586 -0.07220189
vn 0.09060702 0.99551165 0.027331494
vn -0.10577596 0.9836685 0.14562881
vn -0.08725714 0.99356586 -0.07220189
vn 0.114035636 0.9855399 -0.12532775
vn 0.09060702 0.99551165 0.027331494
vn -0.07455145 0.07012209 0.99474865
vn 0.056120552 0.058749974 0.99669397
vn -0.031124828 0.06757046 0.9972289
vn -0.96320987 0.18692122 0.19309877
vn -0.9919734 0.12552258 -0.015263593
vn -0.9702463 0.18696046 0.15384343
vn -0.943043 0.2879555 0.16658816
vn -0.9012481 0.2633944 -0.34405702
vn -0.9626239 0.19889148 0.18384093
vn -0.949228 0.1735877 0.26236135
vn -0.9478139 0.2961465 0.118093826
vn -0.29136312 0.95583516 -0.038559873
vn -0.2515192 0.967257 -0.033942048
vn -0.89881617 0.2641944 0.34975842
vn -0.2515192 0.967257 -0.033942048
vn -0.47911316 0.86591744 0.14365788
vn -0.49349028 0.20550874 0.84512335
vn -0.40053946 0.14564909 0.90462947
vn -0.40053946 0.14564909 0.90462947
vn -0.9179757 0.22355671 0.32763264
vn -0.4742927 0.1707102 0.8636576
vn 0.0019684453 0.09164044 -0.9957902
vn -0.16490172 0.05539712 -0.9847531
vn -0.08710776 0.05571358 -0.9946398
vn -0.15681383 0.07751387 -0.98458165
vn -0.08960584 0.07441224 -0.9931937
vn -0.09424992 0.06143696 -0.9936511
vn -0.12057195 0.0744772 -0.98990685
vn -0.17392027 0.08937712 -0.9806954
vn -0.9833143 0.12283878 -0.1341775
vn -0.9618748 0.13612162 -0.23720829
vn 0.16795406 0.14884971 -0.9744923
vn -0.11521576 0.07810661 -0.990265
vn -0.25380793 0.15333433 -0.95502365
vn 0.9959461 0.041654766 -0.07972554
vn -0.08710776 0.05571358 -0.9946398
vn 0.9997969 0.009023534 -0.018018492
vn 0.95401466 0.15932833 -0.2539105
vn 0.9889297 0.14824507 -0.0064399703
vn 0.90129405 0.38854772 -0.1915714
vn 0.09060702 0.99551165 0.027331494
vn 0.114035636 0.9855399 -0.12532775
vn 0.6757017 0.460567 -0.5755913
vn 0.19641952 0.3355531 -0.9213162
vn -0.1286653 0.4300534 -0.8935879
vn -0.107859656 0.15693468 -0.9817015
vn -0.10835257 0.9345863 -0.3388338
vn -0.094127335 0.92514324 -0.36776346
vn -0.25649697 0.9308474 -0.26025456
vn -0.9012481 0.2633944 -0.34405702
vn -0.9618748 0.13612162 -0.23720829
vn -0.9702463 0.18696046 0.15384343
vn -0.9919734 0.12552258 -0.015263593
vn -0.9833143 0.12283878 -0.1341775
vn -0.12057195 0.0744772 -0.98990685
vn -0.47911316 0.86591744 0.14365788
vn -0.07493846 0.39061782 0.9174977
vn -0.49349028 0.20550874 0.84512335
vn -0.06389903 0.99061006 0.12086557
vn -0.2515192 0.967257 -0.033942048
vn -0.08725714 0.99356586 -0.07220189
vn -0.10577596 0.9836685 0.14562881
vn -0.29136312 0.95583516 -0.038559873
vn -0.25649697 0.9308474 -0.26025456
vn -0.943043 0.2879555 0.16658816
vn -0.9012481 0.2633944 -0.34405702
vn -0.094127335 0.92514324 -0.36776346
vn -0.10835257 0.9345863 -0.3388338
vn 0.114035636 0.9855399 -0.12532775
vn 0.6757017 0.460567 -0.5755913
vn 0.90129405 0.38854772 -0.1915714
vn 0.23223686 0.86959726 -0.43573704
vn 0.19641952 0.3355531 -0.9213162
vn -0.1286653 0.4300534 -0.8935879
vn -0.10835257 0.9345863 -0.3388338
vn -0.08725714 0.99356586 -0.07220189
vn 0.23276109 0.23921205 0.9426558
vn -0.10577596 0.9836685 0.14562881
vn 0.09060702 0.99551165 0.027331494
vn -0.018221665 0.27460834 0.96138346
vn 0.34455985 0.05635556 0.9370713
vn -0.00042584262 0.079686664 0.99681985
vn -0.031124828 0.06757046 0.9972289
vn -0.07455145 0.07012209 0.99474865
vn 0.056120552 0.058749974 0.99669397
vn -0.07493846 0.39061782 0.9174977
vn -0.06389903 0.99061006 0.12086557
vn -0.10577596 0.9836685 0.14562881
vn -0.49349028 0.20550874 0.84512335
vn -0.40053946 0.14564909 0.90462947
vn 0.057363994 0.06727822 0.99608386
vn -0.4742927 0.1707102 0.8636576
vn -0.25380793 0.15333433 -0.95502365
vn -0.107859656 0.15693468 -0.9817015
vn -0.094127335 0.92514324 -0.36776346
vn -0.25649697 0.9308474 -0.26025456
vn 0.9985139 0.012151357 0.053125624
vn 0.2544896 0.9147079 0.3139178
vn 0.3237224 0.94369066 0.068203785
vn 0.964348 0.06647479 0.2561522
vn 0.9985378 0.010278011 0.05307211
vn 0.9991425 0.007774612 0.04066504
vn 0.95610076 0.031915292 0.29129487
vn 0.14211084 0.065451704 0.9876845
vn 0.964348 0.06647479 0.2561522
vn 0.95610076 0.031915292 0.29129487
vn 0.1412185 0.104642905 0.98443234
vn 0.2544896 0.9147079 0.3139178
vn 0.08208924 0.93484646 0.3454323
vn -0.008447147 0.062493823 0.9980096
vn -0.0038716516 0.108492665 0.9940897
vn -0.13780059 0.08115254 0.98712975
vn -0.11633551 0.116440386 0.9863608
vn -0.8058573 0.18323013 0.5630458
vn -0.800884 0.2170315 0.55810577
vn -0.056273695 0.9564586 0.28639153
vn 0.08208924 0.93484646 0.3454323
vn -0.800884 0.2170315 0.55810577
vn -0.88894576 0.22852007 0.39693058
vn -0.124252304 0.9871723 0.10026138
vn -0.056273695 0.9564586 0.28639153
vn 0.08394549 0.995182 0.0506549
vn 0.08208924 0.93484646 0.3454323
vn 0.3237224 0.94369066 0.068203785
vn 0.2544896 0.9147079 0.3139178
vn 0.9991425 0.007774612 0.04066504
vn 0.9985139 0.012151357 0.053125624
vn 0.9959461 0.041654766 -0.07972554
vn 0.9997969 0.009023534 -0.018018492
vn -0.08710776 0.05571358 -0.9946398
vn 0.0019684453 0.09164044 -0.9957902
vn 0.9985139 0.012151357 0.053125624
vn 0.9889297 0.14824507 -0.0064399703
vn 0.9959461 0.041654766 -0.07972554
vn 0.34455985 0.05635556 0.9370713
vn 0.23276109 0.23921205 0.9426558
vn 0.09060702 0.99551165 0.027331494
vn -0.800884 0.2170315 0.55810577
vn -0.8058573 0.18323013 0.5630458
vn -0.89687586 0.18892291 0.39990222
vn -0.88894576 0.22852007 0.39693058
g Cliff_D_0
f 3/3/3 2/2/2 1/1/1
f 6/6/6 5/5/5 4/4/4
f 9/9/9 8/8/8 7/7/7
f 12/12/12 11/11/11 10/10/10
f 15/15/15 14/14/14 13/13/13
f 16/16/16 15/15/15 13/13/13
f 17/17/17 15/15/15 16/16/16
f 18/18/18 16/16/16 13/13/13
f 18/18/18 19/19/19 16/16/16
f 16/16/16 19/19/19 20/20/20
f 21/21/21 16/16/16 20/20/20
f 22/22/22 21/21/21 20/20/20
f 19/19/19 23/23/23 20/20/20
f 24/24/24 20/20/20 23/23/23
f 25/25/25 24/24/24 23/23/23
f 23/23/23 26/26/26 25/25/25
f 23/23/23 19/19/19 26/26/26
f 19/19/19 27/27/27 26/26/26
f 19/19/19 29/29/29 28/28/28
f 29/29/29 30/30/30 28/28/28
f 33/33/33 32/32/32 31/31/31
f 32/32/32 34/34/34 31/31/31
f 34/34/34 32/32/32 35/35/35
f 32/32/32 36/36/36 35/35/35
f 35/35/35 36/36/36 37/37/37
f 38/38/38 35/35/35 37/37/37
f 37/37/37 39/39/39 38/38/38
f 39/39/39 40/40/40 38/38/38
f 41/41/41 31/31/31 34/34/34
f 34/34/34 35/35/35 42/42/42
f 34/34/34 42/42/42 41/41/41
f 38/38/38 43/43/43 35/35/35
f 42/42/42 35/35/35 43/43/43
f 44/44/44 31/31/31 41/41/41
f 45/45/45 31/31/31 44/44/44
f 46/46/46 45/45/45 44/44/44
f 47/47/47 44/44/44 41/41/41
f 48/48/48 44/44/44 47/47/47
f 49/49/49 48/48/48 47/47/47
f 50/50/50 48/48/48 49/49/49
f 51/51/51 50/50/50 49/49/49
f 49/49/49 47/47/47 52/52/52
f 52/52/52 47/47/47 53/53/53
f 47/47/47 41/41/41 53/53/53
f 54/54/54 53/53/53 41/41/41
f 54/54/54 41/41/41 42/42/42
f 55/55/55 54/54/54 42/42/42
f 56/56/56 54/54/54 55/55/55
f 57/57/57 56/56/56 55/55/55
f 55/55/55 42/42/42 43/43/43
f 43/43/43 59/59/59 58/58/58
f 43/43/43 38/38/38 59/59/59
f 38/38/38 60/60/60 59/59/59
f 60/60/60 61/61/61 59/59/59
f 62/62/62 61/61/61 60/60/60
f 63/63/63 62/62/62 60/60/60
f 60/60/60 38/38/38 63/63/63
f 38/38/38 64/64/64 63/63/63
f 67/67/67 66/66/66 65/65/65
f 66/66/66 68/68/68 65/65/65
f 69/69/69 65/65/65 68/68/68
f 70/70/70 69/69/69 68/68/68
f 68/68/68 71/71/71 70/70/70
f 72/72/72 69/69/69 70/70/70
f 73/73/73 72/72/72 70/70/70
f 72/72/72 73/73/73 74/74/74
f 73/73/73 75/75/75 74/74/74
f 70/70/70 76/76/76 73/73/73
f 70/70/70 77/77/77 76/76/76
f 80/80/80 79/79/79 78/78/78
f 79/79/79 81/81/81 78/78/78
f 81/81/81 79/79/79 82/82/82
f 82/82/82 83/83/83 81/81/81
f 83/83/83 84/84/84 81/81/81
f 84/84/84 78/78/78 81/81/81
f 85/85/85 78/78/78 84/84/84
f 88/88/88 87/87/87 86/86/86
f 87/87/87 89/89/89 86/86/86
f 86/86/86 89/89/89 90/90/90
f 89/89/89 91/91/91 90/90/90
f 89/89/89 92/92/92 91/91/91
f 92/92/92 93/93/93 91/91/91
f 94/94/94 93/93/93 92/92/92
f 89/89/89 95/95/95 92/92/92
f 95/95/95 89/89/89 96/96/96
f 89/89/89 97/97/97 96/96/96
f 92/92/92 95/95/95 98/98/98
f 94/94/94 92/92/92 98/98/98
f 99/99/99 94/94/94 98/98/98
f 94/94/94 99/99/99 100/100/100
f 99/99/99 101/101/101 100/100/100
f 104/104/104 103/103/103 102/102/102
f 105/105/105 104/104/104 102/102/102
f 108/108/108 107/107/107 106/106/106
f 107/107/107 109/109/109 106/106/106
f 106/106/106 109/109/109 110/110/110
f 111/111/111 106/106/106 110/110/110
f 109/109/109 112/112/112 110/110/110
f 115/115/115 114/114/114 113/113/113
f 114/114/114 116/116/116 113/113/113
f 116/116/116 114/114/114 117/117/117
f 117/117/117 118/118/118 116/116/116
f 113/113/113 116/116/116 119/119/119
f 118/118/118 120/120/120 116/116/116
f 116/116/116 120/120/120 119/119/119
f 121/121/121 119/119/119 120/120/120
f 122/122/122 121/121/121 120/120/120
f 123/123/123 121/121/121 122/122/122
f 124/124/124 123/123/123 122/122/122
f 122/122/122 125/125/125 124/124/124
f 125/125/125 122/122/122 120/120/120
f 126/126/126 125/125/125 120/120/120
f 129/129/129 128/128/128 127/127/127
f 130/130/130 129/129/129 127/127/127
f 129/129/129 130/130/130 131/131/131
f 130/130/130 132/132/132 131/131/131
f 131/131/131 132/132/132 133/133/133
f 132/132/132 134/134/134 133/133/133
f 137/137/137 136/136/136 135/135/135
f 135/135/135 138/138/138 137/137/137
f 137/137/137 138/138/138 139/139/139
f 140/140/140 137/137/137 139/139/139
f 143/143/143 142/142/142 141/141/141
f 144/144/144 141/141/141 142/142/142
f 145/145/145 144/144/144 142/142/142
f 142/142/142 146/146/146 145/145/145
f 149/149/149 148/148/148 147/147/147
f 150/150/150 149/149/149 147/147/147
