g cliffBase04_COL
v -7.1902733 -9.732841 -5.8163233
v -7.7370996 -0.00071113586 -5.5097704
v -7.7334375 -9.732792 -5.521284
v -7.190244 -0.00071113586 -5.8163133
v -6.274785 -0.00071113586 -6.610073
v -5.927129 -0.00071113586 -1.7676417
v 5.899814 -0.00071113586 -3.9276805
v 7.1879587 -0.00071113586 -3.9430711
v 8.975195 -0.00071113586 -3.1482372
v -2.1396875 -0.00071113586 -7.2213917
v -1.0391994 -0.00071113586 -5.9636765
v -2.0807521 -0.00071113586 -1.8416945
v -1.4060353 -0.00071113586 4.369165
v -1.8858693 -0.00071113586 3.970493
v -2.1314747 -0.00071113586 3.2606785
v -3.1223047 -0.00071113586 2.280288
v -5.927129 -0.00071113586 -1.7676417
v -5.4825487 -0.00071113586 2.6228368
v -3.1223047 -0.00071113586 2.280288
v -7.7370996 -0.00071113586 -5.5097704
v -7.190244 -0.00071113586 -5.8163133
v -5.927129 -0.00071113586 -1.7676417
v -6.1018066 -0.00071113586 2.5270164
v -6.8506055 -0.00071113586 1.9550632
v -8.680137 -0.00071113586 2.4389987
v -9.534228 -0.00071113586 2.1490085
v -10.161709 -0.00071113586 1.4897118
v -9.874346 -0.00071113586 0.23773918
v -9.993964 -0.00071113586 -0.6263526
v -1.0391994 -0.00071113586 -5.9636765
v 1.2921678 -0.00071113586 -5.8873386
v 1.7513865 -0.00071113586 -5.5706787
v 2.2033787 -0.00071113586 -5.393813
v 2.439199 -0.00071113586 -5.020425
v 2.711211 -0.00071113586 0.4639794
v 4.10292 -0.00071113586 -4.7632565
v 4.4240623 -0.00071113586 -3.64479
v 1.6909568 -0.00071113586 5.9534717
v 0.9983592 -0.00071113586 4.572749
v -5.205371 -0.00071113586 -6.7497506
v -5.927129 -0.00071113586 -1.7676417
v -4.178984 -0.00071113586 -7.3652782
v -2.0807521 -0.00071113586 -1.8416945
v -2.1396875 -0.00071113586 -7.2213917
v -2.0807521 -0.00071113586 -1.8416945
v 9.978691 -0.00071113586 3.447378
v 10.001025 -0.00071113586 4.245737
v 9.53459 -0.00071113586 4.8562646
v 8.65792 -0.00071113586 5.128247
v 7.4205174 -0.00071113586 5.50645
v -9.062187 -0.00071113586 -5.9069676
v -8.467539 -0.00071113586 -6.0139694
v -7.7370996 -0.00071113586 -5.5097704
v -9.062187 -0.00071113586 -5.9069676
v -7.7370996 -0.00071113586 -5.5097704
v -5.927129 -0.00071113586 -1.7676417
v -9.568154 -0.00071113586 -5.334829
v -5.927129 -0.00071113586 -1.7676417
v -10.23832 -0.00071113586 -4.4018016
v -6.274785 -0.00071113586 -6.610073
v -5.205371 -0.00071113586 -6.7497506
v -10.04039 -0.00071113586 -3.5748096
v -10.23832 -0.00071113586 -4.4018016
v -5.927129 -0.00071113586 -1.7676417
v -9.964726 -0.00071113586 -2.6735399
v -10.04039 -0.00071113586 -3.5748096
v -9.897754 -0.00071113586 -1.7271436
v 2.711211 -0.00071113586 0.4639794
v -1.4060353 -0.00071113586 4.369165
v -2.0807521 -0.00071113586 -1.8416945
v 0.9983592 -0.00071113586 4.572749
v -0.7926271 -0.00071113586 4.305376
v -1.4060353 -0.00071113586 4.369165
v -7.1902733 -9.732841 -5.8163233
v -7.190244 -0.00071113586 -5.8163133
v -7.7370996 -0.00071113586 -5.5097704
v -6.535996 -9.732841 -6.473608
v -6.274785 -0.00071113586 -6.610073
v -5.205371 -9.732841 -6.7497506
v -5.205371 -0.00071113586 -6.7497506
v -4.256318 -9.732841 -7.4125633
v -4.178984 -0.00071113586 -7.3652782
v -2.1396875 -9.732841 -7.2213917
v -4.178984 -0.00071113586 -7.3652782
v -2.1396875 -0.00071113586 -7.2213917
v -1.1964064 -9.732841 -6.140581
v -1.0391994 -0.00071113586 -5.9636765
v 0.7823631 -9.732841 -5.820034
v 1.2921678 -0.00071113586 -5.8873386
v 1.7489647 -9.732841 -5.61729
v 1.7513865 -0.00071113586 -5.5706787
v 2.2033787 -0.00071113586 -5.393813
v 2.439199 -9.732841 -5.020425
v 2.439199 -0.00071113586 -5.020425
v 4.023652 -9.732841 -4.827485
v 4.10292 -0.00071113586 -4.7632565
v 4.630371 -9.732841 -3.5366845
v 4.4240623 -0.00071113586 -3.64479
v 5.883027 -9.732841 -3.9707372
v 5.899814 -0.00071113586 -3.9276805
v 7.1879587 -0.00071113586 -3.9430711
v 7.1299415 -9.732841 -3.9290283
v 8.845293 -9.732841 -3.1929247
v 8.975195 -0.00071113586 -3.1482372
v 10.0642185 -9.732841 -2.4066944
v 10.0642185 -0.00071113586 -2.4066944
v 10.2600975 -0.00071113586 -1.1926514
v 10.287294 -9.732841 -1.7380519
v 10.197607 -9.732841 0.57072747
v 10.237871 -0.00071113586 0.4782372
v 9.868056 -0.00071113586 1.0695361
v 9.731015 -9.732841 1.1966845
v 10.047939 -9.732841 1.8316356
v 10.074033 -0.00071113586 2.16728
v 9.978691 -9.732841 3.447378
v 9.978691 -0.00071113586 3.447378
v 10.001025 -0.00071113586 4.245737
v 10.055537 -9.732841 4.137729
v 9.53459 -0.00071113586 4.8562646
v 9.6293745 -9.732841 4.7278757
v 8.65792 -0.00071113586 5.128247
v 8.589462 -9.732841 5.053208
v 7.692832 -9.732841 5.2567334
v 7.4205174 -0.00071113586 5.50645
v 6.386543 -9.732841 6.351958
v 6.2973633 -0.00071113586 6.499917
v 4.7635546 -9.732841 7.4528756
v 5.126787 -0.00071113586 7.2659717
v 3.329795 -9.732841 7.5607467
v 4.270381 -0.00071113586 7.5342526
v 3.44458 -0.00071113586 7.595093
v 2.7810547 -0.00071113586 7.2545652
v 1.7298436 -9.732841 5.93437
v 1.6909568 -0.00071113586 5.9534717
v 1.0333787 -9.732841 4.5934324
v 0.9983592 -0.00071113586 4.572749
v 0.9983592 -0.00071113586 4.572749
v -0.68976575 -9.732841 4.073901
v -0.7926271 -0.00071113586 4.305376
v -1.4060353 -0.00071113586 4.369165
v -1.3472755 -9.732841 4.1658936
v -1.4060353 -0.00071113586 4.369165
v -1.8858693 -0.00071113586 3.970493
v -1.4060353 -0.00071113586 4.369165
v -1.7926369 -9.732841 3.8964598
v -2.1314747 -0.00071113586 3.2606785
v -2.1712794 -9.732841 3.2093604
v -3.2795312 -9.732841 2.211489
v -3.1223047 -0.00071113586 2.280288
v -5.4799314 -9.732841 2.572915
v -5.4825487 -0.00071113586 2.6228368
v -6.1018066 -0.00071113586 2.5270164
v -5.972871 -9.732841 2.522866
v -6.486797 -9.732841 2.0416453
v -6.8506055 -0.00071113586 1.9550632
v -8.467841 -9.732841 2.42062
v -8.680137 -0.00071113586 2.4389987
v -9.534228 -9.732841 2.1490085
v -9.534228 -0.00071113586 2.1490085
v -10.161709 -0.00071113586 1.4897118
v -10.124072 -9.732841 1.5664207
v -9.909912 -9.732841 -0.3595655
v -9.874346 -0.00071113586 0.23773918
v -9.993964 -0.00071113586 -0.6263526
v -9.897754 -0.00071113586 -1.7271436
v -9.773417 -9.732841 -1.693589
v -9.964726 -9.732841 -2.67353
v -9.964726 -0.00071113586 -2.6735399
v -9.828047 -9.732841 -3.2935987
v -10.04039 -0.00071113586 -3.5748096
v -10.335449 -9.732841 -4.305747
v -10.23832 -0.00071113586 -4.4018016
v -9.568144 -9.732841 -5.3348584
v -9.568154 -0.00071113586 -5.334829
v -9.062226 -9.732841 -5.906919
v -9.062187 -0.00071113586 -5.9069676
v -8.465703 -9.732816 -6.0197897
v -8.467539 -0.00071113586 -6.0139694
v -7.7370996 -0.00071113586 -5.5097704
v -7.7334375 -9.732792 -5.521284
v 1.6909568 -0.00071113586 5.9534717
v 2.711211 -0.00071113586 0.4639794
v 6.0417285 -0.00071113586 2.590874
v 5.899814 -0.00071113586 -3.9276805
v 4.4240623 -0.00071113586 -3.64479
v 5.899814 -0.00071113586 -3.9276805
v 8.975195 -0.00071113586 -3.1482372
v 6.0417285 -0.00071113586 2.590874
v 10.0642185 -0.00071113586 -2.4066944
v 10.2600975 -0.00071113586 -1.1926514
v 10.237871 -0.00071113586 0.4782372
v 9.868056 -0.00071113586 1.0695361
v 6.0417285 -0.00071113586 2.590874
v 10.074033 -0.00071113586 2.16728
v 9.978691 -0.00071113586 3.447378
v 9.53459 -0.00071113586 4.8562646
v 7.4205174 -0.00071113586 5.50645
v 6.2973633 -0.00071113586 6.499917
v 2.7810547 -0.00071113586 7.2545652
v 1.6909568 -0.00071113586 5.9534717
v 3.44458 -0.00071113586 7.595093
v 6.0417285 -0.00071113586 2.590874
v 4.270381 -0.00071113586 7.5342526
v 5.126787 -0.00071113586 7.2659717
v 6.2973633 -0.00071113586 6.499917
vt 0.4138015 0.026428118
vt 0.41866645 0.09387042
vt 0.017851802 0.024631396
vt 0.41451502 0.09386535
vt 0.40661094 0.09385891
vt 0.14890285 0.09324277
vt 0.31355065 0.09391125
vt 0.30364496 0.09384438
vt 0.2892066 0.0937469
vt 0.37729326 0.09382649
vt 0.36659962 0.09386028
vt 0.24566224 0.09363392
vt 0.13843803 0.14768982
vt 0.13432407 0.13140514
vt 0.12992576 0.1139948
vt 0.12472486 0.09340756
vt 0.14890285 0.09324277
vt 0.105655916 0.09329565
vt 0.12472486 0.09340756
vt 0.014078679 0.09181744
vt 0.41451502 0.09386535
vt 0.14890285 0.09324277
vt 0.10245094 0.093280435
vt 0.09826666 0.093260564
vt 0.088402085 0.09320908
vt 0.08028741 0.093160406
vt 0.07255036 0.09311397
vt 0.06472389 0.09303014
vt 0.058928818 0.09296267
vt 0.36659962 0.09386028
vt 0.3507303 0.09393157
vt 0.34716544 0.09393628
vt 0.3440634 0.09394218
vt 0.34124008 0.09394224
vt 0.24143872 0.09380968
vt 0.33400574 0.09395474
vt 0.32386467 0.09396203
vt 0.16897264 0.09369044
vt 0.15901278 0.09365733
vt 0.39909905 0.093840495
vt 0.14890285 0.09324277
vt 0.39391023 0.09384179
vt 0.24566224 0.09363392
vt 0.37729326 0.09382649
vt 0.24566224 0.09363392
vt 0.24185957 0.09371312
vt 0.23632666 0.09374499
vt 0.23158512 0.093772314
vt 0.22486614 0.09380135
vt 0.21612974 0.0938391
vt 0.020742677 0.09204464
vt 0.017361578 0.09192936
vt 0.014078679 0.09181744
vt 0.020742677 0.09204464
vt 0.014078679 0.09181744
vt 0.14890285 0.09324277
vt 0.02565854 0.09219436
vt 0.14890285 0.09324277
vt 0.032265935 0.09238478
vt 0.40661094 0.09385891
vt 0.39909905 0.093840495
vt 0.039190732 0.092558585
vt 0.032265935 0.09238478
vt 0.14890285 0.09324277
vt 0.045480516 0.092705235
vt 0.039190732 0.092558585
vt 0.052143455 0.092851624
vt 0.24143872 0.09380968
vt 0.13843803 0.14768982
vt 0.24566224 0.09363392
vt 0.15901278 0.09365733
vt 0.14255299 0.13688332
vt 0.13843803 0.14768982
vt 0.4138015 0.026428118
vt 0.41451502 0.09386535
vt 0.41866645 0.09387042
vt 0.40779132 0.026400879
vt 0.40661094 0.09385891
vt 0.39845213 0.02635844
vt 0.39909905 0.093840495
vt 0.39057285 0.026322737
vt 0.39391023 0.09384179
vt 0.3765426 0.02625908
vt 0.38769287 0.093845084
vt 0.37729326 0.09382649
vt 0.36705607 0.026216045
vt 0.36659962 0.09386028
vt 0.35285562 0.026151553
vt 0.3507303 0.09393157
vt 0.34628472 0.02612175
vt 0.34716544 0.09393628
vt 0.3440634 0.09394218
vt 0.34020376 0.026094154
vt 0.34124008 0.09394224
vt 0.33342004 0.026063398
vt 0.33400574 0.09395474
vt 0.3210978 0.026007488
vt 0.32386467 0.09396203
vt 0.31257772 0.025968805
vt 0.31355065 0.09391125
vt 0.30364496 0.09384438
vt 0.30299756 0.025925342
vt 0.28903374 0.025861993
vt 0.2892066 0.0937469
vt 0.28025866 0.025822118
vt 0.28221986 0.09371032
vt 0.27423766 0.09369146
vt 0.27570298 0.025801495
vt 0.25868466 0.025724247
vt 0.263093 0.093683794
vt 0.25856838 0.09368189
vt 0.25442004 0.025704935
vt 0.24414662 0.025658265
vt 0.24746822 0.093694285
vt 0.23825431 0.025631502
vt 0.24185957 0.09371312
vt 0.23632666 0.09374499
vt 0.23521256 0.025617732
vt 0.23158512 0.093772314
vt 0.23260589 0.025605932
vt 0.22486614 0.09380135
vt 0.22548842 0.025573632
vt 0.21623385 0.025531635
vt 0.21612974 0.0938391
vt 0.20303082 0.025471702
vt 0.20559168 0.0938694
vt 0.19497344 0.025435165
vt 0.19537559 0.09380598
vt 0.18149617 0.02537395
vt 0.18948612 0.09377296
vt 0.18556811 0.09376122
vt 0.1803801 0.093745396
vt 0.16572599 0.025302425
vt 0.16897264 0.09369044
vt 0.15731701 0.025264218
vt 0.15901278 0.09365733
vt 0.15901278 0.09365733
vt 0.14369789 0.025202459
vt 0.14255299 0.13688332
vt 0.13843803 0.14768982
vt 0.14218464 0.025195599
vt 0.13843803 0.14768982
vt 0.13432407 0.13140514
vt 0.13843803 0.14768982
vt 0.13578773 0.025166564
vt 0.12992576 0.1139948
vt 0.12785558 0.02513056
vt 0.12086159 0.025098816
vt 0.12472486 0.09340756
vt 0.102920726 0.025017396
vt 0.105655916 0.09329565
vt 0.10245094 0.093280435
vt 0.100844055 0.025007986
vt 0.09813285 0.0249957
vt 0.09826666 0.093260564
vt 0.089276254 0.024955526
vt 0.088402085 0.09320908
vt 0.078064546 0.024904624
vt 0.08028741 0.093160406
vt 0.07255036 0.09311397
vt 0.07277677 0.024880633
vt 0.05940049 0.02481994
vt 0.06472389 0.09303014
vt 0.058928818 0.09296267
vt 0.052143455 0.092851624
vt 0.051399745 0.024783686
vt 0.04508818 0.024755016
vt 0.045480516 0.092705235
vt 0.041155674 0.024737135
vt 0.039190732 0.092558585
vt 0.033178993 0.024700895
vt 0.032265935 0.09238478
vt 0.025935588 0.024668112
vt 0.02565854 0.09219436
vt 0.021210216 0.024646655
vt 0.020742677 0.09204464
vt 0.019506264 0.024638912
vt 0.017361578 0.09192936
vt 0.014078679 0.09181744
vt 0.017851802 0.024631396
vt 0.16897264 0.09369044
vt 0.24143872 0.09380968
vt 0.23651192 0.09379099
vt 0.31355065 0.09391125
vt 0.32386467 0.09396203
vt 0.31355065 0.09391125
vt 0.2892066 0.0937469
vt 0.23651192 0.09379099
vt 0.28221986 0.09371032
vt 0.27423766 0.09369146
vt 0.263093 0.093683794
vt 0.25856838 0.09368189
vt 0.23651192 0.09379099
vt 0.24746822 0.093694285
vt 0.24185957 0.09371312
vt 0.23158512 0.093772314
vt 0.21612974 0.0938391
vt 0.20559168 0.0938694
vt 0.1803801 0.093745396
vt 0.16897264 0.09369044
vt 0.18556811 0.09376122
vt 0.23651192 0.09379099
vt 0.18948612 0.09377296
vt 0.19537559 0.09380598
vt 0.20559168 0.0938694
vn -0.6109534 0.0026792998 -0.79166204
vn 0.15533432 0.00081995584 -0.98786163
vn 0.15512303 0.00081987923 -0.98789483
vn -0 1 0
vn -0 1 0
vn -0 1 0
vn -0 1 0
vn -0 1 0
vn -0 1 0
vn -0 1 0
vn -0 1 0
vn -0 1 0
vn -0 1 0
vn -0 1 0
vn -0 1 0
vn -0 1 0
vn -0 1 0
vn -0 1 0
vn -0 1 0
vn -0 1 0
vn -0 1 0
vn -0 1 0
vn -0 1 0
vn -0 1 0
vn -0 1 0
vn -0 1 0
vn -0 1 0
vn -0 1 0
vn -0 1 0
vn -0 1 0
vn -0 1 0
vn -0 1 0
vn -0 1 0
vn -0 1 0
vn -0 1 0
vn -0 1 0
vn -0 1 0
vn -0 1 0
vn -0 1 0
vn -0 1 0
vn -0 1 0
vn -0 1 0
vn -0 1 0
vn -0 1 0
vn -0 1 0
vn -0 1 0
vn -0 1 0
vn -0 1 0
vn -0 1 0
vn -0 1 0
vn -0 1 0
vn -0 1 0
vn -0 1 0
vn -0 1 0
vn -0 1 0
vn -0 1 0
vn -0 1 0
vn -0 1 0
vn -0 1 0
vn -0 1 0
vn -0 1 0
vn -0 1 0
vn -0 1 0
vn -0 1 0
vn -0 1 0
vn -0 1 0
vn -0 1 0
vn -0 1 0
vn -0 1 0
vn -0 1 0
vn -0 1 0
vn -0 1 0
vn -0 1 0
vn -0.6109534 0.0026792998 -0.79166204
vn -0.6109514 0.002679262 -0.7916636
vn 0.15533432 0.00081995584 -0.98786163
vn -0.43047404 -0.00055090577 -0.9026028
vn -0.4206571 -0.0007150296 -0.9072194
vn -0.3610734 -0.0002917245 -0.9325374
vn -0.3610734 -0.0002917245 -0.9325374
vn -0.15324 0.0030094655 -0.98818445
vn -0.15083024 0.0030007923 -0.98855513
vn 0.39599064 0.0012519005 -0.9182538
vn -0.15083024 0.0030007923 -0.98855513
vn 0.39599064 0.0012519005 -0.9182538
vn 0.4003081 0.001479111 -0.91637933
vn 0.39076856 0.0015140562 -0.9204877
vn 0.15466416 -0.0006255089 -0.98796695
vn 0.16063955 -0.00092023687 -0.9870127
vn 0.44957146 -0.008725613 -0.89320177
vn 0.44990304 -0.008721351 -0.8930348
vn 0.63675296 -0.0055873576 -0.7710477
vn 0.26775986 -0.00016326694 -0.96348566
vn 0.23002185 0.0024820315 -0.9731823
vn 0.56217504 0.0044396436 -0.8270064
vn 0.5676399 0.004458516 -0.82326496
vn 0.4108918 -0.000694562 -0.9116839
vn 0.42912078 -0.0005294631 -0.90324694
vn -0.13018154 -0.0023420525 -0.9914874
vn -0.12998743 -0.0023367996 -0.99151284
vn 0.25039968 -0.0009028673 -0.96814215
vn 0.24909855 -0.0008898561 -0.96847767
vn 0.4651504 -0.002159651 -0.885229
vn 0.46646753 -0.0021540397 -0.8845357
vn 0.78103006 0.0021698878 -0.62448955
vn 0.78103006 0.0021698878 -0.62448955
vn 0.99882156 0.0014140188 -0.048511457
vn 0.99842346 0.0016855362 -0.056104563
vn 0.9834948 -0.0013100768 0.18093145
vn 0.984012 -0.0013106395 0.17809743
vn 0.99392635 -0.0035448438 0.10999053
vn 0.99477565 -0.003578818 0.10202258
vn 0.99673116 -0.0033966582 -0.08071897
vn 0.99728465 -0.0033417682 -0.0735668
vn 0.99988866 -0.00045664102 0.014916665
vn 0.99988866 -0.00045664102 0.014916665
vn 0.95835876 0.0010840412 0.2855652
vn 0.95987964 0.0011171077 0.2804101
vn 0.53654206 -0.006292623 0.84385014
vn 0.5415899 -0.0062121707 0.84061986
vn 0.27951342 -0.011546226 0.96007234
vn 0.27941203 -0.011557271 0.9601018
vn 0.5007681 -0.0077456385 0.8655467
vn 0.5093274 -0.00751808 0.86054
vn 0.60424316 -0.0047994577 0.79678553
vn 0.603232 -0.004828566 0.7975511
vn 0.3987652 -0.0036636305 0.9170457
vn 0.40870357 -0.0038193213 0.91265917
vn -0.45707467 -0.00868571 0.88938594
vn 0.1408936 -0.0010832835 0.9900241
vn -0.1825024 -0.0013177468 0.9832045
vn -0.7004641 -0.0101889 0.7136149
vn -0.81066686 -0.008458116 0.58544654
vn -0.8107319 -0.008454476 0.5853565
vn -0.5828199 -0.008919921 0.81255245
vn -0.5810114 -0.008942102 0.81384623
vn -0.5810114 -0.008942102 0.81384623
vn -0.13146254 -0.014631797 0.99121314
vn -0.12991321 -0.014675303 0.99141675
vn -0.22708334 -0.02016906 0.9736665
vn -0.22675993 -0.020171205 0.9737419
vn -0.22708334 -0.02016906 0.9736665
vn -0.7997568 -0.010171271 0.6002379
vn -0.22708334 -0.02016906 0.9736665
vn -0.7997235 -0.010172468 0.60028225
vn -0.7787185 -0.00019523666 0.6273734
vn -0.777777 -0.00016616758 0.62854034
vn -0.18343544 -0.0039331224 0.9830239
vn -0.19242556 -0.003835453 0.98130405
vn 0.097924724 -0.00657623 0.9951721
vn 0.09788716 -0.006575768 0.99517584
vn -0.4525151 -0.009576755 0.89170533
vn -0.44888547 -0.009510706 0.89353865
vn -0.046181813 0.0032382773 0.9989278
vn -0.028880324 0.0036830527 0.99957603
vn 0.05559721 0.005478352 0.9984383
vn 0.049436387 0.0053093657 0.9987632
vn -0.49831563 -0.0015313469 0.8669943
vn -0.49831563 -0.0015313469 0.8669943
vn -0.98747617 0.0034612112 0.15773064
vn -0.9867715 0.0034501748 0.16208021
vn -0.9918949 -0.0030354133 -0.12702481
vn -0.99520916 0.002301256 -0.0977421
vn -0.999305 -0.010301578 -0.03582327
vn -0.9999361 -0.009513191 0.006104253
vn -0.9999391 -0.009527055 0.005576916
vn -0.9983311 -0.008495046 0.057121594
vn -0.9983311 -0.008495049 0.05712148
vn -0.9828158 -0.0044170674 0.18453626
vn -0.9813229 -0.0041627465 0.19232301
vn -0.98253894 0.0014174975 -0.18605164
vn -0.9812641 0.0014148045 -0.19266212
vn -0.78525245 0.0006819557 -0.6191754
vn -0.7852526 0.0006819577 -0.6191753
vn -0.5264358 0.00012838033 -0.8502149
vn -0.5264299 0.00012838325 -0.85021853
vn 0.28292152 0.000693606 -0.95914274
vn 0.28290278 0.00069359114 -0.95914835
vn 0.15533432 0.00081995584 -0.98786163
vn 0.15512303 0.00081987923 -0.98789483
vn -0 1 0
vn -0 1 0
vn -0 1 0
vn -0 1 0
vn -0 1 0
vn -0 1 0
vn -0 1 0
vn -0 1 0
vn -0 1 0
vn -0 1 0
vn -0 1 0
vn -0 1 0
vn -0 1 0
vn -0 1 0
vn -0 1 0
vn -0 1 0
vn -0 1 0
vn -0 1 0
vn -0 1 0
vn -0 1 0
vn -0 1 0
vn -0 1 0
vn -0 1 0
vn -0 1 0
vn -0 1 0
g cliffBase04_COL_0
f 3/3/3 2/2/2 1/1/1
f 6/6/6 5/5/5 4/4/4
f 9/9/9 8/8/8 7/7/7
f 12/12/12 11/11/11 10/10/10
f 12/12/12 14/14/14 13/13/13
f 12/12/12 15/15/15 14/14/14
f 12/12/12 16/16/16 15/15/15
f 18/18/18 16/16/16 17/17/17
f 19/19/19 12/12/12 17/17/17
f 17/17/17 21/21/21 20/20/20
f 23/23/23 18/18/18 22/22/22
f 24/24/24 23/23/23 22/22/22
f 25/25/25 24/24/24 17/17/17
f 25/25/25 17/17/17 26/26/26
f 17/17/17 27/27/27 26/26/26
f 22/22/22 28/28/28 27/27/27
f 22/22/22 29/29/29 28/28/28
f 12/12/12 31/31/31 30/30/30
f 12/12/12 32/32/32 31/31/31
f 12/12/12 33/33/33 32/32/32
f 12/12/12 34/34/34 33/33/33
f 12/12/12 35/35/35 34/34/34
f 35/35/35 36/36/36 34/34/34
f 35/35/35 37/37/37 36/36/36
f 35/35/35 39/39/39 38/38/38
f 41/41/41 12/12/12 40/40/40
f 43/43/43 42/42/42 40/40/40
f 45/45/45 44/44/44 42/42/42
f 48/48/48 47/47/47 46/46/46
f 50/50/50 49/49/49 48/48/48
f 53/53/53 52/52/52 51/51/51
f 56/56/56 55/55/55 54/54/54
f 58/58/58 54/54/54 57/57/57
f 58/58/58 57/57/57 59/59/59
f 58/58/58 61/61/61 60/60/60
f 64/64/64 63/63/63 62/62/62
f 64/64/64 66/66/66 65/65/65
f 64/64/64 65/65/65 67/67/67
f 64/64/64 67/67/67 29/29/29
f 70/70/70 69/69/69 68/68/68
f 72/72/72 71/71/71 68/68/68
f 73/73/73 72/72/72 68/68/68
f 76/76/76 75/75/75 74/74/74
f 74/74/74 75/75/75 77/77/77
f 75/75/75 78/78/78 77/77/77
f 79/79/79 77/77/77 78/78/78
f 80/80/80 79/79/79 78/78/78
f 79/79/79 80/80/80 81/81/81
f 80/80/80 82/82/82 81/81/81
f 81/81/81 84/84/84 83/83/83
f 84/84/84 85/85/85 83/83/83
f 83/83/83 85/85/85 86/86/86
f 85/85/85 87/87/87 86/86/86
f 86/86/86 87/87/87 88/88/88
f 87/87/87 89/89/89 88/88/88
f 88/88/88 89/89/89 90/90/90
f 89/89/89 91/91/91 90/90/90
f 91/91/91 92/92/92 90/90/90
f 92/92/92 93/93/93 90/90/90
f 93/93/93 92/92/92 94/94/94
f 93/93/93 94/94/94 95/95/95
f 94/94/94 96/96/96 95/95/95
f 95/95/95 96/96/96 97/97/97
f 96/96/96 98/98/98 97/97/97
f 97/97/97 98/98/98 99/99/99
f 98/98/98 100/100/100 99/99/99
f 99/99/99 100/100/100 101/101/101
f 102/102/102 99/99/99 101/101/101
f 102/102/102 101/101/101 103/103/103
f 101/101/101 104/104/104 103/103/103
f 103/103/103 104/104/104 105/105/105
f 104/104/104 106/106/106 105/105/105
f 106/106/106 107/107/107 105/105/105
f 107/107/107 108/108/108 105/105/105
f 108/108/108 107/107/107 109/109/109
f 107/107/107 110/110/110 109/109/109
f 110/110/110 111/111/111 109/109/109
f 111/111/111 112/112/112 109/109/109
f 112/112/112 111/111/111 113/113/113
f 111/111/111 114/114/114 113/113/113
f 113/113/113 114/114/114 115/115/115
f 114/114/114 116/116/116 115/115/115
f 116/116/116 117/117/117 115/115/115
f 117/117/117 118/118/118 115/115/115
f 117/117/117 119/119/119 118/118/118
f 119/119/119 120/120/120 118/118/118
f 120/120/120 119/119/119 121/121/121
f 122/122/122 120/120/120 121/121/121
f 122/122/122 121/121/121 123/123/123
f 121/121/121 124/124/124 123/123/123
f 123/123/123 124/124/124 125/125/125
f 124/124/124 126/126/126 125/125/125
f 125/125/125 126/126/126 127/127/127
f 126/126/126 128/128/128 127/127/127
f 127/127/127 128/128/128 129/129/129
f 128/128/128 130/130/130 129/129/129
f 129/129/129 130/130/130 131/131/131
f 132/132/132 129/129/129 131/131/131
f 129/129/129 132/132/132 133/133/133
f 132/132/132 134/134/134 133/133/133
f 133/133/133 134/134/134 135/135/135
f 134/134/134 136/136/136 135/135/135
f 138/138/138 135/135/135 137/137/137
f 139/139/139 138/138/138 137/137/137
f 139/139/139 140/140/140 138/138/138
f 142/142/142 141/141/141 138/138/138
f 141/141/141 144/144/144 143/143/143
f 145/145/145 141/141/141 143/143/143
f 145/145/145 143/143/143 146/146/146
f 147/147/147 145/145/145 146/146/146
f 147/147/147 146/146/146 148/148/148
f 146/146/146 149/149/149 148/148/148
f 148/148/148 149/149/149 150/150/150
f 149/149/149 151/151/151 150/150/150
f 150/150/150 151/151/151 152/152/152
f 153/153/153 150/150/150 152/152/152
f 153/153/153 152/152/152 154/154/154
f 152/152/152 155/155/155 154/154/154
f 154/154/154 155/155/155 156/156/156
f 155/155/155 157/157/157 156/156/156
f 156/156/156 157/157/157 158/158/158
f 157/157/157 159/159/159 158/158/158
f 159/159/159 160/160/160 158/158/158
f 160/160/160 161/161/161 158/158/158
f 161/161/161 160/160/160 162/162/162
f 160/160/160 163/163/163 162/162/162
f 164/164/164 162/162/162 163/163/163
f 164/164/164 165/165/165 162/162/162
f 165/165/165 166/166/166 162/162/162
f 166/166/166 165/165/165 167/167/167
f 165/165/165 168/168/168 167/167/167
f 169/169/169 167/167/167 168/168/168
f 170/170/170 169/169/169 168/168/168
f 169/169/169 170/170/170 171/171/171
f 170/170/170 172/172/172 171/171/171
f 171/171/171 172/172/172 173/173/173
f 172/172/172 174/174/174 173/173/173
f 173/173/173 174/174/174 175/175/175
f 174/174/174 176/176/176 175/175/175
f 177/177/177 175/175/175 176/176/176
f 178/178/178 177/177/177 176/176/176
f 178/178/178 179/179/179 177/177/177
f 179/179/179 180/180/180 177/177/177
f 183/183/183 182/182/182 181/181/181
f 182/182/182 183/183/183 184/184/184
f 182/182/182 186/186/186 185/185/185
f 188/188/188 187/187/187 186/186/186
f 188/188/188 189/189/189 187/187/187
f 188/188/188 190/190/190 189/189/189
f 188/188/188 191/191/191 190/190/190
f 193/193/193 192/192/192 191/191/191
f 188/188/188 194/194/194 192/192/192
f 188/188/188 195/195/195 194/194/194
f 188/188/188 196/196/196 195/195/195
f 188/188/188 197/197/197 196/196/196
f 188/188/188 198/198/198 197/197/197
f 193/193/193 200/200/200 199/199/199
f 202/202/202 199/199/199 201/201/201
f 202/202/202 201/201/201 203/203/203
f 202/202/202 203/203/203 204/204/204
f 202/202/202 204/204/204 205/205/205
