g col_stalagmite2
v -0.5141449 2.1053853 0.51683396
v -1.044395 0.6658467 0.7672924
v -1.2363275 1.0979068 -0.09507528
v 1.1119334 0.3331314 -1.124482
v 0.9980097 1.3914763 -0.20513298
v -0.020293059 0.8077535 -1.010481
v 1.5649849 0.11266632 -0.16908367
v 0.9980097 1.3914763 -0.20513298
v 1.1119334 0.3331314 -1.124482
v 0.9980097 1.3914763 -0.20513298
v -0.31010914 2.4349778 -0.67897725
v -0.020293059 0.8077535 -1.010481
v 1.5649849 0.11266632 -0.16908367
v -0.6782824 -0.006973442 1.2994746
v 1.0852252 0.38322684 1.052642
v -1.2363275 1.0979068 -0.09507528
v -1.044395 0.6658467 0.7672924
v -1.3308265 0.2672159 -0.3630405
v -0.5141449 2.1053853 0.51683396
v -1.2363275 1.0979068 -0.09507528
v -0.31010914 2.4349778 -0.67897725
v 1.0852252 0.38322684 1.052642
v -0.5141449 2.1053853 0.51683396
v 0.9980097 1.3914763 -0.20513298
v -0.020293059 0.8077535 -1.010481
v -0.31010914 2.4349778 -0.67897725
v -1.2363275 1.0979068 -0.09507528
v 0.012498244 0.2728334 -1.5842391
v 0.38310966 -0.19562152 -1.2275205
v 1.1119334 0.3331314 -1.124482
v 0.38310966 -0.19562152 -1.2275205
v 1.5649849 0.11266632 -0.16908367
v 1.1119334 0.3331314 -1.124482
v -1.0868889 -0.1579343 -0.8163275
v -1.3308265 0.2672159 -0.3630405
v -0.6782824 -0.006973442 1.2994746
v -1.0868889 -0.1579343 -0.8163275
v 0.012498244 0.2728334 -1.5842391
v -1.3308265 0.2672159 -0.3630405
v 0.38310966 -0.19562152 -1.2275205
v -1.0868889 -0.1579343 -0.8163275
v -0.6782824 -0.006973442 1.2994746
v 0.012498244 0.2728334 -1.5842391
v -0.020293059 0.8077535 -1.010481
v -1.2363275 1.0979068 -0.09507528
v -1.3308265 0.2672159 -0.3630405
v -1.044395 0.6658467 0.7672924
v -0.6782824 -0.006973442 1.2994746
v 0.38310966 -0.19562152 -1.2275205
v 0.012498244 0.2728334 -1.5842391
v -1.0868889 -0.1579343 -0.8163275
v 0.9980097 1.3914763 -0.20513298
v 1.5649849 0.11266632 -0.16908367
v 1.0852252 0.38322684 1.052642
v 1.1119334 0.3331314 -1.124482
v -0.020293059 0.8077535 -1.010481
v 0.012498244 0.2728334 -1.5842391
v -0.6782824 -0.006973442 1.2994746
v -1.044395 0.6658467 0.7672924
v 1.0852252 0.38322684 1.052642
v -1.044395 0.6658467 0.7672924
v -0.5141449 2.1053853 0.51683396
v 1.0852252 0.38322684 1.052642
v 0.012498244 0.2728334 -1.5842391
v -1.2363275 1.0979068 -0.09507528
v -1.3308265 0.2672159 -0.3630405
v -0.6782824 -0.006973442 1.2994746
v 1.5649849 0.11266632 -0.16908367
v 0.38310966 -0.19562152 -1.2275205
v 0.9980097 1.3914763 -0.20513298
v 0.43088007 3.8063824 0.13299376
v -0.054313857 5.1297593 0.024192018
v 0.43088007 3.8063824 0.13299376
v -0.5141449 2.1053853 0.51683396
v -0.054313857 5.1297593 0.024192018
v -0.31010914 2.4349778 -0.67897725
v -0.054313857 5.1297593 0.024192018
v -0.5141449 2.1053853 0.51683396
v -0.31010914 2.4349778 -0.67897725
v 0.9980097 1.3914763 -0.20513298
v -0.054313857 5.1297593 0.024192018
v 0.9980097 1.3914763 -0.20513298
v -0.5141449 2.1053853 0.51683396
v 0.43088007 3.8063824 0.13299376
vt 0 0
vt 0 0
vt 0 0
vt 0 0
vt 0 0
vt 0 0
vt 0 0
vt 0 0
vt 0 0
vt 0 0
vt 0 0
vt 0 0
vt 0 0
vt 0 0
vt 0 0
vt 0 0
vt 0 0
vt 0 0
vt 0 0
vt 0 0
vt 0 0
vt 0 0
vt 0 0
vt 0 0
vt 0 0
vt 0 0
vt 0 0
vt 0 0
vt 0 0
vt 0 0
vt 0 0
vt 0 0
vt 0 0
vt 0 0
vt 0 0
vt 0 0
vt 0 0
vt 0 0
vt 0 0
vt 0 0
vt 0 0
vt 0 0
vt 0 0
vt 0 0
vt 0 0
vt 0 0
vt 0 0
vt 0 0
vt 0 0
vt 0 0
vt 0 0
vt 0 0
vt 0 0
vt 0 0
vt 0 0
vt 0 0
vt 0 0
vt 0 0
vt 0 0
vt 0 0
vt 0 0
vt 0 0
vt 0 0
vt 0 0
vt 0 0
vt 0 0
vt 0 0
vt 0 0
vt 0 0
vt 0 0
vt 0 0
vt 0 0
vt 0 0
vt 0 0
vt 0 0
vt 0 0
vt 0 0
vt 0 0
vt 0 0
vt 0 0
vt 0 0
vt 0 0
vt 0 0
vt 0 0
vn -0.8458278 0.37719068 0.37723005
vn -0.8458278 0.37719068 0.37723005
vn -0.8458278 0.37719068 0.37723005
vn 0.20105183 0.65464664 -0.7287085
vn 0.20105183 0.65464664 -0.7287085
vn 0.20105183 0.65464664 -0.7287085
vn 0.86794406 0.37565422 -0.3248956
vn 0.86794406 0.37565422 -0.3248956
vn 0.86794406 0.37565422 -0.3248956
vn 0.5041571 0.2577143 -0.8242627
vn 0.5041571 0.2577143 -0.8242627
vn 0.5041571 0.2577143 -0.8242627
vn 0.24596955 -0.9214688 0.30065614
vn 0.24596955 -0.9214688 0.30065614
vn 0.24596955 -0.9214688 0.30065614
vn -0.9716414 0.03510125 0.23383936
vn -0.9716414 0.03510125 0.23383936
vn -0.9716414 0.03510125 0.23383936
vn -0.8180076 0.5748974 0.018881842
vn -0.8180076 0.5748974 0.018881842
vn -0.8180076 0.5748974 0.018881842
vn 0.5530381 0.6683689 0.4974253
vn 0.5530381 0.6683689 0.4974253
vn 0.5530381 0.6683689 0.4974253
vn -0.5914431 0.05850014 -0.80422175
vn -0.5914431 0.05850014 -0.80422175
vn -0.5914431 0.05850014 -0.80422175
vn 0.37734634 -0.35331354 -0.8560253
vn 0.37734634 -0.35331354 -0.8560253
vn 0.37734634 -0.35331354 -0.8560253
vn 0.56894463 -0.7001633 -0.43136233
vn 0.56894463 -0.7001633 -0.43136233
vn 0.56894463 -0.7001633 -0.43136233
vn -0.7503154 -0.6331645 0.19007769
vn -0.7503154 -0.6331645 0.19007769
vn -0.7503154 -0.6331645 0.19007769
vn -0.62508094 0.37261876 -0.6858782
vn -0.62508094 0.37261876 -0.6858782
vn -0.62508094 0.37261876 -0.6858782
vn -0.0053743143 -0.9973757 0.07219989
vn -0.0053743143 -0.9973757 0.07219989
vn -0.0053743143 -0.9973757 0.07219989
vn -0.32966626 0.681069 -0.65380824
vn -0.32966626 0.681069 -0.65380824
vn -0.32966626 0.681069 -0.65380824
vn -0.91537106 -0.2460005 0.31871548
vn -0.91537106 -0.2460005 0.31871548
vn -0.91537106 -0.2460005 0.31871548
vn -0.21079676 -0.6922955 -0.69013894
vn -0.21079676 -0.6922955 -0.69013894
vn -0.21079676 -0.6922955 -0.69013894
vn 0.8805829 0.39768177 0.25772646
vn 0.8805829 0.39768177 0.25772646
vn 0.8805829 0.39768177 0.25772646
vn 0.23481368 0.7176355 -0.65563846
vn 0.23481368 0.7176355 -0.65563846
vn 0.23481368 0.7176355 -0.65563846
vn -0.024729585 0.6118662 0.7905746
vn -0.024729585 0.6118662 0.7905746
vn -0.024729585 0.6118662 0.7905746
vn -0.10286589 0.20715787 0.9728845
vn -0.10286589 0.20715787 0.9728845
vn -0.10286589 0.20715787 0.9728845
vn -0.64226496 0.3005197 -0.70511246
vn -0.64226496 0.3005197 -0.70511246
vn -0.64226496 0.3005197 -0.70511246
vn 0.13837521 -0.98162407 0.13140182
vn 0.13837521 -0.98162407 0.13140182
vn 0.13837521 -0.98162407 0.13140182
vn 0.8296776 0.2637362 -0.49201447
vn 0.8296776 0.2637362 -0.49201447
vn 0.8296776 0.2637362 -0.49201447
vn 0.15225892 0.1363033 0.9788967
vn 0.15225892 0.1363033 0.9788967
vn 0.15225892 0.1363033 0.9788967
vn -0.9829055 0.12786517 -0.1324661
vn -0.9829055 0.12786517 -0.1324661
vn -0.9829055 0.12786517 -0.1324661
vn 0.460552 0.182928 -0.8685788
vn 0.460552 0.182928 -0.8685788
vn 0.460552 0.182928 -0.8685788
vn 0.41970655 -0.028458703 0.9072136
vn 0.41970655 -0.028458703 0.9072136
vn 0.41970655 -0.028458703 0.9072136
g col_stalagmite2_0
f 3/3/3 2/2/2 1/1/1
f 6/6/6 5/5/5 4/4/4
f 9/9/9 8/8/8 7/7/7
f 12/12/12 11/11/11 10/10/10
f 15/15/15 14/14/14 13/13/13
f 18/18/18 17/17/17 16/16/16
f 21/21/21 20/20/20 19/19/19
f 24/24/24 23/23/23 22/22/22
f 27/27/27 26/26/26 25/25/25
f 30/30/30 29/29/29 28/28/28
f 33/33/33 32/32/32 31/31/31
f 36/36/36 35/35/35 34/34/34
f 39/39/39 38/38/38 37/37/37
f 42/42/42 41/41/41 40/40/40
f 45/45/45 44/44/44 43/43/43
f 48/48/48 47/47/47 46/46/46
f 51/51/51 50/50/50 49/49/49
f 54/54/54 53/53/53 52/52/52
f 57/57/57 56/56/56 55/55/55
f 60/60/60 59/59/59 58/58/58
f 63/63/63 62/62/62 61/61/61
f 66/66/66 65/65/65 64/64/64
f 69/69/69 68/68/68 67/67/67
f 72/72/72 71/71/71 70/70/70
f 75/75/75 74/74/74 73/73/73
f 78/78/78 77/77/77 76/76/76
f 81/81/81 80/80/80 79/79/79
f 84/84/84 83/83/83 82/82/82
