g COL_growthFlower01
v -0.46080774 -0.3023969 0.42659557
v 1.7743838 4.256847 1.2639024
v 0.39238343 -0.3023969 0.42659557
v -0.15736443 4.256847 1.2639024
v 1.7743838 4.256847 -0.6678461
v -0.15736443 4.256847 -0.6678461
v 0.39238343 -0.3023969 -0.42659557
v -0.46080774 -0.3023969 -0.42659557
v 0.39238343 -0.3023969 0.42659557
v -0.46080774 -0.3023969 0.42659557
v 0.39238343 -0.3023969 0.42659557
v 1.7743838 4.256847 1.2639024
v 1.7743838 4.256847 -0.6678461
v 0.39238343 -0.3023969 -0.42659557
v -0.46080774 -0.3023969 -0.42659557
v -0.15736443 4.256847 -0.6678461
v -0.15736443 4.256847 1.2639024
v -0.46080774 -0.3023969 0.42659557
vt 0.375 0
vt 0.625 0.25
vt 0.625 0
vt 0.375 0.25
vt 0.625 0.5
vt 0.375 0.5
vt 0.625 0.75
vt 0.375 0.75
vt 0.625 1
vt 0.375 1
vt 0.625 0
vt 0.625 0.25
vt 0.875 0.25
vt 0.875 0
vt 0.125 0
vt 0.125 0.25
vt 0.375 0.25
vt 0.375 0
vn -0.7503836 -0.14560847 0.6447656
vn 0.72990733 0.13828155 0.66941285
vn 0.6324897 -0.380875 0.6744561
vn -0.6141312 0.31613424 0.72311956
vn 0.7510145 0.19510478 -0.63080215
vn -0.62688285 0.38722795 -0.6760713
vn 0.6264261 -0.29758927 -0.72043806
vn -0.73178613 -0.06835764 -0.67809755
vn 0.6324897 -0.380875 0.6744561
vn -0.7503836 -0.14560847 0.6447656
vn 0.6324897 -0.380875 0.6744561
vn 0.72990733 0.13828155 0.66941285
vn 0.7510145 0.19510478 -0.63080215
vn 0.6264261 -0.29758927 -0.72043806
vn -0.73178613 -0.06835764 -0.67809755
vn -0.62688285 0.38722795 -0.6760713
vn -0.6141312 0.31613424 0.72311956
vn -0.7503836 -0.14560847 0.6447656
g COL_growthFlower01_0
f 3/3/3 2/2/2 1/1/1
f 2/2/2 4/4/4 1/1/1
f 2/2/2 5/5/5 4/4/4
f 5/5/5 6/6/6 4/4/4
f 5/5/5 7/7/7 6/6/6
f 7/7/7 8/8/8 6/6/6
f 7/7/7 9/9/9 8/8/8
f 9/9/9 10/10/10 8/8/8
f 13/13/13 12/12/12 11/11/11
f 14/14/14 13/13/13 11/11/11
f 17/17/17 16/16/16 15/15/15
f 18/18/18 17/17/17 15/15/15
