g COL_rock_tall
v -0.38372007 1.4291482 0.4497282
v -0.5137823 1.4762357 0.05352746
v 0.01901123 1.7000997 0.010709488
v 0.047845457 1.4696145 -0.42775297
v -0.44964018 1.4219934 -0.3413112
v 0.00396759 1.0466827 -0.5232347
v -0.5368518 0.9744436 -0.41963634
v 0.022555847 0.39500812 -0.6466589
v -0.67874604 0.36191 -0.51733476
v -0.0029891967 -0.25471455 -0.7247291
v -0.5545752 -0.19471136 -0.5589957
v -0.057044372 -0.6521762 -0.5901219
v -0.57331544 -0.5322301 -0.47060135
v 0.0125906365 -0.84064925 0.0073648137
v -0.6484973 -0.6689544 -0.046650548
v -0.021615906 -0.6702382 0.56622726
v -0.48311004 -0.54392755 0.5522014
v 0.41519654 -0.6607854 0.4376243
v 0.5744098 -0.6954957 0.0034172742
v 0.4372351 -0.5948374 -0.51917183
v 0.6168085 -0.25633964 -0.56881493
v 0.5350336 0.3549159 -0.5118117
v 0.5281952 0.9539624 -0.4086021
v 0.29574645 1.4134256 -0.35189074
v 0.36611754 1.5467036 -0.020712404
v -0.07152771 1.499982 0.46189123
v -0.38372007 1.4291482 0.4497282
v 0.32509765 1.4084604 0.39999062
v -0.5154861 0.9966208 0.56986153
v -0.016259765 1.1037424 0.6257703
v 0.4938446 0.97569394 0.48570403
v 0.36611754 1.5467036 -0.020712404
v 0.58381164 1.0742437 -0.076196566
v 0.29574645 1.4134256 -0.35189074
v 0.5281952 0.9539624 -0.4086021
v 0.6687445 0.40988448 -0.046744294
v 0.5350336 0.3549159 -0.5118117
v 0.5140869 0.42406806 0.51747924
v -0.019662475 0.4077453 0.7295616
v 0.73051023 -0.2541121 -0.008376
v 0.6168085 -0.25633964 -0.56881493
v 0.50836056 -0.18985042 0.5354291
v 0.5744098 -0.6954957 0.0034172742
v 0.4372351 -0.5948374 -0.51917183
v 0.41519654 -0.6607854 0.4376243
v -0.021615906 -0.6702382 0.56622726
v -0.004990234 -0.23793937 0.7017728
v -0.48311004 -0.54392755 0.5522014
v -0.6727704 -0.16275562 0.6266014
v -0.6484973 -0.6689544 -0.046650548
v -0.6122559 0.42086878 0.68563634
v -0.7180493 -0.2528368 -0.010890269
v -0.57331544 -0.5322301 -0.47060135
v -0.5545752 -0.19471136 -0.5589957
v -0.67525387 0.4228422 -0.022066774
v -0.67874604 0.36191 -0.51733476
v -0.5782471 1.0728307 -0.015611592
v -0.38372007 1.4291482 0.4497282
v -0.5368518 0.9744436 -0.41963634
v -0.5137823 1.4762357 0.05352746
v -0.44964018 1.4219934 -0.3413112
vt 0.375 0.25
vt 0.375 0.375
vt 0.5 0.375
vt 0.5 0.5
vt 0.375 0.5
vt 0.5 0.5625
vt 0.375 0.5625
vt 0.5 0.625
vt 0.375 0.625
vt 0.5 0.6875
vt 0.375 0.6875
vt 0.5 0.75
vt 0.375 0.75
vt 0.5 0.875
vt 0.375 0.875
vt 0.5 1
vt 0.375 1
vt 0.625 1
vt 0.625 0.875
vt 0.625 0.75
vt 0.625 0.6875
vt 0.625 0.625
vt 0.625 0.5625
vt 0.625 0.5
vt 0.625 0.375
vt 0.5 0.25
vt 0.375 0.25
vt 0.625 0.25
vt 0.375 0.1875
vt 0.5 0.1875
vt 0.625 0.1875
vt 0.75 0.25
vt 0.75 0.1875
vt 0.875 0.25
vt 0.875 0.1875
vt 0.75 0.125
vt 0.875 0.125
vt 0.625 0.125
vt 0.5 0.125
vt 0.75 0.0625
vt 0.875 0.0625
vt 0.625 0.0625
vt 0.75 0
vt 0.875 0
vt 0.625 0
vt 0.5 0
vt 0.5 0.0625
vt 0.375 0
vt 0.375 0.0625
vt 0.25 0
vt 0.375 0.125
vt 0.25 0.0625
vt 0.125 0
vt 0.125 0.0625
vt 0.25 0.125
vt 0.125 0.125
vt 0.25 0.1875
vt 0.375 0.25
vt 0.125 0.1875
vt 0.25 0.25
vt 0.125 0.25
vn -0.5786538 0.58965063 0.56344646
vn -0.7333219 0.6798556 0.0059412466
vn -0.014714313 0.99984527 -0.009641038
vn -0.02139793 0.6181824 -0.7857433
vn -0.52787626 0.573727 -0.6262459
vn -0.0024745394 0.20282423 -0.97921205
vn -0.63408107 0.23856114 -0.7355473
vn 0.012275415 0.14369705 -0.98954564
vn -0.70288366 0.10855439 -0.7029726
vn -0.0051647928 -0.043947864 -0.99902046
vn -0.64139843 -0.051382434 -0.7654854
vn -0.055481646 -0.76916766 -0.63663405
vn -0.5701443 -0.61168313 -0.54843354
vn -0.04298137 -0.9988992 -0.018784588
vn -0.6226433 -0.78234124 -0.01604366
vn -0.017714573 -0.76355904 0.6454949
vn -0.4924202 -0.6543608 0.57387656
vn 0.517248 -0.6476683 0.55944645
vn 0.6459345 -0.7631804 0.018006988
vn 0.46034876 -0.6916863 -0.55646116
vn 0.71936905 -0.0723707 -0.69084775
vn 0.6545615 0.14409246 -0.74214995
vn 0.680673 0.21565041 -0.70012796
vn 0.541119 0.52080935 -0.66026336
vn 0.70676047 0.70704573 0.023998525
vn 0.0054094135 0.7288831 0.6846169
vn -0.5786538 0.58965063 0.56344646
vn 0.6138956 0.5635024 0.5528084
vn -0.72007006 0.24562207 0.6489753
vn 0.10555401 0.22771163 0.9679905
vn 0.74701905 0.20687726 0.63179445
vn 0.70676047 0.70704573 0.023998525
vn 0.96703 0.25462747 -0.0042426013
vn 0.541119 0.52080935 -0.66026336
vn 0.680673 0.21565041 -0.70012796
vn 0.995249 0.08904282 0.039381105
vn 0.6545615 0.14409246 -0.74214995
vn 0.73644847 0.07127127 0.6727289
vn 0.10867016 0.04900456 0.9928692
vn 0.99320304 -0.09631839 0.06534824
vn 0.71936905 -0.0723707 -0.69084775
vn 0.7082502 -0.08929445 0.7002914
vn 0.6459345 -0.7631804 0.018006988
vn 0.46034876 -0.6916863 -0.55646116
vn 0.517248 -0.6476683 0.55944645
vn -0.017714573 -0.76355904 0.6454949
vn 0.10720132 -0.13635997 0.98484206
vn -0.4924202 -0.6543608 0.57387656
vn -0.766827 -0.102963105 0.6335417
vn -0.6226433 -0.78234124 -0.01604366
vn -0.71302265 0.104346275 0.69333297
vn -0.9961039 -0.08818298 0.00093134696
vn -0.5701443 -0.61168313 -0.54843354
vn -0.64139843 -0.051382434 -0.7654854
vn -0.9951748 0.09807432 0.0029152476
vn -0.70288366 0.10855439 -0.7029726
vn -0.9804745 0.1943549 0.029934252
vn -0.5786538 0.58965063 0.56344646
vn -0.63408107 0.23856114 -0.7355473
vn -0.7333219 0.6798556 0.0059412466
vn -0.52787626 0.573727 -0.6262459
g COL_rock_tall_0
f 3/3/3 2/2/2 1/1/1
f 3/3/3 4/4/4 2/2/2
f 4/4/4 5/5/5 2/2/2
f 4/4/4 6/6/6 5/5/5
f 6/6/6 7/7/7 5/5/5
f 6/6/6 8/8/8 7/7/7
f 8/8/8 9/9/9 7/7/7
f 8/8/8 10/10/10 9/9/9
f 10/10/10 11/11/11 9/9/9
f 10/10/10 12/12/12 11/11/11
f 12/12/12 13/13/13 11/11/11
f 12/12/12 14/14/14 13/13/13
f 14/14/14 15/15/15 13/13/13
f 14/14/14 16/16/16 15/15/15
f 16/16/16 17/17/17 15/15/15
f 18/18/18 16/16/16 14/14/14
f 19/19/19 18/18/18 14/14/14
f 19/19/19 14/14/14 12/12/12
f 20/20/20 19/19/19 12/12/12
f 20/20/20 12/12/12 10/10/10
f 21/21/21 20/20/20 10/10/10
f 21/21/21 10/10/10 8/8/8
f 22/22/22 21/21/21 8/8/8
f 22/22/22 8/8/8 6/6/6
f 23/23/23 22/22/22 6/6/6
f 23/23/23 6/6/6 4/4/4
f 24/24/24 23/23/23 4/4/4
f 24/24/24 4/4/4 3/3/3
f 25/25/25 24/24/24 3/3/3
f 25/25/25 3/3/3 26/26/26
f 26/26/26 3/3/3 27/27/27
f 28/28/28 25/25/25 26/26/26
f 26/26/26 27/27/27 29/29/29
f 28/28/28 26/26/26 30/30/30
f 30/30/30 26/26/26 29/29/29
f 31/31/31 28/28/28 30/30/30
f 32/32/32 28/28/28 31/31/31
f 33/33/33 32/32/32 31/31/31
f 34/34/34 32/32/32 33/33/33
f 35/35/35 34/34/34 33/33/33
f 35/35/35 33/33/33 36/36/36
f 37/37/37 35/35/35 36/36/36
f 33/33/33 31/31/31 38/38/38
f 36/36/36 33/33/33 38/38/38
f 31/31/31 30/30/30 39/39/39
f 38/38/38 31/31/31 39/39/39
f 37/37/37 36/36/36 40/40/40
f 41/41/41 37/37/37 40/40/40
f 36/36/36 38/38/38 42/42/42
f 40/40/40 36/36/36 42/42/42
f 41/41/41 40/40/40 43/43/43
f 44/44/44 41/41/41 43/43/43
f 43/43/43 40/40/40 45/45/45
f 40/40/40 42/42/42 45/45/45
f 45/45/45 42/42/42 46/46/46
f 42/42/42 38/38/38 47/47/47
f 42/42/42 47/47/47 46/46/46
f 38/38/38 39/39/39 47/47/47
f 46/46/46 47/47/47 48/48/48
f 47/47/47 49/49/49 48/48/48
f 47/47/47 39/39/39 49/49/49
f 48/48/48 49/49/49 50/50/50
f 39/39/39 51/51/51 49/49/49
f 39/39/39 30/30/30 51/51/51
f 30/30/30 29/29/29 51/51/51
f 49/49/49 52/52/52 50/50/50
f 49/49/49 51/51/51 52/52/52
f 50/50/50 52/52/52 53/53/53
f 52/52/52 54/54/54 53/53/53
f 51/51/51 55/55/55 52/52/52
f 52/52/52 55/55/55 54/54/54
f 51/51/51 29/29/29 55/55/55
f 55/55/55 56/56/56 54/54/54
f 29/29/29 57/57/57 55/55/55
f 55/55/55 57/57/57 56/56/56
f 29/29/29 58/58/58 57/57/57
f 57/57/57 59/59/59 56/56/56
f 57/57/57 60/60/60 59/59/59
f 60/60/60 61/61/61 59/59/59
f 27/27/27 60/60/60 57/57/57
