g COL_mushroomBase01
v 2.0206392 2.6226044E-07 -3.035094
v 1.4610846 1.833381 -2.847384
v 0.02514853 2.062454 -3.3672292
v -0.17725402 -6.6280364E-07 -3.079786
v -2.2307696 3.7193297E-07 -2.7907054
v -0.3143825 4.022952 -2.6736538
v 1.030617 3.8975601 -2.413088
v 0.6927156 5.5225143 -1.6158351
v -1.162992 5.5761266 -1.6544589
v -1.4453623 2.1692894 -2.930103
v -1.6032157 3.9119022 -2.4331334
v -2.632599 4.061366 -1.3978345
v -2.0203626 5.5067244 -0.02677931
v -2.6945543 2.38344 -1.8353256
v -2.978784 8.34465E-08 -2.2161078
v -3.131982 -3.5524369E-07 -1.4122267
v -3.123472 2.594428 -0.24289684
v -2.9257011 3.9253387 -0.17651531
v -2.4374506 4.0392523 1.1533048
v -1.039171 5.4231787 1.4382008
v -2.745456 2.6725655 1.3905258
v -2.7302685 -1.4871358E-07 0.74373066
v -1.8428901 7.629394E-07 2.7205973
v -1.4755393 2.7124248 2.6855698
v -1.5724406 3.8844042 2.0815678
v -0.33749348 4.0641246 2.4064763
v 0.6551637 5.447148 1.4755933
v 0.1134301 2.59622 2.880487
v 0.54557306 7.152557E-08 2.5385466
v 2.719086 1.3589859E-07 1.7493681
v 1.6056145 2.3891845 2.4784923
v 1.077571 3.9519756 2.1946135
v 1.9988973 4.1455307 1.3710641
v 1.5699426 5.4883466 -0.0340875
v 2.5413504 2.194024 1.298868
v 3.1077657 -8.2969666E-07 0.35192344
v 2.8342836 2.002716E-07 -1.273006
v 3.0215306 1.9532515 -0.2742548
v 2.4775724 3.9705617 -0.16405636
v 2.0812774 4.0736685 -1.2875116
v 0.6927156 5.5225143 -1.6158351
v 1.030617 3.8975601 -2.413088
v 1.4610846 1.833381 -2.847384
v 2.7510545 1.8661282 -1.5978894
v 2.7823596 -1.0550022E-07 -2.123121
v 2.0206392 2.6226044E-07 -3.035094
v 0.6927156 5.5225143 -1.6158351
v -0.44337076 6.2903657 -0.44689956
v -1.162992 5.5761266 -1.6544589
v 1.5699426 5.4883466 -0.0340875
v -2.0203626 5.5067244 -0.02677931
v 0.6551637 5.447148 1.4755933
v -1.039171 5.4231787 1.4382008
vt 0.375 0.3125
vt 0.375 0.43781328
vt 0.39642 0.43781328
vt 0.39642 0.3125
vt 0.41666666 0.3125
vt 0.39642 0.56312656
vt 0.375 0.56312656
vt 0.375 0.68843985
vt 0.41666666 0.68843985
vt 0.41666666 0.43781328
vt 0.41666666 0.56312656
vt 0.43830594 0.56312656
vt 0.4583333 0.68843985
vt 0.43830594 0.43781328
vt 0.43830594 0.3125
vt 0.4583333 0.3125
vt 0.4583333 0.43781328
vt 0.4583333 0.56312656
vt 0.4799488 0.56312656
vt 0.49999997 0.68843985
vt 0.4799488 0.43781328
vt 0.4799488 0.3125
vt 0.49999997 0.3125
vt 0.49999997 0.43781328
vt 0.49999997 0.56312656
vt 0.5205729 0.56312656
vt 0.5416666 0.68843985
vt 0.5205729 0.43781328
vt 0.5205729 0.3125
vt 0.5416666 0.3125
vt 0.5416666 0.43781328
vt 0.5416666 0.56312656
vt 0.56121695 0.56312656
vt 0.5833333 0.68843985
vt 0.56121695 0.43781328
vt 0.56121695 0.3125
vt 0.5833333 0.3125
vt 0.5833333 0.43781328
vt 0.5833333 0.56312656
vt 0.601163 0.56312656
vt 0.625 0.68843985
vt 0.625 0.56312656
vt 0.625 0.43781328
vt 0.601163 0.43781328
vt 0.601163 0.3125
vt 0.625 0.3125
vt 0.578125 0.9790665
vt 0.5 0.8375
vt 0.421875 0.9790665
vt 0.65625 0.84375
vt 0.34375 0.84375
vt 0.57812506 0.7084335
vt 0.42187503 0.7084335
vn 0.4618232 0.12558265 -0.8780366
vn 0.45474896 0.19358812 -0.86932564
vn 0.020255087 0.11629553 -0.99300814
vn -0.04426524 -0.033870533 -0.9984456
vn -0.44737056 0.082208864 -0.8905624
vn 0.016480114 0.36940023 -0.9291243
vn 0.48939925 0.3447994 -0.8010005
vn 0.37482604 0.72131974 -0.58241165
vn -0.34578246 0.717103 -0.6051427
vn -0.38856462 0.12422231 -0.9130095
vn -0.46596783 0.29673702 -0.8335593
vn -0.8219109 0.31085962 -0.47731397
vn -0.6704946 0.7374878 0.08092379
vn -0.8269897 0.16616781 -0.53709996
vn -0.82165486 0.16899633 -0.5443561
vn -0.99914694 0.033095647 -0.024702167
vn -0.9974312 0.03802968 0.060702335
vn -0.96301335 0.26840922 0.02370197
vn -0.80796134 0.35170683 0.47275865
vn -0.3013048 0.75171864 0.5866298
vn -0.89906055 0.043759752 0.4356319
vn -0.9312558 -0.04415715 0.36168042
vn -0.50286895 -0.035652496 0.86362714
vn -0.44184515 0.06737516 0.8945578
vn -0.48534054 0.36403412 0.7949363
vn -0.016772036 0.398067 0.91720307
vn 0.27861103 0.78394544 0.55480224
vn 0.107557476 0.04410148 0.9932202
vn 0.15998383 -0.08660685 0.983313
vn 0.68190295 0.044438113 0.7300916
vn 0.5004227 0.06832248 0.8630812
vn 0.4406802 0.34539437 0.8285552
vn 0.81368434 0.3566526 0.45903894
vn 0.6277211 0.7777942 0.031662203
vn 0.9111702 0.19112529 0.36502066
vn 0.9732843 0.10196311 0.20572124
vn 0.99779 0.03890009 -0.053869538
vn 0.9865311 0.16355155 0.0026870826
vn 0.9433874 0.33075777 0.024893876
vn 0.78372717 0.3695339 -0.49921596
vn 0.37482604 0.72131974 -0.58241165
vn 0.48939925 0.3447994 -0.8010005
vn 0.45474896 0.19358812 -0.86932564
vn 0.8463436 0.22862425 -0.48107538
vn 0.84143686 0.17181516 -0.512312
vn 0.4618232 0.12558265 -0.8780366
vn 0.37482604 0.72131974 -0.58241165
vn -0.019121332 0.9997012 -0.015222983
vn -0.34578246 0.717103 -0.6051427
vn 0.6277211 0.7777942 0.031662203
vn -0.6704946 0.7374878 0.08092379
vn 0.27861103 0.78394544 0.55480224
vn -0.3013048 0.75171864 0.5866298
g COL_mushroomBase01_0
f 3/3/3 2/2/2 1/1/1
f 4/4/4 3/3/3 1/1/1
f 4/4/4 5/5/5 3/3/3
f 3/3/3 6/6/6 2/2/2
f 6/6/6 7/7/7 2/2/2
f 6/6/6 8/8/8 7/7/7
f 6/6/6 9/9/9 8/8/8
f 5/5/5 10/10/10 3/3/3
f 3/3/3 10/10/10 6/6/6
f 6/6/6 11/11/11 9/9/9
f 10/10/10 11/11/11 6/6/6
f 12/12/12 9/9/9 11/11/11
f 12/12/12 11/11/11 10/10/10
f 12/12/12 13/13/13 9/9/9
f 14/14/14 10/10/10 5/5/5
f 14/14/14 12/12/12 10/10/10
f 15/15/15 14/14/14 5/5/5
f 15/15/15 16/16/16 14/14/14
f 14/14/14 17/17/17 12/12/12
f 16/16/16 17/17/17 14/14/14
f 12/12/12 18/18/18 13/13/13
f 17/17/17 18/18/18 12/12/12
f 19/19/19 13/13/13 18/18/18
f 19/19/19 18/18/18 17/17/17
f 19/19/19 20/20/20 13/13/13
f 21/21/21 17/17/17 16/16/16
f 21/21/21 19/19/19 17/17/17
f 22/22/22 21/21/21 16/16/16
f 22/22/22 23/23/23 21/21/21
f 21/21/21 24/24/24 19/19/19
f 23/23/23 24/24/24 21/21/21
f 19/19/19 25/25/25 20/20/20
f 24/24/24 25/25/25 19/19/19
f 26/26/26 20/20/20 25/25/25
f 26/26/26 25/25/25 24/24/24
f 26/26/26 27/27/27 20/20/20
f 28/28/28 24/24/24 23/23/23
f 28/28/28 26/26/26 24/24/24
f 29/29/29 28/28/28 23/23/23
f 29/29/29 30/30/30 28/28/28
f 28/28/28 31/31/31 26/26/26
f 30/30/30 31/31/31 28/28/28
f 26/26/26 32/32/32 27/27/27
f 31/31/31 32/32/32 26/26/26
f 33/33/33 27/27/27 32/32/32
f 33/33/33 32/32/32 31/31/31
f 33/33/33 34/34/34 27/27/27
f 35/35/35 31/31/31 30/30/30
f 35/35/35 33/33/33 31/31/31
f 36/36/36 35/35/35 30/30/30
f 36/36/36 37/37/37 35/35/35
f 35/35/35 38/38/38 33/33/33
f 37/37/37 38/38/38 35/35/35
f 33/33/33 39/39/39 34/34/34
f 38/38/38 39/39/39 33/33/33
f 40/40/40 34/34/34 39/39/39
f 40/40/40 39/39/39 38/38/38
f 40/40/40 41/41/41 34/34/34
f 40/40/40 42/42/42 41/41/41
f 43/43/43 42/42/42 40/40/40
f 44/44/44 38/38/38 37/37/37
f 44/44/44 40/40/40 38/38/38
f 44/44/44 43/43/43 40/40/40
f 45/45/45 44/44/44 37/37/37
f 46/46/46 43/43/43 44/44/44
f 45/45/45 46/46/46 44/44/44
f 49/49/49 48/48/48 47/47/47
f 47/47/47 48/48/48 50/50/50
f 51/51/51 48/48/48 49/49/49
f 50/50/50 48/48/48 52/52/52
f 53/53/53 48/48/48 51/51/51
f 52/52/52 48/48/48 53/53/53
