g COL_root01
v 7.3324966 -6.100245 1.2334951
v 5.4634695 -13.215352 0.9845652
v 5.248298 -8.437378 1.7017648
v -0.8974738 -1.1975183 1.0523732
v 6.4769683 0.2842788 1.7966387
v 4.6320124 -1.9749129 1.7966387
v 1.3107747 1.8798758 1.7789075
v 6.4769683 0.2842788 -1.1125951
v 1.8198637 1.8798763 -1.7789075
v 4.6320124 -1.9749129 -1.1125951
v -0.8974738 -1.1975183 -1.2873383
v 4.6320124 -1.9749129 1.7966387
v -0.8974738 -1.1975183 1.0523732
v -1.2326818 11.908674 -0.088180766
v -0.17181441 12.228834 -0.13940307
v -0.28295243 12.038055 0.84531444
v -1.2326818 11.726422 0.5429945
v 5.248298 -8.437378 1.7017648
v 5.4634695 -13.215352 0.9845652
v 6.076622 -5.470333 -0.13591799
v 7.4724736 -5.9651437 -0.1295057
v 7.3324966 -6.100245 1.2334951
v 6.001052 -4.7769327 1.0313205
v 5.248298 -8.437378 1.7017648
v 6.076622 -5.470333 -0.13591799
v 7.3324966 -6.100245 1.2334951
v 4.6320124 -1.9749129 1.7966387
v 6.4769683 0.2842788 1.7966387
v 4.6320124 -1.9749129 -1.1125951
v 6.4769683 0.2842788 -1.1125951
v 7.4724736 -5.9651437 -0.1295057
v -0.8974738 -1.1975183 -1.2873383
v -1.2326818 11.908674 -0.088180766
v -1.2326818 11.726422 0.5429945
v -0.8974738 -1.1975183 1.0523732
v 1.8198637 1.8798763 -1.7789075
v -0.28295243 12.038055 0.84531444
v -0.17181441 12.228834 -0.13940307
v 1.3107747 1.8798758 1.7789075
vt 0.625 0.25
vt 0.75 0.125
vt 0.625 0
vt 0.375 0
vt 0.625 0.25
vt 0.625 0
vt 0.375 0.25
vt 0.625 0.5
vt 0.375 0.5
vt 0.625 0.75
vt 0.375 0.75
vt 0.625 1
vt 0.375 1
vt 0.125 0
vt 0.125 0.25
vt 0.375 0.25
vt 0.375 0
vt 0.625 0
vt 0.75 0.125
vt 0.875 0
vt 0.875 0.25
vt 0.625 0.25
vt 0.625 0
vt 0.625 0
vt 0.875 0
vt 0.625 0.25
vt 0.625 0
vt 0.625 0.25
vt 0.875 0
vt 0.875 0.25
vt 0.875 0.25
vt 0.125 0
vt 0.125 0
vt 0.375 0
vt 0.375 0
vt 0.125 0.25
vt 0.375 0.25
vt 0.125 0.25
vt 0.375 0.25
vn 0.9052697 0.020983677 0.424319
vn -0.4187539 -0.9067997 -0.048574995
vn -0.757177 -0.07737431 0.64861095
vn -0.6946279 -0.4614649 0.5518536
vn 0.5717994 0.5586466 0.60079885
vn -0.24413514 -0.48373035 0.8404779
vn 0.25494024 0.3106492 0.9156978
vn 0.6268955 0.5496982 -0.5521176
vn 0.3311204 0.34865266 -0.87681276
vn -0.12941352 -0.55053496 -0.82472014
vn -0.6421856 -0.42641175 -0.63700134
vn -0.24413514 -0.48373035 0.8404779
vn -0.6946279 -0.4614649 0.5518536
vn -0.64607376 0.08684637 -0.75831807
vn 0.653942 0.25459883 -0.71241796
vn 0.6611492 0.19372663 0.7248115
vn -0.8071829 0.027098497 0.5896791
vn -0.757177 -0.07737431 0.64861095
vn -0.4187539 -0.9067997 -0.048574995
vn -0.3932481 -0.2372064 -0.8883069
vn 0.8730221 -0.030229812 -0.48674297
vn 0.9052697 0.020983677 0.424319
vn -0.5792251 -0.27776736 0.76638347
vn -0.757177 -0.07737431 0.64861095
vn -0.3932481 -0.2372064 -0.8883069
vn 0.9052697 0.020983677 0.424319
vn -0.24413514 -0.48373035 0.8404779
vn 0.5717994 0.5586466 0.60079885
vn -0.12941352 -0.55053496 -0.82472014
vn 0.6268955 0.5496982 -0.5521176
vn 0.8730221 -0.030229812 -0.48674297
vn -0.6421856 -0.42641175 -0.63700134
vn -0.64607376 0.08684637 -0.75831807
vn -0.8071829 0.027098497 0.5896791
vn -0.6946279 -0.4614649 0.5518536
vn 0.3311204 0.34865266 -0.87681276
vn 0.6611492 0.19372663 0.7248115
vn 0.653942 0.25459883 -0.71241796
vn 0.25494024 0.3106492 0.9156978
g COL_root01_0
f 3/3/3 2/2/2 1/1/1
f 6/6/6 5/5/5 4/4/4
f 5/5/5 7/7/7 4/4/4
f 5/5/5 8/8/8 7/7/7
f 8/8/8 9/9/9 7/7/7
f 8/8/8 10/10/10 9/9/9
f 10/10/10 11/11/11 9/9/9
f 10/10/10 12/12/12 11/11/11
f 12/12/12 13/13/13 11/11/11
f 16/16/16 15/15/15 14/14/14
f 17/17/17 16/16/16 14/14/14
f 20/20/20 19/19/19 18/18/18
f 21/21/21 19/19/19 20/20/20
f 22/22/22 19/19/19 21/21/21
f 25/25/25 24/24/24 23/23/23
f 23/23/23 24/24/24 26/26/26
f 25/25/25 23/23/23 27/27/27
f 27/27/27 23/23/23 28/28/28
f 23/23/23 26/26/26 28/28/28
f 29/29/29 25/25/25 27/27/27
f 28/28/28 26/26/26 30/30/30
f 31/31/31 25/25/25 29/29/29
f 30/30/30 31/31/31 29/29/29
f 26/26/26 31/31/31 30/30/30
f 34/34/34 33/33/33 32/32/32
f 35/35/35 34/34/34 32/32/32
f 32/32/32 33/33/33 36/36/36
f 37/37/37 34/34/34 35/35/35
f 33/33/33 38/38/38 36/36/36
f 39/39/39 37/37/37 35/35/35
f 36/36/36 38/38/38 39/39/39
f 38/38/38 37/37/37 39/39/39
