g col_stalagmite1
v -0.043544363 3.2940743 -0.0386621
v 1.1862091 0.8269257 -0.27765572
v -0.0031044334 1.523449 0.4129372
v 1.1862091 0.8269257 -0.27765572
v 2.0494916 -0.22352643 -0.47764593
v 1.2313943 0.18821664 0.860013
v -1.3967798 0.8019168 0.030737113
v -0.0031044334 1.523449 0.4129372
v 1.2313943 0.18821664 0.860013
v 1.1862091 0.8269257 -0.27765572
v -0.523598 1.0953785 -0.53904784
v -0.533736 0.10198013 -1.5488112
v -0.043544363 3.2940743 -0.0386621
v -0.523598 1.0953785 -0.53904784
v 1.1862091 0.8269257 -0.27765572
v -0.043544363 3.2940743 -0.0386621
v -0.0031044334 1.523449 0.4129372
v -0.523598 1.0953785 -0.53904784
v -0.523598 1.0953785 -0.53904784
v -0.0031044334 1.523449 0.4129372
v -1.3967798 0.8019168 0.030737113
v 1.1862091 0.8269257 -0.27765572
v 1.2313943 0.18821664 0.860013
v -0.0031044334 1.523449 0.4129372
v -0.533736 0.10198013 -1.5488112
v -1.3967798 0.8019168 0.030737113
v -1.7343674 -0.18143308 -0.07605887
v -0.8142562 0.014470322 1.3421834
v -1.3967798 0.8019168 0.030737113
v 1.2313943 0.18821664 0.860013
v 2.0494916 -0.22352643 -0.47764593
v -0.533736 0.10198013 -1.5488112
v -1.7343674 -0.18143308 -0.07605887
v -1.7343674 -0.18143308 -0.07605887
v -0.8142562 0.014470322 1.3421834
v 2.0494916 -0.22352643 -0.47764593
v -1.3967798 0.8019168 0.030737113
v -0.8142562 0.014470322 1.3421834
v -1.7343674 -0.18143308 -0.07605887
v -0.533736 0.10198013 -1.5488112
v -0.523598 1.0953785 -0.53904784
v -1.3967798 0.8019168 0.030737113
v 1.1862091 0.8269257 -0.27765572
v -0.533736 0.10198013 -1.5488112
v 2.0494916 -0.22352643 -0.47764593
v -0.8142562 0.014470322 1.3421834
v 1.2313943 0.18821664 0.860013
v 2.0494916 -0.22352643 -0.47764593
vt 0 0
vt 0 0
vt 0 0
vt 0 0
vt 0 0
vt 0 0
vt 0 0
vt 0 0
vt 0 0
vt 0 0
vt 0 0
vt 0 0
vt 0 0
vt 0 0
vt 0 0
vt 0 0
vt 0 0
vt 0 0
vt 0 0
vt 0 0
vt 0 0
vt 0 0
vt 0 0
vt 0 0
vt 0 0
vt 0 0
vt 0 0
vt 0 0
vt 0 0
vt 0 0
vt 0 0
vt 0 0
vt 0 0
vt 0 0
vt 0 0
vt 0 0
vt 0 0
vt 0 0
vt 0 0
vt 0 0
vt 0 0
vt 0 0
vt 0 0
vt 0 0
vt 0 0
vt 0 0
vt 0 0
vt 0 0
vn 0.58108497 0.21356826 0.7853208
vn 0.58108497 0.21356826 0.7853208
vn 0.58108497 0.21356826 0.7853208
vn 0.76548886 0.57357526 0.291613
vn 0.76548886 0.57357526 0.291613
vn 0.76548886 0.57357526 0.291613
vn -0.28931543 0.05253877 0.95579094
vn -0.28931543 0.05253877 0.95579094
vn -0.28931543 0.05253877 0.95579094
vn 0.21405752 0.69526106 -0.6861423
vn 0.21405752 0.69526106 -0.6861423
vn 0.21405752 0.69526106 -0.6861423
vn 0.176416 0.1816481 -0.9674096
vn 0.176416 0.1816481 -0.9674096
vn 0.176416 0.1816481 -0.9674096
vn -0.8906413 0.09317091 0.4450589
vn -0.8906413 0.09317091 0.4450589
vn -0.8906413 0.09317091 0.4450589
vn -0.41437942 0.8931133 -0.17503808
vn -0.41437942 0.8931133 -0.17503808
vn -0.41437942 0.8931133 -0.17503808
vn 0.61924195 0.6949207 0.36554715
vn 0.61924195 0.6949207 0.36554715
vn 0.61924195 0.6949207 0.36554715
vn -0.76306236 0.3227756 -0.5599568
vn -0.76306236 0.3227756 -0.5599568
vn -0.76306236 0.3227756 -0.5599568
vn 0.044315636 0.86504877 0.49972677
vn 0.044315636 0.86504877 0.49972677
vn 0.044315636 0.86504877 0.49972677
vn -0.033706352 -0.975968 -0.21529153
vn -0.033706352 -0.975968 -0.21529153
vn -0.033706352 -0.975968 -0.21529153
vn 0.003277684 -0.990875 0.13474421
vn 0.003277684 -0.990875 0.13474421
vn 0.003277684 -0.990875 0.13474421
vn -0.83061314 0.23007983 0.5070946
vn -0.83061314 0.23007983 0.5070946
vn -0.83061314 0.23007983 0.5070946
vn -0.57128894 0.5879392 -0.5726749
vn -0.57128894 0.5879392 -0.5726749
vn -0.57128894 0.5879392 -0.5726749
vn 0.38799563 0.46982315 -0.7929222
vn 0.38799563 0.46982315 -0.7929222
vn 0.38799563 0.46982315 -0.7929222
vn 0.1672462 -0.90888286 0.382048
vn 0.1672462 -0.90888286 0.382048
vn 0.1672462 -0.90888286 0.382048
g col_stalagmite1_0
f 3/3/3 2/2/2 1/1/1
f 6/6/6 5/5/5 4/4/4
f 9/9/9 8/8/8 7/7/7
f 12/12/12 11/11/11 10/10/10
f 15/15/15 14/14/14 13/13/13
f 18/18/18 17/17/17 16/16/16
f 21/21/21 20/20/20 19/19/19
f 24/24/24 23/23/23 22/22/22
f 27/27/27 26/26/26 25/25/25
f 30/30/30 29/29/29 28/28/28
f 33/33/33 32/32/32 31/31/31
f 36/36/36 35/35/35 34/34/34
f 39/39/39 38/38/38 37/37/37
f 42/42/42 41/41/41 40/40/40
f 45/45/45 44/44/44 43/43/43
f 48/48/48 47/47/47 46/46/46
