g corralField
v 0.7029438 0.20365293 0.101516314
v 4.75 0.16469602 -1.0294296E-08
v 0.7029438 0.16469602 -1.02943E-08
v 4.75 0.20365293 0.101516314
v 0.7029438 0.30564314 0.16425686
v 4.75 0.30564314 0.16425686
v 0.7029438 3.2444634 0.16425687
v 4.75 3.2444634 0.16425687
v 0.7029438 3.3464534 0.101516336
v 4.75 3.3464534 0.101516336
v 0.7029438 3.3854103 5.0273208E-14
v 4.75 3.3854103 5.298836E-14
v 0.7029438 0.16469602 -1.02943E-08
v 4.75 0.16469602 -1.0294296E-08
v 4.75 0.20365293 -0.10151633
v 0.7029438 0.20365293 -0.10151633
v 4.75 0.30564314 -0.16425686
v 0.7029438 0.30564314 -0.16425686
v 4.75 3.2444634 -0.16425684
v 0.7029438 3.2444634 -0.16425684
v 4.75 3.3464534 -0.101516314
v 0.7029438 3.3464534 -0.101516314
v 4.75 3.3854103 5.298836E-14
v 0.7029438 3.3854103 5.0273208E-14
v -0.101516314 0.20365293 0.7029438
v 1.0294298E-08 0.16469602 4.75
v 1.02943E-08 0.16469602 0.7029438
v -0.101516314 0.20365293 4.75
v -0.16425686 0.30564314 0.7029438
v -0.16425686 0.30564314 4.75
v -0.16425687 3.2444634 0.7029438
v -0.16425687 3.2444634 4.75
v -0.101516336 3.3464534 0.7029438
v -0.101516336 3.3464534 4.75
v -5.0117123E-14 3.3854103 0.7029438
v -5.1878135E-14 3.3854103 4.75
v 1.02943E-08 0.16469602 0.7029438
v 1.0294298E-08 0.16469602 4.75
v 0.10151633 0.20365293 4.75
v 0.10151633 0.20365293 0.7029438
v 0.16425686 0.30564314 4.75
v 0.16425686 0.30564314 0.7029438
v 0.16425684 3.2444634 4.75
v 0.16425684 3.2444634 0.7029438
v 0.101516314 3.3464534 4.75
v 0.101516314 3.3464534 0.7029438
v -5.1878135E-14 3.3854103 4.75
v -5.0117123E-14 3.3854103 0.7029438
vt 1 0.01481542
vt 0.50000983 0.0027870536
vt 1 0.0027870536
vt 0.50000983 0.01481542
vt 1 0.046305805
vt 0.50000983 0.046305805
vt 1 0.95369446
vt 0.50000983 0.95369446
vt 1 0.9851848
vt 0.50000983 0.9851848
vt 1 0.997213
vt 0.50000983 0.997213
vt 1 0.0027870536
vt 0.50000983 0.0027870536
vt 0.50000983 0.01481542
vt 1 0.01481542
vt 0.50000983 0.046305805
vt 1 0.046305805
vt 0.50000983 0.95369446
vt 1 0.95369446
vt 0.50000983 0.9851848
vt 1 0.9851848
vt 0.50000983 0.997213
vt 1 0.997213
vt 0 0.01481542
vt 0.49999017 0.0027870536
vt 0 0.0027870536
vt 0.49999017 0.01481542
vt 0 0.046305805
vt 0.49999017 0.046305805
vt 0 0.95369446
vt 0.49999017 0.95369446
vt 0 0.9851848
vt 0.49999017 0.9851848
vt 0 0.997213
vt 0.49999017 0.997213
vt 0 0.0027870536
vt 0.49999017 0.0027870536
vt 0.49999017 0.01481542
vt 0 0.01481542
vt 0.49999017 0.046305805
vt 0 0.046305805
vt 0.49999017 0.95369446
vt 0 0.95369446
vt 0.49999017 0.9851848
vt 0 0.9851848
vt 0.49999017 0.997213
vt 0 0.997213
vn -0 -0.7589014 0.6512055
vn -0 -1 0
vn -0 -1 0
vn -0 -0.7589014 0.6512055
vn -0 -0.020628452 0.9997873
vn -0 -0.020628452 0.9997873
vn -0 0.020628437 0.9997873
vn -0 0.020628437 0.9997873
vn -0 0.75890183 0.651205
vn -0 0.75890183 0.651205
vn -0 1 0
vn -0 1 0
vn -0 -1 0
vn -0 -1 0
vn -0 -0.7589014 -0.6512054
vn -0 -0.7589014 -0.6512054
vn -0 -0.020628434 -0.9997873
vn -0 -0.020628434 -0.9997873
vn -0 0.02062845 -0.9997873
vn -0 0.02062845 -0.9997873
vn -0 0.7589018 -0.6512051
vn -0 0.7589018 -0.6512051
vn -0 1 0
vn -0 1 0
vn -0.6512054 -0.7589014 0
vn -0 -1 0
vn -0 -1 0
vn -0.6512054 -0.7589014 0
vn -0.9997873 -0.020628454 0
vn -0.9997873 -0.020628454 0
vn -0.9997873 0.020628443 0
vn -0.9997873 0.020628443 0
vn -0.651205 0.7589019 0
vn -0.651205 0.7589019 0
vn -0 1 0
vn -0 1 0
vn -0 -1 0
vn -0 -1 0
vn 0.6512055 -0.7589014 0
vn 0.6512055 -0.7589014 0
vn 0.9997873 -0.020628436 0
vn 0.9997873 -0.020628436 0
vn 0.9997873 0.020628447 0
vn 0.9997873 0.020628447 0
vn 0.65120506 0.75890183 0
vn 0.65120506 0.75890183 0
vn -0 1 0
vn -0 1 0
g corralField_0
f 3/3/3 2/2/2 1/1/1
f 2/2/2 4/4/4 1/1/1
f 1/1/1 4/4/4 5/5/5
f 4/4/4 6/6/6 5/5/5
f 5/5/5 6/6/6 7/7/7
f 6/6/6 8/8/8 7/7/7
f 7/7/7 8/8/8 9/9/9
f 8/8/8 10/10/10 9/9/9
f 9/9/9 10/10/10 11/11/11
f 10/10/10 12/12/12 11/11/11
f 15/15/15 14/14/14 13/13/13
f 16/16/16 15/15/15 13/13/13
f 17/17/17 15/15/15 16/16/16
f 18/18/18 17/17/17 16/16/16
f 19/19/19 17/17/17 18/18/18
f 20/20/20 19/19/19 18/18/18
f 21/21/21 19/19/19 20/20/20
f 22/22/22 21/21/21 20/20/20
f 23/23/23 21/21/21 22/22/22
f 24/24/24 23/23/23 22/22/22
f 27/27/27 26/26/26 25/25/25
f 26/26/26 28/28/28 25/25/25
f 25/25/25 28/28/28 29/29/29
f 28/28/28 30/30/30 29/29/29
f 29/29/29 30/30/30 31/31/31
f 30/30/30 32/32/32 31/31/31
f 31/31/31 32/32/32 33/33/33
f 32/32/32 34/34/34 33/33/33
f 33/33/33 34/34/34 35/35/35
f 34/34/34 36/36/36 35/35/35
f 39/39/39 38/38/38 37/37/37
f 40/40/40 39/39/39 37/37/37
f 41/41/41 39/39/39 40/40/40
f 42/42/42 41/41/41 40/40/40
f 43/43/43 41/41/41 42/42/42
f 44/44/44 43/43/43 42/42/42
f 45/45/45 43/43/43 44/44/44
f 46/46/46 45/45/45 44/44/44
f 47/47/47 45/45/45 46/46/46
f 48/48/48 47/47/47 46/46/46
