g cratepart2
v 0.026949883 0.29664612 -0.098833084
v 0.02249813 0.3465023 -0.098833084
v -0.06719303 0.29314613 -0.09994316
v -0.074593544 0.29314613 0.010473251
v -0.074593544 0.34825325 0.008069992
v -0.06719303 0.29314613 -0.09994316
v -0.07353687 -0.32878685 0.012788773
v -0.07353687 -0.27367973 0.010385513
v -0.07015705 -0.27841187 -0.090639114
v -0.07015705 -0.27841187 -0.090639114
v 0.017279625 -0.2754326 -0.09182167
v 0.021735191 -0.32528877 -0.09182167
v -0.026715279 -0.45193672 -0.04237175
v -0.075146675 -0.45193672 -0.04237175
v -0.026711464 -0.45413017 0.114938736
v -0.075146675 -0.45413017 0.114938736
v -0.07436466 0.4431057 0.0036754608
v -0.0748148 0.45305824 0.10297966
v -0.06881809 -0.002955079 0.10054588
v -0.06881809 -0.004813552 -0.039865494
v -0.0748148 0.45097542 -0.054368973
v -0.075146675 -0.45193672 -0.04237175
v -0.075146675 -0.45413017 0.114938736
v -0.0748148 0.45097542 -0.054368973
v -0.027047157 0.45097542 -0.054368973
v -0.07436466 0.4431057 0.0036754608
v -0.027474403 0.44456673 -0.0012264252
v -0.027043343 0.45305824 0.10297966
v -0.0748148 0.45305824 0.10297966
v -0.0748148 0.45305824 0.10297966
v -0.027043343 0.45305824 0.10297966
v -0.06881809 -0.002955079 0.10054588
v -0.03304386 -0.002955079 0.10054588
v -0.075146675 -0.45413017 0.114938736
v -0.026711464 -0.45413017 0.114938736
v -0.06881809 -0.004813552 -0.039865494
v -0.027047157 0.45097542 -0.054368973
v -0.0748148 0.45097542 -0.054368973
v -0.03304386 -0.004813552 -0.039865494
v -0.026715279 -0.45193672 -0.04237175
v -0.075146675 -0.45193672 -0.04237175
v -0.06719303 0.34352303 -0.09994316
v 0.022044182 0.3465023 -0.11421394
v 0.02249813 0.3465023 -0.098833084
v -0.0835886 0.34352303 -0.114938736
v -0.074593544 0.34825325 0.008069992
v -0.090397835 0.34825325 0.008588791
v -0.074593544 0.29314613 0.010473251
v -0.06719303 0.29314613 -0.09994316
v -0.090397835 0.29314613 0.01099205
v -0.0835886 0.29314613 -0.114938736
v 0.026495934 0.29664612 -0.11421394
v 0.026949883 0.29664612 -0.098833084
v 0.022044182 0.3465023 -0.11421394
v 0.026495934 0.29664612 -0.11421394
v 0.02249813 0.3465023 -0.098833084
v 0.026949883 0.29664612 -0.098833084
v -0.074593544 0.34825325 0.008069992
v -0.074593544 0.29314613 0.010473251
v -0.090397835 0.34825325 0.008588791
v -0.090397835 0.29314613 0.01099205
v -0.090397835 0.34825325 0.008588791
v -0.090397835 0.29314613 0.01099205
v -0.0835886 0.34352303 -0.114938736
v -0.0835886 0.29314613 -0.114938736
v -0.0835886 0.34352303 -0.114938736
v -0.0835886 0.29314613 -0.114938736
v 0.022044182 0.3465023 -0.11421394
v 0.026495934 0.29664612 -0.11421394
v 0.090397835 -0.44996452 -0.092767715
v -0.05849552 0.0061289966 -0.085767746
v -0.066967964 -0.44493675 -0.092767715
v 0.0819273 0.0061289966 -0.085767746
v -0.06691837 0.44849586 -0.103788376
v 0.09034824 0.45413017 -0.103788376
v -0.06691837 0.44849586 -0.103788376
v 0.09034824 0.45413017 -0.103788376
v -0.06691837 0.44849586 -0.05535698
v 0.09034824 0.45413017 -0.05535698
v 0.090397835 -0.44996452 -0.04499626
v 0.090397835 -0.44996452 -0.092767715
v -0.066967964 -0.44493675 -0.04499626
v -0.066967964 -0.44493675 -0.092767715
v -0.066967964 -0.44493675 -0.04499626
v -0.066967964 -0.44493675 -0.092767715
v -0.05849552 0.0061289966 -0.049993515
v -0.05849552 0.0061289966 -0.085767746
v -0.06691837 0.44849586 -0.05535698
v -0.06691837 0.44849586 -0.103788376
v 0.090397835 -0.44996452 -0.04499626
v 0.0819273 0.0061289966 -0.085767746
v 0.090397835 -0.44996452 -0.092767715
v 0.0819273 0.0061289966 -0.049993515
v 0.09034824 0.45413017 -0.05535698
v 0.09034824 0.45413017 -0.103788376
v -0.07015705 -0.27841187 -0.090639114
v 0.016825676 -0.2754326 -0.10720253
v 0.017279625 -0.2754326 -0.09182167
v -0.08655262 -0.27841187 -0.10563469
v -0.07353687 -0.27367973 0.010385513
v -0.08934116 -0.27367973 0.010904312
v -0.07353687 -0.32878685 0.012788773
v -0.07015705 -0.32878685 -0.090639114
v -0.08934116 -0.32878685 0.013307571
v -0.08655262 -0.32878685 -0.10563469
v 0.021281242 -0.32528877 -0.10720253
v 0.021735191 -0.32528877 -0.09182167
v 0.016825676 -0.2754326 -0.10720253
v 0.021281242 -0.32528877 -0.10720253
v 0.017279625 -0.2754326 -0.09182167
v 0.021735191 -0.32528877 -0.09182167
v -0.07353687 -0.27367973 0.010385513
v -0.07353687 -0.32878685 0.012788773
v -0.08934116 -0.27367973 0.010904312
v -0.08934116 -0.32878685 0.013307571
v -0.08934116 -0.27367973 0.010904312
v -0.08934116 -0.32878685 0.013307571
v -0.08655262 -0.27841187 -0.10563469
v -0.08655262 -0.32878685 -0.10563469
v -0.08655262 -0.27841187 -0.10563469
v -0.08655262 -0.32878685 -0.10563469
v 0.016825676 -0.2754326 -0.10720253
v 0.021281242 -0.32528877 -0.10720253
v -0.026715279 -0.45193672 -0.04237175
v -0.026711464 -0.45413017 0.114938736
v -0.03304386 -0.002955079 0.10054588
v -0.03304386 -0.004813552 -0.039865494
v -0.027047157 0.45097542 -0.054368973
v -0.027474403 0.44456673 -0.0012264252
v -0.027043343 0.45305824 0.10297966
v -0.06691837 0.44849586 -0.05535698
v 0.09034824 0.45413017 -0.05535698
v 0.0819273 0.0061289966 -0.049993515
v -0.05849552 0.0061289966 -0.049993515
v -0.066967964 -0.44493675 -0.04499626
v 0.090397835 -0.44996452 -0.04499626
vt 0.7090666 0.4973039
vt 0.7470151 0.4870317
vt 0.7044378 0.4343863
vt 0.6992641 0.3833976
vt 0.7387699 0.3729715
vt 0.7044378 0.4343863
vt 0.6992641 0.3833976
vt 0.7387699 0.3729715
vt 0.7432244 0.4343589
vt 0.7432244 0.4343589
vt 0.7470151 0.4870317
vt 0.7090666 0.4973039
vt 0.1871044 0.9818144
vt 0.1871044 0.9960919
vt 0.2348709 0.9818144
vt 0.2348709 0.9960918
vt 0.1579029 0.5411276
vt 0.127244 0.5395833
vt 0.127244 0.7606988
vt 0.1748898 0.7606988
vt 0.1748898 0.5395833
vt 0.1748898 0.9818144
vt 0.127244 0.9818144
vt 0.1871044 0.5253059
vt 0.1871044 0.5395833
vt 0.2071321 0.5253059
vt 0.2035441 0.5484415
vt 0.2348709 0.5395833
vt 0.2348709 0.5253059
vt 0.2469711 0.5395833
vt 0.2348709 0.5395833
vt 0.2469711 0.7606988
vt 0.2348709 0.7606988
vt 0.2469711 0.9818144
vt 0.2348709 0.9818144
vt 0.1748898 0.7606988
vt 0.1871044 0.5395833
vt 0.1748898 0.5395833
vt 0.1871044 0.7606988
vt 0.1871044 0.9818144
vt 0.1748898 0.9818144
vt 0.7432244 0.4343589
vt 0.7377748 0.4883479
vt 0.7470151 0.4870317
vt 0.7348498 0.4342745
vt 0.7480851 0.383368
vt 0.7388487 0.3814442
vt 0.6992641 0.3833976
vt 0.7044378 0.4343863
vt 0.7082779 0.3814622
vt 0.7126257 0.4342911
vt 0.7090922 0.4883659
vt 0.7003074 0.4870622
vt 0.7377748 0.4883479
vt 0.7090922 0.4883659
vt 0.737798 0.4972863
vt 0.7090666 0.4973039
vt 0.7387699 0.3729715
vt 0.7083513 0.372989
vt 0.7388487 0.3814442
vt 0.7082779 0.3814622
vt 0.7388487 0.3814442
vt 0.7082779 0.3814622
vt 0.7348498 0.4342745
vt 0.7126257 0.4342911
vt 0.7348498 0.4342745
vt 0.7126257 0.4342911
vt 0.7377748 0.4883479
vt 0.7090922 0.4883659
vt 0.4343016 0.5395833
vt 0.4820678 0.7606988
vt 0.4820678 0.5395833
vt 0.4343016 0.7606988
vt 0.4820678 0.9818144
vt 0.4343016 0.9818144
vt 0.4820678 0.9818144
vt 0.4343016 0.9818144
vt 0.4820678 0.9960918
vt 0.4343016 0.9960919
vt 0.4343016 0.5253059
vt 0.4343016 0.5395833
vt 0.4820678 0.5253059
vt 0.4820678 0.5395833
vt 0.494168 0.5395833
vt 0.4820678 0.5395833
vt 0.494168 0.7606988
vt 0.4820678 0.7606988
vt 0.494168 0.9818144
vt 0.4820678 0.9818144
vt 0.4220869 0.5395833
vt 0.4343016 0.7606988
vt 0.4343016 0.5395833
vt 0.4220869 0.7606988
vt 0.4220869 0.9818144
vt 0.4343016 0.9818144
vt 0.7432244 0.4343589
vt 0.7377748 0.4883479
vt 0.7470151 0.4870317
vt 0.7348498 0.4342745
vt 0.7480851 0.383368
vt 0.7388487 0.3814442
vt 0.6992641 0.3833976
vt 0.7044378 0.4343863
vt 0.7082779 0.3814622
vt 0.7126257 0.4342911
vt 0.7090922 0.4883659
vt 0.7003074 0.4870622
vt 0.7377748 0.4883479
vt 0.7090922 0.4883659
vt 0.737798 0.4972863
vt 0.7090666 0.4973039
vt 0.7387699 0.3729715
vt 0.7083513 0.372989
vt 0.7388487 0.3814442
vt 0.7082779 0.3814622
vt 0.7388487 0.3814442
vt 0.7082779 0.3814622
vt 0.7348498 0.4342745
vt 0.7126257 0.4342911
vt 0.7348498 0.4342745
vt 0.7126257 0.4342911
vt 0.7377748 0.4883479
vt 0.7090922 0.4883659
vt 0.1871044 0.9818144
vt 0.2348709 0.9818144
vt 0.2348709 0.7606988
vt 0.1871044 0.7606988
vt 0.1871044 0.5395833
vt 0.2035441 0.5484415
vt 0.2348709 0.5395833
vt 0.494168 0.9818144
vt 0.4343016 0.9960919
vt 0.4220869 0.7606988
vt 0.494168 0.7606988
vt 0.4820678 0.5253059
vt 0.4220869 0.5395833
vn 0.75191647 0.0008460421 0.6592578
vn 0.75191647 0.0008460421 0.65925777
vn 0.75191647 0.0008460421 0.65925777
vn 0.7519165 0.0008460422 0.65925777
vn 0.75191647 0.0008460421 0.65925777
vn 0.75191647 0.0008460421 0.65925777
vn 0.7589453 0.000932256 0.6511536
vn 0.7589453 0.00093225593 0.6511536
vn 0.7589453 0.000932256 0.6511537
vn 0.7589453 0.000932256 0.6511537
vn 0.7589453 0.000932256 0.6511537
vn 0.7589453 0.000932256 0.6511537
vn -0 -0.99990284 -0.013941894
vn -0 -0.99990284 -0.013942061
vn -0 -0.99990284 -0.013942597
vn -0 -0.99990284 -0.013942763
vn -0.99991584 -0.012966302 0.00035608304
vn -0.99990857 -0.013134264 -0.0032300672
vn -0.99999917 0.0012674773 -0.00014015334
vn -0.9999993 0.0011868299 8.610427E-05
vn -0.99989784 -0.012966759 0.0060242494
vn -0.9999013 0.014054463 0.00013168062
vn -0.99990153 0.014033141 0.00019858924
vn -0 0.99093515 0.13434048
vn -0.0074466136 0.9916978 0.12837431
vn -0.022917818 0.99958736 -0.017317861
vn -0.03191819 0.99946576 -0.0070351833
vn -0.011311769 0.9954725 -0.09437388
vn -0 0.9950157 -0.099718176
vn -0 -0.0053389445 0.9999858
vn -0 -0.005338944 0.9999858
vn -0 0.012981681 0.9999157
vn -0 0.013405094 0.9999101
vn -0 0.031884085 0.9994916
vn -0 0.031884085 0.9994916
vn -0 -0.013264014 -0.999912
vn -0 -0.03180367 -0.9994942
vn -0 -0.03180367 -0.9994942
vn -0 -0.013282291 -0.9999118
vn -0 0.005600008 -0.9999844
vn -0 0.005600008 -0.9999844
vn 0.0064280783 0.9999471 -0.008041715
vn -0.032651655 0.9994568 0.0044629965
vn -0.033208106 0.999448 0.0009820515
vn 0.0073101833 0.9999075 -0.011468199
vn 0.0019330606 0.9992536 -0.03857969
vn -0.0012571057 0.9992637 -0.03834681
vn -0 -1 0
vn 0.014526304 -0.99978477 -0.014813521
vn -0 -1 0
vn 0.012359208 -0.9998323 -0.013512437
vn 0.03659317 -0.9993186 -0.00481561
vn 0.037159078 -0.9993088 -0.0010978994
vn 0.9956044 0.08892939 -0.029384395
vn 0.9956044 0.088930264 -0.029384304
vn 0.9956044 0.088929586 -0.029384376
vn 0.9956043 0.08893046 -0.029384278
vn 0.03272904 0.043535378 0.99851567
vn 0.032731965 0.043534715 0.99851555
vn 0.032729678 0.043535247 0.99851567
vn 0.0327326 0.043534577 0.99851555
vn -0.9984849 -0.0023981459 -0.05497458
vn -0.99849844 -0.0018332371 -0.05474939
vn -0.99852556 -0.0006572693 -0.05428058
vn -0.9985399 0 -0.05401851
vn 0.0068585975 0 -0.9999765
vn 0.006772804 0.00016933013 -0.9999771
vn 0.006640608 0.00043140812 -0.99997795
vn 0.006562907 0.00058545155 -0.9999783
vn 0.00040661547 0.015473073 -0.9998802
vn 5.799819E-05 -0.011934759 -0.99992883
vn 0.00049561827 0.015502114 -0.9998797
vn 0.00017121328 -0.012611131 -0.9999205
vn 0.0011903379 -0.040305063 -0.9991867
vn 0.0014404017 -0.04022106 -0.9991898
vn -0.035795916 0.9993591 0
vn -0.035795894 0.9993591 0
vn -0.03579591 0.9993591 0
vn -0.035795897 0.9993592 0
vn -0.031928845 -0.99949014 0
vn -0.031928856 -0.99949014 0
vn -0.031928886 -0.99949014 0
vn -0.031928893 -0.99949014 0
vn -0.99982387 0.018772889 0
vn -0.99982387 0.018772908 0
vn -1 0.00040354868 0
vn -1 -0.0003184298 0
vn -0.99981886 -0.019031916 0
vn -0.99981886 -0.019031921 0
vn 0.9998276 0.01856621 0
vn 1 -0.00010619416 0
vn 0.9998276 0.01856621 0
vn 1 0.00019027755 0
vn 0.9998234 -0.01879271 0
vn 0.9998234 -0.018792707 0
vn 0.0072018905 0.9999337 -0.0089910785
vn -0.033317417 0.99943346 0.004764239
vn -0.034033027 0.99942017 0.001004251
vn 0.006333046 0.99992096 -0.010858035
vn 0.0022152094 0.9991566 -0.04100158
vn -0.0013322934 0.9991744 -0.0406043
vn -0 -1 0
vn 0.014990881 -0.9997713 -0.015251921
vn -0 -1 0
vn 0.0134832 -0.9998005 -0.014740492
vn 0.037312858 -0.99929047 -0.0051279427
vn 0.03803822 -0.9992756 -0.0011210667
vn 0.9956039 0.08893403 -0.029386632
vn 0.9956043 0.08893085 -0.029384632
vn 0.99560404 0.08893329 -0.02938616
vn 0.9956044 0.088930115 -0.029384166
vn 0.0327293 0.04353507 0.99851567
vn 0.032735072 0.043535274 0.9985154
vn 0.032730546 0.043535106 0.99851555
vn 0.03273632 0.04353531 0.9985154
vn -0.99971384 -0.001042677 -0.023896422
vn -0.9997167 -0.0007833411 -0.023786735
vn -0.9997218 -0.0003004083 -0.023582472
vn -0.9997248 0 -0.023455407
vn -0.01518938 0 -0.9998846
vn -0.014991594 -0.00038413884 -0.9998876
vn -0.014699567 -0.0009501845 -0.9998915
vn -0.014520629 -0.0012970179 -0.9998938
vn 0.9999999 0.0006183603 7.990769E-05
vn 0.9999999 0.00061836024 7.990769E-05
vn 0.9999999 0.0006183603 7.9907695E-05
vn 0.9999999 0.00061836024 7.990769E-05
vn 0.9999999 0.0006183603 7.9907695E-05
vn 0.9999999 0.00061836024 7.9907695E-05
vn 0.9999999 0.0006183603 7.9907695E-05
vn -1.8931638E-05 0.011526891 0.9999336
vn -1.893164E-05 0.011526891 0.9999336
vn -1.8931636E-05 0.011526889 0.9999336
vn -1.893164E-05 0.011526891 0.9999336
vn -1.8931638E-05 0.011526891 0.9999336
vn -1.8931636E-05 0.01152689 0.9999336
g cratepart2_0
f 3/3/3 2/2/2 1/1/1
f 6/6/6 5/5/5 4/4/4
f 9/9/9 8/8/8 7/7/7
f 12/12/12 11/11/11 10/10/10
f 15/15/15 14/14/14 13/13/13
f 16/16/16 14/14/14 15/15/15
f 19/19/19 18/18/18 17/17/17
f 20/20/20 19/19/19 17/17/17
f 17/17/17 21/21/21 20/20/20
f 22/22/22 19/19/19 20/20/20
f 23/23/23 19/19/19 22/22/22
f 26/26/26 25/25/25 24/24/24
f 27/27/27 25/25/25 26/26/26
f 27/27/27 26/26/26 28/28/28
f 28/28/28 26/26/26 29/29/29
f 32/32/32 31/31/31 30/30/30
f 33/33/33 31/31/31 32/32/32
f 32/32/32 34/34/34 33/33/33
f 33/33/33 34/34/34 35/35/35
f 38/38/38 37/37/37 36/36/36
f 36/36/36 37/37/37 39/39/39
f 39/39/39 40/40/40 36/36/36
f 36/36/36 40/40/40 41/41/41
f 44/44/44 43/43/43 42/42/42
f 42/42/42 43/43/43 45/45/45
f 42/42/42 45/45/45 46/46/46
f 46/46/46 45/45/45 47/47/47
f 50/50/50 49/49/49 48/48/48
f 51/51/51 49/49/49 50/50/50
f 51/51/51 52/52/52 49/49/49
f 49/49/49 52/52/52 53/53/53
f 56/56/56 55/55/55 54/54/54
f 57/57/57 55/55/55 56/56/56
f 60/60/60 59/59/59 58/58/58
f 61/61/61 59/59/59 60/60/60
f 64/64/64 63/63/63 62/62/62
f 65/65/65 63/63/63 64/64/64
f 68/68/68 67/67/67 66/66/66
f 69/69/69 67/67/67 68/68/68
f 72/72/72 71/71/71 70/70/70
f 70/70/70 71/71/71 73/73/73
f 71/71/71 74/74/74 73/73/73
f 73/73/73 74/74/74 75/75/75
f 78/78/78 77/77/77 76/76/76
f 79/79/79 77/77/77 78/78/78
f 82/82/82 81/81/81 80/80/80
f 83/83/83 81/81/81 82/82/82
f 86/86/86 85/85/85 84/84/84
f 87/87/87 85/85/85 86/86/86
f 88/88/88 87/87/87 86/86/86
f 89/89/89 87/87/87 88/88/88
f 92/92/92 91/91/91 90/90/90
f 90/90/90 91/91/91 93/93/93
f 91/91/91 94/94/94 93/93/93
f 95/95/95 94/94/94 91/91/91
f 98/98/98 97/97/97 96/96/96
f 96/96/96 97/97/97 99/99/99
f 96/96/96 99/99/99 100/100/100
f 100/100/100 99/99/99 101/101/101
f 104/104/104 103/103/103 102/102/102
f 105/105/105 103/103/103 104/104/104
f 105/105/105 106/106/106 103/103/103
f 103/103/103 106/106/106 107/107/107
f 110/110/110 109/109/109 108/108/108
f 111/111/111 109/109/109 110/110/110
f 114/114/114 113/113/113 112/112/112
f 115/115/115 113/113/113 114/114/114
f 118/118/118 117/117/117 116/116/116
f 119/119/119 117/117/117 118/118/118
f 122/122/122 121/121/121 120/120/120
f 123/123/123 121/121/121 122/122/122
f 126/126/126 125/125/125 124/124/124
f 124/124/124 127/127/127 126/126/126
f 127/127/127 128/128/128 126/126/126
f 128/128/128 129/129/129 126/126/126
f 126/126/126 129/129/129 130/130/130
f 133/133/133 132/132/132 131/131/131
f 131/131/131 134/134/134 133/133/133
f 133/133/133 134/134/134 135/135/135
f 135/135/135 136/136/136 133/133/133
