g crest_hen
v -0 0.45359206 0.48466483
v 0.051543128 0.3720018 0.44193307
v 0.046497557 0.33162025 0.4488325
v -0 0.29097825 0.35483143
v 0.053892497 0.2911978 0.4691203
v -0 0.3294349 0.53318167
v -0 0.38643864 0.50067484
v -0 0.45359206 0.48466483
v -0.046497557 0.33162025 0.4488325
v -0.051543128 0.3720018 0.44193307
v -0 0.45359206 0.48466483
v -0.053892497 0.2911978 0.4691203
v -0 0.25554436 0.5293653
v -0 0.2465401 0.36893636
v -0 0.2157051 0.4799594
v -0 0.21599787 0.41517425
v -0 1.0197308 0.4008693
v -0.04521562 0.9790566 0.38310125
v -0 0.98385525 0.31040055
v -0 1.0072525 0.4991372
v -0.045194358 0.9796216 0.48074666
v -0 0.96981704 0.5677687
v -0.06884106 0.9217064 0.4211003
v -0.03184734 0.86784846 0.35524243
v -0 0.78887945 0.50225675
v -0.041114338 0.93070245 0.528025
v -0 0.96981704 0.5677687
v -0 0.9230228 0.2698456
v -0 0.98385525 0.31040055
v 0.04521562 0.9790566 0.38310125
v 0.03184734 0.86784846 0.35524243
v -0 1.0197308 0.4008693
v -0 1.0072525 0.4991372
v 0.045194358 0.9796216 0.48074666
v 0.06884106 0.9217064 0.4211003
v 0.041114338 0.93070245 0.528025
v -0 0.9152238 0.59896475
v -0 0.8372335 0.5693285
v -0 0.7709844 0.4279692
v -0.052865986 0.8066855 0.33996773
v -0.05052023 0.82554615 0.28850734
v 0.052865986 0.8066855 0.33996773
v 0.05052023 0.82554615 0.28850734
v -0 0.86640835 0.2558908
vt 0.47780192 0.8082627
vt 0.51078796 0.75943506
vt 0.50546205 0.7352687
vt 0.5780245 0.71094656
vt 0.4898013 0.711078
vt 0.44035017 0.7339609
vt 0.46544337 0.76807475
vt 0.47780192 0.8082627
vt 0.50546205 0.7352687
vt 0.51078796 0.75943506
vt 0.47780192 0.8082627
vt 0.4898013 0.711078
vt 0.4432962 0.68974113
vt 0.5671364 0.6843525
vt 0.48143423 0.6658994
vt 0.53144395 0.66607463
vt 0.56555486 0.97849065
vt 0.5792707 0.9541492
vt 0.63539064 0.95702106
vt 0.48969877 0.9710229
vt 0.50389504 0.95448726
vt 0.43672 0.9486198
vt 0.54993796 0.91982794
vt 0.6007757 0.88759655
vt 0.48729074 0.84033763
vt 0.46739936 0.9252116
vt 0.43672 0.9486198
vt 0.6666964 0.92061573
vt 0.63539064 0.95702106
vt 0.5792707 0.9541492
vt 0.6007757 0.88759655
vt 0.56555486 0.97849065
vt 0.48969877 0.9710229
vt 0.50389504 0.95448726
vt 0.54993796 0.91982794
vt 0.46739936 0.9252116
vt 0.41263866 0.91594833
vt 0.435516 0.86927515
vt 0.54463565 0.8296284
vt 0.6125667 0.85099375
vt 0.6522907 0.8622809
vt 0.6125667 0.85099375
vt 0.6522907 0.8622809
vt 0.6774684 0.8867348
vn -0 0.15558133 0.987823
vn 0.8645169 0.054716043 0.49961653
vn 0.99259275 0.080636024 0.090871096
vn -0 -0.23040968 -0.97309375
vn 0.99256355 -0.06775933 0.101125285
vn -0 0.37246722 0.92804533
vn -0 0.31791607 0.94811887
vn -0 0.15558133 0.987823
vn -0.99259275 0.08063601 0.09087116
vn -0.86451715 0.05471598 0.4996162
vn -0 0.15558133 0.987823
vn -0.99256355 -0.067759365 0.101125434
vn -0 -0.43930042 0.8983403
vn -0 -0.43873662 -0.89861566
vn -0 -0.95797986 0.2868354
vn -0 -0.9446674 -0.32802954
vn -0 0.9992962 -0.037512384
vn -0.84900266 0.47501147 -0.23142737
vn -0 0.7004432 -0.71370816
vn -0 0.9414958 0.33702463
vn -0.78048337 0.59182936 0.20145395
vn -0 0.70929563 0.7049111
vn -0.97757214 -0.2091652 -0.024548367
vn -0.98639107 -0.1060032 -0.125682
vn -0 -0.937289 0.34855312
vn -0.9307094 -0.0017569745 0.36575505
vn -0 0.70929563 0.7049111
vn -0 0.17448007 -0.9846607
vn -0 0.7004432 -0.71370816
vn 0.84900254 0.4750115 -0.2314275
vn 0.98639095 -0.10600327 -0.1256823
vn -0 0.9992962 -0.037512384
vn -0 0.9414958 0.33702463
vn 0.78048337 0.59182936 0.20145397
vn 0.97757214 -0.2091653 -0.024548708
vn 0.93070954 -0.0017569377 0.365755
vn -0 -0.07975401 0.99681455
vn -0 -0.6874912 0.7261927
vn -0 -0.7720852 0.6355191
vn -0.889597 0.20360328 0.4088555
vn -0.7925313 0.5904501 -0.1525213
vn 0.8895971 0.20360328 0.4088553
vn 0.7925314 0.59045 -0.15252155
vn -0 0.75207597 -0.65907645
g crest_hen_0
f 3/3/3 2/2/2 1/1/1
f 3/3/3 4/4/4 2/2/2
f 3/3/3 5/5/5 4/4/4
f 6/6/6 5/5/5 3/3/3
f 7/7/7 6/6/6 3/3/3
f 7/7/7 3/3/3 8/8/8
f 9/9/9 7/7/7 8/8/8
f 6/6/6 7/7/7 9/9/9
f 4/4/4 9/9/9 10/10/10
f 10/10/10 9/9/9 11/11/11
f 12/12/12 6/6/6 9/9/9
f 12/12/12 9/9/9 4/4/4
f 6/6/6 13/13/13 5/5/5
f 13/13/13 6/6/6 12/12/12
f 5/5/5 14/14/14 4/4/4
f 14/14/14 12/12/12 4/4/4
f 13/13/13 15/15/15 5/5/5
f 15/15/15 13/13/13 12/12/12
f 5/5/5 16/16/16 14/14/14
f 16/16/16 12/12/12 14/14/14
f 5/5/5 15/15/15 16/16/16
f 15/15/15 12/12/12 16/16/16
f 19/19/19 18/18/18 17/17/17
f 17/17/17 18/18/18 20/20/20
f 18/18/18 21/21/21 20/20/20
f 20/20/20 21/21/21 22/22/22
f 23/23/23 21/21/21 18/18/18
f 18/18/18 24/24/24 23/23/23
f 23/23/23 24/24/24 25/25/25
f 23/23/23 26/26/26 21/21/21
f 25/25/25 26/26/26 23/23/23
f 21/21/21 26/26/26 27/27/27
f 28/28/28 24/24/24 18/18/18
f 29/29/29 28/28/28 18/18/18
f 28/28/28 29/29/29 30/30/30
f 31/31/31 28/28/28 30/30/30
f 30/30/30 29/29/29 32/32/32
f 30/30/30 32/32/32 33/33/33
f 34/34/34 30/30/30 33/33/33
f 34/34/34 33/33/33 27/27/27
f 34/34/34 35/35/35 30/30/30
f 31/31/31 30/30/30 35/35/35
f 31/31/31 35/35/35 25/25/25
f 36/36/36 35/35/35 34/34/34
f 36/36/36 34/34/34 27/27/27
f 36/36/36 25/25/25 35/35/35
f 27/27/27 26/26/26 37/37/37
f 36/36/36 27/27/27 37/37/37
f 37/37/37 26/26/26 38/38/38
f 36/36/36 37/37/37 38/38/38
f 36/36/36 38/38/38 25/25/25
f 38/38/38 26/26/26 25/25/25
f 25/25/25 24/24/24 39/39/39
f 31/31/31 25/25/25 39/39/39
f 39/39/39 24/24/24 40/40/40
f 40/40/40 24/24/24 41/41/41
f 31/31/31 39/39/39 42/42/42
f 31/31/31 42/42/42 43/43/43
f 41/41/41 24/24/24 44/44/44
f 31/31/31 43/43/43 44/44/44
f 24/24/24 28/28/28 44/44/44
f 28/28/28 31/31/31 44/44/44
