g crest_roost
v -0 0.19160324 0.30644998
v -0 0.09274427 0.2524412
v 0.049170136 0.21565054 0.36787212
v 0.09570274 0.30372703 0.32059237
v -0 0.19160324 0.30644998
v 0.059936497 0.26571795 0.4030653
v 0.079747744 0.37471503 0.42136878
v 0.051543124 0.3720018 0.44193307
v -0 0.18400279 0.398501
v 0.046572585 0.22883616 0.44826603
v -0 0.12386997 0.3294221
v -0 0.09274427 0.2524412
v -0.049170136 0.21565054 0.36787212
v -0.09570274 0.30372703 0.32059237
v -0.059936497 0.26571795 0.4030653
v -0.079747744 0.37471503 0.42136878
v -0.046572585 0.22883616 0.44826603
v -0.051543124 0.3720018 0.44193307
v 0.03592038 0.22696541 0.48336813
v -0 0.15764637 0.46175647
v -0.03592038 0.22696541 0.48336813
v -0 0.23249863 0.51236075
v -0 0.3073509 0.4881129
v -0 0.3843117 0.47862458
v -0 0.45178413 0.48705864
v 0.0316548 0.1507434 0.49361634
v -0 0.14394103 0.5250119
v -0 0.15764637 0.46175647
v -0 0.029026978 0.46386495
v -0 0.0754143 0.504981
v -0 0.029026978 0.46386495
v -0.0316548 0.1507434 0.49361634
v -0 0.14394103 0.5250119
v -0 0.23249863 0.51236075
v -0.038543276 0.17021582 0.4305848
v -0 0.0816796 0.4169154
v -0 0.15764637 0.46175647
v -0 0.029026978 0.46386495
v -0 0.3073509 0.4881129
v -0 0.3843117 0.47862458
v -0 0.45178413 0.48705864
v -0 0.0816796 0.4169154
v 0.038543276 0.17021582 0.4305848
v -0 0.18400279 0.398501
v -0.038543276 0.17021582 0.4305848
v -0 0.031055162 0.34651107
v -0 0.031055162 0.34651107
v -0 0.0816796 0.4169154
v 0.038543276 0.17021582 0.4305848
v -0 0.18400279 0.398501
v -0 0.031055162 0.34651107
v -0 1.2236388 0.2939956
v -0 1.0925096 0.29082087
v 0.029434321 1.0897216 0.31766078
v 0.029434321 1.0897216 0.31766078
v -0 1.0761465 0.26620674
v 0.04698693 1.0630195 0.3218578
v 0.051986963 1.0169041 0.27397195
v 0.070434764 1.0001013 0.36134866
v -0 0.95218134 0.2838473
v 0.037733097 0.8869601 0.38823375
v -0 0.98279774 0.23047483
v 0.04429463 1.0149194 0.2043223
v -0 1.047623 0.17769602
v 0.025889965 1.0157013 0.13344122
v -0 0.98279774 0.23047483
v -0 1.0361713 0.1300881
v -0 1.0336045 0.039977096
v 0.08555073 0.93064815 0.42632037
v 0.047007073 1.0063355 0.42556638
v -0 1.0509858 0.37287378
v 0.070434764 1.0001013 0.36134866
v 0.029434321 1.0897216 0.31766078
v -0 1.0869492 0.34434924
v -0 1.2236388 0.2939956
v 0.047816936 0.8402229 0.44539168
v 0.0474412 0.9081588 0.48504525
v 0.05635397 0.7533988 0.414594
v 0.052865986 0.8066855 0.33996773
v 0.050520215 0.8255459 0.28850722
v -0 0.9025477 0.28880945
v -0 0.86640835 0.2558908
v -0.050520215 0.8255459 0.28850722
v -0.037733097 0.8869601 0.38823375
v -0.052865986 0.8066855 0.33996773
v -0.05635397 0.7533988 0.414594
v 0.06103279 0.77721965 0.45567593
v -0 0.799871 0.49474078
v 0.04282252 0.75133586 0.4861364
v -0 0.7045134 0.47783569
v -0 0.7162485 0.5258352
v -0.04282252 0.75133586 0.4861364
v -0 0.76083297 0.5439816
v -0 0.799871 0.49474078
v -0 0.799871 0.49474078
v -0 0.8566108 0.49183294
v -0.047816936 0.8402229 0.44539168
v -0.06103279 0.77721965 0.45567593
v -0 0.799871 0.49474078
v 0.029434321 0.9300644 0.5236629
v -0 0.9037224 0.5377349
v -0 0.9969364 0.57971615
v -0 0.9619348 0.47796422
v -0.08555073 0.93064815 0.42632037
v -0.070434764 1.0001013 0.36134866
v -0.051986963 1.0169041 0.27397195
v -0 0.98279774 0.23047483
v -0.04429463 1.0149194 0.2043223
v -0.0474412 0.9081588 0.48504525
v -0.047007073 1.0063355 0.42556638
v -0 0.8566108 0.49183294
v -0.029434321 0.9300644 0.5236629
v -0 0.9037224 0.5377349
v -0 0.9969364 0.57971615
v -0 0.9604703 0.50741994
v -0 0.9619348 0.47796422
v -0 0.9619348 0.47796422
v -0 1.0509858 0.37287378
v -0.08555073 0.93064815 0.42632037
v -0 0.9619348 0.47796422
v -0.029809488 1.0484272 0.43196893
v -0 1.0509858 0.37287378
v -0 1.0419599 0.45348644
v -0 1.1798764 0.4543456
v -0 1.0569695 0.4035486
v -0 1.1798764 0.4543456
v -0 1.0569695 0.4035486
v 0.029809488 1.0484272 0.43196893
v -0 1.0419599 0.45348644
v -0 1.1798764 0.4543456
v -0 0.9619348 0.47796422
v -0 1.0509858 0.37287378
v 0.08555073 0.93064815 0.42632037
v -0.070434764 1.0001013 0.36134866
v -0.04698693 1.0630195 0.3218578
v -0.029434321 1.0897216 0.31766078
v -0 1.0869492 0.34434924
v -0 1.2236388 0.2939956
v -0 1.0761465 0.26620674
v -0.029434321 1.0897216 0.31766078
v -0 1.0925096 0.29082087
v -0 1.2236388 0.2939956
v -0.029434321 1.0897216 0.31766078
v -0.038308572 1.061685 0.22133127
v -0.028956966 1.0858479 0.198083
v -0 1.0761465 0.26620674
v -0.028956966 1.0858479 0.198083
v -0 1.0989321 0.22147065
v -0 1.1743942 0.14345944
v -0 1.0769278 0.18213882
v 0.028956966 1.0858479 0.198083
v -0 1.047623 0.17769602
v -0 1.047623 0.17769602
v -0.025889965 1.0157013 0.13344122
v -0 0.98279774 0.23047483
v -0 1.0361713 0.1300881
v -0 1.0336045 0.039977096
v -0 1.0336045 0.039977096
v -0 0.9961021 0.1366517
v -0 0.98279774 0.23047483
v 0.028956966 1.0858479 0.198083
v 0.038308572 1.061685 0.22133127
v -0 1.0761465 0.26620674
v 0.028956966 1.0858479 0.198083
v -0 1.0989321 0.22147065
v -0 1.1743942 0.14345944
v -0.028956966 1.0858479 0.198083
v -0 1.0769278 0.18213882
v -0 1.047623 0.17769602
v -0 0.19160324 0.30644998
v -0 0.09274427 0.2524412
v -0 1.0336045 0.039977096
v -0 0.9961021 0.1366517
v -0 0.98279774 0.23047483
vt 0.92777157 0.20735188
vt 0.97658336 0.1142527
vt 0.8722598 0.22999813
vt 0.9149904 0.31294286
vt 0.92777157 0.20735188
vt 0.8404525 0.27714837
vt 0.8239109 0.37979507
vt 0.8053262 0.37723988
vt 0.8445782 0.20019421
vt 0.7996019 0.24241549
vt 0.9070101 0.14356486
vt 0.97658336 0.1142527
vt 0.8722598 0.22999813
vt 0.9149904 0.31294286
vt 0.8404525 0.27714837
vt 0.8239109 0.37979507
vt 0.7996019 0.24241549
vt 0.8053262 0.37723988
vt 0.7678778 0.24065377
vt 0.7874098 0.17537342
vt 0.7678778 0.24065377
vt 0.74167484 0.24586461
vt 0.7635896 0.3163557
vt 0.7721648 0.3888325
vt 0.764542 0.45237386
vt 0.7586158 0.16887262
vt 0.7302411 0.16246654
vt 0.7874098 0.17537342
vt 0.785504 0.054247648
vt 0.74834436 0.0979324
vt 0.785504 0.054247648
vt 0.7586158 0.16887262
vt 0.7302411 0.16246654
vt 0.74167484 0.24586461
vt 0.8155815 0.18721052
vt 0.8279361 0.10383268
vt 0.7874098 0.17537342
vt 0.785504 0.054247648
vt 0.7635896 0.3163557
vt 0.7721648 0.3888325
vt 0.764542 0.45237386
vt 0.8279361 0.10383268
vt 0.8155815 0.18721052
vt 0.8445782 0.20019421
vt 0.8155815 0.18721052
vt 0.8915654 0.056157768
vt 0.8915654 0.056157768
vt 0.8279361 0.10383268
vt 0.8155815 0.18721052
vt 0.8445782 0.20019421
vt 0.8915654 0.056157768
vt 0.7045089 0.9327878
vt 0.78056407 0.8438199
vt 0.7643226 0.82736576
vt 0.7643226 0.82736576
vt 0.80612814 0.84582436
vt 0.7765951 0.80662787
vt 0.834383 0.800651
vt 0.78586686 0.74174225
vt 0.864328 0.7505455
vt 0.8318274 0.6489457
vt 0.8824862 0.80060434
vt 0.88172853 0.8369726
vt 0.88095784 0.8739999
vt 0.9283316 0.87587434
vt 0.8824862 0.80060434
vt 0.9190136 0.89184576
vt 0.9802681 0.9388389
vt 0.78191155 0.6585468
vt 0.7397295 0.71129894
vt 0.74952203 0.7706955
vt 0.78586686 0.74174225
vt 0.7643226 0.82736576
vt 0.7481731 0.8110047
vt 0.7045089 0.9327878
vt 0.8202479 0.5856892
vt 0.7556184 0.6112119
vt 0.8896518 0.54231143
vt 0.90913093 0.6195509
vt 0.9326495 0.660445
vt 0.88902485 0.7135341
vt 0.931253 0.7063565
vt 0.9326495 0.660445
vt 0.8318274 0.6489457
vt 0.90913093 0.6195509
vt 0.8896518 0.54231143
vt 0.84895235 0.5365518
vt 0.810251 0.5310751
vt 0.8433322 0.5021658
vt 0.87524617 0.4742765
vt 0.836771 0.45641533
vt 0.8433322 0.5021658
vt 0.7995846 0.47742805
vt 0.810251 0.5310751
vt 0.810251 0.5310751
vt 0.78018326 0.5718889
vt 0.8202479 0.5856892
vt 0.84895235 0.5365518
vt 0.810251 0.5310751
vt 0.717635 0.6054616
vt 0.7231502 0.5796279
vt 0.642721 0.62137306
vt 0.7299923 0.6522347
vt 0.78191155 0.6585468
vt 0.78586686 0.74174225
vt 0.834383 0.800651
vt 0.8824862 0.80060434
vt 0.88172853 0.8369726
vt 0.7556184 0.6112119
vt 0.7397295 0.71129894
vt 0.78018326 0.5718889
vt 0.717635 0.6054616
vt 0.7231502 0.5796279
vt 0.642721 0.62137306
vt 0.7112681 0.6352805
vt 0.7299923 0.6522347
vt 0.7299923 0.6522347
vt 0.74952203 0.7706955
vt 0.78191155 0.6585468
vt 0.7299923 0.6522347
vt 0.71174353 0.73694384
vt 0.74952203 0.7706955
vt 0.7011093 0.72082615
vt 0.62276375 0.8157413
vt 0.72578907 0.758233
vt 0.62276375 0.8157413
vt 0.72578907 0.758233
vt 0.71174353 0.73694384
vt 0.7011093 0.72082615
vt 0.62276375 0.8157413
vt 0.7299923 0.6522347
vt 0.74952203 0.7706955
vt 0.78191155 0.6585468
vt 0.78586686 0.74174225
vt 0.7765951 0.80662787
vt 0.7643226 0.82736576
vt 0.7481731 0.8110047
vt 0.7045089 0.9327878
vt 0.80612814 0.84582436
vt 0.7643226 0.82736576
vt 0.78056407 0.8438199
vt 0.7045089 0.9327878
vt 0.7643226 0.82736576
vt 0.8440675 0.86010957
vt 0.8458714 0.8894025
vt 0.80612814 0.84582436
vt 0.8458714 0.8894025
vt 0.82296985 0.8857937
vt 0.8321908 0.98020166
vt 0.8614836 0.89186245
vt 0.8458714 0.8894025
vt 0.88095784 0.8739999
vt 0.88095784 0.8739999
vt 0.9283316 0.87587434
vt 0.8824862 0.80060434
vt 0.9190136 0.89184576
vt 0.9802681 0.9388389
vt 0.9802681 0.9388389
vt 0.937254 0.86058277
vt 0.8824862 0.80060434
vt 0.8458714 0.8894025
vt 0.8440675 0.86010957
vt 0.80612814 0.84582436
vt 0.8458714 0.8894025
vt 0.82296985 0.8857937
vt 0.8321908 0.98020166
vt 0.8458714 0.8894025
vt 0.8614836 0.89186245
vt 0.88095784 0.8739999
vt 0.92777157 0.20735188
vt 0.97658336 0.1142527
vt 0.9802681 0.9388389
vt 0.937254 0.86058277
vt 0.8824862 0.80060434
vn -0 0.121653855 -0.99257255
vn -0 -0.6625037 -0.7490587
vn 0.85807896 -0.5132025 0.017990787
vn 0.9250665 -0.3603072 0.120128445
vn -0 0.121653855 -0.99257255
vn 0.9307026 -0.25861892 0.25866768
vn 0.8290551 -0.23582804 0.5070038
vn 0.66929257 0.005064227 0.7429817
vn -0 -0.6422925 -0.76645964
vn 0.96140736 -0.25445324 0.1046402
vn -0 -0.89493597 0.44619453
vn -0 -0.6625037 -0.7490587
vn -0.85807896 -0.5132025 0.017990766
vn -0.9250665 -0.36030707 0.120128304
vn -0.9307026 -0.25861883 0.25866774
vn -0.8290551 -0.235828 0.50700384
vn -0.96140736 -0.25445312 0.10464025
vn -0.6692926 0.0050641913 0.7429816
vn 0.7545466 0.058168773 0.6536635
vn -0 -0.8900525 -0.45585805
vn -0.75454664 0.05816875 0.6536634
vn -0 0.19426909 0.9809483
vn -0 0.2289763 0.97343206
vn -0 -0.0072377822 0.9999739
vn -0 -0.12403479 0.99227786
vn 0.9814377 -0.03148224 0.18917958
vn -0 -0.010555257 0.9999443
vn -0 -0.8900525 -0.45585805
vn -0 -0.7461273 -0.66580325
vn -0 -0.5846183 0.81130844
vn -0 -0.7461273 -0.66580325
vn -0.9814377 -0.03148221 0.18917967
vn -0 -0.010555257 0.9999443
vn -0 0.19426909 0.9809483
vn -0.98103654 -0.06731262 -0.18175901
vn -0 -0.762243 0.64729106
vn -0 -0.8900525 -0.45585805
vn -0 -0.7461273 -0.66580325
vn -0 0.2289763 0.97343206
vn -0 -0.0072377822 0.9999739
vn -0 -0.12403479 0.99227786
vn -0 -0.762243 0.64729106
vn 0.98103654 -0.06731266 -0.18175882
vn -0 -0.6422925 -0.76645964
vn -0.98103654 -0.06731262 -0.18175901
vn -0 -0.5444072 -0.83882105
vn -0 -0.5444072 -0.83882105
vn -0 -0.762243 0.64729106
vn 0.98103654 -0.06731266 -0.18175882
vn -0 -0.6422925 -0.76645964
vn -0 -0.5444072 -0.83882105
vn -0 0.9998367 -0.018073663
vn -0 0.33281595 -0.9429918
vn 0.8805313 0.44984755 0.14933775
vn 0.8805313 0.44984755 0.14933775
vn -0 0.9988937 -0.047026232
vn 0.81922674 0.5605688 0.12095532
vn 0.94566154 -0.18427964 -0.26789054
vn 0.97943807 0.0108488295 -0.20145312
vn -0 -0.7074844 -0.70672894
vn 0.9308597 -0.086947784 -0.35488054
vn -0 -0.9719193 -0.23531449
vn 0.94196105 -0.28329292 -0.18015124
vn -0 0.8278227 -0.5609899
vn 0.94292575 -0.21404822 -0.25509676
vn -0 -0.9719193 -0.23531449
vn -0 0.9891355 -0.14700659
vn -0 -0.011211867 -0.9999372
vn 0.99564123 -0.044732682 0.08183776
vn 0.7333333 0.446912 0.5123397
vn -0 0.9091978 0.4163644
vn 0.97943807 0.0108488295 -0.20145312
vn 0.8805313 0.44984755 0.14933775
vn -0 0.49438906 0.86924076
vn -0 0.9998367 -0.018073663
vn 0.96344316 -0.06412871 0.26012468
vn 0.8114197 -0.030829212 0.58365023
vn 0.9975604 -0.0673746 0.018275825
vn 0.9862558 0.15907878 0.04464652
vn 0.87706846 0.43833718 -0.19649833
vn -0 0.69701976 -0.717052
vn -0 0.6733962 -0.73928183
vn -0.87706834 0.43833718 -0.19649842
vn -0.9308598 -0.086947836 -0.35488042
vn -0.9862558 0.15907884 0.044646665
vn -0.9975604 -0.067374535 0.018275972
vn 0.9157151 0.12436259 0.3820991
vn -0 0.4360921 0.89990205
vn 0.87261736 -0.23648523 0.4273331
vn -0 -0.9791174 0.20329565
vn -0 -0.7334352 0.6797593
vn -0.8726175 -0.23648532 0.427333
vn -0 0.30299327 0.95299274
vn -0 0.4360921 0.89990205
vn -0 0.4360921 0.89990205
vn -0 -0.4333475 0.901227
vn -0.96344316 -0.064128675 0.26012468
vn -0.9157151 0.12436252 0.3820993
vn -0 0.4360921 0.89990205
vn 0.90585005 -0.003317781 0.4235855
vn -0 -0.6030248 0.7977225
vn -0 0.68653464 0.72709703
vn -0 0.63830304 0.7697851
vn -0.99564123 -0.044732653 0.08183755
vn -0.97943807 0.0108487345 -0.20145296
vn -0.94566154 -0.18427968 -0.26789016
vn -0 -0.9719193 -0.23531449
vn -0.941961 -0.28329292 -0.18015136
vn -0.8114199 -0.030829214 0.58364993
vn -0.7333334 0.44691208 0.5123394
vn -0 -0.4333475 0.901227
vn -0.9058501 -0.0033177051 0.4235852
vn -0 -0.6030248 0.7977225
vn -0 0.68653464 0.72709703
vn -0 0.98172176 -0.19032155
vn -0 0.63830304 0.7697851
vn -0 0.63830304 0.7697851
vn -0 0.9091978 0.4163644
vn -0.99564123 -0.044732653 0.08183755
vn -0 0.63830304 0.7697851
vn -0.89191353 0.33507025 0.3036745
vn -0 0.9091978 0.4163644
vn -0 0.15902916 0.9872738
vn -0 0.9987992 -0.04899244
vn -0 0.63246834 -0.7745862
vn -0 0.9987992 -0.04899244
vn -0 0.63246834 -0.7745862
vn 0.8919136 0.33507034 0.30367434
vn -0 0.15902916 0.9872738
vn -0 0.9987992 -0.04899244
vn -0 0.63830304 0.7697851
vn -0 0.9091978 0.4163644
vn 0.99564123 -0.044732682 0.08183776
vn -0.97943807 0.0108487345 -0.20145296
vn -0.8192268 0.5605687 0.12095577
vn -0.88053143 0.44984725 0.14933787
vn -0 0.49438906 0.86924076
vn -0 0.9998367 -0.018073663
vn -0 0.9988937 -0.047026232
vn -0.88053143 0.44984725 0.14933787
vn -0 0.33281595 -0.9429918
vn -0 0.9998367 -0.018073663
vn -0.88053143 0.44984725 0.14933787
vn -0.9558551 0.27738768 -0.09693888
vn -0.9291917 0.34412166 -0.13484442
vn -0 0.9988937 -0.047026232
vn -0.9291917 0.34412166 -0.13484442
vn -0 0.8146414 0.5799649
vn -0 0.97457945 -0.2240424
vn -0 -0.286823 -0.95798355
vn 0.9291917 0.34412187 -0.13484454
vn -0 0.8278227 -0.5609899
vn -0 0.8278227 -0.5609899
vn -0.94292575 -0.21404822 -0.25509682
vn -0 -0.9719193 -0.23531449
vn -0 0.9891355 -0.14700659
vn -0 -0.011211867 -0.9999372
vn -0 -0.011211867 -0.9999372
vn -0 -0.97817683 -0.207774
vn -0 -0.9719193 -0.23531449
vn 0.9291917 0.34412187 -0.13484454
vn 0.95585495 0.27738798 -0.09693975
vn -0 0.9988937 -0.047026232
vn 0.9291917 0.34412187 -0.13484454
vn -0 0.8146414 0.5799649
vn -0 0.97457945 -0.2240424
vn -0.9291917 0.34412166 -0.13484442
vn -0 -0.286823 -0.95798355
vn -0 0.8278227 -0.5609899
vn -0 0.121653855 -0.99257255
vn -0 -0.6625037 -0.7490587
vn -0 -0.011211867 -0.9999372
vn -0 -0.97817683 -0.207774
vn -0 -0.9719193 -0.23531449
g crest_roost_0
f 3/3/3 2/2/2 1/1/1
f 3/3/3 5/5/5 4/4/4
f 6/6/6 3/3/3 4/4/4
f 6/6/6 4/4/4 7/7/7
f 6/6/6 7/7/7 8/8/8
f 9/9/9 3/3/3 6/6/6
f 10/10/10 6/6/6 8/8/8
f 10/10/10 9/9/9 6/6/6
f 3/3/3 9/9/9 11/11/11
f 3/3/3 11/11/11 12/12/12
f 11/11/11 13/13/13 12/12/12
f 9/9/9 13/13/13 11/11/11
f 5/5/5 13/13/13 14/14/14
f 13/13/13 9/9/9 15/15/15
f 13/13/13 15/15/15 14/14/14
f 14/14/14 15/15/15 16/16/16
f 9/9/9 17/17/17 15/15/15
f 16/16/16 15/15/15 18/18/18
f 15/15/15 17/17/17 18/18/18
f 19/19/19 10/10/10 8/8/8
f 10/10/10 19/19/19 20/20/20
f 21/21/21 17/17/17 20/20/20
f 17/17/17 21/21/21 18/18/18
f 22/22/22 19/19/19 8/8/8
f 23/23/23 22/22/22 8/8/8
f 24/24/24 23/23/23 8/8/8
f 24/24/24 8/8/8 25/25/25
f 19/19/19 22/22/22 26/26/26
f 22/22/22 27/27/27 26/26/26
f 19/19/19 26/26/26 28/28/28
f 26/26/26 29/29/29 28/28/28
f 26/26/26 27/27/27 30/30/30
f 26/26/26 30/30/30 31/31/31
f 30/30/30 32/32/32 31/31/31
f 33/33/33 32/32/32 30/30/30
f 33/33/33 34/34/34 32/32/32
f 28/28/28 17/17/17 35/35/35
f 28/28/28 35/35/35 36/36/36
f 34/34/34 21/21/21 32/32/32
f 32/32/32 21/21/21 37/37/37
f 38/38/38 32/32/32 37/37/37
f 21/21/21 34/34/34 18/18/18
f 34/34/34 39/39/39 18/18/18
f 39/39/39 40/40/40 18/18/18
f 18/18/18 40/40/40 41/41/41
f 43/43/43 37/37/37 42/42/42
f 10/10/10 37/37/37 43/43/43
f 45/45/45 17/17/17 44/44/44
f 46/46/46 45/45/45 44/44/44
f 48/48/48 45/45/45 47/47/47
f 49/49/49 48/48/48 47/47/47
f 10/10/10 49/49/49 50/50/50
f 49/49/49 51/51/51 50/50/50
f 54/54/54 53/53/53 52/52/52
f 56/56/56 53/53/53 55/55/55
f 57/57/57 56/56/56 55/55/55
f 58/58/58 56/56/56 57/57/57
f 58/58/58 57/57/57 59/59/59
f 60/60/60 58/58/58 59/59/59
f 61/61/61 60/60/60 59/59/59
f 60/60/60 62/62/62 58/58/58
f 62/62/62 63/63/63 58/58/58
f 63/63/63 64/64/64 58/58/58
f 63/63/63 65/65/65 64/64/64
f 63/63/63 66/66/66 65/65/65
f 65/65/65 67/67/67 64/64/64
f 65/65/65 68/68/68 67/67/67
f 61/61/61 59/59/59 69/69/69
f 59/59/59 70/70/70 69/69/69
f 59/59/59 71/71/71 70/70/70
f 57/57/57 71/71/71 72/72/72
f 57/57/57 73/73/73 71/71/71
f 73/73/73 74/74/74 71/71/71
f 73/73/73 75/75/75 74/74/74
f 76/76/76 61/61/61 69/69/69
f 76/76/76 69/69/69 77/77/77
f 78/78/78 61/61/61 76/76/76
f 78/78/78 79/79/79 61/61/61
f 79/79/79 80/80/80 61/61/61
f 80/80/80 81/81/81 61/61/61
f 80/80/80 82/82/82 81/81/81
f 82/82/82 83/83/83 81/81/81
f 81/81/81 83/83/83 84/84/84
f 61/61/61 81/81/81 60/60/60
f 81/81/81 84/84/84 60/60/60
f 83/83/83 85/85/85 84/84/84
f 85/85/85 86/86/86 84/84/84
f 87/87/87 78/78/78 76/76/76
f 87/87/87 76/76/76 88/88/88
f 87/87/87 88/88/88 89/89/89
f 78/78/78 87/87/87 89/89/89
f 78/78/78 89/89/89 90/90/90
f 89/89/89 91/91/91 90/90/90
f 91/91/91 92/92/92 90/90/90
f 92/92/92 86/86/86 90/90/90
f 89/89/89 93/93/93 91/91/91
f 93/93/93 92/92/92 91/91/91
f 89/89/89 94/94/94 93/93/93
f 95/95/95 92/92/92 93/93/93
f 76/76/76 96/96/96 94/94/94
f 96/96/96 97/97/97 95/95/95
f 84/84/84 86/86/86 97/97/97
f 76/76/76 77/77/77 96/96/96
f 98/98/98 86/86/86 92/92/92
f 86/86/86 98/98/98 97/97/97
f 99/99/99 98/98/98 92/92/92
f 97/97/97 98/98/98 99/99/99
f 77/77/77 100/100/100 96/96/96
f 100/100/100 101/101/101 96/96/96
f 100/100/100 102/102/102 101/101/101
f 77/77/77 103/103/103 100/100/100
f 84/84/84 97/97/97 104/104/104
f 105/105/105 84/84/84 104/104/104
f 60/60/60 84/84/84 105/105/105
f 106/106/106 60/60/60 105/105/105
f 107/107/107 60/60/60 106/106/106
f 108/108/108 107/107/107 106/106/106
f 104/104/104 97/97/97 109/109/109
f 110/110/110 105/105/105 104/104/104
f 109/109/109 97/97/97 111/111/111
f 103/103/103 109/109/109 112/112/112
f 112/112/112 109/109/109 111/111/111
f 113/113/113 112/112/112 111/111/111
f 114/114/114 112/112/112 113/113/113
f 115/115/115 112/112/112 114/114/114
f 115/115/115 116/116/116 112/112/112
f 100/100/100 115/115/115 114/114/114
f 117/117/117 115/115/115 100/100/100
f 118/118/118 105/105/105 110/110/110
f 120/120/120 119/119/119 109/109/109
f 120/120/120 110/110/110 119/119/119
f 121/121/121 110/110/110 120/120/120
f 122/122/122 110/110/110 121/121/121
f 123/123/123 121/121/121 120/120/120
f 124/124/124 121/121/121 123/123/123
f 125/125/125 118/118/118 121/121/121
f 125/125/125 121/121/121 126/126/126
f 128/128/128 127/127/127 126/126/126
f 71/71/71 127/127/127 128/128/128
f 128/128/128 130/130/130 129/129/129
f 128/128/128 129/129/129 131/131/131
f 70/70/70 128/128/128 131/131/131
f 70/70/70 132/132/132 128/128/128
f 70/70/70 131/131/131 133/133/133
f 133/133/133 131/131/131 77/77/77
f 118/118/118 135/135/135 134/134/134
f 136/136/136 135/135/135 118/118/118
f 137/137/137 136/136/136 118/118/118
f 138/138/138 136/136/136 137/137/137
f 135/135/135 106/106/106 105/105/105
f 139/139/139 106/106/106 135/135/135
f 139/139/139 135/135/135 140/140/140
f 141/141/141 139/139/139 140/140/140
f 141/141/141 143/143/143 142/142/142
f 144/144/144 64/64/64 106/106/106
f 64/64/64 144/144/144 145/145/145
f 144/144/144 106/106/106 146/146/146
f 147/147/147 144/144/144 146/146/146
f 148/148/148 147/147/147 146/146/146
f 149/149/149 147/147/147 148/148/148
f 151/151/151 150/150/150 149/149/149
f 152/152/152 150/150/150 151/151/151
f 153/153/153 108/108/108 106/106/106
f 154/154/154 108/108/108 153/153/153
f 155/155/155 108/108/108 154/154/154
f 156/156/156 154/154/154 153/153/153
f 157/157/157 154/154/154 156/156/156
f 159/159/159 154/154/154 158/158/158
f 159/159/159 160/160/160 154/154/154
f 162/162/162 153/153/153 161/161/161
f 153/153/153 162/162/162 58/58/58
f 58/58/58 162/162/162 163/163/163
f 162/162/162 164/164/164 163/163/163
f 164/164/164 165/165/165 163/163/163
f 164/164/164 166/166/166 165/165/165
f 168/168/168 167/167/167 166/166/166
f 168/168/168 169/169/169 167/167/167
f 171/171/171 13/13/13 170/170/170
f 65/65/65 173/173/173 172/172/172
f 174/174/174 173/173/173 65/65/65
