g crystalShard_03
v -0.11954248 -0.008801699 -0.14842013
v -0.007009268 -0.1512934 -0.010586992
v 0.029935718 0.0074112415 -0.1721389
v -0.18175745 0.0038387775 -0.042829674
v 0.13703889 0.015867352 -0.059234027
v -0.17445749 -0.0050427318 0.06437196
v 0.13872659 -0.017117321 0.04907318
v -0.095942974 -0.01857084 0.1615245
v 0.06860161 -0.000893116 0.16483852
v -0.004794836 0.003063202 0.1823002
v -0.061774075 0.120755434 0.1434297
v -0.095942974 -0.01857084 0.1615245
v -0.17445749 -0.0050427318 0.06437196
v -0.004794836 0.003063202 0.1823002
v -0.15319765 0.11190158 0.06782381
v -0.18175745 0.0038387775 -0.042829674
v 0.058724463 0.13416135 0.12925847
v 0.06860161 -0.000893116 0.16483852
v -0.15764308 0.10273188 -0.04467547
v -0.11954248 -0.008801699 -0.14842013
v 0.11540604 0.12762964 0.032196462
v 0.13872659 -0.017117321 0.04907318
v -0.089061916 0.11354375 -0.13129473
v 0.029935718 0.0074112415 -0.1721389
v 0.09847903 0.12370288 -0.07034411
v 0.13703889 0.015867352 -0.059234027
v 0.011369526 0.11834383 -0.14408101
v -0.04211694 0.36527592 0.06858942
v 0.026569545 0.36060375 0.038536645
v -0.019902587 0.6555494 -0.0448232
v -0.101115346 0.35103542 0.025100946
v 0.060963094 0.34622544 -0.015954621
v -0.10448319 0.3492685 -0.035320245
v 0.04545057 0.35497302 -0.062406387
v -0.063892424 0.34052807 -0.09268232
v -0.011115968 0.3448909 -0.11069399
vt 0.46631294 0.608111
vt 0.42536604 0.69305664
vt 0.5026197 0.7055482
vt 0.39799625 0.5985416
vt 0.4584213 0.7598477
vt 0.3792416 0.60855633
vt 0.40880516 0.7637737
vt 0.34412375 0.6604189
vt 0.35799623 0.74860585
vt 0.33128363 0.69305664
vt 0.7015704 0.35015887
vt 0.69148695 0.3106563
vt 0.6336595 0.30897796
vt 0.7169463 0.346233
vt 0.646773 0.32704064
vt 0.6070664 0.32417396
vt 0.7119591 0.39348277
vt 0.73320186 0.37588626
vt 0.6065451 0.35196692
vt 0.5618658 0.41390622
vt 0.6895957 0.43823007
vt 0.7106213 0.45473224
vt 0.5908053 0.39861757
vt 0.6095258 0.47044364
vt 0.6504629 0.45598152
vt 0.6638855 0.48031402
vt 0.6069719 0.44008067
vt 0.67804056 0.3654724
vt 0.6814529 0.39879727
vt 0.6460835 0.39644417
vt 0.65063035 0.35334957
vt 0.6691427 0.4249615
vt 0.6289915 0.36629665
vt 0.6502013 0.42989165
vt 0.6170887 0.39546886
vt 0.6217136 0.41978413
vn -0.33334863 -0.778161 -0.53230083
vn 0.06423727 -0.98848957 -0.13697438
vn 0.28695846 -0.7153535 -0.6371218
vn -0.6412476 -0.75300646 -0.14758986
vn 0.63666254 -0.66316265 -0.3935431
vn -0.6057738 -0.7782824 0.16527124
vn 0.63737804 -0.75677884 0.14503476
vn -0.2746312 -0.8248487 0.49416843
vn 0.32681718 -0.78248936 0.53000087
vn 0.072582215 -0.77912325 0.6226547
vn -0.30979815 0.29832554 0.9027884
vn -0.47586536 0.23970152 0.84622425
vn -0.8719405 0.20960304 0.44247752
vn -0.023967622 0.27859315 0.9601101
vn -0.8593809 0.24168739 0.4506125
vn -0.936299 0.23224622 -0.26344988
vn 0.5553615 0.3103872 0.77151376
vn 0.75082695 0.22039117 0.6226449
vn -0.93074685 0.22197977 -0.29057747
vn -0.5279054 0.23419702 -0.81637466
vn 0.9410501 0.2518952 0.2257733
vn 0.9308537 0.2151305 0.2953475
vn -0.52238923 0.20496245 -0.8277076
vn 0.28166142 0.23530482 -0.9302143
vn 0.83303016 0.2208802 -0.5072205
vn 0.89887315 0.24708524 -0.36190578
vn 0.27908307 0.20608898 -0.93789124
vn -0.19102405 0.34436667 0.91919607
vn 0.5763709 0.3317019 0.74684036
vn -0.042705383 0.99861693 0.030667406
vn -0.8487059 0.28164622 0.44763127
vn 0.95039845 0.27255642 0.14985275
vn -0.9295218 0.22340699 -0.29339156
vn 0.7968714 0.20046636 -0.5699203
vn -0.5757721 0.19029088 -0.79515773
vn 0.26342028 0.18984748 -0.9458158
g crystalShard_03_0
f 3/3/3 2/2/2 1/1/1
f 2/2/2 4/4/4 1/1/1
f 3/3/3 5/5/5 2/2/2
f 2/2/2 6/6/6 4/4/4
f 2/2/2 5/5/5 7/7/7
f 2/2/2 8/8/8 6/6/6
f 7/7/7 9/9/9 2/2/2
f 2/2/2 10/10/10 8/8/8
f 9/9/9 10/10/10 2/2/2
f 13/13/13 12/12/12 11/11/11
f 11/11/11 12/12/12 14/14/14
f 15/15/15 13/13/13 11/11/11
f 13/13/13 15/15/15 16/16/16
f 17/17/17 11/11/11 14/14/14
f 14/14/14 18/18/18 17/17/17
f 15/15/15 19/19/19 16/16/16
f 20/20/20 16/16/16 19/19/19
f 21/21/21 17/17/17 18/18/18
f 22/22/22 21/21/21 18/18/18
f 23/23/23 20/20/20 19/19/19
f 24/24/24 20/20/20 23/23/23
f 25/25/25 21/21/21 22/22/22
f 26/26/26 25/25/25 22/22/22
f 24/24/24 27/27/27 26/26/26
f 27/27/27 24/24/24 23/23/23
f 27/27/27 25/25/25 26/26/26
f 11/11/11 28/28/28 15/15/15
f 17/17/17 29/29/29 11/11/11
f 29/29/29 28/28/28 11/11/11
f 29/29/29 30/30/30 28/28/28
f 28/28/28 31/31/31 15/15/15
f 15/15/15 31/31/31 19/19/19
f 28/28/28 30/30/30 31/31/31
f 32/32/32 29/29/29 17/17/17
f 21/21/21 32/32/32 17/17/17
f 32/32/32 30/30/30 29/29/29
f 31/31/31 33/33/33 19/19/19
f 19/19/19 33/33/33 23/23/23
f 31/31/31 30/30/30 33/33/33
f 34/34/34 32/32/32 21/21/21
f 25/25/25 34/34/34 21/21/21
f 34/34/34 30/30/30 32/32/32
f 33/33/33 35/35/35 23/23/23
f 23/23/23 35/35/35 27/27/27
f 33/33/33 30/30/30 35/35/35
f 36/36/36 34/34/34 25/25/25
f 27/27/27 36/36/36 25/25/25
f 35/35/35 36/36/36 27/27/27
f 35/35/35 30/30/30 36/36/36
f 36/36/36 30/30/30 34/34/34
