g decoRockCave01
v 0.7204325 0.000930736 -0.41874716
v 0.6543876 0.001166198 -0.19746175
v 0.7215662 0.11383745 -0.392181
v 0.55184275 0.00093623786 -0.16180257
v 0.5283714 0.11222623 -0.19292928
v 0.43262675 0.00095115154 -0.21664022
v 0.39319897 0.0011004042 -0.30170614
v 0.6539536 0.17544584 -0.29012167
v 0.7215662 0.11383745 -0.392181
v 0.45663738 0.16683221 -0.31672934
v 0.5631071 0.17354216 -0.43601766
v 0.6427961 0.096098 -0.4802462
v 0.45336404 0.15049103 -0.41294274
v 0.42961285 0.00096186454 -0.437994
v 0.51484966 0.06803355 -0.5067428
v 0.51484966 0.06803355 -0.5067428
v 0.5135023 0.0009355543 -0.48136923
v 0.7204325 0.000930736 -0.41874716
v 0.7215662 0.11383745 -0.392181
v 0.5135023 0.0009355543 -0.48136923
v 0.51484966 0.06803355 -0.5067428
v 0.39963177 0.0035929345 0.4568461
v 0.4755665 0.1785079 0.6972257
v 0.5284849 0.00036522062 0.68953407
v -0.47887346 0.000930736 -0.82960653
v -0.25706747 0.001166198 -0.89387774
v -0.45715135 0.11383745 -0.8449422
v -0.17156911 0.00093623786 -0.82696617
v -0.18503286 0.11222623 -0.7903805
v -0.15313374 0.00095115154 -0.69704425
v -0.20330893 0.0011004042 -0.6178414
v -0.33473805 0.17544584 -0.84334797
v -0.45715135 0.11383745 -0.8449422
v -0.25028494 0.16683221 -0.6630453
v -0.40822008 0.17354216 -0.68798053
v -0.48854908 0.096098 -0.731036
v -0.32940632 0.15049103 -0.60820395
v -0.33761004 0.00096186454 -0.57467246
v -0.4415578 0.06803355 -0.60911703
v -0.4415578 0.06803355 -0.60911703
v -0.4194948 0.0009355543 -0.62172204
v -0.47887346 0.000930736 -0.82960653
v -0.45715135 0.11383745 -0.8449422
v -0.4194948 0.0009355543 -0.62172204
v -0.4415578 0.06803355 -0.60911703
v -0.18428273 0.14778309 0.8705753
v -0.15874745 0.0020757029 0.89108557
v -0.41387928 0.0014191219 0.83584267
v -0.438033 0.07818604 0.82525307
v -0.48354328 0.002141862 0.704943
v -0.49484912 0.1349956 0.6663187
v -0.3223528 0.1805841 0.7877286
v -0.18428273 0.14778309 0.8705753
v -0.21429494 0.17622264 0.7621268
v -0.45941302 0.19033086 0.62597936
v -0.49484912 0.1349956 0.6663187
v -0.48948687 0.10004123 0.5505936
v -0.18141988 0.14886253 0.5532987
v -0.28593373 0.1461832 0.46829382
v -0.0848354 0.08591926 0.69248205
v -0.07459004 0.077711485 0.8176554
v -0.18428273 0.14778309 0.8705753
v -0.15874745 0.0020757029 0.89108557
v -0.07445271 0.0015895116 0.7607401
v -0.12169637 0.0021148745 0.6906791
v -0.06065175 0.0016320333 0.60944736
v -0.19132222 0.06125241 0.4722245
v -0.18262197 0.002116169 0.46469152
v -0.33746326 0.051835537 0.43339515
v -0.36481038 0.0021153633 0.4691532
v -0.36481038 0.0021153633 0.4691532
v -0.48354328 0.002141862 0.704943
v -0.36481038 0.0021153633 0.4691532
v -0.49484912 0.1349956 0.6663187
v -0.45996234 -5.975584E-05 0.039216705
v -0.54953176 -0.00013022212 0.20466715
v -0.5000319 0.061198752 0.1327128
v -0.6151436 0.049129218 0.2531791
v -0.55045736 0.107382804 0.12223551
v -0.45996234 -5.975584E-05 0.039216705
v -0.4826772 0.05881703 -0.0015035083
v -0.85019493 0.052888963 0.1587272
v -0.81461173 0.003999482 0.21861733
v -0.6696749 -0.00029402785 0.24852578
v -0.6151436 0.049129218 0.2531791
v -0.9035233 -0.00040170772 0.09720621
v -0.9128835 0.04151226 0.044950347
v -0.88537925 0.004211825 -0.06484946
v -0.81403005 0.124786355 -0.030701505
v -0.8112453 -0.00038942756 -0.10869101
v -0.7477825 0.10673491 -0.096361905
v -0.5983272 0.0009008405 -0.14085898
v -0.5871724 0.083434425 -0.11707113
v -0.5983272 0.0009008405 -0.14085898
v -0.45996234 -5.975584E-05 0.039216705
v -0.31880116 0.12809883 -0.22247761
v -0.17679434 0.014927328 -0.2065267
v -0.35029072 0.0020647869 -0.20252767
v -0.16975057 0.15581515 -0.28790608
v -0.09914388 0.0021285962 -0.27258503
v -0.0910204 0.12489034 -0.40120688
v -0.09255727 0.0012856118 -0.47128257
v -0.1754131 0.08178629 -0.56159383
v -0.2533303 0.0012144267 -0.5510641
v -0.24609944 0.13327883 -0.5664779
v -0.24609944 0.13327883 -0.5664779
v -0.24609944 0.13327883 -0.5664779
v -0.32358783 0.15134402 -0.38350424
v -0.38361102 0.09145553 -0.29042807
v -0.35029072 0.0020647869 -0.20252767
v -0.41090107 0.0024387375 -0.45541343
v -0.3645638 0.061845627 -0.5096761
v -0.2533303 0.0012144267 -0.5510641
v -0.41090107 0.0024387375 -0.45541343
v 0.17022775 -0.0016571088 -0.6987618
v 0.15012614 -0.0016470595 -0.5418795
v 0.17473367 0.0964126 -0.55592245
v 0.1203596 0.08807262 -0.65868
v 0.011836041 0.11826376 -0.53514487
v 0.17473367 0.0964126 -0.55592245
v 0.11191661 0.0003294803 -0.72227746
v 0.086804606 0.07062571 -0.48865926
v -0.038428545 0.09205132 -0.6754134
v -0.02151906 -0.0014515962 -0.71424645
v -0.096187025 0.0015098937 -0.64410114
v -0.07199513 0.06160801 -0.5477999
v -0.09662557 -0.0016857604 -0.595649
v -0.017432148 0.0017249453 -0.49604574
v 0.054076336 -0.0016857573 -0.50091267
v 0.15012614 -0.0016470595 -0.5418795
v 0.17473367 0.0964126 -0.55592245
v 0.7001319 0.22324866 0.41457435
v 0.7635294 0.00017000831 0.40054238
v 0.7701536 0.21094985 0.57541054
v 0.7768217 0.00049227115 0.63617224
v 0.6631217 0.15983444 0.7038248
v 0.6653739 9.47793E-05 0.7048978
v 0.4755665 0.1785079 0.6972257
v 0.5284849 0.00036522062 0.68953407
v 0.63663065 0.29581183 0.50187904
v 0.7001319 0.22324866 0.41457435
v 0.5104566 0.24941008 0.6241227
v 0.4755665 0.1785079 0.6972257
v 0.39963177 0.0035929345 0.4568461
v 0.4680763 0.16821077 0.43870032
v 0.5491319 0.11926513 0.33236
v 0.39963177 0.0035929345 0.4568461
v 0.5226246 9.0380476E-05 0.36405554
v 0.7635294 0.00017000831 0.40054238
v 0.7001319 0.22324866 0.41457435
v 0.26737162 -0.0018468621 0.07039224
v 0.44267526 -0.0018356637 0.08887857
v 0.4264155 0.10745277 0.0618107
v 0.31327492 0.098157816 0.12495767
v 0.45362774 0.13180612 0.24279825
v 0.4264155 0.10745277 0.0618107
v 0.24262337 0.0003672087 0.13595133
v 0.50355387 0.078713045 0.15810709
v 0.29858926 0.102592096 0.30230263
v 0.25489908 -0.0016178199 0.28443033
v 0.33491862 0.0016827915 0.36587682
v 0.44161722 0.06866271 0.33652136
v 0.3889158 -0.0018787965 0.36515784
v 0.49792215 0.0019224677 0.274434
v 0.49071696 -0.0018787932 0.19487832
v 0.44267526 -0.0018356637 0.08887857
v 0.4264155 0.10745277 0.0618107
vt 0.5931455 0.8272063
vt 0.6100413 0.86265975
vt 0.6095194 0.81915563
vt 0.62827766 0.8714898
vt 0.6332877 0.85692984
vt 0.6532834 0.86673254
vt 0.665369 0.8543275
vt 0.62023973 0.83654267
vt 0.6095194 0.81915563
vt 0.6455249 0.84190494
vt 0.6367254 0.82249016
vt 0.6285798 0.8103195
vt 0.6508794 0.82938975
vt 0.6688438 0.82724816
vt 0.6526183 0.8094514
vt 0.6526183 0.8094514
vt 0.64964646 0.79866296
vt 0.612509 0.7992052
vt 0.6095194 0.81915563
vt 0.6639798 0.8121818
vt 0.6526183 0.8094514
vt 0.6092649 0.87585235
vt 0.64461714 0.9152457
vt 0.6505911 0.8865326
vt 0.5931455 0.8272063
vt 0.6100413 0.86265975
vt 0.6095194 0.81915563
vt 0.62827766 0.8714898
vt 0.6332877 0.85692984
vt 0.6532834 0.86673254
vt 0.665369 0.8543275
vt 0.62023973 0.83654267
vt 0.6095194 0.81915563
vt 0.6455249 0.84190494
vt 0.6367254 0.82249016
vt 0.6285798 0.8103195
vt 0.6508794 0.82938975
vt 0.6688438 0.82724816
vt 0.6526183 0.8094514
vt 0.6526183 0.8094514
vt 0.64964646 0.79866296
vt 0.612509 0.7992052
vt 0.6095194 0.81915563
vt 0.6639798 0.8121818
vt 0.6526183 0.8094514
vt 0.05108536 0.9081204
vt 0.034957074 0.8919321
vt 0.008603606 0.92465925
vt 0.016743992 0.93325615
vt 0.0025191754 0.94900304
vt 0.021498736 0.9611756
vt 0.0396942 0.93038
vt 0.05108536 0.9081204
vt 0.055054016 0.92559457
vt 0.03214924 0.9589205
vt 0.021498736 0.9611756
vt 0.03642733 0.9737086
vt 0.07183685 0.94958675
vt 0.0637365 0.96502846
vt 0.08181135 0.9264623
vt 0.07305984 0.9101302
vt 0.05108536 0.9081204
vt 0.06935747 0.89157057
vt 0.08732415 0.9105264
vt 0.09439158 0.92216814
vt 0.09675713 0.9384827
vt 0.08136523 0.96528137
vt 0.08793682 0.9708667
vt 0.063190416 0.9803014
vt 0.06029083 0.9898413
vt 0.06029083 0.9898413
vt 0.01485553 0.9842055
vt 0.06029083 0.9898413
vt 0.021498736 0.9611756
vt 0.441237 0.9144321
vt 0.4121763 0.93118685
vt 0.42897472 0.9287271
vt 0.4131308 0.94573766
vt 0.43267816 0.9378776
vt 0.441237 0.9144321
vt 0.44819236 0.9245402
vt 0.42483103 0.9801348
vt 0.41221094 0.9768285
vt 0.40628833 0.9533605
vt 0.4131308 0.94573766
vt 0.43193153 0.9941209
vt 0.44093418 0.98889583
vt 0.46027008 0.9921039
vt 0.45274425 0.97278637
vt 0.47157001 0.98259264
vt 0.4635631 0.9649103
vt 0.48174384 0.94580644
vt 0.46932563 0.93939626
vt 0.47655234 0.928058
vt 0.441237 0.9144321
vt 0.5090491 0.9665562
vt 0.50625104 0.9357009
vt 0.491275 0.95790625
vt 0.52366835 0.94839936
vt 0.51915777 0.9244441
vt 0.5399585 0.93932
vt 0.55453247 0.9260912
vt 0.5632922 0.9479415
vt 0.5783205 0.94417775
vt 0.5646672 0.9616435
vt 0.5646672 0.9616435
vt 0.5646672 0.9616435
vt 0.5348867 0.96904933
vt 0.5197412 0.9780675
vt 0.5037082 0.98722154
vt 0.54534626 0.9942239
vt 0.5528336 0.98175734
vt 0.57219094 0.98144025
vt 0.54534626 0.9942239
vt 0.70303494 0.9169018
vt 0.6669061 0.92038184
vt 0.6692113 0.94215834
vt 0.6952067 0.93749744
vt 0.68958944 0.9680384
vt 0.6692113 0.94215834
vt 0.71527493 0.92511195
vt 0.67235345 0.9676326
vt 0.7154649 0.9613869
vt 0.73262817 0.95500094
vt 0.7254654 0.9813714
vt 0.70095986 0.9829226
vt 0.71676886 0.9889338
vt 0.6829839 0.9937458
vt 0.66874754 0.98383975
vt 0.65366244 0.9620153
vt 0.6692113 0.94215834
vt 0.588308 0.93356603
vt 0.5912434 0.9805381
vt 0.6085088 0.94904155
vt 0.63018656 0.97313714
vt 0.6335796 0.94345963
vt 0.6482548 0.9599316
vt 0.64461714 0.9152457
vt 0.65981126 0.9413038
vt 0.6057168 0.9289866
vt 0.588308 0.93356603
vt 0.62941104 0.9184503
vt 0.64461714 0.9152457
vt 0.6092649 0.87585235
vt 0.6065917 0.9010026
vt 0.5877396 0.90197843
vt 0.6092649 0.87585235
vt 0.58349407 0.8850461
vt 0.5549007 0.91787577
vt 0.588308 0.93356603
vt 0.70303494 0.9169018
vt 0.6669061 0.92038184
vt 0.6692113 0.94215834
vt 0.6952067 0.93749744
vt 0.68958944 0.9680384
vt 0.6692113 0.94215834
vt 0.71527493 0.92511195
vt 0.67235345 0.9676326
vt 0.7154649 0.9613869
vt 0.73262817 0.95500094
vt 0.7254654 0.9813714
vt 0.70095986 0.9829226
vt 0.71676886 0.9889338
vt 0.6829839 0.9937458
vt 0.66874754 0.98383975
vt 0.65366244 0.9620153
vt 0.6692113 0.94215834
vn 0.94439083 -0.14490876 -0.29517356
vn 0.6771965 0.28569657 0.67807245
vn 0.9154833 0.4017808 -0.021506272
vn -0.031232476 0.26310655 0.9642611
vn -0.27977803 0.59525406 0.75325745
vn -0.719086 0.38865504 0.5760751
vn -0.8714263 0.38535765 0.3035058
vn 0.4902307 0.78354806 0.38174126
vn 0.9154833 0.4017808 -0.021506272
vn -0.59010196 0.746253 0.30803594
vn 0.05030956 0.9148787 -0.4005821
vn 0.39184156 0.17557646 -0.90312403
vn -0.72854 0.55876666 -0.3962438
vn -0.87408 0.1741328 -0.45349962
vn -0.2728886 0.21341789 -0.938075
vn -0.2728886 0.21341789 -0.938075
vn 0.041539356 -0.35940316 -0.9322574
vn 0.94439083 -0.14490876 -0.29517356
vn 0.9154833 0.4017808 -0.021506272
vn 0.041539356 -0.35940316 -0.9322574
vn -0.2728886 0.21341789 -0.938075
vn -0.99288803 0.10586423 -0.05446316
vn -0.7512509 0.210056 0.62569857
vn -0.6258134 -0.21822903 0.74882144
vn -0.7594555 -0.14490715 -0.6342155
vn 0.20348026 0.2856966 -0.93646854
vn -0.51371235 0.40178204 -0.75807047
vn 0.8276328 0.263109 -0.49577984
vn 0.78478736 0.595254 -0.17257316
vn 0.8736521 0.3886558 0.29270932
vn 0.7269576 0.38535786 0.568359
vn 0.055553507 0.78354794 -0.6188428
vn -0.51371235 0.40178204 -0.75807047
vn 0.5784617 0.74625343 0.32937494
vn -0.36403635 0.9148784 0.17457116
vn -0.97146016 0.17557856 0.15949097
vn 0.061272398 0.5587657 0.827059
vn 0.09192396 0.17412898 0.98042285
vn -0.6409696 0.21341665 0.73730004
vn -0.6409696 0.21341665 0.73730004
vn -0.80630726 -0.35940316 0.46978498
vn -0.7594555 -0.14490715 -0.6342155
vn -0.51371235 0.40178204 -0.75807047
vn -0.80630726 -0.35940316 0.46978498
vn -0.6409696 0.21341665 0.73730004
vn 0.09242877 0.5111316 0.8545183
vn 0.06803848 0.0830388 0.994221
vn -0.38353884 0.018093694 0.9233476
vn -0.5846647 0.36485988 0.72459954
vn -0.96275485 -0.2650793 0.053254746
vn -0.9378295 0.27561617 0.21097751
vn -0.24787398 0.86142063 0.44329783
vn 0.09242877 0.5111316 0.8545183
vn 0.27683535 0.96082395 -0.013393839
vn -0.26898497 0.9554773 -0.12128586
vn -0.9378295 0.27561617 0.21097751
vn -0.81858814 -0.006196393 -0.57434744
vn 0.40463918 0.8780517 -0.25552374
vn 0.011540315 0.8105678 -0.5855312
vn 0.7763398 0.62445176 -0.08576938
vn 0.8285177 0.40425032 0.38747913
vn 0.09242877 0.5111316 0.8545183
vn 0.06803848 0.0830388 0.994221
vn 0.9736974 -0.21936478 0.061583064
vn 0.9112511 -0.40266973 0.08647809
vn 0.87510693 0.38279298 -0.29606983
vn 0.5776989 0.34679946 -0.7389142
vn 0.53851664 0.09038494 -0.8377531
vn -0.2738463 0.11570096 -0.95478874
vn -0.5803205 -0.4940913 -0.6473807
vn -0.5803205 -0.4940913 -0.6473807
vn -0.96275485 -0.2650793 0.053254746
vn -0.5803205 -0.4940913 -0.6473807
vn -0.9378295 0.27561617 0.21097751
vn 0.9758169 0.21217394 -0.05257082
vn 0.7183259 0.057887394 0.6932943
vn 0.8435248 0.36057535 0.3980594
vn -0.0025378796 0.8053622 0.5927775
vn 0.11340986 0.9703232 0.21356726
vn 0.9758169 0.21217394 -0.05257082
vn 0.7456988 0.59797883 -0.29386154
vn -0.29788893 0.8592537 0.41586688
vn -0.34950185 0.59012944 0.72773325
vn -0.07760775 -0.008237034 0.99695
vn -0.0025378796 0.8053622 0.5927775
vn -0.9216495 0.1477609 0.35878804
vn -0.82761633 0.56118214 0.011217343
vn -0.6710792 0.48596415 -0.5599031
vn -0.23310341 0.9721034 0.026034424
vn -0.31747514 0.33172408 -0.8883517
vn -0.04032193 0.8398842 -0.54126585
vn 0.23632702 0.18884915 -0.9531451
vn 0.28931704 0.836256 -0.46580207
vn 0.23632702 0.18884915 -0.9531451
vn 0.9758169 0.21217394 -0.05257082
vn -0.16729699 0.68557346 0.7085201
vn 0.34863275 0.36633953 0.8626996
vn -0.55161583 0.1022705 0.82780474
vn 0.32840672 0.88066655 0.34143126
vn 0.8693205 0.26596844 0.41658467
vn 0.74405164 0.66471165 -0.06742059
vn 0.9222005 0.03074397 -0.38548797
vn 0.5681028 0.16524312 -0.8061972
vn -0.10194291 -0.27524188 -0.95595473
vn -0.1046383 0.822219 -0.55947
vn -0.1046383 0.822219 -0.55947
vn -0.1046383 0.822219 -0.55947
vn -0.34783402 0.9329461 -0.09286026
vn -0.93259656 0.3139181 0.17809841
vn -0.55161583 0.1022705 0.82780474
vn -0.9384803 0.27983743 -0.20235036
vn -0.72441924 0.35799176 -0.5891169
vn -0.10194291 -0.27524188 -0.95595473
vn -0.9384803 0.27983743 -0.20235036
vn 0.84685326 0.3386452 -0.410072
vn 0.856026 -0.20572162 0.47423422
vn 0.7547646 0.6317618 0.17665634
vn 0.26778474 0.84153223 -0.46916386
vn -0.17348439 0.948306 0.26574203
vn 0.7547646 0.6317618 0.17665634
vn 0.12231776 0.52729595 -0.8408313
vn 0.19359411 0.3819273 0.90368843
vn -0.32561478 0.80175453 -0.50116336
vn -0.2690824 0.32749313 -0.9057278
vn -0.8517968 0.40791738 -0.32870302
vn -0.7611644 0.5133512 0.39635754
vn -0.93565613 0.11079928 0.3350688
vn -0.41046652 0.20567364 0.8883781
vn 0.21470082 -0.25684685 0.9423021
vn 0.856026 -0.20572162 0.47423422
vn 0.7547646 0.6317618 0.17665634
vn 0.4884592 0.51470584 -0.7046172
vn 0.80634737 0.0969478 -0.58344245
vn 0.8630755 0.4684584 0.18880522
vn 0.94577736 0.07492131 0.31605718
vn 0.3178681 0.41229367 0.85379964
vn 0.20029181 -0.011488748 0.9796689
vn -0.7512509 0.210056 0.62569857
vn -0.6258134 -0.21822903 0.74882144
vn -0.012808123 0.99361354 -0.11210791
vn 0.4884592 0.51470584 -0.7046172
vn -0.48279846 0.8429253 0.2374501
vn -0.7512509 0.210056 0.62569857
vn -0.99288803 0.10586423 -0.05446316
vn -0.73033345 0.58096457 -0.35929534
vn -0.0929258 0.26969135 -0.9584526
vn -0.99288803 0.10586423 -0.05446316
vn -0.20901838 -0.20765379 -0.9556104
vn 0.80634737 0.0969478 -0.58344245
vn 0.4884592 0.51470584 -0.7046172
vn -0.42891473 0.33864364 -0.837468
vn 0.4549657 -0.20572133 -0.8664208
vn 0.15972748 0.63176244 -0.7585271
vn -0.4750373 0.8415322 -0.25722197
vn 0.26955637 0.948306 0.16749626
vn 0.15972748 0.63176244 -0.7585271
vn -0.8433575 0.527296 -0.10347508
vn 0.8991305 0.3819295 -0.21376197
vn -0.4937534 0.80175525 0.33674332
vn -0.8994789 0.32749808 0.28927964
vn -0.30955896 0.4079178 0.858939
vn 0.4132886 0.5133483 0.7521078
vn 0.3559199 0.11079418 0.9279254
vn 0.8973389 0.20567094 0.39048967
vn 0.9372633 -0.2568461 -0.2357276
vn 0.4549657 -0.20572133 -0.8664208
vn 0.15972748 0.63176244 -0.7585271
g decoRockCave01_0
f 3/3/3 2/2/2 1/1/1
f 5/5/5 4/4/4 2/2/2
f 5/5/5 6/6/6 4/4/4
f 7/7/7 6/6/6 5/5/5
f 2/2/2 8/8/8 5/5/5
f 8/8/8 2/2/2 9/9/9
f 10/10/10 7/7/7 5/5/5
f 5/5/5 8/8/8 10/10/10
f 11/11/11 8/8/8 9/9/9
f 10/10/10 8/8/8 11/11/11
f 11/11/11 9/9/9 12/12/12
f 13/13/13 7/7/7 10/10/10
f 13/13/13 10/10/10 11/11/11
f 13/13/13 14/14/14 7/7/7
f 13/13/13 11/11/11 15/15/15
f 14/14/14 13/13/13 15/15/15
f 12/12/12 16/16/16 11/11/11
f 12/12/12 17/17/17 16/16/16
f 12/12/12 18/18/18 17/17/17
f 19/19/19 18/18/18 12/12/12
f 21/21/21 20/20/20 14/14/14
f 24/24/24 23/23/23 22/22/22
f 27/27/27 26/26/26 25/25/25
f 29/29/29 28/28/28 26/26/26
f 29/29/29 30/30/30 28/28/28
f 31/31/31 30/30/30 29/29/29
f 26/26/26 32/32/32 29/29/29
f 32/32/32 26/26/26 33/33/33
f 34/34/34 31/31/31 29/29/29
f 29/29/29 32/32/32 34/34/34
f 35/35/35 32/32/32 33/33/33
f 34/34/34 32/32/32 35/35/35
f 35/35/35 33/33/33 36/36/36
f 37/37/37 31/31/31 34/34/34
f 37/37/37 34/34/34 35/35/35
f 37/37/37 38/38/38 31/31/31
f 37/37/37 35/35/35 39/39/39
f 38/38/38 37/37/37 39/39/39
f 36/36/36 40/40/40 35/35/35
f 36/36/36 41/41/41 40/40/40
f 36/36/36 42/42/42 41/41/41
f 43/43/43 42/42/42 36/36/36
f 45/45/45 44/44/44 38/38/38
f 48/48/48 47/47/47 46/46/46
f 48/48/48 46/46/46 49/49/49
f 49/49/49 50/50/50 48/48/48
f 51/51/51 50/50/50 49/49/49
f 49/49/49 53/53/53 52/52/52
f 52/52/52 53/53/53 54/54/54
f 49/49/49 52/52/52 55/55/55
f 55/55/55 52/52/52 54/54/54
f 55/55/55 56/56/56 49/49/49
f 55/55/55 57/57/57 56/56/56
f 55/55/55 54/54/54 58/58/58
f 57/57/57 55/55/55 59/59/59
f 59/59/59 55/55/55 58/58/58
f 60/60/60 58/58/58 54/54/54
f 60/60/60 54/54/54 61/61/61
f 54/54/54 62/62/62 61/61/61
f 63/63/63 61/61/61 62/62/62
f 61/61/61 63/63/63 64/64/64
f 60/60/60 61/61/61 64/64/64
f 64/64/64 65/65/65 60/60/60
f 65/65/65 66/66/66 60/60/60
f 58/58/58 60/60/60 66/66/66
f 67/67/67 58/58/58 66/66/66
f 58/58/58 67/67/67 59/59/59
f 66/66/66 68/68/68 67/67/67
f 59/59/59 67/67/67 69/69/69
f 67/67/67 68/68/68 69/69/69
f 59/59/59 69/69/69 57/57/57
f 68/68/68 70/70/70 69/69/69
f 69/69/69 71/71/71 57/57/57
f 73/73/73 72/72/72 57/57/57
f 72/72/72 74/74/74 57/57/57
f 77/77/77 76/76/76 75/75/75
f 78/78/78 76/76/76 77/77/77
f 77/77/77 79/79/79 78/78/78
f 79/79/79 77/77/77 80/80/80
f 81/81/81 79/79/79 80/80/80
f 79/79/79 82/82/82 78/78/78
f 78/78/78 82/82/82 83/83/83
f 78/78/78 83/83/83 84/84/84
f 76/76/76 85/85/85 84/84/84
f 86/86/86 83/83/83 82/82/82
f 87/87/87 86/86/86 82/82/82
f 87/87/87 88/88/88 86/86/86
f 82/82/82 89/89/89 87/87/87
f 87/87/87 89/89/89 88/88/88
f 89/89/89 82/82/82 79/79/79
f 90/90/90 88/88/88 89/89/89
f 91/91/91 90/90/90 89/89/89
f 79/79/79 91/91/91 89/89/89
f 92/92/92 90/90/90 91/91/91
f 93/93/93 92/92/92 91/91/91
f 93/93/93 91/91/91 79/79/79
f 93/93/93 79/79/79 81/81/81
f 81/81/81 94/94/94 93/93/93
f 81/81/81 95/95/95 94/94/94
f 98/98/98 97/97/97 96/96/96
f 99/99/99 96/96/96 97/97/97
f 99/99/99 97/97/97 100/100/100
f 100/100/100 101/101/101 99/99/99
f 101/101/101 100/100/100 102/102/102
f 101/101/101 102/102/102 103/103/103
f 102/102/102 104/104/104 103/103/103
f 104/104/104 105/105/105 103/103/103
f 103/103/103 106/106/106 101/101/101
f 101/101/101 107/107/107 99/99/99
f 108/108/108 96/96/96 99/99/99
f 107/107/107 108/108/108 99/99/99
f 96/96/96 108/108/108 109/109/109
f 96/96/96 109/109/109 110/110/110
f 111/111/111 110/110/110 109/109/109
f 108/108/108 111/111/111 109/109/109
f 112/112/112 108/108/108 107/107/107
f 107/107/107 113/113/113 112/112/112
f 114/114/114 108/108/108 112/112/112
f 113/113/113 114/114/114 112/112/112
f 117/117/117 116/116/116 115/115/115
f 119/119/119 117/117/117 118/118/118
f 120/120/120 115/115/115 118/118/118
f 118/118/118 115/115/115 121/121/121
f 120/120/120 119/119/119 122/122/122
f 121/121/121 123/123/123 118/118/118
f 123/123/123 119/119/119 118/118/118
f 121/121/121 124/124/124 123/123/123
f 124/124/124 125/125/125 123/123/123
f 123/123/123 125/125/125 126/126/126
f 126/126/126 119/119/119 123/123/123
f 126/126/126 125/125/125 127/127/127
f 127/127/127 128/128/128 126/126/126
f 119/119/119 126/126/126 128/128/128
f 128/128/128 122/122/122 119/119/119
f 129/129/129 122/122/122 128/128/128
f 129/129/129 130/130/130 122/122/122
f 122/122/122 130/130/130 131/131/131
f 134/134/134 133/133/133 132/132/132
f 135/135/135 133/133/133 134/134/134
f 135/135/135 134/134/134 136/136/136
f 137/137/137 135/135/135 136/136/136
f 138/138/138 137/137/137 136/136/136
f 139/139/139 137/137/137 138/138/138
f 134/134/134 140/140/140 136/136/136
f 141/141/141 140/140/140 134/134/134
f 140/140/140 142/142/142 136/136/136
f 142/142/142 143/143/143 136/136/136
f 142/142/142 144/144/144 143/143/143
f 145/145/145 140/140/140 141/141/141
f 140/140/140 145/145/145 142/142/142
f 142/142/142 145/145/145 144/144/144
f 141/141/141 146/146/146 145/145/145
f 145/145/145 146/146/146 144/144/144
f 146/146/146 148/148/148 147/147/147
f 149/149/149 148/148/148 146/146/146
f 149/149/149 146/146/146 150/150/150
f 153/153/153 152/152/152 151/151/151
f 155/155/155 153/153/153 154/154/154
f 156/156/156 151/151/151 154/154/154
f 154/154/154 151/151/151 157/157/157
f 156/156/156 155/155/155 158/158/158
f 157/157/157 159/159/159 154/154/154
f 159/159/159 155/155/155 154/154/154
f 157/157/157 160/160/160 159/159/159
f 160/160/160 161/161/161 159/159/159
f 159/159/159 161/161/161 162/162/162
f 162/162/162 155/155/155 159/159/159
f 162/162/162 161/161/161 163/163/163
f 163/163/163 164/164/164 162/162/162
f 155/155/155 162/162/162 164/164/164
f 164/164/164 158/158/158 155/155/155
f 165/165/165 158/158/158 164/164/164
f 165/165/165 166/166/166 158/158/158
f 158/158/158 166/166/166 167/167/167
