g deluxCoop_screen
v -0.5706401 0.43207476 0.18499699
v -0.7167042 0.43207285 0.25871792
v -0.7167042 -0.5679256 0.25871792
v -0.5706401 -0.5679276 0.18499699
v -0.30094668 0.43207476 0.116247505
v -0.30094668 -0.5679276 0.116247505
v 4.1909516E-09 0.43207476 0.092380136
v 4.1909516E-09 -0.5679276 0.092380136
v 0.3009467 0.43207476 0.116247505
v 0.3009467 -0.5679276 0.116247505
v 0.5706402 0.43207523 0.1849967
v 0.57064027 -0.5679271 0.1849967
v 0.7247376 -0.56792545 0.26277235
v 0.7247376 0.4320726 0.26277235
v -0.5706401 0.43207476 0.18915465
v -0.7167042 -0.5679256 0.2628756
v -0.7167042 0.43207285 0.2628756
v -0.5706401 -0.5679276 0.18915465
v -0.30094668 0.43207476 0.12040517
v -0.30094668 -0.5679276 0.12040517
v 4.1909516E-09 0.43207476 0.0965378
v 4.1909516E-09 -0.5679276 0.0965378
v 0.3009467 0.43207476 0.12040517
v 0.3009467 -0.5679276 0.12040517
v 0.5706402 0.43207523 0.18915436
v 0.57064027 -0.5679271 0.18915436
v 0.7247376 -0.56792545 0.26693
v 0.7247376 0.4320726 0.26693
vt 0.88470644 0.9929335
vt 0.9926375 0.992931
vt 0.9926375 0.0070683956
vt 0.88470644 0.007065922
vt 0.70170593 0.9929335
vt 0.70170593 0.007065922
vt 0.5029681 0.9929335
vt 0.5029681 0.007065922
vt 0.3042302 0.9929335
vt 0.3042302 0.007065922
vt 0.121229604 0.9929341
vt 0.121229574 0.0070664287
vt 0.007362444 0.0070685446
vt 0.007362444 0.9929308
vt 0.88470644 0.9929335
vt 0.9926375 0.0070683956
vt 0.9926375 0.992931
vt 0.88470644 0.007065922
vt 0.70170593 0.9929335
vt 0.70170593 0.007065922
vt 0.5029681 0.9929335
vt 0.5029681 0.007065922
vt 0.3042302 0.9929335
vt 0.3042302 0.007065922
vt 0.121229604 0.9929341
vt 0.121229574 0.0070664287
vt 0.007362444 0.0070685446
vt 0.007362444 0.9929308
vn -0.3241711 0 -0.94599855
vn -0.45057872 0 -0.8927367
vn -0.45057872 0 -0.8927367
vn -0.32417107 0 -0.94599855
vn -0.16020697 0 -0.98708344
vn -0.16020697 0 -0.98708344
vn -0 0 -1
vn -0 0 -1
vn 0.16020642 0 -0.98708355
vn 0.16020635 0 -0.98708355
vn 0.3267673 0 -0.94510484
vn 0.32676739 0 -0.9451048
vn 0.4505797 0 -0.8927362
vn 0.45057967 0 -0.8927362
vn 0.32417113 0 0.94599843
vn 0.4505789 0 0.8927367
vn 0.45057884 0 0.8927367
vn 0.3241711 0 0.94599855
vn 0.16020697 0 0.98708344
vn 0.16020697 0 0.98708344
vn -0 0 1
vn -0 0 1
vn -0.16020648 0 0.98708355
vn -0.16020638 0 0.98708355
vn -0.32676756 0 0.9451048
vn -0.32676762 0 0.9451048
vn -0.4505801 0 0.8927361
vn -0.4505801 0 0.8927361
g deluxCoop_screen_0
f 3/3/3 2/2/2 1/1/1
f 4/4/4 3/3/3 1/1/1
f 1/1/1 5/5/5 4/4/4
f 5/5/5 6/6/6 4/4/4
f 5/5/5 7/7/7 6/6/6
f 7/7/7 8/8/8 6/6/6
f 7/7/7 9/9/9 8/8/8
f 9/9/9 10/10/10 8/8/8
f 9/9/9 11/11/11 10/10/10
f 11/11/11 12/12/12 10/10/10
f 12/12/12 11/11/11 13/13/13
f 11/11/11 14/14/14 13/13/13
f 17/17/17 16/16/16 15/15/15
f 16/16/16 18/18/18 15/15/15
f 19/19/19 15/15/15 18/18/18
f 20/20/20 19/19/19 18/18/18
f 21/21/21 19/19/19 20/20/20
f 22/22/22 21/21/21 20/20/20
f 23/23/23 21/21/21 22/22/22
f 24/24/24 23/23/23 22/22/22
f 25/25/25 23/23/23 24/24/24
f 26/26/26 25/25/25 24/24/24
f 25/25/25 26/26/26 27/27/27
f 28/28/28 25/25/25 27/27/27
