g deluxCoop_pivot
v -0.089052826 -0.39795542 -0.032311413
v -0.093256116 -0.43758035 0.013893331
v -4.5401976E-09 -0.44103634 0.0035059704
v -4.2491592E-09 -0.40125668 -0.04271293
v -0.0782995 -0.38036263 -0.026487356
v -3.8313956E-09 -0.3802079 -0.034687642
v 0.08905192 -0.39795744 -0.0323107
v 0.09325521 -0.43758237 0.013894047
v 0.13778579 -0.38568628 0.024898136
v 0.0782995 -0.38036263 -0.026487356
v 0.13413915 -0.35060048 -0.016879087
v 0.11042266 -0.34353006 -0.018927729
v -0.11042458 -0.34351993 -0.018905824
v -0.0782995 -0.38036263 -0.026487356
v -0.13414197 -0.35058832 -0.016857898
v -0.093256116 -0.43758035 0.013893331
v -0.110442705 0.10552073 -0.018698102
v -0.1377867 -0.38568425 0.02489742
v -0.13409755 0.11504532 -0.012567346
v -0.07751912 0.13810015 -0.0212417
v -0.13772415 0.12307192 0.02898028
v -0.087591834 0.16123581 -0.01685909
v -0.09113765 0.17005622 0.023957336
v 3.640016E-07 0.16507089 -0.026070898
v 3.6359415E-07 0.1741426 0.015753085
v -0.087591834 0.16123581 -0.01685909
v -3.729772E-09 0.13784885 -0.030292725
v -0.07751912 0.13810015 -0.0212417
v 0.07849899 0.13787246 -0.022173738
v 0.08871731 0.16086578 -0.01776076
v 0.110525094 0.104756124 -0.017754292
v 0.091283254 0.16991389 0.023987705
v 0.13432518 0.11413849 -0.011592601
v 0.13786939 0.1229297 0.029011214
v 0.13778579 -0.38568628 0.024898136
v 0.13432518 0.11413849 -0.011592601
v 0.13413915 -0.35060048 -0.016879087
v 0.11042266 -0.34353006 -0.018927729
v 0.110525094 0.104756124 -0.017754292
v -0.07292473 -0.32969403 -0.08556951
v -0.0782995 -0.38036263 -0.026487356
v -3.8313956E-09 -0.3802079 -0.034687642
v -3.44606E-09 -0.3293414 -0.093787946
v 0.0782995 -0.38036263 -0.026487356
v -3.3178367E-09 -0.28655696 -0.11345405
v -0.07221482 -0.28598678 -0.105530955
v -0.07291518 0.0893848 -0.105454095
v 0.07292473 -0.32969403 -0.08556951
v 0.11042266 -0.34353006 -0.018927729
v 0.10575969 -0.29866576 -0.07234842
v 0.07221482 -0.28598678 -0.105530955
v 0.10575969 -0.29866576 -0.07234842
v 0.073165976 0.08963705 -0.10542659
v 0.10599309 0.09351493 -0.06967447
v -3.3178367E-09 0.08961261 -0.11345405
v -3.2144905E-09 0.1262486 -0.08377317
v -0.07298508 0.12682152 -0.07343385
v 0.0752179 0.12630272 -0.07555769
v -3.729772E-09 0.13784885 -0.030292725
v -0.07751912 0.13810015 -0.0212417
v 0.07849899 0.13787246 -0.022173738
v 0.110525094 0.104756124 -0.017754292
v 0.110525094 0.104756124 -0.017754292
v 0.10575969 -0.29866576 -0.07234842
v 0.11042266 -0.34353006 -0.018927729
v -0.07298508 0.12682152 -0.07343385
v -0.07751912 0.13810015 -0.0212417
v -0.110442705 0.10552073 -0.018698102
v -0.10580536 0.09525705 -0.071825154
v -0.07291518 0.0893848 -0.105454095
v -0.07221482 -0.28598678 -0.105530955
v -0.10576405 -0.29864275 -0.072298475
v -0.11042458 -0.34351993 -0.018905824
v -0.07292473 -0.32969403 -0.08556951
v -0.0782995 -0.38036263 -0.026487356
v 0.08241337 -0.37861586 0.019708538
v 0.08250279 -0.41998756 0.01971739
v -4.132744E-09 -0.41998756 0.011531259
v 0.11406931 -0.37861586 0.022849495
v -4.132744E-09 -0.3847301 0.011531259
v -0.08250279 -0.41998756 0.01971739
v -0.08241337 -0.37861586 0.019708509
v -0.11406931 -0.37861586 0.022849495
v 0.081158005 0.11354733 0.019583965
v -4.132744E-09 0.11354733 0.011531229
v 0.11406931 0.11354733 0.022849495
v -0.081158005 0.11354733 0.019583965
v 0.13778579 -0.38568628 0.024898136
v 0.09325521 -0.43758237 0.013894047
v 0.08250279 -0.41998756 0.01971739
v -4.5401976E-09 -0.44103634 0.0035059704
v -4.132744E-09 -0.41998756 0.011531259
v -0.093256116 -0.43758035 0.013893331
v -0.08250279 -0.41998756 0.01971739
v -0.1377867 -0.38568425 0.02489742
v 0.13786939 0.1229297 0.029011214
v -0.13772415 0.12307192 0.02898028
v 0.08106493 0.14692056 0.019574726
v 0.091283254 0.16991389 0.023987705
v -0.11406931 0.11354733 0.022849495
v -0.09113765 0.17005622 0.023957336
v -4.132744E-09 0.14692056 0.011531259
v 3.6359415E-07 0.1741426 0.015753085
v -0.08106493 0.14692056 0.019574726
vt 0.25 0.7
vt 0.25 0.7
vt 0.25 0.7
vt 0.25 0.7
vt 0.25 0.7
vt 0.25 0.7
vt 0.25 0.7
vt 0.25 0.7
vt 0.25 0.7
vt 0.25 0.7
vt 0.25 0.7
vt 0.25 0.7
vt 0.25 0.7
vt 0.25 0.7
vt 0.25 0.7
vt 0.25 0.7
vt 0.25 0.7
vt 0.25 0.7
vt 0.25 0.7
vt 0.25 0.7
vt 0.25 0.7
vt 0.25 0.7
vt 0.25 0.7
vt 0.25 0.7
vt 0.25 0.7
vt 0.25 0.7
vt 0.25 0.7
vt 0.25 0.7
vt 0.25 0.7
vt 0.25 0.7
vt 0.25 0.7
vt 0.25 0.7
vt 0.25 0.7
vt 0.25 0.7
vt 0.25 0.7
vt 0.25 0.7
vt 0.25 0.7
vt 0.25 0.7
vt 0.25 0.7
vt 0.25 0.7
vt 0.25 0.7
vt 0.25 0.7
vt 0.25 0.7
vt 0.25 0.7
vt 0.25 0.7
vt 0.25 0.7
vt 0.25 0.7
vt 0.25 0.7
vt 0.25 0.7
vt 0.25 0.7
vt 0.25 0.7
vt 0.25 0.7
vt 0.25 0.7
vt 0.25 0.7
vt 0.25 0.7
vt 0.25 0.7
vt 0.25 0.7
vt 0.25 0.7
vt 0.25 0.7
vt 0.25 0.7
vt 0.25 0.7
vt 0.25 0.7
vt 0.25 0.7
vt 0.25 0.7
vt 0.25 0.7
vt 0.25 0.7
vt 0.25 0.7
vt 0.25 0.7
vt 0.25 0.7
vt 0.25 0.7
vt 0.25 0.7
vt 0.25 0.7
vt 0.25 0.7
vt 0.25 0.7
vt 0.25 0.7
vt 0.25 0.7
vt 0.25 0.7
vt 0.25 0.7
vt 0.25 0.7
vt 0.25 0.7
vt 0.25 0.7
vt 0.25 0.7
vt 0.25 0.7
vt 0.25 0.7
vt 0.25 0.7
vt 0.25 0.7
vt 0.25 0.7
vt 0.25 0.7
vt 0.25 0.7
vt 0.25 0.7
vt 0.25 0.7
vt 0.25 0.7
vt 0.25 0.7
vt 0.25 0.7
vt 0.25 0.7
vt 0.25 0.7
vt 0.25 0.7
vt 0.25 0.7
vt 0.25 0.7
vt 0.25 0.7
vt 0.25 0.7
vt 0.25 0.7
vt 0.25 0.7
vt 0.25 0.7
vn -0.35431555 -0.55712867 -0.75104475
vn -0.34411842 -0.69926697 -0.6265845
vn -0 -0.75619596 -0.6543452
vn -0 -0.56272554 -0.82664376
vn -0.07861214 0.30538717 -0.9489778
vn -0 0.36115384 -0.93250626
vn 0.35429287 -0.55720204 -0.75100106
vn 0.34409535 -0.6993085 -0.62655085
vn 0.9645314 -0.15322614 -0.21494378
vn 0.078563325 0.30526382 -0.9490215
vn 0.92072284 -0.03842486 -0.3883207
vn 0.15751082 0.029951897 -0.987063
vn -0.15747656 0.028162219 -0.98712105
vn -0.07861214 0.30538717 -0.9489778
vn -0.9221507 -0.038299013 -0.38493043
vn -0.34411842 -0.69926697 -0.6265845
vn -0.17278975 0.016780032 -0.98481584
vn -0.9650132 -0.15170686 -0.21385656
vn -0.9115078 0.07093273 -0.40511975
vn -0.14358892 0.13303606 -0.9806548
vn -0.9897602 0.09602679 -0.10561053
vn -0.32975182 0.795812 -0.50788486
vn -0.37463573 0.90021545 -0.22194636
vn -0.0012386192 0.8034549 -0.5953644
vn 0.0012592904 0.9768291 -0.21401693
vn -0.32975182 0.795812 -0.50788486
vn -0.0050986656 0.1480059 -0.9889733
vn -0.14358892 0.13303606 -0.9806548
vn 0.14600687 0.12520856 -0.98132807
vn 0.33453953 0.7925006 -0.5099275
vn 0.17562327 0.015649727 -0.98433316
vn 0.37121025 0.90179336 -0.22129568
vn 0.91151613 0.069827475 -0.40529323
vn 0.98952687 0.097993456 -0.1059896
vn 0.9645314 -0.15322614 -0.21494378
vn 0.91151613 0.069827475 -0.40529323
vn 0.92072284 -0.03842486 -0.3883207
vn 0.15751082 0.029951897 -0.987063
vn 0.17562327 0.015649727 -0.98433316
vn -0.2880035 -0.6314577 -0.7199411
vn -0.29775488 -0.7127658 -0.6350644
vn -0 -0.75696796 -0.653452
vn -0 -0.63745815 -0.77048504
vn 0.2975041 -0.71286815 -0.6350672
vn 0.00010130541 -0.04627276 -0.99892884
vn -0.37693262 -0.034086786 -0.9256133
vn -0.3680456 0.056049585 -0.92811686
vn 0.2878122 -0.631543 -0.7199428
vn 0.9702121 -0.13596794 -0.2005024
vn 0.94617736 -0.037104975 -0.3215147
vn 0.3844514 -0.033276197 -0.9225454
vn 0.94617736 -0.037104975 -0.3215147
vn 0.37123138 0.056266792 -0.92683405
vn 0.93415713 0.046561643 -0.35381123
vn -0.00040076222 0.071128495 -0.99746716
vn -0.002818051 0.85576874 -0.51735085
vn -0.25029606 0.8633903 -0.43807435
vn 0.25951958 0.85729665 -0.44462577
vn 0.00032509852 0.97715557 -0.21252492
vn -0.31461746 0.92267036 -0.2229242
vn 0.32301614 0.919814 -0.22271664
vn 0.9917497 0.0773624 -0.10221336
vn 0.9917497 0.0773624 -0.10221336
vn 0.94617736 -0.037104975 -0.3215147
vn 0.9702121 -0.13596794 -0.2005024
vn -0.25029606 0.8633903 -0.43807435
vn -0.31461746 0.92267036 -0.2229242
vn -0.9914232 0.08046618 -0.10298156
vn -0.9333612 0.049051438 -0.35557118
vn -0.3680456 0.056049585 -0.92811686
vn -0.37693262 -0.034086786 -0.9256133
vn -0.9462184 -0.037477404 -0.3213506
vn -0.9705446 -0.13486454 -0.19963636
vn -0.2880035 -0.6314577 -0.7199411
vn -0.29775488 -0.7127658 -0.6350644
vn -0.09873757 0 0.99511355
vn -0.09873732 0 0.99511355
vn -0 0 1
vn -0.12565582 -0.009210519 0.9920311
vn -0 0 1
vn 0.09873752 0 0.99511355
vn 0.09873757 0 0.99511355
vn 0.12553012 -0.009216537 0.9920471
vn -0.098737545 0 0.99511355
vn -0 0 1
vn -0.13674068 -0.007204002 0.99058074
vn 0.098737545 0 0.99511355
vn -0.1555481 -0.016788278 0.9876857
vn -0.051550724 -0.2696784 0.9615696
vn -0.05500769 -0.27748197 0.95915484
vn -0 -0.35984686 0.9330115
vn -0 -0.35984686 0.93301135
vn 0.05152582 -0.26970276 0.9615642
vn 0.054988105 -0.2775161 0.9591461
vn 0.15537128 -0.016820757 0.987713
vn -0.17358704 -0.013708803 0.9847231
vn 0.1734589 -0.013788381 0.9847446
vn -0.12206651 -0.079362586 0.9893439
vn -0.13886178 -0.1315398 0.9815369
vn 0.13664901 -0.0071593774 0.99059373
vn 0.1382233 -0.13111055 0.9816845
vn -1.3962742E-05 -0.067061596 0.9977488
vn 1.2245302E-05 -0.14991277 0.98869926
vn 0.12197611 -0.078976564 0.98938596
g deluxCoop_pivot_0
f 3/3/3 2/2/2 1/1/1
f 4/4/4 3/3/3 1/1/1
f 4/4/4 1/1/1 5/5/5
f 6/6/6 4/4/4 5/5/5
f 4/4/4 7/7/7 3/3/3
f 7/7/7 4/4/4 6/6/6
f 7/7/7 8/8/8 3/3/3
f 9/9/9 8/8/8 7/7/7
f 10/10/10 7/7/7 6/6/6
f 11/11/11 9/9/9 7/7/7
f 11/11/11 7/7/7 10/10/10
f 12/12/12 11/11/11 10/10/10
f 14/14/14 1/1/1 13/13/13
f 1/1/1 15/15/15 13/13/13
f 1/1/1 16/16/16 15/15/15
f 13/13/13 15/15/15 17/17/17
f 16/16/16 18/18/18 15/15/15
f 15/15/15 19/19/19 17/17/17
f 15/15/15 18/18/18 19/19/19
f 17/17/17 19/19/19 20/20/20
f 18/18/18 21/21/21 19/19/19
f 19/19/19 22/22/22 20/20/20
f 19/19/19 21/21/21 22/22/22
f 21/21/21 23/23/23 22/22/22
f 23/23/23 25/25/25 24/24/24
f 26/26/26 23/23/23 24/24/24
f 26/26/26 24/24/24 27/27/27
f 28/28/28 26/26/26 27/27/27
f 27/27/27 24/24/24 29/29/29
f 24/24/24 25/25/25 30/30/30
f 24/24/24 30/30/30 29/29/29
f 29/29/29 30/30/30 31/31/31
f 25/25/25 32/32/32 30/30/30
f 30/30/30 33/33/33 31/31/31
f 33/33/33 30/30/30 32/32/32
f 34/34/34 33/33/33 32/32/32
f 36/36/36 34/34/34 35/35/35
f 37/37/37 36/36/36 35/35/35
f 36/36/36 37/37/37 38/38/38
f 39/39/39 36/36/36 38/38/38
f 42/42/42 41/41/41 40/40/40
f 43/43/43 42/42/42 40/40/40
f 42/42/42 43/43/43 44/44/44
f 45/45/45 43/43/43 40/40/40
f 46/46/46 45/45/45 40/40/40
f 45/45/45 46/46/46 47/47/47
f 43/43/43 48/48/48 44/44/44
f 49/49/49 44/44/44 48/48/48
f 50/50/50 49/49/49 48/48/48
f 51/51/51 48/48/48 43/43/43
f 45/45/45 51/51/51 43/43/43
f 52/52/52 48/48/48 51/51/51
f 52/52/52 51/51/51 53/53/53
f 53/53/53 51/51/51 45/45/45
f 54/54/54 52/52/52 53/53/53
f 55/55/55 45/45/45 47/47/47
f 55/55/55 53/53/53 45/45/45
f 56/56/56 55/55/55 47/47/47
f 57/57/57 56/56/56 47/47/47
f 58/58/58 53/53/53 55/55/55
f 54/54/54 53/53/53 58/58/58
f 56/56/56 58/58/58 55/55/55
f 59/59/59 56/56/56 57/57/57
f 60/60/60 59/59/59 57/57/57
f 59/59/59 61/61/61 56/56/56
f 61/61/61 58/58/58 56/56/56
f 54/54/54 58/58/58 61/61/61
f 62/62/62 54/54/54 61/61/61
f 64/64/64 54/54/54 63/63/63
f 65/65/65 64/64/64 63/63/63
f 68/68/68 67/67/67 66/66/66
f 69/69/69 68/68/68 66/66/66
f 66/66/66 70/70/70 69/69/69
f 70/70/70 71/71/71 69/69/69
f 68/68/68 69/69/69 72/72/72
f 71/71/71 72/72/72 69/69/69
f 73/73/73 68/68/68 72/72/72
f 71/71/71 74/74/74 72/72/72
f 75/75/75 73/73/73 72/72/72
f 74/74/74 75/75/75 72/72/72
f 78/78/78 77/77/77 76/76/76
f 76/76/76 77/77/77 79/79/79
f 80/80/80 78/78/78 76/76/76
f 81/81/81 78/78/78 80/80/80
f 82/82/82 81/81/81 80/80/80
f 81/81/81 82/82/82 83/83/83
f 80/80/80 76/76/76 84/84/84
f 82/82/82 80/80/80 85/85/85
f 85/85/85 80/80/80 84/84/84
f 76/76/76 79/79/79 86/86/86
f 84/84/84 76/76/76 86/86/86
f 82/82/82 87/87/87 83/83/83
f 87/87/87 82/82/82 85/85/85
f 79/79/79 88/88/88 86/86/86
f 89/89/89 88/88/88 79/79/79
f 90/90/90 89/89/89 79/79/79
f 91/91/91 89/89/89 90/90/90
f 92/92/92 91/91/91 90/90/90
f 93/93/93 91/91/91 92/92/92
f 94/94/94 93/93/93 92/92/92
f 95/95/95 93/93/93 94/94/94
f 83/83/83 95/95/95 94/94/94
f 88/88/88 96/96/96 86/86/86
f 97/97/97 95/95/95 83/83/83
f 86/86/86 96/96/96 98/98/98
f 84/84/84 86/86/86 98/98/98
f 96/96/96 99/99/99 98/98/98
f 100/100/100 97/97/97 83/83/83
f 87/87/87 100/100/100 83/83/83
f 101/101/101 97/97/97 100/100/100
f 84/84/84 98/98/98 102/102/102
f 98/98/98 99/99/99 102/102/102
f 85/85/85 84/84/84 102/102/102
f 99/99/99 103/103/103 102/102/102
f 87/87/87 85/85/85 104/104/104
f 87/87/87 104/104/104 100/100/100
f 104/104/104 101/101/101 100/100/100
f 85/85/85 102/102/102 104/104/104
f 103/103/103 101/101/101 104/104/104
f 102/102/102 103/103/103 104/104/104
