g desert_sprout_trunk01_COL
v 0.5221782 -0.015752029 -0.7992217
v 0.33582306 1.3438263 -0.50167584
v -0.11682573 1.3076906 -0.591558
v -0.1816077 -0.032870885 -0.96281636
v -0.00018995283 -0.11025634 0.0005657226
v -0.1816077 -0.032870885 -0.96281636
v -0.5008704 1.3611338 -0.33500817
v -0.77505916 -0.00502565 -0.5230597
v -0.00018995283 -0.11025634 0.0005657226
v -0.77505916 -0.00502565 -0.5230597
v -0.5915638 1.374361 0.117782116
v -0.93484014 -0.0019257492 0.20639393
v -0.00018995283 -0.11025634 0.0005657226
v -0.93484014 -0.0019257492 0.20639393
v -0.3357407 1.3455517 0.5018056
v -0.5589245 -0.0019536866 0.82463175
v -0.00018995283 -0.11025634 0.0005657226
v -0.5589245 -0.0019536866 0.82463175
v 0.11701401 1.3225566 0.5920863
v 0.18642662 -0.0019708485 0.92491245
v -0.00018995283 -0.11025634 0.0005657226
v 0.8125917 0.0063227294 0.5291546
v 0.18642662 -0.0019708485 0.92491245
v -0.00018995283 -0.11025634 0.0005657226
v 0.5014565 1.3804436 0.33542004
v 0.8125917 0.0063227294 0.5291546
v 0.5920451 1.3867843 -0.11776694
v 0.95577943 0.014591003 -0.18051493
v -0.00018995283 -0.11025634 0.0005657226
v 0.95577943 0.014591003 -0.18051493
v 0.33582306 1.3438263 -0.50167584
v 0.5221782 -0.015752029 -0.7992217
v -0.00018995283 -0.11025634 0.0005657226
v 0.5463704 4.980227 -0.9644863
v 0.33582306 1.3438263 -0.50167584
v 0.5920451 1.3867843 -0.11776694
v 1.0529226 4.994765 -0.20558727
v 0.49520367 5.8604264 -0.85173535
v 0.92798555 5.8608246 -0.20229799
v -0.045455463 6.4012747 -0.022854332
v 1.0529226 4.994765 -0.20558727
v 0.5014565 1.3804436 0.33542004
v 0.87443763 5.0429335 0.6891617
v 0.92798555 5.8608246 -0.20229799
v 0.7757039 5.8961525 0.56231403
v -0.045455463 6.4012747 -0.022854332
v 0.87443763 5.0429335 0.6891617
v 0.11701401 1.3225566 0.5920863
v 0.11525653 5.0965924 1.1949695
v 0.7757039 5.8961525 0.56231403
v 0.12756327 5.9457135 0.9942013
v -0.045455463 6.4012747 -0.022854332
v 0.11525653 5.0965924 1.1949695
v -0.3357407 1.3455517 0.5018056
v -0.77922577 5.1242123 1.0153952
v 0.12756327 5.9457135 0.9942013
v -0.6367643 5.980477 0.84037006
v -0.045455463 6.4012747 -0.022854332
v -0.77922577 5.1242123 1.0153952
v -0.5915638 1.374361 0.117782116
v -1.2849882 5.1095 0.25627312
v -0.6367643 5.980477 0.84037006
v -1.0695462 5.9800777 0.19093268
v -0.045455463 6.4012747 -0.022854332
v -1.2849882 5.1095 0.25627312
v -0.5008704 1.3611338 -0.33500817
v -1.1063029 5.0611744 -0.63767624
v -1.0695462 5.9800777 0.19093268
v -0.11682573 1.3076906 -0.591558
v -0.9172645 5.944751 -0.57367927
v -0.045455463 6.4012747 -0.022854332
v -0.34790975 5.0076895 -1.1432574
v -0.9172645 5.944751 -0.57367927
v -0.26912394 5.8951893 -1.0055666
v -0.045455463 6.4012747 -0.022854332
v -0.34790975 5.0076895 -1.1432574
v 0.33582306 1.3438263 -0.50167584
v 0.5463704 4.980227 -0.9644863
v -0.26912394 5.8951893 -1.0055666
v 0.49520367 5.8604264 -0.85173535
v -0.045455463 6.4012747 -0.022854332
vt 0.03125 0.18509975
vt 0.03125 0.36777136
vt 0.15625 0.36851174
vt 0.15625 0.18509975
vt 0.0546875 0.090277776
vt 0.15625 0.18509975
vt 0.28125 0.36851174
vt 0.28125 0.18509975
vt 0.18229167 0.060185183
vt 0.28125 0.18509975
vt 0.40625 0.36851174
vt 0.40625 0.18509975
vt 0.3046875 0.090277776
vt 0.40625 0.18509975
vt 0.53125 0.36851174
vt 0.53125 0.18509975
vt 0.43229166 0.060185183
vt 0.53125 0.18509975
vt 0.65625 0.36851174
vt 0.65625 0.18509975
vt 0.5546875 0.090277776
vt 0.78125 0.18509975
vt 0.65625 0.18509975
vt 0.6822917 0.060185183
vt 0.78125 0.36851174
vt 0.78125 0.18509975
vt 0.90625 0.36851174
vt 0.90625 0.18509975
vt 0.8046875 0.090277776
vt 0.90625 0.18509975
vt 1 0.36703098
vt 1 0.18509975
vt 0.9322917 0.060185183
vt 1 0.5
vt 1 0.36703098
vt 0.90625 0.36851174
vt 0.90625 0.51419413
vt 1 0.6666667
vt 0.90625 0.6666667
vt 0.9479167 0.86407405
vt 0.90625 0.51419413
vt 0.78125 0.36851174
vt 0.78125 0.51419413
vt 0.90625 0.6666667
vt 0.78125 0.6666667
vt 0.9479167 0.86407405
vt 0.78125 0.51419413
vt 0.65625 0.36851174
vt 0.65625 0.51419413
vt 0.78125 0.6666667
vt 0.65625 0.6666667
vt 0.796875 0.8794445
vt 0.65625 0.51419413
vt 0.53125 0.36851174
vt 0.53125 0.51419413
vt 0.65625 0.6666667
vt 0.53125 0.6666667
vt 0.671875 0.8794445
vt 0.53125 0.51419413
vt 0.40625 0.36851174
vt 0.40625 0.51419413
vt 0.53125 0.6666667
vt 0.40625 0.6666667
vt 0.546875 0.8794445
vt 0.40625 0.51419413
vt 0.28125 0.36851174
vt 0.28125 0.51419413
vt 0.40625 0.6666667
vt 0.15625 0.36851174
vt 0.28125 0.6666667
vt 0.421875 0.8794445
vt 0.15625 0.51419413
vt 0.28125 0.6666667
vt 0.15625 0.6666667
vt 0.296875 0.8794445
vt 0.15625 0.51419413
vt 0.03125 0.36777136
vt 0.03125 0.50709707
vt 0.15625 0.6666667
vt 0.03125 0.6666667
vt 0.171875 0.8794445
vn 0.55340093 -0.088400975 -0.82821053
vn 0.5495452 -0.036007002 -0.8346876
vn -0.19322562 -0.04471966 -0.98013467
vn -0.19867486 -0.08070214 -0.9767371
vn 0.0058977064 -0.9999182 0.011349333
vn -0.19867486 -0.08070214 -0.9767371
vn -0.8267086 -0.07746638 -0.5572718
vn -0.8306322 -0.08790173 -0.54983944
vn 0.0058977064 -0.9999182 0.011349333
vn -0.8306322 -0.08790173 -0.54983944
vn -0.9776145 -0.083089106 0.19330285
vn -0.98078626 -0.082044624 0.1769945
vn 0.0058977064 -0.9999182 0.011349333
vn -0.98078626 -0.082044624 0.1769945
vn -0.5450987 -0.067942806 0.83561426
vn -0.5453633 -0.06842408 0.8354023
vn 0.0058977064 -0.9999182 0.011349333
vn -0.5453633 -0.06842408 0.8354023
vn 0.19225045 -0.04606331 0.9802642
vn 0.20190494 -0.093468115 0.9749349
vn 0.0058977064 -0.9999182 0.011349333
vn 0.8222401 -0.0772068 0.5638797
vn 0.20190494 -0.093468115 0.9749349
vn 0.0058977064 -0.9999182 0.011349333
vn 0.82259446 -0.04249356 0.5670384
vn 0.8222401 -0.0772068 0.5638797
vn 0.979224 -0.033734895 -0.19995551
vn 0.9758682 -0.071008846 -0.20649198
vn 0.0058977064 -0.9999182 0.011349333
vn 0.9758682 -0.071008846 -0.20649198
vn 0.5495452 -0.036007002 -0.8346876
vn 0.55340093 -0.088400975 -0.82821053
vn 0.0058977064 -0.9999182 0.011349333
vn 0.54912096 -0.07572251 -0.8323054
vn 0.5495452 -0.036007002 -0.8346876
vn 0.979224 -0.033734895 -0.19995551
vn 0.98026973 -0.068757 -0.18532106
vn 0.5163079 0.3961922 -0.75924826
vn 0.89628124 0.40055987 -0.19034623
vn 0.05256349 0.99798137 -0.035640623
vn 0.98026973 -0.068757 -0.18532106
vn 0.82259446 -0.04249356 0.5670384
vn 0.81854963 -0.06821254 0.57037145
vn 0.89628124 0.40055987 -0.19034623
vn 0.76316476 0.43313047 0.47955966
vn 0.05256349 0.99798137 -0.035640623
vn 0.81854963 -0.06821254 0.57037145
vn 0.19225045 -0.04606331 0.9802642
vn 0.17502078 -0.0734691 0.98181975
vn 0.76316476 0.43313047 0.47955966
vn 0.19519484 0.4755222 0.8577748
vn 0.05256349 0.99798137 -0.035640623
vn 0.17502078 -0.0734691 0.98181975
vn -0.5450987 -0.067942806 0.83561426
vn -0.56214947 -0.081377484 0.8230223
vn 0.19519484 0.4755222 0.8577748
vn -0.4748762 0.5023952 0.7225592
vn 0.05256349 0.99798137 -0.035640623
vn -0.56214947 -0.081377484 0.8230223
vn -0.9776145 -0.083089106 0.19330285
vn -0.9754726 -0.08863018 0.20148891
vn -0.4748762 0.5023952 0.7225592
vn -0.8539167 0.49728432 0.15340951
vn 0.05256349 0.99798137 -0.035640623
vn -0.9754726 -0.08863018 0.20148891
vn -0.8267086 -0.07746638 -0.5572718
vn -0.83949816 -0.0908004 -0.535722
vn -0.8539167 0.49728432 0.15340951
vn -0.19322562 -0.04471966 -0.98013467
vn -0.72056127 0.46374404 -0.5154928
vn 0.05256349 0.99798137 -0.035640623
vn -0.21316236 -0.08548327 -0.97326994
vn -0.72056127 0.46374404 -0.5154928
vn -0.15351754 0.42209372 -0.8934592
vn 0.05256349 0.99798137 -0.035640623
vn -0.21316236 -0.08548327 -0.97326994
vn 0.5495452 -0.036007002 -0.8346876
vn 0.54912096 -0.07572251 -0.8323054
vn -0.15351754 0.42209372 -0.8934592
vn 0.5163079 0.3961922 -0.75924826
vn 0.05256349 0.99798137 -0.035640623
g desert_sprout_trunk01_COL_0
f 3/3/3 2/2/2 1/1/1
f 4/4/4 3/3/3 1/1/1
f 1/1/1 5/5/5 4/4/4
f 7/7/7 3/3/3 6/6/6
f 8/8/8 7/7/7 6/6/6
f 6/6/6 9/9/9 8/8/8
f 11/11/11 7/7/7 10/10/10
f 12/12/12 11/11/11 10/10/10
f 10/10/10 13/13/13 12/12/12
f 15/15/15 11/11/11 14/14/14
f 16/16/16 15/15/15 14/14/14
f 14/14/14 17/17/17 16/16/16
f 19/19/19 15/15/15 18/18/18
f 20/20/20 19/19/19 18/18/18
f 18/18/18 21/21/21 20/20/20
f 19/19/19 23/23/23 22/22/22
f 23/23/23 24/24/24 22/22/22
f 25/25/25 19/19/19 22/22/22
f 27/27/27 25/25/25 26/26/26
f 28/28/28 27/27/27 26/26/26
f 26/26/26 29/29/29 28/28/28
f 31/31/31 27/27/27 30/30/30
f 32/32/32 31/31/31 30/30/30
f 30/30/30 33/33/33 32/32/32
f 36/36/36 35/35/35 34/34/34
f 37/37/37 36/36/36 34/34/34
f 34/34/34 38/38/38 37/37/37
f 38/38/38 39/39/39 37/37/37
f 38/38/38 40/40/40 39/39/39
f 42/42/42 36/36/36 41/41/41
f 43/43/43 42/42/42 41/41/41
f 41/41/41 44/44/44 43/43/43
f 44/44/44 45/45/45 43/43/43
f 44/44/44 46/46/46 45/45/45
f 48/48/48 42/42/42 47/47/47
f 49/49/49 48/48/48 47/47/47
f 47/47/47 50/50/50 49/49/49
f 50/50/50 51/51/51 49/49/49
f 50/50/50 52/52/52 51/51/51
f 54/54/54 48/48/48 53/53/53
f 55/55/55 54/54/54 53/53/53
f 53/53/53 56/56/56 55/55/55
f 56/56/56 57/57/57 55/55/55
f 56/56/56 58/58/58 57/57/57
f 60/60/60 54/54/54 59/59/59
f 61/61/61 60/60/60 59/59/59
f 59/59/59 62/62/62 61/61/61
f 62/62/62 63/63/63 61/61/61
f 62/62/62 64/64/64 63/63/63
f 66/66/66 60/60/60 65/65/65
f 67/67/67 66/66/66 65/65/65
f 65/65/65 68/68/68 67/67/67
f 69/69/69 66/66/66 67/67/67
f 68/68/68 70/70/70 67/67/67
f 68/68/68 71/71/71 70/70/70
f 72/72/72 69/69/69 67/67/67
f 67/67/67 73/73/73 72/72/72
f 73/73/73 74/74/74 72/72/72
f 73/73/73 75/75/75 74/74/74
f 77/77/77 69/69/69 76/76/76
f 78/78/78 77/77/77 76/76/76
f 76/76/76 79/79/79 78/78/78
f 79/79/79 80/80/80 78/78/78
f 79/79/79 81/81/81 80/80/80
