g desert_sprout_trunk03_COL
v -0.01836019 -0.17248718 0.024276674
v 0.51611036 0.063014954 -0.81665343
v -0.23282215 0.030595055 -0.9542687
v 0.4758133 0.8367444 -0.7884244
v -0.24988943 0.816573 -0.9006814
v -0.23282215 0.030595055 -0.9542687
v -0.23282215 0.030595055 -0.9542687
v -0.83957124 0.82586735 -0.47532982
v -0.83196217 0.023651756 -0.48962986
v -0.01836019 -0.17248718 0.024276674
v -0.83196217 0.023651756 -0.48962986
v -0.9620721 0.82669586 0.23379934
v -0.9851373 0.028926656 0.2444721
v -0.01836019 -0.17248718 0.024276674
v -0.9851373 0.028926656 0.2444721
v -0.5557001 0.81848055 0.8233542
v -0.5578412 0.021693232 0.8590406
v -0.01836019 -0.17248718 0.024276674
v -0.5578412 0.021693232 0.8590406
v 0.1516931 0.8170874 0.95954823
v 0.171936 0.00868151 0.961638
v -0.01836019 -0.17248718 0.024276674
v 0.171936 0.00868151 0.961638
v 0.7660916 0.84245646 0.56089765
v 0.80083156 0.059083123 0.55683696
v -0.01836019 -0.17248718 0.024276674
v 0.80083156 0.059083123 0.55683696
v 0.8997935 0.85072523 -0.1456463
v 0.9229959 0.031079417 -0.17058453
v -0.01836019 -0.17248718 0.024276674
v 0.9229959 0.031079417 -0.17058453
v 0.4758133 0.8367444 -0.7884244
v 0.51611036 0.063014954 -0.81665343
v -0.01836019 -0.17248718 0.024276674
v 0.7282332 1.9084526 -1.1655135
v 0.4758133 0.8367444 -0.7884244
v 0.8997935 0.85072523 -0.1456463
v 1.3632697 1.932188 -0.20359012
v 0.57754695 2.9994998 -0.89758503
v 1.0708475 3.0181313 -0.15183169
v -0.0732632 3.57594 0.09243488
v 1.3632697 1.932188 -0.20359012
v 0.7660916 0.84245646 0.56089765
v 1.1487677 1.9372739 0.9095514
v 1.0708475 3.0181313 -0.15183169
v 0.9164103 3.0310178 0.7372748
v -0.0732632 3.57594 0.09243488
v 1.1487677 1.9372739 0.9095514
v 0.1516931 0.8170874 0.95954823
v 0.19472498 1.9531448 1.5575073
v 0.9164103 3.0310178 0.7372748
v 0.16446307 3.0600882 1.2665306
v -0.0732632 3.57594 0.09243488
v 0.19472498 1.9531448 1.5575073
v -0.5557001 0.81848055 0.8233542
v -0.9418864 1.9651401 1.3348287
v 0.16446307 3.0600882 1.2665306
v -0.74718356 3.0836816 1.1006265
v -0.0732632 3.57594 0.09243488
v -0.9418864 1.9651401 1.3348287
v -0.9620721 0.82669586 0.23379934
v -1.5855739 1.9693834 0.371864
v -0.74718356 3.0836816 1.1006265
v -1.2676079 3.0872302 0.3341586
v -0.0732632 3.57594 0.09243488
v -1.5855739 1.9693834 0.371864
v -0.83957124 0.82586735 -0.47532982
v -1.3582673 1.9607334 -0.76106906
v -1.2676079 3.0872302 0.3341586
v -0.24988943 0.816573 -0.9006814
v -1.0899645 3.0677147 -0.5686528
v -0.0732632 3.57594 0.09243488
v -0.4010126 1.9404477 -1.3976169
v -1.0899645 3.0677147 -0.5686528
v -0.33077136 3.0315018 -1.0777975
v -0.0732632 3.57594 0.09243488
v -0.4010126 1.9404477 -1.3976169
v 0.4758133 0.8367444 -0.7884244
v 0.7282332 1.9084526 -1.1655135
v -0.33077136 3.0315018 -1.0777975
v 0.57754695 2.9994998 -0.89758503
v -0.0732632 3.57594 0.09243488
vt 0.059895832 0.12264248
vt 0.03125 0.22852585
vt 0.15625 0.22852586
vt 0.03125 0.36777136
vt 0.15625 0.36851174
vt 0.15625 0.22852586
vt 0.15625 0.22852586
vt 0.28125 0.36851174
vt 0.28125 0.22852586
vt 0.196875 0.110151015
vt 0.28125 0.22852586
vt 0.40625 0.36851174
vt 0.40625 0.22852586
vt 0.321875 0.110151015
vt 0.40625 0.22852586
vt 0.53125 0.36851174
vt 0.53125 0.22852586
vt 0.446875 0.110151015
vt 0.53125 0.22852586
vt 0.65625 0.36851174
vt 0.65625 0.22852586
vt 0.571875 0.110151015
vt 0.65625 0.22852586
vt 0.78125 0.36851174
vt 0.78125 0.22852586
vt 0.68359375 0.09141383
vt 0.78125 0.22852586
vt 0.90625 0.36851174
vt 0.90625 0.22852586
vt 0.8098958 0.12264248
vt 0.90625 0.22852586
vt 1 0.36703098
vt 1 0.22852585
vt 0.946875 0.110151015
vt 1 0.5
vt 1 0.36703098
vt 0.90625 0.36851174
vt 0.90625 0.51419413
vt 1 0.6666667
vt 0.90625 0.6666667
vt 0.9125 0.8487779
vt 0.90625 0.51419413
vt 0.78125 0.36851174
vt 0.78125 0.51419413
vt 0.90625 0.6666667
vt 0.78125 0.6666667
vt 0.9125 0.8487779
vt 0.78125 0.51419413
vt 0.65625 0.36851174
vt 0.65625 0.51419413
vt 0.78125 0.6666667
vt 0.65625 0.6666667
vt 0.75 0.86240745
vt 0.65625 0.51419413
vt 0.53125 0.36851174
vt 0.53125 0.51419413
vt 0.65625 0.6666667
vt 0.53125 0.6666667
vt 0.625 0.86240745
vt 0.53125 0.51419413
vt 0.40625 0.36851174
vt 0.40625 0.51419413
vt 0.53125 0.6666667
vt 0.40625 0.6666667
vt 0.5 0.86240745
vt 0.40625 0.51419413
vt 0.28125 0.36851174
vt 0.28125 0.51419413
vt 0.40625 0.6666667
vt 0.15625 0.36851174
vt 0.28125 0.6666667
vt 0.375 0.86240745
vt 0.15625 0.51419413
vt 0.28125 0.6666667
vt 0.15625 0.6666667
vt 0.25 0.86240745
vt 0.15625 0.51419413
vt 0.03125 0.36777136
vt 0.03125 0.50709707
vt 0.15625 0.6666667
vt 0.03125 0.6666667
vt 0.09375 0.8551389
vn 0.013084259 -0.9998623 -0.010203821
vn 0.52844775 -0.34242126 -0.7768467
vn -0.2062626 -0.3751243 -0.90373534
vn 0.53427905 -0.2522596 -0.8067905
vn -0.21525346 -0.27645674 -0.9366097
vn -0.2062626 -0.3751243 -0.90373534
vn -0.2062626 -0.3751243 -0.90373534
vn -0.79714835 -0.32123533 -0.51123625
vn -0.77749467 -0.392059 -0.4917232
vn 0.013084259 -0.9998623 -0.010203821
vn -0.77749467 -0.392059 -0.4917232
vn -0.91927814 -0.3442782 0.19078848
vn -0.9048373 -0.3802703 0.19147834
vn 0.013084259 -0.9998623 -0.010203821
vn -0.9048373 -0.3802703 0.19147834
vn -0.5123251 -0.34212825 0.7877
vn -0.49419907 -0.3759014 0.78387845
vn 0.013084259 -0.9998623 -0.010203821
vn -0.49419907 -0.3759014 0.78387845
vn 0.19137073 -0.31975555 0.9279729
vn 0.19886145 -0.3943197 0.89719903
vn 0.013084259 -0.9998623 -0.010203821
vn 0.19886145 -0.3943197 0.89719903
vn 0.79753363 -0.28875887 0.5296777
vn 0.7833105 -0.35160276 0.5126404
vn 0.013084259 -0.9998623 -0.010203821
vn 0.7833105 -0.35160276 0.5126404
vn 0.9467333 -0.2555658 -0.19591406
vn 0.9070244 -0.37255484 -0.19623879
vn 0.013084259 -0.9998623 -0.010203821
vn 0.9070244 -0.37255484 -0.19623879
vn 0.53427905 -0.2522596 -0.8067905
vn 0.52844775 -0.34242126 -0.7768467
vn 0.013084259 -0.9998623 -0.010203821
vn 0.55233425 -0.057387393 -0.83164513
vn 0.53427905 -0.2522596 -0.8067905
vn 0.9467333 -0.2555658 -0.19591406
vn 0.97879297 -0.05767073 -0.1965664
vn 0.49463108 0.46998808 -0.7310618
vn 0.8641056 0.46860567 -0.18365794
vn 0.027314438 0.99948406 -0.01689942
vn 0.97879297 -0.05767073 -0.1965664
vn 0.79753363 -0.28875887 0.5296777
vn 0.8256453 -0.07991725 0.55850065
vn 0.8641056 0.46860567 -0.18365794
vn 0.7457532 0.46502358 0.47708
vn 0.027314438 0.99948406 -0.01689942
vn 0.8256453 -0.07991725 0.55850065
vn 0.19137073 -0.31975555 0.9279729
vn 0.18878728 -0.10237017 0.97666764
vn 0.7457532 0.46502358 0.47708
vn 0.19190155 0.46992323 0.8615949
vn 0.027314438 0.99948406 -0.01689942
vn 0.18878728 -0.10237017 0.97666764
vn -0.5123251 -0.34212825 0.7877
vn -0.55444586 -0.111475565 0.82471997
vn 0.19190155 0.46992323 0.8615949
vn -0.47577497 0.4794673 0.7373936
vn 0.027314438 0.99948406 -0.01689942
vn -0.55444586 -0.111475565 0.82471997
vn -0.91927814 -0.3442782 0.19078848
vn -0.97486407 -0.10377329 0.19715771
vn -0.47577497 0.4794673 0.7373936
vn -0.8544269 0.48902002 0.17553939
vn 0.027314438 0.99948406 -0.01689942
vn -0.97486407 -0.10377329 0.19715771
vn -0.79714835 -0.32123533 -0.51123625
vn -0.8343126 -0.08438885 -0.54479444
vn -0.8544269 0.48902002 0.17553939
vn -0.21525346 -0.27645674 -0.9366097
vn -0.721451 0.49364367 -0.4856176
vn 0.027314438 0.99948406 -0.01689942
vn -0.20578864 -0.05971774 -0.9767727
vn -0.721451 0.49364367 -0.4856176
vn -0.15792249 0.488136 -0.85836107
vn 0.027314438 0.99948406 -0.01689942
vn -0.20578864 -0.05971774 -0.9767727
vn 0.53427905 -0.2522596 -0.8067905
vn 0.55233425 -0.057387393 -0.83164513
vn -0.15792249 0.488136 -0.85836107
vn 0.49463108 0.46998808 -0.7310618
vn 0.027314438 0.99948406 -0.01689942
g desert_sprout_trunk03_COL_0
f 3/3/3 2/2/2 1/1/1
f 5/5/5 4/4/4 2/2/2
f 6/6/6 5/5/5 2/2/2
f 8/8/8 5/5/5 7/7/7
f 9/9/9 8/8/8 7/7/7
f 9/9/9 7/7/7 10/10/10
f 12/12/12 8/8/8 11/11/11
f 13/13/13 12/12/12 11/11/11
f 13/13/13 11/11/11 14/14/14
f 16/16/16 12/12/12 15/15/15
f 17/17/17 16/16/16 15/15/15
f 17/17/17 15/15/15 18/18/18
f 20/20/20 16/16/16 19/19/19
f 21/21/21 20/20/20 19/19/19
f 21/21/21 19/19/19 22/22/22
f 24/24/24 20/20/20 23/23/23
f 25/25/25 24/24/24 23/23/23
f 26/26/26 25/25/25 23/23/23
f 28/28/28 24/24/24 27/27/27
f 29/29/29 28/28/28 27/27/27
f 29/29/29 27/27/27 30/30/30
f 32/32/32 28/28/28 31/31/31
f 33/33/33 32/32/32 31/31/31
f 33/33/33 31/31/31 34/34/34
f 37/37/37 36/36/36 35/35/35
f 38/38/38 37/37/37 35/35/35
f 35/35/35 39/39/39 38/38/38
f 39/39/39 40/40/40 38/38/38
f 39/39/39 41/41/41 40/40/40
f 43/43/43 37/37/37 42/42/42
f 44/44/44 43/43/43 42/42/42
f 42/42/42 45/45/45 44/44/44
f 45/45/45 46/46/46 44/44/44
f 45/45/45 47/47/47 46/46/46
f 49/49/49 43/43/43 48/48/48
f 50/50/50 49/49/49 48/48/48
f 48/48/48 51/51/51 50/50/50
f 51/51/51 52/52/52 50/50/50
f 51/51/51 53/53/53 52/52/52
f 55/55/55 49/49/49 54/54/54
f 56/56/56 55/55/55 54/54/54
f 54/54/54 57/57/57 56/56/56
f 57/57/57 58/58/58 56/56/56
f 57/57/57 59/59/59 58/58/58
f 61/61/61 55/55/55 60/60/60
f 62/62/62 61/61/61 60/60/60
f 60/60/60 63/63/63 62/62/62
f 63/63/63 64/64/64 62/62/62
f 63/63/63 65/65/65 64/64/64
f 67/67/67 61/61/61 66/66/66
f 68/68/68 67/67/67 66/66/66
f 66/66/66 69/69/69 68/68/68
f 70/70/70 67/67/67 68/68/68
f 69/69/69 71/71/71 68/68/68
f 69/69/69 72/72/72 71/71/71
f 73/73/73 70/70/70 68/68/68
f 68/68/68 74/74/74 73/73/73
f 74/74/74 75/75/75 73/73/73
f 74/74/74 76/76/76 75/75/75
f 78/78/78 70/70/70 77/77/77
f 79/79/79 78/78/78 77/77/77
f 77/77/77 80/80/80 79/79/79
f 80/80/80 81/81/81 79/79/79
f 80/80/80 82/82/82 81/81/81
