g desert_graasMound02
v 3.6072636 0.038102046 -1.5126568
v 3.7043815 -5.820766E-07 -2.0073442
v 4.336643 -6.053597E-07 -1.6048521
v 4.1154537 0.038102046 -1.2035245
v 4.8694706 -6.146729E-07 -0.93978465
v 2.9075754 0.038102046 -1.5713197
v 2.7949464 -5.867332E-07 -2.0649438
v 1.9038451 0.04433383 -1.2503779
v 1.9638532 -5.378388E-07 -2.1020901
v 4.5707264 0.038102046 -0.64022183
v 5.2230144 -5.8906153E-07 0.015862584
v 0.9624201 0.066032 -2.0085895
v 1.2856436 -5.2619725E-07 -2.4681778
v 4.853933 0.038102046 0.12401134
v 5.0756063 -5.355105E-07 0.94611406
v 0.42813182 0.0765254 -2.2473276
v 0.5684614 -5.0116796E-07 -2.7936876
v 4.7196603 0.038102046 0.8435336
v 4.557433 -5.3085387E-07 1.6397399
v -0.18405199 0.08147806 -2.2979755
v -0.22806287 -6.00121E-07 -2.8610349
v 4.3096075 0.038102046 1.3521093
v 3.8511753 -5.820766E-07 2.08518
v -0.7809317 0.07677769 -2.152822
v -1.0049349 -5.3376425E-07 -2.6713824
v 3.7882984 0.038102046 1.6644496
v 3.0674481 -6.216578E-07 2.1890032
v -1.2820423 0.07511198 -1.8795514
v -1.7168055 -5.8847945E-07 -2.3180997
v -1.8554857 0.1282634 -1.2664831
v -2.296851 -3.213063E-07 -2.098813
v 3.2161891 0.038102046 1.7361891
v 2.2924204 -6.472692E-07 1.9145471
v -2.888939 0.14636049 -1.4895219
v -2.907517 -4.5751221E-07 -2.0318139
v 2.6345925 0.038102046 1.5350041
v 1.5984619 -6.3097104E-07 1.3587505
v -3.4132206 0.14254 -1.311512
v -3.6192682 -4.0978193E-07 -1.8005145
v 2.102574 0.038102046 1.0985261
v 0.8936024 -5.250331E-07 0.8068669
v 1.2096798 0.060230922 0.21191806
v 0.08152962 -5.1397365E-07 0.87708354
v -3.8785627 0.14254 -0.889976
v -4.1826696 -3.981404E-07 -1.2531316
v 0.05007565 0.084348336 0.23656398
v -0.66012144 -3.7485734E-07 1.1133728
v -1.0627717 0.15373224 0.51199317
v -1.3094285 -4.6682544E-07 1.612789
v -4.273918 0.14254 -0.21526277
v -4.631461 -4.1676685E-07 -0.44605732
v -1.6872716 0.14636049 1.2384504
v -1.9904363 -4.5984052E-07 1.9818962
v -4.575935 0.14254 0.4592842
v -5.0367327 -4.5984052E-07 0.39586842
v -2.2131083 0.14254 1.5579337
v -2.8687081 -4.3655746E-07 2.1597576
v -4.5959306 0.14254 1.0037929
v -5.0864944 -5.098991E-07 1.168837
v -2.968183 0.14254 1.7060437
v -3.860425 -4.3655746E-07 2.1400914
v -4.2978196 0.14254 1.4438474
v -4.662546 -4.1676685E-07 1.8000698
v -3.7317376 0.14254 1.7042706
v -3.9254656 0.28569385 0.41062832
v -3.919709 0.28569385 0.7433957
v -3.7526236 0.28569385 0.9876725
v -3.43634 0.28569385 1.1251813
v -2.857184 0.25447968 0.17072082
v -3.7734053 0.28569385 -0.02060175
v -2.9865873 0.28569385 1.1294034
v -3.5135455 0.28569385 -0.43488324
v -2.5063918 0.28569385 1.0386747
v -3.18791 0.28569385 -0.71784556
v -2.118007 0.28569385 0.8508998
v -2.8476472 0.28569385 -0.8336061
v -1.8668789 0.29962397 0.39336532
v -2.3495216 0.29962397 -0.6475115
v -1.9398999 0.30855957 -0.16152442
v -1.3068924 0.24489394 -0.346542
v -0.7512516 0.24698842 -0.6039965
v -0.4780084 0.22093026 -0.29447198
v -0.88139355 0.22151211 -1.0713571
v -0.03530383 0.19674064 -0.21149695
v -0.059161186 0.25633618 -0.97264886
v -0.7519877 0.19328874 -1.4755124
v 0.4942268 0.1839939 -0.41246653
v -0.48416615 0.19064075 -1.6673577
v -0.14154553 0.19024038 -1.7541552
v 0.21178544 0.18715374 -1.7249227
v 0.5201596 0.18016802 -1.5871316
v 0.81395626 0.17349564 -0.77112615
v 0.79594195 0.17215866 -1.2082362
v 1.5739477 0.08205952 -0.510121
v 2.3141503 0.083891824 0.30876875
v 2.327497 0.083891824 -0.2155608
v 2.603211 0.083891824 0.82993716
v 2.660501 0.083891824 -0.664829
v 3.3150773 0.09928137 0.18963456
v 2.9381037 0.083891824 1.0847521
v 3.148007 0.083891824 -0.9239572
v 3.3156836 0.083891824 1.2023008
v 3.5150027 0.083891824 -0.86197615
v 3.6874616 0.083891824 1.1614233
v 3.8823998 0.083891824 -0.65182567
v 4.0180025 0.083891824 0.9650007
v 4.2018867 0.083891824 -0.2899325
v 4.280658 0.083891824 0.62720776
v 4.3651524 0.083891824 0.1712364
vt 0.8445928 0.38543025
vt 0.8540492 0.33726245
vt 0.91561246 0.37645316
vt 0.8940753 0.41553044
vt 0.9674939 0.4412108
vt 0.7764641 0.37971824
vt 0.76549745 0.33165398
vt 0.67873085 0.4109683
vt 0.6845739 0.3280371
vt 0.93840516 0.47037923
vt 1.0019186 0.53426224
vt 0.5870644 0.33714122
vt 0.6185366 0.29239112
vt 0.965981 0.54479265
vt 0.9875654 0.6248408
vt 0.5350406 0.3138953
vt 0.5487045 0.26069617
vt 0.95290697 0.6148525
vt 0.9371108 0.6923791
vt 0.4754323 0.30896372
vt 0.47114694 0.2541386
vt 0.9129801 0.6643726
vt 0.8683425 0.7357517
vt 0.41731414 0.3230973
vt 0.39550292 0.27260503
vt 0.86222017 0.69478524
vt 0.79203093 0.74586093
vt 0.36852095 0.3497057
vt 0.32618806 0.30700418
vt 0.31268474 0.40940014
vt 0.26970902 0.32835615
vt 0.8065139 0.7017704
vt 0.71656644 0.71913713
vt 0.21205738 0.38768288
vt 0.21024844 0.33487988
vt 0.7498838 0.682181
vt 0.64899576 0.6650192
vt 0.16100809 0.4050157
vt 0.1409452 0.35740155
vt 0.69808114 0.6396812
vt 0.5803635 0.61128235
vt 0.61114 0.55335206
vt 0.501292 0.61811924
vt 0.11569771 0.44606066
vt 0.08608684 0.41070017
vt 0.49822932 0.5557519
vt 0.42907742 0.64112675
vt 0.38987133 0.5825704
vt 0.36585435 0.68975496
vt 0.07720193 0.5117575
vt 0.042387962 0.48928502
vt 0.32906377 0.6533056
vt 0.29954463 0.72569495
vt 0.04779455 0.5774382
vt 0.0029266775 0.5712633
vt 0.27786306 0.6844137
vt 0.21402729 0.74301326
vt 0.045847565 0.630457
vt -0.0019187033 0.6465274
vt 0.20434135 0.6988352
vt 0.11746377 0.7410984
vt 0.07487467 0.6733051
vt 0.03936127 0.7079905
vt 0.12999406 0.6986625
vt 0.111130774 0.57270056
vt 0.111691296 0.6051021
vt 0.12796044 0.6288873
vt 0.15875694 0.6422766
vt 0.21514937 0.5493407
vt 0.1259369 0.53071165
vt 0.20254937 0.6426877
vt 0.15123945 0.49037305
vt 0.249306 0.6338534
vt 0.18294656 0.462821
vt 0.28712305 0.61556983
vt 0.21607798 0.4515494
vt 0.31157538 0.57101965
vt 0.2645805 0.46966946
vt 0.30446532 0.51698995
vt 0.3661013 0.49897483
vt 0.42020407 0.4739065
vt 0.44680977 0.50404495
vt 0.40753213 0.4283996
vt 0.4899159 0.5121241
vt 0.4875929 0.4380108
vt 0.4201324 0.38904697
vt 0.54147625 0.4925558
vt 0.44621018 0.37036702
vt 0.47957116 0.36191553
vt 0.513975 0.3647619
vt 0.54400146 0.3781786
vt 0.57260835 0.45763308
vt 0.5708543 0.41507167
vt 0.6466087 0.48304713
vt 0.7186823 0.5627825
vt 0.7199819 0.51172847
vt 0.7468282 0.61352867
vt 0.7524065 0.46798322
vt 0.8161427 0.5511823
vt 0.7794367 0.63833994
vt 0.7998749 0.44275188
vt 0.81620157 0.64978576
vt 0.8356093 0.44878703
vt 0.8524016 0.6458055
vt 0.87138283 0.46924937
vt 0.88458645 0.6266798
vt 0.90249133 0.5044869
vt 0.91016126 0.59378886
vt 0.91838837 0.5493909
vn 0.02227958 0.9971872 -0.07156355
vn 0.020488236 0.99704933 -0.073979035
vn 0.05494206 0.99645495 -0.06370931
vn 0.054943796 0.9965718 -0.061854154
vn 0.07948024 0.9957217 -0.047128282
vn -0.005034435 0.99792284 -0.06422403
vn -0.0024511828 0.9978243 -0.065883465
vn 0.037742198 0.99799275 -0.05085198
vn 0.030859737 0.99746823 -0.06406959
vn 0.080657184 0.9957349 -0.044792753
vn 0.09734307 0.99515307 -0.013954548
vn 0.08401779 0.99141204 -0.10021507
vn 0.059447378 0.9948697 -0.08185529
vn 0.09650125 0.9952998 -0.008111804
vn 0.095631085 0.99468696 0.038112953
vn 0.046298746 0.98818284 -0.14612003
vn 0.036818437 0.9912492 -0.1267648
vn 0.090428986 0.99507844 0.040513776
vn 0.06736474 0.9949226 0.07477297
vn -0.011876288 0.9872777 -0.15856138
vn -0.0106773265 0.9904026 -0.13779922
vn 0.06522894 0.99520445 0.07289259
vn 0.028191032 0.9958554 0.08647112
vn -0.059442773 0.98766464 -0.14486256
vn -0.049193986 0.99090743 -0.12522982
vn 0.03092745 0.9958521 0.08556868
vn -0.011961882 0.99669135 0.08039402
vn -0.06723697 0.9890736 -0.13119723
vn -0.050601304 0.9910753 -0.123326376
vn 0.0049739303 0.9880719 -0.15391299
vn -0.0020310567 0.9850133 -0.17246631
vn -0.008093306 0.99651694 0.08299624
vn -0.038909126 0.99717367 0.06427131
vn -0.0042028283 0.97561294 -0.21945763
vn -0.008646285 0.97518504 -0.22122262
vn -0.03821019 0.9968556 0.06941689
vn -0.04754542 0.9967141 0.06557721
vn -0.13138045 0.96817654 -0.21301027
vn -0.1346932 0.9636022 -0.23092993
vn -0.044535525 0.9973354 0.05778103
vn -0.012503197 0.9952544 0.0965011
vn 0.009345205 0.99699867 0.07685288
vn 0.053150166 0.98834085 0.14267927
vn -0.21601939 0.96182734 -0.1679995
vn -0.22830397 0.95630926 -0.1826194
vn 0.054946825 0.98593545 0.15783595
vn 0.115484655 0.97945535 0.16531958
vn 0.11520595 0.9846622 0.13102704
vn 0.15210028 0.968864 0.19536623
vn -0.2534618 0.9587306 -0.12881257
vn -0.2767132 0.95009905 -0.14401971
vn 0.14966512 0.97097707 0.18655773
vn 0.098546304 0.9587938 0.26646376
vn -0.25878033 0.96372163 -0.065370664
vn -0.28644472 0.955261 -0.07366073
vn 0.08751716 0.96382385 0.25176245
vn 0.029245257 0.95452183 0.29670325
vn -0.23192164 0.9705759 0.06476685
vn -0.25697726 0.9635413 0.07450412
vn 0.02339224 0.96188074 0.2724669
vn -0.060605917 0.9556225 0.28829253
vn -0.15410426 0.9692626 0.19178642
vn -0.17580889 0.9618238 0.20972894
vn -0.053524707 0.96394414 0.26066604
vn -0.1427129 0.9890155 -0.03848659
vn -0.12715036 0.99127066 0.03486103
vn -0.08172861 0.99075973 0.1082381
vn -0.022966515 0.98902285 0.1459669
vn -0.013423932 0.99988985 0.006326996
vn -0.13715982 0.9880433 -0.07041074
vn 0.0146619165 0.98907834 0.14665921
vn -0.12163681 0.9880788 -0.09436509
vn 0.044805896 0.98912036 0.14011866
vn -0.07861724 0.989428 -0.121867254
vn 0.095896125 0.9881005 0.12025506
vn 0.007378531 0.9879033 -0.15489545
vn 0.10442914 0.9920773 0.069835484
vn 0.047289595 0.99022454 -0.13122144
vn 0.074908204 0.9960608 -0.047452584
vn 0.046854783 0.99859315 -0.024826122
vn -0.020044766 0.9997764 0.0067378213
vn 0.049279824 0.99129 0.12212928
vn -0.06580978 0.9935842 -0.091975495
vn 0.06001941 0.9859137 0.15611501
vn 0.032290608 0.9994647 -0.0052537564
vn -0.07801663 0.98818666 -0.13191082
vn 0.07048253 0.9905627 0.11754906
vn -0.06187644 0.9866305 -0.15076986
vn -0.010671156 0.9865202 -0.16329159
vn 0.051001564 0.986881 -0.1531823
vn 0.104582 0.988381 -0.11029782
vn 0.10565276 0.99387264 0.03247364
vn 0.115001604 0.9918092 -0.055579763
vn 0.045780573 0.9988986 0.010282376
vn -0.02581162 0.99932265 0.026227446
vn -0.012156204 0.99988353 -0.00922718
vn -0.034707777 0.99852127 0.041841593
vn -0.011735012 0.9992471 -0.03698182
vn -0.00095211074 0.9999995 -0.00028184862
vn -0.028382337 0.9981887 0.053045537
vn -0.0058902507 0.99876934 -0.049243763
vn -0.00573928 0.9982039 0.059633866
vn 0.017756626 0.9986004 -0.049817923
vn 0.02089838 0.99810576 0.05786402
vn 0.038590543 0.9983613 -0.042254332
vn 0.041844044 0.99804974 0.046323538
vn 0.05517135 0.9980286 -0.029915858
vn 0.0579878 0.99799794 0.02524592
vn 0.06415407 0.9979231 -0.005811976
g desert_graasMound02_0
f 3/3/3 2/2/2 1/1/1
f 4/4/4 3/3/3 1/1/1
f 5/5/5 3/3/3 4/4/4
f 1/1/1 2/2/2 6/6/6
f 2/2/2 7/7/7 6/6/6
f 6/6/6 7/7/7 8/8/8
f 7/7/7 9/9/9 8/8/8
f 10/10/10 5/5/5 4/4/4
f 11/11/11 5/5/5 10/10/10
f 8/8/8 9/9/9 12/12/12
f 9/9/9 13/13/13 12/12/12
f 14/14/14 11/11/11 10/10/10
f 15/15/15 11/11/11 14/14/14
f 12/12/12 13/13/13 16/16/16
f 13/13/13 17/17/17 16/16/16
f 18/18/18 15/15/15 14/14/14
f 19/19/19 15/15/15 18/18/18
f 16/16/16 17/17/17 20/20/20
f 17/17/17 21/21/21 20/20/20
f 22/22/22 19/19/19 18/18/18
f 23/23/23 19/19/19 22/22/22
f 20/20/20 21/21/21 24/24/24
f 21/21/21 25/25/25 24/24/24
f 26/26/26 23/23/23 22/22/22
f 27/27/27 23/23/23 26/26/26
f 24/24/24 25/25/25 28/28/28
f 25/25/25 29/29/29 28/28/28
f 28/28/28 29/29/29 30/30/30
f 29/29/29 31/31/31 30/30/30
f 32/32/32 27/27/27 26/26/26
f 33/33/33 27/27/27 32/32/32
f 30/30/30 31/31/31 34/34/34
f 31/31/31 35/35/35 34/34/34
f 36/36/36 33/33/33 32/32/32
f 37/37/37 33/33/33 36/36/36
f 34/34/34 35/35/35 38/38/38
f 35/35/35 39/39/39 38/38/38
f 40/40/40 37/37/37 36/36/36
f 41/41/41 37/37/37 40/40/40
f 42/42/42 41/41/41 40/40/40
f 43/43/43 41/41/41 42/42/42
f 38/38/38 39/39/39 44/44/44
f 39/39/39 45/45/45 44/44/44
f 46/46/46 43/43/43 42/42/42
f 47/47/47 43/43/43 46/46/46
f 48/48/48 47/47/47 46/46/46
f 49/49/49 47/47/47 48/48/48
f 44/44/44 45/45/45 50/50/50
f 45/45/45 51/51/51 50/50/50
f 52/52/52 49/49/49 48/48/48
f 53/53/53 49/49/49 52/52/52
f 50/50/50 51/51/51 54/54/54
f 51/51/51 55/55/55 54/54/54
f 56/56/56 53/53/53 52/52/52
f 57/57/57 53/53/53 56/56/56
f 54/54/54 55/55/55 58/58/58
f 55/55/55 59/59/59 58/58/58
f 60/60/60 57/57/57 56/56/56
f 61/61/61 57/57/57 60/60/60
f 58/58/58 59/59/59 62/62/62
f 59/59/59 63/63/63 62/62/62
f 63/63/63 61/61/61 64/64/64
f 64/64/64 61/61/61 60/60/60
f 62/62/62 63/63/63 64/64/64
f 54/54/54 65/65/65 50/50/50
f 58/58/58 66/66/66 54/54/54
f 66/66/66 65/65/65 54/54/54
f 62/62/62 67/67/67 58/58/58
f 67/67/67 66/66/66 58/58/58
f 64/64/64 68/68/68 62/62/62
f 68/68/68 67/67/67 62/62/62
f 67/67/67 69/69/69 66/66/66
f 66/66/66 69/69/69 65/65/65
f 68/68/68 69/69/69 67/67/67
f 65/65/65 70/70/70 50/50/50
f 65/65/65 69/69/69 70/70/70
f 50/50/50 70/70/70 44/44/44
f 71/71/71 68/68/68 64/64/64
f 71/71/71 69/69/69 68/68/68
f 60/60/60 71/71/71 64/64/64
f 70/70/70 69/69/69 72/72/72
f 70/70/70 72/72/72 44/44/44
f 73/73/73 69/69/69 71/71/71
f 73/73/73 71/71/71 60/60/60
f 44/44/44 72/72/72 38/38/38
f 56/56/56 73/73/73 60/60/60
f 72/72/72 74/74/74 38/38/38
f 72/72/72 69/69/69 74/74/74
f 38/38/38 74/74/74 34/34/34
f 75/75/75 73/73/73 56/56/56
f 75/75/75 69/69/69 73/73/73
f 52/52/52 75/75/75 56/56/56
f 74/74/74 76/76/76 34/34/34
f 74/74/74 69/69/69 76/76/76
f 34/34/34 76/76/76 30/30/30
f 77/77/77 75/75/75 52/52/52
f 77/77/77 69/69/69 75/75/75
f 48/48/48 77/77/77 52/52/52
f 76/76/76 69/69/69 78/78/78
f 76/76/76 78/78/78 30/30/30
f 79/79/79 69/69/69 77/77/77
f 78/78/78 69/69/69 79/79/79
f 79/79/79 77/77/77 48/48/48
f 78/78/78 79/79/79 80/80/80
f 30/30/30 78/78/78 80/80/80
f 80/80/80 79/79/79 48/48/48
f 80/80/80 81/81/81 30/30/30
f 48/48/48 82/82/82 80/80/80
f 82/82/82 81/81/81 80/80/80
f 81/81/81 83/83/83 30/30/30
f 30/30/30 83/83/83 28/28/28
f 84/84/84 82/82/82 48/48/48
f 46/46/46 84/84/84 48/48/48
f 82/82/82 85/85/85 81/81/81
f 81/81/81 85/85/85 83/83/83
f 84/84/84 85/85/85 82/82/82
f 83/83/83 85/85/85 86/86/86
f 83/83/83 86/86/86 28/28/28
f 87/87/87 85/85/85 84/84/84
f 87/87/87 84/84/84 46/46/46
f 28/28/28 86/86/86 24/24/24
f 42/42/42 87/87/87 46/46/46
f 86/86/86 88/88/88 24/24/24
f 86/86/86 85/85/85 88/88/88
f 24/24/24 88/88/88 20/20/20
f 88/88/88 89/89/89 20/20/20
f 88/88/88 85/85/85 89/89/89
f 20/20/20 89/89/89 16/16/16
f 89/89/89 90/90/90 16/16/16
f 89/89/89 85/85/85 90/90/90
f 16/16/16 90/90/90 12/12/12
f 90/90/90 91/91/91 12/12/12
f 90/90/90 85/85/85 91/91/91
f 12/12/12 91/91/91 8/8/8
f 92/92/92 85/85/85 87/87/87
f 92/92/92 87/87/87 42/42/42
f 91/91/91 85/85/85 93/93/93
f 93/93/93 85/85/85 92/92/92
f 91/91/91 93/93/93 8/8/8
f 93/93/93 92/92/92 94/94/94
f 94/94/94 92/92/92 42/42/42
f 8/8/8 93/93/93 94/94/94
f 42/42/42 95/95/95 94/94/94
f 94/94/94 96/96/96 8/8/8
f 95/95/95 96/96/96 94/94/94
f 97/97/97 95/95/95 42/42/42
f 40/40/40 97/97/97 42/42/42
f 96/96/96 98/98/98 8/8/8
f 8/8/8 98/98/98 6/6/6
f 95/95/95 99/99/99 96/96/96
f 97/97/97 99/99/99 95/95/95
f 96/96/96 99/99/99 98/98/98
f 100/100/100 97/97/97 40/40/40
f 100/100/100 99/99/99 97/97/97
f 36/36/36 100/100/100 40/40/40
f 98/98/98 101/101/101 6/6/6
f 98/98/98 99/99/99 101/101/101
f 102/102/102 99/99/99 100/100/100
f 102/102/102 100/100/100 36/36/36
f 101/101/101 99/99/99 103/103/103
f 6/6/6 101/101/101 1/1/1
f 101/101/101 103/103/103 1/1/1
f 32/32/32 102/102/102 36/36/36
f 1/1/1 103/103/103 4/4/4
f 104/104/104 102/102/102 32/32/32
f 104/104/104 99/99/99 102/102/102
f 26/26/26 104/104/104 32/32/32
f 103/103/103 105/105/105 4/4/4
f 103/103/103 99/99/99 105/105/105
f 4/4/4 105/105/105 10/10/10
f 106/106/106 104/104/104 26/26/26
f 106/106/106 99/99/99 104/104/104
f 22/22/22 106/106/106 26/26/26
f 105/105/105 107/107/107 10/10/10
f 105/105/105 99/99/99 107/107/107
f 10/10/10 107/107/107 14/14/14
f 108/108/108 106/106/106 22/22/22
f 108/108/108 99/99/99 106/106/106
f 18/18/18 108/108/108 22/22/22
f 14/14/14 109/109/109 18/18/18
f 107/107/107 109/109/109 14/14/14
f 107/107/107 99/99/99 109/109/109
f 109/109/109 108/108/108 18/18/18
f 109/109/109 99/99/99 108/108/108
