g desert_tree_trunk02_COL
v -1.9114047 10.614729 1.692846
v -2.1644785 9.588867 1.5999207
v -1.6761055 9.279488 0.987503
v -1.5338932 7.097005 1.1036832
v -1.3015475 7.2907276 0.85345125
v 0.48607722 4.2699413 -0.5797484
v 0.26500085 4.0929537 -0.29224125
v 0.2747043 0.8151692 -0.9227247
v -1.2192225 7.060943 1.3303304
v -1.7115972 9.823404 2.1355727
v -1.9114047 10.614729 1.692846
v -0.3260158 1.0361516 -0.20007454
v 0.5189224 4.2468314 -0.03945941
v -0.9652663 7.1653376 1.0355307
v -1.1339968 9.759872 1.5950029
v -1.9114047 10.614729 1.692846
v 0.88197875 4.588404 -0.3267068
v 0.10497621 0.9553656 0.5389345
v 1.0817052 1.1126852 -0.20199442
v 0.612376 -0.38815972 0.058970533
v 0.030252159 -0.31582233 0.6512947
v -0.5080736 -0.27381477 0.075467914
v 0.030339332 -0.39703128 -0.5228536
v -1.9114047 10.614729 1.692846
v -1.6761055 9.279488 0.987503
v -1.1339968 9.759872 1.5950029
v -0.9652663 7.1653376 1.0355307
v -1.3015475 7.2907276 0.85345125
v 0.48607722 4.2699413 -0.5797484
v 0.88197875 4.588404 -0.3267068
v 0.2747043 0.8151692 -0.9227247
v 1.0817052 1.1126852 -0.20199442
v 0.612376 -0.38815972 0.058970533
v 0.030339332 -0.39703128 -0.5228536
v 0.030339332 -0.39703128 -0.5228536
v -0.5080736 -0.27381477 0.075467914
v 0.022399334 -0.5967524 0.11224873
v 0.612376 -0.38815972 0.058970533
v 0.030252159 -0.31582233 0.6512947
vt 0.45037952 0.9172976
vt 0.46875 0.65253675
vt 0.40625 0.65253675
vt 0.46875 0.55399346
vt 0.40625 0.55399346
vt 0.40625 0.4848653
vt 0.46875 0.4848653
vt 0.40625 0.38902703
vt 0.53125 0.55399346
vt 0.53125 0.65253675
vt 0.42433786 0.7920149
vt 0.46875 0.38902703
vt 0.53125 0.4848653
vt 0.59375 0.55399346
vt 0.59375 0.65253675
vt 0.5496205 0.7659732
vt 0.59375 0.4848653
vt 0.53125 0.38902703
vt 0.59375 0.38902703
vt 0.59375 0.3125
vt 0.53125 0.3125
vt 0.46875 0.3125
vt 0.40625 0.3125
vt 0.55044144 0.87377137
vt 0.40625 0.65253675
vt 0.59375 0.65253675
vt 0.59375 0.55399346
vt 0.40625 0.55399346
vt 0.40625 0.4848653
vt 0.59375 0.4848653
vt 0.40625 0.38902703
vt 0.59375 0.38902703
vt 0.59375 0.3125
vt 0.40625 0.3125
vt 0.5 1.4901161E-08
vt 0.34375 0.15625
vt 0.5 0.1513021
vt 0.65625 0.15625
vt 0.5 0.3125
vn -0.08793754 0.9534839 -0.2883323
vn -0.9433221 -0.19951804 0.26520896
vn -0.07141187 0.13761844 -0.9879076
vn -0.9149786 -0.3916736 0.096984796
vn -0.20696743 0.1503719 -0.9667226
vn 0.10252277 0.14632045 -0.9839102
vn -0.9918916 -0.0058851475 -0.12694979
vn 0.027497416 -0.069436505 -0.99720734
vn 0.08632787 -0.3292018 0.9403052
vn 0.06785758 -0.11902943 0.99056923
vn -0.08793754 0.9534839 -0.2883323
vn -0.98330843 0.14660156 -0.107762024
vn 0.25120056 -0.041855607 0.96702963
vn 0.93918425 0.3373903 0.06403588
vn 0.97248465 0.15887176 0.17039175
vn -0.08793754 0.9534839 -0.2883323
vn 0.9425342 0.32905304 -0.057908297
vn 0.00771705 0.13239409 0.9911671
vn 0.999498 -0.023407549 0.021348996
vn 0.9380496 -0.32068518 0.13124065
vn 0.05316809 -0.018618615 0.998412
vn -0.9997285 -0.019343512 -0.012992833
vn -0.026467435 -0.36921346 -0.9289677
vn -0.08793754 0.9534839 -0.2883323
vn -0.07141187 0.13761844 -0.9879076
vn 0.97248465 0.15887176 0.17039175
vn 0.93918425 0.3373903 0.06403588
vn -0.20696743 0.1503719 -0.9667226
vn 0.10252277 0.14632045 -0.9839102
vn 0.9425342 0.32905304 -0.057908297
vn 0.027497416 -0.069436505 -0.99720734
vn 0.999498 -0.023407549 0.021348996
vn 0.9380496 -0.32068518 0.13124065
vn -0.026467435 -0.36921346 -0.9289677
vn -0.026467435 -0.36921346 -0.9289677
vn -0.9997285 -0.019343512 -0.012992833
vn -0.09189569 -0.9926842 0.07831548
vn 0.9380496 -0.32068518 0.13124065
vn 0.05316809 -0.018618615 0.998412
g desert_tree_trunk02_COL_0
f 3/3/3 2/2/2 1/1/1
f 4/4/4 2/2/2 3/3/3
f 5/5/5 4/4/4 3/3/3
f 5/5/5 6/6/6 4/4/4
f 6/6/6 7/7/7 4/4/4
f 6/6/6 8/8/8 7/7/7
f 4/4/4 9/9/9 2/2/2
f 4/4/4 7/7/7 9/9/9
f 9/9/9 10/10/10 2/2/2
f 2/2/2 10/10/10 11/11/11
f 8/8/8 12/12/12 7/7/7
f 7/7/7 13/13/13 9/9/9
f 7/7/7 12/12/12 13/13/13
f 9/9/9 14/14/14 10/10/10
f 9/9/9 13/13/13 14/14/14
f 14/14/14 15/15/15 10/10/10
f 10/10/10 15/15/15 16/16/16
f 13/13/13 17/17/17 14/14/14
f 13/13/13 18/18/18 17/17/17
f 12/12/12 18/18/18 13/13/13
f 18/18/18 19/19/19 17/17/17
f 20/20/20 19/19/19 18/18/18
f 21/21/21 20/20/20 18/18/18
f 21/21/21 18/18/18 12/12/12
f 22/22/22 21/21/21 12/12/12
f 22/22/22 12/12/12 8/8/8
f 23/23/23 22/22/22 8/8/8
f 26/26/26 25/25/25 24/24/24
f 26/26/26 27/27/27 25/25/25
f 27/27/27 28/28/28 25/25/25
f 29/29/29 28/28/28 27/27/27
f 30/30/30 29/29/29 27/27/27
f 31/31/31 29/29/29 30/30/30
f 32/32/32 31/31/31 30/30/30
f 32/32/32 33/33/33 31/31/31
f 33/33/33 34/34/34 31/31/31
f 37/37/37 36/36/36 35/35/35
f 38/38/38 37/37/37 35/35/35
f 37/37/37 39/39/39 36/36/36
f 37/37/37 38/38/38 39/39/39
