g drapeMoss01
v 2.3565245 -3.4079921 -1.4503855
v 2.356524 -8.71058 -1.3650627
v 1.356524 -11.662018 -1.3650627
v 1.3565245 -6.1026897 -1.5553002
v 2.3565245 -0.5445555 -1.3867463
v -0.9901007 -9.359652 -1.3650627
v 1.3565243 -0.48723003 -1.7086957
v 2.3565242 0.4788417 -0.8825076
v -0.99010056 -3.8003192 -1.5553002
v -1.9107733 -8.242453 -1.3650627
v -1.9901004 -3.4079905 -1.4413241
v -0.99010056 -0.65266013 -1.7086957
v -1.9901005 -0.5445555 -1.3269867
v 1.3565243 0.64895093 -0.8860068
v 2.3565242 0.6761633 0
v -0.99010056 0.48352078 -0.88600683
v -1.9901004 0.45328346 -0.8825076
v 1.3565243 0.9321969 0
v 2.3565242 0.2518672 0.88167787
v 1.3565243 0.45783478 1.2912314
v -0.9901007 0.7667668 0
v -1.9901004 0.6506051 0
v -0.99010044 0.29240456 1.2912314
v -1.9901004 0.22630897 0.88167787
v 2.3565245 -3.4079921 -1.4503855
v 1.356524 -11.662018 -1.3650627
v 2.356524 -8.71058 -1.3650627
v 1.3565245 -6.1026897 -1.5553002
v 2.3565245 -0.5445555 -1.3867463
v -0.9901007 -9.359652 -1.3650627
v 1.3565243 -0.48723003 -1.7086957
v 2.3565242 0.4788417 -0.8825076
v -0.99010056 -3.8003192 -1.5553002
v -1.9107733 -8.242453 -1.3650627
v -1.9901004 -3.4079905 -1.4413241
v -0.99010056 -0.65266013 -1.7086957
v -1.9901005 -0.5445555 -1.3269867
v 1.3565243 0.64895093 -0.8860068
v 2.3565242 0.6761633 0
v -0.99010056 0.48352078 -0.88600683
v -1.9901004 0.45328346 -0.8825076
v 1.3565243 0.9321969 0
v 2.3565242 0.2518672 0.88167787
v 1.3565243 0.45783478 1.2912314
v -0.9901007 0.7667668 0
v -1.9901004 0.6506051 0
v -0.99010044 0.29240456 1.2912314
v -1.9901004 0.22630897 0.88167787
v 2.3909354 -3.411502 -1.6473716
v 1.3655096 -11.667969 -1.564772
v 2.3811297 -8.715615 -1.5634794
v 1.3713365 -6.1078997 -1.7546829
v 2.399621 -0.49210373 -1.5748724
v -1.0014241 -9.365684 -1.5646509
v 1.3754284 -0.43146303 -1.8998309
v 2.3989413 0.6352922 -0.9996574
v -1.0086917 -3.8053617 -1.7543703
v -1.9267251 -8.247682 -1.5643569
v -2.0223315 -3.4111888 -1.638684
v -1.0133473 -0.5973524 -1.8994851
v -2.0301023 -0.4925714 -1.5159243
v 1.3719499 0.80952084 -1.0042411
v 2.4071562 0.86931884 0.011281135
v -1.0073168 0.6436455 -1.0045972
v -2.013296 0.61163545 -1.0024518
v 1.3751324 1.1311756 0.007820088
v 2.412307 0.42952695 0.9546504
v 1.378169 0.64322567 1.3630753
v -1.0093174 0.96567976 0.008018247
v -2.0145051 0.84875387 0.011888939
v -1.0126877 0.47767743 1.3630896
v -2.0220582 0.40893173 0.9566938
v 2.4079716 -3.4131918 -1.7458954
v 1.3700061 -11.670942 -1.6646266
v 2.3934124 -8.718133 -1.6626903
v 1.3786857 -6.110426 -1.8543805
v 2.4209654 -0.4656334 -1.6689135
v -1.0070823 -9.368695 -1.6644452
v 1.3848059 -0.40344825 -1.9953675
v 2.4200428 0.7135617 -1.0582118
v -1.0179194 -3.8077939 -1.8539141
v -1.9347209 -8.250292 -1.6640027
v -2.0383682 -3.4127002 -1.7373782
v -1.0248704 -0.56953436 -1.9948443
v -2.049985 -0.46627745 -1.6103348
v 1.3796481 0.8898178 -1.063344
v 2.4322486 0.9659808 0.01646241
v -1.0158942 0.723731 -1.0638657
v -2.024883 0.6908591 -1.0623629
v 1.3843576 1.2306848 0.0114043355
v 2.4398668 0.5187016 0.9905438
v 1.3888551 0.7361458 1.3984543
v -1.018858 1.0651557 0.011694419
v -2.026652 0.94786316 0.01734914
v -1.0238607 0.5705372 1.3984764
v -2.037869 0.5005291 0.9935713
v 2.3737874 -3.4097688 -1.5488681
v 1.3610156 -11.664993 -1.4649173
v 2.3688335 -8.713098 -1.4642702
v 1.3639497 -6.105321 -1.6549895
v 2.3781414 -0.5184144 -1.4808172
v -0.99576354 -9.36267 -1.4648565
v 1.3660016 -0.4593912 -1.804274
v 2.377769 0.55705184 -0.9410895
v -0.9994191 -3.8028705 -1.6548324
v -1.9187423 -8.245069 -1.4647104
v -2.0062425 -3.409619 -1.5399992
v -1.001758 -0.62506235 -1.8041024
v -2.0101416 -0.51866835 -1.4214758
v 1.364242 0.7292314 -0.9451294
v 2.3819168 0.77271175 0.005799267
v -0.99871933 0.5635748 -0.9453117
v -2.0017023 0.5324429 -0.94250077
v 1.3658557 1.0316794 0.0040207542
v 2.3845294 0.3405783 0.9183664
v 1.3673936 0.550453 1.3273382
v -0.9997322 0.8662165 0.0041223913
v -2.002322 0.74966705 0.0061119646
v -1.0014354 0.38496438 1.3273451
v -2.0061374 0.3175218 0.91940105
vt 0.5 0.5
vt 0.5 0.5
vt 0.5 0.5
vt 0.5 0.5
vt 0.5 0.5
vt 0.5 0.5
vt 0.5 0.5
vt 0.5 0.5
vt 0.5 0.5
vt 0.5 0.5
vt 0.5 0.5
vt 0.5 0.5
vt 0.5 0.5
vt 0.5 0.5
vt 0.5 0.5
vt 0.5 0.5
vt 0.5 0.5
vt 0.5 0.5
vt 0.5 0.5
vt 0.5 0.5
vt 0.5 0.5
vt 0.5 0.5
vt 0.5 0.5
vt 0.5 0.5
vt 0.5 0.5
vt 0.5 0.5
vt 0.5 0.5
vt 0.5 0.5
vt 0.5 0.5
vt 0.5 0.5
vt 0.5 0.5
vt 0.5 0.5
vt 0.5 0.5
vt 0.5 0.5
vt 0.5 0.5
vt 0.5 0.5
vt 0.5 0.5
vt 0.5 0.5
vt 0.5 0.5
vt 0.5 0.5
vt 0.5 0.5
vt 0.5 0.5
vt 0.5 0.5
vt 0.5 0.5
vt 0.5 0.5
vt 0.5 0.5
vt 0.5 0.5
vt 0.5 0.5
vt 0.5 0.5
vt 0.5 0.5
vt 0.5 0.5
vt 0.5 0.5
vt 0.5 0.5
vt 0.5 0.5
vt 0.5 0.5
vt 0.5 0.5
vt 0.5 0.5
vt 0.5 0.5
vt 0.5 0.5
vt 0.5 0.5
vt 0.5 0.5
vt 0.5 0.5
vt 0.5 0.5
vt 0.5 0.5
vt 0.5 0.5
vt 0.5 0.5
vt 0.5 0.5
vt 0.5 0.5
vt 0.5 0.5
vt 0.5 0.5
vt 0.5 0.5
vt 0.5 0.5
vt 0.5 0.5
vt 0.5 0.5
vt 0.5 0.5
vt 0.5 0.5
vt 0.5 0.5
vt 0.5 0.5
vt 0.5 0.5
vt 0.5 0.5
vt 0.5 0.5
vt 0.5 0.5
vt 0.5 0.5
vt 0.5 0.5
vt 0.5 0.5
vt 0.5 0.5
vt 0.5 0.5
vt 0.5 0.5
vt 0.5 0.5
vt 0.5 0.5
vt 0.5 0.5
vt 0.5 0.5
vt 0.5 0.5
vt 0.5 0.5
vt 0.5 0.5
vt 0.5 0.5
vt 0.5 0.5
vt 0.5 0.5
vt 0.5 0.5
vt 0.5 0.5
vt 0.5 0.5
vt 0.5 0.5
vt 0.5 0.5
vt 0.5 0.5
vt 0.5 0.5
vt 0.5 0.5
vt 0.5 0.5
vt 0.5 0.5
vt 0.5 0.5
vt 0.5 0.5
vt 0.5 0.5
vt 0.5 0.5
vt 0.5 0.5
vt 0.5 0.5
vt 0.5 0.5
vt 0.5 0.5
vt 0.5 0.5
vt 0.5 0.5
vt 0.5 0.5
vt 0.5 0.5
vn -0.20807496 0.012402618 0.9780343
vn -0.12309384 0.025168382 0.9920758
vn 0.010447261 0.032901958 0.99940395
vn -0.019170722 0.031251337 0.99932766
vn -0.22125235 -0.1149548 0.96841764
vn 0.038191937 0.033374947 0.9987129
vn -0.04816156 -0.12470504 0.99102426
vn -0.21086966 -0.730035 0.6500639
vn 0.050306633 0.030855725 0.9982571
vn 0.07969139 0.026158065 0.99647623
vn 0.16232882 0.016176362 0.9866041
vn 0.070794955 -0.113084264 0.9910601
vn 0.21628809 -0.17040297 0.961344
vn -0.0204064 -0.7744983 0.6322468
vn -0.25977343 -0.9597149 -0.10707509
vn 0.07240619 -0.76111656 0.64456105
vn 0.122210704 -0.7496522 0.6504507
vn -0.021509416 -0.99554586 -0.09179136
vn -0.28005278 -0.88711065 -0.36688575
vn -0.014867307 -0.9353905 -0.35330394
vn 0.08588581 -0.9920419 -0.09206784
vn 0.12853883 -0.9858974 -0.10716296
vn 0.08748099 -0.9319326 -0.35192123
vn 0.16036943 -0.91212803 -0.37723213
vn 0.20807505 -0.012402617 -0.9780343
vn -0.010447287 -0.032901958 -0.99940395
vn 0.123093836 -0.02516838 -0.9920758
vn 0.01917071 -0.031251337 -0.99932766
vn 0.22125247 0.11495485 -0.96841764
vn -0.038191963 -0.033374954 -0.9987129
vn 0.048161592 0.12470504 -0.99102426
vn 0.21086964 0.730035 -0.6500637
vn -0.05030663 -0.030855726 -0.9982571
vn -0.07969136 -0.026158072 -0.99647623
vn -0.16232882 -0.016176365 -0.9866041
vn -0.07079495 0.113084264 -0.9910601
vn -0.21628812 0.17040297 -0.961344
vn 0.020406403 0.7744983 -0.63224673
vn 0.2597735 0.9597149 0.10707509
vn -0.07240617 0.76111656 -0.64456105
vn -0.12221072 0.7496522 -0.6504507
vn 0.02150941 0.99554586 0.091791354
vn 0.28005278 0.88711065 0.36688575
vn 0.014867307 0.9353905 0.3533039
vn -0.085885815 0.9920419 0.09206783
vn -0.12853886 0.9858974 0.107163
vn -0.08748099 0.9319326 0.3519212
vn -0.16036943 0.91212803 0.37723213
vn 0.20445074 -0.010886277 -0.9788164
vn -0.01005044 -0.03283104 -0.9994104
vn 0.122828774 -0.025180219 -0.9921084
vn 0.01951857 -0.03079597 -0.9993351
vn 0.21758382 0.12639028 -0.9678237
vn -0.03788988 -0.03330093 -0.9987269
vn 0.047746696 0.13546321 -0.98963124
vn 0.20966236 0.7373235 -0.6421804
vn -0.049520142 -0.02946337 -0.99833846
vn -0.07995813 -0.026098048 -0.99645656
vn -0.16226886 -0.014851019 -0.9866348
vn -0.06973712 0.12354795 -0.9898851
vn -0.21310128 0.18211986 -0.95990634
vn 0.021295635 0.77921885 -0.6263901
vn 0.25523436 0.9627665 0.08908464
vn -0.07186516 0.76576823 -0.6390888
vn -0.12148563 0.7539536 -0.64559686
vn 0.022339398 0.9970018 0.07408266
vn 0.27559808 0.89174676 0.35893396
vn 0.016547665 0.9377856 0.34682015
vn -0.08436443 0.9936748 0.07411484
vn -0.12595001 0.9881181 0.08808643
vn -0.086294904 0.93449664 0.34535366
vn -0.15810478 0.9159739 0.3687746
vn 0.20269996 -0.010127453 -0.9791885
vn -0.009856182 -0.03279633 -0.9994135
vn 0.122695185 -0.025186297 -0.99212474
vn 0.019687431 -0.030563584 -0.9993389
vn 0.21583395 0.13188235 -0.9674827
vn -0.037742615 -0.03326466 -0.9987337
vn 0.04755455 0.14060326 -0.9889233
vn 0.20906052 0.7403848 -0.63884586
vn -0.04913964 -0.028768629 -0.99837756
vn -0.08008791 -0.026069112 -0.9964469
vn -0.16223782 -0.014182622 -0.9866498
vn -0.06923527 0.12855545 -0.9892826
vn -0.21159834 0.18759984 -0.9591832
vn 0.021719366 0.78118104 -0.6239266
vn 0.25315943 0.96402055 0.08108437
vn -0.07159937 0.76769876 -0.6367985
vn -0.12120134 0.75566757 -0.64364344
vn 0.022748388 0.9975477 0.06618972
vn 0.2735088 0.89389884 0.35515887
vn 0.017336033 0.938917 0.34370708
vn -0.083662 0.99429804 0.06612195
vn -0.12483317 0.98897344 0.079676144
vn -0.08572476 0.9357059 0.3422072
vn -0.15705241 0.9177592 0.36476377
vn 0.20624165 -0.011644862 -0.9784319
vn -0.010247403 -0.032866262 -0.9994072
vn 0.12296147 -0.025174249 -0.99209213
vn 0.019346358 -0.031025264 -0.99933136
vn 0.21938887 0.120749496 -0.9681363
vn -0.03803955 -0.033337705 -0.99871993
vn 0.047948696 0.13016596 -0.99033207
vn 0.21026601 0.73389757 -0.6458967
vn -0.049908992 -0.030159153 -0.99829835
vn -0.079826035 -0.026127698 -0.9964663
vn -0.16229905 -0.015515786 -0.9866196
vn -0.07025656 0.11839289 -0.9904783
vn -0.21466309 0.17639345 -0.96062744
vn 0.020858198 0.77700686 -0.6291465
vn 0.25743395 0.9613422 0.09771862
vn -0.07213404 0.76358974 -0.64166
vn -0.12181837 0.75196755 -0.6478465
vn 0.021925941 0.9963425 0.08258939
vn 0.277777 0.8894869 0.36284018
vn 0.015725471 0.93661106 0.35001773
vn -0.085104205 0.9929311 0.08273543
vn -0.12717938 0.9871043 0.09721314
vn -0.08687999 0.93323994 0.3485901
vn -0.15920885 0.9140992 0.37292776
g drapeMoss01_0
f 3/3/3 2/2/2 1/1/1
f 4/4/4 3/3/3 1/1/1
f 4/4/4 1/1/1 5/5/5
f 6/6/6 3/3/3 4/4/4
f 7/7/7 4/4/4 5/5/5
f 7/7/7 5/5/5 8/8/8
f 9/9/9 6/6/6 4/4/4
f 9/9/9 4/4/4 7/7/7
f 10/10/10 6/6/6 9/9/9
f 11/11/11 10/10/10 9/9/9
f 11/11/11 9/9/9 12/12/12
f 12/12/12 9/9/9 7/7/7
f 13/13/13 11/11/11 12/12/12
f 14/14/14 7/7/7 8/8/8
f 12/12/12 7/7/7 14/14/14
f 14/14/14 8/8/8 15/15/15
f 13/13/13 12/12/12 16/16/16
f 16/16/16 12/12/12 14/14/14
f 17/17/17 13/13/13 16/16/16
f 18/18/18 14/14/14 15/15/15
f 16/16/16 14/14/14 18/18/18
f 18/18/18 15/15/15 19/19/19
f 20/20/20 18/18/18 19/19/19
f 17/17/17 16/16/16 21/21/21
f 21/21/21 16/16/16 18/18/18
f 21/21/21 18/18/18 20/20/20
f 22/22/22 17/17/17 21/21/21
f 23/23/23 21/21/21 20/20/20
f 22/22/22 21/21/21 23/23/23
f 24/24/24 22/22/22 23/23/23
f 27/27/27 26/26/26 25/25/25
f 26/26/26 28/28/28 25/25/25
f 25/25/25 28/28/28 29/29/29
f 26/26/26 30/30/30 28/28/28
f 28/28/28 31/31/31 29/29/29
f 29/29/29 31/31/31 32/32/32
f 30/30/30 33/33/33 28/28/28
f 28/28/28 33/33/33 31/31/31
f 30/30/30 34/34/34 33/33/33
f 34/34/34 35/35/35 33/33/33
f 33/33/33 35/35/35 36/36/36
f 33/33/33 36/36/36 31/31/31
f 35/35/35 37/37/37 36/36/36
f 31/31/31 38/38/38 32/32/32
f 31/31/31 36/36/36 38/38/38
f 32/32/32 38/38/38 39/39/39
f 36/36/36 37/37/37 40/40/40
f 36/36/36 40/40/40 38/38/38
f 37/37/37 41/41/41 40/40/40
f 38/38/38 42/42/42 39/39/39
f 38/38/38 40/40/40 42/42/42
f 39/39/39 42/42/42 43/43/43
f 42/42/42 44/44/44 43/43/43
f 40/40/40 41/41/41 45/45/45
f 40/40/40 45/45/45 42/42/42
f 42/42/42 45/45/45 44/44/44
f 41/41/41 46/46/46 45/45/45
f 45/45/45 47/47/47 44/44/44
f 45/45/45 46/46/46 47/47/47
f 46/46/46 48/48/48 47/47/47
f 51/51/51 50/50/50 49/49/49
f 50/50/50 52/52/52 49/49/49
f 49/49/49 52/52/52 53/53/53
f 50/50/50 54/54/54 52/52/52
f 52/52/52 55/55/55 53/53/53
f 53/53/53 55/55/55 56/56/56
f 54/54/54 57/57/57 52/52/52
f 52/52/52 57/57/57 55/55/55
f 54/54/54 58/58/58 57/57/57
f 58/58/58 59/59/59 57/57/57
f 57/57/57 59/59/59 60/60/60
f 57/57/57 60/60/60 55/55/55
f 59/59/59 61/61/61 60/60/60
f 55/55/55 62/62/62 56/56/56
f 55/55/55 60/60/60 62/62/62
f 56/56/56 62/62/62 63/63/63
f 60/60/60 61/61/61 64/64/64
f 60/60/60 64/64/64 62/62/62
f 61/61/61 65/65/65 64/64/64
f 62/62/62 66/66/66 63/63/63
f 62/62/62 64/64/64 66/66/66
f 63/63/63 66/66/66 67/67/67
f 66/66/66 68/68/68 67/67/67
f 64/64/64 65/65/65 69/69/69
f 64/64/64 69/69/69 66/66/66
f 66/66/66 69/69/69 68/68/68
f 65/65/65 70/70/70 69/69/69
f 69/69/69 71/71/71 68/68/68
f 69/69/69 70/70/70 71/71/71
f 70/70/70 72/72/72 71/71/71
f 75/75/75 74/74/74 73/73/73
f 74/74/74 76/76/76 73/73/73
f 73/73/73 76/76/76 77/77/77
f 74/74/74 78/78/78 76/76/76
f 76/76/76 79/79/79 77/77/77
f 77/77/77 79/79/79 80/80/80
f 78/78/78 81/81/81 76/76/76
f 76/76/76 81/81/81 79/79/79
f 78/78/78 82/82/82 81/81/81
f 82/82/82 83/83/83 81/81/81
f 81/81/81 83/83/83 84/84/84
f 81/81/81 84/84/84 79/79/79
f 83/83/83 85/85/85 84/84/84
f 79/79/79 86/86/86 80/80/80
f 79/79/79 84/84/84 86/86/86
f 80/80/80 86/86/86 87/87/87
f 84/84/84 85/85/85 88/88/88
f 84/84/84 88/88/88 86/86/86
f 85/85/85 89/89/89 88/88/88
f 86/86/86 90/90/90 87/87/87
f 86/86/86 88/88/88 90/90/90
f 87/87/87 90/90/90 91/91/91
f 90/90/90 92/92/92 91/91/91
f 88/88/88 89/89/89 93/93/93
f 88/88/88 93/93/93 90/90/90
f 90/90/90 93/93/93 92/92/92
f 89/89/89 94/94/94 93/93/93
f 93/93/93 95/95/95 92/92/92
f 93/93/93 94/94/94 95/95/95
f 94/94/94 96/96/96 95/95/95
f 99/99/99 98/98/98 97/97/97
f 98/98/98 100/100/100 97/97/97
f 97/97/97 100/100/100 101/101/101
f 98/98/98 102/102/102 100/100/100
f 100/100/100 103/103/103 101/101/101
f 101/101/101 103/103/103 104/104/104
f 102/102/102 105/105/105 100/100/100
f 100/100/100 105/105/105 103/103/103
f 102/102/102 106/106/106 105/105/105
f 106/106/106 107/107/107 105/105/105
f 105/105/105 107/107/107 108/108/108
f 105/105/105 108/108/108 103/103/103
f 107/107/107 109/109/109 108/108/108
f 103/103/103 110/110/110 104/104/104
f 103/103/103 108/108/108 110/110/110
f 104/104/104 110/110/110 111/111/111
f 108/108/108 109/109/109 112/112/112
f 108/108/108 112/112/112 110/110/110
f 109/109/109 113/113/113 112/112/112
f 110/110/110 114/114/114 111/111/111
f 110/110/110 112/112/112 114/114/114
f 111/111/111 114/114/114 115/115/115
f 114/114/114 116/116/116 115/115/115
f 112/112/112 113/113/113 117/117/117
f 112/112/112 117/117/117 114/114/114
f 114/114/114 117/117/117 116/116/116
f 113/113/113 118/118/118 117/117/117
f 117/117/117 119/119/119 116/116/116
f 117/117/117 118/118/118 119/119/119
f 118/118/118 120/120/120 119/119/119
