g exterior_shell_mid_COL3
v 15.9958515 2.9507337 -5
v 15.9958515 2.9507337 4.999999
v 15.40259 5.828815 4.999999
v 15.40259 5.828815 -5
v 14.430065 8.563372 4.999999
v 14.430065 8.563372 -5
v 13.102226 11.087069 4.999999
v 13.102226 11.087069 -5
v 11.451767 13.337767 4.999999
v 11.451767 13.337767 -5
v 9.519326 15.260043 4.999999
v 9.519326 15.260043 -5
v 16.19523 -3.596064E-15 -5
v 16.19523 3.5960636E-15 4.999999
v 15.9958515 2.9507337 4.999999
v 15.9958515 2.9507337 -5
vt 0.375 0.3125
vt 0.375 0.68843985
vt 0.38125 0.68843985
vt 0.38125 0.3125
vt 0.3875 0.68843985
vt 0.3875 0.3125
vt 0.39374998 0.68843985
vt 0.39374998 0.3125
vt 0.39999998 0.68843985
vt 0.39999998 0.3125
vt 0.40624997 0.68843985
vt 0.40624997 0.3125
vt 0.61875033 0.3125
vt 0.61875033 0.68843985
vt 0.62500036 0.68843985
vt 0.62500036 0.3125
vn 0.99088013 0.13474627 0
vn 0.99088013 0.13474627 0
vn 0.9632199 0.26871437 0
vn 0.9632199 0.26871437 0
vn 0.9161652 0.40080094 0
vn 0.9161652 0.40080094 0
vn 0.8484532 0.5292704 0
vn 0.8484532 0.5292704 0
vn 0.7587116 0.6514267 0
vn 0.7587116 0.6514267 0
vn 0.6459619 0.7633696 0
vn 0.6459619 0.7633696 0
vn 0.99772495 0.06741548 0
vn 0.99772495 0.06741548 0
vn 0.99088013 0.13474627 0
vn 0.99088013 0.13474627 0
g exterior_shell_mid_COL3_0
f 3/3/3 2/2/2 1/1/1
f 4/4/4 3/3/3 1/1/1
f 5/5/5 3/3/3 4/4/4
f 6/6/6 5/5/5 4/4/4
f 7/7/7 5/5/5 6/6/6
f 8/8/8 7/7/7 6/6/6
f 9/9/9 7/7/7 8/8/8
f 10/10/10 9/9/9 8/8/8
f 11/11/11 9/9/9 10/10/10
f 12/12/12 11/11/11 10/10/10
f 15/15/15 14/14/14 13/13/13
f 16/16/16 15/15/15 13/13/13
