g exterior_shell_cap_COL4
v -10.857812 14.839249 3.6402502
v -10.857812 15.547335 4.0636277
v -10.857812 15.851955 5.0057817
v -11.022723 14.839251 5.0002937
v -10.857812 13.13853 3.5389311
v -11.022723 13.138531 4.9942183
v -10.857812 14.839249 6.359749
v -10.857812 15.547335 5.93637
v -10.857812 13.13853 6.4610686
v -10.857812 13.13853 6.4610686
v -8.8961525 14.839249 6.531082
v -10.009893 13.836578 6.645169
v -10.857812 14.839249 6.359749
v -8.017172 15.596464 5.989031
v -10.857812 15.547335 5.93637
v -8.01717 15.901085 5.006107
v -10.857812 15.851955 5.0057817
v -8.017172 15.596464 4.010967
v -10.857812 15.547335 4.0636277
v -8.8961525 14.839249 3.4689167
v -10.857812 14.839249 3.6402502
v -10.009893 13.836578 3.3548307
v -10.857812 13.13853 3.5389311
vt 0.125 0.13135299
vt 0.125 0.25
vt 0.2469205 0.25
vt 0.2469205 0.131353
vt 0.125 0
vt 0.24692051 0
vt 0.375 0.131353
vt 0.375 0.25
vt 0.375 0
vt 0.375 0
vt 0.625 0.131353
vt 0.625 0
vt 0.375 0.131353
vt 0.625 0.25
vt 0.375 0.25
vt 0.625 0.3780795
vt 0.375 0.3780795
vt 0.625 0.5
vt 0.375 0.5
vt 0.625 0.618647
vt 0.375 0.618647
vt 0.625 0.75
vt 0.375 0.75
vn -0.9935355 0.026614442 -0.11035809
vn -0.98945767 0.11632418 -0.08626853
vn -0.9931865 0.11653575 0.00024446083
vn -0.99936587 0.03560742 0.00010485979
vn -0.99320084 0.0036738096 -0.116355576
vn -0.9999939 0.003483377 -0.00026420815
vn -0.9935772 0.02602723 0.110122874
vn -0.9894755 0.1158746 0.08666757
vn -0.99325436 0.0032456594 0.11590998
vn -0.15920183 0.14341706 0.9767734
vn -0.069928676 0.48652574 0.8708632
vn -0.15920183 0.14341706 0.9767734
vn -0.09776086 0.39056763 0.9153686
vn -0.027431661 0.883047 0.46848205
vn -0.031543337 0.8323979 0.55327994
vn -0.020224089 0.9997955 1.6269998E-05
vn -0.020224087 0.9997955 -1.5890375E-05
vn -0.027344499 0.8849804 -0.46482456
vn -0.031457998 0.8345824 -0.5499843
vn -0.069928855 0.48652485 -0.8708636
vn -0.09776092 0.39056695 -0.915369
vn -0.15920165 0.14341672 -0.9767735
vn -0.15920162 0.1434167 -0.9767735
g exterior_shell_cap_COL4_0
f 3/3/3 2/2/2 1/1/1
f 4/4/4 3/3/3 1/1/1
f 4/4/4 1/1/1 5/5/5
f 6/6/6 4/4/4 5/5/5
f 4/4/4 7/7/7 3/3/3
f 4/4/4 6/6/6 7/7/7
f 7/7/7 8/8/8 3/3/3
f 6/6/6 9/9/9 7/7/7
f 12/12/12 11/11/11 10/10/10
f 11/11/11 13/13/13 10/10/10
f 11/11/11 14/14/14 13/13/13
f 14/14/14 15/15/15 13/13/13
f 14/14/14 16/16/16 15/15/15
f 16/16/16 17/17/17 15/15/15
f 16/16/16 18/18/18 17/17/17
f 18/18/18 19/19/19 17/17/17
f 18/18/18 20/20/20 19/19/19
f 20/20/20 21/21/21 19/19/19
f 20/20/20 22/22/22 21/21/21
f 22/22/22 23/23/23 21/21/21
