g exterior_frame4
v -10.5932455 12.78438 4.7028027
v -10.621704 12.550778 4.7028027
v -10.398984 12.599903 4.7028027
v -10.398985 12.599903 4.9598045
v -10.556224 12.593629 4.9376974
v -10.50021 12.696029 5.0442333
v -10.733465 12.578286 0.14758788
v -10.50021 12.696029 -0.044233397
v -10.593246 12.78438 0.040195312
v -10.50021 12.696029 5.0442333
v -10.556224 12.593629 4.9376974
v -10.593246 12.78438 4.9598045
v -7.745942 15.1809435 4.7028027
v -8.939026 13.9772215 4.7028027
v -7.600024 14.956027 4.7028027
v -9.108587 14.184906 4.7028027
v -9.926686 13.076953 4.7028027
v -10.113052 13.269366 4.7028027
v -9.108587 14.184906 4.9598045
v -7.745942 15.1809435 4.7028027
v -7.7459445 15.1809435 4.9598045
v -9.108587 14.184906 4.7028027
v -10.113052 13.269366 4.7028027
v -10.113052 13.269366 4.9598045
v -10.5932455 12.78438 4.7028027
v -10.593246 12.78438 4.9598045
v -10.5932455 12.78438 2.5
v -10.113052 13.269366 2.5
v -10.5932455 12.78438 0.29719725
v -10.113052 13.269366 0.29719725
v -10.113052 13.269366 0.040195312
v -10.593246 12.78438 0.040195312
v -10.733465 12.578286 0.14758788
v -9.108587 14.184906 0.040195312
v -9.108587 14.184906 0.29719725
v -7.745942 15.1809435 0.29719725
v -7.7459445 15.1809435 0.040195312
v -10.398984 12.599903 4.7028027
v -10.398985 12.599903 4.9598045
v -9.926686 13.076953 4.9598045
v -9.926686 13.076953 4.7028027
v -8.939026 13.9772215 4.9598045
v -9.926686 13.076953 2.5
v -8.939026 13.9772215 4.7028027
v -10.398984 12.599903 2.5
v -7.6000266 14.956027 4.9598045
v -9.926686 13.076953 0.29719725
v -7.600024 14.956027 4.7028027
v -10.398984 12.599903 0.29719725
v -7.1207943 15.230888 4.7028027
v -7.1207957 15.230888 4.9598045
v -9.926686 13.076953 0.040195312
v -10.398985 12.599903 0.040195312
v -10.501832 12.519414 0.16869628
v -8.939026 13.9772215 0.040195312
v -8.939026 13.9772215 0.29719725
v -7.6000266 14.956027 0.040195312
v -7.600024 14.956027 0.29719725
v -7.1207943 15.230888 0.29719725
v -7.1207957 15.230888 0.040195312
v -7.2566977 15.152942 4.5639796
v -7.2566977 15.152942 2.5
v -7.1207943 15.230888 2.5
v -7.464121 15.033975 4.5639796
v -7.600024 14.956027 2.5
v -7.464121 15.033975 2.5
v -10.398984 12.599903 4.7028027
v -10.621704 12.550778 4.7028027
v -10.556224 12.593629 4.9376974
v -10.398985 12.599903 4.9598045
v -10.621704 12.550778 4.7028027
v -10.5932455 12.78438 4.7028027
v -10.593246 12.78438 4.9598045
v -10.556224 12.593629 4.9376974
v -7.7459445 15.1809435 4.9598045
v -7.2579527 15.460812 4.7028027
v -7.257954 15.460812 4.9598045
v -7.745942 15.1809435 4.7028027
v -7.745942 15.1809435 2.5
v -7.2579527 15.460812 2.5
v -7.745942 15.1809435 0.29719725
v -7.600024 14.956027 0.29719725
v -8.939026 13.9772215 0.29719725
v -9.108587 14.184906 0.29719725
v -9.926686 13.076953 0.29719725
v -10.113052 13.269366 0.29719725
v -10.5932455 12.78438 0.29719725
v -10.398984 12.599903 0.29719725
v -10.501832 12.519414 0.16869628
v -10.733465 12.578286 0.14758788
v -10.398985 12.599903 0.040195312
v -10.50021 12.696029 -0.044233397
v -10.733465 12.578286 0.14758788
v -10.501832 12.519414 0.16869628
v -7.7459445 15.1809435 0.040195312
v -7.257954 15.460812 0.040195312
v -7.2579527 15.460812 0.29719725
v -7.745942 15.1809435 0.29719725
v -7.2579527 15.460812 2.5
v -7.745942 15.1809435 2.5
v -7.1207957 15.230888 0.040195312
v -7.1207943 15.230888 0.29719725
v -7.192264 15.350696 0.29719725
v -7.1922655 15.350696 -0.044233397
v -7.2579527 15.460812 0.29719725
v -7.257954 15.460812 0.040195312
v -9.926686 13.076953 4.7028027
v -10.113052 13.269366 4.7028027
v -10.113052 13.269366 2.5
v -9.926686 13.076953 2.5
v -10.113052 13.269366 0.29719725
v -9.926686 13.076953 0.29719725
v -10.5932455 12.78438 4.7028027
v -10.398984 12.599903 4.7028027
v -10.398984 12.599903 2.5
v -10.5932455 12.78438 2.5
v -10.398984 12.599903 0.29719725
v -10.5932455 12.78438 0.29719725
v -7.745942 15.1809435 4.7028027
v -7.600024 14.956027 4.7028027
v -7.600024 14.956027 2.5
v -7.745942 15.1809435 2.5
v -7.364758 14.968589 4.5096164
v -7.2504306 15.03416 4.5096164
v -7.2504306 15.03416 2.5
v -7.364758 14.968589 2.5
v -7.1207943 15.230888 4.7028027
v -7.192264 15.350696 2.5
v -7.1207943 15.230888 2.5
v -7.192264 15.350696 4.7028003
v -7.1207957 15.230888 4.9598045
v -7.1922655 15.350696 5.0442333
v -7.257954 15.460812 4.9598045
v -7.2579527 15.460812 4.7028027
v -7.2579527 15.460812 2.5
v -7.192264 15.350696 2.5
v -7.1207943 15.230888 0.29719725
v -7.1207943 15.230888 2.5
v -7.192264 15.350696 0.29719725
v -7.2579527 15.460812 0.29719725
v -7.2579527 15.460812 2.5
v -7.2504306 15.03416 0.49038085
v -7.364758 14.968589 0.49038085
v -7.364758 14.968589 2.5
v -7.2504306 15.03416 2.5
v -7.600024 14.956027 0.29719725
v -7.745942 15.1809435 0.29719725
v -7.745942 15.1809435 2.5
v -7.600024 14.956027 2.5
v -7.600024 14.956027 0.29719725
v -7.600024 14.956027 2.5
v -7.464121 15.033975 2.5
v -7.464121 15.033975 0.43601805
v -7.1207943 15.230888 0.29719725
v -7.2566977 15.152942 0.43601805
v -7.1207943 15.230888 2.5
v -7.2566977 15.152942 2.5
v -7.464121 15.033975 4.5639796
v -7.2566977 15.152942 4.5639796
v -7.2504306 15.03416 4.5096164
v -7.364758 14.968589 4.5096164
v -7.2566977 15.152942 4.5639796
v -7.2566977 15.152942 2.5
v -7.2504306 15.03416 2.5
v -7.2504306 15.03416 4.5096164
v -7.464121 15.033975 2.5
v -7.464121 15.033975 4.5639796
v -7.364758 14.968589 4.5096164
v -7.364758 14.968589 2.5
v -7.2566977 15.152942 0.43601805
v -7.464121 15.033975 0.43601805
v -7.364758 14.968589 0.49038085
v -7.2504306 15.03416 0.49038085
v -7.464121 15.033975 0.43601805
v -7.464121 15.033975 2.5
v -7.364758 14.968589 2.5
v -7.364758 14.968589 0.49038085
v -7.2566977 15.152942 2.5
v -7.2566977 15.152942 0.43601805
v -7.2504306 15.03416 0.49038085
v -7.2504306 15.03416 2.5
v -7.1922655 15.350696 5.0442333
v -7.7459445 15.1809435 4.9598045
v -7.257954 15.460812 4.9598045
v -7.6760607 15.073225 5.0442333
v -7.1207957 15.230888 4.9598045
v -7.6000266 14.956027 4.9598045
v -9.02738 14.085441 5.0442333
v -9.108587 14.184906 4.9598045
v -10.023796 13.177214 5.0442333
v -8.939026 13.9772215 4.9598045
v -10.113052 13.269366 4.9598045
v -9.926686 13.076953 4.9598045
v -10.593246 12.78438 4.9598045
v -10.398985 12.599903 4.9598045
v -10.50021 12.696029 5.0442333
v -10.50021 12.696029 -0.044233397
v -10.113052 13.269366 0.040195312
v -10.593246 12.78438 0.040195312
v -10.023796 13.177214 -0.044233397
v -10.398985 12.599903 0.040195312
v -9.108587 14.184906 0.040195312
v -9.926686 13.076953 0.040195312
v -9.02738 14.085441 -0.044233397
v -7.7459445 15.1809435 0.040195312
v -8.939026 13.9772215 0.040195312
v -7.6760607 15.073225 -0.044233397
v -7.257954 15.460812 0.040195312
v -7.6000266 14.956027 0.040195312
v -7.1922655 15.350696 -0.044233397
v -7.1207957 15.230888 0.040195312
vt 0.22104585 0.41745004
vt 0.22104585 0.41745004
vt 0.22104585 0.41745004
vt 0.22104585 0.41745004
vt 0.22104585 0.41745004
vt 0.22104585 0.41745004
vt 0.22104585 0.41745004
vt 0.22104585 0.41745004
vt 0.22104585 0.41745004
vt 0.22104585 0.41745004
vt 0.22104585 0.41745004
vt 0.22104585 0.41745004
vt 0.22104585 0.41745004
vt 0.22104585 0.41745004
vt 0.22104585 0.41745004
vt 0.22104585 0.41745004
vt 0.22104585 0.41745004
vt 0.22104585 0.41745004
vt 0.22104585 0.41745004
vt 0.22104585 0.41745004
vt 0.22104585 0.41745004
vt 0.22104585 0.41745004
vt 0.22104585 0.41745004
vt 0.22104585 0.41745004
vt 0.22104585 0.41745004
vt 0.22104585 0.41745004
vt 0.22104585 0.41745004
vt 0.22104585 0.41745004
vt 0.22104585 0.41745004
vt 0.22104585 0.41745004
vt 0.22104585 0.41745004
vt 0.22104585 0.41745004
vt 0.22104585 0.41745004
vt 0.22104585 0.41745004
vt 0.22104585 0.41745004
vt 0.22104585 0.41745004
vt 0.22104585 0.41745004
vt 0.22104585 0.41745004
vt 0.22104585 0.41745004
vt 0.22104585 0.41745004
vt 0.22104585 0.41745004
vt 0.22104585 0.41745004
vt 0.22104585 0.41745004
vt 0.22104585 0.41745004
vt 0.22104585 0.41745004
vt 0.22104585 0.41745004
vt 0.22104585 0.41745004
vt 0.22104585 0.41745004
vt 0.22104585 0.41745004
vt 0.22104585 0.41745004
vt 0.22104585 0.41745004
vt 0.22104585 0.41745004
vt 0.22104585 0.41745004
vt 0.22104585 0.41745004
vt 0.22104585 0.41745004
vt 0.22104585 0.41745004
vt 0.22104585 0.41745004
vt 0.22104585 0.41745004
vt 0.22104585 0.41745004
vt 0.22104585 0.41745004
vt 0.22104585 0.41745004
vt 0.22104585 0.41745004
vt 0.22104585 0.41745004
vt 0.22104585 0.41745004
vt 0.22104585 0.41745004
vt 0.22104585 0.41745004
vt 0.22104585 0.41745004
vt 0.22104585 0.41745004
vt 0.22104585 0.41745004
vt 0.22104585 0.41745004
vt 0.22104585 0.41745004
vt 0.22104585 0.41745004
vt 0.22104585 0.41745004
vt 0.22104585 0.41745004
vt 0.22104585 0.41745004
vt 0.22104585 0.41745004
vt 0.22104585 0.41745004
vt 0.22104585 0.41745004
vt 0.22104585 0.41745004
vt 0.22104585 0.41745004
vt 0.22104585 0.41745004
vt 0.22104585 0.41745004
vt 0.22104585 0.41745004
vt 0.22104585 0.41745004
vt 0.22104585 0.41745004
vt 0.22104585 0.41745004
vt 0.22104585 0.41745004
vt 0.22104585 0.41745004
vt 0.22104585 0.41745004
vt 0.22104585 0.41745004
vt 0.22104585 0.41745004
vt 0.22104585 0.41745004
vt 0.22104585 0.41745004
vt 0.22104585 0.41745004
vt 0.22104585 0.41745004
vt 0.22104585 0.41745004
vt 0.22104585 0.41745004
vt 0.22104585 0.41745004
vt 0.22104585 0.41745004
vt 0.22104585 0.41745004
vt 0.22104585 0.41745004
vt 0.22104585 0.41745004
vt 0.22104585 0.41745004
vt 0.22104585 0.41745004
vt 0.22104585 0.41745004
vt 0.22104585 0.41745004
vt 0.22104585 0.41745004
vt 0.22104585 0.41745004
vt 0.22104585 0.41745004
vt 0.22104585 0.41745004
vt 0.22104585 0.41745004
vt 0.22104585 0.41745004
vt 0.22104585 0.41745004
vt 0.22104585 0.41745004
vt 0.22104585 0.41745004
vt 0.22104585 0.41745004
vt 0.22104585 0.41745004
vt 0.22104585 0.41745004
vt 0.22104585 0.41745004
vt 0.22104585 0.41745004
vt 0.22104585 0.41745004
vt 0.22104585 0.41745004
vt 0.09605873 0.30846846
vt 0.0960587 0.2915315
vt 0.36367905 0.2915315
vt 0.36367905 0.3084684
vt 0.22104585 0.41745004
vt 0.22104585 0.41745004
vt 0.22104585 0.41745004
vt 0.22104585 0.41745004
vt 0.22104585 0.41745004
vt 0.22104585 0.41745004
vt 0.22104585 0.41745004
vt 0.22104585 0.41745004
vt 0.22104585 0.41745004
vt 0.22104585 0.41745004
vt 0.22104585 0.41745004
vt 0.22104585 0.41745004
vt 0.22104585 0.41745004
vt 0.22104585 0.41745004
vt 0.22104585 0.41745004
vt 0.6312996 0.29153156
vt 0.6312996 0.30846834
vt 0.36367905 0.3084684
vt 0.36367905 0.2915315
vt 0.22104585 0.41745004
vt 0.22104585 0.41745004
vt 0.22104585 0.41745004
vt 0.22104585 0.41745004
vt 0.22104585 0.41745004
vt 0.22104585 0.41745004
vt 0.22104585 0.41745004
vt 0.22104585 0.41745004
vt 0.22104585 0.41745004
vt 0.22104585 0.41745004
vt 0.22104585 0.41745004
vt 0.22104585 0.41745004
vt 0.32598174 0.37877342
vt 0.349646 0.37877357
vt 0.3442806 0.35921842
vt 0.33123717 0.35921824
vt 0.30468932 0.3784054
vt 0.516363 0.3784054
vt 0.516363 0.3595863
vt 0.31026465 0.3595863
vt 0.516363 0.3782125
vt 0.30468932 0.3782125
vt 0.31026465 0.35977918
vt 0.516363 0.35977918
vt 0.67253345 0.37877342
vt 0.69619775 0.37877342
vt 0.6909422 0.35921824
vt 0.6778988 0.35921824
vt 0.728037 0.3782125
vt 0.516363 0.3782125
vt 0.516363 0.35977918
vt 0.7224617 0.35977918
vt 0.516363 0.3784054
vt 0.728037 0.3784054
vt 0.7224617 0.3595863
vt 0.516363 0.3595863
vt 0.22104585 0.41745004
vt 0.22104585 0.41745004
vt 0.22104585 0.41745004
vt 0.22104585 0.41745004
vt 0.22104585 0.41745004
vt 0.22104585 0.41745004
vt 0.22104585 0.41745004
vt 0.22104585 0.41745004
vt 0.22104585 0.41745004
vt 0.22104585 0.41745004
vt 0.22104585 0.41745004
vt 0.22104585 0.41745004
vt 0.22104585 0.41745004
vt 0.22104585 0.41745004
vt 0.22104585 0.41745004
vt 0.22104585 0.41745004
vt 0.22104585 0.41745004
vt 0.22104585 0.41745004
vt 0.22104585 0.41745004
vt 0.22104585 0.41745004
vt 0.22104585 0.41745004
vt 0.22104585 0.41745004
vt 0.22104585 0.41745004
vt 0.22104585 0.41745004
vt 0.22104585 0.41745004
vt 0.22104585 0.41745004
vt 0.22104585 0.41745004
vt 0.22104585 0.41745004
vt 0.22104585 0.41745004
vt 0.22104585 0.41745004
vn -0 0 -1
vn -0 0 -1
vn -0 0 -1
vn -0.07197762 -0.6999181 0.71058697
vn -0.43229654 -0.52573025 0.73261684
vn -0.5221443 -0.46092823 0.71757257
vn -0.26157779 -0.66015214 -0.7041138
vn -0.28944215 -0.6302419 -0.7204294
vn -0.6478457 0.044498287 -0.7604708
vn -0.5221443 -0.46092823 0.71757257
vn -0.43229654 -0.52573025 0.73261684
vn -0.76138866 -0.2185102 0.61036104
vn -0 0 -1
vn -0 0 -1
vn -0 0 -1
vn -0 0 -1
vn -0 0 -1
vn -0 0 -1
vn -0.62827367 0.7779925 -2.915425E-06
vn -0.5201821 0.8540554 -1.4964601E-06
vn -0.5676144 0.8232945 -4.7029193E-06
vn -0.6282736 0.7779925 -2.9154314E-06
vn -0.7043732 0.70982987 -1.9264303E-07
vn -0.6861955 0.7274172 -7.446982E-07
vn -0.7106093 0.70358676 -2.3268127E-07
vn -0.710609 0.7035871 -2.227021E-06
vn -0.7106093 0.70358676 0
vn -0.7106093 0.70358676 0
vn -0.71219033 0.70198643 3.164486E-07
vn -0.70437324 0.70982987 2.0204648E-07
vn -0.6861956 0.7274172 7.8104915E-07
vn -0.72573 0.6879797 2.7890076E-06
vn -0.8267864 0.56251603 6.0975035E-06
vn -0.62827384 0.77799225 1.998206E-06
vn -0.6282738 0.7779923 1.99821E-06
vn -0.5201821 0.85405546 1.2909467E-06
vn -0.5676144 0.8232945 4.0570394E-06
vn 0.71063685 -0.703559 1.4792235E-07
vn 0.71063685 -0.7035591 1.415784E-06
vn 0.68622 -0.72739404 1.8664593E-06
vn 0.7044009 -0.7098023 4.8275325E-07
vn 0.62830645 -0.7779659 3.7174111E-06
vn 0.71063685 -0.703559 0
vn 0.62830645 -0.77796596 3.7174143E-06
vn 0.71063685 -0.703559 0
vn 0.56764555 -0.8232731 3.7680584E-06
vn 0.7044009 -0.7098023 -1.9586616E-07
vn 0.54938585 -0.83556885 2.7689523E-06
vn 0.71018386 -0.70401627 -2.501889E-07
vn 0.49752215 -0.8674513 0
vn 0.49752265 -0.867451 0
vn 0.68622005 -0.727394 -7.572735E-07
vn 0.70647 -0.707743 -2.2948786E-06
vn 0.6163086 -0.78750473 -2.9025146E-06
vn 0.6283066 -0.77796584 -2.0328755E-06
vn 0.62830645 -0.7779659 -2.0328791E-06
vn 0.56764555 -0.8232731 -2.4751614E-06
vn 0.5493858 -0.83556885 -2.285744E-06
vn 0.49752337 -0.8674506 -5.845443E-07
vn 0.4975228 -0.86745095 1.1100385E-06
vn 0.49752188 -0.8674515 0
vn 0.49752265 -0.867451 0
vn 0.49752265 -0.867451 0
vn 0.49752188 -0.8674515 0
vn 0.4975216 -0.86745155 0
vn 0.4975216 -0.86745155 0
vn 0.1401074 -0.98783976 0.0673982
vn 0.1401074 -0.98783976 0.0673982
vn 0.14010738 -0.98783976 0.0673982
vn 0.1401074 -0.98783976 0.0673982
vn -0.99058527 -0.026983308 0.1342112
vn -0.99058527 -0.026983308 0.13421123
vn -0.99058527 -0.02698331 0.1342112
vn -0.99058527 -0.02698331 0.13421123
vn -0.5676144 0.8232945 -4.7029193E-06
vn -0.49750137 0.86746323 -3.159141E-07
vn -0.4975006 0.8674637 -3.0236645E-06
vn -0.5201821 0.8540554 -1.4964601E-06
vn -0.4975015 0.8674632 0
vn -0.4975015 0.8674632 0
vn -0 0 1
vn -0 0 1
vn -0 0 1
vn -0 0 1
vn -0 0 1
vn -0 0 1
vn -0.3261135 -0.5012224 0.80151486
vn -0.3261135 -0.5012224 0.8015149
vn -0.3261135 -0.5012224 0.80151486
vn -0.3261135 -0.5012224 0.8015149
vn -0.1536506 -0.759973 -0.6315319
vn -0.28944215 -0.6302419 -0.7204294
vn -0.26157779 -0.66015214 -0.7041138
vn -0.15365058 -0.75997293 -0.6315319
vn -0.5676144 0.8232945 4.0570394E-06
vn -0.4975006 0.8674636 5.40373E-06
vn -0.49750137 0.86746323 5.645848E-07
vn -0.5201821 0.85405546 1.2909467E-06
vn -0.4975015 0.8674632 0
vn -0.4975015 0.8674632 0
vn 0.8588006 0.51231 -3.7757118E-06
vn 0.8588022 0.5123073 -4.5153737E-07
vn 0.85880095 0.5123093 -3.9802742E-07
vn 0.85880095 0.5123095 -3.337069E-06
vn 0.8587997 0.5123115 -3.3980797E-07
vn 0.85880125 0.51230884 -2.8414431E-06
vn 0.7183039 0.69572955 0
vn 0.7183039 0.69572955 0
vn 0.7183039 0.69572955 0
vn 0.7183039 0.69572955 0
vn 0.7183039 0.69572955 0
vn 0.7183039 0.69572955 0
vn -0.6886075 -0.7251343 0
vn -0.6886075 -0.7251343 0
vn -0.6886075 -0.7251343 0
vn -0.6886075 -0.7251343 0
vn -0.6886075 -0.7251343 0
vn -0.6886075 -0.7251343 0
vn -0.8389162 -0.5442607 0
vn -0.8389162 -0.5442607 0
vn -0.8389162 -0.5442607 0
vn -0.8389162 -0.5442607 0
vn 0.49752066 -0.8674521 0
vn 0.49752066 -0.8674521 0
vn 0.49751955 -0.86745274 0
vn 0.49751955 -0.86745274 0
vn 0.85880166 0.51230824 5.5957463E-07
vn 0.8588009 0.5123096 0
vn 0.8588021 0.51230735 0
vn 0.8588007 0.5123098 4.5430835E-07
vn 0.8587999 0.51231104 4.6789924E-06
vn 0.85880107 0.5123093 3.816252E-06
vn 0.8588022 0.5123073 2.8414345E-06
vn 0.8587997 0.51231146 3.3981556E-07
vn 0.8587994 0.51231194 0
vn 0.8588009 0.5123096 0
vn 0.8588022 0.5123073 -4.5153737E-07
vn 0.8588021 0.51230735 0
vn 0.85880095 0.5123093 -3.9802742E-07
vn 0.8587997 0.5123115 -3.3980797E-07
vn 0.8587994 0.51231194 0
vn 0.49751845 -0.86745334 0
vn 0.49751845 -0.86745334 0
vn 0.49751955 -0.86745274 0
vn 0.49751955 -0.86745274 0
vn -0.83891624 -0.5442606 0
vn -0.83891624 -0.5442606 0
vn -0.8389162 -0.5442607 0
vn -0.8389162 -0.5442607 0
vn 0.5493858 -0.83556885 -2.285744E-06
vn 0.4975216 -0.86745155 0
vn 0.4975216 -0.86745155 0
vn 0.49752215 -0.8674513 -2.097354E-06
vn 0.49752337 -0.8674506 -5.845443E-07
vn 0.49752384 -0.8674503 -2.097358E-06
vn 0.49752265 -0.867451 0
vn 0.49752265 -0.867451 0
vn 0.22677727 -0.39539546 0.89007556
vn 0.22677727 -0.3953955 0.89007556
vn 0.22677724 -0.3953955 0.89007556
vn 0.22677727 -0.3953955 0.89007556
vn 0.99861085 0.05269152 0
vn 0.99861085 0.052691486 0
vn 0.99861085 0.052691486 0
vn 0.99861085 0.05269152 0
vn -0.54970884 -0.8353563 0
vn -0.5497086 -0.8353565 0
vn -0.54970866 -0.8353565 0
vn -0.54970884 -0.8353563 0
vn 0.22677703 -0.39539552 -0.8900757
vn 0.22677703 -0.39539552 -0.8900757
vn 0.22677703 -0.39539552 -0.8900757
vn 0.22677703 -0.39539552 -0.8900757
vn -0.54970914 -0.8353562 0
vn -0.54970884 -0.8353563 0
vn -0.54970884 -0.8353563 0
vn -0.54970914 -0.8353562 0
vn 0.99861085 0.052691486 0
vn 0.99861085 0.05269146 0
vn 0.99861085 0.052691452 0
vn 0.99861085 0.052691486 0
vn 0.0014787315 -0.0025706694 0.9999956
vn -0.31192693 0.45243368 0.83546716
vn -0.27362448 0.47709608 0.83517003
vn -0.012275596 0.01780183 0.9997662
vn 0.2576195 -0.449177 0.85549533
vn 0.29367647 -0.4259289 0.85576785
vn -0.013205033 0.016346687 0.99977916
vn -0.34517756 0.42743638 0.8355541
vn -0.00811564 0.008663419 0.99992955
vn 0.3249793 -0.40238577 0.85584706
vn -0.37728503 0.39989644 0.83530766
vn 0.3551642 -0.37652382 0.8556216
vn -0.39069828 0.3868311 0.83529437
vn 0.36783677 -0.36418122 0.8556098
vn -0.0068794275 0.006820113 0.99995315
vn -0.006878855 0.006819819 -0.99995315
vn -0.3772855 0.39989737 -0.835307
vn -0.39069825 0.3868311 -0.83529437
vn -0.008116088 0.008664111 -0.99992955
vn 0.36783856 -0.3641826 -0.8556084
vn -0.34517637 0.42743537 -0.8355551
vn 0.35516453 -0.37652427 -0.85562116
vn -0.013204347 0.016346596 -0.99977916
vn -0.3119247 0.4524315 -0.8354691
vn 0.32497987 -0.40238568 -0.8558469
vn -0.012274042 0.017801154 -0.9997662
vn -0.2736241 0.47709617 -0.8351701
vn 0.29367754 -0.42592898 -0.8557675
vn 0.0014787035 -0.0025701195 -0.9999956
vn 0.25762 -0.44917783 -0.8554947
g exterior_frame4_0
f 3/3/3 2/2/2 1/1/1
f 6/6/6 5/5/5 4/4/4
f 9/9/9 8/8/8 7/7/7
f 12/12/12 11/11/11 10/10/10
f 15/15/15 14/14/14 13/13/13
f 14/14/14 16/16/16 13/13/13
f 14/14/14 17/17/17 16/16/16
f 17/17/17 18/18/18 16/16/16
f 21/21/21 20/20/20 19/19/19
f 20/20/20 22/22/22 19/19/19
f 19/19/19 22/22/22 23/23/23
f 24/24/24 19/19/19 23/23/23
f 24/24/24 23/23/23 25/25/25
f 26/26/26 24/24/24 25/25/25
f 27/27/27 25/25/25 23/23/23
f 28/28/28 27/27/27 23/23/23
f 27/27/27 28/28/28 29/29/29
f 28/28/28 30/30/30 29/29/29
f 30/30/30 31/31/31 29/29/29
f 31/31/31 32/32/32 29/29/29
f 29/29/29 32/32/32 33/33/33
f 34/34/34 31/31/31 30/30/30
f 35/35/35 34/34/34 30/30/30
f 35/35/35 36/36/36 34/34/34
f 36/36/36 37/37/37 34/34/34
f 40/40/40 39/39/39 38/38/38
f 41/41/41 40/40/40 38/38/38
f 40/40/40 41/41/41 42/42/42
f 43/43/43 41/41/41 38/38/38
f 41/41/41 44/44/44 42/42/42
f 45/45/45 43/43/43 38/38/38
f 42/42/42 44/44/44 46/46/46
f 43/43/43 45/45/45 47/47/47
f 44/44/44 48/48/48 46/46/46
f 45/45/45 49/49/49 47/47/47
f 46/46/46 48/48/48 50/50/50
f 51/51/51 46/46/46 50/50/50
f 52/52/52 47/47/47 49/49/49
f 53/53/53 52/52/52 49/49/49
f 54/54/54 53/53/53 49/49/49
f 47/47/47 52/52/52 55/55/55
f 56/56/56 47/47/47 55/55/55
f 56/56/56 55/55/55 57/57/57
f 58/58/58 56/56/56 57/57/57
f 58/58/58 57/57/57 59/59/59
f 57/57/57 60/60/60 59/59/59
f 61/61/61 50/50/50 48/48/48
f 61/61/61 62/62/62 50/50/50
f 62/62/62 63/63/63 50/50/50
f 64/64/64 61/61/61 48/48/48
f 64/64/64 48/48/48 65/65/65
f 66/66/66 64/64/64 65/65/65
f 69/69/69 68/68/68 67/67/67
f 70/70/70 69/69/69 67/67/67
f 73/73/73 72/72/72 71/71/71
f 74/74/74 73/73/73 71/71/71
f 77/77/77 76/76/76 75/75/75
f 76/76/76 78/78/78 75/75/75
f 79/79/79 78/78/78 76/76/76
f 80/80/80 79/79/79 76/76/76
f 83/83/83 82/82/82 81/81/81
f 84/84/84 83/83/83 81/81/81
f 85/85/85 83/83/83 84/84/84
f 86/86/86 85/85/85 84/84/84
f 89/89/89 88/88/88 87/87/87
f 90/90/90 89/89/89 87/87/87
f 93/93/93 92/92/92 91/91/91
f 94/94/94 93/93/93 91/91/91
f 97/97/97 96/96/96 95/95/95
f 98/98/98 97/97/97 95/95/95
f 99/99/99 97/97/97 98/98/98
f 100/100/100 99/99/99 98/98/98
f 103/103/103 102/102/102 101/101/101
f 104/104/104 103/103/103 101/101/101
f 105/105/105 103/103/103 104/104/104
f 106/106/106 105/105/105 104/104/104
f 109/109/109 108/108/108 107/107/107
f 110/110/110 109/109/109 107/107/107
f 109/109/109 110/110/110 111/111/111
f 110/110/110 112/112/112 111/111/111
f 115/115/115 114/114/114 113/113/113
f 116/116/116 115/115/115 113/113/113
f 115/115/115 116/116/116 117/117/117
f 116/116/116 118/118/118 117/117/117
f 121/121/121 120/120/120 119/119/119
f 122/122/122 121/121/121 119/119/119
f 125/125/125 124/124/124 123/123/123
f 126/126/126 125/125/125 123/123/123
f 129/129/129 128/128/128 127/127/127
f 128/128/128 130/130/130 127/127/127
f 127/127/127 130/130/130 131/131/131
f 130/130/130 132/132/132 131/131/131
f 133/133/133 132/132/132 130/130/130
f 134/134/134 133/133/133 130/130/130
f 134/134/134 130/130/130 128/128/128
f 135/135/135 134/134/134 128/128/128
f 138/138/138 137/137/137 136/136/136
f 137/137/137 139/139/139 136/136/136
f 136/136/136 139/139/139 140/140/140
f 141/141/141 136/136/136 140/140/140
f 144/144/144 143/143/143 142/142/142
f 145/145/145 144/144/144 142/142/142
f 148/148/148 147/147/147 146/146/146
f 149/149/149 148/148/148 146/146/146
f 152/152/152 151/151/151 150/150/150
f 153/153/153 152/152/152 150/150/150
f 153/153/153 150/150/150 154/154/154
f 155/155/155 153/153/153 154/154/154
f 155/155/155 154/154/154 156/156/156
f 157/157/157 155/155/155 156/156/156
f 160/160/160 159/159/159 158/158/158
f 161/161/161 160/160/160 158/158/158
f 164/164/164 163/163/163 162/162/162
f 165/165/165 164/164/164 162/162/162
f 168/168/168 167/167/167 166/166/166
f 169/169/169 168/168/168 166/166/166
f 172/172/172 171/171/171 170/170/170
f 173/173/173 172/172/172 170/170/170
f 176/176/176 175/175/175 174/174/174
f 177/177/177 176/176/176 174/174/174
f 180/180/180 179/179/179 178/178/178
f 181/181/181 180/180/180 178/178/178
f 184/184/184 183/183/183 182/182/182
f 183/183/183 185/185/185 182/182/182
f 182/182/182 185/185/185 186/186/186
f 185/185/185 187/187/187 186/186/186
f 188/188/188 185/185/185 183/183/183
f 187/187/187 185/185/185 188/188/188
f 189/189/189 188/188/188 183/183/183
f 190/190/190 188/188/188 189/189/189
f 191/191/191 187/187/187 188/188/188
f 191/191/191 188/188/188 190/190/190
f 192/192/192 190/190/190 189/189/189
f 193/193/193 191/191/191 190/190/190
f 192/192/192 194/194/194 190/190/190
f 193/193/193 190/190/190 195/195/195
f 194/194/194 196/196/196 190/190/190
f 190/190/190 196/196/196 195/195/195
f 199/199/199 198/198/198 197/197/197
f 198/198/198 200/200/200 197/197/197
f 197/197/197 200/200/200 201/201/201
f 200/200/200 198/198/198 202/202/202
f 200/200/200 203/203/203 201/201/201
f 204/204/204 200/200/200 202/202/202
f 203/203/203 200/200/200 204/204/204
f 204/204/204 202/202/202 205/205/205
f 206/206/206 203/203/203 204/204/204
f 207/207/207 204/204/204 205/205/205
f 206/206/206 204/204/204 207/207/207
f 205/205/205 208/208/208 207/207/207
f 209/209/209 206/206/206 207/207/207
f 208/208/208 210/210/210 207/207/207
f 209/209/209 207/207/207 211/211/211
f 207/207/207 210/210/210 211/211/211
