g exterior_shell_cap_COL5
v 10.857812 14.839249 3.6402502
v 10.857812 15.851955 5.0057817
v 10.857812 15.547335 4.0636277
v 11.022723 14.839251 5.0002937
v 10.857812 13.13853 3.5389311
v 11.022723 13.138531 4.9942183
v 10.857812 14.839249 6.359749
v 10.857812 15.547335 5.93637
v 10.857812 13.13853 6.4610686
v 10.857812 13.13853 6.4610686
v 10.009893 13.836578 6.645169
v 8.8961525 14.839249 6.531082
v 10.857812 14.839249 6.359749
v 8.017172 15.596464 5.989031
v 10.857812 15.547335 5.93637
v 8.01717 15.901085 5.006107
v 10.857812 15.851955 5.0057817
v 8.017172 15.596464 4.010967
v 10.857812 15.547335 4.0636277
v 8.8961525 14.839249 3.4689167
v 10.857812 14.839249 3.6402502
v 10.009893 13.836578 3.3548307
v 10.857812 13.13853 3.5389311
vt 0.125 0.13135299
vt 0.2469205 0.25
vt 0.125 0.25
vt 0.2469205 0.131353
vt 0.125 0
vt 0.24692051 0
vt 0.375 0.131353
vt 0.375 0.25
vt 0.375 0
vt 0.375 0
vt 0.625 0
vt 0.625 0.131353
vt 0.375 0.131353
vt 0.625 0.25
vt 0.375 0.25
vt 0.625 0.3780795
vt 0.375 0.3780795
vt 0.625 0.5
vt 0.375 0.5
vt 0.625 0.618647
vt 0.375 0.618647
vt 0.625 0.75
vt 0.375 0.75
vn 0.9935355 0.02661471 -0.110358104
vn 0.9931865 0.11653542 0.0002444709
vn 0.98945767 0.1163242 -0.086268544
vn 0.99936587 0.03560739 0.00010485979
vn 0.99320084 0.0036741344 -0.11635558
vn 0.9999939 0.0034834591 -0.00026421467
vn 0.9935772 0.02602697 0.11012288
vn 0.9894756 0.11587394 0.086667575
vn 0.99325436 0.0032454978 0.11590998
vn 0.1592018 0.14341702 0.9767735
vn 0.15920182 0.14341702 0.9767735
vn 0.069928735 0.48652622 0.8708629
vn 0.097760916 0.39056793 0.9153686
vn 0.027431672 0.88304716 0.46848184
vn 0.03154336 0.8323981 0.55327964
vn 0.02022409 0.9997955 1.6327009E-05
vn 0.02022409 0.9997955 -1.5867727E-05
vn 0.027344493 0.8849804 -0.46482456
vn 0.031457994 0.8345824 -0.5499842
vn 0.06992886 0.48652485 -0.8708636
vn 0.09776096 0.39056695 -0.915369
vn 0.15920173 0.14341667 -0.9767735
vn 0.15920171 0.14341667 -0.9767735
g exterior_shell_cap_COL5_0
f 3/3/3 2/2/2 1/1/1
f 2/2/2 4/4/4 1/1/1
f 1/1/1 4/4/4 5/5/5
f 4/4/4 6/6/6 5/5/5
f 7/7/7 4/4/4 2/2/2
f 6/6/6 4/4/4 7/7/7
f 8/8/8 7/7/7 2/2/2
f 9/9/9 6/6/6 7/7/7
f 12/12/12 11/11/11 10/10/10
f 13/13/13 12/12/12 10/10/10
f 14/14/14 12/12/12 13/13/13
f 15/15/15 14/14/14 13/13/13
f 16/16/16 14/14/14 15/15/15
f 17/17/17 16/16/16 15/15/15
f 18/18/18 16/16/16 17/17/17
f 19/19/19 18/18/18 17/17/17
f 20/20/20 18/18/18 19/19/19
f 21/21/21 20/20/20 19/19/19
f 22/22/22 20/20/20 21/21/21
f 23/23/23 22/22/22 21/21/21
