g exterior_shell_cap_COL2
v 15.9958515 2.9507337 -6.551945E-16
v 15.9958515 2.9507337 11.485028
v 15.40259 5.828815 11.485028
v 15.40259 5.828815 -1.2942569E-15
v 14.430065 8.563372 11.485028
v 14.430065 8.563372 -1.9014505E-15
v 13.102226 11.087069 11.485028
v 13.102226 11.087069 -2.4618238E-15
v 11.451767 13.337767 11.485028
v 11.451767 13.337767 -2.9615791E-15
v 9.519326 15.260043 11.485028
v 9.519326 15.260043 -3.3884103E-15
v 16.19523 -3.596064E-15 7.984866E-31
v 16.19523 3.5960636E-15 11.485028
v 15.9958515 2.9507337 11.485028
v 15.9958515 2.9507337 -6.551945E-16
v 11.451767 13.337767 11.485028
v 8.952597 14.351542 11.485028
v 9.519326 15.260043 11.485028
v 10.769991 12.543706 11.485028
v 13.102226 11.087069 11.485028
v 12.322196 10.427002 11.485028
v 14.430065 8.563372 11.485028
v 13.570977 8.053554 11.485028
v 15.40259 5.828815 11.485028
v 14.485604 5.4817967 11.485028
v 15.9958515 2.9507337 11.485028
v 15.043541 2.7750604 11.485028
v 16.19523 3.5960636E-15 11.485028
v 15.231055 -1.5846746E-06 11.485028
v 15.043541 2.7750604 11.485028
v 15.043541 2.7750604 9.872786
v 14.485604 5.4817967 9.872786
v 14.485604 5.4817967 11.485028
v 14.485604 5.4817967 11.485028
v 14.485604 5.4817967 9.872786
v 13.570977 8.053554 9.872786
v 13.570977 8.053554 11.485028
v 13.570977 8.053554 11.485028
v 13.570977 8.053554 9.872786
v 12.322196 10.427002 9.872786
v 12.322196 10.427002 11.485028
v 12.322196 10.427002 11.485028
v 12.322196 10.427002 9.872786
v 10.769991 12.543706 9.872786
v 10.769991 12.543706 11.485028
v 10.769991 12.543706 11.485028
v 10.769991 12.543706 9.872786
v 8.952597 14.351542 9.872786
v 8.952597 14.351542 11.485028
v 15.231055 -1.5846746E-06 11.485028
v 15.231055 -1.5846746E-06 9.872786
v 15.043541 2.7750604 9.872786
v 15.043541 2.7750604 11.485028
vt 0.375 0.3125
vt 0.375 0.68843985
vt 0.38125 0.68843985
vt 0.38125 0.3125
vt 0.3875 0.68843985
vt 0.3875 0.3125
vt 0.39374998 0.68843985
vt 0.39374998 0.3125
vt 0.39999998 0.68843985
vt 0.39999998 0.3125
vt 0.40624997 0.68843985
vt 0.40624997 0.3125
vt 0.61875033 0.3125
vt 0.61875033 0.68843985
vt 0.62500036 0.68843985
vt 0.62500036 0.3125
vt 0.61048543 0.95423543
vt 0.5459207 0.90695447
vt 0.59184146 0.97015893
vt 0.5552427 0.8989927
vt 0.62640893 0.93559146
vt 0.56320447 0.8896707
vt 0.63921976 0.914686
vt 0.5696099 0.879218
vt 0.6486026 0.89203393
vt 0.5743013 0.86789197
vt 0.6543263 0.8681929
vt 0.57716316 0.85597146
vt 0.65625 0.84375
vt 0.578125 0.84375
vt 0 0
vt 0 1
vt 1 1
vt 1 0
vt 0 0
vt 0 1
vt 1 1
vt 1 0
vt 0 0
vt 0 1
vt 1 1
vt 1 0
vt 0 0
vt 0 1
vt 1 1
vt 1 0
vt 0 0
vt 0 1
vt 1 1
vt 1 0
vt 0 0
vt 0 1
vt 1 1
vt 1 0
vn 0.99088013 0.13474622 0
vn 0.99088013 0.13474622 0
vn 0.9632199 0.26871437 0
vn 0.9632199 0.26871437 0
vn 0.91616505 0.4008011 0
vn 0.91616505 0.4008011 0
vn 0.84845316 0.5292704 0
vn 0.84845316 0.5292704 0
vn 0.7587116 0.6514267 0
vn 0.7587116 0.6514267 0
vn 0.6451562 0.76405066 0
vn 0.6458368 0.7634755 0
vn 0.99772495 0.06741526 0
vn 0.99772495 0.06741526 0
vn 0.99088013 0.13474622 0
vn 0.99088013 0.13474622 0
vn -0 0 1
vn 0.03219381 0.0038164824 0.99947435
vn 0.038645077 0.004581256 0.99924254
vn -0 0 1
vn -0 0 1
vn -1.01671894E-07 0 1
vn -0 0 1
vn -0 0 1
vn -2.8264105E-07 0 1
vn -3.5114897E-07 0 1
vn -3.7781308E-07 0 1
vn -3.4423473E-07 0 1
vn 1.9923887E-07 0 1
vn 1.9923885E-07 0 1
vn -0.9794093 -0.2018847 0
vn -0.9794093 -0.2018847 0
vn -0.9794093 -0.2018847 0
vn -0.9794093 -0.2018847 0
vn -0.94218874 -0.33508262 0
vn -0.94218874 -0.33508262 0
vn -0.94218874 -0.33508262 0
vn -0.94218874 -0.33508262 0
vn -0.88497984 -0.46562922 0
vn -0.88497984 -0.46562922 0
vn -0.88497984 -0.46562922 0
vn -0.88497984 -0.46562922 0
vn -0.8064133 -0.5913523 0
vn -0.8064133 -0.5913523 0
vn -0.8064133 -0.5913523 0
vn -0.8064133 -0.5913523 0
vn -0.70524 -0.7089686 0
vn -0.70524 -0.7089686 0
vn -0.70524 -0.7089686 0
vn -0.70524 -0.7089686 0
vn -0.99772483 -0.067417495 0
vn -0.99772483 -0.067417495 0
vn -0.99772483 -0.067417495 0
vn -0.99772483 -0.067417495 0
g exterior_shell_cap_COL2_0
f 3/3/3 2/2/2 1/1/1
f 4/4/4 3/3/3 1/1/1
f 5/5/5 3/3/3 4/4/4
f 6/6/6 5/5/5 4/4/4
f 7/7/7 5/5/5 6/6/6
f 8/8/8 7/7/7 6/6/6
f 9/9/9 7/7/7 8/8/8
f 10/10/10 9/9/9 8/8/8
f 11/11/11 9/9/9 10/10/10
f 12/12/12 11/11/11 10/10/10
f 15/15/15 14/14/14 13/13/13
f 16/16/16 15/15/15 13/13/13
f 19/19/19 18/18/18 17/17/17
f 18/18/18 20/20/20 17/17/17
f 17/17/17 20/20/20 21/21/21
f 20/20/20 22/22/22 21/21/21
f 21/21/21 22/22/22 23/23/23
f 22/22/22 24/24/24 23/23/23
f 23/23/23 24/24/24 25/25/25
f 24/24/24 26/26/26 25/25/25
f 25/25/25 26/26/26 27/27/27
f 26/26/26 28/28/28 27/27/27
f 27/27/27 28/28/28 29/29/29
f 28/28/28 30/30/30 29/29/29
f 33/33/33 32/32/32 31/31/31
f 34/34/34 33/33/33 31/31/31
f 37/37/37 36/36/36 35/35/35
f 38/38/38 37/37/37 35/35/35
f 41/41/41 40/40/40 39/39/39
f 42/42/42 41/41/41 39/39/39
f 45/45/45 44/44/44 43/43/43
f 46/46/46 45/45/45 43/43/43
f 49/49/49 48/48/48 47/47/47
f 50/50/50 49/49/49 47/47/47
f 53/53/53 52/52/52 51/51/51
f 54/54/54 53/53/53 51/51/51
