g exterior_shell_cap_COL3
v 9.519326 15.260043 -3.3884103E-15
v 9.519326 15.260043 11.485028
v 7.352489 16.806568 11.57738
v 7.352489 16.806568 -3.7318078E-15
v 5.004608 17.93926 11.772101
v 5.004608 17.93926 -3.983316E-15
v 2.5334973 18.630226 11.878793
v 2.5334973 18.630226 -4.136741E-15
v 3.619916E-06 18.862453 11.911283
v 3.619916E-06 18.862453 -4.188306E-15
v -2.53349 18.630226 11.878793
v -2.53349 18.630226 -4.136741E-15
v -5.0046005 17.93926 11.772101
v -5.0046005 17.93926 -3.983316E-15
v -7.352481 16.80657 11.57738
v -7.352481 16.80657 -3.731808E-15
v -9.51932 15.260049 11.485028
v -9.51932 15.260049 -3.3884115E-15
v 9.519326 15.260043 11.485028
v 8.952597 14.351542 11.485028
v 6.9147625 15.805991 11.664208
v 7.352489 16.806568 11.57738
v 4.7066617 16.87125 12.1658
v 5.004608 17.93926 11.772101
v 2.382667 17.521074 12.440628
v 2.5334973 18.630226 11.878793
v 4.765001E-06 17.739487 12.524323
v 3.619916E-06 18.862453 11.911283
v -2.3826575 17.521074 12.440628
v -2.53349 18.630226 11.878793
v -4.7066517 16.87125 12.1658
v -5.0046005 17.93926 11.772101
v -6.914754 15.805995 11.664208
v -7.352481 16.80657 11.57738
v -8.952588 14.351549 11.485028
v -9.51932 15.260049 11.485028
v 8.952597 14.351542 11.485028
v 8.952597 14.351542 9.872786
v 6.9147625 15.305864 9.872786
v 6.9147625 15.805991 11.664208
v 6.9147625 15.805991 11.664208
v 6.9147625 15.305864 9.872786
v 4.7066617 15.843411 9.872785
v 4.7066617 16.87125 12.1658
v 4.7066617 16.87125 12.1658
v 4.7066617 15.843411 9.872785
v 2.382667 16.220697 9.872786
v 2.382667 17.521074 12.440628
v 2.382667 17.521074 12.440628
v 2.382667 16.220697 9.872786
v 4.765001E-06 16.439112 9.872786
v 4.765001E-06 17.739487 12.524323
v 4.765001E-06 17.739487 12.524323
v 4.765001E-06 16.439112 9.872786
v -2.3826575 16.220697 9.872786
v -2.3826575 17.521074 12.440628
v -2.3826575 17.521074 12.440628
v -2.3826575 16.220697 9.872786
v -4.7066517 15.843411 9.872785
v -4.7066517 16.87125 12.1658
v -4.7066517 16.87125 12.1658
v -4.7066517 15.843411 9.872785
v -6.914754 15.305867 9.872786
v -6.914754 15.805995 11.664208
v -6.914754 15.805995 11.664208
v -6.914754 15.305867 9.872786
v -8.952588 14.351549 9.872786
v -8.952588 14.351549 11.485028
vt 0.40624997 0.3125
vt 0.40624997 0.68843985
vt 0.41249996 0.68843985
vt 0.41249996 0.3125
vt 0.41874996 0.68843985
vt 0.41874996 0.3125
vt 0.42499995 0.68843985
vt 0.42499995 0.3125
vt 0.43124995 0.68843985
vt 0.43124995 0.3125
vt 0.43749994 0.68843985
vt 0.43749994 0.3125
vt 0.44374993 0.68843985
vt 0.44374993 0.3125
vt 0.44999993 0.68843985
vt 0.44999993 0.3125
vt 0.45624992 0.68843985
vt 0.45624992 0.3125
vt 0.59184146 0.97015893
vt 0.5459207 0.90695447
vt 0.535468 0.9133599
vt 0.570936 0.9829698
vt 0.52414197 0.9180513
vt 0.5482839 0.9923526
vt 0.51222146 0.92091316
vt 0.52444285 0.9980763
vt 0.5 0.921875
vt 0.49999997 1
vt 0.48777854 0.92091316
vt 0.4755571 0.9980763
vt 0.47585803 0.9180513
vt 0.45171607 0.9923526
vt 0.46453196 0.9133599
vt 0.42906395 0.98296976
vt 0.45407927 0.90695447
vt 0.4081585 0.97015893
vt 0 0
vt 0 1
vt 1 1
vt 1 0
vt 0 0
vt 0 1
vt 1 1
vt 1 0
vt 0 0
vt 0 1
vt 1 1
vt 1 0
vt 0 0
vt 0 1
vt 1 1
vt 1 0
vt 0 0
vt 0 1
vt 1 1
vt 1 0
vt 0 0
vt 0 1
vt 1 1
vt 1 0
vt 0 0
vt 0 1
vt 1 1
vt 1 0
vt 0 0
vt 0 1
vt 1 1
vt 1 0
vn 0.6458368 0.7634755 0
vn 0.6451562 0.76405066 0
vn 0.5073626 0.86173266 0
vn 0.5098875 0.86024106 0
vn 0.35030398 0.93663603 0
vn 0.35340384 0.9354709 0
vn 0.17958614 0.98374224 0
vn 0.18114613 0.9834562 0
vn -0 1 0
vn -0 1 0
vn -0.17958613 0.98374224 0
vn -0.18114613 0.9834562 0
vn -0.35030365 0.93663615 0
vn -0.35340345 0.935471 0
vn -0.507362 0.861733 0
vn -0.50988686 0.8602415 0
vn -0.6451557 0.764051 0
vn -0.6458365 0.76347584 0
vn 0.038645077 0.004581256 0.99924254
vn 0.03219381 0.0038164824 0.99947435
vn 0.14131999 0.07438536 0.98716545
vn 0.15212561 0.08449214 0.984743
vn 0.19762035 0.25856876 0.9455624
vn 0.19629125 0.26524484 0.94398874
vn 0.11874612 0.41509098 0.9019971
vn 0.11736226 0.4162821 0.90162927
vn -0 0.4624154 0.8866634
vn -0 0.46241546 0.8866634
vn -0.1187461 0.41509062 0.90199727
vn -0.117362365 0.41628164 0.90162945
vn -0.19762021 0.2585689 0.9455624
vn -0.1962912 0.26524457 0.94398886
vn -0.14132012 0.07438535 0.98716545
vn -0.15212554 0.08449195 0.9847431
vn -0.032194223 0.0038164675 0.99947435
vn -0.03864543 0.0045812265 0.99924254
vn -0.50064415 -0.8564569 0.12584575
vn -0.5006441 -0.8564569 0.12584575
vn -0.500644 -0.8564569 0.12584575
vn -0.5006441 -0.8564569 0.12584575
vn -0.28746587 -0.89707464 0.33558965
vn -0.28746584 -0.89707464 0.33558962
vn -0.28746587 -0.89707464 0.33558968
vn -0.2874659 -0.89707464 0.33558968
vn -0.17119093 -0.88857085 0.4256003
vn -0.17119093 -0.8885707 0.42560026
vn -0.17119092 -0.88857085 0.42560023
vn -0.17119095 -0.88857085 0.4256003
vn -0.07400968 -0.89258486 0.44476366
vn -0.07400969 -0.89258486 0.44476366
vn -0.07400969 -0.89258486 0.44476372
vn -0.07400969 -0.89258486 0.44476372
vn 0.074009694 -0.89258486 0.44476372
vn 0.07400969 -0.89258486 0.44476378
vn 0.07400969 -0.89258486 0.44476372
vn 0.07400969 -0.89258486 0.44476372
vn 0.17119093 -0.88857067 0.42560074
vn 0.1711909 -0.88857055 0.4256007
vn 0.17119093 -0.88857067 0.42560074
vn 0.1711909 -0.88857055 0.4256007
vn 0.28746423 -0.89707476 0.33559078
vn 0.28746423 -0.89707476 0.33559084
vn 0.2874642 -0.89707476 0.3355908
vn 0.28746423 -0.89707476 0.33559075
vn 0.5006432 -0.8564574 0.12584578
vn 0.5006432 -0.8564574 0.12584576
vn 0.5006432 -0.8564574 0.12584576
vn 0.5006432 -0.8564574 0.12584576
g exterior_shell_cap_COL3_0
f 3/3/3 2/2/2 1/1/1
f 4/4/4 3/3/3 1/1/1
f 5/5/5 3/3/3 4/4/4
f 6/6/6 5/5/5 4/4/4
f 7/7/7 5/5/5 6/6/6
f 8/8/8 7/7/7 6/6/6
f 9/9/9 7/7/7 8/8/8
f 10/10/10 9/9/9 8/8/8
f 11/11/11 9/9/9 10/10/10
f 12/12/12 11/11/11 10/10/10
f 13/13/13 11/11/11 12/12/12
f 14/14/14 13/13/13 12/12/12
f 15/15/15 13/13/13 14/14/14
f 16/16/16 15/15/15 14/14/14
f 17/17/17 15/15/15 16/16/16
f 18/18/18 17/17/17 16/16/16
f 21/21/21 20/20/20 19/19/19
f 22/22/22 21/21/21 19/19/19
f 23/23/23 21/21/21 22/22/22
f 24/24/24 23/23/23 22/22/22
f 25/25/25 23/23/23 24/24/24
f 26/26/26 25/25/25 24/24/24
f 27/27/27 25/25/25 26/26/26
f 28/28/28 27/27/27 26/26/26
f 29/29/29 27/27/27 28/28/28
f 30/30/30 29/29/29 28/28/28
f 31/31/31 29/29/29 30/30/30
f 32/32/32 31/31/31 30/30/30
f 33/33/33 31/31/31 32/32/32
f 34/34/34 33/33/33 32/32/32
f 35/35/35 33/33/33 34/34/34
f 36/36/36 35/35/35 34/34/34
f 39/39/39 38/38/38 37/37/37
f 40/40/40 39/39/39 37/37/37
f 43/43/43 42/42/42 41/41/41
f 44/44/44 43/43/43 41/41/41
f 47/47/47 46/46/46 45/45/45
f 48/48/48 47/47/47 45/45/45
f 51/51/51 50/50/50 49/49/49
f 52/52/52 51/51/51 49/49/49
f 55/55/55 54/54/54 53/53/53
f 56/56/56 55/55/55 53/53/53
f 59/59/59 58/58/58 57/57/57
f 60/60/60 59/59/59 57/57/57
f 63/63/63 62/62/62 61/61/61
f 64/64/64 63/63/63 61/61/61
f 67/67/67 66/66/66 65/65/65
f 68/68/68 67/67/67 65/65/65
