g exterior_arch1_COL
v 15.176041 2.7213943 -0.47483984
v 15.249198 -1.806584E-15 0.7169906
v 15.249198 1.806584E-15 -0.7169906
v 15.176041 2.7213943 0.47483984
v 14.613186 5.3757787 -0.47483984
v 14.613186 5.3757787 0.47483984
v 13.690505 7.8977942 -0.47483984
v 13.690505 7.8977942 0.47483984
v 12.430718 10.225339 -0.47483984
v 12.430718 10.225339 0.47483984
v 10.864847 12.301104 -0.47483984
v 10.864847 12.301104 0.47483984
v 9.031446 14.073972 -0.47483984
v 9.031446 14.073972 0.47483984
v 6.9756613 15.500295 -0.47483984
v 6.9756613 15.500295 0.47483984
v 4.7481117 16.544947 -0.47483984
v 4.7481117 16.544947 0.47483984
v 2.4036484 17.18221 -0.47483984
v 2.4036484 17.18221 0.47483984
v -1.1931528E-06 17.396389 -0.47483984
v -1.1931528E-06 17.396389 0.47483984
v -2.4036508 17.18221 -0.47483984
v -2.4036508 17.18221 0.47483984
v -4.7481146 16.54495 -0.47483984
v -4.7481146 16.54495 0.47483984
v -6.9756646 15.500298 -0.47483984
v -6.9756646 15.500298 0.47483984
v -9.03145 14.073976 -0.47483984
v -9.03145 14.073976 0.47483984
v -10.864852 12.3011055 -0.47483984
v -10.864852 12.3011055 0.47483984
v -12.430725 10.225341 -0.47483984
v -12.430725 10.225341 0.47483984
v -13.690513 7.897795 -0.47483984
v -13.690513 7.897795 0.47483984
v -14.613193 5.3757787 -0.47483984
v -14.613193 5.3757787 0.47483984
v -15.176049 2.7213933 -0.47483984
v -15.176049 2.7213933 0.47483984
v -15.26934 -2.3640384E-06 -0.7169906
v -15.26934 -2.3640384E-06 0.7169906
v -5.6646557 16.334196 0.23830578
v -5.6646557 16.334196 -0.23830578
v 5.664649 16.334194 -0.23830578
v 5.664649 16.334194 0.23830578
v 15.176041 2.7213943 0.47483984
v 15.620429 -1.806584E-15 0.7169906
v 15.249198 -1.806584E-15 0.7169906
v 15.446352 2.769867 0.47483984
v 14.613186 5.3757787 0.47483984
v 14.873472 5.4715304 0.47483984
v 13.690505 7.8977942 0.47483984
v 13.934358 8.038467 0.47483984
v 12.430718 10.225339 0.47483984
v 12.652132 10.407471 0.47483984
v 10.864847 12.301104 0.47483984
v 11.058369 12.520207 0.47483984
v 9.031446 14.073972 0.47483984
v 9.19231 14.324656 0.47483984
v 6.9756613 15.500295 0.47483984
v 7.0999084 15.776382 0.47483984
v 4.7481117 16.544947 0.47483984
v 4.8326826 16.839642 0.47483984
v 2.4036484 17.18221 0.47483984
v 2.44646 17.488255 0.47483984
v -1.1931528E-06 17.396389 0.47483984
v -2.5354498E-06 17.70625 0.47483984
v -2.4036508 17.18221 0.47483984
v -2.4464653 17.488255 0.47483984
v -4.7481146 16.54495 0.47483984
v -4.8326883 16.839643 0.47483984
v -6.9756646 15.500298 0.47483984
v -7.0999146 15.776382 0.47483984
v -9.03145 14.073976 0.47483984
v -9.192317 14.324656 0.47483984
v -10.864852 12.3011055 0.47483984
v -11.058373 12.520207 0.47483984
v -12.430725 10.225341 0.47483984
v -12.652137 10.407469 0.47483984
v -13.690513 7.897795 0.47483984
v -13.934363 8.038466 0.47483984
v -14.613193 5.3757787 0.47483984
v -14.873479 5.471528 0.47483984
v -15.176049 2.7213933 0.47483984
v -15.446361 2.769863 0.47483984
v -15.26934 -2.3640384E-06 0.7169906
v -15.592231 -5.5723763E-06 0.7169906
v -6.118253 15.9519 0.23830578
v -5.6646557 16.334196 0.23830578
v 5.664649 16.334194 0.23830578
v 6.118267 15.951901 0.23830578
v 15.446352 2.769867 0.47483984
v 15.620429 1.806584E-15 -0.7169906
v 15.620429 -1.806584E-15 0.7169906
v 15.446352 2.769867 -0.47483984
v 14.873472 5.4715304 0.47483984
v 14.873472 5.4715304 -0.47483984
v 13.934358 8.038467 0.47483984
v 13.934358 8.038467 -0.47483984
v 12.652132 10.407471 0.47483984
v 12.652132 10.407471 -0.47483984
v 11.058369 12.520207 0.47483984
v 11.058369 12.520207 -0.47483984
v 9.19231 14.324656 0.47483984
v 9.19231 14.324656 -0.47483984
v 7.0999084 15.776382 0.47483984
v 7.0999084 15.776382 -0.47483984
v 4.8326826 16.839642 0.47483984
v 4.8326826 16.839642 -0.47483984
v 2.44646 17.488255 0.47483984
v 2.44646 17.488255 -0.47483984
v -2.5354498E-06 17.70625 0.47483984
v -2.5354498E-06 17.70625 -0.47483984
v -2.4464653 17.488255 0.47483984
v -2.4464653 17.488255 -0.47483984
v -4.8326883 16.839643 0.47483984
v -4.8326883 16.839643 -0.47483984
v -7.0999146 15.776382 0.47483984
v -7.0999146 15.776382 -0.47483984
v -9.192317 14.324656 0.47483984
v -9.192317 14.324656 -0.47483984
v -11.058373 12.520207 0.47483984
v -11.058373 12.520207 -0.47483984
v -12.652137 10.407469 0.47483984
v -12.652137 10.407469 -0.47483984
v -13.934363 8.038466 0.47483984
v -13.934363 8.038466 -0.47483984
v -14.873479 5.471528 0.47483984
v -14.873479 5.471528 -0.47483984
v -15.446361 2.769863 0.47483984
v -15.446361 2.769863 -0.47483984
v -15.592231 -5.5723763E-06 0.7169906
v -15.592231 -5.5723763E-06 -0.7169906
v -6.118253 15.9519 -0.23830578
v -6.118253 15.9519 0.23830578
v 6.118267 15.951901 0.23830578
v 6.118267 15.951901 -0.23830578
v 15.446352 2.769867 -0.47483984
v 15.249198 1.806584E-15 -0.7169906
v 15.620429 1.806584E-15 -0.7169906
v 15.176041 2.7213943 -0.47483984
v 14.873472 5.4715304 -0.47483984
v 14.613186 5.3757787 -0.47483984
v 13.934358 8.038467 -0.47483984
v 13.690505 7.8977942 -0.47483984
v 12.652132 10.407471 -0.47483984
v 12.430718 10.225339 -0.47483984
v 11.058369 12.520207 -0.47483984
v 10.864847 12.301104 -0.47483984
v 9.19231 14.324656 -0.47483984
v 9.031446 14.073972 -0.47483984
v 7.0999084 15.776382 -0.47483984
v 6.9756613 15.500295 -0.47483984
v 4.8326826 16.839642 -0.47483984
v 4.7481117 16.544947 -0.47483984
v 2.44646 17.488255 -0.47483984
v 2.4036484 17.18221 -0.47483984
v -2.5354498E-06 17.70625 -0.47483984
v -1.1931528E-06 17.396389 -0.47483984
v -2.4464653 17.488255 -0.47483984
v -2.4036508 17.18221 -0.47483984
v -4.8326883 16.839643 -0.47483984
v -4.7481146 16.54495 -0.47483984
v -7.0999146 15.776382 -0.47483984
v -6.9756646 15.500298 -0.47483984
v -9.192317 14.324656 -0.47483984
v -9.03145 14.073976 -0.47483984
v -11.058373 12.520207 -0.47483984
v -10.864852 12.3011055 -0.47483984
v -12.652137 10.407469 -0.47483984
v -12.430725 10.225341 -0.47483984
v -13.934363 8.038466 -0.47483984
v -13.690513 7.897795 -0.47483984
v -14.873479 5.471528 -0.47483984
v -14.613193 5.3757787 -0.47483984
v -15.446361 2.769863 -0.47483984
v -15.176049 2.7213933 -0.47483984
v -15.592231 -5.5723763E-06 -0.7169906
v -15.26934 -2.3640384E-06 -0.7169906
v -5.6646557 16.334196 -0.23830578
v -6.118253 15.9519 -0.23830578
v 6.118267 15.951901 -0.23830578
v 5.664649 16.334194 -0.23830578
vt 0.025 1
vt 0 0.75
vt 0 1
vt 0.025 0.75
vt 0.05 1
vt 0.05 0.75
vt 0.075 1
vt 0.075 0.75
vt 0.1 1
vt 0.1 0.75
vt 0.125 1
vt 0.125 0.75
vt 0.15 1
vt 0.15 0.75
vt 0.17500001 1
vt 0.17500001 0.75
vt 0.20000002 1
vt 0.20000002 0.75
vt 0.22500002 1
vt 0.22500002 0.75
vt 0.25000003 1
vt 0.25000003 0.75
vt 0.27500004 1
vt 0.27500004 0.75
vt 0.30000004 1
vt 0.30000004 0.75
vt 0.32500005 1
vt 0.32500005 0.75
vt 0.35000005 1
vt 0.35000005 0.75
vt 0.37500006 1
vt 0.37500006 0.75
vt 0.40000007 1
vt 0.40000007 0.75
vt 0.42500007 1
vt 0.42500007 0.75
vt 0.45000008 1
vt 0.45000008 0.75
vt 0.47500008 1
vt 0.47500008 0.75
vt 0.50000006 1
vt 0.50000006 0.75
vt 0.72499985 0.75
vt 0.72499985 1
vt 0.7749998 1
vt 0.7749998 0.75
vt 0.025 0.75
vt 0 0.5
vt 0 0.75
vt 0.025 0.5
vt 0.05 0.75
vt 0.05 0.5
vt 0.075 0.75
vt 0.075 0.5
vt 0.1 0.75
vt 0.1 0.5
vt 0.125 0.75
vt 0.125 0.5
vt 0.15 0.75
vt 0.15 0.5
vt 0.17500001 0.75
vt 0.17500001 0.5
vt 0.20000002 0.75
vt 0.20000002 0.5
vt 0.22500002 0.75
vt 0.22500002 0.5
vt 0.25000003 0.75
vt 0.25000003 0.5
vt 0.27500004 0.75
vt 0.27500004 0.5
vt 0.30000004 0.75
vt 0.30000004 0.5
vt 0.32500005 0.75
vt 0.32500005 0.5
vt 0.35000005 0.75
vt 0.35000005 0.5
vt 0.37500006 0.75
vt 0.37500006 0.5
vt 0.40000007 0.75
vt 0.40000007 0.5
vt 0.42500007 0.75
vt 0.42500007 0.5
vt 0.45000008 0.75
vt 0.45000008 0.5
vt 0.47500008 0.75
vt 0.47500008 0.5
vt 0.50000006 0.75
vt 0.50000006 0.5
vt 0.72499985 0.5
vt 0.72499985 0.75
vt 0.7749998 0.75
vt 0.7749998 0.5
vt 0.025 0.5
vt 0 0.25
vt 0 0.5
vt 0.025 0.25
vt 0.05 0.5
vt 0.05 0.25
vt 0.075 0.5
vt 0.075 0.25
vt 0.1 0.5
vt 0.1 0.25
vt 0.125 0.5
vt 0.125 0.25
vt 0.15 0.5
vt 0.15 0.25
vt 0.17500001 0.5
vt 0.17500001 0.25
vt 0.20000002 0.5
vt 0.20000002 0.25
vt 0.22500002 0.5
vt 0.22500002 0.25
vt 0.25000003 0.5
vt 0.25000003 0.25
vt 0.27500004 0.5
vt 0.27500004 0.25
vt 0.30000004 0.5
vt 0.30000004 0.25
vt 0.32500005 0.5
vt 0.32500005 0.25
vt 0.35000005 0.5
vt 0.35000005 0.25
vt 0.37500006 0.5
vt 0.37500006 0.25
vt 0.40000007 0.5
vt 0.40000007 0.25
vt 0.42500007 0.5
vt 0.42500007 0.25
vt 0.45000008 0.5
vt 0.45000008 0.25
vt 0.47500008 0.5
vt 0.47500008 0.25
vt 0.50000006 0.5
vt 0.50000006 0.25
vt 0.72499985 0.25
vt 0.72499985 0.5
vt 0.7749998 0.5
vt 0.7749998 0.25
vt 0.025 0.25
vt 0 0
vt 0 0.25
vt 0.025 0
vt 0.05 0.25
vt 0.05 0
vt 0.075 0.25
vt 0.075 0
vt 0.1 0.25
vt 0.1 0
vt 0.125 0.25
vt 0.125 0
vt 0.15 0.25
vt 0.15 0
vt 0.17500001 0.25
vt 0.17500001 0
vt 0.20000002 0.25
vt 0.20000002 0
vt 0.22500002 0.25
vt 0.22500002 0
vt 0.25000003 0.25
vt 0.25000003 0
vt 0.27500004 0.25
vt 0.27500004 0
vt 0.30000004 0.25
vt 0.30000004 0
vt 0.32500005 0.25
vt 0.32500005 0
vt 0.35000005 0.25
vt 0.35000005 0
vt 0.37500006 0.25
vt 0.37500006 0
vt 0.40000007 0.25
vt 0.40000007 0
vt 0.42500007 0.25
vt 0.42500007 0
vt 0.45000008 0.25
vt 0.45000008 0
vt 0.47500008 0.25
vt 0.47500008 0
vt 0.50000006 0.25
vt 0.50000006 0
vt 0.72499985 0
vt 0.72499985 0.25
vt 0.7749998 0.25
vt 0.7749998 0
vn -0.994495 -0.104784034 0
vn -0.9996389 -0.026872434 0
vn -0.9996389 -0.026872434 0
vn -0.994495 -0.104784034 0
vn -0.96120137 -0.27584782 0
vn -0.96120137 -0.27584782 0
vn -0.9119099 -0.4103906 0
vn -0.9119099 -0.4103906 0
vn -0.8416164 -0.54007566 0
vn -0.8416164 -0.54007566 0
vn -0.7495073 -0.66199607 0
vn -0.7495073 -0.66199607 0
vn -0.6352733 -0.77228737 0
vn -0.6352733 -0.77228737 0
vn -0.49969527 -0.8662012 0
vn -0.49969527 -0.8662012 0
vn -0.3452515 -0.93851024 0
vn -0.3452515 -0.93851024 0
vn -0.17650662 -0.9842994 0
vn -0.17650662 -0.9842994 0
vn -2.4852193E-07 -1 0
vn -2.4852193E-07 -1 0
vn 0.1765059 -0.98429966 0
vn 0.1765059 -0.98429966 0
vn 0.3452513 -0.9385103 0
vn 0.3452513 -0.9385103 0
vn 0.49969524 -0.86620134 0
vn 0.49969524 -0.86620134 0
vn 0.6352731 -0.7722876 0
vn 0.6352731 -0.7722876 0
vn 0.74950725 -0.6619961 0
vn 0.74950725 -0.6619961 0
vn 0.84161633 -0.54007596 0
vn 0.84161633 -0.54007596 0
vn 0.91191 -0.41039044 0
vn 0.91191 -0.41039044 0
vn 0.96120137 -0.27584782 0
vn 0.96120137 -0.27584782 0
vn 0.9940446 -0.10897437 0
vn 0.9940446 -0.10897437 0
vn 0.9994129 -0.034260098 0
vn 0.9994129 -0.034260098 0
vn 1.0774741E-07 1 0
vn 1.0774741E-07 1 0
vn 1.0774741E-07 1 0
vn 1.0774741E-07 1 0
vn -0.0037019781 0.048995953 0.9987921
vn -0.0066154264 0.0875564 0.99613756
vn -0.0066154264 0.0875564 0.99613756
vn -0.0034941612 0.046245437 0.99892396
vn -0 0 1
vn -0 0 1
vn -0 0 1
vn -0 0 1
vn -0 0 1
vn -0 0 1
vn -0 0 1
vn -0 0 1
vn -0 0 1
vn -0 0 1
vn -0 0 1
vn -0 0 1
vn -0 0 1
vn -0 0 1
vn -0 0 1
vn -0 0 1
vn -0 0 1
vn -0 0 1
vn -0 0 1
vn -0 0 1
vn -0 0 1
vn -0 0 1
vn -0 0 1
vn -0 0 1
vn -0 0 1
vn -0 0 1
vn -0 0 1
vn -0 0 1
vn -0 0 1
vn -0 0 1
vn -0 0 1
vn -0 0 1
vn -0 0 1
vn -0 0 1
vn 0.0038562326 0.047199298 0.99887806
vn 0.0036255494 0.044375855 0.99900836
vn 0.0071523837 0.08754249 0.9961351
vn 0.007152384 0.087542504 0.9961351
vn -0 0 1
vn -0 0 1
vn -0 0 1
vn -0 0 1
vn 0.99214023 0.12513071 0
vn 0.99803096 0.062722966 0
vn 0.99803096 0.062722966 0
vn 0.99214023 0.12513071 0
vn 0.96120137 0.2758478 0
vn 0.96120137 0.2758478 0
vn 0.9119099 0.41039056 0
vn 0.9119099 0.41039056 0
vn 0.84161633 0.5400758 0
vn 0.84161633 0.5400758 0
vn 0.7495072 0.6619962 0
vn 0.7495072 0.6619962 0
vn 0.6352731 0.77228755 0
vn 0.6352731 0.77228755 0
vn 0.4996951 0.86620134 0
vn 0.4996951 0.86620134 0
vn 0.34525117 0.9385103 0
vn 0.34525117 0.9385103 0
vn 0.1765065 0.98429954 0
vn 0.1765065 0.98429954 0
vn 2.4751765E-07 1 0
vn 2.4751765E-07 1 0
vn -0.17650624 0.98429954 0
vn -0.17650624 0.98429954 0
vn -0.34525144 0.93851024 0
vn -0.34525144 0.93851024 0
vn -0.4996953 0.86620134 0
vn -0.4996953 0.86620134 0
vn -0.6352732 0.7722875 0
vn -0.6352732 0.7722875 0
vn -0.7495075 0.6619959 0
vn -0.7495075 0.6619959 0
vn -0.84161633 0.54007584 0
vn -0.84161633 0.54007584 0
vn -0.91191 0.41039044 0
vn -0.91191 0.41039044 0
vn -0.96120125 0.27584785 0
vn -0.96120125 0.27584785 0
vn -0.99284667 0.119396135 0
vn -0.99284667 0.119396135 0
vn -0.9986162 0.052590054 0
vn -0.9986162 0.052590054 0
vn 1.9951798E-07 -1 0
vn 1.9951798E-07 -1 0
vn 1.9951798E-07 -1 0
vn 1.9951798E-07 -1 0
vn -0.0034941619 0.04624545 -0.99892396
vn -0.0066154264 0.0875564 -0.99613756
vn -0.0066154264 0.0875564 -0.99613756
vn -0.0037019784 0.04899596 -0.9987921
vn -0 0 -1
vn -0 0 -1
vn -0 0 -1
vn -0 0 -1
vn -0 0 -1
vn -0 0 -1
vn -0 0 -1
vn -0 0 -1
vn -0 0 -1
vn -0 0 -1
vn -0 0 -1
vn -0 0 -1
vn -0 0 -1
vn -0 0 -1
vn -0 0 -1
vn -0 0 -1
vn -0 0 -1
vn -0 0 -1
vn -0 0 -1
vn -0 0 -1
vn -0 0 -1
vn -0 0 -1
vn -0 0 -1
vn -0 0 -1
vn -0 0 -1
vn -0 0 -1
vn -0 0 -1
vn -0 0 -1
vn -0 0 -1
vn -0 0 -1
vn -0 0 -1
vn -0 0 -1
vn -0 0 -1
vn -0 0 -1
vn 0.00362561 0.04437586 -0.99900836
vn 0.0038562976 0.0471993 -0.99887806
vn 0.0071525043 0.08754251 -0.9961351
vn 0.0071525034 0.08754249 -0.9961351
vn -0 0 -1
vn -0 0 -1
vn -0 0 -1
vn -0 0 -1
g exterior_arch1_COL_0
f 3/3/3 2/2/2 1/1/1
f 2/2/2 4/4/4 1/1/1
f 1/1/1 4/4/4 5/5/5
f 4/4/4 6/6/6 5/5/5
f 5/5/5 6/6/6 7/7/7
f 6/6/6 8/8/8 7/7/7
f 7/7/7 8/8/8 9/9/9
f 8/8/8 10/10/10 9/9/9
f 9/9/9 10/10/10 11/11/11
f 10/10/10 12/12/12 11/11/11
f 11/11/11 12/12/12 13/13/13
f 12/12/12 14/14/14 13/13/13
f 13/13/13 14/14/14 15/15/15
f 14/14/14 16/16/16 15/15/15
f 15/15/15 16/16/16 17/17/17
f 16/16/16 18/18/18 17/17/17
f 17/17/17 18/18/18 19/19/19
f 18/18/18 20/20/20 19/19/19
f 19/19/19 20/20/20 21/21/21
f 20/20/20 22/22/22 21/21/21
f 21/21/21 22/22/22 23/23/23
f 22/22/22 24/24/24 23/23/23
f 23/23/23 24/24/24 25/25/25
f 24/24/24 26/26/26 25/25/25
f 25/25/25 26/26/26 27/27/27
f 26/26/26 28/28/28 27/27/27
f 27/27/27 28/28/28 29/29/29
f 28/28/28 30/30/30 29/29/29
f 29/29/29 30/30/30 31/31/31
f 30/30/30 32/32/32 31/31/31
f 31/31/31 32/32/32 33/33/33
f 32/32/32 34/34/34 33/33/33
f 33/33/33 34/34/34 35/35/35
f 34/34/34 36/36/36 35/35/35
f 35/35/35 36/36/36 37/37/37
f 36/36/36 38/38/38 37/37/37
f 37/37/37 38/38/38 39/39/39
f 38/38/38 40/40/40 39/39/39
f 39/39/39 40/40/40 41/41/41
f 40/40/40 42/42/42 41/41/41
f 45/45/45 44/44/44 43/43/43
f 46/46/46 45/45/45 43/43/43
f 49/49/49 48/48/48 47/47/47
f 48/48/48 50/50/50 47/47/47
f 47/47/47 50/50/50 51/51/51
f 50/50/50 52/52/52 51/51/51
f 51/51/51 52/52/52 53/53/53
f 52/52/52 54/54/54 53/53/53
f 53/53/53 54/54/54 55/55/55
f 54/54/54 56/56/56 55/55/55
f 55/55/55 56/56/56 57/57/57
f 56/56/56 58/58/58 57/57/57
f 57/57/57 58/58/58 59/59/59
f 58/58/58 60/60/60 59/59/59
f 59/59/59 60/60/60 61/61/61
f 60/60/60 62/62/62 61/61/61
f 61/61/61 62/62/62 63/63/63
f 62/62/62 64/64/64 63/63/63
f 63/63/63 64/64/64 65/65/65
f 64/64/64 66/66/66 65/65/65
f 65/65/65 66/66/66 67/67/67
f 66/66/66 68/68/68 67/67/67
f 67/67/67 68/68/68 69/69/69
f 68/68/68 70/70/70 69/69/69
f 69/69/69 70/70/70 71/71/71
f 70/70/70 72/72/72 71/71/71
f 71/71/71 72/72/72 73/73/73
f 72/72/72 74/74/74 73/73/73
f 73/73/73 74/74/74 75/75/75
f 74/74/74 76/76/76 75/75/75
f 75/75/75 76/76/76 77/77/77
f 76/76/76 78/78/78 77/77/77
f 77/77/77 78/78/78 79/79/79
f 78/78/78 80/80/80 79/79/79
f 79/79/79 80/80/80 81/81/81
f 80/80/80 82/82/82 81/81/81
f 81/81/81 82/82/82 83/83/83
f 82/82/82 84/84/84 83/83/83
f 83/83/83 84/84/84 85/85/85
f 84/84/84 86/86/86 85/85/85
f 85/85/85 86/86/86 87/87/87
f 86/86/86 88/88/88 87/87/87
f 91/91/91 90/90/90 89/89/89
f 92/92/92 91/91/91 89/89/89
f 95/95/95 94/94/94 93/93/93
f 94/94/94 96/96/96 93/93/93
f 93/93/93 96/96/96 97/97/97
f 96/96/96 98/98/98 97/97/97
f 97/97/97 98/98/98 99/99/99
f 98/98/98 100/100/100 99/99/99
f 99/99/99 100/100/100 101/101/101
f 100/100/100 102/102/102 101/101/101
f 101/101/101 102/102/102 103/103/103
f 102/102/102 104/104/104 103/103/103
f 103/103/103 104/104/104 105/105/105
f 104/104/104 106/106/106 105/105/105
f 105/105/105 106/106/106 107/107/107
f 106/106/106 108/108/108 107/107/107
f 107/107/107 108/108/108 109/109/109
f 108/108/108 110/110/110 109/109/109
f 109/109/109 110/110/110 111/111/111
f 110/110/110 112/112/112 111/111/111
f 111/111/111 112/112/112 113/113/113
f 112/112/112 114/114/114 113/113/113
f 113/113/113 114/114/114 115/115/115
f 114/114/114 116/116/116 115/115/115
f 115/115/115 116/116/116 117/117/117
f 116/116/116 118/118/118 117/117/117
f 117/117/117 118/118/118 119/119/119
f 118/118/118 120/120/120 119/119/119
f 119/119/119 120/120/120 121/121/121
f 120/120/120 122/122/122 121/121/121
f 121/121/121 122/122/122 123/123/123
f 122/122/122 124/124/124 123/123/123
f 123/123/123 124/124/124 125/125/125
f 124/124/124 126/126/126 125/125/125
f 125/125/125 126/126/126 127/127/127
f 126/126/126 128/128/128 127/127/127
f 127/127/127 128/128/128 129/129/129
f 128/128/128 130/130/130 129/129/129
f 129/129/129 130/130/130 131/131/131
f 130/130/130 132/132/132 131/131/131
f 131/131/131 132/132/132 133/133/133
f 132/132/132 134/134/134 133/133/133
f 137/137/137 136/136/136 135/135/135
f 138/138/138 137/137/137 135/135/135
f 141/141/141 140/140/140 139/139/139
f 140/140/140 142/142/142 139/139/139
f 139/139/139 142/142/142 143/143/143
f 142/142/142 144/144/144 143/143/143
f 143/143/143 144/144/144 145/145/145
f 144/144/144 146/146/146 145/145/145
f 145/145/145 146/146/146 147/147/147
f 146/146/146 148/148/148 147/147/147
f 147/147/147 148/148/148 149/149/149
f 148/148/148 150/150/150 149/149/149
f 149/149/149 150/150/150 151/151/151
f 150/150/150 152/152/152 151/151/151
f 151/151/151 152/152/152 153/153/153
f 152/152/152 154/154/154 153/153/153
f 153/153/153 154/154/154 155/155/155
f 154/154/154 156/156/156 155/155/155
f 155/155/155 156/156/156 157/157/157
f 156/156/156 158/158/158 157/157/157
f 157/157/157 158/158/158 159/159/159
f 158/158/158 160/160/160 159/159/159
f 159/159/159 160/160/160 161/161/161
f 160/160/160 162/162/162 161/161/161
f 161/161/161 162/162/162 163/163/163
f 162/162/162 164/164/164 163/163/163
f 163/163/163 164/164/164 165/165/165
f 164/164/164 166/166/166 165/165/165
f 165/165/165 166/166/166 167/167/167
f 166/166/166 168/168/168 167/167/167
f 167/167/167 168/168/168 169/169/169
f 168/168/168 170/170/170 169/169/169
f 169/169/169 170/170/170 171/171/171
f 170/170/170 172/172/172 171/171/171
f 171/171/171 172/172/172 173/173/173
f 172/172/172 174/174/174 173/173/173
f 173/173/173 174/174/174 175/175/175
f 174/174/174 176/176/176 175/175/175
f 175/175/175 176/176/176 177/177/177
f 176/176/176 178/178/178 177/177/177
f 177/177/177 178/178/178 179/179/179
f 178/178/178 180/180/180 179/179/179
f 183/183/183 182/182/182 181/181/181
f 184/184/184 183/183/183 181/181/181
