g exterior_plate2
v -14.736926 5.8871403 -2.3553283
v -14.886259 5.449485 -2.0184264
v -14.886259 5.449486 -0.7973181
v -14.286083 7.2084403 -0.7973181
v -14.312326 7.131529 -2.3553283
v -14.822699 5.6095953 1.0775359
v -14.379227 6.935462 1.0218481
v -14.286083 7.208441 0.6520691
v -15.216908 5.562308 -0.7973181
v -15.216908 5.562307 -2.0184264
v -15.093818 5.923052 -2.4819372
v -14.616733 7.321262 -0.7973181
v -14.616733 7.321262 -2.4819372
v -14.709876 7.048283 1.2319372
v -15.216908 5.562308 1.2319372
v -14.616733 7.321262 0.6520691
v -14.616733 7.321262 -2.4819372
v -15.093818 5.923052 -2.4819372
v -14.736926 5.8871403 -2.3553283
v -14.312326 7.131529 -2.3553283
v -15.093818 5.923052 -2.4819372
v -15.216908 5.562307 -2.0184264
v -14.886259 5.449485 -2.0184264
v -14.736926 5.8871403 -2.3553283
v -15.216908 5.562307 -2.0184264
v -14.886259 5.449486 -0.7973181
v -14.886259 5.449485 -2.0184264
v -15.216908 5.562308 -0.7973181
v -14.822699 5.6095953 1.0775359
v -15.216908 5.562308 1.2319372
v -14.616733 7.321262 -0.7973181
v -14.616733 7.321262 -2.4819372
v -14.312326 7.131529 -2.3553283
v -14.286083 7.2084403 -0.7973181
v -14.616733 7.321262 0.6520691
v -14.286083 7.208441 0.6520691
v -14.709876 7.048283 1.2319372
v -14.379227 6.935462 1.0218481
v -15.216908 5.562308 1.2319372
v -14.709876 7.048283 1.2319372
v -14.379227 6.935462 1.0218481
v -14.822699 5.6095953 1.0775359
vt 0.34405488 0.42081437
vt 0.32876402 0.40891367
vt 0.28848064 0.40891373
vt 0.28848067 0.46694028
vt 0.34405482 0.46694028
vt 0.22153713 0.40891376
vt 0.22153705 0.45793498
vt 0.24066646 0.46694028
vt 0.4910568 0.12391576
vt 0.42962316 0.1239157
vt 0.40630415 0.14361739
vt 0.4910568 0.21997964
vt 0.40630412 0.21997955
vt 0.5931478 0.20507109
vt 0.5931477 0.123915724
vt 0.563975 0.21997958
vt -0.18597427 0.49971694
vt -0.04640971 0.49944007
vt -0.04685545 0.43552864
vt -0.1864202 0.43570828
vt -0.38612944 0.4996487
vt -0.34233817 0.4996037
vt -0.34233811 0.43580312
vt -0.38612938 0.43583244
vt -0.34233817 0.4996037
vt -0.22697107 0.43580317
vt -0.34233811 0.43580312
vt -0.2269711 0.4996037
vt -0.035252452 0.43580317
vt -0.035252497 0.49960363
vt -0.19441082 0.49965882
vt -0.035252497 0.49965894
vt -0.03525251 0.43583906
vt -0.1944108 0.43583906
vt -0.33134496 0.49965894
vt -0.33134502 0.43583906
vt -0.38612938 0.49963653
vt -0.38612938 0.43582457
vt -0.19024408 0.4995212
vt -0.041907147 0.4996224
vt -0.041753575 0.4356469
vt -0.19009066 0.4355811
vn 0.9464226 -0.32293093 2.836365E-07
vn 0.9464226 -0.32293087 2.8363647E-07
vn 0.9468255 -0.32174584 -0.0010805022
vn 0.9468434 -0.32169306 -0.0011286362
vn 0.9464226 -0.32293087 2.8363647E-07
vn 0.94718975 -0.32066694 -0.002063767
vn 0.94718975 -0.32066694 -0.002063767
vn 0.94718975 -0.3206669 -0.0020637666
vn -0.9464228 0.32293028 0
vn -0.9464228 0.32293037 -1.283862E-07
vn -0.9464228 0.3229303 -1.283862E-07
vn -0.9464228 0.32293028 0
vn -0.9464228 0.3229304 -1.283862E-07
vn -0.9464228 0.3229302 0
vn -0.9464228 0.3229302 0
vn -0.9464228 0.3229302 0
vn 0.32245785 -0.11002604 -0.9401676
vn 0.3224579 -0.11002604 -0.9401676
vn 0.32245794 -0.11002603 -0.9401676
vn 0.32245788 -0.11002603 -0.9401676
vn -0.02162919 -0.7041407 -0.70973086
vn -0.02162919 -0.7041407 -0.70973086
vn -0.02162919 -0.7041407 -0.70973086
vn -0.021629188 -0.7041408 -0.7097308
vn -0.3229325 -0.9464219 9.156381E-07
vn -0.17271759 -0.98461217 0.026599856
vn -0.32293248 -0.9464219 9.156381E-07
vn -0.17288129 -0.98458415 0.026571626
vn -0.08105163 -0.99581784 0.042158686
vn -0.08105163 -0.99581784 0.042158693
vn 0.38250607 0.92385864 -0.013204498
vn 0.43400794 0.9005657 -0.024872746
vn 0.434008 0.9005657 -0.024872748
vn 0.38250607 0.92385864 -0.013204502
vn 0.3611868 0.9206588 0.14809272
vn 0.36118677 0.9206588 0.1480927
vn 0.41866362 0.7493965 0.51295775
vn 0.4186636 0.7493965 0.5129577
vn 0.43605673 -0.12976672 0.8905139
vn 0.43605676 -0.12976675 0.890514
vn 0.43605676 -0.12976675 0.890514
vn 0.43605673 -0.12976672 0.8905139
g exterior_plate2_0
f 3/3/3 2/2/2 1/1/1
f 1/1/1 4/4/4 3/3/3
f 1/1/1 5/5/5 4/4/4
f 6/6/6 3/3/3 4/4/4
f 4/4/4 7/7/7 6/6/6
f 4/4/4 8/8/8 7/7/7
f 11/11/11 10/10/10 9/9/9
f 9/9/9 12/12/12 11/11/11
f 12/12/12 13/13/13 11/11/11
f 14/14/14 12/12/12 9/9/9
f 9/9/9 15/15/15 14/14/14
f 14/14/14 16/16/16 12/12/12
f 19/19/19 18/18/18 17/17/17
f 20/20/20 19/19/19 17/17/17
f 23/23/23 22/22/22 21/21/21
f 24/24/24 23/23/23 21/21/21
f 27/27/27 26/26/26 25/25/25
f 26/26/26 28/28/28 25/25/25
f 26/26/26 29/29/29 28/28/28
f 29/29/29 30/30/30 28/28/28
f 33/33/33 32/32/32 31/31/31
f 34/34/34 33/33/33 31/31/31
f 34/34/34 31/31/31 35/35/35
f 36/36/36 34/34/34 35/35/35
f 36/36/36 35/35/35 37/37/37
f 38/38/38 36/36/36 37/37/37
f 41/41/41 40/40/40 39/39/39
f 42/42/42 41/41/41 39/39/39
