g fashion_partyGlasses_LD
v -0.04273561 -0.0032633631 -0.023995716
v -0.042574283 -0.0032321936 0.0027531954
v -0.034118906 -0.0079216445 0.0023983335
v -0.03422342 -0.007980312 -0.026401263
v -0.020547353 -0.0038496742 -0.00065553334
v -0.020596217 -0.0037810148 -0.028558927
v 1.7763567E-16 -0.0020469201 -0.003491847
v -0.026566504 0.0046081226 -0.026086537
v -0.042574283 -0.0032321936 0.0027531954
v 1.7763567E-16 -0.0020441602 -0.029640801
v -0.026482461 0.0044900323 -0.0010286692
v -0.034118906 -0.0079216445 0.0023983335
v -0.020547353 -0.0038496742 -0.00065553334
v 1.7763567E-16 0.0076527805 -0.02789238
v 1.7763567E-16 0.007627524 -0.00527336
v 1.7763567E-16 -0.0020469201 -0.003491847
v 0.020547353 -0.0038496742 -0.00065553334
v 0.026482461 0.0044900323 -0.0010286692
v 0.034118906 -0.0079216445 0.0023983335
v 0.042574283 -0.0032321936 0.0027531954
v 0.026566504 0.0046081226 -0.026086537
v 0.04273561 -0.0032633631 -0.023995716
v 0.020596217 -0.0037810148 -0.028558927
v 0.020547353 -0.0038496742 -0.00065553334
v 0.03422342 -0.007980312 -0.026401263
v 0.034118906 -0.0079216445 0.0023983335
v 0.042574283 -0.0032321936 0.0027531954
v -0.1543346 -0.017858066 0.01816419
v -0.1554037 -0.01763842 0.07837657
v -0.09873721 -0.012014545 0.058780547
v -0.0962644 -0.014119657 -4.1871027E-11
v -0.04313983 -0.0061710244 0.018164186
v -0.042139765 -0.005733902 0.07837656
v -0.13309829 -0.01562604 -0.047554463
v -0.19040419 -0.02131712 -0.029937182
v -0.064376146 -0.008403051 -0.04755447
v -0.0071392753 -0.0020552026 -0.0299372
v -0.09877174 -0.011686163 -0.096878774
v 0.1543346 -0.017858066 0.01816419
v 0.09873721 -0.012014545 0.058780547
v 0.1554037 -0.01763842 0.07837657
v 0.0962644 -0.014119657 -4.1871027E-11
v 0.04313983 -0.0061710244 0.018164186
v 0.042139765 -0.005733902 0.07837656
v 0.13309829 -0.01562604 -0.047554463
v 0.19040419 -0.02131712 -0.029937182
v 0.064376146 -0.008403051 -0.04755447
v 0.0071392753 -0.0020552026 -0.0299372
v 0.09877174 -0.011686163 -0.096878774
v -0.064376146 -0.008403051 -0.04755447
v -0.063405976 0.0038461864 -0.0506448
v -0.09761307 -0.003008155 -0.101516776
v -0.09877174 -0.011686163 -0.096878774
v -0.0071392753 -0.0020552026 -0.0299372
v -0.10170936 -0.003438693 -0.101516776
v -0.13659404 -0.0038461892 -0.05064479
v -0.13309829 -0.01562604 -0.047554463
v -0.19504762 -0.013248937 -0.033329036
v -0.19040419 -0.02131712 -0.029937182
v -0.10241438 0.004160937 -0.09789436
v -0.13645075 0.0069674384 -0.04889291
v -0.09850351 0.004571986 -0.09789437
v -0.100852564 0.008111602 -0.094847575
v -0.06579439 0.014393722 -0.04889292
v -0.004274815 0.0068020904 -0.03332906
v -0.0030089854 0.006935134 -0.02941179
v -0.04313983 -0.0061710244 0.018164186
v -0.19244772 -0.0053019486 -0.03212099
v -0.008470136 0.014034874 -0.03212101
v -0.040789623 0.0062232604 0.019344587
v -0.042139765 -0.005733902 0.07837656
v -0.0072616097 0.014161896 -0.028381063
v -0.011141299 0.017540636 -0.029309524
v -0.06800902 0.016858356 -0.046215974
v -0.13479695 0.009838661 -0.04621596
v -0.19056381 -0.0013174295 -0.029309506
v -0.04737041 0.01902756 0.01765295
v -0.04396037 0.016688569 0.018675428
v -0.038661025 0.0031879542 0.0809183
v -0.10357524 0.018431103 -5.9604643E-10
v -0.041974995 0.0028396419 0.0833393
v -0.09873721 -0.012014545 0.058780547
v -0.041651294 0.010547395 0.07804249
v -0.15543555 0.007669456 0.01765295
v -0.10140298 0.013348509 0.057126153
v -0.045407955 0.013939066 0.07673329
v -0.044815257 0.010214848 0.08035391
v -0.099999994 1.2514646E-10 0.062600404
v -0.1554037 -0.01763842 0.07837657
v -0.101122566 0.010680581 0.060434956
v -0.15734741 -0.009286487 0.083339304
v -0.15629715 0.0022841415 0.0767333
v -0.16066138 -0.009634799 0.080918305
v -0.1543346 -0.017858066 0.01816419
v -0.1561026 -0.0014819222 0.08035391
v -0.15926656 -0.0018144677 0.0780425
v -0.15921038 -0.0062232628 0.019344589
v -0.15828478 0.00467259 0.01867543
v -0.19631341 -0.013381982 -0.029411772
v -0.19365624 -0.00542897 -0.028381044
v 0.064376146 -0.008403051 -0.04755447
v 0.09877174 -0.011686163 -0.096878774
v 0.09761307 -0.003008155 -0.101516776
v 0.063405976 0.0038461864 -0.0506448
v 0.0071392753 -0.0020552026 -0.0299372
v 0.10170936 -0.003438693 -0.101516776
v 0.13659404 -0.0038461892 -0.05064479
v 0.13309829 -0.01562604 -0.047554463
v 0.19504762 -0.013248937 -0.033329036
v 0.19040419 -0.02131712 -0.029937182
v 0.10241438 0.004160937 -0.09789436
v 0.13645075 0.0069674384 -0.04889291
v 0.09850351 0.004571986 -0.09789437
v 0.100852564 0.008111602 -0.094847575
v 0.06579439 0.014393722 -0.04889292
v 0.004274815 0.0068020904 -0.03332906
v 0.0030089854 0.006935134 -0.02941179
v 0.04313983 -0.0061710244 0.018164186
v 0.19244772 -0.0053019486 -0.03212099
v 0.008470136 0.014034874 -0.03212101
v 0.040789623 0.0062232604 0.019344587
v 0.042139765 -0.005733902 0.07837656
v 0.0072616097 0.014161896 -0.028381063
v 0.011141299 0.017540636 -0.029309524
v 0.06800902 0.016858356 -0.046215974
v 0.13479695 0.009838661 -0.04621596
v 0.19056381 -0.0013174295 -0.029309506
v 0.04737041 0.01902756 0.01765295
v 0.04396037 0.016688569 0.018675428
v 0.038661025 0.0031879542 0.0809183
v 0.10357524 0.018431103 -5.9604643E-10
v 0.041974995 0.0028396419 0.0833393
v 0.09873721 -0.012014545 0.058780547
v 0.041651294 0.010547395 0.07804249
v 0.15543555 0.007669456 0.01765295
v 0.10140298 0.013348509 0.057126153
v 0.045407955 0.013939066 0.07673329
v 0.044815257 0.010214848 0.08035391
v 0.099999994 1.2514646E-10 0.062600404
v 0.1554037 -0.01763842 0.07837657
v 0.101122566 0.010680581 0.060434956
v 0.15734741 -0.009286487 0.083339304
v 0.15629715 0.0022841415 0.0767333
v 0.16066138 -0.009634799 0.080918305
v 0.1543346 -0.017858066 0.01816419
v 0.1561026 -0.0014819222 0.08035391
v 0.15926656 -0.0018144677 0.0780425
v 0.15921038 -0.0062232628 0.019344589
v 0.15828478 0.00467259 0.01867543
v 0.19631341 -0.013381982 -0.029411772
v 0.19365624 -0.00542897 -0.028381044
vt 0.94357586 0.15690625
vt 0.98863626 0.14881389
vt 0.98619604 0.13348123
vt 0.9437415 0.1412952
vt 0.9774915 0.109984234
vt 0.9358796 0.12158393
vt 0.9623605 0.07674559
vt 0.9254646 0.13420145
vt 0.9038448 0.18073218
vt 0.9237493 0.09315604
vt 0.893449 0.15408799
vt 0.8879157 0.17637509
vt 0.8771634 0.15306531
vt 0.9099039 0.09903995
vt 0.8768201 0.1131002
vt 0.86288583 0.11902246
vt 0.84828544 0.08511645
vt 0.8588516 0.07268139
vt 0.8389663 0.061196916
vt 0.8468835 0.04670452
vt 0.8953899 0.06343429
vt 0.8916138 0.034636684
vt 0.911702 0.0646946
vt 0.9489316 0.04278677
vt 0.9029674 0.045353003
vt 0.9380581 0.02020916
vt 0.92871135 0.0078125
vt 0.59955746 0.9607313
vt 0.6893806 0.9909128
vt 0.6870856 0.8961829
vt 0.5999632 0.8648659
vt 0.65274507 0.7929897
vt 0.74354523 0.82008284
vt 0.51111954 0.897436
vt 0.51017374 0.9921875
vt 0.5439885 0.79376507
vt 0.59781224 0.7157781
vt 0.4535809 0.8221473
vt 0.8535081 0.63570446
vt 0.91512656 0.7253198
vt 0.9482619 0.63654464
vt 0.82255244 0.7264349
vt 0.84893733 0.81161755
vt 0.94360715 0.8156962
vt 0.7492383 0.6666133
vt 0.7793189 0.57675666
vt 0.7464104 0.77533257
vt 0.77178466 0.86663073
vt 0.67024916 0.7189558
vt 0.42438343 0.62179255
vt 0.4433877 0.6131246
vt 0.393255 0.52833754
vt 0.38076612 0.525103
vt 0.46879616 0.7180592
vt 0.39367434 0.5270014
vt 0.4727144 0.46852097
vt 0.45859984 0.4531268
vt 0.5378562 0.39464155
vt 0.5370704 0.38176578
vt 0.4069406 0.52860665
vt 0.4863051 0.48333722
vt 0.4062581 0.53218484
vt 0.41374254 0.531834
vt 0.46167699 0.60477746
vt 0.4745888 0.70637053
vt 0.47572908 0.7071804
vt 0.57422215 0.7064475
vt 0.53821546 0.40819737
vt 0.48021325 0.69424933
vt 0.57185155 0.68569434
vt 0.67949563 0.69397056
vt 0.48340458 0.69600123
vt 0.48538348 0.6887751
vt 0.4687541 0.6015477
vt 0.49156424 0.4890686
vt 0.5408625 0.41520718
vt 0.56867707 0.65799147
vt 0.5695638 0.66572225
vt 0.67016923 0.6848485
vt 0.5581155 0.55829924
vt 0.67129385 0.6840146
vt 0.70104533 0.5901102
vt 0.66038144 0.6757504
vt 0.6055885 0.476003
vt 0.653249 0.5804101
vt 0.65677434 0.6691418
vt 0.66303444 0.67325836
vt 0.680577 0.5859528
vt 0.7216987 0.48612
vt 0.66087407 0.58195525
vt 0.7101422 0.4921734
vt 0.6910665 0.50006276
vt 0.7096953 0.4908469
vt 0.629581 0.43354276
vt 0.69846797 0.49867377
vt 0.6969156 0.4953791
vt 0.619303 0.45172456
vt 0.6094143 0.46922866
vt 0.5392548 0.39462712
vt 0.5418285 0.4077408
vt 0.19547491 0.68426776
vt 0.11437068 0.7526164
vt 0.12703134 0.7550964
vt 0.20887093 0.70029396
vt 0.2770982 0.61662567
vt 0.1268319 0.7564806
vt 0.17285044 0.8433714
vt 0.15346952 0.8511574
vt 0.19968513 0.938142
vt 0.19341306 0.9494149
vt 0.13948895 0.76076525
vt 0.19150741 0.835881
vt 0.14042015 0.75724477
vt 0.14701904 0.7607941
vt 0.22175989 0.7157218
vt 0.27727365 0.6296696
vt 0.278653 0.6294317
vt 0.36717796 0.67263085
vt 0.20586586 0.92607373
vt 0.27711383 0.6430332
vt 0.3560757 0.69032353
vt 0.45673504 0.72937375
vt 0.2807497 0.64282894
vt 0.27941477 0.65020156
vt 0.2267475 0.72169346
vt 0.1987275 0.8329829
vt 0.21128123 0.92089266
vt 0.34124747 0.7139387
vt 0.34538558 0.7073494
vt 0.4443832 0.73356956
vt 0.28865588 0.7992964
vt 0.4450344 0.73480713
vt 0.4312996 0.83234125
vt 0.4316252 0.73754424
vt 0.2959204 0.8940261
vt 0.3840032 0.8204436
vt 0.42551655 0.7419467
vt 0.4329421 0.7409398
vt 0.41104275 0.8272503
vt 0.4050182 0.93504685
vt 0.3915465 0.8223444
vt 0.39720818 0.92459583
vt 0.38340962 0.9092425
vt 0.39623252 0.9256003
vt 0.29922104 0.94268626
vt 0.3894846 0.9136906
vt 0.3866634 0.91599274
vt 0.29780442 0.9218467
vt 0.29644668 0.9017881
vt 0.20094074 0.93875957
vt 0.2089274 0.92804664
vn -0.88109326 0.43325198 -0.18965074
vn -0.8599764 0.4395994 0.25921586
vn 0.0021492313 -0.93342227 0.35877308
vn -0.040297687 -0.9409383 -0.33617136
vn 0.23484182 -0.8838749 0.40449303
vn 0.115163006 -0.8953317 -0.43025413
vn -0 -0.92435676 0.38152906
vn -0.2604179 0.93064874 -0.2570514
vn -0.8599764 0.4395994 0.25921586
vn -0 -0.90419585 -0.42711818
vn -0.21466853 0.9402129 0.26441845
vn 0.0021492313 -0.93342227 0.35877308
vn 0.23484182 -0.8838749 0.40449303
vn -0 0.9536489 -0.30092126
vn -0 0.96385986 0.26640975
vn -0 -0.92435676 0.38152906
vn -0.23484178 -0.8838749 0.40449303
vn 0.21466853 0.9402129 0.26441842
vn -0.0021492313 -0.93342227 0.35877308
vn 0.8599764 0.4395994 0.25921586
vn 0.2604179 0.93064874 -0.2570514
vn 0.88109326 0.43325198 -0.18965073
vn -0.115163006 -0.8953317 -0.43025413
vn -0.23484178 -0.8838749 0.40449303
vn 0.04029765 -0.9409383 -0.33617133
vn -0.0021492313 -0.93342227 0.35877308
vn 0.8599764 0.4395994 0.25921586
vn -0.13816948 -0.9873302 0.07802779
vn -0.14206198 -0.9336581 0.32878703
vn 0.10053578 -0.9612771 0.2565908
vn 0.10540397 -0.9944296 0
vn 0.3473087 -0.93427473 0.080667965
vn 0.33307597 -0.8837192 0.3287868
vn -0.04787999 -0.97748303 -0.20550996
vn -0.2888876 -0.9490901 -0.12558585
vn 0.25202906 -0.944709 -0.20977633
vn 0.4799017 -0.8682872 -0.12558527
vn 0.09550687 -0.9086888 -0.40640262
vn 0.13816951 -0.9873302 0.07802781
vn -0.1005358 -0.9612771 0.2565908
vn 0.14206195 -0.9336582 0.32878694
vn -0.10540397 -0.9944296 0
vn -0.34730878 -0.93427473 0.080667965
vn -0.333076 -0.8837192 0.3287868
vn 0.047879986 -0.97748303 -0.20551002
vn 0.28888765 -0.9490901 -0.12558584
vn -0.25202906 -0.9447091 -0.20977633
vn -0.4799017 -0.8682872 -0.12558533
vn -0.09550687 -0.9086888 -0.40640262
vn 0.25202906 -0.944709 -0.20977633
vn 0.5919595 -0.035563827 -0.80518275
vn 0.8019711 -0.026186753 -0.5967887
vn 0.09550687 -0.9086888 -0.40640262
vn 0.4799017 -0.8682872 -0.12558527
vn -0.7790016 -0.19235384 -0.59678835
vn -0.5716296 -0.15786211 -0.8051827
vn -0.04787999 -0.97748303 -0.20550996
vn -0.30871186 -0.14292446 -0.9403561
vn -0.2888876 -0.9490901 -0.12558585
vn -0.76802844 0.27586347 -0.5779547
vn -0.5687115 0.39460257 -0.72170365
vn 0.6938901 0.4295168 -0.5779549
vn -0.101412654 0.9648767 -0.24233958
vn 0.47424108 0.5042212 -0.7217038
vn 0.33168122 -0.07561619 -0.94035625
vn 0.8202288 -0.02426787 0.57152057
vn 0.3473087 -0.93427473 0.080667965
vn -0.35784686 0.31897503 -0.8776106
vn 0.2837082 0.38640532 -0.87761074
vn 0.95152855 0.0022282402 0.30755243
vn 0.33307597 -0.8837192 0.3287868
vn 0.73546654 0.43388566 0.5204153
vn 0.12780367 0.9889682 -0.07488724
vn -0.015756894 0.9926426 -0.12005143
vn -0.19105676 0.9738844 -0.12266367
vn -0.33062893 0.940785 -0.074887276
vn 0.036939118 0.99827826 0.04556379
vn 0.796532 0.5380936 0.27566668
vn 0.9998635 -0.005387541 0.015616363
vn -0.1060299 0.99436295 0
vn -0.27917022 -0.1398194 0.9500076
vn 0.10053578 -0.9612771 0.2565908
vn 0.8921421 0.45035294 0.035561327
vn -0.24680768 0.96791524 0.04717957
vn -0.10246399 0.9833665 0.14997195
vn 0.040250916 0.9797661 0.19605708
vn -0.29057527 0.32604474 0.8995893
vn 0.010165164 -0.096712954 0.9952604
vn -0.14206198 -0.9336581 0.32878703
vn -0.047234766 0.44941005 0.892076
vn 0.30213994 -0.078721225 0.9500076
vn -0.24307586 0.9499872 0.19605713
vn -0.97689384 -0.21315345 0.015616583
vn -0.13816948 -0.9873302 0.07802779
vn 0.21643755 0.3793336 0.8995892
vn -0.9662802 0.2550252 0.035561696
vn -0.93119866 -0.19565429 0.30755243
vn -0.8910014 0.36072764 0.27566656
vn -0.79725933 -0.19427226 0.5715207
vn -0.8096046 0.27149284 0.52041525
vn -0.25202906 -0.9447091 -0.20977633
vn -0.09550687 -0.9086888 -0.40640262
vn -0.8019711 -0.026186861 -0.5967887
vn -0.59195954 -0.03556389 -0.8051827
vn -0.4799017 -0.8682872 -0.12558533
vn 0.7790016 -0.19235384 -0.59678835
vn 0.57162964 -0.15786208 -0.8051827
vn 0.047879986 -0.97748303 -0.20551002
vn 0.3087119 -0.14292441 -0.9403561
vn 0.28888765 -0.9490901 -0.12558584
vn 0.76802844 0.27586332 -0.5779547
vn 0.56871146 0.39460266 -0.72170347
vn -0.6938902 0.42951673 -0.5779549
vn 0.10141264 0.9648767 -0.24233949
vn -0.4742411 0.5042212 -0.7217039
vn -0.33168122 -0.07561622 -0.9403562
vn -0.8202288 -0.02426788 0.57152057
vn -0.34730878 -0.93427473 0.080667965
vn 0.3578469 0.3189753 -0.8776106
vn -0.28370824 0.38640532 -0.8776106
vn -0.95152855 0.0022282302 0.3075524
vn -0.333076 -0.8837192 0.3287868
vn -0.7354665 0.43388563 0.52041537
vn -0.12780364 0.9889682 -0.074887164
vn 0.015756909 0.9926426 -0.12005141
vn 0.19105674 0.9738845 -0.122663654
vn 0.33062893 0.940785 -0.07488721
vn -0.036939126 0.99827826 0.045563802
vn -0.796532 0.5380935 0.2756667
vn -0.9998635 -0.0053875404 0.015616361
vn 0.1060299 0.99436295 0
vn 0.27917033 -0.1398193 0.9500076
vn -0.1005358 -0.9612771 0.2565908
vn -0.8921421 0.45035294 0.035561334
vn 0.24680768 0.96791524 0.04717957
vn 0.10246399 0.9833665 0.14997195
vn -0.040250923 0.9797661 0.19605711
vn 0.2905754 0.3260448 0.8995892
vn -0.010165074 -0.096712925 0.9952604
vn 0.14206195 -0.9336582 0.32878694
vn 0.047234897 0.44941005 0.8920759
vn -0.30213997 -0.07872134 0.9500076
vn 0.24307583 0.9499872 0.19605717
vn 0.97689396 -0.21315324 0.01561653
vn 0.13816951 -0.9873302 0.07802781
vn -0.2164373 0.37933373 0.8995892
vn 0.96628034 0.25502512 0.035561666
vn 0.93119866 -0.19565411 0.30755246
vn 0.8910014 0.36072767 0.27566656
vn 0.7972593 -0.1942722 0.57152075
vn 0.8096045 0.27149308 0.5204152
g fashion_partyGlasses_LD_0
f 3/3/3 2/2/2 1/1/1
f 4/4/4 3/3/3 1/1/1
f 5/5/5 3/3/3 4/4/4
f 6/6/6 5/5/5 4/4/4
f 6/6/6 4/4/4 1/1/1
f 7/7/7 5/5/5 6/6/6
f 8/8/8 6/6/6 1/1/1
f 8/8/8 1/1/1 9/9/9
f 10/10/10 7/7/7 6/6/6
f 10/10/10 6/6/6 8/8/8
f 11/11/11 8/8/8 9/9/9
f 11/11/11 9/9/9 12/12/12
f 13/13/13 11/11/11 12/12/12
f 14/14/14 8/8/8 11/11/11
f 14/14/14 10/10/10 8/8/8
f 15/15/15 11/11/11 13/13/13
f 15/15/15 14/14/14 11/11/11
f 16/16/16 15/15/15 13/13/13
f 15/15/15 16/16/16 17/17/17
f 18/18/18 15/15/15 17/17/17
f 14/14/14 15/15/15 18/18/18
f 18/18/18 17/17/17 19/19/19
f 20/20/20 18/18/18 19/19/19
f 21/21/21 14/14/14 18/18/18
f 21/21/21 18/18/18 20/20/20
f 10/10/10 14/14/14 21/21/21
f 22/22/22 21/21/21 20/20/20
f 23/23/23 10/10/10 21/21/21
f 23/23/23 21/21/21 22/22/22
f 7/7/7 10/10/10 23/23/23
f 24/24/24 7/7/7 23/23/23
f 24/24/24 23/23/23 25/25/25
f 25/25/25 23/23/23 22/22/22
f 26/26/26 24/24/24 25/25/25
f 26/26/26 25/25/25 22/22/22
f 27/27/27 26/26/26 22/22/22
f 30/30/30 29/29/29 28/28/28
f 30/30/30 28/28/28 31/31/31
f 32/32/32 30/30/30 31/31/31
f 32/32/32 33/33/33 30/30/30
f 34/34/34 31/31/31 28/28/28
f 34/34/34 28/28/28 35/35/35
f 36/36/36 32/32/32 31/31/31
f 36/36/36 31/31/31 34/34/34
f 36/36/36 37/37/37 32/32/32
f 36/36/36 34/34/34 38/38/38
f 41/41/41 40/40/40 39/39/39
f 39/39/39 40/40/40 42/42/42
f 40/40/40 43/43/43 42/42/42
f 44/44/44 43/43/43 40/40/40
f 42/42/42 45/45/45 39/39/39
f 39/39/39 45/45/45 46/46/46
f 43/43/43 47/47/47 42/42/42
f 42/42/42 47/47/47 45/45/45
f 48/48/48 47/47/47 43/43/43
f 45/45/45 47/47/47 49/49/49
f 52/52/52 51/51/51 50/50/50
f 53/53/53 52/52/52 50/50/50
f 50/50/50 51/51/51 54/54/54
f 55/55/55 52/52/52 53/53/53
f 56/56/56 55/55/55 53/53/53
f 57/57/57 56/56/56 53/53/53
f 58/58/58 56/56/56 57/57/57
f 59/59/59 58/58/58 57/57/57
f 55/55/55 60/60/60 52/52/52
f 56/56/56 61/61/61 55/55/55
f 61/61/61 60/60/60 55/55/55
f 60/60/60 62/62/62 52/52/52
f 52/52/52 62/62/62 51/51/51
f 63/63/63 62/62/62 60/60/60
f 60/60/60 61/61/61 63/63/63
f 62/62/62 64/64/64 51/51/51
f 62/62/62 63/63/63 64/64/64
f 51/51/51 65/65/65 54/54/54
f 51/51/51 64/64/64 65/65/65
f 65/65/65 66/66/66 54/54/54
f 54/54/54 66/66/66 67/67/67
f 58/58/58 68/68/68 56/56/56
f 68/68/68 61/61/61 56/56/56
f 64/64/64 69/69/69 65/65/65
f 66/66/66 65/65/65 69/69/69
f 66/66/66 70/70/70 67/67/67
f 67/67/67 70/70/70 71/71/71
f 72/72/72 66/66/66 69/69/69
f 66/66/66 72/72/72 70/70/70
f 73/73/73 69/69/69 64/64/64
f 69/69/69 73/73/73 72/72/72
f 74/74/74 73/73/73 64/64/64
f 63/63/63 74/74/74 64/64/64
f 61/61/61 75/75/75 63/63/63
f 74/74/74 63/63/63 75/75/75
f 68/68/68 76/76/76 61/61/61
f 76/76/76 75/75/75 61/61/61
f 73/73/73 77/77/77 72/72/72
f 74/74/74 77/77/77 73/73/73
f 72/72/72 78/78/78 70/70/70
f 77/77/77 78/78/78 72/72/72
f 70/70/70 79/79/79 71/71/71
f 70/70/70 78/78/78 79/79/79
f 74/74/74 75/75/75 80/80/80
f 80/80/80 77/77/77 74/74/74
f 79/79/79 81/81/81 71/71/71
f 71/71/71 81/81/81 82/82/82
f 78/78/78 83/83/83 79/79/79
f 81/81/81 79/79/79 83/83/83
f 75/75/75 84/84/84 80/80/80
f 75/75/75 76/76/76 84/84/84
f 80/80/80 85/85/85 77/77/77
f 80/80/80 84/84/84 85/85/85
f 77/77/77 86/86/86 78/78/78
f 86/86/86 83/83/83 78/78/78
f 77/77/77 85/85/85 86/86/86
f 83/83/83 86/86/86 87/87/87
f 87/87/87 81/81/81 83/83/83
f 86/86/86 85/85/85 87/87/87
f 81/81/81 88/88/88 82/82/82
f 81/81/81 87/87/87 88/88/88
f 82/82/82 88/88/88 89/89/89
f 85/85/85 90/90/90 87/87/87
f 87/87/87 90/90/90 88/88/88
f 88/88/88 91/91/91 89/89/89
f 88/88/88 90/90/90 91/91/91
f 85/85/85 92/92/92 90/90/90
f 85/85/85 84/84/84 92/92/92
f 91/91/91 93/93/93 89/89/89
f 89/89/89 93/93/93 94/94/94
f 90/90/90 95/95/95 91/91/91
f 92/92/92 95/95/95 90/90/90
f 93/93/93 91/91/91 95/95/95
f 95/95/95 92/92/92 96/96/96
f 92/92/92 84/84/84 96/96/96
f 96/96/96 93/93/93 95/95/95
f 93/93/93 97/97/97 94/94/94
f 93/93/93 96/96/96 97/97/97
f 94/94/94 97/97/97 59/59/59
f 84/84/84 98/98/98 96/96/96
f 96/96/96 98/98/98 97/97/97
f 98/98/98 84/84/84 76/76/76
f 97/97/97 99/99/99 59/59/59
f 97/97/97 98/98/98 99/99/99
f 99/99/99 58/58/58 59/59/59
f 100/100/100 98/98/98 76/76/76
f 98/98/98 100/100/100 99/99/99
f 99/99/99 100/100/100 58/58/58
f 76/76/76 68/68/68 100/100/100
f 100/100/100 68/68/68 58/58/58
f 103/103/103 102/102/102 101/101/101
f 104/104/104 103/103/103 101/101/101
f 104/104/104 101/101/101 105/105/105
f 103/103/103 106/106/106 102/102/102
f 106/106/106 107/107/107 102/102/102
f 107/107/107 108/108/108 102/102/102
f 107/107/107 109/109/109 108/108/108
f 109/109/109 110/110/110 108/108/108
f 111/111/111 106/106/106 103/103/103
f 112/112/112 107/107/107 106/106/106
f 111/111/111 112/112/112 106/106/106
f 113/113/113 111/111/111 103/103/103
f 113/113/113 103/103/103 104/104/104
f 113/113/113 114/114/114 111/111/111
f 112/112/112 111/111/111 114/114/114
f 115/115/115 113/113/113 104/104/104
f 114/114/114 113/113/113 115/115/115
f 116/116/116 104/104/104 105/105/105
f 115/115/115 104/104/104 116/116/116
f 117/117/117 116/116/116 105/105/105
f 117/117/117 105/105/105 118/118/118
f 119/119/119 109/109/109 107/107/107
f 112/112/112 119/119/119 107/107/107
f 120/120/120 115/115/115 116/116/116
f 116/116/116 117/117/117 120/120/120
f 121/121/121 117/117/117 118/118/118
f 121/121/121 118/118/118 122/122/122
f 117/117/117 123/123/123 120/120/120
f 123/123/123 117/117/117 121/121/121
f 120/120/120 124/124/124 115/115/115
f 124/124/124 120/120/120 123/123/123
f 125/125/125 114/114/114 115/115/115
f 124/124/124 125/125/125 115/115/115
f 126/126/126 112/112/112 114/114/114
f 114/114/114 125/125/125 126/126/126
f 127/127/127 119/119/119 112/112/112
f 126/126/126 127/127/127 112/112/112
f 128/128/128 124/124/124 123/123/123
f 128/128/128 125/125/125 124/124/124
f 129/129/129 123/123/123 121/121/121
f 129/129/129 128/128/128 123/123/123
f 130/130/130 121/121/121 122/122/122
f 129/129/129 121/121/121 130/130/130
f 126/126/126 125/125/125 131/131/131
f 128/128/128 131/131/131 125/125/125
f 132/132/132 130/130/130 122/122/122
f 132/132/132 122/122/122 133/133/133
f 134/134/134 129/129/129 130/130/130
f 130/130/130 132/132/132 134/134/134
f 135/135/135 126/126/126 131/131/131
f 127/127/127 126/126/126 135/135/135
f 136/136/136 131/131/131 128/128/128
f 135/135/135 131/131/131 136/136/136
f 137/137/137 128/128/128 129/129/129
f 134/134/134 137/137/137 129/129/129
f 136/136/136 128/128/128 137/137/137
f 137/137/137 134/134/134 138/138/138
f 132/132/132 138/138/138 134/134/134
f 136/136/136 137/137/137 138/138/138
f 139/139/139 132/132/132 133/133/133
f 138/138/138 132/132/132 139/139/139
f 139/139/139 133/133/133 140/140/140
f 141/141/141 136/136/136 138/138/138
f 141/141/141 138/138/138 139/139/139
f 142/142/142 139/139/139 140/140/140
f 141/141/141 139/139/139 142/142/142
f 143/143/143 136/136/136 141/141/141
f 135/135/135 136/136/136 143/143/143
f 144/144/144 142/142/142 140/140/140
f 144/144/144 140/140/140 145/145/145
f 146/146/146 141/141/141 142/142/142
f 146/146/146 143/143/143 141/141/141
f 142/142/142 144/144/144 146/146/146
f 143/143/143 146/146/146 147/147/147
f 135/135/135 143/143/143 147/147/147
f 144/144/144 147/147/147 146/146/146
f 148/148/148 144/144/144 145/145/145
f 147/147/147 144/144/144 148/148/148
f 148/148/148 145/145/145 110/110/110
f 149/149/149 135/135/135 147/147/147
f 149/149/149 147/147/147 148/148/148
f 135/135/135 149/149/149 127/127/127
f 150/150/150 148/148/148 110/110/110
f 149/149/149 148/148/148 150/150/150
f 109/109/109 150/150/150 110/110/110
f 149/149/149 151/151/151 127/127/127
f 151/151/151 149/149/149 150/150/150
f 151/151/151 150/150/150 109/109/109
f 119/119/119 127/127/127 151/151/151
f 119/119/119 151/151/151 109/109/109
