g fishingNet_energy
v -3.2052505 8.277959 0.111572735
v -4.765769 8.534905 0.09523299
v -4.789692 8.560893 0.00574351
v -4.789692 7.1211834 0.012581215
v -3.189302 8.249331 0.2043199
v -1.6208096 7.964804 0.2592189
v -4.765769 7.096059 0.10532397
v -4.789692 5.7056346 0.087557234
v -1.6128352 7.9415574 0.3486655
v -0.036368236 7.822328 0.37784654
v -4.765769 5.690315 0.1857642
v -4.789692 4.290707 0.13889247
v -3.189302 6.810485 0.24089411
v -0.036368236 7.800493 0.46658552
v -1.6128352 6.5038204 0.39591834
v -3.189302 5.4564066 0.41368926
v -4.765769 4.2886643 0.2380698
v -4.765769 2.8518593 0.18891805
v -4.789692 2.8445811 0.091227174
v -3.189302 4.1697783 0.4541821
v -1.612835 5.1692758 0.6963775
v -4.765769 1.4130118 0.10174963
v -4.789692 1.3984553 0.009687347
v -3.189302 2.8444514 0.33422014
v -4.765769 -0.025835961 0.08885229
v -4.789692 -0.04767078 0
v -3.2052505 -0.047587484 -0.014999509
v -3.189302 1.4114268 0.17478395
v -3.189302 -0.027220547 0.07389063
v -1.6208094 -0.043040544 -0.12690288
v -1.612835 3.9795573 0.834522
v -0.036368236 6.3616457 0.54046935
v -1.612835 2.7683537 0.6390246
v -1.612835 1.3982961 0.22716948
v -1.612835 -0.031338096 -0.033961713
v -0.036368236 5.047982 0.8850802
v -0.036368236 3.8928416 1.0785627
v -0.036368236 -0.030369997 -0.12556243
v -0.036368236 -0.036118567 -0.21811336
v 1.548073 -0.043040544 -0.13531026
v -0.036368236 1.3857188 0.23963949
v -0.036368236 2.7149026 0.82164025
v 1.5400987 -0.031338096 -0.043894053
v 1.5400987 1.3982961 0.22190157
v 3.1165657 -0.027220547 0.089341134
v 3.1325142 -0.047587484 -0.0015415573
v 1.5400987 2.7700927 0.66045016
v 3.1165657 1.4114268 0.22470286
v 4.6930323 -0.025835961 0.095965445
v 4.7169557 -0.04767078 0.0055284947
v 4.7169547 1.3984553 0.06248407
v 4.6930323 1.4130118 0.15747538
v 4.7169547 2.8445811 0.156224
v 1.5400987 3.9820895 0.9542494
v 3.1165657 2.8457048 0.3775293
v 4.6930323 2.8518593 0.25541377
v 4.7169547 4.290707 0.21512452
v 1.5400987 5.1724195 0.8414371
v 3.1165657 4.1734543 0.5421537
v 4.6930323 4.289068 0.31593615
v 1.5400987 6.5027103 0.54342026
v 3.1165657 5.4573565 0.5862121
v 4.6930323 5.6913905 0.27139074
v 4.7169547 5.7056346 0.16688141
v 1.5400987 7.9415574 0.4639251
v 1.548073 7.964804 0.3745711
v 3.1165657 6.80834 0.43852648
v 4.6930323 7.097191 0.14904487
v 4.7169547 7.121352 0.04989795
v 3.1165657 8.247887 0.35310835
v 3.1325142 8.279709 0.2581926
v 4.6930323 8.536037 0.113788664
v 4.7169557 8.562798 0.022054685
v -3.2052505 -0.047587484 -0.014999509
v -4.765769 -0.025835961 -0.08885229
v -4.789692 -0.04767078 0
v -4.789692 1.3984553 0.009687347
v -3.189302 -0.024253905 -0.10386613
v -1.6208094 -0.043040544 -0.12690288
v -4.765769 1.4130113 -0.075954944
v -4.789692 2.8445811 0.091227174
v -1.612835 -0.011260331 -0.21028334
v -0.036368236 -0.036118567 -0.21811336
v -3.189302 1.4143933 -0.0031375885
v -4.765769 2.8518589 0.011213481
v -3.189302 2.8451235 0.15641963
v -4.765769 4.288664 0.06036514
v -4.789692 4.290707 0.13889247
v -3.189302 4.169778 0.26644325
v -4.765769 5.690423 0.004516065
v -4.789692 5.7056346 0.087557234
v -3.189302 5.45711 0.19374156
v -4.765769 7.0962567 -0.0723806
v -4.789692 7.1211834 0.012581215
v -3.189302 6.8107824 0.06326657
v -4.765769 8.534905 -0.082649946
v -4.789692 8.560893 0.00574351
v -3.2052505 8.277959 0.111572735
v -3.189302 8.24963 0.026615435
v -1.6208096 7.964804 0.2592189
v -1.612835 7.942668 0.17096086
v -1.6128352 6.50382 0.21833998
v -0.036368236 7.800493 0.28888077
v -0.036368236 7.822328 0.37784654
v -1.612835 5.169191 0.51336956
v 1.5400987 7.9415574 0.2862321
v 1.548073 7.964804 0.3745711
v -0.036368236 6.361645 0.36326468
v -1.612835 3.981064 0.6566062
v 3.1165657 8.247887 0.17532682
v 3.1325142 8.279709 0.2581926
v 1.5400987 6.50271 0.36668217
v -0.036368236 5.0479817 0.7077323
v -1.612835 2.7796888 0.4634738
v 4.6930323 8.536037 -0.064783454
v 4.7169557 8.562798 0.022054685
v 4.7169547 7.121352 0.04989795
v 4.6930323 7.0971904 -0.028259635
v 4.7169547 5.7056346 0.16688141
v 3.1165657 6.8083396 0.26159054
v 4.6930323 5.69139 0.08571637
v 4.7169547 4.290707 0.21512452
v 3.1165657 5.4588475 0.31006354
v 4.6930323 4.2890677 0.13857067
v 4.7169547 2.8445811 0.156224
v 1.5400987 5.1724186 0.6504109
v 3.1165657 4.173094 0.3405168
v 4.6930323 2.8518589 0.077816844
v 1.5400987 3.9835477 0.7756537
v 4.6930323 1.4130113 -0.02022919
v 4.7169547 1.3984553 0.06248407
v 3.1165657 2.846377 0.19996494
v -0.036368236 3.8962426 0.9005393
v 1.5400987 2.7813935 0.48476642
v -0.036368236 2.7333372 0.6493491
v 3.1165657 1.4143933 0.047445714
v 4.6930323 -0.025835961 -0.08173913
v 4.7169557 -0.04767078 0.0055284947
v 3.1325142 -0.047587484 -0.0015415573
v 3.1165657 -0.024253905 -0.088338554
v 1.548073 -0.043040544 -0.13531026
v 1.5400987 -0.011260331 -0.22009876
v 1.5400987 1.4183733 0.048037827
v -0.036368236 0.0011116266 -0.30009297
v -0.036368236 1.4172001 0.06958991
v -1.612835 1.4183733 0.052506447
vt 0.16907215 0.9928334
vt 0.0061065555 0.9903529
vt 0.0036082566 0.9928334
vt 0.0036082566 0.8285556
vt 0.17073771 0.9903529
vt 0.33453608 0.9928334
vt 0.0061065555 0.82690203
vt 0.0036082566 0.66427773
vt 0.3353689 0.9903529
vt 0.5 0.9928334
vt 0.0061065555 0.663451
vt 0.0036082566 0.5
vt 0.17073771 0.82690203
vt 0.5 0.9903529
vt 0.3353689 0.82690203
vt 0.17073771 0.663451
vt 0.0061065555 0.5
vt 0.0061065555 0.336549
vt 0.0036082566 0.33572215
vt 0.17073771 0.5
vt 0.3353689 0.663451
vt 0.0061065555 0.173098
vt 0.0036082566 0.17144433
vt 0.17073771 0.336509
vt 0.0061065555 0.009646922
vt 0.0036082566 0.007166505
vt 0.16907215 0.007176012
vt 0.17073771 0.17291793
vt 0.17073771 0.009489596
vt 0.33453608 0.0076925457
vt 0.3353689 0.4997263
vt 0.5 0.82690203
vt 0.3353689 0.33480933
vt 0.3353689 0.1714262
vt 0.3353689 0.009021908
vt 0.5 0.663451
vt 0.5 0.49883455
vt 0.5 0.009131908
vt 0.5 0.00847885
vt 0.6654639 0.0076925457
vt 0.5 0.16999751
vt 0.5 0.33229852
vt 0.66463125 0.009021908
vt 0.66463125 0.1714262
vt 0.8292624 0.009489596
vt 0.83092785 0.007176012
vt 0.66463125 0.33465874
vt 0.8292624 0.17291793
vt 0.9938935 0.009646922
vt 0.99639183 0.007166505
vt 0.99639165 0.17144433
vt 0.9938935 0.173098
vt 0.99639165 0.33572215
vt 0.66463125 0.49964446
vt 0.8292624 0.336509
vt 0.9938935 0.336549
vt 0.99639165 0.5
vt 0.66463125 0.663451
vt 0.8292624 0.5
vt 0.9938935 0.5
vt 0.66463125 0.82690203
vt 0.8292624 0.663451
vt 0.9938935 0.663451
vt 0.99639165 0.66427773
vt 0.66463125 0.9903529
vt 0.6654639 0.9928334
vt 0.8292624 0.82690203
vt 0.9938935 0.82690203
vt 0.99639165 0.8285556
vt 0.8292624 0.9903529
vt 0.83092785 0.9928334
vt 0.9938935 0.9903529
vt 0.99639183 0.9928334
vt 0.16907215 0.007176012
vt 0.0061065555 0.009646922
vt 0.0036082566 0.007166505
vt 0.0036082566 0.17144433
vt 0.17073771 0.00982666
vt 0.33453608 0.0076925457
vt 0.0061065555 0.17309785
vt 0.0036082566 0.33572215
vt 0.3353689 0.011302739
vt 0.5 0.00847885
vt 0.17073771 0.17325494
vt 0.0061065555 0.33654886
vt 0.17073771 0.33658534
vt 0.0061065555 0.49999994
vt 0.0036082566 0.5
vt 0.17073771 0.49999994
vt 0.0061065555 0.66345084
vt 0.0036082566 0.66427773
vt 0.17073771 0.66345084
vt 0.0061065555 0.82690203
vt 0.0036082566 0.8285556
vt 0.17073771 0.82690203
vt 0.0061065555 0.9903529
vt 0.0036082566 0.9928334
vt 0.16907215 0.9928334
vt 0.17073771 0.9903529
vt 0.33453608 0.9928334
vt 0.3353689 0.9903529
vt 0.3353689 0.82690203
vt 0.5 0.9903529
vt 0.5 0.9928334
vt 0.3353689 0.66345084
vt 0.66463125 0.9903529
vt 0.6654639 0.9928334
vt 0.5 0.82690203
vt 0.3353689 0.49989745
vt 0.8292624 0.9903529
vt 0.83092785 0.9928334
vt 0.66463125 0.82690203
vt 0.5 0.66345084
vt 0.3353689 0.33627665
vt 0.9938935 0.9903529
vt 0.99639183 0.9928334
vt 0.99639165 0.8285556
vt 0.9938935 0.82690203
vt 0.99639165 0.66427773
vt 0.8292624 0.82690203
vt 0.9938935 0.66345084
vt 0.99639165 0.5
vt 0.8292624 0.66345084
vt 0.9938935 0.49999994
vt 0.99639165 0.33572215
vt 0.66463125 0.66345084
vt 0.8292624 0.49999994
vt 0.9938935 0.33654886
vt 0.66463125 0.49981013
vt 0.9938935 0.17309785
vt 0.99639165 0.17144433
vt 0.8292624 0.33658534
vt 0.5 0.4993331
vt 0.66463125 0.33612546
vt 0.5 0.33476692
vt 0.8292624 0.17325494
vt 0.9938935 0.009646922
vt 0.99639183 0.007166505
vt 0.83092785 0.007176012
vt 0.8292624 0.00982666
vt 0.6654639 0.0076925457
vt 0.66463125 0.011302739
vt 0.66463125 0.17370704
vt 0.5 0.012708098
vt 0.5 0.17357373
vt 0.3353689 0.17370704
vn 0.18380034 0.98296356 0.00020544878
vn -0.12993279 0.09767327 0.9867003
vn -0.5984296 0.80111015 -0.010226814
vn -0.99999225 -0.0001300397 -0.003929324
vn -0.06887163 0.083425835 0.99413115
vn 0.14506361 0.9894084 0.0052539236
vn -0.14217371 0.0480805 0.9886734
vn -0.99999905 0.0001254432 0.0013651802
vn -0.076212116 0.09247706 0.9927939
vn -0.00045202224 0.99997306 0.0073225712
vn -0.17362697 0.06481268 0.9826765
vn -0.9999839 -8.0838574E-05 0.005678374
vn -0.09174251 0.07364354 0.9930559
vn -0.041968286 0.102033556 0.99389523
vn -0.08919973 0.119478576 0.9888216
vn -0.13060556 0.09460606 0.9869103
vn -0.18485148 -0.011340704 0.982701
vn -0.15041474 -0.07232089 0.98597413
vn -0.9999981 -0.00016531123 0.0019346189
vn -0.16573347 -0.017994428 0.9860064
vn -0.12794363 0.15545876 0.9795218
vn -0.10150124 -0.061828848 0.99291223
vn -0.99999154 0.000245841 -0.0041103
vn -0.12925002 -0.11654559 0.9847393
vn -0.080996856 -0.10673493 0.99098295
vn -0.6803345 -0.7328799 -0.005665862
vn -0.0004549748 -0.99958926 -0.028655335
vn -0.046886846 -0.11249364 0.99254566
vn -0.00027892843 -0.14159924 0.98992413
vn -0.0029398145 -0.9945973 -0.103766575
vn -0.17297909 -0.026972948 0.9845561
vn -0.04395205 0.14560422 0.9883662
vn -0.13361342 -0.21658595 0.967077
vn -0.03518389 -0.22191697 0.9744306
vn 0.020510817 -0.23004326 0.9729643
vn -0.04332786 0.18629038 0.98153883
vn -0.030539503 -0.044329252 0.99855
vn 0.0023138914 -0.2759978 0.96115553
vn -0.00046830124 -0.98812103 -0.15367696
vn 0.0032577878 -0.994437 -0.10528282
vn 0.00011984951 -0.2827339 0.95919836
vn -0.010777802 -0.28415218 0.95871866
vn -0.03040975 -0.23730046 0.97096026
vn 0.02279593 -0.22929893 0.9730891
vn -0.01182328 -0.16207385 0.9867078
vn 0.0006893918 -0.99962866 -0.02724074
vn 0.11820972 -0.2418961 0.9630746
vn 0.032581016 -0.12509526 0.99160963
vn 0.083720595 -0.13574187 0.9872006
vn 0.6801237 -0.73303485 -0.009580386
vn 0.99999785 0.00020337329 -0.002100852
vn 0.09805572 -0.076889604 0.99220616
vn 0.9999981 -0.00018985939 0.0019882636
vn 0.1463186 -0.064503275 0.9871323
vn 0.1215844 -0.13637836 0.98316735
vn 0.14530386 -0.08275192 0.98592025
vn 0.9999814 -0.0002502576 0.006107245
vn 0.08264474 0.13966557 0.9867438
vn 0.17641792 -0.055580646 0.9827449
vn 0.20132896 -0.0380082 0.978786
vn 0.03238418 0.12668234 0.9914146
vn 0.15255761 0.07470606 0.98546696
vn 0.22873066 0.05302104 0.9720448
vn 0.99999225 0.00042938866 0.0039233067
vn 0.020871826 0.111953676 0.9934942
vn -0.14525668 0.9893757 0.0060148044
vn 0.11729663 0.08690423 0.98928714
vn 0.22103588 0.06409925 0.9731569
vn 0.99998677 -0.00025325804 -0.0051325015
vn 0.10200581 0.10759676 0.98894775
vn -0.18295553 0.9830998 0.0064710304
vn 0.21181458 0.12351895 0.9694728
vn 0.5931702 0.80464673 -0.026319992
vn -0.0004549748 -0.99958926 -0.028655335
vn -0.043760456 -0.031463116 -0.9985464
vn -0.6803345 -0.7328799 -0.005665862
vn -0.99999154 0.000245841 -0.0041103
vn 0.00017602404 0.020878384 -0.999782
vn -0.0029398145 -0.9945973 -0.103766575
vn -0.009599333 0.062136784 -0.9980215
vn -0.9999981 -0.00016531123 0.0019346189
vn -0.020734798 0.112568945 -0.99342763
vn -0.00046830124 -0.98812103 -0.15367696
vn 0.046525005 0.11256735 -0.99255437
vn 0.03712594 0.071444355 -0.9967534
vn 0.12892501 0.11485129 -0.98498094
vn 0.061582766 0.003032968 -0.99809736
vn -0.9999839 -8.0838574E-05 0.005678374
vn 0.16461423 0.008930405 -0.98631763
vn 0.048254784 -0.062498283 -0.9968779
vn -0.99999905 0.0001254432 0.0013651802
vn 0.13049158 -0.0924598 -0.98712873
vn 0.027078362 -0.04155234 -0.99876934
vn -0.99999225 -0.0001300397 -0.003929324
vn 0.092334 -0.06550645 -0.99357104
vn 0.016884899 0.060503148 -0.9980252
vn -0.5984296 0.80111015 -0.010226814
vn 0.18380034 0.98296356 0.00020544878
vn 0.09203362 0.038350973 -0.9950171
vn 0.14506361 0.9894084 0.0052539236
vn 0.09267864 0.023797644 -0.9954117
vn 0.093782894 -0.11427331 -0.98901284
vn 0.0423651 0.010825842 -0.9990435
vn -0.00045202224 0.99997306 0.0073225712
vn 0.13553931 -0.15525788 -0.9785316
vn -0.037154626 0.003713578 -0.9993026
vn -0.14525668 0.9893757 0.0060148044
vn 0.043407746 -0.1439085 -0.98863846
vn 0.1771061 0.021050194 -0.98396665
vn -0.12552084 0.012666171 -0.9920101
vn -0.18295553 0.9830998 0.0064710304
vn -0.04284163 -0.114432625 -0.9925068
vn 0.042072978 -0.18627669 -0.98159605
vn 0.13460527 0.21581556 -0.9671117
vn -0.10276785 0.03174574 -0.9941987
vn 0.5931702 0.80464673 -0.026319992
vn 0.99998677 -0.00025325804 -0.0051325015
vn -0.10333868 -0.049429365 -0.99341726
vn 0.99999225 0.00042938866 0.0039233067
vn -0.118606955 -0.067970924 -0.9906121
vn -0.08869719 -0.0464405 -0.99497545
vn 0.9999814 -0.0002502576 0.006107245
vn -0.1523675 -0.06935577 -0.98588735
vn -0.06480798 0.018964007 -0.9977175
vn 0.9999981 -0.00018985939 0.0019882636
vn -0.10056568 -0.13900453 -0.98517215
vn -0.17360668 0.034690075 -0.9842039
vn -0.030005716 0.07950051 -0.9963831
vn -0.15580286 0.05162383 -0.9864383
vn 0.012698214 0.077308185 -0.99692637
vn 0.99999785 0.00020337329 -0.002100852
vn -0.12095851 0.13204378 -0.9838361
vn 0.029946877 0.041004818 -0.99871004
vn -0.12004332 0.23977259 -0.9633787
vn 0.010832289 0.28424892 -0.9586893
vn -0.032270715 0.1252015 -0.99160635
vn 0.04060713 -0.0014912199 -0.99917406
vn 0.6801237 -0.73303485 -0.009580386
vn 0.0006893918 -0.99962866 -0.02724074
vn 0.012001346 0.04249868 -0.9990244
vn 0.0032577878 -0.994437 -0.10528282
vn 0.030996727 0.12042857 -0.992238
vn -0.022796549 0.23016725 -0.97288406
vn -0.0022359472 0.16061668 -0.9870143
vn 2.3508152E-05 0.28454947 -0.9586614
vn 0.035367236 0.22281119 -0.97421986
g fishingNet_energy_0
f 3/3/3 2/2/2 1/1/1
f 2/2/2 3/3/3 4/4/4
f 5/5/5 1/1/1 2/2/2
f 1/1/1 5/5/5 6/6/6
f 4/4/4 7/7/7 2/2/2
f 2/2/2 7/7/7 5/5/5
f 7/7/7 4/4/4 8/8/8
f 9/9/9 6/6/6 5/5/5
f 6/6/6 9/9/9 10/10/10
f 8/8/8 11/11/11 7/7/7
f 11/11/11 8/8/8 12/12/12
f 7/7/7 13/13/13 5/5/5
f 5/5/5 13/13/13 9/9/9
f 7/7/7 11/11/11 13/13/13
f 14/14/14 10/10/10 9/9/9
f 13/13/13 15/15/15 9/9/9
f 9/9/9 15/15/15 14/14/14
f 11/11/11 16/16/16 13/13/13
f 13/13/13 16/16/16 15/15/15
f 12/12/12 17/17/17 11/11/11
f 11/11/11 17/17/17 16/16/16
f 18/18/18 17/17/17 12/12/12
f 12/12/12 19/19/19 18/18/18
f 17/17/17 20/20/20 16/16/16
f 17/17/17 18/18/18 20/20/20
f 16/16/16 21/21/21 15/15/15
f 16/16/16 20/20/20 21/21/21
f 22/22/22 18/18/18 19/19/19
f 19/19/19 23/23/23 22/22/22
f 18/18/18 24/24/24 20/20/20
f 18/18/18 22/22/22 24/24/24
f 25/25/25 22/22/22 23/23/23
f 23/23/23 26/26/26 25/25/25
f 25/25/25 26/26/26 27/27/27
f 22/22/22 25/25/25 28/28/28
f 22/22/22 28/28/28 24/24/24
f 27/27/27 29/29/29 25/25/25
f 25/25/25 29/29/29 28/28/28
f 29/29/29 27/27/27 30/30/30
f 20/20/20 24/24/24 31/31/31
f 20/20/20 31/31/31 21/21/21
f 15/15/15 21/21/21 32/32/32
f 15/15/15 32/32/32 14/14/14
f 24/24/24 28/28/28 33/33/33
f 24/24/24 33/33/33 31/31/31
f 28/28/28 29/29/29 34/34/34
f 28/28/28 34/34/34 33/33/33
f 30/30/30 35/35/35 29/29/29
f 29/29/29 35/35/35 34/34/34
f 21/21/21 31/31/31 36/36/36
f 21/21/21 36/36/36 32/32/32
f 31/31/31 33/33/33 37/37/37
f 31/31/31 37/37/37 36/36/36
f 35/35/35 30/30/30 38/38/38
f 30/30/30 39/39/39 38/38/38
f 38/38/38 39/39/39 40/40/40
f 34/34/34 35/35/35 41/41/41
f 35/35/35 38/38/38 41/41/41
f 33/33/33 34/34/34 42/42/42
f 33/33/33 42/42/42 37/37/37
f 34/34/34 41/41/41 42/42/42
f 40/40/40 43/43/43 38/38/38
f 41/41/41 38/38/38 43/43/43
f 42/42/42 41/41/41 44/44/44
f 43/43/43 44/44/44 41/41/41
f 43/43/43 40/40/40 45/45/45
f 44/44/44 43/43/43 45/45/45
f 40/40/40 46/46/46 45/45/45
f 37/37/37 42/42/42 47/47/47
f 44/44/44 47/47/47 42/42/42
f 45/45/45 48/48/48 44/44/44
f 47/47/47 44/44/44 48/48/48
f 45/45/45 46/46/46 49/49/49
f 48/48/48 45/45/45 49/49/49
f 50/50/50 49/49/49 46/46/46
f 51/51/51 49/49/49 50/50/50
f 49/49/49 51/51/51 52/52/52
f 49/49/49 52/52/52 48/48/48
f 53/53/53 52/52/52 51/51/51
f 47/47/47 54/54/54 37/37/37
f 36/36/36 37/37/37 54/54/54
f 48/48/48 55/55/55 47/47/47
f 55/55/55 48/48/48 52/52/52
f 54/54/54 47/47/47 55/55/55
f 52/52/52 53/53/53 56/56/56
f 52/52/52 56/56/56 55/55/55
f 57/57/57 56/56/56 53/53/53
f 54/54/54 58/58/58 36/36/36
f 32/32/32 36/36/36 58/58/58
f 55/55/55 59/59/59 54/54/54
f 59/59/59 55/55/55 56/56/56
f 58/58/58 54/54/54 59/59/59
f 56/56/56 57/57/57 60/60/60
f 56/56/56 60/60/60 59/59/59
f 58/58/58 61/61/61 32/32/32
f 14/14/14 32/32/32 61/61/61
f 59/59/59 62/62/62 58/58/58
f 62/62/62 59/59/59 60/60/60
f 61/61/61 58/58/58 62/62/62
f 63/63/63 60/60/60 57/57/57
f 60/60/60 63/63/63 62/62/62
f 57/57/57 64/64/64 63/63/63
f 61/61/61 65/65/65 14/14/14
f 10/10/10 14/14/14 65/65/65
f 65/65/65 66/66/66 10/10/10
f 62/62/62 67/67/67 61/61/61
f 67/67/67 62/62/62 63/63/63
f 65/65/65 61/61/61 67/67/67
f 68/68/68 63/63/63 64/64/64
f 63/63/63 68/68/68 67/67/67
f 64/64/64 69/69/69 68/68/68
f 66/66/66 65/65/65 70/70/70
f 67/67/67 70/70/70 65/65/65
f 70/70/70 67/67/67 68/68/68
f 70/70/70 71/71/71 66/66/66
f 72/72/72 68/68/68 69/69/69
f 68/68/68 72/72/72 70/70/70
f 71/71/71 70/70/70 72/72/72
f 69/69/69 73/73/73 72/72/72
f 72/72/72 73/73/73 71/71/71
f 76/76/76 75/75/75 74/74/74
f 75/75/75 76/76/76 77/77/77
f 75/75/75 78/78/78 74/74/74
f 74/74/74 78/78/78 79/79/79
f 77/77/77 80/80/80 75/75/75
f 75/75/75 80/80/80 78/78/78
f 80/80/80 77/77/77 81/81/81
f 78/78/78 82/82/82 79/79/79
f 79/79/79 82/82/82 83/83/83
f 80/80/80 84/84/84 78/78/78
f 78/78/78 84/84/84 82/82/82
f 81/81/81 85/85/85 80/80/80
f 86/86/86 84/84/84 80/80/80
f 80/80/80 85/85/85 86/86/86
f 87/87/87 85/85/85 81/81/81
f 81/81/81 88/88/88 87/87/87
f 89/89/89 86/86/86 85/85/85
f 85/85/85 87/87/87 89/89/89
f 90/90/90 87/87/87 88/88/88
f 88/88/88 91/91/91 90/90/90
f 92/92/92 89/89/89 87/87/87
f 87/87/87 90/90/90 92/92/92
f 93/93/93 90/90/90 91/91/91
f 91/91/91 94/94/94 93/93/93
f 95/95/95 92/92/92 90/90/90
f 90/90/90 93/93/93 95/95/95
f 96/96/96 93/93/93 94/94/94
f 94/94/94 97/97/97 96/96/96
f 96/96/96 97/97/97 98/98/98
f 93/93/93 96/96/96 99/99/99
f 98/98/98 99/99/99 96/96/96
f 99/99/99 95/95/95 93/93/93
f 99/99/99 98/98/98 100/100/100
f 95/95/95 99/99/99 101/101/101
f 100/100/100 101/101/101 99/99/99
f 92/92/92 95/95/95 102/102/102
f 101/101/101 102/102/102 95/95/95
f 101/101/101 100/100/100 103/103/103
f 102/102/102 101/101/101 103/103/103
f 104/104/104 103/103/103 100/100/100
f 102/102/102 105/105/105 92/92/92
f 89/89/89 92/92/92 105/105/105
f 106/106/106 103/103/103 104/104/104
f 104/104/104 107/107/107 106/106/106
f 103/103/103 108/108/108 102/102/102
f 105/105/105 102/102/102 108/108/108
f 105/105/105 109/109/109 89/89/89
f 86/86/86 89/89/89 109/109/109
f 110/110/110 106/106/106 107/107/107
f 107/107/107 111/111/111 110/110/110
f 103/103/103 106/106/106 112/112/112
f 108/108/108 103/103/103 112/112/112
f 108/108/108 113/113/113 105/105/105
f 109/109/109 105/105/105 113/113/113
f 109/109/109 114/114/114 86/86/86
f 84/84/84 86/86/86 114/114/114
f 115/115/115 110/110/110 111/111/111
f 111/111/111 116/116/116 115/115/115
f 117/117/117 115/115/115 116/116/116
f 115/115/115 117/117/117 118/118/118
f 110/110/110 115/115/115 118/118/118
f 119/119/119 118/118/118 117/117/117
f 120/120/120 110/110/110 118/118/118
f 106/106/106 110/110/110 120/120/120
f 112/112/112 106/106/106 120/120/120
f 118/118/118 119/119/119 121/121/121
f 120/120/120 118/118/118 121/121/121
f 122/122/122 121/121/121 119/119/119
f 112/112/112 120/120/120 123/123/123
f 123/123/123 120/120/120 121/121/121
f 121/121/121 122/122/122 124/124/124
f 123/123/123 121/121/121 124/124/124
f 125/125/125 124/124/124 122/122/122
f 126/126/126 112/112/112 123/123/123
f 108/108/108 112/112/112 126/126/126
f 113/113/113 108/108/108 126/126/126
f 127/127/127 123/123/123 124/124/124
f 126/126/126 123/123/123 127/127/127
f 124/124/124 125/125/125 128/128/128
f 127/127/127 124/124/124 128/128/128
f 113/113/113 126/126/126 129/129/129
f 129/129/129 126/126/126 127/127/127
f 130/130/130 128/128/128 125/125/125
f 125/125/125 131/131/131 130/130/130
f 132/132/132 127/127/127 128/128/128
f 129/129/129 127/127/127 132/132/132
f 132/132/132 128/128/128 130/130/130
f 133/133/133 113/113/113 129/129/129
f 113/113/113 133/133/133 109/109/109
f 114/114/114 109/109/109 133/133/133
f 134/134/134 129/129/129 132/132/132
f 133/133/133 129/129/129 134/134/134
f 133/133/133 135/135/135 114/114/114
f 135/135/135 133/133/133 134/134/134
f 134/134/134 132/132/132 136/136/136
f 136/136/136 132/132/132 130/130/130
f 137/137/137 130/130/130 131/131/131
f 131/131/131 138/138/138 137/137/137
f 137/137/137 138/138/138 139/139/139
f 130/130/130 137/137/137 140/140/140
f 139/139/139 140/140/140 137/137/137
f 140/140/140 136/136/136 130/130/130
f 140/140/140 139/139/139 141/141/141
f 141/141/141 142/142/142 140/140/140
f 136/136/136 140/140/140 142/142/142
f 142/142/142 141/141/141 83/83/83
f 143/143/143 134/134/134 136/136/136
f 142/142/142 143/143/143 136/136/136
f 135/135/135 134/134/134 143/143/143
f 83/83/83 144/144/144 142/142/142
f 143/143/143 142/142/142 144/144/144
f 82/82/82 144/144/144 83/83/83
f 145/145/145 135/135/135 143/143/143
f 144/144/144 145/145/145 143/143/143
f 82/82/82 146/146/146 144/144/144
f 146/146/146 145/145/145 144/144/144
f 135/135/135 145/145/145 146/146/146
f 84/84/84 146/146/146 82/82/82
f 146/146/146 114/114/114 135/135/135
f 114/114/114 146/146/146 84/84/84
