g flask_in
v 0.0772517 0.03167885 -0.13380386
v -0 0.00094624754 0
v 0.13380386 0.03167885 -0.0772517
v 0.14274251 0.119198 -0.24723725
v -0 0.119198 -0.28548503
v -0 0.03167885 -0.1545034
v -0 0.00094624754 0
v -0 0.25017962 -0.37300417
v 0.18650208 0.25017962 -0.32303107
v -0 0.40468302 -0.40373677
v 0.24723725 0.119198 -0.14274251
v 0.20186839 0.40468302 -0.3496463
v -0 0.5591864 -0.37300417
v 0.1545034 0.03167885 0
v -0 0.00094624754 0
v 0.32303107 0.25017962 -0.18650208
v 0.18650208 0.5591864 -0.32303107
v -0 0.6901681 -0.28548503
v 0.28548503 0.119198 0
v 0.3496463 0.40468302 -0.20186839
v 0.14274251 0.6901681 -0.24723725
v -0 0.7776872 -0.1545034
v 0.13380386 0.03167885 0.0772517
v -0 0.00094624754 0
v 0.37300417 0.25017962 0
v 0.32303107 0.5591864 -0.18650208
v 0.0772517 0.7776872 -0.13380386
v -0 0.793208 -0.14059667
v 0.24723725 0.119198 0.14274251
v 0.40373677 0.40468302 0
v 0.24723725 0.6901681 -0.14274251
v 0.07029834 0.793208 -0.1217603
v -0 0.85517156 -0.14059667
v 0.07029834 0.85517156 -0.1217603
v 0.13380386 0.7776872 -0.0772517
v 0.1217603 0.793208 -0.07029834
v 0.1217603 0.85517156 -0.07029834
v 0.37300417 0.5591864 0
v 0.32303107 0.25017962 0.18650208
v 0.28548503 0.6901681 0
v 0.1545034 0.7776872 0
v 0.14059667 0.793208 0
v 0.14059667 0.85517156 0
v 0.3496463 0.40468302 0.20186839
v 0.32303107 0.5591864 0.18650208
v 0.24723725 0.6901681 0.14274251
v 0.13380386 0.7776872 0.0772517
v 0.1217603 0.793208 0.07029834
v 0.1217603 0.85517156 0.07029834
v 0.07029834 0.793208 0.1217603
v 0.07029834 0.85517156 0.1217603
v 0.0772517 0.7776872 0.13380386
v 0.14274251 0.6901681 0.24723725
v 0.18650208 0.5591864 0.32303107
v 0.20186839 0.40468302 0.3496463
v -0 0.793208 0.14059667
v -0 0.85517156 0.14059667
v -0 0.7776872 0.1545034
v -0 0.6901681 0.28548503
v -0 0.5591864 0.37300417
v -0.07029834 0.793208 0.1217603
v -0.07029834 0.85517156 0.1217603
v -0.0772517 0.7776872 0.13380386
v -0.14274251 0.6901681 0.24723725
v -0.1217603 0.793208 0.07029834
v -0.1217603 0.85517156 0.07029834
v -0.13380386 0.7776872 0.0772517
v -0.14059667 0.793208 0
v -0.14059667 0.85517156 0
v -0 0.40468302 0.40373677
v -0.18650208 0.5591864 0.32303107
v -0.24723725 0.6901681 0.14274251
v -0.1545034 0.7776872 0
v -0.1217603 0.793208 -0.07029834
v -0.1217603 0.85517156 -0.07029834
v -0.20186839 0.40468302 0.3496463
v -0.32303107 0.5591864 0.18650208
v -0.28548503 0.6901681 0
v -0.13380386 0.7776872 -0.0772517
v -0.07029834 0.793208 -0.1217603
v -0.07029834 0.85517156 -0.1217603
v -0 0.793208 -0.14059667
v -0 0.85517156 -0.14059667
v -0 0.7776872 -0.1545034
v -0.0772517 0.7776872 -0.13380386
v -0 0.6901681 -0.28548503
v -0.14274251 0.6901681 -0.24723725
v -0 0.5591864 -0.37300417
v -0.24723725 0.6901681 -0.14274251
v -0.18650208 0.5591864 -0.32303107
v -0 0.40468302 -0.40373677
v -0.32303107 0.5591864 -0.18650208
v -0.20186839 0.40468302 -0.3496463
v -0 0.25017962 -0.37300417
v -0.37300417 0.5591864 0
v -0.18650208 0.25017962 -0.32303107
v -0 0.119198 -0.28548503
v -0.3496463 0.40468302 -0.20186839
v -0.40373677 0.40468302 0
v -0.14274251 0.119198 -0.24723725
v -0 0.03167885 -0.1545034
v -0.32303107 0.25017962 -0.18650208
v -0.3496463 0.40468302 0.20186839
v -0.0772517 0.03167885 -0.13380386
v -0 0.00094624754 0
v -0.24723725 0.119198 -0.14274251
v -0.37300417 0.25017962 0
v -0.32303107 0.25017962 0.18650208
v -0.13380386 0.03167885 -0.0772517
v -0 0.00094624754 0
v -0.28548503 0.119198 0
v -0.18650208 0.25017962 0.32303107
v -0.1545034 0.03167885 0
v -0 0.00094624754 0
v -0.24723725 0.119198 0.14274251
v -0 0.25017962 0.37300417
v -0.13380386 0.03167885 0.0772517
v -0 0.00094624754 0
v -0.14274251 0.119198 0.24723725
v 0.18650208 0.25017962 0.32303107
v -0.0772517 0.03167885 0.13380386
v -0 0.00094624754 0
v -0 0.119198 0.28548503
v 0.14274251 0.119198 0.24723725
v -0 0.03167885 0.1545034
v -0 0.00094624754 0
v 0.0772517 0.03167885 0.13380386
v -0 0.00094624754 0
v -0 0.00094624754 0
vt 0.08334935 0.102162726
vt 0.50003195 0.013602234
vt 0.16668272 0.102162726
vt 0.08334935 0.19137786
vt 1.5974045E-05 0.19137786
vt 1.5974045E-05 0.102162726
vt 0.50003195 0.013602234
vt 1.5974045E-05 0.28185755
vt 0.08334935 0.28185755
vt 1.5974045E-05 0.3741063
vt 0.16668272 0.19137786
vt 0.08334935 0.3741063
vt 1.5974045E-05 0.4684364
vt 0.25001603 0.102162726
vt 0.50003195 0.013602234
vt 0.16668272 0.28185755
vt 0.08334935 0.4684364
vt 1.5974045E-05 0.56486374
vt 0.25001603 0.19137786
vt 0.16668272 0.3741063
vt 0.08334935 0.5648638
vt 1.5974045E-05 0.6630236
vt 0.33334935 0.102162726
vt 0.50003195 0.013602234
vt 0.25001603 0.28185755
vt 0.16668272 0.4684364
vt 0.08334935 0.6630236
vt 1.5974045E-05 0.6745946
vt 0.33334935 0.19137786
vt 0.25001603 0.3741063
vt 0.16668272 0.5648638
vt 0.08334935 0.6745946
vt 1.5974045E-05 0.6863978
vt 0.08334935 0.6863978
vt 0.16668272 0.6630236
vt 0.16668272 0.6745946
vt 0.16668272 0.6863978
vt 0.25001603 0.4684364
vt 0.33334935 0.28185755
vt 0.25001603 0.56486374
vt 0.25001603 0.6630236
vt 0.25001603 0.6745946
vt 0.25001603 0.6863978
vt 0.33334935 0.3741063
vt 0.33334935 0.4684364
vt 0.33334935 0.5648638
vt 0.33334935 0.6630236
vt 0.33334935 0.6745946
vt 0.33334935 0.6863978
vt 0.41668272 0.6745946
vt 0.41668272 0.6863978
vt 0.41668272 0.6630236
vt 0.41668272 0.5648638
vt 0.41668272 0.4684364
vt 0.41668272 0.3741063
vt 0.50001603 0.6745946
vt 0.50001603 0.6863978
vt 0.50001603 0.6630236
vt 0.50001603 0.56486374
vt 0.50001603 0.4684364
vt 0.58334935 0.6745946
vt 0.58334935 0.6863978
vt 0.58334935 0.6630236
vt 0.58334935 0.5648638
vt 0.6666827 0.6745946
vt 0.6666827 0.6863978
vt 0.6666827 0.6630236
vt 0.75001603 0.6745946
vt 0.75001603 0.6863978
vt 0.50001603 0.3741063
vt 0.58334935 0.4684364
vt 0.6666827 0.5648638
vt 0.75001603 0.6630236
vt 0.83334935 0.6745946
vt 0.83334935 0.6863978
vt 0.58334935 0.3741063
vt 0.6666827 0.4684364
vt 0.75001603 0.56486374
vt 0.83334935 0.6630236
vt 0.9166827 0.6745946
vt 0.9166827 0.6863978
vt 1.000016 0.6745946
vt 1.000016 0.6863978
vt 1.000016 0.6630236
vt 0.9166827 0.6630236
vt 1.000016 0.56486374
vt 0.9166827 0.5648638
vt 1.000016 0.4684364
vt 0.83334935 0.5648638
vt 0.9166827 0.4684364
vt 1.000016 0.3741063
vt 0.83334935 0.4684364
vt 0.9166827 0.3741063
vt 1.000016 0.28185755
vt 0.75001603 0.4684364
vt 0.9166827 0.28185755
vt 1.000016 0.19137786
vt 0.83334935 0.3741063
vt 0.75001603 0.3741063
vt 0.9166827 0.19137786
vt 1.000016 0.102162726
vt 0.83334935 0.28185755
vt 0.6666827 0.3741063
vt 0.9166827 0.102162726
vt 0.50003195 0.013602234
vt 0.83334935 0.19137786
vt 0.75001603 0.28185755
vt 0.6666827 0.28185755
vt 0.83334935 0.102162726
vt 0.50003195 0.013602234
vt 0.75001603 0.19137786
vt 0.58334935 0.28185755
vt 0.75001603 0.102162726
vt 0.50003195 0.013602234
vt 0.6666827 0.19137786
vt 0.50001603 0.28185755
vt 0.6666827 0.102162726
vt 0.50003195 0.013602234
vt 0.58334935 0.19137786
vt 0.41668272 0.28185755
vt 0.58334935 0.102162726
vt 0.50003195 0.013602234
vt 0.50001603 0.19137786
vt 0.41668272 0.19137786
vt 0.50001603 0.102162726
vt 0.50003195 0.013602234
vt 0.41668272 0.102162726
vt 0.50003195 0.013602234
vt 0.50003195 0.013602234
vn 0.243851 -0.8730103 -0.42236224
vn -0 -1 0
vn 0.42236224 -0.8730103 -0.24385102
vn 0.37460098 -0.66234183 -0.64882785
vn -0 -0.6623417 -0.7492019
vn -0 -0.8730103 -0.48770195
vn -0 -1 0
vn -0 -0.35578787 -0.9345668
vn 0.4672834 -0.35578784 -0.80935854
vn -0 0 -1
vn 0.6488278 -0.66234183 -0.37460098
vn 0.5 0 -0.86602545
vn -0 0.3557877 -0.9345668
vn 0.48770195 -0.8730103 0
vn -0 -1 0
vn 0.80935854 -0.35578787 -0.4672834
vn 0.4672833 0.35578772 -0.8093586
vn -0 0.66234154 -0.749202
vn 0.7492019 -0.6623417 0
vn 0.86602545 0 -0.49999997
vn 0.37460095 0.66234154 -0.64882797
vn -0 0.82239085 -0.56892294
vn 0.42236224 -0.8730103 0.243851
vn -0 -1 0
vn 0.9345667 -0.35578796 0
vn 0.8093585 0.35578784 -0.46728343
vn 0.2844616 0.8223907 -0.4927019
vn -0 0.19843362 -0.9801144
vn 0.64882785 -0.66234183 0.37460098
vn 1 0 0
vn 0.64882785 0.66234165 -0.37460107
vn 0.49005696 0.19843346 -0.8488041
vn -0 0 -1
vn 0.49999997 0 -0.86602545
vn 0.49270186 0.8223907 -0.2844615
vn 0.8488039 0.19843353 -0.49005735
vn 0.86602545 0 -0.4999999
vn 0.9345668 0.3557879 0
vn 0.80935854 -0.35578796 0.46728337
vn 0.749202 0.66234154 0
vn 0.56892306 0.8223908 0
vn 0.9801143 0.19843377 0
vn 1 0 0
vn 0.86602545 0 0.49999997
vn 0.80935854 0.35578784 0.4672834
vn 0.6488279 0.6623416 0.37460104
vn 0.49270186 0.8223908 0.2844616
vn 0.84880394 0.19843371 0.4900571
vn 0.86602545 0 0.4999999
vn 0.49005702 0.19843358 0.84880394
vn 0.49999997 0 0.86602545
vn 0.28446156 0.8223907 0.4927019
vn 0.37460095 0.66234154 0.64882797
vn 0.46728337 0.35578778 0.80935854
vn 0.49999997 0 0.86602545
vn -0 0.19843362 0.9801144
vn -0 0 1
vn -0 0.82239085 0.56892294
vn -0 0.66234154 0.749202
vn -0 0.3557877 0.9345668
vn -0.49005696 0.19843346 0.8488041
vn -0.49999997 0 0.86602545
vn -0.2844616 0.8223907 0.4927019
vn -0.37460095 0.66234154 0.64882797
vn -0.8488039 0.19843353 0.49005735
vn -0.86602545 0 0.4999999
vn -0.49270186 0.8223907 0.2844615
vn -0.9801143 0.19843377 0
vn -1 0 0
vn -0 0 1
vn -0.4672833 0.35578772 0.8093586
vn -0.64882785 0.66234165 0.37460107
vn -0.56892306 0.8223908 0
vn -0.84880394 0.19843371 -0.4900571
vn -0.86602545 0 -0.4999999
vn -0.5 0 0.86602545
vn -0.80935854 0.35578787 0.4672834
vn -0.749202 0.66234154 0
vn -0.49270186 0.8223908 -0.2844616
vn -0.49005702 0.19843358 -0.84880394
vn -0.49999997 0 -0.86602545
vn -0 0.19843362 -0.9801144
vn -0 0 -1
vn -0 0.82239085 -0.56892294
vn -0.28446156 0.8223907 -0.4927019
vn -0 0.66234154 -0.749202
vn -0.37460095 0.66234154 -0.64882797
vn -0 0.3557877 -0.9345668
vn -0.6488279 0.6623416 -0.37460104
vn -0.46728337 0.35578778 -0.80935854
vn -0 0 -1
vn -0.80935854 0.35578784 -0.4672834
vn -0.49999997 0 -0.86602545
vn -0 -0.35578787 -0.9345668
vn -0.9345668 0.3557879 0
vn -0.4672834 -0.35578787 -0.80935854
vn -0 -0.6623417 -0.7492019
vn -0.86602545 0 -0.49999997
vn -1 0 0
vn -0.37460098 -0.66234183 -0.64882785
vn -0 -0.8730103 -0.48770195
vn -0.80935854 -0.35578796 -0.46728337
vn -0.86602545 0 0.49999997
vn -0.243851 -0.8730103 -0.42236224
vn -0 -1 0
vn -0.64882785 -0.66234183 -0.37460098
vn -0.9345667 -0.35578796 0
vn -0.8093585 -0.3557879 0.46728337
vn -0.42236224 -0.8730103 -0.243851
vn -0 -1 0
vn -0.7492019 -0.6623417 0
vn -0.4672834 -0.35578784 0.80935854
vn -0.48770195 -0.8730103 0
vn -0 -1 0
vn -0.6488278 -0.6623417 0.37460095
vn -0 -0.35578787 0.9345668
vn -0.4223622 -0.8730103 0.243851
vn -0 -1 0
vn -0.37460098 -0.66234183 0.64882785
vn 0.4672834 -0.35578787 0.80935854
vn -0.243851 -0.8730103 0.42236224
vn -0 -1 0
vn -0 -0.6623417 0.7492019
vn 0.37460098 -0.66234183 0.64882785
vn -0 -0.8730103 0.48770195
vn -0 -1 0
vn 0.243851 -0.8730103 0.42236224
vn -0 -1 0
vn -0 -1 0
g flask_in_0
f 3/3/3 2/2/2 1/1/1
f 1/1/1 4/4/4 3/3/3
f 5/5/5 4/4/4 1/1/1
f 6/6/6 5/5/5 1/1/1
f 1/1/1 7/7/7 6/6/6
f 5/5/5 8/8/8 4/4/4
f 8/8/8 9/9/9 4/4/4
f 8/8/8 10/10/10 9/9/9
f 4/4/4 11/11/11 3/3/3
f 4/4/4 9/9/9 11/11/11
f 10/10/10 12/12/12 9/9/9
f 10/10/10 13/13/13 12/12/12
f 3/3/3 11/11/11 14/14/14
f 14/14/14 15/15/15 3/3/3
f 9/9/9 16/16/16 11/11/11
f 9/9/9 12/12/12 16/16/16
f 13/13/13 17/17/17 12/12/12
f 13/13/13 18/18/18 17/17/17
f 11/11/11 19/19/19 14/14/14
f 11/11/11 16/16/16 19/19/19
f 12/12/12 20/20/20 16/16/16
f 12/12/12 17/17/17 20/20/20
f 18/18/18 21/21/21 17/17/17
f 18/18/18 22/22/22 21/21/21
f 14/14/14 19/19/19 23/23/23
f 23/23/23 24/24/24 14/14/14
f 16/16/16 25/25/25 19/19/19
f 16/16/16 20/20/20 25/25/25
f 17/17/17 26/26/26 20/20/20
f 17/17/17 21/21/21 26/26/26
f 22/22/22 27/27/27 21/21/21
f 22/22/22 28/28/28 27/27/27
f 19/19/19 29/29/29 23/23/23
f 19/19/19 25/25/25 29/29/29
f 20/20/20 30/30/30 25/25/25
f 20/20/20 26/26/26 30/30/30
f 21/21/21 31/31/31 26/26/26
f 21/21/21 27/27/27 31/31/31
f 28/28/28 32/32/32 27/27/27
f 28/28/28 33/33/33 32/32/32
f 33/33/33 34/34/34 32/32/32
f 27/27/27 32/32/32 35/35/35
f 27/27/27 35/35/35 31/31/31
f 32/32/32 34/34/34 36/36/36
f 32/32/32 36/36/36 35/35/35
f 34/34/34 37/37/37 36/36/36
f 26/26/26 31/31/31 38/38/38
f 26/26/26 38/38/38 30/30/30
f 25/25/25 30/30/30 39/39/39
f 25/25/25 39/39/39 29/29/29
f 31/31/31 35/35/35 40/40/40
f 31/31/31 40/40/40 38/38/38
f 35/35/35 36/36/36 41/41/41
f 35/35/35 41/41/41 40/40/40
f 36/36/36 37/37/37 42/42/42
f 36/36/36 42/42/42 41/41/41
f 37/37/37 43/43/43 42/42/42
f 30/30/30 38/38/38 44/44/44
f 30/30/30 44/44/44 39/39/39
f 38/38/38 40/40/40 45/45/45
f 38/38/38 45/45/45 44/44/44
f 40/40/40 41/41/41 46/46/46
f 40/40/40 46/46/46 45/45/45
f 41/41/41 42/42/42 47/47/47
f 41/41/41 47/47/47 46/46/46
f 42/42/42 43/43/43 48/48/48
f 42/42/42 48/48/48 47/47/47
f 43/43/43 49/49/49 48/48/48
f 48/48/48 49/49/49 50/50/50
f 49/49/49 51/51/51 50/50/50
f 47/47/47 48/48/48 52/52/52
f 48/48/48 50/50/50 52/52/52
f 46/46/46 47/47/47 53/53/53
f 47/47/47 52/52/52 53/53/53
f 45/45/45 46/46/46 54/54/54
f 46/46/46 53/53/53 54/54/54
f 44/44/44 45/45/45 55/55/55
f 45/45/45 54/54/54 55/55/55
f 50/50/50 51/51/51 56/56/56
f 51/51/51 57/57/57 56/56/56
f 52/52/52 50/50/50 58/58/58
f 50/50/50 56/56/56 58/58/58
f 53/53/53 52/52/52 59/59/59
f 52/52/52 58/58/58 59/59/59
f 54/54/54 53/53/53 60/60/60
f 53/53/53 59/59/59 60/60/60
f 56/56/56 57/57/57 61/61/61
f 57/57/57 62/62/62 61/61/61
f 58/58/58 56/56/56 63/63/63
f 56/56/56 61/61/61 63/63/63
f 59/59/59 58/58/58 64/64/64
f 58/58/58 63/63/63 64/64/64
f 61/61/61 62/62/62 65/65/65
f 62/62/62 66/66/66 65/65/65
f 63/63/63 61/61/61 67/67/67
f 61/61/61 65/65/65 67/67/67
f 65/65/65 66/66/66 68/68/68
f 66/66/66 69/69/69 68/68/68
f 54/54/54 60/60/60 70/70/70
f 55/55/55 54/54/54 70/70/70
f 60/60/60 59/59/59 71/71/71
f 59/59/59 64/64/64 71/71/71
f 64/64/64 63/63/63 72/72/72
f 63/63/63 67/67/67 72/72/72
f 67/67/67 65/65/65 73/73/73
f 65/65/65 68/68/68 73/73/73
f 68/68/68 69/69/69 74/74/74
f 69/69/69 75/75/75 74/74/74
f 70/70/70 60/60/60 76/76/76
f 60/60/60 71/71/71 76/76/76
f 71/71/71 64/64/64 77/77/77
f 64/64/64 72/72/72 77/77/77
f 72/72/72 67/67/67 78/78/78
f 67/67/67 73/73/73 78/78/78
f 73/73/73 68/68/68 79/79/79
f 68/68/68 74/74/74 79/79/79
f 74/74/74 75/75/75 80/80/80
f 75/75/75 81/81/81 80/80/80
f 80/80/80 81/81/81 82/82/82
f 81/81/81 83/83/83 82/82/82
f 80/80/80 82/82/82 84/84/84
f 74/74/74 80/80/80 85/85/85
f 85/85/85 80/80/80 84/84/84
f 79/79/79 74/74/74 85/85/85
f 85/85/85 84/84/84 86/86/86
f 87/87/87 85/85/85 86/86/86
f 79/79/79 85/85/85 87/87/87
f 87/87/87 86/86/86 88/88/88
f 73/73/73 79/79/79 89/89/89
f 89/89/89 79/79/79 87/87/87
f 78/78/78 73/73/73 89/89/89
f 90/90/90 87/87/87 88/88/88
f 89/89/89 87/87/87 90/90/90
f 90/90/90 88/88/88 91/91/91
f 78/78/78 89/89/89 92/92/92
f 92/92/92 89/89/89 90/90/90
f 93/93/93 90/90/90 91/91/91
f 92/92/92 90/90/90 93/93/93
f 93/93/93 91/91/91 94/94/94
f 95/95/95 78/78/78 92/92/92
f 72/72/72 78/78/78 95/95/95
f 77/77/77 72/72/72 95/95/95
f 96/96/96 93/93/93 94/94/94
f 96/96/96 94/94/94 97/97/97
f 98/98/98 92/92/92 93/93/93
f 95/95/95 92/92/92 98/98/98
f 98/98/98 93/93/93 96/96/96
f 77/77/77 95/95/95 99/99/99
f 99/99/99 95/95/95 98/98/98
f 100/100/100 96/96/96 97/97/97
f 100/100/100 97/97/97 101/101/101
f 102/102/102 98/98/98 96/96/96
f 99/99/99 98/98/98 102/102/102
f 102/102/102 96/96/96 100/100/100
f 103/103/103 77/77/77 99/99/99
f 71/71/71 77/77/77 103/103/103
f 76/76/76 71/71/71 103/103/103
f 104/104/104 100/100/100 101/101/101
f 101/101/101 105/105/105 104/104/104
f 106/106/106 102/102/102 100/100/100
f 106/106/106 100/100/100 104/104/104
f 107/107/107 99/99/99 102/102/102
f 103/103/103 99/99/99 107/107/107
f 107/107/107 102/102/102 106/106/106
f 76/76/76 103/103/103 108/108/108
f 108/108/108 103/103/103 107/107/107
f 109/109/109 106/106/106 104/104/104
f 104/104/104 110/110/110 109/109/109
f 111/111/111 107/107/107 106/106/106
f 111/111/111 106/106/106 109/109/109
f 108/108/108 107/107/107 111/111/111
f 112/112/112 76/76/76 108/108/108
f 70/70/70 76/76/76 112/112/112
f 113/113/113 111/111/111 109/109/109
f 109/109/109 114/114/114 113/113/113
f 115/115/115 108/108/108 111/111/111
f 115/115/115 111/111/111 113/113/113
f 112/112/112 108/108/108 115/115/115
f 116/116/116 70/70/70 112/112/112
f 55/55/55 70/70/70 116/116/116
f 117/117/117 115/115/115 113/113/113
f 113/113/113 118/118/118 117/117/117
f 119/119/119 112/112/112 115/115/115
f 119/119/119 115/115/115 117/117/117
f 116/116/116 112/112/112 119/119/119
f 120/120/120 55/55/55 116/116/116
f 44/44/44 55/55/55 120/120/120
f 39/39/39 44/44/44 120/120/120
f 121/121/121 119/119/119 117/117/117
f 117/117/117 122/122/122 121/121/121
f 123/123/123 116/116/116 119/119/119
f 120/120/120 116/116/116 123/123/123
f 123/123/123 119/119/119 121/121/121
f 39/39/39 120/120/120 124/124/124
f 124/124/124 120/120/120 123/123/123
f 29/29/29 39/39/39 124/124/124
f 125/125/125 123/123/123 121/121/121
f 124/124/124 123/123/123 125/125/125
f 121/121/121 126/126/126 125/125/125
f 29/29/29 124/124/124 127/127/127
f 127/127/127 124/124/124 125/125/125
f 125/125/125 128/128/128 127/127/127
f 23/23/23 29/29/29 127/127/127
f 127/127/127 129/129/129 23/23/23
