g floor_x4_z4_A
v -2 0 4
v -0 4.440892E-16 2
v -0 0 4
v -2 4.440892E-16 2
v -4 0 4
v -0 8.881784E-16 0
v -4 4.440892E-16 2
v -2 8.881784E-16 0
v -4 8.881784E-16 0
vt 0.75 0.5
vt 1 0.75
vt 1 0.5
vt 0.75 0.75
vt 0.5 0.5
vt 1 1
vt 0.5 0.75
vt 0.75 1
vt 0.5 1
vn -0 1 0
vn -0 1 0
vn -0 1 0
vn -0 1 0
vn -0 1 0
vn -0 1 0
vn -0 1 0
vn -0 1 0
vn -0 1 0
g floor_x4_z4_A_0
f 3/3/3 2/2/2 1/1/1
f 2/2/2 4/4/4 1/1/1
f 1/1/1 4/4/4 5/5/5
f 2/2/2 6/6/6 4/4/4
f 4/4/4 7/7/7 5/5/5
f 6/6/6 8/8/8 4/4/4
f 4/4/4 8/8/8 7/7/7
f 8/8/8 9/9/9 7/7/7
