g floor_grate
v -1.1190423 -0.015857672 -3.4311416
v -1.0751587 -0.037018746 -3.5239704
v -0.63251245 -0.037018746 -3.5239704
v -0.63251245 -0.015857672 -3.4311416
v -1.0751587 -0.037018746 -3.3477902
v -0.63251245 -0.037018746 -3.3477902
v -1.1190423 -0.015857672 -3.8096898
v -1.0751587 -0.037018746 -3.9025183
v -0.63251245 -0.037018746 -3.902518
v -0.63251245 -0.015857672 -3.8096898
v -1.0751587 -0.037018746 -3.726338
v -0.63251245 -0.037018746 -3.726338
v -1.1190423 -0.015857672 -4.2097826
v -1.0751587 -0.037018746 -4.302611
v -0.63251233 -0.037018746 -4.302611
v -0.63251233 -0.015857672 -4.2097826
v -1.0751587 -0.037018746 -4.12643
v -0.63251233 -0.037018746 -4.12643
v -1.1190423 -0.015857672 -4.5883307
v -1.0751587 -0.037018746 -4.681159
v -0.6325123 -0.037018746 -4.681159
v -0.6325123 -0.015857672 -4.5883307
v -1.0751587 -0.037018746 -4.5049787
v -0.63251233 -0.037018746 -4.5049787
v -1.1190423 -0.015857672 -1.8950942
v -1.0751587 -0.037018746 -1.9879216
v -0.63251257 -0.037018746 -1.9879216
v -0.63251257 -0.015857672 -1.8950942
v -1.0751587 -0.037018746 -1.8117425
v -0.63251257 -0.037018746 -1.8117425
v -1.1190423 -0.015857672 -2.2736425
v -1.0751587 -0.037018746 -2.3664699
v -0.63251257 -0.037018746 -2.3664696
v -0.6325125 -0.015857672 -2.2736423
v -1.0751587 -0.037018746 -2.190291
v -0.63251257 -0.037018746 -2.1902907
v -1.1190423 -0.015857672 -2.673735
v -1.0751587 -0.037018746 -2.7665625
v -0.6325125 -0.037018746 -2.7665625
v -0.6325125 -0.015857672 -2.673735
v -1.0751587 -0.037018746 -2.5903835
v -0.6325125 -0.037018746 -2.5903835
v -1.1190423 -0.015857672 -3.0522833
v -1.0751587 -0.037018746 -3.1451106
v -0.63251245 -0.037018746 -3.1451104
v -0.63251245 -0.015857672 -3.0522833
v -1.0751587 -0.037018746 -2.968932
v -0.63251245 -0.037018746 -2.968932
v -1.1190423 -0.015857672 -1.1595893
v -1.0751587 -0.037018746 -1.2524167
v -0.6325126 -0.037018746 -1.2524168
v -0.6325126 -0.015857672 -1.1595894
v -1.0751587 -0.037018746 -1.0762377
v -0.6325126 -0.037018746 -1.0762378
v -1.1190423 -0.015857672 -1.5381364
v -1.0751587 -0.037018746 -1.6309652
v -0.63251257 -0.037018746 -1.6309649
v -0.6325126 -0.015857672 -1.5381362
v -1.0751587 -0.037018746 -1.4547849
v -0.63251257 -0.037018746 -1.4547846
v -1.1190423 -0.015857672 -0.38094845
v -1.0751587 -0.037018746 -0.47377586
v -0.6325126 -0.037018746 -0.47377592
v -0.63251275 -0.015857672 -0.3809485
v -1.0751587 -0.037018746 -0.29759684
v -0.63251275 -0.037018746 -0.29759687
v -1.1190423 -0.015857672 -0.75949556
v -1.0751587 -0.037018746 -0.8523242
v -0.63251275 -0.037018746 -0.8523241
v -0.6325126 -0.015857672 -0.75949544
v -1.0751587 -0.037018746 -0.6761439
v -0.6325126 -0.037018746 -0.67614377
v -1.0571777 -0.03826659 -0.16617012
v -0.18747193 -0.03826659 -0.16617012
v -0.12805359 9.536743E-09 -0.11801826
v -1.1165961 9.536743E-09 -0.11801826
v -0.12805359 9.536743E-09 -0.11801826
v -0.18747193 -0.03826659 -0.16617012
v -0.18747193 -0.03826659 -4.819517
v -0.12805359 9.536743E-09 -4.867669
v -1.0571777 -0.03826659 -4.819517
v -1.1165961 9.536743E-09 -4.867669
v -0.12805359 9.536743E-09 -4.867669
v -0.18747193 -0.03826659 -4.819517
v -1.1165961 9.536743E-09 -4.867669
v -1.0571777 -0.03826659 -4.819517
v -1.0571777 -0.03826659 -0.16617012
v -1.1165961 9.536743E-09 -0.11801826
v -0.7756552 -0.19980693 -0.16617012
v -0.47296628 -0.19980693 -0.16617012
v -0.18747193 -0.03826659 -0.16617012
v -1.0571777 -0.03826659 -0.16617012
v -0.18747193 -0.03826659 -0.16617012
v -0.47296628 -0.19980693 -4.819517
v -0.18747193 -0.03826659 -4.819517
v -0.47296628 -0.19980693 -0.16617012
v -0.7756552 -0.19980693 -4.819517
v -0.7756552 -0.19980693 -0.16617012
v -1.0571777 -0.03826659 -4.819517
v -1.0571777 -0.03826659 -0.16617012
v -0.7756552 -0.19980693 -4.819517
v -1.0571777 -0.03826659 -4.819517
v -0.18747193 -0.03826659 -4.819517
v -0.47296628 -0.19980693 -4.819517
v -0.63251245 -0.037018746 -3.5239704
v -0.16949096 -0.037018746 -3.5239704
v -0.12560791 -0.015857672 -3.4311416
v -0.63251245 -0.015857672 -3.4311416
v -0.16949096 -0.037018746 -3.3477902
v -0.63251245 -0.037018746 -3.3477902
v -0.63251245 -0.037018746 -3.902518
v -0.16949096 -0.037018746 -3.9025176
v -0.12560791 -0.015857672 -3.8096895
v -0.63251245 -0.015857672 -3.8096898
v -0.16949096 -0.037018746 -3.7263374
v -0.63251245 -0.037018746 -3.726338
v -0.63251233 -0.037018746 -4.302611
v -0.16949096 -0.037018746 -4.302611
v -0.12560791 -0.015857672 -4.2097826
v -0.63251233 -0.015857672 -4.2097826
v -0.16949096 -0.037018746 -4.12643
v -0.63251233 -0.037018746 -4.12643
v -0.6325123 -0.037018746 -4.681159
v -0.16949096 -0.037018746 -4.6811585
v -0.12560791 -0.015857672 -4.5883307
v -0.6325123 -0.015857672 -4.5883307
v -0.16949096 -0.037018746 -4.504978
v -0.63251233 -0.037018746 -4.5049787
v -0.63251257 -0.037018746 -1.9879216
v -0.16949096 -0.037018746 -1.9879216
v -0.12560791 -0.015857672 -1.8950942
v -0.63251257 -0.015857672 -1.8950942
v -0.16949096 -0.037018746 -1.8117425
v -0.63251257 -0.037018746 -1.8117425
v -0.63251257 -0.037018746 -2.3664696
v -0.16949096 -0.037018746 -2.3664696
v -0.12560791 -0.015857672 -2.273642
v -0.6325125 -0.015857672 -2.2736423
v -0.16949096 -0.037018746 -2.1902905
v -0.63251257 -0.037018746 -2.1902907
v -0.6325125 -0.037018746 -2.7665625
v -0.16949096 -0.037018746 -2.7665625
v -0.12560791 -0.015857672 -2.673735
v -0.6325125 -0.015857672 -2.673735
v -0.16949096 -0.037018746 -2.5903835
v -0.6325125 -0.037018746 -2.5903835
v -0.63251245 -0.037018746 -3.1451104
v -0.16949096 -0.037018746 -3.1451104
v -0.12560791 -0.015857672 -3.052283
v -0.63251245 -0.015857672 -3.0522833
v -0.16949096 -0.037018746 -2.9689314
v -0.63251245 -0.037018746 -2.968932
v -0.6325126 -0.037018746 -1.2524168
v -0.16949096 -0.037018746 -1.2524168
v -0.12560791 -0.015857672 -1.1595895
v -0.6325126 -0.015857672 -1.1595894
v -0.16949096 -0.037018746 -1.0762378
v -0.6325126 -0.037018746 -1.0762378
v -0.63251257 -0.037018746 -1.6309649
v -0.16949096 -0.037018746 -1.6309648
v -0.12560791 -0.015857672 -1.5381361
v -0.6325126 -0.015857672 -1.5381362
v -0.16949096 -0.037018746 -1.4547845
v -0.63251257 -0.037018746 -1.4547846
v -0.6325126 -0.037018746 -0.47377592
v -0.16949096 -0.037018746 -0.473776
v -0.12560791 -0.015857672 -0.3809486
v -0.63251275 -0.015857672 -0.3809485
v -0.16949096 -0.037018746 -0.297597
v -0.63251275 -0.037018746 -0.29759687
v -0.63251275 -0.037018746 -0.8523241
v -0.16949096 -0.037018746 -0.85232407
v -0.12560791 -0.015857672 -0.7594953
v -0.6325126 -0.015857672 -0.75949544
v -0.16949096 -0.037018746 -0.6761437
v -0.6325126 -0.037018746 -0.67614377
v -1.1165961 9.536743E-09 -0.11801826
v -0 -1.110223E-16 0
v -1.2450079 -1.110223E-16 0
v -1.2450079 1.110223E-16 -5
v -0.12805359 9.536743E-09 -0.11801826
v -1.1165961 9.536743E-09 -4.867669
v -0.12805359 9.536743E-09 -4.867669
v -0 1.110223E-16 -5
vt 0.78096145 0.40635085
vt 0.7754389 0.40640217
vt 0.7754389 0.43412402
vt 0.78096145 0.43412402
vt 0.7859202 0.40640217
vt 0.7859202 0.43412402
vt 0.75844073 0.40635085
vt 0.75291824 0.40640217
vt 0.75291824 0.43412402
vt 0.75844073 0.43412402
vt 0.7633996 0.40640217
vt 0.7633996 0.43412402
vt 0.73463833 0.40635085
vt 0.7291158 0.40640217
vt 0.7291158 0.43412402
vt 0.73463833 0.43412402
vt 0.7395972 0.40640217
vt 0.7395972 0.43412402
vt 0.7121177 0.40635085
vt 0.70659506 0.40640217
vt 0.7065951 0.43412402
vt 0.7121177 0.43412402
vt 0.7170765 0.40640217
vt 0.7170765 0.43412402
vt 0.8723443 0.40635085
vt 0.8668218 0.40640217
vt 0.8668218 0.43412402
vt 0.8723443 0.43412402
vt 0.87730306 0.40640217
vt 0.87730306 0.43412402
vt 0.84982365 0.40635085
vt 0.84430116 0.40640217
vt 0.84430116 0.43412402
vt 0.84982365 0.43412402
vt 0.8547824 0.40640217
vt 0.8547825 0.43412402
vt 0.82602125 0.40635085
vt 0.82049876 0.40640217
vt 0.82049876 0.43412402
vt 0.82602125 0.43412402
vt 0.83098006 0.40640217
vt 0.83098006 0.43412402
vt 0.8035006 0.40635085
vt 0.79797804 0.40640217
vt 0.79797804 0.43412402
vt 0.8035006 0.43412402
vt 0.80845934 0.40640217
vt 0.80845934 0.43412402
vt 0.91610116 0.40635085
vt 0.91057867 0.40640217
vt 0.91057867 0.43412402
vt 0.91610116 0.43412402
vt 0.92106 0.40640217
vt 0.92106 0.43412402
vt 0.8935806 0.40635085
vt 0.888058 0.40640217
vt 0.888058 0.43412402
vt 0.89358056 0.43412402
vt 0.89853936 0.40640217
vt 0.89853936 0.43412402
vt 0.96242434 0.40635085
vt 0.95690185 0.40640217
vt 0.95690185 0.43412402
vt 0.96242434 0.43412402
vt 0.9673831 0.40640217
vt 0.9673831 0.43412402
vt 0.9399037 0.40635085
vt 0.93438107 0.40640217
vt 0.93438107 0.43412402
vt 0.9399037 0.43412402
vt 0.9448624 0.40640217
vt 0.9448624 0.43412402
vt 0.670889 0.44593686
vt 0.6708889 0.3941961
vt 0.6737536 0.39066112
vt 0.6737536 0.44947177
vt 0.6737536 0.39066112
vt 0.6708889 0.3941961
vt 0.39405087 0.39419606
vt 0.3911862 0.3906611
vt 0.3940509 0.44593674
vt 0.3911862 0.4494717
vt 0.3911862 0.3906611
vt 0.39405087 0.39419606
vt 0.3911862 0.4494717
vt 0.3940509 0.44593674
vt 0.670889 0.44593686
vt 0.6737536 0.44947177
vt 0.6708889 0.42918843
vt 0.6708889 0.4111808
vt 0.6708889 0.3941961
vt 0.670889 0.44593686
vt 0.6708889 0.3941961
vt 0.39405087 0.4111808
vt 0.39405087 0.39419606
vt 0.6708889 0.4111808
vt 0.39405087 0.42918837
vt 0.6708889 0.42918843
vt 0.3940509 0.44593674
vt 0.670889 0.44593686
vt 0.39405087 0.42918837
vt 0.3940509 0.44593674
vt 0.39405087 0.39419606
vt 0.39405087 0.4111808
vt 0.7754389 0.43412402
vt 0.7754389 0.40640682
vt 0.78096145 0.4063555
vt 0.78096145 0.43412402
vt 0.7859202 0.40640682
vt 0.7859202 0.43412402
vt 0.75291824 0.43412402
vt 0.75291824 0.40640682
vt 0.75844073 0.4063555
vt 0.75844073 0.43412402
vt 0.7633996 0.40640682
vt 0.7633996 0.43412402
vt 0.7291158 0.43412402
vt 0.7291158 0.40640682
vt 0.73463833 0.4063555
vt 0.73463833 0.43412402
vt 0.7395972 0.40640682
vt 0.7395972 0.43412402
vt 0.7065951 0.43412402
vt 0.7065951 0.40640682
vt 0.7121177 0.4063555
vt 0.7121177 0.43412402
vt 0.71707654 0.40640682
vt 0.7170765 0.43412402
vt 0.8668218 0.43412402
vt 0.8668218 0.40640682
vt 0.8723443 0.4063555
vt 0.8723443 0.43412402
vt 0.87730306 0.40640682
vt 0.87730306 0.43412402
vt 0.84430116 0.43412402
vt 0.8443012 0.40640682
vt 0.8498237 0.4063555
vt 0.84982365 0.43412402
vt 0.8547825 0.40640682
vt 0.8547825 0.43412402
vt 0.82049876 0.43412402
vt 0.82049876 0.40640682
vt 0.82602125 0.4063555
vt 0.82602125 0.43412402
vt 0.83098006 0.40640682
vt 0.83098006 0.43412402
vt 0.79797804 0.43412402
vt 0.79797804 0.40640682
vt 0.8035006 0.4063555
vt 0.8035006 0.43412402
vt 0.80845934 0.40640682
vt 0.80845934 0.43412402
vt 0.91057867 0.43412402
vt 0.91057867 0.40640682
vt 0.91610116 0.4063555
vt 0.91610116 0.43412402
vt 0.92106 0.40640682
vt 0.92106 0.43412402
vt 0.888058 0.43412402
vt 0.888058 0.40640682
vt 0.89358056 0.4063555
vt 0.89358056 0.43412402
vt 0.8985394 0.40640682
vt 0.89853936 0.43412402
vt 0.95690185 0.43412402
vt 0.9569018 0.40640682
vt 0.96242434 0.4063555
vt 0.96242434 0.43412402
vt 0.9673831 0.40640682
vt 0.9673831 0.43412402
vt 0.93438107 0.43412402
vt 0.9343811 0.40640682
vt 0.9399037 0.4063555
vt 0.9399037 0.43412402
vt 0.9448625 0.40640682
vt 0.9448624 0.43412402
vt 0.6737536 0.44947177
vt 0.6807748 0.38304293
vt 0.6807748 0.45711124
vt 0.38331354 0.45711124
vt 0.6737536 0.39066112
vt 0.3911862 0.4494717
vt 0.3911862 0.3906611
vt 0.38331354 0.38304287
vn -0 0.9999908 -0.004285526
vn -0 0.97498816 -0.22225673
vn -0 0.97498816 -0.22225676
vn -0 1 0
vn -0 0.9692517 0.24607147
vn -0 0.9692517 0.24607144
vn -0 0.9999908 -0.0042850534
vn -0 0.9749879 -0.22225776
vn 1.3502405E-07 0.9749879 -0.22225794
vn -0 1 0
vn -0 0.96925217 0.24606977
vn -0 0.96925217 0.24606971
vn -0 0.9999908 -0.004284783
vn -0 0.9749878 -0.22225809
vn -0 0.9749878 -0.22225809
vn -0 1 0
vn -0 0.9692524 0.24606885
vn -0 0.9692523 0.24606885
vn -0 0.9999908 -0.0042849323
vn -0 0.9749879 -0.22225775
vn -0 0.9749879 -0.22225778
vn -0 1 0
vn -0 0.96925217 0.24606931
vn -0 0.96925217 0.24606934
vn -0 0.9999908 -0.0042849714
vn -0 0.9749875 -0.2222595
vn -0 0.9749875 -0.2222595
vn -0 1 0
vn -0 0.9692518 0.24607101
vn -0 0.9692518 0.24607098
vn -0 0.9999908 -0.0042850976
vn 1.379859E-07 0.9749875 -0.2222595
vn 1.0126881E-07 0.9749875 -0.22225949
vn -0 1 0
vn -1.52769E-07 0.9692517 0.24607125
vn -1.4949092E-07 0.9692517 0.24607119
vn -0 0.9999908 -0.004285026
vn -0 0.9749875 -0.2222595
vn -0 0.9749875 -0.2222595
vn -0 1 0
vn -0 0.9692517 0.24607144
vn -0 0.9692517 0.24607138
vn -0 0.9999908 -0.0042850534
vn -0 0.9749875 -0.22225988
vn -0 0.9749875 -0.2222599
vn -0 1 0
vn -0 0.9692517 0.24607147
vn -0 0.9692517 0.24607141
vn -0 0.9999908 -0.004284905
vn -0 0.9749875 -0.22225945
vn -0 0.9749875 -0.22225946
vn -0 1 0
vn -0 0.9692518 0.24607104
vn -0 0.9692518 0.24607095
vn -0 0.9999908 -0.004285528
vn -0 0.97498816 -0.22225656
vn -0 0.97498816 -0.22225663
vn -0 1 0
vn -0 0.9692518 0.24607107
vn -0 0.9692518 0.24607101
vn -0 0.9999908 -0.004284873
vn -0 0.9749875 -0.22225963
vn -0 0.9749875 -0.22225958
vn -0 1 0
vn -0 0.9692518 0.2460709
vn -0 0.9692518 0.24607094
vn -0 0.9999908 -0.0042853956
vn -0 0.97498816 -0.22225675
vn -0 0.97498816 -0.2222567
vn -0 1 0
vn -0 0.9692518 0.24607079
vn -0 0.9692518 0.24607088
vn -0 0.7828862 -0.6221649
vn -0 0.7828862 -0.6221649
vn -0 0.78288615 -0.6221649
vn -0 0.78288615 -0.6221649
vn -0.5414493 0.84073347 0
vn -0.54144925 0.84073347 0
vn -0.54144925 0.84073347 0
vn -0.5414493 0.84073347 0
vn -0 0.7828862 0.6221649
vn -0 0.78288615 0.6221649
vn -0 0.78288615 0.6221649
vn -0 0.7828862 0.6221649
vn 0.541449 0.8407335 0
vn 0.541449 0.8407335 0
vn 0.541449 0.8407335 0
vn 0.541449 0.8407335 0
vn -0 0 -1
vn -0 0 -1
vn -0 0 -1
vn -0 0 -1
vn -0.4924591 0.87033564 0
vn -0.26483625 0.96429336 0
vn -0.4924591 0.87033564 0
vn -0.26483625 0.96429336 0
vn 0.26650935 0.9638324 0
vn 0.26650935 0.9638324 0
vn 0.4976951 0.8673521 0
vn 0.4976951 0.8673521 0
vn -0 0 1
vn -0 0 1
vn -0 0 1
vn -0 0 1
vn -0 0.97498816 -0.22225676
vn -0 0.97498816 -0.22225673
vn -0 0.9999908 -0.0042854315
vn -0 1 0
vn -0 0.9692517 0.24607141
vn -0 0.9692517 0.24607144
vn 1.3502405E-07 0.9749879 -0.22225794
vn 2.6437564E-07 0.9749878 -0.22225814
vn -0 0.9999908 -0.0042847535
vn -0 1 0
vn -1.463497E-07 0.96925217 0.24606974
vn -0 0.96925217 0.24606971
vn -0 0.9749878 -0.22225809
vn -0 0.9749878 -0.22225814
vn -0 0.9999908 -0.0042847204
vn -0 1 0
vn -0 0.9692523 0.24606891
vn -0 0.9692523 0.24606885
vn -0 0.9749879 -0.22225778
vn -0 0.9749879 -0.22225781
vn -0 0.9999908 -0.004284697
vn -0 1 0
vn -0 0.96925217 0.24606928
vn -0 0.96925217 0.24606934
vn -0 0.9749875 -0.2222595
vn -0 0.9749875 -0.22225949
vn -0 0.9999908 -0.0042848745
vn -0 1 0
vn -0 0.9692518 0.24607095
vn -0 0.9692518 0.24607098
vn 1.0126881E-07 0.9749875 -0.22225949
vn -0 0.9749875 -0.22225949
vn -0 0.9999908 -0.004284804
vn -0 1 0
vn -1.4635056E-07 0.9692518 0.24607119
vn -1.4949092E-07 0.9692517 0.24607119
vn -0 0.9749875 -0.2222595
vn -0 0.9749875 -0.22225949
vn -0 0.9999908 -0.004284967
vn -0 1 0
vn -0 0.9692517 0.24607141
vn -0 0.9692517 0.24607138
vn -0 0.9749875 -0.2222599
vn -0 0.9749875 -0.22225988
vn -0 0.9999908 -0.004284828
vn -0 1 0
vn -1.463507E-07 0.9692517 0.24607138
vn -0 0.9692517 0.24607141
vn -0 0.9749875 -0.22225946
vn -0 0.9749875 -0.22225949
vn -0 0.9999908 -0.0042848643
vn -0 1 0
vn -0 0.9692518 0.2460709
vn -0 0.9692518 0.24607095
vn -0 0.97498816 -0.22225663
vn -0 0.97498816 -0.22225676
vn -0 0.9999908 -0.0042853043
vn -0 1 0
vn -1.4635042E-07 0.9692518 0.24607095
vn -0 0.9692518 0.24607101
vn -0 0.9749875 -0.22225958
vn -0 0.9749875 -0.2222596
vn -0 0.9999908 -0.004284873
vn -0 1 0
vn -0 0.9692518 0.2460709
vn -0 0.9692518 0.24607094
vn -0 0.97498816 -0.2222567
vn -0 0.97498816 -0.2222567
vn -0 0.9999908 -0.0042853095
vn -0 1 0
vn -0 0.9692518 0.2460709
vn -0 0.9692518 0.24607088
vn -0 1 0
vn -0 1 0
vn -0 1 0
vn -0 1 0
vn -0 1 0
vn -0 1 0
vn -0 1 0
vn -0 1 0
g floor_grate_0
f 3/3/3 2/2/2 1/1/1
f 4/4/4 3/3/3 1/1/1
f 4/4/4 1/1/1 5/5/5
f 6/6/6 4/4/4 5/5/5
f 9/9/9 8/8/8 7/7/7
f 10/10/10 9/9/9 7/7/7
f 10/10/10 7/7/7 11/11/11
f 12/12/12 10/10/10 11/11/11
f 15/15/15 14/14/14 13/13/13
f 16/16/16 15/15/15 13/13/13
f 16/16/16 13/13/13 17/17/17
f 18/18/18 16/16/16 17/17/17
f 21/21/21 20/20/20 19/19/19
f 22/22/22 21/21/21 19/19/19
f 22/22/22 19/19/19 23/23/23
f 24/24/24 22/22/22 23/23/23
f 27/27/27 26/26/26 25/25/25
f 28/28/28 27/27/27 25/25/25
f 28/28/28 25/25/25 29/29/29
f 30/30/30 28/28/28 29/29/29
f 33/33/33 32/32/32 31/31/31
f 34/34/34 33/33/33 31/31/31
f 34/34/34 31/31/31 35/35/35
f 36/36/36 34/34/34 35/35/35
f 39/39/39 38/38/38 37/37/37
f 40/40/40 39/39/39 37/37/37
f 40/40/40 37/37/37 41/41/41
f 42/42/42 40/40/40 41/41/41
f 45/45/45 44/44/44 43/43/43
f 46/46/46 45/45/45 43/43/43
f 46/46/46 43/43/43 47/47/47
f 48/48/48 46/46/46 47/47/47
f 51/51/51 50/50/50 49/49/49
f 52/52/52 51/51/51 49/49/49
f 52/52/52 49/49/49 53/53/53
f 54/54/54 52/52/52 53/53/53
f 57/57/57 56/56/56 55/55/55
f 58/58/58 57/57/57 55/55/55
f 58/58/58 55/55/55 59/59/59
f 60/60/60 58/58/58 59/59/59
f 63/63/63 62/62/62 61/61/61
f 64/64/64 63/63/63 61/61/61
f 64/64/64 61/61/61 65/65/65
f 66/66/66 64/64/64 65/65/65
f 69/69/69 68/68/68 67/67/67
f 70/70/70 69/69/69 67/67/67
f 70/70/70 67/67/67 71/71/71
f 72/72/72 70/70/70 71/71/71
f 75/75/75 74/74/74 73/73/73
f 76/76/76 75/75/75 73/73/73
f 79/79/79 78/78/78 77/77/77
f 80/80/80 79/79/79 77/77/77
f 83/83/83 82/82/82 81/81/81
f 84/84/84 83/83/83 81/81/81
f 87/87/87 86/86/86 85/85/85
f 88/88/88 87/87/87 85/85/85
f 91/91/91 90/90/90 89/89/89
f 92/92/92 91/91/91 89/89/89
f 95/95/95 94/94/94 93/93/93
f 94/94/94 96/96/96 93/93/93
f 96/96/96 94/94/94 97/97/97
f 98/98/98 96/96/96 97/97/97
f 98/98/98 97/97/97 99/99/99
f 100/100/100 98/98/98 99/99/99
f 103/103/103 102/102/102 101/101/101
f 104/104/104 103/103/103 101/101/101
f 107/107/107 106/106/106 105/105/105
f 108/108/108 107/107/107 105/105/105
f 109/109/109 107/107/107 108/108/108
f 110/110/110 109/109/109 108/108/108
f 113/113/113 112/112/112 111/111/111
f 114/114/114 113/113/113 111/111/111
f 115/115/115 113/113/113 114/114/114
f 116/116/116 115/115/115 114/114/114
f 119/119/119 118/118/118 117/117/117
f 120/120/120 119/119/119 117/117/117
f 121/121/121 119/119/119 120/120/120
f 122/122/122 121/121/121 120/120/120
f 125/125/125 124/124/124 123/123/123
f 126/126/126 125/125/125 123/123/123
f 127/127/127 125/125/125 126/126/126
f 128/128/128 127/127/127 126/126/126
f 131/131/131 130/130/130 129/129/129
f 132/132/132 131/131/131 129/129/129
f 133/133/133 131/131/131 132/132/132
f 134/134/134 133/133/133 132/132/132
f 137/137/137 136/136/136 135/135/135
f 138/138/138 137/137/137 135/135/135
f 139/139/139 137/137/137 138/138/138
f 140/140/140 139/139/139 138/138/138
f 143/143/143 142/142/142 141/141/141
f 144/144/144 143/143/143 141/141/141
f 145/145/145 143/143/143 144/144/144
f 146/146/146 145/145/145 144/144/144
f 149/149/149 148/148/148 147/147/147
f 150/150/150 149/149/149 147/147/147
f 151/151/151 149/149/149 150/150/150
f 152/152/152 151/151/151 150/150/150
f 155/155/155 154/154/154 153/153/153
f 156/156/156 155/155/155 153/153/153
f 157/157/157 155/155/155 156/156/156
f 158/158/158 157/157/157 156/156/156
f 161/161/161 160/160/160 159/159/159
f 162/162/162 161/161/161 159/159/159
f 163/163/163 161/161/161 162/162/162
f 164/164/164 163/163/163 162/162/162
f 167/167/167 166/166/166 165/165/165
f 168/168/168 167/167/167 165/165/165
f 169/169/169 167/167/167 168/168/168
f 170/170/170 169/169/169 168/168/168
f 173/173/173 172/172/172 171/171/171
f 174/174/174 173/173/173 171/171/171
f 175/175/175 173/173/173 174/174/174
f 176/176/176 175/175/175 174/174/174
f 179/179/179 178/178/178 177/177/177
f 179/179/179 177/177/177 180/180/180
f 178/178/178 181/181/181 177/177/177
f 177/177/177 182/182/182 180/180/180
f 183/183/183 181/181/181 178/178/178
f 184/184/184 180/180/180 182/182/182
f 184/184/184 183/183/183 178/178/178
f 183/183/183 184/184/184 182/182/182
