g floor_ramp
v 5 0.25 -3.75
v -0 0.25 -5
v 5 0.24999996 -5
v -0 0.25000003 -3.75
v -0 0.01611864 -1.3685223
v 4.599321 0.01611864 -1.3685223
v -5 0.25 -3.75
v -5 0.24999996 -5
v -4.599321 0.01611864 -1.3685223
v 4.599321 0.01611864 -1.3685223
v 4.599321 0.016118659 -0.63147765
v -0 0.016118659 -0.63147765
v -0 0.01611864 -1.3685223
v -4.599321 0.01611864 -1.3685223
v -4.599321 0.016118659 -0.63147765
v 5 0.25000006 -0.63147765
v 4.943735 0.25000006 -0.63147765
v 4.943735 0.25000006 -1.3685223
v 5 0.25000006 -1.3685223
v 4.599321 0.016118659 -0.63147765
v 5 0.25 -3.75
v 4.599321 0.01611864 -1.3685223
v -5 0.25000006 -0.63147765
v -5 0.25000006 -1.3685223
v -4.943735 0.25000006 -1.3685223
v -4.943735 0.25000006 -0.63147765
v -5 0.25 -3.75
v -4.599321 0.016118659 -0.63147765
v -4.599321 0.01611864 -1.3685223
vt 0.11115411 0.9947776
vt 0.0073707104 0.57969975
vt 0.0073707104 0.99476933
vt 0.11115411 0.579708
vt 0.3089645 0.5793723
vt 0.3089645 0.9611798
vt 0.11115411 0.16463834
vt 0.0073707104 0.16463014
vt 0.3089645 0.19756466
vt 0.3089645 0.9611798
vt 0.37015888 0.9611846
vt 0.37015888 0.57937706
vt 0.3089645 0.5793723
vt 0.3089645 0.19756466
vt 0.37015888 0.19756943
vt 0.3700748 0.9947977
vt 0.3700748 0.99012685
vt 0.30888042 0.9901221
vt 0.30888042 0.9947928
vt 0.37015888 0.9611846
vt 0.11115411 0.9947776
vt 0.3089645 0.9611798
vt 0.3700748 0.16465843
vt 0.30888042 0.16465366
vt 0.30888042 0.16932455
vt 0.3700748 0.16932929
vt 0.11115411 0.16463834
vt 0.37015888 0.19756943
vt 0.3089645 0.19756466
vn -0 0.99814785 0.060834557
vn -0 1 0
vn -0 1 0
vn -0 0.9979905 0.06336409
vn -0 0.9952122 0.0977383
vn -0 0.9952122 0.09773831
vn -0 0.99814785 0.06083455
vn -0 1 0
vn -0 0.9952122 0.09773829
vn -0 1 0
vn -0 1 0
vn -0 1 0
vn -0 1 0
vn -0 1 0
vn -0 1 0
vn 1.6949808E-07 1 0
vn -0.5041154 0.86363626 0
vn -0.5049922 0.8630921 -0.0074042054
vn 2.7419338E-07 1 0
vn -0.5617837 0.8272842 0
vn -0.5532319 0.8329247 -0.013070654
vn -0.5617665 0.82725924 -0.0077836537
vn -1.6949808E-07 1 0
vn -2.7419338E-07 1 0
vn 0.5049922 0.8630921 -0.007404207
vn 0.5041154 0.86363626 0
vn 0.5532319 0.8329247 -0.013070659
vn 0.5617837 0.8272842 0
vn 0.5617665 0.82725924 -0.007783656
g floor_ramp_0
f 3/3/3 2/2/2 1/1/1
f 2/2/2 4/4/4 1/1/1
f 4/4/4 5/5/5 1/1/1
f 5/5/5 6/6/6 1/1/1
f 4/4/4 2/2/2 7/7/7
f 5/5/5 4/4/4 7/7/7
f 2/2/2 8/8/8 7/7/7
f 9/9/9 5/5/5 7/7/7
f 12/12/12 11/11/11 10/10/10
f 13/13/13 12/12/12 10/10/10
f 12/12/12 13/13/13 14/14/14
f 15/15/15 12/12/12 14/14/14
f 18/18/18 17/17/17 16/16/16
f 19/19/19 18/18/18 16/16/16
f 20/20/20 17/17/17 18/18/18
f 21/21/21 18/18/18 19/19/19
f 22/22/22 20/20/20 18/18/18
f 22/22/22 18/18/18 21/21/21
f 25/25/25 24/24/24 23/23/23
f 26/26/26 25/25/25 23/23/23
f 25/25/25 27/27/27 24/24/24
f 26/26/26 28/28/28 25/25/25
f 25/25/25 29/29/29 27/27/27
f 28/28/28 29/29/29 25/25/25
