g fountainPlatform_COL
v 5.4372125 -0.6045259 -1.7666572
v 4.267846 0.5207253 -1.3867071
v 3.6304467 0.5207253 -2.637674
v 4.6251698 -0.6045259 -3.3603816
v 2.637674 0.5207253 -3.6304462
v 3.360382 -0.6045259 -4.625169
v 1.3867067 0.5207253 -4.267846
v 1.7666574 -0.6045259 -5.437212
v -7.592753E-08 0.5207253 -4.4874773
v 6.478259E-08 -0.6045259 -5.7170224
v -1.3867068 0.5207253 -4.2678456
v -1.7666571 -0.6045259 -5.437211
v -2.6376739 0.5207253 -3.6304455
v -3.3603814 -0.6045259 -4.625168
v -3.6304452 0.5207253 -2.6376734
v -4.6251674 -0.6045259 -3.3603804
v -4.2678437 0.5207253 -1.3867065
v -5.437209 -0.6045259 -1.7666566
v -4.487477 0.5207253 -1.01236715E-07
v -5.7170215 -0.6045259 8.6376794E-08
v -4.2678437 0.5207253 1.3867065
v -5.437209 -0.6045259 1.7666571
v -3.6304448 0.5207253 2.6376727
v -4.625167 -0.6045259 3.3603804
v -2.6376734 0.5207253 3.6304445
v -3.3603804 -0.6045259 4.625167
v -1.3867065 0.5207253 4.267844
v -1.7666566 -0.6045259 5.437209
v -2.0966468E-07 0.5207253 4.487476
v -1.05597856E-07 -0.6045259 5.7170205
v 1.386706 0.5207253 4.2678437
v 1.7666562 -0.6045259 5.4372087
v 2.6376727 0.5207253 3.6304443
v 3.3603802 -0.6045259 4.625166
v 3.6304443 0.5207253 2.6376727
v 4.625166 -0.6045259 3.3603802
v 4.2678437 0.5207253 1.386706
v 5.437208 -0.6045259 1.7666564
v 4.487475 0.5207253 -1.01236715E-07
v 5.71702 -0.6045259 8.6376794E-08
v 4.267846 0.5207253 -1.3867071
v 5.4372125 -0.6045259 -1.7666572
v 4.267846 0.5207253 -1.3867071
v -7.592753E-08 0.23516907 -1.01236715E-07
v 3.6304467 0.5207253 -2.637674
v 4.487475 0.5207253 -1.01236715E-07
v 2.637674 0.5207253 -3.6304462
v 4.2678437 0.5207253 1.386706
v 1.3867067 0.5207253 -4.267846
v 3.6304443 0.5207253 2.6376727
v -7.592753E-08 0.5207253 -4.4874773
v 2.6376727 0.5207253 3.6304443
v -1.3867068 0.5207253 -4.2678456
v 1.386706 0.5207253 4.2678437
v -2.6376739 0.5207253 -3.6304455
v -2.0966468E-07 0.5207253 4.487476
v -3.6304452 0.5207253 -2.6376734
v -1.3867065 0.5207253 4.267844
v -4.2678437 0.5207253 -1.3867065
v -2.6376734 0.5207253 3.6304445
v -4.487477 0.5207253 -1.01236715E-07
v -3.6304448 0.5207253 2.6376727
v -4.2678437 0.5207253 1.3867065
vt 0.375 0.3125
vt 0.375 0.68843985
vt 0.3875 0.68843985
vt 0.3875 0.3125
vt 0.39999998 0.68843985
vt 0.39999998 0.3125
vt 0.41249996 0.68843985
vt 0.41249996 0.3125
vt 0.42499995 0.68843985
vt 0.42499995 0.3125
vt 0.43749994 0.68843985
vt 0.43749994 0.3125
vt 0.44999993 0.68843985
vt 0.44999993 0.3125
vt 0.46249992 0.68843985
vt 0.46249992 0.3125
vt 0.4749999 0.68843985
vt 0.4749999 0.3125
vt 0.4874999 0.68843985
vt 0.4874999 0.3125
vt 0.49999988 0.68843985
vt 0.49999988 0.3125
vt 0.51249987 0.68843985
vt 0.51249987 0.3125
vt 0.52499986 0.68843985
vt 0.52499986 0.3125
vt 0.53749985 0.68843985
vt 0.53749985 0.3125
vt 0.54999983 0.68843985
vt 0.54999983 0.3125
vt 0.5624998 0.68843985
vt 0.5624998 0.3125
vt 0.5749998 0.68843985
vt 0.5749998 0.3125
vt 0.5874998 0.68843985
vt 0.5874998 0.3125
vt 0.5999998 0.68843985
vt 0.5999998 0.3125
vt 0.6124998 0.68843985
vt 0.6124998 0.3125
vt 0.62499976 0.68843985
vt 0.62499976 0.3125
vt 0.6486026 0.89203393
vt 0.5 0.8375
vt 0.62640893 0.93559146
vt 0.65625 0.84375
vt 0.59184146 0.97015893
vt 0.64860266 0.79546607
vt 0.5482839 0.9923526
vt 0.626409 0.7519085
vt 0.5 1
vt 0.5918415 0.717341
vt 0.4517161 0.9923526
vt 0.54828393 0.69514734
vt 0.40815854 0.97015893
vt 0.5 0.68749994
vt 0.37359107 0.93559146
vt 0.45171607 0.69514734
vt 0.3513974 0.89203393
vt 0.4081585 0.71734107
vt 0.34374997 0.84375
vt 0.37359107 0.75190854
vt 0.3513974 0.79546607
vn 0.6420845 0.73770124 -0.2086251
vn 0.30338556 0.9477552 -0.09857557
vn 0.25807506 0.94775534 -0.18750246
vn 0.54618955 0.7377012 -0.39682984
vn 0.18750235 0.94775534 -0.258075
vn 0.39682984 0.7377012 -0.5461896
vn 0.098575816 0.94775534 -0.3033854
vn 0.20862566 0.73770106 -0.6420845
vn -0 0.94775534 -0.31899813
vn -0 0.7377011 -0.67512745
vn -0.09857592 0.94775534 -0.30338538
vn -0.20862591 0.7377011 -0.6420844
vn -0.18750262 0.9477552 -0.2580751
vn -0.3968302 0.737701 -0.54618955
vn -0.2580752 0.9477552 -0.18750243
vn -0.54618984 0.737701 -0.39682978
vn -0.30338535 0.94775534 -0.09857585
vn -0.6420845 0.73770106 -0.20862581
vn -0.3189983 0.94775534 0
vn -0.67512727 0.7377013 0
vn -0.30338535 0.94775534 0.09857586
vn -0.64208424 0.7377012 0.20862582
vn -0.25807515 0.9477552 0.1875025
vn -0.5461897 0.73770106 0.39682987
vn -0.18750249 0.9477552 0.25807512
vn -0.39682996 0.73770106 0.54618967
vn -0.09857588 0.9477552 0.30338547
vn -0.20862581 0.73770106 0.6420845
vn -0 0.94775534 0.3189983
vn 1.11918595E-07 0.7377011 0.67512745
vn 0.09857598 0.9477552 0.3033855
vn 0.208626 0.73770106 0.6420845
vn 0.18750255 0.9477552 0.25807515
vn 0.3968301 0.7377009 0.5461898
vn 0.25807515 0.9477552 0.1875025
vn 0.5461897 0.7377009 0.39683
vn 0.3033855 0.9477552 0.0985759
vn 0.6420845 0.737701 0.20862581
vn 0.31899825 0.94775534 3.582533E-07
vn 0.6751275 0.7377011 7.041545E-07
vn 0.30338556 0.9477552 -0.09857557
vn 0.6420845 0.73770124 -0.2086251
vn 0.30338556 0.9477552 -0.09857557
vn -0 1 0
vn 0.25807506 0.94775534 -0.18750246
vn 0.31899825 0.94775534 3.582533E-07
vn 0.18750235 0.94775534 -0.258075
vn 0.3033855 0.9477552 0.0985759
vn 0.098575816 0.94775534 -0.3033854
vn 0.25807515 0.9477552 0.1875025
vn -0 0.94775534 -0.31899813
vn 0.18750255 0.9477552 0.25807515
vn -0.09857592 0.94775534 -0.30338538
vn 0.09857598 0.9477552 0.3033855
vn -0.18750262 0.9477552 -0.2580751
vn -0 0.94775534 0.3189983
vn -0.2580752 0.9477552 -0.18750243
vn -0.09857588 0.9477552 0.30338547
vn -0.30338535 0.94775534 -0.09857585
vn -0.18750249 0.9477552 0.25807512
vn -0.3189983 0.94775534 0
vn -0.25807515 0.9477552 0.1875025
vn -0.30338535 0.94775534 0.09857586
g fountainPlatform_COL_0
f 3/3/3 2/2/2 1/1/1
f 4/4/4 3/3/3 1/1/1
f 5/5/5 3/3/3 4/4/4
f 6/6/6 5/5/5 4/4/4
f 7/7/7 5/5/5 6/6/6
f 8/8/8 7/7/7 6/6/6
f 9/9/9 7/7/7 8/8/8
f 10/10/10 9/9/9 8/8/8
f 11/11/11 9/9/9 10/10/10
f 12/12/12 11/11/11 10/10/10
f 13/13/13 11/11/11 12/12/12
f 14/14/14 13/13/13 12/12/12
f 15/15/15 13/13/13 14/14/14
f 16/16/16 15/15/15 14/14/14
f 17/17/17 15/15/15 16/16/16
f 18/18/18 17/17/17 16/16/16
f 19/19/19 17/17/17 18/18/18
f 20/20/20 19/19/19 18/18/18
f 21/21/21 19/19/19 20/20/20
f 22/22/22 21/21/21 20/20/20
f 23/23/23 21/21/21 22/22/22
f 24/24/24 23/23/23 22/22/22
f 25/25/25 23/23/23 24/24/24
f 26/26/26 25/25/25 24/24/24
f 27/27/27 25/25/25 26/26/26
f 28/28/28 27/27/27 26/26/26
f 29/29/29 27/27/27 28/28/28
f 30/30/30 29/29/29 28/28/28
f 31/31/31 29/29/29 30/30/30
f 32/32/32 31/31/31 30/30/30
f 33/33/33 31/31/31 32/32/32
f 34/34/34 33/33/33 32/32/32
f 35/35/35 33/33/33 34/34/34
f 36/36/36 35/35/35 34/34/34
f 37/37/37 35/35/35 36/36/36
f 38/38/38 37/37/37 36/36/36
f 39/39/39 37/37/37 38/38/38
f 40/40/40 39/39/39 38/38/38
f 41/41/41 39/39/39 40/40/40
f 42/42/42 41/41/41 40/40/40
f 45/45/45 44/44/44 43/43/43
f 43/43/43 44/44/44 46/46/46
f 47/47/47 44/44/44 45/45/45
f 46/46/46 44/44/44 48/48/48
f 49/49/49 44/44/44 47/47/47
f 48/48/48 44/44/44 50/50/50
f 51/51/51 44/44/44 49/49/49
f 50/50/50 44/44/44 52/52/52
f 53/53/53 44/44/44 51/51/51
f 52/52/52 44/44/44 54/54/54
f 55/55/55 44/44/44 53/53/53
f 54/54/54 44/44/44 56/56/56
f 57/57/57 44/44/44 55/55/55
f 56/56/56 44/44/44 58/58/58
f 59/59/59 44/44/44 57/57/57
f 58/58/58 44/44/44 60/60/60
f 61/61/61 44/44/44 59/59/59
f 60/60/60 44/44/44 62/62/62
f 63/63/63 44/44/44 61/61/61
f 62/62/62 44/44/44 63/63/63
