g glass
v 2.1546793 2.0215397 0.0875
v 2.2924333 1.9420077 0.038559627
v 2.4329925 2.082567 0.038559627
v 2.35346 2.2203207 0.0875
v 2.0819206 1.75 0.0875
v 2.625 2.1340153 0.038559627
v 2.625 2.2930796 0.0875
v 2.240985 1.75 0.038559627
v 2.1546793 1.4784603 0.0875
v 2.8170075 2.082567 0.038559627
v 2.89654 2.2203207 0.0875
v 2.2924333 1.5579925 0.038559627
v 2.35346 1.2796792 0.0875
v 2.9575667 1.9420077 0.038559627
v 3.0953207 2.0215397 0.0875
v 2.4329925 1.417433 0.038559627
v 2.625 1.2069204 0.0875
v 3.0090153 1.75 0.038559627
v 3.1680794 1.75 0.0875
v 2.625 1.3659848 0.038559627
v 2.89654 1.2796792 0.0875
v 2.9575667 1.5579925 0.038559627
v 3.0953207 1.4784603 0.0875
v 2.8170075 1.417433 0.038559627
v 2.7971492 1.8493904 0.0077944375
v 2.8237808 1.75 0.0077944375
v 2.7971492 1.6506096 0.0077944375
v 2.7243905 1.5778507 0.0077944375
v 2.625 1.75 -0.0026989938
v 2.7243905 1.9221493 0.0077944375
v 2.625 1.551219 0.0077944375
v 2.5256095 1.5778507 0.0077944375
v 2.625 1.948781 0.0077944375
v 2.4528508 1.6506096 0.0077944375
v 2.5256095 1.9221493 0.0077944375
v 2.4262192 1.75 0.0077944375
v 2.4528508 1.8493904 0.0077944375
v 3.0953207 2.0215397 0.0875
v 2.9575667 1.9420077 0.13644023
v 2.8170075 2.082567 0.13644023
v 2.89654 2.2203207 0.0875
v 3.1680794 1.75 0.0875
v 2.625 2.1340153 0.13644023
v 2.625 2.2930796 0.0875
v 3.0090153 1.75 0.13644023
v 3.0953207 1.4784603 0.0875
v 2.4329925 2.082567 0.13644023
v 2.35346 2.2203207 0.0875
v 2.9575667 1.5579925 0.13644023
v 2.89654 1.2796792 0.0875
v 2.2924333 1.9420077 0.13644023
v 2.1546793 2.0215397 0.0875
v 2.8170075 1.417433 0.13644023
v 2.625 1.2069204 0.0875
v 2.240985 1.75 0.13644023
v 2.0819206 1.75 0.0875
v 2.625 1.3659848 0.13644023
v 2.35346 1.2796792 0.0875
v 2.2924333 1.5579925 0.13644023
v 2.1546793 1.4784603 0.0875
v 2.4329925 1.417433 0.13644023
v 2.4528508 1.8493904 0.16720542
v 2.4262192 1.75 0.16720542
v 2.4528508 1.6506096 0.16720542
v 2.5256095 1.5778507 0.16720542
v 2.625 1.75 0.17769887
v 2.5256095 1.9221493 0.16720542
v 2.625 1.551219 0.16720542
v 2.7243905 1.5778507 0.16720542
v 2.625 1.948781 0.16720542
v 2.7971492 1.6506096 0.16720542
v 2.7243905 1.9221493 0.16720542
v 2.8237808 1.75 0.16720542
v 2.7971492 1.8493904 0.16720542
vt 0.36613116 0.5772892
vt 0.4053406 0.5546518
vt 0.4453484 0.5946597
vt 0.4227108 0.63386905
vt 0.3454216 0.49999997
vt 0.50000024 0.60930353
vt 0.50000024 0.65457857
vt 0.3906966 0.49999997
vt 0.36613116 0.42271072
vt 0.5546519 0.5946597
vt 0.5772895 0.63386905
vt 0.4053406 0.44534823
vt 0.4227108 0.36613095
vt 0.5946598 0.5546518
vt 0.63386923 0.5772892
vt 0.4453484 0.4053403
vt 0.50000024 0.3454214
vt 0.6093037 0.49999997
vt 0.65457875 0.49999997
vt 0.50000024 0.39069644
vt 0.5772895 0.36613095
vt 0.5946598 0.44534823
vt 0.63386923 0.42271072
vt 0.5546519 0.4053403
vt 0.54899955 0.52828985
vt 0.5565798 0.49999997
vt 0.54899955 0.47171018
vt 0.52829003 0.45100054
vt 0.50000024 0.49999997
vt 0.52829003 0.5489995
vt 0.50000024 0.44342026
vt 0.47171035 0.45100054
vt 0.50000024 0.5565797
vt 0.45100075 0.47171018
vt 0.47171035 0.5489995
vt 0.4434205 0.49999997
vt 0.45100075 0.52828985
vt 0.63386923 0.5772892
vt 0.5946598 0.5546518
vt 0.5546519 0.5946597
vt 0.5772895 0.63386905
vt 0.65457875 0.49999997
vt 0.50000024 0.60930353
vt 0.50000024 0.65457857
vt 0.6093037 0.49999997
vt 0.63386923 0.42271072
vt 0.4453484 0.5946597
vt 0.4227108 0.63386905
vt 0.5946598 0.44534823
vt 0.5772895 0.36613095
vt 0.4053406 0.5546518
vt 0.36613116 0.5772892
vt 0.5546519 0.4053403
vt 0.50000024 0.3454214
vt 0.3906966 0.49999997
vt 0.3454216 0.49999997
vt 0.50000024 0.39069644
vt 0.4227108 0.36613095
vt 0.4053406 0.44534823
vt 0.36613116 0.42271072
vt 0.4453484 0.4053403
vt 0.45100075 0.52828985
vt 0.4434205 0.49999997
vt 0.45100075 0.47171018
vt 0.47171035 0.45100054
vt 0.50000024 0.49999997
vt 0.47171035 0.5489995
vt 0.50000024 0.44342026
vt 0.52829003 0.45100054
vt 0.50000024 0.5565797
vt 0.54899955 0.47171018
vt 0.52829003 0.5489995
vt 0.5565798 0.49999997
vt 0.54899955 0.52828985
vn -0.25467384 0.14703582 -0.9557833
vn -0.21695209 0.12525727 -0.96811277
vn -0.12525731 0.21695195 -0.9681129
vn -0.14703597 0.25467357 -0.9557833
vn -0.29407194 0 -0.9557833
vn -0 0.25051457 -0.9681129
vn -0 0.29407188 -0.9557833
vn -0.25051472 0 -0.96811277
vn -0.2546738 -0.14703585 -0.9557833
vn 0.12525731 0.21695194 -0.9681129
vn 0.147036 0.25467357 -0.9557834
vn -0.21695201 -0.12525725 -0.96811277
vn -0.14703605 -0.25467363 -0.9557833
vn 0.21695206 0.12525721 -0.9681129
vn 0.25467378 0.14703576 -0.9557833
vn -0.12525733 -0.21695197 -0.96811277
vn -0 -0.29407194 -0.9557833
vn 0.2505147 0 -0.96811277
vn 0.29407194 0 -0.9557833
vn -0 -0.2505146 -0.96811277
vn 0.14703597 -0.25467357 -0.9557834
vn 0.21695204 -0.12525718 -0.9681129
vn 0.25467384 -0.1470358 -0.9557833
vn 0.1252573 -0.21695195 -0.9681129
vn 0.12222781 0.07056809 -0.9899901
vn 0.14113653 0 -0.9899901
vn 0.12222787 -0.070568085 -0.9899901
vn 0.070568316 -0.122227676 -0.9899901
vn -0 0 -1
vn 0.07056831 0.122227676 -0.9899901
vn -0 -0.14113638 -0.9899901
vn -0.070568316 -0.12222768 -0.9899901
vn -0 0.14113636 -0.9899901
vn -0.122227766 -0.070568204 -0.9899901
vn -0.07056836 0.122227736 -0.9899901
vn -0.14113653 0 -0.9899901
vn -0.12222791 0.07056826 -0.9899901
vn 0.2546732 0.14703548 0.95578355
vn 0.2169517 0.12525699 0.968113
vn 0.12525706 0.21695152 0.968113
vn 0.14703561 0.25467288 0.9557836
vn 0.29407126 0 0.95578355
vn -0 0.25051403 0.968113
vn -0 0.29407114 0.95578355
vn 0.25051424 0 0.9681129
vn 0.25467315 -0.14703554 0.95578355
vn -0.12525705 0.21695158 0.968113
vn -0.14703557 0.254673 0.9557836
vn 0.2169516 -0.12525699 0.968113
vn 0.14703564 -0.25467294 0.9557836
vn -0.2169516 0.12525703 0.968113
vn -0.25467315 0.14703546 0.95578355
vn 0.12525707 -0.21695153 0.968113
vn -0 -0.29407114 0.95578355
vn -0.25051424 0 0.9681129
vn -0.29407126 0 0.95578355
vn -0 -0.2505141 0.968113
vn -0.14703557 -0.25467303 0.9557836
vn -0.21695164 -0.125257 0.968113
vn -0.2546732 -0.14703548 0.95578355
vn -0.12525705 -0.2169516 0.968113
vn -0.12222787 0.07056823 0.9899901
vn -0.14113654 0 0.9899901
vn -0.1222279 -0.07056822 0.9899901
vn -0.07056831 -0.12222768 0.9899901
vn -0 0 1
vn -0.07056831 0.122227676 0.9899901
vn -0 -0.14113638 0.9899901
vn 0.07056831 -0.122227676 0.9899901
vn -0 0.14113636 0.9899901
vn 0.122227825 -0.07056807 0.9899901
vn 0.070568345 0.12222771 0.9899901
vn 0.14113654 0 0.9899901
vn 0.122227944 0.07056813 0.9899901
g glass_0
f 3/3/3 2/2/2 1/1/1
f 4/4/4 3/3/3 1/1/1
f 1/1/1 2/2/2 5/5/5
f 6/6/6 3/3/3 4/4/4
f 7/7/7 6/6/6 4/4/4
f 2/2/2 8/8/8 5/5/5
f 5/5/5 8/8/8 9/9/9
f 10/10/10 6/6/6 7/7/7
f 11/11/11 10/10/10 7/7/7
f 8/8/8 12/12/12 9/9/9
f 9/9/9 12/12/12 13/13/13
f 14/14/14 10/10/10 11/11/11
f 15/15/15 14/14/14 11/11/11
f 12/12/12 16/16/16 13/13/13
f 13/13/13 16/16/16 17/17/17
f 18/18/18 14/14/14 15/15/15
f 19/19/19 18/18/18 15/15/15
f 16/16/16 20/20/20 17/17/17
f 17/17/17 20/20/20 21/21/21
f 22/22/22 18/18/18 19/19/19
f 23/23/23 22/22/22 19/19/19
f 21/21/21 24/24/24 23/23/23
f 20/20/20 24/24/24 21/21/21
f 24/24/24 22/22/22 23/23/23
f 14/14/14 25/25/25 10/10/10
f 18/18/18 26/26/26 14/14/14
f 26/26/26 25/25/25 14/14/14
f 22/22/22 27/27/27 18/18/18
f 27/27/27 26/26/26 18/18/18
f 24/24/24 28/28/28 22/22/22
f 28/28/28 27/27/27 22/22/22
f 27/27/27 29/29/29 26/26/26
f 26/26/26 29/29/29 25/25/25
f 28/28/28 29/29/29 27/27/27
f 25/25/25 29/29/29 30/30/30
f 25/25/25 30/30/30 10/10/10
f 31/31/31 29/29/29 28/28/28
f 31/31/31 28/28/28 24/24/24
f 20/20/20 31/31/31 24/24/24
f 10/10/10 30/30/30 6/6/6
f 32/32/32 31/31/31 20/20/20
f 32/32/32 29/29/29 31/31/31
f 16/16/16 32/32/32 20/20/20
f 30/30/30 33/33/33 6/6/6
f 30/30/30 29/29/29 33/33/33
f 6/6/6 33/33/33 3/3/3
f 34/34/34 32/32/32 16/16/16
f 34/34/34 29/29/29 32/32/32
f 12/12/12 34/34/34 16/16/16
f 33/33/33 35/35/35 3/3/3
f 33/33/33 29/29/29 35/35/35
f 3/3/3 35/35/35 2/2/2
f 36/36/36 34/34/34 12/12/12
f 36/36/36 29/29/29 34/34/34
f 8/8/8 36/36/36 12/12/12
f 35/35/35 37/37/37 2/2/2
f 35/35/35 29/29/29 37/37/37
f 37/37/37 29/29/29 36/36/36
f 37/37/37 36/36/36 8/8/8
f 2/2/2 37/37/37 8/8/8
g glass_1
f 40/40/40 39/39/39 38/38/38
f 41/41/41 40/40/40 38/38/38
f 38/38/38 39/39/39 42/42/42
f 43/43/43 40/40/40 41/41/41
f 44/44/44 43/43/43 41/41/41
f 39/39/39 45/45/45 42/42/42
f 42/42/42 45/45/45 46/46/46
f 47/47/47 43/43/43 44/44/44
f 48/48/48 47/47/47 44/44/44
f 45/45/45 49/49/49 46/46/46
f 46/46/46 49/49/49 50/50/50
f 51/51/51 47/47/47 48/48/48
f 52/52/52 51/51/51 48/48/48
f 49/49/49 53/53/53 50/50/50
f 50/50/50 53/53/53 54/54/54
f 55/55/55 51/51/51 52/52/52
f 56/56/56 55/55/55 52/52/52
f 53/53/53 57/57/57 54/54/54
f 54/54/54 57/57/57 58/58/58
f 59/59/59 55/55/55 56/56/56
f 60/60/60 59/59/59 56/56/56
f 58/58/58 61/61/61 60/60/60
f 57/57/57 61/61/61 58/58/58
f 61/61/61 59/59/59 60/60/60
f 51/51/51 62/62/62 47/47/47
f 55/55/55 63/63/63 51/51/51
f 63/63/63 62/62/62 51/51/51
f 59/59/59 64/64/64 55/55/55
f 64/64/64 63/63/63 55/55/55
f 61/61/61 65/65/65 59/59/59
f 65/65/65 64/64/64 59/59/59
f 64/64/64 66/66/66 63/63/63
f 63/63/63 66/66/66 62/62/62
f 65/65/65 66/66/66 64/64/64
f 62/62/62 66/66/66 67/67/67
f 62/62/62 67/67/67 47/47/47
f 68/68/68 66/66/66 65/65/65
f 68/68/68 65/65/65 61/61/61
f 57/57/57 68/68/68 61/61/61
f 47/47/47 67/67/67 43/43/43
f 69/69/69 68/68/68 57/57/57
f 69/69/69 66/66/66 68/68/68
f 53/53/53 69/69/69 57/57/57
f 67/67/67 70/70/70 43/43/43
f 67/67/67 66/66/66 70/70/70
f 43/43/43 70/70/70 40/40/40
f 71/71/71 69/69/69 53/53/53
f 71/71/71 66/66/66 69/69/69
f 49/49/49 71/71/71 53/53/53
f 70/70/70 72/72/72 40/40/40
f 70/70/70 66/66/66 72/72/72
f 40/40/40 72/72/72 39/39/39
f 73/73/73 71/71/71 49/49/49
f 73/73/73 66/66/66 71/71/71
f 45/45/45 73/73/73 49/49/49
f 72/72/72 74/74/74 39/39/39
f 72/72/72 66/66/66 74/74/74
f 74/74/74 66/66/66 73/73/73
f 74/74/74 73/73/73 45/45/45
f 39/39/39 74/74/74 45/45/45
