g grassThinSprig01
v 7.0139265E-08 -0.09990339 -8.940697E-08
v 0.29685217 0.7984317 0.4925822
v 0.29228094 -0.100840375 0.4935821
v 0.004571298 0.7993683 -0.0010001063
v -0.010054556 -0.10026817 -0.37428036
v -0.005483328 0.7990031 -0.3752803
v 0.046158824 1.3986315 -0.39287573
v 0.058274303 1.4111853 -0.019305374
v 0.34849432 1.3980595 0.47498688
v 0.16985969 2.0816174 -0.057736423
v 0.45567235 2.0424287 0.4380741
v 0.030364448 -0.14706805 0.19897784
v 0.5379682 0.75597054 0.056904987
v 0.45927864 -0.16259556 -0.028692886
v 0.10905402 0.771498 0.28457573
v -0.50556237 -0.09720187 0.15653054
v -0.4268728 0.82136387 0.2421284
v -0.36485252 1.3351388 0.38380787
v 0.16857338 1.2672122 0.41960436
v 0.59998876 1.2697456 0.19858436
v 0.71189183 1.9803996 0.5305974
v 0.2733909 1.9266926 0.7327726
v -0.25294945 2.045793 0.7158209
v 0.017099375 -0.027579596 0.22545086
v -0.26356408 0.8364529 -0.33351284
v -0.13472283 -0.0535305 -0.32711512
v -0.11174187 0.86240417 0.21905315
v -0.06992455 -0.03756099 0.58947575
v -0.19876578 0.8524228 0.5830781
v -0.3355114 1.4387933 0.582529
v -0.25232506 1.4605471 0.21857034
v -0.40030968 1.4228234 -0.33406177
v -0.46154684 2.1083288 0.22207493
v -0.601325 2.045433 -0.33069876
v 7.0139265E-08 -0.09990339 -8.940697E-08
v 0.29228094 -0.100840375 0.4935821
v 0.29685217 0.7984317 0.4925822
v 0.004571298 0.7993683 -0.0010001063
v -0.010054556 -0.10026817 -0.37428036
v -0.005483328 0.7990031 -0.3752803
v 0.046158824 1.3986315 -0.39287573
v 0.058274303 1.4111853 -0.019305374
v 0.34849432 1.3980595 0.47498688
v 0.16985969 2.0816174 -0.057736423
v 0.45567235 2.0424287 0.4380741
v 0.030364448 -0.14706805 0.19897784
v 0.45927864 -0.16259556 -0.028692886
v 0.5379682 0.75597054 0.056904987
v 0.10905402 0.771498 0.28457573
v -0.50556237 -0.09720187 0.15653054
v -0.4268728 0.82136387 0.2421284
v -0.36485252 1.3351388 0.38380787
v 0.16857338 1.2672122 0.41960436
v 0.59998876 1.2697456 0.19858436
v 0.71189183 1.9803996 0.5305974
v 0.2733909 1.9266926 0.7327726
v -0.25294945 2.045793 0.7158209
v 0.017099375 -0.027579596 0.22545086
v -0.13472283 -0.0535305 -0.32711512
v -0.26356408 0.8364529 -0.33351284
v -0.11174187 0.86240417 0.21905315
v -0.06992455 -0.03756099 0.58947575
v -0.19876578 0.8524228 0.5830781
v -0.3355114 1.4387933 0.582529
v -0.25232506 1.4605471 0.21857034
v -0.40030968 1.4228234 -0.33406177
v -0.46154684 2.1083288 0.22207493
v -0.601325 2.045433 -0.33069876
vt 0.192078 0.006968826
vt 0.4669832 0.41339746
vt 0.46698305 0.006968826
vt 0.192078 0.41339746
vt 0.017651588 0.006968826
vt 0.017651588 0.41339746
vt 0.017651588 0.68727815
vt 0.192078 0.68727815
vt 0.46698305 0.68727815
vt 0.192078 0.9846545
vt 0.46698305 0.9846545
vt 0.72145987 0.006968826
vt 0.9483959 0.42542425
vt 0.9483959 0.006968826
vt 0.72145987 0.42542425
vt 0.46698305 0.006968826
vt 0.46698278 0.42542425
vt 0.46698278 0.659851
vt 0.72145987 0.659851
vt 0.9483959 0.659851
vt 0.9483959 0.9846545
vt 0.72145987 0.9846545
vt 0.46698305 0.9846545
vt 0.192078 0.006968826
vt 0.4669832 0.41339746
vt 0.46698305 0.006968826
vt 0.192078 0.41339746
vt 0.017651588 0.006968826
vt 0.017651588 0.41339746
vt 0.017651588 0.68727815
vt 0.192078 0.68727815
vt 0.46698305 0.68727815
vt 0.192078 0.9846545
vt 0.46698305 0.9846545
vt 0.192078 0.006968826
vt 0.46698305 0.006968826
vt 0.4669832 0.41339746
vt 0.192078 0.41339746
vt 0.017651588 0.006968826
vt 0.017651588 0.41339746
vt 0.017651588 0.68727815
vt 0.192078 0.68727815
vt 0.46698305 0.68727815
vt 0.192078 0.9846545
vt 0.46698305 0.9846545
vt 0.72145987 0.006968826
vt 0.9483959 0.006968826
vt 0.9483959 0.42542425
vt 0.72145987 0.42542425
vt 0.46698305 0.006968826
vt 0.46698278 0.42542425
vt 0.46698278 0.659851
vt 0.72145987 0.659851
vt 0.9483959 0.659851
vt 0.9483959 0.9846545
vt 0.72145987 0.9846545
vt 0.46698305 0.9846545
vt 0.192078 0.006968826
vt 0.46698305 0.006968826
vt 0.4669832 0.41339746
vt 0.192078 0.41339746
vt 0.017651588 0.006968826
vt 0.017651588 0.41339746
vt 0.017651588 0.68727815
vt 0.192078 0.68727815
vt 0.46698305 0.68727815
vt 0.192078 0.9846545
vt 0.46698305 0.9846545
vn -0.94432414 0.0051660375 0.32897598
vn -0.85994184 0.039335348 0.50887394
vn -0.8604391 0.0049404083 0.5095293
vn -0.9434874 0.039751254 0.32901567
vn -0.9996264 0.005111182 0.026848858
vn -0.99887806 0.03866323 0.027344251
vn -0.9936411 0.10916365 0.027583344
vn -0.92426103 0.12989286 0.3589838
vn -0.85309243 0.13177231 0.50484574
vn -0.871077 0.17131664 0.4602994
vn -0.8478715 0.16985475 0.5022582
vn 0.18048519 -0.106577784 0.9777865
vn 0.45553172 -0.18045953 0.8717369
vn 0.46194634 -0.12144221 0.87855417
vn 0.17473285 -0.17096585 0.9696593
vn -0.086534955 -0.085084595 0.99260885
vn -0.090983994 -0.14489692 0.98525465
vn -0.109540604 -0.34386194 0.9326092
vn 0.15014556 -0.37735116 0.9138175
vn 0.42712918 -0.37703642 0.8218298
vn 0.41560552 -0.44046214 0.7957796
vn 0.14089684 -0.43992397 0.8869131
vn -0.11705194 -0.40787676 0.9055028
vn 0.98716867 0.14239094 -0.072268546
vn 0.9482417 0.17010464 -0.26814577
vn 0.95363724 0.1361267 -0.2684132
vn 0.9816018 0.17653188 -0.07276198
vn 0.96200395 0.14094837 0.23384196
vn 0.956782 0.17409135 0.23293866
vn 0.9420985 0.24321352 0.23086251
vn 0.95850974 0.2640879 -0.107315525
vn 0.92788434 0.26060945 -0.26667094
vn 0.9281101 0.30089772 -0.2192539
vn 0.91696376 0.29754442 -0.26579082
vn 0.94432414 -0.005166034 -0.32897598
vn 0.8604391 -0.0049404027 -0.5095293
vn 0.85994184 -0.03933534 -0.50887394
vn 0.9434874 -0.039751243 -0.32901567
vn 0.9996264 -0.005111182 -0.026848856
vn 0.99887806 -0.03866323 -0.027344255
vn 0.9936411 -0.10916365 -0.02758335
vn 0.92426103 -0.12989286 -0.3589838
vn 0.85309243 -0.13177231 -0.50484574
vn 0.871077 -0.17131658 -0.46029937
vn 0.84787154 -0.16985473 -0.5022581
vn -0.18048516 0.1065778 -0.9777865
vn -0.46194634 0.12144221 -0.87855417
vn -0.45553172 0.18045956 -0.8717369
vn -0.17473288 0.17096585 -0.9696593
vn 0.08653498 0.085084595 -0.99260885
vn 0.09098402 0.14489692 -0.98525465
vn 0.10954063 0.3438619 -0.9326092
vn -0.15014556 0.37735116 -0.9138175
vn -0.42712927 0.3770364 -0.8218297
vn -0.41560552 0.44046214 -0.7957796
vn -0.14089686 0.43992397 -0.8869131
vn 0.11705195 0.4078767 -0.9055029
vn -0.98716867 -0.14239092 0.07226853
vn -0.95363724 -0.13612668 0.2684132
vn -0.9482416 -0.17010465 0.26814577
vn -0.9816018 -0.1765319 0.07276199
vn -0.96200395 -0.14094839 -0.23384202
vn -0.956782 -0.17409137 -0.23293866
vn -0.9420985 -0.24321355 -0.23086256
vn -0.95850974 -0.2640879 0.10731556
vn -0.92788434 -0.26060942 0.266671
vn -0.9281101 -0.30089772 0.21925396
vn -0.91696376 -0.2975444 0.26579088
g grassThinSprig01_0
f 3/3/3 2/2/2 1/1/1
f 2/2/2 4/4/4 1/1/1
f 1/1/1 4/4/4 5/5/5
f 4/4/4 6/6/6 5/5/5
f 6/6/6 4/4/4 7/7/7
f 4/4/4 2/2/2 8/8/8
f 4/4/4 8/8/8 7/7/7
f 2/2/2 9/9/9 8/8/8
f 8/8/8 10/10/10 7/7/7
f 9/9/9 11/11/11 8/8/8
f 11/11/11 10/10/10 8/8/8
f 14/14/14 13/13/13 12/12/12
f 13/13/13 15/15/15 12/12/12
f 12/12/12 15/15/15 16/16/16
f 15/15/15 17/17/17 16/16/16
f 17/17/17 15/15/15 18/18/18
f 15/15/15 13/13/13 19/19/19
f 15/15/15 19/19/19 18/18/18
f 13/13/13 20/20/20 19/19/19
f 20/20/20 21/21/21 19/19/19
f 21/21/21 22/22/22 19/19/19
f 19/19/19 22/22/22 18/18/18
f 22/22/22 23/23/23 18/18/18
f 26/26/26 25/25/25 24/24/24
f 25/25/25 27/27/27 24/24/24
f 24/24/24 27/27/27 28/28/28
f 27/27/27 29/29/29 28/28/28
f 29/29/29 27/27/27 30/30/30
f 27/27/27 25/25/25 31/31/31
f 27/27/27 31/31/31 30/30/30
f 25/25/25 32/32/32 31/31/31
f 31/31/31 33/33/33 30/30/30
f 32/32/32 34/34/34 31/31/31
f 34/34/34 33/33/33 31/31/31
f 37/37/37 36/36/36 35/35/35
f 38/38/38 37/37/37 35/35/35
f 38/38/38 35/35/35 39/39/39
f 40/40/40 38/38/38 39/39/39
f 38/38/38 40/40/40 41/41/41
f 37/37/37 38/38/38 42/42/42
f 42/42/42 38/38/38 41/41/41
f 43/43/43 37/37/37 42/42/42
f 44/44/44 42/42/42 41/41/41
f 45/45/45 43/43/43 42/42/42
f 44/44/44 45/45/45 42/42/42
f 48/48/48 47/47/47 46/46/46
f 49/49/49 48/48/48 46/46/46
f 49/49/49 46/46/46 50/50/50
f 51/51/51 49/49/49 50/50/50
f 49/49/49 51/51/51 52/52/52
f 48/48/48 49/49/49 53/53/53
f 53/53/53 49/49/49 52/52/52
f 54/54/54 48/48/48 53/53/53
f 55/55/55 54/54/54 53/53/53
f 56/56/56 55/55/55 53/53/53
f 56/56/56 53/53/53 52/52/52
f 57/57/57 56/56/56 52/52/52
f 60/60/60 59/59/59 58/58/58
f 61/61/61 60/60/60 58/58/58
f 61/61/61 58/58/58 62/62/62
f 63/63/63 61/61/61 62/62/62
f 61/61/61 63/63/63 64/64/64
f 60/60/60 61/61/61 65/65/65
f 65/65/65 61/61/61 64/64/64
f 66/66/66 60/60/60 65/65/65
f 67/67/67 65/65/65 64/64/64
f 68/68/68 66/66/66 65/65/65
f 67/67/67 68/68/68 65/65/65
