g grassThinSprig02_LOD3
v 0.42823327 1.9800645 -0.016670914
v 0.17672358 -0.14870968 0.15198685
v -0.14024661 -0.17956008 -0.7100866
v -0.021999836 1.3126994 -0.80696684
v -0.6990069 1.3537555 -0.5405083
v -0.14962022 -0.18565443 -0.5525262
v -0.08482199 -0.16968456 0.36406454
v -0.40948284 0.9214895 0.36800507
v -0.5988146 1.8490052 0.8974925
v -0.53758585 -0.1662492 -0.053321064
v 0.4281385 -0.06109301 -0.2140113
v 0.36690974 1.9541615 0.7368023
v 0.8913324 1.1655921 0.7626069
v -0.26477227 -0.054384988 0.46102676
v 0.017032385 -0.088365704 -0.48180613
v 1.1731371 1.1316111 -0.18022595
vt 0.46698302 0.9846545
vt 0.46698302 0.0069688153
vt 0.017651588 0.0069688153
vt 0.017651588 0.68727815
vt 0.46698302 0.9846545
vt 0.46698302 0.0069688153
vt 0.017651588 0.0069688153
vt 0.017651588 0.68727815
vt 0.46698302 0.9846545
vt 0.46698302 0.0069688153
vt 0.94839585 0.0069688153
vt 0.94839585 0.9846545
vt 0.46698302 0.9846545
vt 0.46698302 0.0069688153
vt 0.94839585 0.0069688153
vt 0.94839585 0.9846545
vn -0 1 0
vn -0 1 0
vn -0 1 0
vn -0 1 0
vn -0 1 0
vn -0 1 0
vn -0 1 0
vn -0 1 0
vn -0 1 0
vn -0 1 0
vn -0 1 0
vn -0 1 0
vn -0 1 0
vn -0 1 0
vn -0 1 0
vn -0 1 0
g grassThinSprig02_LOD3_0
f 3/3/3 2/2/2 1/1/1
f 4/4/4 3/3/3 1/1/1
f 7/7/7 6/6/6 5/5/5
f 8/8/8 7/7/7 5/5/5
f 11/11/11 10/10/10 9/9/9
f 12/12/12 11/11/11 9/9/9
f 15/15/15 14/14/14 13/13/13
f 16/16/16 15/15/15 13/13/13
