g growthBase01
v 0.16064501 0.76456153 -0.015860625
v 0.38311598 0.6800251 0.049941495
v 0.25026062 0.65039486 0.25532037
v 0.2610798 0.72068876 -0.24528602
v 0.64892715 0.48603916 0.045667976
v 0.21658196 0.46295786 0.48216128
v -0.095351525 0.7046292 0.2447326
v -0.06096745 0.79493374 -0.14627688
v 0.5006279 0.4556722 -0.4071991
v 0.11847988 0.6839017 -0.42952585
v 0.87421554 0.33286285 0.07979872
v 0.82640356 0.32627818 -0.24601068
v 0.4087992 0.3566565 -0.81782067
v 0.26462138 0.46438006 -0.5768982
v -0.27937567 0.30543128 -0.71406525
v -0.27237886 0.5966005 -0.46910563
v 0.031098604 0.30623522 -0.7476004
v -0.31480336 0.19237974 -0.9024
v -0.62040484 0.2837816 -0.48685962
v -0.039803844 0.11076403 -1.0334805
v -0.22595571 0.750899 -0.18882284
v -0.28631344 0.7103176 0.08690984
v -0.4908925 0.60653037 -0.1997822
v -0.4403747 0.40240362 0.4339148
v -0.6379012 0.37609795 0.18344097
v -0.7323747 0.27379772 -0.21925133
v -0.07217637 0.44869143 0.5641564
v -0.9694117 0.09445515 -0.81776047
v -1.0401605 0.13728684 -0.5118846
v -1.0031955 0.16128159 -0.0048065577
v -0.7054585 0.05158966 -0.96144783
v -0.41489422 -0.06838051 -0.9341706
v -1.2100012 -0.0062517044 -0.52054423
v -1.0846517 -0.09254208 -0.76033616
v -0.5900859 -0.1526711 -0.17145444
v -1.0500634 -0.11044697 -0.36104807
v -1.1036738 0.003279836 -0.12857142
v -1.0374557 0.14721327 0.41490394
v -1.013887 -0.1054236 0.022501744
v -0.75730675 0.18414336 0.76228315
v -1.0561433 0.025223454 0.48224902
v -0.31615156 0.15118264 1.0069388
v -0.6700478 -0.12705605 0.43948963
v -0.24106663 -0.1114411 0.8171475
v -0.8239145 -0.06721348 0.70659107
v -0.8084837 0.045219023 0.8177892
v -0.36645496 -0.02430607 0.99630225
v -0.054021496 -0.0151122445 1.1554042
v 0.10917463 0.13692081 1.1443222
v 0.33944938 0.12030899 1.0497297
v 0.32321206 -0.07383225 1.0586247
v 0.595224 0.22475417 0.6368304
v 0.6755017 0.040040366 0.77973634
v 0.5988776 -0.11579389 0.68821484
v 0.8098383 0.23330358 0.3148371
v 0.9830135 -0.06178204 0.49428988
v 0.7969669 0.17329973 0.5667514
v 1.0009092 0.22850706 0.22124034
v 1.1804873 0.026165163 0.32451758
v 1.2314129 0.1312151 -0.014912711
v 1.1189904 -0.08662674 0.22964205
v 1.2666184 0.039818555 0.021875352
v 1.1792338 -0.04610861 -0.10254312
v 1.0458746 0.012946715 -0.36319128
v 0.9455564 -0.14197013 0.075805835
v 0.871663 0.08522657 -0.73045665
v 0.8220976 -0.13700162 -0.2920511
v 0.5388904 -0.09309245 0.5081505
v 0.15184952 -0.032610454 0.03381416
v -0.06653563 -0.12889998 -0.43234473
v 0.819991 -0.12231471 -0.67691845
v 0.6612148 0.070878334 -1.0525609
v 0.3203213 -0.16884026 -0.6674494
v 0.40804344 0.065169975 -1.1822196
v 0.60215634 -0.09159647 -0.96490836
v -0.16909449 -0.12375721 -0.8469541
v 0.15794884 -0.07118773 -1.0476815
v 0.19321789 0.030120613 -1.1496772
vt 0 0
vt 0 0
vt 0 0
vt 0 0
vt 0 0
vt 0 0
vt 0 0
vt 0 0
vt 0 0
vt 0 0
vt 0 0
vt 0 0
vt 0 0
vt 0 0
vt 0 0
vt 0 0
vt 0 0
vt 0 0
vt 0 0
vt 0 0
vt 0 0
vt 0 0
vt 0 0
vt 0 0
vt 0 0
vt 0 0
vt 0 0
vt 0 0
vt 0 0
vt 0 0
vt 0 0
vt 0 0
vt 0 0
vt 0 0
vt 0 0
vt 0 0
vt 0 0
vt 0 0
vt 0 0
vt 0 0
vt 0 0
vt 0 0
vt 0 0
vt 0 0
vt 0 0
vt 0 0
vt 0 0
vt 0 0
vt 0 0
vt 0 0
vt 0 0
vt 0 0
vt 0 0
vt 0 0
vt 0 0
vt 0 0
vt 0 0
vt 0 0
vt 0 0
vt 0 0
vt 0 0
vt 0 0
vt 0 0
vt 0 0
vt 0 0
vt 0 0
vt 0 0
vt 0 0
vt 0 0
vt 0 0
vt 0 0
vt 0 0
vt 0 0
vt 0 0
vt 0 0
vt 0 0
vt 0 0
vt 0 0
vn 0.1707063 0.97345155 0.15248442
vn 0.50965005 0.84882724 0.14053205
vn 0.34453237 0.76906425 0.5383657
vn 0.45664215 0.8436496 -0.28237095
vn 0.5493913 0.8202395 0.15929952
vn 0.27468848 0.8165475 0.5077365
vn -0.12838764 0.8605784 0.4928705
vn -0.06459565 0.98932415 -0.13063349
vn 0.50161 0.8070273 -0.31159982
vn 0.09106873 0.77264446 -0.628273
vn 0.48410404 0.85571104 0.18276191
vn 0.5541211 0.7841213 -0.27947003
vn 0.22485968 0.85016555 -0.4760847
vn 0.12114598 0.771179 -0.62498516
vn -0.2391382 0.72985435 -0.64041054
vn -0.31131676 0.7210898 -0.61896
vn -0.13081777 0.82233566 -0.55376065
vn -0.15359256 0.83200073 -0.53308916
vn -0.39291397 0.8443142 -0.3643516
vn -0.19387397 0.63222486 -0.7501364
vn -0.34669062 0.9152155 -0.20539299
vn -0.46546805 0.8383378 0.28377673
vn -0.6682223 0.73212177 -0.13219948
vn -0.34633246 0.8454799 0.40646958
vn -0.5525872 0.82009864 0.14861207
vn -0.5729634 0.81448513 -0.09125163
vn -0.094583854 0.8458789 0.5249218
vn -0.39209053 0.7730891 -0.49859628
vn -0.4752014 0.87285656 -0.11092847
vn -0.584926 0.81057394 -0.028833736
vn -0.24920748 0.04374017 -0.9674618
vn -0.048457958 -0.9321187 -0.35889614
vn -0.99083954 0.11028355 -0.07793903
vn -0.1996794 -0.94408023 -0.26237494
vn 0.039705988 -0.9989766 -0.02165886
vn -0.24688557 -0.96877855 0.022704631
vn -0.9863128 -0.06170118 0.1529053
vn -0.6322144 0.7551661 0.17328879
vn -0.3346428 -0.9388323 0.08128999
vn -0.36378708 0.82078254 0.4404259
vn -0.7296044 -0.60773647 0.31358206
vn -0.24134402 0.7482608 0.6179473
vn -0.108002156 -0.990471 0.08545609
vn 0.020183554 -0.99788886 0.061728533
vn -0.33203295 -0.89710706 0.291467
vn -0.6004285 -0.029459786 0.7991356
vn -0.30521193 -0.6326878 0.7117246
vn -0.15442817 -0.64259166 0.7504852
vn 0.07009416 0.7259593 0.6841563
vn 0.39478996 0.68452835 0.612831
vn 0.16439208 -0.9022073 0.39874458
vn 0.43804806 0.8007231 0.40860295
vn 0.7147703 0.15122743 0.682813
vn 0.1542835 -0.96957266 0.19006705
vn 0.36646727 0.8518333 0.3742749
vn 0.589743 -0.4570049 0.66584516
vn 0.46012312 0.5973789 0.6568296
vn 0.5065563 0.794341 0.33529556
vn 0.7911445 0.32219085 0.51988786
vn 0.70144236 0.6878521 -0.1866496
vn 0.38492545 -0.91054344 0.15080792
vn 0.95422554 -0.2969735 0.035502937
vn 0.6249149 -0.7311796 -0.2736015
vn 0.87878984 0.101925984 -0.4661967
vn 0.018840812 -0.99972016 0.0143045075
vn 0.725965 0.54064953 -0.42505628
vn 0.060011856 -0.99777323 0.029104935
vn -0.0801406 -0.99401844 -0.074195035
vn 0.029965071 -0.99895763 0.03443574
vn -0.0014494943 -0.9975539 0.069886595
vn 0.40192303 -0.88636434 -0.22981746
vn 0.59916294 0.46391752 -0.6525215
vn -0.0062969723 -0.99948066 -0.03160441
vn 0.077588804 0.39045876 -0.9173451
vn 0.21803159 -0.88833296 -0.404137
vn -0.11261499 -0.98469746 -0.13299936
vn -0.026440587 -0.8974623 -0.44029787
vn -0.20211533 -0.19914441 -0.9589009
g growthBase01_0
f 3/3/3 2/2/2 1/1/1
f 4/4/4 1/1/1 2/2/2
f 2/2/2 3/3/3 5/5/5
f 2/2/2 5/5/5 4/4/4
f 5/5/5 3/3/3 6/6/6
f 1/1/1 7/7/7 3/3/3
f 6/6/6 3/3/3 7/7/7
f 8/8/8 1/1/1 4/4/4
f 1/1/1 8/8/8 7/7/7
f 5/5/5 9/9/9 4/4/4
f 8/8/8 4/4/4 10/10/10
f 10/10/10 4/4/4 9/9/9
f 5/5/5 6/6/6 11/11/11
f 9/9/9 5/5/5 12/12/12
f 11/11/11 12/12/12 5/5/5
f 13/13/13 9/9/9 12/12/12
f 10/10/10 9/9/9 14/14/14
f 14/14/14 9/9/9 13/13/13
f 14/14/14 15/15/15 10/10/10
f 8/8/8 10/10/10 16/16/16
f 10/10/10 15/15/15 16/16/16
f 17/17/17 14/14/14 13/13/13
f 14/14/14 17/17/17 15/15/15
f 15/15/15 17/17/17 18/18/18
f 16/16/16 15/15/15 19/19/19
f 19/19/19 15/15/15 18/18/18
f 13/13/13 20/20/20 17/17/17
f 20/20/20 18/18/18 17/17/17
f 16/16/16 21/21/21 8/8/8
f 22/22/22 8/8/8 21/21/21
f 7/7/7 8/8/8 22/22/22
f 23/23/23 21/21/21 16/16/16
f 16/16/16 19/19/19 23/23/23
f 23/23/23 22/22/22 21/21/21
f 22/22/22 24/24/24 7/7/7
f 25/25/25 22/22/22 23/23/23
f 25/25/25 24/24/24 22/22/22
f 26/26/26 23/23/23 19/19/19
f 26/26/26 25/25/25 23/23/23
f 7/7/7 24/24/24 27/27/27
f 6/6/6 7/7/7 27/27/27
f 18/18/18 28/28/28 19/19/19
f 19/19/19 29/29/29 26/26/26
f 29/29/29 19/19/19 28/28/28
f 29/29/29 30/30/30 26/26/26
f 25/25/25 26/26/26 30/30/30
f 28/28/28 18/18/18 31/31/31
f 20/20/20 31/31/31 18/18/18
f 20/20/20 32/32/32 31/31/31
f 28/28/28 33/33/33 29/29/29
f 33/33/33 30/30/30 29/29/29
f 28/28/28 31/31/31 34/34/34
f 31/31/31 32/32/32 34/34/34
f 34/34/34 33/33/33 28/28/28
f 34/34/34 32/32/32 35/35/35
f 36/36/36 33/33/33 34/34/34
f 34/34/34 35/35/35 36/36/36
f 30/30/30 33/33/33 37/37/37
f 36/36/36 37/37/37 33/33/33
f 25/25/25 30/30/30 38/38/38
f 37/37/37 38/38/38 30/30/30
f 39/39/39 37/37/37 36/36/36
f 35/35/35 39/39/39 36/36/36
f 38/38/38 40/40/40 25/25/25
f 24/24/24 25/25/25 40/40/40
f 37/37/37 41/41/41 38/38/38
f 39/39/39 41/41/41 37/37/37
f 38/38/38 41/41/41 40/40/40
f 24/24/24 40/40/40 42/42/42
f 24/24/24 42/42/42 27/27/27
f 35/35/35 43/43/43 39/39/39
f 39/39/39 43/43/43 41/41/41
f 44/44/44 43/43/43 35/35/35
f 43/43/43 44/44/44 45/45/45
f 41/41/41 43/43/43 45/45/45
f 40/40/40 41/41/41 46/46/46
f 41/41/41 45/45/45 46/46/46
f 40/40/40 46/46/46 42/42/42
f 46/46/46 45/45/45 47/47/47
f 47/47/47 45/45/45 44/44/44
f 47/47/47 42/42/42 46/46/46
f 48/48/48 42/42/42 47/47/47
f 47/47/47 44/44/44 48/48/48
f 27/27/27 42/42/42 49/49/49
f 49/49/49 42/42/42 48/48/48
f 49/49/49 50/50/50 27/27/27
f 6/6/6 27/27/27 50/50/50
f 48/48/48 51/51/51 49/49/49
f 51/51/51 48/48/48 44/44/44
f 49/49/49 51/51/51 50/50/50
f 50/50/50 52/52/52 6/6/6
f 50/50/50 51/51/51 53/53/53
f 53/53/53 52/52/52 50/50/50
f 54/54/54 53/53/53 51/51/51
f 54/54/54 51/51/51 44/44/44
f 55/55/55 6/6/6 52/52/52
f 11/11/11 6/6/6 55/55/55
f 56/56/56 52/52/52 53/53/53
f 56/56/56 53/53/53 54/54/54
f 55/55/55 52/52/52 57/57/57
f 56/56/56 57/57/57 52/52/52
f 58/58/58 11/11/11 55/55/55
f 55/55/55 57/57/57 58/58/58
f 57/57/57 56/56/56 59/59/59
f 58/58/58 57/57/57 59/59/59
f 58/58/58 60/60/60 11/11/11
f 60/60/60 58/58/58 59/59/59
f 11/11/11 60/60/60 12/12/12
f 56/56/56 61/61/61 59/59/59
f 54/54/54 61/61/61 56/56/56
f 60/60/60 59/59/59 62/62/62
f 59/59/59 61/61/61 62/62/62
f 63/63/63 60/60/60 62/62/62
f 62/62/62 61/61/61 63/63/63
f 60/60/60 64/64/64 12/12/12
f 60/60/60 63/63/63 64/64/64
f 54/54/54 65/65/65 61/61/61
f 61/61/61 65/65/65 63/63/63
f 12/12/12 64/64/64 66/66/66
f 12/12/12 66/66/66 13/13/13
f 67/67/67 64/64/64 63/63/63
f 65/65/65 67/67/67 63/63/63
f 65/65/65 54/54/54 68/68/68
f 44/44/44 68/68/68 54/54/54
f 68/68/68 69/69/69 65/65/65
f 69/69/69 68/68/68 44/44/44
f 67/67/67 65/65/65 69/69/69
f 69/69/69 44/44/44 35/35/35
f 69/69/69 35/35/35 70/70/70
f 69/69/69 70/70/70 67/67/67
f 32/32/32 70/70/70 35/35/35
f 71/71/71 66/66/66 64/64/64
f 71/71/71 64/64/64 67/67/67
f 72/72/72 13/13/13 66/66/66
f 72/72/72 66/66/66 71/71/71
f 73/73/73 67/67/67 70/70/70
f 73/73/73 71/71/71 67/67/67
f 74/74/74 13/13/13 72/72/72
f 74/74/74 20/20/20 13/13/13
f 72/72/72 71/71/71 75/75/75
f 73/73/73 75/75/75 71/71/71
f 75/75/75 74/74/74 72/72/72
f 76/76/76 73/73/73 70/70/70
f 32/32/32 76/76/76 70/70/70
f 77/77/77 75/75/75 73/73/73
f 76/76/76 77/77/77 73/73/73
f 74/74/74 75/75/75 77/77/77
f 77/77/77 76/76/76 32/32/32
f 32/32/32 20/20/20 78/78/78
f 78/78/78 20/20/20 74/74/74
f 74/74/74 77/77/77 78/78/78
f 78/78/78 77/77/77 32/32/32
