g growthStem02
v 0.50422746 3.4333444 0.14560083
v 0.8573878 3.1311162 0.29063156
v 0.6687555 3.5773647 0.23821771
v 0.44488165 3.71157 0.42177296
v 0.8269706 3.4560246 0.56764424
v 0.38286567 3.4680498 0.68327993
v 0.29485697 3.4376287 0.29607892
v 0.70842975 3.0396795 0.7309092
v 0.35811102 1.4060174 0.19734178
v 0.24062929 1.6850866 0.32373223
v 0.14487693 0.7411288 0.29219162
v 0.028153777 1.6388863 0.24573967
v 0.32479805 2.9107296 0.45021385
v 0.3927811 2.760177 0.18860823
v 0.23105644 2.204945 0.3078396
v 0.70800817 2.8343282 0.15300441
v 0.25426626 2.2543058 0.042063925
v 0.6796325 2.3623562 0.22307652
v 0.55996174 2.6649804 0.05581383
v 0.5562175 2.1522062 0.04970515
v 0.31145784 1.7807478 -0.10571341
v 0.42074805 1.4837848 -0.0151165305
v -0.012353182 1.3624438 -0.10008101
v 0.11289191 1.0980148 -0.18931751
v 0.15027219 0.6075019 -0.28004465
v 0.34945536 0.8891537 -0.04525586
v 0.40800777 0.67119473 0.16322288
v 0.49054694 0.49962187 0.013226263
v 0.41666678 0.028442862 0.38208327
v -0.020970821 1.2107229 0.197243
v -0.18195105 0.9981355 0.117662154
v -0.22601223 0.70975304 -0.06256997
v -0.25614262 0.3960061 0.33949128
v -0.37908852 0.20662303 -0.2533312
v -0.498707 0.06524746 -0.090079986
v -0.06303958 0.022976479 0.5022661
v -0.39936766 -0.105359994 0.2521019
v -0.28967306 0.003834782 -0.4701638
v -0.008077383 -0.4213869 0.21772869
v -0.3386483 -0.29853868 -0.10870094
v 0.020714939 -0.07794716 -0.51094806
v -0.005427003 -0.4699991 -0.07193343
v 0.3565409 -0.3274107 0.024111442
v 0.30426487 -0.09173411 -0.39200673
v 0.4950965 -0.039473068 -0.074250184
vt 0 0
vt 0 0
vt 0 0
vt 0 0
vt 0 0
vt 0 0
vt 0 0
vt 0 0
vt 0 0
vt 0 0
vt 0 0
vt 0 0
vt 0 0
vt 0 0
vt 0 0
vt 0 0
vt 0 0
vt 0 0
vt 0 0
vt 0 0
vt 0 0
vt 0 0
vt 0 0
vt 0 0
vt 0 0
vt 0 0
vt 0 0
vt 0 0
vt 0 0
vt 0 0
vt 0 0
vt 0 0
vt 0 0
vt 0 0
vt 0 0
vt 0 0
vt 0 0
vt 0 0
vt 0 0
vt 0 0
vt 0 0
vt 0 0
vt 0 0
vt 0 0
vt 0 0
vn -0.14111583 0.20008862 -0.96956223
vn 0.98637706 -0.16397037 -0.013194145
vn 0.5831657 0.61649317 -0.52901214
vn -0.1832668 0.9598959 0.21216322
vn 0.7686449 0.41412693 0.48752823
vn -0.45775598 0.15017784 0.8763025
vn -0.9397433 0.17685294 -0.2925844
vn 0.40293244 -0.26069692 0.87731546
vn 0.8104426 -0.20883611 0.5473301
vn -0.035765175 -0.20322137 0.9784793
vn 0.12605286 0.20381732 0.97086
vn -0.9036969 0.2567891 0.34262425
vn -0.99958664 0.028421625 -0.004343826
vn -0.7275127 0.15752992 -0.66776466
vn -0.9575877 0.19788964 0.20944089
vn 0.3991558 -0.011813393 -0.916807
vn -0.6793645 0.2759486 -0.6799384
vn 0.97317374 -0.19127822 0.12784968
vn 0.12548506 0.20168805 -0.97137815
vn 0.5407516 0.027907519 -0.8407192
vn -0.25143933 0.19883323 -0.94722944
vn 0.91021943 -0.1749817 -0.37534243
vn -0.72016627 0.32889986 -0.61088914
vn -0.07423196 0.17830896 -0.9811705
vn 0.23538429 0.21849316 -0.94702435
vn 0.89533794 0.033877924 -0.4440971
vn 0.75290287 0.19066346 0.6299085
vn 0.9382296 0.13315225 -0.31936735
vn 0.60103285 -0.12801401 0.78890556
vn -0.7775251 0.1401475 0.61303616
vn -0.8395946 0.3118353 0.44479164
vn -0.9027755 0.34786913 -0.2529493
vn -0.6541133 0.32396123 0.6835093
vn -0.6519615 0.41603172 -0.63392735
vn -0.99845564 0.05549527 0.002561298
vn -0.06090377 -0.1115467 0.99189115
vn -0.77419394 -0.30691013 0.5535611
vn -0.4492721 -0.014137095 -0.8932832
vn -0.026481831 -0.7891034 0.6136893
vn -0.64620745 -0.71970487 -0.25385177
vn 0.07696384 -0.19957136 -0.97685605
vn -0.0131299365 -0.9304283 -0.3662386
vn 0.6552613 -0.751905 0.0726053
vn 0.6361993 -0.16261145 -0.7541936
vn 0.96463203 -0.06511802 -0.25543028
g growthStem02_0
f 3/3/3 2/2/2 1/1/1
f 4/4/4 3/3/3 1/1/1
f 5/5/5 2/2/2 3/3/3
f 3/3/3 4/4/4 5/5/5
f 5/5/5 4/4/4 6/6/6
f 7/7/7 4/4/4 1/1/1
f 7/7/7 6/6/6 4/4/4
f 2/2/2 5/5/5 8/8/8
f 8/8/8 5/5/5 6/6/6
f 2/2/2 8/8/8 9/9/9
f 10/10/10 8/8/8 6/6/6
f 8/8/8 10/10/10 9/9/9
f 9/9/9 10/10/10 11/11/11
f 11/11/11 10/10/10 12/12/12
f 6/6/6 7/7/7 13/13/13
f 13/13/13 10/10/10 6/6/6
f 14/14/14 7/7/7 1/1/1
f 13/13/13 7/7/7 14/14/14
f 15/15/15 10/10/10 13/13/13
f 15/15/15 12/12/12 10/10/10
f 14/14/14 15/15/15 13/13/13
f 1/1/1 2/2/2 16/16/16
f 16/16/16 14/14/14 1/1/1
f 14/14/14 17/17/17 15/15/15
f 15/15/15 17/17/17 12/12/12
f 2/2/2 18/18/18 16/16/16
f 18/18/18 2/2/2 9/9/9
f 19/19/19 14/14/14 16/16/16
f 14/14/14 19/19/19 17/17/17
f 16/16/16 18/18/18 19/19/19
f 20/20/20 17/17/17 19/19/19
f 19/19/19 18/18/18 20/20/20
f 17/17/17 20/20/20 21/21/21
f 17/17/17 21/21/21 12/12/12
f 22/22/22 20/20/20 18/18/18
f 18/18/18 9/9/9 22/22/22
f 20/20/20 22/22/22 21/21/21
f 23/23/23 12/12/12 21/21/21
f 21/21/21 22/22/22 24/24/24
f 24/24/24 23/23/23 21/21/21
f 25/25/25 24/24/24 22/22/22
f 22/22/22 26/26/26 25/25/25
f 22/22/22 9/9/9 26/26/26
f 9/9/9 27/27/27 26/26/26
f 9/9/9 11/11/11 27/27/27
f 27/27/27 28/28/28 26/26/26
f 26/26/26 28/28/28 25/25/25
f 28/28/28 27/27/27 29/29/29
f 27/27/27 11/11/11 29/29/29
f 30/30/30 12/12/12 23/23/23
f 30/30/30 11/11/11 12/12/12
f 31/31/31 30/30/30 23/23/23
f 30/30/30 31/31/31 11/11/11
f 32/32/32 23/23/23 24/24/24
f 32/32/32 31/31/31 23/23/23
f 11/11/11 31/31/31 33/33/33
f 31/31/31 32/32/32 33/33/33
f 32/32/32 24/24/24 34/34/34
f 24/24/24 25/25/25 34/34/34
f 35/35/35 32/32/32 34/34/34
f 33/33/33 32/32/32 35/35/35
f 11/11/11 33/33/33 36/36/36
f 36/36/36 29/29/29 11/11/11
f 37/37/37 36/36/36 33/33/33
f 37/37/37 33/33/33 35/35/35
f 35/35/35 34/34/34 38/38/38
f 34/34/34 25/25/25 38/38/38
f 36/36/36 37/37/37 39/39/39
f 39/39/39 29/29/29 36/36/36
f 40/40/40 37/37/37 35/35/35
f 40/40/40 35/35/35 38/38/38
f 39/39/39 37/37/37 40/40/40
f 40/40/40 38/38/38 41/41/41
f 38/38/38 25/25/25 41/41/41
f 42/42/42 39/39/39 40/40/40
f 41/41/41 42/42/42 40/40/40
f 39/39/39 43/43/43 29/29/29
f 39/39/39 42/42/42 43/43/43
f 44/44/44 42/42/42 41/41/41
f 41/41/41 25/25/25 44/44/44
f 42/42/42 44/44/44 43/43/43
f 45/45/45 29/29/29 43/43/43
f 44/44/44 45/45/45 43/43/43
f 44/44/44 25/25/25 45/45/45
f 28/28/28 29/29/29 45/45/45
f 25/25/25 28/28/28 45/45/45
