g hall_y6_A_x8
v -0.4119141 0.05649233 2.275051
v -0.29962468 0.17274904 2.1122894
v -0.21742558 0.05649233 2.1944904
v -0.4119141 0.17274904 2.158801
v -0.4119141 0.21529818 2
v -0.60640264 0.05649233 2.1944904
v -0.52420354 0.17274904 2.1122894
v -0.4119141 0.21529818 2
v -0.68696904 0.05649233 2
v -0.5707123 0.17274904 2
v -0.60640264 0.05649233 1.8055096
v -0.52420354 0.17274904 1.8877106
v -0.4119141 0.05649233 1.7249489
v -0.4119141 0.21529818 2
v -0.4119141 0.17274904 1.8411989
v -0.21742558 0.05649233 1.8055096
v -0.29962468 0.17274904 1.8877106
v -0.13686681 0.05649233 2
v -0.2531159 0.17274904 2
v -0.21742558 0.05649233 2.1944904
v -0.29962468 0.17274904 2.1122894
v -0.4119141 0.21529818 2
v -0.4119141 0.05649233 6.275051
v -0.29962468 0.17274904 6.1122894
v -0.21742558 0.05649233 6.1944904
v -0.4119141 0.17274904 6.158801
v -0.4119141 0.21529818 6
v -0.60640264 0.05649233 6.1944904
v -0.52420354 0.17274904 6.1122894
v -0.4119141 0.21529818 6
v -0.68696904 0.05649233 6
v -0.5707123 0.17274904 6
v -0.60640264 0.05649233 5.8055096
v -0.52420354 0.17274904 5.8877106
v -0.4119141 0.05649233 5.724949
v -0.4119141 0.21529818 6
v -0.4119141 0.17274904 5.841199
v -0.21742558 0.05649233 5.8055096
v -0.29962468 0.17274904 5.8877106
v -0.13686681 0.05649233 6
v -0.2531159 0.17274904 6
v -0.21742558 0.05649233 6.1944904
v -0.29962468 0.17274904 6.1122894
v -0.4119141 0.21529818 6
v 0.83491945 5.8531713 5.998707
v 0.92705154 5.8531713 7.99957
v 1.7633567 5.4270525 7.99957
v 1.6712246 5.4270525 5.998707
v 0.92705154 5.8531713 3.9991379
v 2.4270525 4.7633567 7.99957
v 1.7633567 5.4270525 3.9991379
v 2.3349204 4.7633567 5.998707
v 2.8531713 3.9270515 7.99957
v 2.4270525 4.7633567 3.9991379
v 2.7610393 3.9270515 5.998707
v 3 3 7.99957
v 2.8531713 3.9270515 3.9991379
v 2.907868 3 5.998707
v 2.8531694 2.072949 7.99957
v 3 3 3.9991379
v 2.7610378 2.072949 5.998707
v 2.427051 1.236644 7.99957
v 2.8531694 2.072949 3.9991379
v 2.334919 1.236644 5.998707
v 2.427051 1.236644 3.9991379
v 0.83491945 5.8531713 1.9995689
v 0.92705154 5.8531713 3.9991379
v 1.7633567 5.4270525 3.9991379
v 1.6712246 5.4270525 1.9995689
v 2.4270525 4.7633567 3.9991379
v 1.7633567 5.4270525 0
v 0.92705154 5.8531713 0
v 2.4270525 4.7633567 0
v 2.3349204 4.7633567 1.9995689
v 2.8531713 3.9270515 3.9991379
v 2.8531713 3.9270515 0
v 2.7610393 3.9270515 1.9995689
v 3 3 3.9991379
v 3 3 0
v 2.907868 3 1.9995689
v 2.8531694 2.072949 3.9991379
v 2.8531694 2.072949 0
v 2.7610378 2.072949 1.9995689
v 2.427051 1.236644 3.9991379
v 2.427051 1.236644 0
v 2.334919 1.236644 1.9995689
v -0.017399073 0.30226442 7.9995775
v 0.004143715 0.049232114 7.999578
v 0.004143715 0.049232114 5.9996834
v -0.017399192 0.3022644 5.9996834
v 0.06284475 0.47262478 5.9996834
v 0.06284499 0.47262478 7.9995775
v 1.4647636 1.4430119 7.9995723
v -0.017399311 0.3022644 3.9997888
v 0.004143715 0.049232114 3.9997888
v 0.062844515 0.47262478 3.9997888
v -0.01739955 0.3022644 1.999894
v 0.004143715 0.049232114 1.999894
v -0.017399788 0.30226436 -7.1525574E-07
v 0.004143715 0.049232114 -7.1525574E-07
v 0.06284404 0.47262478 -7.1525574E-07
v 0.06284428 0.47262478 1.999894
v 1.4647632 1.4430119 -2.3841858E-07
v 1.4647634 1.4430119 1.999893
v 1.6445131 1.4991533 -2.3841858E-07
v 1.4647636 1.4430119 3.9997861
v 1.6445131 1.4991533 1.9998928
v 2.3624697 1.4991533 -2.3841858E-07
v 1.4647636 1.4430119 5.999679
v 1.6445131 1.4991533 3.999786
v 2.3624697 1.4991533 1.999891
v 2.853169 1.3333822 -2.3841858E-07
v 2.8531692 1.3333822 1.99989
v 1.6445131 1.4991533 5.9996786
v 1.6445131 1.4991533 7.999572
v 2.3624697 1.4991533 7.9995646
v 2.3624697 1.4991533 3.9997823
v 2.8531694 1.3333822 3.9997802
v 2.3624697 1.4991533 5.9996734
v 2.85317 1.3333822 7.9995604
v 2.8531697 1.3333822 5.99967
v -0.7311964 0.049232114 7.999572
v -0.8370161 -3.5527137E-15 7.999572
v -0.8370161 -3.5527137E-15 5.9996786
v -0.7311964 0.049232114 5.9996786
v -0.11439586 0.08771923 7.9995775
v -0.11439586 0.08771923 5.999683
v -0.11439586 0.08771923 3.9997885
v -0.7311964 0.049232114 3.999786
v -0.8370161 -3.5527137E-15 3.999786
v -0.11439586 0.08771923 1.9998939
v -0.7311964 0.049232114 1.9998926
v -0.11439586 0.08771923 -7.1525574E-07
v -0.8370161 -3.5527137E-15 1.9998926
v -0.7311964 0.049232114 -7.1525574E-07
v -0.8370161 -3.5527137E-15 -7.1525574E-07
v 0.004143715 0.049232114 7.999578
v -0.11439586 0.08771923 7.9995775
v -0.11439586 0.08771923 5.999683
v 0.004143715 0.049232114 5.9996834
v 0.004143715 0.049232114 3.9997888
v -0.11439586 0.08771923 3.9997885
v 0.004143715 0.049232114 1.999894
v -0.11439586 0.08771923 1.9998939
v -0.11439586 0.08771923 -7.1525574E-07
v 0.004143715 0.049232114 -7.1525574E-07
v 0.004143715 5.950768 5.9996834
v 0.004143715 5.950768 7.999578
v 0.11810675 5.76811 7.9995775
v 0.11810656 5.76811 5.999683
v 0.004143715 5.950768 3.9997888
v 0.2540979 5.659594 7.999577
v 0.118106365 5.76811 3.9997883
v 0.004143715 5.950768 1.999894
v 0.2540977 5.659594 5.9996824
v 1.2424079 5.316636 7.9995723
v 1.2424079 5.316636 5.999679
v 1.4163787 5.314799 7.9995713
v 0.25409746 5.659594 3.9997883
v 0.11810617 5.76811 1.9998938
v 1.4163787 5.314799 5.9996786
v 1.7633567 5.4270525 7.99957
v 1.7633567 5.4270525 5.9996777
v 0.11810598 5.76811 -7.1525574E-07
v 0.004143715 5.950768 -7.1525574E-07
v 0.25409722 5.659594 1.9998938
v 0.254097 5.659594 -6.794945E-07
v 1.2424079 5.316636 -2.73983E-07
v 1.2424079 5.316636 3.999786
v 1.4163787 5.314799 3.9997857
v 1.7633567 5.4270525 3.999785
v 1.2424079 5.316636 1.9998928
v 1.4163787 5.314799 1.9998927
v 1.7633567 5.4270525 1.9998925
v 1.4163787 5.314799 -1.9049381E-07
v 1.7633567 5.4270525 0
v -0.7311969 5.950768 7.999572
v -0.8370166 6 5.9996786
v -0.8370166 6 7.999572
v -0.7311969 5.950768 5.9996786
v 0.004143715 5.950768 7.999578
v -0.8370166 6 3.9997854
v 0.004143715 5.950768 5.9996834
v -0.7311969 5.950768 3.9997854
v -0.8370166 6 1.9998924
v 0.004143715 5.950768 3.9997888
v -0.7311969 5.950768 1.9998924
v -0.8370166 6 -7.1525574E-07
v 0.004143715 5.950768 1.999894
v -0.7311969 5.950768 -7.1525574E-07
v 0.004143715 5.950768 -7.1525574E-07
vt 0.52890575 0.3821129
vt 0.50658154 0.32012755
vt 0.50658154 0.3821129
vt 0.5289057 0.32012755
vt 0.5958781 0.24765545
vt 0.55122983 0.3821129
vt 0.55122983 0.32012755
vt 0.5958781 0.24765539
vt 0.57355404 0.3821129
vt 0.57355404 0.32012755
vt 0.59587824 0.3821129
vt 0.59587824 0.32012755
vt 0.6182023 0.3821129
vt 0.5958781 0.24765545
vt 0.6182023 0.32012755
vt 0.64052653 0.3821129
vt 0.64052653 0.32012755
vt 0.6628506 0.3821129
vt 0.6628506 0.32012755
vt 0.6851748 0.38211283
vt 0.6851748 0.32012755
vt 0.5958781 0.24765539
vt 0.52890575 0.3821129
vt 0.50658154 0.32012755
vt 0.50658154 0.3821129
vt 0.5289057 0.32012755
vt 0.5958781 0.24765545
vt 0.55122983 0.3821129
vt 0.55122983 0.32012755
vt 0.5958781 0.24765539
vt 0.57355404 0.3821129
vt 0.57355404 0.32012755
vt 0.59587824 0.3821129
vt 0.59587824 0.32012755
vt 0.6182023 0.3821129
vt 0.5958781 0.24765545
vt 0.6182023 0.32012755
vt 0.64052653 0.3821129
vt 0.64052653 0.32012755
vt 0.6628506 0.3821129
vt 0.6628506 0.32012755
vt 0.6851748 0.38211283
vt 0.6851748 0.32012755
vt 0.5958781 0.24765539
vt 0.4384448 0.04705684
vt 0.4384448 -0.002878666
vt 0.44888473 -0.0028786883
vt 0.44888473 0.04705682
vt 0.43844482 0.09699238
vt 0.45930618 -0.0028786883
vt 0.44888473 0.09699236
vt 0.45930618 0.04705685
vt 0.46972755 -0.0028786846
vt 0.45930618 0.096992366
vt 0.46972755 0.047056835
vt 0.48014897 -0.0028786864
vt 0.46972758 0.09699236
vt 0.48014897 0.047056817
vt 0.4905704 -0.0028786603
vt 0.48014897 0.09699237
vt 0.4905704 0.047056805
vt 0.50101036 -0.0028786678
vt 0.4905704 0.09699238
vt 0.50101036 0.047056835
vt 0.50101036 0.09699236
vt 0.4384448 0.04705687
vt 0.43844482 -0.0028787255
vt 0.44888473 -0.0028787404
vt 0.44888473 0.047056854
vt 0.45930618 -0.0028787255
vt 0.44888473 0.0969924
vt 0.43844482 0.0969924
vt 0.4593062 0.09699241
vt 0.4593062 0.047056857
vt 0.46972758 -0.0028787293
vt 0.46972758 0.09699243
vt 0.4697276 0.04705689
vt 0.48014897 -0.0028787274
vt 0.480149 0.09699243
vt 0.480149 0.047056884
vt 0.4905704 -0.00287872
vt 0.4905704 0.0969924
vt 0.4905704 0.047056854
vt 0.50101036 -0.0028787311
vt 0.5010104 0.09699239
vt 0.50101036 0.047056887
vt 0.56015253 0.37228277
vt 0.5601525 0.37946868
vt 0.65384936 0.37946868
vt 0.6538494 0.3722828
vt 0.6538495 0.364147
vt 0.5601526 0.36414698
vt 0.5601528 0.2849191
vt 0.7475463 0.3722828
vt 0.7475463 0.3794687
vt 0.7475463 0.36414704
vt 0.8412432 0.37228283
vt 0.8412432 0.37946874
vt 0.9349401 0.37228286
vt 0.9349401 0.37946874
vt 0.9349401 0.3641471
vt 0.8412432 0.36414707
vt 0.93494 0.28491917
vt 0.8412432 0.28491914
vt 0.93494 0.2769022
vt 0.74754643 0.28491914
vt 0.8412432 0.2769022
vt 0.93494 0.2519135
vt 0.6538496 0.28491914
vt 0.74754643 0.27690217
vt 0.84124327 0.25191346
vt 0.93494004 0.23483449
vt 0.8412434 0.23483446
vt 0.6538496 0.27690214
vt 0.5601528 0.27690214
vt 0.5601531 0.25191337
vt 0.74754655 0.25191343
vt 0.7475467 0.23483443
vt 0.65384984 0.2519134
vt 0.56015337 0.23483437
vt 0.65385 0.2348344
vt -0.30902046 0.3696759
vt -0.30902046 0.3761106
vt -0.1960941 0.3761106
vt -0.1960941 0.36967587
vt -0.30902076 0.3336727
vt -0.1960943 0.3336727
vt -0.083167836 0.33367267
vt -0.08316773 0.36967587
vt -0.08316773 0.37611058
vt 0.02975858 0.3336727
vt 0.029758662 0.36967587
vt 0.142685 0.33367273
vt 0.029758662 0.3761106
vt 0.14268506 0.36967587
vt 0.14268506 0.37611067
vt 0.14268494 0.37785277
vt 0.14268494 0.36983535
vt 0.02975849 0.36983538
vt 0.029758494 0.37785277
vt -0.08316795 0.37785277
vt -0.083167955 0.3698354
vt -0.19609435 0.37785274
vt -0.19609436 0.36983532
vt -0.30902076 0.36983523
vt -0.30902076 0.3778527
vt 1.7293596 0.3774321
vt 1.8693732 0.3774321
vt 1.8693732 0.36510304
vt 1.7293596 0.365103
vt 1.5893462 0.37743208
vt 1.8693732 0.35308027
vt 1.5893462 0.365103
vt 1.4493327 0.37743205
vt 1.7293596 0.35308027
vt 1.8693728 0.2766583
vt 1.7293594 0.27665833
vt 1.8693728 0.26464435
vt 1.5893462 0.35308027
vt 1.4493327 0.365103
vt 1.7293594 0.26464432
vt 1.8693726 0.24353136
vt 1.7293594 0.24353135
vt 1.3093193 0.365103
vt 1.3093191 0.37743205
vt 1.4493327 0.35308027
vt 1.3093193 0.35308027
vt 1.309319 0.27665842
vt 1.5893459 0.27665836
vt 1.5893459 0.26464427
vt 1.5893462 0.24353132
vt 1.4493325 0.2766584
vt 1.4493325 0.26464424
vt 1.449333 0.2435313
vt 1.309319 0.2646442
vt 1.3093197 0.24353129
vt -0.3121841 0.37167117
vt -0.4249091 0.37809438
vt -0.3121841 0.37809435
vt -0.4249091 0.3716712
vt -0.31218374 0.33120188
vt -0.53763413 0.37809438
vt -0.42490885 0.33120185
vt -0.53763413 0.3716712
vt -0.65035915 0.37809438
vt -0.53763396 0.33120185
vt -0.65035915 0.3716712
vt -0.7630842 0.37809438
vt -0.65035903 0.33120185
vt -0.7630842 0.3716712
vt -0.7630842 0.33120185
vn -0 0.7070851 0.7071284
vn 0.44878265 0.77278507 0.44877324
vn 0.5000179 0.7070841 0.5000141
vn -0 0.77278686 0.63466567
vn -0 1 0
vn -0.5000124 0.70708835 0.50001365
vn -0.44877705 0.7727874 0.44877476
vn -0 1 0
vn -0.7071191 0.70709443 0
vn -0.6346589 0.7727924 0
vn -0.5000124 0.7070883 -0.50001365
vn -0.44877702 0.77278733 -0.4487748
vn -0 0.7070851 -0.7071284
vn -0 1 0
vn -0 0.77278686 -0.6346657
vn 0.5000179 0.7070841 -0.5000141
vn 0.44878265 0.77278507 -0.44877324
vn 0.7071337 0.70707977 0
vn 0.6346704 0.772783 0
vn 0.5000179 0.7070841 0.5000141
vn 0.44878265 0.77278507 0.44877324
vn -0 1 0
vn -0 0.7070851 0.7071284
vn 0.44878307 0.7727848 0.44877315
vn 0.50001836 0.70708394 0.50001395
vn -0 0.77278686 0.63466567
vn -0 1 0
vn -0.5000128 0.7070881 0.5000135
vn -0.4487774 0.7727873 0.4487747
vn -0 1 0
vn -0.7071197 0.7070938 0
vn -0.63465923 0.77279204 0
vn -0.5000128 0.7070881 -0.5000136
vn -0.4487775 0.7727872 -0.44877476
vn -0 0.7070851 -0.7071284
vn -0 1 0
vn -0 0.77278686 -0.6346657
vn 0.50001836 0.70708394 -0.5000139
vn 0.44878307 0.7727848 -0.4487731
vn 0.7071343 0.70707923 0
vn 0.63467085 0.7727826 0
vn 0.50001836 0.70708394 0.50001395
vn 0.44878307 0.7727848 0.44877315
vn -0 1 0
vn -0.45399052 -0.8910065 0
vn -0.45389128 -0.89081186 0.02089995
vn -0.59056973 -0.8065284 0.027193477
vn -0.58478945 -0.8111851 0
vn -0.45389134 -0.8908116 -0.020913467
vn -0.8100386 -0.5851889 0.03729921
vn -0.5905714 -0.8065265 -0.02721115
vn -0.8074366 -0.58995444 0
vn -0.95058334 -0.30736864 0.043770753
vn -0.810039 -0.58518696 -0.037323337
vn -0.9506202 -0.31035677 0
vn -0.9989416 0 0.04599738
vn -0.95058244 -0.30736744 -0.043799013
vn -1 0 0
vn -0.95058304 0.3073695 0.04377062
vn -0.99894017 0 -0.04602707
vn -0.9506199 0.3103575 0
vn -0.8902576 0.45360878 0.040992886
vn -0.95058215 0.30736825 -0.04379889
vn -0.8910066 0.45399028 0
vn -0.89025664 0.4536082 -0.041019376
vn -0.45399058 -0.8910064 0
vn -0.45389128 -0.8908116 0.020913467
vn -0.5905714 -0.8065265 0.02721115
vn -0.58478856 -0.81118584 0
vn -0.810039 -0.58518696 0.037323374
vn -0.5905714 -0.8065265 -0.027211213
vn -0.45389128 -0.8908116 -0.020913599
vn -0.810039 -0.58518696 -0.037323378
vn -0.80743605 -0.58995515 0
vn -0.95058244 -0.30736744 0.04379904
vn -0.95058244 -0.30736744 -0.04379905
vn -0.95061994 -0.31035715 0
vn -0.99894017 0 0.046027083
vn -0.99894017 0 -0.046027083
vn -1 0 0
vn -0.95058215 0.30736825 0.043798897
vn -0.95058215 0.30736825 -0.043798897
vn -0.95061976 0.31035802 0
vn -0.89025664 0.4536082 0.041019376
vn -0.89025664 0.4536082 -0.041019376
vn -0.8910066 0.45399028 0
vn -0.9905253 0.13733096 0
vn -0.9963953 -0.08483184 0
vn -0.9963953 -0.08483207 0
vn -0.9905253 0.13733084 0
vn -0.6099197 0.7924631 0
vn -0.6099197 0.7924632 0
vn -0.54440814 0.83882046 0
vn -0.9905253 0.13733025 0
vn -0.9963952 -0.08483265 0
vn -0.6099198 0.7924631 0
vn -0.99052536 0.13732968 0
vn -0.9963952 -0.08483346 0
vn -0.99052536 0.13732941 0
vn -0.99639505 -0.08483393 0
vn -0.6099197 0.7924631 0
vn -0.6099197 0.7924631 0
vn -0.544408 0.83882064 0
vn -0.544408 0.8388205 0
vn -0.062416777 0.9980502 0
vn -0.5444081 0.8388205 0
vn -0.062416777 0.9980502 0
vn 0.13588107 0.9907252 0
vn -0.5444081 0.8388205 0
vn -0.0624168 0.9980502 0
vn 0.135881 0.9907252 0
vn 0.3200559 0.94739866 0
vn 0.32005572 0.94739866 0
vn -0.062416807 0.9980502 0
vn -0.062417187 0.9980502 0
vn 0.13587995 0.99072534 0
vn 0.13588104 0.9907252 0
vn 0.3200557 0.9473988 0
vn 0.13588096 0.9907252 0
vn 0.3200552 0.9473989 0
vn 0.32005548 0.9473988 0
vn -0.120505586 0.9927127 0
vn -0.42182696 0.9066764 0
vn -0.42182696 0.9066764 0
vn -0.12050586 0.9927126 0
vn -0 1 0
vn -0 1 0
vn -0 1 0
vn -0.12050586 0.9927126 0
vn -0.42182696 0.9066764 0
vn -0 1 0
vn -0.12050586 0.9927126 0
vn -0 1 0
vn -0.42182696 0.9066764 0
vn -0.12050585 0.9927126 0
vn -0.42182696 0.9066764 0
vn 0.30880845 0.9511243 0
vn -0 1 0
vn -0 1 0
vn 0.3088085 0.9511243 0
vn 0.30880854 0.9511242 0
vn -0 1 0
vn 0.30880854 0.9511242 0
vn -0 1 0
vn -0 1 0
vn 0.30880857 0.9511242 0
vn -0.84841245 -0.5293357 0
vn -0.84841233 -0.5293361 0
vn -0.75877184 -0.6513566 0
vn -0.75877184 -0.6513565 0
vn -0.848413 -0.52933496 0
vn -0.37263808 -0.92797685 0
vn -0.7587722 -0.65135616 0
vn -0.84841335 -0.52933437 0
vn -0.37263784 -0.9279769 0
vn -0.28440386 -0.95870465 0
vn -0.28440356 -0.95870477 0
vn 0.20734587 -0.97826767 0
vn -0.37263775 -0.9279769 0
vn -0.75877243 -0.65135586 0
vn 0.20734628 -0.97826755 0
vn 0.30781063 -0.9514477 0
vn 0.30781063 -0.9514477 0
vn -0.75877255 -0.6513556 0
vn -0.8484135 -0.52933407 0
vn -0.37263766 -0.9279769 0
vn -0.37263763 -0.9279769 0
vn -0.2844034 -0.95870477 0
vn -0.28440347 -0.95870477 0
vn 0.20734632 -0.97826755 0
vn 0.30781063 -0.9514476 0
vn -0.2844034 -0.95870477 0
vn 0.20734625 -0.97826755 0
vn 0.3078106 -0.9514477 0
vn 0.20734623 -0.97826767 0
vn 0.3078106 -0.9514477 0
vn -0.058428414 -0.99829155 0
vn -0.42182615 -0.90667665 0
vn -0.42182615 -0.90667665 0
vn -0.058428686 -0.99829155 0
vn -0 -1 0
vn -0.42182612 -0.90667665 0
vn -0 -1 0
vn -0.058428667 -0.99829155 0
vn -0.42182612 -0.90667665 0
vn -0 -1 0
vn -0.05842867 -0.99829155 0
vn -0.42182615 -0.90667665 0
vn -0 -1 0
vn -0.058428675 -0.99829155 0
vn -0 -1 0
g hall_y6_A_x8_0
f 3/3/3 2/2/2 1/1/1
f 2/2/2 4/4/4 1/1/1
f 2/2/2 5/5/5 4/4/4
f 1/1/1 4/4/4 6/6/6
f 4/4/4 7/7/7 6/6/6
f 4/4/4 8/8/8 7/7/7
f 6/6/6 7/7/7 9/9/9
f 7/7/7 8/8/8 10/10/10
f 7/7/7 10/10/10 9/9/9
f 9/9/9 10/10/10 11/11/11
f 10/10/10 12/12/12 11/11/11
f 11/11/11 12/12/12 13/13/13
f 10/10/10 14/14/14 12/12/12
f 12/12/12 15/15/15 13/13/13
f 12/12/12 14/14/14 15/15/15
f 13/13/13 15/15/15 16/16/16
f 15/15/15 14/14/14 17/17/17
f 15/15/15 17/17/17 16/16/16
f 16/16/16 17/17/17 18/18/18
f 17/17/17 14/14/14 19/19/19
f 17/17/17 19/19/19 18/18/18
f 18/18/18 19/19/19 20/20/20
f 19/19/19 21/21/21 20/20/20
f 19/19/19 22/22/22 21/21/21
f 25/25/25 24/24/24 23/23/23
f 24/24/24 26/26/26 23/23/23
f 24/24/24 27/27/27 26/26/26
f 23/23/23 26/26/26 28/28/28
f 26/26/26 29/29/29 28/28/28
f 26/26/26 30/30/30 29/29/29
f 28/28/28 29/29/29 31/31/31
f 29/29/29 30/30/30 32/32/32
f 29/29/29 32/32/32 31/31/31
f 31/31/31 32/32/32 33/33/33
f 32/32/32 34/34/34 33/33/33
f 33/33/33 34/34/34 35/35/35
f 32/32/32 36/36/36 34/34/34
f 34/34/34 37/37/37 35/35/35
f 34/34/34 36/36/36 37/37/37
f 35/35/35 37/37/37 38/38/38
f 37/37/37 36/36/36 39/39/39
f 37/37/37 39/39/39 38/38/38
f 38/38/38 39/39/39 40/40/40
f 39/39/39 36/36/36 41/41/41
f 39/39/39 41/41/41 40/40/40
f 40/40/40 41/41/41 42/42/42
f 41/41/41 43/43/43 42/42/42
f 41/41/41 44/44/44 43/43/43
f 47/47/47 46/46/46 45/45/45
f 48/48/48 47/47/47 45/45/45
f 48/48/48 45/45/45 49/49/49
f 50/50/50 47/47/47 48/48/48
f 51/51/51 48/48/48 49/49/49
f 52/52/52 50/50/50 48/48/48
f 52/52/52 48/48/48 51/51/51
f 53/53/53 50/50/50 52/52/52
f 54/54/54 52/52/52 51/51/51
f 55/55/55 53/53/53 52/52/52
f 55/55/55 52/52/52 54/54/54
f 56/56/56 53/53/53 55/55/55
f 57/57/57 55/55/55 54/54/54
f 58/58/58 56/56/56 55/55/55
f 58/58/58 55/55/55 57/57/57
f 59/59/59 56/56/56 58/58/58
f 60/60/60 58/58/58 57/57/57
f 61/61/61 59/59/59 58/58/58
f 61/61/61 58/58/58 60/60/60
f 62/62/62 59/59/59 61/61/61
f 63/63/63 61/61/61 60/60/60
f 64/64/64 62/62/62 61/61/61
f 64/64/64 61/61/61 63/63/63
f 65/65/65 64/64/64 63/63/63
f 68/68/68 67/67/67 66/66/66
f 69/69/69 68/68/68 66/66/66
f 70/70/70 68/68/68 69/69/69
f 69/69/69 66/66/66 71/71/71
f 66/66/66 72/72/72 71/71/71
f 69/69/69 71/71/71 73/73/73
f 74/74/74 70/70/70 69/69/69
f 74/74/74 69/69/69 73/73/73
f 75/75/75 70/70/70 74/74/74
f 74/74/74 73/73/73 76/76/76
f 77/77/77 75/75/75 74/74/74
f 77/77/77 74/74/74 76/76/76
f 78/78/78 75/75/75 77/77/77
f 77/77/77 76/76/76 79/79/79
f 80/80/80 78/78/78 77/77/77
f 80/80/80 77/77/77 79/79/79
f 81/81/81 78/78/78 80/80/80
f 80/80/80 79/79/79 82/82/82
f 83/83/83 81/81/81 80/80/80
f 83/83/83 80/80/80 82/82/82
f 84/84/84 81/81/81 83/83/83
f 83/83/83 82/82/82 85/85/85
f 86/86/86 84/84/84 83/83/83
f 86/86/86 83/83/83 85/85/85
f 89/89/89 88/88/88 87/87/87
f 90/90/90 89/89/89 87/87/87
f 90/90/90 87/87/87 91/91/91
f 87/87/87 92/92/92 91/91/91
f 91/91/91 92/92/92 93/93/93
f 90/90/90 94/94/94 89/89/89
f 94/94/94 95/95/95 89/89/89
f 90/90/90 91/91/91 96/96/96
f 94/94/94 90/90/90 96/96/96
f 94/94/94 97/97/97 95/95/95
f 97/97/97 98/98/98 95/95/95
f 97/97/97 99/99/99 98/98/98
f 99/99/99 100/100/100 98/98/98
f 99/99/99 97/97/97 101/101/101
f 97/97/97 94/94/94 102/102/102
f 97/97/97 102/102/102 101/101/101
f 94/94/94 96/96/96 102/102/102
f 103/103/103 101/101/101 102/102/102
f 104/104/104 103/103/103 102/102/102
f 104/104/104 102/102/102 96/96/96
f 105/105/105 103/103/103 104/104/104
f 106/106/106 96/96/96 91/91/91
f 106/106/106 104/104/104 96/96/96
f 107/107/107 105/105/105 104/104/104
f 107/107/107 104/104/104 106/106/106
f 108/108/108 105/105/105 107/107/107
f 109/109/109 106/106/106 91/91/91
f 109/109/109 91/91/91 93/93/93
f 110/110/110 107/107/107 106/106/106
f 110/110/110 106/106/106 109/109/109
f 111/111/111 108/108/108 107/107/107
f 111/111/111 107/107/107 110/110/110
f 112/112/112 108/108/108 111/111/111
f 113/113/113 112/112/112 111/111/111
f 114/114/114 109/109/109 93/93/93
f 114/114/114 110/110/110 109/109/109
f 115/115/115 114/114/114 93/93/93
f 114/114/114 115/115/115 116/116/116
f 113/113/113 111/111/111 117/117/117
f 117/117/117 111/111/111 110/110/110
f 117/117/117 110/110/110 114/114/114
f 118/118/118 113/113/113 117/117/117
f 119/119/119 114/114/114 116/116/116
f 119/119/119 117/117/117 114/114/114
f 118/118/118 117/117/117 119/119/119
f 119/119/119 116/116/116 120/120/120
f 121/121/121 118/118/118 119/119/119
f 121/121/121 119/119/119 120/120/120
f 124/124/124 123/123/123 122/122/122
f 125/125/125 124/124/124 122/122/122
f 125/125/125 122/122/122 126/126/126
f 127/127/127 125/125/125 126/126/126
f 127/127/127 128/128/128 125/125/125
f 125/125/125 129/129/129 124/124/124
f 128/128/128 129/129/129 125/125/125
f 129/129/129 130/130/130 124/124/124
f 128/128/128 131/131/131 129/129/129
f 129/129/129 132/132/132 130/130/130
f 131/131/131 132/132/132 129/129/129
f 131/131/131 133/133/133 132/132/132
f 132/132/132 134/134/134 130/130/130
f 133/133/133 135/135/135 132/132/132
f 132/132/132 135/135/135 134/134/134
f 135/135/135 136/136/136 134/134/134
f 139/139/139 138/138/138 137/137/137
f 140/140/140 139/139/139 137/137/137
f 140/140/140 141/141/141 139/139/139
f 141/141/141 142/142/142 139/139/139
f 142/142/142 141/141/141 143/143/143
f 144/144/144 142/142/142 143/143/143
f 144/144/144 143/143/143 145/145/145
f 143/143/143 146/146/146 145/145/145
f 149/149/149 148/148/148 147/147/147
f 150/150/150 149/149/149 147/147/147
f 150/150/150 147/147/147 151/151/151
f 152/152/152 149/149/149 150/150/150
f 153/153/153 150/150/150 151/151/151
f 153/153/153 151/151/151 154/154/154
f 155/155/155 152/152/152 150/150/150
f 155/155/155 150/150/150 153/153/153
f 156/156/156 152/152/152 155/155/155
f 157/157/157 156/156/156 155/155/155
f 156/156/156 157/157/157 158/158/158
f 159/159/159 155/155/155 153/153/153
f 157/157/157 155/155/155 159/159/159
f 160/160/160 153/153/153 154/154/154
f 159/159/159 153/153/153 160/160/160
f 157/157/157 161/161/161 158/158/158
f 158/158/158 161/161/161 162/162/162
f 161/161/161 163/163/163 162/162/162
f 160/160/160 154/154/154 164/164/164
f 154/154/154 165/165/165 164/164/164
f 166/166/166 160/160/160 164/164/164
f 166/166/166 159/159/159 160/160/160
f 167/167/167 166/166/166 164/164/164
f 166/166/166 167/167/167 168/168/168
f 169/169/169 157/157/157 159/159/159
f 157/157/157 169/169/169 161/161/161
f 169/169/169 159/159/159 166/166/166
f 161/161/161 170/170/170 163/163/163
f 169/169/169 170/170/170 161/161/161
f 170/170/170 171/171/171 163/163/163
f 172/172/172 169/169/169 166/166/166
f 172/172/172 166/166/166 168/168/168
f 169/169/169 172/172/172 170/170/170
f 170/170/170 173/173/173 171/171/171
f 172/172/172 173/173/173 170/170/170
f 172/172/172 168/168/168 173/173/173
f 173/173/173 174/174/174 171/171/171
f 168/168/168 175/175/175 173/173/173
f 173/173/173 175/175/175 174/174/174
f 175/175/175 176/176/176 174/174/174
f 179/179/179 178/178/178 177/177/177
f 178/178/178 180/180/180 177/177/177
f 177/177/177 180/180/180 181/181/181
f 178/178/178 182/182/182 180/180/180
f 180/180/180 183/183/183 181/181/181
f 182/182/182 184/184/184 180/180/180
f 180/180/180 184/184/184 183/183/183
f 182/182/182 185/185/185 184/184/184
f 184/184/184 186/186/186 183/183/183
f 185/185/185 187/187/187 184/184/184
f 184/184/184 187/187/187 186/186/186
f 185/185/185 188/188/188 187/187/187
f 187/187/187 189/189/189 186/186/186
f 188/188/188 190/190/190 187/187/187
f 187/187/187 190/190/190 189/189/189
f 190/190/190 191/191/191 189/189/189
