g housekit_wood_wall_glass
v -2.4879 1.2520763 2.2633288
v -2.3681545 2.2479234 2.36791
v -2.4879 2.2479234 2.2633288
v -2.479353 2.3086889 2.2718759
v -2.4550138 2.3602035 2.2962148
v -2.4185867 2.3946245 2.3326414
v -2.3756196 2.4067113 2.375609
v -2.3326526 2.3946245 2.4185765
v -2.2962255 2.3602033 2.455003
v -2.2718863 2.3086889 2.4793422
v -2.2633393 2.2479234 2.4878888
v -2.2633393 1.2520763 2.4878888
v -2.3681545 1.2520763 2.36791
v -2.479353 1.1913111 2.2718759
v -2.2718863 1.1913111 2.4793422
v -2.4550138 1.1397965 2.2962148
v -2.2962255 1.1397961 2.4550025
v -2.4185867 1.1053756 2.3326414
v -2.3326526 1.1053756 2.4185765
v -2.3756196 1.0932885 2.375609
v -2.5018144 1.2520763 2.7256205
v -2.6215596 2.2479234 2.6210392
v -2.5018144 2.2479234 2.7256205
v -2.5103614 2.3086889 2.7170734
v -2.5347004 2.3602035 2.6927342
v -2.5711274 2.3946245 2.6563082
v -2.6140945 2.4067113 2.6133401
v -2.6570628 2.3946245 2.5703726
v -2.6934886 2.3602033 2.5339463
v -2.7178278 2.3086889 2.5096073
v -2.7263749 2.2479234 2.5010605
v -2.7263749 1.2520763 2.5010605
v -2.6215596 1.2520763 2.6210392
v -2.5103614 1.1913111 2.7170734
v -2.7178278 1.1913111 2.5096073
v -2.5347004 1.1397965 2.6927342
v -2.6934886 1.1397961 2.5339468
v -2.5711274 1.1053756 2.6563082
v -2.6570628 1.1053756 2.5703726
v -2.6140945 1.0932885 2.6133401
vt 0.54603106 0.35139045
vt 0.49693957 0.64860946
vt 0.546031 0.64860934
vt 0.54252714 0.66674536
vt 0.5325488 0.68212044
vt 0.5176152 0.6923935
vt 0.5 0.69600105
vt 0.4823847 0.6923936
vt 0.467451 0.68212026
vt 0.45747283 0.66674536
vt 0.4539689 0.64860934
vt 0.45396894 0.35139048
vt 0.49693957 0.35139048
vt 0.5425272 0.3332545
vt 0.4574729 0.33325455
vt 0.5325488 0.31787956
vt 0.4674512 0.31787956
vt 0.5176152 0.3076064
vt 0.48238468 0.3076064
vt 0.5 0.30399895
vt 0.54603106 0.35139042
vt 0.50315624 0.64860946
vt 0.54603106 0.64860946
vt 0.5425271 0.6667454
vt 0.53254884 0.68212044
vt 0.5176153 0.69239354
vt 0.49999994 0.6960011
vt 0.48238465 0.69239354
vt 0.46745113 0.6821203
vt 0.4574729 0.6667454
vt 0.45396897 0.64860946
vt 0.45396897 0.35139042
vt 0.50315624 0.35139042
vt 0.5425271 0.33325452
vt 0.4574729 0.33325452
vt 0.53254884 0.31787956
vt 0.46745124 0.31787947
vt 0.5176153 0.30760637
vt 0.48238465 0.30760637
vt 0.49999994 0.3039989
vn 0.65780604 -0.00034950612 -0.75318724
vn 0.70710427 0.0013032597 -0.7071081
vn 0.65780604 0.00034945572 -0.7531873
vn 0.66144 0.02581987 -0.7495535
vn 0.6717876 0.047676213 -0.73920786
vn 0.6872674 0.06226919 -0.7237307
vn 0.705512 0.067375004 -0.70548815
vn 0.72373194 0.06222029 -0.6872705
vn 0.7391673 0.047584835 -0.6718389
vn 0.74947584 0.025763484 -0.6615302
vn 0.7530932 0.00034953645 -0.65791374
vn 0.7530932 -0.00034953645 -0.65791386
vn 0.7071043 -0.0013032978 -0.70710796
vn 0.66144085 -0.02582097 -0.7495528
vn 0.7494763 -0.025763383 -0.6615297
vn 0.6717884 -0.04767645 -0.73920715
vn 0.7391667 -0.047588766 -0.67183924
vn 0.687268 -0.062269412 -0.72373
vn 0.72372967 -0.062224608 -0.6872725
vn 0.70551157 -0.067375146 -0.7054886
vn -0.65780646 -0.00034839817 0.7531868
vn -0.70710444 0.0013030814 0.70710784
vn -0.6578065 0.0003482471 0.75318694
vn -0.66144055 0.025804402 0.74955356
vn -0.6717863 0.047684014 0.7392087
vn -0.68726677 0.062272113 0.723731
vn -0.7055082 0.067373574 0.705492
vn -0.72372967 0.06220875 0.687274
vn -0.7391682 0.047608268 0.6718362
vn -0.7494757 0.025763463 0.6615304
vn -0.7530932 0.00034792867 0.6579138
vn -0.7530932 -0.00034792858 0.65791386
vn -0.7071046 -0.0013030188 0.7071077
vn -0.6614414 -0.025807433 0.7495527
vn -0.7494762 -0.025747959 0.6615305
vn -0.6717877 -0.04768421 0.7392074
vn -0.7391688 -0.04759671 0.6718363
vn -0.6872674 -0.062272348 0.72373044
vn -0.7237287 -0.062212933 0.6872746
vn -0.7055077 -0.06737372 0.7054925
g housekit_wood_wall_glass_0
f 3/3/3 2/2/2 1/1/1
f 3/3/3 4/4/4 2/2/2
f 4/4/4 5/5/5 2/2/2
f 5/5/5 6/6/6 2/2/2
f 6/6/6 7/7/7 2/2/2
f 7/7/7 8/8/8 2/2/2
f 8/8/8 9/9/9 2/2/2
f 9/9/9 10/10/10 2/2/2
f 10/10/10 11/11/11 2/2/2
f 11/11/11 12/12/12 2/2/2
f 2/2/2 13/13/13 1/1/1
f 12/12/12 13/13/13 2/2/2
f 13/13/13 14/14/14 1/1/1
f 15/15/15 13/13/13 12/12/12
f 14/14/14 13/13/13 16/16/16
f 17/17/17 13/13/13 15/15/15
f 16/16/16 13/13/13 18/18/18
f 17/17/17 19/19/19 13/13/13
f 18/18/18 13/13/13 20/20/20
f 20/20/20 13/13/13 19/19/19
g housekit_wood_wall_glass_1
f 23/23/23 22/22/22 21/21/21
f 23/23/23 24/24/24 22/22/22
f 24/24/24 25/25/25 22/22/22
f 25/25/25 26/26/26 22/22/22
f 26/26/26 27/27/27 22/22/22
f 27/27/27 28/28/28 22/22/22
f 28/28/28 29/29/29 22/22/22
f 29/29/29 30/30/30 22/22/22
f 30/30/30 31/31/31 22/22/22
f 31/31/31 32/32/32 22/22/22
f 22/22/22 33/33/33 21/21/21
f 32/32/32 33/33/33 22/22/22
f 33/33/33 34/34/34 21/21/21
f 35/35/35 33/33/33 32/32/32
f 34/34/34 33/33/33 36/36/36
f 37/37/37 33/33/33 35/35/35
f 36/36/36 33/33/33 38/38/38
f 37/37/37 39/39/39 33/33/33
f 38/38/38 33/33/33 40/40/40
f 40/40/40 33/33/33 39/39/39
