g houseGlassWindow01
v -6.331516 6.2542453 -0.16705602
v -6.4167 5.7401 7.6293944E-08
v -6.331516 6.1774583 -0.3177595
v -6.331516 6.280704 1.17457546E-07
v -6.331516 6.057859 -0.43735853
v -6.331516 6.2542453 0.16705614
v -6.331516 5.9071555 -0.51414585
v -6.331516 6.1774583 0.31775963
v -6.331516 5.7401 -0.5406048
v -6.331516 6.057859 0.4373586
v -6.331516 5.573043 -0.51414585
v -6.331516 5.9071555 0.51414585
v -6.331516 5.42234 -0.43735847
v -6.331516 5.7401 0.5406049
v -6.331516 5.3027415 -0.3177593
v -6.331516 5.573043 0.51414585
v -6.331516 5.225953 -0.16705595
v -6.331516 5.42234 0.4373586
v -6.331516 5.1994944 1.17457546E-07
v -6.331516 5.3027415 0.31775966
v -6.331516 5.225953 0.16705616
vt 0.46093804 0.31958562
vt 0.5000001 0.2000001
vt 0.42589587 0.3016619
vt 0.49980387 0.32580352
vt 0.39810747 0.27378678
vt 0.5386889 0.31970692
vt 0.38029313 0.23868883
vt 0.57378674 0.30189258
vt 0.37419665 0.19980389
vt 0.60166186 0.27410418
vt 0.38041443 0.16093796
vt 0.6195857 0.23906225
vt 0.39833832 0.1258958
vt 0.62580365 0.20019639
vt 0.42621338 0.098107636
vt 0.61970705 0.16131103
vt 0.4613113 0.080293
vt 0.6018927 0.12621325
vt 0.50019634 0.07419652
vt 0.5741043 0.098338306
vt 0.53906214 0.080414236
vn -0.9878122 0.1480325 -0.04809831
vn -1 0 0
vn -0.98781234 0.12592196 -0.09148961
vn -0.98781246 0.15564854 0
vn -0.98781234 0.09148701 -0.12592418
vn -0.98781246 0.14803082 0.048098337
vn -0.9878122 0.048098866 -0.14803256
vn -0.9878121 0.12592408 0.09148961
vn -0.9878122 0 -0.1556506
vn -0.98781234 0.091487035 0.12592418
vn -0.9878122 -0.048098713 -0.14803246
vn -0.9878122 0.04809675 0.14803258
vn -0.9878122 -0.09148926 -0.12592381
vn -0.9878122 0 0.15565063
vn -0.98781246 -0.12592201 -0.0914891
vn -0.9878122 -0.04809659 0.14803249
vn -0.98781246 -0.1480304 -0.048099216
vn -0.98781234 -0.09148718 0.12592387
vn -0.9878122 -0.15564992 0
vn -0.9878122 -0.12592302 0.09148908
vn -0.98781246 -0.14803065 0.04809918
g houseGlassWindow01_0
f 3/3/3 2/2/2 1/1/1
f 1/1/1 2/2/2 4/4/4
f 5/5/5 2/2/2 3/3/3
f 4/4/4 2/2/2 6/6/6
f 7/7/7 2/2/2 5/5/5
f 6/6/6 2/2/2 8/8/8
f 9/9/9 2/2/2 7/7/7
f 8/8/8 2/2/2 10/10/10
f 11/11/11 2/2/2 9/9/9
f 10/10/10 2/2/2 12/12/12
f 13/13/13 2/2/2 11/11/11
f 12/12/12 2/2/2 14/14/14
f 15/15/15 2/2/2 13/13/13
f 14/14/14 2/2/2 16/16/16
f 17/17/17 2/2/2 15/15/15
f 16/16/16 2/2/2 18/18/18
f 19/19/19 2/2/2 17/17/17
f 18/18/18 2/2/2 20/20/20
f 21/21/21 2/2/2 19/19/19
f 20/20/20 2/2/2 21/21/21
