g houseContainerPlanks
v -0.15847972 0.5586941 -0.057971597
v 0.115152776 0.9260265 -0.015586318
v 0.01898816 0.52478814 0.025758246
v -0.062315147 0.95993245 -0.09931615
v 0.21210474 1.3268887 -0.058752067
v 0.034636836 1.3607947 -0.1424819
v 0.3108274 1.7280171 -0.09521356
v 0.1256037 1.7634048 -0.1826026
v 0.1256037 1.7634048 -0.1826026
v 0.1510462 1.751243 -0.24145362
v 0.33627036 1.7158551 -0.15406439
v 0.3108274 1.7280171 -0.09521356
v 0.1510462 1.751243 -0.24145362
v 0.2349076 1.3159885 -0.111496195
v 0.33627036 1.7158551 -0.15406439
v 0.05743991 1.3498944 -0.19522655
v 0.13953051 0.9143735 -0.07197332
v -0.037937384 0.94827956 -0.15570316
v 0.043365724 0.51313525 -0.03062952
v -0.13410243 0.5470413 -0.1143588
v -0.13410243 0.5470413 -0.1143588
v -0.15847972 0.5586941 -0.057971597
v 0.01898816 0.52478814 0.025758246
v 0.043365724 0.51313525 -0.03062952
v 0.01898816 0.52478814 0.025758246
v 0.13953051 0.9143735 -0.07197332
v 0.043365724 0.51313525 -0.03062952
v 0.115152776 0.9260265 -0.015586318
v 0.2349076 1.3159885 -0.111496195
v 0.21210474 1.3268887 -0.058752067
v 0.33627036 1.7158551 -0.15406439
v 0.3108274 1.7280171 -0.09521356
v -0.13410243 0.5470413 -0.1143588
v -0.062315147 0.95993245 -0.09931615
v -0.15847972 0.5586941 -0.057971597
v -0.037937384 0.94827956 -0.15570316
v 0.034636836 1.3607947 -0.1424819
v 0.05743991 1.3498944 -0.19522655
v 0.1256037 1.7634048 -0.1826026
v 0.1510462 1.751243 -0.24145362
v -0.16622339 0.4713988 0.05162272
v 0.046028618 0.87855935 0.07943848
v 0.00096780283 0.47424898 0.15976219
v -0.12116257 0.87570906 -0.028700974
v 0.09216432 1.2824222 -0.0025352668
v -0.07502687 1.279572 -0.11067474
v 0.12761736 1.682597 -0.059882328
v -0.04688049 1.6796222 -0.17274775
v -0.04688049 1.6796222 -0.17274775
v -0.011441177 1.6798178 -0.22754458
v 0.16305709 1.6827927 -0.114678875
v 0.12761736 1.682597 -0.059882328
v -0.011441177 1.6798178 -0.22754458
v 0.123294525 1.2694589 -0.05032219
v 0.16305709 1.6827927 -0.114678875
v -0.043896366 1.2666086 -0.1584621
v 0.079308845 0.8647007 0.028351087
v -0.087882325 0.8618505 -0.07978839
v 0.034247957 0.46039027 0.10867401
v -0.13294356 0.45754012 0.00053505896
v -0.13294356 0.45754012 0.00053505896
v -0.16622339 0.4713988 0.05162272
v 0.00096780283 0.47424898 0.15976219
v 0.034247957 0.46039027 0.10867401
v 0.00096780283 0.47424898 0.15976219
v 0.079308845 0.8647007 0.028351087
v 0.034247957 0.46039027 0.10867401
v 0.046028618 0.87855935 0.07943848
v 0.123294525 1.2694589 -0.05032219
v 0.09216432 1.2824222 -0.0025352668
v 0.16305709 1.6827927 -0.114678875
v 0.12761736 1.682597 -0.059882328
v -0.13294356 0.45754012 0.00053505896
v -0.12116257 0.87570906 -0.028700974
v -0.16622339 0.4713988 0.05162272
v -0.087882325 0.8618505 -0.07978839
v -0.07502687 1.279572 -0.11067474
v -0.043896366 1.2666086 -0.1584621
v -0.04688049 1.6796222 -0.17274775
v -0.011441177 1.6798178 -0.22754458
vt 0.28765953 0.6713306
vt 0.30797654 0.6185043
vt 0.3076413 0.6715352
vt 0.2879947 0.61829966
vt 0.3083117 0.5654734
vt 0.28832996 0.56526875
vt 0.30864695 0.5124425
vt 0.28866515 0.5122379
vt 0.28866515 0.5122379
vt 0.2886946 0.51227057
vt 0.30867636 0.5124752
vt 0.30864695 0.5124425
vt 0.2886946 0.51227057
vt 0.30834118 0.56550616
vt 0.30867636 0.5124752
vt 0.2883594 0.5653015
vt 0.308006 0.618537
vt 0.2880242 0.6183324
vt 0.30767074 0.6715679
vt 0.287689 0.67136323
vt 0.287689 0.67136323
vt 0.28765953 0.6713306
vt 0.3076413 0.6715352
vt 0.30767074 0.6715679
vt 0.3076413 0.6715352
vt 0.308006 0.618537
vt 0.30767074 0.6715679
vt 0.30797654 0.6185043
vt 0.30834118 0.56550616
vt 0.3083117 0.5654734
vt 0.30867636 0.5124752
vt 0.30864695 0.5124425
vt 0.287689 0.67136323
vt 0.2879947 0.61829966
vt 0.28765953 0.6713306
vt 0.2880242 0.6183324
vt 0.28832996 0.56526875
vt 0.2883594 0.5653015
vt 0.28866515 0.5122379
vt 0.2886946 0.51227057
vt 0.19150591 0.70462626
vt 0.24289596 0.6518
vt 0.24204803 0.7048309
vt 0.19235373 0.65159535
vt 0.24374378 0.59876907
vt 0.19320166 0.59856445
vt 0.24459171 0.5457382
vt 0.19404948 0.5455336
vt 0.19404948 0.5455336
vt 0.19412398 0.54556626
vt 0.2446661 0.5457709
vt 0.24459171 0.5457382
vt 0.19412398 0.54556626
vt 0.24381828 0.59880185
vt 0.2446661 0.5457709
vt 0.19327617 0.59859717
vt 0.24297047 0.6518327
vt 0.19242823 0.6516281
vt 0.24212253 0.7048636
vt 0.19158041 0.7046589
vt 0.19158041 0.7046589
vt 0.19150591 0.70462626
vt 0.24204803 0.7048309
vt 0.24212253 0.7048636
vt 0.24204803 0.7048309
vt 0.24297047 0.6518327
vt 0.24212253 0.7048636
vt 0.24289596 0.6518
vt 0.24381828 0.59880185
vt 0.24374378 0.59876907
vt 0.2446661 0.5457709
vt 0.24459171 0.5457382
vt 0.19158041 0.7046589
vt 0.19235373 0.65159535
vt 0.19150591 0.70462626
vt 0.19242823 0.6516281
vt 0.19320166 0.59856445
vt 0.19327617 0.59859717
vt 0.19404948 0.5455336
vt 0.19412398 0.54556626
vn -0.3898722 0.18636549 0.9018135
vn -0.38930625 0.18872108 0.901568
vn -0.3898722 0.1863655 0.9018135
vn -0.38930622 0.18872108 0.901568
vn -0.39027503 0.1846819 0.9019855
vn -0.390275 0.1846819 0.90198565
vn -0.3917527 0.17845888 0.90259755
vn -0.39175272 0.17845893 0.90259755
vn 0.23190765 0.9676145 -0.099704936
vn 0.23190762 0.9676145 -0.099704936
vn 0.23190764 0.9676145 -0.099704936
vn 0.23190767 0.9676145 -0.09970494
vn 0.38796702 -0.19425912 -0.9009689
vn 0.3894696 -0.18804803 -0.90163815
vn 0.38796696 -0.19425909 -0.9009689
vn 0.3894696 -0.18804803 -0.90163815
vn 0.3904359 -0.1840081 -0.9020537
vn 0.39043584 -0.18400809 -0.9020537
vn 0.38987085 -0.18636452 -0.9018143
vn 0.38987088 -0.1863645 -0.9018143
vn -0.2319081 -0.96761435 0.0997056
vn -0.23190808 -0.96761435 0.099705584
vn -0.23190811 -0.96761435 0.099705584
vn -0.23190808 -0.96761435 0.09970559
vn 0.8911878 -0.17026503 0.42046884
vn 0.891187 -0.17026433 0.42047086
vn 0.8911878 -0.17026506 0.42046887
vn 0.891187 -0.17026433 0.42047083
vn 0.88994193 -0.17540026 0.42099658
vn 0.88994193 -0.17540026 0.42099658
vn 0.88870347 -0.18040796 0.42149615
vn 0.88870347 -0.18040799 0.42149615
vn -0.89118767 0.17026506 -0.42046908
vn -0.891187 0.17026435 -0.4204709
vn -0.89118767 0.1702651 -0.42046908
vn -0.89118695 0.17026436 -0.4204709
vn -0.89240617 0.16512287 -0.41993544
vn -0.89240617 0.16512287 -0.4199354
vn -0.8935723 0.16010186 -0.4193997
vn -0.8935723 0.16010186 -0.4193997
vn -0.53225183 0.22164346 0.8170571
vn -0.53198564 0.22401701 0.81658286
vn -0.5322518 0.22164346 0.8170571
vn -0.53198564 0.22401701 0.81658286
vn -0.534896 0.19623317 0.8218144
vn -0.534896 0.19623318 0.8218143
vn -0.53754973 0.16609555 0.82671183
vn -0.53754973 0.16609555 0.82671183
vn -0.013646457 0.99989307 -0.005256038
vn -0.013646459 0.99989307 -0.0052560386
vn -0.013646457 0.99989307 -0.0052560386
vn -0.013646457 0.99989307 -0.005256038
vn 0.5363923 -0.17998432 -0.8245537
vn 0.53471637 -0.19809143 -0.82148534
vn 0.5363923 -0.17998433 -0.8245538
vn 0.53471637 -0.19809146 -0.82148534
vn 0.532515 -0.21926792 -0.8175263
vn 0.532515 -0.21926789 -0.8175263
vn 0.53225076 -0.22164273 -0.81705785
vn 0.53225076 -0.22164275 -0.81705785
vn -0.10866783 -0.9750225 0.19370702
vn -0.10866783 -0.9750225 0.193707
vn -0.10866783 -0.9750225 0.193707
vn -0.108667836 -0.9750225 0.19370703
vn 0.83958066 0.014313415 0.54304653
vn 0.83957964 0.014314156 0.543048
vn 0.8395806 0.014313414 0.54304653
vn 0.8395796 0.014314155 0.5430481
vn 0.83933485 0.009117724 0.54353833
vn 0.83932674 0.0089526195 0.54355365
vn 0.8390623 0.003809336 0.5440221
vn 0.8390623 0.0038093359 0.54402214
vn -0.8395806 -0.01431346 -0.54304653
vn -0.83957946 -0.014314196 -0.54304814
vn -0.8395806 -0.014313463 -0.5430466
vn -0.8395796 -0.014314197 -0.54304814
vn -0.83980703 -0.019675763 -0.5425284
vn -0.8398003 -0.019510712 -0.5425447
vn -0.8400033 -0.02481682 -0.5420135
vn -0.8400033 -0.024816824 -0.5420135
g houseContainerPlanks_0
f 3/3/3 2/2/2 1/1/1
f 2/2/2 4/4/4 1/1/1
f 2/2/2 5/5/5 4/4/4
f 5/5/5 6/6/6 4/4/4
f 5/5/5 7/7/7 6/6/6
f 7/7/7 8/8/8 6/6/6
f 11/11/11 10/10/10 9/9/9
f 12/12/12 11/11/11 9/9/9
f 15/15/15 14/14/14 13/13/13
f 14/14/14 16/16/16 13/13/13
f 14/14/14 17/17/17 16/16/16
f 17/17/17 18/18/18 16/16/16
f 17/17/17 19/19/19 18/18/18
f 19/19/19 20/20/20 18/18/18
f 23/23/23 22/22/22 21/21/21
f 24/24/24 23/23/23 21/21/21
f 27/27/27 26/26/26 25/25/25
f 26/26/26 28/28/28 25/25/25
f 26/26/26 29/29/29 28/28/28
f 29/29/29 30/30/30 28/28/28
f 29/29/29 31/31/31 30/30/30
f 31/31/31 32/32/32 30/30/30
f 35/35/35 34/34/34 33/33/33
f 34/34/34 36/36/36 33/33/33
f 34/34/34 37/37/37 36/36/36
f 37/37/37 38/38/38 36/36/36
f 37/37/37 39/39/39 38/38/38
f 39/39/39 40/40/40 38/38/38
f 43/43/43 42/42/42 41/41/41
f 42/42/42 44/44/44 41/41/41
f 42/42/42 45/45/45 44/44/44
f 45/45/45 46/46/46 44/44/44
f 45/45/45 47/47/47 46/46/46
f 47/47/47 48/48/48 46/46/46
f 51/51/51 50/50/50 49/49/49
f 52/52/52 51/51/51 49/49/49
f 55/55/55 54/54/54 53/53/53
f 54/54/54 56/56/56 53/53/53
f 54/54/54 57/57/57 56/56/56
f 57/57/57 58/58/58 56/56/56
f 57/57/57 59/59/59 58/58/58
f 59/59/59 60/60/60 58/58/58
f 63/63/63 62/62/62 61/61/61
f 64/64/64 63/63/63 61/61/61
f 67/67/67 66/66/66 65/65/65
f 66/66/66 68/68/68 65/65/65
f 66/66/66 69/69/69 68/68/68
f 69/69/69 70/70/70 68/68/68
f 69/69/69 71/71/71 70/70/70
f 71/71/71 72/72/72 70/70/70
f 75/75/75 74/74/74 73/73/73
f 74/74/74 76/76/76 73/73/73
f 74/74/74 77/77/77 76/76/76
f 77/77/77 78/78/78 76/76/76
f 77/77/77 79/79/79 78/78/78
f 79/79/79 80/80/80 78/78/78
