g housePlanterDirt
v -7.1634116 0.90673065 6.54332
v -6.3317046 1.0304606 6.872721
v -6.540735 0.90673065 7.157946
v -6.9245615 0.90673065 6.325324
v -6.6622252 0.90673065 6.085894
v -6.0894647 0.90673065 6.6499233
v -5.341792 0.90673065 7.2546544
v -5.5492887 0.9883339 7.5441403
v -5.7382092 0.90673065 7.807711
v -4.5324125 0.90673065 7.780028
v -4.6901393 1.0206689 8.0813055
v -4.8696184 0.90673065 8.372056
v -3.6758964 0.90673065 8.21703
v -3.790504 1.0290601 8.53608
v -3.950208 0.90673065 8.841546
v -2.9308236 0.90673065 8.513673
v -3.1392283 0.90673065 9.163825
v -3.039909 0.90673065 8.853983
v -2.6837986 -1.8981099E-06 8.505505
v -2.7114434 0.04810134 8.590587
v -2.783819 -1.8981099E-06 8.538003
v -2.6219826 -1.8981099E-06 8.590587
v -2.783819 -1.8981099E-06 8.64317
v -2.6837986 -1.8981099E-06 8.67567
v -2.8844419 1.8978119E-06 8.559767
v -2.935209 0.056083858 8.716012
v -3.0681195 1.8978119E-06 8.619448
v -2.770923 1.8978119E-06 8.716012
v -3.0681195 1.8978119E-06 8.812577
v -2.8844419 1.8978119E-06 8.872258
v -2.7745392 -1.7008185E-06 8.763101
v -2.9588048 0.06943325 8.882503
v -3.0154216 -1.7008185E-06 8.670358
v -2.7883055 -1.7008185E-06 9.020852
v -3.1780617 -1.7008185E-06 8.870791
v -3.0376964 -1.7008185E-06 9.087409
v -3.0089474 -1.8981099E-06 8.991282
v -3.0474744 0.04810134 9.109856
v -3.1483388 -1.8981099E-06 9.036573
v -2.9227986 -1.8981099E-06 9.109856
v -3.1483388 -1.8981099E-06 9.183138
v -3.0089474 -1.8981099E-06 9.22843
v -3.9994256 -1.8981099E-06 8.833338
v -4.083374 0.04810134 8.891336
v -4.2006516 -1.8981099E-06 8.787638
v -3.9142134 -1.8981099E-06 8.959189
v -4.2398043 -1.8981099E-06 8.885245
v -4.0627756 -1.8981099E-06 8.991271
v -4.4216228 -1.8981099E-06 8.632945
v -4.46015 0.04810134 8.751518
v -4.561014 -1.8981099E-06 8.678236
v -4.335474 -1.8981099E-06 8.751518
v -4.561014 -1.8981099E-06 8.8248005
v -4.4216228 -1.8981099E-06 8.870092
v -4.51926 -1.7008185E-06 8.565407
v -4.703526 0.06943325 8.684809
v -4.760143 -1.7008185E-06 8.472664
v -4.5330267 -1.7008185E-06 8.823159
v -4.922783 -1.7008185E-06 8.673098
v -4.7824173 -1.7008185E-06 8.889715
v -4.767335 -1.8981099E-06 8.789762
v -4.7949796 0.04810134 8.874844
v -4.8673553 -1.8981099E-06 8.82226
v -4.705519 -1.8981099E-06 8.874844
v -4.8673553 -1.8981099E-06 8.927427
v -4.767335 -1.8981099E-06 8.959926
v -6.020171 -1.8981099E-06 7.638679
v -6.0600433 0.04810134 7.761392
v -6.1644287 -1.8981099E-06 7.6855516
v -5.931015 -1.8981099E-06 7.761392
v -6.1644287 -1.8981099E-06 7.8372326
v -6.020171 -1.8981099E-06 7.884105
v -6.2124753 -1.8981099E-06 7.6027093
v -6.240121 0.04810134 7.6877913
v -6.312496 -1.8981099E-06 7.635208
v -6.1506596 -1.8981099E-06 7.6877913
v -6.312496 -1.8981099E-06 7.740375
v -6.2124753 -1.8981099E-06 7.772874
v -5.9520855 -1.7008185E-06 7.3671618
v -6.142934 0.06943325 7.497962
v -6.3039823 -1.7008185E-06 7.255586
v -5.863934 -1.7008185E-06 7.659498
v -6.4333158 -1.7008185E-06 7.4789658
v -6.161351 -1.7008185E-06 7.728597
vt -2.208525 1.1920929E-07
vt -2.2437139 0.17473578
vt -2.1734262 0.170771
vt -2.2708807 0.016243577
vt -2.3393679 0.03408456
vt -2.307304 0.1910218
vt -2.2874286 0.38160443
vt -2.2164888 0.37836272
vt -2.1519809 0.37540823
vt -2.2875123 0.57388234
vt -2.2199888 0.58023775
vt -2.1519809 0.58181083
vt -2.3074794 0.76444256
vt -2.2416632 0.7799324
vt -2.1733475 0.78640723
vt -2.3388007 0.9211434
vt -2.2075403 0.9569038
vt -2.2700949 0.93986154
vt -2.367452 0.96151423
vt -2.3502092 0.9661329
vt -2.3511631 0.9483297
vt -2.3599463 0.98108006
vt -2.3335905 0.9597471
vt -2.3390188 0.9799881
vt -2.3366027 0.93387914
vt -2.3049548 0.94236016
vt -2.3066897 0.90966713
vt -2.3228192 0.96981
vt -2.2744193 0.93063414
vt -2.284388 0.96780443
vt -2.3145585 0.9743178
vt -2.2745671 0.95649254
vt -2.303904 0.92399955
vt -2.2699957 1.0000002
vt -2.2527564 0.91858363
vt -2.2318 0.9655545
vt -2.250983 0.9599223
vt -2.2269628 0.96635854
vt -2.2282825 0.941548
vt -2.2405229 0.9871899
vt -2.2037926 0.9574597
vt -2.2113576 0.98566794
vt -2.1698442 0.77727365
vt -2.1510146 0.7695441
vt -2.1556344 0.73868895
vt -2.1580663 0.80517507
vt -2.1350744 0.7427435
vt -2.1365776 0.7838342
vt -2.157493 0.68497217
vt -2.133473 0.6914085
vt -2.1347923 0.66659796
vt -2.147033 0.71223986
vt -2.1103024 0.68250966
vt -2.1178675 0.7107179
vt -2.158178 0.6613256
vt -2.1181865 0.6435003
vt -2.1475236 0.61100733
vt -2.1136153 0.6870079
vt -2.096376 0.6055913
vt -2.0754194 0.65256214
vt -2.0937586 0.64423096
vt -2.0765157 0.6488496
vt -2.0774693 0.63104653
vt -2.086253 0.6637969
vt -2.059897 0.6424639
vt -2.0653253 0.6627047
vt -2.1500823 0.30992514
vt -2.1252246 0.31658608
vt -2.1265893 0.29090947
vt -2.1392572 0.33814472
vt -2.1012444 0.30737656
vt -2.1090736 0.3365696
vt -2.1352153 0.27388752
vt -2.1179726 0.27850616
vt -2.1189263 0.26070303
vt -2.1277096 0.2934534
vt -2.1013536 0.27212042
vt -2.1067822 0.29236126
vt -2.2028422 0.29182476
vt -2.1602316 0.27413702
vt -2.1832824 0.2209124
vt -2.1635652 0.3382914
vt -2.1319165 0.22355264
vt -2.1197307 0.29609692
vn -0.1466736 0.98918414 -0.0012211654
vn -0.00534859 0.99993277 0.0102853915
vn -0.18839592 0.95343316 0.23552553
vn -0.102539025 0.9883641 -0.112348445
vn -0.015456003 0.98871875 -0.14898512
vn 0.21245402 0.9521983 -0.21950343
vn 0.16621593 0.96061975 -0.22266991
vn -0.009889515 0.99980086 0.017331488
vn -0.16720393 0.95822966 0.2320315
vn 0.13877428 0.95406675 -0.2655155
vn -0.015580938 0.9998518 0.0073147966
vn -0.15767705 0.95286447 0.25920498
vn 0.14020415 0.9432372 -0.30107558
vn -3.6410653E-05 0.9998171 0.01912785
vn -0.14336699 0.94452435 0.29549888
vn 0.1395295 0.989115 -0.04672222
vn 0.062061206 0.989767 0.12848973
vn 0.1418934 0.9888364 0.04548357
vn 0.14634167 0.88075036 -0.45040312
vn 2.9472633E-07 1 0
vn -0.3831339 0.8807509 -0.2783638
vn 0.47358727 0.8807469 0
vn -0.3831339 0.8807509 0.2783638
vn 0.14634167 0.88075036 0.45040312
vn 0.09983134 0.94637775 -0.30725062
vn 1.5115907E-07 1 2.5193177E-07
vn -0.26136333 0.94637764 -0.1898912
vn 0.32306436 0.946377 0
vn -0.26136327 0.9463775 0.18989165
vn 0.099831074 0.94637764 0.30725098
vn 0.25303534 0.9534615 -0.16396417
vn -0 1 0
vn -0.077746786 0.9534614 -0.2913189
vn 0.23413233 0.9534612 0.18998358
vn -0.30108714 0.953461 -0.016081369
vn -0.10833486 0.9534612 0.281381
vn 0.111237206 0.9329661 -0.3423457
vn -0 1 0
vn -0.291217 0.93296623 -0.21158141
vn 0.35996428 0.9329661 0
vn -0.29121986 0.9329654 0.21158123
vn 0.11123415 0.9329664 0.34234574
vn 0.2675222 0.89555633 -0.3555429
vn -0.008197232 0.999961 -0.00328701
vn -0.1541595 0.95130396 -0.2669373
vn 0.23684198 0.9668923 0.09500107
vn -0.29589543 0.9513039 0.08641032
vn -0.052334413 0.89555496 0.44186234
vn 0.111233965 0.93296623 -0.34234637
vn -0 1 -4.712453E-07
vn -0.29121718 0.932966 -0.21158199
vn 0.3599663 0.9329653 0
vn -0.2912172 0.93296623 0.21158116
vn 0.11123445 0.9329664 0.34234563
vn 0.25303617 0.9534614 -0.1639638
vn -1.6222562E-07 1 1.6816925E-07
vn -0.07774701 0.9534615 -0.29131854
vn 0.23413032 0.95346177 0.18998376
vn -0.30108586 0.9534614 -0.016081352
vn -0.108334705 0.95346135 0.28138056
vn 0.14634158 0.8807516 -0.45040056
vn 2.85515E-07 1 1.0960092E-06
vn -0.3831324 0.8807521 -0.27836174
vn 0.4735829 0.8807492 0
vn -0.38313246 0.88075155 0.27836365
vn 0.1463461 0.88075024 0.4504018
vn 0.10794829 0.9370014 -0.33222824
vn 1.156581E-07 1 0
vn -0.28261313 0.93700033 -0.2053293
vn 0.34932792 0.9370006 0
vn -0.28261313 0.93700033 0.2053293
vn 0.10794829 0.9370014 0.33222824
vn 0.14634159 0.88075125 -0.45040128
vn -3.8682614E-07 1 0
vn -0.38313723 0.88074905 -0.2783648
vn 0.47358018 0.8807507 0
vn -0.3831348 0.88075 0.2783651
vn 0.14634435 0.880751 0.45040104
vn 0.2128378 0.9569316 -0.19743843
vn -0.0019744136 0.9999974 -0.0011429484
vn -0.09392204 0.97186345 -0.21600997
vn 0.18221135 0.9775833 0.105497874
vn -0.23409542 0.97186345 0.026093211
vn -0.06526117 0.95693207 0.28288174
g housePlanterDirt_0
f 3/3/3 2/2/2 1/1/1
f 2/2/2 4/4/4 1/1/1
f 2/2/2 5/5/5 4/4/4
f 2/2/2 6/6/6 5/5/5
f 7/7/7 6/6/6 2/2/2
f 8/8/8 2/2/2 3/3/3
f 8/8/8 7/7/7 2/2/2
f 9/9/9 8/8/8 3/3/3
f 10/10/10 7/7/7 8/8/8
f 11/11/11 8/8/8 9/9/9
f 11/11/11 10/10/10 8/8/8
f 12/12/12 11/11/11 9/9/9
f 13/13/13 10/10/10 11/11/11
f 14/14/14 11/11/11 12/12/12
f 14/14/14 13/13/13 11/11/11
f 15/15/15 14/14/14 12/12/12
f 16/16/16 13/13/13 14/14/14
f 17/17/17 14/14/14 15/15/15
f 18/18/18 16/16/16 14/14/14
f 17/17/17 18/18/18 14/14/14
f 21/21/21 20/20/20 19/19/19
f 19/19/19 20/20/20 22/22/22
f 23/23/23 20/20/20 21/21/21
f 22/22/22 20/20/20 24/24/24
f 24/24/24 20/20/20 23/23/23
f 27/27/27 26/26/26 25/25/25
f 25/25/25 26/26/26 28/28/28
f 29/29/29 26/26/26 27/27/27
f 28/28/28 26/26/26 30/30/30
f 30/30/30 26/26/26 29/29/29
f 33/33/33 32/32/32 31/31/31
f 31/31/31 32/32/32 34/34/34
f 35/35/35 32/32/32 33/33/33
f 34/34/34 32/32/32 36/36/36
f 36/36/36 32/32/32 35/35/35
f 39/39/39 38/38/38 37/37/37
f 37/37/37 38/38/38 40/40/40
f 41/41/41 38/38/38 39/39/39
f 40/40/40 38/38/38 42/42/42
f 42/42/42 38/38/38 41/41/41
f 45/45/45 44/44/44 43/43/43
f 43/43/43 44/44/44 46/46/46
f 47/47/47 44/44/44 45/45/45
f 46/46/46 44/44/44 48/48/48
f 48/48/48 44/44/44 47/47/47
f 51/51/51 50/50/50 49/49/49
f 49/49/49 50/50/50 52/52/52
f 53/53/53 50/50/50 51/51/51
f 52/52/52 50/50/50 54/54/54
f 54/54/54 50/50/50 53/53/53
f 57/57/57 56/56/56 55/55/55
f 55/55/55 56/56/56 58/58/58
f 59/59/59 56/56/56 57/57/57
f 58/58/58 56/56/56 60/60/60
f 60/60/60 56/56/56 59/59/59
f 63/63/63 62/62/62 61/61/61
f 61/61/61 62/62/62 64/64/64
f 65/65/65 62/62/62 63/63/63
f 64/64/64 62/62/62 66/66/66
f 66/66/66 62/62/62 65/65/65
f 69/69/69 68/68/68 67/67/67
f 67/67/67 68/68/68 70/70/70
f 71/71/71 68/68/68 69/69/69
f 70/70/70 68/68/68 72/72/72
f 72/72/72 68/68/68 71/71/71
f 75/75/75 74/74/74 73/73/73
f 73/73/73 74/74/74 76/76/76
f 77/77/77 74/74/74 75/75/75
f 76/76/76 74/74/74 78/78/78
f 78/78/78 74/74/74 77/77/77
f 81/81/81 80/80/80 79/79/79
f 79/79/79 80/80/80 82/82/82
f 83/83/83 80/80/80 81/81/81
f 82/82/82 80/80/80 84/84/84
f 84/84/84 80/80/80 83/83/83
