g housekit_wall_strut
v 0.65625 1.75 0
v 0.65625 1.6511363 0
v 0.63079256 1.6174904 0.1279805
v -0.65625 1.75 0
v -0.63079256 1.6174904 0.1279805
v -0.65625 1.6511363 0
v 0.60629636 3.4559045 0.25113633
v 0.61163056 3.5 0
v 0.65625 3.4559045 0
v 0.5650725 3.5 0.2340609
v 0.4640384 3.4559045 0.4640388
v 0.4324884 3.5 0.43248773
v 0.25113633 3.4559047 0.6062959
v 0.23406036 3.5 0.5650725
v 0.60629636 0.044095267 0.25113633
v 0.5650725 0 0.2340609
v 0.4324884 0 0.43248773
v 0.4640384 0.04409538 0.4640388
v 0.23406036 0 0.5650725
v 0.25113633 0.04409549 0.6062959
v -0 0 0.61163
v -0 0.04409549 0.65625
v -0.25113633 0.04409549 0.6062959
v -0.23406036 0 0.5650725
v -0.4640384 0.04409538 0.4640388
v -0.4324884 0 0.43248773
v -0.60629636 0.044095267 0.25113633
v -0.5650725 0 0.2340609
v 0.61163056 3.5 0
v 0.5650725 3.5 0.2340609
v -0 3.5 0
v 0.4324884 3.5 0.43248773
v 0.23406036 3.5 0.5650725
v 0.175 3.5 0.5352567
v -0 3.5 0.56701005
v -0.175 3.5 0.5352567
v -0.23406036 3.5 0.5650725
v -0.4324884 3.5 0.43248773
v -0.5650725 3.5 0.2340609
v -0.61163056 3.5 0
v -0 0 0
v 0.5352571 0 0.175
v 0.56701005 0 0
v 0.5650725 0 0.2340609
v 0.4324884 0 0.43248773
v 0.23406036 0 0.5650725
v -0 0 0.61163
v -0.23406036 0 0.5650725
v -0.4324884 0 0.43248773
v -0.5650725 0 0.2340609
v -0.535256 0 0.175
v -0.56701005 0 0
v 0.5932227 1.5787714 0.09269905
v 0.65625 1.6511363 0
v 0.61163056 1.6064273 0
v 0.63079256 1.6174904 0.1279805
v 0.5784827 1.5032138 0.16680488
v 0.61285996 1.5255681 0.2181369
v 0.57308656 1.4 0.19392967
v 0.60629636 1.4 0.25113633
v 0.60629636 0.044095267 0.25113633
v 0.57308656 0.044095267 0.19392967
v 0.61163056 1.6064273 0
v 0.61163056 1.4 0
v 0.5932227 1.5787714 0.09269905
v 0.5784827 1.5032138 0.16680488
v 0.57308656 1.4 0.19392967
v 0.57308656 0.044095267 0.19392967
v 0.61163056 0.044095267 0
v 0.57308656 0.044095267 0.19392967
v 0.61163056 0.044095267 0
v 0.56701005 0 0
v 0.5352571 0 0.175
v 0.60629636 0.044095267 0.25113633
v 0.57308656 0.044095267 0.19392967
v 0.5352571 0 0.175
v 0.5650725 0 0.2340609
v 0.60629636 3.4559045 0.25113633
v 0.65625 3.4559045 0
v 0.65625 1.75 0
v 0.60629636 1.75 0.25113633
v 0.4640384 3.4559045 0.4640388
v 0.4640384 1.75 0.4640388
v 0.25113633 2.1 0.6062959
v 0.25113633 3.4559047 0.6062959
v 0.2181369 1.9744319 0.61285985
v 0.25113633 1.75 0.6062959
v 0.1279805 1.8825096 0.6307931
v -0 1.75 0.65625
v -0 1.8488637 0.65625
v -0.1279805 1.8825096 0.6307931
v -0.25113633 1.75 0.6062959
v -0.2181369 1.9744319 0.61285985
v -0.4640384 1.75 0.4640388
v -0.25113633 2.1 0.6062959
v -0.4640384 3.4559045 0.4640388
v -0.25113633 3.4559047 0.6062959
v -0.60629636 1.75 0.25113633
v -0.60629636 3.4559045 0.25113633
v -0.65625 1.75 0
v -0.65625 3.4559045 0
v 0.65625 1.75 0
v 0.63079256 1.6174904 0.1279805
v 0.60629636 1.75 0.25113633
v 0.61285996 1.5255681 0.2181369
v 0.4640384 1.75 0.4640388
v 0.60629636 1.4 0.25113633
v 0.4640384 0.04409538 0.4640388
v 0.60629636 0.044095267 0.25113633
v 0.25113633 1.75 0.6062959
v 0.25113633 0.04409549 0.6062959
v -0 1.75 0.65625
v -0 0.04409549 0.65625
v -0.25113633 0.04409549 0.6062959
v -0.25113633 1.75 0.6062959
v -0.4640384 0.04409538 0.4640388
v -0.4640384 1.75 0.4640388
v -0.60629636 1.4 0.25113633
v -0.60629636 0.044095267 0.25113633
v -0.61285996 1.5255681 0.2181369
v -0.60629636 1.75 0.25113633
v -0.63079256 1.6174904 0.1279805
v -0.65625 1.75 0
v 0.19392914 2.1 0.5730868
v 0.19392914 3.4559047 0.5730868
v 0.25113633 3.4559047 0.6062959
v 0.25113633 2.1 0.6062959
v 0.2181369 1.9744319 0.61285985
v 0.16680542 1.9967864 0.57848215
v 0.1279805 1.8825096 0.6307931
v 0.09269959 1.9212286 0.5932228
v -0 1.8488637 0.65625
v -0 1.8935727 0.61163
v -0.09269959 1.9212286 0.5932228
v -0.1279805 1.8825096 0.6307931
v -0.16680542 1.9967864 0.57848215
v -0.2181369 1.9744319 0.61285985
v -0.19392914 2.1 0.5730868
v -0.25113633 2.1 0.6062959
v -0.25113633 3.4559047 0.6062959
v -0.19392914 3.4559047 0.5730868
v 0.19392914 3.4559047 0.5730868
v -0 3.4559047 0.61163
v -0 3.5 0.56701005
v 0.175 3.5 0.5352567
v 0.25113633 3.4559047 0.6062959
v 0.19392914 3.4559047 0.5730868
v 0.175 3.5 0.5352567
v 0.23406036 3.5 0.5650725
v -0.25113633 3.4559047 0.6062959
v -0.4324884 3.5 0.43248773
v -0.23406036 3.5 0.5650725
v -0.4640384 3.4559045 0.4640388
v -0.5650725 3.5 0.2340609
v -0.60629636 3.4559045 0.25113633
v -0.61163056 3.5 0
v -0.65625 3.4559045 0
v -0.19392914 3.4559047 0.5730868
v -0.175 3.5 0.5352567
v -0 3.5 0.56701005
v -0 3.4559047 0.61163
v -0.25113633 3.4559047 0.6062959
v -0.23406036 3.5 0.5650725
v -0.175 3.5 0.5352567
v -0.19392914 3.4559047 0.5730868
v -0.5932227 1.5787714 0.09269905
v -0.61163056 1.6064273 0
v -0.65625 1.6511363 0
v -0.63079256 1.6174904 0.1279805
v -0.5784827 1.5032138 0.16680488
v -0.61285996 1.5255681 0.2181369
v -0.57308656 1.4 0.19392967
v -0.60629636 1.4 0.25113633
v -0.60629636 0.044095267 0.25113633
v -0.57308656 0.044095267 0.19392967
v -0.61163056 1.6064273 0
v -0.5932227 1.5787714 0.09269905
v -0.61163056 1.4 0
v -0.5784827 1.5032138 0.16680488
v -0.57308656 1.4 0.19392967
v -0.57308656 0.044095267 0.19392967
v -0.61163056 0.044095267 0
v -0.57308656 0.044095267 0.19392967
v -0.535256 0 0.175
v -0.56701005 0 0
v -0.61163056 0.044095267 0
v -0.60629636 0.044095267 0.25113633
v -0.5650725 0 0.2340609
v -0.535256 0 0.175
v -0.57308656 0.044095267 0.19392967
v -0 2.1 0.61163
v -0 3.4559047 0.61163
v 0.19392914 3.4559047 0.5730868
v 0.19392914 2.1 0.5730868
v -0.19392914 3.4559047 0.5730868
v 0.16680542 1.9967864 0.57848215
v -0.19392914 2.1 0.5730868
v 0.09269959 1.9212286 0.5932228
v -0.16680542 1.9967864 0.57848215
v -0 1.8935727 0.61163
v -0.09269959 1.9212286 0.5932228
vt 0.84446585 0.24480256
vt 0.84451103 0.23228556
vt 0.82832277 0.22796687
vt 0.62500125 0.24440533
vt 0.6412657 0.22768694
vt 0.6250466 0.23188832
vt 0.52940625 0.49047038
vt 0.5301186 0.49635983
vt 0.53607816 0.49047038
vt 0.5239005 0.49635983
vt 0.5104065 0.49047038
vt 0.50619286 0.49635983
vt 0.48197174 0.49047038
vt 0.4796912 0.49635983
vt 0.52940625 0.49725166
vt 0.5239005 0.4913624
vt 0.50619286 0.4913624
vt 0.5104065 0.49725172
vt 0.4796912 0.4913624
vt 0.48197174 0.49725172
vt 0.44843045 0.4913624
vt 0.44843045 0.49725172
vt 0.41488895 0.49725172
vt 0.4171697 0.4913624
vt 0.38645414 0.49725172
vt 0.39066803 0.4913624
vt 0.36745444 0.49725166
vt 0.3729603 0.4913624
vt 0.53636277 0.06338252
vt 0.51007354 0.068611816
vt 0.53636277 0.13207944
vt 0.4877865 0.08350325
vt 0.47289494 0.105790175
vt 0.47624388 0.11242391
vt 0.47267744 0.13207944
vt 0.47624388 0.1517351
vt 0.47289494 0.15836859
vt 0.4877865 0.18065551
vt 0.51007354 0.1955472
vt 0.53636277 0.20077649
vt 0.56531477 0.13147156
vt 0.5860353 0.068095416
vt 0.56531477 0.06433593
vt 0.5930282 0.064565375
vt 0.61652255 0.08026363
vt 0.632221 0.10375804
vt 0.6377335 0.13147156
vt 0.632221 0.15918505
vt 0.61652255 0.18267947
vt 0.5930282 0.19837788
vt 0.5860353 0.19484743
vt 0.56531477 0.1986073
vt 0.6499791 0.48775733
vt 0.65753925 0.49196488
vt 0.65750337 0.4877572
vt 0.6498946 0.49196494
vt 0.6395589 0.48775733
vt 0.6409765 0.49196494
vt 0.63295317 0.48775733
vt 0.6329397 0.49196494
vt 0.54624283 0.4919649
vt 0.54625493 0.48775727
vt 0.7631165 0.69092834
vt 0.7468256 0.69092834
vt 0.76093394 0.6981073
vt 0.7549711 0.70384634
vt 0.74682564 0.70594704
vt 0.63982075 0.70594704
vt 0.6398207 0.6909284
vt 0.52386785 0.9537463
vt 0.5238675 0.93366444
vt 0.5078523 0.93366444
vt 0.5078527 0.95178616
vt 0.54624283 0.4919649
vt 0.54625493 0.48775727
vt 0.54469526 0.48775733
vt 0.54442406 0.49196494
vt 0.2802307 0.028583795
vt 0.24953881 0.028472632
vt 0.24878404 0.23695514
vt 0.27947596 0.23706624
vt 0.3062501 0.02867791
vt 0.3017441 0.23718596
vt 0.32352403 0.19444309
vt 0.323824 0.028734326
vt 0.32591388 0.20979044
vt 0.3234466 0.23721746
vt 0.33906347 0.221017
vt 0.35470444 0.2372115
vt 0.35470438 0.22512904
vt 0.37034526 0.221017
vt 0.38539663 0.2372115
vt 0.3813637 0.20978296
vt 0.40766507 0.2371724
vt 0.38539663 0.19443695
vt 0.41141605 0.028727561
vt 0.38539666 0.028727591
vt 0.42936748 0.23721948
vt 0.42974484 0.028736323
vt 0.4606253 0.23733857
vt 0.46137995 0.02885601
vt 0.84446585 0.24480256
vt 0.82832277 0.22796687
vt 0.8126692 0.2446875
vt 0.8169502 0.21628726
vt 0.7895999 0.24456349
vt 0.8128297 0.20037392
vt 0.78649557 0.028605074
vt 0.81305474 0.028703965
vt 0.7671163 0.2445308
vt 0.7675073 0.028545327
vt 0.7347337 0.24453697
vt 0.7347337 0.028550848
vt 0.702937 0.028550848
vt 0.702937 0.24453697
vt 0.6759812 0.028550848
vt 0.67986727 0.2445775
vt 0.65746415 0.2002151
vt 0.6581223 0.02854544
vt 0.6549309 0.21610582
vt 0.6573839 0.24452868
vt 0.6412657 0.22768694
vt 0.62500125 0.24440533
vt 0.63305855 0.48775727
vt 0.5468181 0.48775738
vt 0.5468455 0.49196497
vt 0.6331371 0.49196494
vt 0.6409931 0.491965
vt 0.6390975 0.48775727
vt 0.65005976 0.49196497
vt 0.6496578 0.48775738
vt 0.65776366 0.49196494
vt 0.6577098 0.48775733
vt 0.66525614 0.48775727
vt 0.6639846 0.49196494
vt 0.6718092 0.4877572
vt 0.6711497 0.49196488
vt 0.67822695 0.48775733
vt 0.6784978 0.49196488
vt 0.7644776 0.49196488
vt 0.76419336 0.48775727
vt 0.5234783 0.89500535
vt 0.5234783 0.8749238
vt 0.50746304 0.8749238
vt 0.50746286 0.8930452
vt 0.5468455 0.49196497
vt 0.5468181 0.48775738
vt 0.5439132 0.48775738
vt 0.543803 0.491965
vt 0.41488895 0.49047038
vt 0.39066803 0.49635983
vt 0.4171697 0.49635983
vt 0.38645414 0.49047038
vt 0.3729603 0.49635983
vt 0.36745444 0.49047038
vt 0.366742 0.49635983
vt 0.36078274 0.49047038
vt 0.5234783 0.85484165
vt 0.50746334 0.8568019
vt 0.50746304 0.8749238
vt 0.5234783 0.8749238
vt 0.7644776 0.49196488
vt 0.76733434 0.49196494
vt 0.76691157 0.48775738
vt 0.76419336 0.48775727
vt 0.66491 0.48775733
vt 0.65798885 0.48775738
vt 0.65802467 0.491965
vt 0.6641582 0.491965
vt 0.6716322 0.48775738
vt 0.67161334 0.49196494
vt 0.67847365 0.48775727
vt 0.6787708 0.49196494
vt 0.7652138 0.49196506
vt 0.76490283 0.48775738
vt 0.7631164 0.6909163
vt 0.7609339 0.6837372
vt 0.7468255 0.6909163
vt 0.7549711 0.6779983
vt 0.7468256 0.6758978
vt 0.6398207 0.67589784
vt 0.63982075 0.69091624
vt 0.5238675 0.9135666
vt 0.50785285 0.9155266
vt 0.5078527 0.9336482
vt 0.52386785 0.9336482
vt 0.7652138 0.49196506
vt 0.7668663 0.49196488
vt 0.7662704 0.48775724
vt 0.76490283 0.48775738
vt 0.6141119 0.6901154
vt 0.507107 0.69011545
vt 0.507107 0.70513374
vt 0.61411196 0.7051337
vt 0.507107 0.6750965
vt 0.62225735 0.7030332
vt 0.6141121 0.6750966
vt 0.6282201 0.6972942
vt 0.6222574 0.67719734
vt 0.6304028 0.69011533
vt 0.62822 0.6829364
vn 0.98078567 -3.3662715E-07 0.19508845
vn 0.98078454 0 0.19509417
vn 0.980786 -9.472845E-06 0.19508672
vn -0.98078567 -3.3662715E-07 0.19508845
vn -0.980786 -8.2413635E-06 0.19508675
vn -0.98078454 0 0.19509417
vn 0.6494116 0.71127146 0.2689936
vn 0.69614744 0.7044177 0.1384719
vn 0.6961473 0.70441777 0.13847192
vn 0.64941156 0.7112714 0.26899385
vn 0.497034 0.7112758 0.49703506
vn 0.49703544 0.7112758 0.49703366
vn 0.3943304 0.7044264 0.5901585
vn 0.3943304 0.70442635 0.59015846
vn 0.5901618 -0.7044212 0.3943346
vn 0.59016174 -0.7044212 0.3943346
vn 0.49703556 -0.71127427 0.49703577
vn 0.4970341 -0.7112742 0.49703726
vn 0.26899236 -0.7112755 0.64940757
vn 0.26899397 -0.7112755 0.64940685
vn -0 -0.7112748 0.70291406
vn -0 -0.7112748 0.702914
vn -0.2689941 -0.7112749 0.64940757
vn -0.26899248 -0.7112749 0.6494082
vn -0.49703035 -0.7112794 0.49703366
vn -0.49703184 -0.7112794 0.4970322
vn -0.59015423 -0.7044304 0.39432955
vn -0.59015423 -0.7044304 0.39432955
vn -0 1 0
vn -0 1 0
vn -0 1 0
vn -0 1 0
vn -0 1 0
vn -0 1 0
vn -0 1 0
vn -0 1 0
vn -0 1 0
vn -0 1 0
vn -0 1 0
vn -0 1 0
vn -0 -1 0
vn -0 -1 0
vn -0 -1 0
vn -0 -1 0
vn -0 -1 0
vn -0 -1 0
vn -0 -1 0
vn -0 -1 0
vn -0 -1 0
vn -0 -1 0
vn -0 -1 0
vn -0 -1 0
vn 0.7785973 -0.59710443 -0.1930093
vn 0.72169006 -0.69052476 -0.048363924
vn 0.72168994 -0.69052476 -0.04836392
vn 0.7821978 -0.58840024 -0.20482142
vn 0.84363604 -0.33632 -0.41852972
vn 0.84463024 -0.32883105 -0.42245695
vn 0.8647328 -0.015346019 -0.5019975
vn 0.8647705 -0.01218419 -0.5020196
vn 0.86483437 0 -0.5020573
vn 0.86483437 0 -0.5020573
vn 0.9808482 0 0.19477376
vn 0.9808225 -5.0895516E-05 0.19490296
vn 0.9808282 -5.744108E-05 0.19487432
vn 0.9808115 -7.356806E-05 0.19495842
vn 0.9808153 -2.9309724E-05 0.19493939
vn 0.9808153 0 0.1949395
vn 0.9808153 0 0.1949395
vn 0.70915437 -0.6919837 0.13512436
vn 0.7091544 -0.69198364 0.13512434
vn 0.7091544 -0.69198376 0.13512436
vn 0.70915437 -0.6919837 0.13512436
vn 0.75601363 -0.510389 -0.40981278
vn 0.75601363 -0.51038903 -0.40981275
vn 0.75601363 -0.510389 -0.40981275
vn 0.75601363 -0.51038903 -0.40981278
vn 0.9238792 0 0.38268414
vn 0.98078567 0 0.19508839
vn 0.98078567 -3.3662715E-07 0.19508845
vn 0.92238903 -0.0019903947 0.386257
vn 0.7633713 0 0.6459599
vn 0.70710623 0 0.70710725
vn 0.55262065 -0.0025916258 0.83342886
vn 0.5555716 0 0.8314687
vn 0.45581168 -0.026522465 0.889681
vn 0.3862565 0.0019905542 0.9223892
vn 0.19509046 -1.1841058E-06 0.98078525
vn -0 0 1
vn -0 0 1
vn -0.19509055 3.0786987E-07 0.98078525
vn -0.3862565 0.0019907274 0.9223892
vn -0.45581198 -0.02652502 0.8896808
vn -0.70710623 0 0.70710725
vn -0.5526206 -0.0025918602 0.8334289
vn -0.7633714 0 0.6459599
vn -0.5555716 0 0.8314687
vn -0.92238903 -0.001990695 0.386257
vn -0.9238792 0 0.38268414
vn -0.98078567 -3.3662715E-07 0.19508845
vn -0.98078567 0 0.19508839
vn 0.98078567 -3.3662715E-07 0.19508845
vn 0.980786 -9.472845E-06 0.19508672
vn 0.92238903 -0.0019903947 0.386257
vn 0.8896813 0.026517512 0.45581156
vn 0.70710623 0 0.70710725
vn 0.83342767 0.0025911508 0.5526224
vn 0.6459587 0 0.76337236
vn 0.83146757 0 0.5555733
vn 0.3862565 0.0019905542 0.9223892
vn 0.38268378 0 0.92387944
vn -0 0 1
vn -0 0 1
vn -0.3826838 0 0.92387944
vn -0.3862565 0.0019907274 0.9223892
vn -0.6459588 0 0.76337236
vn -0.70710623 0 0.70710725
vn -0.8334278 0.002591619 0.5526224
vn -0.83146757 0 0.5555733
vn -0.88968116 0.026523124 0.45581135
vn -0.92238903 -0.001990695 0.386257
vn -0.980786 -8.2413635E-06 0.19508675
vn -0.98078567 -3.3662715E-07 0.19508845
vn -0.5019861 0.015346433 0.86473954
vn -0.50204486 0 0.8648416
vn -0.50204486 0 0.8648416
vn -0.5020079 0.012184519 0.8647772
vn -0.42245653 0.32883546 0.84462875
vn -0.41853023 0.33632275 0.84363467
vn -0.20482466 0.5884058 0.7821928
vn -0.19301404 0.5971091 0.7785925
vn 2.5736028E-07 0.6913389 0.72253066
vn 2.5535198E-07 0.6913389 0.72253066
vn 0.19301435 0.5971052 0.7785954
vn 0.20482494 0.58840203 0.7821955
vn 0.4185303 0.33632317 0.8436345
vn 0.42245653 0.32883593 0.8446285
vn 0.5019861 0.015346753 0.86473954
vn 0.5020079 0.012184775 0.8647772
vn 0.50204486 0 0.8648416
vn 0.50204486 0 0.8648416
vn 0.1351221 0.6919927 0.7091461
vn -0 0.6983957 0.71571183
vn -0 0.6983957 0.71571183
vn 0.1351221 0.69199264 0.7091461
vn -0.40981245 0.51038164 0.75601876
vn -0.40981245 0.5103816 0.75601876
vn -0.40981245 0.5103816 0.75601876
vn -0.40981245 0.51038164 0.75601876
vn -0.39432883 0.7044284 0.59015703
vn -0.49703175 0.71128106 0.49702978
vn -0.39432886 0.7044284 0.59015703
vn -0.49703035 0.71128106 0.49703118
vn -0.64940727 0.7112759 0.268992
vn -0.6494074 0.7112759 0.26899177
vn -0.69614685 0.7044184 0.13847181
vn -0.6961468 0.7044183 0.13847178
vn -0.13512257 0.69198865 0.70914984
vn -0.1351226 0.6919887 0.70914984
vn -0 0.6983957 0.71571183
vn -0 0.6983957 0.71571183
vn 0.4098106 0.5103903 0.75601393
vn 0.40981054 0.5103903 0.75601393
vn 0.4098106 0.5103903 0.75601393
vn 0.4098106 0.5103903 0.7560139
vn -0.7785999 -0.59710056 -0.19301058
vn -0.72169524 -0.6905193 -0.0483646
vn -0.7216953 -0.6905192 -0.04836461
vn -0.78220016 -0.5883966 -0.20482266
vn -0.84363604 -0.33632 -0.4185297
vn -0.84463024 -0.32883102 -0.42245695
vn -0.8647328 -0.015346032 -0.5019975
vn -0.8647705 -0.012184202 -0.5020195
vn -0.86483437 0 -0.5020573
vn -0.86483437 0 -0.5020573
vn -0.9808482 0 0.19477376
vn -0.9808282 -5.0260947E-05 0.19487432
vn -0.9808225 -5.481023E-05 0.19490285
vn -0.9808115 -7.869607E-05 0.19495831
vn -0.9808153 -5.495573E-05 0.19493927
vn -0.9808153 0 0.1949395
vn -0.9808153 0 0.1949395
vn -0.7091342 -0.6920048 0.13512255
vn -0.7091342 -0.69200486 0.13512255
vn -0.7091342 -0.6920048 0.13512255
vn -0.7091342 -0.6920048 0.13512255
vn -0.7560136 -0.5103835 -0.4098197
vn -0.7560136 -0.51038355 -0.4098197
vn -0.7560136 -0.51038355 -0.4098197
vn -0.7560136 -0.5103835 -0.40981972
vn -0 5.5336277E-05 1
vn -0 0 1
vn 0.19493619 0 0.98081595
vn 0.19493629 4.030098E-05 0.98081595
vn -0.19493619 0 0.98081595
vn 0.19495817 7.801402E-05 0.9808115
vn -0.1949364 4.1216932E-05 0.98081595
vn 0.19487102 5.6543544E-05 0.9808288
vn -0.19495818 7.846166E-05 0.9808115
vn -1.7800882E-07 0 1
vn -0.1948712 5.6543544E-05 0.9808288
g housekit_wall_strut_0
f 3/3/3 2/2/2 1/1/1
f 6/6/6 5/5/5 4/4/4
f 9/9/9 8/8/8 7/7/7
f 8/8/8 10/10/10 7/7/7
f 7/7/7 10/10/10 11/11/11
f 10/10/10 12/12/12 11/11/11
f 11/11/11 12/12/12 13/13/13
f 12/12/12 14/14/14 13/13/13
f 17/17/17 16/16/16 15/15/15
f 18/18/18 17/17/17 15/15/15
f 19/19/19 17/17/17 18/18/18
f 20/20/20 19/19/19 18/18/18
f 21/21/21 19/19/19 20/20/20
f 22/22/22 21/21/21 20/20/20
f 21/21/21 22/22/22 23/23/23
f 24/24/24 21/21/21 23/23/23
f 24/24/24 23/23/23 25/25/25
f 26/26/26 24/24/24 25/25/25
f 26/26/26 25/25/25 27/27/27
f 28/28/28 26/26/26 27/27/27
f 31/31/31 30/30/30 29/29/29
f 31/31/31 32/32/32 30/30/30
f 31/31/31 33/33/33 32/32/32
f 31/31/31 34/34/34 33/33/33
f 35/35/35 34/34/34 31/31/31
f 36/36/36 35/35/35 31/31/31
f 36/36/36 31/31/31 37/37/37
f 37/37/37 31/31/31 38/38/38
f 38/38/38 31/31/31 39/39/39
f 39/39/39 31/31/31 40/40/40
f 43/43/43 42/42/42 41/41/41
f 41/41/41 42/42/42 44/44/44
f 41/41/41 44/44/44 45/45/45
f 41/41/41 45/45/45 46/46/46
f 41/41/41 46/46/46 47/47/47
f 48/48/48 41/41/41 47/47/47
f 49/49/49 41/41/41 48/48/48
f 50/50/50 41/41/41 49/49/49
f 51/51/51 41/41/41 50/50/50
f 51/51/51 52/52/52 41/41/41
f 55/55/55 54/54/54 53/53/53
f 54/54/54 56/56/56 53/53/53
f 53/53/53 56/56/56 57/57/57
f 56/56/56 58/58/58 57/57/57
f 57/57/57 58/58/58 59/59/59
f 58/58/58 60/60/60 59/59/59
f 60/60/60 61/61/61 59/59/59
f 61/61/61 62/62/62 59/59/59
f 65/65/65 64/64/64 63/63/63
f 66/66/66 64/64/64 65/65/65
f 67/67/67 64/64/64 66/66/66
f 67/67/67 68/68/68 64/64/64
f 68/68/68 69/69/69 64/64/64
f 72/72/72 71/71/71 70/70/70
f 73/73/73 72/72/72 70/70/70
f 76/76/76 75/75/75 74/74/74
f 77/77/77 76/76/76 74/74/74
f 80/80/80 79/79/79 78/78/78
f 81/81/81 80/80/80 78/78/78
f 81/81/81 78/78/78 82/82/82
f 83/83/83 81/81/81 82/82/82
f 83/83/83 82/82/82 84/84/84
f 82/82/82 85/85/85 84/84/84
f 84/84/84 86/86/86 83/83/83
f 83/83/83 86/86/86 87/87/87
f 86/86/86 88/88/88 87/87/87
f 87/87/87 88/88/88 89/89/89
f 88/88/88 90/90/90 89/89/89
f 90/90/90 91/91/91 89/89/89
f 91/91/91 92/92/92 89/89/89
f 91/91/91 93/93/93 92/92/92
f 93/93/93 94/94/94 92/92/92
f 93/93/93 95/95/95 94/94/94
f 96/96/96 94/94/94 95/95/95
f 97/97/97 96/96/96 95/95/95
f 98/98/98 94/94/94 96/96/96
f 99/99/99 98/98/98 96/96/96
f 100/100/100 98/98/98 99/99/99
f 101/101/101 100/100/100 99/99/99
f 104/104/104 103/103/103 102/102/102
f 105/105/105 103/103/103 104/104/104
f 106/106/106 105/105/105 104/104/104
f 107/107/107 105/105/105 106/106/106
f 106/106/106 108/108/108 107/107/107
f 108/108/108 109/109/109 107/107/107
f 106/106/106 110/110/110 108/108/108
f 110/110/110 111/111/111 108/108/108
f 110/110/110 112/112/112 111/111/111
f 112/112/112 113/113/113 111/111/111
f 113/113/113 112/112/112 114/114/114
f 112/112/112 115/115/115 114/114/114
f 114/114/114 115/115/115 116/116/116
f 115/115/115 117/117/117 116/116/116
f 116/116/116 117/117/117 118/118/118
f 119/119/119 116/116/116 118/118/118
f 120/120/120 118/118/118 117/117/117
f 120/120/120 117/117/117 121/121/121
f 122/122/122 120/120/120 121/121/121
f 122/122/122 121/121/121 123/123/123
f 126/126/126 125/125/125 124/124/124
f 127/127/127 126/126/126 124/124/124
f 128/128/128 127/127/127 124/124/124
f 129/129/129 128/128/128 124/124/124
f 130/130/130 128/128/128 129/129/129
f 131/131/131 130/130/130 129/129/129
f 132/132/132 130/130/130 131/131/131
f 133/133/133 132/132/132 131/131/131
f 132/132/132 133/133/133 134/134/134
f 135/135/135 132/132/132 134/134/134
f 135/135/135 134/134/134 136/136/136
f 137/137/137 135/135/135 136/136/136
f 137/137/137 136/136/136 138/138/138
f 139/139/139 137/137/137 138/138/138
f 140/140/140 139/139/139 138/138/138
f 141/141/141 140/140/140 138/138/138
f 144/144/144 143/143/143 142/142/142
f 145/145/145 144/144/144 142/142/142
f 148/148/148 147/147/147 146/146/146
f 149/149/149 148/148/148 146/146/146
f 152/152/152 151/151/151 150/150/150
f 151/151/151 153/153/153 150/150/150
f 151/151/151 154/154/154 153/153/153
f 154/154/154 155/155/155 153/153/153
f 154/154/154 156/156/156 155/155/155
f 156/156/156 157/157/157 155/155/155
f 160/160/160 159/159/159 158/158/158
f 161/161/161 160/160/160 158/158/158
f 164/164/164 163/163/163 162/162/162
f 165/165/165 164/164/164 162/162/162
f 168/168/168 167/167/167 166/166/166
f 169/169/169 168/168/168 166/166/166
f 169/169/169 166/166/166 170/170/170
f 171/171/171 169/169/169 170/170/170
f 171/171/171 170/170/170 172/172/172
f 173/173/173 171/171/171 172/172/172
f 174/174/174 173/173/173 172/172/172
f 175/175/175 174/174/174 172/172/172
f 178/178/178 177/177/177 176/176/176
f 178/178/178 179/179/179 177/177/177
f 178/178/178 180/180/180 179/179/179
f 181/181/181 180/180/180 178/178/178
f 182/182/182 181/181/181 178/178/178
f 185/185/185 184/184/184 183/183/183
f 186/186/186 185/185/185 183/183/183
f 189/189/189 188/188/188 187/187/187
f 190/190/190 189/189/189 187/187/187
f 193/193/193 192/192/192 191/191/191
f 194/194/194 193/193/193 191/191/191
f 192/192/192 195/195/195 191/191/191
f 194/194/194 191/191/191 196/196/196
f 195/195/195 197/197/197 191/191/191
f 196/196/196 191/191/191 198/198/198
f 191/191/191 197/197/197 199/199/199
f 198/198/198 191/191/191 200/200/200
f 191/191/191 199/199/199 201/201/201
f 191/191/191 201/201/201 200/200/200
