g houseDoormat
v 0.33442146 0.016379857 -0.790565
v 0.33769253 -0.032756418 -0.7906157
v 1.0239059 -0.032756418 -0.8139274
v -1.0235406 0.044264663 0.795901
v -1.0239061 0.028295808 0.813932
v -1.03993 0.028166708 0.79647595
v 1.0598528 0.016546473 0.7640382
v 1.0442809 0.016548267 0.78198135
v 1.0434532 0.032919038 0.76396435
v -1.044281 0.016379857 -0.78198105
v -1.0434535 0.03275643 -0.76396406
v -1.0598528 0.016379857 -0.7640343
v -0.3867845 0.027281031 0.30283642
v 0.38678443 0.027281031 -0.30283314
v 0.39436293 0.027281031 0.2907673
v -0.39436293 0.027281031 -0.29076403
v 0.33478948 0.032554545 -0.772556
v 1.0235391 0.038319774 -0.7958952
v 1.0136198 0.032616936 -0.27777576
v -0.35437924 0.032554545 -0.7619096
v -1.0203117 0.032616936 -0.24635364
v -1.0434535 0.03275643 -0.76396406
v -1.03993 0.028166708 0.79647595
v -1.013701 0.032618098 0.28195262
v -1.0235406 0.044264663 0.795901
v -1.0299984 0.016379857 0.27771434
v -1.0203117 0.032616936 -0.24635364
v -1.0366821 0.016379857 -0.24578418
v -1.0434535 0.03275643 -0.76396406
v -1.0598528 0.016379857 -0.7640343
v -1.0239061 0.028295808 0.813932
v -1.0206349 -0.032756418 0.81388134
v -1.0366589 -0.032756418 0.7964253
v -1.03993 0.028166708 0.79647595
v -0.34320116 0.0325563 0.772845
v 0.35437918 0.032554545 0.76191056
v 0.3544719 0.016379857 0.77992326
v -0.3344216 0.016379857 0.7905653
v -1.0235406 0.044264663 0.795901
v -1.0239061 0.028295808 0.813932
v -1.0206349 -0.032756418 0.81388134
v -0.33115047 -0.032756418 0.7905159
v 0.35437918 0.032554545 0.76191056
v 1.0434532 0.032919038 0.76396435
v 1.0442809 0.016548267 0.78198135
v 0.3544719 0.016379857 0.77992326
v 1.0598528 0.016546473 0.7640382
v 1.0598528 -0.032756418 0.7640382
v 1.0442809 -0.032756418 0.78198135
v 1.0442809 0.016548267 0.78198135
v -1.0598528 0.016379857 -0.7640343
v -1.0565819 -0.032756418 -0.7640861
v -1.0410098 -0.032756418 -0.7820317
v -1.044281 0.016379857 -0.78198105
v -1.044281 0.016379857 -0.78198105
v -0.35437924 0.032554545 -0.7619096
v -1.0434535 0.03275643 -0.76396406
v -0.35447192 0.016379857 -0.7799223
v -1.0410098 -0.032756418 -0.7820317
v -0.3512008 -0.032756418 -0.779973
v -0.35447192 0.016379857 -0.7799223
v 0.33478948 0.032554545 -0.772556
v -0.35437924 0.032554545 -0.7619096
v 0.33442146 0.016379857 -0.790565
v 1.0235391 0.038319774 -0.7958952
v 1.0239059 0.022140983 -0.8139274
v 1.0239059 -0.032756418 -0.8139274
v 0.33769253 -0.032756418 -0.7906157
v -0.3512008 -0.032756418 -0.779973
v 1.0239059 0.022140983 -0.8139274
v 1.0239059 -0.032756418 -0.8139274
v 1.03993 -0.032756418 -0.79647446
v 1.03993 0.022079224 -0.79647446
v 1.0235391 0.038319774 -0.7958952
v 1.03993 0.022079224 -0.79647446
v 1.0136198 0.032616936 -0.27777576
v 1.0235391 0.038319774 -0.7958952
v 1.0299982 0.016379857 -0.27771106
v 1.0203112 0.032616936 0.24635692
v 1.0299982 -0.032756418 -0.27771106
v 1.03993 -0.032756418 -0.79647446
v 1.0366818 -0.032756418 0.24578503
v 1.0366818 0.016379857 0.24578503
v 1.0434532 0.032919038 0.76396435
v 1.0598528 -0.032756418 0.7640382
v 1.0598528 0.016546473 0.7640382
v -0.33115047 -0.032756418 0.7905159
v -0.3344216 0.016379857 0.7905653
v 0.3544719 0.016379857 0.77992326
v 0.3544719 -0.032756418 0.77992326
v 0.3544719 -0.032756418 0.77992326
v 0.3544719 0.016379857 0.77992326
v 1.0442809 0.016548267 0.78198135
v 1.0442809 -0.032756418 0.78198135
v -1.013701 0.032618098 0.28195262
v -0.34320116 0.0325563 0.772845
v -1.0235406 0.044264663 0.795901
v -0.3867845 0.027281031 0.30283642
v -0.39436293 0.027281031 -0.29076403
v -1.0203117 0.032616936 -0.24635364
v 0.39436293 0.027281031 0.2907673
v 0.35437918 0.032554545 0.76191056
v 1.0203112 0.032616936 0.24635692
v 1.0434532 0.032919038 0.76396435
v 1.0136198 0.032616936 -0.27777576
v 0.38678443 0.027281031 -0.30283314
v -1.0366821 0.016379857 -0.24578418
v -1.0565819 -0.032756418 -0.7640861
v -1.0598528 0.016379857 -0.7640343
v -1.033411 -0.032756418 -0.24583362
v -1.0299984 0.016379857 0.27771434
v -1.0267273 -0.032756418 0.27766246
v -1.03993 0.028166708 0.79647595
v -1.0366589 -0.032756418 0.7964253
vt 0.36675072 0.8880689
vt 0.36745173 0.88807523
vt 0.5136696 0.89053637
vt 0.07320583 0.5849486
vt 0.07308042 0.58146036
vt 0.06971502 0.5848884
vt 0.5170307 0.58488953
vt 0.5136652 0.5814617
vt 0.5135366 0.58495075
vt 0.07308169 0.89053094
vt 0.07320751 0.8870378
vt 0.06971626 0.8871027
vt 0.21016896 0.6785157
vt 0.37657613 0.79347384
vt 0.37657607 0.67851585
vt 0.21016912 0.793474
vt 0.36677873 0.8845787
vt 0.5135366 0.88703674
vt 0.51001525 0.78674626
vt 0.2199659 0.88457865
vt 0.07672879 0.7867464
vt 0.07320751 0.8870378
vt 0.06971502 0.5848884
vt 0.07670021 0.6844339
vt 0.07320583 0.5849486
vt 0.07324189 0.6853053
vt 0.07672879 0.7867464
vt 0.07324201 0.7866874
vt 0.07320751 0.8870378
vt 0.06971626 0.8871027
vt 0.07308042 0.58146036
vt 0.073782325 0.5814685
vt 0.07041687 0.58489615
vt 0.06971502 0.5848884
vt 0.21817297 0.5873793
vt 0.36677834 0.58740956
vt 0.3667505 0.58392376
vt 0.21999621 0.58392406
vt 0.07320583 0.5849486
vt 0.07308042 0.58146036
vt 0.073782325 0.5814685
vt 0.22069716 0.5839301
vt 0.36677834 0.58740956
vt 0.5135366 0.58495075
vt 0.5136652 0.5814617
vt 0.3667505 0.58392376
vt 0.5170307 0.58488953
vt 0.51703477 0.58489585
vt 0.5136694 0.58146805
vt 0.5136652 0.5814617
vt 0.06971626 0.8871027
vt 0.07041718 0.8871091
vt 0.07378261 0.89053726
vt 0.07308169 0.89053094
vt 0.07308169 0.89053094
vt 0.2199659 0.88457865
vt 0.07320751 0.8870378
vt 0.21999656 0.88806903
vt 0.07378261 0.89053726
vt 0.22069743 0.8880753
vt 0.21999656 0.88806903
vt 0.36677873 0.8845787
vt 0.2199659 0.88457865
vt 0.36675072 0.8880689
vt 0.5135366 0.88703674
vt 0.5136651 0.89052933
vt 0.5136696 0.89053637
vt 0.36745173 0.88807523
vt 0.22069743 0.8880753
vt 0.5136651 0.89052933
vt 0.5136696 0.89053637
vt 0.5170351 0.8871089
vt 0.5170305 0.88710165
vt 0.5135366 0.88703674
vt 0.5170305 0.88710165
vt 0.51001525 0.78674626
vt 0.5135366 0.88703674
vt 0.51350486 0.7866868
vt 0.51001525 0.6852415
vt 0.5135089 0.7866931
vt 0.5170351 0.8871089
vt 0.5135089 0.68531185
vt 0.51350486 0.6853054
vt 0.5135366 0.58495075
vt 0.51703477 0.58489585
vt 0.5170307 0.58488953
vt 0.22069716 0.5839301
vt 0.21999621 0.58392406
vt 0.3667505 0.58392376
vt 0.36675462 0.58392996
vt 0.36675462 0.58392996
vt 0.3667505 0.58392376
vt 0.5136652 0.5814617
vt 0.5136694 0.58146805
vt 0.07670021 0.6844339
vt 0.21817297 0.5873793
vt 0.07320583 0.5849486
vt 0.21016896 0.6785157
vt 0.21016912 0.793474
vt 0.07672879 0.7867464
vt 0.37657607 0.67851585
vt 0.36677834 0.58740956
vt 0.51001525 0.6852415
vt 0.5135366 0.58495075
vt 0.51001525 0.78674626
vt 0.37657613 0.79347384
vt 0.07324201 0.7866874
vt 0.07041718 0.8871091
vt 0.06971626 0.8871027
vt 0.07394296 0.78669363
vt 0.07324189 0.6853053
vt 0.07394278 0.68531156
vt 0.06971502 0.5848884
vt 0.07041687 0.58489615
vn -0.024833854 0.2606841 -0.9651047
vn -0.025326215 -0.00030891012 -0.9996792
vn -0.006994372 -0.0005658516 -0.99997544
vn -0.011764501 0.999798 0.016296288
vn 0.012650197 0.24565348 0.9692751
vn -0.9843135 0.1763635 0.004776205
vn 0.9717889 0.23513564 -0.018371316
vn 0.01772968 0.25814548 0.9659433
vn 0.021575503 0.9993799 0.027827
vn -0.018919067 0.26567364 -0.9638773
vn -0.021709139 0.9993722 -0.027999483
vn -0.98186433 0.18861648 0.019137524
vn 0.004969513 0.99996555 -0.0066604693
vn -0.003935837 0.99997854 0.005236668
vn -0.0030591737 0.9999881 -0.003809327
vn 0.003036602 0.9999883 0.003756278
vn -0.0045681307 0.9997732 -0.020801686
vn 0.016499087 0.99960583 -0.022714695
vn 0.015799347 0.9998599 0.0055225124
vn 0.0018256967 0.99972326 -0.023452159
vn -0.017623724 0.99983966 0.0031625591
vn -0.021709139 0.9993722 -0.027999483
vn -0.9843135 0.1763635 0.004776205
vn -0.013732076 0.9998692 -0.00854544
vn -0.011764501 0.999798 0.016296288
vn -0.9823184 0.1871392 -0.0054326793
vn -0.017623724 0.99983966 0.0031625591
vn -0.97987354 0.19763519 0.028076036
vn -0.021709139 0.9993722 -0.027999483
vn -0.98186433 0.18861648 0.019137524
vn 0.012650197 0.24565348 0.9692751
vn 0.0072202357 -0.00032935222 0.9999739
vn -0.99812406 -0.059130624 0.015871445
vn -0.9843135 0.1763635 0.004776205
vn 0.0068789413 0.9998154 0.017941395
vn -0.0018778733 0.9997253 0.02336361
vn 0.005951994 0.2665392 0.9638057
vn 0.025826236 0.2541054 0.9668316
vn -0.011764501 0.999798 0.016296288
vn 0.012650197 0.24565348 0.9692751
vn 0.0072202357 -0.00032935222 0.9999739
vn 0.024815397 0.0005664143 0.99969184
vn -0.0018778733 0.9997253 0.02336361
vn 0.021575503 0.9993799 0.027827
vn 0.01772968 0.25814548 0.9659433
vn 0.005951994 0.2665392 0.9638057
vn 0.9717889 0.23513564 -0.018371316
vn 0.99990034 0 -0.0141202
vn 0.02255586 0 0.99974555
vn 0.01772968 0.25814548 0.9659433
vn -0.98186433 0.18861648 0.019137524
vn -0.9977017 -0.06643131 0.013345344
vn -0.02082844 -0.00035553038 -0.999783
vn -0.018919067 0.26567364 -0.9638773
vn -0.018919067 0.26567364 -0.9638773
vn 0.0018256967 0.99972326 -0.023452159
vn -0.021709139 0.9993722 -0.027999483
vn -0.005693697 0.2668999 -0.9637073
vn -0.02082844 -0.00035553038 -0.999783
vn -0.006615952 0.0005905298 -0.99997795
vn -0.005693697 0.2668999 -0.9637073
vn -0.0045681307 0.9997732 -0.020801686
vn 0.0018256967 0.99972326 -0.023452159
vn -0.024833854 0.2606841 -0.9651047
vn 0.016499087 0.99960583 -0.022714695
vn -0.012892814 0.24929622 -0.9683414
vn -0.006994372 -0.0005658516 -0.99997544
vn -0.025326215 -0.00030891012 -0.9996792
vn -0.006615952 0.0005905298 -0.99997795
vn -0.012892814 0.24929622 -0.9683414
vn -0.006994372 -0.0005658516 -0.99997544
vn 0.9999156 0 -0.012992832
vn 0.97379297 0.22736683 -0.005617524
vn 0.016499087 0.99960583 -0.022714695
vn 0.97379297 0.22736683 -0.005617524
vn 0.015799347 0.9998599 0.0055225124
vn 0.016499087 0.99960583 -0.022714695
vn 0.9711672 0.2383532 0.004685776
vn 0.017572144 0.99984026 -0.0032502979
vn 0.9999937 0 0.0035661228
vn 0.9999156 0 -0.012992832
vn 0.99958926 0 -0.02866002
vn 0.9693768 0.24399488 -0.027840992
vn 0.021575503 0.9993799 0.027827
vn 0.99990034 0 -0.0141202
vn 0.9717889 0.23513564 -0.018371316
vn 0.024815397 0.0005664143 0.99969184
vn 0.025826236 0.2541054 0.9668316
vn 0.005951994 0.2665392 0.9638057
vn 0.0062077614 5.566298E-06 0.9999808
vn 0.0062077614 5.566298E-06 0.9999808
vn 0.005951994 0.2665392 0.9638057
vn 0.01772968 0.25814548 0.9659433
vn 0.02255586 0 0.99974555
vn -0.013732076 0.9998692 -0.00854544
vn 0.0068789413 0.9998154 0.017941395
vn -0.011764501 0.999798 0.016296288
vn 0.004969513 0.99996555 -0.0066604693
vn 0.003036602 0.9999883 0.003756278
vn -0.017623724 0.99983966 0.0031625591
vn -0.0030591737 0.9999881 -0.003809327
vn -0.0018778733 0.9997253 0.02336361
vn 0.017572144 0.99984026 -0.0032502979
vn 0.021575503 0.9993799 0.027827
vn 0.015799347 0.9998599 0.0055225124
vn -0.003935837 0.99997854 0.005236668
vn -0.97987354 0.19763519 0.028076036
vn -0.9977017 -0.06643131 0.013345344
vn -0.98186433 0.18861648 0.019137524
vn -0.997382 -0.0664273 0.028573897
vn -0.9823184 0.1871392 -0.0054326793
vn -0.9980259 -0.06269885 -0.0036441546
vn -0.9843135 0.1763635 0.004776205
vn -0.99812406 -0.059130624 0.015871445
g houseDoormat_0
f 3/3/3 2/2/2 1/1/1
f 6/6/6 5/5/5 4/4/4
f 9/9/9 8/8/8 7/7/7
f 12/12/12 11/11/11 10/10/10
f 15/15/15 14/14/14 13/13/13
f 14/14/14 16/16/16 13/13/13
f 14/14/14 17/17/17 16/16/16
f 18/18/18 17/17/17 14/14/14
f 19/19/19 18/18/18 14/14/14
f 17/17/17 20/20/20 16/16/16
f 16/16/16 20/20/20 21/21/21
f 20/20/20 22/22/22 21/21/21
f 25/25/25 24/24/24 23/23/23
f 24/24/24 26/26/26 23/23/23
f 24/24/24 27/27/27 26/26/26
f 27/27/27 28/28/28 26/26/26
f 28/28/28 27/27/27 29/29/29
f 30/30/30 28/28/28 29/29/29
f 33/33/33 32/32/32 31/31/31
f 34/34/34 33/33/33 31/31/31
f 37/37/37 36/36/36 35/35/35
f 38/38/38 37/37/37 35/35/35
f 38/38/38 35/35/35 39/39/39
f 40/40/40 38/38/38 39/39/39
f 40/40/40 41/41/41 38/38/38
f 41/41/41 42/42/42 38/38/38
f 45/45/45 44/44/44 43/43/43
f 46/46/46 45/45/45 43/43/43
f 49/49/49 48/48/48 47/47/47
f 50/50/50 49/49/49 47/47/47
f 53/53/53 52/52/52 51/51/51
f 54/54/54 53/53/53 51/51/51
f 57/57/57 56/56/56 55/55/55
f 56/56/56 58/58/58 55/55/55
f 55/55/55 58/58/58 59/59/59
f 58/58/58 60/60/60 59/59/59
f 63/63/63 62/62/62 61/61/61
f 62/62/62 64/64/64 61/61/61
f 62/62/62 65/65/65 64/64/64
f 65/65/65 66/66/66 64/64/64
f 66/66/66 67/67/67 64/64/64
f 64/64/64 68/68/68 61/61/61
f 68/68/68 69/69/69 61/61/61
f 72/72/72 71/71/71 70/70/70
f 73/73/73 72/72/72 70/70/70
f 70/70/70 74/74/74 73/73/73
f 77/77/77 76/76/76 75/75/75
f 76/76/76 78/78/78 75/75/75
f 78/78/78 76/76/76 79/79/79
f 75/75/75 78/78/78 80/80/80
f 81/81/81 75/75/75 80/80/80
f 80/80/80 78/78/78 82/82/82
f 83/83/83 78/78/78 79/79/79
f 78/78/78 83/83/83 82/82/82
f 83/83/83 79/79/79 84/84/84
f 85/85/85 82/82/82 83/83/83
f 86/86/86 83/83/83 84/84/84
f 86/86/86 85/85/85 83/83/83
f 89/89/89 88/88/88 87/87/87
f 90/90/90 89/89/89 87/87/87
f 93/93/93 92/92/92 91/91/91
f 94/94/94 93/93/93 91/91/91
f 97/97/97 96/96/96 95/95/95
f 96/96/96 98/98/98 95/95/95
f 98/98/98 99/99/99 95/95/95
f 99/99/99 100/100/100 95/95/95
f 101/101/101 98/98/98 96/96/96
f 102/102/102 101/101/101 96/96/96
f 103/103/103 101/101/101 102/102/102
f 104/104/104 103/103/103 102/102/102
f 103/103/103 105/105/105 101/101/101
f 105/105/105 106/106/106 101/101/101
f 109/109/109 108/108/108 107/107/107
f 108/108/108 110/110/110 107/107/107
f 111/111/111 107/107/107 110/110/110
f 112/112/112 111/111/111 110/110/110
f 113/113/113 111/111/111 112/112/112
f 114/114/114 113/113/113 112/112/112
