g interior_doorway_COL2
v -0 11.171759 -0.79525954
v -4.5915112 11.17123 -0.79525954
v -4.5915112 8.57172 -0.6253796
v -0 8.57172 -0.6253796
v -0 8.57172 -0.6253796
v -4.5915112 8.57172 -0.6253796
v -4.5915112 8.57172 0
v -0 8.57172 0
v -0 11.171759 -0.79525954
v -0 8.57172 -0.6253796
v 4.5915112 8.57172 -0.6253796
v 4.5915112 11.17123 -0.79525954
v -0 8.57172 -0.6253796
v -0 8.57172 0
v 4.5915112 8.57172 0
v 4.5915112 8.57172 -0.6253796
vt 0 0
vt 0.004625723 0.30582312
vt 0.1803702 0.3071053
vt 0.17986254 6.6792138E-18
vt 0 0
vt 1 0
vt 1 1
vt 0 1
vt 0 0
vt 0.17986254 6.6792138E-18
vt 0.1803702 0.3071053
vt 0.004625723 0.30582312
vt 0 0
vt 0 1
vt 1 1
vt 1 0
vn -0 -0.06520504 -0.9978719
vn 3.6726115E-06 -0.065216415 -0.99787116
vn 1.6100345E-06 -0.028590228 -0.9995913
vn -0 -0.06520505 -0.9978719
vn -0 -1 0
vn -0 -1 0
vn -0 -1 0
vn -0 -1 0
vn -0 -0.06520504 -0.9978719
vn -0 -0.06520505 -0.9978719
vn -1.6094366E-06 -0.028590228 -0.9995913
vn -3.671248E-06 -0.065216415 -0.99787116
vn -0 -1 0
vn -0 -1 0
vn -0 -1 0
vn -0 -1 0
g interior_doorway_COL2_0
f 3/3/3 2/2/2 1/1/1
f 4/4/4 3/3/3 1/1/1
f 7/7/7 6/6/6 5/5/5
f 8/8/8 7/7/7 5/5/5
f 11/11/11 10/10/10 9/9/9
f 12/12/12 11/11/11 9/9/9
f 15/15/15 14/14/14 13/13/13
f 16/16/16 15/15/15 13/13/13
