g leaves_mango_COL
v -0.5348227 4.080943 -2.8972466
v -0.7418001 4.495805 0.75663567
v 1.0044304 4.234654 -1.8793861
v -2.4999561 4.052486 -2.0335705
v -0.7418001 4.495805 0.75663567
v -2.9082372 4.2127576 -0.22216803
v -0.7418001 4.495805 0.75663567
v -2.1714492 4.1805425 1.9765942
v -0.7418001 4.495805 0.75663567
v -2.9082372 4.2127576 -0.22216803
v -0.6874657 4.1551046 2.8181467
v -0.7418001 4.495805 0.75663567
v -2.1714492 4.1805425 1.9765942
v 0.82824844 4.3535275 1.8646963
v -0.7418001 4.495805 0.75663567
v -0.6874657 4.1551046 2.8181467
v 1.6476843 4.21213 -0.044811286
v -0.7418001 4.495805 0.75663567
v 0.82824844 4.3535275 1.8646963
v 1.0044304 4.234654 -1.8793861
v -0.7418001 4.495805 0.75663567
v 0.42572165 6.669654 -1.7870741
v -0.9638583 7.244961 -0.42326206
v -0.84373975 6.9505444 -2.5418742
v -0.84373975 6.9505444 -2.5418742
v -0.9638583 7.244961 -0.42326206
v -2.23889 7.106215 -1.9218522
v -2.23889 7.106215 -1.9218522
v -0.9638583 7.244961 -0.42326206
v -2.5545692 6.980328 -0.12989278
v -2.5545692 6.980328 -0.12989278
v -0.9638583 7.244961 -0.42326206
v -2.1323624 6.717391 1.6986716
v -2.1323624 6.717391 1.6986716
v -0.9638583 7.244961 -0.42326206
v -0.93399215 6.529775 2.2171392
v -0.93399215 6.529775 2.2171392
v -0.9638583 7.244961 -0.42326206
v 0.41171324 6.500587 1.5640156
v 0.41171324 6.500587 1.5640156
v -0.9638583 7.244961 -0.42326206
v 0.9613098 6.4837513 -0.063849136
v 0.9613098 6.4837513 -0.063849136
v -0.9638583 7.244961 -0.42326206
v 0.42572165 6.669654 -1.7870741
v 1.0044304 4.234654 -1.8793861
v 1.609472 4.688972 -3.0951016
v -0.70196575 4.5637784 -4.568971
v -0.5348227 4.080943 -2.8972466
v -0.5348227 4.080943 -2.8972466
v -0.70196575 4.5637784 -4.568971
v -3.2786326 4.37548 -3.1269903
v -2.4999561 4.052486 -2.0335705
v -2.4999561 4.052486 -2.0335705
v -3.2786326 4.37548 -3.1269903
v -4.127877 4.4015 -0.12666187
v -2.9082372 4.2127576 -0.22216803
v -2.9082372 4.2127576 -0.22216803
v -4.127877 4.4015 -0.12666187
v -3.0897305 4.5805078 3.1818848
v -2.1714492 4.1805425 1.9765942
v -2.1714492 4.1805425 1.9765942
v -3.0897305 4.5805078 3.1818848
v -0.81439245 4.640116 4.3305764
v -0.6874657 4.1551046 2.8181467
v -0.6874657 4.1551046 2.8181467
v -0.81439245 4.640116 4.3305764
v 1.7349408 4.8121552 3.038023
v 0.82824844 4.3535275 1.8646963
v 0.82824844 4.3535275 1.8646963
v 1.7349408 4.8121552 3.038023
v 2.9658544 4.5565696 0.018458672
v 1.6476843 4.21213 -0.044811286
v 1.6476843 4.21213 -0.044811286
v 2.9658544 4.5565696 0.018458672
v 1.609472 4.688972 -3.0951016
v 1.0044304 4.234654 -1.8793861
v 1.609472 4.688972 -3.0951016
v 1.7298721 5.2620883 -3.3410878
v -0.76581466 5.2770386 -5.0221
v -0.70196575 4.5637784 -4.568971
v -0.70196575 4.5637784 -4.568971
v -0.76581466 5.2770386 -5.0221
v -3.522656 5.1949115 -3.7716393
v -3.2786326 4.37548 -3.1269903
v -3.2786326 4.37548 -3.1269903
v -3.522656 5.1949115 -3.7716393
v -4.2550125 5.297183 -0.098380834
v -4.127877 4.4015 -0.12666187
v -4.127877 4.4015 -0.12666187
v -4.2550125 5.297183 -0.098380834
v -3.1344671 5.320236 3.565055
v -3.0897305 4.5805078 3.1818848
v -3.0897305 4.5805078 3.1818848
v -3.1344671 5.320236 3.565055
v -0.71224385 4.9860196 4.6909575
v -0.81439245 4.640116 4.3305764
v -0.81439245 4.640116 4.3305764
v -0.71224385 4.9860196 4.6909575
v 1.831634 5.0595484 3.3048792
v 1.7349408 4.8121552 3.038023
v 1.7349408 4.8121552 3.038023
v 1.831634 5.0595484 3.3048792
v 3.4115658 5.199847 0.007543945
v 2.9658544 4.5565696 0.018458672
v 2.9658544 4.5565696 0.018458672
v 3.4115658 5.199847 0.007543945
v 1.7298721 5.2620883 -3.3410878
v 1.609472 4.688972 -3.0951016
v 1.7298721 5.2620883 -3.3410878
v 1.4860243 5.883282 -2.8045354
v -0.76877797 5.9564037 -4.39238
v -0.76581466 5.2770386 -5.0221
v -0.76581466 5.2770386 -5.0221
v -0.76877797 5.9564037 -4.39238
v -3.0291753 6.2874146 -3.13534
v -3.522656 5.1949115 -3.7716393
v -3.522656 5.1949115 -3.7716393
v -3.0291753 6.2874146 -3.13534
v -3.8593166 6.079054 -0.0357003
v -4.2550125 5.297183 -0.098380834
v -4.2550125 5.297183 -0.098380834
v -3.8593166 6.079054 -0.0357003
v -3.0044458 5.822826 2.93198
v -3.1344671 5.320236 3.565055
v -3.1344671 5.320236 3.565055
v -3.0044458 5.822826 2.93198
v -0.7266786 5.842233 3.9883306
v -0.71224385 4.9860196 4.6909575
v -0.71224385 4.9860196 4.6909575
v -0.7266786 5.842233 3.9883306
v 1.7135718 5.7194433 2.8143125
v 1.831634 5.0595484 3.3048792
v 1.831634 5.0595484 3.3048792
v 1.7135718 5.7194433 2.8143125
v 2.801038 5.9289103 -0.025269011
v 3.4115658 5.199847 0.007543945
v 3.4115658 5.199847 0.007543945
v 2.801038 5.9289103 -0.025269011
v 1.4860243 5.883282 -2.8045354
v 1.7298721 5.2620883 -3.3410878
v 1.4860243 5.883282 -2.8045354
v 0.42572165 6.669654 -1.7870741
v -0.84373975 6.9505444 -2.5418742
v -0.76877797 5.9564037 -4.39238
v -0.76877797 5.9564037 -4.39238
v -0.84373975 6.9505444 -2.5418742
v -2.23889 7.106215 -1.9218522
v -3.0291753 6.2874146 -3.13534
v -3.0291753 6.2874146 -3.13534
v -2.23889 7.106215 -1.9218522
v -2.5545692 6.980328 -0.12989278
v -3.8593166 6.079054 -0.0357003
v -3.8593166 6.079054 -0.0357003
v -2.5545692 6.980328 -0.12989278
v -2.1323624 6.717391 1.6986716
v -3.0044458 5.822826 2.93198
v -3.0044458 5.822826 2.93198
v -2.1323624 6.717391 1.6986716
v -0.93399215 6.529775 2.2171392
v -0.7266786 5.842233 3.9883306
v -0.7266786 5.842233 3.9883306
v -0.93399215 6.529775 2.2171392
v 0.41171324 6.500587 1.5640156
v 1.7135718 5.7194433 2.8143125
v 1.7135718 5.7194433 2.8143125
v 0.41171324 6.500587 1.5640156
v 0.9613098 6.4837513 -0.063849136
v 2.801038 5.9289103 -0.025269011
v 2.801038 5.9289103 -0.025269011
v 0.9613098 6.4837513 -0.063849136
v 0.42572165 6.669654 -1.7870741
v 1.4860243 5.883282 -2.8045354
vt 0.125 0.16666667
vt 0.0625 0
vt 0 0.16666667
vt 0.25 0.16666667
vt 0.1875 0
vt 0.375 0.16666667
vt 0.3125 0
vt 0.5 0.16666667
vt 0.4375 0
vt 0.375 0.16666667
vt 0.625 0.16666667
vt 0.5625 0
vt 0.5 0.16666667
vt 0.75 0.16666667
vt 0.6875 0
vt 0.625 0.16666667
vt 0.875 0.16666667
vt 0.8125 0
vt 0.75 0.16666667
vt 1 0.16666667
vt 0.9375 0
vt 0 0.8333334
vt 0.0625 1
vt 0.125 0.8333334
vt 0.125 0.8333334
vt 0.1875 1
vt 0.25 0.8333334
vt 0.25 0.8333334
vt 0.3125 1
vt 0.375 0.8333334
vt 0.375 0.8333334
vt 0.4375 1
vt 0.5 0.8333334
vt 0.5 0.8333334
vt 0.5625 1
vt 0.625 0.8333334
vt 0.625 0.8333334
vt 0.6875 1
vt 0.75 0.8333334
vt 0.75 0.8333334
vt 0.8125 1
vt 0.875 0.8333334
vt 0.875 0.8333334
vt 0.9375 1
vt 1 0.8333334
vt 0 0.16666667
vt 0 0.33333334
vt 0.125 0.33333334
vt 0.125 0.16666667
vt 0.125 0.16666667
vt 0.125 0.33333334
vt 0.25 0.33333334
vt 0.25 0.16666667
vt 0.25 0.16666667
vt 0.25 0.33333334
vt 0.375 0.33333334
vt 0.375 0.16666667
vt 0.375 0.16666667
vt 0.375 0.33333334
vt 0.5 0.33333334
vt 0.5 0.16666667
vt 0.5 0.16666667
vt 0.5 0.33333334
vt 0.625 0.33333334
vt 0.625 0.16666667
vt 0.625 0.16666667
vt 0.625 0.33333334
vt 0.75 0.33333334
vt 0.75 0.16666667
vt 0.75 0.16666667
vt 0.75 0.33333334
vt 0.875 0.33333334
vt 0.875 0.16666667
vt 0.875 0.16666667
vt 0.875 0.33333334
vt 1 0.33333334
vt 1 0.16666667
vt 0 0.33333334
vt 0 0.5
vt 0.125 0.5
vt 0.125 0.33333334
vt 0.125 0.33333334
vt 0.125 0.5
vt 0.25 0.5
vt 0.25 0.33333334
vt 0.25 0.33333334
vt 0.25 0.5
vt 0.375 0.5
vt 0.375 0.33333334
vt 0.375 0.33333334
vt 0.375 0.5
vt 0.5 0.5
vt 0.5 0.33333334
vt 0.5 0.33333334
vt 0.5 0.5
vt 0.625 0.5
vt 0.625 0.33333334
vt 0.625 0.33333334
vt 0.625 0.5
vt 0.75 0.5
vt 0.75 0.33333334
vt 0.75 0.33333334
vt 0.75 0.5
vt 0.875 0.5
vt 0.875 0.33333334
vt 0.875 0.33333334
vt 0.875 0.5
vt 1 0.5
vt 1 0.33333334
vt 0 0.5
vt 0 0.6666667
vt 0.125 0.6666667
vt 0.125 0.5
vt 0.125 0.5
vt 0.125 0.6666667
vt 0.25 0.6666667
vt 0.25 0.5
vt 0.25 0.5
vt 0.25 0.6666667
vt 0.375 0.6666667
vt 0.375 0.5
vt 0.375 0.5
vt 0.375 0.6666667
vt 0.5 0.6666667
vt 0.5 0.5
vt 0.5 0.5
vt 0.5 0.6666667
vt 0.625 0.6666667
vt 0.625 0.5
vt 0.625 0.5
vt 0.625 0.6666667
vt 0.75 0.6666667
vt 0.75 0.5
vt 0.75 0.5
vt 0.75 0.6666667
vt 0.875 0.6666667
vt 0.875 0.5
vt 0.875 0.5
vt 0.875 0.6666667
vt 1 0.6666667
vt 1 0.5
vt 0 0.6666667
vt 0 0.8333334
vt 0.125 0.8333334
vt 0.125 0.6666667
vt 0.125 0.6666667
vt 0.125 0.8333334
vt 0.25 0.8333334
vt 0.25 0.6666667
vt 0.25 0.6666667
vt 0.25 0.8333334
vt 0.375 0.8333334
vt 0.375 0.6666667
vt 0.375 0.6666667
vt 0.375 0.8333334
vt 0.5 0.8333334
vt 0.5 0.6666667
vt 0.5 0.6666667
vt 0.5 0.8333334
vt 0.625 0.8333334
vt 0.625 0.6666667
vt 0.625 0.6666667
vt 0.625 0.8333334
vt 0.75 0.8333334
vt 0.75 0.6666667
vt 0.75 0.6666667
vt 0.75 0.8333334
vt 0.875 0.8333334
vt 0.875 0.6666667
vt 0.875 0.6666667
vt 0.875 0.8333334
vt 1 0.8333334
vt 1 0.6666667
vn 0.023722757 -0.99318486 0.11410981
vn 0.023722757 -0.99318486 0.1141098
vn 0.023722755 -0.99318486 0.1141098
vn 0.06543556 -0.9910642 0.11623204
vn 0.06543555 -0.9910642 0.11623204
vn 0.08155552 -0.99100894 0.106065944
vn 0.08155553 -0.99100894 0.106065944
vn 0.15931727 -0.98489535 -0.06781584
vn 0.15931728 -0.98489535 -0.06781584
vn 0.15931727 -0.98489535 -0.06781585
vn 0.07645153 -0.98340327 -0.16453944
vn 0.076451525 -0.98340327 -0.16453944
vn 0.07645153 -0.98340327 -0.16453944
vn 0.026144112 -0.9861687 -0.16367014
vn 0.026144117 -0.9861687 -0.16367015
vn 0.026144115 -0.9861687 -0.16367017
vn -0.108973436 -0.99368286 0.026816811
vn -0.10897343 -0.99368286 0.02681681
vn -0.108973436 -0.99368286 0.026816811
vn -0.109215125 -0.99367553 0.026094457
vn -0.109215125 -0.99367553 0.026094459
vn 0.28012672 0.95286345 -0.11653418
vn 0.28012672 0.95286345 -0.11653419
vn 0.28012672 0.95286345 -0.11653419
vn 0.050577756 0.9896011 -0.13465397
vn 0.050577756 0.9896011 -0.13465399
vn 0.050577756 0.9896011 -0.13465397
vn -0.15646353 0.98680043 0.041760497
vn -0.15646355 0.98680043 0.041760497
vn -0.15646355 0.98680043 0.0417605
vn -0.130989 0.97658235 0.1706715
vn -0.13098902 0.97658235 0.1706715
vn -0.13098902 0.97658235 0.17067151
vn 0.038166232 0.9646248 0.26084924
vn 0.038166236 0.9646248 0.26084927
vn 0.038166232 0.9646248 0.26084924
vn 0.14551458 0.95535976 0.25712514
vn 0.14551459 0.95535976 0.25712517
vn 0.14551459 0.95535976 0.25712517
vn 0.34807053 0.9312401 0.10788344
vn 0.34807053 0.9312401 0.10788344
vn 0.34807053 0.9312401 0.10788342
vn 0.37004775 0.92889476 -0.014802864
vn 0.37004775 0.9288949 -0.014802864
vn 0.37004775 0.9288949 -0.014802864
vn 0.24008852 -0.93343973 -0.26654783
vn 0.24008852 -0.93343973 -0.26654783
vn 0.2400885 -0.93343973 -0.26654777
vn 0.24008852 -0.93343973 -0.26654786
vn -0.08231737 -0.96401554 -0.25278038
vn -0.082317375 -0.96401554 -0.2527804
vn -0.082317375 -0.96401554 -0.2527804
vn -0.08231737 -0.96401554 -0.2527804
vn -0.23662993 -0.9712975 -0.024237452
vn -0.23662998 -0.9712975 -0.024237452
vn -0.23662995 -0.9712975 -0.024237454
vn -0.23662998 -0.9712975 -0.024237456
vn -0.21081336 -0.97300816 0.09387708
vn -0.21081337 -0.97300816 0.09387709
vn -0.21081337 -0.97300816 0.09387709
vn -0.21081339 -0.97300816 0.0938771
vn -0.12976818 -0.9564302 0.2615368
vn -0.12976818 -0.9564302 0.26153684
vn -0.12976818 -0.9564302 0.26153684
vn -0.12976818 -0.9564302 0.26153684
vn 0.23035641 -0.93707174 0.2623595
vn 0.23035641 -0.93707174 0.2623595
vn 0.23035638 -0.93707174 0.2623595
vn 0.23035638 -0.93707174 0.2623595
vn 0.24474297 -0.9530043 0.17855994
vn 0.24474297 -0.9530043 0.17855994
vn 0.24474294 -0.9530043 0.17855993
vn 0.24474297 -0.9530043 0.17855996
vn 0.3006435 -0.94171023 -0.150981
vn 0.30064356 -0.94171023 -0.15098101
vn 0.30064353 -0.94171023 -0.150981
vn 0.30064356 -0.94171023 -0.150981
vn 0.50227404 -0.42985088 -0.7502993
vn 0.502274 -0.42985094 -0.7502993
vn 0.502274 -0.42985094 -0.7502993
vn 0.50227404 -0.42985088 -0.7502992
vn -0.33912733 -0.59185773 -0.73122984
vn -0.33912733 -0.59185773 -0.73122984
vn -0.3391273 -0.59185773 -0.73122984
vn -0.33912733 -0.5918578 -0.7312298
vn -0.93528485 -0.28012255 -0.21627209
vn -0.93528485 -0.28012255 -0.21627213
vn -0.93528485 -0.28012252 -0.21627209
vn -0.93528485 -0.28012255 -0.2162721
vn -0.9393985 -0.17316501 0.29587892
vn -0.9393985 -0.17316501 0.2958789
vn -0.9393985 -0.17316501 0.29587886
vn -0.9393985 -0.17316501 0.29587892
vn -0.4002343 -0.5033384 0.7658087
vn -0.4002343 -0.50333846 0.7658087
vn -0.40023434 -0.50333846 0.7658087
vn -0.40023434 -0.50333846 0.7658087
vn 0.34340242 -0.7342344 0.58564043
vn 0.34340242 -0.7342344 0.58564043
vn 0.34340242 -0.7342344 0.58564043
vn 0.34340242 -0.7342344 0.58564043
vn 0.7540134 -0.5585243 0.3457085
vn 0.7540134 -0.55852437 0.3457085
vn 0.7540134 -0.5585243 0.3457085
vn 0.7540134 -0.55852437 0.3457085
vn 0.80054206 -0.4549542 -0.3900629
vn 0.80054206 -0.4549542 -0.39006296
vn 0.800542 -0.45495427 -0.39006293
vn 0.80054206 -0.4549542 -0.39006296
vn 0.44175205 0.64396685 -0.62462926
vn 0.44175208 0.643967 -0.62462926
vn 0.44175205 0.64396685 -0.6246292
vn 0.44175205 0.6439669 -0.62462926
vn -0.33077002 0.60754406 -0.7221368
vn -0.33077002 0.607544 -0.72213674
vn -0.33077002 0.60754406 -0.7221367
vn -0.33077002 0.607544 -0.72213674
vn -0.85758734 0.4778149 -0.19035979
vn -0.85758734 0.4778149 -0.19035982
vn -0.8575874 0.47781488 -0.1903598
vn -0.85758734 0.4778149 -0.19035979
vn -0.8441496 0.46442705 0.2678042
vn -0.8441496 0.46442708 0.26780424
vn -0.8441496 0.46442705 0.26780418
vn -0.8441496 0.46442705 0.26780424
vn -0.2676937 0.6869195 0.6756343
vn -0.2676937 0.6869195 0.67563426
vn -0.2676937 0.6869195 0.67563426
vn -0.26769373 0.6869195 0.67563426
vn 0.3722381 0.5938781 0.71326554
vn 0.37223807 0.5938781 0.7132655
vn 0.37223813 0.5938781 0.7132655
vn 0.37223813 0.59387803 0.7132655
vn 0.76244485 0.5363399 0.3619632
vn 0.76244485 0.5363399 0.36196324
vn 0.76244485 0.5363399 0.36196324
vn 0.76244485 0.5363399 0.3619632
vn 0.72544056 0.5907753 -0.353158
vn 0.7254405 0.59077525 -0.35315803
vn 0.7254405 0.59077525 -0.35315803
vn 0.72544056 0.5907753 -0.35315806
vn 0.3462312 0.8522924 -0.39207342
vn 0.34623125 0.8522924 -0.39207342
vn 0.34623128 0.8522924 -0.39207342
vn 0.34623125 0.8522924 -0.39207336
vn -0.13203917 0.8663 -0.48175713
vn -0.13203917 0.86630005 -0.4817571
vn -0.13203917 0.86630005 -0.4817571
vn -0.13203917 0.86630005 -0.4817571
vn -0.60385257 0.79230005 -0.087309204
vn -0.60385257 0.79230005 -0.087309204
vn -0.60385257 0.79230005 -0.08730919
vn -0.60385257 0.79230005 -0.087309204
vn -0.5320786 0.8148906 0.22988151
vn -0.5320786 0.8148906 0.22988151
vn -0.53207856 0.8148907 0.22988148
vn -0.5320786 0.8148907 0.22988153
vn -0.15347475 0.8879343 0.43361044
vn -0.15347476 0.8879343 0.4336104
vn -0.15347475 0.8879343 0.43361044
vn -0.15347475 0.8879343 0.43361038
vn 0.2029269 0.9166937 0.34422874
vn 0.2029269 0.91669357 0.34422874
vn 0.20292692 0.91669357 0.34422877
vn 0.2029269 0.9166937 0.34422874
vn 0.32961 0.9303062 0.16089661
vn 0.32961005 0.9303062 0.16089666
vn 0.32961002 0.9303062 0.16089663
vn 0.32961 0.9303062 0.16089661
vn 0.3804486 0.9159241 -0.12783551
vn 0.38044864 0.9159241 -0.12783553
vn 0.38044864 0.9159241 -0.12783551
vn 0.3804486 0.9159241 -0.12783551
g leaves_mango_COL_0
f 3/3/3 2/2/2 1/1/1
f 1/1/1 5/5/5 4/4/4
f 4/4/4 7/7/7 6/6/6
f 10/10/10 9/9/9 8/8/8
f 13/13/13 12/12/12 11/11/11
f 16/16/16 15/15/15 14/14/14
f 19/19/19 18/18/18 17/17/17
f 17/17/17 21/21/21 20/20/20
f 24/24/24 23/23/23 22/22/22
f 27/27/27 26/26/26 25/25/25
f 30/30/30 29/29/29 28/28/28
f 33/33/33 32/32/32 31/31/31
f 36/36/36 35/35/35 34/34/34
f 39/39/39 38/38/38 37/37/37
f 42/42/42 41/41/41 40/40/40
f 45/45/45 44/44/44 43/43/43
f 48/48/48 47/47/47 46/46/46
f 49/49/49 48/48/48 46/46/46
f 52/52/52 51/51/51 50/50/50
f 53/53/53 52/52/52 50/50/50
f 56/56/56 55/55/55 54/54/54
f 57/57/57 56/56/56 54/54/54
f 60/60/60 59/59/59 58/58/58
f 61/61/61 60/60/60 58/58/58
f 64/64/64 63/63/63 62/62/62
f 65/65/65 64/64/64 62/62/62
f 68/68/68 67/67/67 66/66/66
f 69/69/69 68/68/68 66/66/66
f 72/72/72 71/71/71 70/70/70
f 73/73/73 72/72/72 70/70/70
f 76/76/76 75/75/75 74/74/74
f 77/77/77 76/76/76 74/74/74
f 80/80/80 79/79/79 78/78/78
f 81/81/81 80/80/80 78/78/78
f 84/84/84 83/83/83 82/82/82
f 85/85/85 84/84/84 82/82/82
f 88/88/88 87/87/87 86/86/86
f 89/89/89 88/88/88 86/86/86
f 92/92/92 91/91/91 90/90/90
f 93/93/93 92/92/92 90/90/90
f 96/96/96 95/95/95 94/94/94
f 97/97/97 96/96/96 94/94/94
f 100/100/100 99/99/99 98/98/98
f 101/101/101 100/100/100 98/98/98
f 104/104/104 103/103/103 102/102/102
f 105/105/105 104/104/104 102/102/102
f 108/108/108 107/107/107 106/106/106
f 109/109/109 108/108/108 106/106/106
f 112/112/112 111/111/111 110/110/110
f 113/113/113 112/112/112 110/110/110
f 116/116/116 115/115/115 114/114/114
f 117/117/117 116/116/116 114/114/114
f 120/120/120 119/119/119 118/118/118
f 121/121/121 120/120/120 118/118/118
f 124/124/124 123/123/123 122/122/122
f 125/125/125 124/124/124 122/122/122
f 128/128/128 127/127/127 126/126/126
f 129/129/129 128/128/128 126/126/126
f 132/132/132 131/131/131 130/130/130
f 133/133/133 132/132/132 130/130/130
f 136/136/136 135/135/135 134/134/134
f 137/137/137 136/136/136 134/134/134
f 140/140/140 139/139/139 138/138/138
f 141/141/141 140/140/140 138/138/138
f 144/144/144 143/143/143 142/142/142
f 145/145/145 144/144/144 142/142/142
f 148/148/148 147/147/147 146/146/146
f 149/149/149 148/148/148 146/146/146
f 152/152/152 151/151/151 150/150/150
f 153/153/153 152/152/152 150/150/150
f 156/156/156 155/155/155 154/154/154
f 157/157/157 156/156/156 154/154/154
f 160/160/160 159/159/159 158/158/158
f 161/161/161 160/160/160 158/158/158
f 164/164/164 163/163/163 162/162/162
f 165/165/165 164/164/164 162/162/162
f 168/168/168 167/167/167 166/166/166
f 169/169/169 168/168/168 166/166/166
f 172/172/172 171/171/171 170/170/170
f 173/173/173 172/172/172 170/170/170
