g liquid
v 0.070560455 -0.34069595 -0.122214295
v -0 -0.36876667 0
v 0.122214295 -0.34069595 -0.070560455
v 0.13037871 -0.2607574 -0.22582252
v 0.22582252 -0.2607574 -0.13037871
v 0.17034797 -0.14112088 -0.29505137
v 0.29505137 -0.14124373 -0.17034797
v 0.18438333 6.8664545E-09 -0.3193613
v 0.3193613 -0.0009910824 -0.18438333
v 0.17034797 0.14090405 -0.29505137
v 0.29505137 0.13912642 -0.17034797
v 0.16044362 0.14832823 -0.27789646
v 0.27789646 0.14641966 -0.16044362
v 0.14877988 0.15649807 -0.25769442
v 0.25769442 0.15446657 -0.14877988
v -0 0.1538868 0
v -0 0.15732715 -0.29755977
v -0 0.1538868 0
v -0 0.14894517 -0.32088724
v -0 0.14133781 -0.34069595
v -0 6.8664545E-09 -0.36876667
v -0.14877988 0.15941373 -0.25769442
v -0 0.1538868 0
v -0.16044362 0.15098819 -0.27789646
v -0 -0.14112088 -0.34069595
v -0.17034797 0.1433126 -0.29505137
v -0.25769442 0.1688248 -0.14877988
v -0 0.1538868 0
v -0.27789646 0.1605297 -0.16044362
v -0.18438333 0.0012245941 -0.3193613
v -0 -0.2607574 -0.26075742
v -0.29755977 0.16937529 0
v -0 0.1538868 0
v -0.29505137 0.15299727 -0.17034797
v -0.17034797 -0.140969 -0.29505137
v -0 -0.34069595 -0.14112091
v -0 -0.36876667 0
v -0.32088724 0.16107064 0
v -0.3193613 0.002783762 -0.18438333
v -0.13037871 -0.2607574 -0.22582252
v -0.25769442 0.16254286 0.14877988
v -0 0.1538868 0
v -0.34069595 0.15352155 0
v -0.29505137 -0.14050432 -0.17034797
v -0.070560455 -0.34069595 -0.122214295
v -0 -0.36876667 0
v -0.27789646 0.15411729 0.16044362
v -0.36876667 0.003108815 0
v -0.22582252 -0.2607574 -0.13037871
v -0.14877988 0.15799992 0.25769442
v -0 0.1538868 0
v -0.29505137 0.14644171 0.17034797
v -0.34069595 -0.14046685 0
v -0.122214295 -0.34069595 -0.070560455
v -0 -0.36876667 0
v -0.16044362 0.14957482 0.27789646
v -0.3193613 0.001954206 0.18438333
v -0.26075742 -0.2607574 0
v -0 0.1566472 0.29755977
v -0 0.1538868 0
v -0.17034797 0.14192227 0.29505137
v -0.29505137 -0.14081185 0.17034797
v -0.14112091 -0.34069595 0
v -0 -0.36876667 0
v -0 0.14843974 0.32088724
v -0.18438333 0.000318812 0.3193613
v -0.22582252 -0.2607574 0.13037871
v 0.14877988 0.1545959 0.25769442
v -0 0.1538868 0
v -0 0.14098293 0.34069595
v -0.17034797 -0.14108342 0.29505137
v -0.122214295 -0.34069595 0.070560455
v -0 -0.36876667 0
v 0.16044362 0.14654496 0.27789646
v -0 6.8664545E-09 0.36876667
v -0.13037871 -0.2607574 0.22582252
v 0.25769442 0.14596179 0.14877988
v -0 0.1538868 0
v 0.17034797 0.13924654 0.29505137
v -0 -0.14112088 0.34069595
v -0.070560455 -0.34069595 0.122214295
v -0 -0.36876667 0
v 0.27789646 0.13782799 0.16044362
v 0.18438333 -0.00092662446 0.3193613
v -0 -0.2607574 0.26075742
v 0.29755977 0.14538701 0
v -0 0.1538868 0
v 0.29505137 0.13045928 0.17034797
v 0.17034797 -0.14124297 0.29505137
v -0 -0.34069595 0.14112091
v -0 -0.36876667 0
v 0.32088724 0.13725115 0
v 0.3193613 -0.0030865348 0.18438333
v 0.13037871 -0.2607574 0.22582252
v 0.25769442 0.15446657 -0.14877988
v -0 0.1538868 0
v 0.27789646 0.14641966 -0.16044362
v 0.34069595 0.12987544 0
v 0.29505137 0.13912642 -0.17034797
v 0.36876667 -0.0031652062 0
v 0.3193613 -0.0009910824 -0.18438333
v 0.29505137 -0.14171802 0.17034797
v 0.34069595 -0.14174183 0
v 0.29505137 -0.14124373 -0.17034797
v 0.22582252 -0.2607574 0.13037871
v 0.26075742 -0.2607574 0
v 0.22582252 -0.2607574 -0.13037871
v 0.070560455 -0.34069595 0.122214295
v -0 -0.36876667 0
v 0.122214295 -0.34069595 0.070560455
v -0 -0.36876667 0
v 0.14112091 -0.34069595 0
v -0 -0.36876667 0
v 0.122214295 -0.34069595 -0.070560455
v -0 -0.36876667 0
vt 0.083333336 0.39005205
vt 0.041666668 0.26505205
vt 0 0.39005205
vt 0.083333336 0.5150521
vt 0 0.5150521
vt 0.083333336 0.6400521
vt 0 0.6400521
vt 0.083333336 0.7650521
vt 0 0.7650521
vt 0.083333336 0.8411877
vt 0 0.8411877
vt 0.083333336 0.85365164
vt 0 0.85365164
vt 0.083333336 0.875
vt 0 0.875
vt 0.041666668 1
vt 0.16666667 0.875
vt 0.125 1
vt 0.16666667 0.85365164
vt 0.16666667 0.8411877
vt 0.16666667 0.7650521
vt 0.25 0.875
vt 0.20833334 1
vt 0.25 0.85365164
vt 0.16666667 0.6400521
vt 0.25 0.8411877
vt 0.33333334 0.875
vt 0.2916667 1
vt 0.33333334 0.85365164
vt 0.25 0.7650521
vt 0.16666667 0.5150521
vt 0.4166667 0.875
vt 0.375 1
vt 0.33333334 0.8411877
vt 0.25 0.6400521
vt 0.16666667 0.39005205
vt 0.125 0.26505205
vt 0.4166667 0.85365164
vt 0.33333334 0.7650521
vt 0.25 0.5150521
vt 0.5 0.875
vt 0.45833334 1
vt 0.4166667 0.8411877
vt 0.33333334 0.6400521
vt 0.25 0.39005205
vt 0.20833334 0.26505205
vt 0.5 0.85365164
vt 0.4166667 0.7650521
vt 0.33333334 0.5150521
vt 0.5833333 0.875
vt 0.5416667 1
vt 0.5 0.8411877
vt 0.4166667 0.6400521
vt 0.33333334 0.39005205
vt 0.2916667 0.26505205
vt 0.5833333 0.85365164
vt 0.5 0.7650521
vt 0.4166667 0.5150521
vt 0.6666666 0.875
vt 0.625 1
vt 0.5833333 0.8411877
vt 0.5 0.6400521
vt 0.4166667 0.39005205
vt 0.375 0.26505205
vt 0.6666666 0.85365164
vt 0.5833333 0.7650521
vt 0.5 0.5150521
vt 0.74999994 0.875
vt 0.7083334 1
vt 0.6666666 0.8411877
vt 0.5833333 0.6400521
vt 0.5 0.39005205
vt 0.45833334 0.26505205
vt 0.74999994 0.85365164
vt 0.6666666 0.7650521
vt 0.5833333 0.5150521
vt 0.83333325 0.875
vt 0.7916667 1
vt 0.74999994 0.8411877
vt 0.6666666 0.6400521
vt 0.5833333 0.39005205
vt 0.5416667 0.26505205
vt 0.83333325 0.85365164
vt 0.74999994 0.7650521
vt 0.6666666 0.5150521
vt 0.91666657 0.875
vt 0.875 1
vt 0.83333325 0.8411877
vt 0.74999994 0.6400521
vt 0.6666666 0.39005205
vt 0.625 0.26505205
vt 0.91666657 0.85365164
vt 0.83333325 0.7650521
vt 0.74999994 0.5150521
vt 0.9999999 0.875
vt 0.9583334 1
vt 0.9999999 0.85365164
vt 0.91666657 0.8411877
vt 0.9999999 0.8411877
vt 0.91666657 0.7650521
vt 0.9999999 0.7650521
vt 0.83333325 0.6400521
vt 0.91666657 0.6400521
vt 0.9999999 0.6400521
vt 0.83333325 0.5150521
vt 0.91666657 0.5150521
vt 0.9999999 0.5150521
vt 0.74999994 0.39005205
vt 0.7083334 0.26505205
vt 0.83333325 0.39005205
vt 0.7916667 0.26505205
vt 0.91666657 0.39005205
vt 0.875 0.26505205
vt 0.9999999 0.39005205
vt 0.9583334 0.26505205
vn 0.24385096 -0.87301016 -0.42236227
vn -0 -1 0
vn 0.42236227 -0.87301016 -0.24385105
vn 0.3744798 -0.66240287 -0.64883524
vn 0.64819646 -0.66280687 -0.37487102
vn 0.4668325 -0.35605508 -0.8095012
vn 0.80808115 -0.35728475 -0.46835086
vn 0.4998081 0.00032929846 -0.86613613
vn 0.8654638 0.0004003263 -0.5009713
vn 0.47943953 0.2830632 -0.83067024
vn 0.828399 0.28867605 -0.48002207
vn 0.17599802 0.93977815 -0.29298767
vn 0.30442318 0.94206166 -0.14087692
vn 0.03655154 0.9983145 -0.04507982
vn 0.07105468 0.99747187 0.0009828211
vn 0.030202877 0.99952495 0.006126732
vn 0.0093615195 0.9983498 -0.056658052
vn 0.030202877 0.99952495 0.006126732
vn 0.0064741843 0.93706703 -0.34908956
vn -2.2436054E-05 0.28113592 -0.9596679
vn -0.00024228106 -0.00040643077 -0.9999999
vn 0.0065796976 0.9979122 -0.06424742
vn 0.030202877 0.99952495 0.006126732
vn -0.14981492 0.9345082 -0.32287747
vn -0.00056928175 -0.3554586 -0.93469185
vn -0.48243928 0.2752641 -0.831554
vn -0.0037905516 0.9991917 -0.04002066
vn 0.030202877 0.99952495 0.006126732
vn -0.28210503 0.9393313 -0.19512457
vn -0.5010029 -0.00011337184 -0.8654457
vn -0.00013431931 -0.66226596 -0.7492688
vn -0.022078775 0.9995415 0.020718085
vn 0.030202877 0.99952495 0.006126732
vn -0.83444417 0.27223483 -0.47915673
vn -0.46877292 -0.35425374 -0.8091702
vn -0 -0.87301016 -0.48770192
vn -0 -1 0
vn -0.34307536 0.93913645 0.017944789
vn -0.8665154 0.0005429471 -0.49915013
vn -0.37529334 -0.66184205 -0.64893764
vn -0.018514408 0.9983736 0.053920247
vn 0.030202877 0.99952495 0.006126732
vn -0.96262103 0.27084664 -0.0016919754
vn -0.8108992 -0.35255617 -0.46706167
vn -0.24385095 -0.87301016 -0.4223623
vn -0 -1 0
vn -0.2888792 0.9355398 0.20325868
vn -0.99999964 0.00061893946 -0.00063411955
vn -0.6499531 -0.66115946 -0.37473887
vn -0.011098499 0.9982796 0.0575725
vn 0.030202877 0.99952495 0.006126732
vn -0.833839 0.2742646 0.47905275
vn -0.9359085 -0.35224304 -0.0004532993
vn -0.42236227 -0.87301016 -0.24385102
vn -0 -1 0
vn -0.1629688 0.93605775 0.3118285
vn -0.8665927 0.00019541761 0.49901605
vn -0.7503396 -0.66105247 -0.0002713972
vn 0.0108662825 0.9983014 0.057238325
vn 0.030202877 0.99952495 0.006126732
vn -0.48057422 0.27929908 0.83128846
vn -0.81079835 -0.35350856 0.4665167
vn -0.48770192 -0.87301016 0
vn -0 -1 0
vn 0.007176093 0.9392234 0.34323144
vn -0.50047493 -0.00043606467 0.8657509
vn -0.649663 -0.66160566 0.37445423
vn 0.060702637 0.9975339 0.035230253
vn 0.030202877 0.99952495 0.006126732
vn -0.00011843546 0.2826824 0.9592135
vn -0.46822807 -0.35505667 0.8091335
vn -0.42236227 -0.87301016 0.24385105
vn -0 -1 0
vn 0.19232863 0.9418612 0.2755127
vn -0.00026731452 0.00020169879 1
vn -0.37492657 -0.66214025 0.64884526
vn 0.09044739 0.99575055 0.017318998
vn 0.030202877 0.99952495 0.006126732
vn 0.47755688 0.28825003 0.8299707
vn -0.0005820322 -0.3559477 0.9345057
vn -0.24385096 -0.87301016 0.42236227
vn -0 -1 0
vn 0.31120077 0.9384113 0.15012763
vn 0.4990741 0.00041694433 0.86655915
vn -0.0001411582 -0.6623839 0.7491646
vn 0.08883438 0.99565494 0.027920466
vn 0.030202877 0.99952495 0.006126732
vn 0.8277728 0.29117292 0.47959423
vn 0.46569142 -0.3572248 0.80964315
vn -0 -0.87301016 0.48770192
vn -0 -1 0
vn 0.34563804 0.93806964 0.02365729
vn 0.8655259 -0.00084739673 0.50086343
vn 0.3739431 -0.66279423 0.6487453
vn 0.07105468 0.99747187 0.0009828211
vn 0.030202877 0.99952495 0.006126732
vn 0.30442318 0.94206166 -0.14087692
vn 0.9567083 0.29104552 -0.0013196188
vn 0.828399 0.28867605 -0.48002207
vn 0.99999917 -0.00091908424 -0.0009236225
vn 0.8654638 0.0004003263 -0.5009713
vn 0.807654 -0.35921988 0.46760678
vn 0.9332247 -0.35929185 -0.0010627965
vn 0.80808115 -0.35728475 -0.46835086
vn 0.6477412 -0.66347057 0.37448388
vn 0.74818563 -0.66348934 -0.00042026848
vn 0.64819646 -0.66280687 -0.37487102
vn 0.24385095 -0.87301016 0.4223623
vn -0 -1 0
vn 0.42236227 -0.87301016 0.24385102
vn -0 -1 0
vn 0.48770192 -0.87301016 0
vn -0 -1 0
vn 0.42236227 -0.87301016 -0.24385105
vn -0 -1 0
g liquid_0
f 3/3/3 2/2/2 1/1/1
f 1/1/1 4/4/4 3/3/3
f 4/4/4 5/5/5 3/3/3
f 4/4/4 6/6/6 5/5/5
f 6/6/6 7/7/7 5/5/5
f 6/6/6 8/8/8 7/7/7
f 8/8/8 9/9/9 7/7/7
f 8/8/8 10/10/10 9/9/9
f 10/10/10 11/11/11 9/9/9
f 10/10/10 12/12/12 11/11/11
f 12/12/12 13/13/13 11/11/11
f 12/12/12 14/14/14 13/13/13
f 14/14/14 15/15/15 13/13/13
f 14/14/14 16/16/16 15/15/15
f 17/17/17 14/14/14 12/12/12
f 17/17/17 18/18/18 14/14/14
f 19/19/19 12/12/12 10/10/10
f 19/19/19 17/17/17 12/12/12
f 20/20/20 10/10/10 8/8/8
f 20/20/20 19/19/19 10/10/10
f 21/21/21 8/8/8 6/6/6
f 21/21/21 20/20/20 8/8/8
f 22/22/22 17/17/17 19/19/19
f 22/22/22 23/23/23 17/17/17
f 24/24/24 19/19/19 20/20/20
f 24/24/24 22/22/22 19/19/19
f 25/25/25 21/21/21 6/6/6
f 25/25/25 6/6/6 4/4/4
f 26/26/26 20/20/20 21/21/21
f 26/26/26 24/24/24 20/20/20
f 27/27/27 22/22/22 24/24/24
f 27/27/27 28/28/28 22/22/22
f 29/29/29 27/27/27 24/24/24
f 29/29/29 24/24/24 26/26/26
f 30/30/30 26/26/26 21/21/21
f 30/30/30 21/21/21 25/25/25
f 31/31/31 25/25/25 4/4/4
f 31/31/31 4/4/4 1/1/1
f 32/32/32 27/27/27 29/29/29
f 32/32/32 33/33/33 27/27/27
f 34/34/34 29/29/29 26/26/26
f 34/34/34 26/26/26 30/30/30
f 35/35/35 30/30/30 25/25/25
f 35/35/35 25/25/25 31/31/31
f 36/36/36 31/31/31 1/1/1
f 1/1/1 37/37/37 36/36/36
f 38/38/38 32/32/32 29/29/29
f 38/38/38 29/29/29 34/34/34
f 39/39/39 34/34/34 30/30/30
f 39/39/39 30/30/30 35/35/35
f 40/40/40 31/31/31 36/36/36
f 40/40/40 35/35/35 31/31/31
f 41/41/41 32/32/32 38/38/38
f 41/41/41 42/42/42 32/32/32
f 43/43/43 38/38/38 34/34/34
f 43/43/43 34/34/34 39/39/39
f 44/44/44 39/39/39 35/35/35
f 44/44/44 35/35/35 40/40/40
f 45/45/45 40/40/40 36/36/36
f 36/36/36 46/46/46 45/45/45
f 47/47/47 41/41/41 38/38/38
f 47/47/47 38/38/38 43/43/43
f 48/48/48 43/43/43 39/39/39
f 48/48/48 39/39/39 44/44/44
f 49/49/49 40/40/40 45/45/45
f 49/49/49 44/44/44 40/40/40
f 50/50/50 41/41/41 47/47/47
f 50/50/50 51/51/51 41/41/41
f 52/52/52 47/47/47 43/43/43
f 52/52/52 43/43/43 48/48/48
f 53/53/53 48/48/48 44/44/44
f 53/53/53 44/44/44 49/49/49
f 54/54/54 49/49/49 45/45/45
f 45/45/45 55/55/55 54/54/54
f 56/56/56 50/50/50 47/47/47
f 56/56/56 47/47/47 52/52/52
f 57/57/57 52/52/52 48/48/48
f 57/57/57 48/48/48 53/53/53
f 58/58/58 49/49/49 54/54/54
f 58/58/58 53/53/53 49/49/49
f 59/59/59 50/50/50 56/56/56
f 59/59/59 60/60/60 50/50/50
f 61/61/61 56/56/56 52/52/52
f 61/61/61 52/52/52 57/57/57
f 62/62/62 57/57/57 53/53/53
f 62/62/62 53/53/53 58/58/58
f 63/63/63 58/58/58 54/54/54
f 54/54/54 64/64/64 63/63/63
f 65/65/65 59/59/59 56/56/56
f 65/65/65 56/56/56 61/61/61
f 66/66/66 61/61/61 57/57/57
f 66/66/66 57/57/57 62/62/62
f 67/67/67 58/58/58 63/63/63
f 67/67/67 62/62/62 58/58/58
f 68/68/68 59/59/59 65/65/65
f 68/68/68 69/69/69 59/59/59
f 70/70/70 65/65/65 61/61/61
f 70/70/70 61/61/61 66/66/66
f 71/71/71 66/66/66 62/62/62
f 71/71/71 62/62/62 67/67/67
f 72/72/72 67/67/67 63/63/63
f 63/63/63 73/73/73 72/72/72
f 74/74/74 68/68/68 65/65/65
f 74/74/74 65/65/65 70/70/70
f 75/75/75 70/70/70 66/66/66
f 75/75/75 66/66/66 71/71/71
f 76/76/76 67/67/67 72/72/72
f 76/76/76 71/71/71 67/67/67
f 77/77/77 68/68/68 74/74/74
f 77/77/77 78/78/78 68/68/68
f 79/79/79 74/74/74 70/70/70
f 79/79/79 70/70/70 75/75/75
f 80/80/80 75/75/75 71/71/71
f 80/80/80 71/71/71 76/76/76
f 81/81/81 76/76/76 72/72/72
f 72/72/72 82/82/82 81/81/81
f 83/83/83 77/77/77 74/74/74
f 83/83/83 74/74/74 79/79/79
f 84/84/84 79/79/79 75/75/75
f 84/84/84 75/75/75 80/80/80
f 85/85/85 76/76/76 81/81/81
f 85/85/85 80/80/80 76/76/76
f 86/86/86 77/77/77 83/83/83
f 86/86/86 87/87/87 77/77/77
f 88/88/88 83/83/83 79/79/79
f 88/88/88 79/79/79 84/84/84
f 89/89/89 84/84/84 80/80/80
f 89/89/89 80/80/80 85/85/85
f 90/90/90 85/85/85 81/81/81
f 81/81/81 91/91/91 90/90/90
f 92/92/92 86/86/86 83/83/83
f 92/92/92 83/83/83 88/88/88
f 93/93/93 88/88/88 84/84/84
f 93/93/93 84/84/84 89/89/89
f 94/94/94 85/85/85 90/90/90
f 94/94/94 89/89/89 85/85/85
f 95/95/95 86/86/86 92/92/92
f 95/95/95 96/96/96 86/86/86
f 97/97/97 95/95/95 92/92/92
f 98/98/98 92/92/92 88/88/88
f 97/97/97 92/92/92 98/98/98
f 98/98/98 88/88/88 93/93/93
f 99/99/99 97/97/97 98/98/98
f 99/99/99 98/98/98 100/100/100
f 100/100/100 98/98/98 93/93/93
f 101/101/101 99/99/99 100/100/100
f 102/102/102 93/93/93 89/89/89
f 100/100/100 93/93/93 102/102/102
f 102/102/102 89/89/89 94/94/94
f 101/101/101 100/100/100 103/103/103
f 103/103/103 100/100/100 102/102/102
f 104/104/104 101/101/101 103/103/103
f 105/105/105 102/102/102 94/94/94
f 103/103/103 102/102/102 105/105/105
f 104/104/104 103/103/103 106/106/106
f 106/106/106 103/103/103 105/105/105
f 107/107/107 104/104/104 106/106/106
f 105/105/105 94/94/94 108/108/108
f 108/108/108 94/94/94 90/90/90
f 90/90/90 109/109/109 108/108/108
f 110/110/110 105/105/105 108/108/108
f 106/106/106 105/105/105 110/110/110
f 108/108/108 111/111/111 110/110/110
f 107/107/107 106/106/106 112/112/112
f 112/112/112 106/106/106 110/110/110
f 110/110/110 113/113/113 112/112/112
f 114/114/114 107/107/107 112/112/112
f 112/112/112 115/115/115 114/114/114
