g locker_Door
v 0.43394592 -1.0658718 -0.019817336
v 0.0120422365 -1.0658718 -0.019817336
v -0 -1.0766857 -0.014150833
v 0.44598785 -1.0766857 -0.014150833
v 0.44598785 -1.0766857 -0.014150833
v 0.44598785 1.0766854 -0.014150833
v 0.43394592 1.0658716 -0.019817336
v 0.43394592 -1.0658718 -0.019817336
v 0.0120422365 -1.0658718 -0.019817336
v 0.0120422365 1.0658716 -0.019817336
v -0 1.0766854 -0.014150833
v -0 -1.0766857 -0.014150833
v 0.0120422365 1.0658716 -0.019817336
v 0.43394592 1.0658716 -0.019817336
v 0.44598785 1.0766854 -0.014150833
v -0 1.0766854 -0.014150833
v 0.44598785 1.0766854 -0.0028141632
v 0.44598785 -1.0766857 -0.0028141632
v 0.43394592 -1.0658718 0.0028523405
v 0.43394592 1.0658716 0.0028523405
v 0.43394592 1.0658716 0.0028523405
v 0.0120422365 1.0658716 0.0028523405
v -0 1.0766854 -0.0028141632
v 0.44598785 1.0766854 -0.0028141632
v 0.0120422365 1.0658716 0.0028523405
v 0.0120422365 -1.0658718 0.0028523405
v -0 -1.0766857 -0.0028141632
v -0 1.0766854 -0.0028141632
v 0.0120422365 -1.0658718 0.0028523405
v 0.43394592 -1.0658718 0.0028523405
v 0.44598785 -1.0766857 -0.0028141632
v -0 -1.0766857 -0.0028141632
v 0.43394592 1.0658716 0.0028523405
v 0.43394592 -1.0658718 0.0028523405
v 0.0120422365 -1.0658718 0.0028523405
v 0.0120422365 1.0658716 0.0028523405
v 0.43394592 1.0658716 -0.019817336
v 0.0120422365 1.0658716 -0.019817336
v 0.0120422365 -1.0658718 -0.019817336
v 0.43394592 -1.0658718 -0.019817336
v 0.44598785 1.0766854 -0.014150833
v 0.44598785 1.0766854 -0.0028141632
v -0 1.0766854 -0.0028141632
v -0 1.0766854 -0.014150833
v -0 1.0766854 -0.014150833
v -0 1.0766854 -0.0028141632
v -0 -1.0766857 -0.0028141632
v -0 -1.0766857 -0.014150833
v -0 -1.0766857 -0.014150833
v -0 -1.0766857 -0.0028141632
v 0.44598785 -1.0766857 -0.0028141632
v 0.44598785 -1.0766857 -0.014150833
v 0.44598785 -1.0766857 -0.014150833
v 0.44598785 -1.0766857 -0.0028141632
v 0.44598785 1.0766854 -0.0028141632
v 0.44598785 1.0766854 -0.014150833
v 0.102712706 0.92876995 0.007814499
v 0.102712706 0.92876995 0.0028523405
v 0.08934692 0.94077224 0.0028523405
v 0.08934692 0.94077224 0.007814499
v 0.102712706 0.94077224 0.019817673
v 0.08934692 0.98763686 0.007814499
v 0.08934692 0.98763686 0.0028523405
v 0.102712706 0.999639 0.0028523405
v 0.102712706 0.999639 0.007814499
v 0.102712706 0.98763686 0.019817673
v 0.34327513 0.98763686 0.019817673
v 0.102712706 0.999639 0.007814499
v 0.34327513 0.999639 0.007814499
v 0.34327513 0.999639 0.0028523405
v 0.102712706 0.999639 0.0028523405
v 0.34327513 0.94077224 0.019817673
v 0.102712706 0.92876995 0.007814499
v 0.34327513 0.92876995 0.007814499
v 0.102712706 0.92876995 0.0028523405
v 0.34327513 0.92876995 0.0028523405
v 0.3566403 0.98763686 0.007814499
v 0.34327513 0.999639 0.007814499
v 0.3566403 0.94077224 0.007814499
v 0.34327513 0.92876995 0.007814499
v 0.34327513 0.92876995 0.0028523405
v 0.3566403 0.94077224 0.0028523405
v 0.3566403 0.98763686 0.0028523405
v 0.34327513 0.999639 0.0028523405
vt 0.4350878 0.7566851
vt 0.46596843 0.7566828
vt 0.46695393 0.75573564
vt 0.4341032 0.7556117
vt 0.4341032 0.7556117
vt 0.4341026 0.93149036
vt 0.4350881 0.93041945
vt 0.4350878 0.7566851
vt 0.46596843 0.7566828
vt 0.46596867 0.9304173
vt 0.46695328 0.93136686
vt 0.46695393 0.75573564
vt 0.46596867 0.9304173
vt 0.4350881 0.93041945
vt 0.4341026 0.93149036
vt 0.46695328 0.93136686
vt 0.43315214 0.9314905
vt 0.43315262 0.7556116
vt 0.43219042 0.7566825
vt 0.4321909 0.9304169
vt 0.4321909 0.9304169
vt 0.4013098 0.93041927
vt 0.40034783 0.93149036
vt 0.43315214 0.9314905
vt 0.4013098 0.93041927
vt 0.4013098 0.75668496
vt 0.40034854 0.7556116
vt 0.40034783 0.93149036
vt 0.4013098 0.75668496
vt 0.43219042 0.7566825
vt 0.43315262 0.7556116
vt 0.40034854 0.7556116
vt 0.4321909 0.9304169
vt 0.43219042 0.7566825
vt 0.4013098 0.75668496
vt 0.4013098 0.93041927
vt 0.4350881 0.93041945
vt 0.46596867 0.9304173
vt 0.46596843 0.7566828
vt 0.4350878 0.7566851
vt 0.43312895 0.9324178
vt 0.43315214 0.9314905
vt 0.40034783 0.93149036
vt 0.40037107 0.93241745
vt 0.3993973 0.93161404
vt 0.40034783 0.93149036
vt 0.40034854 0.7556116
vt 0.3993981 0.7554875
vt 0.4003719 0.7546843
vt 0.40034854 0.7556116
vt 0.43315262 0.7556116
vt 0.43312955 0.7546842
vt 0.4341032 0.7556117
vt 0.43315262 0.7556116
vt 0.43315214 0.9314905
vt 0.4341026 0.93149036
vt 0.41812724 0.95914525
vt 0.4173721 0.9589175
vt 0.41656664 0.96144634
vt 0.41730657 0.9615341
vt 0.41991237 0.9613115
vt 0.41735637 0.96834636
vt 0.41660383 0.9684462
vt 0.41741192 0.97094274
vt 0.4181478 0.97072285
vt 0.41988412 0.9685684
vt 0.45323864 0.96870166
vt 0.41987336 0.97118896
vt 0.453228 0.97132224
vt 0.45322552 0.97208846
vt 0.41987032 0.9719552
vt 0.453267 0.96144503
vt 0.419923 0.95869106
vt 0.45327777 0.9588242
vt 0.41992605 0.9579247
vt 0.4532807 0.95805794
vt 0.4558449 0.96847886
vt 0.455024 0.970868
vt 0.45579475 0.9616668
vt 0.4550035 0.95929
vt 0.455739 0.9590707
vt 0.45654765 0.961567
vt 0.45658413 0.9685671
vt 0.45577902 0.9710958
vn -0 -0.46414575 -0.8857588
vn -0 -0.46414572 -0.8857589
vn -0 -0.46414575 -0.8857588
vn -0 -0.46414575 -0.8857588
vn 0.42577833 0 -0.90482754
vn 0.42577833 0 -0.90482754
vn 0.4257783 0 -0.90482754
vn 0.42577833 0 -0.90482754
vn -0.4257695 0 -0.9048317
vn -0.42576948 0 -0.9048317
vn -0.4257695 0 -0.9048317
vn -0.42576948 0 -0.9048317
vn -0 0.46413845 -0.88576275
vn -0 0.46413842 -0.88576275
vn -0 0.46413836 -0.88576275
vn -0 0.46413842 -0.88576275
vn 0.42577833 0 0.90482754
vn 0.42577833 0 0.90482754
vn 0.42577833 0 0.90482754
vn 0.4257783 0 0.90482754
vn -0 0.46413085 0.8857667
vn -0 0.46413085 0.8857667
vn -0 0.46413082 0.8857667
vn -0 0.46413085 0.8857667
vn -0.4257695 0 0.9048317
vn -0.4257695 0 0.9048317
vn -0.4257695 0 0.9048317
vn -0.4257695 0 0.9048317
vn -0 -0.46414575 0.8857588
vn -0 -0.46414575 0.8857588
vn -0 -0.46414572 0.8857589
vn -0 -0.46414575 0.8857588
vn -0 0 1
vn -0 0 1
vn -0 0 1
vn -0 0 1
vn -0 0 -1
vn -0 0 -1
vn -0 0 -1
vn -0 0 -1
vn -0 1 0
vn -0 1 0
vn -0 1 0
vn -0 1 0
vn -1 0 0
vn -1 0 0
vn -1 0 0
vn -1 0 0
vn -0 -1 0
vn -0 -1 0
vn -0 -1 0
vn -0 -1 0
vn 1 0 0
vn 1 0 0
vn 1 0 0
vn 1 0 0
vn -0.021246713 -0.818997 0.57340425
vn -0.04721382 -0.99888486 0
vn -0.97517973 -0.22141507 0
vn -0.7949743 -0.103003494 0.59783447
vn -0.040411588 -0.19430922 0.98010755
vn -0.794973 0.10300339 0.5978363
vn -0.9751795 0.22141592 0
vn -0.047212917 0.99888486 0
vn -0.021246564 0.8190013 0.5733982
vn -0.04041167 0.19430983 0.9801074
vn 0.040411726 0.19431007 0.9801074
vn -0.021246564 0.8190013 0.5733982
vn 0.021246472 0.8190013 0.573398
vn 0.047213025 0.99888486 0
vn -0.047212917 0.99888486 0
vn 0.040411636 -0.1943094 0.98010755
vn -0.021246713 -0.818997 0.57340425
vn 0.02124662 -0.81899685 0.57340443
vn -0.04721382 -0.99888486 0
vn 0.047213938 -0.99888486 0
vn 0.79498625 0.10300143 0.59781903
vn 0.021246472 0.8190013 0.573398
vn 0.79498667 -0.103001475 0.5978184
vn 0.02124662 -0.81899685 0.57340443
vn 0.047213938 -0.99888486 0
vn 0.9751819 -0.22140558 0
vn 0.97518164 0.22140634 0
vn 0.047213025 0.99888486 0
g locker_Door_0
f 3/3/3 2/2/2 1/1/1
f 4/4/4 3/3/3 1/1/1
f 7/7/7 6/6/6 5/5/5
f 8/8/8 7/7/7 5/5/5
f 11/11/11 10/10/10 9/9/9
f 12/12/12 11/11/11 9/9/9
f 15/15/15 14/14/14 13/13/13
f 16/16/16 15/15/15 13/13/13
f 19/19/19 18/18/18 17/17/17
f 20/20/20 19/19/19 17/17/17
f 23/23/23 22/22/22 21/21/21
f 24/24/24 23/23/23 21/21/21
f 27/27/27 26/26/26 25/25/25
f 28/28/28 27/27/27 25/25/25
f 31/31/31 30/30/30 29/29/29
f 32/32/32 31/31/31 29/29/29
f 35/35/35 34/34/34 33/33/33
f 36/36/36 35/35/35 33/33/33
f 39/39/39 38/38/38 37/37/37
f 40/40/40 39/39/39 37/37/37
f 43/43/43 42/42/42 41/41/41
f 44/44/44 43/43/43 41/41/41
f 47/47/47 46/46/46 45/45/45
f 48/48/48 47/47/47 45/45/45
f 51/51/51 50/50/50 49/49/49
f 52/52/52 51/51/51 49/49/49
f 55/55/55 54/54/54 53/53/53
f 56/56/56 55/55/55 53/53/53
f 59/59/59 58/58/58 57/57/57
f 60/60/60 59/59/59 57/57/57
f 60/60/60 57/57/57 61/61/61
f 60/60/60 62/62/62 59/59/59
f 62/62/62 63/63/63 59/59/59
f 64/64/64 63/63/63 62/62/62
f 65/65/65 64/64/64 62/62/62
f 62/62/62 66/66/66 65/65/65
f 66/66/66 62/62/62 60/60/60
f 61/61/61 66/66/66 60/60/60
f 66/66/66 61/61/61 67/67/67
f 66/66/66 67/67/67 68/68/68
f 67/67/67 69/69/69 68/68/68
f 69/69/69 70/70/70 68/68/68
f 70/70/70 71/71/71 68/68/68
f 61/61/61 72/72/72 67/67/67
f 61/61/61 73/73/73 72/72/72
f 73/73/73 74/74/74 72/72/72
f 73/73/73 75/75/75 74/74/74
f 75/75/75 76/76/76 74/74/74
f 77/77/77 67/67/67 72/72/72
f 77/77/77 78/78/78 67/67/67
f 79/79/79 77/77/77 72/72/72
f 79/79/79 72/72/72 80/80/80
f 80/80/80 81/81/81 79/79/79
f 81/81/81 82/82/82 79/79/79
f 82/82/82 83/83/83 79/79/79
f 83/83/83 77/77/77 79/79/79
f 77/77/77 83/83/83 78/78/78
f 83/83/83 84/84/84 78/78/78
