g market_back_COL
v 4.516494 3.4900694 0.54580504
v 6.015044 3.4900694 -1.9999424
v 6.015044 3.4900694 1.268976
v 4.516494 3.4900694 -1.9999424
v 6.015044 1.110223E-16 -1.9999424
v 3.0109956 3.4900694 0.028700834
v 4.516494 1.110223E-16 -1.9999424
v 3.0109956 3.4900694 -1.9999424
v 1.5054978 3.4900694 -0.23956983
v 3.0109956 1.110223E-16 -1.9999424
v 1.5054978 3.4900694 -1.9999424
v -0 3.4900694 -0.32121938
v 1.5054978 1.110223E-16 -1.9999424
v -0 3.4900694 -1.9999424
v -1.5054978 3.4900694 -0.23956983
v -0 1.110223E-16 -1.9999424
v -1.5054978 3.4900694 -1.9999424
v -3.0109956 3.4900694 0.028700834
v -1.5054978 1.110223E-16 -1.9999424
v -3.0109956 3.4900694 -1.9999424
v -4.516494 3.4900694 0.54580504
v -3.0109956 1.110223E-16 -1.9999424
v -4.516494 3.4900694 -1.9999424
v -4.516494 1.110223E-16 -1.9999424
v -5.978651 3.4900694 1.268976
v -5.978651 3.4900694 -1.9999424
v -5.978651 1.110223E-16 -1.9999424
v -5.978651 -1.110223E-16 1.268976
vt 0.875 0
vt 1 1
vt 1 0
vt 0.875 1
vt 1 1
vt 0.75 0
vt 0.875 1
vt 0.75 1
vt 0.625 0
vt 0.75 1
vt 0.625 1
vt 0.5 0
vt 0.625 1
vt 0.5 1
vt 0.375 0
vt 0.5 1
vt 0.375 1
vt 0.25 0
vt 0.375 1
vt 0.25 1
vt 0.125 0
vt 0.25 1
vt 0.125 1
vt 0.125 1
vt 0 0
vt 0 1
vt 0 1
vt 0 0
vn -0 1 0
vn -0 0.64004695 -0.7683358
vn -0 1 0
vn -0 0.5969052 -0.8023118
vn -0 0 -1
vn -0 1 0
vn -0 0 -1
vn -0 0.5139191 -0.8578387
vn -0 1 0
vn -0 0 -1
vn -0 0.4597881 -0.8880286
vn -0 1 0
vn -0 0 -1
vn -0 0.4419653 -0.89703214
vn -0 1 0
vn -0 0 -1
vn -0 0.4597881 -0.8880286
vn -0 1 0
vn -0 0 -1
vn -0 0.5139191 -0.8578387
vn -0 1 0
vn -0 0 -1
vn -0 0.5963407 -0.80273145
vn -0 0 -1
vn -0.96695644 0.25494188 0
vn -0.86422163 0.32201478 -0.38655835
vn -0.91284466 0 -0.40830702
vn -1 0 0
g market_back_COL_0
f 3/3/3 2/2/2 1/1/1
f 2/2/2 4/4/4 1/1/1
f 4/4/4 2/2/2 5/5/5
f 1/1/1 4/4/4 6/6/6
f 7/7/7 4/4/4 5/5/5
f 4/4/4 8/8/8 6/6/6
f 8/8/8 4/4/4 7/7/7
f 6/6/6 8/8/8 9/9/9
f 10/10/10 8/8/8 7/7/7
f 8/8/8 11/11/11 9/9/9
f 11/11/11 8/8/8 10/10/10
f 9/9/9 11/11/11 12/12/12
f 13/13/13 11/11/11 10/10/10
f 11/11/11 14/14/14 12/12/12
f 14/14/14 11/11/11 13/13/13
f 12/12/12 14/14/14 15/15/15
f 16/16/16 14/14/14 13/13/13
f 14/14/14 17/17/17 15/15/15
f 17/17/17 14/14/14 16/16/16
f 15/15/15 17/17/17 18/18/18
f 19/19/19 17/17/17 16/16/16
f 17/17/17 20/20/20 18/18/18
f 20/20/20 17/17/17 19/19/19
f 18/18/18 20/20/20 21/21/21
f 22/22/22 20/20/20 19/19/19
f 20/20/20 23/23/23 21/21/21
f 23/23/23 20/20/20 22/22/22
f 24/24/24 23/23/23 22/22/22
f 21/21/21 23/23/23 25/25/25
f 26/26/26 23/23/23 24/24/24
f 23/23/23 26/26/26 25/25/25
f 27/27/27 26/26/26 24/24/24
f 25/25/25 26/26/26 27/27/27
f 28/28/28 25/25/25 27/27/27
