g mesh_stageLight
v -0.40082574 -0.8492882 0.03236246
v -0.34344602 -0.84928834 0.03236246
v -0.34344602 -0.8994586 0.06308262
v -0.40082574 -0.8994586 0.06308262
v -0.418586 -0.8994586 0
v -0.34344602 -0.93405664 0.054630663
v -0.40082574 -0.8492882 -0.03236246
v -0.40082574 -0.93405664 0.05463066
v -0.40082574 -0.96381176 0.023683261
v -0.34344602 -0.96381176 0.023683265
v -0.34344602 -0.96381176 -0.023683265
v -0.40082574 -0.96381176 -0.023683261
v -0.40082574 -0.93405664 -0.05463066
v -0.34344602 -0.93405664 -0.054630663
v -0.34344602 -0.8994586 -0.06308262
v -0.40082574 -0.8994586 -0.06308262
v -0.34344602 -0.84928834 -0.03236246
v -0.34344602 -0.93405664 -0.054630663
v -0.34344602 -0.96381176 -0.023683265
v -0.34344602 -0.96381176 0.023683265
v -0.34344602 -0.93405664 0.054630663
v -0.34344602 -0.8994586 -0.06308262
v -0.34344602 -0.8994586 0.06308262
v -0.34344602 -0.84928834 0.03236246
v -0.34344602 -0.84928834 -0.03236246
v -0.30138618 -0.43199992 0.03236247
v -0.30138615 -0.43199998 -0.03236247
v -0.40082574 -0.8492882 -0.03236246
v -0.3929432 -0.41532636 0.03236247
v -0.40082574 -0.8492882 0.03236246
v -0.3929432 -0.41532636 -0.03236247
v -0.38939452 -0.38312912 -0.03236247
v -0.38939452 -0.38312912 0.03236247
v -0.36253804 -0.35387963 0.03236247
v -0.36253804 -0.35387963 -0.03236247
v -0.32579643 -0.34216517 -0.03236247
v -0.32579643 -0.34216517 0.03236247
v -0.09135618 -0.38941413 -0.03236246
v -0.09135618 -0.3894141 0.03236246
v -0.09135634 -0.32197925 0.03236246
v -0.09135634 -0.32197925 -0.03236246
v -0.047825184 -0.35507914 0
v 0.40082574 -0.8492882 0.03236246
v 0.34344602 -0.8994586 0.06308262
v 0.34344602 -0.84928834 0.03236246
v 0.40082574 -0.8994586 0.06308262
v 0.418586 -0.8994586 0
v 0.34344602 -0.93405664 0.054630663
v 0.40082574 -0.8492882 -0.03236246
v 0.40082574 -0.93405664 0.05463066
v 0.40082574 -0.96381176 0.023683261
v 0.34344602 -0.96381176 0.023683265
v 0.34344602 -0.96381176 -0.023683265
v 0.40082574 -0.96381176 -0.023683261
v 0.40082574 -0.93405664 -0.05463066
v 0.34344602 -0.93405664 -0.054630663
v 0.34344602 -0.8994586 -0.06308262
v 0.40082574 -0.8994586 -0.06308262
v 0.34344602 -0.84928834 -0.03236246
v 0.34344602 -0.93405664 0.054630663
v 0.34344602 -0.96381176 0.023683265
v 0.34344602 -0.96381176 -0.023683265
v 0.34344602 -0.93405664 -0.054630663
v 0.34344602 -0.8994586 0.06308262
v 0.34344602 -0.8994586 -0.06308262
v 0.34344602 -0.84928834 0.03236246
v 0.34344602 -0.84928834 -0.03236246
v 0.30138618 -0.43199992 0.03236247
v 0.30138615 -0.43199998 -0.03236247
v 0.40082574 -0.8492882 -0.03236246
v 0.3929432 -0.41532636 0.03236247
v 0.40082574 -0.8492882 0.03236246
v 0.3929432 -0.41532636 -0.03236247
v 0.38939452 -0.38312912 -0.03236247
v 0.38939452 -0.38312912 0.03236247
v 0.36253804 -0.35387963 0.03236247
v 0.36253804 -0.35387963 -0.03236247
v 0.32579643 -0.34216517 -0.03236247
v 0.32579643 -0.34216517 0.03236247
v 0.09135618 -0.38941413 -0.03236246
v 0.09135618 -0.3894141 0.03236246
v 0.09135634 -0.32197925 0.03236246
v 0.09135634 -0.32197925 -0.03236246
v 0.047825184 -0.35507914 0
v 0.070595026 -0.2609962 0
v 0.056157053 -0.24971862 0
v 7.3643345E-09 -0.24971862 -0.056157053
v 9.257704E-09 -0.2609962 -0.070595026
v -0.056157053 -0.24971862 -4.9096123E-09
v -3.0859368E-09 -0.2609962 0.070595026
v -2.4548061E-09 -0.24971862 0.056157053
v -0.070595026 -0.2609962 -6.1718737E-09
v -3.7853782E-09 -0.35507914 0.08659571
v 0.08659571 -0.35507914 0
v 1.1356004E-08 -0.35507914 -0.08659571
v -0.08659571 -0.35507914 -7.5707565E-09
v -3.0859368E-09 -0.41634634 0.070595026
v 0.070595026 -0.41634634 0
v 9.257704E-09 -0.41634634 -0.070595026
v -0.070595026 -0.41634634 -6.1718737E-09
v -0 -0.44179463 0
v 0.056157053 -0.24971862 0
v 0.07104897 -0.13911867 0
v 9.317233E-09 -0.13911867 -0.07104897
v 7.3643345E-09 -0.24971862 -0.056157053
v -2.4548061E-09 -0.24971862 0.056157053
v -0.07104897 -0.13911867 -6.21156E-09
v -3.10578E-09 -0.13911867 0.07104897
v -0.056157053 -0.24971862 -4.9096123E-09
v 0.07104897 -0.13911867 0
v 0.08931565 -0.12409115 0
v 1.1712692E-08 -0.12409115 -0.08931565
v 9.317233E-09 -0.13911867 -0.07104897
v -3.10578E-09 -0.13911867 0.07104897
v -0.08931565 -0.12409115 -7.808551E-09
v -0.07104897 -0.13911867 -6.21156E-09
v -3.9042756E-09 -0.12409115 0.08931565
v 1.1712692E-08 0.02513355 -0.08931565
v -0.08931565 0.02513355 -7.808551E-09
v 0.08931565 0.02513355 0
v -3.9042756E-09 0.02513355 0.08931565
v -0 0.05999601 0
vt 0.25 0.59999996
vt 0.25 0.59999996
vt 0.25 0.59999996
vt 0.25 0.59999996
vt 0.25 0.59999996
vt 0.25 0.59999996
vt 0.25 0.59999996
vt 0.25 0.59999996
vt 0.25 0.59999996
vt 0.25 0.59999996
vt 0.25 0.59999996
vt 0.25 0.59999996
vt 0.25 0.59999996
vt 0.25 0.59999996
vt 0.25 0.59999996
vt 0.25 0.59999996
vt 0.25 0.59999996
vt 0.25 0.59999996
vt 0.25 0.59999996
vt 0.25 0.59999996
vt 0.25 0.59999996
vt 0.25 0.59999996
vt 0.25 0.59999996
vt 0.25 0.59999996
vt 0.25 0.59999996
vt 0.25 0.59999996
vt 0.25 0.59999996
vt 0.25 0.59999996
vt 0.25 0.59999996
vt 0.25 0.59999996
vt 0.25 0.59999996
vt 0.25 0.59999996
vt 0.25 0.59999996
vt 0.25 0.59999996
vt 0.25 0.59999996
vt 0.25 0.59999996
vt 0.25 0.59999996
vt 0.25 0.59999996
vt 0.25 0.59999996
vt 0.25 0.59999996
vt 0.25 0.59999996
vt 0.25 0.59999996
vt 0.25 0.59999996
vt 0.25 0.59999996
vt 0.25 0.59999996
vt 0.25 0.59999996
vt 0.25 0.59999996
vt 0.25 0.59999996
vt 0.25 0.59999996
vt 0.25 0.59999996
vt 0.25 0.59999996
vt 0.25 0.59999996
vt 0.25 0.59999996
vt 0.25 0.59999996
vt 0.25 0.59999996
vt 0.25 0.59999996
vt 0.25 0.59999996
vt 0.25 0.59999996
vt 0.25 0.59999996
vt 0.25 0.59999996
vt 0.25 0.59999996
vt 0.25 0.59999996
vt 0.25 0.59999996
vt 0.25 0.59999996
vt 0.25 0.59999996
vt 0.25 0.59999996
vt 0.25 0.59999996
vt 0.25 0.59999996
vt 0.25 0.59999996
vt 0.25 0.59999996
vt 0.25 0.59999996
vt 0.25 0.59999996
vt 0.25 0.59999996
vt 0.25 0.59999996
vt 0.25 0.59999996
vt 0.25 0.59999996
vt 0.25 0.59999996
vt 0.25 0.59999996
vt 0.25 0.59999996
vt 0.25 0.59999996
vt 0.25 0.59999996
vt 0.25 0.59999996
vt 0.25 0.59999996
vt 0.25 0.59999996
vt 0.25 0.59999996
vt 0.25 0.59999996
vt 0.25 0.59999996
vt 0.25 0.59999996
vt 0.25 0.59999996
vt 0.25 0.59999996
vt 0.25 0.59999996
vt 0.25 0.59999996
vt 0.25 0.59999996
vt 0.25 0.59999996
vt 0.25 0.59999996
vt 0.25 0.59999996
vt 0.25 0.59999996
vt 0.25 0.59999996
vt 0.25 0.59999996
vt 0.25 0.59999996
vt 0.25 0.59999996
vt 0.25 0.35000002
vt 0.25 0.35000002
vt 0.25 0.35000002
vt 0.25 0.35000002
vt 0.25 0.35000002
vt 0.25 0.35000002
vt 0.25 0.35000002
vt 0.25 0.35000002
vt 0.25 0.59999996
vt 0.25 0.59999996
vt 0.25 0.59999996
vt 0.25 0.59999996
vt 0.25 0.59999996
vt 0.25 0.59999996
vt 0.25 0.59999996
vt 0.25 0.59999996
vt 0.25 0.59999996
vt 0.25 0.59999996
vt 0.25 0.59999996
vt 0.25 0.59999996
vt 0.25 0.59999996
vn -0.48687395 0.51471496 0.70570695
vn -0 0.52219886 0.85282373
vn -0 0.2540743 0.9671847
vn -0.33386078 0.23486702 0.9128935
vn -0.99876416 0.049699824 0
vn -0 -0.5221486 0.85285455
vn -0.48687395 0.51471496 -0.70570695
vn -0.38260972 -0.48322198 0.78746825
vn -0.37854183 -0.8655746 0.32785174
vn -0 -0.9348002 0.3551739
vn -0 -0.9348002 -0.3551739
vn -0.37854183 -0.8655746 -0.32785174
vn -0.38260972 -0.48322198 -0.78746825
vn -0 -0.5221486 -0.85285455
vn -0 0.2540743 -0.9671847
vn -0.33386078 0.23486702 -0.9128935
vn -0 0.52219886 -0.85282373
vn 1 0 0
vn 1 0 0
vn 1 0 0
vn 1 0 0
vn 1 0 0
vn 1 0 0
vn 0.70100015 -0.05701262 0.7108785
vn 0.7010004 -0.057012632 -0.7108783
vn 0.47050127 -0.2579153 0.8438651
vn 0.47050163 -0.25791547 -0.84386474
vn -0.6650701 0.01208039 -0.7466832
vn -0.70685136 0.017333506 0.7071497
vn -0.6650701 0.012080389 0.7466831
vn -0.7068514 0.017333508 -0.7071497
vn -0.75991964 0.3760251 -0.5302143
vn -0.75991994 0.37602523 0.53021383
vn -0.45632824 0.70846695 0.53836703
vn -0.4563282 0.70846695 -0.53836703
vn -0.08287005 0.7044698 -0.70487934
vn -0.082870066 0.70447 0.70487916
vn 0.16165508 -0.560156 -0.8124611
vn 0.16165498 -0.5601556 0.8124613
vn 0.0046119276 0.67009777 0.7422585
vn 0.0046119364 0.6700975 -0.7422588
vn 0.9999937 0.0035635042 0
vn 0.48687387 0.5147151 0.7057069
vn -0 0.2540743 0.9671847
vn -0 0.52219886 0.85282373
vn 0.33386084 0.23486724 0.9128935
vn 0.99876416 0.049700025 0
vn -0 -0.5221486 0.85285455
vn 0.48687395 0.51471496 -0.70570695
vn 0.38260978 -0.48322192 0.7874683
vn 0.37854183 -0.8655746 0.32785174
vn -0 -0.9348002 0.3551739
vn -0 -0.9348002 -0.3551739
vn 0.37854183 -0.8655746 -0.32785174
vn 0.38260978 -0.48322192 -0.7874683
vn -0 -0.5221486 -0.85285455
vn -0 0.2540743 -0.9671847
vn 0.33386084 0.23486716 -0.9128935
vn -0 0.52219886 -0.85282373
vn -1 0 0
vn -1 0 0
vn -1 0 0
vn -1 0 0
vn -1 0 0
vn -1 0 0
vn -0.7010003 -0.05701262 0.7108785
vn -0.7010004 -0.057012632 -0.7108784
vn -0.47050127 -0.25791526 0.8438651
vn -0.47050163 -0.25791547 -0.84386474
vn 0.66507006 0.012080392 -0.7466832
vn 0.70685136 0.017333508 0.7071497
vn 0.6650701 0.012080392 0.7466831
vn 0.70685136 0.017333508 -0.7071497
vn 0.75991964 0.3760251 -0.5302143
vn 0.75991994 0.37602523 0.53021383
vn 0.4563282 0.70846695 0.53836703
vn 0.4563282 0.70846695 -0.53836703
vn 0.08287003 0.7044697 -0.70487934
vn 0.082870066 0.70447 0.70487916
vn -0.16165501 -0.56015587 -0.8124611
vn -0.16165493 -0.5601556 0.8124613
vn -0.004611931 0.67009777 0.7422585
vn -0.004611943 0.6700974 -0.74225885
vn -0.9999937 0.0035635042 0
vn 0.9747703 0.22321059 0
vn 0.615573 0.7880799 0
vn -0 0.7880798 -0.61557317
vn -0 0.22321059 -0.9747702
vn -0.61557305 0.78807986 0
vn -0 0.2232106 0.9747703
vn -0 0.7880795 0.61557347
vn -0.9747702 0.22321059 0
vn -0 0.00438581 0.99999046
vn 0.99999046 0.004385828 0
vn -0 0.0043858388 -0.99999046
vn -0.99999046 0.00438582 0
vn -0 -0.42410862 0.90561134
vn 0.90561134 -0.42410854 0
vn -0 -0.42410854 -0.90561134
vn -0.90561134 -0.42410856 0
vn -0 -1 0
vn 0.99105656 -0.13344246 0
vn 0.99105656 -0.13344246 0
vn -0 -0.13344246 -0.99105656
vn -0 -0.13344248 -0.99105656
vn -0 -0.13344246 0.99105656
vn -0.99105656 -0.13344248 0
vn -0 -0.13344246 0.99105656
vn -0.99105656 -0.13344248 0
vn 0.6353136 -0.7722542 0
vn 0.9978472 -0.065581575 0
vn -0 -0.06558159 -0.9978472
vn -0 -0.7722541 -0.63531375
vn -0 -0.77225435 0.6353136
vn -0.9978472 -0.06558159 0
vn -0.6353135 -0.77225435 0
vn -0 -0.065581575 0.9978472
vn -0 0.1508529 -0.9885563
vn -0.9885563 0.1508529 0
vn 0.9885563 0.1508529 0
vn -0 0.1508529 0.9885563
vn -0 1 0
g mesh_stageLight_0
f 3/3/3 2/2/2 1/1/1
f 4/4/4 3/3/3 1/1/1
f 4/4/4 1/1/1 5/5/5
f 6/6/6 3/3/3 4/4/4
f 5/5/5 1/1/1 7/7/7
f 8/8/8 6/6/6 4/4/4
f 4/4/4 5/5/5 8/8/8
f 8/8/8 9/9/9 6/6/6
f 8/8/8 5/5/5 9/9/9
f 9/9/9 10/10/10 6/6/6
f 11/11/11 10/10/10 9/9/9
f 12/12/12 11/11/11 9/9/9
f 9/9/9 5/5/5 12/12/12
f 12/12/12 13/13/13 11/11/11
f 12/12/12 5/5/5 13/13/13
f 13/13/13 14/14/14 11/11/11
f 14/14/14 13/13/13 15/15/15
f 16/16/16 5/5/5 7/7/7
f 13/13/13 5/5/5 16/16/16
f 13/13/13 16/16/16 15/15/15
f 16/16/16 7/7/7 17/17/17
f 15/15/15 16/16/16 17/17/17
f 20/20/20 19/19/19 18/18/18
f 18/18/18 21/21/21 20/20/20
f 18/18/18 22/22/22 21/21/21
f 22/22/22 23/23/23 21/21/21
f 23/23/23 22/22/22 24/24/24
f 22/22/22 25/25/25 24/24/24
f 24/24/24 25/25/25 26/26/26
f 25/25/25 27/27/27 26/26/26
f 25/25/25 28/28/28 27/27/27
f 24/24/24 26/26/26 29/29/29
f 30/30/30 24/24/24 29/29/29
f 28/28/28 30/30/30 31/31/31
f 28/28/28 31/31/31 27/27/27
f 30/30/30 29/29/29 31/31/31
f 32/32/32 31/31/31 29/29/29
f 32/32/32 27/27/27 31/31/31
f 26/26/26 33/33/33 29/29/29
f 33/33/33 32/32/32 29/29/29
f 32/32/32 33/33/33 34/34/34
f 34/34/34 33/33/33 26/26/26
f 35/35/35 27/27/27 32/32/32
f 35/35/35 32/32/32 34/34/34
f 35/35/35 34/34/34 36/36/36
f 36/36/36 27/27/27 35/35/35
f 37/37/37 34/34/34 26/26/26
f 34/34/34 37/37/37 36/36/36
f 27/27/27 36/36/36 38/38/38
f 26/26/26 27/27/27 39/39/39
f 27/27/27 38/38/38 39/39/39
f 37/37/37 26/26/26 40/40/40
f 26/26/26 39/39/39 40/40/40
f 36/36/36 37/37/37 41/41/41
f 36/36/36 41/41/41 38/38/38
f 37/37/37 40/40/40 41/41/41
f 39/39/39 38/38/38 42/42/42
f 38/38/38 41/41/41 42/42/42
f 41/41/41 40/40/40 42/42/42
f 40/40/40 39/39/39 42/42/42
f 45/45/45 44/44/44 43/43/43
f 44/44/44 46/46/46 43/43/43
f 43/43/43 46/46/46 47/47/47
f 44/44/44 48/48/48 46/46/46
f 43/43/43 47/47/47 49/49/49
f 48/48/48 50/50/50 46/46/46
f 47/47/47 46/46/46 50/50/50
f 51/51/51 50/50/50 48/48/48
f 47/47/47 50/50/50 51/51/51
f 52/52/52 51/51/51 48/48/48
f 52/52/52 53/53/53 51/51/51
f 53/53/53 54/54/54 51/51/51
f 47/47/47 51/51/51 54/54/54
f 55/55/55 54/54/54 53/53/53
f 47/47/47 54/54/54 55/55/55
f 56/56/56 55/55/55 53/53/53
f 55/55/55 56/56/56 57/57/57
f 47/47/47 58/58/58 49/49/49
f 47/47/47 55/55/55 58/58/58
f 58/58/58 55/55/55 57/57/57
f 49/49/49 58/58/58 59/59/59
f 58/58/58 57/57/57 59/59/59
f 62/62/62 61/61/61 60/60/60
f 60/60/60 63/63/63 62/62/62
f 60/60/60 64/64/64 63/63/63
f 64/64/64 65/65/65 63/63/63
f 65/65/65 64/64/64 66/66/66
f 67/67/67 65/65/65 66/66/66
f 67/67/67 66/66/66 68/68/68
f 69/69/69 67/67/67 68/68/68
f 70/70/70 67/67/67 69/69/69
f 68/68/68 66/66/66 71/71/71
f 66/66/66 72/72/72 71/71/71
f 72/72/72 70/70/70 73/73/73
f 73/73/73 70/70/70 69/69/69
f 71/71/71 72/72/72 73/73/73
f 73/73/73 74/74/74 71/71/71
f 69/69/69 74/74/74 73/73/73
f 75/75/75 68/68/68 71/71/71
f 74/74/74 75/75/75 71/71/71
f 75/75/75 74/74/74 76/76/76
f 75/75/75 76/76/76 68/68/68
f 69/69/69 77/77/77 74/74/74
f 74/74/74 77/77/77 76/76/76
f 76/76/76 77/77/77 78/78/78
f 69/69/69 78/78/78 77/77/77
f 76/76/76 79/79/79 68/68/68
f 79/79/79 76/76/76 78/78/78
f 78/78/78 69/69/69 80/80/80
f 69/69/69 68/68/68 81/81/81
f 80/80/80 69/69/69 81/81/81
f 68/68/68 79/79/79 82/82/82
f 81/81/81 68/68/68 82/82/82
f 79/79/79 78/78/78 83/83/83
f 83/83/83 78/78/78 80/80/80
f 82/82/82 79/79/79 83/83/83
f 80/80/80 81/81/81 84/84/84
f 83/83/83 80/80/80 84/84/84
f 82/82/82 83/83/83 84/84/84
f 81/81/81 82/82/82 84/84/84
f 87/87/87 86/86/86 85/85/85
f 88/88/88 87/87/87 85/85/85
f 89/89/89 87/87/87 88/88/88
f 85/85/85 86/86/86 90/90/90
f 86/86/86 91/91/91 90/90/90
f 91/91/91 89/89/89 92/92/92
f 92/92/92 89/89/89 88/88/88
f 90/90/90 91/91/91 92/92/92
f 85/85/85 90/90/90 93/93/93
f 88/88/88 85/85/85 94/94/94
f 94/94/94 85/85/85 93/93/93
f 92/92/92 88/88/88 95/95/95
f 95/95/95 88/88/88 94/94/94
f 90/90/90 92/92/92 96/96/96
f 93/93/93 90/90/90 96/96/96
f 96/96/96 92/92/92 95/95/95
f 94/94/94 93/93/93 97/97/97
f 95/95/95 94/94/94 98/98/98
f 98/98/98 94/94/94 97/97/97
f 96/96/96 95/95/95 99/99/99
f 99/99/99 95/95/95 98/98/98
f 93/93/93 96/96/96 100/100/100
f 97/97/97 93/93/93 100/100/100
f 100/100/100 96/96/96 99/99/99
f 97/97/97 101/101/101 98/98/98
f 98/98/98 101/101/101 99/99/99
f 99/99/99 101/101/101 100/100/100
f 100/100/100 101/101/101 97/97/97
f 104/104/104 103/103/103 102/102/102
f 105/105/105 104/104/104 102/102/102
f 102/102/102 103/103/103 106/106/106
f 107/107/107 104/104/104 105/105/105
f 103/103/103 108/108/108 106/106/106
f 109/109/109 107/107/107 105/105/105
f 106/106/106 108/108/108 109/109/109
f 108/108/108 107/107/107 109/109/109
f 112/112/112 111/111/111 110/110/110
f 113/113/113 112/112/112 110/110/110
f 110/110/110 111/111/111 114/114/114
f 115/115/115 112/112/112 113/113/113
f 116/116/116 115/115/115 113/113/113
f 114/114/114 117/117/117 116/116/116
f 111/111/111 117/117/117 114/114/114
f 117/117/117 115/115/115 116/116/116
f 112/112/112 118/118/118 111/111/111
f 115/115/115 119/119/119 112/112/112
f 119/119/119 118/118/118 112/112/112
f 111/111/111 120/120/120 117/117/117
f 118/118/118 120/120/120 111/111/111
f 117/117/117 121/121/121 115/115/115
f 121/121/121 119/119/119 115/115/115
f 120/120/120 121/121/121 117/117/117
f 119/119/119 122/122/122 118/118/118
f 121/121/121 122/122/122 119/119/119
f 120/120/120 122/122/122 121/121/121
f 118/118/118 122/122/122 120/120/120
