g mesh_eyes_big
v 0.17695317 0.6087961 0.3189782
v 0.18279096 0.62456053 0.3552444
v 0.18066573 0.6538195 0.35168198
v 0.15765993 0.5748721 0.35209623
v 0.17165199 0.6049744 0.37436512
v 0.16835167 0.64241874 0.38796183
v 0.1266942 0.57757413 0.392762
v 0.18066573 0.6538195 0.35168198
v 0.15958142 0.65947413 0.31278884
v 0.16652127 0.6756117 0.3657647
v 0.18066573 0.6538195 0.35168198
v 0.14489011 0.6972195 0.33719435
v 0.15377393 0.6065345 0.39784354
v 0.102195285 0.61531955 0.41715387
v 0.13962948 0.62832683 0.41192618
v 0.13962948 0.62832683 0.41192618
v 0.09851431 0.66599745 0.4109835
v 0.13750425 0.6575858 0.4083637
v 0.13962948 0.62832683 0.41192618
v 0.11780753 0.69992155 0.37786546
v 0.14864321 0.67717177 0.38924304
v -0.17781089 0.6087957 0.3191831
v -0.18152349 0.653819 0.3518869
v -0.18364869 0.6245602 0.35544932
v -0.15851766 0.57487166 0.3523011
v -0.17250974 0.60497403 0.37457004
v -0.16920938 0.6424184 0.38816676
v -0.12755194 0.5775738 0.39296693
v -0.18152349 0.653819 0.3518869
v -0.16043916 0.6594736 0.3130318
v -0.16737902 0.6756114 0.36596957
v -0.18152349 0.653819 0.3518869
v -0.14574784 0.6972191 0.3374101
v -0.15463166 0.60653406 0.39804843
v -0.103053 0.61531913 0.41735882
v -0.14048722 0.6283264 0.41213113
v -0.14048722 0.6283264 0.41213113
v -0.09937205 0.66599697 0.41118842
v -0.13836199 0.65758544 0.40856862
v -0.14048722 0.6283264 0.41213113
v -0.11866526 0.6999211 0.37807038
v -0.14950097 0.6771714 0.38944796
vt 0.98145974 0.3864016
vt 0.9303104 0.40758827
vt 0.9303104 0.41387188
vt 0.947054 0.35199586
vt 0.92586726 0.4031451
vt 0.92272544 0.41073006
vt 0.8983969 0.3519959
vt 0.9303104 0.41387188
vt 0.98145974 0.43505868
vt 0.92586726 0.41831502
vt 0.9303104 0.41387188
vt 0.947054 0.46946442
vt 0.9195836 0.4031451
vt 0.86399114 0.38640165
vt 0.91514045 0.40758827
vt 0.91514045 0.40758827
vt 0.8639912 0.4350586
vt 0.9151405 0.41387188
vt 0.91514045 0.40758827
vt 0.8983969 0.46946448
vt 0.9195837 0.41831502
vt 0.98145974 0.3864016
vt 0.9303104 0.41387188
vt 0.9303104 0.40758827
vt 0.947054 0.35199586
vt 0.92586726 0.4031451
vt 0.92272544 0.41073006
vt 0.8983969 0.3519959
vt 0.9303104 0.41387188
vt 0.98145974 0.43505868
vt 0.92586726 0.41831502
vt 0.9303104 0.41387188
vt 0.947054 0.46946442
vt 0.9195836 0.4031451
vt 0.86399114 0.38640165
vt 0.91514045 0.40758827
vt 0.91514045 0.40758827
vt 0.8639912 0.4350586
vt 0.9151405 0.41387188
vt 0.91514045 0.40758827
vt 0.8983969 0.46946448
vt 0.9195837 0.41831502
vn 0.9764198 -0.12862709 -0.17337698
vn 0.9920089 -0.10965171 -0.062408663
vn 0.9156353 0.34909856 -0.19935466
vn 0.7714135 -0.56912774 0.2846311
vn 0.8019191 -0.49283764 0.33769327
vn 0.7929867 0.13006629 0.5951932
vn 0.4440008 -0.540557 0.71460575
vn 0.9156353 0.34909856 -0.19935466
vn 0.8659434 0.38674664 -0.31712642
vn 0.7291115 0.6788524 0.08692424
vn 0.9156353 0.34909856 -0.19935466
vn 0.6804292 0.7328093 -0.0025649136
vn 0.50805795 -0.4671946 0.7236064
vn 0.18496384 -0.14145945 0.97251093
vn 0.27556577 -0.10899408 0.95508313
vn 0.27556577 -0.10899408 0.95508313
vn 0.1460434 0.3943766 0.9072698
vn 0.24063325 0.37193328 0.8965273
vn 0.27556577 -0.10899408 0.95508313
vn 0.35396203 0.7650044 0.53803277
vn 0.42500237 0.702494 0.57085484
vn -0.9764073 -0.12872632 -0.17337337
vn -0.91561407 0.349101 -0.19944772
vn -0.99200714 -0.10965836 -0.06242435
vn -0.7714139 -0.56912774 0.2846299
vn -0.8019196 -0.49283755 0.33769226
vn -0.79298663 0.13006616 0.5951933
vn -0.44400114 -0.54055756 0.7146051
vn -0.91561407 0.349101 -0.19944772
vn -0.86586344 0.38678318 -0.31730008
vn -0.72911197 0.67885095 0.08693221
vn -0.91561407 0.349101 -0.19944772
vn -0.68033653 0.7328957 -0.002465028
vn -0.5080585 -0.46719518 0.7236057
vn -0.18496485 -0.14145963 0.9725107
vn -0.2755664 -0.10899413 0.95508295
vn -0.2755664 -0.10899413 0.95508295
vn -0.14604296 0.3943769 0.9072698
vn -0.24063309 0.3719341 0.89652705
vn -0.2755664 -0.10899413 0.95508295
vn -0.3539386 0.76497555 0.53808916
vn -0.4249927 0.70246804 0.57089376
g mesh_eyes_big_0
f 3/3/3 2/2/2 1/1/1
f 1/1/1 2/2/2 4/4/4
f 2/2/2 5/5/5 4/4/4
f 2/2/2 6/6/6 5/5/5
f 4/4/4 5/5/5 7/7/7
f 8/8/8 6/6/6 2/2/2
f 9/9/9 8/8/8 1/1/1
f 10/10/10 6/6/6 8/8/8
f 10/10/10 11/11/11 9/9/9
f 12/12/12 10/10/10 9/9/9
f 5/5/5 13/13/13 7/7/7
f 5/5/5 6/6/6 13/13/13
f 7/7/7 13/13/13 14/14/14
f 13/13/13 15/15/15 14/14/14
f 13/13/13 6/6/6 16/16/16
f 14/14/14 16/16/16 17/17/17
f 16/16/16 6/6/6 18/18/18
f 19/19/19 18/18/18 17/17/17
f 17/17/17 18/18/18 20/20/20
f 21/21/21 10/10/10 12/12/12
f 21/21/21 6/6/6 10/10/10
f 20/20/20 21/21/21 12/12/12
f 18/18/18 21/21/21 20/20/20
f 18/18/18 6/6/6 21/21/21
f 24/24/24 23/23/23 22/22/22
f 24/24/24 22/22/22 25/25/25
f 26/26/26 24/24/24 25/25/25
f 27/27/27 24/24/24 26/26/26
f 26/26/26 25/25/25 28/28/28
f 27/27/27 29/29/29 24/24/24
f 29/29/29 30/30/30 22/22/22
f 27/27/27 31/31/31 29/29/29
f 32/32/32 31/31/31 30/30/30
f 31/31/31 33/33/33 30/30/30
f 34/34/34 26/26/26 28/28/28
f 27/27/27 26/26/26 34/34/34
f 34/34/34 28/28/28 35/35/35
f 36/36/36 34/34/34 35/35/35
f 27/27/27 34/34/34 37/37/37
f 37/37/37 35/35/35 38/38/38
f 27/27/27 37/37/37 39/39/39
f 39/39/39 40/40/40 38/38/38
f 39/39/39 38/38/38 41/41/41
f 42/42/42 41/41/41 33/33/33
f 31/31/31 42/42/42 33/33/33
f 27/27/27 42/42/42 31/31/31
f 42/42/42 39/39/39 41/41/41
f 27/27/27 39/39/39 42/42/42
