g mesh_eyes
v 0.16638844 0.61278015 0.33856955
v 0.17025562 0.62322307 0.36259362
v 0.16884778 0.64260525 0.36023375
v 0.1606905 0.635053 0.3842668
v 0.16395003 0.64635104 0.33448213
v 0.15360792 0.59030765 0.36050814
v 0.159478 0.6570412 0.3695626
v 0.14772108 0.67135495 0.3506402
v 0.16287677 0.6102485 0.37525985
v 0.13309512 0.5920976 0.38744658
v 0.14763494 0.6580746 0.3851155
v 0.12720828 0.6731449 0.37757862
v 0.1510337 0.61128193 0.39081278
v 0.11686616 0.6171015 0.40360466
v 0.14025609 0.6451002 0.39778173
v 0.114427745 0.6506723 0.39951718
v 0.14166391 0.625718 0.40014166
v -0.16638844 0.61278015 0.33856955
v -0.16395003 0.64635104 0.33448213
v -0.16884778 0.64260525 0.36023375
v -0.17025562 0.62322307 0.36259362
v -0.1606905 0.635053 0.3842668
v -0.15360792 0.59030765 0.36050814
v -0.159478 0.6570412 0.3695626
v -0.14772108 0.67135495 0.3506402
v -0.16287677 0.6102485 0.37525985
v -0.13309512 0.5920976 0.38744658
v -0.14763494 0.6580746 0.3851155
v -0.12720828 0.6731449 0.37757862
v -0.1510337 0.61128193 0.39081278
v -0.11686616 0.6171015 0.40360466
v -0.14025609 0.6451002 0.39778173
v -0.114427745 0.6506723 0.39951718
v -0.14166391 0.625718 0.40014166
vt 0.98145974 0.3864016
vt 0.95663565 0.39668405
vt 0.95663565 0.4247762
vt 0.92272544 0.41073012
vt 0.98145974 0.43505868
vt 0.947054 0.35199586
vt 0.9367715 0.4446403
vt 0.947054 0.46946442
vt 0.93677163 0.37681985
vt 0.8983969 0.3519959
vt 0.9086794 0.4446403
vt 0.8983969 0.46946448
vt 0.90867937 0.37681985
vt 0.86399114 0.38640165
vt 0.8888153 0.42477626
vt 0.8639912 0.4350586
vt 0.8888152 0.396684
vt 0.98145974 0.3864016
vt 0.98145974 0.43505868
vt 0.95663565 0.4247762
vt 0.95663565 0.39668405
vt 0.92272544 0.41073012
vt 0.947054 0.35199586
vt 0.9367715 0.4446403
vt 0.947054 0.46946442
vt 0.93677163 0.37681985
vt 0.8983969 0.3519959
vt 0.9086794 0.4446403
vt 0.8983969 0.46946448
vt 0.90867937 0.37681985
vt 0.86399114 0.38640165
vt 0.8888153 0.42477626
vt 0.8639912 0.4350586
vt 0.8888152 0.396684
vn 0.97540843 -0.2104351 -0.065538764
vn 0.9850101 -0.17090145 0.023406556
vn 0.9500779 0.31002656 -0.035149306
vn 0.79298633 0.13006634 0.59519374
vn 0.93648785 0.32540277 -0.13078006
vn 0.7714136 -0.5691274 0.2846313
vn 0.7175858 0.6682259 0.19632821
vn 0.67745155 0.7244987 0.12712619
vn 0.8019194 -0.49283716 0.33769318
vn 0.44400173 -0.5405572 0.71460503
vn 0.42372444 0.6938682 0.5822408
vn 0.35003942 0.7530687 0.55709976
vn 0.5080585 -0.4671947 0.723606
vn 0.18496536 -0.1414599 0.9725106
vn 0.24063388 0.3719339 0.89652693
vn 0.14604436 0.39437678 0.9072695
vn 0.27556634 -0.10899459 0.95508295
vn -0.97540843 -0.21043515 -0.065538906
vn -0.9364878 0.32540295 -0.1307805
vn -0.9500779 0.3100268 -0.035149716
vn -0.9850101 -0.17090146 0.023406327
vn -0.79298663 0.13006628 0.59519327
vn -0.77141356 -0.56912756 0.2846314
vn -0.7175859 0.6682259 0.19632792
vn -0.67745167 0.7244986 0.12712584
vn -0.8019194 -0.4928373 0.33769307
vn -0.44400164 -0.54055715 0.7146051
vn -0.42372477 0.69386816 0.58224076
vn -0.3500395 0.7530687 0.5570997
vn -0.5080585 -0.46719465 0.723606
vn -0.18496569 -0.14145981 0.9725106
vn -0.24063417 0.37193376 0.8965268
vn -0.14604464 0.39437664 0.90726954
vn -0.27556658 -0.1089946 0.95508283
g mesh_eyes_0
f 3/3/3 2/2/2 1/1/1
f 3/3/3 4/4/4 2/2/2
f 5/5/5 3/3/3 1/1/1
f 1/1/1 2/2/2 6/6/6
f 7/7/7 3/3/3 5/5/5
f 7/7/7 4/4/4 3/3/3
f 8/8/8 7/7/7 5/5/5
f 2/2/2 9/9/9 6/6/6
f 2/2/2 4/4/4 9/9/9
f 6/6/6 9/9/9 10/10/10
f 11/11/11 7/7/7 8/8/8
f 11/11/11 4/4/4 7/7/7
f 12/12/12 11/11/11 8/8/8
f 9/9/9 13/13/13 10/10/10
f 9/9/9 4/4/4 13/13/13
f 10/10/10 13/13/13 14/14/14
f 15/15/15 11/11/11 12/12/12
f 15/15/15 4/4/4 11/11/11
f 16/16/16 15/15/15 12/12/12
f 14/14/14 17/17/17 16/16/16
f 13/13/13 17/17/17 14/14/14
f 13/13/13 4/4/4 17/17/17
f 17/17/17 15/15/15 16/16/16
f 17/17/17 4/4/4 15/15/15
f 20/20/20 19/19/19 18/18/18
f 21/21/21 20/20/20 18/18/18
f 22/22/22 20/20/20 21/21/21
f 21/21/21 18/18/18 23/23/23
f 20/20/20 24/24/24 19/19/19
f 22/22/22 24/24/24 20/20/20
f 24/24/24 25/25/25 19/19/19
f 26/26/26 21/21/21 23/23/23
f 22/22/22 21/21/21 26/26/26
f 26/26/26 23/23/23 27/27/27
f 24/24/24 28/28/28 25/25/25
f 22/22/22 28/28/28 24/24/24
f 28/28/28 29/29/29 25/25/25
f 30/30/30 26/26/26 27/27/27
f 22/22/22 26/26/26 30/30/30
f 30/30/30 27/27/27 31/31/31
f 28/28/28 32/32/32 29/29/29
f 22/22/22 32/32/32 28/28/28
f 32/32/32 33/33/33 29/29/29
f 34/34/34 31/31/31 33/33/33
f 34/34/34 30/30/30 31/31/31
f 22/22/22 30/30/30 34/34/34
f 32/32/32 34/34/34 33/33/33
f 22/22/22 34/34/34 32/32/32
