g model_phaseLemon
v 0.04821494 1.4144425 0.027555585
v 0.041582633 1.5835763 0.059408817
v -0.013740005 1.5833822 -0.04274773
v -0.060650844 1.5294214 0.048817605
v -0.07038186 1.6520175 0.15305352
v 6.342888E-05 1.7330493 0.015550956
v -0.017890243 1.4045535 0.023709912
v -0.013740005 1.5833822 -0.04274773
v -0.15345916 1.6517258 -0.000353837
v 0.04821494 1.4144425 0.027555585
v 0.013956623 1.4142174 -0.034283545
v -0.060650844 1.5294214 0.048817605
v -0.013740005 1.5833822 -0.04274773
v -0.017890243 1.4045535 0.023709912
v -0.05109232 1.2320589 -0.016572714
v -0.003977451 1.2321309 0.06628544
v -0.05109232 1.2320589 -0.016572714
v -0.121680655 1.1251087 0.03215928
v -0.074131265 1.1141515 0.121113405
v 0.034200277 1.1300896 0.12997761
v 0.043687895 1.2220033 -0.01563366
v -0.003977451 1.2321309 0.06628544
v 0.08965129 1.1286316 0.032266006
v 0.030749511 1.1225861 -0.05996223
v -0.0715596 1.131357 -0.052794438
v -0.121680655 1.1251087 0.03215928
v -0.07038186 1.6520175 0.15305352
v -0.15345916 1.6517258 -0.000353837
v 6.342888E-05 1.7330493 0.015550956
v 0.9963104 0.5743751 -0.6083457
v 0.74244976 1.0761607 -0.53539956
v 0.71057427 0.87209606 -0.800738
v 0.97775847 0.9313526 -0.35438704
v 0.7717236 1.1776494 0.015823878
v 0.43090084 1.3371892 -0.34355012
v 0.3253617 1.0954372 -0.80694103
v 0.40993175 1.3581223 0.1706026
v 0.019101296 1.2637358 -0.54851484
v -0.06306346 1.6612016 0.031377185
v -0.00321532 -1.2315011 -0.18738174
v -0.13291925 -1.2315011 -0.13365676
v -0.053318385 -1.3511121 -0.053198185
v -0.21946794 -1.1813191 -0.20036808
v 0.03916228 -1.3617575 -0.052501157
v -0.003711024 -1.3877553 -0.0032880937
v 0.037009545 -1.3602009 0.03720615
v 0.003445696 -1.1715434 -0.32098597
v -0.33869743 -1.0793849 -0.33869743
v 0.12648864 -1.2315011 -0.13365676
v 0.18021365 -1.2315011 -0.003952813
v 0.12648864 -1.2315011 0.12575114
v 0.2151926 -1.1811229 0.20104608
v 1.9631792E-09 -1.0793849 -0.47899044
v -0.6123724 -0.67076695 -0.6123724
v 0.21687716 -1.2006718 -0.21789335
v 0.29952222 -1.2033876 0.00059979816
v 0.33869743 -1.0793849 -0.33869743
v 0.4789905 -1.0793849 9.815896E-10
v 0.33869746 -1.0793849 0.33869746
v -0 -0.6299706 -0.8660254
v 0.86602545 -0.6299706 0
v 0.6099389 -0.66447556 0.60993886
v 0.6123724 -0.6299706 -0.6123724
v -0.37667602 -0.0075941226 -0.90937626
v -0.7071067 -0.0075941226 -0.7071067
v -0.6123724 0.65557873 -0.6123724
v -0 0.6147824 -0.8660254
v -0.39573714 0.97521526 -0.39573714
v -0 -0.0075941226 -0.9999998
v 0.376676 -0.0075941226 -0.90937626
v -4.275751E-09 0.97521526 -0.5596568
v -0.21693175 1.107711 -0.21693175
v 0.6123724 0.6147824 -0.6123724
v 0.7071067 -0.0075941226 -0.7071067
v 0.90937626 -0.0075941226 -0.37667602
v 1.4804942E-08 1.107711 -0.30678773
v -0.13202327 1.1746305 -0.13202327
v 2.3902205E-08 1.22569 -0.18670903
v -4.275751E-09 1.1353005 -2.1378754E-09
v 1 -0.0075941226 0
v 0.86602545 0.6147824 0
v 0.9305217 -0.0075941235 0.35553074
v 0.42767084 0.9175485 -0.4421126
v 0.30408287 1.0512842 -0.34741035
v 0.21693175 1.107711 -0.21693175
v 0.13202327 1.22569 -0.13202327
v 0.66622 0.9175485 -4.623581E-09
v 0.6099389 0.64928734 0.60993886
v 0.18670912 1.22569 1.1951102E-08
v 0.13202332 1.1829315 0.13202332
v 0.21693178 1.107711 0.21693178
v 0.30678782 1.107711 7.402471E-09
v 0.29838458 0.9952044 0.34762537
v 0.5045986 1.0396223 0.00029634943
v 0.42767096 0.9175485 0.44211265
v 0.712194 -0.0075941235 0.712194
v 0.35553086 -0.0075941235 0.9305213
v -0 0.6147824 0.8660254
v 0.42767096 0.9175485 0.44211265
v -4.275751E-09 0.97521526 0.55965686
v 0.29838458 0.9952044 0.34762537
v 0.21693178 1.107711 0.21693178
v -0 -0.6299706 0.8660254
v -0 -0.0075941226 0.9999999
v -0.37667602 -0.0075941226 0.90937626
v -0.61839837 0.55477613 0.63013077
v 1.9631792E-09 -1.0793849 0.47899047
v 0.33869746 -1.0793849 0.33869746
v -0.016049651 -1.225187 0.2963756
v 0.2151926 -1.1811229 0.20104608
v -0.00321532 -1.2315011 0.17947613
v 0.12648864 -1.2315011 0.12575114
v 0.037009545 -1.3602009 0.03720615
v -0.05059368 -1.3715423 0.040911
v -0.003711024 -1.3877553 -0.0032880937
v -0.053318385 -1.3511121 -0.053198185
v -0.13291925 -1.2315011 0.12575114
v -0.18664423 -1.2315011 -0.003952813
v -0.13291925 -1.2315011 -0.13365676
v -0.21946794 -1.1813191 -0.20036808
v -0.22011799 -1.2007728 0.17174605
v -0.34388545 -1.1760658 0.0005997973
v -0.33869743 -1.0793849 0.33869743
v -0.47899044 -1.0793849 9.815896E-10
v -0.33869743 -1.0793849 -0.33869743
v -0.61839837 -0.60737336 0.63013077
v -0.8660254 -0.6299706 0
v -0.6123724 -0.67076695 -0.6123724
v -0.7071067 -0.0075941226 0.7071067
v -0.90937626 -0.0075941226 0.37667602
v -0.90937626 -0.0075941226 -0.37667602
v -0.7071067 -0.0075941226 -0.7071067
v -0.6123724 0.65557873 -0.6123724
v -0.9999998 -0.0075941226 0
v -0.8660254 0.6147824 0
v -0.39573714 0.97521526 0.39573714
v -0.5596568 0.97521526 -2.1378754E-09
v -0.39573714 0.97521526 -0.39573714
v -0.3232661 1.0675105 0.3314791
v -0.45254236 1.0715708 0.000670229
v 1.4804942E-08 1.107711 0.30678776
v -0.21907017 1.107711 0.2117691
v -0.3046493 1.107711 0.005162631
v -0.21693175 1.107711 -0.21693175
v -0.0035221018 1.1716481 0.2701649
v -0.21907017 1.107711 0.2117691
v 0.13202332 1.1829315 0.13202332
v -0.18986842 1.1863234 0.19517757
v 2.3902205E-08 1.22569 0.18670908
v -4.275751E-09 1.1353005 -2.1378754E-09
v -0.28161937 1.1527826 0.011268735
v -0.14431527 1.2390542 0.14045674
v -0.18670903 1.22569 1.1951102E-08
v -0.13202327 1.1746305 -0.13202327
v -0.09109117 1.239054 0.08723262
v -0.95705444 0.69824535 0.38799462
v -0.72230726 1.0937891 0.34330586
v -0.7564695 0.9453766 0.555375
v -0.87629163 0.97208685 0.18235473
v -0.64894515 1.1301492 -0.06974865
v -0.4450677 1.2733623 0.23750335
v -0.4596502 1.1066037 0.6084599
v -0.34706676 1.2424041 -0.13492797
v -0.1828234 1.2029483 0.4594531
v -0.0011852693 1.4765162 0.024192857
vt 0.8881427 0.9129098
vt 0.8393997 0.9440731
vt 0.84944224 0.964034
vt 0.8310503 0.92054474
vt 0.81886077 0.9408604
vt 0.8142941 0.9676603
vt 0.87980485 0.8991668
vt 0.84944224 0.964034
vt 0.83840835 0.99488986
vt 0.8881427 0.9129098
vt 0.89814043 0.92726326
vt 0.86800647 0.9773872
vt 0.84944224 0.964034
vt 0.90762675 0.9410129
vt 0.95652163 0.90580463
vt 0.9330275 0.862503
vt 0.9124025 0.8503773
vt 0.9218303 0.81972796
vt 0.94486105 0.82559603
vt 0.9599947 0.8427972
vt 0.9499831 0.88200647
vt 0.9330275 0.862503
vt 0.969988 0.8631145
vt 0.9789885 0.88362837
vt 0.98189914 0.90619445
vt 0.97933316 0.93043214
vt 0.81886077 0.9408604
vt 0.7934309 0.93199635
vt 0.8142941 0.9676603
vt 0.5677949 0.9878035
vt 0.69952047 0.8578413
vt 0.7187915 0.9281095
vt 0.62610435 0.83822006
vt 0.7075467 0.6840793
vt 0.8185532 0.7361788
vt 0.8720043 0.84759516
vt 0.7923815 0.6090742
vt 0.94762576 0.7621445
vt 0.9868978 0.56696576
vt 0.47935623 0.08285394
vt 0.48219877 0.052994523
vt 0.44297078 0.06789229
vt 0.51105505 0.037777014
vt 0.43646413 0.08766592
vt 0.42613342 0.07871524
vt 0.417243 0.092031606
vt 0.5103254 0.08748281
vt 0.5660276 0.02506477
vt 0.45991966 0.11256156
vt 0.43022442 0.13220991
vt 0.40025118 0.13430457
vt 0.38695282 0.16734925
vt 0.5479501 0.09404883
vt 0.7101794 0.022250779
vt 0.47546732 0.12956934
vt 0.4324919 0.15900199
vt 0.5026141 0.1562899
vt 0.44062626 0.20304787
vt 0.3709644 0.22329408
vt 0.66055614 0.13894616
vt 0.48574904 0.309326
vt 0.3653473 0.3729388
vt 0.5804444 0.23002276
vt 0.81123805 0.16322999
vt 0.8624155 0.11328563
vt 0.9498304 0.26730332
vt 0.83231103 0.31435728
vt 0.947203 0.38211522
vt 0.7590737 0.2142221
vt 0.71070796 0.26137334
vt 0.8669297 0.4022129
vt 0.925231 0.45649037
vt 0.7396219 0.3918728
vt 0.6624016 0.30857688
vt 0.61471397 0.35508838
vt 0.8784483 0.46107012
vt 0.9106826 0.49340993
vt 0.87963814 0.49657586
vt 0.88160133 0.54254866
vt 0.5692926 0.40015706
vt 0.66021425 0.4835168
vt 0.5259997 0.4432081
vt 0.78892946 0.44130713
vt 0.81664836 0.46503016
vt 0.8309439 0.49081054
vt 0.8524751 0.51292735
vt 0.7216444 0.516289
vt 0.5964082 0.6029993
vt 0.8351398 0.53998417
vt 0.8315956 0.57094455
vt 0.79297996 0.5852763
vt 0.80028933 0.5373711
vt 0.74436456 0.6058499
vt 0.75896007 0.5284509
vt 0.6955851 0.60866207
vt 0.4812993 0.48810866
vt 0.43710086 0.5334123
vt 0.48076195 0.6680765
vt 0.6016095 0.70068353
vt 0.51799625 0.7502888
vt 0.5887883 0.7493604
vt 0.58052033 0.8027942
vt 0.30308008 0.4939977
vt 0.39505112 0.57730687
vt 0.35051027 0.6229879
vt 0.37989295 0.7385925
vt 0.19629784 0.4493978
vt 0.2157075 0.37959635
vt 0.14741491 0.44386983
vt 0.1595876 0.39187482
vt 0.12492292 0.43879163
vt 0.12780772 0.40810427
vt 0.08520554 0.42560977
vt 0.08014512 0.4443815
vt 0.07150783 0.43529698
vt 0.060504243 0.4527148
vt 0.10542931 0.4688678
vt 0.07601456 0.48926982
vt 0.04622419 0.49159783
vt 0.035629928 0.5228927
vt 0.11375016 0.4870668
vt 0.08249609 0.5244416
vt 0.14916842 0.51125395
vt 0.08906832 0.5582141
vt 0.019979909 0.5773508
vt 0.22966279 0.59202576
vt 0.13310829 0.6695932
vt 0.017256435 0.7205408
vt 0.30392313 0.6708069
vt 0.25654846 0.71934646
vt 0.15885909 0.820283
vt 0.109158605 0.87179327
vt 0.2632276 0.95835084
vt 0.20952787 0.76785797
vt 0.3102047 0.8408442
vt 0.44897455 0.8048477
vt 0.39800027 0.8746019
vt 0.37750477 0.95525897
vt 0.46707863 0.8196195
vt 0.4268252 0.8814285
vt 0.53245556 0.8070133
vt 0.48600793 0.840191
vt 0.4575608 0.884496
vt 0.4534809 0.935053
vt 0.53396887 0.8228723
vt 0.48600793 0.840191
vt 0.56681687 0.84096146
vt 0.49806732 0.849282
vt 0.53653586 0.84373283
vt 0.5401198 0.8915638
vt 0.46859032 0.88476026
vt 0.50814676 0.8606138
vt 0.49325126 0.88839185
vt 0.49023005 0.91954684
vt 0.5171987 0.86937225
vt 0.01374495 0.42948514
vt 0.13146764 0.30006993
vt 0.1532473 0.36542344
vt 0.061157227 0.28529364
vt 0.13017577 0.1356191
vt 0.23763138 0.179138
vt 0.29377913 0.28159302
vt 0.2064361 0.06047994
vt 0.3608085 0.19706285
vt 0.3879211 0.010798633
vn 0.9302296 0.02130073 0.3663594
vn 0.9415944 -0.010660653 0.33658037
vn 0.23167264 -0.004604261 -0.97278297
vn -0.7092836 -0.58601946 0.39178815
vn -0.26080847 0.31380257 0.91296595
vn 0.28765067 0.944684 -0.15757246
vn -0.8723974 -0.091737375 0.4801115
vn 0.23167264 -0.004604261 -0.97278297
vn -0.90761364 0.3115314 -0.28139937
vn 0.9302296 0.02130073 0.3663594
vn 0.1817091 0.045999542 -0.98227584
vn -0.7092836 -0.58601946 0.39178815
vn 0.23167264 -0.004604261 -0.97278297
vn -0.8723974 -0.091737375 0.4801115
vn -0.7222611 0.52896994 -0.4455669
vn 0.012267766 0.60896134 0.79310507
vn -0.7222611 0.52896994 -0.4455669
vn -0.74667567 0.6024737 0.28195915
vn -0.566219 0.6095553 0.5548319
vn 0.47869965 0.59651667 0.6442162
vn 0.7930257 0.37761152 -0.4780374
vn 0.012267766 0.60896134 0.79310507
vn 0.8354027 0.50380874 0.21972504
vn 0.23891835 0.34122887 -0.90911
vn -0.2927176 0.40178555 -0.8676894
vn -0.74667567 0.6024737 0.28195915
vn -0.26080847 0.31380257 0.91296595
vn -0.90761364 0.3115314 -0.28139937
vn 0.28765067 0.944684 -0.15757246
vn 0.7403622 0.4474822 -0.5016209
vn 0.53747916 0.7492516 -0.38696024
vn 0.52762866 0.6733554 -0.51788074
vn 0.6389187 0.70787704 -0.30115244
vn 0.54568386 0.8275617 -0.13179824
vn 0.39925465 0.8557517 -0.3290664
vn 0.30998388 0.7930051 -0.52445483
vn 0.5054206 0.86275107 -0.014513243
vn 0.10795008 0.84704614 -0.5204417
vn 0.36883882 0.8863138 -0.2800104
vn -0.039546583 -0.8795865 -0.47409245
vn -0.32882792 -0.8740272 -0.35769898
vn -0.4553751 -0.76193446 -0.4605317
vn -0.3420955 -0.8729101 -0.3478488
vn 0.4166398 -0.7964202 -0.43832192
vn 0.0087073315 -0.99623895 -0.086209506
vn 0.4600322 -0.77437806 0.43440643
vn -0.013667435 -0.86868554 -0.49517536
vn -0.5036945 -0.699506 -0.5069352
vn 0.25556928 -0.91323435 -0.31731287
vn 0.3889612 -0.9207498 0.030479249
vn 0.32092282 -0.9033056 0.28468868
vn 0.36841664 -0.8577249 0.35857645
vn 0.01562229 -0.6852919 -0.72810084
vn -0.60662276 -0.51382655 -0.60662276
vn 0.35469705 -0.864761 -0.35549742
vn 0.49686268 -0.8677607 0.010904564
vn 0.52096945 -0.67693555 -0.5199509
vn 0.7310114 -0.6822416 -0.012988826
vn 0.508762 -0.69332254 0.51035774
vn 0.011092609 -0.49936056 -0.86632323
vn 0.8642522 -0.50296247 -0.009850206
vn 0.60616773 -0.5148994 0.60616785
vn 0.6112235 -0.5028038 -0.6112235
vn -0.37938666 0 -0.9252382
vn -0.7071068 0 -0.70710677
vn -0.61414266 0.49563873 -0.61414266
vn 0.0027426195 0.47551057 -0.8797057
vn -0.48363966 0.7170431 -0.5019381
vn -0 0 -1
vn 0.38268343 0 -0.9238795
vn -0.016899459 0.70318055 -0.7108104
vn -0.28261492 0.8794623 -0.38298136
vn 0.6211061 0.45762658 -0.63624287
vn 0.70710665 0 -0.7071068
vn 0.9238795 0 -0.38268355
vn -0.05558329 0.8710612 -0.4880193
vn -0.29119596 0.89150745 -0.347015
vn -0.040765747 0.90053636 -0.43286538
vn -0.30594954 0.9059064 0.29279426
vn 0.9996013 0 -0.02823453
vn 0.8923641 0.45120856 -0.009854919
vn 0.9271337 0 0.37473077
vn 0.51925963 0.6466798 -0.5587258
vn 0.36866105 0.8460793 -0.38501796
vn 0.30195197 0.8878652 -0.34716055
vn 0.35124797 0.8678996 -0.35124785
vn 0.74475366 0.6671238 -0.016966581
vn 0.61625236 0.47040397 0.6316273
vn 0.44333437 0.8956956 0.034406926
vn 0.3553514 0.89715457 0.2623719
vn 0.37302414 0.8420103 0.3897071
vn 0.46295035 0.88431495 0.060532074
vn 0.3620437 0.8529223 0.37609568
vn 0.51150805 0.8592312 0.009009799
vn 0.4940868 0.67890805 0.5431042
vn 0.7071066 0 0.70710695
vn 0.3747309 0 0.9271337
vn -0.024979811 0.4848957 0.8742152
vn 0.4940868 0.67890805 0.5431042
vn -0.04632368 0.68480486 0.72725266
vn 0.3620437 0.8529223 0.37609568
vn 0.37302414 0.8420103 0.3897071
vn -0.008283241 -0.50578624 0.86261916
vn -0.028233897 0 0.9996014
vn -0.37476414 0.00097573723 0.9271196
vn -0.62129045 0.4717246 0.62567896
vn -0.01585507 -0.6855147 0.72788614
vn 0.508762 -0.69332254 0.51035774
vn -0.025428671 -0.8720175 0.4888137
vn 0.36841664 -0.8577249 0.35857645
vn 0.03984415 -0.9381247 0.34399772
vn 0.32092282 -0.9033056 0.28468868
vn 0.4600322 -0.77437806 0.43440643
vn -0.4307468 -0.7989356 0.41971314
vn 0.0087073315 -0.99623895 -0.086209506
vn -0.4553751 -0.76193446 -0.4605317
vn -0.32764134 -0.9101308 0.2536001
vn -0.44312605 -0.8957888 -0.034665372
vn -0.32882792 -0.8740272 -0.35769898
vn -0.3420955 -0.8729101 -0.3478488
vn -0.38223016 -0.8577018 0.34387165
vn -0.5071645 -0.86184615 -0.0023384257
vn -0.52216184 -0.6736852 0.52296776
vn -0.73246294 -0.68038195 0.024049733
vn -0.5036945 -0.699506 -0.5069352
vn -0.61080205 -0.4989646 0.6147806
vn -0.8649018 -0.5017198 0.014903742
vn -0.60662276 -0.51382655 -0.60662276
vn -0.70862496 -0.000188548 0.70558524
vn -0.92572385 0.0010356605 0.3781988
vn -0.9252382 0 -0.3793866
vn -0.7071068 0 -0.70710677
vn -0.61414266 0.49563873 -0.61414266
vn -1 0 0
vn -0.87380034 0.48568434 0.024160432
vn -0.55464625 0.63453627 0.53826684
vn -0.75297976 0.6561712 0.049605858
vn -0.48363966 0.7170431 -0.5019381
vn -0.34908506 0.86223745 0.36699626
vn -0.50282377 0.86435014 -0.0081854565
vn 0.064697556 0.8565988 0.51191086
vn -0.15114036 0.94716686 0.28289852
vn -0.38910425 0.9187719 -0.06675351
vn -0.28261492 0.8794623 -0.38298136
vn 0.025416363 0.6913889 0.7220356
vn -0.63518816 0.41281888 0.652776
vn 0.3553514 0.89715457 0.2623719
vn -0.5266244 0.63810986 0.5616784
vn 0.20423089 0.9385537 0.27822083
vn 0.35376775 0.86028343 -0.36709788
vn -0.7241613 0.6894792 -0.014454696
vn -0.3683189 0.8758424 0.3118356
vn -0.32890543 0.9210922 -0.20835146
vn -0.29119596 0.89150745 -0.347015
vn 0.3242551 0.88825655 -0.32535973
vn -0.8068918 0.51213056 0.29435998
vn -0.56822485 0.7966289 0.20616272
vn -0.5993475 0.721497 0.3467343
vn -0.6605857 0.74375725 0.10223387
vn -0.5194961 0.8516029 -0.06997384
vn -0.40655577 0.89731354 0.17187458
vn -0.3632459 0.8393666 0.40437114
vn -0.44598195 0.8746301 -0.19005856
vn -0.14080504 0.88354707 0.4466749
vn -0.36264718 0.92351806 0.12490538
g model_phaseLemon_0
f 3/3/3 2/2/2 1/1/1
f 2/2/2 5/5/5 4/4/4
f 6/6/6 5/5/5 2/2/2
f 2/2/2 4/4/4 7/7/7
f 8/8/8 6/6/6 2/2/2
f 9/9/9 6/6/6 8/8/8
f 10/10/10 2/2/2 7/7/7
f 11/11/11 8/8/8 10/10/10
f 12/12/12 8/8/8 11/11/11
f 12/12/12 9/9/9 13/13/13
f 14/14/14 12/12/12 11/11/11
f 14/14/14 11/11/11 15/15/15
f 10/10/10 7/7/7 16/16/16
f 16/16/16 7/7/7 17/17/17
f 16/16/16 17/17/17 18/18/18
f 19/19/19 16/16/16 18/18/18
f 20/20/20 16/16/16 19/19/19
f 21/21/21 16/16/16 20/20/20
f 11/11/11 10/10/10 21/21/21
f 15/15/15 11/11/11 21/21/21
f 21/21/21 10/10/10 22/22/22
f 23/23/23 21/21/21 20/20/20
f 24/24/24 21/21/21 23/23/23
f 15/15/15 21/21/21 24/24/24
f 25/25/25 15/15/15 24/24/24
f 26/26/26 15/15/15 25/25/25
f 29/29/29 28/28/28 27/27/27
f 27/27/27 28/28/28 4/4/4
f 32/32/32 31/31/31 30/30/30
f 31/31/31 33/33/33 30/30/30
f 34/34/34 33/33/33 31/31/31
f 35/35/35 31/31/31 32/32/32
f 35/35/35 34/34/34 31/31/31
f 36/36/36 35/35/35 32/32/32
f 37/37/37 34/34/34 35/35/35
f 38/38/38 35/35/35 36/36/36
f 39/39/39 37/37/37 35/35/35
f 39/39/39 35/35/35 38/38/38
f 42/42/42 41/41/41 40/40/40
f 41/41/41 43/43/43 40/40/40
f 42/42/42 40/40/40 44/44/44
f 44/44/44 45/45/45 42/42/42
f 46/46/46 45/45/45 44/44/44
f 43/43/43 47/47/47 40/40/40
f 43/43/43 48/48/48 47/47/47
f 49/49/49 44/44/44 40/40/40
f 40/40/40 47/47/47 49/49/49
f 46/46/46 44/44/44 50/50/50
f 50/50/50 44/44/44 49/49/49
f 46/46/46 50/50/50 51/51/51
f 51/51/51 50/50/50 52/52/52
f 48/48/48 53/53/53 47/47/47
f 48/48/48 54/54/54 53/53/53
f 47/47/47 55/55/55 49/49/49
f 49/49/49 55/55/55 50/50/50
f 47/47/47 53/53/53 55/55/55
f 50/50/50 56/56/56 52/52/52
f 55/55/55 56/56/56 50/50/50
f 53/53/53 57/57/57 55/55/55
f 55/55/55 57/57/57 56/56/56
f 56/56/56 58/58/58 52/52/52
f 57/57/57 58/58/58 56/56/56
f 58/58/58 59/59/59 52/52/52
f 54/54/54 60/60/60 53/53/53
f 53/53/53 60/60/60 57/57/57
f 58/58/58 61/61/61 59/59/59
f 61/61/61 62/62/62 59/59/59
f 57/57/57 63/63/63 58/58/58
f 60/60/60 63/63/63 57/57/57
f 63/63/63 61/61/61 58/58/58
f 54/54/54 64/64/64 60/60/60
f 54/54/54 65/65/65 64/64/64
f 64/64/64 65/65/65 66/66/66
f 64/64/64 66/66/66 67/67/67
f 66/66/66 68/68/68 67/67/67
f 64/64/64 69/69/69 60/60/60
f 64/64/64 67/67/67 69/69/69
f 60/60/60 69/69/69 70/70/70
f 60/60/60 70/70/70 63/63/63
f 70/70/70 69/69/69 67/67/67
f 68/68/68 71/71/71 67/67/67
f 68/68/68 72/72/72 71/71/71
f 70/70/70 67/67/67 73/73/73
f 67/67/67 71/71/71 73/73/73
f 70/70/70 74/74/74 63/63/63
f 70/70/70 73/73/73 74/74/74
f 63/63/63 74/74/74 75/75/75
f 63/63/63 75/75/75 61/61/61
f 75/75/75 74/74/74 73/73/73
f 72/72/72 76/76/76 71/71/71
f 72/72/72 77/77/77 76/76/76
f 77/77/77 78/78/78 76/76/76
f 77/77/77 79/79/79 78/78/78
f 75/75/75 80/80/80 61/61/61
f 75/75/75 73/73/73 81/81/81
f 75/75/75 81/81/81 80/80/80
f 61/61/61 80/80/80 82/82/82
f 82/82/82 80/80/80 81/81/81
f 61/61/61 82/82/82 62/62/62
f 71/71/71 83/83/83 73/73/73
f 73/73/73 83/83/83 81/81/81
f 71/71/71 76/76/76 84/84/84
f 71/71/71 84/84/84 83/83/83
f 76/76/76 78/78/78 85/85/85
f 76/76/76 85/85/85 84/84/84
f 78/78/78 79/79/79 86/86/86
f 78/78/78 86/86/86 85/85/85
f 83/83/83 87/87/87 81/81/81
f 83/83/83 84/84/84 87/87/87
f 82/82/82 81/81/81 88/88/88
f 81/81/81 87/87/87 88/88/88
f 86/86/86 79/79/79 89/89/89
f 89/89/89 79/79/79 90/90/90
f 89/89/89 90/90/90 91/91/91
f 86/86/86 89/89/89 92/92/92
f 92/92/92 89/89/89 91/91/91
f 85/85/85 86/86/86 92/92/92
f 92/92/92 91/91/91 93/93/93
f 84/84/84 85/85/85 94/94/94
f 85/85/85 92/92/92 94/94/94
f 94/94/94 92/92/92 93/93/93
f 84/84/84 94/94/94 87/87/87
f 94/94/94 93/93/93 95/95/95
f 87/87/87 94/94/94 95/95/95
f 87/87/87 95/95/95 88/88/88
f 82/82/82 88/88/88 96/96/96
f 82/82/82 96/96/96 62/62/62
f 97/97/97 96/96/96 88/88/88
f 62/62/62 96/96/96 97/97/97
f 97/97/97 88/88/88 98/98/98
f 88/88/88 99/99/99 98/98/98
f 99/99/99 100/100/100 98/98/98
f 99/99/99 101/101/101 100/100/100
f 101/101/101 102/102/102 100/100/100
f 62/62/62 97/97/97 103/103/103
f 97/97/97 98/98/98 104/104/104
f 97/97/97 104/104/104 103/103/103
f 105/105/105 104/104/104 98/98/98
f 103/103/103 104/104/104 105/105/105
f 98/98/98 100/100/100 106/106/106
f 105/105/105 98/98/98 106/106/106
f 62/62/62 103/103/103 107/107/107
f 108/108/108 62/62/62 107/107/107
f 108/108/108 107/107/107 109/109/109
f 110/110/110 108/108/108 109/109/109
f 110/110/110 109/109/109 111/111/111
f 112/112/112 110/110/110 111/111/111
f 113/113/113 112/112/112 111/111/111
f 113/113/113 111/111/111 114/114/114
f 114/114/114 115/115/115 113/113/113
f 116/116/116 115/115/115 114/114/114
f 111/111/111 109/109/109 117/117/117
f 117/117/117 114/114/114 111/111/111
f 116/116/116 114/114/114 118/118/118
f 118/118/118 114/114/114 117/117/117
f 116/116/116 118/118/118 119/119/119
f 119/119/119 118/118/118 120/120/120
f 109/109/109 121/121/121 117/117/117
f 109/109/109 107/107/107 121/121/121
f 117/117/117 121/121/121 118/118/118
f 118/118/118 122/122/122 120/120/120
f 121/121/121 122/122/122 118/118/118
f 107/107/107 123/123/123 121/121/121
f 121/121/121 123/123/123 122/122/122
f 107/107/107 103/103/103 123/123/123
f 122/122/122 124/124/124 120/120/120
f 123/123/123 124/124/124 122/122/122
f 124/124/124 125/125/125 120/120/120
f 103/103/103 126/126/126 123/123/123
f 123/123/123 126/126/126 124/124/124
f 103/103/103 105/105/105 126/126/126
f 124/124/124 127/127/127 125/125/125
f 126/126/126 127/127/127 124/124/124
f 127/127/127 128/128/128 125/125/125
f 105/105/105 129/129/129 126/126/126
f 105/105/105 106/106/106 129/129/129
f 126/126/126 129/129/129 130/130/130
f 126/126/126 130/130/130 127/127/127
f 130/130/130 129/129/129 106/106/106
f 127/127/127 131/131/131 128/128/128
f 131/131/131 132/132/132 128/128/128
f 131/131/131 133/133/133 132/132/132
f 130/130/130 134/134/134 127/127/127
f 127/127/127 134/134/134 131/131/131
f 130/130/130 135/135/135 134/134/134
f 131/131/131 134/134/134 135/135/135
f 130/130/130 106/106/106 135/135/135
f 131/131/131 135/135/135 133/133/133
f 106/106/106 136/136/136 135/135/135
f 100/100/100 136/136/136 106/106/106
f 135/135/135 137/137/137 133/133/133
f 136/136/136 137/137/137 135/135/135
f 137/137/137 138/138/138 133/133/133
f 100/100/100 139/139/139 136/136/136
f 136/136/136 139/139/139 137/137/137
f 137/137/137 140/140/140 138/138/138
f 139/139/139 140/140/140 137/137/137
f 100/100/100 141/141/141 139/139/139
f 102/102/102 141/141/141 100/100/100
f 139/139/139 142/142/142 140/140/140
f 141/141/141 142/142/142 139/139/139
f 142/142/142 143/143/143 140/140/140
f 140/140/140 143/143/143 138/138/138
f 143/143/143 144/144/144 138/138/138
f 102/102/102 145/145/145 141/141/141
f 141/141/141 145/145/145 146/146/146
f 102/102/102 147/147/147 145/145/145
f 146/146/146 148/148/148 143/143/143
f 145/145/145 148/148/148 146/146/146
f 147/147/147 149/149/149 145/145/145
f 145/145/145 149/149/149 148/148/148
f 147/147/147 150/150/150 149/149/149
f 143/143/143 151/151/151 144/144/144
f 148/148/148 151/151/151 143/143/143
f 149/149/149 152/152/152 148/148/148
f 148/148/148 152/152/152 151/151/151
f 151/151/151 153/153/153 144/144/144
f 152/152/152 153/153/153 151/151/151
f 153/153/153 154/154/154 144/144/144
f 153/153/153 150/150/150 154/154/154
f 149/149/149 150/150/150 155/155/155
f 149/149/149 155/155/155 152/152/152
f 155/155/155 150/150/150 153/153/153
f 152/152/152 155/155/155 153/153/153
f 158/158/158 157/157/157 156/156/156
f 157/157/157 159/159/159 156/156/156
f 160/160/160 159/159/159 157/157/157
f 161/161/161 157/157/157 158/158/158
f 161/161/161 160/160/160 157/157/157
f 162/162/162 161/161/161 158/158/158
f 163/163/163 160/160/160 161/161/161
f 164/164/164 161/161/161 162/162/162
f 165/165/165 163/163/163 161/161/161
f 165/165/165 161/161/161 164/164/164
