g model_speed_pad_collider
v 0.9073184 0 -0.65920556
v 0.753014 0.27624542 -0.5470969
v 0.34656474 0 -1.0666169
v 0.28762573 0.27624542 -0.88522154
v -0.34656495 0 -1.0666168
v -0.2876259 0.27624542 -0.8852215
v -0.90731853 0 -0.6592053
v -0.7530142 0.27624542 -0.54709667
v -1.1065903 0.27624542 5.019727E-08
v -1.3333474 0 7.61173E-08
v -0.9073184 0 0.65920544
v -0.753014 0.27624542 0.54709685
v -0.3465647 0 1.0666168
v -0.28762573 0.27624542 0.88522136
v 0.34656483 0 1.0666167
v 0.2876258 0.27624542 0.8852213
v 0.9073184 0 0.6592054
v 0.753014 0.27624542 0.5470967
v 1.1065902 0.27624542 -5.281325E-09
v 1.3333471 0 9.270265E-09
v 0.9073184 0 -0.65920556
v 0.753014 0.27624542 -0.5470969
v 0.753014 0.27624542 -0.5470969
v -1.029237E-07 0.27624542 -4.0787626E-08
v 0.28762573 0.27624542 -0.88522154
v 1.1065902 0.27624542 -5.281325E-09
v -0.2876259 0.27624542 -0.8852215
v 0.753014 0.27624542 0.5470967
v -0.7530142 0.27624542 -0.54709667
v 0.2876258 0.27624542 0.8852213
v -1.1065903 0.27624542 5.019727E-08
v -0.28762573 0.27624542 0.88522136
v -0.753014 0.27624542 0.54709685
vt 0.375 0.3125
vt 0.375 0.68843985
vt 0.4 0.3125
vt 0.4 0.68843985
vt 0.425 0.3125
vt 0.425 0.68843985
vt 0.45000002 0.3125
vt 0.45000002 0.68843985
vt 0.47500002 0.68843985
vt 0.47500002 0.3125
vt 0.5 0.3125
vt 0.5 0.68843985
vt 0.525 0.3125
vt 0.525 0.68843985
vt 0.54999995 0.3125
vt 0.54999995 0.68843985
vt 0.5749999 0.3125
vt 0.5749999 0.68843985
vt 0.5999999 0.68843985
vt 0.5999999 0.3125
vt 0.6249999 0.3125
vt 0.6249999 0.68843985
vt 0.62640893 0.93559146
vt 0.5 0.8375
vt 0.54828393 0.9923526
vt 0.65625 0.84375
vt 0.4517161 0.9923526
vt 0.62640893 0.75190854
vt 0.37359107 0.93559146
vt 0.5482839 0.6951474
vt 0.34375 0.84375
vt 0.45171607 0.6951474
vt 0.37359107 0.75190854
vn 0.60408556 0.56536126 -0.561647
vn 0.2090613 0.9568704 -0.20172364
vn 0.23925397 0.56809884 -0.78741425
vn 0.092453316 0.94691217 -0.30791187
vn -0.26927024 0.5680988 -0.7776615
vn -0.106189825 0.94691217 -0.30344862
vn -0.60995036 0.5658485 -0.55477554
vn -0.20092376 0.96121645 -0.18892503
vn -0.3566101 0.9342533 0
vn -0.772944 0.63447434 1.4874104E-07
vn -0.60408545 0.5653612 0.561647
vn -0.20906125 0.9568704 0.2017237
vn -0.23925392 0.56809884 0.78741425
vn -0.0924533 0.94691217 0.30791193
vn 0.26927018 0.5680987 0.77766156
vn 0.10618978 0.94691217 0.3034486
vn 0.60995036 0.56584847 0.55477566
vn 0.2009237 0.96121645 0.18892504
vn 0.35660997 0.9342533 0
vn 0.7729442 0.634474 0
vn 0.60408556 0.56536126 -0.561647
vn 0.2090613 0.9568704 -0.20172364
vn 0.2090613 0.9568704 -0.20172364
vn -0 1 0
vn 0.092453316 0.94691217 -0.30791187
vn 0.35660997 0.9342533 0
vn -0.106189825 0.94691217 -0.30344862
vn 0.2009237 0.96121645 0.18892504
vn -0.20092376 0.96121645 -0.18892503
vn 0.10618978 0.94691217 0.3034486
vn -0.3566101 0.9342533 0
vn -0.0924533 0.94691217 0.30791193
vn -0.20906125 0.9568704 0.2017237
g model_speed_pad_collider_0
f 3/3/3 2/2/2 1/1/1
f 3/3/3 4/4/4 2/2/2
f 5/5/5 4/4/4 3/3/3
f 5/5/5 6/6/6 4/4/4
f 7/7/7 6/6/6 5/5/5
f 7/7/7 8/8/8 6/6/6
f 9/9/9 8/8/8 7/7/7
f 9/9/9 7/7/7 10/10/10
f 11/11/11 9/9/9 10/10/10
f 11/11/11 12/12/12 9/9/9
f 13/13/13 12/12/12 11/11/11
f 13/13/13 14/14/14 12/12/12
f 15/15/15 14/14/14 13/13/13
f 15/15/15 16/16/16 14/14/14
f 17/17/17 16/16/16 15/15/15
f 17/17/17 18/18/18 16/16/16
f 19/19/19 18/18/18 17/17/17
f 19/19/19 17/17/17 20/20/20
f 21/21/21 19/19/19 20/20/20
f 21/21/21 22/22/22 19/19/19
f 25/25/25 24/24/24 23/23/23
f 23/23/23 24/24/24 26/26/26
f 27/27/27 24/24/24 25/25/25
f 26/26/26 24/24/24 28/28/28
f 29/29/29 24/24/24 27/27/27
f 28/28/28 24/24/24 30/30/30
f 31/31/31 24/24/24 29/29/29
f 30/30/30 24/24/24 32/32/32
f 33/33/33 24/24/24 31/31/31
f 32/32/32 24/24/24 33/33/33
