g mtnBase02_COL
v -0 0 0
v 0.9392578 -2.2888183E-07 -5.837583
v 1.3110645 -2.2888183E-07 -5.615991
v 1.3110645 -2.2888183E-07 -5.615991
v 1.3110645 -7.2382812 -5.615991
v 1.9824413 -7.2382812 -5.929702
v 1.9824413 -2.2888183E-07 -5.929702
v 1.9824413 -2.2888183E-07 -5.929702
v 1.9824413 -7.2382812 -5.929702
v 3.4979053 -7.2382812 -5.3481836
v 3.4979053 -2.2888183E-07 -5.3481836
v 3.4979053 -2.2888183E-07 -5.3481836
v 3.4979053 -7.2382812 -5.3481836
v 4.4494777 -7.2382812 -4.4494777
v 4.4494777 -2.2888183E-07 -4.4494777
v 4.4494777 -2.2888183E-07 -4.4494777
v 4.4494777 -7.2382812 -4.4494777
v 5.1543455 -7.2382812 -3.92083
v 5.1543455 -2.2888183E-07 -3.92083
v 5.1543455 -2.2888183E-07 -3.92083
v 5.1543455 -7.2382812 -3.92083
v 5.6125097 -7.2382812 -2.141035
v 5.6125097 -2.2888183E-07 -2.141035
v 5.6125097 -2.2888183E-07 -2.141035
v 5.6125097 -7.2382812 -2.141035
v 6.352622 -7.2382812 -0.48458984
v 6.352622 -2.2888183E-07 -0.48458984
v 6.352622 -2.2888183E-07 -0.48458984
v 6.352622 -7.2382812 -0.48458984
v 6.2292724 -7.2382812 0.71367186
v 6.2292724 -2.2888183E-07 0.71367186
v 6.2292724 -2.2888183E-07 0.71367186
v 6.2292724 -7.2382812 0.71367186
v 5.78873 -7.2382812 1.3128124
v 5.78873 -2.2888183E-07 1.3128124
v 5.78873 -2.2888183E-07 1.3128124
v 5.78873 -7.2382812 1.3128124
v 5.859214 -7.2382812 2.1762793
v 5.859214 -2.2888183E-07 2.1762793
v 5.859214 -2.2888183E-07 2.1762793
v 5.859214 -7.2382812 2.1762793
v 5.524404 -7.2382812 2.4229882
v 5.524404 -2.2888183E-07 2.4229882
v 5.524404 -2.2888183E-07 2.4229882
v 5.524404 -7.2382812 2.4229882
v 5.242456 -7.2382812 3.2864451
v 5.242456 -2.2888183E-07 3.2864451
v 4.960508 -7.2382812 4.290879
v 4.960508 -2.2888183E-07 4.290879
v 4.960508 -2.2888183E-07 4.290879
v 4.960508 -7.2382812 4.290879
v 4.2556396 -7.2382812 4.872402
v 4.2556396 -2.2888183E-07 4.872402
v 4.2556396 -2.2888183E-07 4.872402
v 4.2556396 -7.2382812 4.872402
v 3.0926073 -7.2382812 5.1719728
v 3.0926073 -2.2888183E-07 5.1719728
v 3.0926073 -2.2888183E-07 5.1719728
v 3.0926073 -7.2382812 5.1719728
v 2.6520653 -7.2382812 5.771113
v 2.6520653 -2.2888183E-07 5.771113
v 2.6520653 -2.2888183E-07 5.771113
v 2.6520653 -7.2382812 5.771113
v 0.6960547 -7.2382812 5.9473243
v 0.6960547 -2.2888183E-07 5.9473243
v 0.6960547 -2.2888183E-07 5.9473243
v 0.6960547 -7.2382812 5.9473243
v 0.34362304 -7.2382812 6.317383
v 0.34362304 -2.2888183E-07 6.317383
v 0.34362304 -2.2888183E-07 6.317383
v 0.34362304 -7.2382812 6.317383
v -1.1013573 -7.2382812 6.2468944
v -1.1013573 -2.2888183E-07 6.2468944
v -1.1013573 -2.2888183E-07 6.2468944
v -1.1013573 -7.2382812 6.2468944
v -2.581577 -7.2382812 5.471543
v -2.581577 -2.2888183E-07 5.471543
v -2.581577 -2.2888183E-07 5.471543
v -2.581577 -7.2382812 5.471543
v -3.3216894 -7.2382812 5.5772653
v -3.3216894 -2.2888183E-07 5.5772653
v -3.3216894 -2.2888183E-07 5.5772653
v -3.3216894 -7.2382812 5.5772653
v -4.326128 -7.2382812 4.572832
v -4.326128 -2.2888183E-07 4.572832
v -4.326128 -2.2888183E-07 4.572832
v -4.326128 -7.2382812 4.572832
v -5.048618 -7.2382812 4.2556443
v -5.048618 -2.2888183E-07 4.2556443
v -5.048618 -2.2888183E-07 4.2556443
v -5.048618 -7.2382812 4.2556443
v -5.295322 -7.2382812 3.5155272
v -5.295322 -2.2888183E-07 3.5155272
v -5.295322 -2.2888183E-07 3.5155272
v -5.295322 -7.2382812 3.5155272
v -6.0530515 -7.2382812 2.563955
v -6.0530515 -2.2888183E-07 2.563955
v -6.0530515 -2.2888183E-07 2.563955
v -6.0530515 -7.2382812 2.563955
v -6.088296 -7.2382812 1.2423242
v -6.088296 -2.2888183E-07 1.2423242
v -6.088296 -2.2888183E-07 1.2423242
v -6.088296 -7.2382812 1.2423242
v -6.370244 -7.2382812 0.02642578
v -6.370244 -2.2888183E-07 0.02642578
v -6.370244 -2.2888183E-07 0.02642578
v -6.370244 -7.2382812 0.02642578
v -6.2116504 -7.2382812 -0.87227535
v -6.2116504 -2.2888183E-07 -0.87227535
v -6.2116504 -2.2888183E-07 -0.87227535
v -6.2116504 -7.2382812 -0.87227535
v -5.753486 -7.2382812 -1.4714062
v -5.753486 -2.2888183E-07 -1.4714062
v -5.753486 -2.2888183E-07 -1.4714062
v -5.753486 -7.2382812 -1.4714062
v -5.753486 -7.2382812 -2.0176854
v -5.753486 -2.2888183E-07 -2.0176854
v -5.753486 -2.2888183E-07 -2.0176854
v -5.753486 -7.2382812 -2.0176854
v -5.3129444 -7.2382812 -2.6520703
v -5.3129444 -2.2888183E-07 -2.6520703
v -5.3129444 -2.2888183E-07 -2.6520703
v -5.3129444 -7.2382812 -2.6520703
v -5.3481836 -7.2382812 -3.480283
v -5.3481836 -2.2888183E-07 -3.480283
v -5.3481836 -2.2888183E-07 -3.480283
v -5.3481836 -7.2382812 -3.480283
v -4.6433153 -7.2382812 -4.3085055
v -4.6433153 -2.2888183E-07 -4.3085055
v -4.6433153 -2.2888183E-07 -4.3085055
v -4.6433153 -7.2382812 -4.3085055
v -3.9736912 -7.2382812 -4.3085055
v -3.9736912 -2.2888183E-07 -4.3085055
v -3.9736912 -2.2888183E-07 -4.3085055
v -3.9736912 -7.2382812 -4.3085055
v -3.2512012 -7.2382812 -5.1719675
v -3.2512012 -2.2888183E-07 -5.1719675
v -3.2512012 -2.2888183E-07 -5.1719675
v -3.2512012 -7.2382812 -5.1719675
v -2.123413 -7.2382812 -5.841592
v -2.123413 -2.2888183E-07 -5.841592
v -2.123413 -2.2888183E-07 -5.841592
v -2.123413 -7.2382812 -5.841592
v -0.74892086 -7.2382812 -6.12354
v -0.74892086 -2.2888183E-07 -6.12354
v -0.74892086 -2.2888183E-07 -6.12354
v -0.74892086 -7.2382812 -6.12354
v -0.16936523 -7.2382812 -6.2984815
v -0.16936523 -2.2888183E-07 -6.2984815
v -0.16936523 -2.2888183E-07 -6.2984815
v -0.16936523 -7.2382812 -6.2984815
v 0.3198877 -7.2382812 -5.8633738
v 0.3198877 -2.2888183E-07 -5.8633738
v 0.3198877 -2.2888183E-07 -5.8633738
v 0.3198877 -7.2382812 -5.8633738
v 0.9392578 -7.2382812 -5.837583
v 0.9392578 -2.2888183E-07 -5.837583
v 0.9392578 -2.2888183E-07 -5.837583
v 0.9392578 -7.2382812 -5.837583
v 1.3110645 -7.2382812 -5.615991
v 1.3110645 -2.2888183E-07 -5.615991
v 0.3198877 -2.2888183E-07 -5.8633738
v 0.9392578 -2.2888183E-07 -5.837583
v -0 0 0
v -0.16936523 -2.2888183E-07 -6.2984815
v -0.74892086 -2.2888183E-07 -6.12354
v -2.123413 -2.2888183E-07 -5.841592
v -3.2512012 -2.2888183E-07 -5.1719675
v -3.9736912 -2.2888183E-07 -4.3085055
v -4.6433153 -2.2888183E-07 -4.3085055
v -5.3481836 -2.2888183E-07 -3.480283
v -5.3129444 -2.2888183E-07 -2.6520703
v -5.753486 -2.2888183E-07 -2.0176854
v -5.753486 -2.2888183E-07 -1.4714062
v -6.2116504 -2.2888183E-07 -0.87227535
v -6.370244 -2.2888183E-07 0.02642578
v -6.088296 -2.2888183E-07 1.2423242
v -6.0530515 -2.2888183E-07 2.563955
v -5.295322 -2.2888183E-07 3.5155272
v -5.048618 -2.2888183E-07 4.2556443
v -4.326128 -2.2888183E-07 4.572832
v -3.3216894 -2.2888183E-07 5.5772653
v -2.581577 -2.2888183E-07 5.471543
v -1.1013573 -2.2888183E-07 6.2468944
v 0.34362304 -2.2888183E-07 6.317383
v 0.6960547 -2.2888183E-07 5.9473243
v 2.6520653 -2.2888183E-07 5.771113
v 3.0926073 -2.2888183E-07 5.1719728
v 4.2556396 -2.2888183E-07 4.872402
v 4.960508 -2.2888183E-07 4.290879
v 5.242456 -2.2888183E-07 3.2864451
v 5.524404 -2.2888183E-07 2.4229882
v 5.859214 -2.2888183E-07 2.1762793
v 5.78873 -2.2888183E-07 1.3128124
v 6.2292724 -2.2888183E-07 0.71367186
v 6.352622 -2.2888183E-07 -0.48458984
v 5.6125097 -2.2888183E-07 -2.141035
v 5.1543455 -2.2888183E-07 -3.92083
v 4.4494777 -2.2888183E-07 -4.4494777
v 3.4979053 -2.2888183E-07 -5.3481836
v 1.9824413 -2.2888183E-07 -5.929702
v 1.3110645 -2.2888183E-07 -5.615991
vt 0.4980384 0.5120285
vt 0.5462575 0.024057137
vt 0.5462575 0.024057137
vt 0.5462575 0.024057137
vt 0.5462575 0.024057137
vt 0.62399375 0.024057137
vt 0.62399375 0.024057137
vt 0.62399375 0.024057137
vt 0.62399375 0.024057137
vt 0.74657047 0.061299223
vt 0.74657047 0.061299223
vt 0.74657047 0.061299223
vt 0.74657047 0.061299223
vt 0.826543 0.12668747
vt 0.826543 0.12668747
vt 0.826543 0.12668747
vt 0.826543 0.12668747
vt 0.88500977 0.16433343
vt 0.88500977 0.16433343
vt 0.88500977 0.16433343
vt 0.88500977 0.16433343
vt 0.93110305 0.3018625
vt 0.93110305 0.3018625
vt 0.93110305 0.3018625
vt 0.93110305 0.3018625
vt 0.9986971 0.42809263
vt 0.9986971 0.42809263
vt 0.9986971 0.42809263
vt 0.9986971 0.42809263
vt 0.99573654 0.5231184
vt 0.99573654 0.5231184
vt 0.99573654 0.5231184
vt 0.99573654 0.5231184
vt 0.96443087 0.57276577
vt 0.96443087 0.57276577
vt 0.96443087 0.57276577
vt 0.96443087 0.57276577
vt 0.9748433 0.6403426
vt 0.9748433 0.6403426
vt 0.9748433 0.6403426
vt 0.9748433 0.6403426
vt 0.94987595 0.6616497
vt 0.94987595 0.6616497
vt 0.94987595 0.6616497
vt 0.94987595 0.6616497
vt 0.9325441 0.7312118
vt 0.9325441 0.7312118
vt 0.9160063 0.8118719
vt 0.9160063 0.8118719
vt 0.9160063 0.8118719
vt 0.9160063 0.8118719
vt 0.863793 0.86162055
vt 0.863793 0.86162055
vt 0.863793 0.86162055
vt 0.863793 0.86162055
vt 0.7739237 0.89175475
vt 0.7739237 0.89175475
vt 0.7739237 0.89175475
vt 0.7739237 0.89175475
vt 0.742618 0.94140214
vt 0.742618 0.94140214
vt 0.742618 0.94140214
vt 0.742618 0.94140214
vt 0.5896286 0.9662923
vt 0.5896286 0.9662923
vt 0.5896286 0.9662923
vt 0.5896286 0.9662923
vt 0.5639688 0.9974091
vt 0.5639688 0.9974091
vt 0.5639688 0.9974091
vt 0.5639688 0.9974091
vt 0.4498193 0.99999994
vt 0.4498193 0.99999994
vt 0.4498193 0.99999994
vt 0.4498193 0.99999994
vt 0.3289252 0.94729996
vt 0.3289252 0.94729996
vt 0.3289252 0.94729996
vt 0.3289252 0.94729996
vt 0.27125728 0.9597921
vt 0.27125728 0.9597921
vt 0.27125728 0.9597921
vt 0.27125728 0.9597921
vt 0.18652746 0.88637847
vt 0.18652746 0.88637847
vt 0.18652746 0.88637847
vt 0.18652746 0.88637847
vt 0.12786451 0.86547804
vt 0.12786451 0.86547804
vt 0.12786451 0.86547804
vt 0.12786451 0.86547804
vt 0.104274355 0.80860424
vt 0.104274355 0.80860424
vt 0.104274355 0.80860424
vt 0.104274355 0.80860424
vt 0.039263867 0.7379623
vt 0.039263867 0.7379623
vt 0.039263867 0.7379623
vt 0.039263867 0.7379623
vt 0.029044736 0.63411915
vt 0.029044736 0.63411915
vt 0.029044736 0.63411915
vt 0.029044736 0.63411915
vt 0 0.5399888
vt 0 0.5399888
vt 0 0.5399888
vt 0 0.5399888
vt 0.0074225483 0.4683471
vt 0.0074225483 0.4683471
vt 0.0074225483 0.4683471
vt 0.0074225483 0.4683471
vt 0.040115476 0.41860083
vt 0.040115476 0.41860083
vt 0.040115476 0.41860083
vt 0.040115476 0.41860083
vt 0.03703835 0.37559673
vt 0.03703835 0.37559673
vt 0.03703835 0.37559673
vt 0.03703835 0.37559673
vt 0.0681455 0.32317525
vt 0.0681455 0.32317525
vt 0.0681455 0.32317525
vt 0.0681455 0.32317525
vt 0.060706083 0.2581744
vt 0.060706083 0.2581744
vt 0.060706083 0.2581744
vt 0.060706083 0.2581744
vt 0.11152974 0.18900415
vt 0.11152974 0.18900415
vt 0.11152974 0.18900415
vt 0.11152974 0.18900415
vt 0.1642442 0.1852322
vt 0.1642442 0.1852322
vt 0.1642442 0.1852322
vt 0.1642442 0.1852322
vt 0.21625662 0.1131886
vt 0.21625662 0.1131886
vt 0.21625662 0.1131886
vt 0.21625662 0.1131886
vt 0.30126697 0.054121386
vt 0.30126697 0.054121386
vt 0.30126697 0.054121386
vt 0.30126697 0.054121386
vt 0.4078822 0.024183303
vt 0.4078822 0.024183303
vt 0.4078822 0.024183303
vt 0.4078822 0.024183303
vt 0.45355874 0
vt 0.45355874 0
vt 0.45355874 0
vt 0.45355874 0
vt 0.5076653 0.035169642
vt 0.5076653 0.035169642
vt 0.5076653 0.035169642
vt 0.5076653 0.035169642
vt 0.5462575 0.024057137
vt 0.5462575 0.024057137
vt 0.5462575 0.024057137
vt 0.5462575 0.024057137
vt 0.5462575 0.024057137
vt 0.5462575 0.024057137
vt 0.5076653 0.035169642
vt 0.5462575 0.024057137
vt 0.4980384 0.5120285
vt 0.45355874 0
vt 0.4078822 0.024183303
vt 0.30126697 0.054121386
vt 0.21625662 0.1131886
vt 0.1642442 0.1852322
vt 0.11152974 0.18900415
vt 0.060706083 0.2581744
vt 0.0681455 0.32317525
vt 0.03703835 0.37559673
vt 0.040115476 0.41860083
vt 0.0074225483 0.4683471
vt 0 0.5399888
vt 0.029044736 0.63411915
vt 0.039263867 0.7379623
vt 0.104274355 0.80860424
vt 0.12786451 0.86547804
vt 0.18652746 0.88637847
vt 0.27125728 0.9597921
vt 0.3289252 0.94729996
vt 0.4498193 0.99999994
vt 0.5639688 0.9974091
vt 0.5896286 0.9662923
vt 0.742618 0.94140214
vt 0.7739237 0.89175475
vt 0.863793 0.86162055
vt 0.9160063 0.8118719
vt 0.9325441 0.7312118
vt 0.94987595 0.6616497
vt 0.9748433 0.6403426
vt 0.96443087 0.57276577
vt 0.99573654 0.5231184
vt 0.9986971 0.42809263
vt 0.93110305 0.3018625
vt 0.88500977 0.16433343
vt 0.826543 0.12668747
vt 0.74657047 0.061299223
vt 0.62399375 0.024057137
vt 0.5462575 0.024057137
vn -0 1 0
vn -0 1 0
vn -0 1 0
vn -0.42333388 0 -0.9059737
vn -0.42333388 0 -0.9059737
vn -0.42333388 0 -0.9059737
vn -0.42333388 0 -0.9059737
vn 0.35825366 0 -0.9336243
vn 0.35825366 0 -0.9336243
vn 0.35825366 0 -0.9336243
vn 0.35825366 0 -0.9336243
vn 0.6866239 0 -0.7270128
vn 0.6866239 0 -0.7270128
vn 0.6866239 0 -0.7270128
vn 0.6866239 0 -0.7270128
vn 0.59999746 0 -0.8000019
vn 0.59999746 0 -0.8000019
vn 0.59999746 0 -0.8000019
vn 0.59999746 0 -0.8000019
vn 0.96842694 0 -0.2492976
vn 0.96842694 0 -0.2492976
vn 0.96842694 0 -0.2492976
vn 0.96842694 0 -0.2492976
vn 0.9130088 0 -0.40793985
vn 0.9130088 0 -0.40793985
vn 0.9130088 0 -0.40793985
vn 0.9130088 0 -0.40793985
vn 0.99474335 0 0.1023994
vn 0.99474335 0 0.1023994
vn 0.99474335 0 0.1023994
vn 0.99474335 0 0.1023994
vn 0.80565286 0 0.5923881
vn 0.80565286 0 0.5923881
vn 0.80565286 0 0.5923881
vn 0.80565286 0 0.5923881
vn 0.99668497 0 -0.08135734
vn 0.99668497 0 -0.08135734
vn 0.99668497 0 -0.08135734
vn 0.99668497 0 -0.08135734
vn 0.59321046 0 0.80504745
vn 0.59321046 0 0.80504745
vn 0.59321046 0 0.80504745
vn 0.59321046 0 0.80504745
vn 0.9506038 0 0.31040686
vn 0.9506038 0 0.31040686
vn 0.9506038 0 0.31040686
vn 0.9506038 0 0.31040686
vn 0.9627882 0 0.27025723
vn 0.9627882 0 0.27025723
vn 0.636385 0 0.77137166
vn 0.636385 0 0.77137166
vn 0.636385 0 0.77137166
vn 0.636385 0 0.77137166
vn 0.24943812 0 0.9683907
vn 0.24943812 0 0.9683907
vn 0.24943812 0 0.9683907
vn 0.24943812 0 0.9683907
vn 0.80565286 0 0.5923881
vn 0.80565286 0 0.5923881
vn 0.80565286 0 0.5923881
vn 0.80565286 0 0.5923881
vn 0.089722544 0 0.9959668
vn 0.089722544 0 0.9959668
vn 0.089722544 0 0.9959668
vn 0.089722544 0 0.9959668
vn 0.72414446 0 0.6896484
vn 0.72414446 0 0.6896484
vn 0.72414446 0 0.6896484
vn 0.72414446 0 0.6896484
vn -0.048722204 0 0.9988123
vn -0.048722204 0 0.9988123
vn -0.048722204 0 0.9988123
vn -0.048722204 0 0.9988123
vn -0.4640086 0 0.88583064
vn -0.4640086 0 0.88583064
vn -0.4640086 0 0.88583064
vn -0.4640086 0 0.88583064
vn 0.14141124 0 0.98995095
vn 0.14141124 0 0.98995095
vn 0.14141124 0 0.98995095
vn 0.14141124 0 0.98995095
vn -0.7071039 0 0.70710963
vn -0.7071039 0 0.70710963
vn -0.7071039 0 0.70710963
vn -0.7071039 0 0.70710963
vn -0.40198767 0 0.9156452
vn -0.40198767 0 0.9156452
vn -0.40198767 0 0.9156452
vn -0.40198767 0 0.9156452
vn -0.94868344 0 0.3162273
vn -0.94868344 0 0.3162273
vn -0.94868344 0 0.3162273
vn -0.94868344 0 0.3162273
vn -0.7822818 0 0.6229247
vn -0.7822818 0 0.6229247
vn -0.7822818 0 0.6229247
vn -0.7822818 0 0.6229247
vn -0.99964464 0 0.026657645
vn -0.99964464 0 0.026657645
vn -0.99964464 0 0.026657645
vn -0.99964464 0 0.026657645
vn -0.97415245 0 0.22589144
vn -0.97415245 0 0.22589144
vn -0.97415245 0 0.22589144
vn -0.97415245 0 0.22589144
vn -0.9847837 0 -0.17378478
vn -0.9847837 0 -0.17378478
vn -0.9847837 0 -0.17378478
vn -0.9847837 0 -0.17378478
vn -0.794356 0 -0.60745245
vn -0.794356 0 -0.60745245
vn -0.794356 0 -0.60745245
vn -0.794356 0 -0.60745245
vn -1 0 0
vn -1 0 0
vn -1 0 0
vn -1 0 0
vn -0.8213715 0 -0.57039356
vn -0.8213715 0 -0.57039356
vn -0.8213715 0 -0.57039356
vn -0.8213715 0 -0.57039356
vn -0.99909604 0 0.042510003
vn -0.99909604 0 0.042510003
vn -0.99909604 0 0.042510003
vn -0.99909604 0 0.042510003
vn -0.76154 0 -0.64811796
vn -0.76154 0 -0.64811796
vn -0.76154 0 -0.64811796
vn -0.76154 0 -0.64811796
vn -0 0 -1
vn -0 0 -1
vn -0 0 -1
vn -0 0 -1
vn -0.7669371 0 -0.6417223
vn -0.7669371 0 -0.6417223
vn -0.7669371 0 -0.6417223
vn -0.7669371 0 -0.6417223
vn -0.5105404 0 -0.8598538
vn -0.5105404 0 -0.8598538
vn -0.5105404 0 -0.8598538
vn -0.5105404 0 -0.8598538
vn -0.20094293 0 -0.9796029
vn -0.20094293 0 -0.9796029
vn -0.20094293 0 -0.9796029
vn -0.20094293 0 -0.9796029
vn -0.2889709 0 -0.95733786
vn -0.2889709 0 -0.95733786
vn -0.2889709 0 -0.95733786
vn -0.2889709 0 -0.95733786
vn 0.6645445 0 -0.7472487
vn 0.6645445 0 -0.7472487
vn 0.6645445 0 -0.7472487
vn 0.6645445 0 -0.7472487
vn 0.04160853 0 -0.999134
vn 0.04160853 0 -0.999134
vn 0.04160853 0 -0.999134
vn 0.04160853 0 -0.999134
vn 0.5119601 0 -0.8590092
vn 0.5119601 0 -0.8590092
vn 0.5119601 0 -0.8590092
vn 0.5119601 0 -0.8590092
vn -0 1 0
vn -0 1 0
vn -0 1 0
vn -0 1 0
vn -0 1 0
vn -0 1 0
vn -0 1 0
vn -0 1 0
vn -0 1 0
vn -0 1 0
vn -0 1 0
vn -0 1 0
vn -0 1 0
vn -0 1 0
vn -0 1 0
vn -0 1 0
vn -0 1 0
vn -0 1 0
vn -0 1 0
vn -0 1 0
vn -0 1 0
vn -0 1 0
vn -0 1 0
vn -0 1 0
vn -0 1 0
vn -0 1 0
vn -0 1 0
vn -0 1 0
vn -0 1 0
vn -0 1 0
vn -0 1 0
vn -0 1 0
vn -0 1 0
vn -0 1 0
vn -0 1 0
vn -0 1 0
vn -0 1 0
vn -0 1 0
vn -0 1 0
vn -0 1 0
vn -0 1 0
g mtnBase02_COL_0
f 3/3/3 2/2/2 1/1/1
f 6/6/6 5/5/5 4/4/4
f 7/7/7 6/6/6 4/4/4
f 10/10/10 9/9/9 8/8/8
f 11/11/11 10/10/10 8/8/8
f 14/14/14 13/13/13 12/12/12
f 15/15/15 14/14/14 12/12/12
f 18/18/18 17/17/17 16/16/16
f 19/19/19 18/18/18 16/16/16
f 22/22/22 21/21/21 20/20/20
f 23/23/23 22/22/22 20/20/20
f 26/26/26 25/25/25 24/24/24
f 27/27/27 26/26/26 24/24/24
f 30/30/30 29/29/29 28/28/28
f 31/31/31 30/30/30 28/28/28
f 34/34/34 33/33/33 32/32/32
f 35/35/35 34/34/34 32/32/32
f 38/38/38 37/37/37 36/36/36
f 39/39/39 38/38/38 36/36/36
f 42/42/42 41/41/41 40/40/40
f 43/43/43 42/42/42 40/40/40
f 46/46/46 45/45/45 44/44/44
f 47/47/47 46/46/46 44/44/44
f 48/48/48 46/46/46 47/47/47
f 49/49/49 48/48/48 47/47/47
f 52/52/52 51/51/51 50/50/50
f 53/53/53 52/52/52 50/50/50
f 56/56/56 55/55/55 54/54/54
f 57/57/57 56/56/56 54/54/54
f 60/60/60 59/59/59 58/58/58
f 61/61/61 60/60/60 58/58/58
f 64/64/64 63/63/63 62/62/62
f 65/65/65 64/64/64 62/62/62
f 68/68/68 67/67/67 66/66/66
f 69/69/69 68/68/68 66/66/66
f 72/72/72 71/71/71 70/70/70
f 73/73/73 72/72/72 70/70/70
f 76/76/76 75/75/75 74/74/74
f 77/77/77 76/76/76 74/74/74
f 80/80/80 79/79/79 78/78/78
f 81/81/81 80/80/80 78/78/78
f 84/84/84 83/83/83 82/82/82
f 85/85/85 84/84/84 82/82/82
f 88/88/88 87/87/87 86/86/86
f 89/89/89 88/88/88 86/86/86
f 92/92/92 91/91/91 90/90/90
f 93/93/93 92/92/92 90/90/90
f 96/96/96 95/95/95 94/94/94
f 97/97/97 96/96/96 94/94/94
f 100/100/100 99/99/99 98/98/98
f 101/101/101 100/100/100 98/98/98
f 104/104/104 103/103/103 102/102/102
f 105/105/105 104/104/104 102/102/102
f 108/108/108 107/107/107 106/106/106
f 109/109/109 108/108/108 106/106/106
f 112/112/112 111/111/111 110/110/110
f 113/113/113 112/112/112 110/110/110
f 116/116/116 115/115/115 114/114/114
f 117/117/117 116/116/116 114/114/114
f 120/120/120 119/119/119 118/118/118
f 121/121/121 120/120/120 118/118/118
f 124/124/124 123/123/123 122/122/122
f 125/125/125 124/124/124 122/122/122
f 128/128/128 127/127/127 126/126/126
f 129/129/129 128/128/128 126/126/126
f 132/132/132 131/131/131 130/130/130
f 133/133/133 132/132/132 130/130/130
f 136/136/136 135/135/135 134/134/134
f 137/137/137 136/136/136 134/134/134
f 140/140/140 139/139/139 138/138/138
f 141/141/141 140/140/140 138/138/138
f 144/144/144 143/143/143 142/142/142
f 145/145/145 144/144/144 142/142/142
f 148/148/148 147/147/147 146/146/146
f 149/149/149 148/148/148 146/146/146
f 152/152/152 151/151/151 150/150/150
f 153/153/153 152/152/152 150/150/150
f 156/156/156 155/155/155 154/154/154
f 157/157/157 156/156/156 154/154/154
f 160/160/160 159/159/159 158/158/158
f 161/161/161 160/160/160 158/158/158
f 164/164/164 163/163/163 162/162/162
f 164/164/164 162/162/162 165/165/165
f 164/164/164 165/165/165 166/166/166
f 164/164/164 166/166/166 167/167/167
f 164/164/164 167/167/167 168/168/168
f 164/164/164 168/168/168 169/169/169
f 164/164/164 169/169/169 170/170/170
f 164/164/164 170/170/170 171/171/171
f 164/164/164 171/171/171 172/172/172
f 164/164/164 172/172/172 173/173/173
f 164/164/164 173/173/173 174/174/174
f 164/164/164 174/174/174 175/175/175
f 164/164/164 175/175/175 176/176/176
f 164/164/164 176/176/176 177/177/177
f 164/164/164 177/177/177 178/178/178
f 164/164/164 178/178/178 179/179/179
f 164/164/164 179/179/179 180/180/180
f 164/164/164 180/180/180 181/181/181
f 164/164/164 181/181/181 182/182/182
f 164/164/164 182/182/182 183/183/183
f 164/164/164 183/183/183 184/184/184
f 164/164/164 184/184/184 185/185/185
f 164/164/164 185/185/185 186/186/186
f 164/164/164 186/186/186 187/187/187
f 164/164/164 187/187/187 188/188/188
f 164/164/164 188/188/188 189/189/189
f 164/164/164 189/189/189 190/190/190
f 164/164/164 190/190/190 191/191/191
f 164/164/164 191/191/191 192/192/192
f 164/164/164 192/192/192 193/193/193
f 164/164/164 193/193/193 194/194/194
f 164/164/164 194/194/194 195/195/195
f 164/164/164 195/195/195 196/196/196
f 164/164/164 196/196/196 197/197/197
f 164/164/164 197/197/197 198/198/198
f 164/164/164 198/198/198 199/199/199
f 164/164/164 199/199/199 200/200/200
f 164/164/164 200/200/200 201/201/201
f 202/202/202 164/164/164 201/201/201
