g mushroomBase01
v -2.853975 0.5574511 -0.7572488
v -2.732856 3.814697E-07 0.020077195
v -2.6938307 -1.7166137E-07 -0.61531854
v -2.7144628 0.74229246 0.40717494
v -2.4036145 0 1.1668766
v -2.634658 1.2664634 0.327514
v -2.72743 1.3548311 -0.49153468
v -2.7483704 0.83492213 -0.9775273
v -2.5860438 2.14616 -1.6368932
v -2.2165375 1.2046959 1.3714797
v -1.7538842 1.7685874 2.1695266
v -2.2954135 0.6716176 1.1328992
v -1.7745781 1.0037107 1.6661162
v -1.4674821 1.0936388 2.0594466
v -1.039623 0.8854825 2.247861
v -0.8785233 1.4230179 2.3211887
v -0.12542534 1.3826642 2.5722463
v -0.0596056 0.9959725 2.3948286
v 0.82333875 0.9194797 2.206187
v 0.8613633 2.1895213 2.7192361
v -1.9716891 0.7485164 1.9065025
v -2.1549287 5.7220458E-08 1.7609277
v -1.7745781 1.0037107 1.6661162
v -1.9875801 9.5367426E-08 2.4539025
v -1.4674821 1.0936388 2.0594466
v -1.5071936 3.4332274E-07 2.715223
v -1.039623 0.8854825 2.247861
v -0.7131504 -1.9073486E-08 2.4114172
v -0.750927 2.3501706 2.688732
v -0.8785233 1.4230179 2.3211887
v -1.7538842 1.7685874 2.1695266
v -1.676874 2.753086 2.4230957
v -0.89735985 2.8939822 2.6726315
v 0.81346893 2.845505 2.6417077
v -2.2996244 2.2394135 1.8698981
v -2.634658 1.2664634 0.327514
v -2.7755606 2.1251793 0.6721783
v -2.463336 2.7292101 1.6483684
v -2.7058444 3.5907707 0.7959054
v -2.9147396 2.0541687 -0.2520984
v -2.72743 1.3548311 -0.49153468
v -1.8162842 4.2837524 1.4363548
v -1.1097412 3.579346 2.2915032
v -2.9765892 2.9976006 0.09518097
v -2.7940648 2.6496468 -1.3162837
v -0.16931152 3.8446047 2.3283074
v -2.805831 3.8184698 -0.5444132
v -0.9861145 5.1644897 1.405303
v -0.29347992 5.426117 1.4628515
v -1.7077332 4.9656982 0.9499198
v -1.8374252 5.5049133 -0.16512388
v -2.5326233 4.3200073 0.12304617
v -0.86235 5.7031364 1.0241613
v 0.35601807 4.5686035 1.942321
v -1.2744064 5.742676 0.49958706
v -0.8841629 6.0750237 -0.070267715
v -0.3291607 5.835365 0.9806814
v 0.21366882 5.5174713 1.3580542
v -2.383377 4.7206116 -0.63887864
v 1.0595093 4.946335 1.4667655
v 0.7677078 5.874077 0.31909847
v -0.17321968 6.139908 -0.14559273
v 1.0882568 5.4229126 0.88024807
v -2.267067 4.4122005 -1.4439247
v -1.8649902 5.3760986 -0.8024682
v -2.578003 3.461166 -1.5650698
v -2.2387495 2.4437575 -2.1898508
v -2.0194573 3.313911 -2.2679753
v -1.5340729 4.9736934 -1.7226455
v -1.3561707 5.698807 -1.0241402
v -1.0054779 5.937683 -0.8682718
v -0.9233364 5.586792 -1.4943246
v -0.2597847 6.094326 -0.7652292
v -0.26898575 5.6168747 -1.5878228
v -0.46577454 5.0818477 -1.992173
v -1.2129974 3.4866328 -2.5941472
v -0.43533707 2.7764733 -3.0281796
v -1.2677735 2.5591626 -2.840694
v 0.08905029 6.124218 -0.5122442
v 0.45394897 5.6839905 -1.2877206
v 0.84840393 5.212433 -1.5716485
v 0.2884903 4.5296016 -2.1882331
v 0.89219666 5.7529755 -0.5664835
v 1.2091064 5.607727 0.23029998
v 1.5743103 5.17395 -0.39490592
v 1.6564789 5.020035 0.6730186
v 1.8348389 4.5220947 0.9784691
v 1.8526382 4.8805084 -0.042210422
v 1.8257141 4.674988 -0.6863411
v 1.5390625 3.530823 1.9292444
v 1.9902653 3.0743792 1.7964072
v 2.4223328 3.6924438 0.01573884
v 1.3570278 2.300795 2.4446738
v 2.277775 3.03064 1.4570155
v 1.9871372 2.2263415 1.8851193
v 1.758858 1.5602725 2.008227
v 2.300972 3.6273499 0.8488
v 2.8236446 2.5558853 -0.36496204
v 2.3335226 1.8561288 1.3109125
v 2.5979767 3.0099487 -0.91176647
v 1.3890334 1.1814255 2.1641572
v 1.8569249 1.1397072 1.7876408
v 2.394777 1.2589037 1.4161701
v 2.769099 2.0826397 -0.04823814
v 2.615802 1.1911564 0.52739984
v 2.8497772 1.4884919 0.13557124
v 2.8859289 1.7113076 -0.53136045
v 2.9575212 1.3654766 -0.23647283
v 2.7364328 1.0764848 -0.66126305
v 2.68855 2.1242673 -1.4349611
v 2.596959 1.3058757 -1.3385688
v 2.152173 0.9818884 -1.944255
v 2.659373 1.0181981 0.9737242
v 2.615802 1.1911564 0.52739984
v 2.8143444 0.43784758 0.7036259
v 2.7404954 0.79244065 1.5690106
v 1.8569249 1.1397072 1.7876408
v 2.3501549 2.6519923 -1.7638173
v 2.0887117 1.9796911 -2.1163719
v 1.9634688 1.3466911 -2.3486223
v 1.6830947 1.0151639 -2.5513153
v 2.0222971 1.6913093 -2.1217558
v 2.0222971 1.6913093 -2.1217558
v 1.5119133 1.3501775 -2.5437436
v 2.744163 1.14440915E-07 1.4855086
v 2.7560441 5.7220458E-08 0.61883503
v 2.7582695 0.452906 1.7234852
v 2.0126586 1.25885E-06 1.9987817
v 1.7901912 0.7543796 2.0969183
v 0.9558437 8.010864E-07 2.246615
v 0.07838816 3.6239624E-07 2.438288
v -0.0596056 0.9959725 2.3948286
v -0.7131504 -1.9073486E-08 2.4114172
v -1.039623 0.8854825 2.247861
v 2.179387 0.92146933 -2.4883254
v 2.152173 0.9818884 -1.944255
v 2.6057591 0.5736566 -2.3658004
v 2.5190136 1.9073486E-08 -1.3972707
v 2.614708 2.479553E-07 -2.2720785
v 2.0191205 -7.6293944E-08 -2.8425348
v 1.3612466 -2.670288E-07 -2.935263
v 0.9414181 0.92286825 -2.888584
v 0.20959118 0.27433717 -2.9850304
v -0.6032745 -3.6239624E-07 -2.9011796
v 0.93851066 1.6787652 -3.0787008
v 1.2304106 2.2955317 -2.7854347
v 0.48942024 1.0611337 -3.0717022
v -0.0615201 0.74120855 -2.980459
v -0.26121426 1.0979303 -3.0797317
v 0.52295685 2.1920085 -3.1487513
v -0.29122815 0.5051531 -3.0572062
v -0.6253501 0.21435228 -3.1436853
v -1.7557276 0.22280516 -2.8299048
v -2.2084608 -1.2493133E-06 -2.6138175
v -1.5788629 1.0097013 -2.6210942
v -2.3842773 0.7592923 -2.0760758
v -2.7689767 -9.536743E-07 -2.3022437
v -1.9367149 1.2323494 -2.1637247
v -2.4951236 1.0463607 -1.4586111
v -3.0763125 0.48943296 -1.8171345
v -2.9935505 -1.0967254E-06 -1.6562208
v -2.7483704 0.83492213 -0.9775273
v -3.1097207 0.4101808 -1.3312026
v -2.6938307 -1.7166137E-07 -0.61531854
v -2.853975 0.5574511 -0.7572488
v -0.9984813 1.205936 -2.7956364
v -1.6410497 1.4906172 -2.639929
v -1.9367149 1.2323494 -2.1637247
v -2.2431211 2.036099 -2.2907233
v -1.6197745 1.9085473 -2.6014993
v -2.654925 1.5027235 -1.3886759
v -2.4951236 1.0463607 -1.4586111
v -0.7352781 1.4795413 -2.982934
v -0.034778792 1.9645829 -3.1851997
v 0.6606827 2.6201165 -2.9985354
v 1.1466064 4.6212153 -1.7518318
v 1.7067566 4.24237 -1.3567817
v 2.7364328 1.0764848 -0.66126305
v 2.152173 0.9818884 -1.944255
v 2.5190136 1.9073486E-08 -1.3972707
v 2.7918773 1.7166137E-07 -1.0007623
v 2.8883476 0.49697548 -0.5468105
v 3.137643 1.7166137E-07 -0.03428097
v 3.3720315 0.7735123 0.03973957
v 2.9575212 1.3654766 -0.23647283
v 3.283781 0.42370802 0.39399254
v 2.7560441 5.7220458E-08 0.61883503
v 2.8143444 0.43784758 0.7036259
v 3.1283617 1.0956593 0.31427032
v 2.8497772 1.4884919 0.13557124
v 2.615802 1.1911564 0.52739984
vt 0 0
vt 0 0
vt 0 0
vt 0 0
vt 0 0
vt 0 0
vt 0 0
vt 0 0
vt 0 0
vt 0 0
vt 0 0
vt 0 0
vt 0 0
vt 0 0
vt 0 0
vt 0 0
vt 0 0
vt 0 0
vt 0 0
vt 0 0
vt 0 0
vt 0 0
vt 0 0
vt 0 0
vt 0 0
vt 0 0
vt 0 0
vt 0 0
vt 0 0
vt 0 0
vt 0 0
vt 0 0
vt 0 0
vt 0 0
vt 0 0
vt 0 0
vt 0 0
vt 0 0
vt 0 0
vt 0 0
vt 0 0
vt 0 0
vt 0 0
vt 0 0
vt 0 0
vt 0 0
vt 0 0
vt 0 0
vt 0 0
vt 0 0
vt 0 0
vt 0 0
vt 0 0
vt 0 0
vt 0 0
vt 0 0
vt 0 0
vt 0 0
vt 0 0
vt 0 0
vt 0 0
vt 0 0
vt 0 0
vt 0 0
vt 0 0
vt 0 0
vt 0 0
vt 0 0
vt 0 0
vt 0 0
vt 0 0
vt 0 0
vt 0 0
vt 0 0
vt 0 0
vt 0 0
vt 0 0
vt 0 0
vt 0 0
vt 0 0
vt 0 0
vt 0 0
vt 0 0
vt 0 0
vt 0 0
vt 0 0
vt 0 0
vt 0 0
vt 0 0
vt 0 0
vt 0 0
vt 0 0
vt 0 0
vt 0 0
vt 0 0
vt 0 0
vt 0 0
vt 0 0
vt 0 0
vt 0 0
vt 0 0
vt 0 0
vt 0 0
vt 0 0
vt 0 0
vt 0 0
vt 0 0
vt 0 0
vt 0 0
vt 0 0
vt 0 0
vt 0 0
vt 0 0
vt 0 0
vt 0 0
vt 0 0
vt 0 0
vt 0 0
vt 0 0
vt 0 0
vt 0 0
vt 0 0
vt 0 0
vt 0 0
vt 0 0
vt 0 0
vt 0 0
vt 0 0
vt 0 0
vt 0 0
vt 0 0
vt 0 0
vt 0 0
vt 0 0
vt 0 0
vt 0 0
vt 0 0
vt 0 0
vt 0 0
vt 0 0
vt 0 0
vt 0 0
vt 0 0
vt 0 0
vt 0 0
vt 0 0
vt 0 0
vt 0 0
vt 0 0
vt 0 0
vt 0 0
vt 0 0
vt 0 0
vt 0 0
vt 0 0
vt 0 0
vt 0 0
vt 0 0
vt 0 0
vt 0 0
vt 0 0
vt 0 0
vt 0 0
vt 0 0
vt 0 0
vt 0 0
vt 0 0
vt 0 0
vt 0 0
vt 0 0
vt 0 0
vt 0 0
vt 0 0
vt 0 0
vt 0 0
vt 0 0
vt 0 0
vt 0 0
vt 0 0
vt 0 0
vt 0 0
vt 0 0
vt 0 0
vt 0 0
vt 0 0
vt 0 0
vt 0 0
vt 0 0
vt 0 0
vt 0 0
vt 0 0
vn -0.99824417 0.027665712 0.052375805
vn -0.98046345 -0.09937166 0.1697547
vn -0.9554055 -0.28940815 -0.058679637
vn -0.96474344 0.043719932 0.25953576
vn -0.92333925 0.06768378 0.37797293
vn -0.9566481 0.17174786 0.23521727
vn -0.9938658 0.10907893 0.0182374
vn -0.9856403 0.093923256 -0.14032713
vn -0.93009627 -0.08514926 -0.3573103
vn -0.8585676 0.013799137 0.5125148
vn -0.6375326 -0.244737 0.73051757
vn -0.87269217 0.08935384 0.48002517
vn -0.6274036 -0.40186226 0.6669869
vn -0.6005617 -0.37448734 0.70645934
vn -0.2617662 -0.1520119 0.9530849
vn -0.25570363 -0.05503126 0.96518767
vn -0.020303858 -0.27401248 0.96151185
vn 0.0388847 -0.41122165 0.9107056
vn 0.17560282 -0.15511279 0.97216445
vn 0.16451268 -0.12367919 0.97859037
vn -0.7687214 0.44369462 0.4606543
vn -0.9341592 0.16739146 0.3151612
vn -0.6414456 0.7267945 0.24559571
vn -0.64722323 0.42267254 0.6343895
vn -0.3686585 0.54462314 0.75331026
vn -0.08232475 0.43832526 0.8950383
vn 0.06882491 0.43700495 0.89682204
vn 0.3418701 0.29108793 0.8935282
vn -0.16610058 -0.1417889 0.97586197
vn -0.29751548 -0.31616965 0.90084475
vn -0.53909713 -0.35219306 0.76507133
vn -0.5390622 0.1819586 0.82237643
vn -0.117820345 0.23846309 0.963978
vn 0.2286796 0.28644294 0.93040645
vn -0.7664914 -0.30476657 0.565339
vn -0.9035438 -0.3232587 0.2812693
vn -0.942142 -0.15346028 0.29802433
vn -0.81809044 0.19661887 0.5404341
vn -0.86399126 0.31508598 0.3927339
vn -0.9892386 -0.1409355 -0.03929459
vn -0.9667008 -0.23425125 -0.10303372
vn -0.6062186 0.44737214 0.6575387
vn -0.3309034 0.45343825 0.82758486
vn -0.9943843 0.073174514 0.076454915
vn -0.95371616 -0.0028220597 -0.30069497
vn -0.027191753 0.41252682 0.91053945
vn -0.9575998 0.2641807 -0.114939295
vn -0.3850724 0.5156547 0.7653885
vn -0.1246477 0.55338055 0.823549
vn -0.71324116 0.5439172 0.44208738
vn -0.7255949 0.6636928 0.18172483
vn -0.85717773 0.46762264 0.21581319
vn -0.37291712 0.7651085 0.52492064
vn 0.19158259 0.46090725 0.8665221
vn -0.5598597 0.7537686 0.34407863
vn -0.30544582 0.948282 0.0863949
vn 0.030712562 0.91859365 0.39400822
vn 0.2285406 0.7302638 0.6438043
vn -0.86124897 0.49581707 -0.11142584
vn 0.45847285 0.5099997 0.7278069
vn 0.32158864 0.91743475 0.23429526
vn 0.050407115 0.9832718 0.17503035
vn 0.48109496 0.73524463 0.4774548
vn -0.7322766 0.43238494 -0.52613145
vn -0.6935428 0.6495041 -0.3116774
vn -0.8555204 0.22467057 -0.46648464
vn -0.6985361 0.079449065 -0.7111506
vn -0.5703682 0.26898846 -0.77609617
vn -0.43773726 0.50454867 -0.7441886
vn -0.5284119 0.75768054 -0.3830157
vn -0.32148385 0.9100962 -0.26148245
vn -0.2647991 0.7019734 -0.6611466
vn -0.022275161 0.93568563 -0.3521311
vn 0.076320745 0.719454 -0.690334
vn -0.08476088 0.47888052 -0.87377864
vn -0.26744002 0.38009053 -0.8854418
vn -0.06803763 0.3073277 -0.9491683
vn -0.38183603 0.08889873 -0.9199447
vn 0.2847687 0.94625956 -0.15329555
vn 0.33950967 0.79001325 -0.5105019
vn 0.47314778 0.597395 -0.6474954
vn 0.2078225 0.44162714 -0.87279737
vn 0.55038667 0.79578626 -0.2525842
vn 0.6444657 0.7610853 0.07357368
vn 0.7101577 0.65018016 -0.2700773
vn 0.7490292 0.58807784 0.3051553
vn 0.7761107 0.45545718 0.43613178
vn 0.86720014 0.49757594 0.01955182
vn 0.8086099 0.48767957 -0.32911822
vn 0.5145459 0.39562538 0.76073843
vn 0.65542924 0.28111082 0.7009915
vn 0.9196055 0.39264324 0.012537235
vn 0.5668988 0.053862073 0.82202464
vn 0.90301466 0.16740361 0.395652
vn 0.75399554 -0.031090116 0.6561435
vn 0.6384257 -0.13510792 0.75773245
vn 0.9153617 0.31381744 0.25225314
vn 0.9808941 0.18879813 0.04692758
vn 0.9167008 0.0341702 0.39811054
vn 0.8778098 0.3849844 -0.28502068
vn 0.3364329 -0.14877579 0.929881
vn 0.5881853 -0.2638193 0.76448506
vn 0.7221078 0.3348418 0.6053439
vn 0.95993096 0.057118684 0.27435383
vn 0.94106466 0.05379337 0.33392152
vn 0.8609582 0.26865634 0.43194288
vn 0.989007 0.007745612 -0.14766549
vn 0.98718274 0.09503635 -0.1282118
vn 0.9292651 -0.22475928 -0.29317153
vn 0.90482694 0.040602263 -0.42383924
vn 0.87952155 -0.24611497 -0.40727058
vn 0.8265399 -0.22326773 -0.5167042
vn 0.94066036 0.3336159 0.06211737
vn 0.94913673 0.31354007 0.028845085
vn 0.99845994 0.045529608 0.031700008
vn 0.8304664 0.35640708 0.42813507
vn 0.44056976 0.515252 0.7351284
vn 0.6779339 0.33502445 -0.6543426
vn 0.6812189 0.01965205 -0.7318159
vn 0.7240452 0.08128769 -0.68494594
vn 0.35335293 0.28536105 -0.8909045
vn 0.7829957 0.2432237 -0.5725032
vn 0.72768074 -0.15511087 -0.6681478
vn 0.57964355 0.019417262 -0.81463873
vn 0.91852945 -0.18652493 0.34858584
vn 0.9908125 -0.13455915 0.013582911
vn 0.61568063 -0.0053574922 0.78797764
vn 0.32030174 -0.08153795 0.9437999
vn 0.3118998 0.119429365 0.942579
vn 0.1928744 0.028636208 0.9808055
vn 0.10630772 0.05846502 0.99261296
vn 0.04257852 0.081753045 0.99574274
vn -0.100878716 0.0827088 0.99145496
vn -0.16060889 0.1217037 0.9794861
vn 0.38780344 0.5928175 -0.70581585
vn 0.718655 0.65422285 0.23564285
vn 0.89939004 0.36975548 -0.23319183
vn 0.88960004 0.3535932 0.28910822
vn 0.95791364 -0.03166892 -0.28530428
vn 0.2964997 0.2541922 -0.92058367
vn 0.17053275 0.17978151 -0.9688122
vn 0.29447144 0.018573225 -0.9554798
vn 0.0456157 -0.088379346 -0.99504185
vn -0.044220947 -0.66813564 -0.7427241
vn 0.44180146 -0.030126892 -0.89660686
vn 0.56482327 0.27635315 -0.7775627
vn 0.09999852 -0.20791772 -0.97302127
vn 0.12898031 -0.07457963 -0.9888387
vn -0.16717017 -0.074764654 -0.9830892
vn 0.1489835 0.12346041 -0.98110217
vn -0.14168839 0.1377896 -0.9802746
vn -0.13875258 -0.13701376 -0.98080325
vn -0.35318583 0.096240014 -0.93058985
vn -0.48379487 0.32118368 -0.8141151
vn -0.41692236 0.2234124 -0.8810576
vn -0.5653379 0.52815884 -0.6335939
vn -0.5622632 0.3601684 -0.7444051
vn -0.6392028 0.49583575 -0.58784914
vn -0.6299256 0.73189336 -0.25985742
vn -0.77450556 0.45085445 -0.44370177
vn -0.94039464 -0.33801305 -0.037484944
vn -0.7484843 0.6607236 0.056705896
vn -0.9803035 -0.00072015735 0.19749552
vn -0.89053184 -0.28723472 0.3527737
vn -0.91769344 0.06844102 0.39134973
vn -0.38074976 -0.03475922 -0.9240245
vn -0.5107835 -0.10395677 -0.85340095
vn -0.7389628 -0.324647 -0.5903713
vn -0.7314725 -0.1375015 -0.66786325
vn -0.45048362 -0.014679581 -0.89266396
vn -0.8379766 -0.20150828 -0.50713867
vn -0.78144556 -0.18218032 -0.5967857
vn -0.33691812 -0.06766075 -0.9390996
vn -0.1083541 0.013693762 -0.9940181
vn 0.29167268 0.37739778 -0.87891865
vn 0.5225905 0.41731316 -0.7434708
vn 0.7416452 0.45538193 -0.49253404
vn 0.85599107 0.13641135 -0.4986694
vn 0.9022364 0.10392946 -0.41853088
vn 0.88273716 0.1303562 -0.4514226
vn 0.8585762 0.18659534 -0.47752383
vn 0.87234944 0.058196917 -0.48540673
vn 0.93508214 -0.28574258 -0.20969638
vn 0.95550406 0.10431392 -0.27591798
vn 0.83124447 0.40625185 -0.37946302
vn 0.8330476 -0.19727698 0.51683015
vn 0.6449152 -0.4936559 0.58342797
vn 0.5174882 0.084466405 0.8515112
vn 0.6744588 0.4672391 0.5716581
vn 0.6659112 0.64375144 0.37702292
vn 0.4143789 0.40384197 0.815599
g mushroomBase01_0
f 3/3/3 2/2/2 1/1/1
f 2/2/2 4/4/4 1/1/1
f 2/2/2 5/5/5 4/4/4
f 6/6/6 1/1/1 4/4/4
f 7/7/7 1/1/1 6/6/6
f 7/7/7 8/8/8 1/1/1
f 7/7/7 9/9/9 8/8/8
f 10/10/10 6/6/6 4/4/4
f 6/6/6 10/10/10 11/11/11
f 4/4/4 5/5/5 12/12/12
f 12/12/12 10/10/10 4/4/4
f 12/12/12 13/13/13 10/10/10
f 10/10/10 13/13/13 14/14/14
f 11/11/11 10/10/10 14/14/14
f 11/11/11 14/14/14 15/15/15
f 11/11/11 15/15/15 16/16/16
f 16/16/16 15/15/15 17/17/17
f 17/17/17 15/15/15 18/18/18
f 18/18/18 19/19/19 17/17/17
f 19/19/19 20/20/20 17/17/17
f 21/21/21 12/12/12 5/5/5
f 21/21/21 5/5/5 22/22/22
f 23/23/23 12/12/12 21/21/21
f 22/22/22 24/24/24 21/21/21
f 23/23/23 21/21/21 25/25/25
f 21/21/21 24/24/24 25/25/25
f 25/25/25 24/24/24 26/26/26
f 26/26/26 27/27/27 25/25/25
f 28/28/28 27/27/27 26/26/26
f 17/17/17 20/20/20 29/29/29
f 17/17/17 29/29/29 30/30/30
f 30/30/30 29/29/29 31/31/31
f 31/31/31 29/29/29 32/32/32
f 33/33/33 29/29/29 20/20/20
f 29/29/29 33/33/33 32/32/32
f 33/33/33 20/20/20 34/34/34
f 32/32/32 35/35/35 31/31/31
f 36/36/36 31/31/31 35/35/35
f 36/36/36 35/35/35 37/37/37
f 38/38/38 35/35/35 32/32/32
f 37/37/37 35/35/35 38/38/38
f 39/39/39 37/37/37 38/38/38
f 40/40/40 36/36/36 37/37/37
f 41/41/41 36/36/36 40/40/40
f 38/38/38 32/32/32 42/42/42
f 38/38/38 42/42/42 39/39/39
f 43/43/43 32/32/32 33/33/33
f 43/43/43 42/42/42 32/32/32
f 40/40/40 37/37/37 44/44/44
f 44/44/44 37/37/37 39/39/39
f 45/45/45 41/41/41 40/40/40
f 45/45/45 40/40/40 44/44/44
f 9/9/9 41/41/41 45/45/45
f 33/33/33 46/46/46 43/43/43
f 33/33/33 34/34/34 46/46/46
f 44/44/44 39/39/39 47/47/47
f 45/45/45 44/44/44 47/47/47
f 48/48/48 42/42/42 43/43/43
f 43/43/43 46/46/46 49/49/49
f 48/48/48 43/43/43 49/49/49
f 48/48/48 50/50/50 42/42/42
f 42/42/42 50/50/50 39/39/39
f 51/51/51 39/39/39 50/50/50
f 39/39/39 51/51/51 52/52/52
f 52/52/52 47/47/47 39/39/39
f 50/50/50 48/48/48 53/53/53
f 49/49/49 53/53/53 48/48/48
f 34/34/34 54/54/54 46/46/46
f 46/46/46 54/54/54 49/49/49
f 50/50/50 55/55/55 51/51/51
f 55/55/55 50/50/50 53/53/53
f 53/53/53 56/56/56 55/55/55
f 55/55/55 56/56/56 51/51/51
f 53/53/53 49/49/49 57/57/57
f 57/57/57 56/56/56 53/53/53
f 49/49/49 54/54/54 58/58/58
f 49/49/49 58/58/58 57/57/57
f 59/59/59 47/47/47 52/52/52
f 52/52/52 51/51/51 59/59/59
f 60/60/60 54/54/54 34/34/34
f 58/58/58 54/54/54 60/60/60
f 61/61/61 57/57/57 58/58/58
f 62/62/62 56/56/56 57/57/57
f 62/62/62 57/57/57 61/61/61
f 60/60/60 63/63/63 58/58/58
f 63/63/63 61/61/61 58/58/58
f 59/59/59 64/64/64 47/47/47
f 65/65/65 59/59/59 51/51/51
f 59/59/59 65/65/65 64/64/64
f 64/64/64 66/66/66 47/47/47
f 45/45/45 47/47/47 66/66/66
f 67/67/67 45/45/45 66/66/66
f 45/45/45 67/67/67 9/9/9
f 66/66/66 64/64/64 68/68/68
f 68/68/68 67/67/67 66/66/66
f 64/64/64 65/65/65 69/69/69
f 68/68/68 64/64/64 69/69/69
f 70/70/70 65/65/65 51/51/51
f 69/69/69 65/65/65 70/70/70
f 71/71/71 70/70/70 51/51/51
f 51/51/51 56/56/56 71/71/71
f 69/69/69 70/70/70 72/72/72
f 71/71/71 72/72/72 70/70/70
f 73/73/73 71/71/71 56/56/56
f 73/73/73 56/56/56 62/62/62
f 72/72/72 71/71/71 74/74/74
f 71/71/71 73/73/73 74/74/74
f 72/72/72 75/75/75 69/69/69
f 74/74/74 75/75/75 72/72/72
f 69/69/69 76/76/76 68/68/68
f 76/76/76 69/69/69 75/75/75
f 76/76/76 75/75/75 77/77/77
f 68/68/68 76/76/76 78/78/78
f 77/77/77 78/78/78 76/76/76
f 67/67/67 68/68/68 78/78/78
f 62/62/62 79/79/79 73/73/73
f 62/62/62 61/61/61 79/79/79
f 73/73/73 79/79/79 80/80/80
f 74/74/74 73/73/73 80/80/80
f 81/81/81 74/74/74 80/80/80
f 75/75/75 74/74/74 82/82/82
f 82/82/82 77/77/77 75/75/75
f 81/81/81 82/82/82 74/74/74
f 80/80/80 79/79/79 83/83/83
f 83/83/83 79/79/79 61/61/61
f 83/83/83 81/81/81 80/80/80
f 83/83/83 61/61/61 84/84/84
f 61/61/61 63/63/63 84/84/84
f 81/81/81 83/83/83 85/85/85
f 83/83/83 84/84/84 85/85/85
f 63/63/63 86/86/86 84/84/84
f 60/60/60 86/86/86 63/63/63
f 86/86/86 60/60/60 87/87/87
f 88/88/88 84/84/84 86/86/86
f 88/88/88 85/85/85 84/84/84
f 86/86/86 87/87/87 88/88/88
f 89/89/89 85/85/85 88/88/88
f 85/85/85 89/89/89 81/81/81
f 90/90/90 87/87/87 60/60/60
f 90/90/90 60/60/60 34/34/34
f 91/91/91 90/90/90 34/34/34
f 87/87/87 90/90/90 91/91/91
f 88/88/88 92/92/92 89/89/89
f 87/87/87 92/92/92 88/88/88
f 91/91/91 34/34/34 93/93/93
f 20/20/20 93/93/93 34/34/34
f 91/91/91 94/94/94 87/87/87
f 95/95/95 91/91/91 93/93/93
f 95/95/95 94/94/94 91/91/91
f 93/93/93 20/20/20 96/96/96
f 95/95/95 93/93/93 96/96/96
f 92/92/92 87/87/87 97/97/97
f 97/97/97 87/87/87 94/94/94
f 92/92/92 97/97/97 98/98/98
f 98/98/98 97/97/97 94/94/94
f 94/94/94 95/95/95 99/99/99
f 99/99/99 95/95/95 96/96/96
f 100/100/100 89/89/89 92/92/92
f 98/98/98 100/100/100 92/92/92
f 101/101/101 96/96/96 20/20/20
f 20/20/20 19/19/19 101/101/101
f 101/101/101 102/102/102 96/96/96
f 103/103/103 96/96/96 102/102/102
f 103/103/103 99/99/99 96/96/96
f 98/98/98 94/94/94 104/104/104
f 94/94/94 99/99/99 104/104/104
f 105/105/105 104/104/104 99/99/99
f 105/105/105 106/106/106 104/104/104
f 107/107/107 104/104/104 106/106/106
f 107/107/107 98/98/98 104/104/104
f 106/106/106 108/108/108 107/107/107
f 108/108/108 109/109/109 107/107/107
f 98/98/98 110/110/110 100/100/100
f 110/110/110 98/98/98 107/107/107
f 111/111/111 107/107/107 109/109/109
f 110/110/110 107/107/107 111/111/111
f 112/112/112 111/111/111 109/109/109
f 99/99/99 103/103/103 113/113/113
f 114/114/114 99/99/99 113/113/113
f 114/114/114 113/113/113 115/115/115
f 116/116/116 113/113/113 103/103/103
f 116/116/116 115/115/115 113/113/113
f 116/116/116 103/103/103 117/117/117
f 118/118/118 100/100/100 110/110/110
f 89/89/89 100/100/100 118/118/118
f 119/119/119 110/110/110 111/111/111
f 118/118/118 110/110/110 119/119/119
f 111/111/111 112/112/112 120/120/120
f 121/121/121 120/120/120 112/112/112
f 122/122/122 111/111/111 120/120/120
f 119/119/119 111/111/111 123/123/123
f 120/120/120 124/124/124 122/122/122
f 123/123/123 124/124/124 119/119/119
f 121/121/121 124/124/124 120/120/120
f 116/116/116 125/125/125 115/115/115
f 115/115/115 125/125/125 126/126/126
f 116/116/116 127/127/127 125/125/125
f 127/127/127 128/128/128 125/125/125
f 127/127/127 116/116/116 129/129/129
f 128/128/128 127/127/127 129/129/129
f 129/129/129 116/116/116 117/117/117
f 129/129/129 117/117/117 101/101/101
f 129/129/129 130/130/130 128/128/128
f 101/101/101 130/130/130 129/129/129
f 19/19/19 130/130/130 101/101/101
f 131/131/131 130/130/130 19/19/19
f 19/19/19 132/132/132 131/131/131
f 133/133/133 131/131/131 132/132/132
f 133/133/133 132/132/132 134/134/134
f 121/121/121 136/136/136 135/135/135
f 135/135/135 136/136/136 137/137/137
f 137/137/137 136/136/136 138/138/138
f 137/137/137 138/138/138 139/139/139
f 137/137/137 139/139/139 140/140/140
f 140/140/140 135/135/135 137/137/137
f 141/141/141 135/135/135 140/140/140
f 135/135/135 141/141/141 121/121/121
f 121/121/121 141/141/141 142/142/142
f 121/121/121 142/142/142 124/124/124
f 143/143/143 142/142/142 141/141/141
f 144/144/144 143/143/143 141/141/141
f 124/124/124 142/142/142 145/145/145
f 145/145/145 146/146/146 124/124/124
f 124/124/124 146/146/146 119/119/119
f 118/118/118 119/119/119 146/146/146
f 145/145/145 142/142/142 147/147/147
f 143/143/143 148/148/148 142/142/142
f 147/147/147 142/142/142 148/148/148
f 148/148/148 149/149/149 147/147/147
f 150/150/150 145/145/145 147/147/147
f 145/145/145 150/150/150 146/146/146
f 147/147/147 149/149/149 150/150/150
f 151/151/151 148/148/148 143/143/143
f 151/151/151 149/149/149 148/148/148
f 152/152/152 143/143/143 144/144/144
f 151/151/151 143/143/143 152/152/152
f 144/144/144 153/153/153 152/152/152
f 152/152/152 153/153/153 151/151/151
f 153/153/153 144/144/144 154/154/154
f 151/151/151 153/153/153 155/155/155
f 151/151/151 155/155/155 149/149/149
f 156/156/156 153/153/153 154/154/154
f 155/155/155 153/153/153 156/156/156
f 156/156/156 154/154/154 157/157/157
f 155/155/155 156/156/156 158/158/158
f 158/158/158 156/156/156 159/159/159
f 156/156/156 157/157/157 160/160/160
f 156/156/156 160/160/160 159/159/159
f 157/157/157 161/161/161 160/160/160
f 160/160/160 162/162/162 159/159/159
f 160/160/160 161/161/161 163/163/163
f 160/160/160 163/163/163 162/162/162
f 164/164/164 163/163/163 161/161/161
f 165/165/165 162/162/162 163/163/163
f 165/165/165 163/163/163 164/164/164
f 166/166/166 149/149/149 155/155/155
f 167/167/167 166/166/166 155/155/155
f 167/167/167 155/155/155 168/168/168
f 167/167/167 168/168/168 169/169/169
f 167/167/167 170/170/170 166/166/166
f 170/170/170 167/167/167 169/169/169
f 168/168/168 171/171/171 169/169/169
f 172/172/172 171/171/171 168/168/168
f 171/171/171 172/172/172 8/8/8
f 9/9/9 171/171/171 8/8/8
f 169/169/169 171/171/171 9/9/9
f 9/9/9 67/67/67 169/169/169
f 169/169/169 67/67/67 170/170/170
f 67/67/67 78/78/78 170/170/170
f 78/78/78 166/166/166 170/170/170
f 166/166/166 78/78/78 173/173/173
f 149/149/149 166/166/166 173/173/173
f 77/77/77 173/173/173 78/78/78
f 174/174/174 149/149/149 173/173/173
f 173/173/173 77/77/77 174/174/174
f 149/149/149 174/174/174 150/150/150
f 77/77/77 150/150/150 174/174/174
f 77/77/77 175/175/175 150/150/150
f 150/150/150 175/175/175 146/146/146
f 175/175/175 77/77/77 82/82/82
f 175/175/175 176/176/176 146/146/146
f 176/176/176 175/175/175 82/82/82
f 118/118/118 146/146/146 176/176/176
f 81/81/81 176/176/176 82/82/82
f 118/118/118 176/176/176 177/177/177
f 177/177/177 176/176/176 81/81/81
f 118/118/118 177/177/177 89/89/89
f 177/177/177 81/81/81 89/89/89
f 180/180/180 179/179/179 178/178/178
f 180/180/180 178/178/178 181/181/181
f 182/182/182 181/181/181 178/178/178
f 181/181/181 182/182/182 183/183/183
f 182/182/182 178/178/178 184/184/184
f 184/184/184 183/183/183 182/182/182
f 184/184/184 178/178/178 185/185/185
f 183/183/183 184/184/184 186/186/186
f 183/183/183 186/186/186 187/187/187
f 186/186/186 188/188/188 187/187/187
f 189/189/189 184/184/184 185/185/185
f 189/189/189 186/186/186 184/184/184
f 186/186/186 189/189/189 188/188/188
f 185/185/185 190/190/190 189/189/189
f 188/188/188 189/189/189 191/191/191
f 189/189/189 190/190/190 191/191/191
