g mushroomCap02
v -0.71250343 -0.5091528 2.1856778
v 0.014361441 -1.1674206 1.2773298
v -0.60083026 -1.2686688 1.4551928
v -0.83953 -1.174155 0.94769895
v -2.2032306 -0.40692383 1.590264
v -1.3285666 -0.24445984 3.0665896
v 0.9027171 -1.0913587 0.003816988
v -0.38347915 -0.88439846 -0.011999754
v -0.878251 -1.0594467 -1.4754273
v -1.1428211 -1.2971313 0.7275798
v 0.3219094 -0.3537744 2.3049796
v -1.4625998 -1.0452963 -0.65296215
v -1.7394968 -0.29883665 -2.65453
v -2.8719318 -0.32358885 -0.98449934
v -0.56824684 -0.95362544 -2.1607482
v -1.9349185 -0.5570654 0.5900753
v 0.06834841 -0.66891176 -2.3784947
v -3.4361327 -0.39190185 -0.84593505
v -2.0575008 -0.35973448 3.5199094
v 0.2880812 -0.041613158 3.530139
v -3.696973 -0.30418518 1.3650442
v 0.18422645 -1.3604724 -1.8013874
v 0.78315336 -0.33295348 -3.070482
v 0.6097562 -1.2154754 -1.4771072
v 1.4330177 -0.79570067 -1.9626483
v 1.0986583 -1.4083093 -1.1933371
v 1.5088841 -1.2853638 -0.29028103
v 2.7267265 -0.34968323 -0.54572237
v 2.1005042 -0.32330626 -2.4337478
v 1.6925067 -0.72963315 0.5611175
v 2.5519166 -0.29564574 1.0145552
v 1.2529463 -1.0920184 0.829425
v 0.8489914 -0.9780319 1.403726
v 1.1226052 -0.344245 2.0629315
v 1.757738 -0.06303345 2.8715336
v 3.7144482 -0.40636718 -0.0131855365
v 3.124741 -0.42460814 2.212767
v 1.340166 -0.28696105 4.106143
v 3.7659566 -0.3080603 -0.86887586
v -0.0295676 -0.3106714 4.25122
v 3.9186354 -0.20135802 0.060618274
v 2.0471754 -0.23076354 3.813126
v 0.6696044 0.310025 4.059933
v 3.3182127 -0.21313599 2.38611
v 1.88593 0.7537524 2.6426458
v 2.9886475 0.6011749 1.000825
v 3.350029 0.46073914 -0.9024017
v -0.13080597 1.3204315 2.1610556
v 0.57650757 1.5198541 1.2678441
v 1.936467 1.2933831 -0.74569225
v -0.46509933 0.39452696 3.9798934
v -2.483448 0.8147491 1.6296034
v -1.436372 -0.039127808 4.0965033
v -0.5415247 -0.22538757 4.436132
v -2.6967402 -0.10388733 3.1561234
v 0.18638706 1.7076825 -0.18619066
v -1.5479687 1.5836444 0.6491665
v -1.7214211 1.2752087 -0.69686604
v -3.9225957 -0.26665282 -0.10580814
v -3.0174866 0.74855465 -1.0343922
v -3.448875 -0.27193603 -1.9441994
v 0.32873726 1.2987628 -2.2082987
v -1.8820267 1.0595154 -2.482745
v -2.6180887 0.66082764 -2.31252
v -2.4991784 -0.5060144 -3.0683446
v -2.8822308 -0.25249207 -3.1726098
v -2.3037457 0.97409725 -2.7223902
v -0.6880945 -0.41355407 -4.37849
v -2.0202572 -0.3213684 -3.9651954
v -0.87807083 0.42371154 -4.044572
v 0.53407824 -0.39796692 -4.388184
v 0.25964642 0.058146972 -4.4444394
v 1.2572165 0.97900146 -3.00451
v 1.5450363 -0.48259458 -4.2505655
v 2.2207658 0.6661285 -2.7776651
v 2.067124 0.119181514 -3.8663414
v 2.534095 -0.3910797 -3.4227884
v 2.652111 0.76077145 -2.2876034
v 3.2958155 0.02873657 -2.3715427
v 3.5545502 -0.29207215 -1.9064175
v 2.9633124 -0.30584288 -2.990653
vt 0 0
vt 0 0
vt 0 0
vt 0 0
vt 0 0
vt 0 0
vt 0 0
vt 0 0
vt 0 0
vt 0 0
vt 0 0
vt 0 0
vt 0 0
vt 0 0
vt 0 0
vt 0 0
vt 0 0
vt 0 0
vt 0 0
vt 0 0
vt 0 0
vt 0 0
vt 0 0
vt 0 0
vt 0 0
vt 0 0
vt 0 0
vt 0 0
vt 0 0
vt 0 0
vt 0 0
vt 0 0
vt 0 0
vt 0 0
vt 0 0
vt 0 0
vt 0 0
vt 0 0
vt 0 0
vt 0 0
vt 0 0
vt 0 0
vt 0 0
vt 0 0
vt 0 0
vt 0 0
vt 0 0
vt 0 0
vt 0 0
vt 0 0
vt 0 0
vt 0 0
vt 0 0
vt 0 0
vt 0 0
vt 0 0
vt 0 0
vt 0 0
vt 0 0
vt 0 0
vt 0 0
vt 0 0
vt 0 0
vt 0 0
vt 0 0
vt 0 0
vt 0 0
vt 0 0
vt 0 0
vt 0 0
vt 0 0
vt 0 0
vt 0 0
vt 0 0
vt 0 0
vt 0 0
vt 0 0
vt 0 0
vt 0 0
vt 0 0
vt 0 0
vn -0.084114514 -0.9047522 0.41755036
vn 0.11747422 -0.958275 0.2605931
vn -0.23244648 -0.8439451 0.48345152
vn -0.14085205 -0.96594465 0.2170522
vn -0.13989477 -0.9846467 0.10440505
vn 0.065411516 -0.99265045 0.10181501
vn -0.059902575 -0.99248964 0.10665778
vn -0.035808522 -0.9966472 -0.073567204
vn -0.24227643 -0.9615936 -0.1289958
vn -0.25025424 -0.9638227 0.09175257
vn 0.09553631 -0.91633743 0.3888425
vn -0.27894676 -0.9493796 -0.14445469
vn -0.07472461 -0.99580944 -0.0527228
vn -0.20309024 -0.97456455 -0.09475388
vn -0.06000575 -0.8700941 -0.48921925
vn -0.565486 -0.8139456 0.1331092
vn -0.18543863 -0.76923674 -0.61146337
vn -0.079071425 -0.99601233 -0.041317884
vn -0.121692 -0.9685301 0.21711875
vn 0.046598844 -0.9985424 -0.02722993
vn -0.8564183 -0.44643593 0.25931174
vn -0.04446005 -0.92492956 -0.37752962
vn 0.035192132 -0.98906696 -0.1432061
vn -0.04551992 -0.99872094 0.022004746
vn 0.41619453 -0.8358769 -0.35789928
vn 0.19628407 -0.96609795 -0.16771188
vn 0.4561961 -0.88829136 0.053136222
vn 0.2662742 -0.96277845 -0.046428446
vn 0.11676991 -0.99109167 -0.06404783
vn 0.50462997 -0.85638815 0.1093062
vn 0.054490637 -0.9951599 0.08177663
vn 0.31530094 -0.9308474 0.18468443
vn 0.26444405 -0.86097175 0.43450776
vn 0.2310718 -0.89249873 0.38736522
vn -0.13408837 -0.9900845 -0.041867368
vn 0.1345073 -0.99086833 0.009371725
vn 0.023644418 -0.9976955 0.06359638
vn -0.0072133373 -0.9658509 0.25899833
vn 0.59123164 -0.7918234 -0.15316904
vn 0.12293503 -0.96112525 0.24723527
vn 0.88110864 0.45788756 0.11826448
vn 0.5898472 0.37652674 0.7143583
vn 0.1632811 0.7794919 0.60475767
vn 0.7526228 0.5095523 0.41703165
vn 0.37022907 0.85646325 0.35972357
vn 0.5312108 0.8308207 0.16598815
vn 0.6309059 0.77481383 -0.040265042
vn -0.08242109 0.9290155 0.360745
vn 0.23076135 0.9565785 0.17806415
vn 0.33603624 0.9408986 -0.042302463
vn -0.17919 0.84655625 0.5012319
vn -0.4912936 0.8237235 0.28303757
vn -0.4154506 0.5891707 0.6930214
vn -0.088828884 0.03785592 0.99532723
vn -0.66335976 0.515325 0.54258084
vn 0.031047763 0.99739033 -0.0651812
vn -0.2860862 0.9514203 0.11381628
vn -0.27150092 0.9577728 -0.09465011
vn -0.873851 0.48260298 0.058980465
vn -0.60875696 0.7923558 -0.039839476
vn -0.8868702 -0.3177755 -0.33538055
vn 0.022075208 0.9627308 -0.2695588
vn -0.13045065 0.96340775 -0.23415382
vn -0.70804113 0.65520877 -0.2633992
vn -0.031166608 -0.99755186 0.06260081
vn -0.77942586 0.20936397 -0.59047616
vn -0.45887452 0.73374957 -0.50104463
vn -0.082429335 -0.9427669 -0.32310376
vn -0.5189235 0.0746481 -0.8515551
vn -0.1435531 0.7718156 -0.6194297
vn 0.0023587688 -0.9721709 -0.2342609
vn 0.07706767 0.6578431 -0.7492016
vn 0.14680037 0.8944495 -0.4223857
vn 0.14989236 -0.8566614 -0.493623
vn 0.3641363 0.8626242 -0.35111856
vn 0.4007935 0.6114312 -0.6822877
vn 0.20144291 -0.9678581 -0.15057017
vn 0.4746213 0.84109086 -0.259424
vn 0.765799 0.5282163 -0.36679605
vn 0.88676775 -0.41092867 -0.2116144
vn 0.80058545 0.010560135 -0.59912544
g mushroomCap02_0
f 3/3/3 2/2/2 1/1/1
f 3/3/3 1/1/1 4/4/4
f 2/2/2 3/3/3 4/4/4
f 5/5/5 4/4/4 1/1/1
f 6/6/6 5/5/5 1/1/1
f 2/2/2 4/4/4 7/7/7
f 7/7/7 4/4/4 8/8/8
f 7/7/7 8/8/8 9/9/9
f 4/4/4 10/10/10 8/8/8
f 10/10/10 4/4/4 5/5/5
f 6/6/6 1/1/1 11/11/11
f 1/1/1 2/2/2 11/11/11
f 9/9/9 8/8/8 12/12/12
f 8/8/8 10/10/10 12/12/12
f 12/12/12 13/13/13 9/9/9
f 12/12/12 14/14/14 13/13/13
f 12/12/12 10/10/10 14/14/14
f 9/9/9 13/13/13 15/15/15
f 5/5/5 16/16/16 10/10/10
f 14/14/14 10/10/10 16/16/16
f 5/5/5 14/14/14 16/16/16
f 15/15/15 13/13/13 17/17/17
f 17/17/17 9/9/9 15/15/15
f 14/14/14 18/18/18 13/13/13
f 18/18/18 14/14/14 5/5/5
f 19/19/19 5/5/5 6/6/6
f 6/6/6 11/11/11 20/20/20
f 20/20/20 19/19/19 6/6/6
f 5/5/5 21/21/21 18/18/18
f 19/19/19 21/21/21 5/5/5
f 17/17/17 22/22/22 9/9/9
f 17/17/17 13/13/13 23/23/23
f 22/22/22 17/17/17 23/23/23
f 9/9/9 22/22/22 24/24/24
f 7/7/7 9/9/9 24/24/24
f 24/24/24 22/22/22 25/25/25
f 25/25/25 22/22/22 23/23/23
f 24/24/24 26/26/26 7/7/7
f 26/26/26 24/24/24 25/25/25
f 27/27/27 7/7/7 26/26/26
f 25/25/25 27/27/27 26/26/26
f 25/25/25 28/28/28 27/27/27
f 23/23/23 29/29/29 25/25/25
f 28/28/28 25/25/25 29/29/29
f 30/30/30 7/7/7 27/27/27
f 30/30/30 27/27/27 28/28/28
f 31/31/31 30/30/30 28/28/28
f 30/30/30 32/32/32 7/7/7
f 31/31/31 32/32/32 30/30/30
f 7/7/7 32/32/32 33/33/33
f 33/33/33 32/32/32 31/31/31
f 2/2/2 7/7/7 33/33/33
f 34/34/34 2/2/2 33/33/33
f 34/34/34 33/33/33 31/31/31
f 11/11/11 2/2/2 34/34/34
f 34/34/34 35/35/35 11/11/11
f 34/34/34 31/31/31 35/35/35
f 20/20/20 11/11/11 35/35/35
f 28/28/28 36/36/36 31/31/31
f 31/31/31 37/37/37 35/35/35
f 36/36/36 37/37/37 31/31/31
f 20/20/20 35/35/35 38/38/38
f 38/38/38 35/35/35 37/37/37
f 39/39/39 36/36/36 28/28/28
f 28/28/28 29/29/29 39/39/39
f 38/38/38 40/40/40 20/20/20
f 19/19/19 20/20/20 40/40/40
f 37/37/37 36/36/36 41/41/41
f 39/39/39 41/41/41 36/36/36
f 38/38/38 37/37/37 42/42/42
f 43/43/43 40/40/40 38/38/38
f 42/42/42 43/43/43 38/38/38
f 44/44/44 42/42/42 37/37/37
f 44/44/44 37/37/37 41/41/41
f 45/45/45 42/42/42 44/44/44
f 43/43/43 42/42/42 45/45/45
f 41/41/41 46/46/46 44/44/44
f 45/45/45 44/44/44 46/46/46
f 41/41/41 39/39/39 47/47/47
f 41/41/41 47/47/47 46/46/46
f 43/43/43 45/45/45 48/48/48
f 46/46/46 49/49/49 45/45/45
f 45/45/45 49/49/49 48/48/48
f 49/49/49 46/46/46 50/50/50
f 46/46/46 47/47/47 50/50/50
f 51/51/51 40/40/40 43/43/43
f 43/43/43 48/48/48 51/51/51
f 48/48/48 52/52/52 51/51/51
f 52/52/52 53/53/53 51/51/51
f 51/51/51 54/54/54 40/40/40
f 51/51/51 53/53/53 54/54/54
f 54/54/54 53/53/53 40/40/40
f 19/19/19 40/40/40 53/53/53
f 53/53/53 55/55/55 19/19/19
f 52/52/52 55/55/55 53/53/53
f 55/55/55 21/21/21 19/19/19
f 21/21/21 55/55/55 52/52/52
f 48/48/48 49/49/49 56/56/56
f 49/49/49 50/50/50 56/56/56
f 57/57/57 52/52/52 48/48/48
f 56/56/56 57/57/57 48/48/48
f 56/56/56 58/58/58 57/57/57
f 52/52/52 57/57/57 58/58/58
f 59/59/59 21/21/21 52/52/52
f 21/21/21 59/59/59 18/18/18
f 52/52/52 60/60/60 59/59/59
f 52/52/52 58/58/58 60/60/60
f 61/61/61 18/18/18 59/59/59
f 60/60/60 61/61/61 59/59/59
f 18/18/18 61/61/61 13/13/13
f 58/58/58 56/56/56 62/62/62
f 56/56/56 50/50/50 62/62/62
f 63/63/63 60/60/60 58/58/58
f 58/58/58 62/62/62 63/63/63
f 61/61/61 60/60/60 64/64/64
f 63/63/63 64/64/64 60/60/60
f 65/65/65 13/13/13 61/61/61
f 61/61/61 64/64/64 66/66/66
f 66/66/66 65/65/65 61/61/61
f 63/63/63 67/67/67 64/64/64
f 67/67/67 66/66/66 64/64/64
f 65/65/65 68/68/68 13/13/13
f 13/13/13 68/68/68 23/23/23
f 69/69/69 65/65/65 66/66/66
f 69/69/69 66/66/66 67/67/67
f 68/68/68 65/65/65 69/69/69
f 63/63/63 70/70/70 67/67/67
f 69/69/69 67/67/67 70/70/70
f 62/62/62 70/70/70 63/63/63
f 68/68/68 69/69/69 70/70/70
f 23/23/23 68/68/68 71/71/71
f 71/71/71 29/29/29 23/23/23
f 68/68/68 70/70/70 72/72/72
f 71/71/71 68/68/68 72/72/72
f 62/62/62 73/73/73 70/70/70
f 72/72/72 70/70/70 73/73/73
f 71/71/71 74/74/74 29/29/29
f 71/71/71 72/72/72 74/74/74
f 75/75/75 73/73/73 62/62/62
f 50/50/50 75/75/75 62/62/62
f 73/73/73 76/76/76 72/72/72
f 72/72/72 76/76/76 74/74/74
f 75/75/75 76/76/76 73/73/73
f 29/29/29 74/74/74 77/77/77
f 74/74/74 76/76/76 77/77/77
f 39/39/39 29/29/29 77/77/77
f 78/78/78 75/75/75 50/50/50
f 50/50/50 47/47/47 78/78/78
f 75/75/75 78/78/78 79/79/79
f 76/76/76 75/75/75 79/79/79
f 47/47/47 79/79/79 78/78/78
f 80/80/80 47/47/47 39/39/39
f 80/80/80 39/39/39 77/77/77
f 80/80/80 79/79/79 47/47/47
f 81/81/81 76/76/76 79/79/79
f 76/76/76 81/81/81 77/77/77
f 81/81/81 80/80/80 77/77/77
f 79/79/79 80/80/80 81/81/81
