g ore_02_COL
v -1.3723305 2.4786987 0.3704989
v -1.0278974 3.0013628 0.24358958
v -0.033772215 3.0874028 0.6793469
v 0.13279553 2.4787366 1.0274917
v -1.0278974 3.0013628 0.24358958
v -0.65635914 3.0003119 -0.6355486
v 0.32108498 3.0863507 -0.30081618
v -0.033772215 3.0874028 0.6793469
v -0.65635914 3.0003119 -0.6355486
v -0.80990255 2.4785995 -0.95712996
v 0.6660032 2.4786444 -0.44914067
v 0.32108498 3.0863507 -0.30081618
v -0.64856356 1.8785198 -0.6189861
v -1.0101207 1.8774259 0.23696457
v -0.0444921 1.7742913 0.66090715
v 0.30152616 1.7754136 -0.29427266
v 0.13279553 2.4787366 1.0274917
v -0.033772215 3.0874028 0.6793469
v 0.32108498 3.0863507 -0.30081618
v 0.6660032 2.4786444 -0.44914067
v -0.80990255 2.4785995 -0.95712996
v -0.65635914 3.0003119 -0.6355486
v -1.0278974 3.0013628 0.24358958
v -1.3723305 2.4786987 0.3704989
v -1.0101207 1.8774259 0.23696457
v -1.3723305 2.4786987 0.3704989
v 0.13279553 2.4787366 1.0274917
v -0.0444921 1.7742913 0.66090715
v -0.0444921 1.7742913 0.66090715
v 0.13279553 2.4787366 1.0274917
v 0.6660032 2.4786444 -0.44914067
v 0.30152616 1.7754136 -0.29427266
v -0.80990255 2.4785995 -0.95712996
v -0.64856356 1.8785198 -0.6189861
v 0.30152616 1.7754136 -0.29427266
v 0.6660032 2.4786444 -0.44914067
v -0.64856356 1.8785198 -0.6189861
v -0.80990255 2.4785995 -0.95712996
v -1.3723305 2.4786987 0.3704989
v -1.0101207 1.8774259 0.23696457
v -0.88634616 1.0425533 0.79862183
v -0.509579 1.6363336 0.30523393
v 0.27712753 1.7136712 0.3052476
v 0.76243925 1.2016156 0.80031466
v -0.509579 1.6363336 0.30523393
v -0.501228 1.5515876 -0.480635
v 0.285437 1.6289208 -0.48064476
v 0.27712753 1.7136712 0.3052476
v -0.501228 1.5515876 -0.480635
v -0.86697626 0.8718956 -0.84446746
v 0.7764469 1.0303216 -0.8458498
v 0.285437 1.6289208 -0.48064476
v -0.56456554 -0.105633445 -0.5653671
v -0.5658135 -0.10234829 0.56923425
v 0.5715831 -0.096682504 0.57161224
v 0.57093585 -0.10032756 -0.5671004
v 0.76243925 1.2016156 0.80031466
v 0.27712753 1.7136712 0.3052476
v 0.285437 1.6289208 -0.48064476
v 0.7764469 1.0303216 -0.8458498
v -0.86697626 0.8718956 -0.84446746
v -0.501228 1.5515876 -0.480635
v -0.509579 1.6363336 0.30523393
v -0.88634616 1.0425533 0.79862183
v -0.5658135 -0.10234829 0.56923425
v -0.88634616 1.0425533 0.79862183
v 0.76243925 1.2016156 0.80031466
v 0.5715831 -0.096682504 0.57161224
v 0.5715831 -0.096682504 0.57161224
v 0.76243925 1.2016156 0.80031466
v 0.7764469 1.0303216 -0.8458498
v 0.57093585 -0.10032756 -0.5671004
v -0.86697626 0.8718956 -0.84446746
v -0.56456554 -0.105633445 -0.5653671
v 0.57093585 -0.10032756 -0.5671004
v 0.7764469 1.0303216 -0.8458498
v -0.56456554 -0.105633445 -0.5653671
v -0.86697626 0.8718956 -0.84446746
v -0.88634616 1.0425533 0.79862183
v -0.5658135 -0.10234829 0.56923425
v -0.523778 6.578721 0.67238915
v -0.35121316 7.055962 0.41183698
v 0.33723152 7.011798 0.12161659
v 0.481992 6.379525 0.24498126
v -0.35121316 7.055962 0.41183698
v -0.6166226 7.0517335 -0.18862537
v 0.014728613 7.01355 -0.52157843
v 0.33723152 7.011798 0.12161659
v -0.6166226 7.0517335 -0.18862537
v -0.9186014 6.5738864 -0.22495085
v 0.0030547567 6.384269 -0.7075725
v 0.014728613 7.01355 -0.52157843
v -0.7867583 5.9586954 -0.09935592
v -0.52819365 5.9604225 0.4864446
v 0.11103466 5.7240314 0.21989712
v -0.20398608 5.7283683 -0.40981886
v 0.481992 6.379525 0.24498126
v 0.33723152 7.011798 0.12161659
v 0.014728613 7.01355 -0.52157843
v 0.0030547567 6.384269 -0.7075725
v -0.9186014 6.5738864 -0.22495085
v -0.6166226 7.0517335 -0.18862537
v -0.35121316 7.055962 0.41183698
v -0.523778 6.578721 0.67238915
v -0.52819365 5.9604225 0.4864446
v -0.523778 6.578721 0.67238915
v 0.481992 6.379525 0.24498126
v 0.11103466 5.7240314 0.21989712
v 0.11103466 5.7240314 0.21989712
v 0.481992 6.379525 0.24498126
v 0.0030547567 6.384269 -0.7075725
v -0.20398608 5.7283683 -0.40981886
v -0.9186014 6.5738864 -0.22495085
v -0.7867583 5.9586954 -0.09935592
v -0.20398608 5.7283683 -0.40981886
v 0.0030547567 6.384269 -0.7075725
v -0.7867583 5.9586954 -0.09935592
v -0.9186014 6.5738864 -0.22495085
v -0.523778 6.578721 0.67238915
v -0.52819365 5.9604225 0.4864446
v 0.7278733 5.152172 -0.5544678
v 0.50996816 5.711178 -0.37261054
v -0.31925336 5.8148108 -0.50765723
v -0.5133684 5.152071 -0.7542041
v 0.50996816 5.711178 -0.37261054
v 0.4158553 5.7113905 0.4602309
v -0.38231617 5.8125534 0.40994233
v -0.31925336 5.8148108 -0.50765723
v 0.4158553 5.7113905 0.4602309
v 0.5873379 5.1522474 0.68802416
v -0.60400593 5.151052 0.60790163
v -0.38231617 5.8125534 0.40994233
v 0.41753238 3.351533 0.4589789
v 0.5112312 3.3517675 -0.37113494
v -0.31600747 3.2257073 -0.50809467
v -0.37994406 3.2285516 0.4112475
v -0.5133684 5.152071 -0.7542041
v -0.31925336 5.8148108 -0.50765723
v -0.38231617 5.8125534 0.40994233
v -0.60400593 5.151052 0.60790163
v 0.5873379 5.1522474 0.68802416
v 0.4158553 5.7113905 0.4602309
v 0.50996816 5.711178 -0.37261054
v 0.7278733 5.152172 -0.5544678
v 0.5112312 3.3517675 -0.37113494
v 0.7278733 5.152172 -0.5544678
v -0.5133684 5.152071 -0.7542041
v -0.31600747 3.2257073 -0.50809467
v -0.31600747 3.2257073 -0.50809467
v -0.5133684 5.152071 -0.7542041
v -0.60400593 5.151052 0.60790163
v -0.37994406 3.2285516 0.4112475
v 0.5873379 5.1522474 0.68802416
v 0.41753238 3.351533 0.4589789
v -0.37994406 3.2285516 0.4112475
v -0.60400593 5.151052 0.60790163
v 0.41753238 3.351533 0.4589789
v 0.5873379 5.1522474 0.68802416
v 0.7278733 5.152172 -0.5544678
v 0.5112312 3.3517675 -0.37113494
vt 0.375 0.135377
vt 0.375 0.25
vt 0.625 0.25
vt 0.625 0.135377
vt 0.375 0.25
vt 0.375 0.5
vt 0.625 0.5
vt 0.625 0.25
vt 0.375 0.5
vt 0.375 0.61462295
vt 0.625 0.61462295
vt 0.625 0.5
vt 0.375 0.75
vt 0.375 1
vt 0.625 1
vt 0.625 0.75
vt 0.625 0.135377
vt 0.625 0.25
vt 0.875 0.25
vt 0.875 0.13537699
vt 0.125 0.13537699
vt 0.125 0.25
vt 0.375 0.25
vt 0.375 0.135377
vt 0.375 0
vt 0.375 0.135377
vt 0.625 0.135377
vt 0.625 0
vt 0.625 0
vt 0.625 0.135377
vt 0.875 0.13537699
vt 0.875 0
vt 0.375 0.61462295
vt 0.375 0.75
vt 0.625 0.75
vt 0.625 0.61462295
vt 0.125 0
vt 0.125 0.13537699
vt 0.375 0.135377
vt 0.375 0
vt 0.375 0.14938974
vt 0.375 0.25
vt 0.625 0.25
vt 0.625 0.14938974
vt 0.375 0.25
vt 0.375 0.5
vt 0.625 0.5
vt 0.625 0.25
vt 0.375 0.5
vt 0.375 0.60061026
vt 0.625 0.60061026
vt 0.625 0.5
vt 0.375 0.75
vt 0.375 1
vt 0.625 1
vt 0.625 0.75
vt 0.625 0.14938974
vt 0.625 0.25
vt 0.875 0.25
vt 0.875 0.14938974
vt 0.125 0.14938974
vt 0.125 0.25
vt 0.375 0.25
vt 0.375 0.14938974
vt 0.375 0
vt 0.375 0.14938974
vt 0.625 0.14938974
vt 0.625 0
vt 0.625 0
vt 0.625 0.14938974
vt 0.875 0.14938974
vt 0.875 0
vt 0.375 0.60061026
vt 0.375 0.75
vt 0.625 0.75
vt 0.625 0.60061026
vt 0.125 0
vt 0.125 0.14938974
vt 0.375 0.14938974
vt 0.375 0
vt 0.375 0.135377
vt 0.375 0.25
vt 0.625 0.25
vt 0.625 0.135377
vt 0.375 0.25
vt 0.375 0.5
vt 0.625 0.5
vt 0.625 0.25
vt 0.375 0.5
vt 0.375 0.61462295
vt 0.625 0.61462295
vt 0.625 0.5
vt 0.375 0.75
vt 0.375 1
vt 0.625 1
vt 0.625 0.75
vt 0.625 0.135377
vt 0.625 0.25
vt 0.875 0.25
vt 0.875 0.13537699
vt 0.125 0.13537699
vt 0.125 0.25
vt 0.375 0.25
vt 0.375 0.135377
vt 0.375 0
vt 0.375 0.135377
vt 0.625 0.135377
vt 0.625 0
vt 0.625 0
vt 0.625 0.135377
vt 0.875 0.13537699
vt 0.875 0
vt 0.375 0.61462295
vt 0.375 0.75
vt 0.625 0.75
vt 0.625 0.61462295
vt 0.125 0
vt 0.125 0.13537699
vt 0.375 0.135377
vt 0.375 0
vt 0.375 0.135377
vt 0.375 0.25
vt 0.625 0.25
vt 0.625 0.135377
vt 0.375 0.25
vt 0.375 0.5
vt 0.625 0.5
vt 0.625 0.25
vt 0.375 0.5
vt 0.375 0.61462295
vt 0.625 0.61462295
vt 0.625 0.5
vt 0.375 0.75
vt 0.375 1
vt 0.625 1
vt 0.625 0.75
vt 0.625 0.135377
vt 0.625 0.25
vt 0.875 0.25
vt 0.875 0.13537699
vt 0.125 0.13537699
vt 0.125 0.25
vt 0.375 0.25
vt 0.375 0.135377
vt 0.375 0
vt 0.375 0.135377
vt 0.625 0.135377
vt 0.625 0
vt 0.625 0
vt 0.625 0.135377
vt 0.875 0.13537699
vt 0.875 0
vt 0.375 0.61462295
vt 0.375 0.75
vt 0.625 0.75
vt 0.625 0.61462295
vt 0.125 0
vt 0.125 0.13537699
vt 0.375 0.135377
vt 0.375 0
vn -0.37746078 0.4083423 0.8311317
vn -0.37746078 0.40834233 0.83113176
vn -0.37746078 0.40834233 0.83113176
vn -0.37746078 0.40834233 0.83113176
vn -0.07508817 0.9967115 -0.030462893
vn -0.075088166 0.9967115 -0.03046289
vn -0.07508817 0.9967115 -0.030462893
vn -0.07508817 0.9967115 -0.030462889
vn 0.28359443 0.4089354 -0.86737883
vn 0.2835944 0.4089354 -0.8673789
vn 0.28359443 0.4089354 -0.86737883
vn 0.28359443 0.4089354 -0.86737883
vn -0.09251862 -0.9950098 -0.03736294
vn -0.09251862 -0.9950098 -0.03736294
vn -0.09251862 -0.9950098 -0.03736294
vn -0.09251861 -0.9950098 -0.03736294
vn 0.8572557 0.41135037 0.30968305
vn 0.8572557 0.41135034 0.30968302
vn 0.8572557 0.41135034 0.30968302
vn 0.8572557 0.4113503 0.30968302
vn -0.8197168 0.45556667 -0.34716472
vn -0.8197169 0.4555667 -0.3471647
vn -0.8197168 0.45556667 -0.34716472
vn -0.8197168 0.45556667 -0.34716472
vn -0.3843741 -0.37717578 0.84261197
vn -0.38437414 -0.37717578 0.84261197
vn -0.3843741 -0.37717578 0.84261197
vn -0.38437414 -0.37717584 0.84261197
vn 0.86923844 -0.38178214 0.3141129
vn 0.86923844 -0.38178217 0.31411296
vn 0.86923844 -0.38178217 0.31411296
vn 0.86923844 -0.38178217 0.31411296
vn 0.28620568 -0.37771153 -0.8805795
vn 0.28620568 -0.37771156 -0.8805796
vn 0.28620568 -0.37771156 -0.8805796
vn 0.28620568 -0.37771156 -0.8805796
vn -0.83413774 -0.42366552 -0.35315964
vn -0.83413774 -0.42366552 -0.35315967
vn -0.83413774 -0.42366555 -0.35315967
vn -0.83413774 -0.42366546 -0.35315964
vn -0.06473089 0.6614918 0.7471536
vn -0.064730875 0.66149175 0.7471536
vn -0.06473088 0.6614919 0.7471536
vn -0.06473088 0.6614918 0.7471536
vn -0.097264156 0.9894112 -0.10772746
vn -0.097264156 0.9894112 -0.10772747
vn -0.09726414 0.9894112 -0.10772746
vn -0.097264156 0.9894112 -0.10772747
vn -0.048160035 0.491274 -0.8696726
vn -0.048160035 0.491274 -0.8696726
vn -0.04816003 0.49127403 -0.8696726
vn -0.048160035 0.49127403 -0.8696726
vn 0.0048262305 -0.9999838 0.0030497313
vn 0.0048262305 -0.9999838 0.0030497308
vn 0.00482623 -0.9999838 0.0030497306
vn 0.0048262305 -0.9999838 0.0030497308
vn 0.75320613 0.6548532 -0.06203064
vn 0.75320613 0.6548533 -0.06203064
vn 0.75320613 0.6548532 -0.062030643
vn 0.7532062 0.6548532 -0.06203065
vn -0.8649478 0.49798813 -0.062234595
vn -0.8649478 0.49798813 -0.062234588
vn -0.8649478 0.49798813 -0.062234588
vn -0.8649478 0.49798816 -0.062234595
vn 0.009430294 -0.18379296 0.9829198
vn 0.009430294 -0.18379293 0.9829198
vn 0.009430294 -0.18379295 0.9829198
vn 0.009430294 -0.18379295 0.9829198
vn 0.98688555 -0.16073895 0.014831784
vn 0.98688555 -0.16073896 0.014831784
vn 0.98688555 -0.16073895 0.014831785
vn 0.98688555 -0.16073896 0.014831785
vn 0.013951237 -0.25518373 -0.9667919
vn 0.013951239 -0.25518376 -0.9667919
vn 0.013951237 -0.2551837 -0.9667919
vn 0.013951237 -0.25518373 -0.9667919
vn -0.95953816 -0.281383 0.010498274
vn -0.95953804 -0.28138304 0.010498274
vn -0.95953816 -0.281383 0.010498274
vn -0.95953816 -0.28138304 0.010498275
vn 0.40828672 0.2893484 0.86578256
vn 0.40828675 0.2893484 0.86578256
vn 0.40828672 0.28934836 0.86578256
vn 0.40828675 0.28934836 0.86578256
vn 0.05016015 0.99841046 -0.025701104
vn 0.050160144 0.99841046 -0.025701104
vn 0.05016015 0.99841046 -0.025701104
vn 0.050160144 0.99841046 -0.025701106
vn -0.41126645 0.29003885 -0.8641397
vn -0.4112665 0.29003888 -0.8641397
vn -0.41126645 0.29003885 -0.8641397
vn -0.41126648 0.29003885 -0.8641397
vn -0.29600802 -0.94521487 0.13765237
vn -0.296008 -0.94521475 0.13765235
vn -0.296008 -0.94521475 0.13765235
vn -0.296008 -0.94521487 0.13765237
vn 0.88780713 0.115771085 -0.44541627
vn 0.88780713 0.115771055 -0.44541627
vn 0.88780713 0.115771085 -0.44541627
vn 0.88780713 0.11577107 -0.44541615
vn -0.8030861 0.48144546 0.35108808
vn -0.8030861 0.48144546 0.35108808
vn -0.8030861 0.48144546 0.35108808
vn -0.8030861 0.48144546 0.35108808
vn 0.320708 -0.2460414 0.91466385
vn 0.32070798 -0.24604139 0.91466385
vn 0.32070804 -0.24604139 0.91466385
vn 0.32070804 -0.24604139 0.91466385
vn 0.8025035 -0.43795392 -0.40519673
vn 0.8025035 -0.43795392 -0.40519673
vn 0.8025036 -0.43795392 -0.40519673
vn 0.8025035 -0.4379539 -0.40519673
vn -0.50482786 -0.24574158 -0.8275022
vn -0.5048278 -0.24574158 -0.82750225
vn -0.50482786 -0.24574158 -0.82750225
vn -0.50482786 -0.24574158 -0.82750225
vn -0.9090298 -0.1135266 0.40096948
vn -0.9090298 -0.113526605 0.40096948
vn -0.9090298 -0.113526605 0.40096942
vn -0.9090298 -0.1135266 0.4009694
vn 0.16674408 0.32915336 -0.92943764
vn 0.16674411 0.3291534 -0.92943764
vn 0.1667441 0.32915336 -0.92943764
vn 0.16674411 0.3291534 -0.92943764
vn 0.123475716 0.992272 0.012245986
vn 0.123475716 0.992272 0.012245986
vn 0.123475716 0.992272 0.012245986
vn 0.12347572 0.992272 0.012245985
vn -0.04517673 0.33065468 0.94266987
vn -0.04517673 0.33065468 0.94266987
vn -0.045176733 0.33065468 0.94266987
vn -0.04517673 0.3306547 0.94266987
vn 0.14983313 -0.98859787 0.014975161
vn 0.14983311 -0.98859787 0.01497516
vn 0.1498331 -0.98859787 0.014975159
vn 0.14983311 -0.98859787 0.01497516
vn -0.9514639 0.30109254 -0.06371612
vn -0.9514639 0.30109254 -0.06371612
vn -0.9514639 0.30109257 -0.06371612
vn -0.9514639 0.30109257 -0.06371612
vn 0.93769634 0.33090025 0.105975114
vn 0.93769634 0.33090025 0.105975114
vn 0.9376962 0.33090022 0.10597511
vn 0.93769634 0.33090022 0.105975114
vn 0.16637152 -0.11372835 -0.97948265
vn 0.16637152 -0.11372835 -0.97948265
vn 0.16637151 -0.11372834 -0.97948265
vn 0.16637152 -0.11372835 -0.97948265
vn -0.9917247 -0.109448954 -0.06710441
vn -0.9917247 -0.109448954 -0.06710441
vn -0.9917247 -0.10944895 -0.06710441
vn -0.9917247 -0.109448954 -0.06710441
vn -0.056629553 -0.11422871 0.9918391
vn -0.056629553 -0.1142287 0.9918391
vn -0.056629557 -0.11422871 0.9918391
vn -0.05662955 -0.11422871 0.9918391
vn 0.9879241 -0.10743452 0.11164135
vn 0.9879241 -0.10743451 0.11164135
vn 0.9879241 -0.107434504 0.11164133
vn 0.9879241 -0.10743451 0.11164134
g ore_02_COL_0
f 3/3/3 2/2/2 1/1/1
f 4/4/4 3/3/3 1/1/1
f 7/7/7 6/6/6 5/5/5
f 8/8/8 7/7/7 5/5/5
f 11/11/11 10/10/10 9/9/9
f 12/12/12 11/11/11 9/9/9
f 15/15/15 14/14/14 13/13/13
f 16/16/16 15/15/15 13/13/13
f 19/19/19 18/18/18 17/17/17
f 20/20/20 19/19/19 17/17/17
f 23/23/23 22/22/22 21/21/21
f 24/24/24 23/23/23 21/21/21
f 27/27/27 26/26/26 25/25/25
f 28/28/28 27/27/27 25/25/25
f 31/31/31 30/30/30 29/29/29
f 32/32/32 31/31/31 29/29/29
f 35/35/35 34/34/34 33/33/33
f 36/36/36 35/35/35 33/33/33
f 39/39/39 38/38/38 37/37/37
f 40/40/40 39/39/39 37/37/37
f 43/43/43 42/42/42 41/41/41
f 44/44/44 43/43/43 41/41/41
f 47/47/47 46/46/46 45/45/45
f 48/48/48 47/47/47 45/45/45
f 51/51/51 50/50/50 49/49/49
f 52/52/52 51/51/51 49/49/49
f 55/55/55 54/54/54 53/53/53
f 56/56/56 55/55/55 53/53/53
f 59/59/59 58/58/58 57/57/57
f 60/60/60 59/59/59 57/57/57
f 63/63/63 62/62/62 61/61/61
f 64/64/64 63/63/63 61/61/61
f 67/67/67 66/66/66 65/65/65
f 68/68/68 67/67/67 65/65/65
f 71/71/71 70/70/70 69/69/69
f 72/72/72 71/71/71 69/69/69
f 75/75/75 74/74/74 73/73/73
f 76/76/76 75/75/75 73/73/73
f 79/79/79 78/78/78 77/77/77
f 80/80/80 79/79/79 77/77/77
f 83/83/83 82/82/82 81/81/81
f 84/84/84 83/83/83 81/81/81
f 87/87/87 86/86/86 85/85/85
f 88/88/88 87/87/87 85/85/85
f 91/91/91 90/90/90 89/89/89
f 92/92/92 91/91/91 89/89/89
f 95/95/95 94/94/94 93/93/93
f 96/96/96 95/95/95 93/93/93
f 99/99/99 98/98/98 97/97/97
f 100/100/100 99/99/99 97/97/97
f 103/103/103 102/102/102 101/101/101
f 104/104/104 103/103/103 101/101/101
f 107/107/107 106/106/106 105/105/105
f 108/108/108 107/107/107 105/105/105
f 111/111/111 110/110/110 109/109/109
f 112/112/112 111/111/111 109/109/109
f 115/115/115 114/114/114 113/113/113
f 116/116/116 115/115/115 113/113/113
f 119/119/119 118/118/118 117/117/117
f 120/120/120 119/119/119 117/117/117
f 123/123/123 122/122/122 121/121/121
f 124/124/124 123/123/123 121/121/121
f 127/127/127 126/126/126 125/125/125
f 128/128/128 127/127/127 125/125/125
f 131/131/131 130/130/130 129/129/129
f 132/132/132 131/131/131 129/129/129
f 135/135/135 134/134/134 133/133/133
f 136/136/136 135/135/135 133/133/133
f 139/139/139 138/138/138 137/137/137
f 140/140/140 139/139/139 137/137/137
f 143/143/143 142/142/142 141/141/141
f 144/144/144 143/143/143 141/141/141
f 147/147/147 146/146/146 145/145/145
f 148/148/148 147/147/147 145/145/145
f 151/151/151 150/150/150 149/149/149
f 152/152/152 151/151/151 149/149/149
f 155/155/155 154/154/154 153/153/153
f 156/156/156 155/155/155 153/153/153
f 159/159/159 158/158/158 157/157/157
f 160/160/160 159/159/159 157/157/157
