g ore_07
v -0.4133902 0.15038061 0.7987917
v 0.23623809 0.21831465 0.455331
v 0.38721374 -0.16788721 0.28575566
v 0.34673595 0.09973097 -0.25700262
v -0.13992178 -0.61395884 -0.35533
v 0.40472475 -0.18133402 0.22265002
v 0.019868594 -0.073440075 -0.581594
v -0.13992178 -0.61395884 -0.35533
v 0.34673595 0.09973097 -0.25700262
v -0.81058085 0.36242437 -0.30188772
v -0.9014416 0.15757036 -0.18754488
v -0.7589544 0.19472647 -0.41678476
v -0.05960658 0.40242815 -0.5696271
v -0.036316045 0.50588655 -0.4909754
v -0.71095425 0.2397542 -0.43419424
v -0.71224546 -0.19434404 -0.38960212
v -0.6701788 -0.16239595 -0.4359981
v -0.7323142 -0.13003206 -0.3995157
v -0.80008 -0.041751385 0.33508706
v -0.79391503 -0.025223255 0.34497258
v -0.76679873 0.00510931 0.40509412
v -0.7303396 -0.4673829 -0.08213443
v -0.73632556 -0.46804476 -0.019869983
v -0.6893273 -0.5075908 -0.038263395
v -0.13992178 -0.61395884 -0.35533
v -0.2126574 -0.6458554 -0.3658953
v -0.20626001 -0.664618 -0.31802788
v -0.9014416 0.15757036 -0.18754488
v -0.81058085 0.36242437 -0.30188772
v -0.82865775 0.44745493 -0.1201306
v -0.91139984 0.1121726 -0.124690294
v -0.8306575 0.42489767 -0.05506242
v -0.88569456 -0.19379187 -0.18717052
v -0.7323142 -0.13003206 -0.3995157
v -0.9014416 0.15757036 -0.18754488
v -0.71224546 -0.19434404 -0.38960212
v -0.862573 -0.2577319 -0.1785723
v -0.7303396 -0.4673829 -0.08213443
v -0.73632556 -0.46804476 -0.019869983
v -0.7879502 -0.080907345 0.34425887
v -0.77149427 -0.08474398 0.37771827
v -0.5339341 -0.45416212 0.46803072
v -0.6893273 -0.5075908 -0.038263395
v -0.49054986 -0.5016494 0.42543936
v -0.20626001 -0.664618 -0.31802788
v -0.5294592 -0.32981253 0.5477723
v -0.467929 -0.47708273 0.46696758
v -0.48354754 0.12974405 0.78838825
v -0.4133902 0.15038061 0.7987917
v 0.38721374 -0.16788721 0.28575566
v -0.66729313 0.0885005 0.6991931
v -0.7056251 0.050490856 0.6402436
v -0.5339341 -0.45416212 0.46803072
v -0.77149427 -0.08474398 0.37771827
v -0.70334816 0.13537836 0.6579803
v -0.76679873 0.00510931 0.40509412
v -0.6577556 0.16032267 0.7083732
v -0.49803224 0.19617414 0.7859073
v -0.43516815 0.21722364 0.7943535
v -0.4133902 0.15038061 0.7987917
v -0.79391503 -0.025223255 0.34497258
v -0.6057533 0.38529825 0.6324244
v -0.76679873 0.00510931 0.40509412
v -0.8306575 0.42489767 -0.05506242
v -0.5909402 0.43175173 0.5942068
v -0.79260564 0.47695208 -0.061465114
v -0.82865775 0.44745493 -0.1201306
v -0.57146263 0.63003874 -0.16251393
v -0.6427333 0.5764518 -0.20626262
v -0.82865775 0.44745493 -0.1201306
v -0.81058085 0.36242437 -0.30188772
v -0.5810447 0.6138644 -0.22292243
v -0.758449 0.3749299 -0.3416676
v -0.71095425 0.2397542 -0.43419424
v -0.7589544 0.19472647 -0.41678476
v -0.81058085 0.36242437 -0.30188772
v -0.5201378 0.639977 -0.19110271
v -0.57146263 0.63003874 -0.16251393
v -0.19981945 0.70149183 0.29997748
v -0.2499147 0.6906867 0.33491272
v -0.5909402 0.43175173 0.5942068
v -0.5629162 0.40073252 0.66311973
v -0.1993893 0.6764045 0.3723662
v -0.30223837 0.28185797 0.7469207
v -0.1993893 0.6764045 0.3723662
v 0.24131995 0.6119113 0.057754103
v 0.28389153 0.5774045 0.11214115
v 0.2052453 0.28552294 0.45885
v -0.011840086 0.5356002 -0.44372046
v -0.036316045 0.50588655 -0.4909754
v -0.5810447 0.6138644 -0.22292243
v -0.71095425 0.2397542 -0.43419424
v 0.032097235 0.49325705 -0.47664198
v 0.29668477 0.57192373 0.046429668
v 0.28389153 0.5774045 0.11214115
v 0.032097235 0.49325705 -0.47664198
v 0.33366516 0.15722895 -0.28663749
v -0.2126574 -0.6458554 -0.3658953
v -0.6701788 -0.16239595 -0.4359981
v -0.41243586 -0.56729555 -0.3382706
v -0.48259968 -0.55133104 -0.302494
v -0.71224546 -0.19434404 -0.38960212
v -0.7303396 -0.4673829 -0.08213443
v 0.33366516 0.15722895 -0.28663749
v 0.002965618 0.36385202 -0.57501894
v 0.027064875 -0.0032229424 -0.5935661
v 0.34673595 0.09973097 -0.25700262
v 0.019868594 -0.073440075 -0.581594
v -0.76679873 0.00510931 0.40509412
v -0.6057533 0.38529825 0.6324244
v -0.70334816 0.13537836 0.6579803
v -0.6577556 0.16032267 0.7083732
v -0.5870738 0.3423047 0.68165857
v -0.5909402 0.43175173 0.5942068
v -0.49803224 0.19617414 0.7859073
v -0.5629162 0.40073252 0.66311973
v -0.43516815 0.21722364 0.7943535
v -0.30223837 0.28185797 0.7469207
v -0.4133902 0.15038061 0.7987917
v -0.28716117 0.21693563 0.7533608
v 0.23623809 0.21831465 0.455331
v 0.2052453 0.28552294 0.45885
v -0.30223837 0.28185797 0.7469207
v -0.1993893 0.6764045 0.3723662
v -0.7879502 -0.080907345 0.34425887
v -0.8962667 -0.22591734 -0.12434414
v -0.7990285 -0.06568861 0.33502376
v -0.73632556 -0.46804476 -0.019869983
v -0.862573 -0.2577319 -0.1785723
v -0.7303396 -0.4673829 -0.08213443
v -0.8306575 0.42489767 -0.05506242
v -0.80008 -0.041751385 0.33508706
v -0.91139984 0.1121726 -0.124690294
v -0.67722046 0.18224382 -0.4635369
v -0.6701788 -0.16239595 -0.4359981
v -0.036101066 -0.049911022 -0.6125529
v -0.7323142 -0.13003206 -0.3995157
v -0.7589544 0.19472647 -0.41678476
v -0.9014416 0.15757036 -0.18754488
v -0.2126574 -0.6458554 -0.3658953
v -0.036101066 -0.049911022 -0.6125529
v -0.6701788 -0.16239595 -0.4359981
v 0.019868594 -0.073440075 -0.581594
v -0.13992178 -0.61395884 -0.35533
v -0.76679873 0.00510931 0.40509412
v -0.77149427 -0.08474398 0.37771827
v -0.7879502 -0.080907345 0.34425887
v -0.7990285 -0.06568861 0.33502376
v -0.80008 -0.041751385 0.33508706
v -0.91139984 0.1121726 -0.124690294
v -0.8962667 -0.22591734 -0.12434414
v -0.9014416 0.15757036 -0.18754488
v -0.88569456 -0.19379187 -0.18717052
v -0.862573 -0.2577319 -0.1785723
v -0.036101066 -0.049911022 -0.6125529
v 0.019868594 -0.073440075 -0.581594
v 0.027064875 -0.0032229424 -0.5935661
v 0.002965618 0.36385202 -0.57501894
v -0.0617608 0.33765364 -0.59390193
v -0.05960658 0.40242815 -0.5696271
v -0.67722046 0.18224382 -0.4635369
v -0.71095425 0.2397542 -0.43419424
v -0.7589544 0.19472647 -0.41678476
v 0.032097235 0.49325705 -0.47664198
v -0.036316045 0.50588655 -0.4909754
v -0.05960658 0.40242815 -0.5696271
v 0.002965618 0.36385202 -0.57501894
v 0.33366516 0.15722895 -0.28663749
v -0.20626001 -0.664618 -0.31802788
v -0.2126574 -0.6458554 -0.3658953
v -0.41243586 -0.56729555 -0.3382706
v -0.4214616 -0.5980334 -0.28194082
v -0.6893273 -0.5075908 -0.038263395
v -0.48259968 -0.55133104 -0.302494
v -0.7303396 -0.4673829 -0.08213443
v 0.34673595 0.09973097 -0.25700262
v 0.40472475 -0.18133402 0.22265002
v 0.48793867 0.16455126 0.14719017
v 0.33366516 0.15722895 -0.28663749
v 0.47223502 0.17433596 0.21310084
v 0.38721374 -0.16788721 0.28575566
v 0.23623809 0.21831465 0.455331
v 0.47946253 0.22851038 0.13240387
v 0.29668477 0.57192373 0.046429668
v 0.28389153 0.5774045 0.11214115
v 0.46384597 0.24012232 0.19765946
v 0.2052453 0.28552294 0.45885
v 0.07162303 -0.61717653 0.21672618
v -0.467929 -0.47708273 0.46696758
v 0.38721374 -0.16788721 0.28575566
v -0.49054986 -0.5016494 0.42543936
v 0.09634129 -0.6227269 0.15357147
v 0.40472475 -0.18133402 0.22265002
v -0.13992178 -0.61395884 -0.35533
v 0.03360274 -0.65319014 0.17289484
v -0.20626001 -0.664618 -0.31802788
vt 0.38911048 0.13323705
vt 0.57687193 0.1657428
vt 0.61781275 0.11332561
vt 0.72683984 0.1683801
vt 0.7114742 0.4453915
vt 0.6321648 0.11250516
vt 0.85239255 0.15149221
vt 0.7114742 0.44539154
vt 0.7215634 0.18228471
vt 0.3533277 0.52564603
vt 0.16791117 0.1977309
vt 0.3703528 0.5527143
vt 0.74129397 0.37124103
vt 0.79916036 0.31203875
vt 0.42729187 0.58218056
vt 0.40523276 0.67653936
vt 0.43323952 0.6109489
vt 0.37851033 0.6085809
vt 0.29563162 0.09879854
vt 0.29845923 0.10154742
vt 0.31346786 0.08394672
vt 0.38359213 0.76760113
vt 0.37622753 0.7321051
vt 0.39991963 0.7458737
vt 0.71052545 0.43474352
vt 0.6920073 0.4805407
vt 0.6966621 0.44323313
vt 0.16911878 0.19957867
vt 0.34385282 0.5109899
vt 0.18004736 0.24329978
vt 0.14296821 0.13043047
vt 0.15838452 0.18372256
vt 0.2679359 0.39893344
vt 0.3785105 0.60858124
vt 0.1358698 0.14125526
vt 0.40523276 0.67653936
vt 0.29610825 0.471019
vt 0.38359213 0.767601
vt 0.37622753 0.73210496
vt 0.31181377 0.13847294
vt 0.31254613 0.12569702
vt 0.37512094 0.47178957
vt 0.39991963 0.7458737
vt 0.40137154 0.5033525
vt 0.6889729 0.4760702
vt 0.3790913 0.41119593
vt 0.39252526 0.4870995
vt 0.3781934 0.15524293
vt 0.38907662 0.13982257
vt 0.61762446 0.094292924
vt 0.36882383 0.15213744
vt 0.36023596 0.15378457
vt 0.37512097 0.47178993
vt 0.31254616 0.125697
vt 0.36028987 0.13278864
vt 0.31435114 0.10573268
vt 0.3680469 0.13685742
vt 0.37619153 0.13955699
vt 0.3795588 0.14240792
vt 0.4043596 0.13497196
vt 0.29845923 0.10154742
vt 0.36045894 0.16636375
vt 0.3143511 0.10573266
vt 0.15838444 0.1837226
vt 0.36160204 0.18889856
vt 0.17786022 0.21569543
vt 0.18004736 0.24329978
vt 0.32608986 0.421145
vt 0.30459398 0.4163666
vt 0.18004717 0.24329948
vt 0.349997 0.5261125
vt 0.32886684 0.44585156
vt 0.37859976 0.5645696
vt 0.39312473 0.5878212
vt 0.3703528 0.5527143
vt 0.3533277 0.52564603
vt 0.34155548 0.4242848
vt 0.3260899 0.4211449
vt 0.39934173 0.26639855
vt 0.38431925 0.26128092
vt 0.36160204 0.18889861
vt 0.36665162 0.16920854
vt 0.39039695 0.24957012
vt 0.3873499 0.15514782
vt 0.39240766 0.24920443
vt 0.60834235 0.26238683
vt 0.6206366 0.24420461
vt 0.5683347 0.17685552
vt 0.7820999 0.30041558
vt 0.7991602 0.31203884
vt 0.32886672 0.4458514
vt 0.40488023 0.5875559
vt 0.8155898 0.28467315
vt 0.6343144 0.24475816
vt 0.62063664 0.24420464
vt 0.81558985 0.28467315
vt 0.7362492 0.17291616
vt 0.6920073 0.48054066
vt 0.43323952 0.6109489
vt 0.5675907 0.6884507
vt 0.5245465 0.7457284
vt 0.4052328 0.6765393
vt 0.38359213 0.76760113
vt 0.72718114 0.18322602
vt 0.74321127 0.3587227
vt 0.85012907 0.15437691
vt 0.7215634 0.18228471
vt 0.85239255 0.15149221
vt 0.31435114 0.10573268
vt 0.36045894 0.16636379
vt 0.36028987 0.13278864
vt 0.3680469 0.13685742
vt 0.36677402 0.16101468
vt 0.36160204 0.18889856
vt 0.37619153 0.13955699
vt 0.36665162 0.16920854
vt 0.3795588 0.14240792
vt 0.3870263 0.15381683
vt 0.4043596 0.13497196
vt 0.41151017 0.14615719
vt 0.6002104 0.16838591
vt 0.56576407 0.17742588
vt 0.38334712 0.1560629
vt 0.3946345 0.248663
vt 0.31181377 0.13847265
vt 0.27004555 0.378375
vt 0.30461052 0.11638048
vt 0.37622753 0.7321051
vt 0.29610825 0.471019
vt 0.38359213 0.767601
vt 0.15838452 0.18372256
vt 0.29563162 0.09879854
vt 0.14296821 0.13043047
vt 0.4396233 0.5664301
vt 0.4332652 0.6375021
vt 0.84719193 0.15747082
vt 0.37851033 0.6085809
vt 0.37035283 0.55271435
vt 0.15663894 0.17432216
vt 0.6920073 0.4805407
vt 0.84721 0.15691108
vt 0.43329066 0.63802254
vt 0.85239255 0.15149221
vt 0.7114742 0.44539154
vt 0.31346786 0.08394672
vt 0.31254616 0.125697
vt 0.31181377 0.13847265
vt 0.30461052 0.11638049
vt 0.29563162 0.09879854
vt 0.14296816 0.13043047
vt 0.27004558 0.37837502
vt 0.1358698 0.14125526
vt 0.2679359 0.39893344
vt 0.29610825 0.471019
vt 0.84950846 0.15122071
vt 0.85239255 0.15149221
vt 0.85012907 0.15437691
vt 0.74321127 0.3587227
vt 0.73662597 0.36696017
vt 0.74129397 0.37124103
vt 0.4396233 0.5664301
vt 0.42729187 0.58218056
vt 0.3703528 0.5527143
vt 0.8155898 0.28467315
vt 0.79916036 0.31203875
vt 0.74129397 0.37124103
vt 0.74321127 0.35872272
vt 0.73894596 0.17067002
vt 0.6966621 0.44323313
vt 0.6920073 0.48054066
vt 0.5675907 0.6884507
vt 0.56213295 0.68188286
vt 0.40871274 0.7083223
vt 0.5245465 0.7457284
vt 0.38359213 0.76760113
vt 0.7286119 0.1592618
vt 0.6321649 0.1125052
vt 0.6368401 0.16661605
vt 0.7322557 0.17005982
vt 0.6228236 0.16692628
vt 0.6184423 0.113363594
vt 0.57518834 0.16578601
vt 0.6370077 0.17781197
vt 0.6343143 0.24475822
vt 0.62063664 0.24420464
vt 0.6230488 0.17843917
vt 0.57141125 0.17709698
vt 0.6059985 0.3545247
vt 0.3925253 0.48709947
vt 0.60785365 0.10236977
vt 0.40137154 0.5033525
vt 0.6296961 0.34907123
vt 0.63121575 0.101850845
vt 0.71052545 0.43474352
vt 0.61318374 0.3796932
vt 0.690567 0.4728917
vn 0.16511045 -0.18374535 0.96900785
vn 0.6086271 0.055050977 0.7915443
vn 0.71669036 -0.33675835 0.6106952
vn 0.8647283 -0.2242726 -0.44938505
vn 0.5301299 -0.63998586 -0.55621964
vn 0.9038243 -0.4275809 0.016615177
vn 0.5663012 -0.3493584 -0.74649286
vn 0.5301299 -0.63998586 -0.55621964
vn 0.8647283 -0.2242726 -0.44938505
vn -0.76946676 0.40572846 -0.49325997
vn -0.95520085 0.100434735 -0.2783958
vn -0.68791574 0.06869036 -0.72253275
vn -0.049048323 0.50552684 -0.8614157
vn 0.015270521 0.70259166 -0.71142936
vn -0.41197214 0.35415196 -0.83955663
vn -0.6054668 -0.4328847 -0.667848
vn -0.40834862 -0.26416048 -0.87376803
vn -0.67747533 -0.17075086 -0.71545184
vn -0.9380559 0.0032235621 0.34646878
vn -0.92292464 0.07545236 0.37751418
vn -0.95040584 0.09507379 0.2961243
vn -0.6795069 -0.67585003 -0.28547704
vn -0.7572158 -0.63633263 0.14732605
vn -0.4897665 -0.8717426 0.013912866
vn 0.5301299 -0.63998586 -0.55621964
vn -0.0066017048 -0.7189494 -0.69503105
vn 0.03521736 -0.9764019 -0.21307008
vn -0.95520085 0.100434735 -0.2783958
vn -0.76946676 0.40572846 -0.49325997
vn -0.82532805 0.5552 -0.102890655
vn -0.99572515 0.068582214 0.061870184
vn -0.90177447 0.37941432 0.2069967
vn -0.88185596 -0.18274035 -0.4346678
vn -0.67747533 -0.17075086 -0.71545184
vn -0.95520085 0.100434735 -0.2783958
vn -0.6054668 -0.4328847 -0.667848
vn -0.7518338 -0.50996846 -0.41794515
vn -0.6795069 -0.67585003 -0.28547704
vn -0.7572158 -0.63633263 0.14732605
vn -0.8643812 -0.30949286 0.39630696
vn -0.8696469 -0.29061398 0.3990711
vn -0.5249081 -0.6199812 0.58317643
vn -0.4897665 -0.8717426 0.013912866
vn -0.27536476 -0.86236143 0.42486122
vn 0.03521736 -0.9764019 -0.21307008
vn -0.2912148 -0.48016915 0.82742465
vn 0.047178466 -0.61969537 0.7834232
vn -0.20172839 -0.24685681 0.94782245
vn 0.16511045 -0.18374535 0.96900785
vn 0.71669036 -0.33675835 0.6106952
vn -0.57803017 -0.2226873 0.7850424
vn -0.8264994 -0.24128306 0.50860703
vn -0.5249081 -0.6199812 0.58317643
vn -0.8696469 -0.29061398 0.3990711
vn -0.9047958 0.17379855 0.3887654
vn -0.95040584 0.09507379 0.2961243
vn -0.6308383 0.15504317 0.76026607
vn -0.32623678 0.1727407 0.9293708
vn -0.021800723 0.29670188 0.9547213
vn 0.16511045 -0.18374535 0.96900785
vn -0.92292464 0.07545236 0.37751418
vn -0.7694652 0.45603108 0.44716763
vn -0.95040584 0.09507379 0.2961243
vn -0.90177447 0.37941432 0.2069967
vn -0.54892135 0.7339946 0.39992145
vn -0.6590909 0.7368706 0.15040219
vn -0.82532805 0.5552 -0.102890655
vn -0.42185533 0.906661 -0.0019940115
vn -0.5750581 0.76330173 -0.2944123
vn -0.82532805 0.5552 -0.102890655
vn -0.76946676 0.40572846 -0.49325997
vn -0.35548195 0.7984705 -0.48587814
vn -0.43337363 0.5194613 -0.7364424
vn -0.41197214 0.35415196 -0.83955663
vn -0.68791574 0.06869036 -0.72253275
vn -0.76946676 0.40572846 -0.49325997
vn -0.13034518 0.9587238 -0.25270286
vn -0.42185533 0.906661 -0.0019940115
vn 0.0937342 0.9901125 0.104360744
vn -0.24025811 0.93006814 0.27793756
vn -0.54892135 0.7339946 0.39992145
vn -0.29418483 0.6454805 0.70484763
vn 0.17145658 0.8170536 0.550478
vn 0.2679917 0.43519908 0.8595244
vn 0.17145658 0.8170536 0.550478
vn 0.3796275 0.9230624 -0.061958678
vn 0.6326835 0.69868255 0.33399764
vn 0.5517673 0.4039033 0.72966766
vn 0.2047663 0.8811252 -0.42625007
vn 0.015270521 0.70259166 -0.71142936
vn -0.35548195 0.7984705 -0.48587814
vn -0.41197214 0.35415196 -0.83955663
vn 0.53448516 0.5881646 -0.6069496
vn 0.75065476 0.6345446 -0.1840399
vn 0.6326835 0.69868255 0.33399764
vn 0.53448516 0.5881646 -0.6069496
vn 0.83110064 0.12990335 -0.5407372
vn -0.0066017048 -0.7189494 -0.69503105
vn -0.40834862 -0.26416048 -0.87376803
vn -0.3716781 -0.61907333 -0.6918119
vn -0.53075665 -0.66667104 -0.523304
vn -0.6054668 -0.4328847 -0.667848
vn -0.6795069 -0.67585003 -0.28547704
vn 0.83110064 0.12990335 -0.5407372
vn 0.4524769 0.28619987 -0.84460306
vn 0.531601 -0.046295695 -0.8457288
vn 0.8647283 -0.2242726 -0.44938505
vn 0.5663012 -0.3493584 -0.74649286
vn -0.95040584 0.09507379 0.2961243
vn -0.7694652 0.45603108 0.44716763
vn -0.9047958 0.17379855 0.3887654
vn -0.6308383 0.15504317 0.76026607
vn -0.5409209 0.41303277 0.7326722
vn -0.54892135 0.7339946 0.39992145
vn -0.32623678 0.1727407 0.9293708
vn -0.29418483 0.6454805 0.70484763
vn -0.021800723 0.29670188 0.9547213
vn 0.2679917 0.43519908 0.8595244
vn 0.16511045 -0.18374535 0.96900785
vn 0.4281228 -0.044440176 0.9026273
vn 0.6086271 0.055050977 0.7915443
vn 0.5517673 0.4039033 0.72966766
vn 0.2679917 0.43519908 0.8595244
vn 0.17145658 0.8170536 0.550478
vn -0.8643812 -0.30949286 0.39630696
vn -0.9501287 -0.31174487 0.008414251
vn -0.91635644 -0.17855486 0.3583421
vn -0.7572158 -0.63633263 0.14732605
vn -0.7518338 -0.50996846 -0.41794515
vn -0.6795069 -0.67585003 -0.28547704
vn -0.90177447 0.37941432 0.2069967
vn -0.9380559 0.0032235621 0.34646878
vn -0.99572515 0.068582214 0.061870184
vn -0.36435375 0.08838013 -0.9270573
vn -0.40834862 -0.26416048 -0.87376803
vn 0.08192333 -0.18496577 -0.9793243
vn -0.67747533 -0.17075086 -0.71545184
vn -0.68791574 0.06869036 -0.72253275
vn -0.95520085 0.100434735 -0.2783958
vn -0.0066017048 -0.7189494 -0.69503105
vn 0.08192333 -0.18496577 -0.9793243
vn -0.40834862 -0.26416048 -0.87376803
vn 0.5663012 -0.3493584 -0.74649286
vn 0.5301299 -0.63998586 -0.55621964
vn -0.95040584 0.09507379 0.2961243
vn -0.8696469 -0.29061398 0.3990711
vn -0.8643812 -0.30949286 0.39630696
vn -0.91635644 -0.17855486 0.3583421
vn -0.9380559 0.0032235621 0.34646878
vn -0.99572515 0.068582214 0.061870184
vn -0.9501287 -0.31174487 0.008414251
vn -0.95520085 0.100434735 -0.2783958
vn -0.88185596 -0.18274035 -0.4346678
vn -0.7518338 -0.50996846 -0.41794515
vn 0.08192333 -0.18496577 -0.9793243
vn 0.5663012 -0.3493584 -0.74649286
vn 0.531601 -0.046295695 -0.8457288
vn 0.4524769 0.28619987 -0.84460306
vn -0.02752722 0.1889531 -0.98160017
vn -0.049048323 0.50552684 -0.8614157
vn -0.36435375 0.08838013 -0.9270573
vn -0.41197214 0.35415196 -0.83955663
vn -0.68791574 0.06869036 -0.72253275
vn 0.53448516 0.5881646 -0.6069496
vn 0.015270521 0.70259166 -0.71142936
vn -0.049048323 0.50552684 -0.8614157
vn 0.4524769 0.28619987 -0.84460306
vn 0.83110064 0.12990335 -0.5407372
vn 0.03521736 -0.9764019 -0.21307008
vn -0.0066017048 -0.7189494 -0.69503105
vn -0.3716781 -0.61907333 -0.6918119
vn -0.3794925 -0.8981748 -0.22196247
vn -0.4897665 -0.8717426 0.013912866
vn -0.53075665 -0.66667104 -0.523304
vn -0.6795069 -0.67585003 -0.28547704
vn 0.8647283 -0.2242726 -0.44938505
vn 0.9038243 -0.4275809 0.016615177
vn 0.99767214 -0.05945283 -0.03340201
vn 0.83110064 0.12990335 -0.5407372
vn 0.8811982 0.058660716 0.46909338
vn 0.71669036 -0.33675835 0.6106952
vn 0.6086271 0.055050977 0.7915443
vn 0.9571106 0.27388307 -0.094484724
vn 0.75065476 0.6345446 -0.1840399
vn 0.6326835 0.69868255 0.33399764
vn 0.8429837 0.36620954 0.39404196
vn 0.5517673 0.4039033 0.72966766
vn 0.42862982 -0.67761856 0.59758645
vn 0.047178466 -0.61969537 0.7834232
vn 0.71669036 -0.33675835 0.6106952
vn -0.27536476 -0.86236143 0.42486122
vn 0.69594264 -0.7169494 -0.040587526
vn 0.9038243 -0.4275809 0.016615177
vn 0.5301299 -0.63998586 -0.55621964
vn 0.1825037 -0.96465355 0.19009456
vn 0.03521736 -0.9764019 -0.21307008
g ore_07_0
f 3/3/3 2/2/2 1/1/1
f 6/6/6 5/5/5 4/4/4
f 9/9/9 8/8/8 7/7/7
f 12/12/12 11/11/11 10/10/10
f 15/15/15 14/14/14 13/13/13
f 18/18/18 17/17/17 16/16/16
f 21/21/21 20/20/20 19/19/19
f 24/24/24 23/23/23 22/22/22
f 27/27/27 26/26/26 25/25/25
f 30/30/30 29/29/29 28/28/28
f 28/28/28 31/31/31 30/30/30
f 31/31/31 32/32/32 30/30/30
f 35/35/35 34/34/34 33/33/33
f 34/34/34 36/36/36 33/33/33
f 36/36/36 37/37/37 33/33/33
f 36/36/36 38/38/38 37/37/37
f 41/41/41 40/40/40 39/39/39
f 42/42/42 41/41/41 39/39/39
f 42/42/42 39/39/39 43/43/43
f 44/44/44 42/42/42 43/43/43
f 43/43/43 45/45/45 44/44/44
f 42/42/42 44/44/44 46/46/46
f 44/44/44 47/47/47 46/46/46
f 48/48/48 46/46/46 47/47/47
f 49/49/49 48/48/48 47/47/47
f 50/50/50 49/49/49 47/47/47
f 46/46/46 48/48/48 51/51/51
f 46/46/46 51/51/51 52/52/52
f 53/53/53 46/46/46 52/52/52
f 53/53/53 52/52/52 54/54/54
f 52/52/52 55/55/55 54/54/54
f 55/55/55 56/56/56 54/54/54
f 57/57/57 55/55/55 52/52/52
f 51/51/51 57/57/57 52/52/52
f 58/58/58 57/57/57 51/51/51
f 48/48/48 58/58/58 51/51/51
f 58/58/58 48/48/48 59/59/59
f 48/48/48 60/60/60 59/59/59
f 63/63/63 62/62/62 61/61/61
f 62/62/62 64/64/64 61/61/61
f 62/62/62 65/65/65 64/64/64
f 65/65/65 66/66/66 64/64/64
f 67/67/67 64/64/64 66/66/66
f 65/65/65 68/68/68 66/66/66
f 68/68/68 69/69/69 66/66/66
f 69/69/69 70/70/70 66/66/66
f 70/70/70 69/69/69 71/71/71
f 71/71/71 69/69/69 72/72/72
f 73/73/73 71/71/71 72/72/72
f 74/74/74 73/73/73 72/72/72
f 74/74/74 75/75/75 73/73/73
f 75/75/75 76/76/76 73/73/73
f 77/77/77 72/72/72 69/69/69
f 78/78/78 77/77/77 69/69/69
f 77/77/77 78/78/78 79/79/79
f 78/78/78 80/80/80 79/79/79
f 80/80/80 78/78/78 81/81/81
f 80/80/80 81/81/81 82/82/82
f 83/83/83 80/80/80 82/82/82
f 83/83/83 82/82/82 84/84/84
f 80/80/80 85/85/85 79/79/79
f 79/79/79 85/85/85 86/86/86
f 79/79/79 86/86/86 77/77/77
f 85/85/85 87/87/87 86/86/86
f 85/85/85 88/88/88 87/87/87
f 86/86/86 89/89/89 77/77/77
f 77/77/77 89/89/89 90/90/90
f 91/91/91 77/77/77 90/90/90
f 90/90/90 92/92/92 91/91/91
f 93/93/93 90/90/90 89/89/89
f 89/89/89 86/86/86 94/94/94
f 94/94/94 86/86/86 95/95/95
f 96/96/96 89/89/89 94/94/94
f 94/94/94 97/97/97 96/96/96
f 100/100/100 99/99/99 98/98/98
f 99/99/99 100/100/100 101/101/101
f 102/102/102 99/99/99 101/101/101
f 103/103/103 102/102/102 101/101/101
f 106/106/106 105/105/105 104/104/104
f 104/104/104 107/107/107 106/106/106
f 107/107/107 108/108/108 106/106/106
f 111/111/111 110/110/110 109/109/109
f 111/111/111 112/112/112 110/110/110
f 112/112/112 113/113/113 110/110/110
f 114/114/114 110/110/110 113/113/113
f 115/115/115 113/113/113 112/112/112
f 116/116/116 114/114/114 113/113/113
f 113/113/113 115/115/115 117/117/117
f 116/116/116 113/113/113 117/117/117
f 117/117/117 118/118/118 116/116/116
f 117/117/117 119/119/119 118/118/118
f 119/119/119 120/120/120 118/118/118
f 120/120/120 119/119/119 121/121/121
f 120/120/120 121/121/121 122/122/122
f 123/123/123 120/120/120 122/122/122
f 123/123/123 122/122/122 124/124/124
f 127/127/127 126/126/126 125/125/125
f 126/126/126 128/128/128 125/125/125
f 128/128/128 126/126/126 129/129/129
f 130/130/130 128/128/128 129/129/129
f 133/133/133 132/132/132 131/131/131
f 132/132/132 61/61/61 131/131/131
f 136/136/136 135/135/135 134/134/134
f 135/135/135 137/137/137 134/134/134
f 137/137/137 138/138/138 134/134/134
f 139/139/139 138/138/138 137/137/137
f 142/142/142 141/141/141 140/140/140
f 141/141/141 143/143/143 140/140/140
f 143/143/143 144/144/144 140/140/140
f 147/147/147 146/146/146 145/145/145
f 145/145/145 148/148/148 147/147/147
f 145/145/145 149/149/149 148/148/148
f 148/148/148 149/149/149 150/150/150
f 151/151/151 148/148/148 150/150/150
f 151/151/151 150/150/150 152/152/152
f 153/153/153 151/151/151 152/152/152
f 151/151/151 153/153/153 154/154/154
f 157/157/157 156/156/156 155/155/155
f 157/157/157 155/155/155 158/158/158
f 155/155/155 159/159/159 158/158/158
f 160/160/160 158/158/158 159/159/159
f 155/155/155 161/161/161 159/159/159
f 160/160/160 159/159/159 162/162/162
f 159/159/159 161/161/161 162/162/162
f 161/161/161 163/163/163 162/162/162
f 166/166/166 165/165/165 164/164/164
f 167/167/167 166/166/166 164/164/164
f 167/167/167 164/164/164 168/168/168
f 171/171/171 170/170/170 169/169/169
f 172/172/172 171/171/171 169/169/169
f 169/169/169 173/173/173 172/172/172
f 172/172/172 174/174/174 171/171/171
f 172/172/172 173/173/173 175/175/175
f 174/174/174 172/172/172 175/175/175
f 178/178/178 177/177/177 176/176/176
f 178/178/178 176/176/176 179/179/179
f 177/177/177 178/178/178 180/180/180
f 181/181/181 177/177/177 180/180/180
f 180/180/180 182/182/182 181/181/181
f 183/183/183 178/178/178 179/179/179
f 180/180/180 178/178/178 183/183/183
f 179/179/179 184/184/184 183/183/183
f 183/183/183 184/184/184 185/185/185
f 182/182/182 180/180/180 186/186/186
f 186/186/186 180/180/180 183/183/183
f 186/186/186 183/183/183 185/185/185
f 187/187/187 182/182/182 186/186/186
f 186/186/186 185/185/185 187/187/187
f 190/190/190 189/189/189 188/188/188
f 188/188/188 189/189/189 191/191/191
f 188/188/188 192/192/192 190/190/190
f 192/192/192 193/193/193 190/190/190
f 192/192/192 194/194/194 193/193/193
f 195/195/195 188/188/188 191/191/191
f 192/192/192 188/188/188 195/195/195
f 194/194/194 192/192/192 195/195/195
f 196/196/196 195/195/195 191/191/191
f 196/196/196 194/194/194 195/195/195
