g ore_07_COL
v -0.523778 0.15319777 0.67238915
v -0.35121316 0.6304388 0.41183698
v 0.33723152 0.5862746 0.12161659
v 0.481992 -0.045998096 0.24498126
v -0.35121316 0.6304388 0.41183698
v -0.6166226 0.6262102 -0.18862537
v 0.014728613 0.5880265 -0.52157843
v 0.33723152 0.5862746 0.12161659
v -0.6166226 0.6262102 -0.18862537
v -0.9186014 0.14836311 -0.22495085
v 0.0030547567 -0.041254044 -0.7075725
v 0.014728613 0.5880265 -0.52157843
v -0.7867583 -0.46682787 -0.09935592
v -0.52819365 -0.46510077 0.4864446
v 0.11103466 -0.70149183 0.21989712
v -0.20398608 -0.697155 -0.40981886
v 0.481992 -0.045998096 0.24498126
v 0.33723152 0.5862746 0.12161659
v 0.014728613 0.5880265 -0.52157843
v 0.0030547567 -0.041254044 -0.7075725
v -0.9186014 0.14836311 -0.22495085
v -0.6166226 0.6262102 -0.18862537
v -0.35121316 0.6304388 0.41183698
v -0.523778 0.15319777 0.67238915
v -0.52819365 -0.46510077 0.4864446
v -0.523778 0.15319777 0.67238915
v 0.481992 -0.045998096 0.24498126
v 0.11103466 -0.70149183 0.21989712
v 0.11103466 -0.70149183 0.21989712
v 0.481992 -0.045998096 0.24498126
v 0.0030547567 -0.041254044 -0.7075725
v -0.20398608 -0.697155 -0.40981886
v -0.9186014 0.14836311 -0.22495085
v -0.7867583 -0.46682787 -0.09935592
v -0.20398608 -0.697155 -0.40981886
v 0.0030547567 -0.041254044 -0.7075725
v -0.7867583 -0.46682787 -0.09935592
v -0.9186014 0.14836311 -0.22495085
v -0.523778 0.15319777 0.67238915
v -0.52819365 -0.46510077 0.4864446
vt 0.375 0.135377
vt 0.375 0.25
vt 0.625 0.25
vt 0.625 0.135377
vt 0.375 0.25
vt 0.375 0.5
vt 0.625 0.5
vt 0.625 0.25
vt 0.375 0.5
vt 0.375 0.61462295
vt 0.625 0.61462295
vt 0.625 0.5
vt 0.375 0.75
vt 0.375 1
vt 0.625 1
vt 0.625 0.75
vt 0.625 0.135377
vt 0.625 0.25
vt 0.875 0.25
vt 0.875 0.13537699
vt 0.125 0.13537699
vt 0.125 0.25
vt 0.375 0.25
vt 0.375 0.135377
vt 0.375 0
vt 0.375 0.135377
vt 0.625 0.135377
vt 0.625 0
vt 0.625 0
vt 0.625 0.135377
vt 0.875 0.13537699
vt 0.875 0
vt 0.375 0.61462295
vt 0.375 0.75
vt 0.625 0.75
vt 0.625 0.61462295
vt 0.125 0
vt 0.125 0.13537699
vt 0.375 0.135377
vt 0.375 0
vn 0.40828702 0.28934863 0.8657824
vn 0.40828702 0.28934863 0.8657824
vn 0.40828702 0.28934866 0.8657823
vn 0.40828705 0.2893486 0.8657823
vn 0.050160147 0.99841046 -0.025700426
vn 0.050160144 0.99841046 -0.025700422
vn 0.05016015 0.99841046 -0.025700426
vn 0.050160144 0.99841046 -0.025700424
vn -0.41126636 0.29003876 -0.86413985
vn -0.41126633 0.29003873 -0.86413985
vn -0.41126636 0.29003876 -0.86413985
vn -0.41126633 0.29003876 -0.86413985
vn -0.296008 -0.94521475 0.1376526
vn -0.29600796 -0.94521475 0.13765259
vn -0.296008 -0.94521475 0.1376526
vn -0.29600802 -0.94521475 0.13765259
vn 0.88780713 0.11577107 -0.44541615
vn 0.88780713 0.11577107 -0.44541615
vn 0.88780713 0.115771085 -0.44541615
vn 0.88780713 0.11577104 -0.4454161
vn -0.8030862 0.48144555 0.35108805
vn -0.8030862 0.48144555 0.35108805
vn -0.8030862 0.4814455 0.35108802
vn -0.8030862 0.48144555 0.35108805
vn 0.3207077 -0.24604118 0.91466403
vn 0.32070774 -0.24604118 0.91466403
vn 0.3207077 -0.24604118 0.91466403
vn 0.3207077 -0.24604116 0.91466403
vn 0.80250347 -0.4379539 -0.40519708
vn 0.80250347 -0.43795386 -0.40519708
vn 0.80250347 -0.4379539 -0.40519705
vn 0.8025034 -0.43795392 -0.40519705
vn -0.5048276 -0.2457415 -0.8275023
vn -0.5048276 -0.2457415 -0.8275024
vn -0.50482756 -0.24574147 -0.8275023
vn -0.5048276 -0.2457415 -0.8275023
vn -0.9090298 -0.113526605 0.40096956
vn -0.9090298 -0.11352658 0.40096948
vn -0.9090298 -0.1135266 0.40096948
vn -0.9090298 -0.11352658 0.4009695
g ore_07_COL_0
f 3/3/3 2/2/2 1/1/1
f 4/4/4 3/3/3 1/1/1
f 7/7/7 6/6/6 5/5/5
f 8/8/8 7/7/7 5/5/5
f 11/11/11 10/10/10 9/9/9
f 12/12/12 11/11/11 9/9/9
f 15/15/15 14/14/14 13/13/13
f 16/16/16 15/15/15 13/13/13
f 19/19/19 18/18/18 17/17/17
f 20/20/20 19/19/19 17/17/17
f 23/23/23 22/22/22 21/21/21
f 24/24/24 23/23/23 21/21/21
f 27/27/27 26/26/26 25/25/25
f 28/28/28 27/27/27 25/25/25
f 31/31/31 30/30/30 29/29/29
f 32/32/32 31/31/31 29/29/29
f 35/35/35 34/34/34 33/33/33
f 36/36/36 35/35/35 33/33/33
f 39/39/39 38/38/38 37/37/37
f 40/40/40 39/39/39 37/37/37
