g phosphor_DLC_wing_R
v -0.019559162 0.28089005 0.21728039
v -0.06449599 0.30342975 0.2078439
v -0.050956573 0.23973182 0.091247916
v -0.0279967 0.13171405 0.006780863
v -0.014790161 0.22055095 0.10960281
v -0.050956573 0.23973182 0.091247916
v 0.04280687 0.004893935 0.3351798
v 0.002213426 0.122226276 0.033188343
v -0.022531392 0.3110481 0.36247158
v -0.06449599 0.30342975 0.2078439
v -0.07104388 0.3342352 0.35883713
v -0.0279967 0.13171405 0.006780863
v -0.023896145 0.32136828 0.5200888
v -0.07324936 0.34461117 0.5195534
v 0.03380715 0.014406029 0.60712326
v -0.029100673 0.31669664 0.65276
v -0.07250902 0.34112817 0.6549113
v -0.034312986 0.29699323 0.78577185
v 0.030579148 0.024445709 0.61260056
v 0.017717207 0.07055118 0.7072376
v -0.007852051 0.036941 0.723928
v -0.0008746504 0.004114906 0.6368476
v -0.007852051 0.036941 0.723928
v -0.025063163 0.117912926 0.8010652
v 0.035962813 0.0032671476 0.6117946
v 0.09686482 -0.25956306 0.40892422
v -0.0012435392 0.14442909 0.7780832
v -0.025063163 0.117912926 0.8010652
v 0.09453717 -0.24795333 0.5060595
v 0.045578465 -0.055196837 0.68329954
v -0.0008746504 0.004114906 0.6368476
v 0.008984491 -0.042268686 0.7031127
v 0.054270156 -0.11591393 0.73778856
v 0.023078801 -0.108577244 0.75969064
v 0.08340741 -0.21515942 0.6229832
v 0.059156843 -0.1473457 0.7600105
v 0.034885224 -0.16412213 0.79535913
v 0.06497067 -0.16287434 0.729596
v 0.04134874 -0.19453053 0.7480171
v 0.053785667 -0.25304168 0.6334753
v 0.061263364 -0.28822148 0.5114207
v 0.0638283 -0.3002885 0.41051102
v 0.09677155 -0.25917518 0.31370163
v 0.061736796 -0.29044876 0.34571302
v 0.005839132 -0.1702596 0.729596
v 0.011316778 -0.23048276 0.6229832
v 0.053785667 -0.25304168 0.6334753
v 0.005888436 -0.15866826 0.7600105
v 0.023078801 -0.108577244 0.75969064
v -0.002431808 -0.1279663 0.73778856
v 0.008984491 -0.042268686 0.7031127
v -0.019187411 -0.068963245 0.68329954
v -0.0008746504 0.004114906 0.6368476
v -0.03418254 -0.011642708 0.6117946
v 0.014487706 -0.26496837 0.5060595
v 0.061263364 -0.28822148 0.5114207
v 0.017083379 -0.27652112 0.40892422
v 0.0638283 -0.3002885 0.41051102
v -0.036743842 -0.0005900478 0.60712326
v -0.0008746504 0.004114906 0.6368476
v 0.01701087 -0.27612883 0.31370163
v 0.061736796 -0.29044876 0.34571302
v -0.041096568 -0.012940291 0.3351798
v -0.10593121 0.29332092 0.36247158
v -0.037878394 0.009894608 0.61260056
v -0.007852051 0.036941 0.723928
v -0.108882025 0.30330396 0.5200888
v -0.07104388 0.3342352 0.35883713
v -0.06449599 0.30342975 0.2078439
v -0.096380085 0.26456124 0.21728039
v -0.07324936 0.34461117 0.5195534
v -0.102227345 0.3011531 0.65276
v -0.07250902 0.34112817 0.6549113
v -0.044881225 0.057245474 0.7072376
v -0.025063163 0.117912926 0.8010652
v -0.007852051 0.036941 0.723928
v -0.08945156 0.28527316 0.78577185
v -0.068619505 0.32282937 0.7917799
v -0.057608567 0.13244832 0.7780832
v -0.025063163 0.117912926 0.8010652
v -0.08305143 0.26845708 0.83501124
v -0.06412594 0.3016888 0.84996533
v -0.08009862 0.26031178 0.86164
v -0.058582667 0.27560967 0.89122605
v -0.075432986 0.2337299 0.84701693
v -0.04821813 0.22684845 0.8705807
v -0.025063163 0.117912926 0.8010652
v -0.068619505 0.32282937 0.7917799
v -0.033320077 0.27902782 0.83501124
v -0.06412594 0.3016888 0.84996533
v -0.032704614 0.2703857 0.86164
v -0.058582667 0.27560967 0.89122605
v -0.026155045 0.24420424 0.84701693
v -0.04821813 0.22684845 0.8705807
v -0.025063163 0.117912926 0.8010652
v 0.1155625 -0.36649773 0.34264457
v 0.08377025 -0.39410806 0.36982274
v 0.07611444 -0.35809013 0.36755264
v 0.11210397 -0.34912345 0.3379364
v 0.06777836 -0.31887197 0.35889947
v 0.11510947 -0.3671574 0.31431282
v 0.08377025 -0.39410806 0.36982274
v 0.08652397 -0.40706325 0.31360507
v 0.10686735 -0.31865937 0.33583295
v 0.061736796 -0.29044876 0.34571302
v 0.11258399 -0.3574918 0.26722312
v 0.08415987 -0.39594105 0.25883532
v 0.103580646 -0.31669465 0.17651045
v 0.074834354 -0.35206798 0.16144633
v 0.08524825 -0.23977098 0.08862913
v 0.05704168 -0.26835993 0.06639588
v 0.05453714 -0.122163996 0.02242577
v 0.028547255 0.0016541895 0.004753828
v 0.02968597 -0.13966145 -0.005417943
v 0.00056457863 -0.0026561522 -0.02505827
v -0.00013219938 -0.13378432 0.02242577
v 0.0196455 -0.25371528 0.08862913
v -0.026735432 -0.010096509 0.004753828
v -0.051735967 0.110758975 0.033188343
v -0.07619466 0.20749903 0.10960281
v 0.034185693 -0.331445 0.17651045
v 0.074834354 -0.35206798 0.16144633
v 0.05704168 -0.26835993 0.06639588
v 0.08415987 -0.39594105 0.25883532
v 0.031982288 -0.3345767 0.33583295
v 0.061736796 -0.29044876 0.34571302
v 0.06777836 -0.31887197 0.35889947
v 0.042586073 -0.3723703 0.26722312
v 0.08652397 -0.40706325 0.31360507
v 0.044185117 -0.38223282 0.31431282
v 0.03958922 -0.36453694 0.3379364
v 0.07611444 -0.35809013 0.36755264
v 0.043496475 -0.38181582 0.34264457
v 0.08377025 -0.39410806 0.36982274
v 0.08377025 -0.39410806 0.36982274
v -0.050956573 0.23973182 0.091247916
v -0.06449599 0.30342975 0.2078439
v -0.0279967 0.13171405 0.006780863
vt 0.19624677 0.56750894
vt 0.17132464 0.5924647
vt 0.07819638 0.46802178
vt 0.039051414 0.33226946
vt 0.10922253 0.4538166
vt 0.07819638 0.46802178
vt 0.45378962 0.41861096
vt 0.07303819 0.33155182
vt 0.33885837 0.680045
vt 0.17132464 0.5924647
vt 0.3181529 0.70859253
vt 0.039051414 0.33226946
vt 0.50053537 0.77841043
vt 0.48335496 0.8066755
vt 0.75755847 0.60151607
vt 0.63282394 0.8596877
vt 0.61712873 0.88873905
vt 0.77736986 0.93619305
vt 0.7534828 0.6130735
vt 0.80805707 0.727758
vt 0.8390932 0.7186036
vt 0.7858906 0.6133602
vt 0.8390932 0.7186036
vt 0.8717977 0.82005596
vt 0.7646198 0.5907137
vt 0.6468806 0.25494537
vt 0.8394239 0.8256354
vt 0.8717977 0.82005596
vt 0.7455462 0.32232004
vt 0.8641385 0.56055176
vt 0.7858906 0.6133602
vt 0.87787545 0.5873025
vt 0.94088125 0.5319882
vt 0.960533 0.5546632
vt 0.8535126 0.4113631
vt 0.951382 0.5215972
vt 0.97841233 0.5283783
vt 0.9433364 0.50265145
vt 0.97146213 0.48960146
vt 0.8753173 0.38751855
vt 0.76564157 0.29663882
vt 0.66785836 0.22734664
vt 0.55036676 0.18426879
vt 0.5908811 0.17404449
vt 0.9433364 0.50265145
vt 0.8535126 0.4113631
vt 0.8753173 0.38751855
vt 0.951382 0.5215972
vt 0.960533 0.5546632
vt 0.94088125 0.5319882
vt 0.87787545 0.5873025
vt 0.8641385 0.56055176
vt 0.7858906 0.6133602
vt 0.7646198 0.5907137
vt 0.7455462 0.32232004
vt 0.76564157 0.29663882
vt 0.6468806 0.25494537
vt 0.66785836 0.22734664
vt 0.75755847 0.60151607
vt 0.7858906 0.6133602
vt 0.55036676 0.18426879
vt 0.5908811 0.17404449
vt 0.45378962 0.41861096
vt 0.33885837 0.680045
vt 0.7534828 0.6130735
vt 0.8390932 0.7186036
vt 0.50053537 0.77841043
vt 0.3181529 0.70859253
vt 0.17132464 0.5924647
vt 0.19624677 0.56750894
vt 0.48335496 0.8066755
vt 0.63282394 0.8596877
vt 0.61712873 0.88873905
vt 0.80805707 0.727758
vt 0.8717977 0.82005596
vt 0.8390932 0.7186036
vt 0.77736986 0.93619305
vt 0.76622677 0.96714693
vt 0.8394239 0.8256354
vt 0.8717977 0.82005596
vt 0.83588326 0.9517576
vt 0.83951163 0.98108435
vt 0.845878 0.9496897
vt 0.863096 0.9717232
vt 0.85259676 0.93009245
vt 0.8830433 0.93796676
vt 0.8717977 0.82005596
vt 0.76622677 0.96714693
vt 0.83588326 0.9517576
vt 0.83951163 0.98108435
vt 0.845878 0.9496897
vt 0.863096 0.9717232
vt 0.85259676 0.93009245
vt 0.8830433 0.93796676
vt 0.8717977 0.82005596
vt 0.5980383 0.09387942
vt 0.62587214 0.08374287
vt 0.6267905 0.10967304
vt 0.5960289 0.10509656
vt 0.6147723 0.13934909
vt 0.5785043 0.082210496
vt 0.62587214 0.08374287
vt 0.59524345 0.054478303
vt 0.585665 0.12809199
vt 0.5908811 0.17404449
vt 0.52495146 0.071363434
vt 0.5306597 0.03608324
vt 0.4126862 0.059197653
vt 0.411016 0.024374947
vt 0.28898194 0.075008675
vt 0.27836925 0.041784063
vt 0.16947702 0.13321914
vt 0.096762866 0.22046816
vt 0.14855787 0.1053274
vt 0.06675327 0.20521337
vt 0.16947702 0.13321914
vt 0.28898194 0.075008675
vt 0.096762866 0.22046816
vt 0.07303819 0.33155182
vt 0.10922253 0.4538166
vt 0.4126862 0.059197653
vt 0.411016 0.024374947
vt 0.27836925 0.041784063
vt 0.5306597 0.03608324
vt 0.585665 0.12809199
vt 0.5908811 0.17404449
vt 0.6147723 0.13934909
vt 0.52495146 0.071363434
vt 0.59524345 0.054478303
vt 0.5785043 0.082210496
vt 0.5960289 0.10509656
vt 0.6267905 0.10967304
vt 0.5980383 0.09387942
vt 0.62587214 0.08374287
vt 0.62587214 0.08374287
vt 0.07819638 0.46802178
vt 0.17132464 0.5924647
vt 0.039051414 0.33226946
vn 0.93638253 0.34714845 -0.051727973
vn -0.19580579 0.921196 -0.33624092
vn -0.15677875 0.7375866 -0.65680003
vn -0.08808464 0.41440538 -0.9058197
vn 0.9414178 0.32119152 -0.10280261
vn -0.15677875 0.7375866 -0.65680003
vn 0.97814757 0.20791166 0
vn 0.9502361 0.27357474 -0.14902407
vn 0.94801795 0.3178521 -0.015229689
vn -0.19580579 0.921196 -0.33624092
vn -0.20607427 0.96950454 -0.13264325
vn -0.08808464 0.41440538 -0.9058197
vn 0.9490222 0.31519824 -0.0026333362
vn -0.2078532 0.97787195 -0.023740292
vn 0.9781692 0.20776545 0.0043098284
vn 0.95132154 0.30809402 0.008078946
vn -0.20727982 0.97517437 0.07790948
vn 0.93622065 0.35029563 0.027996818
vn 0.9884856 0.14816685 0.030705292
vn 0.9893281 0.13469116 0.055572443
vn 0.16611888 -0.78152806 0.6013472
vn 0.1854562 -0.8725018 0.45204735
vn 0.16611888 -0.78152806 0.6013472
vn 0.121390685 -0.5710954 0.81185865
vn 0.9680351 0.24765109 0.039710846
vn 0.9933868 0.11466447 0.0058983034
vn 0.9853945 0.12177413 0.11903299
vn 0.121390685 -0.5710954 0.81185865
vn 0.99774194 0.058822207 0.032419737
vn 0.94904536 0.30007035 0.09628475
vn 0.1854562 -0.8725018 0.45204735
vn -0.14693703 0.6912832 0.7074864
vn 0.9273753 0.327043 0.18170784
vn -0.11887067 0.5592457 0.8204352
vn 0.9959561 0.06690618 0.059958227
vn 0.5769915 -0.044815887 0.81551963
vn 0.040942747 -0.1926169 0.98041946
vn 0.98996115 -0.006706326 0.14118071
vn 0.17293876 -0.81361085 0.5550941
vn 0.1914856 -0.9008676 0.38957763
vn 0.20322903 -0.95611733 0.21103951
vn 0.20750701 -0.9762438 0.062361505
vn 0.98120075 0.19263393 0.011717408
vn 0.16581695 -0.7801097 0.60326904
vn -0.9016468 -0.40877995 0.1411807
vn -0.9370644 -0.34396994 0.059958223
vn 0.19148509 -0.9008678 0.38957766
vn -0.5088797 -0.2756249 0.81551963
vn -0.11887198 0.55924547 0.8204352
vn -0.98022 -0.07842884 0.18170787
vn -0.14693658 0.6912834 0.7074864
vn -0.98904574 -0.111883536 0.09628476
vn 0.18545575 -0.8725018 0.45204732
vn -0.9850729 -0.16749476 0.039710857
vn -0.9354077 -0.3520814 0.032419737
vn 0.20322903 -0.95611733 0.21103951
vn -0.9541423 -0.29929554 0.005898304
vn 0.20750704 -0.9762438 0.062361505
vn -0.97810787 -0.208054 0.0043098284
vn 0.18545575 -0.8725018 0.45204732
vn -0.97472274 -0.22311041 0.011717407
vn 0.16581787 -0.7801095 0.60326904
vn -0.97814757 -0.20791169 0
vn -0.99533963 -0.09522122 -0.015229691
vn -0.96329135 -0.2666961 0.030705288
vn 0.16611895 -0.78152806 0.6013472
vn -0.9951776 -0.09805412 -0.002633336
vn -0.20607477 0.9695044 -0.13264325
vn -0.1958067 0.9211959 -0.33624095
vn -0.996626 -0.06372512 -0.051727977
vn -0.20785302 0.97787195 -0.02374029
vn -0.99438864 -0.10547941 0.008078947
vn -0.20727982 0.97517437 0.07790948
vn -0.9585801 -0.27934942 0.055572443
vn 0.12138954 -0.5710957 0.81185865
vn 0.16611895 -0.78152806 0.6013472
vn -0.9977582 -0.060784142 0.02799682
vn -0.20427737 0.9610508 0.18615083
vn -0.94973266 -0.28954977 0.11903298
vn 0.12138954 -0.5710957 0.81185865
vn -0.9949603 -0.005807869 0.100101046
vn -0.18614216 0.8757347 0.4454661
vn -0.5048511 -0.026819704 0.86278975
vn -0.018892394 0.08888814 0.99586236
vn -0.8778748 -0.34828717 0.32868204
vn 0.090149134 -0.424122 0.9011069
vn 0.12138954 -0.5710957 0.81185865
vn -0.20427793 0.9610507 0.18615083
vn 0.9113037 0.39938104 0.100101046
vn -0.18614405 0.8757342 0.44546613
vn 0.47211295 0.18084037 0.86278975
vn -0.018895008 0.088887595 0.99586236
vn 0.9436397 0.038887624 0.32868204
vn 0.09015062 -0.42412168 0.9011069
vn 0.121390685 -0.5710954 0.81185865
vn 0.71937156 -0.46364334 0.51724213
vn 0.15781713 -0.7424718 0.6510218
vn 0.001946785 -0.00915276 0.99995625
vn 0.8852077 0.18406908 0.42723042
vn -0.050768696 0.23884979 0.96972847
vn 0.97057736 -0.23797606 -0.0367016
vn 0.15781713 -0.7424718 0.6510218
vn 0.20717409 -0.97467774 -0.084155925
vn 0.945489 0.25357187 0.20433293
vn 0.16581695 -0.7801097 0.60326904
vn 0.996714 -0.007840197 -0.08062129
vn 0.19470046 -0.915998 -0.35076976
vn 0.9890639 0.13995114 -0.046542127
vn 0.17218462 -0.8100671 -0.56048524
vn 0.9861221 0.14191546 -0.08615928
vn 0.12661627 -0.5956813 -0.79317856
vn 0.97638774 0.15601249 -0.14942193
vn 0.963426 0.21201992 -0.16388358
vn 0.0665946 -0.31330287 -0.94731545
vn -0.008878369 0.041768767 -0.9990878
vn -0.9554307 -0.25460818 -0.14942193
vn -0.9585895 -0.2714457 -0.086159274
vn -0.9663698 -0.1981708 -0.16388361
vn -0.97935677 -0.1365728 -0.14902408
vn -0.9906685 -0.08948598 -0.10280262
vn -0.9604782 -0.27443677 -0.046542127
vn 0.1721855 -0.810067 -0.56048524
vn 0.1266157 -0.5956814 -0.79317856
vn 0.19470224 -0.9159976 -0.35076976
vn -0.9668841 -0.15291554 0.20433293
vn 0.16581787 -0.7801095 0.60326904
vn -0.050769452 0.23884964 0.96972847
vn -0.90735465 -0.4125624 -0.080621295
vn 0.20717424 -0.97467774 -0.084155925
vn -0.78987294 -0.61217123 -0.036701597
vn -0.8835451 -0.19189088 0.4272304
vn 0.0019442859 -0.009153291 0.99995625
vn -0.46859792 -0.716154 0.51724213
vn 0.15781736 -0.74247175 0.6510217
vn 0.15781736 -0.74247175 0.6510217
vn -0.15677898 0.7375866 -0.65680003
vn -0.1958067 0.9211959 -0.33624095
vn -0.08808451 0.41440538 -0.9058197
g phosphor_DLC_wing_R_0
f 3/3/3 2/2/2 1/1/1
f 3/3/3 5/5/5 4/4/4
f 5/5/5 6/6/6 1/1/1
f 1/1/1 7/7/7 5/5/5
f 8/8/8 5/5/5 7/7/7
f 9/9/9 7/7/7 1/1/1
f 9/9/9 1/1/1 10/10/10
f 11/11/11 9/9/9 10/10/10
f 5/5/5 8/8/8 12/12/12
f 13/13/13 9/9/9 11/11/11
f 14/14/14 13/13/13 11/11/11
f 7/7/7 9/9/9 15/15/15
f 15/15/15 9/9/9 13/13/13
f 13/13/13 14/14/14 16/16/16
f 14/14/14 17/17/17 16/16/16
f 16/16/16 17/17/17 18/18/18
f 19/19/19 13/13/13 16/16/16
f 19/19/19 15/15/15 13/13/13
f 16/16/16 18/18/18 20/20/20
f 20/20/20 19/19/19 16/16/16
f 19/19/19 20/20/20 21/21/21
f 22/22/22 15/15/15 19/19/19
f 22/22/22 19/19/19 23/23/23
f 24/24/24 23/23/23 20/20/20
f 25/25/25 15/15/15 22/22/22
f 7/7/7 15/15/15 26/26/26
f 15/15/15 25/25/25 26/26/26
f 18/18/18 27/27/27 20/20/20
f 27/27/27 28/28/28 20/20/20
f 25/25/25 29/29/29 26/26/26
f 25/25/25 30/30/30 29/29/29
f 25/25/25 31/31/31 30/30/30
f 31/31/31 32/32/32 30/30/30
f 30/30/30 32/32/32 33/33/33
f 32/32/32 34/34/34 33/33/33
f 30/30/30 35/35/35 29/29/29
f 30/30/30 33/33/33 35/35/35
f 33/33/33 34/34/34 36/36/36
f 34/34/34 37/37/37 36/36/36
f 36/36/36 38/38/38 33/33/33
f 33/33/33 38/38/38 35/35/35
f 36/36/36 37/37/37 38/38/38
f 38/38/38 39/39/39 35/35/35
f 37/37/37 39/39/39 38/38/38
f 35/35/35 40/40/40 29/29/29
f 39/39/39 40/40/40 35/35/35
f 40/40/40 41/41/41 29/29/29
f 29/29/29 41/41/41 26/26/26
f 41/41/41 42/42/42 26/26/26
f 26/26/26 42/42/42 43/43/43
f 42/42/42 44/44/44 43/43/43
f 7/7/7 26/26/26 43/43/43
f 39/39/39 37/37/37 45/45/45
f 39/39/39 45/45/45 46/46/46
f 47/47/47 39/39/39 46/46/46
f 37/37/37 48/48/48 45/45/45
f 37/37/37 49/49/49 48/48/48
f 45/45/45 48/48/48 50/50/50
f 49/49/49 50/50/50 48/48/48
f 45/45/45 50/50/50 46/46/46
f 49/49/49 51/51/51 50/50/50
f 51/51/51 52/52/52 50/50/50
f 50/50/50 52/52/52 46/46/46
f 51/51/51 53/53/53 52/52/52
f 53/53/53 54/54/54 52/52/52
f 47/47/47 46/46/46 55/55/55
f 46/46/46 52/52/52 55/55/55
f 52/52/52 54/54/54 55/55/55
f 56/56/56 47/47/47 55/55/55
f 56/56/56 55/55/55 57/57/57
f 55/55/55 54/54/54 57/57/57
f 58/58/58 56/56/56 57/57/57
f 54/54/54 59/59/59 57/57/57
f 59/59/59 54/54/54 60/60/60
f 58/58/58 57/57/57 61/61/61
f 62/62/62 58/58/58 61/61/61
f 59/59/59 63/63/63 57/57/57
f 57/57/57 63/63/63 61/61/61
f 64/64/64 63/63/63 59/59/59
f 59/59/59 60/60/60 65/65/65
f 65/65/65 60/60/60 66/66/66
f 64/64/64 59/59/59 67/67/67
f 59/59/59 65/65/65 67/67/67
f 64/64/64 67/67/67 68/68/68
f 64/64/64 68/68/68 69/69/69
f 70/70/70 64/64/64 69/69/69
f 63/63/63 64/64/64 70/70/70
f 67/67/67 71/71/71 68/68/68
f 71/71/71 67/67/67 72/72/72
f 67/67/67 65/65/65 72/72/72
f 73/73/73 71/71/71 72/72/72
f 65/65/65 74/74/74 72/72/72
f 66/66/66 75/75/75 74/74/74
f 74/74/74 65/65/65 76/76/76
f 73/73/73 72/72/72 77/77/77
f 77/77/77 72/72/72 74/74/74
f 78/78/78 73/73/73 77/77/77
f 79/79/79 77/77/77 74/74/74
f 80/80/80 79/79/79 74/74/74
f 78/78/78 77/77/77 81/81/81
f 81/81/81 77/77/77 79/79/79
f 82/82/82 78/78/78 81/81/81
f 82/82/82 81/81/81 83/83/83
f 84/84/84 82/82/82 83/83/83
f 85/85/85 83/83/83 81/81/81
f 83/83/83 85/85/85 84/84/84
f 85/85/85 81/81/81 79/79/79
f 85/85/85 86/86/86 84/84/84
f 86/86/86 85/85/85 79/79/79
f 87/87/87 86/86/86 79/79/79
f 73/73/73 88/88/88 18/18/18
f 18/18/18 88/88/88 89/89/89
f 88/88/88 90/90/90 89/89/89
f 18/18/18 89/89/89 27/27/27
f 89/89/89 90/90/90 91/91/91
f 90/90/90 92/92/92 91/91/91
f 91/91/91 93/93/93 89/89/89
f 93/93/93 91/91/91 92/92/92
f 89/89/89 93/93/93 27/27/27
f 94/94/94 93/93/93 92/92/92
f 93/93/93 94/94/94 27/27/27
f 94/94/94 95/95/95 27/27/27
f 98/98/98 97/97/97 96/96/96
f 99/99/99 98/98/98 96/96/96
f 100/100/100 98/98/98 99/99/99
f 96/96/96 101/101/101 99/99/99
f 96/96/96 102/102/102 101/101/101
f 102/102/102 103/103/103 101/101/101
f 104/104/104 100/100/100 99/99/99
f 99/99/99 101/101/101 104/104/104
f 100/100/100 104/104/104 105/105/105
f 104/104/104 43/43/43 105/105/105
f 101/101/101 103/103/103 106/106/106
f 101/101/101 106/106/106 104/104/104
f 103/103/103 107/107/107 106/106/106
f 104/104/104 106/106/106 108/108/108
f 108/108/108 106/106/106 107/107/107
f 43/43/43 104/104/104 108/108/108
f 109/109/109 108/108/108 107/107/107
f 43/43/43 108/108/108 110/110/110
f 108/108/108 109/109/109 110/110/110
f 7/7/7 43/43/43 110/110/110
f 109/109/109 111/111/111 110/110/110
f 7/7/7 110/110/110 112/112/112
f 110/110/110 111/111/111 112/112/112
f 113/113/113 7/7/7 112/112/112
f 8/8/8 7/7/7 113/113/113
f 111/111/111 114/114/114 112/112/112
f 113/113/113 112/112/112 114/114/114
f 8/8/8 113/113/113 115/115/115
f 115/115/115 113/113/113 114/114/114
f 12/12/12 8/8/8 115/115/115
f 114/114/114 111/111/111 116/116/116
f 111/111/111 117/117/117 116/116/116
f 118/118/118 115/115/115 114/114/114
f 116/116/116 118/118/118 114/114/114
f 119/119/119 12/12/12 115/115/115
f 118/118/118 119/119/119 115/115/115
f 119/119/119 120/120/120 12/12/12
f 63/63/63 118/118/118 116/116/116
f 63/63/63 119/119/119 118/118/118
f 117/117/117 63/63/63 116/116/116
f 120/120/120 119/119/119 63/63/63
f 63/63/63 70/70/70 120/120/120
f 6/6/6 120/120/120 70/70/70
f 61/61/61 63/63/63 117/117/117
f 121/121/121 61/61/61 117/117/117
f 122/122/122 121/121/121 117/117/117
f 123/123/123 122/122/122 117/117/117
f 121/121/121 122/122/122 124/124/124
f 125/125/125 61/61/61 121/121/121
f 61/61/61 125/125/125 126/126/126
f 125/125/125 127/127/127 126/126/126
f 128/128/128 121/121/121 124/124/124
f 128/128/128 125/125/125 121/121/121
f 124/124/124 129/129/129 128/128/128
f 129/129/129 130/130/130 128/128/128
f 128/128/128 130/130/130 125/125/125
f 127/127/127 125/125/125 131/131/131
f 130/130/130 131/131/131 125/125/125
f 132/132/132 127/127/127 131/131/131
f 132/132/132 131/131/131 133/133/133
f 130/130/130 133/133/133 131/131/131
f 134/134/134 132/132/132 133/133/133
f 135/135/135 133/133/133 130/130/130
f 103/103/103 135/135/135 130/130/130
f 137/137/137 136/136/136 70/70/70
f 120/120/120 136/136/136 138/138/138
