g pillar_y16_deco_COL
v -2.546192 -1.0801077 0.5
v -0.5 -3.8249922 0.5
v -0.5 -5.25 0.5
v -2.829005 -5.1079063 0.5
v -0.5 -6.8222723 0.5
v -1.2229561 -6.675008 0.5
v -0.5 -3.8249922 0.5
v -2.546192 -1.0801077 0.5
v -2.546192 -1.0801086 -0.4999997
v -0.5 -3.8249922 -0.49999988
v -0.5 -5.25 -0.5
v -2.829005 -5.1079063 -0.49999985
v -1.2229561 -6.675008 -0.5
v -0.5 -6.8222723 -0.5
v -0.5 -6.8222723 0.5
v -1.2229561 -6.675008 0.5
v -2.829005 -5.1079063 0.5
v -2.829005 -5.1079063 0.5
v -2.829005 -5.1079063 -0.49999985
v -6.6750107 -1.1952248 -0.49999997
v -6.6750107 -1.1952248 0.5
v -6.8252015 -0.16108608 0.5
v -2.546192 -1.0801077 0.5
v -5.5354805 1.4188309 0.5
v -2.546192 -1.0801086 -0.4999997
v -5.5354805 1.4188309 -0.5
v -6.6750107 1.4188309 0.5
v -6.6750107 1.4188309 -0.5
v -6.8252063 -0.16108608 -0.49999994
v -6.6750107 -1.1952248 0.5
v -6.8252063 -0.16108608 -0.49999994
v -6.8252015 -0.16108608 0.5
v -6.8252063 -0.16108608 -0.49999994
v -5.5354805 1.4188309 -0.5
v -6.6750107 1.4188309 -0.5
v -2.546192 -1.0801086 -0.4999997
v -2.829005 -5.1079063 -0.49999985
v -6.6750107 -1.1952248 -0.49999997
vt 0.41837025 0.30550373
vt 0.6206409 0.44376463
vt 0.7724011 0.44040444
vt 0.6599512 0.29239887
vt 0.9241613 0.4411987
vt 0.902643 0.38667566
vt 0.6206409 0.44376463
vt 0.41837025 0.30550373
vt 0.41837025 0.30550373
vt 0.6206409 0.44376463
vt 0.7724011 0.44040444
vt 0.6599512 0.29239887
vt 0.902643 0.38667566
vt 0.9241613 0.4411987
vt 0.9241613 0.4411987
vt 0.902643 0.38667566
vt 0.6599512 0.29239887
vt 0.23479168 0.26905623
vt 0.23479168 0.26905623
vt 0.06842989 0.26943886
vt 0.06842989 0.26943886
vt 0.082853526 0.39044213
vt 0.32359484 0.3403461
vt 0.118798375 0.40000004
vt 0.32359484 0.34034926
vt 0.118798375 0.40000004
vt 0.068429574 0.40000004
vt 0.068429574 0.40000004
vt 0.08285299 0.38566318
vt 0.06842989 0.26943886
vt 0.08285299 0.38566318
vt 0.082853526 0.39044213
vt 0.08285299 0.38566318
vt 0.118798375 0.40000004
vt 0.068429574 0.40000004
vt 0.32359484 0.34034926
vt 0.23479168 0.26905623
vt 0.06842989 0.26943886
vn 0.0076448508 0.02348988 0.9996948
vn -0 0.009426731 0.99995553
vn -0 0 1
vn -0.020901615 -0.020901475 0.99956304
vn -0.003098983 -0.011016753 0.99993455
vn -0.008739722 -0.0087405965 0.9999236
vn -0 0.009426731 0.99995553
vn 0.0076448508 0.02348988 0.9996948
vn 0.008752118 0.008743331 -0.99992347
vn -0 0.009426811 -0.99995553
vn -0 0 -1
vn -0.022837333 -0.0039029152 -0.9997316
vn -0.008739722 -0.0087405965 -0.9999236
vn -0 -0.009426732 -0.99995553
vn -0.003098983 -0.011016753 0.99993455
vn -0.008739722 -0.0087405965 0.9999236
vn -0.020901615 -0.020901475 0.99956304
vn -0.020901615 -0.020901475 0.99956304
vn -0.022837333 -0.0039029152 -0.9997316
vn -0.020901572 -0.02090167 -0.99956304
vn -0.020901782 -0.02090168 0.99956304
vn -0.022859167 0.003908361 0.999731
vn 0.0076448508 0.02348988 0.9996948
vn -0 0.029562362 0.9995629
vn 0.008752118 0.008743331 -0.99992347
vn -0 0.012355255 -0.9999237
vn -0.020941194 0.020920604 0.9995617
vn -0.008752483 0.008743894 -0.99992347
vn -0.014061691 0 -0.9999012
vn -0.020901782 -0.02090168 0.99956304
vn -0.014061691 0 -0.9999012
vn -0.022859167 0.003908361 0.999731
vn -0.014061691 0 -0.9999012
vn -0 0.012355255 -0.9999237
vn -0.008752483 0.008743894 -0.99992347
vn 0.008752118 0.008743331 -0.99992347
vn -0.022837333 -0.0039029152 -0.9997316
vn -0.020901572 -0.02090167 -0.99956304
g pillar_y16_deco_COL_0
f 3/3/3 2/2/2 1/1/1
f 4/4/4 3/3/3 1/1/1
f 3/3/3 4/4/4 5/5/5
f 4/4/4 6/6/6 5/5/5
f 9/9/9 8/8/8 7/7/7
f 10/10/10 9/9/9 7/7/7
f 9/9/9 10/10/10 11/11/11
f 12/12/12 9/9/9 11/11/11
f 13/13/13 12/12/12 11/11/11
f 14/14/14 13/13/13 11/11/11
f 14/14/14 15/15/15 13/13/13
f 15/15/15 16/16/16 13/13/13
f 12/12/12 13/13/13 16/16/16
f 17/17/17 12/12/12 16/16/16
f 20/20/20 19/19/19 18/18/18
f 21/21/21 20/20/20 18/18/18
f 22/22/22 21/21/21 18/18/18
f 23/23/23 22/22/22 18/18/18
f 22/22/22 23/23/23 24/24/24
f 24/24/24 23/23/23 25/25/25
f 26/26/26 24/24/24 25/25/25
f 27/27/27 24/24/24 26/26/26
f 27/27/27 22/22/22 24/24/24
f 28/28/28 27/27/27 26/26/26
f 27/27/27 28/28/28 22/22/22
f 28/28/28 29/29/29 22/22/22
f 31/31/31 20/20/20 30/30/30
f 32/32/32 31/31/31 30/30/30
f 35/35/35 34/34/34 33/33/33
f 34/34/34 36/36/36 33/33/33
f 36/36/36 37/37/37 33/33/33
f 37/37/37 38/38/38 33/33/33
