g pillarCapsuleSm01
v -0.48303086 16.598238 0.58041996
v -0.25394395 16.738604 0.30514655
v -0.02608507 16.738604 0.3961329
v -0.04961534 16.598238 0.7534864
v -0.66483504 16.379612 0.79887944
v 0.21173719 16.738604 0.3358106
v -0.06828965 16.379612 1.037085
v -0.7815587 16.104128 0.93913823
v 0.40274552 16.598238 0.63874763
v 0.368683 16.738604 0.14722173
v -0.080281846 16.104128 1.21917
v -0.82178086 15.798751 0.98747075
v 0.5543349 16.379612 0.8791651
v 0.70127577 16.598238 0.2800318
v 0.38480607 16.738604 -0.097600035
v -0.08441271 15.798751 1.2819091
v -0.82178086 -6 0.98747075
v -0.08441271 -6 1.2819091
v 0.6516615 16.104128 1.0335157
v 0.68519425 15.798751 1.0867018
v 0.68519425 -6 1.0867018
v 0.96522534 16.379612 0.38542733
v 0.73194164 16.598238 -0.18564935
v 0.25394422 16.738604 -0.30514398
v 1.1346883 16.104128 0.45309576
v 1.1930842 15.798751 0.47641364
v 1.1930842 -6 0.47641364
v 1.00743 16.379612 -0.2555273
v 0.48303115 16.598238 -0.58041984
v 0.02608534 16.738604 -0.3961303
v 1.184305 16.104128 -0.30039057
v 1.2452546 15.798751 -0.31584954
v 1.2452546 -6 -0.31584954
v 0.66483533 16.379612 -0.7988769
v 0.049618058 16.598238 -0.7534862
v -0.21173447 16.738604 -0.33581045
v 0.78155833 16.104128 -0.9391381
v 0.8217805 15.798751 -0.9874682
v 0.8217805 -6 -0.9874682
v 0.06829237 16.379612 -1.0370873
v -0.4027452 16.598238 -0.63874745
v -0.36868516 16.738604 -0.14722162
v 0.080282114 16.104128 -1.2191674
v 0.08441541 15.798751 -1.2819091
v 0.08441541 -6 -1.2819091
v -0.5543346 16.379612 -0.87916005
v -0.70127547 16.598238 -0.28002924
v -0.3848033 16.738604 0.09760259
v -0.6516588 16.104128 -1.0335156
v -0.6851939 15.798751 -1.0867015
v -0.6851939 -6 -1.0867015
v -0.9652232 16.379612 -0.38542715
v -0.731942 16.598238 0.18565191
v -0.25394395 16.738604 0.30514655
v -0.48303086 16.598238 0.58041996
v -1.0074302 16.379612 0.25552985
v -0.66483504 16.379612 0.79887944
v -1.1346885 16.104128 -0.45309561
v -1.1930821 15.798751 -0.4764135
v -1.1930821 -6 -0.4764135
v -1.1843077 16.104128 0.30039066
v -0.7815587 16.104128 0.93913823
v -1.245255 15.798751 0.31584966
v -1.2452501 -6 0.31584966
v -0.82178086 15.798751 0.98747075
v -0.82178086 -6 0.98747075
v -0.36868516 16.738604 -0.14722162
v 1.357465E-06 16.78697 5.857886E-08
v -0.3848033 16.738604 0.09760259
v -0.21173447 16.738604 -0.33581045
v -0.25394395 16.738604 0.30514655
v 0.02608534 16.738604 -0.3961303
v -0.02608507 16.738604 0.3961329
v 0.25394422 16.738604 -0.30514398
v 0.21173719 16.738604 0.3358106
v 0.38480607 16.738604 -0.097600035
v 0.368683 16.738604 0.14722173
vt 0.18667287 0.68377334
vt 0.18667287 0.7517995
vt 0.26934448 0.7517995
vt 0.26934463 0.68377334
vt 0.18667287 0.6344436
vt 0.3520163 0.7517995
vt 0.26934463 0.6344436
vt 0.18667287 0.5722845
vt 0.35201636 0.68377334
vt 0.43468812 0.7517995
vt 0.26934463 0.5722845
vt 0.18667287 0.50338084
vt 0.3520164 0.6344436
vt 0.43468818 0.68377334
vt 0.51736 0.7517995
vt 0.26934466 0.50338084
vt 0.1866729 -1.157852
vt 0.26934466 -1.157852
vt 0.3520164 0.5722845
vt 0.3520164 0.50338084
vt 0.35201645 -1.157852
vt 0.4346882 0.6344436
vt 0.51736 0.68377334
vt 0.6000319 0.7517995
vt 0.4346882 0.5722845
vt 0.4346882 0.50338084
vt 0.43468818 -1.157852
vt 0.51736 0.6344436
vt 0.60003185 0.68377334
vt 0.68270373 0.7517995
vt 0.51736003 0.5722845
vt 0.51736 0.50338084
vt 0.51736003 -1.157852
vt 0.60003185 0.6344436
vt 0.6827036 0.68377334
vt 0.7653755 0.7517995
vt 0.60003185 0.5722845
vt 0.60003185 0.50338084
vt 0.60003173 -1.157852
vt 0.6827036 0.6344436
vt 0.7653754 0.68377334
vt 0.84804726 0.7517995
vt 0.6827036 0.5722845
vt 0.6827036 0.50338084
vt 0.68270355 -1.157852
vt 0.7653754 0.6344436
vt 0.8480472 0.68377334
vt 0.9307189 0.7517995
vt 0.7653754 0.5722845
vt 0.7653754 0.50338084
vt 0.7653754 -1.157852
vt 0.8480472 0.6344436
vt 0.9307189 0.68377334
vt 1.0133907 0.7517995
vt 1.0133907 0.68377334
vt 0.9307189 0.6344436
vt 1.0133907 0.6344436
vt 0.8480472 0.5722845
vt 0.8480472 0.50338084
vt 0.84804714 -1.157852
vt 0.9307189 0.5722845
vt 1.0133907 0.5722845
vt 0.9307189 0.50338084
vt 0.9307189 -1.157852
vt 1.0133907 0.50338084
vt 1.0133907 -1.157852
vt 0.6133504 0.85376745
vt 0.5622518 0.93015105
vt 0.6449309 0.90097517
vt 0.5622518 0.83966357
vt 0.6449309 0.9593268
vt 0.51115334 0.85376745
vt 0.6133504 1.0065346
vt 0.4795727 0.90097517
vt 0.5622518 1.0245662
vt 0.4795727 0.9593268
vt 0.51115334 1.0065346
vn -0.34189686 0.8451761 0.4108331
vn -0.20401673 0.94777495 0.24515288
vn -0.020956587 0.94777447 0.31825182
vn -0.035120457 0.8451757 0.5333335
vn -0.48290643 0.6558084 0.580273
vn 0.1701084 0.94777495 0.2697886
vn -0.049604874 0.6558086 0.7532957
vn -0.59525955 0.36611864 0.71527845
vn 0.2850709 0.8451769 0.45211795
vn 0.29619718 0.94777524 0.118276425
vn -0.061146192 0.36611587 0.92855823
vn -0.6396712 0.0026671041 0.7686441
vn 0.40264487 0.65580726 0.63858736
vn 0.4963761 0.8451763 0.19821148
vn 0.3091503 0.94777524 -0.0784108
vn -0.06570493 0.0026670934 0.9978356
vn -0.6396734 0 0.76864684
vn -0.06570514 0 0.99783915
vn 0.49632767 0.36611354 0.78715926
vn 0.5333546 0.0026670685 0.8458876
vn 0.5333564 0 0.8458906
vn 0.7011001 0.65580654 0.279958
vn 0.51808316 0.845176 -0.13140567
vn 0.20401669 0.94777566 -0.24514984
vn 0.8642165 0.36611673 0.34509182
vn 0.92869246 0.0026671647 0.3708412
vn 0.9286957 0 0.37084255
vn 0.731757 0.6558069 -0.18560487
vn 0.34189838 0.8451763 -0.4108314
vn 0.020956766 0.94777495 -0.31825066
vn 0.90200496 0.36611947 -0.2287875
vn 0.9693025 0.0026672191 -0.24585706
vn 0.96930593 0 -0.24585795
vn 0.48290935 0.6558074 -0.5802717
vn 0.035120055 0.8451762 -0.53333265
vn -0.17010684 0.9477747 -0.26979005
vn 0.5952593 0.36611798 -0.715279
vn 0.63967144 0.002667174 -0.76864386
vn 0.6396737 0 -0.7686466
vn 0.049604528 0.65580773 -0.7532965
vn -0.28507158 0.8451761 -0.45211887
vn -0.29619756 0.9477747 -0.11827922
vn 0.061144724 0.36611643 -0.928558
vn 0.065707214 0.0026671293 -0.99783534
vn 0.06570743 0 -0.9978389
vn -0.40264615 0.65580785 -0.6385861
vn -0.49637663 0.8451758 -0.19821206
vn -0.3091491 0.9477755 0.07841286
vn -0.4963249 0.36611527 -0.7871602
vn -0.53335434 0.0026671018 -0.8458878
vn -0.53335625 0 -0.84589076
vn -0.7010979 0.65580845 -0.27995896
vn -0.51808286 0.8451762 0.1314053
vn -0.20401673 0.94777495 0.24515288
vn -0.34189686 0.8451761 0.4108331
vn -0.73175544 0.6558086 0.18560417
vn -0.48290643 0.6558084 0.580273
vn -0.8642158 0.36611682 -0.3450936
vn -0.9286929 0.002667057 -0.3708402
vn -0.92869616 0 -0.37084147
vn -0.90200603 0.36611816 0.22878543
vn -0.59525955 0.36611864 0.71527845
vn -0.9693029 0.0026670457 0.24585511
vn -0.96930635 0 0.24585602
vn -0.6396712 0.0026671041 0.7686441
vn -0.6396734 0 0.76864684
vn -0.29619756 0.9477747 -0.11827922
vn 1.0104198E-07 1 7.971089E-07
vn -0.3091491 0.9477755 0.07841286
vn -0.17010684 0.9477747 -0.26979005
vn -0.20401673 0.94777495 0.24515288
vn 0.020956766 0.94777495 -0.31825066
vn -0.020956587 0.94777447 0.31825182
vn 0.20401669 0.94777566 -0.24514984
vn 0.1701084 0.94777495 0.2697886
vn 0.3091503 0.94777524 -0.0784108
vn 0.29619718 0.94777524 0.118276425
g pillarCapsuleSm01_0
f 3/3/3 2/2/2 1/1/1
f 4/4/4 3/3/3 1/1/1
f 4/4/4 1/1/1 5/5/5
f 6/6/6 3/3/3 4/4/4
f 7/7/7 4/4/4 5/5/5
f 7/7/7 5/5/5 8/8/8
f 9/9/9 6/6/6 4/4/4
f 9/9/9 4/4/4 7/7/7
f 10/10/10 6/6/6 9/9/9
f 11/11/11 7/7/7 8/8/8
f 11/11/11 8/8/8 12/12/12
f 13/13/13 9/9/9 7/7/7
f 13/13/13 7/7/7 11/11/11
f 14/14/14 10/10/10 9/9/9
f 14/14/14 9/9/9 13/13/13
f 15/15/15 10/10/10 14/14/14
f 16/16/16 11/11/11 12/12/12
f 12/12/12 17/17/17 16/16/16
f 17/17/17 18/18/18 16/16/16
f 19/19/19 13/13/13 11/11/11
f 19/19/19 11/11/11 16/16/16
f 16/16/16 18/18/18 20/20/20
f 20/20/20 19/19/19 16/16/16
f 18/18/18 21/21/21 20/20/20
f 22/22/22 14/14/14 13/13/13
f 22/22/22 13/13/13 19/19/19
f 23/23/23 15/15/15 14/14/14
f 23/23/23 14/14/14 22/22/22
f 24/24/24 15/15/15 23/23/23
f 25/25/25 19/19/19 20/20/20
f 25/25/25 22/22/22 19/19/19
f 20/20/20 21/21/21 26/26/26
f 26/26/26 25/25/25 20/20/20
f 21/21/21 27/27/27 26/26/26
f 28/28/28 23/23/23 22/22/22
f 28/28/28 22/22/22 25/25/25
f 29/29/29 24/24/24 23/23/23
f 29/29/29 23/23/23 28/28/28
f 30/30/30 24/24/24 29/29/29
f 31/31/31 25/25/25 26/26/26
f 31/31/31 28/28/28 25/25/25
f 26/26/26 27/27/27 32/32/32
f 32/32/32 31/31/31 26/26/26
f 27/27/27 33/33/33 32/32/32
f 34/34/34 29/29/29 28/28/28
f 34/34/34 28/28/28 31/31/31
f 35/35/35 30/30/30 29/29/29
f 35/35/35 29/29/29 34/34/34
f 36/36/36 30/30/30 35/35/35
f 37/37/37 31/31/31 32/32/32
f 37/37/37 34/34/34 31/31/31
f 32/32/32 33/33/33 38/38/38
f 38/38/38 37/37/37 32/32/32
f 33/33/33 39/39/39 38/38/38
f 40/40/40 35/35/35 34/34/34
f 40/40/40 34/34/34 37/37/37
f 41/41/41 36/36/36 35/35/35
f 41/41/41 35/35/35 40/40/40
f 42/42/42 36/36/36 41/41/41
f 43/43/43 37/37/37 38/38/38
f 43/43/43 40/40/40 37/37/37
f 38/38/38 39/39/39 44/44/44
f 44/44/44 43/43/43 38/38/38
f 39/39/39 45/45/45 44/44/44
f 46/46/46 41/41/41 40/40/40
f 46/46/46 40/40/40 43/43/43
f 47/47/47 42/42/42 41/41/41
f 47/47/47 41/41/41 46/46/46
f 48/48/48 42/42/42 47/47/47
f 49/49/49 43/43/43 44/44/44
f 49/49/49 46/46/46 43/43/43
f 44/44/44 45/45/45 50/50/50
f 50/50/50 49/49/49 44/44/44
f 45/45/45 51/51/51 50/50/50
f 52/52/52 47/47/47 46/46/46
f 52/52/52 46/46/46 49/49/49
f 53/53/53 48/48/48 47/47/47
f 53/53/53 47/47/47 52/52/52
f 54/54/54 48/48/48 53/53/53
f 55/55/55 54/54/54 53/53/53
f 55/55/55 53/53/53 56/56/56
f 56/56/56 53/53/53 52/52/52
f 57/57/57 55/55/55 56/56/56
f 58/58/58 52/52/52 49/49/49
f 58/58/58 49/49/49 50/50/50
f 56/56/56 52/52/52 58/58/58
f 50/50/50 51/51/51 59/59/59
f 59/59/59 58/58/58 50/50/50
f 51/51/51 60/60/60 59/59/59
f 57/57/57 56/56/56 61/61/61
f 61/61/61 56/56/56 58/58/58
f 61/61/61 58/58/58 59/59/59
f 62/62/62 57/57/57 61/61/61
f 59/59/59 60/60/60 63/63/63
f 63/63/63 61/61/61 59/59/59
f 62/62/62 61/61/61 63/63/63
f 60/60/60 64/64/64 63/63/63
f 65/65/65 62/62/62 63/63/63
f 63/63/63 64/64/64 65/65/65
f 64/64/64 66/66/66 65/65/65
f 69/69/69 68/68/68 67/67/67
f 67/67/67 68/68/68 70/70/70
f 71/71/71 68/68/68 69/69/69
f 70/70/70 68/68/68 72/72/72
f 73/73/73 68/68/68 71/71/71
f 72/72/72 68/68/68 74/74/74
f 75/75/75 68/68/68 73/73/73
f 74/74/74 68/68/68 76/76/76
f 77/77/77 68/68/68 75/75/75
f 76/76/76 68/68/68 77/77/77
