g planeTree
v -0.4262106 0.9910435 0.44286516
v 0.27580735 0.88950306 -0.7019023
v 0.35836026 1.4153221 0.09422259
v -0.6446817 0.589511 -0.44763443
v -1.077475 0.44486654 0.884069
v 0.32656094 0.2417856 -1.4054658
v -1.1600279 -0.08095245 0.08794414
v -0.45800993 -0.18249291 -1.0568233
v -1.1092743 -0.7286699 -0.6156194
v 0.97513336 0.6346316 -0.07943573
v -0.24124962 1.0209521 -0.5093207
v 0.6262659 0.9590479 -0.9101951
v 0.1363684 0.88261807 0.40731218
v 1.2958028 0.1277085 0.6671001
v -1.1369632 0.90034986 -0.1926699
v 0.42828724 0.1896128 1.0679744
v -0.7880957 0.5759334 0.6380894
v -0.46742633 0.06901037 1.3846252
v -0.012525748 0.78453326 0.86272997
v -0.90671927 0.71944535 -0.14216493
v -0.34202626 1.4064059 0.2132538
v -0.7314249 0.12363959 0.64284134
v 0.46821797 0.13709454 1.3792801
v -1.320169 0.0069186683 -0.63050973
v -0.09647502 -0.549866 1.0238614
v -0.99066854 -0.61495394 0.018966483
v -0.5099248 -1.2623928 0.5355166
v -1.1038188 0.12992911 -0.3530648
v -0.21499637 -0.73311514 -0.88106245
v -0.78002113 -0.046625085 -1.236863
v -0.682735 -0.7052483 0.0034665293
v -1.2864414 0.45231378 0.53001654
v 0.49120358 -1.2737746 -0.52597886
v -0.72141665 -0.23417626 0.8858171
v 0.16740583 -1.0972205 0.35781935
v -0.0152167315 -0.7748358 1.2409008
v -0.32242504 1.1133698 -0.12806997
v 0.52691555 0.4517903 -0.9371221
v 0.5667329 1.2729391 -0.4459555
v -0.45901692 0.37028897 -0.78466797
v -1.1166681 0.8772325 0.35206828
v 0.58201313 -0.44592637 -1.2660359
v -1.1564854 0.056083746 -0.13909827
v -0.30714485 -0.6054957 -0.9481504
v -1.1013879 -0.84163296 -0.46801212
v 0.60890794 0.8446931 0.52504945
v 0.75935274 0.45931962 -0.7565456
v 1.3508137 0.561811 -0.010365343
v 0.022108003 0.9404838 -0.28020668
v -0.13756928 0.93310314 1.1184051
v 0.16332029 0.16235603 -1.444785
v -0.72903025 0.83061177 0.37222487
v -0.5785855 0.44523817 -0.9093702
v -1.3250626 0.53364813 -0.3160145
v -0.0015765427 -0.55402845 1.026159
v 1.0944606 -0.097439475 0.39065817
v 0.8283182 -0.9442052 0.7502016
v 0.33524582 0.3709432 0.8447045
v -0.9007929 -0.24055488 1.1274494
v 1.2912815 0.67262304 -0.14355235
v -0.6346504 0.6062109 0.76790595
v 0.46138683 1.0627998 0.13240509
v -0.43782955 1.3762734 0.23369545
v 0.113864556 0.79117477 0.84913456
v 1.0786452 0.4426377 -0.023420487
v 1.018041 0.48650005 0.9313144
v 0.22107865 0.9469598 -0.13381179
v -0.83602643 0.9000382 0.79462427
v 1.0935348 0.20296413 -0.95048594
v -0.7754223 0.85617584 -0.16011061
v 0.18935837 0.5076388 -1.0326657
v -0.76053256 0.6165022 -1.0871761
v -1.0861739 0.25522527 -0.33917317
v -0.08877377 1.1474433 -0.18826917
v -0.98277575 1.0737604 0.14706191
v -0.24351159 0.4167773 -0.8547006
v -1.1392192 -0.64949054 -0.6486742
v 0.85558116 1.1349454 -0.34686622
v -0.24521734 -0.5758076 -0.9840053
v 0.75218284 0.3164104 -0.8331012
v 0.6991376 -0.5883054 -1.1426023
v 1.0343872 0.5267544 -0.111915916
v 0.75091773 -0.72486556 -0.52023524
v 1.4235857 -0.3351408 0.039003514
v 0.45835406 0.17363764 -0.8504563
v 0.5504109 1.3527449 -0.086979054
v -0.016528128 -1.1504949 -0.9036176
v -0.12225699 0.96302027 -0.64621776
v -0.4057265 -0.2885997 -1.0545372
v -0.88970286 0.5373909 -1.0296003
v -0.107651144 -1.1474754 -0.1779427
v 0.8530212 -0.56213987 0.5624107
v 0.8494617 -1.1789387 -0.17016147
v -0.13190006 -0.67244893 0.70280087
v -1.0374898 -0.97696394 -0.33104822
v 0.883855 0.19370712 1.1496586
v -1.0339303 -0.3601651 0.40152395
v -0.0732579 0.22517045 1.1418773
v -1.0030965 0.39568192 0.98877186
v 0.83873934 0.49858662 0.6386549
v 0.9317672 0.20169643 -0.6716254
v 1.4594073 0.003955483 0.10271944
v 0.39421058 0.8823542 -0.1719401
v 0.13655691 0.8107657 1.2101438
v 0.32261273 0.2169852 -1.4104167
v -0.39108318 1.0085065 0.435799
v -0.29805526 0.7116164 -0.87448126
v -1.0002377 1.0237954 -0.30299228
v -0.38891834 0.9480293 0.55671823
v 0.40310174 0.0007395744 1.0942854
v -0.43295395 0.39818665 1.3395652
v 0.56659186 0.6976725 0.3946405
v -0.4620419 1.3536081 -0.307732
v 1.1219983 -0.54097134 0.7674024
v 0.37401378 0.9561611 -0.5530118
v 1.1660339 0.008871316 -0.01544454
v 1.0929103 0.41445014 -0.8798948
v 0.9690488 -0.5364923 -0.3647911
v 0.344871 0.46624514 -1.0117469
v 0.6314556 -0.4151817 -1.2527269
v 0.86478734 0.4370852 -0.15688767
v 1.1278224 -0.74818283 0.5555858
v -0.12053324 1.2572922 -0.73832583
v 0.8412379 0.13324407 0.79656583
v 0.21706003 1.1359814 0.14961
v 0.37583363 0.92429096 1.0699868
v -0.5166391 -1.0216302 -0.22205418
v 0.6627214 -0.61938775 -0.7328789
v -0.15706323 -0.9444096 -1.1062814
v 0.384132 -0.8827099 0.1917815
v -0.9556454 -0.91632503 0.6225166
v 1.4030757 -0.111840144 -0.39913285
v -0.13586077 -0.59130317 0.99591905
v 1.0434998 -0.18906072 0.48509434
v 0.6044935 -0.08375558 1.3296651
v 0.2625704 -0.9320066 0.6499022
v 1.1572162 -0.073738575 0.12395801
v 1.040335 -1.0239068 0.09876518
v 0.4808235 0.023013618 0.85544926
v -0.6146184 -0.8448651 1.0241504
v 1.1746733 0.87167084 -0.027737997
v -0.4977373 0.10530316 1.0493432
v 0.39690855 0.96357113 0.52339906
v -0.48028022 1.0507126 0.89764726
v -0.94418174 0.57134694 -0.37687632
v -0.4056404 -0.5138354 -0.965081
v -0.64328676 0.36496884 -1.2623061
v -0.895289 -0.38959575 -0.10093042
v -1.0599499 0.8582852 0.5294236
v 0.017132876 -1.3120795 -0.6469857
v -0.82230353 -0.020519113 0.82664865
v -0.28376216 -1.1057014 0.23844403
v -0.3995303 -0.8187632 1.1447439
v -0.68262905 0.6027202 0.7284905
v 0.570918 0.94519264 0.3749874
v 0.11804203 0.8156644 1.2087988
v -0.2911324 0.92787135 -0.13345768
v -1.4231 0.19791168 0.2757785
v 1.083994 0.8828567 -0.4312277
v -0.970224 0.32743993 -0.55803275
v 0.28332302 0.66991246 -0.91153586
v -0.45714796 0.265104 -1.3642478
v -0.004613781 -1.1651855 0.047683213
v -0.32882422 -0.4298669 -1.032977
v -0.76053804 -1.1275735 -0.53906995
v 0.54120153 -0.59236765 -0.56543416
v 0.63940156 -1.0803084 0.75135624
v -0.009019374 0.39032885 -1.4099641
v 1.0711154 -0.38260177 0.2574493
v 0.7469049 0.35271686 -0.82321084
v 1.3909202 0.43759397 -0.11953782
v 0.55313516 0.23497786 0.9993894
v 0.8094326 0.8184116 -0.18701223
v 1.3389144 0.36061642 0.46658418
v 0.029972577 0.87784994 0.43817294
v -0.23884176 -0.07218155 1.4415897
v 0.27375335 1.0946859 -0.9312135
v -0.7683234 0.38561356 0.7879933
v -0.5120259 0.9690473 -0.3984083
v -1.3040029 0.6618878 0.043792054
v 0.5516959 0.10963705 1.0215496
v 0.33873782 -1.0515282 0.37349367
v 0.15790053 -0.7308067 1.2575475
v 0.92823225 -0.2674764 0.17422836
v 0.75355256 1.0053893 0.74952495
v 0.32763633 -1.3169411 -0.5465868
v 0.9343898 0.6846678 -0.1345288
v 0.7214317 -0.47649738 -0.7825847
v 0.9232883 0.41925484 -1.0546092
v -0.7178396 0.4905143 0.7772093
v -0.33528274 -0.8007177 0.77870977
v -1.1793231 -0.3484803 0.79258764
v 0.15991582 0.04850269 0.9672584
v -0.28942326 1.3194796 0.56182235
v 0.47569042 -1.2629845 0.5648233
v 0.5546171 0.8672422 0.5479445
v 0.93717396 -0.4239899 0.549445
v 1.3655903 0.40497538 0.33405808
v -0.8820118 0.67870635 -0.3483753
v 0.36221832 1.1067806 -0.06153712
v -0.5171908 1.3490767 0.23009223
v -0.0032978936 0.5529989 -0.8109844
v -1.2461507 -0.106012575 -0.7591485
v 1.2423095 0.75013614 -0.1854721
v -0.3667416 -0.34830865 -1.0507778
v 0.8774885 0.07976567 -0.7639396
v 0.5133495 -0.7049532 -1.1747128
v -0.31138083 1.1238288 -0.0016892194
v 0.21780299 0.4651281 1.0469812
v -0.5697129 0.9928363 0.9111202
v 0.60333633 0.75537664 0.17001653
v -0.17780599 1.0986255 -0.94965434
v 0.8805617 -0.21877597 1.1476867
v 0.6097099 0.57091737 -0.81379324
v 1.1388937 -0.08778338 0.23487733
v 1.2724686 -0.1129867 -0.7130878
vt 0.5 0
vt 1 0.5
vt 1 0
vt 0.5 0.5
vt 0 0
vt 1 1
vt 0 0.5
vt 0.5 1
vt 0 1
vt 0.5 0
vt 1 0.5
vt 1 0
vt 0.5 0.5
vt 0 0
vt 1 1
vt 0 0.5
vt 0.5 1
vt 0 1
vt 0.5 0
vt 1 0.5
vt 1 0
vt 0.5 0.5
vt 0 0
vt 1 1
vt 0 0.5
vt 0.5 1
vt 0 1
vt 0.5 0
vt 1 0.5
vt 1 0
vt 0.5 0.5
vt 0 0
vt 1 1
vt 0 0.5
vt 0.5 1
vt 0 1
vt 0.5 0
vt 1 0.5
vt 1 0
vt 0.5 0.5
vt 0 0
vt 1 1
vt 0 0.5
vt 0.5 1
vt 0 1
vt 0.5 0
vt 1 0.5
vt 1 0
vt 0.5 0.5
vt 0 0
vt 1 1
vt 0 0.5
vt 0.5 1
vt 0 1
vt 0.5 0
vt 1 0.5
vt 1 0
vt 0.5 0.5
vt 0 0
vt 1 1
vt 0 0.5
vt 0.5 1
vt 0 1
vt 0.5 0
vt 1 0.5
vt 1 0
vt 0.5 0.5
vt 0 0
vt 1 1
vt 0 0.5
vt 0.5 1
vt 0 1
vt 0.5 0
vt 1 0.5
vt 1 0
vt 0.5 0.5
vt 0 0
vt 1 1
vt 0 0.5
vt 0.5 1
vt 0 1
vt 0.5 0
vt 1 0.5
vt 1 0
vt 0.5 0.5
vt 0 0
vt 1 1
vt 0 0.5
vt 0.5 1
vt 0 1
vt 0.5 0
vt 1 0.5
vt 1 0
vt 0.5 0.5
vt 0 0
vt 1 1
vt 0 0.5
vt 0.5 1
vt 0 1
vt 0.5 0
vt 1 0.5
vt 1 0
vt 0.5 0.5
vt 0 0
vt 1 1
vt 0 0.5
vt 0.5 1
vt 0 1
vt 0.5 0
vt 1 0.5
vt 1 0
vt 0.5 0.5
vt 0 0
vt 1 1
vt 0 0.5
vt 0.5 1
vt 0 1
vt 0.5 0
vt 1 0.5
vt 1 0
vt 0.5 0.5
vt 0 0
vt 1 1
vt 0 0.5
vt 0.5 1
vt 0 1
vt 0.5 0
vt 1 0.5
vt 1 0
vt 0.5 0.5
vt 0 0
vt 1 1
vt 0 0.5
vt 0.5 1
vt 0 1
vt 0.5 0
vt 1 0.5
vt 1 0
vt 0.5 0.5
vt 0 0
vt 1 1
vt 0 0.5
vt 0.5 1
vt 0 1
vt 0.5 0
vt 1 0.5
vt 1 0
vt 0.5 0.5
vt 0 0
vt 1 1
vt 0 0.5
vt 0.5 1
vt 0 1
vt 0.5 0
vt 1 0.5
vt 1 0
vt 0.5 0.5
vt 0 0
vt 1 1
vt 0 0.5
vt 0.5 1
vt 0 1
vt 0.5 0
vt 1 0.5
vt 1 0
vt 0.5 0.5
vt 0 0
vt 1 1
vt 0 0.5
vt 0.5 1
vt 0 1
vt 0.5 0
vt 1 0.5
vt 1 0
vt 0.5 0.5
vt 0 0
vt 1 1
vt 0 0.5
vt 0.5 1
vt 0 1
vt 0.5 0
vt 1 0.5
vt 1 0
vt 0.5 0.5
vt 0 0
vt 1 1
vt 0 0.5
vt 0.5 1
vt 0 1
vt 0.5 0
vt 1 0.5
vt 1 0
vt 0.5 0.5
vt 0 0
vt 1 1
vt 0 0.5
vt 0.5 1
vt 0 1
vt 0.5 0
vt 1 0.5
vt 1 0
vt 0.5 0.5
vt 0 0
vt 1 1
vt 0 0.5
vt 0.5 1
vt 0 1
vt 0.5 0
vt 1 0.5
vt 1 0
vt 0.5 0.5
vt 0 0
vt 1 1
vt 0 0.5
vt 0.5 1
vt 0 1
vn -0.43355483 0.8504706 0.29787603
vn 0.13667475 0.77039224 -0.6227486
vn 0.37064403 0.91800034 0.1410616
vn -0.6613509 0.59307206 -0.45921716
vn -0.668863 0.21939555 0.710273
vn 0.33204365 0.08262139 -0.9396386
vn -0.99984384 0.015054483 0.009252575
vn -0.44249174 -0.07185795 -0.89388907
vn -0.7003902 -0.6076882 -0.3743909
vn 0.79234254 0.6100199 -0.00830024
vn -0.1804039 0.9128601 -0.3662525
vn 0.43056968 0.5426016 -0.7212443
vn 0.14450496 0.890388 0.43165675
vn 0.90938735 -0.05293307 0.4125686
vn -0.84121615 0.50105023 -0.20323423
vn 0.3565678 0.25847533 0.8978028
vn -0.60978854 0.56091267 0.5599419
vn -0.35702202 -0.08810378 0.9299317
vn -0.10392295 0.6287466 0.77063453
vn -0.81698686 0.5760376 -0.026704192
vn -0.18143387 0.98018664 0.07947185
vn -0.7453225 0.124192156 0.65503484
vn 0.45918003 0.07687359 0.88501084
vn -0.8349533 -0.013709861 -0.55015
vn -0.16828977 -0.41469663 0.89426243
vn -0.88014543 -0.46463814 0.09723941
vn -0.2697627 -0.9137791 0.3037034
vn -0.9605137 0.009650157 -0.27806535
vn -0.26158687 -0.66279113 -0.7016267
vn -0.4471203 0.08315501 -0.89060014
vn -0.7041123 -0.71007943 0.0036028256
vn -0.8175582 0.43157312 0.38123885
vn 0.460123 -0.8002546 -0.38455087
vn -0.6574527 -0.26942435 0.70368063
vn 0.044843268 -0.9500802 0.30876637
vn 0.097026244 -0.4391864 0.8931412
vn -0.33226943 0.91796035 -0.21667011
vn 0.36053362 0.399002 -0.84309727
vn 0.488362 0.84772086 -0.20705523
vn -0.46857348 0.3721534 -0.801212
vn -0.7336946 0.56415653 0.3787078
vn 0.49157724 -0.3736833 -0.7865828
vn -0.9742339 0.088938266 -0.20726398
vn -0.30359355 -0.42315242 -0.853682
vn -0.72740525 -0.6496956 -0.22085592
vn 0.4915425 0.78189224 0.38344568
vn 0.6064909 0.47604138 -0.63683075
vn 0.96625113 0.25513387 0.03557228
vn 0.02562744 0.9496828 -0.31216308
vn -0.103043646 0.5127014 0.8523609
vn 0.113789424 -0.037112348 -0.9928115
vn -0.5827577 0.76935375 0.26170263
vn -0.45629686 0.46639988 -0.7578023
vn -0.95735645 0.22508071 -0.18112765
vn 0.042042714 -0.3849146 0.92199415
vn 0.90951306 -0.030841682 0.41452974
vn 0.55107576 -0.7216576 0.41895822
vn 0.34224868 0.37280494 0.8624861
vn -0.70394766 -0.23122764 0.671559
vn 0.87709963 0.41967517 -0.23360004
vn -0.46093854 0.52009577 0.7190522
vn 0.4224374 0.8781707 0.22441693
vn -0.38437346 0.922133 0.043906085
vn 0.11985746 0.7387917 0.66319007
vn 0.88341665 0.4671925 -0.036142
vn 0.6959847 0.19102848 0.69218016
vn 0.25170633 0.9561213 -0.1499198
vn -0.6385555 0.48861113 0.59456366
vn 0.7501267 -0.0046996023 -0.66127735
vn -0.593201 0.791548 -0.14684765
vn 0.178792 0.51467025 -0.8385391
vn -0.5774963 0.29881704 -0.75974107
vn -0.89194137 0.2508986 -0.3761521
vn -0.11231727 0.9507956 -0.28874302
vn -0.67601955 0.7003447 0.22916128
vn -0.24878559 0.41893956 -0.8732671
vn -0.78338194 -0.5252822 -0.3322519
vn 0.66075027 0.7412417 -0.1181938
vn -0.22565876 -0.39711615 -0.8895936
vn 0.5592276 0.30126023 -0.77233857
vn 0.53953 -0.47762653 -0.6933832
vn 0.8794876 0.43305025 -0.19740552
vn 0.65611595 -0.5428617 -0.5242261
vn 0.9492652 -0.2658196 0.16803443
vn 0.4671749 0.1744294 -0.8667884
vn 0.34961107 0.9345291 0.06653906
vn -0.08394088 -0.8421594 -0.53265506
vn -0.036715016 0.7739016 -0.6322408
vn -0.2618817 -0.20290725 -0.94352883
vn -0.7128934 0.35347977 -0.605669
vn -0.13142608 -0.98956794 -0.059012447
vn 0.66054636 -0.52405685 0.537627
vn 0.63679105 -0.73610485 -0.22944924
vn -0.13564661 -0.6769351 0.72343546
vn -0.72878265 -0.5895112 -0.34835675
vn 0.6577821 0.24645156 0.7117474
vn -0.8380285 -0.36397907 0.40648186
vn -0.07459339 0.092779554 0.9928886
vn -0.7011107 0.38606608 0.59949696
vn 0.7167402 0.50203437 0.48398867
vn 0.78764254 0.27193502 -0.55287486
vn 0.98530096 -0.13738391 0.10152656
vn 0.41754767 0.8902418 -0.18199818
vn 0.03904631 0.44310638 0.89561826
vn 0.16755764 0.011771683 -0.98579204
vn -0.26800513 0.9033239 0.33493146
vn -0.18584485 0.66859555 -0.72002894
vn -0.7820258 0.5927752 -0.19249214
vn -0.23906483 0.8306679 0.5028307
vn 0.39006883 0.08611347 0.9167501
vn -0.40243578 0.1713656 0.89926594
vn 0.5840416 0.70243233 0.40679753
vn -0.42660648 0.8577033 -0.28697
vn 0.7220208 -0.48574066 0.49268857
vn 0.37900516 0.8370456 -0.39460084
vn 0.99468297 0.095471755 0.03861147
vn 0.69317234 0.18096213 -0.6976853
vn 0.87976724 -0.36121368 -0.3090863
vn 0.38279724 0.41854003 -0.8235839
vn 0.321168 -0.35961962 -0.8760849
vn 0.88386714 0.4394031 -0.16032414
vn 0.6821746 -0.5950494 0.42491633
vn -0.2207533 0.8266131 -0.5176666
vn 0.77761966 0.16032606 0.60795
vn 0.31189498 0.9443427 0.104587056
vn 0.13688868 0.58807814 0.79713583
vn -0.37534288 -0.91347975 -0.15707475
vn 0.577234 -0.59545547 -0.5587787
vn -0.17500837 -0.5307972 -0.8292324
vn 0.40692338 -0.89062715 0.20296949
vn -0.7515655 -0.5099321 0.4184718
vn 0.9482743 0.04827566 -0.3137601
vn -0.057520058 -0.57455677 0.816441
vn 0.87611854 -0.25547692 0.40883717
vn 0.37267232 0.08019807 0.92449105
vn 0.27363396 -0.72454274 0.63258374
vn 0.97745115 -0.05487709 0.20390627
vn 0.68174446 -0.7290932 -0.060395017
vn 0.48983768 0.023116728 0.8715071
vn -0.5178969 -0.6017638 0.60799927
vn 0.7737346 0.61431664 -0.15475696
vn -0.33031353 0.08492391 0.9400431
vn 0.3825739 0.7536569 0.5344515
vn -0.4226374 0.740939 0.5219071
vn -0.8642239 0.3950548 -0.3115265
vn -0.43666977 -0.4501722 -0.7788867
vn -0.32743135 0.31542048 -0.8906731
vn -0.91436476 -0.39158028 -0.1029665
vn -0.62974805 0.66662276 0.3987877
vn 0.14509834 -0.8739932 -0.46376967
vn -0.7638667 -0.06428301 0.64216447
vn -0.35935986 -0.9147207 0.18478803
vn -0.14322424 -0.5187132 0.84286624
vn -0.5809394 0.5884181 0.5623819
vn 0.42377287 0.85927856 0.28645587
vn 0.13185167 0.431319 0.8925128
vn -0.31762534 0.93691754 -0.14594397
vn -0.9756566 -0.0052404287 0.21924102
vn 0.82341903 0.4876074 -0.29020688
vn -0.8070811 0.3700988 -0.46005115
vn 0.18804738 0.6412211 -0.74395823
vn -0.2836132 0.048893355 -0.95769143
vn 0.08801464 -0.9949319 -0.04861976
vn -0.19309647 -0.4093946 -0.8916893
vn -0.6349258 -0.71011925 -0.30430228
vn 0.5552022 -0.5959928 -0.5801234
vn 0.3796363 -0.67575985 0.6318425
vn -0.094164886 0.37124252 -0.9237489
vn 0.9185744 -0.37169445 0.13440329
vn 0.65985245 0.20348251 -0.7233184
vn 0.91896796 0.39432043 -0.0030451855
vn 0.44269478 0.2917528 0.8478807
vn 0.65345526 0.75129485 -0.092478566
vn 0.9558012 0.12215948 0.26743472
vn 0.03166546 0.8856596 0.46325412
vn -0.17672578 -0.19362532 0.9650271
vn 0.19350871 0.64265877 -0.74131244
vn -0.6064738 0.41028985 0.68106663
vn -0.41264457 0.8716619 -0.264443
vn -0.94095254 0.33670673 -0.035168897
vn 0.55569524 0.051417697 0.8297945
vn 0.4013598 -0.8556625 0.3267291
vn -0.025380539 -0.4773194 0.87836325
vn 0.94668716 -0.26874146 0.17765537
vn 0.40734026 0.75158376 0.5188408
vn 0.10263574 -0.8949518 -0.43419728
vn 0.86090857 0.50164837 -0.08476701
vn 0.6902044 -0.40555263 -0.59928703
vn 0.5214519 0.3367044 -0.78403956
vn -0.5457711 0.3877103 0.74284226
vn -0.2445326 -0.61636436 0.748531
vn -0.8751557 -0.2549906 0.4111961
vn 0.16290365 0.04871853 0.98543847
vn -0.24576156 0.929044 0.27654734
vn 0.33177388 -0.90261835 0.2742375
vn 0.4633656 0.68247193 0.5652649
vn 0.76063585 -0.3229058 0.56317395
vn 0.95640224 0.279228 0.08559457
vn -0.70283186 0.5999951 -0.3821431
vn 0.30539224 0.9372882 -0.16800699
vn -0.3825747 0.87716675 0.2901984
vn -0.0033710867 0.55620795 -0.8310363
vn -0.89511424 -0.16287611 -0.4150203
vn 0.8923865 0.45099193 -0.015895328
vn -0.2897794 -0.19876114 -0.93622744
vn 0.6958699 0.12973258 -0.70635295
vn 0.37118584 -0.5837218 -0.7221426
vn -0.20525004 0.97835106 0.02648632
vn 0.25263846 0.46075755 0.85080916
vn -0.500791 0.59179276 0.6316563
vn 0.62453103 0.7608856 0.17610839
vn -0.21806203 0.6675199 -0.71194524
vn 0.54027057 -0.2677265 0.7977658
vn 0.5621336 0.54061306 -0.625894
vn 0.97796077 0.02424147 0.20737706
vn 0.8198524 -0.19533181 -0.5382261
g planeTree_0
f 3/3/3 2/2/2 1/1/1
f 2/2/2 4/4/4 1/1/1
f 1/1/1 4/4/4 5/5/5
f 2/2/2 6/6/6 4/4/4
f 4/4/4 7/7/7 5/5/5
f 6/6/6 8/8/8 4/4/4
f 4/4/4 8/8/8 7/7/7
f 8/8/8 9/9/9 7/7/7
f 12/12/12 11/11/11 10/10/10
f 11/11/11 13/13/13 10/10/10
f 10/10/10 13/13/13 14/14/14
f 11/11/11 15/15/15 13/13/13
f 13/13/13 16/16/16 14/14/14
f 15/15/15 17/17/17 13/13/13
f 13/13/13 17/17/17 16/16/16
f 17/17/17 18/18/18 16/16/16
f 21/21/21 20/20/20 19/19/19
f 20/20/20 22/22/22 19/19/19
f 19/19/19 22/22/22 23/23/23
f 20/20/20 24/24/24 22/22/22
f 22/22/22 25/25/25 23/23/23
f 24/24/24 26/26/26 22/22/22
f 22/22/22 26/26/26 25/25/25
f 26/26/26 27/27/27 25/25/25
f 30/30/30 29/29/29 28/28/28
f 29/29/29 31/31/31 28/28/28
f 28/28/28 31/31/31 32/32/32
f 29/29/29 33/33/33 31/31/31
f 31/31/31 34/34/34 32/32/32
f 33/33/33 35/35/35 31/31/31
f 31/31/31 35/35/35 34/34/34
f 35/35/35 36/36/36 34/34/34
f 39/39/39 38/38/38 37/37/37
f 38/38/38 40/40/40 37/37/37
f 37/37/37 40/40/40 41/41/41
f 38/38/38 42/42/42 40/40/40
f 40/40/40 43/43/43 41/41/41
f 42/42/42 44/44/44 40/40/40
f 40/40/40 44/44/44 43/43/43
f 44/44/44 45/45/45 43/43/43
f 48/48/48 47/47/47 46/46/46
f 47/47/47 49/49/49 46/46/46
f 46/46/46 49/49/49 50/50/50
f 47/47/47 51/51/51 49/49/49
f 49/49/49 52/52/52 50/50/50
f 51/51/51 53/53/53 49/49/49
f 49/49/49 53/53/53 52/52/52
f 53/53/53 54/54/54 52/52/52
f 57/57/57 56/56/56 55/55/55
f 56/56/56 58/58/58 55/55/55
f 55/55/55 58/58/58 59/59/59
f 56/56/56 60/60/60 58/58/58
f 58/58/58 61/61/61 59/59/59
f 60/60/60 62/62/62 58/58/58
f 58/58/58 62/62/62 61/61/61
f 62/62/62 63/63/63 61/61/61
f 66/66/66 65/65/65 64/64/64
f 65/65/65 67/67/67 64/64/64
f 64/64/64 67/67/67 68/68/68
f 65/65/65 69/69/69 67/67/67
f 67/67/67 70/70/70 68/68/68
f 69/69/69 71/71/71 67/67/67
f 67/67/67 71/71/71 70/70/70
f 71/71/71 72/72/72 70/70/70
f 75/75/75 74/74/74 73/73/73
f 74/74/74 76/76/76 73/73/73
f 73/73/73 76/76/76 77/77/77
f 74/74/74 78/78/78 76/76/76
f 76/76/76 79/79/79 77/77/77
f 78/78/78 80/80/80 76/76/76
f 76/76/76 80/80/80 79/79/79
f 80/80/80 81/81/81 79/79/79
f 84/84/84 83/83/83 82/82/82
f 83/83/83 85/85/85 82/82/82
f 82/82/82 85/85/85 86/86/86
f 83/83/83 87/87/87 85/85/85
f 85/85/85 88/88/88 86/86/86
f 87/87/87 89/89/89 85/85/85
f 85/85/85 89/89/89 88/88/88
f 89/89/89 90/90/90 88/88/88
f 93/93/93 92/92/92 91/91/91
f 92/92/92 94/94/94 91/91/91
f 91/91/91 94/94/94 95/95/95
f 92/92/92 96/96/96 94/94/94
f 94/94/94 97/97/97 95/95/95
f 96/96/96 98/98/98 94/94/94
f 94/94/94 98/98/98 97/97/97
f 98/98/98 99/99/99 97/97/97
f 102/102/102 101/101/101 100/100/100
f 101/101/101 103/103/103 100/100/100
f 100/100/100 103/103/103 104/104/104
f 101/101/101 105/105/105 103/103/103
f 103/103/103 106/106/106 104/104/104
f 105/105/105 107/107/107 103/103/103
f 103/103/103 107/107/107 106/106/106
f 107/107/107 108/108/108 106/106/106
f 111/111/111 110/110/110 109/109/109
f 110/110/110 112/112/112 109/109/109
f 109/109/109 112/112/112 113/113/113
f 110/110/110 114/114/114 112/112/112
f 112/112/112 115/115/115 113/113/113
f 114/114/114 116/116/116 112/112/112
f 112/112/112 116/116/116 115/115/115
f 116/116/116 117/117/117 115/115/115
f 120/120/120 119/119/119 118/118/118
f 119/119/119 121/121/121 118/118/118
f 118/118/118 121/121/121 122/122/122
f 119/119/119 123/123/123 121/121/121
f 121/121/121 124/124/124 122/122/122
f 123/123/123 125/125/125 121/121/121
f 121/121/121 125/125/125 124/124/124
f 125/125/125 126/126/126 124/124/124
f 129/129/129 128/128/128 127/127/127
f 128/128/128 130/130/130 127/127/127
f 127/127/127 130/130/130 131/131/131
f 128/128/128 132/132/132 130/130/130
f 130/130/130 133/133/133 131/131/131
f 132/132/132 134/134/134 130/130/130
f 130/130/130 134/134/134 133/133/133
f 134/134/134 135/135/135 133/133/133
f 138/138/138 137/137/137 136/136/136
f 137/137/137 139/139/139 136/136/136
f 136/136/136 139/139/139 140/140/140
f 137/137/137 141/141/141 139/139/139
f 139/139/139 142/142/142 140/140/140
f 141/141/141 143/143/143 139/139/139
f 139/139/139 143/143/143 142/142/142
f 143/143/143 144/144/144 142/142/142
f 147/147/147 146/146/146 145/145/145
f 146/146/146 148/148/148 145/145/145
f 145/145/145 148/148/148 149/149/149
f 146/146/146 150/150/150 148/148/148
f 148/148/148 151/151/151 149/149/149
f 150/150/150 152/152/152 148/148/148
f 148/148/148 152/152/152 151/151/151
f 152/152/152 153/153/153 151/151/151
f 156/156/156 155/155/155 154/154/154
f 155/155/155 157/157/157 154/154/154
f 154/154/154 157/157/157 158/158/158
f 155/155/155 159/159/159 157/157/157
f 157/157/157 160/160/160 158/158/158
f 159/159/159 161/161/161 157/157/157
f 157/157/157 161/161/161 160/160/160
f 161/161/161 162/162/162 160/160/160
f 165/165/165 164/164/164 163/163/163
f 164/164/164 166/166/166 163/163/163
f 163/163/163 166/166/166 167/167/167
f 164/164/164 168/168/168 166/166/166
f 166/166/166 169/169/169 167/167/167
f 168/168/168 170/170/170 166/166/166
f 166/166/166 170/170/170 169/169/169
f 170/170/170 171/171/171 169/169/169
f 174/174/174 173/173/173 172/172/172
f 173/173/173 175/175/175 172/172/172
f 172/172/172 175/175/175 176/176/176
f 173/173/173 177/177/177 175/175/175
f 175/175/175 178/178/178 176/176/176
f 177/177/177 179/179/179 175/175/175
f 175/175/175 179/179/179 178/178/178
f 179/179/179 180/180/180 178/178/178
f 183/183/183 182/182/182 181/181/181
f 182/182/182 184/184/184 181/181/181
f 181/181/181 184/184/184 185/185/185
f 182/182/182 186/186/186 184/184/184
f 184/184/184 187/187/187 185/185/185
f 186/186/186 188/188/188 184/184/184
f 184/184/184 188/188/188 187/187/187
f 188/188/188 189/189/189 187/187/187
f 192/192/192 191/191/191 190/190/190
f 191/191/191 193/193/193 190/190/190
f 190/190/190 193/193/193 194/194/194
f 191/191/191 195/195/195 193/193/193
f 193/193/193 196/196/196 194/194/194
f 195/195/195 197/197/197 193/193/193
f 193/193/193 197/197/197 196/196/196
f 197/197/197 198/198/198 196/196/196
f 201/201/201 200/200/200 199/199/199
f 200/200/200 202/202/202 199/199/199
f 199/199/199 202/202/202 203/203/203
f 200/200/200 204/204/204 202/202/202
f 202/202/202 205/205/205 203/203/203
f 204/204/204 206/206/206 202/202/202
f 202/202/202 206/206/206 205/205/205
f 206/206/206 207/207/207 205/205/205
f 210/210/210 209/209/209 208/208/208
f 209/209/209 211/211/211 208/208/208
f 208/208/208 211/211/211 212/212/212
f 209/209/209 213/213/213 211/211/211
f 211/211/211 214/214/214 212/212/212
f 213/213/213 215/215/215 211/211/211
f 211/211/211 215/215/215 214/214/214
f 215/215/215 216/216/216 214/214/214
