g platHex02
v -0.89138055 -8.881619 -1.8163496
v 0.8913929 -8.881619 -1.8163496
v 0.8913929 -0.15728515 -1.8163545
v -0.89138055 -0.15728515 -1.8163545
v -1.1273082 -0.15728515 -1.6801581
v -1.1273082 -8.881619 -1.6801534
v -2.018695 -8.881619 -0.13621296
v -2.0187 -0.15728515 -0.13621296
v -2.0187 -0.15728515 0.1362089
v -2.018695 -8.881619 0.1362089
v -1.1273082 -8.881619 1.6801493
v -2.018695 -8.881619 0.1362089
v -2.0187 -0.15728515 0.1362089
v -1.1273082 -0.15728515 1.6801444
v -0.89138055 -0.15728515 1.8163456
v -0.89138055 -8.881619 1.8163456
v 0.8913929 -8.881619 1.8163456
v 0.891388 -0.15728515 1.8163456
v 1.1273158 -0.15728515 1.6801444
v 1.1273206 -8.881619 1.6801444
v 2.0187073 -8.881619 0.1362089
v 1.1273206 -8.881619 1.6801444
v 1.1273158 -0.15728515 1.6801444
v 2.0187073 -0.15728515 0.1362089
v 2.0187073 -0.15728515 -0.13621296
v 2.0187073 -8.881619 -0.13621296
v 1.1273206 -8.881619 -1.6801485
v 1.1273206 -0.15728515 -1.6801534
v 0.8913929 -0.15728515 -1.8163545
v 0.8913929 -8.881619 -1.8163496
v 0.9578675 -9.038905 1.6590654
v -0.89138055 -8.881619 1.8163456
v 0.8913929 -8.881619 1.8163456
v 1.1273206 -8.881619 1.6801444
v -0.9578551 -9.038905 1.6590654
v -1.1273082 -8.881619 1.6801493
v -2.018695 -8.881619 0.1362089
v 1.9157385 -9.038905 -2.019051E-06
v 2.0187073 -8.881619 0.1362089
v 2.0187073 -8.881619 -0.13621296
v 6.146814E-06 -9.038905 -2.019051E-06
v -1.9157263 -9.038905 -2.019051E-06
v -2.018695 -8.881619 -0.13621296
v -1.1273082 -8.881619 -1.6801534
v 0.9578675 -9.038905 -1.6590742
v 1.1273206 -8.881619 -1.6801485
v 0.8913929 -8.881619 -1.8163496
v -0.9578551 -9.038905 -1.6590742
v -0.89138055 -8.881619 -1.8163496
v 1.1273206 -0.15728515 -1.6801534
v 2.0187073 -0.15728515 -0.13621296
v 1.9157336 1.8189894E-14 -2.019051E-06
v 2.0187073 -0.15728515 0.1362089
v 0.9578675 1.8189894E-14 -1.6590693
v 0.8913929 -0.15728515 -1.8163545
v -0.89138055 -0.15728515 -1.8163545
v 0.9578675 1.8189894E-14 1.6590703
v 1.1273158 -0.15728515 1.6801444
v 0.891388 -0.15728515 1.8163456
v 1.2640018E-06 1.8189894E-14 -2.019051E-06
v -0.95786 1.8189894E-14 -1.6590693
v -1.1273082 -0.15728515 -1.6801581
v -2.0187 -0.15728515 -0.13621296
v -0.95786 1.8189894E-14 1.6590703
v -0.89138055 -0.15728515 1.8163456
v -1.1273082 -0.15728515 1.6801444
v -1.9157263 1.8189894E-14 -2.019051E-06
v -2.0187 -0.15728515 0.1362089
vt 0.45798373 -1.287323
vt 0.0011572838 -1.287323
vt 0.0011572838 0.9976096
vt 0.45798373 0.9976096
vt 0.52343345 0.9976096
vt 0.52343345 -1.287323
vt 0.9387021 -1.287323
vt 0.9387021 0.9976096
vt 0.99653053 0.99760973
vt 0.99653053 -1.287323
vt 0.4579835 -1.287323
vt 0.0011571646 -1.287323
vt 0.0011571646 0.9976096
vt 0.4579835 0.9976096
vt 0.5234332 0.9976096
vt 0.5234332 -1.287323
vt 0.9387021 -1.287323
vt 0.9387021 0.9976096
vt 0.9965302 0.9976096
vt 0.9965302 -1.287323
vt 0.4579835 -1.287323
vt 0.0011571646 -1.287323
vt 0.0011571646 0.9976097
vt 0.4579835 0.9976097
vt 0.5234332 0.9976097
vt 0.5234332 -1.287323
vt 0.9387021 -1.287323
vt 0.9387021 0.9976097
vt 0.9965301 0.9976097
vt 0.9965301 -1.287323
vt 0.8687272 0.2817548
vt 0.90503156 0.70858955
vt 0.90503156 0.29709828
vt 0.8735937 0.24264294
vt 0.8687272 0.7239342
vt 0.8735948 0.7630459
vt 0.517229 0.9687921
vt 0.485789 0.06066397
vt 0.517229 0.036896825
vt 0.45435005 0.036896825
vt 0.485789 0.5028455
vt 0.485789 0.94502497
vt 0.45435005 0.9687921
vt 0.09798542 0.7630459
vt 0.10284966 0.2817548
vt 0.09798542 0.24264294
vt 0.066548705 0.2970994
vt 0.10284966 0.7239342
vt 0.066548705 0.70858955
vt 0.8735937 0.24264294
vt 0.517229 0.036896825
vt 0.485789 0.06066397
vt 0.45435005 0.036896825
vt 0.8687272 0.2817548
vt 0.90503156 0.29709828
vt 0.90503156 0.70858955
vt 0.10284966 0.2817548
vt 0.09798542 0.24264294
vt 0.066548705 0.2970994
vt 0.485789 0.5028455
vt 0.8687272 0.7239342
vt 0.8735948 0.7630459
vt 0.517229 0.9687921
vt 0.10284966 0.7239342
vt 0.066548705 0.70858955
vt 0.09798542 0.7630459
vt 0.485789 0.94502497
vt 0.45435005 0.9687921
vn -0.06632911 -0.019602196 -0.9976052
vn 0.06633464 -0.019602152 -0.99760485
vn 0.06633463 0.019602276 -0.99760485
vn -0.066329084 0.019602433 -0.9976052
vn -0.83078104 0.019602178 -0.556254
vn -0.8307811 -0.019602722 -0.55625385
vn -0.897121 -0.019602975 -0.44134971
vn -0.897121 0.01960275 -0.44134971
vn -0.89711994 0.019602535 0.4413519
vn -0.89711994 -0.01960309 0.44135195
vn -0.8307802 -0.019602511 0.5562553
vn -0.89711994 -0.01960309 0.44135195
vn -0.89711994 0.019602535 0.4413519
vn -0.8307803 0.01960259 0.5562553
vn -0.0663319 0.019601857 0.9976051
vn -0.06633191 -0.019602166 0.9976051
vn 0.06633194 -0.019602144 0.9976051
vn 0.06633187 0.019601896 0.9976051
vn 0.8307802 0.019603003 0.5562552
vn 0.8307803 -0.019602785 0.5562552
vn 0.89711994 -0.019603092 0.44135186
vn 0.8307803 -0.019602785 0.5562552
vn 0.8307802 0.019603003 0.5562552
vn 0.89711994 0.019602932 0.4413519
vn 0.8971204 0.019602967 -0.44135097
vn 0.8971204 -0.01960308 -0.44135103
vn 0.8307817 -0.019602997 -0.55625314
vn 0.83078164 0.019602561 -0.5562532
vn 0.06633463 0.019602276 -0.99760485
vn 0.06633464 -0.019602152 -0.99760485
vn 0.081040345 -0.98677766 0.1403646
vn -0.06633191 -0.019602166 0.9976051
vn 0.06633194 -0.019602144 0.9976051
vn 0.8307803 -0.019602785 0.5562552
vn -0.08104089 -0.9867776 0.14036508
vn -0.8307802 -0.019602511 0.5562553
vn -0.89711994 -0.01960309 0.44135195
vn 0.16207795 -0.986778 -3.5335225E-07
vn 0.89711994 -0.019603092 0.44135186
vn 0.8971204 -0.01960308 -0.44135103
vn -0 -1 0
vn -0.16207708 -0.98677814 5.2119435E-07
vn -0.897121 -0.019602975 -0.44134971
vn -0.8307811 -0.019602722 -0.55625385
vn 0.08103952 -0.9867778 -0.14036433
vn 0.8307817 -0.019602997 -0.55625314
vn 0.06633464 -0.019602152 -0.99760485
vn -0.08104017 -0.9867778 -0.1403641
vn -0.06632911 -0.019602196 -0.9976052
vn 0.83078164 0.019602561 -0.5562532
vn 0.8971204 0.019602967 -0.44135097
vn 0.16207807 0.9867779 0
vn 0.89711994 0.019602932 0.4413519
vn 0.08104117 0.98677766 -0.14036477
vn 0.06633463 0.019602276 -0.99760485
vn -0.066329084 0.019602433 -0.9976052
vn 0.08104013 0.9867779 0.14036317
vn 0.8307802 0.019603003 0.5562552
vn 0.06633187 0.019601896 0.9976051
vn -0 1 0
vn -0.08104282 0.9867775 -0.14036486
vn -0.83078104 0.019602178 -0.556254
vn -0.897121 0.01960275 -0.44134971
vn -0.08104072 0.9867778 0.14036396
vn -0.0663319 0.019601857 0.9976051
vn -0.8307803 0.01960259 0.5562553
vn -0.16207945 0.98677766 2.5912533E-07
vn -0.89711994 0.019602535 0.4413519
g platHex02_0
f 3/3/3 2/2/2 1/1/1
f 4/4/4 3/3/3 1/1/1
f 4/4/4 1/1/1 5/5/5
f 1/1/1 6/6/6 5/5/5
f 5/5/5 6/6/6 7/7/7
f 8/8/8 5/5/5 7/7/7
f 8/8/8 7/7/7 9/9/9
f 7/7/7 10/10/10 9/9/9
f 13/13/13 12/12/12 11/11/11
f 14/14/14 13/13/13 11/11/11
f 14/14/14 11/11/11 15/15/15
f 11/11/11 16/16/16 15/15/15
f 15/15/15 16/16/16 17/17/17
f 18/18/18 15/15/15 17/17/17
f 18/18/18 17/17/17 19/19/19
f 17/17/17 20/20/20 19/19/19
f 23/23/23 22/22/22 21/21/21
f 24/24/24 23/23/23 21/21/21
f 24/24/24 21/21/21 25/25/25
f 21/21/21 26/26/26 25/25/25
f 25/25/25 26/26/26 27/27/27
f 28/28/28 25/25/25 27/27/27
f 28/28/28 27/27/27 29/29/29
f 27/27/27 30/30/30 29/29/29
f 33/33/33 32/32/32 31/31/31
f 34/34/34 33/33/33 31/31/31
f 32/32/32 35/35/35 31/31/31
f 32/32/32 36/36/36 35/35/35
f 36/36/36 37/37/37 35/35/35
f 31/31/31 38/38/38 34/34/34
f 38/38/38 39/39/39 34/34/34
f 40/40/40 39/39/39 38/38/38
f 35/35/35 41/41/41 31/31/31
f 31/31/31 41/41/41 38/38/38
f 37/37/37 42/42/42 35/35/35
f 42/42/42 41/41/41 35/35/35
f 37/37/37 43/43/43 42/42/42
f 43/43/43 44/44/44 42/42/42
f 40/40/40 38/38/38 45/45/45
f 38/38/38 41/41/41 45/45/45
f 46/46/46 40/40/40 45/45/45
f 47/47/47 46/46/46 45/45/45
f 48/48/48 41/41/41 42/42/42
f 44/44/44 48/48/48 42/42/42
f 45/45/45 41/41/41 48/48/48
f 47/47/47 45/45/45 48/48/48
f 44/44/44 49/49/49 48/48/48
f 49/49/49 47/47/47 48/48/48
f 52/52/52 51/51/51 50/50/50
f 53/53/53 51/51/51 52/52/52
f 54/54/54 52/52/52 50/50/50
f 50/50/50 55/55/55 54/54/54
f 55/55/55 56/56/56 54/54/54
f 53/53/53 52/52/52 57/57/57
f 58/58/58 53/53/53 57/57/57
f 59/59/59 58/58/58 57/57/57
f 54/54/54 60/60/60 52/52/52
f 52/52/52 60/60/60 57/57/57
f 56/56/56 61/61/61 54/54/54
f 61/61/61 60/60/60 54/54/54
f 56/56/56 62/62/62 61/61/61
f 62/62/62 63/63/63 61/61/61
f 59/59/59 57/57/57 64/64/64
f 57/57/57 60/60/60 64/64/64
f 65/65/65 59/59/59 64/64/64
f 66/66/66 65/65/65 64/64/64
f 67/67/67 60/60/60 61/61/61
f 63/63/63 67/67/67 61/61/61
f 64/64/64 60/60/60 67/67/67
f 66/66/66 64/64/64 67/67/67
f 63/63/63 68/68/68 67/67/67
f 68/68/68 66/66/66 67/67/67
