g polySurface35
v 0.3232997 0.12652366 -0.6080816
v 0.30427742 -0.088372335 -0.5950317
v 0.30758545 0.03943571 -0.7788927
v 0.66672623 -0.088113986 -0.85523623
v 0.6816794 0.06535619 -0.82097083
v 0.53830177 0.09340247 -0.93250924
v 0.6816794 0.06535619 -0.82097083
v 0.66672623 -0.088113986 -0.85523623
v 0.6787373 -0.08655396 -0.584531
v 0.6816794 0.06535619 -0.82097083
v 0.6813697 0.050413895 -0.58530635
v 0.6675868 0.12888698 -0.70041996
v -0.092648126 0.15888992 0.16881272
v -0.22862263 0.055534113 0.06625988
v -0.19822387 0.23275948 -0.13819323
v -0.19822387 0.23275948 -0.13819323
v 0.01819172 0.19251499 -0.15698336
v -0.092648126 0.15888992 0.16881272
v 0.04130249 0.13090767 0.102915384
v 0.01819172 0.19251499 -0.15698336
v 0.12696019 0.049875617 -0.058308065
v 0.13865243 -0.03575466 -0.12842248
v 0.13160363 -0.03809805 0.012358955
v -0.044125367 -0.038780358 0.18541786
v -0.092648126 0.15888992 0.16881272
v -0.14582406 0.1845682 -0.18913616
v 0.01819172 0.19251499 -0.15698336
v -0.19822387 0.23275948 -0.13819323
v -0.19822387 0.23275948 -0.13819323
v -0.19656391 -0.035128046 -0.1933791
v -0.14582406 0.1845682 -0.18913616
v -0.24584208 0.09114006 0.10311353
v -0.4030984 -0.04611048 0.085891746
v -0.16888681 -0.083809055 0.12104298
v -0.4323318 0.05904887 0.09251361
v -0.24584208 0.09114006 0.10311353
v -0.53950304 -0.08754504 0.19640824
v -0.16888681 -0.083809055 0.12104298
v -0.4030984 -0.04611048 0.085891746
v -0.16037145 0.11684417 0.20087183
v -0.24584208 0.09114006 0.10311353
v -0.16888681 -0.083809055 0.12104298
v -0.33522367 0.087656856 0.6157298
v -0.26428443 -0.088358246 0.5990665
v -0.39227745 -0.08560908 0.5858484
v -0.5160285 0.08273295 -0.52166396
v -0.3633549 -0.048771013 -0.46262026
v -0.3191305 0.04159392 -0.27717972
v -0.6087985 0.045008164 0.14997692
v -0.32486033 -0.03657278 -0.16009083
v -0.60610193 -0.06425844 0.11371555
v -0.5160285 0.08273295 -0.52166396
v -0.5754884 -0.0784406 -0.5159899
v -0.3633549 -0.048771013 -0.46262026
v -0.5754884 -0.0784406 -0.5159899
v -0.5160285 0.08273295 -0.52166396
v -0.67726827 0.13153674 -0.44095993
v -0.3633549 -0.048771013 -0.46262026
v -0.32486033 -0.03657278 -0.16009083
v -0.3191305 0.04159392 -0.27717972
v -0.82034713 0.090463795 -0.07139569
v -0.8489813 -0.10429573 -0.1321003
v -0.8224799 0.079962395 -0.22344676
v 0.44811216 -0.08805551 -0.8473391
v 0.30758545 0.03943571 -0.7788927
v 0.30427742 -0.088372335 -0.5950317
v 0.3876154 0.04554579 -0.91540164
v 0.6675868 0.12888698 -0.70041996
v 0.3232997 0.12652366 -0.6080816
v 0.53830177 0.09340247 -0.93250924
v 0.44275665 0.114878 -0.55958337
v 0.6813697 0.050413895 -0.58530635
v 0.59682983 0.0423853 -0.53080547
v 0.53830177 0.09340247 -0.93250924
v 0.6816794 0.06535619 -0.82097083
v 0.3876154 0.04554579 -0.91540164
v 0.30758545 0.03943571 -0.7788927
v 0.59682983 0.0423853 -0.53080547
v 0.60121214 -0.083917595 -0.53373426
v 0.30427742 -0.088372335 -0.5950317
v 0.44275665 0.114878 -0.55958337
v 0.3232997 0.12652366 -0.6080816
v 0.6813697 0.050413895 -0.58530635
v 0.60121214 -0.083917595 -0.53373426
v 0.59682983 0.0423853 -0.53080547
v 0.6787373 -0.08655396 -0.584531
v 0.3876154 0.04554579 -0.91540164
v 0.66672623 -0.088113986 -0.85523623
v 0.53830177 0.09340247 -0.93250924
v 0.44811216 -0.08805551 -0.8473391
v -0.19822387 0.23275948 -0.13819323
v -0.2280407 -0.034872115 0.06635109
v -0.19656391 -0.035128046 -0.1933791
v -0.22862263 0.055534113 0.06625988
v -0.19656391 -0.035128046 -0.1933791
v 0.13865243 -0.03575466 -0.12842248
v -0.14582406 0.1845682 -0.18913616
v 0.01819172 0.19251499 -0.15698336
v -0.044125367 -0.038780358 0.18541786
v -0.22862263 0.055534113 0.06625988
v -0.092648126 0.15888992 0.16881272
v -0.2280407 -0.034872115 0.06635109
v -0.16037145 0.11684417 0.20087183
v -0.16888681 -0.083809055 0.12104298
v -0.15651298 -0.07815244 0.47660896
v -0.18195258 0.119552396 0.5262324
v -0.24584208 0.09114006 0.10311353
v -0.42867526 0.14250419 0.44921517
v -0.4323318 0.05904887 0.09251361
v -0.5599565 0.07193916 0.22311036
v -0.5540814 0.08991368 0.427139
v -0.33522367 0.087656856 0.6157298
v -0.18195258 0.119552396 0.5262324
v -0.16037145 0.11684417 0.20087183
v -0.24584208 0.09114006 0.10311353
v -0.5517686 -0.08324294 0.41882458
v -0.5540814 0.08991368 0.427139
v -0.39227745 -0.08560908 0.5858484
v -0.33522367 0.087656856 0.6157298
v -0.18195258 0.119552396 0.5262324
v -0.26428443 -0.088358246 0.5990665
v -0.33522367 0.087656856 0.6157298
v -0.15651298 -0.07815244 0.47660896
v -0.5599565 0.07193916 0.22311036
v -0.53950304 -0.08754504 0.19640824
v -0.4323318 0.05904887 0.09251361
v -0.4030984 -0.04611048 0.085891746
v -0.5540814 0.08991368 0.427139
v -0.5517686 -0.08324294 0.41882458
v -0.5599565 0.07193916 0.22311036
v -0.53950304 -0.08754504 0.19640824
v 0.29636607 -0.11396265 -0.20339966
v 0.2956975 0.09414271 -0.19995499
v 0.5773973 0.08793226 0.07276688
v 0.56962484 -0.113835596 0.05589676
v 0.5773973 0.08793226 0.07276688
v 0.4240708 0.13844456 -0.07058115
v 0.7884907 0.12072114 -0.47062397
v 0.78826326 -0.08161383 -0.4978923
v 0.7895356 -0.08710534 -0.116085626
v 0.7892385 0.08534978 -0.0986641
v 0.7892385 0.08534978 -0.0986641
v 0.5773973 0.08793226 0.07276688
v 0.4240708 0.13844456 -0.07058115
v 0.7884907 0.12072114 -0.47062397
v 0.4240708 0.13844456 -0.07058115
v 0.42527413 0.069536805 -0.49231148
v 0.2956975 0.09414271 -0.19995499
v 0.7892385 0.08534978 -0.0986641
v 0.7895356 -0.08710534 -0.116085626
v 0.5773973 0.08793226 0.07276688
v 0.56962484 -0.113835596 0.05589676
v 0.2956975 0.09414271 -0.19995499
v 0.29636607 -0.11396265 -0.20339966
v 0.42527413 0.069536805 -0.49231148
v 0.4267056 -0.090485424 -0.48845655
v 0.42527413 0.069536805 -0.49231148
v 0.78826326 -0.08161383 -0.4978923
v 0.7884907 0.12072114 -0.47062397
v 0.4267056 -0.090485424 -0.48845655
v -0.8489813 -0.10429573 -0.1321003
v -0.5754884 -0.0784406 -0.5159899
v -0.8224799 0.079962395 -0.22344676
v -0.67726827 0.13153674 -0.44095993
v -0.6087985 0.045008164 0.14997692
v -0.60610193 -0.06425844 0.11371555
v -0.82034713 0.090463795 -0.07139569
v -0.8489813 -0.10429573 -0.1321003
v -0.8224799 0.079962395 -0.22344676
v -0.67726827 0.13153674 -0.44095993
v -0.7251639 0.13170826 -0.09687977
v -0.82034713 0.090463795 -0.07139569
v -0.6087985 0.045008164 0.14997692
v -0.67726827 0.13153674 -0.44095993
v -0.5160285 0.08273295 -0.52166396
v -0.3191305 0.04159392 -0.27717972
v -0.7251639 0.13170826 -0.09687977
v -0.6087985 0.045008164 0.14997692
v -0.32486033 -0.03657278 -0.16009083
vt 0.78473055 0.9728289
vt 0.78751445 0.9978524
vt 0.79996693 0.9843304
vt 0.8385406 0.9735379
vt 0.8295198 0.9575994
vt 0.8200348 0.9701779
vt 0.8295198 0.9575994
vt 0.8406377 0.9468625
vt 0.8182973 0.9321029
vt 0.8295198 0.9575994
vt 0.8094181 0.94171417
vt 0.8156163 0.95340943
vt 0.4613399 0.63793117
vt 0.45177105 0.6549634
vt 0.47151002 0.67290974
vt 0.47151002 0.67290974
vt 0.48367417 0.6564616
vt 0.4613399 0.63793117
vt 0.47617218 0.6364879
vt 0.48367417 0.6564616
vt 0.49462634 0.64176947
vt 0.50509745 0.6446257
vt 0.49682942 0.6316234
vt 0.47330385 0.61930954
vt 0.4613399 0.63793117
vt 0.48019597 0.6704529
vt 0.48367417 0.6564616
vt 0.47151002 0.67290974
vt 0.47151002 0.67290974
vt 0.4989194 0.680227
vt 0.48019597 0.6704529
vt 0.246048 0.975324
vt 0.24287449 0.95600253
vt 0.22673714 0.9708405
vt 0.25223303 0.9571317
vt 0.246048 0.975324
vt 0.24552605 0.9386963
vt 0.22673714 0.9708405
vt 0.24287449 0.95600253
vt 0.25697392 0.9810507
vt 0.246048 0.975324
vt 0.24691461 0.99593085
vt 0.2978964 0.9704323
vt 0.31326047 0.9610813
vt 0.30423546 0.9530456
vt 0.9333054 0.9504287
vt 0.9251824 0.93476075
vt 0.91056377 0.94180423
vt 0.88203806 0.96939063
vt 0.9006754 0.9401802
vt 0.87719655 0.9615587
vt 0.9333054 0.9504287
vt 0.9419955 0.9398652
vt 0.9251824 0.93476075
vt 0.94651556 0.95328134
vt 0.9333054 0.9504287
vt 0.9313953 0.9660449
vt 0.9251824 0.93476075
vt 0.9006754 0.9401802
vt 0.91056377 0.94180423
vt 0.90367925 0.9810375
vt 0.90404534 0.9961067
vt 0.9155347 0.98155415
vt 0.82084084 0.99218935
vt 0.79996693 0.9843304
vt 0.78751445 0.9978524
vt 0.81314486 0.9816306
vt 0.8156163 0.95340943
vt 0.78473055 0.9728289
vt 0.8200348 0.9701779
vt 0.7912693 0.96094686
vt 0.8094181 0.94171417
vt 0.7997249 0.94527966
vt 0.8200348 0.9701779
vt 0.8295198 0.9575994
vt 0.81314486 0.9816306
vt 0.79996693 0.9843304
vt 0.7997249 0.94527966
vt 0.7936404 0.93507487
vt 0.7697009 0.95526314
vt 0.7912693 0.96094686
vt 0.78473055 0.9728289
vt 0.8094181 0.94171417
vt 0.7936404 0.93507487
vt 0.7997249 0.94527966
vt 0.8015321 0.93072784
vt 0.81314486 0.9816306
vt 0.8385406 0.9735379
vt 0.8200348 0.9701779
vt 0.82084084 0.99218935
vt 0.47151002 0.67290974
vt 0.4431261 0.6559587
vt 0.4464073 0.6810212
vt 0.45177105 0.6549634
vt 0.4989194 0.680227
vt 0.50509745 0.6446257
vt 0.48019597 0.6704529
vt 0.48367417 0.6564616
vt 0.44168445 0.6347495
vt 0.45177105 0.6549634
vt 0.4613399 0.63793117
vt 0.4431261 0.6559587
vt 0.25697392 0.9810507
vt 0.24691461 0.99593085
vt 0.2845009 0.99867874
vt 0.28464928 0.9804599
vt 0.246048 0.975324
vt 0.2810927 0.9604548
vt 0.25223303 0.9571317
vt 0.26174465 0.94314146
vt 0.28020355 0.9483924
vt 0.2978964 0.9704323
vt 0.28464928 0.9804599
vt 0.25697392 0.9810507
vt 0.246048 0.975324
vt 0.2873629 0.9353396
vt 0.28020355 0.9483924
vt 0.30423546 0.9530456
vt 0.2978964 0.9704323
vt 0.28464928 0.9804599
vt 0.29979962 0.9907997
vt 0.2978964 0.9704323
vt 0.2845009 0.99867874
vt 0.26174465 0.94314146
vt 0.24552605 0.9386963
vt 0.25223303 0.9571317
vt 0.24287449 0.95600253
vt 0.28020355 0.9483924
vt 0.2873629 0.9353396
vt 0.26174465 0.94314146
vt 0.26706186 0.92860824
vt 0.21734451 0.4035387
vt 0.23417798 0.40872234
vt 0.24348538 0.37606102
vt 0.22659045 0.37277383
vt 0.24348538 0.37606102
vt 0.24190864 0.39471427
vt 0.28434262 0.40673926
vt 0.2967637 0.39462253
vt 0.27420884 0.37057653
vt 0.26566422 0.38210723
vt 0.26566422 0.38210723
vt 0.24348538 0.37606102
vt 0.24190864 0.39471427
vt 0.28434262 0.40673926
vt 0.24190864 0.39471427
vt 0.25761476 0.4221579
vt 0.23417798 0.40872234
vt 0.26566422 0.38210723
vt 0.27420884 0.37057653
vt 0.24348538 0.37606102
vt 0.25205922 0.3609108
vt 0.23417798 0.40872234
vt 0.2296372 0.42632627
vt 0.25761476 0.4221579
vt 0.2568922 0.4352811
vt 0.25761476 0.4221579
vt 0.28800324 0.42427707
vt 0.28434262 0.40673926
vt 0.2568922 0.4352811
vt 0.9166218 0.9980384
vt 0.9479664 0.97621965
vt 0.9155347 0.98155415
vt 0.9313953 0.9660449
vt 0.88203806 0.96939063
vt 0.879203 0.9784646
vt 0.90367925 0.9810375
vt 0.90404534 0.9961067
vt 0.9155347 0.98155415
vt 0.9313953 0.9660449
vt 0.90497106 0.9731534
vt 0.90367925 0.9810375
vt 0.88203806 0.96939063
vt 0.9313953 0.9660449
vt 0.9333054 0.9504287
vt 0.91056377 0.94180423
vt 0.90497106 0.9731534
vt 0.88203806 0.96939063
vt 0.9006754 0.9401802
vn -0.99484104 0.09080816 0.04522476
vn -0.99484104 0.09080816 0.045224756
vn -0.99484104 0.09080817 0.04522476
vn 0.6237081 0.1119517 -0.7735987
vn 0.6237081 0.1119517 -0.7735988
vn 0.6237081 0.1119517 -0.7735987
vn 0.9988939 -0.038246937 -0.027354484
vn 0.9952318 -0.08722275 -0.043655284
vn 0.9986498 -0.048463453 -0.018710496
vn 0.9988939 -0.038246937 -0.027354484
vn 0.9999212 0.012374457 0.0020988528
vn 0.9812806 0.19211145 0.013470543
vn -0.72490996 0.5702049 0.38648662
vn -0.72490996 0.57020485 0.38648662
vn -0.72490996 0.5702049 0.38648662
vn 0.19419318 0.966841 0.16585365
vn 0.40610155 0.9053072 0.124500446
vn 0.23439802 0.9556358 0.17837529
vn 0.6414523 0.5764456 0.50621074
vn 0.40610155 0.9053072 0.124500446
vn 0.884964 0.46552625 0.011139043
vn 0.93185043 0.297418 -0.20783976
vn 0.8530713 0.12250415 0.5072102
vn 0.6261716 0.06261891 0.77716666
vn 0.46480045 0.18680057 0.865486
vn 0.08744474 0.7670162 -0.63564116
vn 0.08744474 0.7670162 -0.63564116
vn 0.08744474 0.7670162 -0.6356411
vn -0.6109724 0.15609585 -0.77611005
vn -0.61097234 0.15609586 -0.7761101
vn -0.61097234 0.15609588 -0.7761101
vn 0.12405734 -0.017652005 -0.99211806
vn 0.10234395 0.007552825 -0.99472046
vn 0.14219616 -0.038816277 -0.9890772
vn 0.043737587 0.074891225 -0.9962321
vn 0.12405734 -0.017652005 -0.99211806
vn -0.07925772 -0.8973043 -0.4342387
vn -0.07925772 -0.8973043 -0.4342387
vn -0.07925771 -0.8973043 -0.43423864
vn 0.6991798 0.2384758 -0.67400056
vn 0.6991798 0.2384758 -0.6740006
vn 0.6991798 0.23847583 -0.6740006
vn -0.104657345 -0.13545248 0.98524076
vn -0.10465735 -0.13545248 0.98524076
vn -0.10465733 -0.13545248 0.98524076
vn 0.67679805 0.58523667 -0.4465897
vn 0.6767981 0.58523667 -0.44658962
vn 0.6767981 0.58523667 -0.4465897
vn 0.69236904 -0.21181615 0.68975294
vn 0.69236904 -0.21181615 0.6897529
vn 0.69236904 -0.21181616 0.68975294
vn 0.25889504 -0.12920989 -0.95722413
vn 0.25889507 -0.12920989 -0.95722413
vn 0.25889513 -0.1292099 -0.95722413
vn -0.72265387 -0.103593886 -0.6834031
vn -0.4146972 0.121239945 -0.90184647
vn -0.74951977 -0.13147639 -0.6487944
vn 0.96418285 -0.23995872 -0.11300953
vn 0.96418285 -0.23995872 -0.11300953
vn 0.96418285 -0.23995867 -0.11300951
vn -0.98953164 0.14426278 0.0039164703
vn -0.98953164 0.14426278 0.0039164703
vn -0.98953164 0.14426276 0.0039164703
vn -0.7134353 -0.56088126 -0.42002645
vn -0.71374774 -0.5631449 -0.41645154
vn -0.71443343 -0.56844 -0.40799606
vn -0.71127313 -0.5469832 -0.44147488
vn 0.07668128 0.9970509 0.0030833527
vn -0.11997264 0.9840731 -0.13117422
vn -0.09131738 0.97483623 -0.20336056
vn 0.10246692 0.9600377 0.26043838
vn 0.27445003 0.8075744 0.5220159
vn 0.27321163 0.7954271 0.5409725
vn -0.09131738 0.97483623 -0.20336056
vn 0.44999877 0.81065744 -0.37461397
vn -0.34746763 0.8862723 -0.3062477
vn -0.59996265 0.7337243 -0.3188941
vn -0.20064977 -0.032012638 0.9791398
vn -0.20165494 -0.029698575 0.97900623
vn -0.24912138 0.0018664177 0.9684705
vn -0.24842075 0.0003152299 0.9686521
vn -0.36724663 0.088734 0.9258813
vn 0.5443332 -0.0027577633 0.83886456
vn 0.5454926 -0.0037401442 0.8381072
vn 0.54188436 -0.000687209 0.8404528
vn 0.54791284 -0.0057951147 0.83651537
vn -0.0050886204 -0.41928053 -0.90784246
vn -0.0064744335 -0.42167172 -0.90672547
vn 0.016350707 -0.381824 -0.9240904
vn -0.032080594 -0.46519572 -0.8846263
vn -0.992353 0.017135462 -0.12223683
vn -0.9919844 0.014588446 -0.12551558
vn -0.9925619 0.018633518 -0.12030724
vn -0.9882686 -0.0065159197 -0.15258665
vn 0.19013235 -0.024957588 -0.98144114
vn 0.19094227 -0.023875937 -0.98131084
vn 0.19089302 -0.023941755 -0.98131883
vn 0.19329897 -0.020725766 -0.98092103
vn -0.56241083 -0.058104564 0.8248139
vn -0.55787015 -0.044252224 0.8287477
vn -0.5662104 -0.06999821 0.8212831
vn -0.5434909 -0.0026515115 0.83941084
vn 0.99990034 0.0133736925 -0.0045341947
vn 0.99899775 -0.028746456 -0.034308173
vn 0.9977642 0.06034836 0.028715337
vn 0.9916659 0.11132496 0.064850405
vn -0.122756034 0.9702159 -0.20883504
vn -0.1259409 0.9901883 0.060546916
vn -0.1473352 0.9634127 -0.22389354
vn -0.16700356 0.9646046 -0.20407766
vn -0.39593354 0.9157941 0.06751107
vn -0.07826788 0.933007 0.3512436
vn 0.070949286 0.9950728 0.06925592
vn -0.002984588 0.9943652 -0.105967045
vn -0.122756034 0.9702159 -0.20883504
vn -0.72286785 -0.04277025 0.68966144
vn -0.6909972 0.016456338 0.72267014
vn -0.6730067 0.04702859 0.7381398
vn -0.6499911 0.083771385 0.75531054
vn 0.6138124 0.033243448 0.78875166
vn 0.6405376 0.015311601 0.7677741
vn 0.48344848 0.11266152 0.8680927
vn 0.7517536 -0.06790733 0.6559384
vn -0.71369505 0.025667688 -0.6999861
vn -0.68619925 -0.013779626 -0.72728306
vn -0.66654927 -0.04025736 -0.7443732
vn -0.6032312 -0.11802344 -0.78878564
vn -0.99943787 -0.014793342 0.0300826
vn -0.9982412 -0.059066013 -0.005071468
vn -0.99695 -0.07583744 -0.018423611
vn -0.9915833 -0.11839564 -0.052392725
vn -0.6934612 -0.019892836 0.7202194
vn -0.6956582 -0.016383296 0.718186
vn -0.6907612 -0.028982215 0.7225018
vn -0.6879226 -0.034116462 0.7249817
vn -0.6907612 -0.028982215 0.7225018
vn -0.6943633 -0.077293545 0.71546155
vn 0.9999956 -6.2808926E-05 -0.002983809
vn 0.99999416 -0.0006738293 -0.0033419768
vn 0.9999968 0.001002008 -0.002359632
vn 0.99999654 0.001907265 -0.0018289819
vn 0.15098275 0.9829626 0.104826964
vn 0.15492046 0.9719786 0.17679669
vn 0.002221201 0.9997117 -0.02390549
vn -0.010872133 0.9984742 -0.054140218
vn 0.002221201 0.9997117 -0.02390549
vn -0.1325994 0.97813785 -0.16019912
vn -0.1748148 0.97163624 -0.1592573
vn 0.6266166 -0.07726092 0.7754885
vn 0.6237747 -0.08258326 0.7772291
vn 0.62227875 -0.0853653 0.7781272
vn 0.6202844 -0.08905351 0.77930534
vn -0.91410416 0.0037745975 -0.40546197
vn -0.9128533 -0.0015483478 -0.4082847
vn -0.9111507 -0.008569114 -0.41198424
vn -0.9087238 -0.018174343 -0.41700214
vn -0.001021341 0.034447655 -0.999406
vn 0.026098803 0.099403545 -0.9947049
vn 0.040326826 0.13340756 -0.99024045
vn -0.025484944 -0.02430307 -0.99937975
vn -0.7967026 -0.17255886 -0.57921356
vn -0.72265387 -0.103593886 -0.6834031
vn -0.7968967 -0.17434126 -0.57841235
vn -0.74951977 -0.13147639 -0.6487944
vn -0.7265571 -0.2325035 0.6465732
vn -0.71405435 -0.17900382 0.6768191
vn -0.70112246 -0.13265325 0.7005929
vn -0.69667685 -0.11812148 0.7075935
vn -0.40948057 0.9105107 -0.05740912
vn -0.4094392 0.91052693 -0.05744746
vn -0.35013464 0.91934353 0.17948061
vn -0.3271802 0.91074884 0.25197175
vn -0.26083153 0.86579883 0.42703542
vn 0.23797376 0.971185 0.012967002
vn 0.26546887 0.9627269 -0.051801376
vn 0.33070436 0.93333733 0.13970006
vn 0.26748332 0.9554415 0.124837324
vn 0.3257341 0.92103356 0.21352851
vn 0.6569254 0.611824 0.440591
g polySurface35_0
f 3/3/3 2/2/2 1/1/1
f 6/6/6 5/5/5 4/4/4
f 9/9/9 8/8/8 7/7/7
f 11/11/11 9/9/9 10/10/10
f 11/11/11 10/10/10 12/12/12
f 15/15/15 14/14/14 13/13/13
f 18/18/18 17/17/17 16/16/16
f 20/20/20 18/18/18 19/19/19
f 20/20/20 19/19/19 21/21/21
f 21/21/21 22/22/22 20/20/20
f 23/23/23 22/22/22 21/21/21
f 19/19/19 23/23/23 21/21/21
f 23/23/23 19/19/19 24/24/24
f 19/19/19 25/25/25 24/24/24
f 28/28/28 27/27/27 26/26/26
f 31/31/31 30/30/30 29/29/29
f 34/34/34 33/33/33 32/32/32
f 36/36/36 33/33/33 35/35/35
f 39/39/39 38/38/38 37/37/37
f 42/42/42 41/41/41 40/40/40
f 45/45/45 44/44/44 43/43/43
f 48/48/48 47/47/47 46/46/46
f 51/51/51 50/50/50 49/49/49
f 54/54/54 53/53/53 52/52/52
f 57/57/57 56/56/56 55/55/55
f 60/60/60 59/59/59 58/58/58
f 63/63/63 62/62/62 61/61/61
f 66/66/66 65/65/65 64/64/64
f 65/65/65 67/67/67 64/64/64
f 70/70/70 69/69/69 68/68/68
f 69/69/69 71/71/71 68/68/68
f 68/68/68 71/71/71 72/72/72
f 71/71/71 73/73/73 72/72/72
f 68/68/68 75/75/75 74/74/74
f 74/74/74 76/76/76 69/69/69
f 77/77/77 69/69/69 76/76/76
f 80/80/80 79/79/79 78/78/78
f 81/81/81 80/80/80 78/78/78
f 82/82/82 80/80/80 81/81/81
f 85/85/85 84/84/84 83/83/83
f 86/86/86 83/83/83 84/84/84
f 89/89/89 88/88/88 87/87/87
f 88/88/88 90/90/90 87/87/87
f 93/93/93 92/92/92 91/91/91
f 91/91/91 92/92/92 94/94/94
f 97/97/97 96/96/96 95/95/95
f 96/96/96 97/97/97 98/98/98
f 101/101/101 100/100/100 99/99/99
f 100/100/100 102/102/102 99/99/99
f 105/105/105 104/104/104 103/103/103
f 106/106/106 105/105/105 103/103/103
f 109/109/109 108/108/108 107/107/107
f 109/109/109 110/110/110 108/108/108
f 108/108/108 110/110/110 111/111/111
f 111/111/111 112/112/112 108/108/108
f 112/112/112 113/113/113 108/108/108
f 114/114/114 108/108/108 113/113/113
f 108/108/108 114/114/114 115/115/115
f 118/118/118 117/117/117 116/116/116
f 118/118/118 119/119/119 117/117/117
f 122/122/122 121/121/121 120/120/120
f 121/121/121 123/123/123 120/120/120
f 126/126/126 125/125/125 124/124/124
f 127/127/127 125/125/125 126/126/126
f 130/130/130 129/129/129 128/128/128
f 131/131/131 129/129/129 130/130/130
f 134/134/134 133/133/133 132/132/132
f 136/136/136 132/132/132 135/135/135
f 137/137/137 133/133/133 136/136/136
f 140/140/140 139/139/139 138/138/138
f 140/140/140 138/138/138 141/141/141
f 144/144/144 143/143/143 142/142/142
f 145/145/145 144/144/144 142/142/142
f 147/147/147 146/146/146 145/145/145
f 148/148/148 146/146/146 147/147/147
f 151/151/151 150/150/150 149/149/149
f 152/152/152 150/150/150 151/151/151
f 155/155/155 154/154/154 153/153/153
f 156/156/156 154/154/154 155/155/155
f 159/159/159 158/158/158 157/157/157
f 157/157/157 158/158/158 160/160/160
f 163/163/163 162/162/162 161/161/161
f 163/163/163 164/164/164 162/162/162
f 167/167/167 166/166/166 165/165/165
f 167/167/167 168/168/168 166/166/166
f 171/171/171 170/170/170 169/169/169
f 169/169/169 172/172/172 171/171/171
f 171/171/171 172/172/172 173/173/173
f 176/176/176 175/175/175 174/174/174
f 177/177/177 176/176/176 174/174/174
f 177/177/177 178/178/178 176/176/176
f 179/179/179 176/176/176 178/178/178
