g polySurface17
v 0.056912694 -0.11339495 -0.13304596
v 0.03862704 0.7098732 -0.101374306
v -0.015735364 0.7098732 -0.101374306
v -0.034020986 -0.11339495 -0.13304597
v -0.034020986 -0.11339495 -0.13304597
v -0.015735364 0.7098732 -0.101374306
v -0.042916566 0.7098732 -0.054295097
v -0.07948784 -0.11339495 -0.054295097
v -0.07948784 -0.11339495 -0.054295097
v -0.042916566 0.7098732 -0.054295097
v -0.015735377 0.7098732 -0.007215869
v -0.03402102 -0.11339495 0.024455784
v -0.03402102 -0.11339495 0.024455784
v -0.015735377 0.7098732 -0.007215869
v 0.03862703 0.7098732 -0.007215864
v 0.056912668 -0.11339495 0.024455784
v 0.056912668 -0.11339495 0.024455784
v 0.03862703 0.7098732 -0.007215864
v 0.06580824 0.7098732 -0.054295085
v 0.10237949 -0.11339495 -0.054295085
v 0.10237949 -0.11339495 -0.054295085
v 0.06580824 0.7098732 -0.054295085
v 0.03862704 0.7098732 -0.101374306
v 0.056912694 -0.11339495 -0.13304596
v 0.47197273 -0.035351474 -0.056184795
v 0.4605823 0.43969682 -0.03645622
v 0.42671955 0.43969682 -0.036456224
v 0.41532925 -0.035351474 -0.056184806
v 0.41532925 -0.035351474 -0.056184806
v 0.42671955 0.43969682 -0.036456224
v 0.40978807 0.43969682 -0.007130124
v 0.3870075 -0.035351474 -0.007130127
v 0.3870075 -0.035351474 -0.007130127
v 0.40978807 0.43969682 -0.007130124
v 0.42671955 0.43969682 0.022195982
v 0.41532925 -0.035351474 0.041924566
v 0.41532925 -0.035351474 0.041924566
v 0.42671955 0.43969682 0.022195982
v 0.4605823 0.43969682 0.022195987
v 0.47197273 -0.035351474 0.04192457
v 0.47197273 -0.035351474 0.04192457
v 0.4605823 0.43969682 0.022195987
v 0.47751376 0.43969682 -0.0071301195
v 0.5002943 -0.035351474 -0.007130118
v 0.5002943 -0.035351474 -0.007130118
v 0.47751376 0.43969682 -0.0071301195
v 0.4605823 0.43969682 -0.03645622
v 0.47197273 -0.035351474 -0.056184795
v -0.16501172 -0.04096635 0.27158472
v -0.22880705 0.3132221 0.36176938
v -0.23436406 0.3196401 0.3354793
v -0.17430717 -0.030230707 0.22760834
v -0.17430717 -0.030230707 0.22760834
v -0.23436406 0.3196401 0.3354793
v -0.26038784 0.31875306 0.3262477
v -0.2178379 -0.031714488 0.21216632
v -0.2178379 -0.031714488 0.21216632
v -0.26038784 0.31875306 0.3262477
v -0.28085455 0.31144798 0.34330624
v -0.25207326 -0.043933935 0.24070068
v -0.25207326 -0.043933935 0.24070068
v -0.28085455 0.31144798 0.34330624
v -0.27529755 0.30503 0.36959633
v -0.24277781 -0.054669578 0.28467706
v -0.24277781 -0.054669578 0.28467706
v -0.27529755 0.30503 0.36959633
v -0.24927379 0.30591705 0.37882802
v -0.19924709 -0.053185735 0.300119
v -0.19924709 -0.053185735 0.300119
v -0.24927379 0.30591705 0.37882802
v -0.22880705 0.3132221 0.36176938
v -0.16501172 -0.04096635 0.27158472
v -0.21709888 -0.048310287 -0.1298977
v -0.28397542 0.16961467 -0.15120389
v -0.29919273 0.16452953 -0.16104445
v -0.24255344 -0.056816407 -0.14635833
v -0.24255344 -0.056816407 -0.14635833
v -0.29919273 0.16452953 -0.16104445
v -0.31552732 0.16147451 -0.15220629
v -0.26987675 -0.06192663 -0.13157453
v -0.26987675 -0.06192663 -0.13157453
v -0.31552732 0.16147451 -0.15220629
v -0.31664446 0.16350463 -0.13352762
v -0.27174553 -0.058530774 -0.10033006
v -0.27174553 -0.058530774 -0.10033006
v -0.31664446 0.16350463 -0.13352762
v -0.30142716 0.16858979 -0.12368707
v -0.24629097 -0.050024655 -0.08386945
v -0.24629097 -0.050024655 -0.08386945
v -0.30142716 0.16858979 -0.12368707
v -0.28509262 0.1716448 -0.13252519
v -0.21896775 -0.044914432 -0.09865333
v -0.21896775 -0.044914432 -0.09865333
v -0.28509262 0.1716448 -0.13252519
v -0.28397542 0.16961467 -0.15120389
v -0.21709888 -0.048310287 -0.1298977
v 0.031274498 0.21982674 0.32167926
v 0.20218958 0.3093434 0.35620567
v 0.050275892 0.20323 0.4200762
v 0.0743694 0.23042199 0.23030621
v 0.16309974 0.23096865 0.1808584
v 0.26357365 0.22125798 0.19222331
v 0.33741346 0.20499906 0.2600599
v 0.3564149 0.18840225 0.3584568
v 0.050275892 0.20323 0.4200762
v 0.20218958 0.3093434 0.35620567
v 0.12411574 0.18697107 0.48791268
v 0.22458959 0.17726035 0.49927762
v 0.31332004 0.17780705 0.4498298
v 0.3564149 0.18840225 0.3584568
v 0.17746297 -0.06362681 0.272783
v 0.19953665 0.2160633 0.32798305
v 0.18373756 0.21596597 0.33678758
v 0.1510352 -0.063789636 0.2875107
v 0.1510352 -0.063789636 0.2875107
v 0.18373756 0.21596597 0.33678758
v 0.18336456 0.21325375 0.3546663
v 0.15041123 -0.0683265 0.31741697
v 0.15041123 -0.0683265 0.31741697
v 0.18336456 0.21325375 0.3546663
v 0.19879068 0.21063884 0.36374038
v 0.17621502 -0.07270055 0.33259553
v 0.17621502 -0.07270055 0.33259553
v 0.19879068 0.21063884 0.36374038
v 0.21458977 0.21073617 0.35493585
v 0.20264278 -0.07253773 0.31786782
v 0.20264278 -0.07253773 0.31786782
v 0.21458977 0.21073617 0.35493585
v 0.21496283 0.21344844 0.33705714
v 0.20326667 -0.06800086 0.2879616
v 0.20326667 -0.06800086 0.2879616
v 0.21496283 0.21344844 0.33705714
v 0.19953665 0.2160633 0.32798305
v 0.17746297 -0.06362681 0.272783
v 0.3608788 0.64839673 -0.32371005
v -0.0017552028 0.8427592 -0.060240984
v 0.13675863 0.64839673 -0.4865428
v 0.446485 0.64839673 -0.060240984
v -0.1402691 0.64839673 -0.48654276
v 0.3608788 0.64839673 0.20322798
v -0.3643892 0.64839673 -0.32371
v 0.13675867 0.64839673 0.36606082
v -0.44999543 0.64839673 -0.060240954
v -0.14026903 0.64839673 0.36606082
v -0.36438912 0.64839673 0.20322803
v 0.68908685 0.42241442 -0.19917768
v 0.4401395 0.5999851 -0.018306773
v 0.53522885 0.42241442 -0.31096202
v 0.74785537 0.42241442 -0.018306773
v 0.34505004 0.42241442 -0.310962
v 0.68908685 0.42241442 0.1625641
v 0.19119205 0.42241442 -0.19917764
v 0.535229 0.42241442 0.27434847
v 0.1324236 0.42241442 -0.018306753
v 0.34505004 0.42241442 0.27434847
v 0.19119212 0.42241442 0.16256413
v -0.06064387 0.27973425 0.5139525
v -0.2621663 0.43427137 0.38084534
v 0.0027129292 0.32450822 0.3795842
v -0.19436647 0.24333307 0.5837154
v -0.02849623 0.36055282 0.23193462
v -0.3473774 0.22920868 0.5622258
v -0.14235051 0.37410027 0.1274007
v -0.4612316 0.2427561 0.45769206
v -0.2953614 0.35997584 0.10591122
v -0.4924408 0.27880073 0.31004238
v -0.429084 0.32357466 0.17567408
v -0.13083936 0.19876954 -0.16015017
v -0.31741974 0.2404522 -0.15782484
v -0.16671927 0.17761807 -0.25730523
v -0.15824732 0.20443423 -0.05821595
v -0.25218216 0.14905904 -0.31257123
v -0.23847425 0.19244847 0.009561884
v -0.3545841 0.12400098 -0.3048385
v -0.34087616 0.1673904 0.017294662
v -0.43481106 0.112015225 -0.23706062
v -0.42633912 0.13883135 -0.03797137
v -0.46221903 0.11767991 -0.13512643
vt 0.749628 0.43840832
vt 0.7941741 0.6605046
vt 0.8165105 0.6547734
vt 0.7857475 0.4334204
vt 0.7857475 0.4334204
vt 0.8165105 0.6547734
vt 0.8394076 0.65248305
vt 0.8240494 0.4295746
vt 0.8240494 0.4295746
vt 0.8394076 0.65248305
vt 0.86240697 0.65184015
vt 0.8625309 0.42841312
vt 0.8625309 0.42841312
vt 0.86240697 0.65184015
vt 0.8854002 0.65276664
vt 0.900996 0.42989987
vt 0.900996 0.42989987
vt 0.8854002 0.65276664
vt 0.9082818 0.65521246
vt 0.939274 0.4339622
vt 0.939274 0.4339622
vt 0.9082818 0.65521246
vt 0.93094033 0.6592204
vt 0.977188 0.44059852
vt 0.8651436 0.7215362
vt 0.88823557 0.82899237
vt 0.8997245 0.8259019
vt 0.8837346 0.7187336
vt 0.8837346 0.7187336
vt 0.8997245 0.8259019
vt 0.91155106 0.8245951
vt 0.90351915 0.7165619
vt 0.90351915 0.7165619
vt 0.91155106 0.8245951
vt 0.9234421 0.8241698
vt 0.92340904 0.71583426
vt 0.92340904 0.71583426
vt 0.9234421 0.8241698
vt 0.9353315 0.8246166
vt 0.9432985 0.7165733
vt 0.9432985 0.7165733
vt 0.9353315 0.8246166
vt 0.9471565 0.8259383
vt 0.9630776 0.7187819
vt 0.9630776 0.7187819
vt 0.9471565 0.8259383
vt 0.9588236 0.8281294
vt 0.9826254 0.7224344
vt 0.8651436 0.7215362
vt 0.88823557 0.82899237
vt 0.8997245 0.8259019
vt 0.8837346 0.7187336
vt 0.8837346 0.7187336
vt 0.8997245 0.8259019
vt 0.91155106 0.8245951
vt 0.90351915 0.7165619
vt 0.90351915 0.7165619
vt 0.91155106 0.8245951
vt 0.9234421 0.8241698
vt 0.92340904 0.71583426
vt 0.92340904 0.71583426
vt 0.9234421 0.8241698
vt 0.9353315 0.8246166
vt 0.9432985 0.7165733
vt 0.9432985 0.7165733
vt 0.9353315 0.8246166
vt 0.9471565 0.8259383
vt 0.9630776 0.7187819
vt 0.9630776 0.7187819
vt 0.9471565 0.8259383
vt 0.9588236 0.8281294
vt 0.9826254 0.7224344
vt 0.8651436 0.7215362
vt 0.88823557 0.82899237
vt 0.8997245 0.8259019
vt 0.8837346 0.7187336
vt 0.8837346 0.7187336
vt 0.8997245 0.8259019
vt 0.91155106 0.8245951
vt 0.90351915 0.7165619
vt 0.90351915 0.7165619
vt 0.91155106 0.8245951
vt 0.9234421 0.8241698
vt 0.92340904 0.71583426
vt 0.92340904 0.71583426
vt 0.9234421 0.8241698
vt 0.9353315 0.8246166
vt 0.9432985 0.7165733
vt 0.9432985 0.7165733
vt 0.9353315 0.8246166
vt 0.9471565 0.8259383
vt 0.9630776 0.7187819
vt 0.9630776 0.7187819
vt 0.9471565 0.8259383
vt 0.9588236 0.8281294
vt 0.9826254 0.7224344
vt 0.6106824 0.7625119
vt 0.71977884 0.7980823
vt 0.65243614 0.70516807
vt 0.61061764 0.83343273
vt 0.6522639 0.89085877
vt 0.719646 0.9129804
vt 0.7870797 0.8910143
vt 0.82885784 0.83368695
vt 0.65243614 0.70516807
vt 0.71977884 0.7980823
vt 0.71991026 0.68333024
vt 0.78733915 0.7053259
vt 0.82895666 0.76276267
vt 0.82885784 0.83368695
vt 0.8651436 0.7215362
vt 0.88823557 0.82899237
vt 0.8997245 0.8259019
vt 0.8837346 0.7187336
vt 0.8837346 0.7187336
vt 0.8997245 0.8259019
vt 0.91155106 0.8245951
vt 0.90351915 0.7165619
vt 0.90351915 0.7165619
vt 0.91155106 0.8245951
vt 0.9234421 0.8241698
vt 0.92340904 0.71583426
vt 0.92340904 0.71583426
vt 0.9234421 0.8241698
vt 0.9353315 0.8246166
vt 0.9432985 0.7165733
vt 0.9432985 0.7165733
vt 0.9353315 0.8246166
vt 0.9471565 0.8259383
vt 0.9630776 0.7187819
vt 0.9630776 0.7187819
vt 0.9471565 0.8259383
vt 0.9588236 0.8281294
vt 0.9826254 0.7224344
vt 0.8720473 0.088894464
vt 0.7114266 0.20585059
vt 0.91013014 0.20564584
vt 0.77263933 0.016763985
vt 0.8723083 0.32249206
vt 0.64979 0.016901696
vt 0.7730401 0.39477977
vt 0.5505441 0.08925492
vt 0.650237 0.39491755
vt 0.512723 0.20609176
vt 0.5508067 0.32285252
vt 0.719646 0.9129804
vt 0.71977884 0.7980823
vt 0.6522639 0.89085877
vt 0.7870797 0.8910143
vt 0.61061764 0.83343273
vt 0.82885784 0.83368695
vt 0.6106824 0.7625119
vt 0.82895666 0.76276267
vt 0.65243614 0.70516807
vt 0.78733915 0.7053259
vt 0.71991026 0.68333024
vt 0.719646 0.9129804
vt 0.71977884 0.7980823
vt 0.6522639 0.89085877
vt 0.7870797 0.8910143
vt 0.61061764 0.83343273
vt 0.82885784 0.83368695
vt 0.6106824 0.7625119
vt 0.82895666 0.76276267
vt 0.65243614 0.70516807
vt 0.78733915 0.7053259
vt 0.71991026 0.68333024
vt 0.719646 0.9129804
vt 0.71977884 0.7980823
vt 0.6522639 0.89085877
vt 0.7870797 0.8910143
vt 0.61061764 0.83343273
vt 0.82885784 0.83368695
vt 0.6106824 0.7625119
vt 0.82895666 0.76276267
vt 0.65243614 0.70516807
vt 0.78733915 0.7053259
vt 0.71991026 0.68333024
vn 0.49950758 0.044378307 -0.86517215
vn 0.49950758 0.044378307 -0.86517215
vn -0.49950728 0.0443783 -0.86517227
vn -0.49950728 0.0443783 -0.86517227
vn -0.49950728 0.0443783 -0.86517227
vn -0.49950728 0.0443783 -0.86517227
vn -0.99901485 0.044378303 0
vn -0.99901485 0.044378303 0
vn -0.99901485 0.044378303 0
vn -0.99901485 0.044378303 0
vn -0.49950746 0.044378303 0.86517215
vn -0.49950746 0.044378303 0.86517215
vn -0.49950746 0.044378303 0.86517215
vn -0.49950746 0.044378303 0.86517215
vn 0.49950737 0.044378296 0.86517215
vn 0.49950737 0.044378296 0.86517215
vn 0.49950737 0.044378296 0.86517215
vn 0.49950737 0.044378296 0.86517215
vn 0.99901485 0.044378296 0
vn 0.99901485 0.044378296 0
vn 0.99901485 0.044378296 0
vn 0.99901485 0.044378296 0
vn 0.49950758 0.044378307 -0.86517215
vn 0.49950758 0.044378307 -0.86517215
vn 0.4994267 0.047899358 -0.865031
vn 0.4994267 0.047899358 -0.865031
vn -0.49942583 0.047899157 -0.8650315
vn -0.49942583 0.047899157 -0.8650315
vn -0.49942583 0.047899157 -0.8650315
vn -0.49942583 0.047899157 -0.8650315
vn -0.99885225 0.047899146 0
vn -0.99885225 0.047899146 0
vn -0.99885225 0.047899146 0
vn -0.99885225 0.047899146 0
vn -0.49942598 0.047899175 0.86503136
vn -0.49942598 0.047899175 0.86503136
vn -0.49942598 0.047899175 0.86503136
vn -0.49942598 0.047899175 0.86503136
vn 0.4994266 0.04789927 0.865031
vn 0.4994266 0.04789927 0.865031
vn 0.4994266 0.04789927 0.865031
vn 0.4994266 0.04789927 0.865031
vn 0.99885213 0.047899343 0
vn 0.99885213 0.047899343 0
vn 0.99885213 0.047899343 0
vn 0.99885213 0.047899343 0
vn 0.4994267 0.047899358 -0.865031
vn 0.4994267 0.047899358 -0.865031
vn 0.9345313 0.080030225 0.3467657
vn 0.9345313 0.080030225 0.3467657
vn 0.73363835 0.31204924 -0.6036555
vn 0.73363835 0.31204924 -0.6036555
vn 0.73363835 0.31204924 -0.6036555
vn 0.73363835 0.31204924 -0.6036555
vn -0.20715058 0.27998152 -0.93738943
vn -0.20715058 0.27998152 -0.93738943
vn -0.20715058 0.27998152 -0.93738943
vn -0.20715058 0.27998152 -0.93738943
vn -0.9470467 0.015894586 -0.32070246
vn -0.9470467 0.015894586 -0.32070246
vn -0.9470467 0.015894586 -0.32070246
vn -0.9470467 0.015894586 -0.32070246
vn -0.7461531 -0.21612476 0.6297187
vn -0.7461531 -0.21612476 0.6297187
vn -0.7461531 -0.21612476 0.6297187
vn -0.7461531 -0.21612476 0.6297187
vn 0.19463536 -0.18405679 0.9634522
vn 0.19463536 -0.18405679 0.9634522
vn 0.19463536 -0.18405679 0.9634522
vn 0.19463536 -0.18405679 0.9634522
vn 0.9345313 0.080030225 0.3467657
vn 0.9345313 0.080030225 0.3467657
vn 0.8530003 0.21528442 -0.47543997
vn 0.8530003 0.21528442 -0.47543997
vn 0.045745123 -0.05447566 -0.9974667
vn 0.045745123 -0.05447566 -0.9974667
vn 0.045745123 -0.05447566 -0.9974667
vn 0.045745123 -0.05447566 -0.9974667
vn -0.82077605 -0.21653962 -0.52861816
vn -0.82077605 -0.21653962 -0.52861816
vn -0.82077605 -0.21653962 -0.52861816
vn -0.82077605 -0.21653962 -0.52861816
vn -0.88004136 -0.1088438 0.46225554
vn -0.88004136 -0.1088438 0.46225554
vn -0.88004136 -0.1088438 0.46225554
vn -0.88004136 -0.1088438 0.46225554
vn -0.0727859 0.16091609 0.9842806
vn -0.0727859 0.16091609 0.9842806
vn -0.0727859 0.16091609 0.9842806
vn -0.0727859 0.16091609 0.9842806
vn 0.7937337 0.3229799 0.5154327
vn 0.7937337 0.3229799 0.5154327
vn 0.7937337 0.3229799 0.5154327
vn 0.7937337 0.3229799 0.5154327
vn 0.8530003 0.21528442 -0.47543997
vn 0.8530003 0.21528442 -0.47543997
vn -0.47335425 0.8784134 0.06576923
vn 0.07814613 0.9854214 0.15112194
vn -0.41036877 0.8233987 0.39193368
vn -0.33050436 0.91353416 -0.2371121
vn -0.036382824 0.9153463 -0.4010204
vn 0.2966661 0.8831576 -0.36334834
vn 0.54142874 0.82926273 -0.13848524
vn 0.60441417 0.7742482 0.18767875
vn -0.41036877 0.8233987 0.39193368
vn 0.07814613 0.9854214 0.15112194
vn -0.16560636 0.76950383 0.616797
vn 0.16744225 0.7373151 0.65446883
vn 0.46156406 0.7391274 0.49056026
vn 0.60441417 0.7742482 0.18767875
vn 0.02393047 0.19175272 -0.9811515
vn 0.02393047 0.19175272 -0.9811515
vn -0.84878236 0.18637577 -0.4948056
vn -0.84878236 0.18637577 -0.4948056
vn -0.84878236 0.18637577 -0.4948056
vn -0.84878236 0.18637577 -0.4948056
vn -0.8693873 0.036556423 0.49277708
vn -0.8693873 0.036556423 0.49277708
vn -0.8693873 0.036556423 0.49277708
vn -0.8693873 0.036556423 0.49277708
vn -0.01727989 -0.107885875 0.99401313
vn -0.01727989 -0.107885875 0.99401313
vn -0.01727989 -0.107885875 0.99401313
vn -0.01727989 -0.107885875 0.99401313
vn 0.85543334 -0.102508985 0.5076669
vn 0.85543334 -0.102508985 0.5076669
vn 0.85543334 -0.102508985 0.5076669
vn 0.85543334 -0.102508985 0.5076669
vn 0.87603784 0.04731046 -0.47991604
vn 0.87603784 0.04731046 -0.47991604
vn 0.87603784 0.04731046 -0.47991604
vn 0.87603784 0.04731046 -0.47991604
vn 0.02393047 0.19175272 -0.9811515
vn 0.02393047 0.19175272 -0.9811515
vn 0.32184544 0.9174623 -0.23383453
vn -0 1 0
vn 0.12293395 0.91746217 -0.37835222
vn 0.39782295 0.9174623 0
vn -0.12293407 0.9174623 -0.37835214
vn 0.32184553 0.91746217 0.2338345
vn -0.3218455 0.9174623 -0.23383443
vn 0.12293403 0.91746217 0.37835217
vn -0.39782286 0.9174623 0
vn -0.12293404 0.9174623 0.37835196
vn -0.32184547 0.9174623 0.23383436
vn 0.40435612 0.86613405 -0.29378197
vn -0 1 0
vn 0.15445025 0.86613405 -0.47534922
vn 0.49981168 0.86613417 0
vn -0.15445034 0.86613405 -0.47534928
vn 0.40435618 0.86613417 0.29378185
vn -0.40435612 0.86613405 -0.29378203
vn 0.15445036 0.86613417 0.47534913
vn -0.49981165 0.86613405 0
vn -0.15445036 0.866134 0.47534934
vn -0.40435618 0.866134 0.29378206
vn 0.24510698 0.79614776 0.55323696
vn -0.12491796 0.9574561 0.26014102
vn 0.3670202 0.8823034 0.29468098
vn -0.012206339 0.7261033 0.6874773
vn 0.30696657 0.95166165 0.010568686
vn -0.30663505 0.6989248 0.6461262
vn 0.087884314 0.97773004 -0.19057885
vn -0.5257174 0.7249932 0.44497865
vn -0.20654455 0.95055133 -0.2319298
vn -0.585771 0.7943515 0.1608664
vn -0.46385777 0.880507 -0.09768956
vn 0.21424745 0.96679 -0.13933781
vn -0.24447955 0.9622984 -0.11921237
vn 0.12049228 0.91152066 -0.39320683
vn 0.14262974 0.98159206 0.12701918
vn -0.10282452 0.8368951 -0.5376185
vn -0.067005396 0.95027286 0.3041245
vn -0.37040368 0.77141774 -0.51741266
vn -0.33458444 0.8847956 0.3243303
vn -0.58003896 0.7400985 -0.34030712
vn -0.5579015 0.8101699 0.17991865
vn -0.6516568 0.75490046 -0.07395022
g polySurface17_0
f 3/3/3 2/2/2 1/1/1
f 4/4/4 3/3/3 1/1/1
f 7/7/7 6/6/6 5/5/5
f 8/8/8 7/7/7 5/5/5
f 11/11/11 10/10/10 9/9/9
f 12/12/12 11/11/11 9/9/9
f 15/15/15 14/14/14 13/13/13
f 16/16/16 15/15/15 13/13/13
f 19/19/19 18/18/18 17/17/17
f 20/20/20 19/19/19 17/17/17
f 23/23/23 22/22/22 21/21/21
f 24/24/24 23/23/23 21/21/21
f 27/27/27 26/26/26 25/25/25
f 28/28/28 27/27/27 25/25/25
f 31/31/31 30/30/30 29/29/29
f 32/32/32 31/31/31 29/29/29
f 35/35/35 34/34/34 33/33/33
f 36/36/36 35/35/35 33/33/33
f 39/39/39 38/38/38 37/37/37
f 40/40/40 39/39/39 37/37/37
f 43/43/43 42/42/42 41/41/41
f 44/44/44 43/43/43 41/41/41
f 47/47/47 46/46/46 45/45/45
f 48/48/48 47/47/47 45/45/45
f 51/51/51 50/50/50 49/49/49
f 52/52/52 51/51/51 49/49/49
f 55/55/55 54/54/54 53/53/53
f 56/56/56 55/55/55 53/53/53
f 59/59/59 58/58/58 57/57/57
f 60/60/60 59/59/59 57/57/57
f 63/63/63 62/62/62 61/61/61
f 64/64/64 63/63/63 61/61/61
f 67/67/67 66/66/66 65/65/65
f 68/68/68 67/67/67 65/65/65
f 71/71/71 70/70/70 69/69/69
f 72/72/72 71/71/71 69/69/69
f 75/75/75 74/74/74 73/73/73
f 76/76/76 75/75/75 73/73/73
f 79/79/79 78/78/78 77/77/77
f 80/80/80 79/79/79 77/77/77
f 83/83/83 82/82/82 81/81/81
f 84/84/84 83/83/83 81/81/81
f 87/87/87 86/86/86 85/85/85
f 88/88/88 87/87/87 85/85/85
f 91/91/91 90/90/90 89/89/89
f 92/92/92 91/91/91 89/89/89
f 95/95/95 94/94/94 93/93/93
f 96/96/96 95/95/95 93/93/93
f 99/99/99 98/98/98 97/97/97
f 97/97/97 98/98/98 100/100/100
f 100/100/100 98/98/98 101/101/101
f 101/101/101 98/98/98 102/102/102
f 102/102/102 98/98/98 103/103/103
f 103/103/103 98/98/98 104/104/104
f 107/107/107 106/106/106 105/105/105
f 108/108/108 106/106/106 107/107/107
f 109/109/109 106/106/106 108/108/108
f 110/110/110 106/106/106 109/109/109
f 113/113/113 112/112/112 111/111/111
f 114/114/114 113/113/113 111/111/111
f 117/117/117 116/116/116 115/115/115
f 118/118/118 117/117/117 115/115/115
f 121/121/121 120/120/120 119/119/119
f 122/122/122 121/121/121 119/119/119
f 125/125/125 124/124/124 123/123/123
f 126/126/126 125/125/125 123/123/123
f 129/129/129 128/128/128 127/127/127
f 130/130/130 129/129/129 127/127/127
f 133/133/133 132/132/132 131/131/131
f 134/134/134 133/133/133 131/131/131
f 137/137/137 136/136/136 135/135/135
f 135/135/135 136/136/136 138/138/138
f 139/139/139 136/136/136 137/137/137
f 138/138/138 136/136/136 140/140/140
f 141/141/141 136/136/136 139/139/139
f 140/140/140 136/136/136 142/142/142
f 143/143/143 136/136/136 141/141/141
f 142/142/142 136/136/136 144/144/144
f 145/145/145 136/136/136 143/143/143
f 144/144/144 136/136/136 145/145/145
f 148/148/148 147/147/147 146/146/146
f 146/146/146 147/147/147 149/149/149
f 150/150/150 147/147/147 148/148/148
f 149/149/149 147/147/147 151/151/151
f 152/152/152 147/147/147 150/150/150
f 151/151/151 147/147/147 153/153/153
f 154/154/154 147/147/147 152/152/152
f 153/153/153 147/147/147 155/155/155
f 156/156/156 147/147/147 154/154/154
f 155/155/155 147/147/147 156/156/156
f 159/159/159 158/158/158 157/157/157
f 157/157/157 158/158/158 160/160/160
f 161/161/161 158/158/158 159/159/159
f 160/160/160 158/158/158 162/162/162
f 163/163/163 158/158/158 161/161/161
f 162/162/162 158/158/158 164/164/164
f 165/165/165 158/158/158 163/163/163
f 164/164/164 158/158/158 166/166/166
f 167/167/167 158/158/158 165/165/165
f 166/166/166 158/158/158 167/167/167
f 170/170/170 169/169/169 168/168/168
f 168/168/168 169/169/169 171/171/171
f 172/172/172 169/169/169 170/170/170
f 171/171/171 169/169/169 173/173/173
f 174/174/174 169/169/169 172/172/172
f 173/173/173 169/169/169 175/175/175
f 176/176/176 169/169/169 174/174/174
f 175/175/175 169/169/169 177/177/177
f 178/178/178 169/169/169 176/176/176
f 177/177/177 169/169/169 178/178/178
