g polySurface16
v -0.30262014 -0.2434989 -0.8118275
v -0.702891 -0.12643129 -0.7568924
v -0.82672864 -0.27750403 -0.46745357
v -0.30262014 -0.2434989 -0.8118275
v -0.09116879 -0.25045705 -0.70119596
v -0.28138447 0.023523523 -0.9950039
v -0.6872801 -0.30845386 0.09643484
v -0.886698 -0.31551245 0.44784266
v -0.6838297 -0.32687813 0.7656467
v 0.58286995 -0.29545552 0.011545259
v -0.12524587 -0.23937689 0.86405957
v -0.46588728 -0.24313669 0.9273792
v -0.24126263 -0.19804926 0.95456904
v 0.49471495 -0.10692311 0.5702114
v 0.59112 -0.27133092 -0.5449154
v -0.09116879 -0.25045705 -0.70119596
v 0.3498396 -0.15813442 -0.873222
v -0.30262014 -0.2434989 -0.8118275
v -0.82672864 -0.27750403 -0.46745357
v -0.830892 -0.22496448 -0.23993497
v 0.7858721 0.17686921 0.6226623
v -0.12524587 -0.23937689 0.86405957
v 0.046957973 1.0865542 0.849305
v 0.1327303 2.4763813 0.8406799
v -0.20860119 2.5867918 0.8994587
v 0.5329909 2.460428 0.6521243
v 0.78021413 2.4563763 0.36623272
v 0.81052154 2.3631475 0.18063891
v 0.68903446 2.6128573 0.079941
v 0.731452 2.5375342 -0.61986524
v 1.0045928 0.895804 0.089168236
v 0.9860911 0.07794082 0.11577708
v 0.8478762 1.5040386 -0.59184676
v 0.6281725 2.570368 -0.81011397
v 0.8465567 1.5417176 -0.1734465
v 1.0045928 0.895804 0.089168236
v 0.8369986 0.05602367 -0.40307978
v 0.9860911 0.07794082 0.11577708
v 0.59112 -0.27133092 -0.5449154
v 0.68354017 1.2785587 -0.8136888
v 0.29394552 2.470672 -0.9898662
v 0.5025404 0.012361169 -0.9001617
v 0.3498396 -0.15813442 -0.873222
v 0.21205273 1.0292854 -0.98593616
v -0.049290277 2.487284 -0.92925113
v -0.046220973 1.1445792 -0.79396164
v 0.3498396 -0.15813442 -0.873222
v -0.08148938 0.556396 -0.8088899
v -0.09116879 -0.25045705 -0.70119596
v -0.4171526 1.2741607 0.9807756
v -1.0045928 2.4764478 0.4391524
v -0.41260588 2.5667162 0.8927924
v -0.96305984 0.16259292 0.53341174
v -0.46588728 -0.24313669 0.9273792
v -0.6838297 -0.32687813 0.7656467
v -0.886698 -0.31551245 0.44784266
v -0.24126263 -0.19804926 0.95456904
v -0.26274663 1.1202077 1.0073166
v -0.20860119 2.5867918 0.8994587
v -0.41260588 2.5667162 0.8927924
v 0.046957973 1.0865542 0.849305
v -0.24126263 -0.19804926 0.95456904
v -0.12524587 -0.23937689 0.86405957
v -0.41260588 2.5667162 0.8927924
v -1.0045928 2.4764478 0.4391524
v -0.93454117 2.4841113 -0.0051824795
v -0.32388783 2.5747852 -0.73573524
v -1.0029951 2.4765878 -0.39758933
v -0.42418614 2.497069 -1.0073166
v -0.049290277 2.487284 -0.92925113
v 0.29394552 2.470672 -0.9898662
v -0.20860119 2.5867918 0.8994587
v 0.6281725 2.570368 -0.81011397
v 0.68903446 2.6128573 0.079941
v 0.48735982 2.6028175 0.54712546
v 0.731452 2.5375342 -0.61986524
v 0.59112 -0.27133092 -0.5449154
v 0.58286995 -0.29545552 0.011545259
v 0.9860911 0.07794082 0.11577708
v 0.49471495 -0.10692311 0.5702114
v 0.7858721 0.17686921 0.6226623
v -0.12524587 -0.23937689 0.86405957
v -0.28138447 0.023523523 -0.9950039
v -0.09116879 -0.25045705 -0.70119596
v -0.08148938 0.556396 -0.8088899
v -0.046220973 1.1445792 -0.79396164
v -0.30882397 1.4128708 -0.94597983
v -0.049290277 2.487284 -0.92925113
v -0.42418614 2.497069 -1.0073166
v -0.4763483 1.3223938 -0.93461186
v -0.28138447 0.023523523 -0.9950039
v -0.702891 -0.12643129 -0.7568924
v -0.30262014 -0.2434989 -0.8118275
v -0.9707903 1.2113827 -0.43916127
v -0.82672864 -0.27750403 -0.46745357
v -1.0029951 2.4765878 -0.39758933
v -0.42418614 2.497069 -1.0073166
v -0.971168 0.84501827 -0.31131163
v -1.0029951 2.4765878 -0.39758933
v -0.93454117 2.4841113 -0.0051824795
v -0.830892 -0.22496448 -0.23993497
v -0.71066153 0.51067656 0.046955388
v -0.6872801 -0.30845386 0.09643484
v 0.48735982 2.6028175 0.54712546
v 0.1327303 2.4763813 0.8406799
v -0.20860119 2.5867918 0.8994587
v 0.5329909 2.460428 0.6521243
v 0.78021413 2.4563763 0.36623272
v 0.68903446 2.6128573 0.079941
v -0.96877843 0.41411918 0.38534227
v -0.886698 -0.31551245 0.44784266
v -0.6872801 -0.30845386 0.09643484
v -0.71066153 0.51067656 0.046955388
v -0.96305984 0.16259292 0.53341174
v -0.93454117 2.4841113 -0.0051824795
v -1.0045928 2.4764478 0.4391524
vt 0.9804916 0.95024526
vt 0.99444854 0.9472862
vt 0.99589497 0.9355312
vt 0.5470323 0.019016532
vt 0.5470305 0.0045435866
vt 0.5305574 0.020211926
vt 0.9878216 0.9175285
vt 0.9923507 0.9045918
vt 0.9836554 0.8952067
vt 0.94594604 0.92805886
vt 0.9641901 0.8951386
vt 0.97510207 0.8907745
vt 0.96727943 0.89097583
vt 0.94422644 0.9079112
vt 0.949039 0.9466979
vt 0.97276396 0.94782466
vt 0.95914054 0.9568798
vt 0.9804916 0.95024526
vt 0.99589497 0.9355312
vt 0.9955771 0.9276162
vt 0.5377441 0.22755292
vt 0.55963826 0.17745838
vt 0.48714095 0.19119206
vt 0.41297314 0.20135531
vt 0.40555453 0.18233767
vt 0.41575533 0.22545156
vt 0.41743016 0.24614286
vt 0.42306635 0.2561954
vt 0.40801743 0.2631012
vt 0.4160314 0.30341375
vt 0.50196105 0.2582507
vt 0.54299986 0.2535185
vt 0.47208354 0.29546672
vt 0.41530976 0.3161037
vt 0.46835244 0.2738545
vt 0.50196105 0.2582507
vt 0.5483082 0.28098077
vt 0.54299986 0.2535185
vt 0.5707369 0.2897191
vt 0.48541516 0.30864495
vt 0.42275214 0.33762914
vt 0.5550261 0.31138867
vt 0.5661924 0.31698108
vt 0.50163114 0.3338157
vt 0.42380387 0.35687447
vt 0.49874604 0.35559493
vt 0.5661924 0.31698108
vt 0.5307386 0.34768337
vt 0.5758928 0.34217864
vt 0.47534746 0.16551661
vt 0.407006 0.12855242
vt 0.4056709 0.170771
vt 0.5322463 0.1244072
vt 0.55794454 0.1564605
vt 0.5611918 0.14033315
vt 0.55831635 0.117938906
vt 0.55656207 0.16934243
vt 0.48431033 0.17314708
vt 0.40555453 0.18233767
vt 0.4056709 0.170771
vt 0.48714095 0.19119206
vt 0.55656207 0.16934243
vt 0.55963826 0.17745838
vt 0.21388316 0.82913184
vt 0.18223855 0.854563
vt 0.18674615 0.87846375
vt 0.22129965 0.9168372
vt 0.18366346 0.89980435
vt 0.21586156 0.93207806
vt 0.23631805 0.9280086
vt 0.25495237 0.9309486
vt 0.22495425 0.8284521
vt 0.27278054 0.91943216
vt 0.2746442 0.87116396
vt 0.26283926 0.8464779
vt 0.27856046 0.90910125
vt 0.5707369 0.2897191
vt 0.5723501 0.2541517
vt 0.54299986 0.2535185
vt 0.5566187 0.21725142
vt 0.5377441 0.22755292
vt 0.55963826 0.17745838
vt 0.5305574 0.020211926
vt 0.5470305 0.0045435866
vt 0.50123054 0.0075187995
vt 0.46985534 0.009884555
vt 0.4562767 0.027590748
vt 0.3952044 0.015181631
vt 0.39610794 0.036123645
vt 0.46177816 0.036592733
vt 0.5305574 0.020211926
vt 0.541582 0.044221267
vt 0.5470323 0.019016532
vt 0.47017747 0.070746444
vt 0.5511477 0.06088897
vt 0.4024124 0.08197948
vt 0.39610794 0.036123645
vt 0.4906792 0.075355396
vt 0.4024124 0.08197948
vt 0.4050026 0.10393058
vt 0.54974455 0.07390875
vt 0.5120956 0.09554131
vt 0.5568484 0.094445094
vt 0.26283926 0.8464779
vt 0.24474013 0.8284741
vt 0.22495425 0.8284521
vt 0.26743877 0.8378583
vt 0.28133893 0.853763
vt 0.2746442 0.87116396
vt 0.51802063 0.11755334
vt 0.55831635 0.117938906
vt 0.5568484 0.094445094
vt 0.5120956 0.09554131
vt 0.5322463 0.1244072
vt 0.4050026 0.10393058
vt 0.407006 0.12855242
vn -0.28007978 -0.6096583 -0.7415336
vn -0.70082366 -0.15136129 -0.697091
vn -0.30370796 -0.78513294 -0.5397478
vn 0.37468 -0.5445574 -0.7503814
vn 0.37467992 -0.54455733 -0.7503814
vn 0.37467998 -0.5445574 -0.7503814
vn 0.0027456586 -0.99920696 -0.039724004
vn -0.012994619 -0.99953866 -0.02745128
vn 0.042519685 -0.9983398 0.038857043
vn 0.26202694 -0.96291864 0.06426211
vn 0.16695647 -0.9606798 0.22185524
vn 0.08089588 -0.9212381 0.38049483
vn 0.106501825 -0.8458206 0.5227282
vn 0.45877388 -0.76470965 0.45248833
vn 0.104029395 -0.991042 -0.08374674
vn -0.0040383725 -0.99498665 -0.09992629
vn 0.05416343 -0.93105954 -0.36082488
vn 0.0113997245 -0.9977196 -0.066524595
vn 0.0034214354 -0.9984446 -0.055647068
vn -0.7250851 -0.6737906 0.14232996
vn 0.53274775 0.0043391995 0.846263
vn 0.26620373 -0.023850612 0.9636217
vn 0.27348918 -0.014339953 0.96176815
vn 0.31584725 0.014341928 0.9487017
vn 0.16836242 -0.0042730137 0.9857159
vn 0.5779609 0.09234145 0.81082326
vn 0.85460883 0.15628153 0.49519664
vn 0.9912095 0.116624884 0.06246885
vn 0.8991897 0.43755895 0.00025656229
vn 0.97746104 0.12139793 -0.17272064
vn 0.8826765 0.07566837 0.46384954
vn 0.9294312 -0.009020348 0.36888525
vn 0.96591604 0.024284296 -0.2577142
vn 0.62307614 0.041272737 -0.7810715
vn 0.98859507 0.06836428 -0.13418666
vn 0.9281171 0.05454082 -0.36827153
vn 0.90050215 -0.15434064 -0.40654013
vn 0.95821893 -0.08988647 -0.2715455
vn 0.78037035 -0.4430699 -0.44126102
vn 0.6072082 -0.020297239 -0.79428345
vn 0.18029281 0.012594413 -0.9835323
vn 0.6103316 -0.13867758 -0.7799127
vn 0.5452598 -0.58345336 -0.601892
vn -0.09505812 -0.03676462 -0.9947925
vn -0.23338161 -0.0040281564 -0.9723769
vn -0.6099609 -0.0495025 -0.7908837
vn -0.28709272 -0.11941586 -0.9504303
vn -0.37194654 -0.11074172 -0.9216247
vn -0.33876517 -0.12048472 -0.93312466
vn -0.58388513 0.024554424 0.81146485
vn -0.6335661 0.038547345 0.77272767
vn -0.612649 0.05581959 0.78838146
vn -0.6473773 -0.0062567447 0.7621441
vn -0.49604693 -0.0108654415 0.8682277
vn -0.6986444 -0.060305025 0.71292293
vn -0.82499635 -0.22457933 0.5185993
vn -0.117484085 -0.031704936 0.99256855
vn 0.26948276 0.0075047407 0.962976
vn 0.078686275 0.065377064 0.99475336
vn -0.039267756 0.067996286 0.9969125
vn 0.45792693 0.009169249 0.8889426
vn 0.5604074 -0.05803737 0.82618105
vn 0.5982878 -0.06881966 0.7983204
vn -0.12728027 0.9918641 -0.002306926
vn -0.1462479 0.98922974 -0.0059949127
vn -0.14917232 0.98880786 -0.0025565175
vn -0.07172795 0.9957866 -0.057133134
vn -0.15293095 0.98803025 -0.020211093
vn -0.14243768 0.9642782 -0.22333592
vn 0.007675407 0.9151978 -0.40293193
vn -0.030494165 0.8967363 -0.44151342
vn -0.04899096 0.9987943 -0.0031434463
vn 0.009811617 0.9963607 -0.084669314
vn -0.023091028 0.9996289 -0.014454392
vn -0.015540526 0.99977 0.014777474
vn 0.42005742 0.9046441 -0.07190929
vn 0.104029395 -0.991042 -0.08374674
vn 0.26202694 -0.96291864 0.06426211
vn 0.63494724 -0.7361962 0.23421575
vn 0.45877388 -0.76470965 0.45248833
vn 0.5812116 -0.6791491 0.44827387
vn 0.16695647 -0.9606798 0.22185524
vn 0.7515194 -0.06304035 -0.6566922
vn 0.7959394 -0.089462616 -0.5987294
vn 0.73986447 -0.043055937 -0.6713767
vn 0.51098216 0.0049111904 -0.8595773
vn 0.28199038 -0.040933028 -0.9585436
vn 0.23899917 -0.042628326 -0.9700836
vn 0.19205995 -0.035049185 -0.9807571
vn -0.61009544 0.0067154747 -0.7922995
vn -0.45871237 -0.08250356 -0.88474643
vn -0.70082366 -0.15136129 -0.697091
vn -0.28007978 -0.6096583 -0.7415336
vn -0.7898851 0.004428809 -0.61323893
vn -0.95461905 -0.09836983 -0.28111544
vn -0.71973336 -0.0053962143 -0.69422966
vn -0.72504157 -0.010425635 -0.6886261
vn -0.9287452 -0.08212509 0.3615077
vn -0.9856515 -0.0103186965 0.16847712
vn -0.96970135 -0.02374203 0.24313687
vn -0.9583409 -0.070704415 0.27673763
vn -0.847302 -0.07098173 0.5263467
vn -0.91991264 -0.0025717695 0.39211497
vn 0.49647817 0.6852189 0.5329018
vn 0.3314442 0.65251577 0.6814455
vn 0.32907078 0.65540427 0.67982185
vn 0.5779609 0.09234145 0.81082326
vn 0.85460883 0.15628153 0.49519664
vn 0.5542892 0.79188186 0.2562939
vn -0.9150341 -0.06917244 -0.3974012
vn -0.86857563 -0.13846694 -0.47581863
vn -0.83566654 -0.110439345 -0.5380191
vn -0.7784631 -0.0939729 -0.62061614
vn -0.99157846 -0.081698164 -0.10048651
vn -0.9761603 -0.024540951 -0.21565916
vn -0.98804873 -0.013151722 -0.15357965
g polySurface16_0
f 3/3/3 2/2/2 1/1/1
f 6/6/6 5/5/5 4/4/4
f 9/9/9 8/8/8 7/7/7
f 9/9/9 7/7/7 10/10/10
f 10/10/10 11/11/11 9/9/9
f 11/11/11 12/12/12 9/9/9
f 13/13/13 12/12/12 11/11/11
f 10/10/10 14/14/14 11/11/11
f 10/10/10 7/7/7 15/15/15
f 15/15/15 7/7/7 16/16/16
f 15/15/15 16/16/16 17/17/17
f 18/18/18 16/16/16 7/7/7
f 18/18/18 7/7/7 19/19/19
f 7/7/7 20/20/20 19/19/19
f 23/23/23 22/22/22 21/21/21
f 24/24/24 23/23/23 21/21/21
f 25/25/25 23/23/23 24/24/24
f 26/26/26 24/24/24 21/21/21
f 26/26/26 21/21/21 27/27/27
f 27/27/27 21/21/21 28/28/28
f 27/27/27 28/28/28 29/29/29
f 30/30/30 29/29/29 28/28/28
f 28/28/28 21/21/21 31/31/31
f 21/21/21 32/32/32 31/31/31
f 28/28/28 33/33/33 30/30/30
f 33/33/33 34/34/34 30/30/30
f 35/35/35 33/33/33 28/28/28
f 36/36/36 35/35/35 28/28/28
f 36/36/36 37/37/37 35/35/35
f 33/33/33 35/35/35 37/37/37
f 37/37/37 36/36/36 38/38/38
f 39/39/39 37/37/37 38/38/38
f 40/40/40 34/34/34 33/33/33
f 33/33/33 37/37/37 40/40/40
f 40/40/40 41/41/41 34/34/34
f 42/42/42 37/37/37 39/39/39
f 42/42/42 40/40/40 37/37/37
f 41/41/41 40/40/40 42/42/42
f 39/39/39 43/43/43 42/42/42
f 41/41/41 42/42/42 44/44/44
f 41/41/41 44/44/44 45/45/45
f 45/45/45 44/44/44 46/46/46
f 42/42/42 47/47/47 44/44/44
f 44/44/44 48/48/48 46/46/46
f 47/47/47 48/48/48 44/44/44
f 47/47/47 49/49/49 48/48/48
f 52/52/52 51/51/51 50/50/50
f 50/50/50 51/51/51 53/53/53
f 50/50/50 53/53/53 54/54/54
f 53/53/53 55/55/55 54/54/54
f 55/55/55 53/53/53 56/56/56
f 50/50/50 54/54/54 57/57/57
f 50/50/50 57/57/57 58/58/58
f 50/50/50 58/58/58 59/59/59
f 50/50/50 59/59/59 60/60/60
f 59/59/59 58/58/58 61/61/61
f 58/58/58 62/62/62 61/61/61
f 63/63/63 61/61/61 62/62/62
f 66/66/66 65/65/65 64/64/64
f 66/66/66 64/64/64 67/67/67
f 66/66/66 67/67/67 68/68/68
f 69/69/69 68/68/68 67/67/67
f 70/70/70 69/69/69 67/67/67
f 71/71/71 70/70/70 67/67/67
f 67/67/67 64/64/64 72/72/72
f 67/67/67 73/73/73 71/71/71
f 67/67/67 72/72/72 74/74/74
f 67/67/67 74/74/74 73/73/73
f 74/74/74 72/72/72 75/75/75
f 73/73/73 74/74/74 76/76/76
f 79/79/79 78/78/78 77/77/77
f 78/78/78 79/79/79 80/80/80
f 79/79/79 81/81/81 80/80/80
f 82/82/82 80/80/80 81/81/81
f 85/85/85 84/84/84 83/83/83
f 85/85/85 83/83/83 86/86/86
f 86/86/86 83/83/83 87/87/87
f 86/86/86 87/87/87 88/88/88
f 88/88/88 87/87/87 89/89/89
f 87/87/87 90/90/90 89/89/89
f 87/87/87 91/91/91 90/90/90
f 90/90/90 91/91/91 92/92/92
f 92/92/92 91/91/91 93/93/93
f 90/90/90 92/92/92 94/94/94
f 94/94/94 92/92/92 95/95/95
f 90/90/90 94/94/94 96/96/96
f 96/96/96 97/97/97 90/90/90
f 95/95/95 98/98/98 94/94/94
f 94/94/94 98/98/98 99/99/99
f 99/99/99 98/98/98 100/100/100
f 98/98/98 95/95/95 101/101/101
f 100/100/100 98/98/98 102/102/102
f 101/101/101 102/102/102 98/98/98
f 103/103/103 102/102/102 101/101/101
f 106/106/106 105/105/105 104/104/104
f 104/104/104 105/105/105 107/107/107
f 108/108/108 104/104/104 107/107/107
f 104/104/104 108/108/108 109/109/109
f 112/112/112 111/111/111 110/110/110
f 113/113/113 112/112/112 110/110/110
f 110/110/110 111/111/111 114/114/114
f 110/110/110 115/115/115 113/113/113
f 110/110/110 114/114/114 116/116/116
f 115/115/115 110/110/110 116/116/116
