g polySurface669
v 0.14438295 -0.7189617 1.1180543
v 0.083201885 0.06823206 1.938923
v -0.12544966 0.07196736 1.9426719
v 0.047377586 -1.2350734 0.6938649
v -0.12544966 0.07196736 1.9426719
v 0.047377586 -1.2350734 0.6938649
v 0.20572042 -0.90762365 0.9673063
v 0.046781063 -1.6027818 0.28882748
v 0.27781343 -2.0864174 -0.21572524
v 0.13939476 -2.1357186 -0.26500928
v 0.32216454 -2.081546 -0.21085519
v 0.1257925 -0.6908057 1.5426567
v 0.04329872 -1.2125852 1.0228497
v -0.12544775 -0.09481096 2.1094503
v 0.08320427 -0.09854603 2.1057014
v 0.1257925 -0.6908057 1.5426567
v 0.21336031 -1.1194619 1.0348861
v 0.04329872 -1.2125852 1.0228497
v 0.035454273 -1.514452 0.7092293
v 0.27781582 -2.2531955 -0.048946843
v 0.3221674 -2.2483244 -0.0440767
v 0.13939667 -2.3024967 -0.09823091
v 0.20478725 0.17204544 3.9301648
v 0.24186611 -0.2024205 3.8888454
v 0.20478916 -0.17127952 3.9301648
v 0.24186516 0.20754121 3.8888454
v 0.24186611 -0.2024205 3.8888454
v 0.20713902 -0.17127985 3.8446186
v -0.1773367 0.1450316 3.9301648
v -0.2138977 0.1731224 3.8888454
v -0.17535686 -0.18311855 3.9301648
v 0.24186516 0.20754121 3.8888454
v 0.20713806 0.17613612 3.8446186
v -0.2138977 0.1731224 3.8888454
v -0.17861748 0.14503059 3.8446186
v -0.21137524 -0.21750481 3.8888457
v 0.20478916 -0.17127952 3.9301648
v 0.24186611 -0.2024205 3.8888454
v -0.21137524 -0.21750481 3.8888457
v -0.17633915 -0.1849121 3.8446186
v 0.24186611 -0.2024205 3.8888454
v 0.20713902 -0.17127985 3.8446186
v -0.010543644 -0.88945794 0.7760222
v 0.08673251 -0.10751784 1.5984079
v 0.088889 0.071680546 1.4489785
v -0.12991 -1.2301946 0.2020979
v 0.088889 0.071680546 1.4489785
v -0.12991 -1.2301946 0.2020979
v -0.05707414 -1.0934386 0.6399209
v -0.16438736 -1.5815518 -0.21603225
v -0.22554485 -2.225064 -0.5791466
v -0.23158625 -2.1531274 -0.73404187
v -0.22518688 -2.2580173 -0.54128045
v -0.20336466 -0.652138 1.022577
v -0.27895796 -1.0547395 0.40105864
v -0.1009367 0.08548021 1.4627821
v -0.10309318 -0.09371841 1.6122115
v -0.20336466 -0.652138 1.022577
v -0.22655249 -1.1537124 0.57941365
v -0.27895796 -1.0547395 0.40105864
v -0.31659335 -1.3276405 0.063344
v -0.41537052 -2.2112644 -0.56534314
v -0.41501263 -2.2442186 -0.5274768
v -0.42141193 -2.1393273 -0.72023886
v -0.17941284 0.14502552 1.6389465
v 0.10349369 0.14503302 1.7223148
v -0.102903366 0.1450262 2.8450186
v 0.1866808 0.20160988 1.4811172
v 0.10349369 0.14503302 1.7223148
v 0.21570015 0.1910349 3.4468515
v -0.18548012 0.14502516 3.3001919
v -0.1688776 0.14503825 4.408745
v 0.18926811 0.14503825 4.408745
v -0.20448494 0.15245146 -0.2959118
v 0.16108322 0.16422157 -0.73924446
v -0.10547733 0.121330164 -1.6602159
v -0.14546394 0.118705586 -1.6602159
v 0.16058922 0.15940693 -1.6602159
v -0.16887474 -0.1712775 4.408745
v 0.18927193 -0.1712775 4.408745
v 0.21570015 -0.17128101 3.4468515
v -0.18547916 -0.20160988 2.9619925
v -0.10290146 -0.1712896 2.8450186
v 0.10349655 -0.17128262 1.3555812
v -0.17941093 -0.15339074 1.4263382
v 0.18668175 -0.1712821 1.1143837
v 0.14825249 -0.14499323 -0.010925293
v -0.21570015 -0.117822304 -0.2959118
v 0.10264206 -0.15091658 -1.6602159
v 0.15232563 -0.15485057 -1.6602159
v -0.15838432 -0.1926147 -1.6602159
v 0.18926811 0.14503825 4.408745
v 0.21570015 -0.17128101 3.4468515
v 0.18927193 -0.1712775 4.408745
v 0.21570015 0.1910349 3.4468515
v 0.10349369 0.14503302 1.7223148
v 0.10349655 -0.17128262 1.3555812
v 0.1866808 0.20160988 1.4811172
v 0.18668175 -0.1712821 1.1143837
v 0.14825249 -0.14499323 -0.010925293
v 0.16108322 0.16422157 -0.73924446
v 0.15232563 -0.15485057 -1.6602159
v 0.16058922 0.15940693 -1.6602159
v -0.18548012 0.14502516 3.3001919
v -0.1688776 0.14503825 4.408745
v -0.16887474 -0.1712775 4.408745
v -0.18547916 -0.20160988 2.9619925
v -0.102903366 0.1450262 2.8450186
v -0.10290146 -0.1712896 2.8450186
v -0.17941284 0.14502552 1.6389465
v -0.17941093 -0.15339074 1.4263382
v -0.20448494 0.15245146 -0.2959118
v -0.21570015 -0.117822304 -0.2959118
v -0.14546394 0.118705586 -1.6602159
v -0.15838432 -0.1926147 -1.6602159
v -0.16887474 -0.1712775 4.408745
v -0.1688776 0.14503825 4.408745
v 0.18927193 -0.1712775 4.408745
v 0.18926811 0.14503825 4.408745
v 0.08320427 -0.09854603 2.1057014
v 0.083201885 0.06823206 1.938923
v 0.1257925 -0.6908057 1.5426567
v 0.14438295 -0.7189617 1.1180543
v 0.21336031 -1.1194619 1.0348861
v 0.20572042 -0.90762365 0.9673063
v 0.32216454 -2.081546 -0.21085519
v 0.3221674 -2.2483244 -0.0440767
v 0.035454273 -1.514452 0.7092293
v 0.13939667 -2.3024967 -0.09823091
v 0.046781063 -1.6027818 0.28882748
v 0.13939476 -2.1357186 -0.26500928
v 0.046781063 -1.6027818 0.28882748
v 0.047377586 -1.2350734 0.6938649
v 0.04329872 -1.2125852 1.0228497
v -0.12544966 0.07196736 1.9426719
v -0.12544775 -0.09481096 2.1094503
v 0.24279499 -0.19643793 3.5995684
v 0.21489143 -0.17128089 3.562473
v -0.17874432 -0.18930729 3.634985
v -0.20692062 -0.21612798 3.6813834
v 0.21230316 -0.17128052 3.6566608
v -0.18174839 0.14502811 3.6355383
v -0.17769432 -0.18738832 3.7265115
v -0.21020126 0.16644445 3.6819806
v 0.21489143 0.189628 3.562473
v -0.18037891 0.14502917 3.7269924
v 0.24279499 0.21528548 3.5995686
v 0.21489143 -0.17128089 3.562473
v 0.21230316 0.18512402 3.656661
v 0.24279499 -0.19643793 3.5995684
v 0.21230316 -0.17128052 3.6566608
v 0.22441864 -0.19422966 4.0691743
v 0.20007038 -0.17127888 4.0157275
v -0.1733408 -0.17943631 4.019595
v -0.19850159 -0.20250495 4.0731034
v 0.19758606 -0.17127855 4.1061597
v -0.17700958 0.1552815 3.9486752
v -0.17231274 -0.17755878 4.109148
v -0.20250511 0.17586173 3.9811757
v 0.20453358 0.17160419 3.9265392
v -0.17566395 0.15528259 4.038525
v 0.22947311 0.1934887 3.9583998
v 0.20007038 -0.17127888 4.0157275
v 0.20200825 0.16720995 4.0184326
v 0.22441864 -0.19422966 4.0691743
v 0.19758606 -0.17127855 4.1061597
v -0.10309318 -0.09371841 1.6122115
v 0.08673251 -0.10751784 1.5984079
v -0.20336466 -0.652138 1.022577
v -0.010543644 -0.88945794 0.7760222
v -0.22655249 -1.1537124 0.57941365
v -0.05707414 -1.0934386 0.6399209
v -0.22518688 -2.2580173 -0.54128045
v -0.41501263 -2.2442186 -0.5274768
v -0.31659335 -1.3276405 0.063344
v -0.42141193 -2.1393273 -0.72023886
v -0.16438736 -1.5815518 -0.21603225
v -0.23158625 -2.1531274 -0.73404187
v -0.16438736 -1.5815518 -0.21603225
v -0.12991 -1.2301946 0.2020979
v -0.27895796 -1.0547395 0.40105864
v 0.088889 0.071680546 1.4489785
v -0.1009367 0.08548021 1.4627821
vt 0.7356764 0.20992982
vt 0.7274739 0.3238423
vt 0.76954985 0.32725188
vt 0.76746446 0.14362594
vt 0.76954985 0.32725188
vt 0.76746446 0.14362594
vt 0.72815776 0.18479267
vt 0.76911426 0.08649681
vt 0.73325855 0.016277583
vt 0.76326627 0.010438432
vt 0.72403353 0.016909357
vt 0.8362763 0.2398811
vt 0.80354184 0.16718487
vt 0.8039408 0.3264819
vt 0.8454951 0.32183895
vt 0.8362763 0.2398811
vt 0.8407008 0.17209157
vt 0.80354184 0.16718487
vt 0.7975228 0.12379158
vt 0.82910174 0.015091342
vt 0.8382382 0.015259755
vt 0.7996319 0.009464421
vt 0.97809124 0.2225771
vt 0.98581123 0.18258911
vt 0.9781739 0.18258394
vt 0.98572755 0.22261406
vt 0.98581123 0.18258911
vt 0.9939859 0.18259463
vt 0.9785203 0.26578367
vt 0.9861579 0.2658014
vt 0.9785925 0.30176726
vt 0.98572755 0.22261406
vt 0.9939012 0.2226537
vt 0.9861579 0.2658014
vt 0.9943328 0.2658204
vt 0.98622996 0.30179414
vt 0.9783971 0.34540713
vt 0.98603356 0.34555665
vt 0.98622996 0.30179414
vt 0.99440485 0.30182284
vt 0.98603356 0.34555665
vt 0.9942076 0.3457167
vt 0.7356764 0.20992982
vt 0.7274739 0.3238423
vt 0.76954985 0.32725188
vt 0.76746446 0.14362594
vt 0.76954985 0.32725188
vt 0.76746446 0.14362594
vt 0.72815776 0.18479267
vt 0.76911426 0.08649681
vt 0.73325855 0.016277583
vt 0.76326627 0.010438432
vt 0.72403353 0.016909357
vt 0.8362763 0.2398811
vt 0.80354184 0.16718487
vt 0.8039408 0.3264819
vt 0.8454951 0.32183895
vt 0.8362763 0.2398811
vt 0.8407008 0.17209157
vt 0.80354184 0.16718487
vt 0.7975228 0.12379158
vt 0.82910174 0.015091342
vt 0.8382382 0.015259755
vt 0.7996319 0.009464421
vt 0.30791295 0.2923361
vt 0.34141165 0.28345248
vt 0.31140363 0.16678624
vt 0.34286404 0.3085247
vt 0.34141165 0.28345248
vt 0.34437323 0.10392801
vt 0.30692136 0.119440794
vt 0.30733496 0.004060485
vt 0.34512162 0.0038282992
vt 0.30778182 0.49371824
vt 0.34410036 0.5396239
vt 0.3137745 0.6356673
vt 0.30965212 0.6356938
vt 0.34458333 0.6354763
vt 0.27616417 0.004101714
vt 0.23968713 0.0039978935
vt 0.23666112 0.104101986
vt 0.27534652 0.15468113
vt 0.27261883 0.16684154
vt 0.24774013 0.32178882
vt 0.27743047 0.31450447
vt 0.23901342 0.34686825
vt 0.24269064 0.46399868
vt 0.28104705 0.49375513
vt 0.24704137 0.63566494
vt 0.24179436 0.6356519
vt 0.2740748 0.63574624
vt 0.34512162 0.0038282992
vt 0.3794036 0.103979655
vt 0.37950838 0.0038676227
vt 0.34437323 0.10392801
vt 0.34141165 0.28345248
vt 0.3791753 0.3216347
vt 0.34286404 0.3085247
vt 0.3791489 0.34673843
vt 0.37628996 0.46385542
vt 0.34410036 0.5396239
vt 0.3771358 0.63551134
vt 0.34458333 0.6354763
vt 0.30692136 0.119440794
vt 0.30733496 0.004060485
vt 0.27616417 0.004101714
vt 0.27534652 0.15468113
vt 0.31140363 0.16678624
vt 0.27261883 0.16684154
vt 0.30791295 0.2923361
vt 0.27743047 0.31450447
vt 0.30778182 0.49371824
vt 0.28104705 0.49375513
vt 0.30965212 0.6356938
vt 0.2740748 0.63574624
vt 0.41768765 0.98424727
vt 0.45036983 0.98424846
vt 0.41768867 0.94724303
vt 0.45037097 0.9472444
vt 0.8454951 0.32183895
vt 0.87997365 0.31950262
vt 0.8362763 0.2398811
vt 0.8756657 0.2064895
vt 0.8407008 0.17209157
vt 0.8703267 0.18096894
vt 0.8728055 0.015651084
vt 0.8382382 0.015259755
vt 0.7975228 0.12379158
vt 0.7996319 0.009464421
vt 0.76911426 0.08649681
vt 0.76326627 0.010438432
vt 0.76911426 0.08649681
vt 0.76746446 0.14362594
vt 0.80354184 0.16718487
vt 0.76954985 0.32725188
vt 0.8039408 0.3264819
vt 0.9873748 0.45275986
vt 0.99520826 0.45291322
vt 0.9930017 0.40813464
vt 0.9853889 0.40810782
vt 0.9778004 0.45257235
vt 0.99282765 0.3720855
vt 0.976084 0.40807506
vt 0.9852208 0.3720679
vt 0.9948995 0.32908162
vt 0.97592324 0.3720463
vt 0.9870664 0.32904366
vt 0.99499047 0.28880543
vt 0.97749233 0.32899728
vt 0.9871565 0.28880012
vt 0.9775813 0.28879362
vt 0.98622656 0.35952204
vt 0.9940902 0.35967597
vt 0.9935675 0.31654355
vt 0.98577964 0.31651616
vt 0.9773766 0.35934877
vt 0.9959394 0.2806648
vt 0.9770146 0.31648535
vt 0.98812544 0.28064662
vt 0.9948405 0.23745927
vt 0.97933125 0.28062618
vt 0.9868503 0.23742059
vt 0.9938646 0.19745284
vt 0.9778577 0.23737702
vt 0.9860003 0.19744748
vt 0.9771496 0.19744149
vt 0.8454951 0.32183895
vt 0.87997365 0.31950262
vt 0.8362763 0.2398811
vt 0.8756657 0.2064895
vt 0.8407008 0.17209157
vt 0.8703267 0.18096894
vt 0.8728055 0.015651084
vt 0.8382382 0.015259755
vt 0.7975228 0.12379158
vt 0.7996319 0.009464421
vt 0.76911426 0.08649681
vt 0.76326627 0.010438432
vt 0.76911426 0.08649681
vt 0.76746446 0.14362594
vt 0.80354184 0.16718487
vt 0.76954985 0.32725188
vt 0.8039408 0.3264819
vn -0.27393317 0.6449997 -0.7133975
vn 0.00048461347 0.7217744 -0.69212824
vn -0.036116738 0.7152942 -0.6978896
vn -0.32282495 0.6823021 -0.65593284
vn -0.036116738 0.7152942 -0.6978896
vn -0.32282495 0.6823021 -0.65593284
vn -0.022434551 0.6608588 -0.75017476
vn -0.07066703 0.70544213 -0.70523584
vn -0.020411346 0.71336937 -0.7004909
vn -0.009211479 0.71977127 -0.6941502
vn -0.00029951657 0.7083652 -0.705846
vn -0.036077898 -0.7015271 0.71172893
vn 0.27133057 -0.6970493 0.6637032
vn -0.009637013 -0.69123024 0.7225704
vn 0.00068934367 -0.68897927 0.72478074
vn -0.036077898 -0.7015271 0.71172893
vn 0.28879666 -0.6871636 0.66663533
vn 0.27133057 -0.6970493 0.6637032
vn 0.18547368 -0.6754219 0.7137259
vn 0.027233308 -0.7059028 0.7077849
vn -0.003455076 -0.6911184 0.7227333
vn 0.0059395134 -0.7152635 0.6988296
vn 0.39629164 0.49800014 0.77132916
vn 0.7067114 -0.7074472 0.008802558
vn 0.43450448 -0.48380193 0.75969833
vn 0.67293185 0.7396678 0.0073648235
vn 0.7067114 -0.7074472 0.008802558
vn 0.4689664 -0.50942075 -0.7214991
vn -0.44420153 0.49927747 0.74391335
vn -0.71524984 0.6987739 0.011521209
vn -0.4037673 -0.5017751 0.7649796
vn 0.67293185 0.7396678 0.0073648235
vn 0.42126822 0.5409272 -0.72796357
vn -0.71524984 0.6987739 0.011521209
vn -0.47718528 0.52691144 -0.7033197
vn -0.6597134 -0.7515152 -0.0017724613
vn 0.43450448 -0.48380193 0.75969833
vn 0.7067114 -0.7074472 0.008802558
vn -0.6597134 -0.7515152 -0.0017724613
vn -0.42342037 -0.5326499 -0.73280233
vn 0.7067114 -0.7074472 0.008802558
vn 0.4689664 -0.50942075 -0.7214991
vn 0.9717149 0.056045357 -0.22941022
vn 0.99633944 -0.061501723 -0.059375267
vn 0.9955076 -0.04445755 -0.083595425
vn 0.9694707 0.12081289 -0.21337934
vn 0.9955076 -0.04445755 -0.083595425
vn 0.9694707 0.12081289 -0.21337934
vn 0.9886129 -0.08959074 -0.12090468
vn 0.9939115 -0.032793865 -0.10518731
vn 0.99545753 -0.055654153 -0.07724572
vn 0.99617803 -0.05764378 -0.06562486
vn 0.9949033 -0.0712177 -0.07138262
vn -0.99362624 0.0949873 0.060698893
vn -0.9789802 -0.09077717 0.18263985
vn -0.9926985 0.089762315 0.08057539
vn -0.9924623 0.08530921 0.08798207
vn -0.99362624 0.0949873 0.060698893
vn -0.97527075 -0.09742343 0.19838244
vn -0.9789802 -0.09077717 0.18263985
vn -0.98438346 -0.017395396 0.1751756
vn -0.9945451 0.056836035 0.087462775
vn -0.9927227 0.086036034 0.08425795
vn -0.995698 0.06289266 0.06804428
vn -0.10019468 0.99489117 0.012354666
vn -0.025487347 0.9992465 0.02927444
vn -0.100428395 0.99477357 -0.018432928
vn -0.13563314 0.9906888 0.011810355
vn -0.025487347 0.9992465 0.02927444
vn -0.07267139 0.99725765 0.01400343
vn -0.07583584 0.99705976 0.0109798275
vn -0.064671904 0.9976673 0.021850647
vn -0.06467191 0.9976673 0.021850646
vn -0.060081664 0.99805826 -0.016426655
vn -0.06403094 0.9976853 -0.022893049
vn -0.08468454 0.9961675 -0.02188283
vn -0.06547109 0.9974753 -0.027504764
vn -0.14166471 0.98990154 -0.005098996
vn 0.031798184 -0.9994134 0.012716892
vn 0.031798176 -0.9994134 0.01271689
vn 0.029801257 -0.99950075 0.01049296
vn 0.06769247 -0.99763036 -0.0123060625
vn 0.009054119 -0.99993587 -0.006811481
vn -0.05584411 -0.9983858 -0.010349852
vn -0.06498514 -0.9977943 -0.013548346
vn -0.06674947 -0.99754614 -0.021121804
vn -0.06586531 -0.9977608 -0.011631786
vn -0.06527611 -0.997867 0.0006729156
vn -0.011111578 -0.9997037 0.021657301
vn -0.07893351 -0.99686325 0.00576305
vn 0.15745631 -0.9856618 0.06064977
vn 0.9996227 5.6453646E-06 0.027466957
vn 0.9998442 0.0037092436 -0.01726043
vn 0.9996227 5.645364E-06 0.027466957
vn 0.9998362 2.8655745E-06 -0.018097645
vn 0.99866843 0.03652975 -0.03642743
vn 0.99590117 -0.062070172 0.06578883
vn 0.99078304 -0.10970949 0.07945268
vn 0.99995756 0.006465293 -0.006571264
vn 0.99837613 -0.05612539 -0.009744766
vn 0.9993505 -0.03603634 0.00014242741
vn 0.9994874 -0.03197715 0.001574343
vn 0.9994874 -0.03197715 0.0015743428
vn -0.99998903 0.004539423 0.0011989992
vn -0.99989223 -0.00667491 0.01307316
vn -0.99989223 -0.00667491 0.013073158
vn -0.9979539 0.03075264 -0.056056093
vn -0.99907315 0.042143725 -0.008754168
vn -0.9998908 -0.0059061483 -0.013550697
vn -0.9989379 -0.024721768 0.03888202
vn -0.9996245 -0.014201503 0.02343245
vn -0.99904984 0.038908612 -0.019632952
vn -0.99893826 0.04145379 -0.020101136
vn -0.9981634 0.04142286 -0.04420536
vn -0.9981634 0.041422863 -0.044205364
vn -0 0 1
vn -0 0 1
vn -0 0 1
vn -0 0 1
vn 0.99864393 0.036820214 0.03680583
vn 0.99861884 0.03611061 0.03816238
vn 0.99786806 0.051587112 0.039976258
vn 0.9928335 0.11090049 0.044527657
vn 0.9963331 0.06818 0.0516889
vn 0.99367887 0.06502892 0.09150729
vn 0.99757844 0.049315464 0.049043145
vn 0.99758005 0.049171552 0.04915442
vn -0.99964225 -0.018538373 -0.019279182
vn -0.9933176 -0.096235566 -0.06370944
vn -0.9935416 -0.113131076 -0.008743522
vn -0.99281585 -0.084612615 -0.08460112
vn -0.9935416 -0.113131076 -0.008743522
vn -0.9986217 -0.050899904 -0.012796176
vn -0.9933863 -0.11452951 -0.008164767
vn -0.99430615 -0.081243396 -0.06895476
vn -0.994191 -0.07611161 -0.07610028
vn 0.71870553 -0.6952697 0.007897712
vn 0.44057006 -0.55476683 -0.7057845
vn -0.51897305 -0.5642045 -0.64213735
vn -0.62237555 -0.77963257 0.06943899
vn 0.5944908 -0.56324315 0.57387954
vn -0.5830632 0.55102545 -0.59699935
vn -0.4128472 -0.6297149 0.6580397
vn -0.7024676 0.7080334 0.0723051
vn 0.3679171 0.5989743 -0.71124315
vn -0.48238137 0.6151561 0.62361145
vn 0.66911477 0.7430487 0.012804605
vn 0.44057006 -0.55476683 -0.7057845
vn 0.5405758 0.595745 0.59402496
vn 0.71870553 -0.6952697 0.007897712
vn 0.5944908 -0.56324315 0.57387954
vn 0.70266795 -0.7088509 0.061547596
vn 0.49490216 -0.6817893 -0.53873473
vn -0.46489283 -0.69357204 -0.55030227
vn -0.67272615 -0.73867977 0.042327438
vn 0.5751058 -0.46400094 0.67376286
vn -0.579164 0.45904803 -0.67367935
vn -0.5571286 -0.47843418 0.67875504
vn -0.68724024 0.72604525 0.023643596
vn 0.53986037 0.45739758 -0.7066387
vn -0.4940498 0.6924119 0.52581435
vn 0.6719086 0.7405079 -0.013673664
vn 0.49490216 -0.6817893 -0.53873473
vn 0.48525962 0.6960037 0.5292467
vn 0.70266795 -0.7088509 0.061547596
vn 0.5751058 -0.46400094 0.67376286
vn -0.0027444428 -0.7258285 0.6878702
vn -0.0043807505 -0.7254121 0.68830085
vn 0.006884704 -0.7179831 0.69602656
vn 0.077673525 -0.6800188 0.7290688
vn 0.014019583 -0.70244277 0.7116021
vn -0.024128195 -0.67366254 0.7386452
vn -0.0005358582 -0.7122962 0.70187885
vn -0.0007387905 -0.71229625 0.70187855
vn 0.016781881 0.7472397 -0.6643427
vn -0.03066714 0.67801034 -0.7344123
vn -0.107694365 0.7018006 -0.7041859
vn -0.005014461 0.6718479 -0.7406721
vn -0.107694365 0.7018006 -0.7041859
vn -0.025446089 0.7368485 -0.67557895
vn -0.10776706 0.70138615 -0.70458776
vn -0.013217901 0.6833854 -0.72993827
vn -0.0036350712 0.6817659 -0.7315613
g polySurface669_0
f 3/3/3 2/2/2 1/1/1
f 5/5/5 1/1/1 4/4/4
f 7/7/7 6/6/6 1/1/1
f 7/7/7 8/8/8 4/4/4
f 7/7/7 9/9/9 8/8/8
f 8/8/8 9/9/9 10/10/10
f 7/7/7 11/11/11 9/9/9
f 14/14/14 13/13/13 12/12/12
f 14/14/14 16/16/16 15/15/15
f 18/18/18 17/17/17 16/16/16
f 17/17/17 18/18/18 19/19/19
f 17/17/17 19/19/19 20/20/20
f 17/17/17 20/20/20 21/21/21
f 22/22/22 20/20/20 19/19/19
f 25/25/25 24/24/24 23/23/23
f 27/27/27 26/26/26 23/23/23
f 27/27/27 28/28/28 26/26/26
f 29/29/29 23/23/23 26/26/26
f 30/30/30 29/29/29 26/26/26
f 31/31/31 29/29/29 30/30/30
f 28/28/28 33/33/33 32/32/32
f 34/34/34 32/32/32 33/33/33
f 35/35/35 34/34/34 33/33/33
f 36/36/36 31/31/31 34/34/34
f 36/36/36 34/34/34 35/35/35
f 31/31/31 36/36/36 37/37/37
f 36/36/36 38/38/38 37/37/37
f 40/40/40 39/39/39 35/35/35
f 39/39/39 40/40/40 41/41/41
f 40/40/40 42/42/42 41/41/41
f 45/45/45 44/44/44 43/43/43
f 47/47/47 43/43/43 46/46/46
f 49/49/49 48/48/48 43/43/43
f 49/49/49 50/50/50 46/46/46
f 49/49/49 51/51/51 50/50/50
f 50/50/50 51/51/51 52/52/52
f 49/49/49 53/53/53 51/51/51
f 56/56/56 55/55/55 54/54/54
f 56/56/56 58/58/58 57/57/57
f 60/60/60 59/59/59 58/58/58
f 59/59/59 60/60/60 61/61/61
f 59/59/59 61/61/61 62/62/62
f 59/59/59 62/62/62 63/63/63
f 64/64/64 62/62/62 61/61/61
f 67/67/67 66/66/66 65/65/65
f 65/65/65 69/69/69 68/68/68
f 67/67/67 70/70/70 69/69/69
f 71/71/71 70/70/70 67/67/67
f 71/71/71 72/72/72 70/70/70
f 72/72/72 73/73/73 70/70/70
f 74/74/74 65/65/65 68/68/68
f 74/74/74 68/68/68 75/75/75
f 75/75/75 76/76/76 74/74/74
f 76/76/76 77/77/77 74/74/74
f 76/76/76 75/75/75 78/78/78
f 81/81/81 80/80/80 79/79/79
f 82/82/82 81/81/81 79/79/79
f 81/81/81 82/82/82 83/83/83
f 84/84/84 81/81/81 83/83/83
f 84/84/84 83/83/83 85/85/85
f 86/86/86 84/84/84 85/85/85
f 86/86/86 85/85/85 87/87/87
f 87/87/87 85/85/85 88/88/88
f 88/88/88 89/89/89 87/87/87
f 89/89/89 90/90/90 87/87/87
f 89/89/89 88/88/88 91/91/91
f 94/94/94 93/93/93 92/92/92
f 93/93/93 95/95/95 92/92/92
f 96/96/96 95/95/95 93/93/93
f 96/96/96 93/93/93 97/97/97
f 98/98/98 96/96/96 97/97/97
f 98/98/98 97/97/97 99/99/99
f 100/100/100 98/98/98 99/99/99
f 100/100/100 101/101/101 98/98/98
f 100/100/100 102/102/102 101/101/101
f 102/102/102 103/103/103 101/101/101
f 106/106/106 105/105/105 104/104/104
f 107/107/107 106/106/106 104/104/104
f 107/107/107 104/104/104 108/108/108
f 107/107/107 108/108/108 109/109/109
f 109/109/109 108/108/108 110/110/110
f 109/109/109 110/110/110 111/111/111
f 111/111/111 110/110/110 112/112/112
f 111/111/111 112/112/112 113/113/113
f 113/113/113 112/112/112 114/114/114
f 115/115/115 113/113/113 114/114/114
f 118/118/118 117/117/117 116/116/116
f 118/118/118 119/119/119 117/117/117
f 122/122/122 121/121/121 120/120/120
f 122/122/122 123/123/123 121/121/121
f 124/124/124 123/123/123 122/122/122
f 124/124/124 125/125/125 123/123/123
f 126/126/126 125/125/125 124/124/124
f 126/126/126 124/124/124 127/127/127
f 130/130/130 129/129/129 128/128/128
f 132/132/132 131/131/131 129/129/129
f 133/133/133 132/132/132 128/128/128
f 133/133/133 128/128/128 134/134/134
f 135/135/135 133/133/133 134/134/134
f 135/135/135 134/134/134 136/136/136
f 139/139/139 138/138/138 137/137/137
f 140/140/140 139/139/139 137/137/137
f 140/140/140 137/137/137 141/141/141
f 139/139/139 140/140/140 142/142/142
f 143/143/143 140/140/140 141/141/141
f 140/140/140 144/144/144 142/142/142
f 140/140/140 143/143/143 144/144/144
f 142/142/142 144/144/144 145/145/145
f 143/143/143 146/146/146 144/144/144
f 144/144/144 147/147/147 145/145/145
f 144/144/144 146/146/146 147/147/147
f 148/148/148 145/145/145 147/147/147
f 146/146/146 149/149/149 147/147/147
f 150/150/150 148/148/148 147/147/147
f 150/150/150 147/147/147 149/149/149
f 151/151/151 150/150/150 149/149/149
f 154/154/154 153/153/153 152/152/152
f 155/155/155 154/154/154 152/152/152
f 155/155/155 152/152/152 156/156/156
f 154/154/154 155/155/155 157/157/157
f 158/158/158 155/155/155 156/156/156
f 155/155/155 159/159/159 157/157/157
f 155/155/155 158/158/158 159/159/159
f 157/157/157 159/159/159 160/160/160
f 158/158/158 161/161/161 159/159/159
f 159/159/159 162/162/162 160/160/160
f 159/159/159 161/161/161 162/162/162
f 163/163/163 160/160/160 162/162/162
f 161/161/161 164/164/164 162/162/162
f 165/165/165 163/163/163 162/162/162
f 165/165/165 162/162/162 164/164/164
f 166/166/166 165/165/165 164/164/164
f 169/169/169 168/168/168 167/167/167
f 169/169/169 170/170/170 168/168/168
f 171/171/171 170/170/170 169/169/169
f 171/171/171 172/172/172 170/170/170
f 173/173/173 172/172/172 171/171/171
f 173/173/173 171/171/171 174/174/174
f 177/177/177 176/176/176 175/175/175
f 179/179/179 178/178/178 176/176/176
f 180/180/180 179/179/179 175/175/175
f 180/180/180 175/175/175 181/181/181
f 182/182/182 180/180/180 181/181/181
f 182/182/182 181/181/181 183/183/183
