g polySurface36
v 0.2908608 0.3945112 0.21690376
v 0.61958724 0.62208647 0.099311136
v 0.4091571 0.38286024 0.36795515
v 0.2826675 0.38834053 0.024963489
v 0.38770697 0.36670515 -0.13455114
v 0.5658577 0.33786914 -0.2007108
v 0.7490721 0.31284675 -0.14824498
v 0.4091571 0.38286024 0.36795515
v 0.61958724 0.62208647 0.099311136
v 0.5923716 0.3578379 0.42042094
v 0.77052224 0.32900184 0.35426122
v 0.8755617 0.30736646 0.1947465
v 0.8673684 0.30119583 0.0028064053
v 0.7490721 0.31284675 -0.14824498
v 0.40210477 -0.118541874 0.06300372
v 0.5175382 0.3414435 0.06992625
v 0.5209091 0.34398225 0.14889418
v 0.4077433 -0.11429526 0.19509594
v 0.4077433 -0.11429526 0.19509594
v 0.5209091 0.34398225 0.14889418
v 0.5902846 0.335163 0.18581305
v 0.52379 -0.12904751 0.2568513
v 0.52379 -0.12904751 0.2568513
v 0.5902846 0.335163 0.18581305
v 0.6562894 0.32380497 0.14376408
v 0.6341981 -0.14804642 0.1865146
v 0.6341981 -0.14804642 0.1865146
v 0.6562894 0.32380497 0.14376408
v 0.6529185 0.32126623 0.06479605
v 0.6285596 -0.15229304 0.05442239
v 0.6285596 -0.15229304 0.05442239
v 0.6529185 0.32126623 0.06479605
v 0.583543 0.33008555 0.02787709
v 0.5125129 -0.13754077 -0.0073330537
v 0.5125129 -0.13754077 -0.0073330537
v 0.583543 0.33008555 0.02787709
v 0.5175382 0.3414435 0.06992625
v 0.40210477 -0.118541874 0.06300372
v -0.29738215 0.24236117 0.17238864
v -0.53704596 0.3713301 0.09043828
v -0.2812251 0.25779787 0.04090338
v -0.3850167 0.20865868 0.26710948
v -0.51065546 0.1695635 0.28888568
v -0.6263085 0.14000873 0.2293996
v -0.6878005 0.1312833 0.11137271
v -0.2812251 0.25779787 0.04090338
v -0.53704596 0.3713301 0.09043828
v -0.34271702 0.24907239 -0.07712338
v -0.45837018 0.21951762 -0.13660955
v -0.5840088 0.18042248 -0.11483329
v -0.6716434 0.14671999 -0.020112539
v -0.6878005 0.1312833 0.11137271
v -0.3736133 -0.115829945 0.13601609
v -0.47306195 0.18437342 0.12483453
v -0.43700728 0.1982393 0.08586454
v -0.3133036 -0.0926361 0.070829764
v -0.3133036 -0.0926361 0.070829764
v -0.43700728 0.1982393 0.08586454
v -0.4521624 0.19800162 0.03312818
v -0.33865404 -0.09303356 -0.017383909
v -0.33865404 -0.09303356 -0.017383909
v -0.4521624 0.19800162 0.03312818
v -0.5033722 0.18389814 0.019361759
v -0.42431408 -0.116624914 -0.040411353
v -0.42431408 -0.116624914 -0.040411353
v -0.5033722 0.18389814 0.019361759
v -0.53942674 0.17003228 0.058331776
v -0.48462367 -0.13981883 0.024774922
v -0.48462367 -0.13981883 0.024774922
v -0.53942674 0.17003228 0.058331776
v -0.52427155 0.1702699 0.111068144
v -0.4592732 -0.13942131 0.11298864
v -0.4592732 -0.13942131 0.11298864
v -0.52427155 0.1702699 0.111068144
v -0.47306195 0.18437342 0.12483453
v -0.3736133 -0.115829945 0.13601609
v -0.09069071 0.52661127 -0.8834676
v 0.03060986 0.8186553 -0.5101429
v -0.2869591 0.52661127 -0.74087024
v 0.15191036 0.52661127 -0.8834676
v 0.3481788 0.52661127 -0.7408703
v 0.42314664 0.52661127 -0.5101429
v 0.34817877 0.52661127 -0.27941564
v -0.2869591 0.52661127 -0.74087024
v 0.03060986 0.8186553 -0.5101429
v -0.36192688 0.52661127 -0.5101429
v -0.28695905 0.52661127 -0.27941564
v -0.09069065 0.52661127 -0.13681829
v 0.15191041 0.52661127 -0.13681829
v 0.34817877 0.52661127 -0.27941564
v 0.13291 -0.10087364 -0.66485226
v 0.09590989 0.57116663 -0.6007662
v -0.014089811 0.57116663 -0.6007662
v -0.051089894 -0.10087364 -0.66485226
v -0.051089894 -0.10087364 -0.66485226
v -0.014089811 0.57116663 -0.6007662
v -0.06908967 0.57116663 -0.5055036
v -0.14308989 -0.10087364 -0.5055036
v -0.14308989 -0.10087364 -0.5055036
v -0.06908967 0.57116663 -0.5055036
v -0.014089838 0.57116663 -0.4102411
v -0.051089942 -0.10087364 -0.34615502
v -0.051089942 -0.10087364 -0.34615502
v -0.014089838 0.57116663 -0.4102411
v 0.095909856 0.57116663 -0.4102411
v 0.13290997 -0.10087364 -0.34615502
v 0.13290997 -0.10087364 -0.34615502
v 0.095909856 0.57116663 -0.4102411
v 0.1509097 0.57116663 -0.5055036
v 0.22490989 -0.10087364 -0.5055036
v 0.22490989 -0.10087364 -0.5055036
v 0.1509097 0.57116663 -0.5055036
v 0.09590989 0.57116663 -0.6007662
v 0.13291 -0.10087364 -0.66485226
v -0.2786014 0.21599913 -0.5601402
v -0.5078471 0.37725908 -0.6073557
v -0.29670766 0.20681702 -0.69195664
v -0.34125257 0.21655972 -0.4424022
v -0.46073055 0.20828474 -0.3837146
v -0.59139895 0.19433485 -0.406494
v -0.6833467 0.18003854 -0.5020395
v -0.29670766 0.20681702 -0.69195664
v -0.5078471 0.37725908 -0.6073557
v -0.38865545 0.19252066 -0.7875021
v -0.51932377 0.17857085 -0.8102814
v -0.63880193 0.1702958 -0.7515939
v -0.7014531 0.17085643 -0.6338559
v -0.6833467 0.18003854 -0.5020395
v -0.41782925 -0.119771294 -0.5026173
v -0.46748742 0.18891883 -0.55141884
v -0.4417115 0.18868816 -0.59985846
v -0.3747131 -0.1201571 -0.58364385
v -0.3747131 -0.1201571 -0.58364385
v -0.4417115 0.18868816 -0.59985846
v -0.4705236 0.18328187 -0.64624274
v -0.42290783 -0.12920044 -0.6612322
v -0.42290783 -0.12920044 -0.6612322
v -0.4705236 0.18328187 -0.64624274
v -0.5251115 0.17810611 -0.6441873
v -0.5142186 -0.13785799 -0.65779394
v -0.5142186 -0.13785799 -0.65779394
v -0.5251115 0.17810611 -0.6441873
v -0.5508874 0.17833678 -0.5957476
v -0.55733484 -0.1374722 -0.5767674
v -0.55733484 -0.1374722 -0.5767674
v -0.5508874 0.17833678 -0.5957476
v -0.52207536 0.18374312 -0.5493634
v -0.50914 -0.12842882 -0.49917904
v -0.50914 -0.12842882 -0.49917904
v -0.52207536 0.18374312 -0.5493634
v -0.46748742 0.18891883 -0.55141884
v -0.41782925 -0.119771294 -0.5026173
v -0.26548645 0.40865776 0.21283546
v -0.25703406 0.5761433 0.5708328
v -0.42801142 0.3596753 0.28764853
v -0.08430538 0.42851678 0.24732684
v 0.046326965 0.41166684 0.37794808
v 0.07651336 0.36454403 0.55480635
v -0.005276403 0.3051477 0.71034795
v -0.42801142 0.3596753 0.28764853
v -0.25703406 0.5761433 0.5708328
v -0.5098011 0.300279 0.4431901
v -0.47961473 0.25315621 0.62004834
v -0.3489824 0.23630624 0.7506698
v -0.16780138 0.25616524 0.7851611
v -0.005276403 0.3051477 0.71034795
v -0.06593875 -0.056209583 0.2908123
v -0.16613717 0.34171662 0.44997245
v -0.2406786 0.33354625 0.4357821
v -0.19062653 -0.069876425 0.2670756
v -0.19062653 -0.069876425 0.2670756
v -0.2406786 0.33354625 0.4357821
v -0.28761566 0.30950812 0.4909514
v -0.26913947 -0.1100857 0.35935888
v -0.26913947 -0.1100857 0.35935888
v -0.28761566 0.30950812 0.4909514
v -0.2600112 0.29364038 0.560311
v -0.22296464 -0.13662815 0.47537875
v -0.22296464 -0.13662815 0.47537875
v -0.2600112 0.29364038 0.560311
v -0.18546967 0.30181074 0.5745015
v -0.09827687 -0.12296136 0.49911547
v -0.09827687 -0.12296136 0.49911547
v -0.18546967 0.30181074 0.5745015
v -0.1385328 0.32584888 0.51933223
v -0.01976401 -0.08275206 0.40683228
v -0.01976401 -0.08275206 0.40683228
v -0.1385328 0.32584888 0.51933223
v -0.16613717 0.34171662 0.44997245
v -0.06593875 -0.056209583 0.2908123
vt 0.40928757 0.5939718
vt 0.5425127 0.5498373
vt 0.40895477 0.50699323
vt 0.46043748 0.6642422
vt 0.54252553 0.6923747
vt 0.624607 0.6642291
vt 0.67574644 0.5939429
vt 0.40895477 0.50699323
vt 0.5425127 0.5498373
vt 0.45983174 0.4365224
vt 0.5425047 0.4095489
vt 0.6251654 0.436502
vt 0.6760655 0.5069758
vt 0.67574644 0.5939429
vt 0.3795864 0.8357356
vt 0.41548425 0.9480965
vt 0.43405533 0.9409593
vt 0.40872484 0.8289326
vt 0.40872484 0.8289326
vt 0.43405533 0.9409593
vt 0.45370385 0.9377084
vt 0.44160175 0.8235322
vt 0.44160175 0.8235322
vt 0.45370385 0.9377084
vt 0.47359928 0.93676823
vt 0.47488007 0.82194954
vt 0.47488007 0.82194954
vt 0.47359928 0.93676823
vt 0.4934896 0.9381583
vt 0.5081081 0.8242674
vt 0.5081081 0.8242674
vt 0.4934896 0.9381583
vt 0.51306415 0.9418412
vt 0.5408653 0.83044434
vt 0.5408653 0.83044434
vt 0.51306415 0.9418412
vt 0.5320071 0.9477579
vt 0.5726196 0.8403446
vt 0.40928757 0.5939718
vt 0.5425127 0.5498373
vt 0.40895477 0.50699323
vt 0.46043748 0.6642422
vt 0.54252553 0.6923747
vt 0.624607 0.6642291
vt 0.67574644 0.5939429
vt 0.40895477 0.50699323
vt 0.5425127 0.5498373
vt 0.45983174 0.4365224
vt 0.5425047 0.4095489
vt 0.6251654 0.436502
vt 0.6760655 0.5069758
vt 0.67574644 0.5939429
vt 0.3795864 0.8357356
vt 0.41548425 0.9480965
vt 0.43405533 0.9409593
vt 0.40872484 0.8289326
vt 0.40872484 0.8289326
vt 0.43405533 0.9409593
vt 0.45370385 0.9377084
vt 0.44160175 0.8235322
vt 0.44160175 0.8235322
vt 0.45370385 0.9377084
vt 0.47359928 0.93676823
vt 0.47488007 0.82194954
vt 0.47488007 0.82194954
vt 0.47359928 0.93676823
vt 0.4934896 0.9381583
vt 0.5081081 0.8242674
vt 0.5081081 0.8242674
vt 0.4934896 0.9381583
vt 0.51306415 0.9418412
vt 0.5408653 0.83044434
vt 0.5408653 0.83044434
vt 0.51306415 0.9418412
vt 0.5320071 0.9477579
vt 0.5726196 0.8403446
vt 0.017704584 0.33122015
vt 0.24519886 0.2566034
vt 0.017374517 0.18298519
vt 0.10488817 0.45101386
vt 0.2452141 0.49815524
vt 0.3855328 0.45099762
vt 0.4727033 0.33118716
vt 0.017374517 0.18298519
vt 0.24519886 0.2566034
vt 0.10427919 0.06298419
vt 0.24518701 0.017107304
vt 0.38608813 0.06296254
vt 0.47301582 0.18296145
vt 0.4727033 0.33118716
vt 0.017374517 0.65121114
vt 0.08917187 0.8826255
vt 0.1253942 0.86924446
vt 0.07448462 0.63820344
vt 0.07448462 0.63820344
vt 0.1253942 0.86924446
vt 0.16339633 0.86304915
vt 0.13803688 0.6277963
vt 0.13803688 0.6277963
vt 0.16339633 0.86304915
vt 0.20184395 0.861016
vt 0.20234518 0.6244148
vt 0.20234518 0.6244148
vt 0.20184395 0.861016
vt 0.24027993 0.8632143
vt 0.26663986 0.628083
vt 0.26663986 0.628083
vt 0.24027993 0.8632143
vt 0.27824473 0.8696122
vt 0.3301454 0.63874686
vt 0.3301454 0.63874686
vt 0.27824473 0.8696122
vt 0.31529024 0.880083
vt 0.39210626 0.6562872
vt 0.40928757 0.5939718
vt 0.5425127 0.5498373
vt 0.40895477 0.50699323
vt 0.46043748 0.6642422
vt 0.54252553 0.6923747
vt 0.624607 0.6642291
vt 0.67574644 0.5939429
vt 0.40895477 0.50699323
vt 0.5425127 0.5498373
vt 0.45983174 0.4365224
vt 0.5425047 0.4095489
vt 0.6251654 0.436502
vt 0.6760655 0.5069758
vt 0.67574644 0.5939429
vt 0.3795864 0.8357356
vt 0.41548425 0.9480965
vt 0.43405533 0.9409593
vt 0.40872484 0.8289326
vt 0.40872484 0.8289326
vt 0.43405533 0.9409593
vt 0.45370385 0.9377084
vt 0.44160175 0.8235322
vt 0.44160175 0.8235322
vt 0.45370385 0.9377084
vt 0.47359928 0.93676823
vt 0.47488007 0.82194954
vt 0.47488007 0.82194954
vt 0.47359928 0.93676823
vt 0.4934896 0.9381583
vt 0.5081081 0.8242674
vt 0.5081081 0.8242674
vt 0.4934896 0.9381583
vt 0.51306415 0.9418412
vt 0.5408653 0.83044434
vt 0.5408653 0.83044434
vt 0.51306415 0.9418412
vt 0.5320071 0.9477579
vt 0.5726196 0.8403446
vt 0.40928757 0.5939718
vt 0.5425127 0.5498373
vt 0.40895477 0.50699323
vt 0.46043748 0.6642422
vt 0.54252553 0.6923747
vt 0.624607 0.6642291
vt 0.67574644 0.5939429
vt 0.40895477 0.50699323
vt 0.5425127 0.5498373
vt 0.45983174 0.4365224
vt 0.5425047 0.4095489
vt 0.6251654 0.436502
vt 0.6760655 0.5069758
vt 0.67574644 0.5939429
vt 0.3795864 0.8357356
vt 0.41548425 0.9480965
vt 0.43405533 0.9409593
vt 0.40872484 0.8289326
vt 0.40872484 0.8289326
vt 0.43405533 0.9409593
vt 0.45370385 0.9377084
vt 0.44160175 0.8235322
vt 0.44160175 0.8235322
vt 0.45370385 0.9377084
vt 0.47359928 0.93676823
vt 0.47488007 0.82194954
vt 0.47488007 0.82194954
vt 0.47359928 0.93676823
vt 0.4934896 0.9381583
vt 0.5081081 0.8242674
vt 0.5081081 0.8242674
vt 0.4934896 0.9381583
vt 0.51306415 0.9418412
vt 0.5408653 0.83044434
vt 0.5408653 0.83044434
vt 0.51306415 0.9418412
vt 0.5320071 0.9477579
vt 0.5726196 0.8403446
vn -0.5080566 0.83760357 0.20074575
vn 0.14589751 0.98856926 -0.03800928
vn -0.25487235 0.8126676 0.5240337
vn -0.525592 0.82439685 -0.2100544
vn -0.30078095 0.7780917 -0.5514563
vn 0.08050652 0.71637505 -0.6930551
vn 0.47263157 0.6628208 -0.5807649
vn -0.25487235 0.8126676 0.5240337
vn 0.14589751 0.98856926 -0.03800928
vn 0.13725284 0.75911313 0.6363244
vn 0.5185403 0.69739676 0.49472585
vn 0.74335146 0.65109175 0.15332408
vn 0.7258157 0.6378849 -0.2574768
vn 0.47263157 0.6628208 -0.5807649
vn -0.8553751 0.22170211 -0.4681683
vn -0.8553751 0.22170211 -0.4681683
vn -0.81301844 0.2536027 0.5241055
vn -0.81301844 0.2536027 0.5241055
vn -0.81301844 0.2536027 0.5241055
vn -0.81301844 0.2536027 0.5241055
vn 0.058720503 0.14278418 0.98801047
vn 0.058720503 0.14278418 0.98801047
vn 0.058720503 0.14278418 0.98801047
vn 0.058720503 0.14278418 0.98801047
vn 0.8881042 6.495066E-05 0.45964208
vn 0.8881042 6.495066E-05 0.45964208
vn 0.8881042 6.495066E-05 0.45964208
vn 0.8881042 6.495066E-05 0.45964208
vn 0.845748 -0.031835925 -0.5326319
vn 0.845748 -0.031835925 -0.5326319
vn 0.845748 -0.031835925 -0.5326319
vn 0.845748 -0.031835925 -0.5326319
vn -0.025991336 0.0789827 -0.9965371
vn -0.025991336 0.0789827 -0.9965371
vn -0.025991336 0.0789827 -0.9965371
vn -0.025991336 0.0789827 -0.9965371
vn -0.8553751 0.22170211 -0.4681683
vn -0.8553751 0.22170211 -0.4681683
vn 0.34874675 0.86982447 0.3489714
vn -0.28398922 0.955706 0.077305086
vn 0.39747423 0.91637945 -0.047570474
vn 0.08445238 0.76818234 0.6346367
vn -0.2944572 0.6502765 0.70031106
vn -0.6432511 0.5611432 0.520909
vn -0.8287025 0.53482866 0.16495582
vn 0.39747423 0.91637945 -0.047570474
vn -0.28398922 0.955706 0.077305086
vn 0.21202286 0.89006454 -0.4035238
vn -0.13677144 0.8009316 -0.5829256
vn -0.5156808 0.68302584 -0.51725125
vn -0.77997476 0.58138376 -0.23158649
vn -0.8287025 0.53482866 0.16495582
vn 0.24118026 0.11578492 0.9635486
vn 0.24118026 0.11578492 0.9635486
vn 0.89377093 0.36675826 0.25818962
vn 0.89377093 0.36675826 0.25818962
vn 0.89377093 0.36675826 0.25818962
vn 0.89377093 0.36675826 0.25818962
vn 0.6194626 0.36245733 -0.69634104
vn 0.6194626 0.36245733 -0.69634104
vn 0.6194626 0.36245733 -0.69634104
vn 0.6194626 0.36245733 -0.69634104
vn -0.30743608 0.107183 -0.94551307
vn -0.30743608 0.107183 -0.94551307
vn -0.30743608 0.107183 -0.94551307
vn -0.30743608 0.107183 -0.94551307
vn -0.9600264 -0.14379032 -0.2401535
vn -0.9600264 -0.14379032 -0.2401535
vn -0.9600264 -0.14379032 -0.2401535
vn -0.9600264 -0.14379032 -0.2401535
vn -0.6857179 -0.13948913 0.71437657
vn -0.6857179 -0.13948913 0.71437657
vn -0.6857179 -0.13948913 0.71437657
vn -0.6857179 -0.13948913 0.71437657
vn 0.24118026 0.11578492 0.9635486
vn 0.24118026 0.11578492 0.9635486
vn -0.18445545 0.802308 -0.5676953
vn -0 1 0
vn -0.48291072 0.802308 -0.3508547
vn 0.18445545 0.802308 -0.5676953
vn 0.48291057 0.80230796 -0.35085502
vn 0.59691024 0.80230796 0
vn 0.48291057 0.80230796 0.35085505
vn -0.48291072 0.802308 -0.3508547
vn -0 1 0
vn -0.5969104 0.8023079 0
vn -0.4829107 0.80230796 0.3508549
vn -0.18445538 0.8023079 0.5676955
vn 0.18445541 0.8023079 0.5676955
vn 0.48291057 0.80230796 0.35085505
vn 0.49699628 0.10945122 -0.8608224
vn 0.49699628 0.10945122 -0.8608224
vn -0.4969961 0.1094512 -0.86082244
vn -0.4969961 0.1094512 -0.86082244
vn -0.4969961 0.1094512 -0.86082244
vn -0.4969961 0.1094512 -0.86082244
vn -0.99399215 0.109451205 0
vn -0.99399215 0.109451205 0
vn -0.99399215 0.109451205 0
vn -0.99399215 0.109451205 0
vn -0.49699616 0.109451234 0.86082244
vn -0.49699616 0.109451234 0.86082244
vn -0.49699616 0.109451234 0.86082244
vn -0.49699616 0.109451234 0.86082244
vn 0.49699616 0.10945121 0.86082244
vn 0.49699616 0.10945121 0.86082244
vn 0.49699616 0.10945121 0.86082244
vn 0.49699616 0.10945121 0.86082244
vn 0.99399215 0.10945118 0
vn 0.99399215 0.10945118 0
vn 0.99399215 0.10945118 0
vn 0.99399215 0.10945118 0
vn 0.49699628 0.10945122 -0.8608224
vn 0.49699628 0.10945122 -0.8608224
vn 0.56449336 0.82257813 0.0686472
vn -0.096332006 0.99377316 -0.055992413
vn 0.5098871 0.7948863 -0.32889354
vn 0.3755461 0.82426876 0.4237289
vn 0.015216446 0.7993125 0.60072297
vn -0.3788622 0.75724137 0.53202343
vn -0.6561642 0.71412563 0.24387115
vn 0.5098871 0.7948863 -0.32889354
vn -0.096332006 0.99377316 -0.055992413
vn 0.23258482 0.75177014 -0.6170461
vn -0.16149312 0.70969886 -0.6857459
vn -0.52182287 0.68474275 -0.5087517
vn -0.71077025 0.68643373 -0.15366936
vn -0.6561642 0.71412563 0.24387115
vn 0.510262 0.2137795 0.8330252
vn 0.510262 0.2137795 0.8330252
vn 0.97680753 0.20960473 -0.043735754
vn 0.97680753 0.20960473 -0.043735754
vn 0.97680753 0.20960473 -0.043735754
vn 0.97680753 0.20960473 -0.043735754
vn 0.4553085 0.11174996 -0.8832928
vn 0.4553085 0.11174996 -0.8832928
vn 0.4553085 0.11174996 -0.8832928
vn 0.4553085 0.11174996 -0.8832928
vn -0.5327363 0.018069759 -0.84608835
vn -0.5327363 0.018069759 -0.84608835
vn -0.5327363 0.018069759 -0.84608835
vn -0.5327363 0.018069759 -0.84608835
vn -0.99928194 0.022244396 0.030673256
vn -0.99928194 0.022244396 0.030673256
vn -0.99928194 0.022244396 0.030673256
vn -0.99928194 0.022244396 0.030673256
vn -0.47778222 0.120099396 0.8702301
vn -0.47778222 0.120099396 0.8702301
vn -0.47778222 0.120099396 0.8702301
vn -0.47778222 0.120099396 0.8702301
vn 0.510262 0.2137795 0.8330252
vn 0.510262 0.2137795 0.8330252
vn -0.22509505 0.88455945 -0.4085179
vn -0.1569849 0.9473136 0.27919987
vn -0.5775029 0.7783492 -0.24629815
vn 0.16776574 0.92762023 -0.3337294
vn 0.45102006 0.891084 -0.05049907
vn 0.5164741 0.7889063 0.33298853
vn 0.33912668 0.6601155 0.6702542
vn -0.5775029 0.7783492 -0.24629815
vn -0.1569849 0.9473136 0.27919987
vn -0.7548503 0.64955825 0.090967216
vn -0.6893964 0.54738045 0.47445476
vn -0.4061422 0.51084435 0.75768507
vn -0.013281447 0.55390525 0.83247375
vn 0.33912668 0.6601155 0.6702542
vn 0.5925014 0.42332485 -0.68537444
vn 0.5925014 0.42332485 -0.68537444
vn -0.3775431 0.31699964 -0.8700416
vn -0.3775431 0.31699964 -0.8700416
vn -0.3775431 0.31699964 -0.8700416
vn -0.3775431 0.31699964 -0.8700416
vn -0.98835653 0.004180044 -0.15209806
vn -0.98835653 0.004180044 -0.15209806
vn -0.98835653 0.004180044 -0.15209806
vn -0.98835653 0.004180044 -0.15209806
vn -0.629126 -0.20231487 0.7505126
vn -0.629126 -0.20231487 0.7505126
vn -0.629126 -0.20231487 0.7505126
vn -0.629126 -0.20231487 0.7505126
vn 0.3409186 -0.09598979 0.9351794
vn 0.3409186 -0.09598979 0.9351794
vn 0.3409186 -0.09598979 0.9351794
vn 0.3409186 -0.09598979 0.9351794
vn 0.9517317 0.21683002 0.21723597
vn 0.9517317 0.21683002 0.21723597
vn 0.9517317 0.21683002 0.21723597
vn 0.9517317 0.21683002 0.21723597
vn 0.5925014 0.42332485 -0.68537444
vn 0.5925014 0.42332485 -0.68537444
g polySurface36_0
f 3/3/3 2/2/2 1/1/1
f 1/1/1 2/2/2 4/4/4
f 4/4/4 2/2/2 5/5/5
f 5/5/5 2/2/2 6/6/6
f 6/6/6 2/2/2 7/7/7
f 10/10/10 9/9/9 8/8/8
f 11/11/11 9/9/9 10/10/10
f 12/12/12 9/9/9 11/11/11
f 13/13/13 9/9/9 12/12/12
f 14/14/14 9/9/9 13/13/13
f 17/17/17 16/16/16 15/15/15
f 18/18/18 17/17/17 15/15/15
f 21/21/21 20/20/20 19/19/19
f 22/22/22 21/21/21 19/19/19
f 25/25/25 24/24/24 23/23/23
f 26/26/26 25/25/25 23/23/23
f 29/29/29 28/28/28 27/27/27
f 30/30/30 29/29/29 27/27/27
f 33/33/33 32/32/32 31/31/31
f 34/34/34 33/33/33 31/31/31
f 37/37/37 36/36/36 35/35/35
f 38/38/38 37/37/37 35/35/35
f 41/41/41 40/40/40 39/39/39
f 39/39/39 40/40/40 42/42/42
f 42/42/42 40/40/40 43/43/43
f 43/43/43 40/40/40 44/44/44
f 44/44/44 40/40/40 45/45/45
f 48/48/48 47/47/47 46/46/46
f 49/49/49 47/47/47 48/48/48
f 50/50/50 47/47/47 49/49/49
f 51/51/51 47/47/47 50/50/50
f 52/52/52 47/47/47 51/51/51
f 55/55/55 54/54/54 53/53/53
f 56/56/56 55/55/55 53/53/53
f 59/59/59 58/58/58 57/57/57
f 60/60/60 59/59/59 57/57/57
f 63/63/63 62/62/62 61/61/61
f 64/64/64 63/63/63 61/61/61
f 67/67/67 66/66/66 65/65/65
f 68/68/68 67/67/67 65/65/65
f 71/71/71 70/70/70 69/69/69
f 72/72/72 71/71/71 69/69/69
f 75/75/75 74/74/74 73/73/73
f 76/76/76 75/75/75 73/73/73
f 79/79/79 78/78/78 77/77/77
f 77/77/77 78/78/78 80/80/80
f 80/80/80 78/78/78 81/81/81
f 81/81/81 78/78/78 82/82/82
f 82/82/82 78/78/78 83/83/83
f 86/86/86 85/85/85 84/84/84
f 87/87/87 85/85/85 86/86/86
f 88/88/88 85/85/85 87/87/87
f 89/89/89 85/85/85 88/88/88
f 90/90/90 85/85/85 89/89/89
f 93/93/93 92/92/92 91/91/91
f 94/94/94 93/93/93 91/91/91
f 97/97/97 96/96/96 95/95/95
f 98/98/98 97/97/97 95/95/95
f 101/101/101 100/100/100 99/99/99
f 102/102/102 101/101/101 99/99/99
f 105/105/105 104/104/104 103/103/103
f 106/106/106 105/105/105 103/103/103
f 109/109/109 108/108/108 107/107/107
f 110/110/110 109/109/109 107/107/107
f 113/113/113 112/112/112 111/111/111
f 114/114/114 113/113/113 111/111/111
f 117/117/117 116/116/116 115/115/115
f 115/115/115 116/116/116 118/118/118
f 118/118/118 116/116/116 119/119/119
f 119/119/119 116/116/116 120/120/120
f 120/120/120 116/116/116 121/121/121
f 124/124/124 123/123/123 122/122/122
f 125/125/125 123/123/123 124/124/124
f 126/126/126 123/123/123 125/125/125
f 127/127/127 123/123/123 126/126/126
f 128/128/128 123/123/123 127/127/127
f 131/131/131 130/130/130 129/129/129
f 132/132/132 131/131/131 129/129/129
f 135/135/135 134/134/134 133/133/133
f 136/136/136 135/135/135 133/133/133
f 139/139/139 138/138/138 137/137/137
f 140/140/140 139/139/139 137/137/137
f 143/143/143 142/142/142 141/141/141
f 144/144/144 143/143/143 141/141/141
f 147/147/147 146/146/146 145/145/145
f 148/148/148 147/147/147 145/145/145
f 151/151/151 150/150/150 149/149/149
f 152/152/152 151/151/151 149/149/149
f 155/155/155 154/154/154 153/153/153
f 153/153/153 154/154/154 156/156/156
f 156/156/156 154/154/154 157/157/157
f 157/157/157 154/154/154 158/158/158
f 158/158/158 154/154/154 159/159/159
f 162/162/162 161/161/161 160/160/160
f 163/163/163 161/161/161 162/162/162
f 164/164/164 161/161/161 163/163/163
f 165/165/165 161/161/161 164/164/164
f 166/166/166 161/161/161 165/165/165
f 169/169/169 168/168/168 167/167/167
f 170/170/170 169/169/169 167/167/167
f 173/173/173 172/172/172 171/171/171
f 174/174/174 173/173/173 171/171/171
f 177/177/177 176/176/176 175/175/175
f 178/178/178 177/177/177 175/175/175
f 181/181/181 180/180/180 179/179/179
f 182/182/182 181/181/181 179/179/179
f 185/185/185 184/184/184 183/183/183
f 186/186/186 185/185/185 183/183/183
f 189/189/189 188/188/188 187/187/187
f 190/190/190 189/189/189 187/187/187
