g polySurface24
v 0.031357165 0.50333184 -0.34242886
v 0.11385716 0.2853396 -0.22017255
v 0.12249851 0.48162472 -0.13044798
v 0.031357165 0.50333184 -0.34242886
v -0.033879653 -0.15359184 -0.16288519
v 0.11385716 0.2853396 -0.22017255
v 0.12249851 0.48162472 -0.13044798
v -0.06680626 0.5516559 -0.12455446
v 0.031357165 0.50333184 -0.34242886
v 0.008095932 0.5270596 -0.09947945
v 0.12249851 0.48162472 -0.13044798
v 0.04763817 -0.12544885 0.0064974
v 0.04763817 -0.12544885 0.0064974
v 0.11385716 0.2853396 -0.22017255
v -0.033879653 -0.15359184 -0.16288519
v 0.11385716 0.2853396 -0.22017255
v 0.04763817 -0.12544885 0.0064974
v 0.12249851 0.48162472 -0.13044798
v -0.033879653 -0.15359184 -0.16288519
v 0.031357165 0.50333184 -0.34242886
v -0.061273374 0.47078705 -0.29026395
v -0.033879653 -0.15359184 -0.16288519
v -0.13061346 -0.14118418 -0.13403444
v 0.008095932 0.5270596 -0.09947945
v 0.04763817 -0.12544885 0.0064974
v -0.095044546 -0.1153258 0.0007182072
v -0.06680626 0.5516559 -0.12455446
v 0.12249851 0.48162472 -0.13044798
v 0.008095932 0.5270596 -0.09947945
v -0.095044546 -0.1153258 0.0007182072
v -0.06680626 0.5516559 -0.12455446
v 0.008095932 0.5270596 -0.09947945
v -0.13061346 -0.14118418 -0.13403444
v -0.061273374 0.47078705 -0.29026395
v -0.10073384 0.5192052 -0.19459274
v -0.056679193 -0.09252285 0.08655019
v -0.098503366 -0.07415052 0.014247408
v -0.12139867 0.39089644 0.095150515
v -0.024180347 0.3848753 0.06762008
v -0.025559155 -0.060810074 -0.031997696
v 0.021022502 -0.074701555 0.021472415
v -0.056679193 -0.09252285 0.08655019
v 0.032495145 0.36986995 0.17492703
v 0.021022502 -0.074701555 0.021472415
v 0.021022502 -0.074701555 0.021472415
v 0.032495145 0.36986995 0.17492703
v -0.024180347 0.3848753 0.06762008
v -0.056679193 -0.09252285 0.08655019
v -0.12139867 0.39089644 0.095150515
v -0.09233182 0.3809799 0.21479008
v -0.12139867 0.39089644 0.095150515
v -0.025559155 -0.060810074 -0.031997696
v -0.024180347 0.3848753 0.06762008
v -0.03138087 0.35438204 0.24239227
v 0.032495145 0.36986995 0.17492703
v -0.056679193 -0.09252285 0.08655019
v -0.12139867 0.39089644 0.095150515
v -0.098503366 -0.07415052 0.014247408
v -0.025559155 -0.060810074 -0.031997696
v 0.032495145 0.36986995 0.17492703
v -0.03138087 0.35438204 0.24239227
v -0.09233182 0.3809799 0.21479008
v -0.056679193 -0.09252285 0.08655019
v -0.09233182 0.3809799 0.21479008
v -0.03138087 0.35438204 0.24239227
v 0.38195774 0.38139373 0.19874942
v 0.008068153 -0.115189254 0.08141541
v 0.3042444 0.47813946 0.14924344
v 0.38195774 0.38139373 0.19874942
v 0.4768491 0.40230656 0.09168397
v 0.17303279 -0.19058818 0.004837419
v 0.38195774 0.38139373 0.19874942
v 0.17303279 -0.19058818 0.004837419
v 0.09587586 -0.16253528 0.11348678
v 0.10946996 -0.14897262 -0.0923844
v 0.4768491 0.40230656 0.09168397
v 0.4024006 0.44043195 -0.057760425
v 0.4768491 0.40230656 0.09168397
v 0.38195774 0.38139373 0.19874942
v 0.4209886 0.5839044 0.082618095
v 0.4768491 0.40230656 0.09168397
v 0.10946996 -0.14897262 -0.0923844
v 0.17303279 -0.19058818 0.004837419
v 0.4024006 0.44043195 -0.057760425
v 0.4768491 0.40230656 0.09168397
v 0.4209886 0.5839044 0.082618095
v 0.3042444 0.47813946 0.14924344
v 0.008068153 -0.115189254 0.08141541
v 0.21725702 0.4002235 0.035975527
v 0.3225891 0.4828053 -0.021694457
v 0.4024006 0.44043195 -0.057760425
v 0.4209886 0.5839044 0.082618095
v 0.3225891 0.4828053 -0.021694457
v 0.4209886 0.5839044 0.082618095
v 0.3042444 0.47813946 0.14924344
v 0.38195774 0.38139373 0.19874942
v 0.3042444 0.47813946 0.14924344
v 0.4209886 0.5839044 0.082618095
v 0.21725702 0.4002235 0.035975527
v 0.008068153 -0.115189254 0.08141541
v -0.005924122 -0.095604315 -0.045294438
v 0.38195774 0.38139373 0.19874942
v 0.09587586 -0.16253528 0.11348678
v 0.008068153 -0.115189254 0.08141541
v 0.3225891 0.4828053 -0.021694457
v 0.21725702 0.4002235 0.035975527
v -0.005924122 -0.095604315 -0.045294438
v 0.3225891 0.4828053 -0.021694457
v 0.3042444 0.47813946 0.14924344
v 0.21725702 0.4002235 0.035975527
v -0.10073384 0.5192052 -0.19459274
v -0.061273374 0.47078705 -0.29026395
v 0.031357165 0.50333184 -0.34242886
v -0.06680626 0.5516559 -0.12455446
v -0.06680626 0.5516559 -0.12455446
v -0.095044546 -0.1153258 0.0007182072
v -0.13061346 -0.14118418 -0.13403444
v -0.10073384 0.5192052 -0.19459274
v -0.12139867 0.39089644 0.095150515
v -0.024180347 0.3848753 0.06762008
v -0.09233182 0.3809799 0.21479008
v 0.032495145 0.36986995 0.17492703
v 0.3225891 0.4828053 -0.021694457
v -0.005924122 -0.095604315 -0.045294438
v 0.10946996 -0.14897262 -0.0923844
v 0.4024006 0.44043195 -0.057760425
vt -0.25915524 0.44048786
vt -0.3445145 0.31018215
vt -0.40877748 0.42079955
vt -0.25915524 0.44048786
vt -0.31607336 0.032273285
vt -0.3445145 0.31018215
vt -0.28369412 0.9529633
vt -0.33449683 0.84202474
vt -0.42278793 0.9594248
vt -0.48295873 0.4390694
vt -0.40877748 0.42079955
vt -0.43318683 0.04147376
vt -0.43318683 0.04147376
vt -0.3445145 0.31018215
vt -0.31607336 0.032273285
vt -0.3445145 0.31018215
vt -0.43318683 0.04147376
vt -0.40877748 0.42079955
vt -0.31607336 0.032273285
vt -0.25915524 0.44048786
vt -0.205479 0.40032333
vt -0.31607336 0.032273285
vt -0.25581905 0.02076331
vt -0.48295873 0.4390694
vt -0.43318683 0.04147376
vt -0.51957405 0.043019764
vt -0.33449683 0.84202474
vt -0.28369412 0.9529633
vt -0.29983464 0.87798053
vt -0.51957405 0.043019764
vt -0.5307401 0.45360297
vt -0.48295873 0.4390694
vt -0.60497 0.0395908
vt -0.6461097 0.42110753
vt -0.5797452 0.4397877
vt 0.11986402 0.027864808
vt 0.039934605 0.015090786
vt -0.07027039 0.4485737
vt 0.31145257 0.4589898
vt 0.28558606 0.02754189
vt 0.21723777 0.029977728
vt 0.11986402 0.027864808
vt 0.19680327 0.47475958
vt 0.21723777 0.029977728
vt 0.21723777 0.029977728
vt 0.19680327 0.47475958
vt 0.31145257 0.4589898
vt 0.11986402 0.027864808
vt -0.07027039 0.4485737
vt 0.04030052 0.48652387
vt 0.40710694 0.46424192
vt 0.28558606 0.02754189
vt 0.31145257 0.4589898
vt 0.107672304 0.4762841
vt 0.19680327 0.47475958
vt 0.11986402 0.027864808
vt 0.40710694 0.46424192
vt 0.36782295 0.018697837
vt 0.28558606 0.02754189
vt 0.6632853 0.9699808
vt 0.7221885 0.92824703
vt 0.70195854 0.8769041
vt 0.11986402 0.027864808
vt 0.04030052 0.48652387
vt 0.107672304 0.4762841
vt 0.7264442 0.4680713
vt 0.64632815 0.033806473
vt 0.64432126 0.5086045
vt 0.7264442 0.4680713
vt 0.81539613 0.51121426
vt 0.82049185 0.032422967
vt 0.7264442 0.4680713
vt 0.82049185 0.032422967
vt 0.7222491 0.035308078
vt 0.90904325 0.03031946
vt 0.81539613 0.51121426
vt 0.93184036 0.490877
vt 0.72025985 0.87180376
vt 0.7002937 0.95153546
vt 0.7705278 0.923887
vt 0.81539613 0.51121426
vt 0.90904325 0.03031946
vt 0.82049185 0.032422967
vt 0.8203023 0.8713413
vt 0.72025985 0.87180376
vt 0.7705278 0.923887
vt 0.64432126 0.5086045
vt 0.64632815 0.033806473
vt 0.5697507 0.42144963
vt 0.83984727 0.9214043
vt 0.8203023 0.8713413
vt 0.7705278 0.923887
vt 0.83984727 0.9214043
vt 0.7705278 0.923887
vt 0.7654626 0.9892874
vt 0.7002937 0.95153546
vt 0.7654626 0.9892874
vt 0.7705278 0.923887
vt 0.5697507 0.42144963
vt 0.64632815 0.033806473
vt 0.55240387 0.032488886
vt 0.7264442 0.4680713
vt 0.7222491 0.035308078
vt 0.64632815 0.033806473
vt 0.5081622 0.5033927
vt 0.5697507 0.42144963
vt 0.55240387 0.032488886
vt 0.5081622 0.5033927
vt 0.64432126 0.5086045
vt 0.5697507 0.42144963
vt -0.38542622 0.8438818
vt -0.4333747 0.8933347
vt -0.42278793 0.9594248
vt -0.33449683 0.84202474
vt -0.5307401 0.45360297
vt -0.51957405 0.043019764
vt -0.60497 0.0395908
vt -0.5797452 0.4397877
vt 0.6124174 0.8461717
vt 0.58485067 0.91868705
vt 0.70195854 0.8769041
vt 0.6632853 0.9699808
vt 0.99745256 0.5004065
vt 1.0065408 0.025760096
vt 0.90904325 0.03031946
vt 0.93184036 0.490877
vn 0.9153621 0.13336092 -0.37990403
vn 0.9153621 0.13336094 -0.37990406
vn 0.9153621 0.1333609 -0.379904
vn 0.4958368 -0.27442408 -0.8239158
vn 0.49583685 -0.2744241 -0.8239158
vn 0.49583685 -0.2744241 -0.8239158
vn 0.34504676 0.93712217 -0.052390844
vn 0.34504676 0.93712217 -0.052390847
vn 0.34504673 0.93712217 -0.052390844
vn 0.32006997 0.17074722 0.9318801
vn 0.32006997 0.17074719 0.9318801
vn 0.32006997 0.1707472 0.9318801
vn 0.8683731 -0.33946285 -0.3615152
vn 0.8683731 -0.33946285 -0.3615152
vn 0.8683731 -0.33946285 -0.36151513
vn 0.9887334 -0.0960199 0.11483239
vn 0.9887334 -0.096019916 0.1148324
vn 0.9887334 -0.0960199 0.114832394
vn -0.36710674 -0.20137082 -0.90812033
vn -0.36710674 -0.2013708 -0.90812033
vn -0.3671067 -0.20137079 -0.90812033
vn -0.36710674 -0.20137082 -0.90812033
vn -0.36710674 -0.20137082 -0.90812033
vn -0.028725566 0.15855145 0.9869328
vn -0.028725563 0.15855144 0.9869328
vn -0.02872556 0.15855144 0.9869328
vn 0.34209573 0.9336614 -0.10605048
vn 0.34209573 0.9336614 -0.10605046
vn 0.34209573 0.9336614 -0.10605046
vn -0.2553976 0.18890446 0.9482021
vn -0.25539762 0.18890446 0.9482021
vn -0.25539762 0.1889045 0.9482021
vn -0.92325944 0.006549053 -0.38412112
vn -0.92325944 0.0065490524 -0.38412112
vn -0.92325944 0.0065490534 -0.38412115
vn -0.8722567 -0.12518705 0.4727541
vn -0.8722567 -0.12518705 0.4727541
vn -0.8722567 -0.12518705 0.4727541
vn 0.76427805 0.13841853 -0.6298566
vn 0.76427805 0.13841854 -0.6298566
vn 0.76427805 0.13841854 -0.6298566
vn 0.6542741 -0.2617861 0.7095022
vn 0.65427417 -0.2617861 0.7095022
vn 0.6542741 -0.2617861 0.7095022
vn 0.884012 0.13197929 -0.44844648
vn 0.884012 0.1319793 -0.44844648
vn 0.884012 0.13197929 -0.44844648
vn -0.96554494 -0.13324259 0.22353841
vn -0.96554494 -0.13324259 0.2235384
vn -0.96554494 -0.13324259 0.2235384
vn -0.25412905 0.21172087 -0.9437121
vn -0.25412905 0.21172084 -0.9437121
vn -0.25412905 0.21172085 -0.9437121
vn 0.7301503 -0.26146862 0.6312803
vn 0.7301502 -0.2614686 0.6312803
vn 0.7301502 -0.2614686 0.6312803
vn -0.54695684 0.117274866 -0.8289057
vn -0.54695684 0.117274836 -0.8289057
vn -0.5469569 0.117274836 -0.8289057
vn 0.2075601 0.8921113 0.40131822
vn 0.20756014 0.8921113 0.40131825
vn 0.20756014 0.8921113 0.40131822
vn -0.4906715 -0.26201198 0.8310182
vn -0.49067143 -0.262012 0.83101815
vn -0.4906715 -0.26201198 0.8310182
vn -0.43046096 0.112496644 0.89557123
vn -0.43046096 0.112496644 0.89557123
vn -0.4304609 0.11249664 0.89557123
vn 0.7117366 -0.44439945 0.5440038
vn 0.7117367 -0.44439945 0.5440037
vn 0.7117367 -0.44439945 0.5440038
vn 0.671403 -0.44591415 0.591928
vn 0.671403 -0.4459141 0.59192795
vn 0.671403 -0.44591415 0.59192795
vn 0.7926819 -0.3652866 -0.48807904
vn 0.7926819 -0.3652866 -0.48807904
vn 0.7926819 -0.3652866 -0.48807898
vn 0.70020765 0.24879578 0.669186
vn 0.70020765 0.24879576 0.669186
vn 0.70020765 0.24879576 0.669186
vn 0.73946667 -0.28992933 -0.60756075
vn 0.7394667 -0.28992933 -0.60756075
vn 0.73946667 -0.2899293 -0.60756075
vn 0.8899065 0.25485432 -0.37830636
vn 0.8899065 0.2548543 -0.37830636
vn 0.8899065 0.25485432 -0.3783064
vn -0.84163564 0.37578622 0.38785842
vn -0.84163564 0.37578622 0.3878584
vn -0.8416356 0.37578622 0.38785842
vn 0.045334026 0.69563144 -0.7169671
vn 0.04533402 0.6956314 -0.716967
vn 0.04533402 0.6956314 -0.716967
vn -0.6871614 0.7244975 -0.053969212
vn -0.6871614 0.72449744 -0.053969204
vn -0.6871614 0.7244975 -0.05396921
vn 0.053975742 0.48889104 0.87067336
vn 0.053975746 0.4888911 0.87067336
vn 0.053975746 0.4888911 0.87067336
vn -0.9097116 0.38330138 0.15970254
vn -0.9097116 0.3833014 0.15970255
vn -0.9097116 0.38330135 0.15970252
vn -0.33057174 0.02598115 0.9434232
vn -0.33057174 0.025981154 0.9434231
vn -0.33057174 0.02598115 0.9434232
vn -0.6615756 0.40158695 -0.63328165
vn -0.6615756 0.40158695 -0.63328165
vn -0.6615757 0.401587 -0.63328165
vn -0.63203514 0.7735304 -0.046714485
vn -0.63203526 0.7735304 -0.046714492
vn -0.63203514 0.7735304 -0.04671449
vn -0.36769223 0.8308403 -0.4177403
vn -0.3676922 0.8308403 -0.41774026
vn -0.36769223 0.8308403 -0.41774026
vn -0.36769223 0.8308403 -0.4177403
vn -0.95064604 0.08346085 0.29884157
vn -0.95064604 0.08346085 0.29884157
vn -0.95064604 0.08346085 0.29884157
vn -0.95064604 0.083460845 0.29884157
vn 0.079495676 0.99483323 0.063145384
vn 0.07949567 0.99483323 0.063145384
vn 0.07949566 0.99483323 0.06314538
vn 0.11327577 0.990444 0.07867164
vn -0.2884911 0.20203832 -0.93592376
vn -0.2884911 0.20203832 -0.93592376
vn -0.2884911 0.20203832 -0.93592376
vn -0.30892038 0.20804928 -0.92805374
g polySurface24_0
f 3/3/3 2/2/2 1/1/1
f 6/6/6 5/5/5 4/4/4
f 9/9/9 8/8/8 7/7/7
f 12/12/12 11/11/11 10/10/10
f 15/15/15 14/14/14 13/13/13
f 18/18/18 17/17/17 16/16/16
f 21/21/21 20/20/20 19/19/19
f 23/23/23 21/21/21 22/22/22
f 26/26/26 25/25/25 24/24/24
f 29/29/29 28/28/28 27/27/27
f 32/32/32 31/31/31 30/30/30
f 35/35/35 34/34/34 33/33/33
f 38/38/38 37/37/37 36/36/36
f 41/41/41 40/40/40 39/39/39
f 44/44/44 43/43/43 42/42/42
f 47/47/47 46/46/46 45/45/45
f 50/50/50 49/49/49 48/48/48
f 53/53/53 52/52/52 51/51/51
f 56/56/56 55/55/55 54/54/54
f 59/59/59 58/58/58 57/57/57
f 62/62/62 61/61/61 60/60/60
f 65/65/65 64/64/64 63/63/63
f 68/68/68 67/67/67 66/66/66
f 71/71/71 70/70/70 69/69/69
f 74/74/74 73/73/73 72/72/72
f 77/77/77 76/76/76 75/75/75
f 80/80/80 79/79/79 78/78/78
f 83/83/83 82/82/82 81/81/81
f 86/86/86 85/85/85 84/84/84
f 89/89/89 88/88/88 87/87/87
f 92/92/92 91/91/91 90/90/90
f 95/95/95 94/94/94 93/93/93
f 98/98/98 97/97/97 96/96/96
f 101/101/101 100/100/100 99/99/99
f 104/104/104 103/103/103 102/102/102
f 107/107/107 106/106/106 105/105/105
f 110/110/110 109/109/109 108/108/108
f 113/113/113 112/112/112 111/111/111
f 114/114/114 113/113/113 111/111/111
f 117/117/117 116/116/116 115/115/115
f 118/118/118 117/117/117 115/115/115
f 121/121/121 120/120/120 119/119/119
f 121/121/121 122/122/122 120/120/120
f 125/125/125 124/124/124 123/123/123
f 126/126/126 125/125/125 123/123/123
