g prop_rubbermat
v -0.81062615 0.08356415 1.8059826
v -0.93627226 0.08356415 1.7746902
v -1.0282515 0.08356415 1.6891978
v -1.0619183 0.08356415 1.572413
v 0.056649167 0.054254703 0.8401263
v 0.056649167 0.059558436 1.8059826
v -1.0619183 0.07826041 0.8150191
v 0.81062615 0.08356415 1.8059826
v 0.025987681 0.059558436 -0.8117326
v -1.0619183 0.08356415 -0.8117326
v -1.0619183 0.08356415 -1.572413
v 1.0619183 0.08356415 1.572413
v 0.93627226 0.08356415 1.7746902
v 1.0282515 0.08356415 1.6891978
v 1.0619184 0.06837237 0.8401263
v 1.0619183 0.08356415 -0.8117326
v 1.0619183 0.08356415 -1.572413
v 0.81062615 0.08356415 -1.8059826
v 1.0282515 0.08356415 -1.6891978
v 0.93627226 0.08356415 -1.7746902
v 0.025987796 0.059558436 -1.8059826
v -0.81062615 0.08356415 -1.8059826
v -0.93627226 0.08356415 -1.7746902
v -1.0282515 0.08356415 -1.6891978
v -0.81062615 0.08356415 1.8059826
v 0.05922081 0.034802545 1.8470217
v -0.858834 0.034802545 1.8470217
v -0.9844802 0.034802545 1.8157294
v 0.056649167 0.059558436 1.8059826
v -0.93627226 0.08356415 1.7746902
v -1.0764595 0.034802545 1.7302369
v -1.0282515 0.08356415 1.6891978
v 0.858834 0.034802545 1.8470217
v 0.81062615 0.08356415 1.8059826
v 0.93627226 0.08356415 1.7746902
v 0.9844801 0.034802545 1.8157294
v 1.0282515 0.08356415 1.6891978
v 1.0764595 0.034802545 1.7302369
v -1.1101264 0.034802545 1.6134521
v -1.0619183 0.08356415 1.572413
v -1.0619183 0.07826041 0.8150191
v -1.1101264 0.034802545 0.8590979
v -1.0619183 0.08356415 -0.8117326
v -1.1101264 0.034802545 -0.83017844
v 1.0619183 0.08356415 1.572413
v 1.1101263 0.034802545 1.6134521
v 1.1101264 0.034802545 0.8590979
v 1.0619184 0.06837237 0.8401263
v 1.1101264 0.034802545 -0.83017844
v 1.0619183 0.08356415 -0.8117326
v -1.0619183 0.08356415 -1.572413
v -1.1101264 0.034802545 -1.6134521
v -1.0764595 0.034802545 -1.7302369
v -1.0282515 0.08356415 -1.6891978
v -0.9844801 0.034802545 -1.8157294
v -0.93627226 0.08356415 -1.7746902
v 1.1101263 0.034802545 -1.6134521
v 1.0619183 0.08356415 -1.572413
v 1.0282515 0.08356415 -1.6891978
v 1.0764595 0.034802545 -1.7302369
v 0.93627226 0.08356415 -1.7746902
v 0.9844802 0.034802545 -1.8157294
v -0.858834 0.034802545 -1.8470217
v -0.81062615 0.08356415 -1.8059826
v 0.025987796 0.059558436 -1.8059826
v 0.05922081 0.034802545 -1.8470217
v 0.81062615 0.08356415 -1.8059826
v 0.858834 0.034802545 -1.8470217
vt 0.71012986 0.44878322
vt 0.7090645 0.45306122
vt 0.70615363 0.4561929
vt 0.7021774 0.4573392
vt 0.6772444 0.4192543
vt 0.71012986 0.41925424
vt 0.6763897 0.4573392
vt 0.71013 0.39358288
vt 0.62100196 0.42029825
vt 0.62100214 0.45733926
vt 0.5951025 0.4573392
vt 0.7021774 0.3850268
vt 0.7090646 0.38930488
vt 0.70615375 0.3861732
vt 0.67724454 0.3850269
vt 0.6210022 0.38502687
vt 0.59510255 0.3850269
vt 0.58714986 0.39358294
vt 0.59112626 0.3861732
vt 0.5882155 0.3893049
vt 0.5871498 0.42029825
vt 0.58714986 0.44878325
vt 0.5882154 0.45306122
vt 0.5911262 0.4561929
vt 0.71012986 0.44878322
vt 0.7115271 0.41916668
vt 0.7115273 0.4504246
vt 0.7104618 0.45470262
vt 0.71012986 0.41925424
vt 0.7090645 0.45306122
vt 0.70755094 0.45783424
vt 0.70615363 0.4561929
vt 0.7115273 0.3919415
vt 0.71013 0.39358288
vt 0.7090646 0.38930488
vt 0.71046185 0.38766348
vt 0.70615375 0.3861732
vt 0.707551 0.3845318
vt 0.70357466 0.45898056
vt 0.7021774 0.4573392
vt 0.6763897 0.4573392
vt 0.6778904 0.45898062
vt 0.62100214 0.45733926
vt 0.620374 0.4589806
vt 0.7021774 0.3850268
vt 0.70357466 0.38338554
vt 0.6778904 0.38338554
vt 0.67724454 0.3850269
vt 0.6203741 0.38338554
vt 0.6210022 0.38502687
vt 0.5951025 0.4573392
vt 0.5937052 0.4589806
vt 0.5897289 0.45783427
vt 0.5911262 0.4561929
vt 0.58681804 0.45470256
vt 0.5882154 0.45306122
vt 0.59370524 0.3833855
vt 0.59510255 0.3850269
vt 0.59112626 0.3861732
vt 0.58972895 0.3845318
vt 0.5882155 0.3893049
vt 0.586818 0.38766354
vt 0.58575255 0.4504246
vt 0.58714986 0.44878325
vt 0.5871498 0.42029825
vt 0.5857525 0.41916674
vt 0.58714986 0.39358294
vt 0.5857525 0.39194152
vn 0.021341898 0.99971324 -0.010854341
vn -0 1 0
vn -0 1 0
vn 0.018823994 0.99976426 -0.010822264
vn 0.0019776756 0.9999958 0.002106204
vn -2.1585635E-07 0.999985 -0.0054911356
vn 0.021699958 0.9997639 0.0011710334
vn -0.024042161 0.999648 -0.011220521
vn 0.002057228 0.99998975 0.0040537766
vn 0.021783128 0.99975973 0.0024669613
vn 0.01776706 0.9998254 0.005788751
vn -0.014899276 0.99970716 -0.019065127
vn -0 1 0
vn -0 1 0
vn -0.017843721 0.99983966 0.0015160126
vn -0.019524785 0.9997961 0.0051678703
vn -0.018373443 0.9998123 0.006160124
vn -0.021907564 0.9997383 0.006587178
vn -0 1 0
vn -0 1 0
vn -0 1 0
vn 0.020690473 0.999765 0.0064764326
vn -0 1 0
vn -0 1 0
vn -0.004926655 0.7416205 0.67080164
vn -0.00036485458 0.74175 0.6706764
vn -0.04165189 0.7397732 0.6715659
vn -0.32723206 0.7765996 0.5383421
vn 0.00035233414 0.7417757 0.6706479
vn -0.28057176 0.7651321 0.5795277
vn -0.5128088 0.78993684 0.33619484
vn -0.52892935 0.7880395 0.31500384
vn 0.045843203 0.7389406 0.67220926
vn 0.005609241 0.74085474 0.67164177
vn 0.28057185 0.7651321 0.5795276
vn 0.32723206 0.7765996 0.5383422
vn 0.5289296 0.78803927 0.31500405
vn 0.5128089 0.78993654 0.33619502
vn -0.6768031 0.7348966 0.0431809
vn -0.6865998 0.72688043 0.015014064
vn -0.69127065 0.7225959 0.0005260553
vn -0.6917129 0.7221722 -0.0007023281
vn -0.69621444 0.7178334 0.0008615861
vn -0.6991772 0.714948 0.0006919039
vn 0.64993715 0.7599013 0.011481864
vn 0.64598775 0.76221246 0.04161685
vn 0.65048563 0.75951785 -0.0010291779
vn 0.6500116 0.7599237 0.0008704305
vn 0.67539406 0.7374541 0.0020349007
vn 0.66610116 0.74585706 0.0025482632
vn -0.7040363 0.70997113 -0.01654966
vn -0.69190127 0.7206789 -0.043527104
vn -0.51280874 0.7899368 -0.33619493
vn -0.52892935 0.7880395 -0.31500396
vn -0.32723206 0.7765996 -0.5383422
vn -0.28057185 0.7651321 -0.5795276
vn 0.69190073 0.7206794 -0.0435271
vn 0.7040355 0.7099718 -0.016549656
vn 0.5289296 0.78803927 -0.31500393
vn 0.51280904 0.7899366 -0.3361949
vn 0.28057176 0.7651321 -0.5795277
vn 0.32723206 0.7765996 -0.5383421
vn -0.042239543 0.7410341 -0.6701376
vn -0.0050217663 0.74329627 -0.66894364
vn 0.003999072 0.7426217 -0.6696992
vn -0.0041943975 0.7408484 -0.6716591
vn 0.0054905405 0.73903394 -0.67364585
vn 0.045151647 0.73760253 -0.67372394
g prop_rubbermat_0
f 3/3/3 2/2/2 1/1/1
f 4/4/4 3/3/3 1/1/1
f 5/5/5 4/4/4 1/1/1
f 5/5/5 1/1/1 6/6/6
f 5/5/5 7/7/7 4/4/4
f 5/5/5 6/6/6 8/8/8
f 5/5/5 9/9/9 7/7/7
f 9/9/9 10/10/10 7/7/7
f 10/10/10 9/9/9 11/11/11
f 5/5/5 8/8/8 12/12/12
f 8/8/8 13/13/13 12/12/12
f 13/13/13 14/14/14 12/12/12
f 5/5/5 12/12/12 15/15/15
f 5/5/5 15/15/15 9/9/9
f 15/15/15 16/16/16 9/9/9
f 9/9/9 16/16/16 17/17/17
f 9/9/9 17/17/17 18/18/18
f 17/17/17 19/19/19 18/18/18
f 19/19/19 20/20/20 18/18/18
f 21/21/21 9/9/9 18/18/18
f 9/9/9 21/21/21 22/22/22
f 9/9/9 22/22/22 11/11/11
f 22/22/22 23/23/23 11/11/11
f 23/23/23 24/24/24 11/11/11
f 27/27/27 26/26/26 25/25/25
f 27/27/27 25/25/25 28/28/28
f 26/26/26 29/29/29 25/25/25
f 25/25/25 30/30/30 28/28/28
f 28/28/28 30/30/30 31/31/31
f 30/30/30 32/32/32 31/31/31
f 26/26/26 33/33/33 29/29/29
f 33/33/33 34/34/34 29/29/29
f 35/35/35 34/34/34 33/33/33
f 36/36/36 35/35/35 33/33/33
f 37/37/37 35/35/35 36/36/36
f 38/38/38 37/37/37 36/36/36
f 31/31/31 32/32/32 39/39/39
f 32/32/32 40/40/40 39/39/39
f 39/39/39 40/40/40 41/41/41
f 42/42/42 39/39/39 41/41/41
f 42/42/42 41/41/41 43/43/43
f 44/44/44 42/42/42 43/43/43
f 45/45/45 37/37/37 38/38/38
f 46/46/46 45/45/45 38/38/38
f 46/46/46 47/47/47 45/45/45
f 47/47/47 48/48/48 45/45/45
f 47/47/47 49/49/49 48/48/48
f 49/49/49 50/50/50 48/48/48
f 44/44/44 43/43/43 51/51/51
f 52/52/52 44/44/44 51/51/51
f 52/52/52 51/51/51 53/53/53
f 51/51/51 54/54/54 53/53/53
f 53/53/53 54/54/54 55/55/55
f 54/54/54 56/56/56 55/55/55
f 49/49/49 57/57/57 50/50/50
f 57/57/57 58/58/58 50/50/50
f 59/59/59 58/58/58 57/57/57
f 60/60/60 59/59/59 57/57/57
f 61/61/61 59/59/59 60/60/60
f 62/62/62 61/61/61 60/60/60
f 55/55/55 56/56/56 63/63/63
f 56/56/56 64/64/64 63/63/63
f 63/63/63 64/64/64 65/65/65
f 66/66/66 63/63/63 65/65/65
f 67/67/67 61/61/61 62/62/62
f 66/66/66 65/65/65 67/67/67
f 68/68/68 67/67/67 62/62/62
f 68/68/68 66/66/66 67/67/67
