g ranchUp_stoneStep03
v 0.5443222 0.16644558 -0.3271227
v 0.5921591 0.18816264 0.042380486
v 0.49745756 0.18816264 -0.30965015
v 0.6431668 0.16646571 0.040277213
v 0.7226321 -0.03071041 0.040889397
v 0.61061615 -0.03071041 -0.3744872
v 0.6265579 -0.03071041 0.44545054
v 0.5597244 0.16636509 0.4018629
v 0.36200592 -0.03071041 0.7255928
v 0.5308346 0.18816264 0.38641733
v 0.5921591 0.18816264 0.042380486
v 0.3289322 0.1665184 0.6482905
v 0.02177461 -0.03071041 0.8139308
v 0.30490875 0.18816264 0.5586775
v 0.5308346 0.18816264 0.38641733
v 0.026370559 0.16687979 0.7272499
v -0.3048068 -0.03071041 0.6918373
v 0.020805983 0.18816264 0.6325953
v 0.30490875 0.18816264 0.5586775
v -0.26605803 0.16640629 0.61900765
v -0.5496176 -0.03071041 0.38280162
v -0.24685392 0.18816264 0.59229076
v 0.020805983 0.18816264 0.6325953
v -0.48285797 0.16627751 0.34671518
v -0.65513825 -0.03071041 -0.00806263
v -0.45407927 0.18816264 0.33215037
v -0.24685392 0.18816264 0.59229076
v -0.5777994 0.16628261 -0.004878425
v -0.59417874 -0.03071041 -0.3812749
v -0.5455435 0.18816264 -0.0065312576
v -0.45407927 0.18816264 0.33215037
v -0.5238174 0.16642824 -0.34114307
v -0.368934 -0.03071041 -0.66561997
v -0.47683197 0.18816264 -0.2913329
v -0.5455435 0.18816264 -0.0065312576
v -0.3245462 0.166721 -0.5925426
v -0.030766282 -0.03071041 -0.7751097
v -0.28858852 0.18816264 -0.52856433
v -0.47683197 0.18816264 -0.2913329
v -0.023959031 0.16674182 -0.68879867
v 0.32950163 -0.03071041 -0.66539717
v -0.023644699 0.18816264 -0.65538067
v -0.28858852 0.18816264 -0.52856433
v 0.29571626 0.16636868 -0.5917235
v 0.61061615 -0.03071041 -0.3744872
v 0.5443222 0.16644558 -0.3271227
v 0.49745756 0.18816264 -0.30965015
v 0.27848664 0.18816264 -0.5638451
v 0.27848664 0.18816264 -0.5638451
v -0.023644699 0.18816264 -0.65538067
v 0.49745756 0.18816264 -0.30965015
v 0.021737989 0.18816264 0.008512077
v 0.27848664 0.18816264 -0.5638451
v 0.5921591 0.18816264 0.042380486
v -0.023644699 0.18816264 -0.65538067
v 0.5308346 0.18816264 0.38641733
v -0.28858852 0.18816264 -0.52856433
v 0.30490875 0.18816264 0.5586775
v -0.47683197 0.18816264 -0.2913329
v 0.020805983 0.18816264 0.6325953
v -0.5455435 0.18816264 -0.0065312576
v -0.24685392 0.18816264 0.59229076
v -0.45407927 0.18816264 0.33215037
vt 0.62495697 0.65113837
vt 0.60448617 0.68843985
vt 0.62464714 0.68843985
vt 0.60417765 0.65117294
vt 0.6041666 0.3125
vt 0.62499994 0.3125
vt 0.5833333 0.3125
vt 0.5833677 0.65099996
vt 0.5625 0.3125
vt 0.5837202 0.68843985
vt 0.6038385 0.68843985
vt 0.5625577 0.65126336
vt 0.5416667 0.3125
vt 0.562951 0.68843985
vt 0.58294165 0.6884398
vt 0.5416684 0.65188414
vt 0.5208334 0.3125
vt 0.5421869 0.68843985
vt 0.56204593 0.68843985
vt 0.5207757 0.65107083
vt 0.50000006 0.3125
vt 0.5212741 0.68843985
vt 0.54114586 0.68843985
vt 0.4999883 0.65084964
vt 0.47916672 0.3125002
vt 0.5002921 0.68843985
vt 0.5204103 0.68843985
vt 0.47920328 0.65085834
vt 0.45833337 0.31250024
vt 0.47948527 0.68843985
vt 0.49972185 0.68843985
vt 0.45837805 0.6511085
vt 0.43750003 0.3125
vt 0.45873922 0.68843985
vt 0.47885725 0.68843985
vt 0.4375277 0.6516113
vt 0.41666675 0.3125
vt 0.43799362 0.68843985
vt 0.45793357 0.68843985
vt 0.4166344 0.65164715
vt 0.39583334 0.31249997
vt 0.41718218 0.68843985
vt 0.43703088 0.68843985
vt 0.39578238 0.65100616
vt 0.37499997 0.3125
vt 0.375 0.6512291
vt 0.37533742 0.68843985
vt 0.39544037 0.68843985
vt 0.396227 0.68843985
vt 0.41618097 0.68843985
vt 0.6298379 0.918859
vt 0.5 0.8375
vt 0.5745598 0.97414935
vt 0.6501333 0.8431451
vt 0.49963492 0.99428165
vt 0.6298863 0.7675945
vt 0.425094 0.97430795
vt 0.57492626 0.7126463
vt 0.37032068 0.9194685
vt 0.50035846 0.6926272
vt 0.35009605 0.84392244
vt 0.42577016 0.7126577
vt 0.37047175 0.7679461
vn 0.7751628 0.47190633 -0.42003226
vn 0.083815746 0.9964772 -0.0028629466
vn 0.07414156 0.9963977 -0.04116825
vn 0.8826959 0.46951017 -0.020204604
vn 0.92850274 0.37091398 -0.017481636
vn 0.80819803 0.37471372 -0.45431876
vn 0.8194204 0.3749739 0.43352604
vn 0.78072023 0.47707438 0.40357885
vn 0.47162634 0.39023018 0.79075223
vn 0.08053483 0.99578553 0.04387719
vn 0.083815746 0.9964772 -0.0028629466
vn 0.43636495 0.54780895 0.7137864
vn -0.045764185 0.40191418 0.914533
vn 0.035928316 0.9974732 0.061288428
vn 0.08053483 0.99578553 0.04387719
vn -0.036883812 0.55680484 0.82982403
vn -0.54750216 0.3825602 0.7442373
vn 0.00018674732 0.99763477 0.068738505
vn 0.035928316 0.9974732 0.061288428
vn -0.5318773 0.475575 0.70066744
vn -0.833753 0.36021656 0.41844952
vn -0.05084509 0.9958722 0.075189725
vn 0.00018674732 0.99763477 0.068738505
vn -0.8087623 0.42808798 0.40329164
vn -0.9303395 0.3632244 0.05036239
vn -0.07743954 0.9962488 0.038617924
vn -0.05084509 0.9958722 0.075189725
vn -0.8942396 0.44412515 0.05557134
vn -0.8465113 0.37939048 -0.37347203
vn -0.0913228 0.99581283 0.004122268
vn -0.07743954 0.9962488 0.038617924
vn -0.7918827 0.5045142 -0.3440745
vn -0.5210701 0.3979595 -0.755059
vn -0.07576694 0.99666 -0.030469662
vn -0.0913228 0.99581283 0.004122268
vn -0.49263614 0.51806366 -0.699228
vn -0.0046437513 0.39945984 -0.916739
vn -0.046035703 0.9972235 -0.058533426
vn -0.07576694 0.99666 -0.030469662
vn 0.0029659115 0.48179424 -0.87627935
vn 0.48623025 0.38353303 -0.78516406
vn -0.0032329096 0.99625105 -0.086448915
vn -0.046035703 0.9972235 -0.058533426
vn 0.48054758 0.4550883 -0.7496457
vn 0.80819803 0.37471372 -0.45431876
vn 0.7751628 0.47190633 -0.42003226
vn 0.07414156 0.9963977 -0.04116825
vn 0.04741496 0.99625164 -0.07235045
vn 0.04741496 0.99625164 -0.07235045
vn -0.0032329096 0.99625105 -0.086448915
vn 0.07414156 0.9963977 -0.04116825
vn -0 1 0
vn 0.04741496 0.99625164 -0.07235045
vn 0.083815746 0.9964772 -0.0028629466
vn -0.0032329096 0.99625105 -0.086448915
vn 0.08053483 0.99578553 0.04387719
vn -0.046035703 0.9972235 -0.058533426
vn 0.035928316 0.9974732 0.061288428
vn -0.07576694 0.99666 -0.030469662
vn 0.00018674732 0.99763477 0.068738505
vn -0.0913228 0.99581283 0.004122268
vn -0.05084509 0.9958722 0.075189725
vn -0.07743954 0.9962488 0.038617924
g ranchUp_stoneStep03_0
f 3/3/3 2/2/2 1/1/1
f 2/2/2 4/4/4 1/1/1
f 1/1/1 4/4/4 5/5/5
f 6/6/6 1/1/1 5/5/5
f 5/5/5 4/4/4 7/7/7
f 4/4/4 8/8/8 7/7/7
f 7/7/7 8/8/8 9/9/9
f 8/8/8 4/4/4 10/10/10
f 4/4/4 11/11/11 10/10/10
f 8/8/8 12/12/12 9/9/9
f 9/9/9 12/12/12 13/13/13
f 12/12/12 8/8/8 14/14/14
f 8/8/8 15/15/15 14/14/14
f 12/12/12 16/16/16 13/13/13
f 13/13/13 16/16/16 17/17/17
f 16/16/16 12/12/12 18/18/18
f 12/12/12 19/19/19 18/18/18
f 16/16/16 20/20/20 17/17/17
f 17/17/17 20/20/20 21/21/21
f 20/20/20 16/16/16 22/22/22
f 16/16/16 23/23/23 22/22/22
f 20/20/20 24/24/24 21/21/21
f 21/21/21 24/24/24 25/25/25
f 24/24/24 20/20/20 26/26/26
f 20/20/20 27/27/27 26/26/26
f 24/24/24 28/28/28 25/25/25
f 25/25/25 28/28/28 29/29/29
f 28/28/28 24/24/24 30/30/30
f 24/24/24 31/31/31 30/30/30
f 28/28/28 32/32/32 29/29/29
f 29/29/29 32/32/32 33/33/33
f 32/32/32 28/28/28 34/34/34
f 28/28/28 35/35/35 34/34/34
f 32/32/32 36/36/36 33/33/33
f 33/33/33 36/36/36 37/37/37
f 36/36/36 32/32/32 38/38/38
f 32/32/32 39/39/39 38/38/38
f 36/36/36 40/40/40 37/37/37
f 37/37/37 40/40/40 41/41/41
f 40/40/40 36/36/36 42/42/42
f 36/36/36 43/43/43 42/42/42
f 40/40/40 44/44/44 41/41/41
f 41/41/41 44/44/44 45/45/45
f 44/44/44 46/46/46 45/45/45
f 46/46/46 44/44/44 47/47/47
f 44/44/44 48/48/48 47/47/47
f 44/44/44 40/40/40 49/49/49
f 40/40/40 50/50/50 49/49/49
f 53/53/53 52/52/52 51/51/51
f 51/51/51 52/52/52 54/54/54
f 55/55/55 52/52/52 53/53/53
f 54/54/54 52/52/52 56/56/56
f 57/57/57 52/52/52 55/55/55
f 56/56/56 52/52/52 58/58/58
f 59/59/59 52/52/52 57/57/57
f 58/58/58 52/52/52 60/60/60
f 61/61/61 52/52/52 59/59/59
f 60/60/60 52/52/52 62/62/62
f 63/63/63 52/52/52 61/61/61
f 62/62/62 52/52/52 63/63/63
