g refinery_COL
v 5.0214996 -0.042357635 0
v 4.7120657 0.9343521 -4.8749237
v 4.848987 -0.042357635 -4.94582
v 4.8797073 0.9343521 0
v 4.348747 -0.042357635 2.5107498
v 3.4094405 3.5331964 -1.9684421
v 4.2259507 0.9343521 2.4398537
v 2.5107498 -0.042357635 4.348747
v 3.9368842 3.5331964 0
v 2.7797625 6.061048 -1.6048963
v 2.4398537 0.9343521 4.2259507
v -0 -0.042357635 5.0214996
v 3.5609014 1.9908608 1.6578295
v 3.2097926 6.061048 0
v 2.063215 7.3792944 -1.1911976
v -0 0.9343521 4.8797073
v -2.5107498 -0.042357635 4.348747
v 2.3529704 1.8723238 3.103287
v 3.170332 4.8521338 1.543726
v 2.3823953 7.3792944 0
v 1.0978137 7.9906735 -0.6338231
v -2.4398537 0.9343521 4.2259507
v -4.348747 -0.042357635 2.5107498
v -0 1.8723238 3.4163542
v 1.9789333 4.8521333 2.8538878
v 2.7797625 6.061048 1.6048963
v 1.2676462 7.9906735 0
v -0 8.187317 0
v -4.2259507 0.9343521 2.4398537
v -5.0214996 -0.042357635 0
v -2.3529704 1.8723238 3.103287
v -0 4.8521333 3.4700966
v 2.063215 7.3792944 1.1911976
v 1.6048963 6.061048 2.7797625
v -4.8797073 0.9343521 0
v -4.848987 -0.042357635 -4.94582
v -3.5609014 1.9908608 1.6578295
v 1.0978137 7.9906735 0.6338231
v -0 8.187317 0
v -1.9789333 4.8521333 2.8538878
v 1.1911976 7.3792944 2.063215
v -0 6.061048 3.2097926
v -4.7120657 0.9343521 -4.8749237
v -2.5107498 -0.042357635 -4.968728
v -3.9368842 3.5331964 0
v 0.6338231 7.9906735 1.0978137
v -0 8.187317 0
v -3.170332 4.8521338 1.543726
v -0 7.3792944 2.3823953
v -1.6048963 6.061048 2.7797625
v -2.4398537 0.9343521 -4.845932
v -0 -0.042357635 -5.0214996
v -0 7.9906735 1.2676462
v -0 8.187317 0
v -2.7797625 6.061048 1.6048963
v -1.1911976 7.3792944 2.063215
v -3.4094405 3.5331964 -1.9684421
v -0 0.9343521 -4.8797073
v 2.5107498 -0.042357635 -4.968728
v -0.6338231 7.9906735 1.0978137
v -0 8.187317 0
v -2.063215 7.3792944 1.1911976
v -3.2097926 6.061048 0
v -1.9684421 3.5331964 -3.4094405
v 2.4398537 0.9343521 -4.845932
v 4.848987 -0.042357635 -4.94582
v 4.7120657 0.9343521 -4.8749237
v -1.0978137 7.9906735 0.6338231
v -0 8.187317 0
v -2.7797625 6.061048 -1.6048963
v -2.3823953 7.3792944 0
v -0 3.5331964 -3.9368842
v 1.9684421 3.5331964 -3.4094405
v 3.4094405 3.5331964 -1.9684421
v -1.2676462 7.9906735 0
v -0 8.187317 0
v -1.6048963 6.061048 -2.7797625
v -2.063215 7.3792944 -1.1911976
v 1.6048963 6.061048 -2.7797625
v 2.7797625 6.061048 -1.6048963
v -0 6.061048 -3.2097926
v -1.0978137 7.9906735 -0.6338231
v -0 8.187317 0
v -1.1911976 7.3792944 -2.063215
v 1.1911976 7.3792944 -2.063215
v 2.063215 7.3792944 -1.1911976
v -0 7.3792944 -2.3823953
v -0.6338231 7.9906735 -1.0978137
v -0 8.187317 0
v -0 7.9906735 -1.2676462
v -0 8.187317 0
v 0.6338231 7.9906735 -1.0978137
v -0 8.187317 0
v 1.0978137 7.9906735 -0.6338231
v -0 8.187317 0
vt 0.91666657 0.33333334
vt 0.9999999 0.44444445
vt 0.9999999 0.33333334
vt 0.91666657 0.44444445
vt 0.83333325 0.33333334
vt 0.9999999 0.5555556
vt 0.83333325 0.44444445
vt 0.74999994 0.33333334
vt 0.91666657 0.5555556
vt 0.9999999 0.6666667
vt 0.74999994 0.44444445
vt 0.6666666 0.33333334
vt 0.83333325 0.5555556
vt 0.91666657 0.6666667
vt 0.9999999 0.7777778
vt 0.6666666 0.44444445
vt 0.5833333 0.33333334
vt 0.74999994 0.5555556
vt 0.83333325 0.61111116
vt 0.91666657 0.7777778
vt 0.9999999 0.8888889
vt 0.5833333 0.44444445
vt 0.5 0.33333334
vt 0.6666666 0.5555556
vt 0.74999994 0.61111116
vt 0.83333325 0.6666667
vt 0.91666657 0.8888889
vt 0.9583334 1
vt 0.5 0.44444445
vt 0.4166667 0.33333334
vt 0.5833333 0.5555556
vt 0.6666666 0.61111116
vt 0.83333325 0.7777778
vt 0.74999994 0.6666667
vt 0.4166667 0.44444445
vt 0.33333334 0.33333334
vt 0.5 0.5555556
vt 0.83333325 0.8888889
vt 0.875 1
vt 0.5833333 0.61111116
vt 0.74999994 0.7777778
vt 0.6666666 0.6666667
vt 0.33333334 0.44444445
vt 0.25 0.33333334
vt 0.4166667 0.5555556
vt 0.74999994 0.8888889
vt 0.7916667 1
vt 0.5 0.61111116
vt 0.6666666 0.7777778
vt 0.5833333 0.6666667
vt 0.25 0.44444445
vt 0.16666667 0.33333334
vt 0.6666666 0.8888889
vt 0.7083334 1
vt 0.5 0.6666667
vt 0.5833333 0.7777778
vt 0.33333334 0.5555556
vt 0.16666667 0.44444445
vt 0.083333336 0.33333334
vt 0.5833333 0.8888889
vt 0.625 1
vt 0.5 0.7777778
vt 0.4166667 0.6666667
vt 0.25 0.5555556
vt 0.083333336 0.44444445
vt 0 0.33333334
vt 0 0.44444445
vt 0.5 0.8888889
vt 0.5416667 1
vt 0.33333334 0.6666667
vt 0.4166667 0.7777778
vt 0.16666667 0.5555556
vt 0.083333336 0.5555556
vt 0 0.5555556
vt 0.4166667 0.8888889
vt 0.45833334 1
vt 0.25 0.6666667
vt 0.33333334 0.7777778
vt 0.083333336 0.6666667
vt 0 0.6666667
vt 0.16666667 0.6666667
vt 0.33333334 0.8888889
vt 0.375 1
vt 0.25 0.7777778
vt 0.083333336 0.7777778
vt 0 0.7777778
vt 0.16666667 0.7777778
vt 0.25 0.8888889
vt 0.2916667 1
vt 0.16666667 0.8888889
vt 0.20833334 1
vt 0.083333336 0.8888889
vt 0.125 1
vt 0 0.8888889
vt 0.041666668 1
vn 0.9876765 0.1425668 0.06457375
vn 0.7488146 0.46736586 -0.46994233
vn 0.8880897 0.16725133 -0.42816302
vn 0.9374311 0.34427142 0.051961374
vn 0.8570413 0.14366767 0.49481297
vn 0.80811524 0.46719754 -0.35871476
vn 0.78435916 0.38938537 0.48286632
vn 0.49481297 0.14366762 0.8570413
vn 0.92901254 0.37004748 -0.00070896966
vn 0.810379 0.3526771 -0.4678725
vn 0.3890204 0.53166443 0.7523271
vn -0 0.14366752 0.989626
vn 0.78111434 0.36702046 0.5051301
vn 0.9301886 0.36486962 -0.040241245
vn 0.6574886 0.6508545 -0.37960124
vn -0 0.56803614 0.82300365
vn -0.49481297 0.14366762 0.8570413
vn 0.45291567 0.39971644 0.79692787
vn 0.846602 0.2033639 0.4918415
vn 0.7592024 0.65085465 -1.5929722E-07
vn 0.36224926 0.90831375 -0.20914496
vn -0.38902044 0.5316645 0.752327
vn -0.8570413 0.14366774 0.4948129
vn -0 0.37959746 0.92515177
vn 0.4818687 0.1211878 0.86782265
vn 0.81007415 0.3820525 0.44476482
vn 0.41828945 0.9083138 -2.7274564E-07
vn -0 1 0
vn -0.78435916 0.38938537 0.48286626
vn -0.9876765 0.14256684 0.06457375
vn -0.45291564 0.39971653 0.79692787
vn -0 0.0795624 0.9968298
vn 0.6574886 0.6508546 0.3796011
vn 0.45474547 0.36331186 0.8131488
vn -0.9374311 0.34427142 0.051961374
vn -0.8880897 0.16725138 -0.42816302
vn -0.78111434 0.36702052 0.50513005
vn 0.3622493 0.9083138 0.20914462
vn -0 1 0
vn -0.48186865 0.12118779 0.86782265
vn 0.37960124 0.6508546 0.6574886
vn -0 0.35016647 0.9366874
vn -0.7488146 0.46736586 -0.4699424
vn -0.0079423515 0.11657907 -0.9931497
vn -0.92901254 0.37004745 -0.00070895033
vn 0.20914477 0.9083138 0.3622492
vn -0 1 0
vn -0.84660214 0.20336393 0.49184147
vn -0 0.65085465 0.7592024
vn -0.45474547 0.36331186 0.8131488
vn -0.15640263 0.46634117 -0.8706689
vn -0 0.13484046 -0.99086726
vn -0 0.90831375 0.41828954
vn -0 1 0
vn -0.81007415 0.3820525 0.44476476
vn -0.37960124 0.6508545 0.6574886
vn -0.80811524 0.4671975 -0.35871476
vn -0 0.3471022 -0.9378273
vn 0.0079423515 0.11657908 -0.9931497
vn -0.20914471 0.90831375 0.36224928
vn -0 1 0
vn -0.6574886 0.6508545 0.37960127
vn -0.9301886 0.36486962 -0.040241167
vn -0.3147081 0.464142 -0.82796794
vn 0.1564026 0.46634114 -0.87066877
vn 0.8880897 0.16725133 -0.42816302
vn 0.7488146 0.46736586 -0.46994233
vn -0.3622492 0.90831375 0.20914496
vn -0 1 0
vn -0.810379 0.35267714 -0.4678725
vn -0.7592024 0.65085465 1.5929722E-07
vn -0 0.36635292 -0.93047595
vn 0.31470805 0.464142 -0.82796794
vn 0.80811524 0.46719754 -0.35871476
vn -0.41828945 0.9083138 2.7274564E-07
vn -0 1 0
vn -0.46787256 0.35267714 -0.81037897
vn -0.6574886 0.6508546 -0.3796011
vn 0.46787256 0.35267708 -0.81037897
vn 0.810379 0.3526771 -0.4678725
vn -0 0.35267717 -0.93574506
vn -0.3622493 0.9083138 -0.20914462
vn -0 1 0
vn -0.37960124 0.6508546 -0.6574886
vn 0.37960124 0.6508545 -0.6574886
vn 0.6574886 0.6508545 -0.37960124
vn -0 0.65085465 -0.7592024
vn -0.20914477 0.9083138 -0.3622492
vn -0 1 0
vn -0 0.90831375 -0.41828954
vn -0 1 0
vn 0.20914471 0.90831375 -0.36224928
vn -0 1 0
vn 0.36224926 0.90831375 -0.20914496
vn -0 1 0
g refinery_COL_0
f 3/3/3 2/2/2 1/1/1
f 2/2/2 4/4/4 1/1/1
f 1/1/1 4/4/4 5/5/5
f 2/2/2 6/6/6 4/4/4
f 4/4/4 7/7/7 5/5/5
f 5/5/5 7/7/7 8/8/8
f 6/6/6 9/9/9 4/4/4
f 4/4/4 9/9/9 7/7/7
f 6/6/6 10/10/10 9/9/9
f 7/7/7 11/11/11 8/8/8
f 8/8/8 11/11/11 12/12/12
f 9/9/9 13/13/13 7/7/7
f 7/7/7 13/13/13 11/11/11
f 10/10/10 14/14/14 9/9/9
f 10/10/10 15/15/15 14/14/14
f 11/11/11 16/16/16 12/12/12
f 12/12/12 16/16/16 17/17/17
f 13/13/13 18/18/18 11/11/11
f 11/11/11 18/18/18 16/16/16
f 9/9/9 19/19/19 13/13/13
f 9/9/9 14/14/14 19/19/19
f 13/13/13 19/19/19 18/18/18
f 15/15/15 20/20/20 14/14/14
f 15/15/15 21/21/21 20/20/20
f 16/16/16 22/22/22 17/17/17
f 17/17/17 22/22/22 23/23/23
f 18/18/18 24/24/24 16/16/16
f 16/16/16 24/24/24 22/22/22
f 19/19/19 25/25/25 18/18/18
f 18/18/18 25/25/25 24/24/24
f 14/14/14 26/26/26 19/19/19
f 14/14/14 20/20/20 26/26/26
f 19/19/19 26/26/26 25/25/25
f 21/21/21 27/27/27 20/20/20
f 21/21/21 28/28/28 27/27/27
f 22/22/22 29/29/29 23/23/23
f 23/23/23 29/29/29 30/30/30
f 24/24/24 31/31/31 22/22/22
f 22/22/22 31/31/31 29/29/29
f 25/25/25 32/32/32 24/24/24
f 24/24/24 32/32/32 31/31/31
f 20/20/20 33/33/33 26/26/26
f 20/20/20 27/27/27 33/33/33
f 26/26/26 34/34/34 25/25/25
f 25/25/25 34/34/34 32/32/32
f 26/26/26 33/33/33 34/34/34
f 29/29/29 35/35/35 30/30/30
f 30/30/30 35/35/35 36/36/36
f 31/31/31 37/37/37 29/29/29
f 29/29/29 37/37/37 35/35/35
f 27/27/27 38/38/38 33/33/33
f 27/27/27 39/39/39 38/38/38
f 32/32/32 40/40/40 31/31/31
f 31/31/31 40/40/40 37/37/37
f 33/33/33 41/41/41 34/34/34
f 33/33/33 38/38/38 41/41/41
f 34/34/34 42/42/42 32/32/32
f 32/32/32 42/42/42 40/40/40
f 34/34/34 41/41/41 42/42/42
f 35/35/35 43/43/43 36/36/36
f 36/36/36 43/43/43 44/44/44
f 37/37/37 45/45/45 35/35/35
f 35/35/35 45/45/45 43/43/43
f 38/38/38 46/46/46 41/41/41
f 38/38/38 47/47/47 46/46/46
f 40/40/40 48/48/48 37/37/37
f 37/37/37 48/48/48 45/45/45
f 41/41/41 49/49/49 42/42/42
f 41/41/41 46/46/46 49/49/49
f 42/42/42 50/50/50 40/40/40
f 40/40/40 50/50/50 48/48/48
f 42/42/42 49/49/49 50/50/50
f 43/43/43 51/51/51 44/44/44
f 44/44/44 51/51/51 52/52/52
f 46/46/46 53/53/53 49/49/49
f 46/46/46 54/54/54 53/53/53
f 50/50/50 55/55/55 48/48/48
f 48/48/48 55/55/55 45/45/45
f 49/49/49 56/56/56 50/50/50
f 49/49/49 53/53/53 56/56/56
f 50/50/50 56/56/56 55/55/55
f 45/45/45 57/57/57 43/43/43
f 43/43/43 57/57/57 51/51/51
f 51/51/51 58/58/58 52/52/52
f 52/52/52 58/58/58 59/59/59
f 53/53/53 60/60/60 56/56/56
f 53/53/53 61/61/61 60/60/60
f 56/56/56 62/62/62 55/55/55
f 56/56/56 60/60/60 62/62/62
f 55/55/55 63/63/63 45/45/45
f 45/45/45 63/63/63 57/57/57
f 55/55/55 62/62/62 63/63/63
f 57/57/57 64/64/64 51/51/51
f 51/51/51 64/64/64 58/58/58
f 58/58/58 65/65/65 59/59/59
f 59/59/59 65/65/65 66/66/66
f 65/65/65 67/67/67 66/66/66
f 60/60/60 68/68/68 62/62/62
f 60/60/60 69/69/69 68/68/68
f 63/63/63 70/70/70 57/57/57
f 57/57/57 70/70/70 64/64/64
f 62/62/62 71/71/71 63/63/63
f 62/62/62 68/68/68 71/71/71
f 63/63/63 71/71/71 70/70/70
f 58/58/58 72/72/72 65/65/65
f 64/64/64 72/72/72 58/58/58
f 65/65/65 73/73/73 67/67/67
f 72/72/72 73/73/73 65/65/65
f 73/73/73 74/74/74 67/67/67
f 68/68/68 75/75/75 71/71/71
f 68/68/68 76/76/76 75/75/75
f 70/70/70 77/77/77 64/64/64
f 64/64/64 77/77/77 72/72/72
f 71/71/71 78/78/78 70/70/70
f 71/71/71 75/75/75 78/78/78
f 70/70/70 78/78/78 77/77/77
f 73/73/73 79/79/79 74/74/74
f 79/79/79 80/80/80 74/74/74
f 72/72/72 81/81/81 73/73/73
f 77/77/77 81/81/81 72/72/72
f 81/81/81 79/79/79 73/73/73
f 75/75/75 82/82/82 78/78/78
f 75/75/75 83/83/83 82/82/82
f 78/78/78 84/84/84 77/77/77
f 77/77/77 84/84/84 81/81/81
f 78/78/78 82/82/82 84/84/84
f 79/79/79 85/85/85 80/80/80
f 85/85/85 86/86/86 80/80/80
f 81/81/81 87/87/87 79/79/79
f 84/84/84 87/87/87 81/81/81
f 87/87/87 85/85/85 79/79/79
f 82/82/82 88/88/88 84/84/84
f 84/84/84 88/88/88 87/87/87
f 82/82/82 89/89/89 88/88/88
f 88/88/88 90/90/90 87/87/87
f 87/87/87 90/90/90 85/85/85
f 88/88/88 91/91/91 90/90/90
f 85/85/85 92/92/92 86/86/86
f 90/90/90 92/92/92 85/85/85
f 90/90/90 93/93/93 92/92/92
f 92/92/92 94/94/94 86/86/86
f 92/92/92 95/95/95 94/94/94
