g rock_round
v 0.982171 -0.16946094 -0.32067302
v 1.039311 -0.193457 0.016820638
v 1.092583 -0.048947964 -0.16204834
v 1.073187 0.090585984 0.03042103
v 1.048452 0.048041962 0.21995974
v 1.030877 -0.03523304 0.2453537
v 0.8639819 -0.24019407 0.32133406
v 0.829852 -0.07463608 0.536865
v 0.814317 0.0795809 0.5449889
v 0.418735 -0.20381008 0.72005105
v 0.87555486 0.26556095 0.23116092
v 0.749833 0.25058684 0.4614201
v 0.431131 0.47380492 -0.0944759
v 0.848202 0.318127 0.05811601
v 0.87533 0.16712508 -0.45878786
v 0.99313307 0.18138199 -0.15543601
v 0.592416 0.1866079 0.6443479
v 0.178973 -0.12508014 0.823961
v 0.284995 -0.32900405 0.6637963
v 0.12416998 -0.4192531 0.59962434
v -0.378683 -0.3579481 0.5997089
v 1.018514 0.07980405 -0.285238
v 1.011722 0.009859058 -0.34956095
v 0.982171 -0.16946094 -0.32067302
v 0.316096 0.3563899 0.52087027
v -0.020665998 0.46704486 0.4434951
v 0.16444 0.39100692 0.5609692
v 0.290335 0.17623882 0.77946687
v 0.019830998 0.22336282 0.7971127
v 0.153379 0.06717486 0.8387239
v -0.20605499 -0.04945114 0.85035366
v -0.414602 0.115873866 0.8107688
v -0.46873793 -0.04025713 0.7923887
v -0.578555 -0.2383491 0.587526
v -0.80477995 -0.0661931 0.5940769
v -0.362438 0.2876858 0.65945417
v -0.6732879 0.10881988 0.70347214
v -0.897998 0.0959599 0.503072
v -1.045938 0.026870934 0.4008808
v -1.062852 0.15351793 0.21758103
v -0.6954 0.2194919 0.5793529
v -0.816835 0.27553293 0.34683207
v -0.898416 0.27284104 -0.081550784
v -1.112352 0.11777099 0.0042369557
v -1.06328 0.09281303 -0.25460097
v -0.966807 0.17969505 -0.3326461
v -0.561523 0.33746895 0.42458895
v -0.600499 0.39676097 0.22779803
v -0.511399 0.42186505 -0.2726089
v -0.545488 0.32678905 -0.5058529
v 0.139307 0.49959594 0.020982107
v 0.234318 0.47800303 -0.19279091
v -0.285046 0.368833 -0.5019859
v 0.45905295 0.3267921 -0.59413296
v -0.636587 0.24089207 -0.63613206
v -0.45734996 0.16821611 -0.788507
v -0.233997 0.26217112 -0.6862398
v -0.88799596 0.1304891 -0.56718487
v 0.266173 0.17481613 -0.800863
v 0.581259 0.2647681 -0.6140278
v 0.612785 0.10771612 -0.754591
v -0.658638 -0.020169878 -0.747141
v -0.92829496 -0.10070089 -0.5189471
v 0.921125 0.06604308 -0.523319
v 0.127943 0.058688138 -0.8479961
v -0.459395 -0.11147384 -0.8031871
v -0.701703 -0.13274989 -0.68529403
v -0.292355 0.037373137 -0.8525819
v -0.173085 -0.13203987 -0.7884831
v -0.42045993 -0.2718099 -0.6418572
v -0.626167 -0.2942019 -0.49367908
v 0.843796 -0.13319291 -0.52309114
v 0.6696699 -0.07828988 -0.70407194
v 0.357043 -0.064539865 -0.827866
v -0.017617 -0.121631846 -0.816974
v 0.42794 -0.21214387 -0.71225995
v 0.6517779 -0.30631992 -0.43939403
v 0.534687 -0.5110719 -0.21727331
v -0.051195 -0.31384087 -0.65294605
v -0.279889 -0.3123009 -0.63489705
v 0.501969 -0.30513987 -0.57860905
v 0.254889 -0.40390995 -0.5566121
v 0.49279395 -0.3098399 -0.52743006
v 0.33974898 -0.4420999 -0.4619971
v 0.293925 -0.5897109 -0.3557824
v 0.198586 -0.4867009 -0.47873008
v 0.11007998 -0.40447193 -0.5257016
v -0.40491 -0.3952359 -0.47963908
v -0.163561 -0.47305688 -0.47692236
v -0.29922697 -0.37966087 -0.4954782
v -0.273088 -0.60713094 -0.31858024
v -0.359766 -0.54571587 -0.3788794
v -0.549267 -0.55281794 -0.21595846
v -0.38508597 -0.711794 -0.05337154
v -0.32931 -0.6338629 -0.22187124
v -0.260689 -0.715865 -0.06536042
v -0.517967 -0.3979389 -0.4697245
v -0.674813 -0.46019095 -0.2764855
v -0.85359 -0.22798795 -0.34839106
v -0.529077 -0.633622 -0.084805354
v -0.539573 -0.570668 0.08013763
v -0.6491479 -0.52967495 -0.09641608
v -0.874991 -0.30405495 -0.2149201
v -0.94833195 -0.282144 0.008950903
v -1.081112 -0.05916696 -0.25388193
v -1.096547 -0.125822 -0.0048380103
v -0.886709 -0.31951404 0.19052738
v -0.79096097 -0.43252403 0.12871186
v -0.699463 -0.46032 0.22055404
v -1.048246 0.02817906 -0.36825797
v -0.88799596 0.1304891 -0.56718487
v -0.966807 0.17969505 -0.3326461
v -1.06328 0.09281303 -0.25460097
v -1.112352 0.11777099 0.0042369557
v -1.045938 0.026870934 0.4008808
v -1.062852 0.15351793 0.21758103
v -0.68744886 -0.2310461 0.51185673
v -0.80477995 -0.0661931 0.5940769
v -0.578555 -0.2383491 0.587526
v -0.577691 -0.37253505 0.4435965
v -0.378683 -0.3579481 0.5997089
v -0.725923 -0.35871306 0.36611977
v -0.593024 -0.42578307 0.27104348
v -0.307757 -0.48933604 0.3679728
v -0.427755 -0.53853506 0.2042426
v -0.098773 -0.481431 0.50756043
v 0.12416998 -0.4192531 0.59962434
v -0.272089 -0.525758 0.29576793
v -0.39024 -0.62555707 0.12596287
v 0.293795 -0.5140831 0.39395753
v 0.284995 -0.32900405 0.6637963
v -0.00035499997 -0.5633541 0.31971255
v -0.291863 -0.697591 0.07003534
v -0.09994 -0.63684404 0.2872516
v 0.09635099 -0.6463121 0.27206147
v 0.546044 -0.47771603 0.3104767
v 0.418735 -0.20381008 0.72005105
v 0.364002 -0.576786 0.17625776
v 0.230148 -0.694038 -0.102109544
v 0.41958597 -0.6683969 0.019287478
v 0.452003 -0.54033506 0.22392191
v 0.513214 -0.581012 0.02488556
v 0.470013 -0.57362396 -0.22316608
v 0.78959 -0.409598 -0.073396035
v 0.982171 -0.16946094 -0.32067302
v 1.039311 -0.193457 0.016820638
v 0.8639819 -0.24019407 0.32133406
v 0.829852 -0.07463608 0.536865
vt 0.8593503 0.2890399
vt 0.8873184 0.21068817
vt 0.85907066 0.2401619
vt 0.8465878 0.20567149
vt 0.8495668 0.1784432
vt 0.8587979 0.17287582
vt 0.8826593 0.14529604
vt 0.8383404 0.116683125
vt 0.82111394 0.12632036
vt 0.77059865 0.054597795
vt 0.8123578 0.1733337
vt 0.79933286 0.14135635
vt 0.74344444 0.20161599
vt 0.804446 0.19346905
vt 0.80855936 0.25455165
vt 0.8278913 0.22553301
vt 0.78007686 0.11432779
vt 0.7276964 0.054848313
vt 0.7469703 0.02746445
vt 0.71859384 0.00960654
vt 0.63248956 0.018544078
vt 0.8356773 0.24812806
vt 0.8399023 0.26251912
vt 0.8593503 0.2890399
vt 0.7350875 0.13192242
vt 0.68460405 0.14271224
vt 0.71267116 0.12859803
vt 0.7346206 0.09560245
vt 0.6962391 0.09577918
vt 0.717842 0.07768822
vt 0.66569173 0.06466329
vt 0.634802 0.08531183
vt 0.6250137 0.06804544
vt 0.59725106 0.042065084
vt 0.56506324 0.082345486
vt 0.6399157 0.112537384
vt 0.5958493 0.0955624
vt 0.5564225 0.11634636
vt 0.52857137 0.12748736
vt 0.5285553 0.16416973
vt 0.5913794 0.11760557
vt 0.5703393 0.14944959
vt 0.55304635 0.21311986
vt 0.51699495 0.19911242
vt 0.52250636 0.24200153
vt 0.5433561 0.2562123
vt 0.6091027 0.1420157
vt 0.6014848 0.16819257
vt 0.61242247 0.22941554
vt 0.6090278 0.2629267
vt 0.70366585 0.18929338
vt 0.71544564 0.21188247
vt 0.64500713 0.25366575
vt 0.74528694 0.25390595
vt 0.600815 0.2860343
vt 0.6309592 0.29649675
vt 0.65574193 0.2760585
vt 0.5654857 0.30061084
vt 0.7234046 0.28167993
vt 0.76223135 0.25950944
vt 0.7683299 0.279433
vt 0.60776186 0.32183886
vt 0.5706495 0.3568793
vt 0.8154879 0.26818407
vt 0.7093606 0.29702562
vt 0.63885844 0.32701796
vt 0.60727584 0.33995324
vt 0.65676534 0.30807728
vt 0.67764735 0.32449573
vt 0.6515976 0.35131717
vt 0.6263063 0.37023544
vt 0.81988436 0.2929117
vt 0.78499246 0.29409635
vt 0.74249315 0.3028475
vt 0.6973721 0.31876647
vt 0.76090467 0.317248
vt 0.80797994 0.32470787
vt 0.80744445 0.36661386
vt 0.70319295 0.3436569
vt 0.67241716 0.35144848
vt 0.7801639 0.32618213
vt 0.75036454 0.34568715
vt 0.783576 0.33047593
vt 0.7672447 0.35118824
vt 0.7670002 0.37115526
vt 0.74791014 0.35918486
vt 0.73177445 0.35344505
vt 0.6623882 0.37273026
vt 0.6993214 0.37135065
vt 0.67611146 0.36745173
vt 0.6950493 0.39565372
vt 0.67917955 0.38985664
vt 0.65975237 0.41131794
vt 0.69434345 0.4283775
vt 0.6920965 0.40746474
vt 0.70880044 0.4237252
vt 0.6479676 0.3772276
vt 0.63722956 0.40369892
vt 0.59455395 0.3873495
vt 0.6736015 0.4269516
vt 0.6724167 0.44745588
vt 0.65025747 0.4265374
vt 0.60439646 0.40921474
vt 0.60092306 0.44070464
vt 0.5596782 0.40546364
vt 0.57167935 0.44092286
vt 0.61680484 0.4652809
vt 0.634557 0.4551903
vt 0.6510309 0.4657066
vt 0.5494709 0.38767844
vt 0.5345695 0.35361624
vt 0.5243559 0.38725334
vt 0.538569 0.40465295
vt 0.53826785 0.44708115
vt 0.57055366 0.5006187
vt 0.54369235 0.47896886
vt 0.6431072 0.512958
vt 0.6137599 0.5271489
vt 0.6615205 0.52406067
vt 0.669471 0.49968088
vt 0.7064681 0.51950884
vt 0.6453506 0.4882875
vt 0.66539884 0.4768681
vt 0.7148508 0.48318636
vt 0.69145954 0.46362782
vt 0.7557193 0.49077618
vt 0.8003304 0.49207604
vt 0.718477 0.47271442
vt 0.6966164 0.45093346
vt 0.81006944 0.45447558
vt 0.83617854 0.48741513
vt 0.7623774 0.4630918
vt 0.7097198 0.439588
vt 0.7441665 0.4574005
vt 0.7685995 0.4468494
vt 0.8391504 0.424407
vt 0.86643565 0.48497617
vt 0.8055649 0.42473888
vt 0.77018774 0.40139604
vt 0.80028164 0.4034201
vt 0.8203074 0.42264885
vt 0.815676 0.39591676
vt 0.796525 0.37358737
vt 0.8487592 0.35581923
vt 0.8593503 0.2890399
vt 0.89373827 0.34249437
vt 0.8927314 0.4008863
vt 0.91362226 0.43335378
vn 0.67609 -0.6358637 -0.37226278
vn 0.78029156 -0.617945 0.096380025
vn 0.9821431 -0.1375915 -0.12831064
vn 0.9190647 0.38627446 0.07817877
vn 0.8914323 0.30124918 0.33852237
vn 0.847705 -0.30823576 0.43172565
vn 0.5956693 -0.68067855 0.42644435
vn 0.5996078 -0.38009614 0.70427084
vn 0.6183927 0.22012961 0.7544094
vn 0.43158776 -0.3932058 0.81186277
vn 0.49191752 0.8304988 0.26132125
vn 0.39263433 0.8519895 0.346341
vn 0.30646142 0.9510008 -0.040973
vn 0.44771746 0.8910867 -0.074254125
vn 0.48096073 0.8206098 -0.30866882
vn 0.66844374 0.7262903 -0.16026644
vn 0.39241385 0.40310863 0.82674956
vn 0.109638914 -0.37480944 0.9205961
vn 0.24780518 -0.69522285 0.674728
vn 0.0022713633 -0.7091373 0.70506674
vn -0.1972874 -0.6854934 0.7008398
vn 0.84271157 0.44751558 -0.29927748
vn 0.88547635 -0.002472186 -0.46467793
vn 0.67609 -0.6358637 -0.37226278
vn 0.2640029 0.91404665 0.30793065
vn -0.028994717 0.9743936 0.22297199
vn 0.14449725 0.8397082 0.5234603
vn 0.3279169 0.42362508 0.8444006
vn -0.010128833 0.62763584 0.7784411
vn 0.114710666 0.11112042 0.9871645
vn -0.08316926 -0.34351152 0.9354585
vn -0.21595614 0.43066323 0.87629455
vn -0.3228114 -0.3790703 0.86723614
vn -0.40713704 -0.58448625 0.7018655
vn -0.5927426 -0.40479112 0.6962761
vn -0.18669875 0.8148667 0.5487585
vn -0.4877002 0.2864855 0.8246664
vn -0.6322231 0.45345253 0.6282314
vn -0.8219031 -0.29713768 0.48598808
vn -0.67584777 0.7098026 0.19851921
vn -0.4036882 0.75417084 0.51794046
vn -0.46862185 0.84257317 0.26545045
vn -0.45621663 0.88686436 -0.07306042
vn -0.92965126 0.36843663 -0.0017224665
vn -0.837002 0.508497 -0.20213456
vn -0.53327066 0.8088855 -0.24764198
vn -0.2641956 0.8951837 0.35895243
vn -0.24206093 0.9666689 0.08341352
vn -0.21735989 0.9692854 -0.115067124
vn -0.29966003 0.8859681 -0.35392717
vn -0.045921624 0.9989078 0.008624279
vn 0.017762657 0.96546245 -0.25993574
vn -0.041142493 0.9279351 -0.370464
vn 0.19567345 0.9029788 -0.38254553
vn -0.36743224 0.7758997 -0.512809
vn -0.21152373 0.55318165 -0.8057591
vn -0.035390936 0.8215464 -0.5690422
vn -0.63698107 0.4189105 -0.6471237
vn 0.059094258 0.64848286 -0.7589321
vn 0.38380852 0.72619545 -0.5703781
vn 0.41807097 0.32911062 -0.84670115
vn -0.46331564 0.08298317 -0.8822995
vn -0.6792517 -0.45992798 -0.571912
vn 0.74594396 0.14678986 -0.649631
vn 0.0180979 0.15625536 -0.9875509
vn -0.18912607 -0.43280113 -0.8814276
vn -0.44141358 -0.62085414 -0.6478381
vn -0.05688851 0.054041255 -0.9969169
vn -0.02645021 -0.48600534 -0.8735555
vn -0.20390007 -0.7407535 -0.64008516
vn -0.43056417 -0.7245547 -0.5381776
vn 0.5941125 -0.5366859 -0.5991648
vn 0.49071485 -0.36391026 -0.791687
vn 0.16650838 -0.24122487 -0.9560782
vn -0.019414613 -0.49416375 -0.86915207
vn 0.20530191 -0.63019973 -0.74879867
vn 0.43869767 -0.7605429 -0.47866365
vn 0.49381214 -0.77782553 -0.38876346
vn -0.006072791 -0.70340323 -0.7107651
vn -0.10257067 -0.7621964 -0.6391682
vn 0.37172458 -0.7112257 -0.59663963
vn 0.072224885 -0.74190843 -0.66659987
vn 0.38751894 -0.8097976 -0.44051892
vn 0.38348627 -0.7114606 -0.5888651
vn 0.167259 -0.8508239 -0.4981196
vn 0.053637497 -0.66679513 -0.74330837
vn -0.053841684 -0.72467667 -0.68698233
vn -0.22477943 -0.73847437 -0.63571197
vn -0.0884348 -0.6445877 -0.75939834
vn -0.09562959 -0.7736713 -0.6263288
vn -0.039282806 -0.86130726 -0.50656354
vn -0.30477503 -0.7036907 -0.64181906
vn -0.40365538 -0.81401503 -0.4176624
vn -0.3347038 -0.93531495 -0.1147138
vn -0.18535319 -0.8869486 -0.4230443
vn 0.018916192 -0.9888136 -0.14795229
vn -0.24147111 -0.7148576 -0.65625477
vn -0.53528875 -0.72669613 -0.4305563
vn -0.60104704 -0.70465773 -0.37709388
vn -0.70659095 -0.70537966 -0.056291394
vn -0.4353656 -0.86005944 0.26599714
vn -0.5348626 -0.8410234 -0.08125026
vn -0.7298958 -0.6321159 -0.26015693
vn -0.6995304 -0.70442927 -0.12015173
vn -0.84825754 -0.47019878 -0.24366422
vn -0.8966409 -0.43976647 0.05138567
vn -0.6873945 -0.61608136 0.38461992
vn -0.6042964 -0.79421073 0.063680224
vn -0.41246113 -0.7481126 0.5198108
vn -0.8749886 0.1082269 -0.47189176
vn -0.63698107 0.4189105 -0.6471237
vn -0.53327066 0.8088855 -0.24764198
vn -0.837002 0.508497 -0.20213456
vn -0.92965126 0.36843663 -0.0017224665
vn -0.8219031 -0.29713768 0.48598808
vn -0.67584777 0.7098026 0.19851921
vn -0.5630108 -0.61240834 0.5549547
vn -0.5927426 -0.40479112 0.6962761
vn -0.40713704 -0.58448625 0.7018655
vn -0.34004927 -0.81838834 0.46325687
vn -0.1972874 -0.6854934 0.7008398
vn -0.5270693 -0.734614 0.42724723
vn -0.28810826 -0.8379423 0.46351513
vn -0.26211503 -0.88884187 0.37583998
vn -0.2894518 -0.76775235 0.57164145
vn -0.090869345 -0.8504635 0.5181261
vn 0.0022713633 -0.7091373 0.70506674
vn -0.29201457 -0.79438084 0.5326222
vn -0.37918517 -0.77130896 0.51117617
vn 0.1793601 -0.87464637 0.4503595
vn 0.24780518 -0.69522285 0.674728
vn 0.018367432 -0.84601957 0.53283536
vn -0.11727876 -0.9486502 0.2937831
vn -0.13366495 -0.78676987 0.60260016
vn 0.13489322 -0.91502523 0.38017452
vn 0.4858179 -0.75423217 0.44171798
vn 0.43158776 -0.3932058 0.81186277
vn 0.28937405 -0.8389397 0.46091506
vn 0.08262647 -0.9892975 -0.120263256
vn 0.32500565 -0.940258 0.10142039
vn 0.26805666 -0.9093139 0.3182671
vn 0.56209975 -0.82117695 0.09855133
vn 0.46489447 -0.8188547 -0.336675
vn 0.58603925 -0.80871266 -0.050416756
vn 0.67609 -0.6358637 -0.37226278
vn 0.78029156 -0.617945 0.096380025
vn 0.5956693 -0.68067855 0.42644435
vn 0.5996078 -0.38009614 0.70427084
g rock_round_0
f 3/3/3 2/2/2 1/1/1
f 3/3/3 4/4/4 2/2/2
f 2/2/2 4/4/4 5/5/5
f 2/2/2 5/5/5 6/6/6
f 7/7/7 2/2/2 6/6/6
f 7/7/7 6/6/6 8/8/8
f 9/9/9 8/8/8 6/6/6
f 6/6/6 5/5/5 9/9/9
f 9/9/9 10/10/10 8/8/8
f 4/4/4 11/11/11 5/5/5
f 12/12/12 9/9/9 5/5/5
f 5/5/5 11/11/11 12/12/12
f 12/12/12 11/11/11 13/13/13
f 11/11/11 14/14/14 13/13/13
f 14/14/14 15/15/15 13/13/13
f 15/15/15 14/14/14 16/16/16
f 16/16/16 14/14/14 11/11/11
f 4/4/4 16/16/16 11/11/11
f 4/4/4 3/3/3 16/16/16
f 17/17/17 10/10/10 9/9/9
f 12/12/12 17/17/17 9/9/9
f 10/10/10 17/17/17 18/18/18
f 18/18/18 19/19/19 10/10/10
f 20/20/20 19/19/19 18/18/18
f 20/20/20 18/18/18 21/21/21
f 3/3/3 22/22/22 16/16/16
f 16/16/16 22/22/22 15/15/15
f 23/23/23 22/22/22 3/3/3
f 22/22/22 23/23/23 15/15/15
f 23/23/23 3/3/3 24/24/24
f 12/12/12 25/25/25 17/17/17
f 12/12/12 13/13/13 25/25/25
f 25/25/25 13/13/13 26/26/26
f 25/25/25 26/26/26 27/27/27
f 17/17/17 25/25/25 28/28/28
f 27/27/27 28/28/28 25/25/25
f 18/18/18 17/17/17 28/28/28
f 29/29/29 28/28/28 27/27/27
f 26/26/26 29/29/29 27/27/27
f 18/18/18 28/28/28 30/30/30
f 29/29/29 30/30/30 28/28/28
f 31/31/31 18/18/18 30/30/30
f 21/21/21 18/18/18 31/31/31
f 32/32/32 30/30/30 29/29/29
f 32/32/32 31/31/31 30/30/30
f 31/31/31 33/33/33 21/21/21
f 32/32/32 33/33/33 31/31/31
f 34/34/34 21/21/21 33/33/33
f 34/34/34 33/33/33 35/35/35
f 36/36/36 32/32/32 29/29/29
f 26/26/26 36/36/36 29/29/29
f 37/37/37 33/33/33 32/32/32
f 35/35/35 33/33/33 37/37/37
f 32/32/32 36/36/36 37/37/37
f 38/38/38 35/35/35 37/37/37
f 38/38/38 39/39/39 35/35/35
f 38/38/38 40/40/40 39/39/39
f 37/37/37 36/36/36 41/41/41
f 38/38/38 37/37/37 41/41/41
f 38/38/38 42/42/42 40/40/40
f 42/42/42 38/38/38 41/41/41
f 40/40/40 42/42/42 43/43/43
f 44/44/44 40/40/40 43/43/43
f 44/44/44 43/43/43 45/45/45
f 46/46/46 45/45/45 43/43/43
f 41/41/41 36/36/36 47/47/47
f 47/47/47 36/36/36 26/26/26
f 48/48/48 42/42/42 41/41/41
f 41/41/41 47/47/47 48/48/48
f 43/43/43 42/42/42 48/48/48
f 48/48/48 47/47/47 26/26/26
f 43/43/43 48/48/48 49/49/49
f 48/48/48 26/26/26 49/49/49
f 50/50/50 46/46/46 43/43/43
f 49/49/49 50/50/50 43/43/43
f 49/49/49 26/26/26 51/51/51
f 51/51/51 26/26/26 13/13/13
f 52/52/52 49/49/49 51/51/51
f 13/13/13 52/52/52 51/51/51
f 52/52/52 53/53/53 49/49/49
f 49/49/49 53/53/53 50/50/50
f 52/52/52 13/13/13 54/54/54
f 53/53/53 52/52/52 54/54/54
f 54/54/54 13/13/13 15/15/15
f 50/50/50 55/55/55 46/46/46
f 56/56/56 55/55/55 50/50/50
f 57/57/57 56/56/56 50/50/50
f 53/53/53 57/57/57 50/50/50
f 57/57/57 53/53/53 54/54/54
f 58/58/58 46/46/46 55/55/55
f 55/55/55 56/56/56 58/58/58
f 57/57/57 54/54/54 59/59/59
f 57/57/57 59/59/59 56/56/56
f 15/15/15 60/60/60 54/54/54
f 59/59/59 54/54/54 60/60/60
f 60/60/60 15/15/15 61/61/61
f 61/61/61 59/59/59 60/60/60
f 58/58/58 56/56/56 62/62/62
f 63/63/63 58/58/58 62/62/62
f 64/64/64 61/61/61 15/15/15
f 64/64/64 15/15/15 23/23/23
f 24/24/24 64/64/64 23/23/23
f 65/65/65 59/59/59 61/61/61
f 56/56/56 59/59/59 65/65/65
f 62/62/62 56/56/56 66/66/66
f 67/67/67 63/63/63 62/62/62
f 66/66/66 67/67/67 62/62/62
f 65/65/65 68/68/68 56/56/56
f 66/66/66 56/56/56 68/68/68
f 68/68/68 69/69/69 66/66/66
f 68/68/68 65/65/65 69/69/69
f 70/70/70 67/67/67 66/66/66
f 66/66/66 69/69/69 70/70/70
f 71/71/71 63/63/63 67/67/67
f 67/67/67 70/70/70 71/71/71
f 72/72/72 64/64/64 24/24/24
f 73/73/73 61/61/61 64/64/64
f 73/73/73 64/64/64 72/72/72
f 61/61/61 74/74/74 65/65/65
f 61/61/61 73/73/73 74/74/74
f 74/74/74 75/75/75 65/65/65
f 65/65/65 75/75/75 69/69/69
f 74/74/74 73/73/73 76/76/76
f 76/76/76 75/75/75 74/74/74
f 72/72/72 76/76/76 73/73/73
f 77/77/77 72/72/72 24/24/24
f 77/77/77 24/24/24 78/78/78
f 75/75/75 79/79/79 69/69/69
f 76/76/76 79/79/79 75/75/75
f 70/70/70 69/69/69 80/80/80
f 80/80/80 69/69/69 79/79/79
f 77/77/77 81/81/81 72/72/72
f 72/72/72 81/81/81 76/76/76
f 79/79/79 76/76/76 82/82/82
f 82/82/82 76/76/76 81/81/81
f 77/77/77 83/83/83 81/81/81
f 77/77/77 78/78/78 83/83/83
f 84/84/84 81/81/81 83/83/83
f 84/84/84 82/82/82 81/81/81
f 84/84/84 83/83/83 78/78/78
f 85/85/85 84/84/84 78/78/78
f 86/86/86 84/84/84 85/85/85
f 82/82/82 87/87/87 79/79/79
f 87/87/87 82/82/82 84/84/84
f 84/84/84 86/86/86 87/87/87
f 80/80/80 79/79/79 87/87/87
f 70/70/70 80/80/80 88/88/88
f 88/88/88 71/71/71 70/70/70
f 87/87/87 86/86/86 89/89/89
f 85/85/85 89/89/89 86/86/86
f 80/80/80 87/87/87 90/90/90
f 89/89/89 90/90/90 87/87/87
f 88/88/88 80/80/80 90/90/90
f 90/90/90 89/89/89 91/91/91
f 85/85/85 91/91/91 89/89/89
f 92/92/92 88/88/88 90/90/90
f 90/90/90 91/91/91 92/92/92
f 88/88/88 92/92/92 93/93/93
f 92/92/92 94/94/94 93/93/93
f 95/95/95 92/92/92 91/91/91
f 92/92/92 95/95/95 94/94/94
f 95/95/95 91/91/91 96/96/96
f 96/96/96 91/91/91 85/85/85
f 94/94/94 95/95/95 96/96/96
f 88/88/88 97/97/97 71/71/71
f 97/97/97 88/88/88 93/93/93
f 97/97/97 98/98/98 71/71/71
f 93/93/93 98/98/98 97/97/97
f 99/99/99 71/71/71 98/98/98
f 71/71/71 99/99/99 63/63/63
f 94/94/94 100/100/100 93/93/93
f 101/101/101 93/93/93 100/100/100
f 101/101/101 100/100/100 94/94/94
f 102/102/102 98/98/98 93/93/93
f 102/102/102 93/93/93 101/101/101
f 98/98/98 103/103/103 99/99/99
f 103/103/103 98/98/98 102/102/102
f 104/104/104 99/99/99 103/103/103
f 104/104/104 103/103/103 102/102/102
f 99/99/99 105/105/105 63/63/63
f 106/106/106 99/99/99 104/104/104
f 105/105/105 99/99/99 106/106/106
f 104/104/104 107/107/107 106/106/106
f 104/104/104 102/102/102 108/108/108
f 108/108/108 107/107/107 104/104/104
f 109/109/109 108/108/108 102/102/102
f 109/109/109 102/102/102 101/101/101
f 109/109/109 107/107/107 108/108/108
f 110/110/110 63/63/63 105/105/105
f 110/110/110 111/111/111 63/63/63
f 110/110/110 112/112/112 111/111/111
f 112/112/112 110/110/110 113/113/113
f 113/113/113 110/110/110 105/105/105
f 114/114/114 113/113/113 105/105/105
f 114/114/114 105/105/105 106/106/106
f 114/114/114 106/106/106 115/115/115
f 106/106/106 107/107/107 115/115/115
f 115/115/115 116/116/116 114/114/114
f 115/115/115 107/107/107 117/117/117
f 117/117/117 118/118/118 115/115/115
f 118/118/118 117/117/117 119/119/119
f 120/120/120 119/119/119 117/117/117
f 120/120/120 121/121/121 119/119/119
f 122/122/122 117/117/117 107/107/107
f 120/120/120 117/117/117 122/122/122
f 123/123/123 122/122/122 107/107/107
f 123/123/123 120/120/120 122/122/122
f 123/123/123 107/107/107 109/109/109
f 124/124/124 121/121/121 120/120/120
f 120/120/120 123/123/123 124/124/124
f 109/109/109 125/125/125 123/123/123
f 109/109/109 101/101/101 125/125/125
f 121/121/121 124/124/124 126/126/126
f 126/126/126 127/127/127 121/121/121
f 128/128/128 124/124/124 123/123/123
f 125/125/125 128/128/128 123/123/123
f 128/128/128 126/126/126 124/124/124
f 125/125/125 101/101/101 129/129/129
f 129/129/129 128/128/128 125/125/125
f 129/129/129 101/101/101 94/94/94
f 127/127/127 126/126/126 130/130/130
f 127/127/127 130/130/130 131/131/131
f 132/132/132 126/126/126 128/128/128
f 130/130/130 126/126/126 132/132/132
f 94/94/94 133/133/133 129/129/129
f 96/96/96 133/133/133 94/94/94
f 129/129/129 134/134/134 128/128/128
f 133/133/133 134/134/134 129/129/129
f 132/132/132 128/128/128 134/134/134
f 135/135/135 134/134/134 133/133/133
f 133/133/133 96/96/96 135/135/135
f 134/134/134 135/135/135 132/132/132
f 131/131/131 130/130/130 136/136/136
f 136/136/136 137/137/137 131/131/131
f 130/130/130 132/132/132 138/138/138
f 135/135/135 138/138/138 132/132/132
f 139/139/139 135/135/135 96/96/96
f 85/85/85 139/139/139 96/96/96
f 135/135/135 139/139/139 140/140/140
f 139/139/139 85/85/85 140/140/140
f 140/140/140 138/138/138 135/135/135
f 138/138/138 141/141/141 130/130/130
f 141/141/141 136/136/136 130/130/130
f 141/141/141 138/138/138 142/142/142
f 138/138/138 140/140/140 142/142/142
f 142/142/142 136/136/136 141/141/141
f 143/143/143 140/140/140 85/85/85
f 143/143/143 142/142/142 140/140/140
f 78/78/78 143/143/143 85/85/85
f 78/78/78 142/142/142 143/143/143
f 144/144/144 142/142/142 78/78/78
f 136/136/136 142/142/142 144/144/144
f 144/144/144 78/78/78 145/145/145
f 146/146/146 144/144/144 145/145/145
f 146/146/146 147/147/147 144/144/144
f 136/136/136 144/144/144 147/147/147
f 136/136/136 147/147/147 137/137/137
f 148/148/148 137/137/137 147/147/147
