g roof_round
v -3.709661E-06 -0.40737534 -13.9887085
v -4.3842574E-06 -0.13272285 -15.743206
v -2.4627876 -0.13272285 -15.549395
v -2.1883225 -0.40737534 -13.816496
v -1.4614728E-06 0.23912144 -8.141593
v -4.864943 -0.13272285 -14.972694
v -1.2736285 0.23912144 -8.041363
v -8.065124E-07 0.8299656 -6.4381638
v -1.0071523 0.8299656 -6.358904
v -4.32277 -0.40737534 -13.304066
v -7.147287 -0.13272285 -14.027344
v -2.515902 0.23912144 -7.743123
v -1.9895107 0.8299656 -6.1230645
v -6.3507586 -0.40737534 -12.464069
v -9.253663 -0.13272285 -12.736567
v -3.6962147 0.23912144 -7.2542315
v -2.9228716 0.8299656 -5.7364593
v -8.22239 -0.40737534 -11.3171425
v -11.132143 -0.13272285 -11.132151
v -4.785527 0.23912144 -6.586711
v -3.7842722 0.8299656 -5.208603
v -9.891523 -0.40737534 -9.89153
v -12.736563 -0.13272285 -9.253668
v -5.7569814 0.23912144 -5.756986
v -4.552473 0.8299656 -4.5524774
v -11.317139 -0.40737534 -8.222395
v -14.027326 -0.13272285 -7.1472516
v -6.5867066 0.23912144 -4.7855315
v -5.208599 0.8299656 -3.7842765
v -12.464053 -0.40737534 -6.3507276
v -14.97269 -0.13272285 -4.864916
v -7.254225 0.23912144 -3.6961985
v -5.736455 0.8299656 -2.9228592
v -13.304061 -0.40737534 -4.3227463
v -15.549389 -0.13272285 -2.4627852
v -7.7431183 0.23912144 -2.5158894
v -6.1230597 0.8299656 -1.9895011
v -13.81649 -0.40737534 -2.1883209
v -15.743203 -0.13272285 8.6537665E-07
v -13.988705 -0.40737534 5.829413E-07
v -8.041358 0.23912144 -1.273629
v -6.3588996 0.8299656 -1.0071535
v -8.141589 0.23912144 -3.5831476E-07
v -6.4381604 0.8299656 -6.325291E-07
vt 0 0.24999996
vt -8.940697E-08 0.3
vt 0.098015666 0.29999995
vt 0.098015666 0.24999997
vt 8.940697E-08 0.050000012
vt 0.19842708 0.29999995
vt 0.098015666 0.050000012
vt 0 5.9604645E-08
vt 0.098015666 5.9604645E-08
vt 0.19842708 0.25000003
vt 0.29883748 0.29999995
vt 0.19842708 0.050000012
vt 0.19842708 5.9604645E-08
vt 0.29883748 0.25
vt 0.39924908 0.29999995
vt 0.29883748 0.050000012
vt 0.29883748 5.9604645E-08
vt 0.39924908 0.25000003
vt 0.49965984 0.3
vt 0.39924908 0.050000012
vt 0.39924908 5.9604645E-08
vt 0.49965984 0.25000006
vt 0.60007066 0.3
vt 0.49965984 0.050000027
vt 0.49965984 5.9604645E-08
vt 0.60007066 0.24999997
vt 0.7004834 0.3
vt 0.60007066 0.05000007
vt 0.60007066 5.9604645E-08
vt 0.7004834 0.24999999
vt 0.8008936 0.29999995
vt 0.7004834 0.05000007
vt 0.7004834 5.9604645E-08
vt 0.8008936 0.24999997
vt 0.9 0.29999995
vt 0.8008936 0.05000007
vt 0.8008936 5.9604645E-08
vt 0.9 0.24999997
vt 1.0017159 0.29999995
vt 1.0017159 0.24999996
vt 0.9 0.05000007
vt 0.9 5.9604645E-08
vt 1.0017159 0.05000007
vt 1.0017159 5.9604645E-08
vn 0.0022252395 -0.9995977 0.028275667
vn -0.012170156 -0.9878946 -0.15464823
vn -0.024193363 -0.98796797 -0.15275463
vn 0.0044231843 -0.99960023 0.027927259
vn 0.011339734 -0.989499 0.14409435
vn -0.047791056 -0.9879681 -0.14708896
vn 0.02254215 -0.9895627 0.142329
vn 0.025780547 -0.9444668 0.32759404
vn 0.05126262 -0.94478106 0.3236679
vn 0.008737611 -0.99960023 0.026891857
vn -0.07021235 -0.9879681 -0.13780187
vn 0.04452949 -0.9895627 0.13705036
vn 0.101263866 -0.94478106 0.3116639
vn 0.01283654 -0.99960023 0.025193328
vn -0.090906054 -0.9879681 -0.12512021
vn 0.06542038 -0.9895628 0.12839685
vn 0.14877139 -0.9447812 0.2919856
vn 0.016619569 -0.99960023 0.02287489
vn -0.10935981 -0.9879681 -0.1093594
vn 0.084701575 -0.9895628 0.11658086
vn 0.19261889 -0.9447815 0.26511502
vn 0.019994462 -0.9996001 0.01999495
vn -0.12512103 -0.9879681 -0.09090501
vn 0.10189651 -0.9895626 0.10189696
vn 0.23172039 -0.9447812 0.23172039
vn 0.022874428 -0.99960023 0.016619423
vn -0.1378021 -0.9879681 -0.07021178
vn 0.11658118 -0.9895628 0.084700964
vn 0.26511645 -0.94478124 0.19261757
vn 0.025194243 -0.99960023 0.0128368465
vn -0.14708883 -0.9879681 -0.047791526
vn 0.1283976 -0.9895627 0.065420054
vn 0.29198644 -0.94478106 0.14877035
vn 0.026891781 -0.99960023 0.0087378975
vn -0.15275416 -0.9879681 -0.02419368
vn 0.13705036 -0.9895627 0.044530325
vn 0.31166387 -0.94478095 0.101265095
vn 0.027927274 -0.99960023 0.004423312
vn -0.15464683 -0.98789483 -0.012170482
vn 0.02827581 -0.9995977 0.0022250558
vn 0.14232892 -0.9895627 0.022542566
vn 0.32366806 -0.94478095 0.051263362
vn 0.14409406 -0.989499 0.011339568
vn 0.32759377 -0.94446695 0.02578006
g roof_round_0
f 3/3/3 2/2/2 1/1/1
f 4/4/4 3/3/3 1/1/1
f 4/4/4 1/1/1 5/5/5
f 6/6/6 3/3/3 4/4/4
f 7/7/7 4/4/4 5/5/5
f 7/7/7 5/5/5 8/8/8
f 9/9/9 7/7/7 8/8/8
f 10/10/10 6/6/6 4/4/4
f 10/10/10 4/4/4 7/7/7
f 11/11/11 6/6/6 10/10/10
f 12/12/12 7/7/7 9/9/9
f 12/12/12 10/10/10 7/7/7
f 13/13/13 12/12/12 9/9/9
f 14/14/14 11/11/11 10/10/10
f 14/14/14 10/10/10 12/12/12
f 15/15/15 11/11/11 14/14/14
f 16/16/16 12/12/12 13/13/13
f 16/16/16 14/14/14 12/12/12
f 17/17/17 16/16/16 13/13/13
f 18/18/18 15/15/15 14/14/14
f 18/18/18 14/14/14 16/16/16
f 19/19/19 15/15/15 18/18/18
f 20/20/20 16/16/16 17/17/17
f 20/20/20 18/18/18 16/16/16
f 21/21/21 20/20/20 17/17/17
f 22/22/22 19/19/19 18/18/18
f 22/22/22 18/18/18 20/20/20
f 23/23/23 19/19/19 22/22/22
f 24/24/24 20/20/20 21/21/21
f 24/24/24 22/22/22 20/20/20
f 25/25/25 24/24/24 21/21/21
f 26/26/26 23/23/23 22/22/22
f 26/26/26 22/22/22 24/24/24
f 27/27/27 23/23/23 26/26/26
f 28/28/28 24/24/24 25/25/25
f 28/28/28 26/26/26 24/24/24
f 29/29/29 28/28/28 25/25/25
f 30/30/30 27/27/27 26/26/26
f 30/30/30 26/26/26 28/28/28
f 31/31/31 27/27/27 30/30/30
f 32/32/32 28/28/28 29/29/29
f 32/32/32 30/30/30 28/28/28
f 33/33/33 32/32/32 29/29/29
f 34/34/34 31/31/31 30/30/30
f 34/34/34 30/30/30 32/32/32
f 35/35/35 31/31/31 34/34/34
f 36/36/36 32/32/32 33/33/33
f 36/36/36 34/34/34 32/32/32
f 37/37/37 36/36/36 33/33/33
f 38/38/38 35/35/35 34/34/34
f 38/38/38 34/34/34 36/36/36
f 39/39/39 35/35/35 38/38/38
f 40/40/40 39/39/39 38/38/38
f 41/41/41 36/36/36 37/37/37
f 41/41/41 38/38/38 36/36/36
f 40/40/40 38/38/38 41/41/41
f 42/42/42 41/41/41 37/37/37
f 43/43/43 40/40/40 41/41/41
f 43/43/43 41/41/41 42/42/42
f 44/44/44 43/43/43 42/42/42
