g ruinBlock02
v 0.6233313 0.08742203 0.9067195
v 0.6233313 0.08742203 -0.9070375
v 0.50913876 4.7302246E-06 -0.9070375
v 0.50913876 2.593994E-05 0.9067195
v 0.6233313 2.2169669 0.9067195
v 0.6233313 0.08742203 -0.9070375
v 0.6233313 0.08742203 0.9067195
v 0.6233313 2.2169669 -0.9070375
v 0.50913876 2.2985039 0.9067195
v 0.50913876 2.30107 -0.9070375
v -0.53539 2.2977118 0.9067195
v -0.53539 2.300126 -0.9070375
v -0.61790586 2.2169669 0.9067195
v -0.6233795 2.2169669 -0.9070375
v -0.61262083 0.087422945 0.9067195
v -0.6233795 2.2169669 -0.9070375
v -0.61790586 2.2169669 0.9067195
v -0.6228259 0.08742203 -0.9070375
v -0.53539 0.00069992064 0.9067195
v -0.53539 1.6937256E-05 -0.9070375
v 0.50913876 2.593994E-05 0.9067195
v 0.50913876 4.7302246E-06 -0.9070375
v -0.53539 1.6937256E-05 -0.9070375
v -0.53539 0.00069992064 0.9067195
v 0.6233313 0.08742203 -0.9070375
v 0.50913876 2.2169669 -0.9999815
v 0.50913876 0.08742203 -0.9959434
v 0.6233313 2.2169669 -0.9070375
v 0.50913876 2.30107 -0.9070375
v -0.53539 2.300126 -0.9070375
v -0.53539 2.2169669 -0.99458647
v -0.6233795 2.2169669 -0.9070375
v 0.50913876 0.08742203 -0.9959434
v 0.50913876 4.7302246E-06 -0.9070375
v -0.53539 0.08742203 -0.99998045
v -0.53539 2.2169669 -0.99458647
v -0.53539 1.6937256E-05 -0.9070375
v -0.6228259 0.08742203 -0.9070375
v 0.50913876 2.593994E-05 0.9067195
v 0.5091406 0.087422945 0.99381256
v 0.6233313 0.08742203 0.9067195
v -0.53539 0.00069992064 0.9067195
v 0.6233313 2.2169669 0.9067195
v -0.53539 0.08742203 0.9927165
v -0.61262083 0.087422945 0.9067195
v -0.53539 2.2169669 0.9998405
v -0.53539 2.2169669 0.9998405
v 0.50913876 2.2169669 0.99998945
v 0.50913876 2.2985039 0.9067195
v -0.61790586 2.2169669 0.9067195
v -0.53539 2.2977118 0.9067195
vt 0.44435897 0.553006
vt 0.44458702 0.691467
vt 0.45556498 0.69144905
vt 0.45533597 0.552989
vt 0.281775 0.55328
vt 0.44458702 0.691467
vt 0.44435897 0.553006
vt 0.28201598 0.691739
vt 0.27106002 0.553298
vt 0.27118602 0.691759
vt 0.191247 0.553394
vt 0.191399 0.69184
vt 0.182425 0.553392
vt 0.182148 0.691847
vt 0.019728 0.55305296
vt 0.182148 0.691847
vt 0.182425 0.553392
vt 0.019444 0.69149303
vt 0.010862 0.552989
vt 0.01 0.691459
vt 0.79872996 0.304883
vt 0.93719006 0.304883
vt 0.93719006 0.225145
vt 0.79872996 0.225145
vt 0.90162003 0.486219
vt 0.888204 0.322574
vt 0.891051 0.483662
vt 0.89886504 0.319629
vt 0.8897731 0.31312
vt 0.808758 0.314554
vt 0.81062 0.323552
vt 0.80157995 0.321082
vt 0.891051 0.483662
vt 0.89235 0.493079
vt 0.81369597 0.48365802
vt 0.81062 0.323552
vt 0.81165403 0.493079
vt 0.804481 0.48646402
vt 0.78181404 0.744111
vt 0.791078 0.745592
vt 0.789062 0.735138
vt 0.78181404 0.82580304
vt 0.955229 0.737706
vt 0.790881 0.823905
vt 0.788476 0.83226794
vt 0.95081794 0.826234
vt 0.95081794 0.826234
vt 0.952488 0.74832404
vt 0.961827 0.746928
vt 0.953367 0.83515996
vt 0.95984197 0.82864904
vn 0.98867095 -0.1007445 0.11126642
vn 0.9888809 -0.101406686 -0.108771995
vn 0.07335702 -0.99375594 -0.08407142
vn 0.07294894 -0.9936592 0.085556194
vn 0.98970884 0.08778396 0.11300592
vn 0.9934829 -8.101817E-05 -0.11398132
vn 0.98867095 -0.1007445 0.11126642
vn 0.98995566 0.088825405 -0.1099903
vn 0.06891363 0.99425876 0.08185578
vn 0.07006208 0.99407333 -0.083123244
vn -0.06940645 0.99422246 0.08188006
vn -0.07192529 0.9941386 -0.08071749
vn -0.99403906 0.0680937 0.085144565
vn -0.99399203 0.069306165 -0.08471345
vn -0.9935294 -0.07776797 0.08277327
vn -0.9960775 -8.573055E-06 -0.088484965
vn -0.99403906 0.0680937 0.085144565
vn -0.99322814 -0.07894453 -0.08523795
vn -0.07280128 -0.9936883 0.08534444
vn -0.074395634 -0.9935197 -0.085929595
vn 0.07294894 -0.9936592 0.085556194
vn 0.07335702 -0.99375594 -0.08407142
vn -0.074395634 -0.9935197 -0.085929595
vn -0.078377865 -0.9969236 0.0004162632
vn 0.9888809 -0.101406686 -0.108771995
vn 0.0758259 0.07427738 -0.9943507
vn 0.07895086 0.00019224724 -0.9968785
vn 0.98995566 0.088825405 -0.1099903
vn 0.07006208 0.99407333 -0.083123244
vn -0.07192529 0.9941386 -0.08071749
vn -0.07898289 0.072539166 -0.9942333
vn -0.99399203 0.069306165 -0.08471345
vn 0.07754798 -0.0829318 -0.9935334
vn 0.07335702 -0.99375594 -0.08407142
vn -0.07743152 -0.08440804 -0.9934182
vn -0.081554934 0.00038121134 -0.99666876
vn -0.074395634 -0.9935197 -0.085929595
vn -0.99322814 -0.07894453 -0.08523795
vn 0.07294894 -0.9936592 0.085556194
vn 0.07541319 -0.07887185 0.9940282
vn 0.98867095 -0.1007445 0.11126642
vn -0.07280128 -0.9936883 0.08534444
vn 0.98970884 0.08778396 0.11300592
vn -0.06991841 -0.079275735 0.99439776
vn -0.9935294 -0.07776797 0.08277327
vn -0.078544855 -0.0031042334 0.99690574
vn -0.074962944 0.06944603 0.99476516
vn 0.07949672 0.06900644 0.9944437
vn 0.06891363 0.99425876 0.08185578
vn -0.99403906 0.0680937 0.085144565
vn -0.06940645 0.99422246 0.08188006
g ruinBlock02_0
f 3/3/3 2/2/2 1/1/1
f 4/4/4 3/3/3 1/1/1
f 7/7/7 6/6/6 5/5/5
f 6/6/6 8/8/8 5/5/5
f 5/5/5 8/8/8 9/9/9
f 8/8/8 10/10/10 9/9/9
f 9/9/9 10/10/10 11/11/11
f 10/10/10 12/12/12 11/11/11
f 11/11/11 12/12/12 13/13/13
f 12/12/12 14/14/14 13/13/13
f 17/17/17 16/16/16 15/15/15
f 16/16/16 18/18/18 15/15/15
f 15/15/15 18/18/18 19/19/19
f 18/18/18 20/20/20 19/19/19
f 23/23/23 22/22/22 21/21/21
f 24/24/24 23/23/23 21/21/21
f 27/27/27 26/26/26 25/25/25
f 26/26/26 28/28/28 25/25/25
f 28/28/28 26/26/26 29/29/29
f 29/29/29 26/26/26 30/30/30
f 26/26/26 31/31/31 30/30/30
f 30/30/30 31/31/31 32/32/32
f 31/31/31 26/26/26 33/33/33
f 34/34/34 33/33/33 25/25/25
f 35/35/35 31/31/31 33/33/33
f 35/35/35 33/33/33 34/34/34
f 36/36/36 35/35/35 32/32/32
f 37/37/37 35/35/35 34/34/34
f 35/35/35 38/38/38 32/32/32
f 38/38/38 35/35/35 37/37/37
f 41/41/41 40/40/40 39/39/39
f 39/39/39 40/40/40 42/42/42
f 41/41/41 43/43/43 40/40/40
f 40/40/40 44/44/44 42/42/42
f 42/42/42 44/44/44 45/45/45
f 44/44/44 40/40/40 46/46/46
f 45/45/45 44/44/44 47/47/47
f 40/40/40 48/48/48 46/46/46
f 43/43/43 48/48/48 40/40/40
f 49/49/49 48/48/48 43/43/43
f 47/47/47 48/48/48 49/49/49
f 50/50/50 45/45/45 47/47/47
f 51/51/51 47/47/47 49/49/49
f 50/50/50 47/47/47 51/51/51
