g ruinPillar02_COL
v -1.7409681 0 -2.0105035
v -1.7409681 0 2.0105035
v 1.7409681 0 2.0105035
v 1.7409681 0 -2.0105035
v -1.7323315 0.7969882 -1.9792492
v 1.7293258 0.7969882 -1.9792492
v -1.3894702 1.8052949 -1.306181
v 1.2839733 1.8052949 -1.306181
v -1.2840831 3.9697127 -1.12985
v 1.1091938 3.7529876 -1.3802311
v -0.8813641 4.616836 -0.5038247
v 1.0043117 4.22816 -1.1361896
v 0.115327775 4.3844767 0.029537415
v 1.7409681 0 2.0105035
v 1.7293258 0.7969882 -1.9792492
v 1.7409681 0 -2.0105035
v 1.7293258 0.796987 1.9870989
v -1.7409681 0 2.0105035
v 1.2839733 1.8052949 -1.306181
v -1.7323315 0.796987 1.9870989
v -1.7409681 0 -2.0105035
v -1.7323315 0.7969882 -1.9792492
v 1.2839737 1.8052943 1.4547963
v 1.1091938 3.7529876 -1.3802311
v -1.3894702 1.8052943 1.4547963
v -1.3894702 1.8052949 -1.306181
v 1.1837186 3.080634 1.0871786
v 1.0043117 4.22816 -1.1361896
v -1.2840831 3.9697127 1.186614
v -1.2840831 3.9697127 -1.12985
v 0.8281221 3.839785 0.7350241
v 0.115327775 4.3844767 0.029537415
v -1.0035604 4.228461 1.0869141
v -0.8813641 4.616836 -0.5038247
v 0.115327775 4.3844767 0.029537415
vt 0.375 0.75
vt 0.375 1
vt 0.625 1
vt 0.625 0.75
vt 0.375 0.733531
vt 0.625 0.733531
vt 0.375 0.71145767
vt 0.625 0.71145767
vt 0.375 0.67853737
vt 0.625 0.67853737
vt 0.375 0.6566222
vt 0.625 0.6566222
vt 0.5 0.5407312
vt 0.625 0
vt 0.875 0.016469002
vt 0.875 0
vt 0.625 0.016468976
vt 0.375 0
vt 0.875 0.038542345
vt 0.37500003 0.016468976
vt 0.125 0
vt 0.125 0.016469002
vt 0.625 0.03854233
vt 0.875 0.07146259
vt 0.37500003 0.03854233
vt 0.125 0.038542345
vt 0.625 0.07146259
vt 0.875 0.093377806
vt 0.37500003 0.07146259
vt 0.125 0.07146259
vt 0.625 0.0933778
vt 0.875 0.20926882
vt 0.37500003 0.0933778
vt 0.125 0.093377806
vt 0.375 0.20926881
vn -0.21453549 -0.9580666 -0.18995482
vn -0.21546645 -0.95793575 0.18956089
vn 0.21565048 -0.95795304 0.18926422
vn 0.21471722 -0.9580851 -0.18965632
vn -0.67579484 0.32148683 -0.66328555
vn 0.6818578 0.34082624 -0.64723045
vn -0.71935916 0.31231266 -0.62047017
vn 0.6489231 0.3803061 -0.65898865
vn -0.72845876 0.17580557 -0.6621481
vn 0.5139119 0.2069505 -0.8325059
vn -0.35285833 0.8775236 -0.32472023
vn 0.48904186 0.76444167 -0.42007977
vn 0.26605228 0.93716764 0.22568329
vn 0.21565048 -0.95795304 0.18926422
vn 0.6818578 0.34082624 -0.64723045
vn 0.21471722 -0.9580851 -0.18965632
vn 0.7046027 0.3041241 0.64112675
vn -0.21546645 -0.95793575 0.18956089
vn 0.6489231 0.3803061 -0.65898865
vn -0.69888586 0.28028014 0.65802854
vn -0.21453549 -0.9580666 -0.18995482
vn -0.67579484 0.32148683 -0.66328555
vn 0.6447009 0.40503094 0.6483138
vn 0.5139119 0.2069505 -0.8325059
vn -0.71143866 0.3441885 0.6126902
vn -0.71935916 0.31231266 -0.62047017
vn 0.7195441 0.2195515 0.6588272
vn 0.48904186 0.76444167 -0.42007977
vn -0.7992764 0.23592566 0.55271715
vn -0.72845876 0.17580557 -0.6621481
vn 0.6414666 0.57551074 0.50725526
vn 0.26605228 0.93716764 0.22568329
vn -0.23950464 0.76274616 0.60071284
vn -0.35285833 0.8775236 -0.32472023
vn 0.26605228 0.93716764 0.22568329
g ruinPillar02_COL_0
f 3/3/3 2/2/2 1/1/1
f 4/4/4 3/3/3 1/1/1
f 4/4/4 1/1/1 5/5/5
f 6/6/6 4/4/4 5/5/5
f 6/6/6 5/5/5 7/7/7
f 8/8/8 6/6/6 7/7/7
f 8/8/8 7/7/7 9/9/9
f 10/10/10 8/8/8 9/9/9
f 10/10/10 9/9/9 11/11/11
f 12/12/12 10/10/10 11/11/11
f 12/12/12 11/11/11 13/13/13
f 16/16/16 15/15/15 14/14/14
f 15/15/15 17/17/17 14/14/14
f 14/14/14 17/17/17 18/18/18
f 15/15/15 19/19/19 17/17/17
f 17/17/17 20/20/20 18/18/18
f 18/18/18 20/20/20 21/21/21
f 20/20/20 22/22/22 21/21/21
f 19/19/19 23/23/23 17/17/17
f 17/17/17 23/23/23 20/20/20
f 19/19/19 24/24/24 23/23/23
f 20/20/20 25/25/25 22/22/22
f 23/23/23 25/25/25 20/20/20
f 25/25/25 26/26/26 22/22/22
f 24/24/24 27/27/27 23/23/23
f 23/23/23 27/27/27 25/25/25
f 24/24/24 28/28/28 27/27/27
f 25/25/25 29/29/29 26/26/26
f 27/27/27 29/29/29 25/25/25
f 29/29/29 30/30/30 26/26/26
f 28/28/28 31/31/31 27/27/27
f 27/27/27 31/31/31 29/29/29
f 28/28/28 32/32/32 31/31/31
f 29/29/29 33/33/33 30/30/30
f 31/31/31 33/33/33 29/29/29
f 33/33/33 34/34/34 30/30/30
f 31/31/31 35/35/35 33/33/33
f 33/33/33 35/35/35 34/34/34
