g ruinPillar02_LOD1
v -0.27090183 0.063437745 -0.0039004993
v -0.36172542 0.06826711 -1.8691105
v -1.6331358 0.08811976 -1.8740002
v -1.6435971 0.07668393 0.023538336
v -0.36323696 0.7038487 -1.8768945
v -1.6331344 0.69485015 -1.8739996
v -1.6331358 0.08811976 -1.8740002
v -0.36172542 0.06826711 -1.8691105
v -0.36323696 0.7038487 -1.8768945
v -0.27001134 0.70044696 -0.004122486
v -1.6353855 0.68793297 0.025376815
v -1.6331344 0.69485015 -1.8739996
v -1.6353855 0.68793297 0.025376815
v -1.6435971 0.07668393 0.023538336
v -1.6331358 0.08811976 -1.8740002
v -1.6331344 0.69485015 -1.8739996
v 1.5563279 0.04841207 -1.8722363
v -0.36172542 0.06826711 -1.8691105
v -0.27090183 0.063437745 -0.0039004993
v 1.560694 0.066931814 0.020130144
v -0.36172542 0.06826711 -1.8691105
v 1.5563279 0.04841207 -1.8722363
v 1.5568783 0.7132681 -1.8748586
v -0.36323696 0.7038487 -1.8768945
v 1.5568783 0.7132681 -1.8748586
v 1.5703449 0.70218885 0.011884334
v -0.27001134 0.70044696 -0.004122486
v -0.36323696 0.7038487 -1.8768945
v 1.5563279 0.04841207 -1.8722363
v 1.560694 0.066931814 0.020130144
v 1.5703449 0.70218885 0.011884334
v 1.5568783 0.7132681 -1.8748586
v -0.27001134 0.70044696 -0.004122486
v 1.5703449 0.70218885 0.011884334
v 1.5893338 0.6975561 1.9433354
v -0 0.7107103 1.9573386
v -0.27001134 0.70044696 -0.004122486
v -1.6541194 0.697534 1.9317465
v -1.6353855 0.68793297 0.025376815
v -0 0.04892334 1.957368
v 1.5670433 0.08972605 1.9230673
v 1.560694 0.066931814 0.020130144
v -0.27090183 0.063437745 -0.0039004993
v 1.5670433 0.08972605 1.9230673
v -0 0.7107103 1.9573386
v 1.5893338 0.6975561 1.9433354
v -0 0.04892334 1.957368
v -1.6541194 0.697534 1.9317465
v -1.6541988 0.0662207 1.9433511
v -0 0.04892334 1.957368
v -0.27090183 0.063437745 -0.0039004993
v -1.6435971 0.07668393 0.023538336
v -1.6541988 0.0662207 1.9433511
v -1.6541988 0.0662207 1.9433511
v -1.6435971 0.07668393 0.023538336
v -1.6353855 0.68793297 0.025376815
v -1.6541194 0.697534 1.9317465
v 1.560694 0.066931814 0.020130144
v 1.5670433 0.08972605 1.9230673
v 1.5893338 0.6975561 1.9433354
v 1.5703449 0.70218885 0.011884334
v 1.2071627 0.80530477 1.3660467
v 1.1960725 0.8053052 -1.2412466
v -1.3434056 0.8053056 -1.2397988
v -1.3367685 0.80531293 1.3586706
v 1.1960725 0.8053052 -1.2412466
v 1.2071627 0.80530477 1.3660467
v 1.2107921 1.7593583 1.3668084
v 1.2176175 1.7587553 -1.2454302
v 1.2107921 1.7593583 1.3668084
v -1.3317876 1.7495346 1.3590689
v -1.3439584 1.7465603 -1.2311586
v 1.2176175 1.7587553 -1.2454302
v -1.3439584 1.7465603 -1.2311586
v -1.3317876 1.7495346 1.3590689
v -1.3367685 0.80531293 1.3586706
v -1.3434056 0.8053056 -1.2397988
v -1.3434056 0.8053056 -1.2397988
v 1.1960725 0.8053052 -1.2412466
v 1.2176175 1.7587553 -1.2454302
v -1.3439584 1.7465603 -1.2311586
v 1.2071627 0.80530477 1.3660467
v -1.3367685 0.80531293 1.3586706
v -1.3317876 1.7495346 1.3590689
v 1.2107921 1.7593583 1.3668084
v -0.32187966 4.05061 1.1245831
v -0.32192728 4.0514646 -1.0732822
v -0.2001311 1.8681406 -1.0719362
v -0.20013091 1.868148 1.1225241
v -1.3130449 3.9950542 1.1245334
v -1.3149114 3.9957561 -1.071484
v -0.32192728 4.0514646 -1.0732822
v -0.32187966 4.05061 1.1245831
v -1.189565 1.8131775 1.1221588
v -1.1929486 1.8127606 -1.073282
v -1.3149114 3.9957561 -1.071484
v -1.3130449 3.9950542 1.1245334
v -0.20013091 1.868148 1.1225241
v -0.2001311 1.8681406 -1.0719362
v -1.1929486 1.8127606 -1.073282
v -1.189565 1.8131775 1.1221588
v -1.3130449 3.9950542 1.1245334
v -0.32187966 4.05061 1.1245831
v -0.20013091 1.868148 1.1225241
v -1.189565 1.8131775 1.1221588
v -0.2001311 1.8681406 -1.0719362
v -0.32192728 4.0514646 -1.0732822
v -1.3149114 3.9957561 -1.071484
v -1.1929486 1.8127606 -1.073282
v 1.1097732 1.8333874 -1.1963166
v 1.0547221 3.7830734 -1.4170456
v 0.22495115 3.6650548 -1.3720545
v 0.28063625 1.8135363 -1.1647763
v 1.0837829 3.7664766 -0.54689145
v 0.25401297 3.648457 -0.50189817
v 0.22495115 3.6650548 -1.3720545
v 1.0547221 3.7830734 -1.4170456
v 1.0837829 3.7664766 -0.54689145
v 1.1371353 1.9342197 -0.3347026
v 0.31052357 1.9170556 -0.303367
v 0.25401297 3.648457 -0.50189817
v 1.1097732 1.8333874 -1.1963166
v 0.28063625 1.8135363 -1.1647763
v 0.31052357 1.9170556 -0.303367
v 1.1371353 1.9342197 -0.3347026
v 1.0837829 3.7664766 -0.54689145
v 1.0547221 3.7830734 -1.4170456
v 1.1097732 1.8333874 -1.1963166
v 1.1371353 1.9342197 -0.3347026
v 0.31052357 1.9170556 -0.303367
v 0.28063625 1.8135363 -1.1647763
v 0.22495115 3.6650548 -1.3720545
v 0.25401297 3.648457 -0.50189817
v 0.018429238 1.8992867 -0.04048811
v 0.019143876 1.8992643 1.160103
v 1.1562566 1.8697903 1.1182275
v 1.2047393 1.8674921 -0.0394383
v 0.018429238 1.8992867 -0.04048811
v 0.052387297 2.9863255 -0.040488727
v 0.048181314 2.9864557 1.160103
v 0.019143876 1.8992643 1.160103
v 0.052387297 2.9863255 -0.040488727
v 1.2470691 2.9496472 -0.038778167
v 1.1360216 2.8027306 1.0811425
v 0.048181314 2.9864557 1.160103
v 1.2470691 2.9496472 -0.038778167
v 1.2047393 1.8674921 -0.0394383
v 1.1562566 1.8697903 1.1182275
v 1.1360216 2.8027306 1.0811425
v 0.019143876 1.8992643 1.160103
v 0.048181314 2.9864557 1.160103
v 1.1360216 2.8027306 1.0811425
v 1.1562566 1.8697903 1.1182275
v 1.2470691 2.9496472 -0.038778167
v 0.052387297 2.9863255 -0.040488727
v 0.018429238 1.8992867 -0.04048811
v 1.2047393 1.8674921 -0.0394383
v -0.7997271 4.061381 -0.6621974
v 0.17208198 4.401913 -0.0029444462
v -0.6761701 4.042353 0.7559283
v -0.967298 1.8024023 -0.90001
v -0.967298 1.8024014 0.90001
v -0.967298 1.8024014 0.90001
v 0.8103324 3.5551083 0.6977591
v 0.967298 1.8024014 0.90001
v -0.6761701 4.042353 0.7559283
v 0.17208198 4.401913 -0.0029444462
v 0.746948 3.8154037 -0.90791607
v 0.967298 1.8024014 0.90001
v 0.967298 1.8024023 -0.90001
v -0.7997271 4.061381 -0.6621974
v 0.967298 1.8024023 -0.90001
v -0.967298 1.8024023 -0.90001
vt 0.14660601 0.063559994
vt 0.01 0.063559994
vt 0.01 0.142062
vt 0.14660601 0.142062
vt 0.59029996 0.75837094
vt 0.50326604 0.7582407
vt 0.50588065 0.838466
vt 0.593041 0.83849096
vt 0.63592196 0.7561915
vt 0.7725135 0.75570905
vt 0.772662 0.665783
vt 0.636037 0.66523254
vt 0.772662 0.665783
vt 0.773231 0.58207846
vt 0.63662994 0.5811305
vt 0.636037 0.66523254
vt 0.617347 0.41272599
vt 0.617347 0.272932
vt 0.48154598 0.272932
vt 0.48154598 0.41272599
vt 0.39830068 0.24414432
vt 0.397007 0.096722
vt 0.34445634 0.096967995
vt 0.345929 0.24385567
vt 0.263941 0.2590425
vt 0.2651795 0.3948295
vt 0.4115595 0.39461648
vt 0.412948 0.258884
vt 0.208583 0.2599355
vt 0.211306 0.3957195
vt 0.2651795 0.3948295
vt 0.263941 0.2590425
vt 0.198049 0.542973
vt 0.32162148 0.543548
vt 0.322198 0.4036345
vt 0.198673 0.403212
vt 0.198049 0.542973
vt 0.0699725 0.402632
vt 0.071412 0.5423565
vt 0.010296 0.27414
vt 0.01 0.393695
vt 0.15017399 0.393695
vt 0.150089 0.274221
vt 0.88763994 0.512213
vt 0.768659 0.56006145
vt 0.8903327 0.5572767
vt 0.7686745 0.50593746
vt 0.64140934 0.55762905
vt 0.6423393 0.508915
vt 0.010296 0.27414
vt 0.150089 0.274221
vt 0.150163 0.150596
vt 0.010368 0.150514
vt 0.0153904995 0.4038185
vt 0.018966 0.54369247
vt 0.071412 0.5423565
vt 0.0699725 0.402632
vt 0.3720595 0.5437445
vt 0.372039 0.403768
vt 0.322198 0.4036345
vt 0.32162148 0.543548
vt 0.617347 0.41272599
vt 0.617347 0.272932
vt 0.48154598 0.272932
vt 0.48154598 0.41272599
vt 0.39830068 0.24414432
vt 0.397007 0.096722
vt 0.34445634 0.096967995
vt 0.345929 0.24385567
vt 0.263941 0.2590425
vt 0.2651795 0.3948295
vt 0.4115595 0.39461648
vt 0.412948 0.258884
vt 0.29315633 0.06598433
vt 0.43690467 0.074043
vt 0.439881 0.023102665
vt 0.294412 0.014758666
vt 0.46594852 0.3957415
vt 0.46870553 0.259915
vt 0.412948 0.258884
vt 0.4115595 0.39461648
vt 0.208583 0.2599355
vt 0.211306 0.3957195
vt 0.2651795 0.3948295
vt 0.263941 0.2590425
vt 0.2764175 0.553289
vt 0.27660102 0.691749
vt 0.45007598 0.691458
vt 0.44984746 0.55299747
vt 0.186836 0.553393
vt 0.1867735 0.6918435
vt 0.27660102 0.691749
vt 0.2764175 0.553289
vt 0.015295 0.55302095
vt 0.014722 0.691476
vt 0.1867735 0.6918435
vt 0.186836 0.553393
vt 0.79872996 0.304883
vt 0.93719006 0.304883
vt 0.93719006 0.225145
vt 0.79872996 0.225145
vt 0.9546757 0.8300143
vt 0.95651466 0.7443194
vt 0.78731805 0.7416137
vt 0.787057 0.82732534
vt 0.8950071 0.48765334
vt 0.89228076 0.318441
vt 0.80698603 0.31972933
vt 0.8099437 0.4877337
vt 0.14660601 0.063559994
vt 0.01 0.063559994
vt 0.01 0.142062
vt 0.14660601 0.142062
vt 0.59029996 0.75837094
vt 0.50326604 0.7582407
vt 0.50588065 0.838466
vt 0.593041 0.83849096
vt 0.63592196 0.7561915
vt 0.7725135 0.75570905
vt 0.772662 0.665783
vt 0.636037 0.66523254
vt 0.8996423 0.121165335
vt 0.899734 0.20893331
vt 0.98009235 0.20573433
vt 0.9796357 0.118824996
vt 0.63592196 0.7561915
vt 0.63662 0.8397895
vt 0.77322197 0.83860946
vt 0.7725135 0.75570905
vt 0.772662 0.665783
vt 0.773231 0.58207846
vt 0.63662994 0.5811305
vt 0.636037 0.66523254
vt 0.925849 0.847146
vt 0.781815 0.847196
vt 0.78181404 0.98999196
vt 0.925867 0.989967
vt 0.45356536 0.23842268
vt 0.604024 0.24546532
vt 0.6120296 0.094881326
vt 0.460965 0.087401666
vt 0.1699315 0.701836
vt 0.1711005 0.84461504
vt 0.3246725 0.84372604
vt 0.325504 0.7009965
vt 0.16457966 0.23876567
vt 0.31452534 0.24501334
vt 0.32097268 0.09541366
vt 0.17144768 0.090215325
vt 0.4821385 0.70335746
vt 0.325504 0.7009965
vt 0.3246725 0.84372604
vt 0.47937 0.8460845
vt 0.1711005 0.84461504
vt 0.1699315 0.701836
vt 0.0150065 0.703377
vt 0.0172595 0.84615296
vt -0.37910163 0.11135245
vt -0.29679087 0.17206526
vt -0.11436686 0.108058974
vt -0.38581625 -0.17712012
vt -0.12192943 -0.18151832
vt -0.12192943 -0.18151832
vt 0.15207478 0.10755442
vt 0.15688455 -0.18193737
vt -0.11436686 0.108058974
vt 0.28420052 0.17114927
vt 0.41748035 0.10916081
vt 0.15688455 -0.18193737
vt 0.41914457 -0.17991987
vt 0.6630442 0.11342363
vt 0.41914457 -0.17991987
vt 0.6791296 -0.17375347
vn 0.09835532 -0.98726743 0.12501739
vn 0.0984419 -0.98702246 -0.12687016
vn -0.09777904 -0.98711085 -0.12669444
vn -0.10240765 -0.9947425 -1.281379E-06
vn 0.07640097 0.09303201 -0.9927275
vn -0.075863786 0.0929671 -0.99277484
vn -0.07582502 -0.092161044 -0.99285287
vn 0.07635839 -0.09221992 -0.99280655
vn 0.089447856 0.9897133 -0.11165402
vn 0.08003587 0.99035954 0.11305835
vn -0.08357456 0.9904744 0.10943362
vn -0.090131186 0.99589807 0.007967059
vn -0.98589313 0.11688967 0.11979812
vn -0.9855789 -0.115124546 0.1240178
vn -0.99278533 -0.119905844 -1.0042623E-06
vn -0.98528266 0.11901606 -0.12269159
vn 0.071657225 -0.9974292 0.0003336123
vn -0.0005997808 -0.9965173 -0.08338334
vn -0.07415336 -0.99494874 0.06766254
vn 0.06597934 -0.9956666 0.065532595
vn -0.115965225 -0.16486584 -0.979475
vn 0.113468 -0.1602919 -0.98052615
vn 0.116747566 0.15204582 -0.98145413
vn -0.0017937827 0.16027969 -0.9870701
vn 0.073099665 0.994911 -0.06934323
vn 0.065957844 0.99608034 0.058936566
vn 0.0013215337 0.99690634 0.07858703
vn -0.0851236 0.9963315 0.008801617
vn 0.9909759 -0.1102929 -0.07617284
vn 0.9926641 -0.09471424 0.07514847
vn 0.99341774 0.08940094 0.07161568
vn 0.9941478 0.1076245 0.009334291
vn -0.00019326096 1 5.8983453E-05
vn 0.0007784113 0.99717087 -0.075164035
vn 0.08502491 0.9963787 0.00034869157
vn -0.00027352918 0.9972264 0.07442621
vn -0.00014028298 0.9971349 -0.07564333
vn -0.0033784516 0.9969632 0.07780027
vn -0.08612178 0.9962309 -0.010348071
vn -0.0001599602 -1 -2.768697E-05
vn 0.025135666 -0.99321574 0.11353711
vn 0.14719342 -0.98910064 0.0037360024
vn -0.00014622569 -0.9951148 -0.098724484
vn 0.06420927 -0.08930716 0.9939323
vn -0.0006388328 0.12714697 0.99188364
vn 0.12136802 0.07156507 0.9900243
vn -0.0005403773 -0.12355436 0.99233764
vn -0.08140842 0.11599972 0.9899074
vn -0.009402814 -0.11013068 0.99387264
vn -0.00015121796 -0.99525464 0.09730426
vn -0.00014622569 -0.9951148 -0.098724484
vn -7.466305E-05 -0.9951308 -0.09856329
vn -0.09862889 -0.99079263 0.09274857
vn -0.9838164 -0.14558265 0.104455724
vn -0.98768336 -0.10992927 -0.11134216
vn -0.98757124 0.13144796 -0.08616492
vn -0.9833196 0.15757214 0.09084924
vn 0.9939698 -0.09155367 -0.060348224
vn 0.9948289 -0.08538297 0.055001102
vn 0.9930021 0.06444155 0.09896467
vn 0.99268335 0.07388779 -0.095500134
vn -0.00034583738 -0.9972371 0.07428306
vn 0.086432986 -0.99625754 -0.0006217172
vn -0.070129015 -0.9945728 -0.076856434
vn -0.06792506 -0.99534374 0.06838811
vn 0.98040557 -0.1591584 -0.11607539
vn 0.98140657 -0.15473476 0.113569885
vn 0.98224694 0.14676133 0.11684187
vn 0.9879562 0.15472294 -0.0017953931
vn 0.07187075 0.9945322 0.075764105
vn -0.0610901 0.99578804 0.06836794
vn -0.08146363 0.9966754 0.0013699072
vn -0.009123398 0.99605787 -0.08823566
vn -0.98927796 0.113651715 -0.09171976
vn -0.99149996 0.097046226 0.08665918
vn -0.9910154 -0.10008203 0.088725336
vn -0.9925761 -0.121189356 0.01028322
vn -0.08092313 -0.09969322 -0.99172205
vn 0.075428076 -0.123505965 -0.98947304
vn 0.097749904 0.10466429 -0.98969203
vn -0.07934228 0.09114289 -0.9926721
vn 0.07620521 -0.10641884 0.99139696
vn -0.07517201 -0.0913772 0.992975
vn -0.07163566 0.08624813 0.99369484
vn -0.009338067 0.10384207 0.99454993
vn 0.98970884 0.08778396 0.11300592
vn 0.98995566 0.088825405 -0.1099903
vn 0.9934829 -8.101817E-05 -0.11398132
vn 0.98867095 -0.1007445 0.11126642
vn -0.06940645 0.99422246 0.08188006
vn -0.07192529 0.9941386 -0.08071749
vn 0.07006208 0.99407333 -0.083123244
vn 0.06891363 0.99425876 0.08185578
vn -0.9935294 -0.07776797 0.08277327
vn -0.99322814 -0.07894453 -0.08523795
vn -0.9960775 -8.573055E-06 -0.088484965
vn -0.99403906 0.0680937 0.085144565
vn 0.07294894 -0.9936592 0.085556194
vn 0.07335702 -0.99375594 -0.08407142
vn -0.074395634 -0.9935197 -0.085929595
vn -0.078377865 -0.9969236 0.0004162632
vn -0.078544855 -0.0031042334 0.99690574
vn 0.07949672 0.06900644 0.9944437
vn 0.07541319 -0.07887185 0.9940282
vn -0.06991841 -0.079275735 0.99439776
vn 0.07754798 -0.0829318 -0.9935334
vn 0.0758259 0.07427738 -0.9943507
vn -0.07898289 0.072539166 -0.9942333
vn -0.07743152 -0.08440804 -0.9934182
vn 0.11307043 -0.06819562 -0.99124396
vn 0.10651561 0.12177745 -0.98682564
vn -0.1264096 0.11343773 -0.98547065
vn -0.12813425 0.017791184 -0.99159724
vn 0.08554046 0.9858964 0.14384384
vn -0.15211047 0.97763056 0.14526138
vn -0.15378375 0.9831871 -0.09845712
vn 0.08375355 0.991454 -0.10002135
vn 0.11017578 0.06589854 0.9917251
vn 0.105002046 -0.103960864 0.9890231
vn -0.08927404 -0.108044185 0.99012953
vn -0.09942323 -0.03184651 0.99453557
vn 0.16030724 -0.9762329 -0.14584562
vn -0.09415142 -0.9851007 -0.14391729
vn -0.08901695 -0.9897906 0.11131238
vn 0.1548561 -0.98147756 0.11278895
vn 0.99563944 0.030636197 0.08811078
vn 0.99022955 0.10595334 -0.09065981
vn 0.99549675 -0.03275317 -0.08895804
vn 0.99614394 -0.033639204 0.08102853
vn -0.9880925 -0.11370366 0.10365685
vn -0.98932016 -0.112041965 -0.0932317
vn -0.9949334 -0.032795835 -0.095036305
vn -0.99318933 0.041234724 0.1089706
vn 0.0066298945 -0.9963033 -0.085648425
vn -0.080223255 -0.9967769 0.00010025978
vn 0.07727947 -0.9947054 0.06774313
vn 0.0668526 -0.9947877 -0.07699524
vn -0.98599875 -0.115733 -0.12005145
vn -0.986844 0.10915785 -0.1192622
vn -0.993618 0.11266867 -0.0053921617
vn -0.9939896 -0.005290034 0.10934666
vn -0.094716094 0.9905261 -0.09943317
vn 0.094068065 0.9907566 -0.09773729
vn 0.09609875 0.99534214 0.007685601
vn 0.00830802 0.995307 0.09640954
vn 0.9923677 0.078087606 -0.09544022
vn 0.99339396 -0.07179559 -0.08951981
vn 0.995667 -0.09209158 -0.012896379
vn 0.9961152 1.853417E-05 0.08805901
vn -0.10760047 -0.108404785 0.9882664
vn -0.11090312 0.10216252 0.98856634
vn 0.10207316 0.09444003 0.9902839
vn 0.10180898 -0.105316594 0.9892135
vn 0.08293539 0.0001065721 -0.996555
vn 0.0044990205 0.08001628 -0.9967834
vn -0.0853378 0.00022512054 -0.9963521
vn 0.079171374 -0.074424475 -0.9940789
vn -0.7453589 0.23088326 -0.6254063
vn 0.26014897 0.96300364 0.07033196
vn -0.70646644 0.2569526 0.65945476
vn -0.9941759 0.10055585 0.038764782
vn -0.9941759 0.10055586 0.03876479
vn 0.029098205 0.08541073 0.9959208
vn 0.6731553 0.20254716 0.7112219
vn 0.029098205 0.085410744 0.9959208
vn -0.70646644 0.2569526 0.65945476
vn 0.26014897 0.96300364 0.07033196
vn 0.5280011 0.2058115 -0.82392746
vn 0.9950185 0.0990878 -0.010945327
vn 0.9950185 0.09908779 -0.010945326
vn -0.7453589 0.23088326 -0.6254063
vn -0.066597 0.052799813 -0.9963819
vn -0.066597 0.052799817 -0.9963819
g ruinPillar02_LOD1_0
f 3/3/3 2/2/2 1/1/1
f 4/4/4 3/3/3 1/1/1
f 7/7/7 6/6/6 5/5/5
f 8/8/8 7/7/7 5/5/5
f 11/11/11 10/10/10 9/9/9
f 12/12/12 11/11/11 9/9/9
f 15/15/15 14/14/14 13/13/13
f 16/16/16 15/15/15 13/13/13
f 19/19/19 18/18/18 17/17/17
f 20/20/20 19/19/19 17/17/17
f 23/23/23 22/22/22 21/21/21
f 24/24/24 23/23/23 21/21/21
f 27/27/27 26/26/26 25/25/25
f 28/28/28 27/27/27 25/25/25
f 31/31/31 30/30/30 29/29/29
f 32/32/32 31/31/31 29/29/29
f 35/35/35 34/34/34 33/33/33
f 36/36/36 35/35/35 33/33/33
f 38/38/38 36/36/36 37/37/37
f 39/39/39 38/38/38 37/37/37
f 42/42/42 41/41/41 40/40/40
f 43/43/43 42/42/42 40/40/40
f 46/46/46 45/45/45 44/44/44
f 45/45/45 47/47/47 44/44/44
f 47/47/47 45/45/45 48/48/48
f 49/49/49 47/47/47 48/48/48
f 52/52/52 51/51/51 50/50/50
f 53/53/53 52/52/52 50/50/50
f 56/56/56 55/55/55 54/54/54
f 57/57/57 56/56/56 54/54/54
f 60/60/60 59/59/59 58/58/58
f 61/61/61 60/60/60 58/58/58
f 64/64/64 63/63/63 62/62/62
f 65/65/65 64/64/64 62/62/62
f 68/68/68 67/67/67 66/66/66
f 69/69/69 68/68/68 66/66/66
f 72/72/72 71/71/71 70/70/70
f 73/73/73 72/72/72 70/70/70
f 76/76/76 75/75/75 74/74/74
f 77/77/77 76/76/76 74/74/74
f 80/80/80 79/79/79 78/78/78
f 81/81/81 80/80/80 78/78/78
f 84/84/84 83/83/83 82/82/82
f 85/85/85 84/84/84 82/82/82
f 88/88/88 87/87/87 86/86/86
f 89/89/89 88/88/88 86/86/86
f 92/92/92 91/91/91 90/90/90
f 93/93/93 92/92/92 90/90/90
f 96/96/96 95/95/95 94/94/94
f 97/97/97 96/96/96 94/94/94
f 100/100/100 99/99/99 98/98/98
f 101/101/101 100/100/100 98/98/98
f 104/104/104 103/103/103 102/102/102
f 105/105/105 104/104/104 102/102/102
f 108/108/108 107/107/107 106/106/106
f 109/109/109 108/108/108 106/106/106
f 112/112/112 111/111/111 110/110/110
f 113/113/113 112/112/112 110/110/110
f 116/116/116 115/115/115 114/114/114
f 117/117/117 116/116/116 114/114/114
f 120/120/120 119/119/119 118/118/118
f 121/121/121 120/120/120 118/118/118
f 124/124/124 123/123/123 122/122/122
f 125/125/125 124/124/124 122/122/122
f 128/128/128 127/127/127 126/126/126
f 129/129/129 128/128/128 126/126/126
f 132/132/132 131/131/131 130/130/130
f 133/133/133 132/132/132 130/130/130
f 136/136/136 135/135/135 134/134/134
f 137/137/137 136/136/136 134/134/134
f 140/140/140 139/139/139 138/138/138
f 141/141/141 140/140/140 138/138/138
f 144/144/144 143/143/143 142/142/142
f 145/145/145 144/144/144 142/142/142
f 148/148/148 147/147/147 146/146/146
f 149/149/149 148/148/148 146/146/146
f 152/152/152 151/151/151 150/150/150
f 153/153/153 152/152/152 150/150/150
f 156/156/156 155/155/155 154/154/154
f 157/157/157 156/156/156 154/154/154
g ruinPillar02_LOD1_1
f 160/160/160 159/159/159 158/158/158
f 160/160/160 158/158/158 161/161/161
f 162/162/162 160/160/160 161/161/161
f 165/165/165 164/164/164 163/163/163
f 164/164/164 166/166/166 163/163/163
f 164/164/164 167/167/167 166/166/166
f 168/168/168 167/167/167 164/164/164
f 168/168/168 164/164/164 169/169/169
f 170/170/170 168/168/168 169/169/169
f 168/168/168 171/171/171 167/167/167
f 168/168/168 172/172/172 171/171/171
f 172/172/172 173/173/173 171/171/171
