g ruinWaterPipe
v 0.62452036 0 -4
v 0.54085046 0.3122602 -2
v 0.54085046 0.31226012 -4
v 0.62452036 0 -2
v 0.54085046 -0.3122602 -4
v 0.54085046 0.31226018 0
v 0.54085046 -0.31226018 -2
v 0.31226018 -0.54085046 -4
v 0.62452036 0 0
v 0.54085046 0.31226018 2
v 0.31226018 -0.54085046 -2
v -0 -0.62452036 -4
v 0.54085046 -0.31226018 0
v 0.62452036 0 2
v 0.54085046 0.3122602 4
v 0.62452036 0 4
v 0.54085046 -0.3122602 2
v 0.54085046 -0.31226012 4
v -0 -0.62452036 -2
v -0.31226018 -0.54085046 -4
v 0.31226018 -0.54085046 0
v 0.31226018 -0.5408505 2
v 0.31226018 -0.5408505 4
v -0.31226018 -0.54085046 -2
v -0.54085046 -0.3122602 -4
v -0 -0.62452036 0
v -0 -0.6245203 2
v -0 -0.6245204 4
v -0.54085046 -0.31226018 -2
v -0.62452036 0 -4
v -0.31226018 -0.54085046 0
v -0.31226018 -0.5408505 2
v -0.31226018 -0.5408505 4
v -0.62452036 0 -2
v -0.54085046 0.31226012 -4
v -0.54085046 -0.31226018 0
v -0.54085046 -0.3122602 2
v -0.54085046 -0.31226012 4
v -0.54085046 0.3122602 -2
v -0.31226018 0.5408505 -4
v -0.62452036 0 0
v -0.62452036 0 2
v -0.62452036 0 4
v -0.31226018 0.5408505 -2
v -0 0.6245204 -4
v -0.54085046 0.31226018 0
v -0.54085046 0.31226018 2
v -0.54085046 0.3122602 4
v -0 0.6245203 -2
v 0.31226018 0.5408505 -4
v -0.31226018 0.54085046 0
v -0.31226018 0.54085046 2
v -0.31226018 0.54085046 4
v 0.31226018 0.5408505 -2
v 0.54085046 0.31226012 -4
v 0.54085046 0.3122602 -2
v -0 0.62452036 0
v -0 0.62452036 2
v -0 0.62452036 4
v 0.31226018 0.54085046 0
v 0.54085046 0.31226018 0
v 0.31226018 0.54085046 2
v 0.31226018 0.54085046 4
v 0.54085046 0.31226018 2
v 0.54085046 0.3122602 4
v 0.45619673 -8.881784E-16 -4
v 0.39507797 0.22809836 -2
v 0.39507797 0.22809836 -4
v 0.45619673 -4.440892E-16 -2
v 0.39507797 -0.22809836 -4
v 0.39507797 0.22809836 -5.064801E-17
v 0.39507797 -0.22809836 -2
v 0.22809836 -0.39507797 -4
v 0.45619673 0 0
v 0.39507797 0.22809836 2
v 0.22809836 -0.39507797 -2
v -0 -0.45619673 -4
v 0.39507797 -0.22809836 5.064801E-17
v 0.45619673 4.440892E-16 2
v 0.39507797 0.22809836 4
v 0.45619673 8.881784E-16 4
v 0.39507797 -0.22809836 2
v 0.39507797 -0.22809836 4
v -0 -0.45619673 -2
v -0.22809836 -0.39507797 -4
v 0.22809836 -0.39507797 8.772493E-17
v 0.22809836 -0.39507797 2
v 0.22809836 -0.39507797 4
v -0.22809836 -0.39507797 -2
v -0.39507797 -0.22809836 -4
v -0 -0.45619673 1.0129602E-16
v -0 -0.45619673 2
v -0 -0.45619673 4
v -0.39507797 -0.22809836 -2
v -0.45619673 -8.881784E-16 -4
v -0.22809836 -0.39507797 8.772493E-17
v -0.22809836 -0.39507797 2
v -0.22809836 -0.39507797 4
v -0.45619673 -4.440892E-16 -2
v -0.39507797 0.22809836 -4
v -0.39507797 -0.22809836 5.064801E-17
v -0.39507797 -0.22809836 2
v -0.39507797 -0.22809836 4
v -0.39507797 0.22809836 -2
v -0.22809836 0.39507797 -4
v -0.45619673 0 0
v -0.45619673 4.440892E-16 2
v -0.45619673 8.881784E-16 4
v -0.22809836 0.39507797 -2
v -0 0.45619673 -4
v -0.39507797 0.22809836 -5.064801E-17
v -0.39507797 0.22809836 2
v -0.39507797 0.22809836 4
v -0 0.45619673 -2
v 0.22809836 0.39507797 -4
v -0.22809836 0.39507797 -8.772493E-17
v -0.22809836 0.39507797 2
v -0.22809836 0.39507797 4
v 0.22809836 0.39507797 -2
v 0.39507797 0.22809836 -4
v 0.39507797 0.22809836 -2
v -0 0.45619673 -1.0129602E-16
v -0 0.45619673 2
v -0 0.45619673 4
v 0.22809836 0.39507797 -8.772493E-17
v 0.39507797 0.22809836 -5.064801E-17
v 0.22809836 0.39507797 2
v 0.22809836 0.39507797 4
v 0.39507797 0.22809836 2
v 0.39507797 0.22809836 4
vt 0.6041666 0.3125
vt 0.62499994 0.40648496
vt 0.62499994 0.3125
vt 0.6041666 0.40648496
vt 0.5833333 0.3125
vt 0.62499994 0.5004699
vt 0.5833333 0.40648496
vt 0.5625 0.3125
vt 0.6041666 0.5004699
vt 0.62499994 0.5944549
vt 0.5625 0.40648496
vt 0.5416667 0.3125
vt 0.5833333 0.5004699
vt 0.6041666 0.5944549
vt 0.62499994 0.68843985
vt 0.6041666 0.68843985
vt 0.5833333 0.5944549
vt 0.5833333 0.68843985
vt 0.5416667 0.40648496
vt 0.5208334 0.3125
vt 0.5625 0.5004699
vt 0.5625 0.5944549
vt 0.5625 0.68843985
vt 0.5208334 0.40648496
vt 0.50000006 0.3125
vt 0.5416667 0.5004699
vt 0.5416667 0.5944549
vt 0.5416667 0.68843985
vt 0.50000006 0.40648496
vt 0.47916672 0.3125
vt 0.5208334 0.5004699
vt 0.5208334 0.5944549
vt 0.5208334 0.68843985
vt 0.47916672 0.40648496
vt 0.45833337 0.3125
vt 0.50000006 0.5004699
vt 0.50000006 0.5944549
vt 0.50000006 0.68843985
vt 0.45833337 0.40648496
vt 0.43750003 0.3125
vt 0.47916672 0.5004699
vt 0.47916672 0.5944549
vt 0.47916672 0.68843985
vt 0.43750003 0.40648496
vt 0.4166667 0.3125
vt 0.45833337 0.5004699
vt 0.45833337 0.5944549
vt 0.45833337 0.68843985
vt 0.4166667 0.40648496
vt 0.39583334 0.3125
vt 0.43750003 0.5004699
vt 0.43750003 0.5944549
vt 0.43750003 0.68843985
vt 0.39583334 0.40648496
vt 0.375 0.3125
vt 0.375 0.40648496
vt 0.4166667 0.5004699
vt 0.4166667 0.5944549
vt 0.4166667 0.68843985
vt 0.39583334 0.5004699
vt 0.375 0.5004699
vt 0.39583334 0.5944549
vt 0.39583334 0.68843985
vt 0.375 0.5944549
vt 0.375 0.68843985
vt 0.6041666 0.3125
vt 0.62499994 0.40648496
vt 0.62499994 0.3125
vt 0.6041666 0.40648496
vt 0.5833333 0.3125
vt 0.62499994 0.5004699
vt 0.5833333 0.40648496
vt 0.5625 0.3125
vt 0.6041666 0.5004699
vt 0.62499994 0.5944549
vt 0.5625 0.40648496
vt 0.5416667 0.3125
vt 0.5833333 0.5004699
vt 0.6041666 0.5944549
vt 0.62499994 0.68843985
vt 0.6041666 0.68843985
vt 0.5833333 0.5944549
vt 0.5833333 0.68843985
vt 0.5416667 0.40648496
vt 0.5208334 0.3125
vt 0.5625 0.5004699
vt 0.5625 0.5944549
vt 0.5625 0.68843985
vt 0.5208334 0.40648496
vt 0.50000006 0.3125
vt 0.5416667 0.5004699
vt 0.5416667 0.5944549
vt 0.5416667 0.68843985
vt 0.50000006 0.40648496
vt 0.47916672 0.3125
vt 0.5208334 0.5004699
vt 0.5208334 0.5944549
vt 0.5208334 0.68843985
vt 0.47916672 0.40648496
vt 0.45833337 0.3125
vt 0.50000006 0.5004699
vt 0.50000006 0.5944549
vt 0.50000006 0.68843985
vt 0.45833337 0.40648496
vt 0.43750003 0.3125
vt 0.47916672 0.5004699
vt 0.47916672 0.5944549
vt 0.47916672 0.68843985
vt 0.43750003 0.40648496
vt 0.4166667 0.3125
vt 0.45833337 0.5004699
vt 0.45833337 0.5944549
vt 0.45833337 0.68843985
vt 0.4166667 0.40648496
vt 0.39583334 0.3125
vt 0.43750003 0.5004699
vt 0.43750003 0.5944549
vt 0.43750003 0.68843985
vt 0.39583334 0.40648496
vt 0.375 0.3125
vt 0.375 0.40648496
vt 0.4166667 0.5004699
vt 0.4166667 0.5944549
vt 0.4166667 0.68843985
vt 0.39583334 0.5004699
vt 0.375 0.5004699
vt 0.39583334 0.5944549
vt 0.39583334 0.68843985
vt 0.375 0.5944549
vt 0.375 0.68843985
vn 1 0 0
vn 0.86602545 0.5 0
vn 0.86602545 0.5 0
vn 1 0 0
vn 0.86602545 -0.5 0
vn 0.86602545 0.5 0
vn 0.86602545 -0.5 0
vn 0.5 -0.86602545 0
vn 1 0 0
vn 0.86602545 0.5 0
vn 0.5 -0.86602545 0
vn -0 -1 0
vn 0.86602545 -0.5 0
vn 1 0 0
vn 0.86602545 0.5 0
vn 1 0 0
vn 0.86602545 -0.5 0
vn 0.86602545 -0.49999997 0
vn -0 -1 0
vn -0.5 -0.86602545 0
vn 0.5 -0.86602545 0
vn 0.5 -0.86602545 0
vn 0.5 -0.86602545 0
vn -0.5 -0.86602545 0
vn -0.86602545 -0.5 0
vn -0 -1 0
vn -0 -1 0
vn -0 -1 0
vn -0.86602545 -0.5 0
vn -1 0 0
vn -0.5 -0.86602545 0
vn -0.5 -0.86602545 0
vn -0.5 -0.86602545 0
vn -1 0 0
vn -0.86602545 0.4999999 0
vn -0.86602545 -0.5 0
vn -0.86602545 -0.5 0
vn -0.86602545 -0.49999997 0
vn -0.86602545 0.5 0
vn -0.5000001 0.8660253 0
vn -1 0 0
vn -1 0 0
vn -1 0 0
vn -0.50000006 0.8660253 0
vn -0 1 0
vn -0.86602545 0.5 0
vn -0.86602545 0.5 0
vn -0.86602545 0.5 0
vn -0 1 0
vn 0.5 0.86602545 0
vn -0.5 0.86602545 0
vn -0.5 0.86602545 0
vn -0.5 0.86602545 0
vn 0.5 0.86602545 0
vn 0.86602545 0.5 0
vn 0.86602545 0.5 0
vn -0 1 0
vn -0 1 0
vn -0 1 0
vn 0.5 0.86602545 0
vn 0.86602545 0.5 0
vn 0.5 0.86602545 0
vn 0.5 0.86602545 0
vn 0.86602545 0.5 0
vn 0.86602545 0.5 0
vn 1 0 0
vn 0.86602545 0.5 0
vn 0.86602545 0.5 0
vn 1 0 0
vn 0.86602545 -0.5 0
vn 0.86602545 0.5 0
vn 0.86602545 -0.5 0
vn 0.5 -0.86602545 0
vn 1 0 0
vn 0.86602545 0.5 0
vn 0.5 -0.86602545 0
vn -0 -1 0
vn 0.86602545 -0.5 0
vn 1 0 0
vn 0.86602545 0.5 0
vn 1 0 0
vn 0.86602545 -0.5 0
vn 0.86602545 -0.5 0
vn -0 -1 0
vn -0.5 -0.86602545 0
vn 0.5 -0.86602545 0
vn 0.5 -0.86602545 0
vn 0.5 -0.86602545 0
vn -0.5 -0.86602545 0
vn -0.86602545 -0.5 0
vn -0 -1 0
vn -0 -1 0
vn -0 -1 0
vn -0.86602545 -0.49999997 0
vn -1 0 0
vn -0.5 -0.86602545 0
vn -0.5 -0.86602545 0
vn -0.5 -0.86602545 0
vn -1 0 0
vn -0.86602545 0.5 0
vn -0.86602545 -0.49999997 0
vn -0.86602545 -0.49999997 0
vn -0.86602545 -0.5 0
vn -0.86602545 0.5 0
vn -0.5 0.86602545 0
vn -1 0 0
vn -1 0 0
vn -1 0 0
vn -0.5 0.86602545 0
vn -0 1 0
vn -0.86602545 0.5 0
vn -0.86602545 0.5 0
vn -0.86602545 0.5 0
vn -0 1 0
vn 0.5 0.86602545 0
vn -0.5 0.86602545 0
vn -0.5 0.86602545 0
vn -0.5 0.86602545 0
vn 0.5 0.86602545 0
vn 0.86602545 0.5 0
vn 0.86602545 0.5 0
vn -0 1 0
vn -0 1 0
vn -0 1 0
vn 0.5 0.86602545 0
vn 0.86602545 0.5 0
vn 0.5 0.86602545 0
vn 0.5 0.86602545 0
vn 0.86602545 0.5 0
vn 0.86602545 0.5 0
g ruinWaterPipe_0
f 3/3/3 2/2/2 1/1/1
f 2/2/2 4/4/4 1/1/1
f 1/1/1 4/4/4 5/5/5
f 2/2/2 6/6/6 4/4/4
f 4/4/4 7/7/7 5/5/5
f 5/5/5 7/7/7 8/8/8
f 6/6/6 9/9/9 4/4/4
f 4/4/4 9/9/9 7/7/7
f 6/6/6 10/10/10 9/9/9
f 7/7/7 11/11/11 8/8/8
f 8/8/8 11/11/11 12/12/12
f 9/9/9 13/13/13 7/7/7
f 7/7/7 13/13/13 11/11/11
f 10/10/10 14/14/14 9/9/9
f 9/9/9 14/14/14 13/13/13
f 10/10/10 15/15/15 14/14/14
f 15/15/15 16/16/16 14/14/14
f 14/14/14 16/16/16 17/17/17
f 14/14/14 17/17/17 13/13/13
f 16/16/16 18/18/18 17/17/17
f 11/11/11 19/19/19 12/12/12
f 12/12/12 19/19/19 20/20/20
f 13/13/13 21/21/21 11/11/11
f 13/13/13 17/17/17 21/21/21
f 11/11/11 21/21/21 19/19/19
f 17/17/17 18/18/18 22/22/22
f 17/17/17 22/22/22 21/21/21
f 18/18/18 23/23/23 22/22/22
f 19/19/19 24/24/24 20/20/20
f 20/20/20 24/24/24 25/25/25
f 21/21/21 26/26/26 19/19/19
f 21/21/21 22/22/22 26/26/26
f 19/19/19 26/26/26 24/24/24
f 22/22/22 23/23/23 27/27/27
f 22/22/22 27/27/27 26/26/26
f 23/23/23 28/28/28 27/27/27
f 24/24/24 29/29/29 25/25/25
f 25/25/25 29/29/29 30/30/30
f 26/26/26 31/31/31 24/24/24
f 26/26/26 27/27/27 31/31/31
f 24/24/24 31/31/31 29/29/29
f 27/27/27 28/28/28 32/32/32
f 27/27/27 32/32/32 31/31/31
f 28/28/28 33/33/33 32/32/32
f 29/29/29 34/34/34 30/30/30
f 30/30/30 34/34/34 35/35/35
f 31/31/31 36/36/36 29/29/29
f 31/31/31 32/32/32 36/36/36
f 29/29/29 36/36/36 34/34/34
f 32/32/32 33/33/33 37/37/37
f 32/32/32 37/37/37 36/36/36
f 33/33/33 38/38/38 37/37/37
f 34/34/34 39/39/39 35/35/35
f 35/35/35 39/39/39 40/40/40
f 36/36/36 41/41/41 34/34/34
f 36/36/36 37/37/37 41/41/41
f 34/34/34 41/41/41 39/39/39
f 37/37/37 38/38/38 42/42/42
f 37/37/37 42/42/42 41/41/41
f 38/38/38 43/43/43 42/42/42
f 39/39/39 44/44/44 40/40/40
f 40/40/40 44/44/44 45/45/45
f 41/41/41 46/46/46 39/39/39
f 41/41/41 42/42/42 46/46/46
f 39/39/39 46/46/46 44/44/44
f 42/42/42 43/43/43 47/47/47
f 42/42/42 47/47/47 46/46/46
f 43/43/43 48/48/48 47/47/47
f 44/44/44 49/49/49 45/45/45
f 45/45/45 49/49/49 50/50/50
f 46/46/46 51/51/51 44/44/44
f 46/46/46 47/47/47 51/51/51
f 44/44/44 51/51/51 49/49/49
f 47/47/47 48/48/48 52/52/52
f 47/47/47 52/52/52 51/51/51
f 48/48/48 53/53/53 52/52/52
f 49/49/49 54/54/54 50/50/50
f 50/50/50 54/54/54 55/55/55
f 54/54/54 56/56/56 55/55/55
f 51/51/51 57/57/57 49/49/49
f 51/51/51 52/52/52 57/57/57
f 49/49/49 57/57/57 54/54/54
f 52/52/52 53/53/53 58/58/58
f 52/52/52 58/58/58 57/57/57
f 53/53/53 59/59/59 58/58/58
f 54/54/54 60/60/60 56/56/56
f 57/57/57 60/60/60 54/54/54
f 57/57/57 58/58/58 60/60/60
f 60/60/60 61/61/61 56/56/56
f 58/58/58 59/59/59 62/62/62
f 58/58/58 62/62/62 60/60/60
f 60/60/60 62/62/62 61/61/61
f 59/59/59 63/63/63 62/62/62
f 62/62/62 64/64/64 61/61/61
f 62/62/62 63/63/63 64/64/64
f 63/63/63 65/65/65 64/64/64
g ruinWaterPipe_1
f 68/68/68 67/67/67 66/66/66
f 67/67/67 69/69/69 66/66/66
f 66/66/66 69/69/69 70/70/70
f 67/67/67 71/71/71 69/69/69
f 69/69/69 72/72/72 70/70/70
f 70/70/70 72/72/72 73/73/73
f 71/71/71 74/74/74 69/69/69
f 69/69/69 74/74/74 72/72/72
f 71/71/71 75/75/75 74/74/74
f 72/72/72 76/76/76 73/73/73
f 73/73/73 76/76/76 77/77/77
f 74/74/74 78/78/78 72/72/72
f 72/72/72 78/78/78 76/76/76
f 75/75/75 79/79/79 74/74/74
f 74/74/74 79/79/79 78/78/78
f 75/75/75 80/80/80 79/79/79
f 80/80/80 81/81/81 79/79/79
f 79/79/79 81/81/81 82/82/82
f 79/79/79 82/82/82 78/78/78
f 81/81/81 83/83/83 82/82/82
f 76/76/76 84/84/84 77/77/77
f 77/77/77 84/84/84 85/85/85
f 78/78/78 86/86/86 76/76/76
f 78/78/78 82/82/82 86/86/86
f 76/76/76 86/86/86 84/84/84
f 82/82/82 83/83/83 87/87/87
f 82/82/82 87/87/87 86/86/86
f 83/83/83 88/88/88 87/87/87
f 84/84/84 89/89/89 85/85/85
f 85/85/85 89/89/89 90/90/90
f 86/86/86 91/91/91 84/84/84
f 86/86/86 87/87/87 91/91/91
f 84/84/84 91/91/91 89/89/89
f 87/87/87 88/88/88 92/92/92
f 87/87/87 92/92/92 91/91/91
f 88/88/88 93/93/93 92/92/92
f 89/89/89 94/94/94 90/90/90
f 90/90/90 94/94/94 95/95/95
f 91/91/91 96/96/96 89/89/89
f 91/91/91 92/92/92 96/96/96
f 89/89/89 96/96/96 94/94/94
f 92/92/92 93/93/93 97/97/97
f 92/92/92 97/97/97 96/96/96
f 93/93/93 98/98/98 97/97/97
f 94/94/94 99/99/99 95/95/95
f 95/95/95 99/99/99 100/100/100
f 96/96/96 101/101/101 94/94/94
f 96/96/96 97/97/97 101/101/101
f 94/94/94 101/101/101 99/99/99
f 97/97/97 98/98/98 102/102/102
f 97/97/97 102/102/102 101/101/101
f 98/98/98 103/103/103 102/102/102
f 99/99/99 104/104/104 100/100/100
f 100/100/100 104/104/104 105/105/105
f 101/101/101 106/106/106 99/99/99
f 101/101/101 102/102/102 106/106/106
f 99/99/99 106/106/106 104/104/104
f 102/102/102 103/103/103 107/107/107
f 102/102/102 107/107/107 106/106/106
f 103/103/103 108/108/108 107/107/107
f 104/104/104 109/109/109 105/105/105
f 105/105/105 109/109/109 110/110/110
f 106/106/106 111/111/111 104/104/104
f 106/106/106 107/107/107 111/111/111
f 104/104/104 111/111/111 109/109/109
f 107/107/107 108/108/108 112/112/112
f 107/107/107 112/112/112 111/111/111
f 108/108/108 113/113/113 112/112/112
f 109/109/109 114/114/114 110/110/110
f 110/110/110 114/114/114 115/115/115
f 111/111/111 116/116/116 109/109/109
f 111/111/111 112/112/112 116/116/116
f 109/109/109 116/116/116 114/114/114
f 112/112/112 113/113/113 117/117/117
f 112/112/112 117/117/117 116/116/116
f 113/113/113 118/118/118 117/117/117
f 114/114/114 119/119/119 115/115/115
f 115/115/115 119/119/119 120/120/120
f 119/119/119 121/121/121 120/120/120
f 116/116/116 122/122/122 114/114/114
f 116/116/116 117/117/117 122/122/122
f 114/114/114 122/122/122 119/119/119
f 117/117/117 118/118/118 123/123/123
f 117/117/117 123/123/123 122/122/122
f 118/118/118 124/124/124 123/123/123
f 119/119/119 125/125/125 121/121/121
f 122/122/122 125/125/125 119/119/119
f 122/122/122 123/123/123 125/125/125
f 125/125/125 126/126/126 121/121/121
f 123/123/123 124/124/124 127/127/127
f 123/123/123 127/127/127 125/125/125
f 125/125/125 127/127/127 126/126/126
f 124/124/124 128/128/128 127/127/127
f 127/127/127 129/129/129 126/126/126
f 127/127/127 128/128/128 129/129/129
f 128/128/128 130/130/130 129/129/129
