g ruinPath02_LOD1
v 0.7458044 0.055798132 0.407642
v 1.3851861 0.056344166 0.41257367
v 1.379594 0.047444217 1.0252911
v 0.75611645 0.044750303 1.034085
v -1.0366583 0.06815646 0.005939636
v 0.042294476 0.06815414 0.005939636
v 0.04229682 0.06815685 1.0002376
v -1.036668 0.06815685 1.0002373
v 0.08732153 0.060126137 -0.9955194
v 0.08387873 0.053433266 -0.07502736
v -0.44018972 0.05374311 -0.07750081
v -0.44018808 0.060126994 -0.9955205
v 0.17733125 0.061527617 -1.0620022
v 1.7875249 0.06152934 -1.061243
v 1.7861145 0.04926818 0.30685526
v 0.17212312 0.061529737 0.39258996
v -1.2006233 0.06815646 -0.883338
v -0.7650561 0.06815414 -0.8719339
v -0.76531345 0.06815685 -0.42788386
v -1.2008926 0.06815685 -0.43928817
vt 0.412948 0.258884
vt 0.263941 0.2590425
vt 0.2651795 0.3948295
vt 0.4115595 0.39461648
vt 0.14660601 0.063559994
vt 0.01 0.063559994
vt 0.01 0.142062
vt 0.14660601 0.142062
vt 0.63592196 0.7561915
vt 0.7725135 0.75570905
vt 0.772662 0.665783
vt 0.636037 0.66523254
vt 0.1699315 0.701836
vt 0.1711005 0.84461504
vt 0.3246725 0.84372604
vt 0.325504 0.7009965
vt 0.14660601 0.063559994
vt 0.01 0.063559994
vt 0.01 0.142062
vt 0.14660601 0.142062
vn 0.0023851562 0.996929 -0.07827515
vn 0.065957844 0.99608034 0.058936566
vn 0.073099665 0.994911 -0.06934323
vn -0.06540854 0.99545336 0.069239736
vn -0.124858916 0.9860161 -0.110374846
vn 0.12653576 0.9858743 0.10972977
vn 0.12670904 0.9857692 -0.110471755
vn 1.2796186E-06 0.99337596 0.114910156
vn 0.10040084 0.9886755 -0.11153694
vn -0.09382085 0.98956746 0.10933342
vn 0.08985511 0.98952776 0.11296339
vn -0.10194112 0.9885649 -0.111118436
vn 0.09587685 0.99534214 0.010082925
vn 0.09647938 0.9907566 -0.09535779
vn -0.096161634 0.9953614 -0.002934692
vn -0.09220358 0.9905261 -0.10176735
vn -0.124858916 0.9860161 -0.110374846
vn 0.12653576 0.9858743 0.10972977
vn 0.12670904 0.9857692 -0.110471755
vn 1.2796186E-06 0.99337596 0.114910156
g ruinPath02_LOD1_0
f 3/3/3 2/2/2 1/1/1
f 4/4/4 3/3/3 1/1/1
f 7/7/7 6/6/6 5/5/5
f 8/8/8 7/7/7 5/5/5
f 11/11/11 10/10/10 9/9/9
f 12/12/12 11/11/11 9/9/9
f 15/15/15 14/14/14 13/13/13
f 16/16/16 15/15/15 13/13/13
f 19/19/19 18/18/18 17/17/17
f 20/20/20 19/19/19 17/17/17
