g ruinWall03_LOD1
v -2.977924 5.698796 0.250025
v -1.7016234 5.7500253 0.5
v -2.977924 5.448821 0.5
v -1.7016234 6 0.250025
v 1.7016234 5.7500253 0.5
v -1.7016234 6 -0.250025
v -2.977924 5.698796 -0.250025
v -2.977924 5.448821 -0.5
v -1.7016234 5.7500253 -0.5
v 1.7016234 6 0.250025
v 2.931099 5.61903 0.5
v 2.931099 5.8690042 0.250025
v 2.931099 5.8690042 -0.250025
v 1.7016234 6 -0.250025
v 1.7016234 5.7500253 -0.5
v 2.931099 5.61903 -0.5
v -3.292766 0.26109806 0.250025
v -3.0427916 2 0.5
v -3.0427916 0.26109806 0.5
v -3.292766 2 0.250025
v -3.0427916 4 0.5
v -3.292766 4 0.250025
v -2.977924 5.448821 0.5
v -3.292766 2 -0.250025
v -3.2278986 5.448821 0.250025
v -2.977924 5.698796 0.250025
v -2.977924 5.698796 -0.250025
v -3.292766 4 -0.250025
v -3.2278986 5.448821 -0.250025
v -2.977924 5.448821 -0.5
v -3.0427916 4 -0.5
v -3.0427916 2 -0.5
v -3.0427916 0.26109806 -0.5
v -3.292766 0.26109806 -0.250025
v -3.5571752 0 -0.3615828
v -3.5571752 0 0.3615828
v 3.0427911 2 -0.5
v 3.0427907 0.26109806 -0.5
v 3.2927663 0.26109806 -0.250025
v 3.2927666 2 -0.250025
v 3.0427911 4 -0.5
v 3.2927666 4 -0.250025
v 2.931099 5.61903 -0.5
v 3.2927666 2 0.250025
v 3.1810744 5.61903 -0.250025
v 2.931099 5.8690042 -0.250025
v 2.931099 5.8690042 0.250025
v 3.2927666 4 0.250025
v 3.1810744 5.61903 0.250025
v 2.931099 5.61903 0.5
v 3.0427911 4 0.5
v 3.0427911 2 0.5
v 3.0427907 0.26109806 0.5
v 3.2927663 0.26109806 0.250025
v 3.5571742 0 0.3615828
v 3.5571742 0 -0.3615828
v -3.0427916 4 0.5
v -2.977924 5.448821 0.5
v -1.7016234 5.7500253 0.5
v -1.7016234 4 0.5
v -3.0427916 2 0.5
v 1.7016234 4 0.5
v 1.7016234 5.7500253 0.5
v 2.931099 5.61903 0.5
v 3.0427911 4 0.5
v 1.7016234 2 0.5
v 3.0427911 2 0.5
v -1.7016234 2 0.5
v 1.7016234 0.26109806 0.5
v 3.0427907 0.26109806 0.5
v -1.7016234 0.26109806 0.5
v -3.0427916 0.26109806 0.5
v 1.7016234 0 0.72309315
v 3.0427907 0 0.72309315
v 3.2927663 0.26109806 0.250025
v 3.5571742 0 0.3615828
v -1.7016234 0 0.72309315
v -3.0427916 0 0.72309315
v -3.5571752 0 0.3615828
v -3.292766 0.26109806 0.250025
v 1.7016234 5.7500253 -0.5
v 3.0427911 4 -0.5
v 2.931099 5.61903 -0.5
v 1.7016234 4 -0.5
v 3.0427911 2 -0.5
v -1.7016234 4 -0.5
v -1.7016234 5.7500253 -0.5
v -2.977924 5.448821 -0.5
v -3.0427916 4 -0.5
v -1.7016234 2 -0.5
v -3.0427916 2 -0.5
v 1.7016234 2 -0.5
v 3.0427907 0.26109806 -0.5
v -1.7016234 0.26109806 -0.5
v -3.0427916 0.26109806 -0.5
v 1.7016234 0.26109806 -0.5
v -1.7016234 0 -0.72309315
v -3.0427916 0 -0.72309315
v -3.292766 0.26109806 -0.250025
v -3.5571752 0 -0.3615828
v 1.7016234 0 -0.72309315
v 3.0427907 0 -0.72309315
v 3.5571742 0 -0.3615828
v 3.2927663 0.26109806 -0.250025
vt 1.1101282 1.3611431
vt 1.0771946 1.1929934
vt 1.0771946 1.3611431
vt 1.1101282 1.1929934
vt 1.0771946 0.74462366
vt 1.1760085 1.1929934
vt 1.1760085 1.3611431
vt 1.208942 1.3611431
vt 1.208942 1.1929934
vt 1.1101282 0.74462366
vt 1.0771946 0.58264315
vt 1.1101282 0.58264315
vt 1.1760085 0.58264315
vt 1.1760085 0.74462366
vt 1.208942 0.74462366
vt 1.208942 0.58264315
vt 0.89316845 0.6170423
vt 0.92610204 0.8461386
vt 0.92610204 0.6170423
vt 0.89316845 0.8461386
vt 0.92610204 1.1096338
vt 0.89316845 1.1096338
vt 0.92610204 1.3005127
vt 0.82728815 0.8461386
vt 0.89316845 1.3005127
vt 0.89316845 1.3334463
vt 0.82728815 1.3334463
vt 0.82728815 1.1096338
vt 0.82728815 1.3005127
vt 0.79435444 1.3005127
vt 0.79435444 1.1096338
vt 0.79435444 0.8461386
vt 0.79435444 0.6170423
vt 0.82728815 0.6170423
vt 0.8125906 0.5826433
vt 0.9078659 0.5826433
vt 1.067522 0.8461386
vt 1.067522 0.6170423
vt 1.0345883 0.6170423
vt 1.0345883 0.8461386
vt 1.067522 1.1096338
vt 1.0345883 1.1096338
vt 1.067522 1.3229375
vt 0.96870804 0.8461386
vt 1.0345883 1.3229375
vt 1.0345883 1.355871
vt 0.96870804 1.355871
vt 0.96870804 1.1096338
vt 0.96870804 1.3229375
vt 0.9357743 1.3229375
vt 0.9357743 1.1096338
vt 0.9357743 0.8461386
vt 0.9357743 0.6170423
vt 0.96870804 0.6170423
vt 0.9540105 0.5826433
vt 1.0492859 0.5826433
vt 0.16570532 0.5085819
vt 0.35658416 0.5000357
vt 0.396267 0.33188608
vt 0.16570532 0.33188608
vt -0.09779002 0.5085819
vt 0.16570532 -0.11648366
vt 0.396267 -0.11648366
vt 0.37900874 -0.27846417
vt 0.16570532 -0.2931793
vt -0.09779002 -0.11648366
vt -0.09779002 -0.2931793
vt -0.09779002 0.33188608
vt -0.32688627 -0.11648366
vt -0.32688627 -0.2931793
vt -0.32688627 0.33188608
vt -0.32688627 0.5085819
vt -0.36128524 -0.11648366
vt -0.36128524 -0.2931793
vt -0.32688627 -0.32611293
vt -0.36128524 -0.36094812
vt -0.36128524 0.33188608
vt -0.36128524 0.5085819
vt -0.36128524 0.5763506
vt -0.32688627 0.54151547
vt 0.40715677 -0.1164836
vt 0.63771844 -0.2931793
vt 0.42441505 -0.27846405
vt 0.63771844 -0.1164836
vt 0.90121377 -0.2931793
vt 0.63771844 0.33188614
vt 0.40715677 0.33188614
vt 0.44683963 0.5000358
vt 0.63771844 0.508582
vt 0.90121377 0.33188614
vt 0.90121377 0.508582
vt 0.90121377 -0.1164836
vt 1.13031 -0.2931792
vt 1.13031 0.33188614
vt 1.13031 0.508582
vt 1.13031 -0.1164836
vt 1.1647091 0.33188614
vt 1.1647091 0.508582
vt 1.13031 0.54151547
vt 1.1647091 0.57635075
vt 1.1647091 -0.1164836
vt 1.1647091 -0.2931792
vt 1.1647091 -0.36094812
vt 1.13031 -0.32611296
vn -0.30251718 0.9055935 0.29729393
vn -0.009214478 0.13336194 0.9910246
vn -0.14000824 0.10192359 0.9848905
vn -0.059519004 0.94880724 0.3101973
vn 0.0037215687 0.12720995 0.99186885
vn -0.059519004 0.94880724 -0.3101973
vn -0.30251718 0.9055935 -0.29729393
vn -0.14000824 0.10192359 -0.9848905
vn -0.009214478 0.13336194 -0.9910246
vn 0.02652368 0.9491642 0.31366193
vn 0.1406535 0.10783719 0.9841686
vn 0.21141616 0.9317924 0.29506987
vn 0.21141616 0.9317924 -0.29506987
vn 0.02652368 0.9491642 -0.31366193
vn 0.0037215687 0.12720995 -0.99186885
vn 0.14065348 0.107837185 -0.9841686
vn -0.9283269 0.18409829 0.3229813
vn -0.15520044 0 0.98788303
vn -0.16227028 0.13110307 0.97799814
vn -0.9486962 0 0.31618908
vn -0.1539344 0.0029288242 0.9880767
vn -0.94908154 0.0177812 0.31452838
vn -0.14000824 0.10192359 0.9848905
vn -0.9486962 0 -0.31618908
vn -0.9433147 0.14822441 0.2969628
vn -0.30251718 0.9055935 0.29729393
vn -0.30251718 0.9055935 -0.29729393
vn -0.94908154 0.0177812 -0.31452838
vn -0.9433147 0.14822441 -0.2969628
vn -0.14000824 0.10192359 -0.9848905
vn -0.1539344 0.0029288242 -0.9880767
vn -0.15520044 0 -0.98788303
vn -0.16227026 0.13110307 -0.97799814
vn -0.9283269 0.18409829 -0.32298127
vn -0.6489499 0.717113 -0.2541908
vn -0.64895 0.71711296 0.25419092
vn 0.15520042 0 -0.98788303
vn 0.16227025 0.1311029 -0.97799814
vn 0.9283266 0.18409757 -0.32298252
vn 0.94869566 0 -0.31619054
vn 0.1597901 0.00501483 -0.9871383
vn 0.9491709 0.029125744 -0.31341085
vn 0.14065348 0.107837185 -0.9841686
vn 0.9486958 0 0.31619048
vn 0.94070226 0.15793899 -0.30022398
vn 0.21141616 0.9317924 -0.29506987
vn 0.21141616 0.9317924 0.29506987
vn 0.9491709 0.029125744 0.31341082
vn 0.94070226 0.15793899 0.30022392
vn 0.1406535 0.10783719 0.9841686
vn 0.1597901 0.0050148303 0.9871383
vn 0.15520044 0 0.98788303
vn 0.16227025 0.1311029 0.97799814
vn 0.9283266 0.18409757 0.32298252
vn 0.64895076 0.7171118 0.25419185
vn 0.64895076 0.7171118 -0.25419185
vn -0.1539344 0.0029288242 0.9880767
vn -0.14000824 0.10192359 0.9848905
vn -0.009214478 0.13336194 0.9910246
vn -0 0 1
vn -0.15520044 0 0.98788303
vn -0 0 1
vn 0.0037215687 0.12720995 0.99186885
vn 0.1406535 0.10783719 0.9841686
vn 0.1597901 0.0050148303 0.9871383
vn -0 0 1
vn 0.15520044 0 0.98788303
vn -0 0 1
vn -0 0.11085903 0.9938361
vn 0.16227025 0.1311029 0.97799814
vn -0 0.11085903 0.9938361
vn -0.16227028 0.13110307 0.97799814
vn -0 0.64960694 0.76027024
vn 0.10544926 0.66045356 0.7434256
vn 0.9283266 0.18409757 0.32298252
vn 0.64895076 0.7171118 0.25419185
vn -0 0.64960694 0.76027024
vn -0.10544921 0.66045374 0.7434254
vn -0.64895 0.71711296 0.25419092
vn -0.9283269 0.18409829 0.3229813
vn 0.0037215687 0.12720995 -0.99186885
vn 0.1597901 0.00501483 -0.9871383
vn 0.14065348 0.107837185 -0.9841686
vn -0 0 -1
vn 0.15520042 0 -0.98788303
vn -0 0 -1
vn -0.009214478 0.13336194 -0.9910246
vn -0.14000824 0.10192359 -0.9848905
vn -0.1539344 0.0029288242 -0.9880767
vn -0 0 -1
vn -0.15520044 0 -0.98788303
vn -0 0 -1
vn 0.16227025 0.1311029 -0.97799814
vn -0 0.11085903 -0.9938361
vn -0.16227026 0.13110307 -0.97799814
vn -0 0.11085903 -0.9938361
vn -0 0.64960694 -0.76027024
vn -0.105449155 0.66045374 -0.7434254
vn -0.9283269 0.18409829 -0.32298127
vn -0.6489499 0.717113 -0.2541908
vn -0 0.64960694 -0.76027024
vn 0.10544926 0.66045356 -0.7434256
vn 0.64895076 0.7171118 -0.25419185
vn 0.9283266 0.18409757 -0.32298252
g ruinWall03_LOD1_0
f 3/3/3 2/2/2 1/1/1
f 2/2/2 4/4/4 1/1/1
f 2/2/2 5/5/5 4/4/4
f 4/4/4 6/6/6 1/1/1
f 6/6/6 7/7/7 1/1/1
f 7/7/7 6/6/6 8/8/8
f 6/6/6 9/9/9 8/8/8
f 5/5/5 10/10/10 4/4/4
f 4/4/4 10/10/10 6/6/6
f 5/5/5 11/11/11 10/10/10
f 11/11/11 12/12/12 10/10/10
f 12/12/12 13/13/13 10/10/10
f 6/6/6 14/14/14 9/9/9
f 10/10/10 14/14/14 6/6/6
f 13/13/13 14/14/14 10/10/10
f 14/14/14 15/15/15 9/9/9
f 14/14/14 13/13/13 15/15/15
f 13/13/13 16/16/16 15/15/15
f 19/19/19 18/18/18 17/17/17
f 18/18/18 20/20/20 17/17/17
f 18/18/18 21/21/21 20/20/20
f 21/21/21 22/22/22 20/20/20
f 22/22/22 21/21/21 23/23/23
f 17/17/17 20/20/20 24/24/24
f 20/20/20 22/22/22 24/24/24
f 25/25/25 22/22/22 23/23/23
f 23/23/23 26/26/26 25/25/25
f 26/26/26 27/27/27 25/25/25
f 22/22/22 25/25/25 28/28/28
f 22/22/22 28/28/28 24/24/24
f 27/27/27 29/29/29 25/25/25
f 25/25/25 29/29/29 28/28/28
f 27/27/27 30/30/30 29/29/29
f 30/30/30 31/31/31 29/29/29
f 31/31/31 28/28/28 29/29/29
f 31/31/31 32/32/32 28/28/28
f 32/32/32 24/24/24 28/28/28
f 32/32/32 33/33/33 24/24/24
f 33/33/33 34/34/34 24/24/24
f 34/34/34 17/17/17 24/24/24
f 34/34/34 35/35/35 17/17/17
f 35/35/35 36/36/36 17/17/17
f 39/39/39 38/38/38 37/37/37
f 40/40/40 39/39/39 37/37/37
f 40/40/40 37/37/37 41/41/41
f 42/42/42 40/40/40 41/41/41
f 42/42/42 41/41/41 43/43/43
f 39/39/39 40/40/40 44/44/44
f 40/40/40 42/42/42 44/44/44
f 45/45/45 42/42/42 43/43/43
f 46/46/46 45/45/45 43/43/43
f 45/45/45 46/46/46 47/47/47
f 42/42/42 45/45/45 48/48/48
f 42/42/42 48/48/48 44/44/44
f 49/49/49 45/45/45 47/47/47
f 45/45/45 49/49/49 48/48/48
f 50/50/50 49/49/49 47/47/47
f 50/50/50 51/51/51 49/49/49
f 51/51/51 48/48/48 49/49/49
f 48/48/48 51/51/51 52/52/52
f 44/44/44 48/48/48 52/52/52
f 44/44/44 52/52/52 53/53/53
f 54/54/54 44/44/44 53/53/53
f 54/54/54 39/39/39 44/44/44
f 54/54/54 55/55/55 39/39/39
f 55/55/55 56/56/56 39/39/39
f 59/59/59 58/58/58 57/57/57
f 60/60/60 59/59/59 57/57/57
f 60/60/60 57/57/57 61/61/61
f 60/60/60 62/62/62 59/59/59
f 62/62/62 63/63/63 59/59/59
f 64/64/64 63/63/63 62/62/62
f 65/65/65 64/64/64 62/62/62
f 65/65/65 62/62/62 66/66/66
f 66/66/66 62/62/62 60/60/60
f 67/67/67 65/65/65 66/66/66
f 68/68/68 60/60/60 61/61/61
f 68/68/68 66/66/66 60/60/60
f 67/67/67 66/66/66 69/69/69
f 69/69/69 66/66/66 68/68/68
f 70/70/70 67/67/67 69/69/69
f 71/71/71 68/68/68 61/61/61
f 71/71/71 69/69/69 68/68/68
f 72/72/72 71/71/71 61/61/61
f 70/70/70 69/69/69 73/73/73
f 73/73/73 69/69/69 71/71/71
f 74/74/74 70/70/70 73/73/73
f 75/75/75 70/70/70 74/74/74
f 76/76/76 75/75/75 74/74/74
f 77/77/77 73/73/73 71/71/71
f 78/78/78 77/77/77 71/71/71
f 72/72/72 78/78/78 71/71/71
f 78/78/78 72/72/72 79/79/79
f 72/72/72 80/80/80 79/79/79
f 83/83/83 82/82/82 81/81/81
f 82/82/82 84/84/84 81/81/81
f 82/82/82 85/85/85 84/84/84
f 81/81/81 84/84/84 86/86/86
f 87/87/87 81/81/81 86/86/86
f 87/87/87 86/86/86 88/88/88
f 86/86/86 89/89/89 88/88/88
f 86/86/86 90/90/90 89/89/89
f 86/86/86 84/84/84 90/90/90
f 90/90/90 91/91/91 89/89/89
f 85/85/85 92/92/92 84/84/84
f 84/84/84 92/92/92 90/90/90
f 85/85/85 93/93/93 92/92/92
f 90/90/90 94/94/94 91/91/91
f 94/94/94 95/95/95 91/91/91
f 90/90/90 92/92/92 96/96/96
f 93/93/93 96/96/96 92/92/92
f 94/94/94 90/90/90 96/96/96
f 94/94/94 97/97/97 95/95/95
f 97/97/97 98/98/98 95/95/95
f 95/95/95 98/98/98 99/99/99
f 98/98/98 100/100/100 99/99/99
f 97/97/97 94/94/94 101/101/101
f 94/94/94 96/96/96 101/101/101
f 102/102/102 101/101/101 96/96/96
f 93/93/93 102/102/102 96/96/96
f 103/103/103 102/102/102 93/93/93
f 104/104/104 103/103/103 93/93/93
