g ruinStatue03_eyes
v -0.9345161 1.5149237 0.9456107
v -0.92966706 1.4720542 0.96779513
v -0.8651574 1.4880441 0.97878456
v -0.9612591 1.535976 0.93641156
v -0.9059959 1.4270505 1.006465
v -0.81369 1.4454842 1.0412614
v -0.98051333 1.449499 0.98231995
v -1.0323213 1.499036 0.9681726
v -1.0373199 1.4309095 1.0374311
v -1.0535704 1.4763279 1.0030162
v -1.0760753 1.5003618 1.0582956
v -0.8581009 1.3883702 1.0789734
v -0.7777024 1.4389856 1.0882035
v -0.99486303 1.4204884 1.0139807
v -1.0557086 1.4523244 1.0922115
v -1.0654083 1.5146302 1.1052912
v -1.0325073 1.5087274 1.1581509
v -1.0091366 1.3946701 1.0876935
v -0.91179967 1.3955433 1.0408645
v -1.014899 1.4175491 1.1419693
v -0.97338516 1.3790016 1.1372514
v -0.9938754 1.3874947 1.0763023
v -0.9585662 1.3850484 1.0549946
v -0.9249713 1.371696 1.0822719
v -0.8624886 1.3775307 1.0991588
v -0.94986326 1.3709967 1.0892752
v -0.8301054 1.3806199 1.1398083
v -0.7473639 1.4434958 1.147597
v -0.8783965 1.3668143 1.1225237
v -0.9079086 1.3630711 1.1378863
v -0.82114875 1.3859285 1.1768512
v -0.72757995 1.469435 1.1828436
v -0.8091077 1.414042 1.2222909
v -0.74452436 1.4904083 1.2374117
v -0.81396747 1.4905794 1.2632091
v -0.87377316 1.3794293 1.1944225
v -0.9330422 1.373052 1.1658267
v -0.82254386 1.4184054 1.2319835
v -0.90598994 1.3999941 1.2138039
v -0.9400556 1.4130666 1.208226
v -0.9010102 1.4581473 1.2447512
v -0.9099272 1.5322704 1.2469858
v -0.9913458 1.4223036 1.1754206
v -1.0760753 1.5003618 1.0582956
v -1.0535704 1.4763279 1.0030162
v -1.055741 1.5352219 0.9718691
v -1.0323213 1.499036 0.9681726
v -1.074328 1.5835714 1.0038991
v -1.0654083 1.5146302 1.1052912
v -1.0079138 1.5572244 0.9375412
v -0.9612591 1.535976 0.93641156
v -1.0143809 1.6847605 0.9680339
v -1.0696198 1.5882668 1.0747355
v -1.0325073 1.5087274 1.1581509
v -0.95580006 1.6594436 0.92843807
v -1.0524436 1.6477672 1.0535262
v -1.0148969 1.579597 1.1664373
v -0.9099272 1.5322704 1.2469858
v -0.91492885 1.7627727 1.0044602
v -1.0154439 1.6524982 1.1239915
v -0.86996037 1.5994711 1.2468842
v -0.81396747 1.4905794 1.2632091
v -0.88042474 1.7617718 1.1130899
v -0.94187737 1.6778684 1.1739732
v -0.7372138 1.578114 1.2431374
v -0.74452436 1.4904083 1.2374117
v -0.78883123 1.6779988 1.2177359
v -0.8395262 1.7764933 1.0695988
v -0.6999391 1.5803555 1.2044021
v -0.72757995 1.469435 1.1828436
v -0.70789516 1.6462324 1.191283
v -0.69276726 1.5778875 1.1232358
v -0.7212617 1.7059386 1.1257417
v -0.79097486 1.686606 0.9883264
v -0.74010473 1.484041 1.0914098
v -0.7473639 1.4434958 1.147597
v -0.7777024 1.4389856 1.0882035
v -0.7487927 1.5768896 1.0257282
v -0.8711337 1.625652 0.93808013
v -0.79440254 1.472514 1.0344046
v -0.81369 1.4454842 1.0412614
v -0.8023557 1.5497781 0.9867398
v -0.8181614 1.5095024 0.993377
v -0.8651574 1.4880441 0.97878456
v -0.87042516 1.5610826 0.9470574
v -0.9345161 1.5149237 0.9456107
v 1.0602735 1.5674092 1.1086481
v 1.0509758 1.523091 1.1260517
v 1.0131624 1.5525246 1.1733985
v 1.0722244 1.5808972 1.0783451
v 1.0207947 1.4761567 1.1571532
v 0.95103276 1.5067596 1.2224809
v 1.063036 1.4819812 1.0877162
v 1.0804495 1.5141615 1.0244758
v 1.040151 1.4260659 1.0333145
v 1.0637335 1.4739543 1.0075879
v 1.0161068 1.4653367 0.9651926
v 0.9499723 1.4285728 1.199195
v 0.89811087 1.4934611 1.2462155
v 1.0484115 1.4397842 1.0802685
v 0.9922074 1.4166789 0.9957524
v 0.9664915 1.4619942 0.95790523
v 0.9092787 1.4458612 0.9773445
v 0.99555886 1.3834062 1.0620478
v 1.0013307 1.433371 1.1576428
v 0.943041 1.3794175 1.0350571
v 0.9430014 1.3610896 1.0888684
v 1.0021267 1.3865803 1.0810461
v 1.0088352 1.4040692 1.1178683
v 0.9761691 1.3920549 1.1468431
v 0.93674207 1.4097416 1.1953814
v 0.9792378 1.3808721 1.12372
v 0.8879994 1.4061062 1.2133132
v 0.8330877 1.4828553 1.2575223
v 0.92486006 1.3861443 1.1806912
v 0.9230631 1.367533 1.1529176
v 0.850374 1.3985333 1.2105654
v 0.78725934 1.4971325 1.2559425
v 0.79771423 1.4081593 1.1989715
v 0.739102 1.4879014 1.2198821
v 0.74151015 1.4560068 1.1530629
v 0.8558315 1.3694569 1.163183
v 0.90462446 1.3570248 1.1203356
v 0.7927836 1.403819 1.1831485
v 0.84456944 1.3692983 1.1218355
v 0.85824126 1.3721782 1.0876703
v 0.79882765 1.408413 1.0945948
v 0.7790965 1.4685124 1.054877
v 0.90343237 1.3773648 1.0461606
v 1.0161068 1.4653367 0.9651926
v 1.0637335 1.4739543 1.0075879
v 1.0754623 1.5365086 0.9877702
v 1.0804495 1.5141615 1.0244758
v 1.0401366 1.5594065 0.9437606
v 0.9664915 1.4619942 0.95790523
v 1.0822238 1.5841843 1.028159
v 1.0722244 1.5808972 1.0783451
v 1.0214022 1.6796151 0.9615951
v 0.9742632 1.5363595 0.9299203
v 0.9092787 1.4458612 0.9773445
v 1.0423201 1.6920503 1.0326465
v 0.969948 1.6014591 0.9245776
v 0.87542367 1.508989 0.96091306
v 0.7790965 1.4685124 1.054877
v 0.9307058 1.7630525 1.0075939
v 0.89261204 1.5886564 0.9391371
v 0.7455635 1.5388322 1.0615063
v 0.74151015 1.4560068 1.1530629
v 0.8220565 1.7291555 1.0137805
v 0.81425375 1.613266 0.98166
v 0.7065054 1.5633379 1.187862
v 0.739102 1.4879014 1.2198821
v 0.71956456 1.643436 1.1060065
v 0.8415357 1.7721008 1.0532414
v 0.726625 1.5924982 1.2283555
v 0.78725934 1.4971325 1.2559425
v 0.7224971 1.6519907 1.1964372
v 0.7966944 1.6253287 1.2540061
v 0.7685851 1.725619 1.174213
v 0.9213719 1.7426505 1.1522413
v 0.8687834 1.5426543 1.2593982
v 0.8330877 1.4828553 1.2575223
v 0.89811087 1.4934611 1.2462155
v 0.9038978 1.6463149 1.2272748
v 1.0124527 1.6854746 1.1190639
v 0.9424182 1.5387925 1.229503
v 0.95103276 1.5067596 1.2224809
v 0.96570134 1.6220098 1.2005594
v 0.97699356 1.5797529 1.2022508
v 1.0131624 1.5525246 1.1733985
v 1.0225279 1.6265182 1.1450043
v 1.0602735 1.5674092 1.1086481
vt 0.5888275 0.7552101
vt 0.59914684 0.7756813
vt 0.6325721 0.7617287
vt 0.57107216 0.7508659
vt 0.62371945 0.8002023
vt 0.6758941 0.79860276
vt 0.57588524 0.79800963
vt 0.54154795 0.7955422
vt 0.548199 0.83996606
vt 0.5340395 0.82243145
vt 0.5098825 0.86743253
vt 0.6525028 0.83487236
vt 0.70011586 0.83253396
vt 0.5750509 0.8207313
vt 0.53174275 0.8808362
vt 0.50729537 0.9018079
vt 0.521614 0.93347806
vt 0.56739897 0.8633357
vt 0.62368685 0.8236617
vt 0.5554695 0.8996203
vt 0.59044224 0.88592917
vt 0.5791241 0.8543523
vt 0.59905124 0.8382479
vt 0.62056476 0.8474106
vt 0.6518504 0.8480186
vt 0.6064766 0.8584838
vt 0.6649892 0.8719389
vt 0.7134411 0.8785879
vt 0.64333266 0.86568606
vt 0.62510264 0.8779181
vt 0.6658121 0.8967747
vt 0.7211889 0.91249514
vt 0.66356516 0.9308973
vt 0.6979611 0.960527
vt 0.6425956 0.984489
vt 0.63646376 0.9113439
vt 0.61006767 0.8955808
vt 0.650582 0.9377133
vt 0.60999876 0.927673
vt 0.58657384 0.9311163
vt 0.5972083 0.9625948
vt 0.5734509 0.99265337
vt 0.55943346 0.92128915
vt 0.90775794 0.8628623
vt 0.9688811 0.8279038
vt 0.9613234 0.79055434
vt 0.9899364 0.78754026
vt 0.9145702 0.8119446
vt 0.85667443 0.87854844
vt 0.9723121 0.73217165
vt 0.98688495 0.68283087
vt 0.9007441 0.75574666
vt 0.85933805 0.8407036
vt 0.80049986 0.88493836
vt 0.92585653 0.7020208
vt 0.8611175 0.8099465
vt 0.78797466 0.8434795
vt 0.69479674 0.80664253
vt 0.8626382 0.7226204
vt 0.8157894 0.8114551
vt 0.7123177 0.77078235
vt 0.6444 0.7099041
vt 0.8046782 0.7387259
vt 0.7779287 0.7843446
vt 0.70199686 0.66625214
vt 0.67166036 0.61982536
vt 0.7428043 0.7128077
vt 0.8232836 0.70612204
vt 0.7313274 0.62743104
vt 0.72573066 0.5517962
vt 0.75021774 0.652986
vt 0.7895472 0.5938405
vt 0.79014647 0.65416056
vt 0.86929333 0.6434129
vt 0.8172376 0.5383951
vt 0.7663618 0.5204632
vt 0.83044475 0.50663316
vt 0.8572942 0.5880383
vt 0.92165434 0.64715433
vt 0.8777846 0.5357408
vt 0.8850688 0.51434535
vt 0.8967519 0.5892258
vt 0.9099937 0.5719722
vt 0.94504875 0.57377046
vt 0.9359504 0.6227399
vt 0.9810676 0.6445368
vt 0.5888275 0.7552101
vt 0.59914684 0.7756813
vt 0.6325721 0.7617287
vt 0.57107216 0.7508659
vt 0.62371945 0.8002023
vt 0.6758941 0.79860276
vt 0.57588524 0.79800963
vt 0.54154795 0.7955422
vt 0.548199 0.83996606
vt 0.5340395 0.82243145
vt 0.5098825 0.86743253
vt 0.6525028 0.83487236
vt 0.70011586 0.83253396
vt 0.5750509 0.8207313
vt 0.53174275 0.8808362
vt 0.50729537 0.9018079
vt 0.521614 0.93347806
vt 0.56739897 0.8633357
vt 0.62368685 0.8236617
vt 0.5554695 0.8996203
vt 0.59044224 0.88592917
vt 0.5791241 0.8543523
vt 0.59905124 0.8382479
vt 0.62056476 0.8474106
vt 0.6518504 0.8480186
vt 0.6064766 0.8584838
vt 0.6649892 0.8719389
vt 0.7134411 0.8785879
vt 0.64333266 0.86568606
vt 0.62510264 0.8779181
vt 0.6658121 0.8967747
vt 0.7211889 0.91249514
vt 0.66356516 0.9308973
vt 0.6979611 0.960527
vt 0.6425956 0.984489
vt 0.63646376 0.9113439
vt 0.61006767 0.8955808
vt 0.650582 0.9377133
vt 0.60999876 0.927673
vt 0.58657384 0.9311163
vt 0.5972083 0.9625948
vt 0.5734509 0.99265337
vt 0.55943346 0.92128915
vt 0.90775794 0.8628623
vt 0.9688811 0.8279038
vt 0.9613234 0.79055434
vt 0.9899364 0.78754026
vt 0.9145702 0.8119446
vt 0.85667443 0.87854844
vt 0.9723121 0.73217165
vt 0.98688495 0.68283087
vt 0.9007441 0.75574666
vt 0.85933805 0.8407036
vt 0.80049986 0.88493836
vt 0.92585653 0.7020208
vt 0.8611175 0.8099465
vt 0.78797466 0.8434795
vt 0.69479674 0.80664253
vt 0.8626382 0.7226204
vt 0.8157894 0.8114551
vt 0.7123177 0.77078235
vt 0.6444 0.7099041
vt 0.8046782 0.7387259
vt 0.7779287 0.7843446
vt 0.70199686 0.66625214
vt 0.67166036 0.61982536
vt 0.7428043 0.7128077
vt 0.8232836 0.70612204
vt 0.7313274 0.62743104
vt 0.72573066 0.5517962
vt 0.75021774 0.652986
vt 0.7895472 0.5938405
vt 0.79014647 0.65416056
vt 0.86929333 0.6434129
vt 0.8172376 0.5383951
vt 0.7663618 0.5204632
vt 0.83044475 0.50663316
vt 0.8572942 0.5880383
vt 0.92165434 0.64715433
vt 0.8777846 0.5357408
vt 0.8850688 0.51434535
vt 0.8967519 0.5892258
vt 0.9099937 0.5719722
vt 0.94504875 0.57377046
vt 0.9359504 0.6227399
vt 0.9810676 0.6445368
vn 0.1821534 -0.39416876 -0.9008058
vn -0.046902377 -0.41282904 -0.90960014
vn 0.30987605 -0.37818405 -0.87232655
vn -0.025486216 -0.3173016 -0.9479822
vn 0.19773953 -0.51720667 -0.8327043
vn 0.5267031 -0.53114825 -0.66367555
vn -0.3744713 -0.43775782 -0.8173979
vn -0.39606732 -0.5881784 -0.7051076
vn -0.8439231 -0.29691958 -0.4468027
vn -0.8061548 -0.49989647 -0.31657237
vn -0.94623274 -0.31129462 -0.087972015
vn 0.5130897 -0.72402436 -0.4610073
vn 0.670415 -0.6037649 -0.43129063
vn -0.5410979 -0.36800936 -0.7561628
vn -0.9739068 -0.19818513 0.110580586
vn -0.93317646 -0.04870705 0.35610303
vn -0.75302744 -0.055287547 0.6556623
vn -0.98482394 -0.1486041 -0.089659415
vn 0.05465299 -0.7071631 -0.70493495
vn -0.83367336 -0.007605304 0.55220544
vn -0.86047196 -0.3097492 0.40452865
vn -0.6886161 -0.4336282 -0.58118373
vn -0.32980546 -0.6362138 -0.69746715
vn 0.119275995 -0.6882931 -0.71555984
vn 0.5367071 -0.72023356 -0.43955547
vn -0.22461951 -0.74147743 -0.63226354
vn 0.65896994 -0.72519416 -0.19962999
vn 0.76277417 -0.61902285 -0.18704638
vn 0.48531806 -0.70200557 -0.5212049
vn 0.2938862 -0.95470333 -0.04660837
vn 0.6459654 -0.71021765 0.27985644
vn 0.89423245 -0.42715105 0.13375442
vn 0.61745656 -0.57997626 0.5313896
vn 0.60777456 -0.3184295 0.7274701
vn 0.0046604327 -0.009705513 0.99994206
vn 0.41836295 -0.67228615 0.61074024
vn -0.31635725 -0.5827457 0.74854904
vn 0.23974584 -0.35793304 0.9024443
vn -0.33311993 -0.17028555 0.92738014
vn -0.69391775 0.075440004 0.71609145
vn -0.45973232 -0.035761345 0.8873372
vn -0.46889004 0.11162417 0.8761747
vn -0.66292983 -0.09444948 0.74270004
vn -0.94623274 -0.31129462 -0.087972015
vn -0.8061548 -0.49989647 -0.31657237
vn -0.79504305 -0.16439639 -0.5838496
vn -0.39606732 -0.5881784 -0.7051076
vn -0.96008825 0.10897707 -0.2575937
vn -0.93317646 -0.04870705 0.35610303
vn -0.44747987 -0.12230979 -0.8858905
vn -0.025486216 -0.3173016 -0.9479822
vn -0.7308247 0.55650514 -0.39521793
vn -0.9203043 0.14779456 0.36221075
vn -0.75302744 -0.055287547 0.6556623
vn -0.03715993 0.2988803 -0.9535668
vn -0.7906683 0.5708278 0.22135764
vn -0.6841069 0.19000487 0.7041987
vn -0.46889004 0.11162417 0.8761747
vn -0.45999348 0.8577257 -0.2295923
vn -0.7058294 0.5345451 0.4648294
vn -0.2539589 0.32044172 0.91259074
vn 0.0046604327 -0.009705513 0.99994206
vn -0.4282196 0.71809316 0.54860735
vn -0.4434197 0.535516 0.71875
vn 0.27782175 0.23062356 0.9325384
vn 0.60777456 -0.3184295 0.7274701
vn 0.09736362 0.59185886 0.80013967
vn 0.37613168 0.90087 -0.2166982
vn 0.96365213 -0.027161954 0.26577595
vn 0.89423245 -0.42715105 0.13375442
vn 0.70342714 0.52109337 0.48337555
vn 0.9506591 -0.04414873 -0.30708027
vn 0.8881105 0.42461288 -0.17596486
vn 0.6092879 0.31088573 -0.7294644
vn 0.8304779 -0.35211357 -0.43165088
vn 0.76277417 -0.61902285 -0.18704638
vn 0.670415 -0.6037649 -0.43129063
vn 0.7974115 -0.052203394 -0.6011735
vn 0.3484323 0.021509772 -0.9370871
vn 0.68482393 -0.37736475 -0.62338763
vn 0.5267031 -0.53114825 -0.66367555
vn 0.57400435 -0.21737914 -0.78947145
vn 0.42643622 -0.36759135 -0.82645553
vn 0.30987605 -0.37818405 -0.87232655
vn 0.28276935 -0.2994693 -0.91124076
vn 0.1821534 -0.39416876 -0.9008058
vn 0.8441562 0.08072905 0.52998406
vn 0.9408143 -0.0031702416 0.3389076
vn 0.767769 0.12280924 0.6288471
vn 0.9399743 0.10117291 0.32590237
vn 0.8129326 -0.047733296 0.5803982
vn 0.5469484 -0.025340334 0.83678275
vn 0.985617 -0.16387837 0.04126737
vn 0.9365271 -0.34530312 0.060685705
vn 0.7883081 -0.33839402 -0.51386744
vn 0.71653974 -0.55377096 -0.42415637
vn 0.5114608 -0.5272961 -0.6785033
vn 0.42681906 -0.27724 0.86079234
vn 0.30898777 -0.13670953 0.94118917
vn 0.97233814 -0.18047886 -0.14827704
vn 0.3134113 -0.5186339 -0.79548234
vn 0.038441755 -0.47629336 -0.87844574
vn -0.29110137 -0.54656416 -0.7851928
vn 0.4809392 -0.39865634 -0.780878
vn 0.8056426 -0.30728045 0.50647676
vn -0.18343216 -0.48896623 -0.85279816
vn 0.042932406 -0.6977681 -0.7150361
vn 0.8895635 -0.3534515 -0.28939375
vn 0.91918576 -0.36906368 0.13743937
vn 0.7861413 -0.26662013 0.5575801
vn 0.39810237 -0.2752649 0.8750678
vn 0.8528056 -0.4531391 0.259591
vn 0.14210953 -0.33814397 0.93030286
vn 0.06299269 -0.2195098 0.9735745
vn 0.48410207 -0.24268325 0.84068424
vn 0.20462604 -0.71109176 0.67266387
vn -0.28264758 -0.5225946 0.80436635
vn -0.32385588 -0.14276023 0.93527365
vn -0.5322354 -0.5208084 0.66744596
vn -0.77671623 -0.37781972 0.50394857
vn -0.88580257 -0.40998167 -0.21741395
vn -0.5038166 -0.69427305 0.5139588
vn -0.38334796 -0.9017643 -0.19966374
vn -0.786433 -0.59704435 0.15830748
vn -0.65270793 -0.62417585 -0.42939144
vn -0.40330377 -0.44001693 -0.8023286
vn -0.6091162 -0.53174347 -0.5884101
vn -0.6376363 -0.4032802 -0.6563421
vn -0.39007115 -0.5872664 -0.7091986
vn 0.5114608 -0.5272961 -0.6785033
vn 0.71653974 -0.55377096 -0.42415637
vn 0.8544715 -0.15388617 -0.49618298
vn 0.9365271 -0.34530312 0.060685705
vn 0.5478709 -0.10161654 -0.8303684
vn 0.038441755 -0.47629336 -0.87844574
vn 0.98361903 0.11240427 -0.14092179
vn 0.9399743 0.10117291 0.32590237
vn 0.45947722 0.4103884 -0.7876941
vn -0.027350094 -0.30566412 -0.9517465
vn -0.29110137 -0.54656416 -0.7851928
vn 0.77459246 0.6299787 0.055974822
vn -0.06959025 0.15551572 -0.9853791
vn -0.42879742 -0.33358803 -0.83955455
vn -0.6376363 -0.4032802 -0.6563421
vn 0.1284201 0.68721634 -0.7150119
vn -0.30619922 0.052592434 -0.95051354
vn -0.8075196 -0.17129704 -0.5644195
vn -0.88580257 -0.40998167 -0.21741395
vn -0.5337962 0.26327518 -0.80358434
vn -0.6274176 0.032854024 -0.77798957
vn -0.99378186 -0.09088596 -0.06432305
vn -0.77671623 -0.37781972 0.50394857
vn -0.912872 0.21706723 -0.34575507
vn -0.20030116 0.9797309 -0.002614126
vn -0.57961005 0.16982663 0.79700124
vn -0.32385588 -0.14276023 0.93527365
vn -0.83300394 0.47275412 0.287416
vn -0.06198823 0.382083 0.92204666
vn -0.28827682 0.7130807 0.63907146
vn 0.33657682 0.7514451 0.56749123
vn 0.17960338 0.12985438 0.9751311
vn 0.06299269 -0.2195098 0.9735745
vn 0.30898777 -0.13670953 0.94118917
vn 0.2570389 0.44594178 0.8573604
vn 0.6978856 0.50484717 0.5080207
vn 0.40995207 0.14002241 0.9012951
vn 0.5469484 -0.025340334 0.83678275
vn 0.5523535 0.31009302 0.7737881
vn 0.6815574 0.14976025 0.71627605
vn 0.767769 0.12280924 0.6288471
vn 0.7898683 0.19777763 0.5805102
vn 0.8441562 0.08072905 0.52998406
g ruinStatue03_eyes_0
f 3/3/3 2/2/2 1/1/1
f 2/2/2 4/4/4 1/1/1
f 2/2/2 3/3/3 5/5/5
f 3/3/3 6/6/6 5/5/5
f 2/2/2 7/7/7 4/4/4
f 5/5/5 7/7/7 2/2/2
f 4/4/4 7/7/7 8/8/8
f 8/8/8 7/7/7 9/9/9
f 9/9/9 10/10/10 8/8/8
f 10/10/10 9/9/9 11/11/11
f 12/12/12 5/5/5 6/6/6
f 13/13/13 12/12/12 6/6/6
f 14/14/14 7/7/7 5/5/5
f 7/7/7 14/14/14 9/9/9
f 9/9/9 15/15/15 11/11/11
f 15/15/15 16/16/16 11/11/11
f 15/15/15 17/17/17 16/16/16
f 9/9/9 18/18/18 15/15/15
f 9/9/9 14/14/14 18/18/18
f 12/12/12 19/19/19 5/5/5
f 5/5/5 19/19/19 14/14/14
f 15/15/15 20/20/20 17/17/17
f 18/18/18 20/20/20 15/15/15
f 20/20/20 18/18/18 21/21/21
f 22/22/22 18/18/18 14/14/14
f 22/22/22 21/21/21 18/18/18
f 23/23/23 14/14/14 19/19/19
f 22/22/22 14/14/14 23/23/23
f 19/19/19 24/24/24 23/23/23
f 12/12/12 24/24/24 19/19/19
f 23/23/23 24/24/24 22/22/22
f 12/12/12 25/25/25 24/24/24
f 12/12/12 13/13/13 25/25/25
f 26/26/26 22/22/22 24/24/24
f 22/22/22 26/26/26 21/21/21
f 25/25/25 26/26/26 24/24/24
f 13/13/13 27/27/27 25/25/25
f 27/27/27 13/13/13 28/28/28
f 26/26/26 25/25/25 29/29/29
f 29/29/29 25/25/25 27/27/27
f 30/30/30 26/26/26 29/29/29
f 29/29/29 27/27/27 30/30/30
f 30/30/30 21/21/21 26/26/26
f 27/27/27 28/28/28 31/31/31
f 27/27/27 31/31/31 30/30/30
f 28/28/28 32/32/32 31/31/31
f 32/32/32 33/33/33 31/31/31
f 32/32/32 34/34/34 33/33/33
f 33/33/33 34/34/34 35/35/35
f 31/31/31 36/36/36 30/30/30
f 33/33/33 36/36/36 31/31/31
f 21/21/21 30/30/30 37/37/37
f 37/37/37 30/30/30 36/36/36
f 38/38/38 36/36/36 33/33/33
f 33/33/33 35/35/35 38/38/38
f 37/37/37 36/36/36 39/39/39
f 38/38/38 39/39/39 36/36/36
f 21/21/21 37/37/37 39/39/39
f 39/39/39 38/38/38 35/35/35
f 39/39/39 40/40/40 21/21/21
f 40/40/40 20/20/20 21/21/21
f 41/41/41 39/39/39 35/35/35
f 40/40/40 39/39/39 41/41/41
f 41/41/41 35/35/35 42/42/42
f 42/42/42 17/17/17 41/41/41
f 40/40/40 43/43/43 20/20/20
f 43/43/43 40/40/40 41/41/41
f 43/43/43 41/41/41 17/17/17
f 43/43/43 17/17/17 20/20/20
f 46/46/46 45/45/45 44/44/44
f 47/47/47 45/45/45 46/46/46
f 46/46/46 44/44/44 48/48/48
f 48/48/48 44/44/44 49/49/49
f 46/46/46 50/50/50 47/47/47
f 50/50/50 51/51/51 47/47/47
f 50/50/50 46/46/46 52/52/52
f 52/52/52 46/46/46 48/48/48
f 49/49/49 53/53/53 48/48/48
f 53/53/53 49/49/49 54/54/54
f 51/51/51 50/50/50 55/55/55
f 52/52/52 55/55/55 50/50/50
f 48/48/48 56/56/56 52/52/52
f 53/53/53 56/56/56 48/48/48
f 57/57/57 53/53/53 54/54/54
f 54/54/54 58/58/58 57/57/57
f 55/55/55 52/52/52 59/59/59
f 52/52/52 56/56/56 59/59/59
f 53/53/53 60/60/60 56/56/56
f 57/57/57 60/60/60 53/53/53
f 58/58/58 61/61/61 57/57/57
f 62/62/62 61/61/61 58/58/58
f 56/56/56 63/63/63 59/59/59
f 63/63/63 56/56/56 60/60/60
f 57/57/57 64/64/64 60/60/60
f 64/64/64 57/57/57 61/61/61
f 60/60/60 64/64/64 63/63/63
f 61/61/61 62/62/62 65/65/65
f 66/66/66 65/65/65 62/62/62
f 61/61/61 67/67/67 64/64/64
f 67/67/67 63/63/63 64/64/64
f 65/65/65 67/67/67 61/61/61
f 63/63/63 68/68/68 59/59/59
f 63/63/63 67/67/67 68/68/68
f 59/59/59 68/68/68 55/55/55
f 69/69/69 65/65/65 66/66/66
f 66/66/66 70/70/70 69/69/69
f 71/71/71 67/67/67 65/65/65
f 71/71/71 65/65/65 69/69/69
f 68/68/68 67/67/67 71/71/71
f 70/70/70 72/72/72 69/69/69
f 69/69/69 72/72/72 71/71/71
f 68/68/68 71/71/71 73/73/73
f 72/72/72 73/73/73 71/71/71
f 74/74/74 55/55/55 68/68/68
f 74/74/74 68/68/68 73/73/73
f 70/70/70 75/75/75 72/72/72
f 76/76/76 75/75/75 70/70/70
f 75/75/75 76/76/76 77/77/77
f 72/72/72 78/78/78 73/73/73
f 78/78/78 74/74/74 73/73/73
f 75/75/75 78/78/78 72/72/72
f 79/79/79 55/55/55 74/74/74
f 79/79/79 74/74/74 78/78/78
f 51/51/51 55/55/55 79/79/79
f 75/75/75 77/77/77 80/80/80
f 78/78/78 75/75/75 80/80/80
f 81/81/81 80/80/80 77/77/77
f 82/82/82 78/78/78 80/80/80
f 78/78/78 82/82/82 79/79/79
f 83/83/83 80/80/80 81/81/81
f 82/82/82 80/80/80 83/83/83
f 83/83/83 79/79/79 82/82/82
f 83/83/83 81/81/81 84/84/84
f 85/85/85 51/51/51 79/79/79
f 83/83/83 85/85/85 79/79/79
f 84/84/84 85/85/85 83/83/83
f 85/85/85 86/86/86 51/51/51
f 84/84/84 86/86/86 85/85/85
f 89/89/89 88/88/88 87/87/87
f 88/88/88 90/90/90 87/87/87
f 88/88/88 89/89/89 91/91/91
f 89/89/89 92/92/92 91/91/91
f 88/88/88 93/93/93 90/90/90
f 91/91/91 93/93/93 88/88/88
f 90/90/90 93/93/93 94/94/94
f 94/94/94 93/93/93 95/95/95
f 95/95/95 96/96/96 94/94/94
f 96/96/96 95/95/95 97/97/97
f 98/98/98 91/91/91 92/92/92
f 99/99/99 98/98/98 92/92/92
f 100/100/100 93/93/93 91/91/91
f 93/93/93 100/100/100 95/95/95
f 95/95/95 101/101/101 97/97/97
f 101/101/101 102/102/102 97/97/97
f 101/101/101 103/103/103 102/102/102
f 95/95/95 104/104/104 101/101/101
f 95/95/95 100/100/100 104/104/104
f 98/98/98 105/105/105 91/91/91
f 91/91/91 105/105/105 100/100/100
f 101/101/101 106/106/106 103/103/103
f 104/104/104 106/106/106 101/101/101
f 106/106/106 104/104/104 107/107/107
f 108/108/108 104/104/104 100/100/100
f 108/108/108 107/107/107 104/104/104
f 109/109/109 100/100/100 105/105/105
f 108/108/108 100/100/100 109/109/109
f 105/105/105 110/110/110 109/109/109
f 98/98/98 110/110/110 105/105/105
f 109/109/109 110/110/110 108/108/108
f 98/98/98 111/111/111 110/110/110
f 98/98/98 99/99/99 111/111/111
f 112/112/112 108/108/108 110/110/110
f 108/108/108 112/112/112 107/107/107
f 111/111/111 112/112/112 110/110/110
f 99/99/99 113/113/113 111/111/111
f 113/113/113 99/99/99 114/114/114
f 112/112/112 111/111/111 115/115/115
f 115/115/115 111/111/111 113/113/113
f 116/116/116 112/112/112 115/115/115
f 115/115/115 113/113/113 116/116/116
f 116/116/116 107/107/107 112/112/112
f 113/113/113 114/114/114 117/117/117
f 113/113/113 117/117/117 116/116/116
f 114/114/114 118/118/118 117/117/117
f 118/118/118 119/119/119 117/117/117
f 118/118/118 120/120/120 119/119/119
f 119/119/119 120/120/120 121/121/121
f 117/117/117 122/122/122 116/116/116
f 119/119/119 122/122/122 117/117/117
f 107/107/107 116/116/116 123/123/123
f 123/123/123 116/116/116 122/122/122
f 124/124/124 122/122/122 119/119/119
f 119/119/119 121/121/121 124/124/124
f 123/123/123 122/122/122 125/125/125
f 124/124/124 125/125/125 122/122/122
f 107/107/107 123/123/123 125/125/125
f 125/125/125 124/124/124 121/121/121
f 125/125/125 126/126/126 107/107/107
f 126/126/126 106/106/106 107/107/107
f 127/127/127 125/125/125 121/121/121
f 126/126/126 125/125/125 127/127/127
f 127/127/127 121/121/121 128/128/128
f 128/128/128 103/103/103 127/127/127
f 126/126/126 129/129/129 106/106/106
f 129/129/129 126/126/126 127/127/127
f 129/129/129 127/127/127 103/103/103
f 129/129/129 103/103/103 106/106/106
f 132/132/132 131/131/131 130/130/130
f 133/133/133 131/131/131 132/132/132
f 132/132/132 130/130/130 134/134/134
f 134/134/134 130/130/130 135/135/135
f 132/132/132 136/136/136 133/133/133
f 136/136/136 137/137/137 133/133/133
f 136/136/136 132/132/132 138/138/138
f 138/138/138 132/132/132 134/134/134
f 135/135/135 139/139/139 134/134/134
f 139/139/139 135/135/135 140/140/140
f 137/137/137 136/136/136 141/141/141
f 138/138/138 141/141/141 136/136/136
f 134/134/134 142/142/142 138/138/138
f 139/139/139 142/142/142 134/134/134
f 143/143/143 139/139/139 140/140/140
f 140/140/140 144/144/144 143/143/143
f 141/141/141 138/138/138 145/145/145
f 138/138/138 142/142/142 145/145/145
f 139/139/139 146/146/146 142/142/142
f 143/143/143 146/146/146 139/139/139
f 144/144/144 147/147/147 143/143/143
f 148/148/148 147/147/147 144/144/144
f 142/142/142 149/149/149 145/145/145
f 149/149/149 142/142/142 146/146/146
f 143/143/143 150/150/150 146/146/146
f 150/150/150 143/143/143 147/147/147
f 146/146/146 150/150/150 149/149/149
f 147/147/147 148/148/148 151/151/151
f 152/152/152 151/151/151 148/148/148
f 147/147/147 153/153/153 150/150/150
f 153/153/153 149/149/149 150/150/150
f 151/151/151 153/153/153 147/147/147
f 149/149/149 154/154/154 145/145/145
f 149/149/149 153/153/153 154/154/154
f 145/145/145 154/154/154 141/141/141
f 155/155/155 151/151/151 152/152/152
f 152/152/152 156/156/156 155/155/155
f 157/157/157 153/153/153 151/151/151
f 157/157/157 151/151/151 155/155/155
f 154/154/154 153/153/153 157/157/157
f 156/156/156 158/158/158 155/155/155
f 155/155/155 158/158/158 157/157/157
f 154/154/154 157/157/157 159/159/159
f 158/158/158 159/159/159 157/157/157
f 160/160/160 141/141/141 154/154/154
f 160/160/160 154/154/154 159/159/159
f 156/156/156 161/161/161 158/158/158
f 162/162/162 161/161/161 156/156/156
f 161/161/161 162/162/162 163/163/163
f 158/158/158 164/164/164 159/159/159
f 164/164/164 160/160/160 159/159/159
f 161/161/161 164/164/164 158/158/158
f 165/165/165 141/141/141 160/160/160
f 165/165/165 160/160/160 164/164/164
f 137/137/137 141/141/141 165/165/165
f 161/161/161 163/163/163 166/166/166
f 164/164/164 161/161/161 166/166/166
f 167/167/167 166/166/166 163/163/163
f 168/168/168 164/164/164 166/166/166
f 164/164/164 168/168/168 165/165/165
f 169/169/169 166/166/166 167/167/167
f 168/168/168 166/166/166 169/169/169
f 169/169/169 165/165/165 168/168/168
f 169/169/169 167/167/167 170/170/170
f 171/171/171 137/137/137 165/165/165
f 169/169/169 171/171/171 165/165/165
f 170/170/170 171/171/171 169/169/169
f 171/171/171 172/172/172 137/137/137
f 170/170/170 172/172/172 171/171/171
