g ruinLightBase
v -1.0962838 -1.0958709 -1.4880615
v -1.0962838 1.0476011 -1.4880624
v -1.2006906 1.0534757 -1.3068314
v -1.1968883 -1.1020161 -1.3068314
v -1.2116795 1.0534757 -0.90930957
v -1.1741942 -1.1020161 -0.90930957
v -1.0962838 1.0476011 -0.72429234
v -1.0962838 -1.0958709 -0.74978733
v 1.1102316 -1.0958709 -0.7435706
v 1.1102316 1.0476011 -0.7230323
v 1.2116795 1.0534757 -0.90930957
v 1.1913513 -1.1020161 -0.90930957
v 1.209679 1.0534757 -1.3068314
v 1.1903054 -1.1020161 -1.3068314
v 1.1102316 1.0476011 -1.4880633
v 1.1102316 -1.0958709 -1.4880453
v -1.0962838 -1.0958709 -1.4880615
v 1.1102316 -1.0958709 -1.4880453
v 1.1102316 1.0476011 -1.4880633
v -1.0962838 1.0476011 -1.4880624
v 0.95662105 -1.0460932 -1.6314551
v -0.9300099 -1.0460955 -1.6314551
v -0.9300099 -1.0442957 -0.5361971
v 0.95662105 -1.0210775 -0.5361971
v -0.9300099 -1.0442957 -0.5361971
v -0.9300099 -1.0460955 -1.6314551
v -1.0460919 -0.9502202 -1.6314551
v -1.023281 -0.9502202 -0.5361971
v -1.0168579 0.9445075 -0.5361971
v -1.0460919 0.9445075 -1.6314551
v -0.9300099 1.0460955 -1.6314551
v -0.9300099 1.0177996 -0.5361971
v 0.95662105 1.0460906 -1.6314551
v 0.95662105 1.0460945 -0.5361971
v 1.0460919 0.9445075 -1.6314551
v 1.037735 0.9445075 -0.5361971
v 1.0460888 -0.9502202 -1.6314551
v 1.0409601 -0.9502202 -0.5361971
v 0.95662105 -1.0460932 -1.6314551
v 0.95662105 -1.0210775 -0.5361971
v -0.561511 1.042205 -0.53742313
v -0.38827085 1.4889812 -1.754381
v -0.38827085 1.242005 -0.5323493
v -0.561511 1.3581265 -1.7489909
v -0.5609448 0.56631184 -1.7489909
v -0.61302704 0.48910567 -0.5258421
v -0.43103886 0.37961373 -0.52068424
v -0.3878794 0.24880458 -1.754381
v 0.4208179 0.3788935 -0.52068424
v 0.37868866 0.2487995 -1.754381
v 0.6233554 0.48910567 -0.52584374
v 0.5609399 0.56631184 -1.7489909
v 0.5615098 1.3581265 -1.7489909
v 0.56150925 1.042205 -0.53742313
v 0.37907127 1.2420064 -0.5323475
v 0.37907127 1.4889872 -1.754381
v -0.38827085 1.242005 -0.5323493
v -0.38827085 1.4889812 -1.754381
v 0.37907127 1.4889872 -1.754381
v 0.37907127 1.2420064 -0.5323475
v 0.561511 -1.042205 -0.53742313
v 0.38827085 -1.4889812 -1.754381
v 0.38827085 -1.242005 -0.5323493
v 0.561511 -1.3581265 -1.7489909
v 0.5609448 -0.56631184 -1.7489909
v 0.61302704 -0.48910567 -0.5258421
v 0.43103886 -0.37961373 -0.52068424
v 0.3878794 -0.24880458 -1.754381
v -0.4208179 -0.3788935 -0.52068424
v -0.37868866 -0.2487995 -1.754381
v -0.6233554 -0.48910567 -0.52584374
v -0.5609399 -0.56631184 -1.7489909
v -0.5615098 -1.3581265 -1.7489909
v -0.56150925 -1.042205 -0.53742313
v -0.37907127 -1.2420064 -0.5323475
v -0.37907127 -1.4889872 -1.754381
v 0.38827085 -1.242005 -0.5323493
v 0.38827085 -1.4889812 -1.754381
v -0.37907127 -1.4889872 -1.754381
v -0.37907127 -1.2420064 -0.5323475
v -1.1024314 1.2085426 -0.90930957
v -1.2116795 1.0534757 -0.90930957
v -1.2006906 1.0534757 -1.3068314
v -1.0962838 1.0476011 -0.72429234
v 1.1102316 1.0476011 -0.7230323
v -1.1024314 1.1519538 -1.3068314
v -1.0962838 1.0476011 -1.4880624
v 1.1164575 1.1906154 -0.90930957
v 1.2116795 1.0534757 -0.90930957
v 1.209679 1.0534757 -1.3068314
v 1.1164575 1.1810828 -1.3068314
v 1.1102316 1.0476011 -1.4880633
v -0.9300099 0.9445075 -1.7720212
v 0.95662105 1.0460906 -1.6314551
v -0.9300099 1.0460955 -1.6314551
v -1.0460919 0.9445075 -1.6314551
v 0.95662105 0.9445075 -1.7514633
v 1.0460919 0.9445075 -1.6314551
v 1.0460888 -0.9502202 -1.6314551
v 0.95662105 -0.9502202 -1.754313
v 0.95662105 -1.0460932 -1.6314551
v -0.9300099 -1.0460955 -1.6314551
v -0.9300099 -0.9502202 -1.7508199
v -1.0460919 -0.9502202 -1.6314551
v -0.3878794 0.24880458 -1.754381
v 0.37868866 0.2487995 -1.754381
v 0.37868866 0.5641153 -1.9786958
v 0.5609399 0.56631184 -1.7489909
v 0.5615098 1.3581265 -1.7489909
v -0.3878794 0.5641153 -1.9786909
v -0.5609448 0.56631184 -1.7489909
v 0.37907127 1.3616781 -1.9786994
v 0.37907127 1.4889872 -1.754381
v -0.38827085 1.3616781 -1.9786885
v -0.561511 1.3581265 -1.7489909
v -0.38827085 1.4889812 -1.754381
v 0.3878794 -0.24880458 -1.754381
v -0.37868866 -0.2487995 -1.754381
v -0.37868866 -0.5641153 -1.9786958
v -0.5609399 -0.56631184 -1.7489909
v -0.5615098 -1.3581265 -1.7489909
v 0.3878794 -0.5641153 -1.9786909
v 0.5609448 -0.56631184 -1.7489909
v -0.37907127 -1.3616781 -1.9786994
v -0.37907127 -1.4889872 -1.754381
v 0.38827085 -1.3616781 -1.9786885
v 0.561511 -1.3581265 -1.7489909
v 0.38827085 -1.4889812 -1.754381
v -1.0962838 -1.0958709 -0.74978733
v 1.1102316 -1.0958709 -0.7435706
v 1.1164575 -1.1765755 -0.90930957
v 1.1913513 -1.1020161 -0.90930957
v -1.1024314 -1.2085426 -0.90930957
v -1.1741942 -1.1020161 -0.90930957
v 1.1164575 -1.189658 -1.3068314
v 1.1903054 -1.1020161 -1.3068314
v 1.1102316 -1.0958709 -1.4880453
v -1.1024314 -1.2070909 -1.3068314
v -1.1968883 -1.1020161 -1.3068314
v -1.0962838 -1.0958709 -1.4880615
v -0.9300099 1.0177996 -0.5361971
v 0.95662105 1.0460945 -0.5361971
v 0.89758587 0.88521904 -0.34327024
v 1.037735 0.9445075 -0.5361971
v -0.8709747 0.88521904 -0.35873893
v -1.0168579 0.9445075 -0.5361971
v -1.023281 -0.9502202 -0.5361971
v -0.8709747 -0.8909318 -0.35872734
v -0.9300099 -1.0442957 -0.5361971
v 0.95662105 -1.0210775 -0.5361971
v 0.89758587 -0.8909318 -0.41869384
v 1.0409601 -0.9502202 -0.5361971
v -0.43103886 0.37961373 -0.52068424
v -0.61302704 0.48910567 -0.5258421
v -0.43103886 0.48605987 -0.35810798
v 0.4208179 0.3788935 -0.52068424
v -0.561511 1.042205 -0.53742313
v 0.4208179 0.48605987 -0.36944067
v 0.6233554 0.48910567 -0.52584374
v -0.38827085 1.0431746 -0.33125862
v -0.38827085 1.242005 -0.5323493
v 0.37907127 1.0431746 -0.33120733
v 0.56150925 1.042205 -0.53742313
v 0.37907127 1.2420064 -0.5323475
v 0.43103886 -0.37961373 -0.52068424
v 0.61302704 -0.48910567 -0.5258421
v 0.43103886 -0.48605987 -0.35810798
v -0.4208179 -0.3788935 -0.52068424
v 0.561511 -1.042205 -0.53742313
v -0.4208179 -0.48605987 -0.36944067
v -0.6233554 -0.48910567 -0.52584374
v 0.38827085 -1.0431746 -0.33125862
v 0.38827085 -1.242005 -0.5323493
v -0.37907127 -1.0431746 -0.33120733
v -0.56150925 -1.042205 -0.53742313
v -0.37907127 -1.2420064 -0.5323475
vt 0.470025 0.395809
vt 0.472862 0.25999498
vt 0.46454903 0.259835
vt 0.461872 0.395674
vt 0.417484 0.258949
vt 0.41455898 0.394656
vt 0.408412 0.25881898
vt 0.40856 0.394577
vt 0.268398 0.39480302
vt 0.268166 0.25899398
vt 0.259716 0.259091
vt 0.261961 0.394856
vt 0.21262701 0.259846
vt 0.214925 0.39563
vt 0.204539 0.260025
vt 0.207687 0.395809
vt 0.48154598 0.272932
vt 0.48154598 0.41272599
vt 0.617347 0.41272599
vt 0.617347 0.272932
vt 0.925849 0.847146
vt 0.781815 0.847196
vt 0.78181404 0.98999196
vt 0.925867 0.989967
vt 0.484428 0.84620994
vt 0.48788702 0.703478
vt 0.47639 0.703237
vt 0.474312 0.845959
vt 0.329032 0.84376603
vt 0.331422 0.701052
vt 0.319586 0.700941
vt 0.32031298 0.84368604
vt 0.17510301 0.70179397
vt 0.176066 0.844586
vt 0.16476 0.70187795
vt 0.166135 0.84464407
vt 0.020013 0.703321
vt 0.021464 0.846096
vt 0.01 0.70343304
vt 0.013055 0.84620994
vt 0.773167 0.832188
vt 0.636673 0.84620994
vt 0.773277 0.84503096
vt 0.636567 0.833369
vt 0.635935 0.762289
vt 0.772554 0.761102
vt 0.772473 0.750316
vt 0.63590896 0.750094
vt 0.772626 0.67174196
vt 0.635986 0.671589
vt 0.772698 0.659824
vt 0.636088 0.658876
vt 0.636584 0.5878
vt 0.773185 0.588748
vt 0.773277 0.575409
vt 0.63667595 0.574461
vt 0.14660601 0.063559994
vt 0.01 0.063559994
vt 0.01 0.142062
vt 0.14660601 0.142062
vt 0.773167 0.832188
vt 0.636673 0.84620994
vt 0.773277 0.84503096
vt 0.636567 0.833369
vt 0.635935 0.762289
vt 0.772554 0.761102
vt 0.772473 0.750316
vt 0.63590896 0.750094
vt 0.772626 0.67174196
vt 0.635986 0.671589
vt 0.772698 0.659824
vt 0.636088 0.658876
vt 0.636584 0.5878
vt 0.773185 0.588748
vt 0.773277 0.575409
vt 0.63667595 0.574461
vt 0.14660601 0.063559994
vt 0.01 0.063559994
vt 0.01 0.142062
vt 0.14660601 0.142062
vt 0.350465 0.238815
vt 0.347071 0.249905
vt 0.39653 0.249075
vt 0.340251 0.242847
vt 0.339082 0.097863
vt 0.395275 0.240414
vt 0.403097 0.24294399
vt 0.348741 0.10148
vt 0.345546 0.091561
vt 0.395475 0.091561
vt 0.39339298 0.101301
vt 0.40215302 0.097304
vt 0.606363 0.100113
vt 0.61057204 0.24452099
vt 0.618887 0.097118
vt 0.610839 0.087413
vt 0.599436 0.240421
vt 0.602064 0.251454
vt 0.454831 0.244503
vt 0.45856002 0.23376799
vt 0.447305 0.236997
vt 0.45446298 0.089047
vt 0.46543598 0.092755
vt 0.462996 0.080403
vt 0.588004 0.751159
vt 0.50568503 0.75095
vt 0.507765 0.762729
vt 0.496348 0.761043
vt 0.49878398 0.835604
vt 0.585983 0.76308197
vt 0.596913 0.760872
vt 0.51033396 0.833584
vt 0.508524 0.84620994
vt 0.588673 0.833841
vt 0.599589 0.835422
vt 0.59086096 0.84620994
vt 0.588004 0.751159
vt 0.50568503 0.75095
vt 0.507765 0.762729
vt 0.496348 0.761043
vt 0.49878398 0.835604
vt 0.585983 0.76308197
vt 0.596913 0.760872
vt 0.51033396 0.833584
vt 0.508524 0.84620994
vt 0.588673 0.833841
vt 0.599589 0.835422
vt 0.59086096 0.84620994
vt 0.29351598 0.069722
vt 0.43567902 0.077637
vt 0.43430898 0.071430996
vt 0.44072598 0.073061
vt 0.296831 0.063003
vt 0.289122 0.065228
vt 0.436626 0.025853
vt 0.443742 0.024811
vt 0.439275 0.018644
vt 0.298083 0.018152
vt 0.289464 0.016124
vt 0.295689 0.01
vt 0.166445 0.091363
vt 0.15839599 0.237279
vt 0.169184 0.234717
vt 0.166159 0.244301
vt 0.175215 0.094406
vt 0.172683 0.084877
vt 0.319489 0.08951
vt 0.316725 0.099318
vt 0.326704 0.097413
vt 0.31888798 0.243426
vt 0.311824 0.24183
vt 0.31286398 0.24978401
vt 0.986218 0.120520994
vt 0.97747004 0.112717
vt 0.9752191 0.123237
vt 0.98665804 0.203039
vt 0.902479 0.114342004
vt 0.975574 0.201416
vt 0.97804505 0.21274799
vt 0.904677 0.125784
vt 0.891771 0.12336999
vt 0.904526 0.204229
vt 0.902905 0.216072
vt 0.891771 0.206499
vt 0.986218 0.120520994
vt 0.97747004 0.112717
vt 0.9752191 0.123237
vt 0.98665804 0.203039
vt 0.902479 0.114342004
vt 0.975574 0.201416
vt 0.97804505 0.21274799
vt 0.904677 0.125784
vt 0.891771 0.12336999
vt 0.904526 0.204229
vt 0.902905 0.216072
vt 0.891771 0.206499
vn -0.07415336 -0.06766254 -0.99494874
vn -0.07547772 0.06636488 -0.9949366
vn -0.9889072 0.07538494 -0.12798321
vn -0.9929109 -0.008596323 -0.11854906
vn -0.9892854 0.09770974 0.108475946
vn -0.99236274 -0.07931755 0.09447152
vn 0.0023851562 0.07827515 0.996929
vn -0.06540854 -0.069239736 0.99545336
vn 0.065957844 -0.058936566 0.99608034
vn 0.07309966 0.06934324 0.994911
vn 0.99083334 0.0794187 0.109279595
vn 0.99341774 -0.07161568 0.08940094
vn 0.9909759 0.07617284 -0.1102929
vn 0.9926641 -0.07514847 -0.09471424
vn 0.071657225 -0.0003336123 -0.9974292
vn 0.06597934 -0.065532595 -0.9956666
vn -0.07415336 -0.06766254 -0.99494874
vn 0.06597934 -0.065532595 -0.9956666
vn 0.071657225 -0.0003336123 -0.9974292
vn -0.07547772 0.06636488 -0.9949366
vn 0.08564842 -0.9963033 0.0066298945
vn -0.00010025978 -0.9967769 -0.080223255
vn -0.06774313 -0.9947054 0.07727946
vn 0.07699525 -0.9947877 0.06685261
vn -0.06774313 -0.9947054 0.07727946
vn -0.00010025978 -0.9967769 -0.080223255
vn -0.9882664 -0.108404785 -0.10760047
vn -0.9932667 -0.11568909 0.0061136372
vn -0.9902839 0.09444003 0.10207316
vn -0.98856634 0.10216251 -0.1109031
vn 0.00053248514 0.9953614 -0.09620494
vn -0.0076856003 0.99534214 0.09609874
vn 0.09943317 0.9905261 -0.0947161
vn 0.09773729 0.9907566 0.094068065
vn 0.99341714 0.07957525 -0.082401976
vn 0.9936651 0.07369221 0.084847346
vn 0.9961373 -0.08770546 0.004259232
vn 0.9940789 -0.074424475 0.07917139
vn 0.08564842 -0.9963033 0.0066298945
vn 0.07699525 -0.9947877 0.06685261
vn -0.99158317 0.08545251 0.097266644
vn -0.110471755 0.9857692 -0.12670904
vn -0.110374846 0.9860161 0.124858916
vn -0.9912088 0.09052686 -0.09648816
vn -0.99070555 -0.0966407 -0.09572427
vn -0.991248 -0.09347934 0.09321379
vn -0.08985511 -0.98952776 0.11296339
vn -0.10040084 -0.9886755 -0.11153694
vn 0.09382085 -0.98956746 0.10933342
vn 0.10194112 -0.9885649 -0.111118436
vn 0.98877746 -0.10433303 0.106929034
vn 0.9882896 -0.10624435 -0.109525464
vn 0.9885894 0.10315526 -0.10977289
vn 0.98852646 0.10276417 0.1107026
vn 0.114910156 0.99337596 -1.2796186E-06
vn 0.10972977 0.9858743 -0.12653576
vn -0.110374846 0.9860161 0.124858916
vn -0.110471755 0.9857692 -0.12670904
vn 0.10972977 0.9858743 -0.12653576
vn 0.114910156 0.99337596 -1.2796186E-06
vn 0.99158317 -0.08545251 0.097266644
vn 0.110471755 -0.9857692 -0.12670904
vn 0.110374846 -0.9860161 0.124858916
vn 0.9912088 -0.09052686 -0.09648816
vn 0.99070555 0.0966407 -0.09572427
vn 0.991248 0.09347934 0.09321379
vn 0.08985511 0.98952776 0.11296339
vn 0.10040084 0.9886755 -0.11153694
vn -0.09382085 0.98956746 0.10933342
vn -0.10194112 0.9885649 -0.111118436
vn -0.98877746 0.10433303 0.106929034
vn -0.9882896 0.10624435 -0.109525464
vn -0.9885894 -0.10315526 -0.10977289
vn -0.98852646 -0.10276417 0.1107026
vn -0.114910156 -0.99337596 -1.2796186E-06
vn -0.10972977 -0.9858743 -0.12653576
vn 0.110374846 -0.9860161 0.124858916
vn 0.110471755 -0.9857692 -0.12670904
vn -0.10972977 -0.9858743 -0.12653576
vn -0.114910156 -0.99337596 -1.2796186E-06
vn -0.0017937827 0.9870701 0.16027969
vn -0.9892854 0.09770974 0.108475946
vn -0.9889072 0.07538494 -0.12798321
vn 0.0023851562 0.07827515 0.996929
vn 0.07309966 0.06934324 0.994911
vn -0.0029903299 0.981927 -0.18923658
vn -0.07547772 0.06636488 -0.9949366
vn 0.116747566 0.98145413 0.15204582
vn 0.99083334 0.0794187 0.109279595
vn 0.9909759 0.07617284 -0.1102929
vn 0.113468 0.98052615 -0.1602919
vn 0.071657225 -0.0003336123 -0.9974292
vn 0.005392162 0.11266866 -0.993618
vn 0.09943317 0.9905261 -0.0947161
vn 0.00053248514 0.9953614 -0.09620494
vn -0.98856634 0.10216251 -0.1109031
vn 0.1192622 0.10915785 -0.986844
vn 0.99341714 0.07957525 -0.082401976
vn 0.9961373 -0.08770546 0.004259232
vn 0.12005145 -0.11573299 -0.98599875
vn 0.08564842 -0.9963033 0.0066298945
vn -0.00010025978 -0.9967769 -0.080223255
vn -0.0009351991 -0.12051261 -0.9927114
vn -0.9882664 -0.108404785 -0.10760047
vn -0.10040084 -0.9886755 -0.11153694
vn 0.10194112 -0.9885649 -0.111118436
vn 0.085178435 -0.09289693 -0.99202555
vn 0.9882896 -0.10624435 -0.109525464
vn 0.9885894 0.10315526 -0.10977289
vn -0.085780665 -0.09296079 -0.99196774
vn -0.99070555 -0.0966407 -0.09572427
vn 0.085135 0.092091575 -0.9921044
vn 0.10972977 0.9858743 -0.12653576
vn -0.08573293 0.09214942 -0.9920476
vn -0.9912088 0.09052686 -0.09648816
vn -0.110471755 0.9857692 -0.12670904
vn 0.10040084 0.9886755 -0.11153694
vn -0.10194112 0.9885649 -0.111118436
vn -0.085178435 0.09289693 -0.99202555
vn -0.9882896 0.10624435 -0.109525464
vn -0.9885894 -0.10315526 -0.10977289
vn 0.085780665 0.09296079 -0.99196774
vn 0.99070555 0.0966407 -0.09572427
vn -0.085135 -0.092091575 -0.9921044
vn -0.10972977 -0.9858743 -0.12653576
vn 0.08573293 -0.09214942 -0.9920476
vn 0.9912088 -0.09052686 -0.09648816
vn 0.110471755 -0.9857692 -0.12670904
vn -0.06540854 -0.069239736 0.99545336
vn 0.065957844 -0.058936566 0.99608034
vn 0.08662857 -0.9911498 0.10058627
vn 0.99341774 -0.07161568 0.08940094
vn 0.010383196 -0.99043614 0.13758107
vn -0.99236274 -0.07931755 0.09447152
vn 0.08869201 -0.9906431 -0.1037305
vn 0.9926641 -0.07514847 -0.09471424
vn 0.06597934 -0.065532595 -0.9956666
vn 0.010277557 -0.99202955 -0.12558529
vn -0.9929109 -0.008596323 -0.11854906
vn -0.07415336 -0.06766254 -0.99494874
vn -0.0076856003 0.99534214 0.09609874
vn 0.09773729 0.9907566 0.094068065
vn 0.0954402 0.07808759 0.9923677
vn 0.9936651 0.07369221 0.084847346
vn -0.00013759342 0.08515326 0.9963678
vn -0.9902839 0.09444003 0.10207316
vn -0.9932667 -0.11568909 0.0061136372
vn 0.0128963785 -0.092091575 0.995667
vn -0.06774313 -0.9947054 0.07727946
vn 0.07699525 -0.9947877 0.06685261
vn 0.08951981 -0.07179559 0.99339396
vn 0.9940789 -0.074424475 0.07917139
vn -0.08985511 -0.98952776 0.11296339
vn -0.991248 -0.09347934 0.09321379
vn -0.08595844 -0.1030296 0.99095714
vn 0.09382085 -0.98956746 0.10933342
vn -0.99158317 0.08545251 0.097266644
vn 0.08960771 -0.10075381 0.99086785
vn 0.98877746 -0.10433303 0.106929034
vn -0.091153875 0.093369484 0.99145
vn -0.110374846 0.9860161 0.124858916
vn 0.0919962 0.09312591 0.99139506
vn 0.98852646 0.10276417 0.1107026
vn 0.114910156 0.99337596 -1.2796186E-06
vn 0.08985511 0.98952776 0.11296339
vn 0.991248 0.09347934 0.09321379
vn 0.08595844 0.1030296 0.99095714
vn -0.09382085 0.98956746 0.10933342
vn 0.99158317 -0.08545251 0.097266644
vn -0.08960771 0.10075381 0.99086785
vn -0.98877746 0.10433303 0.106929034
vn 0.091153875 -0.093369484 0.99145
vn 0.110374846 -0.9860161 0.124858916
vn -0.0919962 -0.09312591 0.99139506
vn -0.98852646 -0.10276417 0.1107026
vn -0.114910156 -0.99337596 -1.2796186E-06
g ruinLightBase_0
f 3/3/3 2/2/2 1/1/1
f 4/4/4 3/3/3 1/1/1
f 5/5/5 3/3/3 4/4/4
f 6/6/6 5/5/5 4/4/4
f 5/5/5 6/6/6 7/7/7
f 6/6/6 8/8/8 7/7/7
f 8/8/8 9/9/9 7/7/7
f 9/9/9 10/10/10 7/7/7
f 10/10/10 9/9/9 11/11/11
f 9/9/9 12/12/12 11/11/11
f 11/11/11 12/12/12 13/13/13
f 12/12/12 14/14/14 13/13/13
f 13/13/13 14/14/14 15/15/15
f 14/14/14 16/16/16 15/15/15
f 19/19/19 18/18/18 17/17/17
f 20/20/20 19/19/19 17/17/17
f 23/23/23 22/22/22 21/21/21
f 24/24/24 23/23/23 21/21/21
f 27/27/27 26/26/26 25/25/25
f 28/28/28 27/27/27 25/25/25
f 28/28/28 29/29/29 27/27/27
f 29/29/29 30/30/30 27/27/27
f 30/30/30 29/29/29 31/31/31
f 29/29/29 32/32/32 31/31/31
f 31/31/31 32/32/32 33/33/33
f 32/32/32 34/34/34 33/33/33
f 33/33/33 34/34/34 35/35/35
f 34/34/34 36/36/36 35/35/35
f 37/37/37 35/35/35 36/36/36
f 38/38/38 37/37/37 36/36/36
f 37/37/37 38/38/38 39/39/39
f 38/38/38 40/40/40 39/39/39
f 43/43/43 42/42/42 41/41/41
f 42/42/42 44/44/44 41/41/41
f 41/41/41 44/44/44 45/45/45
f 46/46/46 41/41/41 45/45/45
f 47/47/47 46/46/46 45/45/45
f 48/48/48 47/47/47 45/45/45
f 49/49/49 47/47/47 48/48/48
f 50/50/50 49/49/49 48/48/48
f 49/49/49 50/50/50 51/51/51
f 50/50/50 52/52/52 51/51/51
f 52/52/52 53/53/53 51/51/51
f 53/53/53 54/54/54 51/51/51
f 55/55/55 54/54/54 53/53/53
f 56/56/56 55/55/55 53/53/53
f 59/59/59 58/58/58 57/57/57
f 60/60/60 59/59/59 57/57/57
f 63/63/63 62/62/62 61/61/61
f 62/62/62 64/64/64 61/61/61
f 61/61/61 64/64/64 65/65/65
f 66/66/66 61/61/61 65/65/65
f 67/67/67 66/66/66 65/65/65
f 68/68/68 67/67/67 65/65/65
f 69/69/69 67/67/67 68/68/68
f 70/70/70 69/69/69 68/68/68
f 69/69/69 70/70/70 71/71/71
f 70/70/70 72/72/72 71/71/71
f 72/72/72 73/73/73 71/71/71
f 73/73/73 74/74/74 71/71/71
f 75/75/75 74/74/74 73/73/73
f 76/76/76 75/75/75 73/73/73
f 79/79/79 78/78/78 77/77/77
f 80/80/80 79/79/79 77/77/77
f 83/83/83 82/82/82 81/81/81
f 81/81/81 82/82/82 84/84/84
f 84/84/84 85/85/85 81/81/81
f 86/86/86 83/83/83 81/81/81
f 87/87/87 83/83/83 86/86/86
f 85/85/85 88/88/88 81/81/81
f 81/81/81 88/88/88 86/86/86
f 88/88/88 85/85/85 89/89/89
f 88/88/88 89/89/89 90/90/90
f 86/86/86 91/91/91 87/87/87
f 88/88/88 91/91/91 86/86/86
f 91/91/91 88/88/88 90/90/90
f 91/91/91 92/92/92 87/87/87
f 90/90/90 92/92/92 91/91/91
f 95/95/95 94/94/94 93/93/93
f 93/93/93 96/96/96 95/95/95
f 94/94/94 97/97/97 93/93/93
f 94/94/94 98/98/98 97/97/97
f 97/97/97 98/98/98 99/99/99
f 100/100/100 97/97/97 99/99/99
f 93/93/93 97/97/97 100/100/100
f 100/100/100 99/99/99 101/101/101
f 100/100/100 101/101/101 102/102/102
f 96/96/96 93/93/93 103/103/103
f 103/103/103 93/93/93 100/100/100
f 103/103/103 100/100/100 102/102/102
f 104/104/104 96/96/96 103/103/103
f 102/102/102 104/104/104 103/103/103
f 107/107/107 106/106/106 105/105/105
f 107/107/107 108/108/108 106/106/106
f 109/109/109 108/108/108 107/107/107
f 110/110/110 107/107/107 105/105/105
f 105/105/105 111/111/111 110/110/110
f 112/112/112 109/109/109 107/107/107
f 112/112/112 107/107/107 110/110/110
f 113/113/113 109/109/109 112/112/112
f 110/110/110 111/111/111 114/114/114
f 114/114/114 112/112/112 110/110/110
f 113/113/113 112/112/112 114/114/114
f 111/111/111 115/115/115 114/114/114
f 116/116/116 113/113/113 114/114/114
f 114/114/114 115/115/115 116/116/116
f 119/119/119 118/118/118 117/117/117
f 119/119/119 120/120/120 118/118/118
f 121/121/121 120/120/120 119/119/119
f 122/122/122 119/119/119 117/117/117
f 117/117/117 123/123/123 122/122/122
f 124/124/124 121/121/121 119/119/119
f 124/124/124 119/119/119 122/122/122
f 125/125/125 121/121/121 124/124/124
f 122/122/122 123/123/123 126/126/126
f 126/126/126 124/124/124 122/122/122
f 125/125/125 124/124/124 126/126/126
f 123/123/123 127/127/127 126/126/126
f 128/128/128 125/125/125 126/126/126
f 126/126/126 127/127/127 128/128/128
f 131/131/131 130/130/130 129/129/129
f 132/132/132 130/130/130 131/131/131
f 133/133/133 131/131/131 129/129/129
f 129/129/129 134/134/134 133/133/133
f 132/132/132 131/131/131 135/135/135
f 135/135/135 131/131/131 133/133/133
f 136/136/136 132/132/132 135/135/135
f 135/135/135 137/137/137 136/136/136
f 133/133/133 134/134/134 138/138/138
f 138/138/138 135/135/135 133/133/133
f 137/137/137 135/135/135 138/138/138
f 134/134/134 139/139/139 138/138/138
f 140/140/140 137/137/137 138/138/138
f 138/138/138 139/139/139 140/140/140
f 143/143/143 142/142/142 141/141/141
f 143/143/143 144/144/144 142/142/142
f 145/145/145 143/143/143 141/141/141
f 141/141/141 146/146/146 145/145/145
f 146/146/146 147/147/147 145/145/145
f 147/147/147 148/148/148 145/145/145
f 145/145/145 148/148/148 143/143/143
f 148/148/148 147/147/147 149/149/149
f 149/149/149 150/150/150 148/148/148
f 143/143/143 151/151/151 144/144/144
f 148/148/148 151/151/151 143/143/143
f 150/150/150 151/151/151 148/148/148
f 151/151/151 152/152/152 144/144/144
f 150/150/150 152/152/152 151/151/151
f 155/155/155 154/154/154 153/153/153
f 153/153/153 156/156/156 155/155/155
f 157/157/157 154/154/154 155/155/155
f 156/156/156 158/158/158 155/155/155
f 156/156/156 159/159/159 158/158/158
f 160/160/160 157/157/157 155/155/155
f 155/155/155 158/158/158 160/160/160
f 161/161/161 157/157/157 160/160/160
f 158/158/158 159/159/159 162/162/162
f 158/158/158 162/162/162 160/160/160
f 160/160/160 162/162/162 161/161/161
f 159/159/159 163/163/163 162/162/162
f 162/162/162 164/164/164 161/161/161
f 162/162/162 163/163/163 164/164/164
f 167/167/167 166/166/166 165/165/165
f 165/165/165 168/168/168 167/167/167
f 169/169/169 166/166/166 167/167/167
f 168/168/168 170/170/170 167/167/167
f 168/168/168 171/171/171 170/170/170
f 172/172/172 169/169/169 167/167/167
f 167/167/167 170/170/170 172/172/172
f 173/173/173 169/169/169 172/172/172
f 170/170/170 171/171/171 174/174/174
f 170/170/170 174/174/174 172/172/172
f 172/172/172 174/174/174 173/173/173
f 171/171/171 175/175/175 174/174/174
f 174/174/174 176/176/176 173/173/173
f 174/174/174 175/175/175 176/176/176
