g ruinPlatform01_COL
v -5.667743 -6.3828716 4.375782
v -5.3271823 -6.610008 5.5908685
v -4.463224 -6.584159 5.5647755
v -4.401211 -6.6077166 4.4171386
v -6.022923 -6.829679 1.4558035
v -0.87925893 -6.0963817 5.494425
v -4.3751793 -7.0257273 1.4831724
v -5.9834046 -6.994108 -1.2073917
v -1.4217354 -6.5857034 4.340881
v 0.60038024 -6.1158547 5.541094
v -4.375895 -7.057562 -1.2784051
v -5.732346 -6.4568396 -3.6417432
v -1.4445951 -6.4697213 1.4499351
v 1.461805 -6.7266335 4.159494
v 4.442439 -6.226269 5.776522
v -3.6162066 -6.524445 -3.6427078
v -5.7633195 -6.4562583 -5.7806134
v -1.4578292 -6.8509073 -1.4668227
v 1.4552882 -6.522667 1.4554068
v 4.3843675 -6.0865226 4.4056544
v 5.8741083 -6.1428514 5.732939
v 5.933654 -6.212882 4.372994
v 4.390782 -6.768651 1.3208696
v 5.987319 -6.6809287 1.1942093
v -3.5862303 -6.511638 -5.627409
v -5.9466643 -4.008921 -6.28961
v -1.4356202 -6.0793986 -4.2576323
v 1.4569079 -7.0145764 -1.3879944
v 4.385111 -6.9536343 -1.4608929
v 5.978804 -6.7891417 -1.4522357
v -4.5012336 -3.8038063 -6.1970477
v -6.7880077 -1.7436261 -6.432142
v -1.4574724 -5.7814527 -5.4313235
v 1.4439824 -7.0606756 -3.9777687
v 4.437489 -6.5775256 -4.4203196
v 5.5782537 -6.6434355 -4.544587
v -4.450519 -2.2190835 -6.7288303
v -6.4938097 -0.2844402 -6.6865973
v -0.4173783 -4.459071 -6.4447384
v 1.4431627 -6.3346252 -5.574763
v 4.3918924 -6.4351134 -5.6463165
v 5.5990477 -6.4450703 -5.497951
v -4.4434032 -0.29452336 -6.8572974
v -6.925576 -0.29725966 -4.5405216
v -1.4998038 -1.911672 -6.805192
v 0.88324934 -4.4168286 -6.5106773
v 3.5682802 -3.6022563 -6.6457696
v 6.444433 -3.3410153 -6.07602
v -4.3958926 0.2930923 -4.3911004
v -7.373731 -0.1887342 -0.5138464
v -1.4365997 -0.2395399 -6.7083464
v 1.946543 -2.1614296 -7.1158504
v 3.7609718 -2.171658 -7.0069513
v 6.449781 -1.7701002 -6.6031823
v -4.388904 0.23101863 -1.4632161
v -6.9127417 -0.13612117 1.3633705
v -1.4628543 0.17692 -4.384805
v 1.4255956 -0.2203534 -6.660405
v 4.4245434 -0.3138003 -6.9090934
v 6.351979 -0.23934497 -6.77909
v -4.3886633 0.21610835 1.4634116
v -7.0917263 -0.25585818 4.6063113
v -1.4631857 0.2206599 -1.4632713
v 1.4632746 0.23150785 -4.389426
v 4.3872066 0.3241815 -4.3883896
v 6.970315 -0.21625389 -4.521546
v -4.3895316 0.21434201 4.3885503
v -6.6317673 -0.34836596 6.710572
v -1.4632668 0.22068866 1.4632018
v 1.463242 0.21868995 -1.4632231
v 4.3877573 0.21440066 -1.4629616
v 6.9627976 -0.14783764 -1.4465284
v 1.4632161 0.22262901 1.4632434
v 4.3888497 0.21106784 1.4630003
v 6.9693475 -0.15775084 1.4521295
v -1.4633893 0.19604625 4.3876786
v 1.4630219 0.23657495 4.389513
v 4.390943 0.27309835 4.3886995
v 6.913344 -0.14797531 4.504552
v -4.3661294 -0.48748875 6.7078757
v -1.4618105 -0.17736606 6.6393266
v 1.4277934 -0.22721069 6.830309
v 4.5575614 -0.117299266 6.8919353
v 6.381939 -0.22573975 6.692662
v -6.685779 -1.7146282 6.673949
v -4.578163 -2.0872338 6.670542
v -1.4774587 -1.9791524 7.058987
v 1.4516264 -1.9631244 7.1041317
v 4.5977182 -1.8983651 7.0607705
v -7.1584983 -1.9942744 4.6298976
v -7.0917263 -0.25585818 4.6063113
v 6.6881504 -1.6299841 6.8242607
v 6.913344 -0.14797531 4.504552
v -7.0399218 -2.0052407 1.4556063
v -6.9127417 -0.13612117 1.3633705
v 7.2609625 -1.7050675 4.4109297
v 6.9693475 -0.15775084 1.4521295
v -7.557456 -2.0529754 -0.51911885
v -7.373731 -0.1887342 -0.5138464
v 7.259655 -1.7514377 1.5002009
v 6.9627976 -0.14783764 -1.4465284
v -7.0498986 -2.054106 -4.3434916
v -6.925576 -0.29725966 -4.5405216
v -6.7880077 -1.7436261 -6.432142
v -6.4938097 -0.2844402 -6.6865973
v -5.9466643 -4.008921 -6.28961
v -6.349931 -3.6456535 -4.429068
v -5.7633195 -6.4562583 -5.7806134
v -5.732346 -6.4568396 -3.6417432
v -6.4754124 -3.7530596 -1.960735
v -5.9834046 -6.994108 -1.2073917
v -5.8340325 -4.5048704 1.4096456
v -6.022923 -6.829679 1.4558035
v -5.6386356 -4.439488 4.329312
v -5.667743 -6.3828716 4.375782
v -6.1396575 -3.457727 5.9503946
v -5.3271823 -6.610008 5.5908685
v -4.4706826 -4.3825507 5.6634073
v -4.463224 -6.584159 5.5647755
v -0.98856515 -4.2751865 6.0991855
v -0.87925893 -6.0963817 5.494425
v 0.7370799 -4.258764 6.0817533
v 0.60038024 -6.1158547 5.541094
v 3.951783 -4.432412 6.3506174
v 4.442439 -6.226269 5.776522
v 5.8559995 -4.451243 5.866179
v 5.8741083 -6.1428514 5.732939
v 5.7363815 -4.473427 4.340817
v 5.933654 -6.212882 4.372994
v 6.059096 -4.4649653 1.1942098
v 5.987319 -6.6809287 1.1942093
v 7.1480985 -1.5964481 -1.4494607
v 6.970315 -0.21625389 -4.521546
v 6.067727 -4.504863 -1.454328
v 5.978804 -6.7891417 -1.4522357
v 7.144183 -2.0132973 -4.4832697
v 6.351979 -0.23934497 -6.77909
v 6.449781 -1.7701002 -6.6031823
v 6.002411 -4.315812 -4.520157
v 5.5782537 -6.6434355 -4.544587
v 6.444433 -3.3410153 -6.07602
v 5.5990477 -6.4450703 -5.497951
vt 0.375 0.95000005
vt 0.375 1
vt 0.425 1
vt 0.425 0.95000005
vt 0.375 0.90000004
vt 0.47500002 1
vt 0.425 0.90000004
vt 0.375 0.85
vt 0.47500002 0.95000005
vt 0.52500004 1
vt 0.425 0.85
vt 0.375 0.8
vt 0.47500002 0.90000004
vt 0.52500004 0.95000005
vt 0.57500005 1
vt 0.425 0.8
vt 0.375 0.75
vt 0.47500002 0.85
vt 0.52500004 0.90000004
vt 0.57500005 0.95000005
vt 0.62500006 1
vt 0.62500006 0.95000005
vt 0.57500005 0.90000004
vt 0.62500006 0.90000004
vt 0.425 0.75
vt 0.375 0.6666667
vt 0.47500002 0.8
vt 0.52500004 0.85
vt 0.57500005 0.85
vt 0.62500006 0.85
vt 0.425 0.6666667
vt 0.375 0.5833334
vt 0.47500002 0.75
vt 0.52500004 0.8
vt 0.57500005 0.8
vt 0.62500006 0.8
vt 0.425 0.5833334
vt 0.375 0.50000006
vt 0.47500002 0.6666667
vt 0.52500004 0.75
vt 0.57500005 0.75
vt 0.62500006 0.75
vt 0.425 0.50000006
vt 0.375 0.45000005
vt 0.47500002 0.5833334
vt 0.52500004 0.6666667
vt 0.57500005 0.6666667
vt 0.62500006 0.6666667
vt 0.425 0.45000005
vt 0.375 0.40000004
vt 0.47500002 0.50000006
vt 0.52500004 0.5833334
vt 0.57500005 0.5833334
vt 0.62500006 0.5833334
vt 0.425 0.40000004
vt 0.375 0.35000002
vt 0.47500002 0.45000005
vt 0.52500004 0.50000006
vt 0.57500005 0.50000006
vt 0.62500006 0.50000006
vt 0.425 0.35000002
vt 0.375 0.3
vt 0.47500002 0.40000004
vt 0.52500004 0.45000005
vt 0.57500005 0.45000005
vt 0.62500006 0.45000005
vt 0.425 0.3
vt 0.375 0.25
vt 0.47500002 0.35000002
vt 0.52500004 0.40000004
vt 0.57500005 0.40000004
vt 0.62500006 0.40000004
vt 0.52500004 0.35000002
vt 0.57500005 0.35000002
vt 0.62500006 0.35000002
vt 0.47500002 0.3
vt 0.52500004 0.3
vt 0.57500005 0.3
vt 0.62500006 0.3
vt 0.425 0.25
vt 0.47500002 0.25
vt 0.52500004 0.25
vt 0.57500005 0.25
vt 0.62500006 0.25
vt 0.375 0.16666667
vt 0.425 0.16666667
vt 0.47500002 0.16666667
vt 0.52500004 0.16666667
vt 0.57500005 0.16666667
vt 0.32500002 0.16666667
vt 0.32500002 0.25
vt 0.62500006 0.16666667
vt 0.67499995 0.25
vt 0.275 0.16666667
vt 0.275 0.25
vt 0.67499995 0.16666667
vt 0.72499996 0.25
vt 0.225 0.16666667
vt 0.225 0.25
vt 0.72499996 0.16666667
vt 0.775 0.25
vt 0.175 0.16666667
vt 0.175 0.25
vt 0.125 0.16666667
vt 0.125 0.25
vt 0.125 0.083333336
vt 0.175 0.083333336
vt 0.125 0
vt 0.175 0
vt 0.225 0.083333336
vt 0.225 0
vt 0.275 0.083333336
vt 0.275 0
vt 0.32500002 0.083333336
vt 0.32500002 0
vt 0.375 0.083333336
vt 0.375 0
vt 0.425 0.083333336
vt 0.425 0
vt 0.47500002 0.083333336
vt 0.47500002 0
vt 0.52500004 0.083333336
vt 0.52500004 0
vt 0.57500005 0.083333336
vt 0.57500005 0
vt 0.62500006 0.083333336
vt 0.62500006 0
vt 0.67499995 0.083333336
vt 0.67499995 0
vt 0.72499996 0.083333336
vt 0.72499996 0
vt 0.775 0.16666667
vt 0.825 0.25
vt 0.775 0.083333336
vt 0.775 0
vt 0.825 0.16666667
vt 0.875 0.25
vt 0.875 0.16666667
vt 0.825 0.083333336
vt 0.825 0
vt 0.875 0.083333336
vt 0.875 0
vn -0.8883247 -0.45006412 0.09122286
vn -0.5904871 -0.4291426 0.68349224
vn 0.020922057 -0.51839143 0.8548875
vn 0.022965306 -0.9945627 0.101576336
vn -0.86803293 -0.48170102 0.12034533
vn -0.010566464 -0.5607061 0.82794744
vn 0.038098063 -0.9966145 0.07285679
vn -0.82689047 -0.56180793 -0.024978938
vn 0.039205212 -0.99590683 0.081439465
vn -0.027684147 -0.6517354 0.75794095
vn 0.04440162 -0.996539 -0.07027482
vn -0.755953 -0.6415094 -0.13038705
vn 0.039763898 -0.99765515 0.05570467
vn 0.02502898 -0.99612707 0.08428759
vn 0.026521822 -0.6794164 0.73327345
vn 0.06297778 -0.9847706 -0.16205156
vn -0.5733628 -0.61152875 -0.5452409
vn -0.0048638815 -0.9995993 -0.027887946
vn -0.007933737 -0.99717593 0.074680515
vn 0.040157042 -0.9916107 0.12286396
vn 0.6346327 -0.5057132 0.5843761
vn 0.8038829 -0.58511674 0.10682072
vn 0.023837708 -0.99367493 0.10973524
vn 0.7930297 -0.60199726 0.09329111
vn 0.06478506 -0.7295093 -0.6808957
vn -0.62870455 -0.28965273 -0.72168684
vn -0.04495789 -0.97879034 -0.19987054
vn -0.040010545 -0.9989133 0.023901714
vn 0.039654486 -0.99911326 0.014147815
vn 0.8211164 -0.56928504 -0.041018106
vn -0.014500869 -0.23994334 -0.97067857
vn -0.73654985 -0.15992874 -0.6572041
vn -0.024228921 -0.67886686 -0.73386157
vn -0.062105935 -0.9845583 -0.16367014
vn 0.051361427 -0.98932695 -0.13636103
vn 0.8187406 -0.5690212 -0.07667347
vn -0.05126375 -0.14420164 -0.9882196
vn -0.45483714 0.6599623 -0.597974
vn -0.06709859 -0.3180564 -0.9456944
vn -0.057469137 -0.6942603 -0.71742594
vn 0.09223379 -0.5524544 -0.82842445
vn 0.55494255 -0.42937118 -0.712516
vn -0.056617226 0.7110188 -0.70089
vn -0.6318646 0.7672462 -0.10991085
vn -0.040420577 -0.080891155 -0.99590296
vn -0.04288138 -0.33158085 -0.9424517
vn 0.09589081 -0.3051611 -0.94746065
vn 0.62529206 -0.3326195 -0.70595616
vn -0.07029775 0.9946472 -0.07573054
vn -0.6585766 0.7525132 -0.00091494253
vn -0.005240856 0.73070395 -0.6826743
vn -0.024488341 -0.04198976 -0.99881786
vn 0.080041505 -0.10617965 -0.9911203
vn 0.63348955 -0.15188709 -0.75869715
vn -0.07847653 0.9969085 -0.0038603968
vn -0.5652704 0.8238938 0.040847123
vn 0.004721762 0.9959919 -0.0893193
vn -0.02334308 0.76521635 -0.6433498
vn 0.05853241 0.747428 -0.6617593
vn 0.45403144 0.66295975 -0.59526443
vn -0.068114325 0.99765354 0.0069184783
vn -0.6320011 0.7698762 0.08868656
vn 0.0034035607 0.9999943 -7.700745E-05
vn -0.011233326 0.9960077 -0.08855723
vn 0.05953791 0.9954501 -0.07439318
vn 0.62618285 0.7722481 -0.10736803
vn -0.06635441 0.99350256 0.09246442
vn -0.4053457 0.71038234 0.575371
vn -0.0009800704 0.9999975 0.002051301
vn -0.0053472943 0.9999788 0.0037191662
vn 0.07142662 0.99741626 0.007676905
vn 0.5796893 0.8148353 -0.0019493343
vn -0.0022025062 0.9999932 -0.0029850092
vn 0.06911435 0.9975936 -0.0054944437
vn 0.56428576 0.8255641 -0.0050586252
vn -0.012571481 0.99563885 0.09244032
vn -0.010268577 0.99699414 0.07679364
vn 0.05367836 0.99689615 0.05759006
vn 0.579513 0.8113102 0.077074856
vn -0.057944544 0.7345085 0.676121
vn -0.04206085 0.7739146 0.63189167
vn -0.022540268 0.7640797 0.64472795
vn 0.043147624 0.7867124 0.6158099
vn 0.46351978 0.7253001 0.5090081
vn -0.6302432 -0.24597305 0.73640394
vn -0.071657725 -0.23694277 0.9688774
vn -0.060921703 -0.17197028 0.9832166
vn -0.02579791 -0.13814464 0.990076
vn 0.060341857 -0.16581002 0.9843099
vn -0.961346 -0.26888362 0.05929209
vn -0.6320011 0.7698762 0.08868656
vn 0.7182874 -0.19345677 0.6683096
vn 0.579513 0.8113102 0.077074856
vn -0.9527745 -0.29630756 0.066502586
vn -0.5652704 0.8238938 0.040847123
vn 0.97296596 -0.21415971 0.0864464
vn 0.56428576 0.8255641 -0.0050586252
vn -0.9711546 -0.2359253 0.034611586
vn -0.6585766 0.7525132 -0.00091494253
vn 0.9740073 -0.22628191 0.0103004
vn 0.5796893 0.8148353 -0.0019493343
vn -0.9776393 -0.1664852 -0.12846781
vn -0.6318646 0.7672462 -0.10991085
vn -0.73654985 -0.15992874 -0.6572041
vn -0.45483714 0.6599623 -0.597974
vn -0.62870455 -0.28965273 -0.72168684
vn -0.9497797 -0.29455733 -0.10561496
vn -0.5733628 -0.61152875 -0.5452409
vn -0.755953 -0.6415094 -0.13038705
vn -0.9528003 -0.30312207 -0.016990658
vn -0.82689047 -0.56180793 -0.024978938
vn -0.9664936 -0.24428724 0.07882706
vn -0.86803293 -0.48170102 0.12034533
vn -0.96206486 -0.26899263 0.045543972
vn -0.8883247 -0.45006412 0.09122286
vn -0.6213388 -0.46069217 0.63379866
vn -0.5904871 -0.4291426 0.68349224
vn -0.03819829 -0.266531 0.9630691
vn 0.020922057 -0.51839143 0.8548875
vn -0.044655863 -0.32260963 0.94547814
vn -0.010566464 -0.5607061 0.82794744
vn -0.036808122 -0.33564755 0.94126827
vn -0.027684147 -0.6517354 0.75794095
vn 0.013695685 -0.30805436 0.9512701
vn 0.026521822 -0.6794164 0.73327345
vn 0.6941922 -0.35797235 0.6244621
vn 0.6346327 -0.5057132 0.5843761
vn 0.9627709 -0.26315495 0.061820384
vn 0.8038829 -0.58511674 0.10682072
vn 0.9676377 -0.25156352 0.019828696
vn 0.7930297 -0.60199726 0.09329111
vn 0.9811926 -0.1926971 -0.01135639
vn 0.62618285 0.7722481 -0.10736803
vn 0.9678403 -0.25024036 -0.025786635
vn 0.8211164 -0.56928504 -0.041018106
vn 0.97716856 -0.19839704 -0.076028556
vn 0.45403144 0.66295975 -0.59526443
vn 0.63348955 -0.15188709 -0.75869715
vn 0.96425927 -0.26382408 -0.024513861
vn 0.8187406 -0.5690212 -0.07667347
vn 0.62529206 -0.3326195 -0.70595616
vn 0.55494255 -0.42937118 -0.712516
g ruinPlatform01_COL_0
f 3/3/3 2/2/2 1/1/1
f 4/4/4 3/3/3 1/1/1
f 4/4/4 1/1/1 5/5/5
f 6/6/6 3/3/3 4/4/4
f 7/7/7 4/4/4 5/5/5
f 7/7/7 5/5/5 8/8/8
f 9/9/9 6/6/6 4/4/4
f 9/9/9 4/4/4 7/7/7
f 10/10/10 6/6/6 9/9/9
f 11/11/11 7/7/7 8/8/8
f 11/11/11 8/8/8 12/12/12
f 13/13/13 9/9/9 7/7/7
f 13/13/13 7/7/7 11/11/11
f 14/14/14 10/10/10 9/9/9
f 14/14/14 9/9/9 13/13/13
f 15/15/15 10/10/10 14/14/14
f 16/16/16 11/11/11 12/12/12
f 16/16/16 12/12/12 17/17/17
f 18/18/18 13/13/13 11/11/11
f 18/18/18 11/11/11 16/16/16
f 19/19/19 14/14/14 13/13/13
f 19/19/19 13/13/13 18/18/18
f 20/20/20 15/15/15 14/14/14
f 20/20/20 14/14/14 19/19/19
f 21/21/21 15/15/15 20/20/20
f 22/22/22 21/21/21 20/20/20
f 22/22/22 20/20/20 23/23/23
f 23/23/23 20/20/20 19/19/19
f 24/24/24 22/22/22 23/23/23
f 25/25/25 16/16/16 17/17/17
f 25/25/25 17/17/17 26/26/26
f 27/27/27 18/18/18 16/16/16
f 27/27/27 16/16/16 25/25/25
f 28/28/28 19/19/19 18/18/18
f 23/23/23 19/19/19 28/28/28
f 28/28/28 18/18/18 27/27/27
f 24/24/24 23/23/23 29/29/29
f 29/29/29 23/23/23 28/28/28
f 30/30/30 24/24/24 29/29/29
f 31/31/31 25/25/25 26/26/26
f 31/31/31 26/26/26 32/32/32
f 33/33/33 27/27/27 25/25/25
f 33/33/33 25/25/25 31/31/31
f 34/34/34 28/28/28 27/27/27
f 29/29/29 28/28/28 34/34/34
f 34/34/34 27/27/27 33/33/33
f 30/30/30 29/29/29 35/35/35
f 35/35/35 29/29/29 34/34/34
f 36/36/36 30/30/30 35/35/35
f 37/37/37 31/31/31 32/32/32
f 37/37/37 32/32/32 38/38/38
f 39/39/39 33/33/33 31/31/31
f 39/39/39 31/31/31 37/37/37
f 40/40/40 34/34/34 33/33/33
f 35/35/35 34/34/34 40/40/40
f 40/40/40 33/33/33 39/39/39
f 36/36/36 35/35/35 41/41/41
f 41/41/41 35/35/35 40/40/40
f 42/42/42 36/36/36 41/41/41
f 43/43/43 37/37/37 38/38/38
f 43/43/43 38/38/38 44/44/44
f 45/45/45 39/39/39 37/37/37
f 45/45/45 37/37/37 43/43/43
f 46/46/46 40/40/40 39/39/39
f 41/41/41 40/40/40 46/46/46
f 46/46/46 39/39/39 45/45/45
f 42/42/42 41/41/41 47/47/47
f 47/47/47 41/41/41 46/46/46
f 48/48/48 42/42/42 47/47/47
f 49/49/49 43/43/43 44/44/44
f 49/49/49 44/44/44 50/50/50
f 51/51/51 45/45/45 43/43/43
f 51/51/51 43/43/43 49/49/49
f 52/52/52 46/46/46 45/45/45
f 47/47/47 46/46/46 52/52/52
f 52/52/52 45/45/45 51/51/51
f 48/48/48 47/47/47 53/53/53
f 53/53/53 47/47/47 52/52/52
f 54/54/54 48/48/48 53/53/53
f 55/55/55 49/49/49 50/50/50
f 55/55/55 50/50/50 56/56/56
f 57/57/57 51/51/51 49/49/49
f 57/57/57 49/49/49 55/55/55
f 58/58/58 52/52/52 51/51/51
f 53/53/53 52/52/52 58/58/58
f 58/58/58 51/51/51 57/57/57
f 54/54/54 53/53/53 59/59/59
f 59/59/59 53/53/53 58/58/58
f 60/60/60 54/54/54 59/59/59
f 61/61/61 55/55/55 56/56/56
f 61/61/61 56/56/56 62/62/62
f 63/63/63 57/57/57 55/55/55
f 63/63/63 55/55/55 61/61/61
f 64/64/64 58/58/58 57/57/57
f 59/59/59 58/58/58 64/64/64
f 64/64/64 57/57/57 63/63/63
f 60/60/60 59/59/59 65/65/65
f 65/65/65 59/59/59 64/64/64
f 66/66/66 60/60/60 65/65/65
f 67/67/67 61/61/61 62/62/62
f 67/67/67 62/62/62 68/68/68
f 69/69/69 63/63/63 61/61/61
f 69/69/69 61/61/61 67/67/67
f 70/70/70 64/64/64 63/63/63
f 65/65/65 64/64/64 70/70/70
f 70/70/70 63/63/63 69/69/69
f 66/66/66 65/65/65 71/71/71
f 71/71/71 65/65/65 70/70/70
f 72/72/72 66/66/66 71/71/71
f 73/73/73 70/70/70 69/69/69
f 71/71/71 70/70/70 73/73/73
f 72/72/72 71/71/71 74/74/74
f 74/74/74 71/71/71 73/73/73
f 75/75/75 72/72/72 74/74/74
f 76/76/76 69/69/69 67/67/67
f 73/73/73 69/69/69 76/76/76
f 74/74/74 73/73/73 77/77/77
f 77/77/77 73/73/73 76/76/76
f 75/75/75 74/74/74 78/78/78
f 78/78/78 74/74/74 77/77/77
f 79/79/79 75/75/75 78/78/78
f 76/76/76 67/67/67 80/80/80
f 80/80/80 67/67/67 68/68/68
f 77/77/77 76/76/76 81/81/81
f 81/81/81 76/76/76 80/80/80
f 78/78/78 77/77/77 82/82/82
f 82/82/82 77/77/77 81/81/81
f 79/79/79 78/78/78 83/83/83
f 83/83/83 78/78/78 82/82/82
f 84/84/84 79/79/79 83/83/83
f 80/80/80 68/68/68 85/85/85
f 81/81/81 80/80/80 86/86/86
f 86/86/86 80/80/80 85/85/85
f 82/82/82 81/81/81 87/87/87
f 87/87/87 81/81/81 86/86/86
f 83/83/83 82/82/82 88/88/88
f 88/88/88 82/82/82 87/87/87
f 84/84/84 83/83/83 89/89/89
f 89/89/89 83/83/83 88/88/88
f 85/85/85 68/68/68 90/90/90
f 68/68/68 91/91/91 90/90/90
f 92/92/92 84/84/84 89/89/89
f 93/93/93 84/84/84 92/92/92
f 90/90/90 91/91/91 94/94/94
f 91/91/91 95/95/95 94/94/94
f 96/96/96 93/93/93 92/92/92
f 97/97/97 93/93/93 96/96/96
f 94/94/94 95/95/95 98/98/98
f 95/95/95 99/99/99 98/98/98
f 100/100/100 97/97/97 96/96/96
f 101/101/101 97/97/97 100/100/100
f 98/98/98 99/99/99 102/102/102
f 99/99/99 103/103/103 102/102/102
f 102/102/102 103/103/103 104/104/104
f 103/103/103 105/105/105 104/104/104
f 102/102/102 104/104/104 106/106/106
f 107/107/107 102/102/102 106/106/106
f 98/98/98 102/102/102 107/107/107
f 107/107/107 106/106/106 108/108/108
f 109/109/109 107/107/107 108/108/108
f 110/110/110 98/98/98 107/107/107
f 110/110/110 107/107/107 109/109/109
f 94/94/94 98/98/98 110/110/110
f 111/111/111 110/110/110 109/109/109
f 112/112/112 94/94/94 110/110/110
f 112/112/112 110/110/110 111/111/111
f 90/90/90 94/94/94 112/112/112
f 113/113/113 112/112/112 111/111/111
f 114/114/114 90/90/90 112/112/112
f 114/114/114 112/112/112 113/113/113
f 85/85/85 90/90/90 114/114/114
f 115/115/115 114/114/114 113/113/113
f 116/116/116 85/85/85 114/114/114
f 116/116/116 114/114/114 115/115/115
f 86/86/86 85/85/85 116/116/116
f 117/117/117 116/116/116 115/115/115
f 118/118/118 86/86/86 116/116/116
f 118/118/118 116/116/116 117/117/117
f 87/87/87 86/86/86 118/118/118
f 119/119/119 118/118/118 117/117/117
f 120/120/120 87/87/87 118/118/118
f 120/120/120 118/118/118 119/119/119
f 88/88/88 87/87/87 120/120/120
f 121/121/121 120/120/120 119/119/119
f 122/122/122 88/88/88 120/120/120
f 122/122/122 120/120/120 121/121/121
f 89/89/89 88/88/88 122/122/122
f 123/123/123 122/122/122 121/121/121
f 124/124/124 89/89/89 122/122/122
f 124/124/124 122/122/122 123/123/123
f 92/92/92 89/89/89 124/124/124
f 125/125/125 124/124/124 123/123/123
f 126/126/126 92/92/92 124/124/124
f 126/126/126 124/124/124 125/125/125
f 96/96/96 92/92/92 126/126/126
f 127/127/127 126/126/126 125/125/125
f 128/128/128 96/96/96 126/126/126
f 128/128/128 126/126/126 127/127/127
f 129/129/129 128/128/128 127/127/127
f 100/100/100 96/96/96 128/128/128
f 130/130/130 128/128/128 129/129/129
f 130/130/130 100/100/100 128/128/128
f 131/131/131 130/130/130 129/129/129
f 132/132/132 100/100/100 130/130/130
f 132/132/132 101/101/101 100/100/100
f 133/133/133 101/101/101 132/132/132
f 134/134/134 130/130/130 131/131/131
f 134/134/134 132/132/132 130/130/130
f 135/135/135 134/134/134 131/131/131
f 136/136/136 133/133/133 132/132/132
f 136/136/136 132/132/132 134/134/134
f 137/137/137 133/133/133 136/136/136
f 138/138/138 137/137/137 136/136/136
f 139/139/139 134/134/134 135/135/135
f 139/139/139 136/136/136 134/134/134
f 138/138/138 136/136/136 139/139/139
f 140/140/140 139/139/139 135/135/135
f 141/141/141 138/138/138 139/139/139
f 141/141/141 139/139/139 140/140/140
f 142/142/142 141/141/141 140/140/140
