g ruinWaterFall
v 0.5378906 -9.556738 1.0361999
v 0.63765866 -2.6809561 0.86768186
v 0.95427245 -9.459095 0.86768186
v 0.35942626 -2.6809556 0.97672606
v -0.5316211 -9.556738 1.0361999
v 0.55440795 -1.0601404 0.86768186
v -0.3552368 -2.6809556 0.97672606
v 0.31820557 -1.2588135 0.9212146
v -0.63765866 -2.6809561 0.86768186
v -0.95427245 -9.459095 0.86768186
v -0.31477904 -1.2588135 0.9212146
v -0.5545312 -1.0595921 0.86768186
v -0.53324705 -0.7505752 0.8187384
v -0.300719 -0.9497965 0.87227046
v -0.51107174 -0.47180688 0.6766992
v 0.30414551 -0.9497965 0.87227046
v 0.5331836 -0.7511234 0.8187384
v -0.29068726 -0.6710282 0.7302313
v -0.5066687 -0.25057513 0.45546752
v 0.29411376 -0.6710282 0.7302313
v 0.5112097 -0.4723551 0.6766992
v -0.27792114 -0.44979653 0.50899965
v -0.47879395 -0.10853563 0.19092895
v 0.28134766 -0.44979653 0.50899965
v 0.50663084 -0.25112334 0.45546752
v -0.2596814 -0.30775702 0.21600097
v -0.43260252 -0.07413021 0
v 0.2629175 -0.30775702 0.21600097
v 0.4787561 -0.10908385 0.19092895
v -0.23629883 -0.18444848 0
v 0.23927855 -0.18444848 0
v 0.43261963 -0.07463964 0
v 0.20425293 0.22781496 -0.47579223
v 0.4283081 0.09752711 -0.47579223
v -0.20143189 0.22781496 -0.47579223
v -0.42833862 0.097712345 -0.47579223
v 0.5378906 -9.5522375 1.0361999
v 0.95427245 -9.459095 0.86768186
v 0.63765866 -2.6809561 0.86768186
v 0.35942626 -2.6809556 0.97672606
v -0.5316211 -9.5522375 1.0361999
v 0.55440795 -1.0601404 0.86768186
v -0.3552368 -2.6809556 0.97672606
v 0.31820557 -1.2543136 0.9212146
v -0.63765866 -2.6809561 0.86768186
v -0.95427245 -9.459095 0.86768186
v -0.31477904 -1.2543136 0.9212146
v -0.5545312 -1.0595921 0.86768186
v -0.53324705 -0.7505752 0.8187384
v -0.300719 -0.9452967 0.87227046
v -0.51107174 -0.47180688 0.6766992
v 0.30414551 -0.9452967 0.87227046
v 0.5331836 -0.7511234 0.8187384
v -0.29068726 -0.6710282 0.7302313
v -0.5066687 -0.25057513 0.45546752
v 0.29411376 -0.6710282 0.7302313
v 0.5112097 -0.4723551 0.6766992
v -0.27792114 -0.44979653 0.50899965
v -0.47879395 -0.10853563 0.19092895
v 0.28134766 -0.44979653 0.50899965
v 0.50663084 -0.25112334 0.45546752
v -0.2596814 -0.30775702 0.21600097
v -0.43260252 -0.07413021 0
v 0.2629175 -0.30775702 0.21600097
v 0.4787561 -0.10908385 0.19092895
v -0.23629883 -0.18444848 0
v 0.23927855 -0.18444848 0
v 0.43261963 -0.07463964 0
v 0.20425293 0.22781496 -0.47579223
v 0.4283081 0.09752711 -0.47579223
v -0.20143189 0.22781496 -0.47579223
v -0.42833862 0.097712345 -0.47579223
vt 0.7104374 0.005157505
vt 0.84072775 0.5953563
vt 0.84072775 0.0048216833
vt 0.7104374 0.5953563
vt 0.29201537 0.005157505
vt 0.84048307 0.80672383
vt 0.29201537 0.5953563
vt 0.69915843 0.8064496
vt 0.15892965 0.5953563
vt 0.15892965 0.0048216833
vt 0.3032943 0.8064496
vt 0.15927961 0.8067246
vt 0.15927961 0.87321866
vt 0.3032943 0.86651707
vt 0.15927961 0.912061
vt 0.69915843 0.86651707
vt 0.84048307 0.8732002
vt 0.3032943 0.9081365
vt 0.15927961 0.9393674
vt 0.69915843 0.9081365
vt 0.84048307 0.91200495
vt 0.3032943 0.9307468
vt 0.15993495 0.96562433
vt 0.69915843 0.9307468
vt 0.84048307 0.9393114
vt 0.31411588 0.9452635
vt 0.16102095 0.96914065
vt 0.6882005 0.9452635
vt 0.840026 0.9655683
vt 0.33085346 0.95786583
vt 0.67127967 0.95786583
vt 0.8392696 0.96908855
vt 0.6462076 1
vt 0.8391989 0.9866843
vt 0.35581136 1
vt 0.16112119 0.9867033
vt 0.7104374 0.005157505
vt 0.84072775 0.0048216833
vt 0.84072775 0.5953563
vt 0.7104374 0.5953563
vt 0.29201537 0.005157505
vt 0.84048307 0.80672383
vt 0.29201537 0.5953563
vt 0.69915843 0.8064496
vt 0.15892965 0.5953563
vt 0.15892965 0.0048216833
vt 0.3032943 0.8064496
vt 0.15927961 0.8067246
vt 0.15927961 0.87321866
vt 0.3032943 0.86651707
vt 0.15927961 0.912061
vt 0.69915843 0.86651707
vt 0.84048307 0.8732002
vt 0.3032943 0.9081365
vt 0.15927961 0.9393674
vt 0.69915843 0.9081365
vt 0.84048307 0.91200495
vt 0.3032943 0.9307468
vt 0.15993495 0.96562433
vt 0.69915843 0.9307468
vt 0.84048307 0.9393114
vt 0.31411588 0.9452635
vt 0.16102095 0.96914065
vt 0.6882005 0.9452635
vt 0.840026 0.9655683
vt 0.33085346 0.95786583
vt 0.67127967 0.95786583
vt 0.8392696 0.96908855
vt 0.6462076 1
vt 0.8391989 0.9866843
vt 0.35581136 1
vt 0.16112119 0.9867033
vn 0.10160689 0.011189519 0.99476165
vn 0.35869086 0.019012561 0.93326277
vn 0.3688949 0.01742366 0.9293078
vn 0.105686374 0.014725341 0.9942905
vn -0.10133938 0.011151115 0.9947895
vn 0.2308478 0.0697839 0.9704842
vn -0.10527247 0.014675003 0.9943351
vn 0.09883001 0.051608816 0.9937651
vn -0.35407904 0.018793978 0.9350267
vn -0.36418512 0.017205505 0.93116766
vn -0.09820183 0.05149811 0.9938332
vn -0.22794162 0.06937728 0.9712
vn 0.09968679 0.36115348 0.92716265
vn -0.0039521195 0.28512582 0.9584819
vn 0.3488777 0.58950925 0.7285349
vn 0.0042749974 0.28515664 0.9584714
vn -0.10086702 0.36168662 0.9268272
vn 0.07693931 0.56405336 0.8221462
vn 0.5223911 0.6983854 0.48924983
vn -0.07678775 0.5640829 0.82214
vn -0.35257763 0.588962 0.7271952
vn 0.16040662 0.78717357 0.595506
vn 0.5522353 0.7321605 0.3987195
vn -0.16054438 0.7871328 0.5955228
vn -0.52688414 0.6960332 0.48778158
vn 0.19482712 0.8671399 0.45837843
vn 0.3634892 0.77935785 0.5103695
vn -0.19508061 0.8670016 0.4585322
vn -0.55644274 0.7292851 0.3981391
vn 0.10957829 0.7972182 0.59366304
vn -0.10944055 0.79709446 0.5938544
vn -0.36723828 0.77742547 0.5106327
vn 0.038752157 0.7786116 0.62630844
vn 0.4803819 0.82610995 0.294577
vn -0.038185067 0.7788567 0.6260385
vn -0.47525844 0.828879 0.29510832
vn -0.10216446 -0.011209308 -0.9947043
vn -0.3689911 -0.017432727 -0.92926943
vn -0.35879144 -0.019018143 -0.933224
vn -0.10570563 -0.014728316 -0.9942883
vn 0.10188618 -0.011170449 -0.99473333
vn -0.23268074 -0.06926013 -0.97008383
vn 0.105291545 -0.014677953 -0.994333
vn -0.09857267 -0.051570464 -0.99379265
vn 0.35417712 -0.01879944 -0.9349894
vn 0.36427903 -0.017214414 -0.9311307
vn 0.097948804 -0.051460706 -0.99386
vn 0.2297377 -0.068858445 -0.9708136
vn -0.09655084 -0.36216182 -0.92710125
vn 0.0045260927 -0.2869787 -0.9579262
vn -0.3487386 -0.59056437 -0.72774655
vn -0.0048530013 -0.2870108 -0.95791507
vn 0.09768439 -0.36270297 -0.92677087
vn -0.076790795 -0.5672939 -0.8199273
vn -0.52239114 -0.6983855 -0.4892498
vn 0.07663493 -0.56732893 -0.8199177
vn 0.35243657 -0.59001 -0.72641367
vn -0.16040662 -0.78717357 -0.595506
vn -0.5522353 -0.7321605 -0.3987195
vn 0.16054435 -0.78713286 -0.59552276
vn 0.52688414 -0.6960332 -0.48778158
vn -0.19482712 -0.8671399 -0.45837843
vn -0.3634892 -0.77935785 -0.5103695
vn 0.19508062 -0.8670016 -0.4585322
vn 0.5564426 -0.7292852 -0.39813903
vn -0.10957829 -0.7972182 -0.59366304
vn 0.10944055 -0.79709446 -0.5938544
vn 0.36723822 -0.77742547 -0.5106327
vn -0.038752172 -0.7786116 -0.62630844
vn -0.480382 -0.8261099 -0.294577
vn 0.038185067 -0.7788567 -0.6260385
vn 0.4752585 -0.828879 -0.29510826
g ruinWaterFall_0
f 3/3/3 2/2/2 1/1/1
f 2/2/2 4/4/4 1/1/1
f 1/1/1 4/4/4 5/5/5
f 2/2/2 6/6/6 4/4/4
f 4/4/4 7/7/7 5/5/5
f 6/6/6 8/8/8 4/4/4
f 4/4/4 8/8/8 7/7/7
f 7/7/7 9/9/9 5/5/5
f 9/9/9 10/10/10 5/5/5
f 7/7/7 11/11/11 9/9/9
f 8/8/8 11/11/11 7/7/7
f 11/11/11 12/12/12 9/9/9
f 13/13/13 12/12/12 11/11/11
f 14/14/14 13/13/13 11/11/11
f 14/14/14 11/11/11 8/8/8
f 15/15/15 13/13/13 14/14/14
f 16/16/16 8/8/8 6/6/6
f 16/16/16 14/14/14 8/8/8
f 17/17/17 16/16/16 6/6/6
f 18/18/18 15/15/15 14/14/14
f 18/18/18 14/14/14 16/16/16
f 19/19/19 15/15/15 18/18/18
f 20/20/20 16/16/16 17/17/17
f 20/20/20 18/18/18 16/16/16
f 21/21/21 20/20/20 17/17/17
f 22/22/22 19/19/19 18/18/18
f 22/22/22 18/18/18 20/20/20
f 23/23/23 19/19/19 22/22/22
f 24/24/24 20/20/20 21/21/21
f 24/24/24 22/22/22 20/20/20
f 25/25/25 24/24/24 21/21/21
f 26/26/26 23/23/23 22/22/22
f 26/26/26 22/22/22 24/24/24
f 27/27/27 23/23/23 26/26/26
f 28/28/28 24/24/24 25/25/25
f 28/28/28 26/26/26 24/24/24
f 29/29/29 28/28/28 25/25/25
f 30/30/30 27/27/27 26/26/26
f 30/30/30 26/26/26 28/28/28
f 31/31/31 28/28/28 29/29/29
f 31/31/31 30/30/30 28/28/28
f 32/32/32 31/31/31 29/29/29
f 32/32/32 33/33/33 31/31/31
f 31/31/31 33/33/33 30/30/30
f 32/32/32 34/34/34 33/33/33
f 33/33/33 35/35/35 30/30/30
f 30/30/30 35/35/35 27/27/27
f 35/35/35 36/36/36 27/27/27
f 39/39/39 38/38/38 37/37/37
f 40/40/40 39/39/39 37/37/37
f 40/40/40 37/37/37 41/41/41
f 42/42/42 39/39/39 40/40/40
f 43/43/43 40/40/40 41/41/41
f 44/44/44 42/42/42 40/40/40
f 44/44/44 40/40/40 43/43/43
f 45/45/45 43/43/43 41/41/41
f 46/46/46 45/45/45 41/41/41
f 47/47/47 43/43/43 45/45/45
f 47/47/47 44/44/44 43/43/43
f 48/48/48 47/47/47 45/45/45
f 48/48/48 49/49/49 47/47/47
f 49/49/49 50/50/50 47/47/47
f 47/47/47 50/50/50 44/44/44
f 49/49/49 51/51/51 50/50/50
f 44/44/44 52/52/52 42/42/42
f 50/50/50 52/52/52 44/44/44
f 52/52/52 53/53/53 42/42/42
f 51/51/51 54/54/54 50/50/50
f 50/50/50 54/54/54 52/52/52
f 51/51/51 55/55/55 54/54/54
f 52/52/52 56/56/56 53/53/53
f 54/54/54 56/56/56 52/52/52
f 56/56/56 57/57/57 53/53/53
f 55/55/55 58/58/58 54/54/54
f 54/54/54 58/58/58 56/56/56
f 55/55/55 59/59/59 58/58/58
f 56/56/56 60/60/60 57/57/57
f 58/58/58 60/60/60 56/56/56
f 60/60/60 61/61/61 57/57/57
f 59/59/59 62/62/62 58/58/58
f 58/58/58 62/62/62 60/60/60
f 59/59/59 63/63/63 62/62/62
f 60/60/60 64/64/64 61/61/61
f 62/62/62 64/64/64 60/60/60
f 64/64/64 65/65/65 61/61/61
f 63/63/63 66/66/66 62/62/62
f 62/62/62 66/66/66 64/64/64
f 64/64/64 67/67/67 65/65/65
f 66/66/66 67/67/67 64/64/64
f 67/67/67 68/68/68 65/65/65
f 69/69/69 68/68/68 67/67/67
f 69/69/69 67/67/67 66/66/66
f 70/70/70 68/68/68 69/69/69
f 71/71/71 69/69/69 66/66/66
f 71/71/71 66/66/66 63/63/63
f 72/72/72 71/71/71 63/63/63
