g sci_fi_table1
v -1.4425793 1.1118182 -0.5788801
v -1.4868493 1.067543 -0.5788801
v -1.4425793 1.067543 -0.6231539
v -1.4425793 1.1118183 0.57888037
v -1.4425793 1.0675433 0.6231551
v -1.4868493 1.067543 0.57888055
v 1.4425769 1.1118182 -0.5788801
v 1.4425769 1.067543 -0.6231539
v 1.4868493 1.067543 -0.5788801
v 1.4425769 1.1118182 0.57888055
v 1.4868493 1.067543 0.57888055
v 1.4425769 1.0675433 0.6231551
v -1.4425793 1.1118183 0.57888037
v -1.4868493 1.067543 0.57888055
v -1.4868493 1.067543 -0.5788801
v -1.4425793 1.1118182 -0.5788801
v -1.4868493 1.067543 -0.5788801
v -1.4868493 0.8680541 -0.5788801
v -1.4425793 0.8680541 -0.6231539
v -1.4425793 1.067543 -0.6231539
v -1.4317907 0.86805385 -0.52381706
v -1.4317907 0.07915481 -0.52381706
v -1.3875158 0.07915481 -0.5680919
v -1.3875158 0.868054 -0.5680919
v -1.4868493 1.067543 0.57888055
v -1.4868493 0.8680541 0.57888055
v -1.4868493 0.8680541 -0.5788801
v -1.4868493 1.067543 -0.5788801
v -1.4317907 0.86805385 -0.52381706
v -1.4317907 0.86805385 0.52381766
v -1.4317907 0.07915481 0.52381766
v -1.4317907 0.07915481 -0.52381706
v -1.2202137 0.07915481 -0.5680919
v -1.2202137 0.86805403 -0.5680921
v -1.3875158 0.868054 -0.5680919
v -1.3875158 0.07915481 -0.5680919
v -1.2202137 0.07915481 0.5680921
v -1.2202137 0.86805403 0.5680921
v -1.2202137 0.86805403 -0.5680921
v -1.2202137 0.07915481 -0.5680919
v -1.4425793 0.8680544 0.6231551
v -1.4868493 0.8680541 0.57888055
v -1.4868493 1.067543 0.57888055
v -1.4425793 1.0675433 0.6231551
v -1.4317907 0.86805385 0.52381766
v -1.3875158 0.86805385 0.5680921
v -1.3875158 0.07915481 0.5680921
v -1.4317907 0.07915481 0.52381766
v -1.3875158 0.07915481 0.5680921
v -1.3875158 0.86805385 0.5680921
v -1.2202137 0.86805403 0.5680921
v -1.2202137 0.07915481 0.5680921
v 1.4425769 1.1118182 -0.5788801
v 1.4868493 1.067543 -0.5788801
v 1.4868493 1.067543 0.57888055
v 1.4425769 1.1118182 0.57888055
v 1.4425769 1.067543 -0.6231539
v 1.4425769 0.8680541 -0.6231539
v 1.4868493 0.8680541 -0.5788801
v 1.4868493 1.067543 -0.5788801
v 1.4317907 0.86805385 -0.52381706
v 1.3875158 0.868054 -0.5680919
v 1.3875158 0.07915481 -0.5680919
v 1.4317907 0.07915481 -0.52381706
v 1.4868493 1.067543 -0.5788801
v 1.4868493 0.8680541 -0.5788801
v 1.4868493 0.8680541 0.57888055
v 1.4868493 1.067543 0.57888055
v 1.4317907 0.86805385 -0.52381706
v 1.4317907 0.07915481 -0.52381706
v 1.4317907 0.07915481 0.52381766
v 1.4317907 0.86805385 0.52381766
v 1.2202111 0.07915481 -0.5680919
v 1.3875158 0.07915481 -0.5680919
v 1.3875158 0.868054 -0.5680919
v 1.2202111 0.86805403 -0.5680919
v 1.2202111 0.07915481 0.5680921
v 1.2202111 0.07915481 -0.5680919
v 1.2202111 0.86805403 -0.5680919
v 1.2202111 0.868054 0.5680921
v 1.4868493 1.067543 0.57888055
v 1.4868493 0.8680541 0.57888055
v 1.4425769 0.8680544 0.6231551
v 1.4425769 1.0675433 0.6231551
v 1.4317907 0.86805385 0.52381766
v 1.4317907 0.07915481 0.52381766
v 1.3875158 0.07915481 0.5680921
v 1.3875158 0.86805385 0.5680921
v 1.3875158 0.07915481 0.5680921
v 1.2202111 0.07915481 0.5680921
v 1.2202111 0.868054 0.5680921
v 1.3875158 0.86805385 0.5680921
v -1.4425793 1.067543 -0.6231539
v 1.4425769 1.067543 -0.6231539
v 1.4425769 1.1118182 -0.5788801
v -1.4425793 1.1118182 -0.5788801
v -1.4425793 1.1118183 0.57888037
v -1.4425793 1.1118182 -0.5788801
v 1.4425769 1.1118182 -0.5788801
v 1.4425769 1.1118182 0.57888055
v 1.4425769 1.1118182 0.57888055
v 1.4425769 1.0675433 0.6231551
v -1.4425793 1.0675433 0.6231551
v -1.4425793 1.1118183 0.57888037
v 1.4425769 1.0675433 0.6231551
v 1.4425769 0.8680544 0.6231551
v -1.4425793 0.8680544 0.6231551
v -1.4425793 1.0675433 0.6231551
v -1.4425793 1.067543 -0.6231539
v -1.4425793 0.8680541 -0.6231539
v 1.4425769 0.8680541 -0.6231539
v 1.4425769 1.067543 -0.6231539
v 1.4768323 0.025190886 -0.5943836
v 1.4137048 0.025190886 -0.6446227
v 1.4137048 0 -0.6446227
v 1.4768323 0 -0.5943836
v 1.4768323 0.025190886 0.5943836
v 1.4768323 0.025190886 -0.5943836
v 1.4768323 0 -0.5943836
v 1.4768323 0 0.5943836
v 1.4137048 0.025190886 0.6446227
v 1.4768323 0.025190886 0.5943836
v 1.4768323 0 0.5943836
v 1.4137048 0 0.6446227
v 1.4137048 0 0.6446227
v 1.1751648 0 0.6446227
v 1.1751648 0.025190886 0.6446227
v 1.4137048 0.025190886 0.6446227
v 1.1751648 0 0.6446227
v 1.1751648 0 -0.6446227
v 1.1751648 0.025190886 -0.6446227
v 1.1751648 0.025190886 0.6446227
v 1.4137048 0 -0.6446227
v 1.4137048 0.025190886 -0.6446227
v 1.1751648 0.025190886 -0.6446227
v 1.1751648 0 -0.6446227
v 1.4317907 0.07915481 -0.52381706
v 1.3875158 0.07915481 -0.5680919
v 1.4137048 0.025190886 -0.6446227
v 1.4768323 0.025190886 -0.5943836
v 1.4317907 0.07915481 0.52381766
v 1.4317907 0.07915481 -0.52381706
v 1.4768323 0.025190886 -0.5943836
v 1.4768323 0.025190886 0.5943836
v 1.3875158 0.07915481 0.5680921
v 1.4317907 0.07915481 0.52381766
v 1.4768323 0.025190886 0.5943836
v 1.4137048 0.025190886 0.6446227
v 1.2202111 0.07915481 0.5680921
v 1.3875158 0.07915481 0.5680921
v 1.4137048 0.025190886 0.6446227
v 1.1751648 0.025190886 0.6446227
v 1.2202111 0.07915481 -0.5680919
v 1.2202111 0.07915481 0.5680921
v 1.1751648 0.025190886 0.6446227
v 1.1751648 0.025190886 -0.6446227
v 1.3875158 0.07915481 -0.5680919
v 1.2202111 0.07915481 -0.5680919
v 1.1751648 0.025190886 -0.6446227
v 1.4137048 0.025190886 -0.6446227
v 1.4137048 0 0.6446227
v 1.1751648 0 -0.6446227
v 1.1751648 0 0.6446227
v 1.4137048 0 -0.6446227
v 1.4768323 0 0.5943836
v 1.4768323 0 -0.5943836
v -1.4768347 0.025190886 -0.5943836
v -1.4768347 0 -0.5943836
v -1.4137073 0 -0.6446227
v -1.4137073 0.025190886 -0.6446227
v -1.4768347 0.025190886 0.5943836
v -1.4768347 0 0.5943836
v -1.4768347 0 -0.5943836
v -1.4768347 0.025190886 -0.5943836
v -1.4137073 0.025190886 0.6446227
v -1.4137073 0 0.6446227
v -1.4768347 0 0.5943836
v -1.4768347 0.025190886 0.5943836
v -1.4137073 0 0.6446227
v -1.4137073 0.025190886 0.6446227
v -1.1751697 0.025190886 0.6446227
v -1.1751697 0 0.6446227
v -1.1751697 0 0.6446227
v -1.1751697 0.025190886 0.6446227
v -1.1751697 0.025190886 -0.6446227
v -1.1751697 0 -0.6446227
v -1.4137073 0 -0.6446227
v -1.1751697 0 -0.6446227
v -1.1751697 0.025190886 -0.6446227
v -1.4137073 0.025190886 -0.6446227
v -1.4317907 0.07915481 -0.52381706
v -1.4768347 0.025190886 -0.5943836
v -1.4137073 0.025190886 -0.6446227
v -1.3875158 0.07915481 -0.5680919
v -1.4317907 0.07915481 0.52381766
v -1.4768347 0.025190886 0.5943836
v -1.4768347 0.025190886 -0.5943836
v -1.4317907 0.07915481 -0.52381706
v -1.3875158 0.07915481 0.5680921
v -1.4137073 0.025190886 0.6446227
v -1.4768347 0.025190886 0.5943836
v -1.4317907 0.07915481 0.52381766
v -1.2202137 0.07915481 0.5680921
v -1.1751697 0.025190886 0.6446227
v -1.4137073 0.025190886 0.6446227
v -1.3875158 0.07915481 0.5680921
v -1.2202137 0.07915481 -0.5680919
v -1.1751697 0.025190886 -0.6446227
v -1.1751697 0.025190886 0.6446227
v -1.2202137 0.07915481 0.5680921
v -1.3875158 0.07915481 -0.5680919
v -1.4137073 0.025190886 -0.6446227
v -1.1751697 0.025190886 -0.6446227
v -1.2202137 0.07915481 -0.5680919
v -1.1751697 0 0.6446227
v -1.1751697 0 -0.6446227
v -1.4137073 0 -0.6446227
v -1.4137073 0 0.6446227
v -1.4768347 0 0.5943836
v -1.4768347 0 -0.5943836
v -1.4868493 0.8680541 -0.5788801
v -1.4317907 0.86805385 -0.52381706
v -1.3875158 0.868054 -0.5680919
v -1.4317907 0.86805385 0.52381766
v -1.4868493 0.8680541 0.57888055
v -1.3875158 0.86805385 0.5680921
v -1.4425793 0.8680541 -0.6231539
v -1.4425793 0.8680544 0.6231551
v -1.2202137 0.86805403 -0.5680921
v -1.2202137 0.86805403 0.5680921
v 1.2202111 0.86805403 -0.5680919
v 1.4425769 0.8680541 -0.6231539
v 1.3875158 0.868054 -0.5680919
v 1.2202111 0.868054 0.5680921
v 1.4425769 0.8680544 0.6231551
v 1.3875158 0.86805385 0.5680921
v 1.4868493 0.8680541 0.57888055
v 1.4317907 0.86805385 0.52381766
v 1.4868493 0.8680541 -0.5788801
v 1.4317907 0.86805385 -0.52381706
vt 0.41266805 0.83761567
vt 0.4072859 0.839045
vt 0.41241416 0.8429022
vt 0.41341594 0.7332464
vt 0.41321972 0.72794545
vt 0.40803757 0.7317409
vt 0.67547476 0.83944863
vt 0.67565477 0.8447383
vt 0.68083656 0.84095293
vt 0.6761835 0.7350789
vt 0.68158203 0.7336486
vt 0.67645305 0.72978115
vt 0.41341594 0.7332464
vt 0.40803757 0.7317409
vt 0.4072859 0.839045
vt 0.41266805 0.83761567
vt 0.4072859 0.839045
vt 0.4060253 0.8593398
vt 0.4087175 0.86056197
vt 0.41241416 0.8429022
vt 0.28365433 0.9780954
vt 0.2836488 0.8920568
vt 0.29052687 0.8920568
vt 0.29052302 0.9780954
vt 0.40803757 0.7317409
vt 0.38947117 0.73180294
vt 0.38872886 0.8387309
vt 0.4072859 0.839045
vt 0.28365433 0.9780954
vt 0.16986854 0.9780619
vt 0.16999649 0.89208525
vt 0.2836488 0.8920568
vt 0.3088588 0.8920574
vt 0.3088546 0.9781015
vt 0.29052302 0.9780954
vt 0.29052687 0.8920568
vt 0.14478137 0.89202845
vt 0.1447816 0.9781358
vt 0.01915556 0.9781008
vt 0.01915337 0.8920541
vt 0.4129558 0.7102566
vt 0.40705398 0.7114334
vt 0.40803757 0.7317409
vt 0.41321972 0.72794545
vt 0.16986854 0.9780619
vt 0.16319938 0.9780952
vt 0.16319938 0.89205813
vt 0.16999649 0.89208525
vt 0.16319938 0.89205813
vt 0.16319938 0.9780952
vt 0.1447816 0.9781358
vt 0.14478137 0.89202845
vt 0.67547476 0.83944863
vt 0.68083656 0.84095293
vt 0.68158203 0.7336486
vt 0.6761835 0.7350789
vt 0.67565477 0.8447383
vt 0.67910504 0.86244774
vt 0.681814 0.8612631
vt 0.68083656 0.84095293
vt 0.28365433 0.9780954
vt 0.29052302 0.9780954
vt 0.29052687 0.8920568
vt 0.28371483 0.8920566
vt 0.68083656 0.84095293
vt 0.69939625 0.84089756
vt 0.700146 0.73396987
vt 0.68158203 0.7336486
vt 0.28365433 0.9780954
vt 0.28371483 0.8920566
vt 0.16999649 0.89208525
vt 0.16986854 0.9780619
vt 0.3088588 0.8920574
vt 0.29052687 0.8920568
vt 0.29052302 0.9780954
vt 0.3088546 0.9781015
vt 0.14472003 0.89202887
vt 0.01915337 0.8920541
vt 0.01915556 0.9781008
vt 0.1447816 0.9781358
vt 0.68158203 0.7336486
vt 0.6828488 0.71335685
vt 0.67696404 0.71209794
vt 0.67645305 0.72978115
vt 0.16986854 0.9780619
vt 0.16999649 0.89208525
vt 0.16319938 0.89205813
vt 0.16319938 0.9780952
vt 0.16319938 0.89205813
vt 0.14472003 0.89202887
vt 0.1447816 0.9781358
vt 0.16319938 0.9780952
vt 0.41241416 0.8429022
vt 0.67565477 0.8447383
vt 0.67547476 0.83944863
vt 0.41266805 0.83761567
vt 0.41341594 0.7332464
vt 0.41266805 0.83761567
vt 0.67547476 0.83944863
vt 0.6761835 0.7350789
vt 0.6761835 0.7350789
vt 0.67645305 0.72978115
vt 0.41321972 0.72794545
vt 0.41341594 0.7332464
vt 0.67645305 0.72978115
vt 0.67696404 0.71209794
vt 0.4129558 0.7102566
vt 0.41321972 0.72794545
vt 0.41241416 0.8429022
vt 0.4087175 0.86056197
vt 0.67910504 0.86244774
vt 0.67565477 0.8447383
vt 0.36911952 0.808742
vt 0.3657241 0.8147135
vt 0.3677621 0.8158198
vt 0.3714009 0.808976
vt 0.3688894 0.69696224
vt 0.36911952 0.808742
vt 0.3714009 0.808976
vt 0.37116805 0.6967174
vt 0.36545613 0.69097984
vt 0.3688894 0.69696224
vt 0.37116805 0.6967174
vt 0.36748874 0.6898881
vt 0.31629243 0.80053294
vt 0.33745936 0.79420656
vt 0.3367912 0.79197097
vt 0.31562415 0.7982974
vt 0.33912405 0.7919807
vt 0.3396197 0.6725793
vt 0.337287 0.6725696
vt 0.3367912 0.79197097
vt 0.36678624 0.81676155
vt 0.3657241 0.8147135
vt 0.346124 0.8243933
vt 0.34711963 0.8264729
vt 0.3623554 0.8025522
vt 0.35969847 0.8078584
vt 0.3657241 0.8147135
vt 0.36911952 0.808742
vt 0.36215502 0.703195
vt 0.3623554 0.8025522
vt 0.36911952 0.808742
vt 0.3688894 0.69696224
vt 0.35949647 0.69791925
vt 0.36215502 0.703195
vt 0.3688894 0.69696224
vt 0.36545613 0.69097984
vt 0.3303104 0.7848565
vt 0.31546482 0.78929365
vt 0.31562415 0.7982974
vt 0.3367912 0.79197097
vt 0.33074728 0.6796303
vt 0.3303104 0.7848565
vt 0.3367912 0.79197097
vt 0.337287 0.6725696
vt 0.35969847 0.8078584
vt 0.3459924 0.81487733
vt 0.346124 0.8243933
vt 0.3657241 0.8147135
vt 0.4875573 0.64658785
vt 0.363861 0.669816
vt 0.48761755 0.66949046
vt 0.36380076 0.6469134
vt 0.4827193 0.6405394
vt 0.36860764 0.6408396
vt 0.37794852 0.97186565
vt 0.3745532 0.9778371
vt 0.376591 0.97894347
vt 0.3802297 0.9720993
vt 0.3777181 0.8600857
vt 0.37794852 0.97186565
vt 0.3802297 0.9720993
vt 0.37999707 0.8598408
vt 0.3742854 0.854103
vt 0.3777181 0.8600857
vt 0.37999707 0.8598408
vt 0.3763177 0.85301167
vt 0.3266905 0.97422814
vt 0.34785783 0.96790147
vt 0.34718972 0.965666
vt 0.32602233 0.9719926
vt 0.3495223 0.9656759
vt 0.35001826 0.8462742
vt 0.34768513 0.8462647
vt 0.34718972 0.965666
vt 0.3756154 0.9798848
vt 0.3745532 0.9778371
vt 0.3549528 0.98751664
vt 0.35594872 0.9895961
vt 0.37118417 0.9656758
vt 0.36852705 0.9709818
vt 0.3745532 0.9778371
vt 0.37794852 0.97186565
vt 0.3709842 0.8663182
vt 0.37118417 0.9656758
vt 0.37794852 0.97186565
vt 0.3777181 0.8600857
vt 0.36832517 0.8610427
vt 0.3709842 0.8663182
vt 0.3777181 0.8600857
vt 0.3742854 0.854103
vt 0.34070888 0.9585513
vt 0.32586282 0.96298844
vt 0.32602233 0.9719926
vt 0.34718972 0.965666
vt 0.34114528 0.8533252
vt 0.34070888 0.9585513
vt 0.34718972 0.965666
vt 0.34768513 0.8462647
vt 0.36852705 0.9709818
vt 0.3548216 0.9780009
vt 0.3549528 0.98751664
vt 0.3745532 0.9778371
vt 0.63528514 0.6390908
vt 0.5115286 0.6394167
vt 0.5115886 0.66231906
vt 0.63534534 0.6619935
vt 0.6305388 0.66806734
vt 0.51642704 0.6683675
vt 0.40125147 0.86475605
vt 0.40649995 0.8700786
vt 0.41077504 0.8658584
vt 0.40579852 0.9706642
vt 0.40047607 0.975913
vt 0.41001424 0.9749439
vt 0.4087175 0.86056197
vt 0.40469512 0.98018914
vt 0.42682257 0.8659701
vt 0.42606172 0.97505563
vt 0.66092604 0.86760277
vt 0.67910504 0.86244774
vt 0.6769736 0.86771494
vt 0.66016525 0.97668856
vt 0.68145835 0.98211926
vt 0.6762129 0.9768005
vt 0.6857367 0.9779026
vt 0.6804878 0.97258
vt 0.686512 0.8667456
vt 0.68118936 0.87199444
vn -0.57738924 0.57732266 -0.5773389
vn -0.57738924 0.5773228 -0.5773389
vn -0.57738924 0.5773228 -0.5773389
vn -0.577394 0.5773275 0.5773293
vn -0.57739407 0.5773275 0.5773293
vn -0.577394 0.57732743 0.5773292
vn 0.5773676 0.57733345 -0.57734966
vn 0.5773676 0.5773335 -0.57734966
vn 0.57736766 0.57733345 -0.5773497
vn 0.57737243 0.57733655 0.57734185
vn 0.57737243 0.57733655 0.57734185
vn 0.57737243 0.57733655 0.57734185
vn -0.70714855 0.707065 0
vn -0.70714855 0.707065 0
vn -0.70714855 0.7070649 0
vn -0.70714855 0.7070649 0
vn -0.7071373 0 -0.7070762
vn -0.7071373 0 -0.7070762
vn -0.7071373 0 -0.7070762
vn -0.7071373 0 -0.7070762
vn -0.70710665 0 -0.7071069
vn -0.70710665 0 -0.7071069
vn -0.70710665 0 -0.7071069
vn -0.70710665 0 -0.7071069
vn -1 0 0
vn -1 0 0
vn -1 0 0
vn -1 0 0
vn -1 0 0
vn -1 0 0
vn -1 0 0
vn -1 0 0
vn -3.699531E-07 0 -1
vn -3.6995317E-07 0 -1
vn -3.6995317E-07 0 -1
vn -3.699531E-07 0 -1
vn 1 0 0
vn 1 0 0
vn 1 0 0
vn 1 0 0
vn -0.7071433 0 0.70707023
vn -0.70714325 0 0.70707023
vn -0.70714337 0 0.7070702
vn -0.70714325 0 0.70707023
vn -0.7071032 0 0.70711035
vn -0.7071032 0 0.70711035
vn -0.7071032 0 0.70711035
vn -0.7071032 0 0.70711035
vn -0 0 1
vn -0 0 1
vn -0 0 1
vn -0 0 1
vn 0.70712924 0.7070843 0
vn 0.70712924 0.7070843 0
vn 0.70712924 0.7070843 0
vn 0.70712924 0.7070843 0
vn 0.70711786 0 -0.7070956
vn 0.70711786 0 -0.7070956
vn 0.70711786 0 -0.7070956
vn 0.70711786 0 -0.7070956
vn 0.70710677 0 -0.7071068
vn 0.70710665 0 -0.7071068
vn 0.70710665 0 -0.7071069
vn 0.70710665 0 -0.7071069
vn 1 0 0
vn 1 0 0
vn 1 0 0
vn 1 0 0
vn 1 0 0
vn 1 0 0
vn 1 0 0
vn 1 0 0
vn -0 0 -1
vn -0 0 -1
vn -0 0 -1
vn -0 0 -1
vn -1 0 0
vn -1 0 0
vn -1 0 0
vn -1 0 0
vn 0.7071237 0 0.7070898
vn 0.70712376 0 0.7070898
vn 0.7071237 0 0.7070898
vn 0.7071237 0 0.7070898
vn 0.7071032 0 0.70711035
vn 0.7071032 0 0.70711035
vn 0.7071032 0 0.70711035
vn 0.7071032 0 0.70711035
vn -0 0 1
vn -0 0 1
vn -0 0 1
vn -0 0 1
vn -0 0.70709604 -0.7071175
vn -0 0.70709604 -0.7071175
vn -0 0.70709604 -0.7071175
vn -0 0.70709604 -0.7071175
vn -0 1 0
vn -0 1 0
vn -0 1 0
vn -0 1 0
vn -0 0.7071044 0.7071091
vn -0 0.7071044 0.7071091
vn -0 0.7071044 0.7071091
vn -0 0.7071043 0.70710915
vn -0 0 1
vn -0 0 1
vn -0 0 1
vn -0 0 1
vn -0 0 -1
vn -0 0 -1
vn -0 0 -1
vn -0 0 -1
vn 0.6227063 0 -0.7824557
vn 0.6227063 0 -0.7824557
vn 0.6227063 0 -0.7824557
vn 0.6227063 0 -0.7824557
vn 1 0 0
vn 1 0 0
vn 1 0 0
vn 1 0 0
vn 0.6227063 0 0.7824557
vn 0.6227063 0 0.7824557
vn 0.6227063 0 0.7824557
vn 0.6227063 0 0.7824557
vn -0 0 1
vn -0 0 1
vn -0 0 1
vn -0 0 1
vn -1 0 0
vn -1 0 0
vn -1 0 0
vn -1 0 0
vn -0 0 -1
vn -0 0 -1
vn -0 0 -1
vn -0 0 -1
vn 0.37345895 0.8248791 -0.42438537
vn 0.37345895 0.8248791 -0.42438537
vn 0.37345895 0.8248791 -0.42438537
vn 0.37345892 0.8248791 -0.42438534
vn 0.7677205 0.6407849 0
vn 0.7677205 0.64078486 0
vn 0.7677205 0.6407849 0
vn 0.7677205 0.6407849 0
vn 0.3734579 0.8248791 0.42438626
vn 0.3734579 0.8248791 0.42438626
vn 0.37345788 0.8248791 0.42438626
vn 0.3734579 0.8248791 0.42438626
vn -0 0.817258 0.5762721
vn -0 0.817258 0.576272
vn -0 0.817258 0.5762721
vn -0 0.817258 0.5762721
vn -0.7676867 0.6408253 0
vn -0.7676867 0.6408253 0
vn -0.7676867 0.6408253 0
vn -0.7676867 0.6408253 0
vn -0 0.8172586 -0.5762711
vn -0 0.8172586 -0.57627106
vn -0 0.8172586 -0.57627106
vn -0 0.8172586 -0.57627106
vn -0 -1 0
vn -0 -1 0
vn -0 -1 0
vn -0 -1 0
vn -0 -1 0
vn -0 -1 0
vn -0.6227063 0 -0.7824557
vn -0.6227063 0 -0.7824557
vn -0.6227063 0 -0.7824557
vn -0.6227063 0 -0.7824557
vn -1 0 0
vn -1 0 0
vn -1 0 0
vn -1 0 0
vn -0.6227063 0 0.7824557
vn -0.6227063 0 0.7824557
vn -0.6227063 0 0.7824557
vn -0.6227063 0 0.7824557
vn -0 0 1
vn -0 0 1
vn -0 0 1
vn -0 0 1
vn 1 0 0
vn 1 0 0
vn 1 0 0
vn 1 0 0
vn -0 0 -1
vn -0 0 -1
vn -0 0 -1
vn -0 0 -1
vn -0.3734531 0.82488513 -0.42437872
vn -0.3734531 0.82488513 -0.42437872
vn -0.37345314 0.82488513 -0.42437878
vn -0.37345314 0.82488513 -0.42437878
vn -0.7677038 0.64080495 0
vn -0.7677037 0.64080495 0
vn -0.7677037 0.64080495 0
vn -0.7677038 0.6408049 0
vn -0.3734532 0.82488394 0.42438093
vn -0.37345323 0.8248839 0.424381
vn -0.37345326 0.82488394 0.424381
vn -0.3734532 0.82488394 0.42438093
vn -0 0.81725806 0.576272
vn -0 0.81725806 0.57627195
vn -0 0.81725806 0.576272
vn -0 0.81725806 0.57627195
vn 0.7677031 0.6408058 0
vn 0.7677031 0.6408058 0
vn 0.767703 0.6408058 0
vn 0.7677031 0.64080566 0
vn -0 0.8172585 -0.57627136
vn -0 0.8172585 -0.5762713
vn -0 0.8172585 -0.57627136
vn -0 0.8172585 -0.57627136
vn -0 -1 0
vn -0 -1 0
vn -0 -1 0
vn -0 -1 0
vn -0 -1 0
vn -0 -1 0
vn -1.3012279E-06 -1 -1.2518636E-06
vn -1.3012279E-06 -1 -1.251864E-06
vn -1.3012279E-06 -1 -1.2518638E-06
vn -4.1570656E-06 -1 0
vn -4.1570656E-06 -1 0
vn -1.7408075E-06 -1 5.6333442E-06
vn -1.3012279E-06 -1 -1.2518639E-06
vn -1.7408075E-06 -1 5.6333442E-06
vn -0 -1 0
vn 9.120451E-07 -1 7.950601E-06
vn -4.5601806E-07 -1 0
vn 1.3012259E-06 -1 -1.877791E-06
vn 1.3012257E-06 -1 -1.8777911E-06
vn -0 -1 0
vn 1.7408033E-06 -1 5.007405E-06
vn 1.740803E-06 -1 5.007404E-06
vn 4.1570574E-06 -1 0
vn 4.157057E-06 -1 0
vn 1.3012257E-06 -1 -1.8777907E-06
vn 1.3012257E-06 -1 -1.8777907E-06
g sci_fi_table1_0
f 3/3/3 2/2/2 1/1/1
f 6/6/6 5/5/5 4/4/4
f 9/9/9 8/8/8 7/7/7
f 12/12/12 11/11/11 10/10/10
f 15/15/15 14/14/14 13/13/13
f 16/16/16 15/15/15 13/13/13
f 19/19/19 18/18/18 17/17/17
f 20/20/20 19/19/19 17/17/17
f 23/23/23 22/22/22 21/21/21
f 24/24/24 23/23/23 21/21/21
f 27/27/27 26/26/26 25/25/25
f 28/28/28 27/27/27 25/25/25
f 31/31/31 30/30/30 29/29/29
f 32/32/32 31/31/31 29/29/29
f 35/35/35 34/34/34 33/33/33
f 36/36/36 35/35/35 33/33/33
f 39/39/39 38/38/38 37/37/37
f 40/40/40 39/39/39 37/37/37
f 43/43/43 42/42/42 41/41/41
f 44/44/44 43/43/43 41/41/41
f 47/47/47 46/46/46 45/45/45
f 48/48/48 47/47/47 45/45/45
f 51/51/51 50/50/50 49/49/49
f 52/52/52 51/51/51 49/49/49
f 55/55/55 54/54/54 53/53/53
f 56/56/56 55/55/55 53/53/53
f 59/59/59 58/58/58 57/57/57
f 60/60/60 59/59/59 57/57/57
f 63/63/63 62/62/62 61/61/61
f 64/64/64 63/63/63 61/61/61
f 67/67/67 66/66/66 65/65/65
f 68/68/68 67/67/67 65/65/65
f 71/71/71 70/70/70 69/69/69
f 72/72/72 71/71/71 69/69/69
f 75/75/75 74/74/74 73/73/73
f 76/76/76 75/75/75 73/73/73
f 79/79/79 78/78/78 77/77/77
f 80/80/80 79/79/79 77/77/77
f 83/83/83 82/82/82 81/81/81
f 84/84/84 83/83/83 81/81/81
f 87/87/87 86/86/86 85/85/85
f 88/88/88 87/87/87 85/85/85
f 91/91/91 90/90/90 89/89/89
f 92/92/92 91/91/91 89/89/89
f 95/95/95 94/94/94 93/93/93
f 96/96/96 95/95/95 93/93/93
f 99/99/99 98/98/98 97/97/97
f 100/100/100 99/99/99 97/97/97
f 103/103/103 102/102/102 101/101/101
f 104/104/104 103/103/103 101/101/101
f 107/107/107 106/106/106 105/105/105
f 108/108/108 107/107/107 105/105/105
f 111/111/111 110/110/110 109/109/109
f 112/112/112 111/111/111 109/109/109
f 115/115/115 114/114/114 113/113/113
f 116/116/116 115/115/115 113/113/113
f 119/119/119 118/118/118 117/117/117
f 120/120/120 119/119/119 117/117/117
f 123/123/123 122/122/122 121/121/121
f 124/124/124 123/123/123 121/121/121
f 127/127/127 126/126/126 125/125/125
f 128/128/128 127/127/127 125/125/125
f 131/131/131 130/130/130 129/129/129
f 132/132/132 131/131/131 129/129/129
f 135/135/135 134/134/134 133/133/133
f 136/136/136 135/135/135 133/133/133
f 139/139/139 138/138/138 137/137/137
f 140/140/140 139/139/139 137/137/137
f 143/143/143 142/142/142 141/141/141
f 144/144/144 143/143/143 141/141/141
f 147/147/147 146/146/146 145/145/145
f 148/148/148 147/147/147 145/145/145
f 151/151/151 150/150/150 149/149/149
f 152/152/152 151/151/151 149/149/149
f 155/155/155 154/154/154 153/153/153
f 156/156/156 155/155/155 153/153/153
f 159/159/159 158/158/158 157/157/157
f 160/160/160 159/159/159 157/157/157
f 163/163/163 162/162/162 161/161/161
f 162/162/162 164/164/164 161/161/161
f 165/165/165 161/161/161 164/164/164
f 166/166/166 165/165/165 164/164/164
f 169/169/169 168/168/168 167/167/167
f 170/170/170 169/169/169 167/167/167
f 173/173/173 172/172/172 171/171/171
f 174/174/174 173/173/173 171/171/171
f 177/177/177 176/176/176 175/175/175
f 178/178/178 177/177/177 175/175/175
f 181/181/181 180/180/180 179/179/179
f 182/182/182 181/181/181 179/179/179
f 185/185/185 184/184/184 183/183/183
f 186/186/186 185/185/185 183/183/183
f 189/189/189 188/188/188 187/187/187
f 190/190/190 189/189/189 187/187/187
f 193/193/193 192/192/192 191/191/191
f 194/194/194 193/193/193 191/191/191
f 197/197/197 196/196/196 195/195/195
f 198/198/198 197/197/197 195/195/195
f 201/201/201 200/200/200 199/199/199
f 202/202/202 201/201/201 199/199/199
f 205/205/205 204/204/204 203/203/203
f 206/206/206 205/205/205 203/203/203
f 209/209/209 208/208/208 207/207/207
f 210/210/210 209/209/209 207/207/207
f 213/213/213 212/212/212 211/211/211
f 214/214/214 213/213/213 211/211/211
f 217/217/217 216/216/216 215/215/215
f 218/218/218 217/217/217 215/215/215
f 218/218/218 219/219/219 217/217/217
f 219/219/219 220/220/220 217/217/217
f 223/223/223 222/222/222 221/221/221
f 222/222/222 224/224/224 221/221/221
f 224/224/224 225/225/225 221/221/221
f 224/224/224 226/226/226 225/225/225
f 227/227/227 223/223/223 221/221/221
f 226/226/226 228/228/228 225/225/225
f 229/229/229 223/223/223 227/227/227
f 228/228/228 226/226/226 230/230/230
f 231/231/231 229/229/229 227/227/227
f 229/229/229 231/231/231 230/230/230
f 232/232/232 231/231/231 227/227/227
f 232/232/232 233/233/233 231/231/231
f 231/231/231 234/234/234 230/230/230
f 228/228/228 230/230/230 234/234/234
f 235/235/235 228/228/228 234/234/234
f 236/236/236 235/235/235 234/234/234
f 235/235/235 236/236/236 237/237/237
f 236/236/236 238/238/238 237/237/237
f 233/233/233 232/232/232 239/239/239
f 237/237/237 238/238/238 239/239/239
f 240/240/240 233/233/233 239/239/239
f 238/238/238 240/240/240 239/239/239
