g sci_fi_Lamp
v 0.051032178 0.03725762 -0.4245163
v 0.06150032 0.036819752 -0.41878876
v 0.05126976 0.07345898 -0.41878876
v 0.042540662 0.06765927 -0.4245163
v 0.021452256 0.09708597 -0.41878876
v 0.017800063 0.08726393 -0.4245163
v -0.016556472 0.0986758 -0.41878876
v -0.0137372585 0.088583075 -0.4245163
v -0.04824043 0.077621296 -0.41878876
v -0.040026322 0.07111288 -0.4245163
v -0.061497573 0.04196452 -0.41878876
v -0.05102577 0.041526508 -0.4245163
v 0.02343666 0.03841188 -0.44929412
v 0.0339048 0.03797402 -0.4435684
v 0.028263321 0.05817307 -0.4435684
v 0.01953682 0.052373305 -0.44929412
v 0.011826858 0.07119848 -0.4435684
v 0.008174667 0.061376326 -0.44929412
v -0.0091265105 0.07207492 -0.4435684
v -0.0063072965 0.06198208 -0.44929412
v -0.026593398 0.060467627 -0.4435684
v -0.018379288 0.053959258 -0.44929412
v -0.033902053 0.040810253 -0.4435684
v -0.023431472 0.04037229 -0.44929412
v -0.04824043 0.077621296 -0.41878876
v -0.061497573 0.04196452 0.4245169
v -0.061497573 0.04196452 -0.41878876
v -0.04824043 0.077621296 0.4245169
v -0.016556472 0.0986758 -0.41878876
v -0.016556472 0.0986758 0.4245169
v 0.021452256 0.09708597 -0.41878876
v 0.021452256 0.09708597 0.42451444
v 0.05126976 0.07345898 -0.41878876
v 0.05126976 0.07345898 0.4245169
v 0.06150032 0.036819752 -0.41878876
v 0.06150032 0.036819752 0.4245169
v -0.023431472 0.04037229 -0.44929412
v 2.670288E-06 0.039392084 -0.44929412
v -0.018379288 0.053959258 -0.44929412
v -0.0063072965 0.06198208 -0.44929412
v 0.008174667 0.061376326 -0.44929412
v 0.01953682 0.052373305 -0.44929412
v 0.02343666 0.03841188 -0.44929412
v -0.05102577 0.041526508 -0.4245163
v -0.033902053 0.040810253 -0.4245163
v -0.026593398 0.060467627 -0.4245163
v -0.040026322 0.07111288 -0.4245163
v -0.0091265105 0.07207492 -0.4245163
v -0.0137372585 0.088583075 -0.4245163
v 0.011826858 0.07119848 -0.4245163
v 0.017800063 0.08726393 -0.4245163
v 0.028263321 0.05817307 -0.4245163
v 0.042540662 0.06765927 -0.4245163
v 0.0339048 0.03797402 -0.4245163
v 0.051032178 0.03725762 -0.4245163
v -0.033902053 0.040810253 -0.4245163
v -0.033902053 0.040810253 -0.4435684
v -0.026593398 0.060467627 -0.4435684
v -0.026593398 0.060467627 -0.4245163
v -0.0091265105 0.07207492 -0.4435684
v -0.0091265105 0.07207492 -0.4245163
v 0.011826858 0.07119848 -0.4435684
v 0.011826858 0.07119848 -0.4245163
v 0.028263321 0.05817307 -0.4435684
v 0.028263321 0.05817307 -0.4245163
v 0.0339048 0.03797402 -0.4435684
v 0.0339048 0.03797402 -0.4245163
v 0.06150032 0.036819752 0.4245169
v 0.051032178 0.03725762 0.430242
v 0.042540662 0.06765927 0.430242
v 0.05126976 0.07345898 0.4245169
v 0.017800063 0.08726393 0.430242
v 0.021452256 0.09708597 0.42451444
v -0.0137372585 0.088583075 0.430242
v -0.016556472 0.0986758 0.4245169
v -0.040026322 0.07111288 0.430242
v -0.04824043 0.077621296 0.4245169
v -0.05102577 0.041526508 0.430242
v -0.061497573 0.04196452 0.4245169
v 0.0339048 0.03797402 0.44929472
v 0.02343666 0.03841188 0.4550186
v 0.01953682 0.052373305 0.4550186
v 0.028263321 0.05817307 0.44929472
v 0.008174667 0.061376326 0.4550186
v 0.011826858 0.07119848 0.44929472
v -0.0063072965 0.06198208 0.4550186
v -0.0091265105 0.07207492 0.44929472
v -0.018379288 0.053959258 0.4550186
v -0.026593398 0.060467627 0.44929472
v -0.023431472 0.04037229 0.4550186
v -0.033902053 0.040810253 0.44929472
v -0.023431472 0.04037229 0.4550186
v -0.018379288 0.053959258 0.4550186
v 2.670288E-06 0.039392084 0.4550186
v -0.0063072965 0.06198208 0.4550186
v 0.008174667 0.061376326 0.4550186
v 0.01953682 0.052373305 0.4550186
v 0.02343666 0.03841188 0.4550186
v -0.05102577 0.041526508 0.430242
v -0.026593398 0.060467627 0.430242
v -0.033902053 0.040810253 0.430242
v -0.040026322 0.07111288 0.430242
v -0.0091265105 0.07207492 0.430242
v -0.0137372585 0.088583075 0.430242
v 0.011826858 0.07119848 0.430242
v 0.017800063 0.08726393 0.430242
v 0.028263321 0.05817307 0.430242
v 0.042540662 0.06765927 0.430242
v 0.0339048 0.03797402 0.430242
v 0.051032178 0.03725762 0.430242
v -0.033902053 0.040810253 0.430242
v -0.026593398 0.060467627 0.44929472
v -0.033902053 0.040810253 0.44929472
v -0.026593398 0.060467627 0.430242
v -0.0091265105 0.07207492 0.44929472
v -0.0091265105 0.07207492 0.430242
v 0.011826858 0.07119848 0.44929472
v 0.011826858 0.07119848 0.430242
v 0.028263321 0.05817307 0.44929472
v 0.028263321 0.05817307 0.430242
v 0.0339048 0.03797402 0.44929472
v 0.0339048 0.03797402 0.430242
v -0.1422245 2.590239E-05 -0.5048648
v -0.07312019 1.969397E-05 -0.6005972
v -0.054443587 0.05801748 -0.54345125
v -0.10590309 0.058022216 -0.4568283
v 0.07312019 6.318688E-06 -0.6005972
v 0.054453656 0.058007505 -0.54345125
v -0.054443587 0.05801748 -0.54345125
v -0.07312019 1.969397E-05 -0.6005972
v 0.073796615 0.058005746 -0.4568283
v 0.07379509 0.046372417 -0.4568283
v -0.07378685 0.0463859 -0.4568283
v -0.07378654 0.05801927 -0.4568283
v 0.1422245 0 -0.5048648
v 0.10591316 0.05800281 -0.4568283
v 0.054453656 0.058007505 -0.54345125
v 0.07312019 6.318688E-06 -0.6005972
v -0.1422245 2.590239E-05 0.5048648
v -0.10590309 0.058022216 0.45682892
v -0.054443587 0.05801748 0.54345125
v -0.07312019 1.969397E-05 0.6005972
v 0.07312019 6.318688E-06 0.6005972
v -0.07312019 1.969397E-05 0.6005972
v -0.054443587 0.05801748 0.54345125
v 0.054453656 0.058007505 0.54345125
v 0.073796615 0.058005746 0.45682892
v -0.07378654 0.05801927 0.45682892
v -0.07378685 0.0463859 0.45682892
v 0.07379509 0.046372417 0.45682892
v 0.1422245 0 0.5048648
v 0.07312019 6.318688E-06 0.6005972
v 0.054453656 0.058007505 0.54345125
v 0.10591316 0.05800281 0.45682892
v -0.1422245 2.590239E-05 -0.5048648
v -0.10590309 0.058022216 -0.4568283
v -0.10590309 0.058022216 0.45682892
v -0.1422245 2.590239E-05 0.5048648
v 0.10591316 0.05800281 -0.4568283
v 0.1422245 0 -0.5048648
v 0.1422245 0 0.5048648
v 0.10591316 0.05800281 0.45682892
v 0.07379509 0.046372417 -0.4568283
v 0.073796615 0.058005746 -0.4568283
v 0.073796615 0.058005746 0.45682892
v 0.07379509 0.046372417 0.45682892
v -0.07378685 0.0463859 -0.4568283
v 0.07379509 0.046372417 -0.4568283
v 0.07379509 0.046372417 0.45682892
v -0.07378685 0.0463859 0.45682892
v -0.07378654 0.05801927 -0.4568283
v -0.07378685 0.0463859 -0.4568283
v -0.07378685 0.0463859 0.45682892
v -0.07378654 0.05801927 0.45682892
v 0.10591316 0.05800281 -0.4568283
v 0.073796615 0.058005746 -0.4568283
v 0.054453656 0.058007505 -0.54345125
v 0.10591316 0.05800281 0.45682892
v -0.054443587 0.05801748 -0.54345125
v -0.07378654 0.05801927 -0.4568283
v -0.10590309 0.058022216 -0.4568283
v 0.073796615 0.058005746 0.45682892
v 0.054453656 0.058007505 0.54345125
v -0.054443587 0.05801748 0.54345125
v -0.07378654 0.05801927 0.45682892
v -0.10590309 0.058022216 0.45682892
vt 0.6148151 0.33950654
vt 0.61625606 0.3408109
vt 0.6168192 0.33611286
vt 0.61548364 0.33540574
vt 0.61701614 0.33157194
vt 0.61575085 0.33139238
vt 0.6169702 0.32716447
vt 0.6156802 0.3273822
vt 0.61660075 0.3226367
vt 0.6153155 0.3233675
vt 0.61596644 0.31792966
vt 0.614498 0.31934416
vt 0.6092841 0.33474132
vt 0.61046237 0.33587897
vt 0.6114384 0.33341986
vt 0.6099475 0.33285692
vt 0.61170024 0.330865
vt 0.61016136 0.33068007
vt 0.61167604 0.32828128
vt 0.6101503 0.32851338
vt 0.6114099 0.32570195
vt 0.6100016 0.32636628
vt 0.61046493 0.32326102
vt 0.60941803 0.32449445
vt 0.61660075 0.3226367
vt 0.73586404 0.31711978
vt 0.61596644 0.31792966
vt 0.73529875 0.3218371
vt 0.6169702 0.32716447
vt 0.73498845 0.32636926
vt 0.61701614 0.33157194
vt 0.73500425 0.33077574
vt 0.6168192 0.33611286
vt 0.73526025 0.3353141
vt 0.61625606 0.3408109
vt 0.735888 0.34000435
vt 0.60697216 0.32619008
vt 0.6069906 0.32957387
vt 0.6089348 0.32685092
vt 0.6101503 0.32851338
vt 0.61016136 0.33068007
vt 0.6089607 0.33232525
vt 0.60700417 0.33295682
vt 0.614498 0.31934416
vt 0.61266977 0.3215248
vt 0.613493 0.3244715
vt 0.6153155 0.3233675
vt 0.6138624 0.32777297
vt 0.6156802 0.3273822
vt 0.6139097 0.3311423
vt 0.61575085 0.33139238
vt 0.6136392 0.33446935
vt 0.61548364 0.33540574
vt 0.6128522 0.33741343
vt 0.6148151 0.33950654
vt 0.61266977 0.3215248
vt 0.61046493 0.32326102
vt 0.6114099 0.32570195
vt 0.613493 0.3244715
vt 0.61167604 0.32828128
vt 0.6138624 0.32777297
vt 0.61170024 0.330865
vt 0.6139097 0.3311423
vt 0.6114384 0.33341986
vt 0.6136392 0.33446935
vt 0.61046237 0.33587897
vt 0.6128522 0.33741343
vt 0.735888 0.34000435
vt 0.73731047 0.33867845
vt 0.73658794 0.33458728
vt 0.73526025 0.3353141
vt 0.73626584 0.3305788
vt 0.73500425 0.33077574
vt 0.7362823 0.32656854
vt 0.73498845 0.32636926
vt 0.73659164 0.32254982
vt 0.73529875 0.3218371
vt 0.73735553 0.31851816
vt 0.73586404 0.31711978
vt 0.74161154 0.33499327
vt 0.74277246 0.33383945
vt 0.7420871 0.33196437
vt 0.74060327 0.33254704
vt 0.74184555 0.32979184
vt 0.7403099 0.32999587
vt 0.7418324 0.32762647
vt 0.74030167 0.32741478
vt 0.74194396 0.32548147
vt 0.7405273 0.32483584
vt 0.742439 0.32360467
vt 0.74142396 0.3223676
vt 0.74498767 0.3252702
vt 0.74303186 0.32595098
vt 0.7450038 0.32865405
vt 0.7418324 0.32762647
vt 0.74184555 0.32979184
vt 0.74306184 0.3314253
vt 0.74502474 0.33203685
vt 0.73735553 0.31851816
vt 0.7384302 0.32362962
vt 0.7392059 0.32066885
vt 0.73659164 0.32254982
vt 0.7381065 0.32693478
vt 0.7362823 0.32656854
vt 0.73810375 0.33030328
vt 0.73626584 0.3305788
vt 0.7384176 0.33362636
vt 0.73658794 0.33458728
vt 0.7392436 0.33655939
vt 0.73731047 0.33867845
vt 0.7392059 0.32066885
vt 0.7405273 0.32483584
vt 0.74142396 0.3223676
vt 0.7384302 0.32362962
vt 0.74030167 0.32741478
vt 0.7381065 0.32693478
vt 0.7403099 0.32999587
vt 0.73810375 0.33030328
vt 0.74060327 0.33254704
vt 0.7384176 0.33362636
vt 0.74161154 0.33499327
vt 0.7392436 0.33655939
vt 0.6049364 0.3539968
vt 0.59065825 0.36698562
vt 0.6006598 0.37034807
vt 0.6125371 0.36307922
vt 0.59067154 0.38876322
vt 0.6006624 0.38522974
vt 0.6006598 0.37034807
vt 0.59065825 0.36698562
vt 0.61326575 0.38828862
vt 0.61380386 0.3866882
vt 0.61379474 0.36888617
vt 0.61327755 0.36728713
vt 0.604946 0.40160593
vt 0.6125416 0.39248407
vt 0.6006624 0.38522974
vt 0.59067154 0.38876322
vt 0.75149906 0.3539966
vt 0.7438985 0.36307922
vt 0.7557759 0.37034807
vt 0.76577723 0.3669856
vt 0.76576394 0.38876322
vt 0.76577723 0.3669856
vt 0.7557759 0.37034807
vt 0.7557731 0.3852298
vt 0.7431699 0.38828862
vt 0.74315804 0.3672872
vt 0.7426408 0.36888623
vt 0.7426318 0.38668814
vt 0.75148946 0.4016057
vt 0.76576394 0.38876322
vt 0.7557731 0.3852298
vt 0.743894 0.3924842
vt 0.6049364 0.3539968
vt 0.6125371 0.36307922
vt 0.7438985 0.36307922
vt 0.75149906 0.3539966
vt 0.6125416 0.39248407
vt 0.604946 0.40160593
vt 0.75148946 0.4016057
vt 0.743894 0.3924842
vt 0.61380386 0.3866882
vt 0.61326575 0.38828862
vt 0.7431699 0.38828862
vt 0.7426318 0.38668814
vt 0.61379474 0.36888617
vt 0.61380386 0.3866882
vt 0.7426318 0.38668814
vt 0.7426408 0.36888623
vt 0.61327755 0.36728713
vt 0.61379474 0.36888617
vt 0.7426408 0.36888623
vt 0.74315804 0.3672872
vt 0.6125416 0.39248407
vt 0.61326575 0.38828862
vt 0.6006624 0.38522974
vt 0.743894 0.3924842
vt 0.6006598 0.37034807
vt 0.61327755 0.36728713
vt 0.6125371 0.36307922
vt 0.7431699 0.38828862
vt 0.7557731 0.3852298
vt 0.7557759 0.37034807
vt 0.74315804 0.3672872
vt 0.7438985 0.36307922
vn 0.47991833 0.13402389 -0.86701554
vn 0.47991827 0.13402389 -0.86701554
vn 0.3994456 0.26543805 -0.8774884
vn 0.39943802 0.26544935 -0.8774884
vn 0.16713928 0.44953543 -0.87748635
vn 0.16713116 0.44953847 -0.87748635
vn -0.12901662 0.46192044 -0.8774874
vn -0.12901142 0.4619219 -0.8774874
vn -0.37586772 0.29784396 -0.8775035
vn -0.37586144 0.29785204 -0.8775035
vn -0.46698716 0.17362049 -0.86705184
vn -0.46698716 0.1736205 -0.86705184
vn 0.47984135 0.13402437 -0.86705816
vn 0.4798413 0.13402435 -0.86705816
vn 0.39937 0.26540866 -0.8775317
vn 0.39937523 0.2654008 -0.8775316
vn 0.16710313 0.44943374 -0.87754536
vn 0.16709732 0.4494359 -0.87754536
vn -0.12898807 0.46180204 -0.877554
vn -0.12898484 0.4618029 -0.877554
vn -0.3757863 0.2977785 -0.8775606
vn -0.37577912 0.29778767 -0.8775606
vn -0.46689212 0.17359874 -0.86710733
vn -0.46689215 0.17359874 -0.86710745
vn -0.7837452 0.62108237 0
vn -0.937312 0.34849134 0
vn -0.937312 0.34849134 0
vn -0.7837452 0.62108237 0
vn -0.26899853 0.9631406 0
vn -0.26900497 0.9631388 0
vn 0.34848073 0.937316 0
vn 0.34848073 0.9373159 0
vn 0.83287495 0.5534612 0
vn 0.83287865 0.5534556 0
vn 0.9631578 0.26893702 0
vn 0.9631578 0.26893702 0
vn -5.898693E-07 0 -1
vn 8.2591976E-07 0 -1
vn -2.949407E-07 0 -1
vn -0 0 -1
vn 2.35945E-06 0 -1
vn 2.359396E-06 0 -1
vn -0 0 -1
vn -7.79541E-07 0 -1
vn -7.7954087E-07 0 -1
vn -1.2806489E-06 0 -1
vn -1.2806663E-06 0 -1
vn -8.908703E-07 0 -1
vn -8.9086893E-07 0 -1
vn -8.90838E-07 0 -1
vn -8.908491E-07 0 -1
vn -0 0 -1
vn -0 0 -1
vn 1.7814817E-06 0 -1
vn 1.7814818E-06 0 -1
vn -0.937311 0.34849414 0
vn -0.937311 0.34849414 0
vn -0.7837486 0.6210782 0
vn -0.7837486 0.6210782 0
vn -0.2690061 0.9631385 0
vn -0.2690061 0.9631385 0
vn 0.34849927 0.9373091 0
vn 0.34849927 0.9373091 0
vn 0.832879 0.5534552 0
vn 0.832879 0.5534552 0
vn 0.9631403 0.26899952 0
vn 0.9631403 0.26899952 0
vn 0.47976154 0.13398115 0.8671089
vn 0.47976154 0.13398115 0.8671089
vn 0.39931715 0.2654082 0.8775559
vn 0.39932358 0.26539853 0.8775559
vn 0.16710532 0.44947156 0.87752557
vn 0.16711342 0.44946858 0.87752557
vn -0.12894994 0.461813 0.8775537
vn -0.12895331 0.46181214 0.8775538
vn -0.37573957 0.29775405 0.87758887
vn -0.37574592 0.2977459 0.87758887
vn -0.4668382 0.17356473 0.8671432
vn -0.4668382 0.17356475 0.8671432
vn 0.4797256 0.1339922 0.86712706
vn 0.4797256 0.1339922 0.86712706
vn 0.3992774 0.2653355 0.87759596
vn 0.3992722 0.2653433 0.87759596
vn 0.16705665 0.44932538 0.8776097
vn 0.16706243 0.44932312 0.8776097
vn -0.12895411 0.4616892 0.87761825
vn -0.12895733 0.4616883 0.87761825
vn -0.37568736 0.29771432 0.8776248
vn -0.37569463 0.29770514 0.8776248
vn -0.46678057 0.17355695 0.8671758
vn -0.4667805 0.17355694 0.8671758
vn -0 0 1
vn -0 0 1
vn -3.833659E-07 0 1
vn -9.586018E-07 0 1
vn 2.2113016E-07 0 1
vn -0 0 1
vn -2.3594919E-06 0 1
vn -0 0 1
vn 8.9088144E-07 0 1
vn -0 0 1
vn 8.909126E-07 0 1
vn 1.2806266E-06 0 1
vn 1.2806257E-06 0 1
vn 3.897408E-07 0 1
vn 3.8973593E-07 0 1
vn 1.7814896E-06 0 1
vn 1.7816725E-06 0 1
vn 3.562963E-06 0 1
vn 3.5629635E-06 0 1
vn -0.93731076 0.34849465 0
vn -0.7837486 0.62107825 0
vn -0.93731076 0.34849465 0
vn -0.7837486 0.62107825 0
vn -0.2690068 0.9631383 0
vn -0.2690068 0.9631383 0
vn 0.3484994 0.93730897 0
vn 0.3484994 0.93730897 0
vn 0.8328789 0.55345523 0
vn 0.8328789 0.55345523 0
vn 0.9631403 0.26899958 0
vn 0.9631403 0.26899958 0
vn -0.621359 0.66716963 -0.41085008
vn -0.62135893 0.66716963 -0.41085008
vn -0.62135893 0.66716963 -0.41085008
vn -0.62135893 0.6671696 -0.41085005
vn 6.434367E-05 0.70184624 -0.7123285
vn 6.434367E-05 0.70184624 -0.71232843
vn 6.434367E-05 0.70184624 -0.7123285
vn 6.434367E-05 0.70184624 -0.7123285
vn -0 0 1
vn -0 0 1
vn -0 0 1
vn -0 0 1
vn 0.6214778 0.6670599 -0.41084847
vn 0.6214778 0.66705984 -0.4108484
vn 0.6214779 0.66705984 -0.41084847
vn 0.62147784 0.66705984 -0.4108484
vn -0.621359 0.66716874 0.4108514
vn -0.62135905 0.66716874 0.4108514
vn -0.621359 0.6671687 0.41085145
vn -0.62135905 0.66716874 0.4108514
vn 6.4433254E-05 0.70184624 0.71232843
vn 6.443326E-05 0.7018462 0.71232855
vn 6.443326E-05 0.70184624 0.7123285
vn 6.443326E-05 0.70184624 0.7123285
vn 1.2997117E-07 0 -1
vn 1.2997118E-07 0 -1
vn 1.2997116E-07 0 -1
vn 1.2997116E-07 0 -1
vn 0.62147796 0.6670589 0.4108499
vn 0.6214779 0.6670589 0.41084987
vn 0.6214779 0.6670589 0.4108498
vn 0.6214779 0.6670589 0.41084987
vn -0.84751385 0.5307733 0
vn -0.84751385 0.5307733 0
vn -0.84751385 0.5307733 0
vn -0.84751385 0.5307733 0
vn 0.84760684 0.53062487 0
vn 0.84760684 0.5306248 0
vn 0.84760684 0.53062487 0
vn 0.84760684 0.53062487 0
vn -1 0.00013092652 0
vn -1 0.00013092652 0
vn -1 0.00013092652 0
vn -1 0.00013092652 0
vn 9.134035E-05 1 0
vn 9.134035E-05 1 0
vn 9.134035E-05 1 0
vn 9.134035E-05 1 0
vn 1 -2.5840662E-05 0
vn 1 -2.5840662E-05 0
vn 1 -2.5840662E-05 0
vn 1 -2.5840662E-05 0
vn 9.1458045E-05 1 0
vn 9.161928E-05 1 0
vn 9.161927E-05 1 0
vn 9.145806E-05 1 0
vn 9.161927E-05 1 0
vn 9.161928E-05 1 0
vn 9.1755006E-05 1 0
vn 9.1619215E-05 1 0
vn 9.161922E-05 1 0
vn 9.161922E-05 1 0
vn 9.1619215E-05 1 0
vn 9.1755006E-05 1 0
g sci_fi_Lamp_0
f 3/3/3 2/2/2 1/1/1
f 4/4/4 3/3/3 1/1/1
f 3/3/3 4/4/4 5/5/5
f 4/4/4 6/6/6 5/5/5
f 5/5/5 6/6/6 7/7/7
f 6/6/6 8/8/8 7/7/7
f 7/7/7 8/8/8 9/9/9
f 8/8/8 10/10/10 9/9/9
f 9/9/9 10/10/10 11/11/11
f 10/10/10 12/12/12 11/11/11
f 15/15/15 14/14/14 13/13/13
f 16/16/16 15/15/15 13/13/13
f 15/15/15 16/16/16 17/17/17
f 16/16/16 18/18/18 17/17/17
f 17/17/17 18/18/18 19/19/19
f 18/18/18 20/20/20 19/19/19
f 19/19/19 20/20/20 21/21/21
f 20/20/20 22/22/22 21/21/21
f 21/21/21 22/22/22 23/23/23
f 22/22/22 24/24/24 23/23/23
f 27/27/27 26/26/26 25/25/25
f 26/26/26 28/28/28 25/25/25
f 25/25/25 28/28/28 29/29/29
f 28/28/28 30/30/30 29/29/29
f 29/29/29 30/30/30 31/31/31
f 30/30/30 32/32/32 31/31/31
f 31/31/31 32/32/32 33/33/33
f 32/32/32 34/34/34 33/33/33
f 33/33/33 34/34/34 35/35/35
f 34/34/34 36/36/36 35/35/35
f 39/39/39 38/38/38 37/37/37
f 40/40/40 38/38/38 39/39/39
f 41/41/41 38/38/38 40/40/40
f 42/42/42 38/38/38 41/41/41
f 43/43/43 38/38/38 42/42/42
f 46/46/46 45/45/45 44/44/44
f 47/47/47 46/46/46 44/44/44
f 48/48/48 46/46/46 47/47/47
f 49/49/49 48/48/48 47/47/47
f 50/50/50 48/48/48 49/49/49
f 51/51/51 50/50/50 49/49/49
f 52/52/52 50/50/50 51/51/51
f 53/53/53 52/52/52 51/51/51
f 54/54/54 52/52/52 53/53/53
f 55/55/55 54/54/54 53/53/53
f 58/58/58 57/57/57 56/56/56
f 59/59/59 58/58/58 56/56/56
f 60/60/60 58/58/58 59/59/59
f 61/61/61 60/60/60 59/59/59
f 62/62/62 60/60/60 61/61/61
f 63/63/63 62/62/62 61/61/61
f 64/64/64 62/62/62 63/63/63
f 65/65/65 64/64/64 63/63/63
f 66/66/66 64/64/64 65/65/65
f 67/67/67 66/66/66 65/65/65
f 70/70/70 69/69/69 68/68/68
f 71/71/71 70/70/70 68/68/68
f 70/70/70 71/71/71 72/72/72
f 71/71/71 73/73/73 72/72/72
f 72/72/72 73/73/73 74/74/74
f 73/73/73 75/75/75 74/74/74
f 74/74/74 75/75/75 76/76/76
f 75/75/75 77/77/77 76/76/76
f 76/76/76 77/77/77 78/78/78
f 77/77/77 79/79/79 78/78/78
f 82/82/82 81/81/81 80/80/80
f 83/83/83 82/82/82 80/80/80
f 82/82/82 83/83/83 84/84/84
f 83/83/83 85/85/85 84/84/84
f 84/84/84 85/85/85 86/86/86
f 85/85/85 87/87/87 86/86/86
f 86/86/86 87/87/87 88/88/88
f 87/87/87 89/89/89 88/88/88
f 88/88/88 89/89/89 90/90/90
f 89/89/89 91/91/91 90/90/90
f 94/94/94 93/93/93 92/92/92
f 94/94/94 95/95/95 93/93/93
f 94/94/94 96/96/96 95/95/95
f 94/94/94 97/97/97 96/96/96
f 94/94/94 98/98/98 97/97/97
f 101/101/101 100/100/100 99/99/99
f 100/100/100 102/102/102 99/99/99
f 100/100/100 103/103/103 102/102/102
f 103/103/103 104/104/104 102/102/102
f 103/103/103 105/105/105 104/104/104
f 105/105/105 106/106/106 104/104/104
f 105/105/105 107/107/107 106/106/106
f 107/107/107 108/108/108 106/106/106
f 107/107/107 109/109/109 108/108/108
f 109/109/109 110/110/110 108/108/108
f 113/113/113 112/112/112 111/111/111
f 112/112/112 114/114/114 111/111/111
f 112/112/112 115/115/115 114/114/114
f 115/115/115 116/116/116 114/114/114
f 115/115/115 117/117/117 116/116/116
f 117/117/117 118/118/118 116/116/116
f 117/117/117 119/119/119 118/118/118
f 119/119/119 120/120/120 118/118/118
f 119/119/119 121/121/121 120/120/120
f 121/121/121 122/122/122 120/120/120
f 125/125/125 124/124/124 123/123/123
f 126/126/126 125/125/125 123/123/123
f 129/129/129 128/128/128 127/127/127
f 130/130/130 129/129/129 127/127/127
f 133/133/133 132/132/132 131/131/131
f 134/134/134 133/133/133 131/131/131
f 137/137/137 136/136/136 135/135/135
f 138/138/138 137/137/137 135/135/135
f 141/141/141 140/140/140 139/139/139
f 142/142/142 141/141/141 139/139/139
f 145/145/145 144/144/144 143/143/143
f 146/146/146 145/145/145 143/143/143
f 149/149/149 148/148/148 147/147/147
f 150/150/150 149/149/149 147/147/147
f 153/153/153 152/152/152 151/151/151
f 154/154/154 153/153/153 151/151/151
f 157/157/157 156/156/156 155/155/155
f 158/158/158 157/157/157 155/155/155
f 161/161/161 160/160/160 159/159/159
f 162/162/162 161/161/161 159/159/159
f 165/165/165 164/164/164 163/163/163
f 166/166/166 165/165/165 163/163/163
f 169/169/169 168/168/168 167/167/167
f 170/170/170 169/169/169 167/167/167
f 173/173/173 172/172/172 171/171/171
f 174/174/174 173/173/173 171/171/171
f 177/177/177 176/176/176 175/175/175
f 178/178/178 175/175/175 176/176/176
f 177/177/177 179/179/179 176/176/176
f 179/179/179 180/180/180 176/176/176
f 179/179/179 181/181/181 180/180/180
f 182/182/182 178/178/178 176/176/176
f 182/182/182 183/183/183 178/178/178
f 184/184/184 183/183/183 182/182/182
f 185/185/185 180/180/180 181/181/181
f 185/185/185 184/184/184 182/182/182
f 186/186/186 185/185/185 181/181/181
f 186/186/186 184/184/184 185/185/185
