g slimepedia
v -0.14384885 0.16098848 -0.1856606
v -0.16469038 0.17726047 -0.20517488
v -0.16469038 0.17208953 -0.18771338
v -0.15833808 0.1745212 -0.16779028
v -0.14349602 0.16067567 -0.07254244
v -0.15833113 0.17448358 -0.07254244
v -0.15831035 0.17445041 0.01909192
v -0.14384718 0.16866371 -0.2087174
v -0.16469038 0.18891838 -0.21832433
v -0.14308383 0.16058087 0.045899324
v -0.15772419 0.17453924 0.0944711
v 0.055595625 0.16029269 0.04542687
v -0.14084859 0.16134304 0.0908911
v -0.15502438 0.17442615 0.10184262
v -0.14574875 0.17453597 0.10327637
v -0.022941861 0.17454237 0.102705695
v -0.024135012 0.16065818 0.091036156
v 0.0055008554 0.16063935 0.0885958
v 0.0077677844 0.17455441 0.10041773
v 0.02555493 0.16062866 0.08422673
v 0.03194299 0.17456958 0.09598811
v 0.049478434 0.1604705 0.061679583
v 0.039849542 0.16056138 0.07541239
v 0.051584963 0.17454153 0.08493874
v 0.06445859 0.17464192 0.066600636
v 0.07089067 0.17461713 0.05007899
v 0.0566111 0.16023812 -0.07254244
v 0.0715959 0.17428118 -0.07254224
v 0.071753636 0.1745258 -0.16779017
v 0.057364214 0.16083713 -0.18566576
v 0.078119636 0.17208953 -0.18771338
v 0.078119636 0.17726047 -0.20517488
v 0.05736241 0.16869505 -0.20914131
v 0.078119636 0.18891838 -0.21832433
v 0.057363518 0.1851497 -0.22901426
v 0.078119636 0.20177482 -0.22435641
v -0.14384827 0.18522371 -0.22888283
v -0.16469038 0.20177482 -0.22435641
v 0.05736719 0.20277084 -0.2368486
v 0.078119636 0.22323479 -0.22435641
v -0.14385104 0.20225167 -0.23653531
v -0.16469038 0.22323479 -0.22435641
v 0.05736719 0.22223876 -0.2368486
v -0.14385104 0.22275792 -0.23653531
v -0.14384827 0.2397859 -0.22888283
v -0.16469038 0.23609121 -0.21832433
v 0.057363518 0.2398599 -0.22901426
v 0.078119636 0.23609121 -0.21832433
v -0.14384718 0.2563459 -0.2087174
v -0.16469038 0.24774912 -0.20517488
v 0.05736241 0.25631455 -0.20914131
v 0.078119636 0.24774912 -0.20517488
v -0.14384885 0.26402113 -0.1856606
v -0.16469038 0.25292006 -0.18771338
v -0.15833808 0.2504884 -0.16779028
v -0.14349602 0.26433393 -0.07254244
v -0.15833113 0.250526 -0.07254244
v -0.15831035 0.25055918 0.01909192
v 0.057364214 0.26417246 -0.18566576
v 0.078119636 0.25292006 -0.18771338
v 0.071753636 0.2504838 -0.16779017
v 0.0566111 0.2647715 -0.07254244
v 0.0715959 0.25072843 -0.07254224
v 0.055595625 0.26471692 0.04542687
v 0.07089067 0.25039247 0.05007899
v 0.06445859 0.25036767 0.066600636
v -0.14308383 0.26442873 0.045899324
v -0.15772419 0.25047037 0.0944711
v -0.14084859 0.26366657 0.0908911
v -0.15502438 0.25058344 0.10184262
v -0.14574875 0.25047362 0.10327637
v -0.022941861 0.25046724 0.102705695
v -0.024135012 0.26435143 0.091036156
v 0.0055008554 0.26437026 0.0885958
v 0.0077677844 0.2504552 0.10041773
v 0.049478434 0.2645391 0.061679583
v 0.051584963 0.25046808 0.08493874
v 0.02555493 0.26438093 0.08422673
v 0.03194299 0.25044 0.09598811
v 0.039849542 0.26444823 0.07541239
v -0.18616182 0.2229981 -0.11130806
v -0.16080971 0.23000754 -0.1255816
v -0.16097847 0.22653206 -0.073463306
v -0.16080971 0.19500205 -0.1255816
v -0.16779685 0.2236193 -0.07228113
v -0.16084473 0.22594684 -0.026387662
v -0.18616182 0.20201151 -0.11130806
v -0.16097847 0.19847755 -0.073463306
v -0.16779685 0.2013903 -0.07228113
v -0.16084473 0.19906276 -0.026387662
v -0.16707611 0.22271188 -0.028485555
v -0.16707611 0.20229772 -0.028485555
v -0.16469038 0.20177482 -0.22435641
v -0.16469038 0.22323479 -0.22435641
v -0.1630949 0.2125048 -0.18536916
v -0.16469038 0.18891838 -0.21832433
v -0.16469038 0.23609121 -0.21832433
v -0.16469038 0.17726047 -0.20517488
v -0.16469038 0.24774912 -0.20517488
v -0.16469038 0.17208953 -0.18771338
v -0.16469038 0.25292006 -0.18771338
v -0.16469038 0.17572017 -0.16856828
v -0.15833808 0.1745212 -0.16779028
v -0.16469038 0.1858082 -0.15433593
v -0.1604972 0.18492635 -0.15262038
v -0.15833113 0.17448358 -0.07254244
v -0.16469038 0.24928944 -0.16856828
v -0.15833808 0.2504884 -0.16779028
v -0.16469038 0.23920141 -0.15433593
v -0.1604972 0.24008325 -0.15262038
v -0.15833113 0.250526 -0.07254244
v -0.16469038 0.20176376 -0.14658724
v -0.16469038 0.22324584 -0.14658724
v -0.16469038 0.2125048 -0.1450955
v -0.16085263 0.2003606 -0.14377552
v -0.16080971 0.19500205 -0.1255816
v -0.16097847 0.19847755 -0.073463306
v -0.15831035 0.17445041 0.01909192
v -0.16084473 0.19906276 -0.026387662
v -0.16087405 0.2125048 -0.1428556
v -0.16080971 0.23000754 -0.1255816
v -0.16085263 0.22464901 -0.14377552
v -0.16097847 0.22653206 -0.073463306
v -0.15831035 0.25055918 0.01909192
v -0.16084473 0.22594684 -0.026387662
v -0.16351238 0.17876872 0.02338355
v -0.15772419 0.17453924 0.0944711
v -0.16351238 0.24624088 0.02338355
v -0.15772419 0.25047037 0.0944711
v -0.16361088 0.17879269 0.08813889
v -0.16361088 0.24621692 0.08813889
v -0.15502438 0.17442615 0.10184262
v -0.15502438 0.25058344 0.10184262
v -0.14574875 0.17453597 0.10327637
v -0.14574875 0.25047362 0.10327637
v -0.022941861 0.25046724 0.102705695
v -0.022941861 0.17454237 0.102705695
v 0.0077677844 0.17455441 0.10041773
v 0.0077677844 0.2504552 0.10041773
v 0.03194299 0.17456958 0.09598811
v 0.03194299 0.25044 0.09598811
v 0.051584963 0.17454153 0.08493874
v 0.051584963 0.25046808 0.08493874
v 0.06445859 0.17464192 0.066600636
v 0.06445859 0.25036767 0.066600636
v 0.07089067 0.17461713 0.05007899
v 0.07089067 0.25039247 0.05007899
v 0.0715959 0.25072843 -0.07254224
v 0.0715959 0.17428118 -0.07254224
v 0.07430332 0.2125048 -0.1428556
v 0.07428188 0.2003606 -0.14377552
v 0.073926456 0.18492635 -0.15262038
v 0.071753636 0.1745258 -0.16779017
v 0.07428188 0.22464901 -0.14377552
v 0.078119636 0.2125048 -0.1450955
v 0.078119636 0.20176376 -0.14658724
v 0.078119636 0.1858082 -0.15433593
v 0.073926456 0.24008325 -0.15262038
v 0.071753636 0.2504838 -0.16779017
v 0.076524146 0.2125048 -0.18536916
v 0.078119636 0.17572017 -0.16856828
v 0.078119636 0.17208953 -0.18771338
v 0.078119636 0.17726047 -0.20517488
v 0.078119636 0.18891838 -0.21832433
v 0.078119636 0.20177482 -0.22435641
v 0.078119636 0.22323479 -0.22435641
v 0.078119636 0.23609121 -0.21832433
v 0.078119636 0.24774912 -0.20517488
v 0.078119636 0.25292006 -0.18771338
v 0.078119636 0.24928944 -0.16856828
v 0.078119636 0.23920141 -0.15433593
v 0.078119636 0.22324584 -0.14658724
vt 0.4933201 0.43074772
vt 0.48420492 0.43827963
vt 0.49095526 0.43827963
vt 0.49858394 0.43756172
vt 0.53089845 0.43074772
vt 0.53089845 0.43756172
vt 0.5614968 0.43756172
vt 0.48532304 0.43074772
vt 0.47739646 0.43827963
vt 0.5702707 0.43074772
vt 0.5872808 0.43756172
vt 0.5704407 0.3642808
vt 0.58515155 0.4299953
vt 0.58984596 0.43556502
vt 0.59096193 0.4323159
vt 0.59168434 0.3908578
vt 0.5855624 0.3912828
vt 0.5847213 0.38136256
vt 0.5907679 0.38017544
vt 0.5832358 0.37470594
vt 0.58889 0.37167352
vt 0.5758052 0.3668146
vt 0.5803293 0.37000296
vt 0.58472544 0.3648117
vt 0.5782738 0.36022553
vt 0.5724542 0.35737526
vt 0.53089845 0.3642808
vt 0.53089845 0.35737526
vt 0.49877384 0.35737526
vt 0.49336526 0.3642808
vt 0.49104246 0.35663944
vt 0.48425287 0.35663944
vt 0.48521572 0.3642808
vt 0.47740433 0.35663944
vt 0.4767673 0.3642808
vt 0.4716254 0.35663944
vt 0.47679538 0.43074772
vt 0.47163892 0.43827963
vt 0.47049722 0.3642808
vt 0.46297777 0.35663944
vt 0.47071213 0.43074772
vt 0.46302316 0.43827963
vt 0.4641665 0.3642808
vt 0.46400157 0.43074772
vt 0.45791155 0.43074772
vt 0.45728934 0.43827963
vt 0.45789564 0.36428082
vt 0.45722193 0.35663944
vt 0.4493779 0.43074772
vt 0.45050398 0.43827963
vt 0.4494444 0.36428082
vt 0.45039976 0.35663944
vt 0.44137987 0.43074772
vt 0.4437587 0.43827963
vt 0.43613023 0.43761477
vt 0.40378517 0.43074772
vt 0.40378517 0.43761477
vt 0.37320828 0.43761477
vt 0.44129395 0.3642808
vt 0.4436165 0.35663944
vt 0.4358893 0.35743687
vt 0.40378517 0.3642808
vt 0.40378517 0.35743687
vt 0.36422107 0.3642808
vt 0.36220348 0.35743687
vt 0.35638544 0.36029962
vt 0.36442977 0.43074772
vt 0.34742275 0.43761477
vt 0.34954813 0.4300664
vt 0.34485692 0.43563882
vt 0.34373903 0.4323903
vt 0.34299275 0.39093652
vt 0.34911448 0.3913581
vt 0.34995013 0.38143834
vt 0.34390277 0.38025466
vt 0.3588578 0.36688727
vt 0.3499366 0.36488882
vt 0.35143203 0.3747816
vt 0.34577557 0.37175238
vt 0.3543356 0.3700775
vt 0.33071947 0.40102097
vt 0.3369437 0.41142198
vt 0.3369437 0.3815397
vt 0.31468177 0.41142198
vt 0.33071947 0.3815397
vt 0.33350307 0.35730365
vt 0.32072526 0.40102097
vt 0.31468177 0.3815397
vt 0.32072526 0.3815397
vt 0.31784302 0.35730365
vt 0.33071947 0.3596904
vt 0.32072526 0.3596904
vt 0.30881923 0.3322892
vt 0.30880392 0.3393573
vt 0.32157418 0.33585188
vt 0.31083596 0.32806894
vt 0.3108024 0.3435866
vt 0.3152097 0.324278
vt 0.3151601 0.34739694
vt 0.3209927 0.3226726
vt 0.32093745 0.34902814
vt 0.32715625 0.32434073
vt 0.32815084 0.32257348
vt 0.331798 0.3273001
vt 0.33298624 0.32634792
vt 0.35945353 0.32354867
vt 0.3271111 0.34738788
vt 0.32809985 0.34915903
vt 0.33176538 0.344452
vt 0.33294976 0.34540996
vt 0.3593589 0.34854522
vt 0.33442718 0.33237952
vt 0.33441463 0.33938685
vt 0.33485073 0.33588445
vt 0.3359124 0.3317158
vt 0.34191588 0.32998002
vt 0.35906306 0.33136228
vt 0.38951012 0.3235486
vt 0.37453416 0.33155563
vt 0.33627886 0.33588818
vt 0.3418998 0.3418257
vt 0.3358981 0.34005818
vt 0.35900623 0.34053776
vt 0.38946396 0.34854522
vt 0.37451106 0.3404585
vt 0.39155215 0.32526293
vt 0.41544473 0.3235486
vt 0.39145404 0.3468496
vt 0.4154815 0.34854522
vt 0.41283432 0.32525828
vt 0.4127954 0.34675658
vt 0.41803312 0.32354867
vt 0.41805258 0.34854522
vt 0.42112616 0.32354853
vt 0.4211279 0.34854522
vt 0.46146774 0.34854522
vt 0.4614985 0.3235486
vt 0.47161892 0.32354853
vt 0.4715863 0.34854522
vt 0.47969595 0.3235486
vt 0.4796623 0.34854522
vt 0.48710176 0.3235486
vt 0.48706788 0.34854522
vt 0.49446467 0.3235486
vt 0.49443054 0.34854522
vt 0.5002909 0.32354853
vt 0.50025654 0.34854522
vt 0.5405517 0.34854522
vt 0.54058605 0.32354853
vt 0.563759 0.33620396
vt 0.56408966 0.332058
vt 0.5669798 0.32671356
vt 0.57179826 0.32295346
vt 0.5640784 0.34035084
vt 0.5651579 0.33620587
vt 0.5655721 0.3327187
vt 0.56817293 0.32766166
vt 0.56695366 0.34570318
vt 0.5717618 0.3494766
vt 0.5783789 0.33622414
vt 0.5728046 0.32471827
vt 0.5789834 0.32305935
vt 0.5847689 0.3246794
vt 0.58913374 0.3284826
vt 0.59113747 0.3327086
vt 0.5911276 0.33977476
vt 0.5891124 0.34399512
vt 0.58473694 0.3477864
vt 0.5789475 0.34939057
vt 0.5727729 0.34771454
vt 0.5681493 0.34475833
vt 0.5655627 0.3396943
vn -0.036090944 -0.9975169 -0.060477458
vn -0.752906 -0.5732815 -0.32323492
vn -0.83143336 -0.54878634 -0.086902946
vn -0.6867213 -0.7263935 0.027681341
vn -0.059728242 -0.9982128 -0.0018988936
vn -0.8404122 -0.5419462 0.0012768989
vn -0.85045296 -0.52559525 -0.021893155
vn -0.036483068 -0.87209755 -0.48797017
vn -0.76126206 -0.41742545 -0.49622172
vn -0.060377117 -0.9981704 0.0032406317
vn -0.8258738 -0.5072267 0.24627936
vn 0.07356887 -0.9972796 0.00460325
vn -0.089621335 -0.97673166 0.19484189
vn -0.594442 -0.07970915 0.8001782
vn -0.0066966983 -0.10953294 0.9939606
vn 0.018111307 -0.12692088 0.9917475
vn -0.00035349556 -0.9876572 0.15663064
vn 0.04276176 -0.94196105 0.33298773
vn 0.121710226 -0.1256688 0.9845781
vn 0.17830212 -0.8468188 0.5011052
vn 0.33335972 -0.124435164 0.9345519
vn 0.23276216 -0.963131 0.13490927
vn 0.33427846 -0.8648315 0.3745991
vn 0.666785 -0.13298772 0.73328847
vn 0.8658731 -0.15152106 0.4767653
vn 0.98766625 -0.14785554 0.05151908
vn 0.06192258 -0.99807966 -0.001624011
vn 0.97393394 -0.22662683 0.009638239
vn 0.69090563 -0.72241277 0.02773234
vn 0.034358405 -0.99757236 -0.06057141
vn 0.8320418 -0.5477892 -0.087369554
vn 0.7561495 -0.5706637 -0.32028276
vn 0.03564247 -0.8718418 -0.48848906
vn 0.76431376 -0.41254568 -0.49561125
vn 0.037356257 -0.63191634 -0.7741358
vn 0.80823594 -0.12395279 -0.57566524
vn -0.038046416 -0.6322243 -0.77385074
vn -0.8042924 -0.12116131 -0.5817506
vn 0.04894997 -0.19979765 -0.9786137
vn 0.8082362 0.12395288 -0.57566476
vn -0.050243217 -0.20040187 -0.97842455
vn -0.8042924 0.12116138 -0.58175045
vn 0.048949942 0.1997975 -0.9786138
vn -0.050243158 0.20040174 -0.97842455
vn -0.038046323 0.63222355 -0.7738513
vn -0.76126206 0.41742578 -0.49622145
vn 0.037356246 0.63191575 -0.77413636
vn 0.7643139 0.41254592 -0.49561077
vn -0.03648304 0.8720973 -0.4879706
vn -0.752906 0.57328135 -0.32323503
vn 0.035642516 0.8718415 -0.48848945
vn 0.75614923 0.57066345 -0.32028344
vn -0.036090925 0.9975169 -0.060477342
vn -0.8314332 0.5487865 -0.08690311
vn -0.68672127 0.7263936 0.027681153
vn -0.05972825 0.9982128 -0.0018989198
vn -0.84041214 0.5419464 0.0012768725
vn -0.85045296 0.5255953 -0.021893037
vn 0.03435841 0.99757236 -0.060571313
vn 0.8320418 0.54778904 -0.08737062
vn 0.69090563 0.7224129 0.027732307
vn 0.06192258 0.99807966 -0.0016240391
vn 0.97393394 0.22662683 0.009638215
vn 0.07356887 0.9972796 0.0046032625
vn 0.98766625 0.14785554 0.05151908
vn 0.8658731 0.15152106 0.4767653
vn -0.060377125 0.9981704 0.0032407658
vn -0.8258737 0.5072269 0.24627925
vn -0.08962132 0.97673154 0.19484231
vn -0.5944421 0.07970903 0.8001781
vn -0.0066966987 0.10953292 0.9939606
vn 0.018111309 0.12692085 0.9917475
vn -0.00035349248 0.98765707 0.15663125
vn 0.042761836 0.94196105 0.33298746
vn 0.12171024 0.12566884 0.9845781
vn 0.23276216 0.9631311 0.13490868
vn 0.66678506 0.13298781 0.73328847
vn 0.17830233 0.8468187 0.50110525
vn 0.33335975 0.12443505 0.9345519
vn 0.3342785 0.8648313 0.37459928
vn -0.8611502 0.47004372 -0.19359542
vn -0.5293764 0.58981997 -0.6098139
vn -0.29932764 0.95181 0.06678914
vn -0.52937645 -0.5898202 -0.60981375
vn -0.84786177 0.49346608 0.1939631
vn -0.49053535 0.79396266 0.35916317
vn -0.8611502 -0.47004384 -0.19359522
vn -0.2993275 -0.95181 0.0667895
vn -0.8478616 -0.49346617 0.19396324
vn -0.49053517 -0.79396284 0.3591632
vn -0.9439281 0.2823923 0.1710391
vn -0.943928 -0.2823924 0.1710391
vn -0.8042924 -0.12116131 -0.5817506
vn -0.8042924 0.12116138 -0.58175045
vn -0.9999993 0 0.0012584167
vn -0.76126206 -0.41742545 -0.49622172
vn -0.76126206 0.41742578 -0.49622145
vn -0.752906 -0.5732815 -0.32323492
vn -0.752906 0.57328135 -0.32323503
vn -0.83143336 -0.54878634 -0.086902946
vn -0.8314332 0.5487865 -0.08690311
vn -0.9809831 -0.17609647 0.08162235
vn -0.6867213 -0.7263935 0.027681341
vn -0.9751541 -0.15851672 0.1547478
vn -0.96230775 -0.25142446 0.103679664
vn -0.8404122 -0.5419462 0.0012768989
vn -0.9809831 0.17609635 0.08162237
vn -0.68672127 0.7263936 0.027681153
vn -0.9751542 0.1585165 0.1547477
vn -0.9623079 0.25142413 0.10367962
vn -0.84041214 0.5419464 0.0012768725
vn -0.9862505 -0.05420742 0.15611373
vn -0.9862505 0.05420728 0.15611376
vn -0.9865001 -1.7620735E-07 0.1637603
vn -0.9637947 -0.10324208 0.24584696
vn -0.99767965 -0.06699882 0.012104318
vn -0.99437416 -0.105902016 0.0022156378
vn -0.85045296 -0.52559525 -0.021893155
vn -0.9982925 -0.05029453 0.029707195
vn -0.98438567 0 0.17602527
vn -0.99767965 0.066998325 0.012104352
vn -0.9637948 0.103241816 0.24584687
vn -0.99437404 0.10590255 0.0022156562
vn -0.85045296 0.5255953 -0.021893037
vn -0.9982925 0.050294884 0.029707203
vn -0.99008965 -0.10069515 -0.0978925
vn -0.8258738 -0.5072267 0.24627936
vn -0.99008965 0.10069508 -0.097892486
vn -0.8258737 0.5072269 0.24627925
vn -0.9896539 -0.10372171 0.09913133
vn -0.9896539 0.10372163 0.09913133
vn -0.594442 -0.07970915 0.8001782
vn -0.5944421 0.07970903 0.8001781
vn -0.0066966983 -0.10953294 0.9939606
vn -0.0066966987 0.10953292 0.9939606
vn 0.018111309 0.12692085 0.9917475
vn 0.018111307 -0.12692088 0.9917475
vn 0.121710226 -0.1256688 0.9845781
vn 0.12171024 0.12566884 0.9845781
vn 0.33335972 -0.124435164 0.9345519
vn 0.33335975 0.12443505 0.9345519
vn 0.666785 -0.13298772 0.73328847
vn 0.66678506 0.13298781 0.73328847
vn 0.8658731 -0.15152106 0.4767653
vn 0.8658731 0.15152106 0.4767653
vn 0.98766625 -0.14785554 0.05151908
vn 0.98766625 0.14785554 0.05151908
vn 0.97393394 0.22662683 0.009638215
vn 0.97393394 -0.22662683 0.009638239
vn 0.99739033 0 0.072198585
vn 0.99358726 -0.04989796 0.10146179
vn 0.97348976 -0.20942134 0.091979556
vn 0.69090563 -0.72241277 0.02773234
vn 0.99358726 0.049898025 0.101461776
vn 0.9865002 1.2191093E-07 0.1637596
vn 0.9862505 -0.054207377 0.15611348
vn 0.97511 -0.1586997 0.15483859
vn 0.97348976 0.20942135 0.091979705
vn 0.69090563 0.7224129 0.027732307
vn 0.9999993 0 0.0012584279
vn 0.98091334 -0.17643811 0.08172277
vn 0.8320418 -0.5477892 -0.087369554
vn 0.7561495 -0.5706637 -0.32028276
vn 0.76431376 -0.41254568 -0.49561125
vn 0.80823594 -0.12395279 -0.57566524
vn 0.8082362 0.12395288 -0.57566476
vn 0.7643139 0.41254592 -0.49561077
vn 0.75614923 0.57066345 -0.32028344
vn 0.8320418 0.54778904 -0.08737062
vn 0.98091334 0.17643805 0.08172277
vn 0.9751099 0.15869966 0.15483892
vn 0.9862505 0.054207496 0.15611342
g slimepedia_0
f 3/3/3 2/2/2 1/1/1
f 4/4/4 3/3/3 1/1/1
f 1/1/1 5/5/5 4/4/4
f 5/5/5 6/6/6 4/4/4
f 7/7/7 6/6/6 5/5/5
f 2/2/2 8/8/8 1/1/1
f 8/8/8 2/2/2 9/9/9
f 10/10/10 7/7/7 5/5/5
f 11/11/11 7/7/7 10/10/10
f 10/10/10 5/5/5 12/12/12
f 10/10/10 12/12/12 13/13/13
f 13/13/13 11/11/11 10/10/10
f 11/11/11 13/13/13 14/14/14
f 13/13/13 15/15/15 14/14/14
f 15/15/15 13/13/13 16/16/16
f 13/13/13 17/17/17 16/16/16
f 12/12/12 17/17/17 13/13/13
f 17/17/17 18/18/18 16/16/16
f 17/17/17 12/12/12 18/18/18
f 18/18/18 19/19/19 16/16/16
f 19/19/19 18/18/18 20/20/20
f 21/21/21 19/19/19 20/20/20
f 18/18/18 22/22/22 20/20/20
f 12/12/12 22/22/22 18/18/18
f 20/20/20 23/23/23 21/21/21
f 22/22/22 23/23/23 20/20/20
f 23/23/23 24/24/24 21/21/21
f 23/23/23 22/22/22 24/24/24
f 22/22/22 25/25/25 24/24/24
f 22/22/22 12/12/12 25/25/25
f 12/12/12 26/26/26 25/25/25
f 12/12/12 27/27/27 26/26/26
f 27/27/27 28/28/28 26/26/26
f 5/5/5 27/27/27 12/12/12
f 29/29/29 28/28/28 27/27/27
f 30/30/30 27/27/27 5/5/5
f 30/30/30 29/29/29 27/27/27
f 31/31/31 29/29/29 30/30/30
f 1/1/1 30/30/30 5/5/5
f 32/32/32 31/31/31 30/30/30
f 33/33/33 30/30/30 1/1/1
f 33/33/33 32/32/32 30/30/30
f 32/32/32 33/33/33 34/34/34
f 8/8/8 33/33/33 1/1/1
f 33/33/33 35/35/35 34/34/34
f 33/33/33 8/8/8 35/35/35
f 36/36/36 34/34/34 35/35/35
f 8/8/8 37/37/37 35/35/35
f 37/37/37 8/8/8 9/9/9
f 9/9/9 38/38/38 37/37/37
f 39/39/39 36/36/36 35/35/35
f 35/35/35 37/37/37 39/39/39
f 40/40/40 36/36/36 39/39/39
f 38/38/38 41/41/41 37/37/37
f 37/37/37 41/41/41 39/39/39
f 38/38/38 42/42/42 41/41/41
f 43/43/43 40/40/40 39/39/39
f 43/43/43 39/39/39 41/41/41
f 42/42/42 44/44/44 41/41/41
f 44/44/44 43/43/43 41/41/41
f 44/44/44 42/42/42 45/45/45
f 44/44/44 45/45/45 43/43/43
f 42/42/42 46/46/46 45/45/45
f 40/40/40 43/43/43 47/47/47
f 45/45/45 47/47/47 43/43/43
f 48/48/48 40/40/40 47/47/47
f 49/49/49 45/45/45 46/46/46
f 45/45/45 49/49/49 47/47/47
f 50/50/50 49/49/49 46/46/46
f 47/47/47 51/51/51 48/48/48
f 49/49/49 51/51/51 47/47/47
f 51/51/51 52/52/52 48/48/48
f 49/49/49 50/50/50 53/53/53
f 51/51/51 49/49/49 53/53/53
f 50/50/50 54/54/54 53/53/53
f 54/54/54 55/55/55 53/53/53
f 56/56/56 53/53/53 55/55/55
f 57/57/57 56/56/56 55/55/55
f 57/57/57 58/58/58 56/56/56
f 52/52/52 51/51/51 59/59/59
f 59/59/59 51/51/51 53/53/53
f 59/59/59 53/53/53 56/56/56
f 60/60/60 52/52/52 59/59/59
f 61/61/61 60/60/60 59/59/59
f 61/61/61 59/59/59 62/62/62
f 62/62/62 59/59/59 56/56/56
f 63/63/63 61/61/61 62/62/62
f 62/62/62 56/56/56 64/64/64
f 62/62/62 64/64/64 65/65/65
f 63/63/63 62/62/62 65/65/65
f 65/65/65 64/64/64 66/66/66
f 58/58/58 67/67/67 56/56/56
f 56/56/56 67/67/67 64/64/64
f 58/58/58 68/68/68 67/67/67
f 68/68/68 69/69/69 67/67/67
f 64/64/64 67/67/67 69/69/69
f 69/69/69 68/68/68 70/70/70
f 71/71/71 69/69/69 70/70/70
f 69/69/69 71/71/71 72/72/72
f 73/73/73 69/69/69 72/72/72
f 73/73/73 64/64/64 69/69/69
f 74/74/74 73/73/73 72/72/72
f 64/64/64 73/73/73 74/74/74
f 75/75/75 74/74/74 72/72/72
f 64/64/64 76/76/76 66/66/66
f 76/76/76 64/64/64 74/74/74
f 66/66/66 76/76/76 77/77/77
f 74/74/74 75/75/75 78/78/78
f 76/76/76 74/74/74 78/78/78
f 75/75/75 79/79/79 78/78/78
f 77/77/77 80/80/80 79/79/79
f 76/76/76 80/80/80 77/77/77
f 80/80/80 78/78/78 79/79/79
f 80/80/80 76/76/76 78/78/78
f 83/83/83 82/82/82 81/81/81
f 81/81/81 82/82/82 84/84/84
f 85/85/85 83/83/83 81/81/81
f 86/86/86 83/83/83 85/85/85
f 87/87/87 81/81/81 84/84/84
f 81/81/81 87/87/87 85/85/85
f 84/84/84 88/88/88 87/87/87
f 88/88/88 89/89/89 87/87/87
f 87/87/87 89/89/89 85/85/85
f 88/88/88 90/90/90 89/89/89
f 91/91/91 86/86/86 85/85/85
f 91/91/91 85/85/85 89/89/89
f 90/90/90 86/86/86 91/91/91
f 90/90/90 92/92/92 89/89/89
f 92/92/92 91/91/91 89/89/89
f 92/92/92 90/90/90 91/91/91
f 95/95/95 94/94/94 93/93/93
f 95/95/95 93/93/93 96/96/96
f 94/94/94 95/95/95 97/97/97
f 96/96/96 98/98/98 95/95/95
f 99/99/99 97/97/97 95/95/95
f 98/98/98 100/100/100 95/95/95
f 101/101/101 99/99/99 95/95/95
f 100/100/100 102/102/102 95/95/95
f 103/103/103 102/102/102 100/100/100
f 104/104/104 102/102/102 103/103/103
f 95/95/95 102/102/102 104/104/104
f 105/105/105 104/104/104 103/103/103
f 103/103/103 106/106/106 105/105/105
f 107/107/107 101/101/101 95/95/95
f 107/107/107 108/108/108 101/101/101
f 107/107/107 109/109/109 108/108/108
f 107/107/107 95/95/95 109/109/109
f 109/109/109 110/110/110 108/108/108
f 111/111/111 108/108/108 110/110/110
f 104/104/104 112/112/112 95/95/95
f 112/112/112 104/104/104 105/105/105
f 113/113/113 109/109/109 95/95/95
f 109/109/109 113/113/113 110/110/110
f 95/95/95 112/112/112 114/114/114
f 113/113/113 95/95/95 114/114/114
f 115/115/115 112/112/112 105/105/105
f 114/114/114 112/112/112 115/115/115
f 105/105/105 106/106/106 116/116/116
f 105/105/105 116/116/116 115/115/115
f 106/106/106 117/117/117 116/116/116
f 106/106/106 118/118/118 117/117/117
f 118/118/118 119/119/119 117/117/117
f 116/116/116 120/120/120 115/115/115
f 120/120/120 114/114/114 115/115/115
f 116/116/116 121/121/121 120/120/120
f 113/113/113 114/114/114 122/122/122
f 114/114/114 120/120/120 122/122/122
f 113/113/113 122/122/122 110/110/110
f 121/121/121 122/122/122 120/120/120
f 121/121/121 110/110/110 122/122/122
f 111/111/111 110/110/110 121/121/121
f 123/123/123 111/111/111 121/121/121
f 124/124/124 111/111/111 123/123/123
f 119/119/119 118/118/118 124/124/124
f 125/125/125 124/124/124 123/123/123
f 125/125/125 119/119/119 124/124/124
f 124/124/124 118/118/118 126/126/126
f 118/118/118 127/127/127 126/126/126
f 128/128/128 124/124/124 126/126/126
f 129/129/129 124/124/124 128/128/128
f 128/128/128 126/126/126 130/130/130
f 127/127/127 130/130/130 126/126/126
f 131/131/131 128/128/128 130/130/130
f 130/130/130 127/127/127 131/131/131
f 131/131/131 129/129/129 128/128/128
f 127/127/127 129/129/129 131/131/131
f 129/129/129 127/127/127 132/132/132
f 133/133/133 129/129/129 132/132/132
f 133/133/133 132/132/132 134/134/134
f 135/135/135 133/133/133 134/134/134
f 136/136/136 135/135/135 134/134/134
f 137/137/137 136/136/136 134/134/134
f 137/137/137 138/138/138 136/136/136
f 138/138/138 139/139/139 136/136/136
f 138/138/138 140/140/140 139/139/139
f 140/140/140 141/141/141 139/139/139
f 140/140/140 142/142/142 141/141/141
f 142/142/142 143/143/143 141/141/141
f 142/142/142 144/144/144 143/143/143
f 144/144/144 145/145/145 143/143/143
f 144/144/144 146/146/146 145/145/145
f 146/146/146 147/147/147 145/145/145
f 147/147/147 146/146/146 148/148/148
f 146/146/146 149/149/149 148/148/148
f 148/148/148 149/149/149 150/150/150
f 149/149/149 151/151/151 150/150/150
f 149/149/149 152/152/152 151/151/151
f 149/149/149 153/153/153 152/152/152
f 148/148/148 150/150/150 154/154/154
f 155/155/155 150/150/150 151/151/151
f 150/150/150 155/155/155 154/154/154
f 156/156/156 151/151/151 152/152/152
f 156/156/156 155/155/155 151/151/151
f 157/157/157 152/152/152 153/153/153
f 157/157/157 156/156/156 152/152/152
f 158/158/158 148/148/148 154/154/154
f 158/158/158 159/159/159 148/148/148
f 156/156/156 160/160/160 155/155/155
f 156/156/156 157/157/157 160/160/160
f 161/161/161 157/157/157 153/153/153
f 161/161/161 160/160/160 157/157/157
f 161/161/161 153/153/153 162/162/162
f 161/161/161 162/162/162 160/160/160
f 162/162/162 163/163/163 160/160/160
f 163/163/163 164/164/164 160/160/160
f 165/165/165 160/160/160 164/164/164
f 166/166/166 160/160/160 165/165/165
f 160/160/160 166/166/166 167/167/167
f 167/167/167 168/168/168 160/160/160
f 168/168/168 169/169/169 160/160/160
f 159/159/159 170/170/170 169/169/169
f 169/169/169 170/170/170 160/160/160
f 171/171/171 170/170/170 159/159/159
f 160/160/160 170/170/170 171/171/171
f 158/158/158 171/171/171 159/159/159
f 171/171/171 172/172/172 160/160/160
f 172/172/172 171/171/171 158/158/158
f 160/160/160 172/172/172 155/155/155
f 154/154/154 172/172/172 158/158/158
f 155/155/155 172/172/172 154/154/154
