g slime_DLC_gold_face
v -0.3156242 0.18444845 0.22903964
v -0.36999115 0.26337767 0.23805222
v -0.31383538 0.27371567 0.3138355
v -0.28785113 0.21232267 0.28785115
v -0.2366071 0.1302546 0.23763989
v -0.22812171 0.18404606 0.31596565
v -0.13006613 0.08812292 0.2528368
v -0.3393658 0.37457314 0.3393659
v -0.40929237 0.37084362 0.2514975
v -0.23713283 0.26312837 0.37050855
v -0.1267237 0.15748261 0.34248838
v -1.0070302E-07 0.07111728 0.26014924
v -0.35150632 0.5000001 0.35150635
v -0.4259454 0.5000001 0.25857812
v -0.25058064 0.37074924 0.4099133
v -0.13038029 0.24769774 0.4131093
v -9.841735E-08 0.1441832 0.35579547
v 0.13006599 0.08812283 0.25283685
v -0.3393658 0.62542707 0.3393659
v -0.40929234 0.6291565 0.25149748
v -0.25764427 0.5000001 0.42660353
v -0.13605008 0.36409944 0.4617741
v -9.6767316E-08 0.2407988 0.4295244
v 0.12672356 0.15748243 0.34248853
v 0.23660702 0.13025446 0.23763998
v -0.31383538 0.72628456 0.3138355
v -0.36999103 0.73662263 0.23805214
v -0.13906954 0.5000001 0.48120263
v -8.705556E-08 0.36071503 0.48247448
v 0.13038014 0.24769759 0.41310945
v 0.22812162 0.1840459 0.3159657
v 0.31562418 0.1844483 0.22903973
v -0.28785104 0.7876776 0.28785115
v -0.31562418 0.8155517 0.22903962
v -0.22812168 0.81595415 0.31596556
v -0.23660707 0.86974543 0.23763984
v -0.23713279 0.73687196 0.37050855
v -0.12672366 0.84251744 0.34248838
v -0.13006608 0.91187716 0.25283673
v -0.2505806 0.6292508 0.40991324
v -4.7188824E-08 0.85581696 0.35579547
v -4.5405688E-08 0.9288827 0.26014927
v -0.13038024 0.7523026 0.41310927
v -0.13605003 0.63590074 0.46177408
v 0.1267236 0.8425175 0.34248847
v 0.13006602 0.9118773 0.25283685
v -5.1397997E-08 0.7592013 0.42952433
v -5.938702E-08 0.63928515 0.48247448
v 0.22812171 0.81595427 0.31596568
v 0.23660704 0.8697456 0.23763995
v 0.1303802 0.7523027 0.41310936
v -7.319992E-08 0.50000006 0.49712864
v 0.28785118 0.7876776 0.28785124
v 0.31562427 0.8155519 0.22903973
v 0.13605002 0.6359008 0.4617744
v 0.23713276 0.7368721 0.3705087
v 0.31383553 0.72628456 0.31383562
v 0.36999115 0.73662275 0.23805228
v 0.13906948 0.50000006 0.48120296
v 0.2505807 0.6292508 0.40991357
v 0.33936596 0.6254272 0.33936602
v 0.40929243 0.6291565 0.25149763
v 0.13604999 0.36409932 0.4617744
v 0.25764433 0.50000006 0.42660382
v 0.35150647 0.50000006 0.35150662
v 0.42594567 0.50000006 0.25857824
v 0.2505807 0.37074912 0.4099136
v 0.33936584 0.37457293 0.33936614
v 0.40929252 0.37084344 0.25149766
v 0.23713276 0.26312813 0.37050873
v 0.31383544 0.2737155 0.31383568
v 0.36999115 0.26337743 0.23805231
v 0.28785107 0.21232247 0.2878513
vt 0.16188669 0.1714566
vt 0.14122427 0.20848048
vt 0.21863179 0.21277887
vt 0.2189518 0.18336481
vt 0.21977705 0.14185809
vt 0.27625746 0.17178282
vt 0.33031213 0.119398534
vt 0.21836172 0.26396883
vt 0.13337272 0.2616487
vt 0.29594064 0.20893069
vt 0.3730788 0.1593936
vt 0.49920335 0.1106181
vt 0.2182474 0.3643264
vt 0.13127744 0.36445603
vt 0.30316865 0.2622005
vt 0.3901383 0.20325887
vt 0.49920332 0.15396856
vt 0.66811985 0.11939925
vt 0.21836029 0.47827858
vt 0.13336933 0.48188236
vt 0.3050244 0.36470887
vt 0.39687002 0.25897145
vt 0.49920318 0.20065737
vt 0.62535334 0.15939388
vt 0.77865076 0.14188793
vt 0.21862565 0.5785466
vt 0.14121842 0.589298
vt 0.3986615 0.36528018
vt 0.49920318 0.25748914
vt 0.6082932 0.20325951
vt 0.722173 0.17180349
vt 0.8365362 0.17151663
vt 0.21894215 0.64272237
vt 0.1618793 0.67160153
vt 0.27625018 0.67100084
vt 0.21977234 0.7331081
vt 0.29593843 0.5886993
vt 0.3730779 0.70110005
vt 0.33031178 0.7820615
vt 0.30316913 0.481661
vt 0.49920332 0.7146531
vt 0.4992035 0.8044636
vt 0.39013958 0.6039091
vt 0.39687043 0.48759103
vt 0.62535334 0.7011005
vt 0.66811985 0.7820643
vt 0.49920318 0.6109428
vt 0.49920335 0.4905324
vt 0.7221734 0.6710159
vt 0.77865076 0.73312974
vt 0.6082932 0.6039091
vt 0.49920318 0.36500573
vt 0.779475 0.64275473
vt 0.8365364 0.67164177
vt 0.60156125 0.48759115
vt 0.70248777 0.58870935
vt 0.779793 0.578577
vt 0.85719836 0.58934
vt 0.5997702 0.36528006
vt 0.6952566 0.4816688
vt 0.78005964 0.478308
vt 0.8650495 0.48192477
vt 0.60156125 0.25897157
vt 0.69340074 0.3647166
vt 0.78017324 0.3643554
vt 0.8671428 0.3644976
vt 0.6952566 0.26220754
vt 0.78005964 0.26399788
vt 0.8650495 0.26168826
vt 0.70248777 0.2089437
vt 0.77979285 0.2128303
vt 0.85719836 0.20854399
vt 0.7794748 0.18341655
vn -0.5961558 -0.58871025 0.5459107
vn -0.7082345 -0.39979678 0.58186466
vn -0.64803797 -0.39808086 0.6492907
vn -0.5831671 -0.5645504 0.58412254
vn -0.41904 -0.7158131 0.5585849
vn -0.42254177 -0.64030635 0.6414563
vn -0.23354077 -0.77041835 0.5932236
vn -0.6888685 -0.22184624 0.69010466
vn -0.7595138 -0.22126193 0.6117041
vn -0.46379948 -0.4377369 0.77024436
vn -0.23415823 -0.6882072 0.6866881
vn -0 -0.7916104 0.61102605
vn -0.70649505 0 0.70771796
vn -0.7800769 0 0.62568367
vn -0.5029907 -0.23432799 0.83191985
vn -0.24815488 -0.48360547 0.83937174
vn -0 -0.70752174 0.70669156
vn 0.23354004 -0.7704189 0.5932233
vn -0.6888684 0.22184655 0.6901046
vn -0.75951403 0.22126223 0.61170375
vn -0.51750326 0 0.8556812
vn -0.26483953 -0.25021008 0.93126523
vn -0 -0.5016346 0.86507964
vn 0.23415737 -0.6882076 0.68668807
vn 0.41903967 -0.71581346 0.55858463
vn -0.64803815 0.39808083 0.64929056
vn -0.70823497 0.3997971 0.5818639
vn -0.26923856 0 0.9630735
vn -0 -0.25511062 0.96691185
vn 0.24815378 -0.48360592 0.83937174
vn 0.42254138 -0.6403068 0.6414561
vn 0.5961554 -0.5887107 0.54591054
vn -0.58316684 0.5645509 0.5841222
vn -0.59615606 0.5887106 0.54591
vn -0.4225414 0.64030707 0.64145577
vn -0.41903967 0.7158137 0.5585843
vn -0.46379936 0.43773672 0.77024454
vn -0.23415816 0.6882077 0.6866878
vn -0.23354083 0.7704187 0.59322315
vn -0.5029907 0.23432808 0.8319199
vn -0 0.70752186 0.7066914
vn -0 0.79161054 0.611026
vn -0.24815467 0.4836054 0.8393718
vn -0.26483947 0.2502102 0.93126523
vn 0.23415728 0.68820786 0.68668795
vn 0.23354001 0.7704189 0.59322333
vn -0 0.5016345 0.86507964
vn -0 0.25511074 0.96691185
vn 0.42254123 0.6403075 0.64145553
vn 0.41903934 0.7158139 0.55858433
vn 0.24815382 0.48360616 0.8393716
vn -0 0 1
vn 0.5831666 0.5645509 0.58412236
vn 0.59615535 0.5887108 0.54591066
vn 0.26483837 0.25021064 0.9312654
vn 0.4637992 0.43773752 0.7702442
vn 0.648038 0.3980811 0.64929056
vn 0.70823455 0.39979723 0.58186424
vn 0.26923725 0 0.9630739
vn 0.50299066 0.23432837 0.83191985
vn 0.6888685 0.22184683 0.6901044
vn 0.75951403 0.22126232 0.6117037
vn 0.26483828 -0.25021052 0.9312654
vn 0.51750314 0 0.85568136
vn 0.70649517 0 0.70771784
vn 0.7800769 0 0.62568355
vn 0.5029905 -0.23432852 0.83191985
vn 0.68886834 -0.22184674 0.6901046
vn 0.7595137 -0.22126241 0.6117043
vn 0.46379912 -0.43773776 0.7702441
vn 0.6480377 -0.3980816 0.6492905
vn 0.7082342 -0.3997976 0.5818645
vn 0.58316636 -0.56455106 0.5841225
g slime_DLC_gold_face_0
f 3/3/3 2/2/2 1/1/1
f 4/4/4 3/3/3 1/1/1
f 4/4/4 1/1/1 5/5/5
f 6/6/6 4/4/4 5/5/5
f 6/6/6 5/5/5 7/7/7
f 3/3/3 8/8/8 2/2/2
f 8/8/8 9/9/9 2/2/2
f 10/10/10 3/3/3 4/4/4
f 6/6/6 10/10/10 4/4/4
f 11/11/11 6/6/6 7/7/7
f 11/11/11 7/7/7 12/12/12
f 8/8/8 13/13/13 9/9/9
f 13/13/13 14/14/14 9/9/9
f 15/15/15 8/8/8 3/3/3
f 10/10/10 15/15/15 3/3/3
f 16/16/16 10/10/10 6/6/6
f 11/11/11 16/16/16 6/6/6
f 17/17/17 11/11/11 12/12/12
f 17/17/17 12/12/12 18/18/18
f 13/13/13 19/19/19 14/14/14
f 19/19/19 20/20/20 14/14/14
f 21/21/21 13/13/13 8/8/8
f 15/15/15 21/21/21 8/8/8
f 22/22/22 15/15/15 10/10/10
f 16/16/16 22/22/22 10/10/10
f 23/23/23 16/16/16 11/11/11
f 17/17/17 23/23/23 11/11/11
f 24/24/24 17/17/17 18/18/18
f 24/24/24 18/18/18 25/25/25
f 19/19/19 26/26/26 20/20/20
f 26/26/26 27/27/27 20/20/20
f 28/28/28 21/21/21 15/15/15
f 22/22/22 28/28/28 15/15/15
f 29/29/29 22/22/22 16/16/16
f 23/23/23 29/29/29 16/16/16
f 30/30/30 23/23/23 17/17/17
f 24/24/24 30/30/30 17/17/17
f 31/31/31 24/24/24 25/25/25
f 31/31/31 25/25/25 32/32/32
f 26/26/26 33/33/33 27/27/27
f 33/33/33 34/34/34 27/27/27
f 33/33/33 35/35/35 34/34/34
f 35/35/35 33/33/33 26/26/26
f 35/35/35 36/36/36 34/34/34
f 37/37/37 35/35/35 26/26/26
f 37/37/37 26/26/26 19/19/19
f 35/35/35 38/38/38 36/36/36
f 38/38/38 35/35/35 37/37/37
f 38/38/38 39/39/39 36/36/36
f 40/40/40 37/37/37 19/19/19
f 40/40/40 19/19/19 13/13/13
f 21/21/21 40/40/40 13/13/13
f 38/38/38 41/41/41 39/39/39
f 41/41/41 42/42/42 39/39/39
f 43/43/43 38/38/38 37/37/37
f 43/43/43 37/37/37 40/40/40
f 41/41/41 38/38/38 43/43/43
f 44/44/44 40/40/40 21/21/21
f 44/44/44 43/43/43 40/40/40
f 28/28/28 44/44/44 21/21/21
f 41/41/41 45/45/45 42/42/42
f 45/45/45 46/46/46 42/42/42
f 47/47/47 41/41/41 43/43/43
f 47/47/47 43/43/43 44/44/44
f 45/45/45 41/41/41 47/47/47
f 48/48/48 44/44/44 28/28/28
f 48/48/48 47/47/47 44/44/44
f 45/45/45 49/49/49 46/46/46
f 49/49/49 50/50/50 46/46/46
f 51/51/51 45/45/45 47/47/47
f 51/51/51 47/47/47 48/48/48
f 49/49/49 45/45/45 51/51/51
f 52/52/52 48/48/48 28/28/28
f 52/52/52 28/28/28 22/22/22
f 29/29/29 52/52/52 22/22/22
f 49/49/49 53/53/53 50/50/50
f 53/53/53 54/54/54 50/50/50
f 55/55/55 51/51/51 48/48/48
f 55/55/55 48/48/48 52/52/52
f 56/56/56 49/49/49 51/51/51
f 53/53/53 49/49/49 56/56/56
f 56/56/56 51/51/51 55/55/55
f 53/53/53 57/57/57 54/54/54
f 57/57/57 53/53/53 56/56/56
f 57/57/57 58/58/58 54/54/54
f 59/59/59 52/52/52 29/29/29
f 59/59/59 55/55/55 52/52/52
f 60/60/60 56/56/56 55/55/55
f 57/57/57 56/56/56 60/60/60
f 60/60/60 55/55/55 59/59/59
f 57/57/57 61/61/61 58/58/58
f 61/61/61 57/57/57 60/60/60
f 61/61/61 62/62/62 58/58/58
f 63/63/63 59/59/59 29/29/29
f 63/63/63 29/29/29 23/23/23
f 30/30/30 63/63/63 23/23/23
f 64/64/64 60/60/60 59/59/59
f 61/61/61 60/60/60 64/64/64
f 64/64/64 59/59/59 63/63/63
f 61/61/61 65/65/65 62/62/62
f 65/65/65 61/61/61 64/64/64
f 65/65/65 66/66/66 62/62/62
f 67/67/67 64/64/64 63/63/63
f 67/67/67 63/63/63 30/30/30
f 65/65/65 64/64/64 67/67/67
f 65/65/65 68/68/68 66/66/66
f 68/68/68 65/65/65 67/67/67
f 68/68/68 69/69/69 66/66/66
f 70/70/70 67/67/67 30/30/30
f 68/68/68 67/67/67 70/70/70
f 70/70/70 30/30/30 24/24/24
f 31/31/31 70/70/70 24/24/24
f 68/68/68 71/71/71 69/69/69
f 71/71/71 68/68/68 70/70/70
f 71/71/71 70/70/70 31/31/31
f 71/71/71 72/72/72 69/69/69
f 73/73/73 71/71/71 31/31/31
f 71/71/71 73/73/73 72/72/72
f 73/73/73 31/31/31 32/32/32
f 73/73/73 32/32/32 72/72/72
