g slimehoop1_COL
v 1.0242634 0.7252098 -0.47892493
v 1.0672699 0.7252098 -0.53811795
v 1.2393142 0.7252098 -0.18293305
v 1.3088998 0.7252098 -0.20554271
v 1.2393142 0.7252098 -0.18293305
v 1.2393142 0.7252098 0.18293305
v 1.3088998 0.7252098 0.20554285
v 0.67630416 0.7252098 -0.59198374
v 0.67630416 0.5823065 -0.62856704
v 0.17378624 0.7252098 -0.56185013
v 0.67630416 0.5823065 -0.62856704
v 0.17378698 0.5823065 -0.6289866
v 0.17378624 0.7252098 -0.56185013
v 0.67630416 0.7252098 0.5919838
v 0.17378622 0.7252098 0.55343014
v 0.67630416 0.5823067 0.6285671
v 0.17378622 0.7252098 0.55343014
v 0.17378695 0.5823067 0.6223267
v 0.67630416 0.5823067 0.6285671
v 0.67630416 0.7252098 -0.6651503
v 0.17378633 0.7252098 -0.696123
v 0.67630416 0.5823065 -0.62856704
v 0.17378633 0.7252098 -0.696123
v 0.17378698 0.5823065 -0.6289866
v 0.67630416 0.5823065 -0.62856704
v 0.6763041 0.7252098 0.66515034
v 0.67630416 0.5823067 0.6285671
v 0.17378633 0.7252098 0.69122314
v 0.67630416 0.5823067 0.6285671
v 0.17378695 0.5823067 0.6223267
v 0.17378633 0.7252098 0.69122314
v 1.0457666 0.5823065 0.5085215
v 1.0242634 0.7252098 0.47892493
v 0.67630416 0.5823067 0.6285671
v 0.67630416 0.7252098 0.5919838
v 1.274107 0.5823065 0.19423793
v 1.2393142 0.7252098 0.18293305
v 1.0457666 0.5823065 0.5085215
v 1.0242634 0.7252098 0.47892493
v 1.274107 0.5823065 -0.19423787
v 1.2393142 0.7252098 -0.18293305
v 1.274107 0.5823065 0.19423793
v 1.2393142 0.7252098 0.18293305
v 1.0457667 0.5823065 -0.50852144
v 1.0242634 0.7252098 -0.47892493
v 1.274107 0.5823065 -0.19423787
v 1.2393142 0.7252098 -0.18293305
v 0.67630416 0.5823065 -0.62856704
v 0.67630416 0.7252098 -0.59198374
v 1.0457667 0.5823065 -0.50852144
v 1.0242634 0.7252098 -0.47892493
v 1.0242634 0.7252098 0.47892493
v 1.0672697 0.7252098 0.538118
v 0.67630416 0.7252098 0.5919838
v 0.6763041 0.7252098 0.66515034
v 1.2393142 0.7252098 0.18293305
v 1.3088998 0.7252098 0.20554285
v 1.0242634 0.7252098 0.47892493
v 1.0672697 0.7252098 0.538118
v 0.67630416 0.7252098 -0.59198374
v 0.67630416 0.7252098 -0.6651503
v 1.0242634 0.7252098 -0.47892493
v 1.0672699 0.7252098 -0.53811795
v 1.0672697 0.7252098 0.538118
v 1.0457666 0.5823065 0.5085215
v 0.6763041 0.7252098 0.66515034
v 0.67630416 0.5823067 0.6285671
v 1.3088998 0.7252098 0.20554285
v 1.274107 0.5823065 0.19423793
v 1.0672697 0.7252098 0.538118
v 1.0457666 0.5823065 0.5085215
v 1.3088998 0.7252098 -0.20554271
v 1.274107 0.5823065 -0.19423787
v 1.3088998 0.7252098 0.20554285
v 1.274107 0.5823065 0.19423793
v 1.0672699 0.7252098 -0.53811795
v 1.0457667 0.5823065 -0.50852144
v 1.3088998 0.7252098 -0.20554271
v 1.274107 0.5823065 -0.19423787
v 0.67630416 0.7252098 -0.6651503
v 0.67630416 0.5823065 -0.62856704
v 1.0672699 0.7252098 -0.53811795
v 1.0457667 0.5823065 -0.50852144
v 0.67630416 0.7252098 -0.6651503
v 0.67630416 0.7252098 -0.59198374
v 0.17378633 0.7252098 -0.696123
v 0.17378624 0.7252098 -0.56185013
v 0.6763041 0.7252098 0.66515034
v 0.17378633 0.7252098 0.69122314
v 0.67630416 0.7252098 0.5919838
v 0.17378622 0.7252098 0.55343014
vt 0.9000001 0.75
vt 0.9000001 0.5
vt 0.8000001 0.75
vt 0.8000001 0.5
vt 0.8000001 0.75
vt 0.70000005 0.75
vt 0.70000005 0.5
vt 1 0
vt 0 0
vt 1 1
vt 0 0
vt 0 1
vt 1 1
vt 0 0
vt 0 1
vt 1 0
vt 0 1
vt 1 1
vt 1 0
vt 0 0
vt 0 1
vt 1 0
vt 0 1
vt 1 1
vt 1 0
vt 1 0
vt 0 0
vt 1 1
vt 0 0
vt 0 1
vt 1 1
vt 0.6 1
vt 0.6 0.75
vt 0.5 1
vt 0.5 0.75
vt 0.70000005 1
vt 0.70000005 0.75
vt 0.6 1
vt 0.6 0.75
vt 0.8000001 1
vt 0.8000001 0.75
vt 0.70000005 1
vt 0.70000005 0.75
vt 0.9000001 1
vt 0.9000001 0.75
vt 0.8000001 1
vt 0.8000001 0.75
vt 1.0000001 1
vt 1.0000001 0.75
vt 0.9000001 1
vt 0.9000001 0.75
vt 0.6 0.75
vt 0.6 0.5
vt 0.5 0.75
vt 0.5 0.5
vt 0.70000005 0.75
vt 0.70000005 0.5
vt 0.6 0.75
vt 0.6 0.5
vt 1.0000001 0.75
vt 1.0000001 0.5
vt 0.9000001 0.75
vt 0.9000001 0.5
vt 0.6 0.5
vt 0.6 0.125
vt 0.5 0.5
vt 0.5 0.125
vt 0.70000005 0.5
vt 0.70000005 0.125
vt 0.6 0.5
vt 0.6 0.125
vt 0.8000001 0.5
vt 0.8000001 0.125
vt 0.70000005 0.5
vt 0.70000005 0.125
vt 0.9000001 0.5
vt 0.9000001 0.125
vt 0.8000001 0.5
vt 0.8000001 0.125
vt 1.0000001 0.5
vt 1.0000001 0.125
vt 0.9000001 0.5
vt 0.9000001 0.125
vt 1 0
vt 0 0
vt 1 1
vt 0 1
vt 0 0
vt 0 1
vt 1 0
vt 1 1
vn -0 1 9.589527E-07
vn -0 1 9.589526E-07
vn -0 1 9.589526E-07
vn -0 1 0
vn -0 1 0
vn -0 1 0
vn -0 1 0
vn 0.057994183 -0.24758512 0.9671289
vn 0.057994187 -0.24758515 0.9671289
vn 0.057994194 -0.24758515 0.9671289
vn -0.0007558864 -0.42521566 0.9050918
vn -0.0007558863 -0.42521566 0.9050918
vn -0.0007558864 -0.4252157 0.9050917
vn 0.07411972 -0.24732098 -0.9660945
vn 0.07411973 -0.24732101 -0.9660945
vn 0.074119724 -0.24732098 -0.9660945
vn 0.011185403 -0.43425578 -0.9007202
vn 0.011185403 -0.4342558 -0.9007202
vn 0.011185405 -0.43425578 -0.9007202
vn 0.05960343 -0.24756138 -0.96703714
vn 0.059603434 -0.24756138 -0.96703714
vn 0.059603434 -0.24756135 -0.96703714
vn 0.00075573137 -0.42521462 -0.9050922
vn 0.00075573137 -0.4252146 -0.9050922
vn 0.0007557314 -0.42521462 -0.9050922
vn 0.050199866 -0.24769059 0.9675378
vn 0.050199866 -0.24769056 0.9675378
vn 0.050199866 -0.24769059 0.9675378
vn -0.01118539 -0.4342552 0.9007205
vn -0.011185389 -0.4342552 0.9007205
vn -0.011185389 -0.43425515 0.9007205
vn -0.30024675 -0.23656137 -0.924062
vn -0.30024675 -0.23656137 -0.924062
vn -0.30024675 -0.23656137 -0.924062
vn -0.30024534 -0.23656017 -0.9240628
vn -0.7860544 -0.23656039 -0.5711022
vn -0.7860544 -0.23656039 -0.57110214
vn -0.7860544 -0.2365604 -0.5711022
vn -0.78605455 -0.23656105 -0.5711017
vn -0.9716168 -0.23656051 0
vn -0.9716168 -0.2365605 0
vn -0.9716168 -0.23656052 0
vn -0.9716168 -0.23656023 0
vn -0.786055 -0.23655997 0.5711014
vn -0.786055 -0.23655997 0.5711014
vn -0.786055 -0.23656 0.5711015
vn -0.7860544 -0.23656106 0.57110184
vn -0.3002467 -0.23656079 0.9240622
vn -0.3002467 -0.23656076 0.9240622
vn -0.30024666 -0.23656076 0.9240622
vn -0.30024523 -0.23655993 0.9240629
vn -0 1 7.671641E-06
vn -0 1 7.6716415E-06
vn -0 1 7.671641E-06
vn -0 1 0
vn -0 1 0
vn -0 1 0
vn -0 1 0
vn -0 1 0
vn -0 1 0
vn -0 1 0
vn -0 1 0
vn -0 1 -6.827759E-06
vn 0.30024552 -0.23656073 0.9240626
vn 0.30024546 -0.23656073 0.9240626
vn 0.3002455 -0.23656073 0.9240626
vn 0.30024752 -0.23656096 0.9240619
vn 0.7860541 -0.23655953 0.5711029
vn 0.7860541 -0.23655954 0.5711029
vn 0.7860541 -0.23655954 0.5711029
vn 0.78605473 -0.23656052 0.57110167
vn 0.9716167 -0.23656102 0
vn 0.9716167 -0.236561 0
vn 0.9716167 -0.236561 0
vn 0.97161657 -0.23656125 0
vn 0.78605366 -0.23656125 -0.57110286
vn 0.78605366 -0.23656125 -0.5711028
vn 0.78605366 -0.23656122 -0.5711028
vn 0.7860555 -0.23656075 -0.57110053
vn 0.30024567 -0.23656021 -0.9240627
vn 0.30024564 -0.23656018 -0.9240627
vn 0.30024564 -0.23656018 -0.9240627
vn 0.30024686 -0.236561 -0.9240621
vn -0 1 0
vn -0 1 0
vn -0 1 0
vn -0 1 0
vn -0 1 0
vn -0 1 0
vn -0 1 0
vn -0 1 -2.230808E-06
g slimehoop1_COL_0
f 3/3/3 2/2/2 1/1/1
f 5/5/5 4/4/4 2/2/2
f 6/6/6 4/4/4 5/5/5
f 6/6/6 7/7/7 4/4/4
f 10/10/10 9/9/9 8/8/8
f 13/13/13 12/12/12 11/11/11
f 16/16/16 15/15/15 14/14/14
f 19/19/19 18/18/18 17/17/17
f 22/22/22 21/21/21 20/20/20
f 25/25/25 24/24/24 23/23/23
f 28/28/28 27/27/27 26/26/26
f 31/31/31 30/30/30 29/29/29
f 34/34/34 33/33/33 32/32/32
f 34/34/34 35/35/35 33/33/33
f 38/38/38 37/37/37 36/36/36
f 38/38/38 39/39/39 37/37/37
f 42/42/42 41/41/41 40/40/40
f 42/42/42 43/43/43 41/41/41
f 46/46/46 45/45/45 44/44/44
f 46/46/46 47/47/47 45/45/45
f 50/50/50 49/49/49 48/48/48
f 50/50/50 51/51/51 49/49/49
f 54/54/54 53/53/53 52/52/52
f 54/54/54 55/55/55 53/53/53
f 58/58/58 57/57/57 56/56/56
f 58/58/58 59/59/59 57/57/57
f 62/62/62 61/61/61 60/60/60
f 62/62/62 63/63/63 61/61/61
f 66/66/66 65/65/65 64/64/64
f 66/66/66 67/67/67 65/65/65
f 70/70/70 69/69/69 68/68/68
f 70/70/70 71/71/71 69/69/69
f 74/74/74 73/73/73 72/72/72
f 74/74/74 75/75/75 73/73/73
f 78/78/78 77/77/77 76/76/76
f 78/78/78 79/79/79 77/77/77
f 82/82/82 81/81/81 80/80/80
f 82/82/82 83/83/83 81/81/81
f 86/86/86 85/85/85 84/84/84
f 86/86/86 87/87/87 85/85/85
f 90/90/90 89/89/89 88/88/88
f 90/90/90 91/91/91 89/89/89
