g sprout_carrot
v -0.16505261 0.60670197 -0.20932995
v -0.022281785 -0.022812271 -0.01007319
v -0.22505596 0.6310052 0.09622439
v -0.6360749 1.0876865 -0.20983696
v 0.030827513 0.5074505 -0.3946113
v -0.13584271 0.52329665 0.34896258
v -0.6457149 1.1423175 -0.9745847
v -0.83207566 1.4958355 0.41678977
v -1.8610722 2.0133224 -0.76417637
v 0.2388573 0.91950667 0.23205051
v -0.022281785 -0.022812271 -0.01007319
v 0.5365099 0.98692745 0.08415355
v 0.51645756 1.4772891 0.53411824
v -0.07185467 0.79358536 0.24986781
v 0.65551925 0.93073 -0.13352995
v -0.22370204 1.6080356 0.92979664
v 1.1448698 2.0746753 0.3872921
v 0.16178943 2.5981352 1.8770508
vt 0.12693226 0.17652526
vt 0.17414577 0.065975666
vt 0.17831942 0.18825233
vt 0.13114958 0.27171096
vt 0.09786192 0.14909893
vt 0.21466333 0.17124951
vt 0.023582283 0.27440947
vt 0.22007914 0.33601978
vt 0.04444679 0.47909403
vt 0.49693644 0.15888733
vt 0.36803293 0.15690348
vt 0.5095302 0.21888047
vt 0.60325813 0.17416796
vt 0.4687494 0.116164625
vt 0.4926175 0.2538141
vt 0.6149809 0.041276067
vt 0.69995177 0.27346036
vt 0.82653797 0.020578682
vn 0.7168663 0.68932295 0.10457765
vn 0.94928443 0.26756236 0.16513468
vn 0.8113576 0.5812968 -0.061585702
vn 0.68800783 0.7226894 -0.06606971
vn 0.6683951 0.7375344 0.096389435
vn 0.79453397 0.5975948 -0.10768605
vn 0.6136486 0.78691834 0.06476781
vn 0.7029211 0.6789895 -0.21183789
vn 0.63017386 0.76878476 -0.1088622
vn -0.35213852 0.5324627 -0.7697285
vn -0.47911194 0.34063208 -0.8089633
vn -0.6120396 0.5096427 -0.60470796
vn -0.49946383 0.5748681 -0.6481224
vn -0.2976827 0.5734641 -0.7632325
vn -0.64759356 0.5179427 -0.55888975
vn -0.24895921 0.6753739 -0.6941825
vn -0.62961435 0.5127197 -0.5836989
vn -0.46242854 0.6168194 -0.63694084
g sprout_carrot_0
f 3/3/3 2/2/2 1/1/1
f 3/3/3 1/1/1 4/4/4
f 1/1/1 5/5/5 4/4/4
f 6/6/6 3/3/3 4/4/4
f 5/5/5 7/7/7 4/4/4
f 8/8/8 6/6/6 4/4/4
f 7/7/7 9/9/9 4/4/4
f 9/9/9 8/8/8 4/4/4
f 12/12/12 11/11/11 10/10/10
f 12/12/12 10/10/10 13/13/13
f 10/10/10 14/14/14 13/13/13
f 15/15/15 12/12/12 13/13/13
f 14/14/14 16/16/16 13/13/13
f 17/17/17 15/15/15 13/13/13
f 16/16/16 18/18/18 13/13/13
f 18/18/18 17/17/17 13/13/13
