g stalagmite1
v -1.0322549 0.59042794 0.46616957
v -0.90709877 0.7464066 0.3817426
v -0.7166977 0.5165202 0.51142174
v -1.2953591 0.57179683 0.046531398
v -0.93351954 0.977613 0.15454657
v -0.5828304 1.1834251 0.26984125
v -0.33845648 0.5502807 0.59336835
v 0.05524206 0.99108845 0.5028727
v 0.15620756 0.71803313 0.51981664
v 0.27340522 1.1659629 0.47821787
v 0.2821303 0.966229 0.40408292
v 0.4878147 0.961199 0.20330185
v 0.67846185 1.2759093 0.26226896
v 0.81589866 0.8833191 0.10069517
v 0.3684039 0.56906396 0.55236906
v 0.15620756 0.71803313 0.51981664
v -0.016192675 0.33660984 0.6418956
v -0.33845648 0.5502807 0.59336835
v -0.4771864 0.42212832 0.7173166
v -0.7166977 0.5165202 0.51142174
v 0.72359204 0.3574327 0.8070229
v 0.30061787 0.27645558 0.71920043
v 0.5285958 0.2602253 0.974337
v 1.0686429 0.23274165 0.84176457
v 1.3170193 0.31177223 0.7048673
v 0.9413246 0.20056656 1.0908072
v 0.5285958 0.2602253 0.974337
v 0.80557394 0.53120905 0.5081905
v -1.2275957 0.54046154 0.57927036
v -1.0322549 0.59042794 0.46616957
v 1.2550378 0.50656414 0.19427124
v -1.333736 0.4584389 0.31881943
v -0.82429504 0.43440783 0.81799644
v -0.07888842 0.27244034 0.97788435
v -0.016192675 0.33660984 0.6418956
v 0.30061787 0.27645558 0.71920043
v -1.2094041 0.3165932 0.6131939
v 0.2445901 0.22428447 1.2371801
v -0.78916276 0.30111495 0.9229216
v -0.72446674 0.20151632 1.1083524
v -0.41721186 0.0958156 1.2929747
v -0.98962796 0.085665986 1.0825928
v -1.4384524 0.19537428 0.16763444
v -1.4167557 0.118009076 0.6504786
v -1.7413902 0.036921673 -0.041489754
v -1.4748183 0.23934028 -0.10095087
v -1.1438589 -0.15313707 0.9109566
v -0.6662028 -0.07086376 1.2390919
v -0.44580585 -0.11310034 1.1354669
v -0.04220295 -0.058493078 1.08732
v -1.4242975 -0.12370695 0.6147741
v -0.9605384 -0.1923897 0.37425724
v -1.581816 -0.16750896 0.26178148
v -1.3848267 -0.21671072 -0.19539638
v -1.668997 -0.147053 -0.018959975
v -1.5708934 0.028031817 -0.5051487
v -1.353836 0.2091328 -0.6608577
v -1.2667236 -0.06671704 -0.8073892
v -1.3279928 0.32131284 -0.30659738
v 0.25667953 -0.27069992 0.40606502
v -0.22946762 -0.3089179 -0.10960788
v 0.50250065 -0.15464959 0.9259243
v 1.3782263 -0.27624863 0.1483659
v 1.4311225 -0.28323698 -0.16597362
v -0.53189456 -0.30574536 -0.5880082
v 1.3263829 0.086031646 0.95335126
v 1.7278225 -0.08862442 0.3726282
v 1.7030869 0.13785988 0.34508795
v -1.0957475 -0.26236582 -0.5955691
v 2.0649555 -0.09570016 -0.051878422
v 1.5059152 0.31825882 0.45900676
v -0.9678601 -0.16760784 -1.0284824
v 1.8086243 0.1403482 0.02819178
v 2.0263956 0.023938889 -0.035748128
v 1.8974181 0.056508362 -0.354784
v 1.4561536 -0.2221276 -0.6927497
v 1.5494642 0.36091086 0.0928902
v 1.3232745 0.7141943 -0.20854162
v 1.6289577 0.3607635 -0.22698359
v 1.3293376 0.45902666 -0.6635056
v 1.6619831 0.17534167 -0.4056498
v 0.95796055 0.8404755 0.033524614
v 0.9560422 1.1782905 -0.026522411
v 0.9989666 0.9251518 -0.21660355
v 0.80096906 1.3775053 -0.09406887
v 1.5859164 0.12602077 -0.7635171
v 1.2420738 0.21623437 -0.87564826
v 1.5352023 0.060360644 -0.87366444
v 1.2554077 0.10160678 -1.1056893
v 0.99742234 -0.23317909 -1.017393
v 0.9241748 0.33715206 -1.159892
v 0.8356638 0.0658321 -1.3515979
v -0.05905652 0.4319359 -1.3848394
v 0.34396163 0.46426052 -1.2518938
v 0.22897524 0.50305885 -1.0277326
v -0.1311618 0.48558837 -0.8774545
v -0.5377171 0.52678317 -0.88774115
v 0.5766964 -0.24632281 -1.1517351
v 0.7436621 -0.031422835 -1.3502698
v 0.13279572 0.06061312 -1.4996357
v 0.060585916 -0.26907313 -1.1582175
v -0.14802396 -0.19121417 -1.252788
v -0.46346214 0.12535588 -1.4055483
v -1.0116475 -0.036694456 -1.1114869
v -0.45292708 0.36113417 -1.3275381
v -0.9597619 0.27576274 -1.0393416
v -0.99044645 0.3382495 -0.7934651
v -0.88532066 0.48050147 -0.8450218
v -1.3347453 0.4692964 -0.2896107
v -0.5671216 0.66702986 -0.63691103
v -0.1311618 0.48558837 -0.8774545
v -0.19115353 0.76049405 -0.77844656
v 0.22897524 0.50305885 -1.0277326
v -1.1456802 0.69711965 -0.3468412
v -1.3120601 0.7146177 -0.10254847
v -1.1905761 1.0115447 -0.09422765
v -0.83673763 1.1076134 -0.017762125
v -0.8099235 0.7241321 -0.4192369
v -0.6089625 0.85844916 -0.59499735
v -0.79530424 1.0947717 -0.3332536
v -0.5082818 1.2469567 -0.1637362
v -0.42606995 1.371315 0.25560325
v -0.4675346 1.3116792 -0.4072951
v -0.6458754 1.1084424 -0.5172043
v -0.31918573 1.1965197 -0.60119516
v 0.028249383 1.3723389 -0.61209106
v 0.12314415 0.9618987 -0.688127
v 0.35972 0.6882704 -0.87032324
v 0.9430396 0.50915825 -0.7229927
v 0.83166504 0.70687073 -0.65717643
v 1.1731796 0.64799017 -0.57682663
v 0.87604165 0.9380785 -0.37993398
v 0.5531713 0.9232581 -0.4380927
v 0.6933954 1.1956056 -0.36181265
v 0.697767 1.6830425 -0.21482259
v 0.32064947 1.6557028 -0.4864271
v 0.5714035 1.9121875 -0.1732839
v 0.35221553 2.167747 -0.2125259
v 0.3569641 1.9171607 0.04548351
v 0.1238176 1.8276992 0.2144474
v 0.020285368 1.8128378 -0.4305728
v -0.49744007 1.6366571 -0.17137733
v -0.4675346 1.3116792 -0.4072951
v -0.5082818 1.2469567 -0.1637362
v -0.42085028 1.5237546 0.28735065
v -0.30294675 1.6625597 0.30827692
v -0.54167837 1.8418499 -0.04878879
v 0.14902389 1.9846314 -0.3731957
v 0.016725004 3.119093 -0.17779127
v -0.2879827 2.2818031 -0.24357714
v -0.22694115 1.9591523 0.23666978
v 0.24148178 2.5045395 -0.15618865
v -0.38171622 2.297038 -0.037557736
v -0.09825378 2.209921 0.3022337
v -0.2412132 3.1109776 0.030873597
v -0.13764916 3.64893 -0.02306854
v 0.16525778 2.40642 0.14694254
v 0.09487518 2.1875515 0.3284703
v -0.010193825 2.9604843 0.27413863
v 0.042596072 2.498822 0.27664033
v 0.115149446 2.9256432 0.23511758
v 0.08180308 3.6460826 0.04160726
v 0.19681817 3.0569255 0.0043386007
v -0.031084789 4.2015443 -0.010224147
vt 0 0
vt 0 0
vt 0 0
vt 0 0
vt 0 0
vt 0 0
vt 0 0
vt 0 0
vt 0 0
vt 0 0
vt 0 0
vt 0 0
vt 0 0
vt 0 0
vt 0 0
vt 0 0
vt 0 0
vt 0 0
vt 0 0
vt 0 0
vt 0 0
vt 0 0
vt 0 0
vt 0 0
vt 0 0
vt 0 0
vt 0 0
vt 0 0
vt 0 0
vt 0 0
vt 0 0
vt 0 0
vt 0 0
vt 0 0
vt 0 0
vt 0 0
vt 0 0
vt 0 0
vt 0 0
vt 0 0
vt 0 0
vt 0 0
vt 0 0
vt 0 0
vt 0 0
vt 0 0
vt 0 0
vt 0 0
vt 0 0
vt 0 0
vt 0 0
vt 0 0
vt 0 0
vt 0 0
vt 0 0
vt 0 0
vt 0 0
vt 0 0
vt 0 0
vt 0 0
vt 0 0
vt 0 0
vt 0 0
vt 0 0
vt 0 0
vt 0 0
vt 0 0
vt 0 0
vt 0 0
vt 0 0
vt 0 0
vt 0 0
vt 0 0
vt 0 0
vt 0 0
vt 0 0
vt 0 0
vt 0 0
vt 0 0
vt 0 0
vt 0 0
vt 0 0
vt 0 0
vt 0 0
vt 0 0
vt 0 0
vt 0 0
vt 0 0
vt 0 0
vt 0 0
vt 0 0
vt 0 0
vt 0 0
vt 0 0
vt 0 0
vt 0 0
vt 0 0
vt 0 0
vt 0 0
vt 0 0
vt 0 0
vt 0 0
vt 0 0
vt 0 0
vt 0 0
vt 0 0
vt 0 0
vt 0 0
vt 0 0
vt 0 0
vt 0 0
vt 0 0
vt 0 0
vt 0 0
vt 0 0
vt 0 0
vt 0 0
vt 0 0
vt 0 0
vt 0 0
vt 0 0
vt 0 0
vt 0 0
vt 0 0
vt 0 0
vt 0 0
vt 0 0
vt 0 0
vt 0 0
vt 0 0
vt 0 0
vt 0 0
vt 0 0
vt 0 0
vt 0 0
vt 0 0
vt 0 0
vt 0 0
vt 0 0
vt 0 0
vt 0 0
vt 0 0
vt 0 0
vt 0 0
vt 0 0
vt 0 0
vt 0 0
vt 0 0
vt 0 0
vt 0 0
vt 0 0
vt 0 0
vt 0 0
vt 0 0
vt 0 0
vt 0 0
vt 0 0
vt 0 0
vt 0 0
vt 0 0
vt 0 0
vt 0 0
vt 0 0
vt 0 0
vn -0.46007383 0.67888963 0.5722246
vn -0.3977421 0.4870315 0.77756137
vn -0.19268191 0.35618877 0.91433215
vn -0.8202189 0.4932212 0.28978208
vn -0.5834489 0.5769931 0.5715473
vn -0.36157238 0.5370881 0.76210356
vn -0.18257311 0.3531909 0.91756386
vn -0.10470872 0.31394532 0.9436495
vn 0.23116775 0.11078888 0.9665854
vn 0.2221493 0.2424883 0.9443776
vn 0.60129696 -0.08610893 0.7943723
vn 0.44478774 0.10982442 0.8888771
vn 0.5356069 0.2343986 0.8112844
vn 0.44004026 0.44418886 0.78042346
vn 0.052661326 0.63630974 0.7696341
vn 0.14871712 0.4118254 0.8990456
vn -0.010745697 0.40544242 0.9140574
vn 0.073072836 0.500393 0.86270916
vn 0.103086255 0.90387285 0.41519526
vn 0.05287294 0.92436403 0.37783015
vn 0.066029966 0.8002785 0.59598196
vn -0.25936937 0.40282637 0.87775755
vn -0.12299616 0.9136412 0.3874683
vn 0.027897064 0.90736663 0.41941345
vn 0.43543768 0.77311003 0.46118864
vn 0.22445773 -0.045753885 0.9734091
vn 0.056721017 0.9845531 0.1656441
vn 0.23412858 0.80678487 0.5424776
vn -0.5393909 0.65820926 0.5251837
vn -0.1701685 0.9270087 0.3342121
vn 0.43561974 0.79695475 0.41844767
vn -0.82482743 0.4913719 0.27966645
vn -0.099370785 0.81872827 0.565517
vn 0.03123778 0.96922016 0.24420594
vn 0.17614871 0.9603105 0.21627633
vn 0.0509057 0.9946291 0.09012044
vn -0.6484788 0.5160828 0.5595835
vn 0.10731821 0.6183433 0.77854633
vn -0.21748428 0.7371878 0.6397303
vn -0.15888113 0.7925169 0.58879024
vn -0.008152897 0.20841591 0.97800636
vn -0.5511439 0.29030278 0.78228164
vn -0.72025836 0.6624368 0.2059256
vn -0.7856082 0.3871578 0.48262668
vn -0.9180837 0.39626455 -0.00983312
vn -0.71323776 0.69417965 -0.0969875
vn -0.23666322 -0.91487634 0.32709616
vn -0.22524308 -0.5493452 0.8046648
vn 0.1168265 -0.97374856 0.19535932
vn 0.034843277 -0.8892868 0.45602074
vn -0.8091224 -0.3034083 0.50325376
vn -0.051968716 -0.9908771 0.12434531
vn -0.340323 -0.92252225 0.18202467
vn -0.19547762 -0.980293 -0.028533295
vn -0.6301404 -0.7647151 -0.13466205
vn -0.83955854 -0.2673921 -0.47290903
vn -0.63755286 0.59967536 -0.48364854
vn -0.71443427 -0.4075784 -0.5687385
vn -0.76953775 0.5478205 -0.3281832
vn -0.018914524 -0.9859154 0.16617177
vn -0.027695475 -0.99828523 0.05157022
vn 0.08435891 -0.8870677 0.45386603
vn 0.13750365 -0.97136545 0.19375758
vn 0.12216299 -0.9924494 -0.010975399
vn -0.03256401 -0.9978929 -0.05611927
vn 0.41327435 -0.6344272 0.65322775
vn 0.4461664 -0.7674797 0.46033722
vn 0.79240084 0.3789391 0.478023
vn -0.23293231 -0.9615452 -0.14551038
vn 0.5329425 -0.8451395 0.0413701
vn 0.5586127 0.7614481 0.32885945
vn -0.20221981 -0.887763 -0.41350207
vn 0.6112071 0.7888283 0.06461961
vn 0.76379734 0.6289454 0.14505605
vn 0.8344419 0.049420312 -0.54887545
vn 0.39097273 -0.8557469 -0.3388767
vn 0.6274146 0.74426585 0.22895241
vn 0.6519141 0.75824964 0.00809719
vn 0.77905416 0.60735303 -0.15555386
vn 0.6127417 0.5906618 -0.52503926
vn 0.65162784 0.6886951 -0.31793153
vn 0.6215799 0.5934248 0.5113565
vn 0.89372927 0.32706183 0.3070481
vn 0.7511727 0.6443574 -0.14332855
vn 0.8896906 0.45302597 -0.05672769
vn 0.47932866 0.81047386 -0.33671367
vn 0.61829144 0.5739442 -0.5369392
vn 0.6420779 -0.41432792 -0.64503354
vn 0.6125369 -0.054420352 -0.7885664
vn 0.22490594 -0.9090575 -0.35075894
vn 0.32611826 0.7005382 -0.63473856
vn 0.34968865 0.22309648 -0.90991527
vn -0.0073639867 0.73835015 -0.6743773
vn 0.12284671 0.92768055 -0.3525867
vn 0.018238798 0.98671603 -0.16142716
vn 0.08778136 0.99463505 0.054731533
vn -0.07256616 0.9329822 -0.35253134
vn 0.068025716 -0.95478106 -0.28942308
vn 0.20456718 -0.5991801 -0.7740385
vn 0.056997124 -0.11040379 -0.9922511
vn 0.009850194 -0.98761684 -0.15657541
vn -0.16109554 -0.8175979 -0.5527945
vn -0.30186877 -0.25214815 -0.91940004
vn -0.5906593 -0.04852782 -0.8054605
vn -0.34043667 0.6523798 -0.6771289
vn -0.54549676 0.55886126 -0.6245858
vn -0.589316 0.66111875 -0.46435815
vn -0.44229153 0.68890905 -0.5742669
vn -0.87554675 0.24997589 -0.41343695
vn -0.27006346 0.6731204 -0.6884582
vn -0.3212644 0.37030894 -0.8715851
vn -0.20908311 0.35522568 -0.91109765
vn 0.044072147 0.5600676 -0.8272737
vn -0.5560306 0.5391012 -0.63261354
vn -0.9346628 0.32244122 -0.14979005
vn -0.71869785 0.6897195 -0.08809367
vn -0.38306656 0.91802555 0.102416076
vn -0.30658358 0.15011959 -0.9399311
vn -0.475493 0.23590901 -0.84749824
vn -0.5461539 0.6930171 -0.47057736
vn -0.49067545 0.87045664 0.039279643
vn -0.649229 0.19170094 0.73603845
vn -0.46973255 0.78346694 -0.40685493
vn -0.51211214 0.40351176 -0.7582344
vn -0.24005923 0.4073091 -0.8811758
vn -0.015382399 0.27515933 -0.9612756
vn 0.2033287 0.4524587 -0.8682963
vn 0.20818752 0.5960815 -0.7754642
vn 0.25878692 0.6749995 -0.69094515
vn 0.2860177 0.6613407 -0.69341356
vn 0.4524278 0.7060968 -0.5447351
vn 0.3910668 0.68413234 -0.6156539
vn 0.35396186 0.516747 -0.77954066
vn 0.5195793 0.20816003 -0.8286778
vn 0.8175227 0.39481306 -0.41926038
vn 0.37971106 0.25046027 -0.8905556
vn 0.7269513 0.5453809 0.41725466
vn 0.8079108 0.45168397 -0.37849945
vn 0.6429846 0.40663442 0.64901394
vn 0.26000896 0.28229296 0.92342085
vn -0.32499173 0.2253957 -0.9184646
vn -0.7871736 0.15654045 -0.59653395
vn -0.5736397 0.4459779 -0.68705255
vn -0.99774915 0.028944304 0.06048782
vn -0.6348997 0.034684554 0.7718156
vn -0.21806209 0.30819488 0.925994
vn -0.97777337 0.18246722 0.10327127
vn 0.25305775 0.27878127 -0.92641395
vn 0.05088978 0.21734762 -0.9747668
vn -0.4920662 0.1759224 -0.85259724
vn -0.46135285 0.17056651 0.8706668
vn 0.8883606 0.20919266 -0.40872228
vn -0.93001926 0.18927594 0.315022
vn -0.5802274 0.042031698 0.8133692
vn -0.934811 0.17409623 0.30954617
vn -0.9232401 0.35421434 -0.14886191
vn 0.8983212 0.15542787 0.4109271
vn 0.4842973 0.015535832 0.8747656
vn -0.44018853 0.1710625 0.88146
vn 0.4230779 0.037888918 0.90530086
vn 0.79703003 0.09147213 0.59697235
vn 0.85374194 0.399233 0.33427194
vn 0.9791555 0.1691111 -0.112499215
vn 0.34756505 0.58111507 -0.7358694
g stalagmite1_0
f 3/3/3 2/2/2 1/1/1
f 1/1/1 2/2/2 4/4/4
f 5/5/5 4/4/4 2/2/2
f 5/5/5 2/2/2 6/6/6
f 3/3/3 7/7/7 2/2/2
f 7/7/7 6/6/6 2/2/2
f 6/6/6 7/7/7 8/8/8
f 8/8/8 7/7/7 9/9/9
f 6/6/6 8/8/8 10/10/10
f 10/10/10 8/8/8 11/11/11
f 9/9/9 11/11/11 8/8/8
f 11/11/11 9/9/9 12/12/12
f 11/11/11 12/12/12 10/10/10
f 10/10/10 12/12/12 13/13/13
f 12/12/12 14/14/14 13/13/13
f 12/12/12 15/15/15 14/14/14
f 15/15/15 12/12/12 16/16/16
f 17/17/17 15/15/15 16/16/16
f 18/18/18 17/17/17 16/16/16
f 19/19/19 17/17/17 18/18/18
f 18/18/18 20/20/20 19/19/19
f 21/21/21 15/15/15 17/17/17
f 22/22/22 21/21/21 17/17/17
f 23/23/23 21/21/21 22/22/22
f 21/21/21 23/23/23 24/24/24
f 24/24/24 25/25/25 21/21/21
f 24/24/24 26/26/26 25/25/25
f 26/26/26 24/24/24 27/27/27
f 15/15/15 21/21/21 28/28/28
f 28/28/28 14/14/14 15/15/15
f 28/28/28 21/21/21 25/25/25
f 20/20/20 29/29/29 19/19/19
f 29/29/29 20/20/20 30/30/30
f 14/14/14 28/28/28 31/31/31
f 31/31/31 28/28/28 25/25/25
f 29/29/29 30/30/30 32/32/32
f 30/30/30 4/4/4 32/32/32
f 19/19/19 29/29/29 33/33/33
f 34/34/34 19/19/19 33/33/33
f 35/35/35 19/19/19 34/34/34
f 34/34/34 36/36/36 35/35/35
f 27/27/27 36/36/36 34/34/34
f 33/33/33 29/29/29 37/37/37
f 29/29/29 32/32/32 37/37/37
f 27/27/27 34/34/34 38/38/38
f 38/38/38 26/26/26 27/27/27
f 33/33/33 39/39/39 34/34/34
f 33/33/33 37/37/37 39/39/39
f 40/40/40 38/38/38 34/34/34
f 40/40/40 34/34/34 39/39/39
f 38/38/38 40/40/40 41/41/41
f 26/26/26 38/38/38 41/41/41
f 42/42/42 40/40/40 39/39/39
f 39/39/39 37/37/37 42/42/42
f 42/42/42 41/41/41 40/40/40
f 43/43/43 37/37/37 32/32/32
f 37/37/37 44/44/44 42/42/42
f 43/43/43 44/44/44 37/37/37
f 45/45/45 44/44/44 43/43/43
f 43/43/43 32/32/32 46/46/46
f 43/43/43 46/46/46 45/45/45
f 32/32/32 4/4/4 46/46/46
f 42/42/42 44/44/44 47/47/47
f 42/42/42 48/48/48 41/41/41
f 48/48/48 42/42/42 47/47/47
f 49/49/49 41/41/41 48/48/48
f 48/48/48 47/47/47 49/49/49
f 50/50/50 41/41/41 49/49/49
f 50/50/50 26/26/26 41/41/41
f 45/45/45 51/51/51 44/44/44
f 51/51/51 47/47/47 44/44/44
f 52/52/52 49/49/49 47/47/47
f 49/49/49 52/52/52 50/50/50
f 51/51/51 53/53/53 47/47/47
f 53/53/53 51/51/51 45/45/45
f 53/53/53 52/52/52 47/47/47
f 53/53/53 54/54/54 52/52/52
f 55/55/55 53/53/53 45/45/45
f 54/54/54 53/53/53 55/55/55
f 45/45/45 56/56/56 55/55/55
f 55/55/55 56/56/56 54/54/54
f 57/57/57 56/56/56 45/45/45
f 45/45/45 46/46/46 57/57/57
f 54/54/54 56/56/56 58/58/58
f 57/57/57 58/58/58 56/56/56
f 59/59/59 57/57/57 46/46/46
f 46/46/46 4/4/4 59/59/59
f 60/60/60 50/50/50 52/52/52
f 52/52/52 54/54/54 61/61/61
f 61/61/61 60/60/60 52/52/52
f 60/60/60 62/62/62 50/50/50
f 26/26/26 50/50/50 62/62/62
f 61/61/61 63/63/63 60/60/60
f 62/62/62 60/60/60 63/63/63
f 63/63/63 61/61/61 64/64/64
f 61/61/61 65/65/65 64/64/64
f 54/54/54 65/65/65 61/61/61
f 66/66/66 26/26/26 62/62/62
f 66/66/66 25/25/25 26/26/26
f 67/67/67 62/62/62 63/63/63
f 67/67/67 66/66/66 62/62/62
f 64/64/64 67/67/67 63/63/63
f 25/25/25 66/66/66 68/68/68
f 67/67/67 68/68/68 66/66/66
f 65/65/65 54/54/54 69/69/69
f 54/54/54 58/58/58 69/69/69
f 70/70/70 67/67/67 64/64/64
f 68/68/68 67/67/67 70/70/70
f 25/25/25 68/68/68 71/71/71
f 25/25/25 71/71/71 31/31/31
f 72/72/72 65/65/65 69/69/69
f 72/72/72 69/69/69 58/58/58
f 71/71/71 68/68/68 73/73/73
f 70/70/70 74/74/74 68/68/68
f 74/74/74 73/73/73 68/68/68
f 70/70/70 75/75/75 74/74/74
f 75/75/75 73/73/73 74/74/74
f 76/76/76 70/70/70 64/64/64
f 70/70/70 76/76/76 75/75/75
f 31/31/31 71/71/71 77/77/77
f 73/73/73 77/77/77 71/71/71
f 78/78/78 31/31/31 77/77/77
f 73/73/73 79/79/79 77/77/77
f 77/77/77 79/79/79 78/78/78
f 78/78/78 79/79/79 80/80/80
f 79/79/79 81/81/81 80/80/80
f 79/79/79 73/73/73 81/81/81
f 75/75/75 81/81/81 73/73/73
f 31/31/31 78/78/78 82/82/82
f 82/82/82 14/14/14 31/31/31
f 83/83/83 14/14/14 82/82/82
f 14/14/14 83/83/83 13/13/13
f 84/84/84 83/83/83 82/82/82
f 84/84/84 82/82/82 78/78/78
f 83/83/83 85/85/85 13/13/13
f 85/85/85 83/83/83 84/84/84
f 81/81/81 75/75/75 86/86/86
f 80/80/80 81/81/81 87/87/87
f 81/81/81 86/86/86 87/87/87
f 75/75/75 88/88/88 86/86/86
f 75/75/75 76/76/76 88/88/88
f 87/87/87 86/86/86 89/89/89
f 88/88/88 89/89/89 86/86/86
f 76/76/76 90/90/90 88/88/88
f 88/88/88 90/90/90 89/89/89
f 64/64/64 90/90/90 76/76/76
f 89/89/89 91/91/91 87/87/87
f 80/80/80 87/87/87 91/91/91
f 90/90/90 92/92/92 89/89/89
f 91/91/91 89/89/89 92/92/92
f 91/91/91 92/92/92 93/93/93
f 91/91/91 94/94/94 80/80/80
f 91/91/91 93/93/93 94/94/94
f 94/94/94 95/95/95 80/80/80
f 94/94/94 96/96/96 95/95/95
f 97/97/97 96/96/96 94/94/94
f 94/94/94 93/93/93 97/97/97
f 64/64/64 98/98/98 90/90/90
f 90/90/90 99/99/99 92/92/92
f 99/99/99 90/90/90 98/98/98
f 92/92/92 99/99/99 100/100/100
f 99/99/99 98/98/98 100/100/100
f 93/93/93 92/92/92 100/100/100
f 64/64/64 101/101/101 98/98/98
f 98/98/98 101/101/101 100/100/100
f 65/65/65 101/101/101 64/64/64
f 65/65/65 102/102/102 101/101/101
f 102/102/102 100/100/100 101/101/101
f 65/65/65 72/72/72 102/102/102
f 103/103/103 100/100/100 102/102/102
f 72/72/72 103/103/103 102/102/102
f 93/93/93 100/100/100 103/103/103
f 104/104/104 103/103/103 72/72/72
f 58/58/58 104/104/104 72/72/72
f 103/103/103 105/105/105 93/93/93
f 105/105/105 103/103/103 104/104/104
f 58/58/58 106/106/106 104/104/104
f 104/104/104 106/106/106 105/105/105
f 58/58/58 57/57/57 106/106/106
f 107/107/107 106/106/106 57/57/57
f 106/106/106 107/107/107 105/105/105
f 57/57/57 59/59/59 107/107/107
f 105/105/105 108/108/108 93/93/93
f 105/105/105 107/107/107 108/108/108
f 93/93/93 108/108/108 97/97/97
f 107/107/107 59/59/59 109/109/109
f 109/109/109 108/108/108 107/107/107
f 59/59/59 4/4/4 109/109/109
f 108/108/108 110/110/110 97/97/97
f 110/110/110 111/111/111 97/97/97
f 112/112/112 111/111/111 110/110/110
f 113/113/113 111/111/111 112/112/112
f 109/109/109 114/114/114 108/108/108
f 110/110/110 108/108/108 114/114/114
f 115/115/115 109/109/109 4/4/4
f 114/114/114 109/109/109 115/115/115
f 116/116/116 115/115/115 4/4/4
f 115/115/115 116/116/116 114/114/114
f 4/4/4 5/5/5 116/116/116
f 117/117/117 116/116/116 5/5/5
f 6/6/6 117/117/117 5/5/5
f 114/114/114 118/118/118 110/110/110
f 119/119/119 110/110/110 118/118/118
f 119/119/119 118/118/118 114/114/114
f 116/116/116 119/119/119 114/114/114
f 110/110/110 119/119/119 112/112/112
f 117/117/117 120/120/120 116/116/116
f 119/119/119 116/116/116 120/120/120
f 117/117/117 6/6/6 121/121/121
f 121/121/121 120/120/120 117/117/117
f 122/122/122 121/121/121 6/6/6
f 123/123/123 120/120/120 121/121/121
f 6/6/6 10/10/10 122/122/122
f 124/124/124 119/119/119 120/120/120
f 123/123/123 124/124/124 120/120/120
f 112/112/112 119/119/119 124/124/124
f 123/123/123 125/125/125 124/124/124
f 125/125/125 112/112/112 124/124/124
f 126/126/126 125/125/125 123/123/123
f 127/127/127 112/112/112 125/125/125
f 125/125/125 126/126/126 127/127/127
f 127/127/127 128/128/128 112/112/112
f 113/113/113 112/112/112 128/128/128
f 128/128/128 129/129/129 113/113/113
f 129/129/129 80/80/80 113/113/113
f 128/128/128 127/127/127 130/130/130
f 128/128/128 130/130/130 129/129/129
f 131/131/131 80/80/80 129/129/129
f 131/131/131 129/129/129 130/130/130
f 131/131/131 78/78/78 80/80/80
f 78/78/78 131/131/131 132/132/132
f 131/131/131 130/130/130 132/132/132
f 84/84/84 78/78/78 132/132/132
f 133/133/133 130/130/130 127/127/127
f 130/130/130 133/133/133 132/132/132
f 126/126/126 133/133/133 127/127/127
f 134/134/134 84/84/84 132/132/132
f 132/132/132 133/133/133 134/134/134
f 133/133/133 126/126/126 134/134/134
f 85/85/85 84/84/84 134/134/134
f 135/135/135 85/85/85 134/134/134
f 13/13/13 85/85/85 135/135/135
f 126/126/126 136/136/136 134/134/134
f 134/134/134 136/136/136 135/135/135
f 13/13/13 135/135/135 137/137/137
f 137/137/137 135/135/135 138/138/138
f 136/136/136 138/138/138 135/135/135
f 137/137/137 139/139/139 13/13/13
f 137/137/137 138/138/138 139/139/139
f 140/140/140 13/13/13 139/139/139
f 140/140/140 10/10/10 13/13/13
f 141/141/141 136/136/136 126/126/126
f 142/142/142 141/141/141 126/126/126
f 126/126/126 143/143/143 142/142/142
f 142/142/142 143/143/143 144/144/144
f 142/142/142 144/144/144 122/122/122
f 122/122/122 10/10/10 145/145/145
f 142/142/142 122/122/122 145/145/145
f 146/146/146 145/145/145 10/10/10
f 10/10/10 140/140/140 146/146/146
f 145/145/145 147/147/147 142/142/142
f 147/147/147 145/145/145 146/146/146
f 138/138/138 136/136/136 148/148/148
f 136/136/136 141/141/141 148/148/148
f 141/141/141 149/149/149 148/148/148
f 142/142/142 150/150/150 141/141/141
f 142/142/142 147/147/147 150/150/150
f 150/150/150 149/149/149 141/141/141
f 146/146/146 151/151/151 147/147/147
f 140/140/140 151/151/151 146/146/146
f 152/152/152 138/138/138 148/148/148
f 148/148/148 149/149/149 152/152/152
f 153/153/153 147/147/147 151/151/151
f 153/153/153 150/150/150 147/147/147
f 140/140/140 154/154/154 151/151/151
f 153/153/153 151/151/151 154/154/154
f 155/155/155 150/150/150 153/153/153
f 153/153/153 154/154/154 155/155/155
f 155/155/155 156/156/156 150/150/150
f 156/156/156 149/149/149 150/150/150
f 157/157/157 138/138/138 152/152/152
f 139/139/139 138/138/138 157/157/157
f 140/140/140 139/139/139 158/158/158
f 140/140/140 158/158/158 154/154/154
f 157/157/157 158/158/158 139/139/139
f 159/159/159 155/155/155 154/154/154
f 156/156/156 155/155/155 159/159/159
f 154/154/154 158/158/158 160/160/160
f 160/160/160 158/158/158 157/157/157
f 154/154/154 160/160/160 159/159/159
f 161/161/161 160/160/160 157/157/157
f 157/157/157 152/152/152 161/161/161
f 161/161/161 159/159/159 160/160/160
f 162/162/162 156/156/156 159/159/159
f 159/159/159 161/161/161 162/162/162
f 161/161/161 152/152/152 163/163/163
f 152/152/152 149/149/149 163/163/163
f 161/161/161 163/163/163 162/162/162
f 149/149/149 162/162/162 163/163/163
f 164/164/164 156/156/156 162/162/162
f 164/164/164 162/162/162 149/149/149
f 156/156/156 164/164/164 149/149/149
