g Stone_Small_G
v 0.13347656 0.059539184 -0.11760742
v 0.29453126 0.059539184 -0.32248047
v 0.2945117 0.4109552 -0.32248047
v 0.10291015 0.49173644 -0.031757813
v 0.08330078 0.059539184 0.31103516
v 0.08021484 0.42321348 0.2705371
v 0.13347656 0.059539184 -0.11760742
v 0.08330078 0.059539184 0.31103516
v 0.33226562 0.059540402 0.32248047
v 0.4718164 0.059540402 0.10764648
v 0.29453126 0.059539184 -0.32248047
v 0.5010156 0.059539184 -0.13859375
v 0.08330078 0.059539184 0.31103516
v 0.08021484 0.42321348 0.2705371
v 0.3517578 0.29469055 0.2995703
v 0.33226562 0.059540402 0.32248047
v 0.08021484 0.42321348 0.2705371
v 0.5014355 0.32124206 0.0922168
v 0.3517578 0.29469055 0.2995703
v 0.10291015 0.49173644 -0.031757813
v 0.5108203 0.2809845 -0.15091796
v 0.2945117 0.4109552 -0.32248047
v 0.2945117 0.4109552 -0.32248047
v 0.29453126 0.059539184 -0.32248047
v 0.5010156 0.059539184 -0.13859375
v 0.5108203 0.2809845 -0.15091796
v 0.5014355 0.32124206 0.0922168
v 0.5108203 0.2809845 -0.15091796
v 0.5010156 0.059539184 -0.13859375
v 0.4718164 0.059540402 0.10764648
v 0.3517578 0.29469055 0.2995703
v 0.33226562 0.059540402 0.32248047
v -0.002380371 0.28562987 0.22929686
v 0.15672119 0.2689038 0.25450194
v 0.15826416 0.054798584 0.27475098
v -0.029787596 0.054798584 0.25205564
v -0.29639405 0.054798584 0.20781738
v -0.29559815 0.31653258 0.20139648
v 0.053342283 0.054798584 -0.25102538
v 0.18828857 0 0.017602539
v 0.27384034 0.054798584 -0.07365234
v 0.16695067 0.054798584 -0.2747461
v 0.053342283 0.054798584 -0.25102538
v -0.07505615 0.054798584 -0.22415039
v -0.04637451 0.078158565 0.09928711
v 0.18828857 0 0.017602539
v -0.029787596 0.054798584 0.25205564
v 0.15826416 0.054798584 0.27475098
v -0.29639405 0.054798584 0.20781738
v -0.26446044 0.054798584 -0.19178222
v -0.40316162 0.054798584 -0.098208
v -0.04637451 0.078158565 0.09928711
v -0.029787596 0.054798584 0.25205564
v -0.07505615 0.054798584 -0.22415039
v -0.21206787 0.3533624 -0.21639648
v -0.3966626 0.3522119 -0.121752925
v -0.40316162 0.054798584 -0.098208
v -0.26446044 0.054798584 -0.19178222
v -0.07505615 0.054798584 -0.22415039
v -0.030583495 0.34437865 -0.24679199
v 0.16695556 0.30820984 -0.27475098
v 0.053342283 0.054798584 -0.25102538
v 0.16695067 0.054798584 -0.2747461
v -0.29559815 0.31653258 0.20139648
v -0.29639405 0.054798584 0.20781738
v -0.40316162 0.054798584 -0.098208
v -0.3487329 0.33385438 0.042651366
v -0.3966626 0.3522119 -0.121752925
v 0.18828857 0 0.017602539
v 0.27383056 0.26277465 -0.07365722
v 0.27384034 0.054798584 -0.07365234
v 0.1729956 0.30316466 0.060527343
v 0.15826416 0.054798584 0.27475098
v 0.15672119 0.2689038 0.25450194
v -0.030583495 0.34437865 -0.24679199
v 0.16695556 0.30820984 -0.27475098
v 0.27383056 0.26277465 -0.07365722
v 0.1113501 0.34507445 -0.061972655
v -0.21206787 0.3533624 -0.21639648
v 0.1729956 0.30316466 0.060527343
v -0.13070068 0.37481934 -0.070913084
v -0.3966626 0.3522119 -0.121752925
v -0.3487329 0.33385438 0.042651366
v -0.013659667 0.38561034 0.0037060545
v -0.033410642 0.34339112 0.13588867
v 0.15672119 0.2689038 0.25450194
v -0.002380371 0.28562987 0.22929686
v -0.29559815 0.31653258 0.20139648
v -0.19411865 0.3657678 0.049277343
v 0.27383056 0.26277465 -0.07365722
v 0.16695556 0.30820984 -0.27475098
v 0.16695067 0.054798584 -0.2747461
v 0.27384034 0.054798584 -0.07365234
vt 0.48418415 0.15768515
vt 0.63608927 0.15768515
vt 0.63608927 0.52899
vt 0.42052874 0.6143432
vt 0.16636093 0.15768515
vt 0.19638889 0.54194206
vt 0.48418415 0.15768515
vt 0.16636093 0.15768515
vt 0.15787481 0.15768646
vt 0.31716564 0.15768646
vt 0.63608927 0.15768515
vt 0.49974522 0.15768515
vt 0.16636093 0.15768515
vt 0.19638889 0.54194206
vt 0.17485954 0.40614522
vt 0.15787481 0.15768646
vt 0.18281949 0.9841562
vt 0.3229943 0.9841562
vt 0.15999764 0.9841562
vt 0.42044568 0.9841562
vt 0.51411986 0.9841562
vt 0.6489812 0.9841562
vt 0.63608927 0.52899
vt 0.63608927 0.15768515
vt 0.49974522 0.15768515
vt 0.50888413 0.39166346
vt 0.32860482 0.4341995
vt 0.50888413 0.39166346
vt 0.49974522 0.15768515
vt 0.31716564 0.15768646
vt 0.17485954 0.40614522
vt 0.15787481 0.15768646
vt 0.15191273 0.6354583
vt 0.114536405 0.600113
vt 0.08450851 0.14766733
vt 0.1181609 0.14766733
vt 0.18376221 0.14766733
vt 0.19328661 0.70076174
vt 0.8641956 0.14766733
vt 0.46583793 0.03186743
vt 0.6011624 0.14766733
vt 0.89937115 0.14766733
vt 0.8641956 0.14766733
vt 0.8243449 0.14766733
vt 0.34470674 0.19703159
vt 0.46583793 0.03186743
vt 0.1181609 0.14766733
vt 0.08450851 0.14766733
vt 0.18376221 0.14766733
vt 0.7763438 0.14766733
vt 0.6375876 0.14766733
vt 0.34470674 0.19703159
vt 0.1181609 0.14766733
vt 0.8243449 0.14766733
vt 0.81284356 0.7785903
vt 0.6724958 0.776159
vt 0.6375876 0.14766733
vt 0.7763438 0.14766733
vt 0.8243449 0.14766733
vt 0.8579165 0.7596058
vt 0.89937735 0.6831741
vt 0.8641956 0.14766733
vt 0.89937115 0.14766733
vt 0.19328661 0.70076174
vt 0.18376221 0.14766733
vt 0.6375876 0.14766733
vt 0.42869163 0.73736596
vt 0.6724958 0.776159
vt 0.46583793 0.03186743
vt 0.60117483 0.58716094
vt 0.6011624 0.14766733
vt 0.40218872 0.6725127
vt 0.08450851 0.14766733
vt 0.114536405 0.600113
vt 0.88415694 0.9841562
vt 0.9281183 0.9841562
vt 0.6119648 0.9841562
vt 0.59359306 0.9841562
vt 0.83637404 0.9841562
vt 0.4010011 0.9841562
vt 0.607648 0.9841562
vt 0.6875783 0.9841562
vt 0.42910463 0.9841562
vt 0.4903331 0.9841562
vt 0.28252447 0.9841562
vt 0.09604579 0.9841562
vt 0.13567135 0.9841562
vt 0.1795311 0.9841562
vt 0.41869354 0.9841562
vt 0.60117483 0.58716094
vt 0.89937735 0.6831741
vt 0.89937115 0.14766733
vt 0.6011624 0.14766733
vn -0.9334458 -0.0015307317 -0.35871524
vn -0.8118683 0.03217414 -0.58295345
vn -0.8118683 0.03217414 -0.58295345
vn -0.9570543 -0.011226509 -0.28969094
vn -0.99407464 -0.036193818 -0.10249763
vn -0.99407464 -0.036193814 -0.10249762
vn 1.9036144E-06 -1 1.9497336E-06
vn 3.7154562E-06 -1 1.0907513E-06
vn 3.7154557E-06 -1 1.0907513E-06
vn 2.478932E-06 -1 1.6769791E-06
vn 1.5832258E-07 -1 2.777165E-06
vn 1.5832258E-07 -1 2.7771648E-06
vn -0.05091524 0.10654254 0.99300367
vn -0.05091525 0.10654253 0.99300367
vn -0.05091524 0.106542535 0.99300367
vn -0.050915245 0.10654253 0.99300367
vn 0.33669597 0.8985506 0.28150037
vn 0.40305597 0.9076746 0.11693032
vn 0.33669597 0.8985506 0.28150043
vn 0.40016004 0.9078918 0.12491801
vn 0.45131835 0.8917791 -0.032275572
vn 0.45131835 0.8917791 -0.03227557
vn 0.6383128 -0.02745426 -0.7692873
vn 0.63831276 -0.027454257 -0.7692873
vn 0.6383129 -0.02745426 -0.7692873
vn 0.6383128 -0.02745426 -0.7692873
vn 0.94155604 -0.059381925 0.33158118
vn 0.99349654 -0.0762063 0.0845999
vn 0.99349654 -0.07620628 0.0845999
vn 0.93279326 -0.057434376 0.35580617
vn 0.8254928 -0.03814872 0.563122
vn 0.8254928 -0.038148724 0.5631221
vn -0.1265471 0.079156555 0.98879725
vn -0.13108782 0.10293094 0.98601276
vn -0.13108782 0.10293094 0.98601276
vn -0.12633336 0.07804594 0.9889129
vn -0.1239578 0.065751836 0.99010664
vn -0.1239578 0.065751836 0.99010664
vn -0.11062895 -0.9926173 -0.049720783
vn -0.11993804 -0.9925761 -0.02018717
vn 0.1551985 -0.96886057 -0.19293155
vn 0.15519851 -0.96886057 -0.19293156
vn -0.11062895 -0.9926173 -0.049720783
vn -0.13974407 -0.9898318 0.026545106
vn -0.07607693 -0.9970282 0.01213537
vn -0.11993804 -0.9925761 -0.02018717
vn -0.12352446 -0.9922449 0.013847458
vn -0.17195496 -0.9826341 0.06972603
vn 0.059120286 -0.9981996 -0.010111897
vn 0.051469695 -0.99848276 0.019572787
vn 0.062575586 -0.9980276 0.005000664
vn -0.07607693 -0.9970282 0.01213537
vn -0.12352446 -0.9922449 0.013847458
vn -0.13974407 -0.9898318 0.026545106
vn -0.3226195 -0.0380722 -0.94576275
vn -0.5029726 -0.02012445 -0.864068
vn -0.5029726 -0.02012445 -0.864068
vn -0.3612084 -0.034461163 -0.93184805
vn -0.16853768 -0.04471275 -0.9846806
vn -0.16865274 -0.043589994 -0.9847112
vn -0.1728239 -0.03149709 -0.98444897
vn -0.17491604 -0.029422708 -0.9841436
vn -0.20438094 -1.6602296E-05 -0.97889143
vn -0.94898564 0.02317655 0.3144665
vn -0.94898564 0.023176553 0.3144665
vn -0.94898564 0.023176549 0.31446654
vn -0.94898564 0.023176549 0.3144665
vn -0.94898564 0.023176549 0.3144665
vn 0.9433744 0.0045169895 0.33169922
vn 0.77130216 -0.03029003 0.63574797
vn 0.77130216 -0.03029003 0.635748
vn 0.9571804 0.008983081 0.28935304
vn 0.9945142 0.027962726 0.10079499
vn 0.9945142 0.02796273 0.100795
vn 0.15869495 0.9770801 -0.14188147
vn 0.30295035 0.949183 -0.085280016
vn 0.33175078 0.94167155 -0.056533195
vn 0.24385475 0.9693972 0.028353352
vn -0.025757361 0.99774975 -0.061903603
vn 0.27283967 0.9279887 0.25376245
vn -0.008820899 0.998667 -0.050857253
vn -0.11254015 0.9935272 0.015443755
vn -0.09105435 0.9856377 0.14222316
vn 0.14179227 0.98576605 0.0903341
vn 0.10646468 0.9500475 0.2933855
vn 0.2529679 0.9286506 0.27132127
vn 0.15486762 0.94211614 0.29737708
vn -0.05327985 0.9384328 0.34132838
vn -0.078769945 0.97789955 0.19366938
vn 0.88302207 1.4870629E-05 -0.46933162
vn 0.88302195 1.4870627E-05 -0.46933162
vn 0.88302207 1.4870627E-05 -0.46933162
vn 0.88302195 1.4870627E-05 -0.46933162
g Stone_Small_G_0
f 3/3/3 2/2/2 1/1/1
f 4/4/4 3/3/3 1/1/1
f 1/1/1 5/5/5 4/4/4
f 5/5/5 6/6/6 4/4/4
f 9/9/9 8/8/8 7/7/7
f 10/10/10 9/9/9 7/7/7
f 10/10/10 7/7/7 11/11/11
f 12/12/12 10/10/10 11/11/11
f 15/15/15 14/14/14 13/13/13
f 16/16/16 15/15/15 13/13/13
f 19/19/19 18/18/18 17/17/17
f 18/18/18 20/20/20 17/17/17
f 18/18/18 21/21/21 20/20/20
f 21/21/21 22/22/22 20/20/20
f 25/25/25 24/24/24 23/23/23
f 26/26/26 25/25/25 23/23/23
f 29/29/29 28/28/28 27/27/27
f 30/30/30 29/29/29 27/27/27
f 27/27/27 31/31/31 30/30/30
f 31/31/31 32/32/32 30/30/30
f 35/35/35 34/34/34 33/33/33
f 36/36/36 35/35/35 33/33/33
f 37/37/37 36/36/36 33/33/33
f 38/38/38 37/37/37 33/33/33
f 41/41/41 40/40/40 39/39/39
f 42/42/42 41/41/41 39/39/39
f 45/45/45 44/44/44 43/43/43
f 46/46/46 45/45/45 43/43/43
f 47/47/47 45/45/45 46/46/46
f 48/48/48 47/47/47 46/46/46
f 51/51/51 50/50/50 49/49/49
f 50/50/50 52/52/52 49/49/49
f 53/53/53 49/49/49 52/52/52
f 50/50/50 54/54/54 52/52/52
f 57/57/57 56/56/56 55/55/55
f 58/58/58 57/57/57 55/55/55
f 58/58/58 55/55/55 59/59/59
f 55/55/55 60/60/60 59/59/59
f 59/59/59 60/60/60 61/61/61
f 62/62/62 59/59/59 61/61/61
f 63/63/63 62/62/62 61/61/61
f 66/66/66 65/65/65 64/64/64
f 64/64/64 67/67/67 66/66/66
f 67/67/67 68/68/68 66/66/66
f 71/71/71 70/70/70 69/69/69
f 70/70/70 72/72/72 69/69/69
f 73/73/73 69/69/69 72/72/72
f 74/74/74 73/73/73 72/72/72
f 77/77/77 76/76/76 75/75/75
f 78/78/78 77/77/77 75/75/75
f 78/78/78 75/75/75 79/79/79
f 77/77/77 78/78/78 80/80/80
f 79/79/79 81/81/81 78/78/78
f 81/81/81 79/79/79 82/82/82
f 82/82/82 83/83/83 81/81/81
f 80/80/80 78/78/78 84/84/84
f 81/81/81 84/84/84 78/78/78
f 84/84/84 85/85/85 80/80/80
f 84/84/84 81/81/81 85/85/85
f 85/85/85 86/86/86 80/80/80
f 85/85/85 87/87/87 86/86/86
f 88/88/88 87/87/87 85/85/85
f 89/89/89 83/83/83 88/88/88
f 83/83/83 89/89/89 81/81/81
f 81/81/81 89/89/89 85/85/85
f 88/88/88 85/85/85 89/89/89
f 92/92/92 91/91/91 90/90/90
f 93/93/93 92/92/92 90/90/90
