g Support_Corner_Wooden_Tall_COL
v -9.40396E-40 -3.8146972E-08 0
v 4.9303807E-32 2 0
v 0.16 2 0
v 0.16 -3.8146972E-08 0
v 4.9303807E-32 2 0
v 1.8636695E-17 2 -0.15218017
v 0.16 2 -0.15218017
v 0.16 2 0
v 1.8636695E-17 2 -0.15218017
v 1.8636695E-17 -3.8146972E-08 -0.15218017
v 0.16 -3.8146972E-08 -0.15218017
v 0.16 2 -0.15218017
v 1.8636695E-17 -3.8146972E-08 -0.15218017
v -9.40396E-40 -3.8146972E-08 0
v 0.16 -3.8146972E-08 0
v 0.16 -3.8146972E-08 -0.15218017
v 0.16 -3.8146972E-08 0
v 0.16 2 0
v 0.16 2 -0.15218017
v 0.16 -3.8146972E-08 -0.15218017
v 1.8636695E-17 -3.8146972E-08 -0.15218017
v 1.8636695E-17 2 -0.15218017
v 4.9303807E-32 2 0
v -9.40396E-40 -3.8146972E-08 0
v 0.16297837 1.6155065 -0.022811126
v 0.16170287 1.7676867 -0.022811126
v 0.4665232 2 -0.022811126
v 0.6202489 2 -0.022811126
v 0.16170287 1.7676867 -0.022811126
v 0.16170287 1.7676867 -0.12273987
v 0.4665232 2 -0.12273987
v 0.4665232 2 -0.022811126
v 0.16170287 1.7676867 -0.12273987
v 0.16297837 1.6155065 -0.12273987
v 0.6202489 2 -0.12273987
v 0.4665232 2 -0.12273987
v 0.16297837 1.6155065 -0.12273987
v 0.16297837 1.6155065 -0.022811126
v 0.6202489 2 -0.022811126
v 0.6202489 2 -0.12273987
v 0.6202489 2 -0.022811126
v 0.4665232 2 -0.022811126
v 0.4665232 2 -0.12273987
v 0.6202489 2 -0.12273987
v 0.16297837 1.6155065 -0.12273987
v 0.16170287 1.7676867 -0.12273987
v 0.16170287 1.7676867 -0.022811126
v 0.16297837 1.6155065 -0.022811126
v 0.13968734 1.5617623 -0.15765609
v 0.13968734 1.7265524 -0.15765609
v 0.13378769 2 -0.4610359
v 0.13378769 2 -0.6230722
v 0.13968734 1.7265524 -0.15765609
v 0.039758604 1.7265524 -0.15765609
v 0.033858947 2 -0.4610359
v 0.13378769 2 -0.4610359
v 0.039758604 1.7265524 -0.15765609
v 0.039758604 1.5617623 -0.15765609
v 0.033858947 2 -0.6230722
v 0.033858947 2 -0.4610359
v 0.039758604 1.5617623 -0.15765609
v 0.13968734 1.5617623 -0.15765609
v 0.13378769 2 -0.6230722
v 0.033858947 2 -0.6230722
v 0.13378769 2 -0.6230722
v 0.13378769 2 -0.4610359
v 0.033858947 2 -0.4610359
v 0.033858947 2 -0.6230722
v 0.039758604 1.5617623 -0.15765609
v 0.039758604 1.7265524 -0.15765609
v 0.13968734 1.7265524 -0.15765609
v 0.13968734 1.5617623 -0.15765609
vt 0.375 0
vt 0.375 0.25
vt 0.625 0.25
vt 0.625 0
vt 0.375 0.25
vt 0.375 0.5
vt 0.625 0.5
vt 0.625 0.25
vt 0.375 0.5
vt 0.375 0.75
vt 0.625 0.75
vt 0.625 0.5
vt 0.375 0.75
vt 0.375 1
vt 0.625 1
vt 0.625 0.75
vt 0.625 0
vt 0.625 0.25
vt 0.875 0.25
vt 0.875 0
vt 0.125 0
vt 0.125 0.25
vt 0.375 0.25
vt 0.375 0
vt 0.375 0
vt 0.375 0.25
vt 0.625 0.25
vt 0.625 0
vt 0.375 0.25
vt 0.375 0.5
vt 0.625 0.5
vt 0.625 0.25
vt 0.375 0.5
vt 0.375 0.75
vt 0.625 0.75
vt 0.625 0.5
vt 0.375 0.75
vt 0.375 1
vt 0.625 1
vt 0.625 0.75
vt 0.625 0
vt 0.625 0.25
vt 0.875 0.25
vt 0.875 0
vt 0.125 0
vt 0.125 0.25
vt 0.375 0.25
vt 0.375 0
vt 0.375 0
vt 0.375 0.25
vt 0.625 0.25
vt 0.625 0
vt 0.375 0.25
vt 0.375 0.5
vt 0.625 0.5
vt 0.625 0.25
vt 0.375 0.5
vt 0.375 0.75
vt 0.625 0.75
vt 0.625 0.5
vt 0.375 0.75
vt 0.375 1
vt 0.625 1
vt 0.625 0.75
vt 0.625 0
vt 0.625 0.25
vt 0.875 0.25
vt 0.875 0
vt 0.125 0
vt 0.125 0.25
vt 0.375 0.25
vt 0.375 0
vn -0 0 1
vn -0 0 1
vn -0 0 1
vn -0 0 1
vn -0 1 0
vn -0 1 0
vn -0 1 0
vn -0 1 0
vn -0 0 -1
vn -0 0 -1
vn -0 0 -1
vn -0 0 -1
vn -0 -1 0
vn -0 -1 0
vn -0 -1 0
vn -0 -1 0
vn 1 0 0
vn 1 0 0
vn 1 0 0
vn 1 0 0
vn -1 0 0
vn -1 0 0
vn -1 0 0
vn -1 0 0
vn -0 0 1
vn -0 0 1
vn -0 0 1
vn -0 0 1
vn -0.6061574 0.7953447 0
vn -0.6061574 0.7953447 0
vn -0.6061574 0.7953447 0
vn -0.6061574 0.7953447 0
vn -0 0 -1
vn -0 0 -1
vn -0 0 -1
vn -0 0 -1
vn 0.6435709 -0.7653865 0
vn 0.6435709 -0.7653865 0
vn 0.6435709 -0.7653865 0
vn 0.6435709 -0.7653865 0
vn -0 1 0
vn -0 1 0
vn -0 1 0
vn -0 1 0
vn -0.99996495 -0.008381158 0
vn -0.99996495 -0.008381158 0
vn -0.99996495 -0.008381158 0
vn -0.99996495 -0.008381158 0
vn 0.9999366 0.007899685 -0.00803395
vn 0.9999366 0.007899686 -0.00803395
vn 0.9999366 0.007899686 -0.008033949
vn 0.9999366 0.007899686 -0.008033949
vn -0 0.74280006 0.66951334
vn -0 0.7428001 0.6695133
vn -0 0.74280006 0.66951334
vn -0 0.7428001 0.6695133
vn -0.9999366 -0.00789971 0.00803395
vn -0.9999366 -0.00789971 0.00803395
vn -0.9999366 -0.00789971 0.008033949
vn -0.9999366 -0.00789971 0.008033949
vn -0 -0.7280447 -0.68552965
vn -0 -0.7280447 -0.68552965
vn -0 -0.7280447 -0.68552965
vn -0 -0.7280447 -0.68552965
vn -0 1 0
vn -0 1 0
vn -0 1 0
vn -0 1 0
vn -0 0 1
vn -0 0 1
vn -0 0 1
vn -0 0 1
g Support_Corner_Wooden_Tall_COL_0
f 3/3/3 2/2/2 1/1/1
f 4/4/4 3/3/3 1/1/1
f 7/7/7 6/6/6 5/5/5
f 8/8/8 7/7/7 5/5/5
f 11/11/11 10/10/10 9/9/9
f 12/12/12 11/11/11 9/9/9
f 15/15/15 14/14/14 13/13/13
f 16/16/16 15/15/15 13/13/13
f 19/19/19 18/18/18 17/17/17
f 20/20/20 19/19/19 17/17/17
f 23/23/23 22/22/22 21/21/21
f 24/24/24 23/23/23 21/21/21
f 27/27/27 26/26/26 25/25/25
f 28/28/28 27/27/27 25/25/25
f 31/31/31 30/30/30 29/29/29
f 32/32/32 31/31/31 29/29/29
f 35/35/35 34/34/34 33/33/33
f 36/36/36 35/35/35 33/33/33
f 39/39/39 38/38/38 37/37/37
f 40/40/40 39/39/39 37/37/37
f 43/43/43 42/42/42 41/41/41
f 44/44/44 43/43/43 41/41/41
f 47/47/47 46/46/46 45/45/45
f 48/48/48 47/47/47 45/45/45
f 51/51/51 50/50/50 49/49/49
f 52/52/52 51/51/51 49/49/49
f 55/55/55 54/54/54 53/53/53
f 56/56/56 55/55/55 53/53/53
f 59/59/59 58/58/58 57/57/57
f 60/60/60 59/59/59 57/57/57
f 63/63/63 62/62/62 61/61/61
f 64/64/64 63/63/63 61/61/61
f 67/67/67 66/66/66 65/65/65
f 68/68/68 67/67/67 65/65/65
f 71/71/71 70/70/70 69/69/69
f 72/72/72 71/71/71 69/69/69
