g temp_pillar1
v -0.75 0 0.75
v 0.75 3 0.75
v 0.75 0 0.75
v -0.75 3 0.75
v 0.75 6 0.75
v -0.75 6 0.75
v -0.75 6 0.75
v -0.75 6 -0.75
v 0.75 6 -0.75
v 0.75 6 0.75
v -0.75 6 -0.75
v 0.75 3 -0.75
v 0.75 6 -0.75
v -0.75 3 -0.75
v 0.75 0 -0.75
v -0.75 0 -0.75
v -0.75 0 -0.75
v -0.75 0 0.75
v 0.75 0 0.75
v 0.75 0 -0.75
v 0.75 0 0.75
v 0.75 3 -0.75
v 0.75 0 -0.75
v 0.75 3 0.75
v 0.75 6 -0.75
v 0.75 6 0.75
v -0.75 0 -0.75
v -0.75 3 0.75
v -0.75 0 0.75
v -0.75 3 -0.75
v -0.75 6 0.75
v -0.75 6 -0.75
vt 0.375 0
vt 0.625 0.125
vt 0.625 0
vt 0.375 0.125
vt 0.625 0.25
vt 0.375 0.25
vt 0.375 0.25
vt 0.375 0.5
vt 0.625 0.5
vt 0.625 0.25
vt 0.375 0.5
vt 0.625 0.625
vt 0.625 0.5
vt 0.375 0.625
vt 0.625 0.75
vt 0.375 0.75
vt 0.375 0.75
vt 0.375 1
vt 0.625 1
vt 0.625 0.75
vt 0.625 0
vt 0.875 0.125
vt 0.875 0
vt 0.625 0.125
vt 0.875 0.25
vt 0.625 0.25
vt 0.125 0
vt 0.375 0.125
vt 0.375 0
vt 0.125 0.125
vt 0.375 0.25
vt 0.125 0.25
vn -0 0 1
vn -0 0 1
vn -0 0 1
vn -0 0 1
vn -0 0 1
vn -0 0 1
vn -0 1 0
vn -0 1 0
vn -0 1 0
vn -0 1 0
vn -0 0 -1
vn -0 0 -1
vn -0 0 -1
vn -0 0 -1
vn -0 0 -1
vn -0 0 -1
vn -0 -1 0
vn -0 -1 0
vn -0 -1 0
vn -0 -1 0
vn 1 0 0
vn 1 0 0
vn 1 0 0
vn 1 0 0
vn 1 0 0
vn 1 0 0
vn -1 0 0
vn -1 0 0
vn -1 0 0
vn -1 0 0
vn -1 0 0
vn -1 0 0
g temp_pillar1_0
f 3/3/3 2/2/2 1/1/1
f 2/2/2 4/4/4 1/1/1
f 2/2/2 5/5/5 4/4/4
f 5/5/5 6/6/6 4/4/4
f 9/9/9 8/8/8 7/7/7
f 10/10/10 9/9/9 7/7/7
f 13/13/13 12/12/12 11/11/11
f 12/12/12 14/14/14 11/11/11
f 12/12/12 15/15/15 14/14/14
f 15/15/15 16/16/16 14/14/14
f 19/19/19 18/18/18 17/17/17
f 20/20/20 19/19/19 17/17/17
f 23/23/23 22/22/22 21/21/21
f 22/22/22 24/24/24 21/21/21
f 22/22/22 25/25/25 24/24/24
f 25/25/25 26/26/26 24/24/24
f 29/29/29 28/28/28 27/27/27
f 28/28/28 30/30/30 27/27/27
f 28/28/28 31/31/31 30/30/30
f 31/31/31 32/32/32 30/30/30
