g tornado_8
v -0 0.83637136 0.21811497
v -2.664611E-08 0.98593044 0.45462173
v 0.3046693 0.9376761 0.44779772
v 0.25845304 0.7954368 0.21128896
v -2.664611E-08 0.9859305 -0.04544121
v 0.5795156 0.79763496 0.42090648
v 0.30466938 0.9376761 -0.05226946
v 0.49160695 0.676639 0.18441357
v 0.79763496 0.57951564 0.37018472
v 0.5795156 0.79763496 -0.07912719
v 0.67663896 0.49160695 0.13827637
v 0.9376759 0.30466947 0.3132522
v 0.79763484 0.57951564 -0.12015551
v 0.79543674 0.25845313 0.088946596
v 0.98593086 8.625075E-08 0.25464606
v 0.9376759 0.30466947 -0.161013
v 0.8363717 5.255708E-08 0.032676406
v 0.9376758 -0.30466923 0.1946541
v 0.98593086 6.868498E-08 -0.21468008
v 0.7954367 -0.25845295 -0.02640859
v 0.7976348 -0.5795155 0.13120246
v 0.9376759 -0.30466926 -0.27275437
v 0.6766389 -0.4916069 -0.093001515
v 0.5795155 -0.7976347 0.07533592
v 0.7976348 -0.5795155 -0.34284782
v 0.4916069 -0.67663884 -0.1516313
v 0.3046693 -0.9376758 0.042497218
v 0.5795155 -0.79763466 -0.4045569
v 0.258453 -0.7954366 -0.18668805
v -2.664611E-08 -0.9859307 0.03267902
v 0.3046693 -0.9376758 -0.4420854
v -0 -0.83637154 -0.1975936
v -0.30466935 -0.9376758 0.042497277
v -2.664611E-08 -0.9859307 -0.45420265
v -0.258453 -0.7954366 -0.18668802
v -0.5795155 -0.79763454 0.07533592
v -0.30466935 -0.9376758 -0.4420854
v -0.49160683 -0.6766387 -0.15163134
v -0.7976347 -0.5795154 0.13120252
v -0.5795155 -0.7976346 -0.404557
v -0.6766387 -0.49160677 -0.09300147
v -0.9376757 -0.30466923 0.1946541
v -0.7976346 -0.57951546 -0.3428478
v -0.7954365 -0.25845295 -0.02640859
v -0.98593056 1.5987668E-08 0.25464606
v -0.9376756 -0.30466923 -0.27275437
v -0.8363714 0 0.032676406
v -0.93767565 0.30466938 0.3132522
v -0.98593056 1.5987666E-08 -0.21468008
v -0.7954365 0.25845304 0.088946566
v -0.7976346 0.57951546 0.37018466
v -0.93767565 0.30466938 -0.16101307
v -0.6766387 0.4916068 0.13827631
v -0.57951534 0.7976346 0.4209065
v -0.7976346 0.57951546 -0.12015557
v -0.4916067 0.6766387 0.18441358
v -0.3046694 0.9376756 0.44779772
v -0.57951534 0.7976346 -0.07912719
v -0.25845307 0.7954365 0.21128893
v -2.664611E-08 0.98593044 0.45462173
v -0.3046694 0.93767565 -0.05226952
v -0 0.83637136 0.21811497
v -2.664611E-08 0.9859305 -0.04544121
v -0 1 0.19389907
v 3.106752E-08 0.8262578 -0.044968903
v 0.2553279 0.7858184 -0.057747185
v 0.30901718 0.9510572 0.18112735
v 3.106752E-08 0.8262578 0.45503104
v 0.48566252 0.6684571 -0.090073824
v 0.2553279 0.78581846 0.44226652
v 0.5877856 0.80901754 0.14879525
v 0.66845715 0.48566246 -0.14308101
v 0.48566252 0.6684571 0.40992844
v 0.80901754 0.5877856 0.095356494
v 0.78581834 0.2553278 -0.1848821
v 0.6684571 0.48566246 0.3560179
v 0.951057 0.30901712 0.046019085
v 0.8262583 -2.0711676E-08 -0.22501504
v 0.7858184 0.25532782 0.2984417
v 1.0000005 0 0.0034811795
v 0.78581834 -0.25532788 -0.2738725
v 0.8262583 -2.0711674E-08 0.25327468
v 0.95105696 -0.30901715 -0.0450098
v 0.6684569 -0.4856624 -0.34544945
v 0.78581834 -0.25532788 0.20518434
v 0.8090173 -0.5877855 -0.11352096
v 0.48566234 -0.6684569 -0.40971535
v 0.6684569 -0.4856624 0.14002472
v 0.5877854 -0.80901724 -0.17611131
v 0.25532785 -0.78581816 -0.45814687
v 0.48566234 -0.66845685 0.07926613
v 0.30901712 -0.9510568 -0.2213375
v 3.106752E-08 -0.82625806 -0.47867978
v 0.25532785 -0.78581816 0.037544012
v -0 -1.0000002 -0.240462
v -0.25532773 -0.78581816 -0.45814687
v 3.106752E-08 -0.82625806 0.019959152
v -0.30901706 -0.9510568 -0.22133747
v -0.48566225 -0.6684568 -0.4097153
v -0.25532773 -0.78581816 0.03754407
v -0.58778536 -0.8090172 -0.17611125
v -0.6684568 -0.48566228 -0.34544945
v -0.48566225 -0.66845685 0.07926619
v -0.8090172 -0.58778536 -0.11352096
v -0.785818 -0.2553278 -0.2738725
v -0.66845673 -0.48566228 0.14002472
v -0.9510566 -0.30901706 -0.04500983
v -0.8262578 -4.533608E-08 -0.2250151
v -0.785818 -0.2553278 0.20518428
v -1 -2.9802322E-08 0.0034811422
v -0.785818 0.25532767 -0.1848821
v -0.82625794 -4.533608E-08 0.25327468
v -0.95105666 0.30901697 0.046019055
v -0.6684567 0.48566216 -0.14308107
v -0.78581804 0.25532767 0.29844165
v -0.80901706 0.58778524 0.095356435
v -0.48566222 0.6684567 -0.090073824
v -0.6684567 0.48566216 0.35601783
v -0.5877853 0.809017 0.14879522
v -0.2553277 0.7858179 -0.057747185
v -0.4856622 0.6684566 0.40992838
v -0.309017 0.95105654 0.18112735
v 3.106752E-08 0.8262578 -0.044968903
v -0.2553277 0.7858179 0.44226652
v -0 1 0.19389907
v 3.106752E-08 0.8262578 0.45503104
vt 1.0000001 0.47295398
vt 1.0000001 0
vt 0.95000017 0
vt 0.95000017 0.47295398
vt 1.0000001 1
vt 0.90000015 0
vt 0.95000017 1
vt 0.90000015 0.47295398
vt 0.85000014 0
vt 0.90000015 1
vt 0.85000014 0.47295398
vt 0.80000013 0
vt 0.85000014 1
vt 0.80000013 0.47295398
vt 0.7500001 0
vt 0.80000013 1
vt 0.7500001 0.47295398
vt 0.7000001 0
vt 0.7500001 1
vt 0.7000001 0.47295398
vt 0.6500001 0
vt 0.7000001 1
vt 0.6500001 0.47295398
vt 0.6000001 0
vt 0.6500001 1
vt 0.6000001 0.47295398
vt 0.5500001 0
vt 0.6000001 1
vt 0.5500001 0.47295398
vt 0.50000006 0
vt 0.5500001 1
vt 0.50000006 0.47295398
vt 0.45000005 0
vt 0.50000006 1
vt 0.45000005 0.47295398
vt 0.40000004 0
vt 0.45000005 1
vt 0.40000004 0.47295398
vt 0.35000002 0
vt 0.40000004 1
vt 0.35000002 0.47295398
vt 0.3 0
vt 0.35000002 1
vt 0.3 0.47295398
vt 0.25 0
vt 0.3 1
vt 0.25 0.47295398
vt 0.2 0
vt 0.25 1
vt 0.2 0.47295398
vt 0.15 0
vt 0.2 1
vt 0.15 0.47295398
vt 0.1 0
vt 0.15 1
vt 0.1 0.47295398
vt 0.05 0
vt 0.1 1
vt 0.05 0.47295398
vt 0 0
vt 0.05 1
vt 0 0.47295398
vt 0 1
vt 1.0000001 0.477736
vt 1.0000001 0
vt 0.95000017 0
vt 0.95000017 0.477736
vt 1.0000001 1
vt 0.90000015 0
vt 0.95000017 1
vt 0.90000015 0.477736
vt 0.85000014 0
vt 0.90000015 1
vt 0.85000014 0.477736
vt 0.80000013 0
vt 0.85000014 1
vt 0.80000013 0.477736
vt 0.7500001 0
vt 0.80000013 1
vt 0.7500001 0.477736
vt 0.7000001 0
vt 0.7500001 1
vt 0.7000001 0.477736
vt 0.6500001 0
vt 0.7000001 1
vt 0.6500001 0.477736
vt 0.6000001 0
vt 0.6500001 1
vt 0.6000001 0.477736
vt 0.5500001 0
vt 0.6000001 1
vt 0.5500001 0.477736
vt 0.50000006 0
vt 0.5500001 1
vt 0.50000006 0.477736
vt 0.45000005 0
vt 0.50000006 1
vt 0.45000005 0.477736
vt 0.40000004 0
vt 0.45000005 1
vt 0.40000004 0.477736
vt 0.35000002 0
vt 0.40000004 1
vt 0.35000002 0.477736
vt 0.3 0
vt 0.35000002 1
vt 0.3 0.477736
vt 0.25 0
vt 0.3 1
vt 0.25 0.477736
vt 0.2 0
vt 0.25 1
vt 0.2 0.477736
vt 0.15 0
vt 0.2 1
vt 0.15 0.477736
vt 0.1 0
vt 0.15 1
vt 0.1 0.477736
vt 0.05 0
vt 0.1 1
vt 0.05 0.477736
vt 0 0
vt 0.05 1
vt 0 0.477736
vt 0 1
vn -0 -0.99995685 0.009298417
vn -0 -0.8457594 0.5335645
vn -0.22820546 -0.81482816 0.53289515
vn -0.30724537 -0.9515408 0.013051483
vn -0 -0.8692733 -0.4943319
vn -0.43152547 -0.7274463 0.5334864
vn -0.30045033 -0.81560344 -0.49449024
vn -0.58198524 -0.81310433 0.012431245
vn -0.6110049 -0.5790105 0.53983325
vn -0.565058 -0.65966785 -0.4955278
vn -0.8026638 -0.596424 0.003037206
vn -0.74996465 -0.3695873 0.5485967
vn -0.7470652 -0.4367571 -0.5011355
vn -0.94780415 -0.3188093 0.005276064
vn -0.8226789 -0.12647405 0.5542596
vn -0.8432144 -0.16937876 -0.51019627
vn -0.99998534 -0.0046062046 0.0028742247
vn -0.8225199 0.1272618 0.5543154
vn -0.8497765 0.11489934 -0.51446867
vn -0.9516152 0.30724144 0.0055840663
vn -0.7431133 0.37819305 0.55204403
vn -0.7660135 0.38570547 -0.51425153
vn -0.80611235 0.59175277 -0.0034012762
vn -0.5670203 0.6131161 0.5500697
vn -0.61175334 0.6050487 -0.50958216
vn -0.5819772 0.813106 -0.012691977
vn -0.3032452 0.77947235 0.54814714
vn -0.42622325 0.7500215 -0.5057682
vn -0.30500466 0.95225734 -0.013346896
vn -0 0.83712417 0.5470128
vn -0.22120413 0.835022 -0.5037928
vn -0 0.99992764 -0.012031743
vn 0.3032454 0.77947235 0.548147
vn -0 0.8642575 -0.50304955
vn 0.30500492 0.95225734 -0.013346994
vn 0.56702054 0.6131158 0.5500697
vn 0.22120434 0.8350218 -0.5037929
vn 0.58197755 0.8131058 -0.012692246
vn 0.7431133 0.37819287 0.55204415
vn 0.42622346 0.7500213 -0.50576836
vn 0.8061124 0.59175265 -0.0034011004
vn 0.8225198 0.1272614 0.55431545
vn 0.6117533 0.6050487 -0.5095822
vn 0.95161533 0.30724123 0.0055842716
vn 0.8226789 -0.12647429 0.55425954
vn 0.7660136 0.38570538 -0.5142515
vn 0.99998534 -0.0046065245 0.002874361
vn 0.7499647 -0.36958736 0.5485965
vn 0.8497766 0.114899166 -0.51446855
vn 0.94780415 -0.31880936 0.005275989
vn 0.6110048 -0.5790107 0.53983307
vn 0.8432144 -0.1693788 -0.51019627
vn 0.80266374 -0.59642416 0.003037043
vn 0.4315256 -0.72744644 0.53348607
vn 0.7470652 -0.43675718 -0.5011356
vn 0.5819851 -0.81310433 0.012431286
vn 0.22820611 -0.81482816 0.5328949
vn 0.565058 -0.65966797 -0.4955275
vn 0.3072461 -0.95154065 0.013051421
vn -0 -0.8457594 0.5335645
vn 0.30045083 -0.8156034 -0.49449006
vn -0 -0.99995685 0.009298417
vn -0 -0.8692733 -0.4943319
vn -0 0.9998554 0.01700596
vn -0 0.8101242 -0.58625823
vn 0.21086484 0.78233844 -0.5860739
vn 0.31122327 0.95024437 0.013254146
vn -0 0.83136815 0.55572206
vn 0.41142762 0.69935083 -0.5844962
vn 0.29157817 0.77922356 0.5547907
vn 0.5916986 0.8060375 0.014009069
vn 0.5966732 0.544385 -0.5895982
vn 0.54384387 0.6305611 0.5537387
vn 0.8113208 0.5846 -0.0012224313
vn 0.73378444 0.32376307 -0.5972755
vn 0.7211372 0.41572773 0.55419445
vn 0.9523853 0.3048834 -0.002889247
vn 0.7948953 0.08421986 -0.60087305
vn 0.80849844 0.17710897 0.5612153
vn 0.9999827 -0.0031082253 0.0049985256
vn 0.7899723 -0.13993977 -0.59695935
vn 0.81947756 -0.07825044 0.56774414
vn 0.94954544 -0.31333888 0.013503891
vn 0.7136691 -0.37005597 -0.5947563
vn 0.7477552 -0.34526 0.5671487
vn 0.81051123 -0.58571863 -0.0022872612
vn 0.54835165 -0.58912235 -0.59350264
vn 0.5986404 -0.57161725 0.5611447
vn 0.5919416 -0.80592763 -0.009261441
vn 0.30281413 -0.74615425 -0.5929227
vn 0.41108525 -0.7210901 0.5577079
vn 0.31381658 -0.9493681 -0.014806942
vn -0 -0.80485666 -0.59346926
vn 0.2050779 -0.80599105 0.5552671
vn -0 -0.9997471 -0.022490367
vn -0.30281428 -0.7461542 -0.59292287
vn -0 -0.8328185 0.5535462
vn -0.3138167 -0.9493681 -0.014807178
vn -0.54835176 -0.5891222 -0.59350276
vn -0.2050779 -0.80599105 0.55526704
vn -0.5919418 -0.80592746 -0.009261404
vn -0.71366924 -0.37005568 -0.59475625
vn -0.41108546 -0.7210899 0.55770797
vn -0.8105115 -0.5857182 -0.0022871513
vn -0.7899725 -0.13993946 -0.5969593
vn -0.5986406 -0.5716169 0.5611448
vn -0.9495455 -0.31333852 0.013503801
vn -0.7948953 0.0842199 -0.60087305
vn -0.7477554 -0.34525973 0.56714857
vn -0.9999827 -0.0031082213 0.004998378
vn -0.7337844 0.3237632 -0.5972755
vn -0.8194776 -0.07825048 0.56774396
vn -0.9523852 0.30488354 -0.0028892856
vn -0.59667313 0.54438543 -0.58959794
vn -0.8084985 0.1771091 0.5612152
vn -0.81132054 0.5846002 -0.0012224137
vn -0.41142768 0.69935113 -0.5844957
vn -0.7211372 0.415728 0.55419433
vn -0.5916985 0.8060376 0.014009205
vn -0.21086568 0.78233856 -0.58607346
vn -0.5438438 0.6305613 0.5537386
vn -0.31122413 0.950244 0.013254319
vn -0 0.8101242 -0.58625823
vn -0.29157913 0.7792234 0.5547904
vn -0 0.9998554 0.01700596
vn -0 0.83136815 0.55572206
g tornado_8_0
f 3/3/3 2/2/2 1/1/1
f 4/4/4 3/3/3 1/1/1
f 4/4/4 1/1/1 5/5/5
f 6/6/6 3/3/3 4/4/4
f 7/7/7 4/4/4 5/5/5
f 8/8/8 6/6/6 4/4/4
f 8/8/8 4/4/4 7/7/7
f 9/9/9 6/6/6 8/8/8
f 10/10/10 8/8/8 7/7/7
f 11/11/11 9/9/9 8/8/8
f 11/11/11 8/8/8 10/10/10
f 12/12/12 9/9/9 11/11/11
f 13/13/13 11/11/11 10/10/10
f 14/14/14 12/12/12 11/11/11
f 14/14/14 11/11/11 13/13/13
f 15/15/15 12/12/12 14/14/14
f 16/16/16 14/14/14 13/13/13
f 17/17/17 15/15/15 14/14/14
f 17/17/17 14/14/14 16/16/16
f 18/18/18 15/15/15 17/17/17
f 19/19/19 17/17/17 16/16/16
f 20/20/20 18/18/18 17/17/17
f 20/20/20 17/17/17 19/19/19
f 21/21/21 18/18/18 20/20/20
f 22/22/22 20/20/20 19/19/19
f 23/23/23 21/21/21 20/20/20
f 23/23/23 20/20/20 22/22/22
f 24/24/24 21/21/21 23/23/23
f 25/25/25 23/23/23 22/22/22
f 26/26/26 24/24/24 23/23/23
f 26/26/26 23/23/23 25/25/25
f 27/27/27 24/24/24 26/26/26
f 28/28/28 26/26/26 25/25/25
f 29/29/29 27/27/27 26/26/26
f 29/29/29 26/26/26 28/28/28
f 30/30/30 27/27/27 29/29/29
f 31/31/31 29/29/29 28/28/28
f 32/32/32 30/30/30 29/29/29
f 32/32/32 29/29/29 31/31/31
f 33/33/33 30/30/30 32/32/32
f 34/34/34 32/32/32 31/31/31
f 35/35/35 33/33/33 32/32/32
f 35/35/35 32/32/32 34/34/34
f 36/36/36 33/33/33 35/35/35
f 37/37/37 35/35/35 34/34/34
f 38/38/38 36/36/36 35/35/35
f 38/38/38 35/35/35 37/37/37
f 39/39/39 36/36/36 38/38/38
f 40/40/40 38/38/38 37/37/37
f 41/41/41 39/39/39 38/38/38
f 41/41/41 38/38/38 40/40/40
f 42/42/42 39/39/39 41/41/41
f 43/43/43 41/41/41 40/40/40
f 44/44/44 42/42/42 41/41/41
f 44/44/44 41/41/41 43/43/43
f 45/45/45 42/42/42 44/44/44
f 46/46/46 44/44/44 43/43/43
f 47/47/47 45/45/45 44/44/44
f 47/47/47 44/44/44 46/46/46
f 48/48/48 45/45/45 47/47/47
f 49/49/49 47/47/47 46/46/46
f 50/50/50 48/48/48 47/47/47
f 50/50/50 47/47/47 49/49/49
f 51/51/51 48/48/48 50/50/50
f 52/52/52 50/50/50 49/49/49
f 53/53/53 51/51/51 50/50/50
f 53/53/53 50/50/50 52/52/52
f 54/54/54 51/51/51 53/53/53
f 55/55/55 53/53/53 52/52/52
f 56/56/56 54/54/54 53/53/53
f 56/56/56 53/53/53 55/55/55
f 57/57/57 54/54/54 56/56/56
f 58/58/58 56/56/56 55/55/55
f 59/59/59 57/57/57 56/56/56
f 59/59/59 56/56/56 58/58/58
f 60/60/60 57/57/57 59/59/59
f 61/61/61 59/59/59 58/58/58
f 62/62/62 60/60/60 59/59/59
f 62/62/62 59/59/59 61/61/61
f 63/63/63 62/62/62 61/61/61
f 66/66/66 65/65/65 64/64/64
f 67/67/67 66/66/66 64/64/64
f 67/67/67 64/64/64 68/68/68
f 69/69/69 66/66/66 67/67/67
f 70/70/70 67/67/67 68/68/68
f 71/71/71 69/69/69 67/67/67
f 71/71/71 67/67/67 70/70/70
f 72/72/72 69/69/69 71/71/71
f 73/73/73 71/71/71 70/70/70
f 74/74/74 72/72/72 71/71/71
f 74/74/74 71/71/71 73/73/73
f 75/75/75 72/72/72 74/74/74
f 76/76/76 74/74/74 73/73/73
f 77/77/77 75/75/75 74/74/74
f 77/77/77 74/74/74 76/76/76
f 78/78/78 75/75/75 77/77/77
f 79/79/79 77/77/77 76/76/76
f 80/80/80 78/78/78 77/77/77
f 80/80/80 77/77/77 79/79/79
f 81/81/81 78/78/78 80/80/80
f 82/82/82 80/80/80 79/79/79
f 83/83/83 81/81/81 80/80/80
f 83/83/83 80/80/80 82/82/82
f 84/84/84 81/81/81 83/83/83
f 85/85/85 83/83/83 82/82/82
f 86/86/86 84/84/84 83/83/83
f 86/86/86 83/83/83 85/85/85
f 87/87/87 84/84/84 86/86/86
f 88/88/88 86/86/86 85/85/85
f 89/89/89 87/87/87 86/86/86
f 89/89/89 86/86/86 88/88/88
f 90/90/90 87/87/87 89/89/89
f 91/91/91 89/89/89 88/88/88
f 92/92/92 90/90/90 89/89/89
f 92/92/92 89/89/89 91/91/91
f 93/93/93 90/90/90 92/92/92
f 94/94/94 92/92/92 91/91/91
f 95/95/95 93/93/93 92/92/92
f 95/95/95 92/92/92 94/94/94
f 96/96/96 93/93/93 95/95/95
f 97/97/97 95/95/95 94/94/94
f 98/98/98 96/96/96 95/95/95
f 98/98/98 95/95/95 97/97/97
f 99/99/99 96/96/96 98/98/98
f 100/100/100 98/98/98 97/97/97
f 101/101/101 99/99/99 98/98/98
f 101/101/101 98/98/98 100/100/100
f 102/102/102 99/99/99 101/101/101
f 103/103/103 101/101/101 100/100/100
f 104/104/104 102/102/102 101/101/101
f 104/104/104 101/101/101 103/103/103
f 105/105/105 102/102/102 104/104/104
f 106/106/106 104/104/104 103/103/103
f 107/107/107 105/105/105 104/104/104
f 107/107/107 104/104/104 106/106/106
f 108/108/108 105/105/105 107/107/107
f 109/109/109 107/107/107 106/106/106
f 110/110/110 108/108/108 107/107/107
f 110/110/110 107/107/107 109/109/109
f 111/111/111 108/108/108 110/110/110
f 112/112/112 110/110/110 109/109/109
f 113/113/113 111/111/111 110/110/110
f 113/113/113 110/110/110 112/112/112
f 114/114/114 111/111/111 113/113/113
f 115/115/115 113/113/113 112/112/112
f 116/116/116 114/114/114 113/113/113
f 116/116/116 113/113/113 115/115/115
f 117/117/117 114/114/114 116/116/116
f 118/118/118 116/116/116 115/115/115
f 119/119/119 117/117/117 116/116/116
f 119/119/119 116/116/116 118/118/118
f 120/120/120 117/117/117 119/119/119
f 121/121/121 119/119/119 118/118/118
f 122/122/122 120/120/120 119/119/119
f 122/122/122 119/119/119 121/121/121
f 123/123/123 120/120/120 122/122/122
f 124/124/124 122/122/122 121/121/121
f 125/125/125 123/123/123 122/122/122
f 125/125/125 122/122/122 124/124/124
f 126/126/126 125/125/125 124/124/124
