g tree_pear_COL
v -0.485744 0.002909969 -1.7537314
v -5.856156E-08 0.8223667 -0.99306524
v -0.78690594 0.9215641 -0.78690606
v -0.485744 0.002909969 -1.7537314
v -0.7501785 0.002510731 -0.75017834
v -0.7501785 0.002510731 -0.75017834
v -0.78690594 0.9215641 -0.78690606
v -1.0689471 0.8852054 -2.5629996E-08
v -1.0689471 0.8852054 -2.5629996E-08
v -1.6637408 0.004038554 -0.3284013
v -1.6637408 0.004038554 -0.3284013
v -1.0689471 0.8852054 -2.5629996E-08
v -0.7186695 0.8416507 0.7186696
v -1.6637408 0.004038554 -0.3284013
v -1.4270583 -0.32683346 0.99583167
v -4.172325E-08 0.7511821 0.907105
v -4.9769877E-08 1.5426221 1.0920444
v 0.9188369 1.835577 0.9188369
v 0.9188369 1.835577 0.9188369
v 0.57689893 0.67561996 0.57689893
v -1.4270583 -0.32683346 0.99583167
v -8.5830685E-08 0.005590591 -3.9339064E-08
v -1.6637408 0.004038554 -0.3284013
v -0.17623885 0.08002746 1.0768682
v -8.5830685E-08 0.005590591 -3.9339064E-08
v -1.4270583 -0.32683346 0.99583167
v 0.6619813 0.003211825 1.1362637
v -8.5830685E-08 0.005590591 -3.9339064E-08
v -0.17623885 0.08002746 1.0768682
v 0.31314063 3.3594573 -0.3131406
v -1.14440915E-07 4.8749094 -2.8610229E-08
v -9.536743E-09 3.4392755 -0.45830038
v -9.536743E-09 3.4392755 -0.45830038
v -1.14440915E-07 4.8749094 -2.8610229E-08
v -0.3340602 3.5275753 -0.3340602
v -0.3340602 3.5275753 -0.3340602
v -1.14440915E-07 4.8749094 -2.8610229E-08
v -0.50651157 3.7414098 -1.013279E-08
v -0.50651157 3.7414098 -1.013279E-08
v -1.14440915E-07 4.8749094 -2.8610229E-08
v -0.37458903 3.8996422 0.37458903
v -0.37458903 3.8996422 0.37458903
v -1.14440915E-07 4.8749094 -2.8610229E-08
v -4.529953E-08 4.3355875 0.60907584
v -4.529953E-08 4.3355875 0.60907584
v -1.14440915E-07 4.8749094 -2.8610229E-08
v 0.45041677 4.4818177 0.45041674
v 0.45041677 4.4818177 0.45041674
v -1.14440915E-07 4.8749094 -2.8610229E-08
v 0.54616845 4.1176667 -1.9073486E-08
v 0.54616845 4.1176667 -1.9073486E-08
v -1.14440915E-07 4.8749094 -2.8610229E-08
v 0.31314063 3.3594573 -0.3131406
v 1.1349657 0.0037988115 -1.1349655
v 0.6720935 0.7871045 -0.6720935
v -5.856156E-08 0.8223667 -0.99306524
v -0.485744 0.002909969 -1.7537314
v -1.4270583 -0.32683346 0.99583167
v -0.7186695 0.8416507 0.7186696
v -4.172325E-08 0.7511821 0.907105
v -0.17623885 0.08002746 1.0768682
v -0.17623885 0.08002746 1.0768682
v -4.172325E-08 0.7511821 0.907105
v 0.57689893 0.67561996 0.57689893
v 0.6619813 0.003211825 1.1362637
v 0.6619813 0.003211825 1.1362637
v 0.57689893 0.67561996 0.57689893
v 0.92354655 0.7647975 -1.7508864E-08
v 1.609896 0.003977227 0.5736616
v 1.609896 0.003977227 0.5736616
v 0.92354655 0.7647975 -1.7508864E-08
v 0.6720935 0.7871045 -0.6720935
v 1.1349657 0.0037988115 -1.1349655
v 0.6720935 0.7871045 -0.6720935
v 0.71997994 1.438317 -0.7199797
v -4.7683713E-08 1.4545227 -1.0296774
v -5.856156E-08 0.8223667 -0.99306524
v -5.856156E-08 0.8223667 -0.99306524
v -4.7683713E-08 1.4545227 -1.0296774
v -0.8154567 1.6290526 -0.8154567
v -0.78690594 0.9215641 -0.78690606
v -0.78690594 0.9215641 -0.78690606
v -0.8154567 1.6290526 -0.8154567
v -1.179487 1.6661437 -2.3841856E-08
v -1.0689471 0.8852054 -2.5629996E-08
v -1.0689471 0.8852054 -2.5629996E-08
v -1.179487 1.6661437 -2.3841856E-08
v -0.6686052 1.3356848 0.6686051
v -0.7186695 0.8416507 0.7186696
v -0.7186695 0.8416507 0.7186696
v -0.6686052 1.3356848 0.6686051
v -4.9769877E-08 1.5426221 1.0920444
v -4.172325E-08 0.7511821 0.907105
v 0.57689893 0.67561996 0.57689893
v 0.9188369 1.835577 0.9188369
v 0.88224995 1.2462664 -1.1920928E-08
v 0.92354655 0.7647975 -1.7508864E-08
v 0.92354655 0.7647975 -1.7508864E-08
v 0.88224995 1.2462664 -1.1920928E-08
v 0.71997994 1.438317 -0.7199797
v 0.6720935 0.7871045 -0.6720935
v 0.71997994 1.438317 -0.7199797
v 0.47388995 2.3174474 -0.47388995
v -2.7418135E-08 2.688794 -0.77757084
v -4.7683713E-08 1.4545227 -1.0296774
v -4.7683713E-08 1.4545227 -1.0296774
v -2.7418135E-08 2.688794 -0.77757084
v -0.5411116 2.6461792 -0.5411116
v -0.8154567 1.6290526 -0.8154567
v -0.8154567 1.6290526 -0.8154567
v -0.5411116 2.6461792 -0.5411116
v -0.7801547 2.6977282 -8.34465E-09
v -1.179487 1.6661437 -2.3841856E-08
v -1.179487 1.6661437 -2.3841856E-08
v -0.7801547 2.6977282 -8.34465E-09
v -0.5018437 2.4541488 0.50184375
v -0.6686052 1.3356848 0.6686051
v -0.6686052 1.3356848 0.6686051
v -0.5018437 2.4541488 0.50184375
v -3.8146972E-08 2.8019414 0.8102921
v -4.9769877E-08 1.5426221 1.0920444
v -4.9769877E-08 1.5426221 1.0920444
v -3.8146972E-08 2.8019414 0.8102921
v 0.5260353 2.572452 0.5260353
v 0.9188369 1.835577 0.9188369
v 0.9188369 1.835577 0.9188369
v 0.5260353 2.572452 0.5260353
v 0.6627614 2.2917886 1.6093253E-08
v 0.88224995 1.2462664 -1.1920928E-08
v 0.88224995 1.2462664 -1.1920928E-08
v 0.6627614 2.2917886 1.6093253E-08
v 0.47388995 2.3174474 -0.47388995
v 0.71997994 1.438317 -0.7199797
v 0.47388995 2.3174474 -0.47388995
v 0.31314063 3.3594573 -0.3131406
v -9.536743E-09 3.4392755 -0.45830038
v -2.7418135E-08 2.688794 -0.77757084
v -2.7418135E-08 2.688794 -0.77757084
v -9.536743E-09 3.4392755 -0.45830038
v -0.3340602 3.5275753 -0.3340602
v -0.5411116 2.6461792 -0.5411116
v -0.5411116 2.6461792 -0.5411116
v -0.3340602 3.5275753 -0.3340602
v -0.50651157 3.7414098 -1.013279E-08
v -0.7801547 2.6977282 -8.34465E-09
v -0.7801547 2.6977282 -8.34465E-09
v -0.50651157 3.7414098 -1.013279E-08
v -0.37458903 3.8996422 0.37458903
v -0.5018437 2.4541488 0.50184375
v -0.5018437 2.4541488 0.50184375
v -0.37458903 3.8996422 0.37458903
v -4.529953E-08 4.3355875 0.60907584
v -3.8146972E-08 2.8019414 0.8102921
v -3.8146972E-08 2.8019414 0.8102921
v -4.529953E-08 4.3355875 0.60907584
v 0.45041677 4.4818177 0.45041674
v 0.5260353 2.572452 0.5260353
v 0.5260353 2.572452 0.5260353
v 0.45041677 4.4818177 0.45041674
v 0.54616845 4.1176667 -1.9073486E-08
v 0.6627614 2.2917886 1.6093253E-08
v 0.6627614 2.2917886 1.6093253E-08
v 0.54616845 4.1176667 -1.9073486E-08
v 0.31314063 3.3594573 -0.3131406
v 0.47388995 2.3174474 -0.47388995
v -1.6637408 0.004038554 -0.3284013
v -8.5830685E-08 0.005590591 -3.9339064E-08
v -0.7501785 0.002510731 -0.75017834
v -0.485744 0.002909969 -1.7537314
v 1.1349657 0.0037988115 -1.1349655
v 1.609896 0.003977227 0.5736616
v 0.6619813 0.003211825 1.1362637
vt 0.40625 0.3125
vt 0.40625 0.40648496
vt 0.4375 0.40648496
vt 0.40625 0.3125
vt 0.4375 0.3125
vt 0.4375 0.3125
vt 0.4375 0.40648496
vt 0.46875 0.40648496
vt 0.46875 0.40648496
vt 0.46875 0.3125
vt 0.46875 0.3125
vt 0.46875 0.40648496
vt 0.5 0.40648496
vt 0.46875 0.3125
vt 0.5 0.3125
vt 0.53125 0.40648496
vt 0.53125 0.5004699
vt 0.5625 0.5004699
vt 0.5625 0.5004699
vt 0.5625 0.40648496
vt 0.38951457 0.26673543
vt 0.5 0.15
vt 0.34375 0.15625
vt 0.5 0.3125
vt 0.5 0.15
vt 0.38951457 0.26673543
vt 0.61048543 0.26673543
vt 0.5 0.15
vt 0.5 0.3125
vt 0.61048543 0.95423543
vt 0.5 0.8375
vt 0.5 1
vt 0.5 1
vt 0.5 0.8375
vt 0.38951457 0.95423543
vt 0.38951457 0.95423543
vt 0.5 0.8375
vt 0.34375 0.84375
vt 0.34375 0.84375
vt 0.5 0.8375
vt 0.38951457 0.73326457
vt 0.38951457 0.73326457
vt 0.5 0.8375
vt 0.5 0.6875
vt 0.5 0.6875
vt 0.5 0.8375
vt 0.61048543 0.73326457
vt 0.61048543 0.73326457
vt 0.5 0.8375
vt 0.65625 0.84375
vt 0.65625 0.84375
vt 0.5 0.8375
vt 0.61048543 0.95423543
vt 0.375 0.3125
vt 0.375 0.40648496
vt 0.40625 0.40648496
vt 0.40625 0.3125
vt 0.5 0.3125
vt 0.5 0.40648496
vt 0.53125 0.40648496
vt 0.53125 0.3125
vt 0.53125 0.3125
vt 0.53125 0.40648496
vt 0.5625 0.40648496
vt 0.5625 0.3125
vt 0.5625 0.3125
vt 0.5625 0.40648496
vt 0.59375 0.40648496
vt 0.59375 0.3125
vt 0.59375 0.3125
vt 0.59375 0.40648496
vt 0.625 0.40648496
vt 0.625 0.3125
vt 0.375 0.40648496
vt 0.375 0.5004699
vt 0.40625 0.5004699
vt 0.40625 0.40648496
vt 0.40625 0.40648496
vt 0.40625 0.5004699
vt 0.4375 0.5004699
vt 0.4375 0.40648496
vt 0.4375 0.40648496
vt 0.4375 0.5004699
vt 0.46875 0.5004699
vt 0.46875 0.40648496
vt 0.46875 0.40648496
vt 0.46875 0.5004699
vt 0.5 0.5004699
vt 0.5 0.40648496
vt 0.5 0.40648496
vt 0.5 0.5004699
vt 0.53125 0.5004699
vt 0.53125 0.40648496
vt 0.5625 0.40648496
vt 0.5625 0.5004699
vt 0.59375 0.5004699
vt 0.59375 0.40648496
vt 0.59375 0.40648496
vt 0.59375 0.5004699
vt 0.625 0.5004699
vt 0.625 0.40648496
vt 0.375 0.5004699
vt 0.375 0.5944549
vt 0.40625 0.5944549
vt 0.40625 0.5004699
vt 0.40625 0.5004699
vt 0.40625 0.5944549
vt 0.4375 0.5944549
vt 0.4375 0.5004699
vt 0.4375 0.5004699
vt 0.4375 0.5944549
vt 0.46875 0.5944549
vt 0.46875 0.5004699
vt 0.46875 0.5004699
vt 0.46875 0.5944549
vt 0.5 0.5944549
vt 0.5 0.5004699
vt 0.5 0.5004699
vt 0.5 0.5944549
vt 0.53125 0.5944549
vt 0.53125 0.5004699
vt 0.53125 0.5004699
vt 0.53125 0.5944549
vt 0.5625 0.5944549
vt 0.5625 0.5004699
vt 0.5625 0.5004699
vt 0.5625 0.5944549
vt 0.59375 0.5944549
vt 0.59375 0.5004699
vt 0.59375 0.5004699
vt 0.59375 0.5944549
vt 0.625 0.5944549
vt 0.625 0.5004699
vt 0.375 0.5944549
vt 0.375 0.68843985
vt 0.40625 0.68843985
vt 0.40625 0.5944549
vt 0.40625 0.5944549
vt 0.40625 0.68843985
vt 0.4375 0.68843985
vt 0.4375 0.5944549
vt 0.4375 0.5944549
vt 0.4375 0.68843985
vt 0.46875 0.68843985
vt 0.46875 0.5944549
vt 0.46875 0.5944549
vt 0.46875 0.68843985
vt 0.5 0.68843985
vt 0.5 0.5944549
vt 0.5 0.5944549
vt 0.5 0.68843985
vt 0.53125 0.68843985
vt 0.53125 0.5944549
vt 0.53125 0.5944549
vt 0.53125 0.68843985
vt 0.5625 0.68843985
vt 0.5625 0.5944549
vt 0.5625 0.5944549
vt 0.5625 0.68843985
vt 0.59375 0.68843985
vt 0.59375 0.5944549
vt 0.59375 0.5944549
vt 0.59375 0.68843985
vt 0.625 0.68843985
vt 0.625 0.5944549
vt 0.34375 0.15625
vt 0.5 0.15
vt 0.38951457 0.04576458
vt 0.5 1.4901161E-08
vt 0.61048543 0.04576458
vt 0.65625 0.15625
vt 0.61048543 0.26673543
vn -0.66498905 0.42692837 -0.6127983
vn -0.66498905 0.42692834 -0.6127983
vn -0.66498905 0.42692843 -0.6127983
vn -0.66498905 0.42692837 -0.6127983
vn -0.664989 0.42692834 -0.61279833
vn -0.6786768 0.31767574 -0.66217816
vn -0.6786768 0.3176758 -0.66217816
vn -0.67867684 0.31767577 -0.66217816
vn -0.67867684 0.31767577 -0.66217816
vn -0.6786768 0.31767574 -0.66217816
vn -0.80239624 0.50210536 0.32256857
vn -0.8023963 0.5021053 0.32256854
vn -0.8023963 0.5021053 0.3225686
vn -0.80239624 0.50210536 0.32256857
vn -0.80239624 0.50210536 0.32256857
vn 0.343183 -0.3004161 0.88993007
vn 0.34318304 -0.3004161 0.88993007
vn 0.343183 -0.3004161 0.88993007
vn 0.343183 -0.3004161 0.88993007
vn 0.34318304 -0.30041614 0.88993007
vn 0.050359696 -0.9667897 -0.25056234
vn 0.050359704 -0.9667897 -0.2505623
vn 0.0503597 -0.9667897 -0.25056234
vn 0.3005595 -0.9468484 0.114638574
vn 0.30055946 -0.9468484 0.114638574
vn 0.30055946 -0.9468485 0.11463859
vn -0.09486661 -0.99406815 0.053187698
vn -0.094866596 -0.99406815 0.053187706
vn -0.09486661 -0.99406815 0.053187706
vn 0.460739 0.2699103 -0.84549874
vn 0.460739 0.26991028 -0.84549874
vn 0.46073893 0.2699103 -0.84549874
vn -0.26417956 0.29330796 -0.9187924
vn -0.2641796 0.29330793 -0.91879255
vn -0.26417962 0.29330796 -0.91879255
vn -0.7365479 0.32913116 -0.5909059
vn -0.7365479 0.3291311 -0.590906
vn -0.7365479 0.32913116 -0.590906
vn -0.90299696 0.40350997 0.14756763
vn -0.90299696 0.40350989 0.14756763
vn -0.90299696 0.40350997 0.14756763
vn -0.78948647 0.4595139 0.40688837
vn -0.7894864 0.45951396 0.40688846
vn -0.7894864 0.45951384 0.4068884
vn -0.009542984 0.7486433 0.6629044
vn -0.009542984 0.7486432 0.6629044
vn -0.009542984 0.7486433 0.6629044
vn 0.7767326 0.5602258 -0.28780818
vn 0.7767325 0.5602258 -0.28780818
vn 0.7767325 0.5602258 -0.28780818
vn 0.35983646 0.25953546 -0.8961914
vn 0.35983646 0.25953543 -0.8961914
vn 0.35983643 0.25953546 -0.8961914
vn 0.3183155 0.57235515 -0.75570154
vn 0.31831554 0.57235515 -0.7557016
vn 0.3183155 0.5723551 -0.7557016
vn 0.3183155 0.57235515 -0.7557016
vn -0.17784451 0.31223577 0.9332096
vn -0.17784452 0.31223577 0.9332096
vn -0.17784454 0.3122358 0.9332096
vn -0.17784452 0.3122358 0.9332096
vn 0.21439113 0.45460624 0.8645054
vn 0.21439113 0.4546063 0.8645054
vn 0.21439114 0.4546063 0.8645054
vn 0.21439113 0.45460624 0.8645054
vn 0.45051727 0.69017315 0.5662995
vn 0.4505173 0.6901731 0.5662996
vn 0.45051733 0.69017315 0.56629956
vn 0.45051727 0.69017315 0.56629956
vn 0.7877334 0.5694086 -0.23505324
vn 0.7877334 0.56940866 -0.23505324
vn 0.7877334 0.5694086 -0.23505324
vn 0.7877334 0.56940866 -0.23505324
vn 0.4091955 -0.075140774 -0.90934753
vn 0.40919557 -0.075140774 -0.90934753
vn 0.4091955 -0.07514076 -0.90934753
vn 0.4091956 -0.075140774 -0.90934753
vn -0.26178738 -0.052455373 -0.96369904
vn -0.26178738 -0.052455366 -0.96369904
vn -0.26178738 -0.052455366 -0.96369904
vn -0.2617874 -0.052455373 -0.96369904
vn -0.92340785 -0.09343167 -0.37227485
vn -0.92340785 -0.09343167 -0.3722748
vn -0.92340785 -0.09343165 -0.37227485
vn -0.92340785 -0.093431644 -0.3722748
vn -0.85183674 -0.019851562 0.523431
vn -0.85183674 -0.019851562 0.5234311
vn -0.85183674 -0.01985156 0.52343106
vn -0.85183674 -0.019851562 0.52343106
vn -0.39657748 -0.08050257 0.9144647
vn -0.39657748 -0.08050256 0.9144646
vn -0.3965775 -0.080502555 0.9144646
vn -0.39657748 -0.080502555 0.9144646
vn 0.9355582 -0.22761063 0.27004465
vn 0.9355582 -0.22761062 0.27004462
vn 0.9355582 -0.2276106 0.27004462
vn 0.9355582 -0.2276106 0.27004462
vn 0.9576631 -0.017719636 -0.2873453
vn 0.9576631 -0.017719634 -0.28734526
vn 0.9576631 -0.017719636 -0.28734532
vn 0.9576631 -0.017719634 -0.2873453
vn 0.5058711 0.25328597 -0.8245851
vn 0.5058711 0.25328603 -0.8245851
vn 0.5058711 0.25328597 -0.8245851
vn 0.5058711 0.25328597 -0.8245851
vn -0.2831235 0.25095242 -0.92566955
vn -0.28312346 0.25095242 -0.92566955
vn -0.28312346 0.25095245 -0.92566955
vn -0.2831235 0.25095245 -0.92566955
vn -0.85294324 0.33417404 -0.40101826
vn -0.85294324 0.33417404 -0.40101826
vn -0.85294324 0.334174 -0.4010182
vn -0.85294324 0.33417404 -0.40101826
vn -0.744296 0.24418142 0.6216099
vn -0.7442959 0.24418138 0.6216099
vn -0.744296 0.24418142 0.6216099
vn -0.7442959 0.24418138 0.6216099
vn -0.58365536 0.1898535 0.7894948
vn -0.58365536 0.18985349 0.7894949
vn -0.58365536 0.18985349 0.7894949
vn -0.58365536 0.18985349 0.7894949
vn 0.26792422 0.3553345 0.89551884
vn 0.26792425 0.3553345 0.89551884
vn 0.26792425 0.3553345 0.89551884
vn 0.26792425 0.3553345 0.89551884
vn 0.946993 0.2999718 -0.11498353
vn 0.946993 0.2999718 -0.11498351
vn 0.946993 0.2999718 -0.11498352
vn 0.946993 0.2999718 -0.11498352
vn 0.9389385 0.25646248 -0.22939366
vn 0.9389385 0.25646248 -0.22939365
vn 0.9389385 0.25646245 -0.22939362
vn 0.9389385 0.25646248 -0.22939365
vn 0.5860378 0.258231 -0.76803416
vn 0.5860378 0.258231 -0.7680341
vn 0.5860378 0.258231 -0.7680341
vn 0.5860379 0.258231 -0.76803416
vn -0.34537804 0.32747385 -0.8794742
vn -0.34537804 0.32747388 -0.8794742
vn -0.34537804 0.32747388 -0.8794742
vn -0.34537807 0.32747388 -0.8794742
vn -0.8407247 0.2609573 -0.47442937
vn -0.8407247 0.2609573 -0.47442937
vn -0.84072477 0.2609573 -0.4744293
vn -0.84072477 0.26095733 -0.47442937
vn -0.8870318 0.16490932 0.43125337
vn -0.8870318 0.16490932 0.43125337
vn -0.88703185 0.1649093 0.43125334
vn -0.8870318 0.16490932 0.43125337
vn -0.5944098 0.11317244 0.79615885
vn -0.5944098 0.11317245 0.79615885
vn -0.5944099 0.11317245 0.79615885
vn -0.5944098 0.113172434 0.7961589
vn 0.4174839 0.08193413 0.9049828
vn 0.4174839 0.08193413 0.9049828
vn 0.41748393 0.08193414 0.9049828
vn 0.41748393 0.081934124 0.9049828
vn 0.9788643 0.054362558 0.19715296
vn 0.9788643 0.05436255 0.19715293
vn 0.9788643 0.054362558 0.19715294
vn 0.9788643 0.054362558 0.19715291
vn 0.82925653 0.11089661 -0.547755
vn 0.82925653 0.11089662 -0.547755
vn 0.82925653 0.11089661 -0.547755
vn 0.82925653 0.11089663 -0.54775506
vn 0.00015260761 -0.99999225 0.0039528636
vn -3.9298695E-05 -0.9999988 0.001539408
vn 0.003564151 -0.99999356 0.00054132583
vn -3.92987E-05 -0.9999988 0.0015394081
vn -3.9298695E-05 -0.9999988 0.001539408
vn -0.00032328052 -0.9999982 -0.0019051535
vn -0.00032328046 -0.9999982 -0.0019051539
g tree_pear_COL_0
f 3/3/3 2/2/2 1/1/1
f 5/5/5 3/3/3 4/4/4
f 8/8/8 7/7/7 6/6/6
f 10/10/10 9/9/9 6/6/6
f 13/13/13 12/12/12 11/11/11
f 15/15/15 13/13/13 14/14/14
f 18/18/18 17/17/17 16/16/16
f 20/20/20 19/19/19 16/16/16
f 23/23/23 22/22/22 21/21/21
f 26/26/26 25/25/25 24/24/24
f 29/29/29 28/28/28 27/27/27
f 32/32/32 31/31/31 30/30/30
f 35/35/35 34/34/34 33/33/33
f 38/38/38 37/37/37 36/36/36
f 41/41/41 40/40/40 39/39/39
f 44/44/44 43/43/43 42/42/42
f 47/47/47 46/46/46 45/45/45
f 50/50/50 49/49/49 48/48/48
f 53/53/53 52/52/52 51/51/51
f 56/56/56 55/55/55 54/54/54
f 57/57/57 56/56/56 54/54/54
f 60/60/60 59/59/59 58/58/58
f 61/61/61 60/60/60 58/58/58
f 64/64/64 63/63/63 62/62/62
f 65/65/65 64/64/64 62/62/62
f 68/68/68 67/67/67 66/66/66
f 69/69/69 68/68/68 66/66/66
f 72/72/72 71/71/71 70/70/70
f 73/73/73 72/72/72 70/70/70
f 76/76/76 75/75/75 74/74/74
f 77/77/77 76/76/76 74/74/74
f 80/80/80 79/79/79 78/78/78
f 81/81/81 80/80/80 78/78/78
f 84/84/84 83/83/83 82/82/82
f 85/85/85 84/84/84 82/82/82
f 88/88/88 87/87/87 86/86/86
f 89/89/89 88/88/88 86/86/86
f 92/92/92 91/91/91 90/90/90
f 93/93/93 92/92/92 90/90/90
f 96/96/96 95/95/95 94/94/94
f 97/97/97 96/96/96 94/94/94
f 100/100/100 99/99/99 98/98/98
f 101/101/101 100/100/100 98/98/98
f 104/104/104 103/103/103 102/102/102
f 105/105/105 104/104/104 102/102/102
f 108/108/108 107/107/107 106/106/106
f 109/109/109 108/108/108 106/106/106
f 112/112/112 111/111/111 110/110/110
f 113/113/113 112/112/112 110/110/110
f 116/116/116 115/115/115 114/114/114
f 117/117/117 116/116/116 114/114/114
f 120/120/120 119/119/119 118/118/118
f 121/121/121 120/120/120 118/118/118
f 124/124/124 123/123/123 122/122/122
f 125/125/125 124/124/124 122/122/122
f 128/128/128 127/127/127 126/126/126
f 129/129/129 128/128/128 126/126/126
f 132/132/132 131/131/131 130/130/130
f 133/133/133 132/132/132 130/130/130
f 136/136/136 135/135/135 134/134/134
f 137/137/137 136/136/136 134/134/134
f 140/140/140 139/139/139 138/138/138
f 141/141/141 140/140/140 138/138/138
f 144/144/144 143/143/143 142/142/142
f 145/145/145 144/144/144 142/142/142
f 148/148/148 147/147/147 146/146/146
f 149/149/149 148/148/148 146/146/146
f 152/152/152 151/151/151 150/150/150
f 153/153/153 152/152/152 150/150/150
f 156/156/156 155/155/155 154/154/154
f 157/157/157 156/156/156 154/154/154
f 160/160/160 159/159/159 158/158/158
f 161/161/161 160/160/160 158/158/158
f 164/164/164 163/163/163 162/162/162
f 165/165/165 164/164/164 162/162/162
f 168/168/168 167/167/167 166/166/166
f 169/169/169 167/167/167 168/168/168
f 170/170/170 167/167/167 169/169/169
f 171/171/171 167/167/167 170/170/170
f 172/172/172 167/167/167 171/171/171
