g tree_cube_COL
v 0.69907635 4.5016665 2.1546018
v 0.06983234 4.5016665 2.177946
v 0.34943083 5.3464026 0.06672739
v 0.63128227 1.5908409 0.20315956
v 0.34943083 5.3464026 0.06672739
v 0.0020381545 1.5908409 0.22650382
v 0.59953487 3.1303625 0.4209162
v 0.34943083 5.3464026 0.06672739
v 1.7098391 4.5477457 0.2700095
v 0.59953487 3.1303625 0.4209162
v 1.6918902 3.571057 0.27000946
v 0.34943083 5.3464026 0.06672739
v 1.6578759 4.5477457 -0.35751972
v 1.7098391 4.5477457 0.2700095
v 0.5475717 3.1303625 -0.20661299
v 0.34943083 5.3464026 0.06672739
v 0.59953487 3.1303625 0.4209162
v -1.0897511 4.5477457 -1.0281395
v -0.67236215 4.5477457 -1.4996046
v 0.34943083 5.3464026 0.06672739
v 0.27943438 3.1303625 0.18400376
v 0.34943083 5.3464026 0.06672739
v 0.6968235 3.1303625 -0.28746143
v -1.2180595 -0.029939575 0.23154065
v -0.41840538 0.76584524 -0.0004152768
v -0.30185863 0.82365066 0.37166312
v -1.2180595 -0.029939575 0.23154065
v -0.35066885 0.0025559997 0.3355983
v -0.11373777 -0.0016888428 0.47685692
v 0.09090809 0.93201816 0.66813886
v 0.6450732 0.9858569 0.5396434
v 0.6450732 0.9858569 0.5396434
v 0.53869325 -0.02106018 1.178318
v -0.30185863 0.82365066 0.37166312
v -0.22620885 1.5178012 0.31835565
v 0.120509826 1.2182903 0.5888026
v 0.120509826 1.2182903 0.5888026
v 0.09090809 0.93201816 0.66813886
v -0.23698774 1.5702215 -0.3335254
v -0.26980454 3.3329582 -0.37971023
v -0.22629087 1.8752531 2.861023E-09
v -0.22629087 1.8752531 2.861023E-09
v -0.30263302 1.3584774 7.3984268E-09
v -0.22620885 1.5178012 0.31835565
v -0.15379892 1.9514903 0.21644935
v 0.09811624 2.587957 0.47938904
v -0.22620885 1.5178012 0.31835565
v 0.09811624 2.587957 0.47938904
v 0.120509826 1.2182903 0.5888026
v 0.635333 1.867897 0.49271774
v 0.53974324 3.1632953 0.4185854
v 1.0815688 3.5327032 0
v 1.0815688 3.5327032 0
v 0.8234886 1.8795686 -1.4305115E-09
v -1.2180595 -0.029939575 0.23154065
v -0.40109792 0.015734557 0.33187354
v -0.6042296 -0.013294373 -0.28528354
v -0.35066885 0.0025559997 0.3355983
v -0.40109792 0.015734557 0.33187354
v -1.2180595 -0.029939575 0.23154065
v -0.11373777 -0.0016888428 0.47685692
v -0.40109792 0.015734557 0.33187354
v -0.35066885 0.0025559997 0.3355983
v 0.53869325 -0.02106018 1.178318
v -0.40109792 0.015734557 0.33187354
v -0.11373777 -0.0016888428 0.47685692
v 0.6060269 3.2926636 -0.46999004
v 0.17068155 3.629745 0
v 0.16295297 3.5037787 -0.7961768
v 0.16295297 3.5037787 -0.7961768
v 0.17068155 3.629745 0
v -0.26980454 3.3329582 -0.37971023
v -0.26980454 3.3329582 -0.37971023
v 0.17068155 3.629745 0
v -0.22629087 1.8752531 2.861023E-09
v -0.22629087 1.8752531 2.861023E-09
v 0.17068155 3.629745 0
v -0.15379892 1.9514903 0.21644935
v -0.15379892 1.9514903 0.21644935
v 0.17068155 3.629745 0
v 0.09811624 2.587957 0.47938904
v 0.09811624 2.587957 0.47938904
v 0.17068155 3.629745 0
v 0.53974324 3.1632953 0.4185854
v 0.53974324 3.1632953 0.4185854
v 0.17068155 3.629745 0
v 1.0815688 3.5327032 0
v 1.0815688 3.5327032 0
v 0.17068155 3.629745 0
v 0.6060269 3.2926636 -0.46999004
v 0.61752516 2.1789796 1.7297015
v 0.69907635 4.5016665 2.1546018
v 0.34943083 5.3464026 0.06672739
v 0.63128227 1.5908409 0.20315956
v 0.06983234 4.5016665 2.177946
v -0.011718903 2.1789796 1.7530456
v 0.0020381545 1.5908409 0.22650382
v 0.34943083 5.3464026 0.06672739
v -0.011718903 2.1789796 1.7530456
v 0.61752516 2.1789796 1.7297015
v 0.63128227 1.5908409 0.20315956
v 0.0020381545 1.5908409 0.22650382
v -0.011718903 2.1789796 1.7530456
v 0.06983234 4.5016665 2.177946
v 0.69907635 4.5016665 2.1546018
v 0.61752516 2.1789796 1.7297015
v 0.34943083 5.3464026 0.06672739
v 0.5475717 3.1303625 -0.20661299
v 1.639927 3.571057 -0.35751972
v 1.6578759 4.5477457 -0.35751972
v 0.5475717 3.1303625 -0.20661299
v 0.59953487 3.1303625 0.4209162
v 1.6918902 3.571057 0.27000946
v 1.639927 3.571057 -0.35751972
v 1.6918902 3.571057 0.27000946
v 1.7098391 4.5477457 0.2700095
v 1.6578759 4.5477457 -0.35751972
v 1.639927 3.571057 -0.35751972
v -0.97158927 3.2019231 -1.0281395
v -1.0897511 4.5477457 -1.0281395
v 0.34943083 5.3464026 0.06672739
v 0.27943438 3.1303625 0.18400376
v -0.67236215 4.5477457 -1.4996046
v -0.5542001 3.2019231 -1.4996046
v 0.6968235 3.1303625 -0.28746143
v 0.34943083 5.3464026 0.06672739
v -0.5542001 3.2019231 -1.4996046
v -0.97158927 3.2019231 -1.0281395
v 0.27943438 3.1303625 0.18400376
v 0.6968235 3.1303625 -0.28746143
v -0.5542001 3.2019231 -1.4996046
v -0.67236215 4.5477457 -1.4996046
v -1.0897511 4.5477457 -1.0281395
v -0.97158927 3.2019231 -1.0281395
v 0.7281297 -0.081069484 -0.6711478
v 0.6133459 0.9582546 -0.51491964
v 0.09327551 0.93789047 -0.687253
v -0.15521845 -0.087402344 -1.0277742
v -0.15521845 -0.087402344 -1.0277742
v 0.09327551 0.93789047 -0.687253
v -0.3555806 0.8989008 -0.44032252
v -0.6042296 -0.013294373 -0.28528354
v -0.6042296 -0.013294373 -0.28528354
v -0.3555806 0.8989008 -0.44032252
v -0.41840538 0.76584524 -0.0004152768
v -1.2180595 -0.029939575 0.23154065
v -0.35066885 0.0025559997 0.3355983
v -0.30185863 0.82365066 0.37166312
v 0.09090809 0.93201816 0.66813886
v -0.11373777 -0.0016888428 0.47685692
v 0.53869325 -0.02106018 1.178318
v 0.6450732 0.9858569 0.5396434
v 0.8873802 0.98383313 -0.00063577085
v 1.164718 -0.10582352 0.20622522
v 1.164718 -0.10582352 0.20622522
v 0.8873802 0.98383313 -0.00063577085
v 0.6133459 0.9582546 -0.51491964
v 0.7281297 -0.081069484 -0.6711478
v 0.6133459 0.9582546 -0.51491964
v 0.61092544 1.8674878 -0.47378907
v 0.12236616 1.7851852 -0.59787244
v 0.09327551 0.93789047 -0.687253
v 0.09327551 0.93789047 -0.687253
v 0.12236616 1.7851852 -0.59787244
v -0.23698774 1.5702215 -0.3335254
v -0.3555806 0.8989008 -0.44032252
v -0.3555806 0.8989008 -0.44032252
v -0.23698774 1.5702215 -0.3335254
v -0.30263302 1.3584774 7.3984268E-09
v -0.41840538 0.76584524 -0.0004152768
v -0.41840538 0.76584524 -0.0004152768
v -0.22620885 1.5178012 0.31835565
v -0.30185863 0.82365066 0.37166312
v -0.30263302 1.3584774 7.3984268E-09
v -0.15379892 1.9514903 0.21644935
v -0.22629087 1.8752531 2.861023E-09
v 0.09090809 0.93201816 0.66813886
v 0.120509826 1.2182903 0.5888026
v 0.635333 1.867897 0.49271774
v 0.6450732 0.9858569 0.5396434
v 0.6450732 0.9858569 0.5396434
v 0.635333 1.867897 0.49271774
v 0.8234886 1.8795686 -1.4305115E-09
v 0.8873802 0.98383313 -0.00063577085
v 0.8873802 0.98383313 -0.00063577085
v 0.8234886 1.8795686 -1.4305115E-09
v 0.61092544 1.8674878 -0.47378907
v 0.6133459 0.9582546 -0.51491964
v 0.61092544 1.8674878 -0.47378907
v 0.6060269 3.2926636 -0.46999004
v 0.16295297 3.5037787 -0.7961768
v 0.12236616 1.7851852 -0.59787244
v 0.12236616 1.7851852 -0.59787244
v 0.16295297 3.5037787 -0.7961768
v -0.26980454 3.3329582 -0.37971023
v -0.23698774 1.5702215 -0.3335254
v 0.120509826 1.2182903 0.5888026
v 0.09811624 2.587957 0.47938904
v 0.53974324 3.1632953 0.4185854
v 0.635333 1.867897 0.49271774
v 0.8234886 1.8795686 -1.4305115E-09
v 1.0815688 3.5327032 0
v 0.6060269 3.2926636 -0.46999004
v 0.61092544 1.8674878 -0.47378907
v -0.15521845 -0.087402344 -1.0277742
v -0.40109792 0.015734557 0.33187354
v 0.7281297 -0.081069484 -0.6711478
v -0.6042296 -0.013294373 -0.28528354
v 1.164718 -0.10582352 0.20622522
v -0.40109792 0.015734557 0.33187354
v 0.53869325 -0.02106018 1.178318
v 0.7281297 -0.081069484 -0.6711478
vt 0.375 0.25
vt 0.375 0.5
vt 0.7083333 0.33333334
vt 0.625 0
vt 0.7083333 0.33333334
vt 0.875 0
vt 0.375 0
vt 0.29166666 0.33333334
vt 0.625 0.25
vt 0.375 0
vt 0.625 0
vt 0.29166666 0.33333334
vt 0.625 0.5
vt 0.625 0.25
vt 0.125 0
vt 0.29166666 0.33333334
vt 0.375 0
vt 0.375 0.25
vt 0.375 0.5
vt 0.7083333 0.33333334
vt 0.625 0
vt 0.7083333 0.33333334
vt 0.875 0
vt 0.46875 0.3125
vt 0.46875 0.43781328
vt 0.5 0.43781328
vt 0.46875 0.3125
vt 0.5 0.3125
vt 0.53125 0.3125
vt 0.53125 0.43781328
vt 0.5625 0.43781328
vt 0.5625 0.43781328
vt 0.5625 0.3125
vt 0.5 0.43781328
vt 0.5 0.56312656
vt 0.53125 0.56312656
vt 0.53125 0.56312656
vt 0.53125 0.43781328
vt 0.4375 0.56312656
vt 0.4375 0.68843985
vt 0.46875 0.68843985
vt 0.46875 0.68843985
vt 0.46875 0.56312656
vt 0.5 0.56312656
vt 0.5 0.68843985
vt 0.53125 0.68843985
vt 0.5 0.56312656
vt 0.53125 0.68843985
vt 0.53125 0.56312656
vt 0.5625 0.56312656
vt 0.5625 0.68843985
vt 0.59375 0.68843985
vt 0.59375 0.68843985
vt 0.59375 0.56312656
vt 0.34375 0.15625
vt 0.5 0.15
vt 0.38951457 0.04576458
vt 0.38951457 0.26673543
vt 0.5 0.15
vt 0.34375 0.15625
vt 0.5 0.3125
vt 0.5 0.15
vt 0.38951457 0.26673543
vt 0.61048543 0.26673543
vt 0.5 0.15
vt 0.5 0.3125
vt 0.61048543 0.95423543
vt 0.5 0.8375
vt 0.5 1
vt 0.5 1
vt 0.5 0.8375
vt 0.38951457 0.95423543
vt 0.38951457 0.95423543
vt 0.5 0.8375
vt 0.34375 0.84375
vt 0.34375 0.84375
vt 0.5 0.8375
vt 0.38951457 0.73326457
vt 0.38951457 0.73326457
vt 0.5 0.8375
vt 0.5 0.6875
vt 0.5 0.6875
vt 0.5 0.8375
vt 0.61048543 0.73326457
vt 0.61048543 0.73326457
vt 0.5 0.8375
vt 0.65625 0.84375
vt 0.65625 0.84375
vt 0.5 0.8375
vt 0.61048543 0.95423543
vt 0.375 0
vt 0.375 0.25
vt 0.7083333 0.33333334
vt 0.625 0
vt 0.375 0.5
vt 0.375 0.75
vt 0.625 0.75
vt 0.7083333 0.33333334
vt 0.375 0.75
vt 0.375 1
vt 0.625 1
vt 0.625 0.75
vt 0.125 0
vt 0.125 0.25
vt 0.375 0.25
vt 0.375 0
vt 0.29166666 0.33333334
vt 0.375 0.75
vt 0.625 0.75
vt 0.625 0.5
vt 0.375 0.75
vt 0.375 1
vt 0.625 1
vt 0.625 0.75
vt 0.625 0
vt 0.625 0.25
vt 0.875 0.25
vt 0.875 0
vt 0.375 0
vt 0.375 0.25
vt 0.7083333 0.33333334
vt 0.625 0
vt 0.375 0.5
vt 0.375 0.75
vt 0.625 0.75
vt 0.7083333 0.33333334
vt 0.375 0.75
vt 0.375 1
vt 0.625 1
vt 0.625 0.75
vt 0.125 0
vt 0.125 0.25
vt 0.375 0.25
vt 0.375 0
vt 0.375 0.3125
vt 0.375 0.43781328
vt 0.40625 0.43781328
vt 0.40625 0.3125
vt 0.40625 0.3125
vt 0.40625 0.43781328
vt 0.4375 0.43781328
vt 0.4375 0.3125
vt 0.4375 0.3125
vt 0.4375 0.43781328
vt 0.46875 0.43781328
vt 0.46875 0.3125
vt 0.5 0.3125
vt 0.5 0.43781328
vt 0.53125 0.43781328
vt 0.53125 0.3125
vt 0.5625 0.3125
vt 0.5625 0.43781328
vt 0.59375 0.43781328
vt 0.59375 0.3125
vt 0.59375 0.3125
vt 0.59375 0.43781328
vt 0.625 0.43781328
vt 0.625 0.3125
vt 0.375 0.43781328
vt 0.375 0.56312656
vt 0.40625 0.56312656
vt 0.40625 0.43781328
vt 0.40625 0.43781328
vt 0.40625 0.56312656
vt 0.4375 0.56312656
vt 0.4375 0.43781328
vt 0.4375 0.43781328
vt 0.4375 0.56312656
vt 0.46875 0.56312656
vt 0.46875 0.43781328
vt 0.46875 0.43781328
vt 0.5 0.56312656
vt 0.5 0.43781328
vt 0.46875 0.56312656
vt 0.5 0.68843985
vt 0.46875 0.68843985
vt 0.53125 0.43781328
vt 0.53125 0.56312656
vt 0.5625 0.56312656
vt 0.5625 0.43781328
vt 0.5625 0.43781328
vt 0.5625 0.56312656
vt 0.59375 0.56312656
vt 0.59375 0.43781328
vt 0.59375 0.43781328
vt 0.59375 0.56312656
vt 0.625 0.56312656
vt 0.625 0.43781328
vt 0.375 0.56312656
vt 0.375 0.68843985
vt 0.40625 0.68843985
vt 0.40625 0.56312656
vt 0.40625 0.56312656
vt 0.40625 0.68843985
vt 0.4375 0.68843985
vt 0.4375 0.56312656
vt 0.53125 0.56312656
vt 0.53125 0.68843985
vt 0.5625 0.68843985
vt 0.5625 0.56312656
vt 0.59375 0.56312656
vt 0.59375 0.68843985
vt 0.625 0.68843985
vt 0.625 0.56312656
vt 0.5 1.4901161E-08
vt 0.5 0.15
vt 0.61048543 0.04576458
vt 0.38951457 0.04576458
vt 0.65625 0.15625
vt 0.5 0.15
vt 0.61048543 0.26673543
vt 0.61048543 0.04576458
vn 0.013838944 0.9277167 0.37302858
vn 0.013838944 0.9277167 0.37302852
vn 0.013838944 0.9277167 0.3730285
vn -0.037045095 -0.039055564 -0.9985501
vn -0.037045103 -0.03905557 -0.9985501
vn -0.037045095 -0.039055564 -0.9985501
vn -0.0051870723 0.10988554 0.9939307
vn -0.0051870714 0.10988554 0.9939307
vn -0.0051870723 0.109885566 0.9939307
vn -0.0051870723 0.10988554 0.9939307
vn -0.005187073 0.109885566 0.9939307
vn 0.51051176 0.8588309 -0.042274274
vn 0.51051176 0.85883105 -0.042274274
vn 0.5105117 0.8588309 -0.042274278
vn -0.99171305 -0.09880035 0.08211982
vn -0.99171305 -0.09880036 0.08211982
vn -0.99171305 -0.09880035 0.08211982
vn -0.30319864 0.91434133 -0.26842228
vn -0.3031986 0.91434145 -0.26842228
vn -0.3031986 0.91434133 -0.26842225
vn 0.74869245 0.011429003 0.6628189
vn 0.7486924 0.011429003 0.66281897
vn 0.74869245 0.011429003 0.66281897
vn -0.43555334 0.33002278 0.8374833
vn -0.43555337 0.33002278 0.8374832
vn -0.43555337 0.33002278 0.8374832
vn -0.43555334 0.33002278 0.8374833
vn -0.43555334 0.33002278 0.8374833
vn -0.41957235 0.26723745 0.8674925
vn -0.41957235 0.26723748 0.8674925
vn -0.41957235 0.2672375 0.8674925
vn -0.41957235 0.2672375 0.8674925
vn -0.41957235 0.26723748 0.8674925
vn -0.57152253 0.16996631 0.802791
vn -0.57152253 0.16996631 0.802791
vn -0.57152253 0.16996631 0.802791
vn -0.57152253 0.16996631 0.802791
vn -0.57152253 0.16996633 0.802791
vn -0.9997093 0.019379128 0.014339269
vn -0.9997093 0.019379128 0.014339269
vn -0.9997093 0.019379128 0.014339269
vn -0.9997093 0.019379128 0.014339269
vn -0.9997093 0.019379128 0.01433927
vn -0.6933552 0.10280702 0.71322453
vn -0.6933553 0.10280702 0.71322453
vn -0.6933553 0.10280702 0.71322453
vn -0.6933552 0.10280702 0.71322453
vn -0.6933553 0.10280702 0.71322453
vn -0.6933552 0.10280703 0.7132246
vn 0.78580993 -0.027771225 0.6178443
vn 0.78580993 -0.027771229 0.6178443
vn 0.78581 -0.027771227 0.6178443
vn 0.78581 -0.027771227 0.6178443
vn 0.78580993 -0.027771229 0.61784434
vn 0.05214813 -0.998195 0.029787546
vn 0.052148126 -0.998195 0.029787548
vn 0.05214813 -0.998195 0.029787546
vn 0.1121381 0.15153837 -0.98206985
vn 0.112138115 0.15153837 -0.98206985
vn 0.112138085 0.15153837 -0.98206985
vn 0.25892803 0.8755014 -0.4079872
vn 0.25892797 0.8755014 -0.40798718
vn 0.25892797 0.8755014 -0.40798715
vn 0.08752488 0.994701 -0.053937748
vn 0.08752487 0.994701 -0.053937744
vn 0.08752487 0.994701 -0.05393775
vn 0.5077321 0.8501565 -0.1394351
vn 0.5077321 0.8501564 -0.13943511
vn 0.5077321 0.8501564 -0.13943511
vn -0.47220546 0.87135476 -0.13327712
vn -0.47220555 0.87135476 -0.13327713
vn -0.47220546 0.87135476 -0.13327712
vn -0.70396423 0.15927936 0.6921449
vn -0.70396423 0.15927935 0.69214475
vn -0.70396423 0.15927936 0.69214475
vn -0.9464625 0.2141472 0.24155684
vn -0.9464625 0.2141472 0.24155684
vn -0.9464625 0.2141472 0.24155684
vn -0.91370505 0.2206706 0.34124434
vn -0.91370493 0.2206706 0.34124437
vn -0.91370505 0.2206706 0.34124437
vn -0.41420582 0.40413162 0.81554353
vn -0.41420576 0.40413162 0.8155434
vn -0.41420576 0.40413165 0.81554353
vn 0.07436053 0.69798756 0.7122386
vn 0.07436053 0.69798756 0.7122386
vn 0.07436052 0.69798756 0.7122386
vn 0.09023494 0.84699327 -0.5238892
vn 0.09023492 0.84699327 -0.5238892
vn 0.09023494 0.84699327 -0.52388924
vn 0.99526465 0.03706219 -0.089858964
vn 0.99526465 0.03706219 -0.08985899
vn 0.99526465 0.0370622 -0.08985899
vn 0.99526465 0.037062194 -0.08985899
vn -0.9944735 0.073452346 -0.07501503
vn -0.9944735 0.07345234 -0.07501502
vn -0.9944735 0.07345235 -0.07501503
vn -0.9944735 0.07345235 -0.07501503
vn 0.013340342 -0.9330158 0.35958815
vn 0.013340343 -0.9330158 0.35958815
vn 0.013340343 -0.9330158 0.35958815
vn 0.013340343 -0.9330158 0.35958815
vn 0.03646038 -0.18106754 0.98279446
vn 0.036460377 -0.18106754 0.98279446
vn 0.03646038 -0.18106754 0.98279446
vn 0.036460377 -0.18106754 0.98279446
vn -0.2224112 0.07069681 -0.97238636
vn -0.2224112 0.07069679 -0.97238636
vn -0.22241119 0.0706968 -0.97238636
vn -0.2224112 0.07069681 -0.97238636
vn 0.3703133 -0.9284006 -0.030664334
vn 0.3703133 -0.9284007 -0.030664334
vn 0.3703133 -0.9284006 -0.030664334
vn 0.3703133 -0.9284007 -0.030664334
vn 0.99642205 -0.018311465 -0.08250974
vn 0.99642205 -0.018311465 -0.08250975
vn 0.99642205 -0.018311465 -0.08250975
vn 0.99642205 -0.018311465 -0.08250975
vn -0.65339065 0.016084222 0.75685006
vn -0.65339065 0.016084222 0.75685
vn -0.65339065 0.016084222 0.75685
vn -0.65339077 0.016084222 0.75685
vn 0.7426806 0.16169113 -0.64983183
vn 0.7426806 0.16169113 -0.64983183
vn 0.7426806 0.16169113 -0.64983195
vn 0.7426806 0.16169113 -0.64983195
vn -0.03076421 -0.9991555 -0.02723563
vn -0.030764207 -0.9991555 -0.02723563
vn -0.03076421 -0.9991555 -0.027235633
vn -0.030764207 -0.9991555 -0.02723563
vn -0.74712867 -0.06559714 -0.66143465
vn -0.74712867 -0.06559713 -0.66143465
vn -0.74712867 -0.06559714 -0.66143465
vn -0.74712867 -0.06559714 -0.6614347
vn 0.34233713 0.19877586 -0.91831005
vn 0.34233716 0.19877586 -0.91831005
vn 0.34233716 0.19877586 -0.91831005
vn 0.34233716 0.19877586 -0.91831005
vn -0.7134449 0.24587987 -0.65615517
vn -0.71344495 0.24587983 -0.65615505
vn -0.71344495 0.24587983 -0.65615505
vn -0.7134449 0.24587983 -0.65615505
vn -0.7850363 0.3691138 -0.49746653
vn -0.78503627 0.36911383 -0.49746653
vn -0.78503627 0.36911383 -0.49746653
vn -0.78503627 0.36911386 -0.49746653
vn -0.5678717 -0.024572069 0.8227502
vn -0.5678717 -0.024572069 0.8227502
vn -0.5678717 -0.024572067 0.8227502
vn -0.56787163 -0.024572069 0.8227503
vn 0.8441185 0.2583102 0.46982953
vn 0.8441185 0.25831017 0.46982947
vn 0.8441185 0.25831017 0.46982947
vn 0.8441185 0.2583102 0.46982953
vn 0.8802994 0.15144332 -0.44959742
vn 0.8802994 0.15144332 -0.44959742
vn 0.8802995 0.15144333 -0.44959745
vn 0.8802994 0.1514433 -0.44959742
vn 0.27503017 0.067085244 -0.9590922
vn 0.27503017 0.06708525 -0.9590922
vn 0.27503017 0.06708525 -0.9590922
vn 0.2750302 0.06708525 -0.9590922
vn -0.56307703 0.15950768 -0.81086475
vn -0.56307703 0.15950768 -0.81086475
vn -0.56307703 0.15950769 -0.81086475
vn -0.56307703 0.15950768 -0.81086475
vn -0.9789716 0.18819976 -0.07871051
vn -0.9789716 0.18819974 -0.07871051
vn -0.9789716 0.18819976 -0.078710504
vn -0.9789716 0.18819976 -0.078710504
vn -0.9632281 0.1523861 0.22129199
vn -0.9632281 0.15238608 0.22129197
vn -0.9632281 0.15238611 0.22129199
vn -0.9632281 0.15238608 0.22129197
vn -0.96597177 0.17189975 0.19325897
vn -0.96597177 0.17189977 0.19325899
vn 0.13841876 0.10408588 0.98488903
vn 0.13841876 0.104085885 0.98488903
vn 0.13841876 0.10408588 0.98488903
vn 0.13841878 0.10408588 0.98488903
vn 0.9218294 0.0481941 0.38458782
vn 0.9218294 0.048194107 0.3845879
vn 0.9218294 0.048194103 0.38458788
vn 0.9218294 0.048194095 0.38458782
vn 0.8956242 0.043148257 -0.44271377
vn 0.8956242 0.043148253 -0.44271365
vn 0.8956242 0.043148253 -0.44271374
vn 0.8956242 0.043148257 -0.44271374
vn 0.42754114 -0.060657747 -0.9019586
vn 0.42754117 -0.060657747 -0.9019586
vn 0.42754117 -0.060657736 -0.9019586
vn 0.42754117 -0.060657747 -0.9019586
vn -0.63604397 -0.052646298 -0.76985484
vn -0.63604397 -0.052646298 -0.76985484
vn -0.6360439 -0.0526463 -0.7698549
vn -0.63604397 -0.05264629 -0.76985484
vn 0.071390815 0.07167824 0.9948697
vn 0.07139081 0.071678236 0.9948697
vn 0.07139082 0.07167825 0.9948697
vn 0.07139082 0.07167825 0.9948697
vn 0.81460446 -0.06628763 -0.5762164
vn 0.8146046 -0.06628764 -0.57621646
vn 0.81460446 -0.06628763 -0.5762164
vn 0.81460446 -0.06628764 -0.57621646
vn -0.021797959 -0.99718803 0.07170034
vn -0.021797955 -0.99718803 0.07170034
vn -0.021797953 -0.99718803 0.07170034
vn -0.05629925 -0.9962702 0.06539149
vn -0.07422197 -0.9964753 0.039090693
vn -0.07422197 -0.9964753 0.039090697
vn -0.07422197 -0.9964753 0.0390907
vn -0.07659905 -0.9970119 0.009986838
g tree_cube_COL_0
f 3/3/3 2/2/2 1/1/1
f 6/6/6 5/5/5 4/4/4
f 9/9/9 8/8/8 7/7/7
f 11/11/11 9/9/9 10/10/10
f 14/14/14 13/13/13 12/12/12
f 17/17/17 16/16/16 15/15/15
f 20/20/20 19/19/19 18/18/18
f 23/23/23 22/22/22 21/21/21
f 26/26/26 25/25/25 24/24/24
f 28/28/28 26/26/26 27/27/27
f 31/31/31 30/30/30 29/29/29
f 33/33/33 32/32/32 29/29/29
f 36/36/36 35/35/35 34/34/34
f 38/38/38 37/37/37 34/34/34
f 41/41/41 40/40/40 39/39/39
f 43/43/43 42/42/42 39/39/39
f 46/46/46 45/45/45 44/44/44
f 49/49/49 48/48/48 47/47/47
f 52/52/52 51/51/51 50/50/50
f 54/54/54 53/53/53 50/50/50
f 57/57/57 56/56/56 55/55/55
f 60/60/60 59/59/59 58/58/58
f 63/63/63 62/62/62 61/61/61
f 66/66/66 65/65/65 64/64/64
f 69/69/69 68/68/68 67/67/67
f 72/72/72 71/71/71 70/70/70
f 75/75/75 74/74/74 73/73/73
f 78/78/78 77/77/77 76/76/76
f 81/81/81 80/80/80 79/79/79
f 84/84/84 83/83/83 82/82/82
f 87/87/87 86/86/86 85/85/85
f 90/90/90 89/89/89 88/88/88
f 93/93/93 92/92/92 91/91/91
f 94/94/94 93/93/93 91/91/91
f 97/97/97 96/96/96 95/95/95
f 98/98/98 97/97/97 95/95/95
f 101/101/101 100/100/100 99/99/99
f 102/102/102 101/101/101 99/99/99
f 105/105/105 104/104/104 103/103/103
f 106/106/106 105/105/105 103/103/103
f 109/109/109 108/108/108 107/107/107
f 110/110/110 109/109/109 107/107/107
f 113/113/113 112/112/112 111/111/111
f 114/114/114 113/113/113 111/111/111
f 117/117/117 116/116/116 115/115/115
f 118/118/118 117/117/117 115/115/115
f 121/121/121 120/120/120 119/119/119
f 122/122/122 121/121/121 119/119/119
f 125/125/125 124/124/124 123/123/123
f 126/126/126 125/125/125 123/123/123
f 129/129/129 128/128/128 127/127/127
f 130/130/130 129/129/129 127/127/127
f 133/133/133 132/132/132 131/131/131
f 134/134/134 133/133/133 131/131/131
f 137/137/137 136/136/136 135/135/135
f 138/138/138 137/137/137 135/135/135
f 141/141/141 140/140/140 139/139/139
f 142/142/142 141/141/141 139/139/139
f 145/145/145 144/144/144 143/143/143
f 146/146/146 145/145/145 143/143/143
f 149/149/149 148/148/148 147/147/147
f 150/150/150 149/149/149 147/147/147
f 153/153/153 152/152/152 151/151/151
f 154/154/154 153/153/153 151/151/151
f 157/157/157 156/156/156 155/155/155
f 158/158/158 157/157/157 155/155/155
f 161/161/161 160/160/160 159/159/159
f 162/162/162 161/161/161 159/159/159
f 165/165/165 164/164/164 163/163/163
f 166/166/166 165/165/165 163/163/163
f 169/169/169 168/168/168 167/167/167
f 170/170/170 169/169/169 167/167/167
f 173/173/173 172/172/172 171/171/171
f 172/172/172 174/174/174 171/171/171
f 172/172/172 175/175/175 174/174/174
f 175/175/175 176/176/176 174/174/174
f 179/179/179 178/178/178 177/177/177
f 180/180/180 179/179/179 177/177/177
f 183/183/183 182/182/182 181/181/181
f 184/184/184 183/183/183 181/181/181
f 187/187/187 186/186/186 185/185/185
f 188/188/188 187/187/187 185/185/185
f 191/191/191 190/190/190 189/189/189
f 192/192/192 191/191/191 189/189/189
f 195/195/195 194/194/194 193/193/193
f 196/196/196 195/195/195 193/193/193
f 199/199/199 198/198/198 197/197/197
f 200/200/200 199/199/199 197/197/197
f 203/203/203 202/202/202 201/201/201
f 204/204/204 203/203/203 201/201/201
f 207/207/207 206/206/206 205/205/205
f 205/205/205 206/206/206 208/208/208
f 211/211/211 210/210/210 209/209/209
f 209/209/209 210/210/210 212/212/212
