g valley_tree05_LOD2
v -0.908694 0 -1.281592E-07
v 2.4586916E-07 0 -0.78695226
v -0 28.354277 -1.3748981E-08
v -1.3411045E-07 0 0.78695226
v -0 28.354277 -1.3748981E-08
v 0.908694 0 7.246787E-09
v -0 28.354277 -1.3748981E-08
v 2.4586916E-07 0 -0.78695226
v -0 28.354277 -1.3748981E-08
v -0.908694 0 -1.281592E-07
v -0 -0.86284935 7.246787E-09
v 2.4586916E-07 0 -0.78695226
v -1.3411045E-07 0 0.78695226
v 0.908694 0 7.246787E-09
vt 0.4583333 0.3125
vt 0.3958333 0.3125
vt 0.5 0.8375
vt 0.5208333 0.3125
vt 0.5 0.8375
vt 0.5833333 0.3125
vt 0.5 0.8375
vt 0.625 0.3125
vt 0.5 0.8375
vt 0.34375 0.15624997
vt 0.5 0.15
vt 0.50000006 0.020933524
vt 0.5 0.2915665
vt 0.65625 0.15625
vn -0.9999362 0.011299498 0
vn -0 0.0076745003 -0.99997056
vn -0 1 0
vn -0 0.0076744994 0.99997056
vn -0 1 0
vn 0.9999362 0.011299499 0
vn -0 1 0
vn -0 0.0076745003 -0.99997056
vn -0 1 0
vn -0.9999362 0.011299498 0
vn -0 -1 0
vn -0 0.0076745003 -0.99997056
vn -0 0.0076744994 0.99997056
vn 0.9999362 0.011299499 0
g valley_tree05_LOD2_0
f 3/3/3 2/2/2 1/1/1
f 5/5/5 1/1/1 4/4/4
f 7/7/7 4/4/4 6/6/6
f 9/9/9 6/6/6 8/8/8
f 12/12/12 11/11/11 10/10/10
f 10/10/10 11/11/11 13/13/13
f 14/14/14 11/11/11 12/12/12
f 13/13/13 11/11/11 14/14/14
