g valley_tree07_LOD2
v -0.41113138 7.144841 -7.8256306E-08
v -0.048229814 6.924943 0.0015577481
v -1.1175871E-08 6.862763 0.35605013
v -1.1175871E-08 6.862763 0.35605013
v -0.048229814 6.924943 0.0015577481
v 0.41113138 6.5845375 -1.6992958E-08
v -1.0005 0 -1.4908612E-07
v 1.7881393E-07 0 -0.8664584
v 0.009249721 6.7362943 -0.3560501
v -0.41113138 7.144841 -7.8256306E-08
v -0.048229814 6.924943 0.0015577481
v -8.940697E-08 0 0.8664585
v -1.1175871E-08 6.862763 0.35605013
v 1.0005 0 0
v -8.940697E-08 0 0.8664585
v -1.1175871E-08 6.862763 0.35605013
v 0.41113138 6.5845375 -1.6992958E-08
v 1.7881393E-07 0 -0.8664584
v 0.009249721 6.7362943 -0.3560501
v -0.048229814 6.924943 0.0015577481
v -1.0005 0 -1.4908612E-07
v -0 -0.86284935 0
v 1.7881393E-07 0 -0.8664584
v -8.940697E-08 0 0.8664585
v 1.0005 0 0
v -0 -0.86284935 0
v -8.940697E-08 0 0.8664585
v 1.7881393E-07 0 -0.8664584
vt 0.625 0.5
vt 0.49107143 0.30357143
vt 0.4375 0.75
vt 0.4375 0.75
vt 0.49107143 0.30357143
vt 0.625 0.75
vt 0.875 0
vt 0.5625 0.875
vt 0.4375 0.5
vt 0.625 0.5
vt 0.49107143 0.30357143
vt 0.25 0
vt 0.4375 0.75
vt 0.5 0.25
vt 0.25 0
vt 0.4375 0.75
vt 0.625 0.75
vt 0.625 0
vt 0.5 1
vt 0.49107143 0.30357143
vt 0.625 0.75
vt 0.375 0.75
vt 0.5625 0.625
vt 0.4375 1
vt 0.625 1
vt 0.375 0.75
vt 0.4375 1
vt 0.5625 0.625
vn -0.99194443 0.09414325 0.08475545
vn 0.55063426 0.8234387 -0.13693316
vn -0.24642485 0.07982255 0.9658691
vn -0.24642485 0.07982255 0.9658691
vn 0.55063426 0.8234387 -0.13693316
vn 0.993846 0.092669256 0.060684104
vn -0.99981326 0.019310182 -0.0007906481
vn -0.010272658 0.009775882 -0.9998995
vn -0.21283896 0.0799179 -0.9738134
vn -0.99194443 0.09414325 0.08475545
vn 0.55063426 0.8234387 -0.13693316
vn -0.009676999 0.009765017 0.99990547
vn -0.24642485 0.07982255 0.9658691
vn 0.99980587 0.01860719 0.006476935
vn -0.009676999 0.009765017 0.99990547
vn -0.24642485 0.07982255 0.9658691
vn 0.993846 0.092669256 0.060684104
vn -0.010272658 0.009775882 -0.9998995
vn -0.21283896 0.0799179 -0.9738134
vn 0.55063426 0.8234387 -0.13693316
vn -0.99981326 0.019310182 -0.0007906481
vn -0 -1 0
vn -0.010272658 0.009775882 -0.9998995
vn -0.009676999 0.009765017 0.99990547
vn 0.99980587 0.01860719 0.006476935
vn -0 -1 0
vn -0.009676999 0.009765017 0.99990547
vn -0.010272658 0.009775882 -0.9998995
g valley_tree07_LOD2_0
f 3/3/3 2/2/2 1/1/1
f 6/6/6 5/5/5 4/4/4
f 9/9/9 8/8/8 7/7/7
f 10/10/10 9/9/9 7/7/7
f 10/10/10 11/11/11 9/9/9
f 10/10/10 7/7/7 12/12/12
f 13/13/13 10/10/10 12/12/12
f 16/16/16 15/15/15 14/14/14
f 17/17/17 16/16/16 14/14/14
f 17/17/17 14/14/14 18/18/18
f 19/19/19 17/17/17 18/18/18
f 19/19/19 20/20/20 17/17/17
f 23/23/23 22/22/22 21/21/21
f 21/21/21 22/22/22 24/24/24
f 27/27/27 26/26/26 25/25/25
f 25/25/25 26/26/26 28/28/28
