g valley_ramp01_COL
v -4.664577 0 2.80822
v -3.7289844 0.18342265 2.2031527
v -3.7326443 0 2.9433253
v -2.1825411 0.00039480758 2.696993
v -4.4815235 0.17742439 2.1061668
v -5.6592627 0 2.3888164
v -2.1974332 0.21038812 1.9823986
v -0.35912174 0.012744904 2.1773403
v -5.321931 0.17710857 1.7916118
v -6.7142367 0 1.7355765
v -3.8114152 0.5776491 1.4712121
v -0.42409492 0.2375789 1.509073
v 1.1538653 0.015366137 1.9256182
v -6.1545215 0.17710857 1.3016834
v -7.5619617 0 0.91244626
v -4.3677382 0.5906996 1.4041102
v -2.3288553 0.6167529 1.3410586
v 1.0676877 0.23895171 1.2770717
v 2.1830819 0.009826732 2.154443
v -6.787454 0.17710857 0.684335
v -7.8913107 0 -3.4917684E-07
v -4.9491215 0.60619867 1.1944076
v -3.8583071 0.9807564 0.7381841
v -0.63612115 0.62910956 0.98443043
v 2.130454 0.2301573 1.4794805
v 2.9790833 0.0006712028 2.609309
v -7.026059 0.17710857 -3.4917684E-07
v -7.561961 0 -0.9124463
v -4.131422 1.0165875 0.7020552
v -2.4650204 0.90566415 0.68281966
v 0.83835727 0.5562473 0.78098434
v 2.976362 0.21458642 1.8881158
v 3.890984 -7.450581E-09 2.8762517
v -3.512437 1.540204 -3.9388033E-07
v -4.3947988 1.0503714 0.5972034
v -2.32087 1.4994149 -0.016675152
v -4.6143436 1.0785571 0.4338937
v -4.7600183 1.097435 0.22811115
v -0.89335793 0.91618073 0.48633054
v -0.98945296 1.3262172 -0.062789366
v -5.4784174 0.61764675 0.8677879
v 0.55768615 0.8007536 0.3301058
v 0.19009075 1.1823964 -0.103122756
v -5.852449 0.6257026 0.45622292
v 1.9467776 0.62269163 0.9394586
v 1.7081624 0.9384171 0.437423
v 1.3971572 1.4208751 -0.07983144
v -5.9894485 0.62881136 -3.4917684E-07
v 2.8763664 0.67324096 1.2460744
v 2.7227309 1.0179386 0.6173545
v 2.417682 1.4686314 -0.016000964
v 3.9031887 0.1988444 2.131449
v 3.8133187 0.96967185 0.7080886
v 3.7500005 1.3380086 3.0447336E-07
v 3.8779285 0.6628544 1.4096986
v 4.5322328 0.1918797 2.082613
v 4.6892314 -9.313226E-10 2.7950304
v 4.0499916 0.97513616 0.6853801
v 4.3505144 0.6649816 1.378831
v 5.3654213 0.18381606 1.7916116
v 5.687211 -9.313226E-10 2.3888175
v 4.2875824 0.98302907 0.5911797
v 4.9043427 0.67008734 1.1930263
v 4.495796 0.99322826 0.43328366
v 4.641586 1.0037627 0.22811168
v 4.694388 1.0081953 3.4172626E-07
v 5.45819 0.6746998 0.86778796
v 6.253199 0.17710857 1.3016815
v 6.8068366 -2.910383E-11 1.7355762
v 5.857878 0.67203 0.45622352
v 6.9373264 0.17710857 0.68433464
v 7.7234945 0 0.9124463
v 6.0056167 0.66977066 3.4917684E-07
v 7.196889 0.17710857 3.4917684E-07
v 8.08259 0 3.4917684E-07
v 4.6415863 1.0037627 -0.22811115
v 6.9373274 0.17710857 -0.684335
v 7.7234955 0 -0.91244626
v 5.857879 0.67203 -0.45622292
v 6.2524266 0.17710857 -1.3008834
v 6.8068395 -2.910383E-11 -1.7355765
v 4.4937415 0.9931913 -0.43266922
v 5.4508758 0.674637 -0.86079705
v 5.319443 0.1864864 -1.7384832
v 5.6665506 -3.7252903E-09 -2.3621962
v 4.2680197 0.98052144 -0.5874437
v 4.855687 0.66778797 -1.1455615
v 4.35165 0.20440471 -1.9323535
v 4.5339293 9.313226E-10 -2.6442497
v 4.001097 0.97155577 -0.6790194
v 4.2077184 0.6589547 -1.2871485
v 3.5456421 0.22379467 -1.9025925
v 3.5181198 0.003374523 -2.5987659
v 2.2877004 0.0029301208 -2.4666138
v 3.7328904 0.96847713 -0.70231295
v 3.631127 0.66123414 -1.291129
v 2.3103971 0.21856506 -1.7803979
v 1.1727066 0 -2.598764
v 2.4682744 1.0539694 -0.6655382
v 2.417682 1.4686314 -0.016000964
v 2.3801079 0.6849987 -1.2018378
v 1.1818807 0.20219912 -1.9025921
v 6.0658564E-08 0 -2.8515177
v 1.2516727 0.9451864 -0.7074697
v 1.3971572 1.4208751 -0.07983144
v 1.2095515 0.5844741 -1.2911291
v 6.0462824E-08 0.19076358 -2.132132
v -1.1727065 0 -2.5987616
v 0.017891306 0.7998941 -0.7478902
v 0.19009075 1.1823964 -0.103122756
v 2.3775759E-07 0.5296569 -1.4446281
v -1.1818806 0.20783944 -1.9025921
v -2.2877004 0.0024100195 -2.4666095
v -1.2429984 0.9107424 -0.70620084
v -0.98945296 1.3262172 -0.062789366
v -1.209551 0.5893173 -1.2911294
v -2.3103967 0.21856506 -1.7803977
v -3.5181196 0 -2.5987597
v -2.5366368 0.8954708 -0.66553843
v -2.32087 1.4994149 -0.016675152
v -2.419455 0.59182966 -1.2018381
v -3.5534275 0.18602355 -1.9025918
v -3.8330884 0.97341895 -0.7023133
v -3.7092168 0.5549953 -1.2911295
v -4.350318 0.1759938 -1.9323525
v -4.5332394 0 -2.6442494
v -4.118026 1.0127014 -0.6847541
v -4.298151 0.5778058 -1.3047951
v -5.2777214 0.17632563 -1.738483
v -5.6379237 0 -2.3621974
v -4.391659 1.0494823 -0.59341043
v -4.919089 0.60153514 -1.1554712
v -6.153913 0.17710857 -1.3010554
v -6.714234 0 -1.7355762
v -4.6143436 1.0785571 -0.4338938
v -5.475676 0.6172573 -0.86418325
v -6.787453 0.17710857 -0.68433464
v -5.852448 0.62570256 -0.45622352
v -4.760018 1.0974349 -0.22811171
v -4.8115296 1.1041124 -3.5662742E-07
vt 0.5482839 0.9923526
vt 0.5 0.9609375
vt 0.5 1
vt 0.5 0.9479166
vt 0.5362129 0.955202
vt 0.59184146 0.97015893
vt 0.5 0.921875
vt 0.5 0.8958333
vt 0.5688811 0.9385567
vt 0.62640893 0.93559146
vt 0.5 0.921875
vt 0.5 0.8828125
vt 0.5 0.84375
vt 0.5948067 0.9126311
vt 0.6486026 0.89203393
vt 0.52414197 0.9180513
vt 0.5 0.89583325
vt 0.5 0.84375
vt 0.5 0.7916666
vt 0.6114519 0.8799629
vt 0.65625 0.84375
vt 0.5459207 0.90695447
vt 0.5 0.8828125
vt 0.5 0.8697916
vt 0.5 0.80468744
vt 0.5 0.73958325
vt 0.6171875 0.84375
vt 0.64860266 0.79546607
vt 0.51207095 0.8809006
vt 0.5 0.8697916
vt 0.5 0.84375
vt 0.5 0.76562494
vt 0.5 0.68749994
vt 0.5 0.8375
vt 0.52296036 0.87535226
vt 0.5 0.8375
vt 0.5316022 0.86671036
vt 0.5371506 0.855821
vt 0.5 0.8567708
vt 0.5 0.83750004
vt 0.56320447 0.8896707
vt 0.5 0.84375
vt 0.5 0.8375
vt 0.5743013 0.86789197
vt 0.5 0.81770825
vt 0.5 0.8307291
vt 0.5 0.8375
vt 0.578125 0.84375
vt 0.5 0.7916666
vt 0.5 0.8177083
vt 0.5 0.8375
vt 0.5 0.72656244
vt 0.5 0.8046875
vt 0.5 0.8375
vt 0.5 0.76562494
vt 0.5362129 0.732298
vt 0.54828393 0.69514734
vt 0.51207095 0.8065993
vt 0.52414197 0.76944864
vt 0.56888115 0.74894327
vt 0.5918415 0.717341
vt 0.52296036 0.81214774
vt 0.5459207 0.78054553
vt 0.53160226 0.82078964
vt 0.5371507 0.831679
vt 0.5390625 0.84375
vt 0.5632045 0.7978293
vt 0.59480673 0.77486885
vt 0.626409 0.7519085
vt 0.57430136 0.81960803
vt 0.611452 0.8075371
vt 0.64860266 0.79546607
vt 0.578125 0.84375
vt 0.6171875 0.84375
vt 0.65625 0.84375
vt 0.5371506 0.855821
vt 0.6114519 0.8799629
vt 0.6486026 0.89203393
vt 0.5743013 0.86789197
vt 0.5948067 0.9126311
vt 0.62640893 0.93559146
vt 0.5316022 0.86671036
vt 0.56320447 0.8896707
vt 0.5688811 0.9385567
vt 0.59184146 0.97015893
vt 0.52296036 0.87535226
vt 0.5459207 0.90695447
vt 0.5362129 0.955202
vt 0.5482839 0.9923526
vt 0.51207095 0.8809006
vt 0.52414197 0.9180513
vt 0.5 0.9609375
vt 0.5 1
vt 0.5 0.9479166
vt 0.5 0.8828125
vt 0.5 0.921875
vt 0.5 0.921875
vt 0.5 0.89583325
vt 0.5 0.8697916
vt 0.5 0.8375
vt 0.5 0.8958333
vt 0.5 0.88281244
vt 0.5 0.84375
vt 0.5 0.85677075
vt 0.5 0.8375
vt 0.5 0.8697916
vt 0.5 0.84374994
vt 0.5 0.7916666
vt 0.5 0.84375
vt 0.5 0.8375
vt 0.5 0.84375
vt 0.5 0.80468744
vt 0.5 0.7395833
vt 0.5 0.8307291
vt 0.5 0.83750004
vt 0.5 0.8177083
vt 0.5 0.76562494
vt 0.5 0.68749994
vt 0.5 0.8177083
vt 0.5 0.8375
vt 0.5 0.7916666
vt 0.5 0.72656244
vt 0.5 0.8046875
vt 0.5 0.76562494
vt 0.5362129 0.732298
vt 0.54828393 0.69514734
vt 0.51207095 0.8065993
vt 0.52414197 0.76944864
vt 0.56888115 0.74894327
vt 0.5918415 0.717341
vt 0.52296036 0.81214774
vt 0.5459207 0.78054553
vt 0.59480673 0.77486885
vt 0.626409 0.7519085
vt 0.53160226 0.82078964
vt 0.5632045 0.7978293
vt 0.611452 0.8075371
vt 0.57430136 0.81960803
vt 0.5371507 0.831679
vt 0.5390625 0.84375
vn -0 1 0
vn 0.009624116 0.9298647 0.36777565
vn -0 1 0
vn -0 1 0
vn -0.08740589 0.9341187 0.34609613
vn -0 1 0
vn 0.06748893 0.91425455 0.3994795
vn -0 1 0
vn -0.16189724 0.92838115 0.33451116
vn -0 1 0
vn 0.01630651 0.8783431 0.4777526
vn 0.08603633 0.9009153 0.42538157
vn -0 1 0
vn -0.22059295 0.9335028 0.282686
vn -0 1 0
vn -0.10550138 0.8636772 0.49288055
vn 0.06752853 0.87443143 0.4804263
vn -0.0022653993 0.8920565 0.45191818
vn -0 1 0
vn -0.26355845 0.94982624 0.1684252
vn -0 1 0
vn -0.20988004 0.85905397 0.4668796
vn 0.035508554 0.8452729 0.5331538
vn 0.101480946 0.86620766 0.4892708
vn -0.1539345 0.86744225 0.47312582
vn -0 1 0
vn -0.27875644 0.96036184 0
vn -0 1 0
vn -0.07171338 0.85457665 0.5143501
vn 0.06167832 0.8417201 0.53637946
vn 0.0022919485 0.84415925 0.5360876
vn -0.13455449 0.88758814 0.44054785
vn -0 1 0
vn 0.043259013 0.9989506 0.015046281
vn -0.17957868 0.8661567 0.46639478
vn 0.07542327 0.7724303 0.63060504
vn -0.2692377 0.88895047 0.37051058
vn -0.3360704 0.9173914 0.21318947
vn 0.094904706 0.8463339 0.5241297
vn 0.105477855 0.78373677 0.61207116
vn -0.29556978 0.8727579 0.3884998
vn -0.009922868 0.8076545 0.5895726
vn 0.034214303 0.7688099 0.6385614
vn -0.3637138 0.9014718 0.23465078
vn -0.17129555 0.8012654 0.57326394
vn -0.1449534 0.76221436 0.6308865
vn -0.13993056 0.69927835 0.70102
vn -0.3935527 0.91930205 0
vn -0.1368523 0.8330838 0.53595054
vn -0.05714942 0.8420291 0.53639615
vn -0.056253176 0.7937728 0.6056074
vn -0.035958014 0.91533285 0.4010896
vn 0.008501169 0.8841772 0.46707425
vn 0.07662798 0.9970585 0.0015969195
vn -0.03804473 0.8605701 0.5079092
vn 0.09294838 0.92164296 0.37674245
vn -0 1 0
vn 0.07277499 0.91629297 0.3938413
vn 0.10731714 0.86834943 0.48420268
vn 0.17166016 0.9181485 0.35712212
vn -0 1 0
vn 0.15094075 0.9265056 0.34467995
vn 0.201579 0.87343794 0.44325167
vn 0.20629238 0.9408597 0.26874977
vn 0.24684317 0.95702714 0.15220846
vn 0.26271686 0.964873 0
vn 0.26822463 0.8910576 0.3661582
vn 0.22409886 0.9280242 0.29757485
vn -0 1 0
vn 0.32205203 0.92028224 0.22217815
vn 0.2607856 0.94934124 0.1753341
vn -0 1 0
vn 0.3467971 0.9379401 0
vn 0.27354357 0.96185964 0
vn -0 1 0
vn 0.24649255 0.9567021 -0.15479812
vn 0.26020446 0.9494327 -0.17570215
vn -0 1 0
vn 0.32111156 0.92011064 -0.22424035
vn 0.2128232 0.9297269 -0.30052316
vn -0 1 0
vn 0.19838315 0.9360673 -0.29055494
vn 0.2539923 0.8872688 -0.38502222
vn 0.13806783 0.91848016 -0.3705827
vn -0 1 0
vn 0.13171677 0.9115681 -0.38947955
vn 0.16248146 0.8608994 -0.4821328
vn 0.050628625 0.91358215 -0.40349036
vn -0 1 0
vn 0.059896518 0.8947232 -0.4425864
vn 0.06404206 0.8465764 -0.5284003
vn -0.024176104 0.89560544 -0.44419184
vn -0 1 0
vn -0 1 0
vn 0.038082335 0.86620456 -0.49823624
vn -0.010137395 0.8319446 -0.55476606
vn -0.0119850915 0.8875303 -0.4605935
vn -0 1 0
vn 0.007886662 0.8478684 -0.53014815
vn 0.021078901 0.8451333 -0.5341398
vn -0.019270068 0.8273036 -0.56142443
vn 0.036435954 0.91025394 -0.4124442
vn -0 1 0
vn -0.06315972 0.8496371 -0.52357197
vn -0.06732678 0.82853884 -0.55586916
vn -0.004440862 0.8592697 -0.5115037
vn 0.0013177306 0.9294012 -0.3690686
vn -0 1 0
vn -0.0066911513 0.87398374 -0.48590901
vn -0.036215533 0.84072393 -0.5402516
vn -0.0006955297 0.8875609 -0.46068975
vn -0.04283753 0.9142058 -0.40297985
vn -0 1 0
vn 0.023751454 0.8442266 -0.53545976
vn 0.04927082 0.8120976 -0.5814376
vn -0.021042742 0.8760823 -0.48170236
vn -0.0093051605 0.90688115 -0.4212838
vn -0 1 0
vn 0.024511963 0.80487657 -0.5929358
vn 0.03293069 0.7654979 -0.6425951
vn -0.0021340686 0.85360974 -0.5209086
vn 0.016206354 0.9193125 -0.3931946
vn 0.0447814 0.79627705 -0.6032724
vn 0.03194382 0.84448975 -0.53461826
vn -0.033659842 0.9307372 -0.36413643
vn -0 1 0
vn -0.025625508 0.81712174 -0.57589513
vn -0.042034503 0.8369366 -0.54568326
vn -0.12558669 0.92978805 -0.34600884
vn -0 1 0
vn -0.15552102 0.8461671 -0.50972
vn -0.17062534 0.8441408 -0.5082453
vn -0.20909823 0.9352697 -0.28556708
vn -0 1 0
vn -0.26272687 0.8834915 -0.38783684
vn -0.2828251 0.86935383 -0.4052578
vn -0.2631941 0.9498959 -0.16860218
vn -0.36307713 0.9014743 -0.23562479
vn -0.33596012 0.917129 -0.21448849
vn -0.36262783 0.93193406 0
g valley_ramp01_COL_0
f 3/3/3 2/2/2 1/1/1
f 3/3/3 4/4/4 2/2/2
f 2/2/2 5/5/5 1/1/1
f 1/1/1 5/5/5 6/6/6
f 4/4/4 7/7/7 2/2/2
f 4/4/4 8/8/8 7/7/7
f 5/5/5 9/9/9 6/6/6
f 6/6/6 9/9/9 10/10/10
f 2/2/2 11/11/11 5/5/5
f 2/2/2 7/7/7 11/11/11
f 8/8/8 12/12/12 7/7/7
f 8/8/8 13/13/13 12/12/12
f 9/9/9 14/14/14 10/10/10
f 10/10/10 14/14/14 15/15/15
f 5/5/5 16/16/16 9/9/9
f 11/11/11 16/16/16 5/5/5
f 7/7/7 17/17/17 11/11/11
f 7/7/7 12/12/12 17/17/17
f 13/13/13 18/18/18 12/12/12
f 13/13/13 19/19/19 18/18/18
f 14/14/14 20/20/20 15/15/15
f 15/15/15 20/20/20 21/21/21
f 9/9/9 22/22/22 14/14/14
f 16/16/16 22/22/22 9/9/9
f 11/11/11 23/23/23 16/16/16
f 11/11/11 17/17/17 23/23/23
f 12/12/12 24/24/24 17/17/17
f 12/12/12 18/18/18 24/24/24
f 19/19/19 25/25/25 18/18/18
f 19/19/19 26/26/26 25/25/25
f 20/20/20 27/27/27 21/21/21
f 21/21/21 27/27/27 28/28/28
f 16/16/16 29/29/29 22/22/22
f 23/23/23 29/29/29 16/16/16
f 17/17/17 30/30/30 23/23/23
f 17/17/17 24/24/24 30/30/30
f 18/18/18 31/31/31 24/24/24
f 18/18/18 25/25/25 31/31/31
f 26/26/26 32/32/32 25/25/25
f 26/26/26 33/33/33 32/32/32
f 23/23/23 34/34/34 29/29/29
f 23/23/23 30/30/30 34/34/34
f 29/29/29 35/35/35 22/22/22
f 29/29/29 34/34/34 35/35/35
f 30/30/30 36/36/36 34/34/34
f 35/35/35 34/34/34 37/37/37
f 37/37/37 34/34/34 38/38/38
f 24/24/24 39/39/39 30/30/30
f 30/30/30 39/39/39 36/36/36
f 39/39/39 40/40/40 36/36/36
f 24/24/24 31/31/31 39/39/39
f 22/22/22 35/35/35 41/41/41
f 35/35/35 37/37/37 41/41/41
f 22/22/22 41/41/41 14/14/14
f 14/14/14 41/41/41 20/20/20
f 39/39/39 42/42/42 40/40/40
f 31/31/31 42/42/42 39/39/39
f 42/42/42 43/43/43 40/40/40
f 41/41/41 37/37/37 44/44/44
f 41/41/41 44/44/44 20/20/20
f 37/37/37 38/38/38 44/44/44
f 20/20/20 44/44/44 27/27/27
f 31/31/31 45/45/45 42/42/42
f 25/25/25 45/45/45 31/31/31
f 25/25/25 32/32/32 45/45/45
f 42/42/42 46/46/46 43/43/43
f 45/45/45 46/46/46 42/42/42
f 46/46/46 47/47/47 43/43/43
f 44/44/44 38/38/38 48/48/48
f 44/44/44 48/48/48 27/27/27
f 32/32/32 49/49/49 45/45/45
f 45/45/45 49/49/49 46/46/46
f 46/46/46 50/50/50 47/47/47
f 49/49/49 50/50/50 46/46/46
f 50/50/50 51/51/51 47/47/47
f 32/32/32 52/52/52 49/49/49
f 33/33/33 52/52/52 32/32/32
f 50/50/50 53/53/53 51/51/51
f 53/53/53 54/54/54 51/51/51
f 49/49/49 55/55/55 50/50/50
f 55/55/55 53/53/53 50/50/50
f 52/52/52 55/55/55 49/49/49
f 56/56/56 52/52/52 33/33/33
f 57/57/57 56/56/56 33/33/33
f 58/58/58 53/53/53 55/55/55
f 58/58/58 54/54/54 53/53/53
f 59/59/59 55/55/55 52/52/52
f 59/59/59 58/58/58 55/55/55
f 56/56/56 59/59/59 52/52/52
f 60/60/60 56/56/56 57/57/57
f 61/61/61 60/60/60 57/57/57
f 62/62/62 54/54/54 58/58/58
f 62/62/62 58/58/58 59/59/59
f 63/63/63 59/59/59 56/56/56
f 63/63/63 62/62/62 59/59/59
f 60/60/60 63/63/63 56/56/56
f 64/64/64 54/54/54 62/62/62
f 64/64/64 62/62/62 63/63/63
f 65/65/65 54/54/54 64/64/64
f 66/66/66 54/54/54 65/65/65
f 67/67/67 64/64/64 63/63/63
f 67/67/67 63/63/63 60/60/60
f 65/65/65 64/64/64 67/67/67
f 68/68/68 60/60/60 61/61/61
f 68/68/68 67/67/67 60/60/60
f 69/69/69 68/68/68 61/61/61
f 70/70/70 65/65/65 67/67/67
f 70/70/70 67/67/67 68/68/68
f 66/66/66 65/65/65 70/70/70
f 71/71/71 68/68/68 69/69/69
f 71/71/71 70/70/70 68/68/68
f 72/72/72 71/71/71 69/69/69
f 73/73/73 66/66/66 70/70/70
f 73/73/73 70/70/70 71/71/71
f 74/74/74 71/71/71 72/72/72
f 74/74/74 73/73/73 71/71/71
f 75/75/75 74/74/74 72/72/72
f 76/76/76 66/66/66 73/73/73
f 76/76/76 54/54/54 66/66/66
f 77/77/77 74/74/74 75/75/75
f 78/78/78 77/77/77 75/75/75
f 79/79/79 73/73/73 74/74/74
f 79/79/79 76/76/76 73/73/73
f 77/77/77 79/79/79 74/74/74
f 80/80/80 77/77/77 78/78/78
f 81/81/81 80/80/80 78/78/78
f 82/82/82 76/76/76 79/79/79
f 82/82/82 54/54/54 76/76/76
f 83/83/83 79/79/79 77/77/77
f 83/83/83 82/82/82 79/79/79
f 80/80/80 83/83/83 77/77/77
f 84/84/84 80/80/80 81/81/81
f 85/85/85 84/84/84 81/81/81
f 86/86/86 82/82/82 83/83/83
f 86/86/86 54/54/54 82/82/82
f 87/87/87 83/83/83 80/80/80
f 87/87/87 86/86/86 83/83/83
f 84/84/84 87/87/87 80/80/80
f 88/88/88 84/84/84 85/85/85
f 89/89/89 88/88/88 85/85/85
f 90/90/90 86/86/86 87/87/87
f 90/90/90 54/54/54 86/86/86
f 91/91/91 87/87/87 84/84/84
f 91/91/91 90/90/90 87/87/87
f 88/88/88 91/91/91 84/84/84
f 92/92/92 88/88/88 89/89/89
f 93/93/93 92/92/92 89/89/89
f 92/92/92 93/93/93 94/94/94
f 95/95/95 54/54/54 90/90/90
f 95/95/95 90/90/90 91/91/91
f 96/96/96 91/91/91 88/88/88
f 92/92/92 96/96/96 88/88/88
f 96/96/96 95/95/95 91/91/91
f 97/97/97 92/92/92 94/94/94
f 96/96/96 92/92/92 97/97/97
f 97/97/97 94/94/94 98/98/98
f 54/54/54 95/95/95 99/99/99
f 100/100/100 54/54/54 99/99/99
f 95/95/95 96/96/96 101/101/101
f 101/101/101 96/96/96 97/97/97
f 99/99/99 95/95/95 101/101/101
f 102/102/102 97/97/97 98/98/98
f 101/101/101 97/97/97 102/102/102
f 102/102/102 98/98/98 103/103/103
f 100/100/100 99/99/99 104/104/104
f 105/105/105 100/100/100 104/104/104
f 99/99/99 101/101/101 106/106/106
f 106/106/106 101/101/101 102/102/102
f 104/104/104 99/99/99 106/106/106
f 107/107/107 102/102/102 103/103/103
f 106/106/106 102/102/102 107/107/107
f 107/107/107 103/103/103 108/108/108
f 105/105/105 104/104/104 109/109/109
f 110/110/110 105/105/105 109/109/109
f 104/104/104 106/106/106 111/111/111
f 111/111/111 106/106/106 107/107/107
f 109/109/109 104/104/104 111/111/111
f 112/112/112 107/107/107 108/108/108
f 111/111/111 107/107/107 112/112/112
f 112/112/112 108/108/108 113/113/113
f 110/110/110 109/109/109 114/114/114
f 115/115/115 110/110/110 114/114/114
f 109/109/109 111/111/111 116/116/116
f 116/116/116 111/111/111 112/112/112
f 114/114/114 109/109/109 116/116/116
f 117/117/117 112/112/112 113/113/113
f 116/116/116 112/112/112 117/117/117
f 117/117/117 113/113/113 118/118/118
f 115/115/115 114/114/114 119/119/119
f 120/120/120 115/115/115 119/119/119
f 114/114/114 116/116/116 121/121/121
f 121/121/121 116/116/116 117/117/117
f 119/119/119 114/114/114 121/121/121
f 122/122/122 117/117/117 118/118/118
f 121/121/121 117/117/117 122/122/122
f 120/120/120 119/119/119 123/123/123
f 34/34/34 120/120/120 123/123/123
f 119/119/119 121/121/121 124/124/124
f 123/123/123 119/119/119 124/124/124
f 124/124/124 121/121/121 122/122/122
f 125/125/125 122/122/122 118/118/118
f 126/126/126 125/125/125 118/118/118
f 127/127/127 123/123/123 124/124/124
f 127/127/127 34/34/34 123/123/123
f 128/128/128 124/124/124 122/122/122
f 128/128/128 127/127/127 124/124/124
f 125/125/125 128/128/128 122/122/122
f 129/129/129 125/125/125 126/126/126
f 130/130/130 129/129/129 126/126/126
f 131/131/131 127/127/127 128/128/128
f 131/131/131 34/34/34 127/127/127
f 132/132/132 128/128/128 125/125/125
f 132/132/132 131/131/131 128/128/128
f 129/129/129 132/132/132 125/125/125
f 133/133/133 129/129/129 130/130/130
f 134/134/134 133/133/133 130/130/130
f 135/135/135 131/131/131 132/132/132
f 135/135/135 34/34/34 131/131/131
f 136/136/136 132/132/132 129/129/129
f 136/136/136 135/135/135 132/132/132
f 133/133/133 136/136/136 129/129/129
f 137/137/137 133/133/133 134/134/134
f 28/28/28 137/137/137 134/134/134
f 27/27/27 137/137/137 28/28/28
f 27/27/27 48/48/48 137/137/137
f 137/137/137 138/138/138 133/133/133
f 138/138/138 136/136/136 133/133/133
f 48/48/48 138/138/138 137/137/137
f 139/139/139 135/135/135 136/136/136
f 139/139/139 34/34/34 135/135/135
f 138/138/138 139/139/139 136/136/136
f 48/48/48 140/140/140 138/138/138
f 140/140/140 139/139/139 138/138/138
f 140/140/140 34/34/34 139/139/139
f 38/38/38 140/140/140 48/48/48
f 38/38/38 34/34/34 140/140/140
