g valley_ramp02_COL
v -5.2783527 0 3.797513
v -4.2464805 0.17711006 3.0464926
v -4.0474973 -2.3283064E-10 3.8488822
v -2.5477154 5.5879354E-09 3.3419409
v -5.250692 0.1771088 3.019243
v -6.563019 0 3.3155472
v -2.5935268 0.17711005 2.5355437
v -1.25 -1.1175871E-08 2.5005193
v -6.2384706 0.17710857 2.6862955
v -7.696875 0 2.4601512
v -4.39058 0.55639017 2.1341605
v -1.25 0.17711008 1.7723492
v 5.9604645E-08 -5.5879354E-09 1.9384055
v -7.0742264 0.17710857 2.0468326
v -8.32826 0 1.3820348
v -5.0902805 0.5738406 2.1285849
v -2.6083083 0.5096349 1.6452628
v 5.9604645E-08 0.17711008 1.284753
v 1.2500001 0 2.0178921
v -7.537219 0.17710857 1.2277693
v -8.472776 0 0.23927245
v -5.738618 0.58103377 1.9067795
v -4.2681465 1.0875324 1.0792997
v -1.2499998 0.51727283 0.9974104
v 1.2500001 0.17711006 1.3728014
v 2.5000002 0 2.4885218
v -7.6395187 0.17710857 0.33904693
v -8.142451 0 -0.8311579
v -4.611723 1.115114 1.0842178
v -2.5510032 1.0532743 0.6559095
v 2.3841858E-07 0.5811716 0.61712956
v 2.5000002 0.17711006 1.7685299
v 3.7500002 0 2.8453686
v -4.105401 1.7532284 -0.06425151
v -4.936187 1.1399596 0.99308
v -2.5 1.7201385 -0.3420824
v -5.2268853 1.1625943 0.8219733
v -5.3666306 1.1646796 0.5905953
v -1.2500002 1.1168658 0.19441748
v -1.2499999 1.8430107 -0.5631204
v -6.2458854 0.58269376 1.5147631
v -1.3411045E-07 1.3282695 -0.03817433
v 1.7881393E-07 2.0777707 -0.654168
v -6.5767756 0.58269376 0.9816638
v 1.2500002 0.5801592 0.7270627
v 1.2499999 1.3394371 0.08197093
v 1.2500002 2.0014305 -0.56312025
v -6.6432047 0.58269376 0.38569316
v 2.5000005 0.5240816 1.0598053
v 2.5 1.1709096 0.3332138
v 2.5000005 1.9873734 -0.3690544
v 3.7500002 0.17711006 2.0973125
v 3.75 1.0951515 0.59856266
v 3.7500005 1.9043951 -0.14050163
v 3.7500005 0.50357306 1.3541648
v 4.434334 0.1771088 2.0713816
v 4.662446 0 2.7940056
v 3.9781117 1.098521 0.59748375
v 4.206223 0.50868237 1.3420355
v 5.0516815 0.17710857 1.7901983
v 5.4855747 0 2.3888175
v 4.183894 1.100513 0.5216087
v 4.617789 0.5103587 1.1708573
v 4.347204 1.100513 0.38174903
v 4.4520555 1.0990647 0.1940836
v 4.488185 1.096025 -0.020745605
v 4.9444065 0.50868237 0.8633951
v 5.541611 0.17710857 1.3016815
v 6.138815 0 1.7355762
v 5.15411 0.50575274 0.45622352
v 5.856165 0.17710857 0.68433464
v 6.55822 0 0.9124463
v 5.226369 0.50224537 3.4917684E-07
v 5.964553 0.17710857 3.4917684E-07
v 6.7027364 0 3.4917684E-07
v 4.452056 1.0924282 -0.2538462
v 5.856166 0.17641973 -0.684335
v 6.5582204 0 -0.91244626
v 5.154111 0.49862814 -0.45622292
v 5.5416136 0.1759699 -1.3016834
v 6.138818 0 -1.7355765
v 4.347204 1.0901645 -0.48050815
v 4.9444084 0.49497926 -0.87218076
v 5.051683 0.17540249 -1.793025
v 5.4855776 0 -2.3888164
v 4.1838946 1.0899382 -0.67027175
v 4.617789 0.49300277 -1.2179574
v 4.4343348 0.17540272 -2.1409512
v 4.662447 0 -2.822434
v 3.9781117 1.0917552 -0.80662644
v 4.2062235 0.4943258 -1.4661852
v 3.7500002 0.17642123 -2.3317935
v 3.7500002 0 -3.0601065
v 2.5000002 0 -3.1601684
v 3.75 1.0948274 -0.87628984
v 3.7500005 0.49935904 -1.5979649
v 2.5000002 0.17711006 -2.4649858
v 1.2500001 0 -3.1428392
v 2.5 1.2042445 -1.0678178
v 2.5000005 1.9873734 -0.3690544
v 2.5000005 0.5492286 -1.7596018
v 1.2500001 0.17711006 -2.4977465
v 5.9604645E-08 -1.8626451E-09 -3.1095078
v 1.2499999 1.3597267 -1.2082115
v 1.2500002 2.0014305 -0.56312025
v 1.2500002 0.5826951 -1.8533032
v 5.9604645E-08 0.17711008 -2.4956727
v -1.25 3.7252903E-09 -3.142837
v -1.3411045E-07 1.3474354 -1.268003
v 1.7881393E-07 2.0777707 -0.654168
v 2.3841858E-07 0.5826951 -1.8818384
v -1.25 0.17711005 -2.4977465
v -2.5 1.4901161E-08 -3.1601644
v -1.2500002 1.1478757 -1.2082117
v -1.2499999 1.8430107 -0.5631204
v -1.2499998 0.53103584 -1.8533034
v -2.5 0.17223229 -2.4649856
v -3.8254948 -3.7252903E-09 -3.0601003
v -2.5304563 1.0143298 -1.067818
v -2.5 1.7201385 -0.3420824
v -2.5160542 0.46040282 -1.7596022
v -3.964761 0.16825688 -2.3317928
v -4.182176 1.0248053 -0.8202564
v -4.1212087 0.45659038 -1.5979654
v -4.9308143 0.1771088 -2.1409502
v -4.9875116 3.7252903E-09 -2.8224337
v -4.52442 1.0379922 -0.7124121
v -4.807726 0.49966472 -1.4466661
v -5.908869 0.17710856 -1.7849973
v -6.193166 1.8626451E-09 -2.3888175
v -4.846309 1.0622652 -0.5302804
v -5.4848456 0.52925694 -1.1505201
v -6.7843065 0.17710857 -1.2404956
v -7.3022532 -2.3283064E-10 -1.7275488
v -5.113094 1.093257 -0.2865108
v -6.066883 0.56046623 -0.72535443
v -7.4179587 0.17710857 -0.5127796
v -6.458171 0.5773033 -0.20114663
v -5.3035455 1.1253709 0.0010958165
v -5.3926253 1.1513437 0.3090847
vt 0.5482839 0.9923526
vt 0.5 0.9609375
vt 0.5 1
vt 0.5 0.9479166
vt 0.5362129 0.955202
vt 0.59184146 0.97015893
vt 0.5 0.921875
vt 0.5 0.8958333
vt 0.5688811 0.9385567
vt 0.62640893 0.93559146
vt 0.5 0.921875
vt 0.5 0.8828125
vt 0.5 0.84375
vt 0.5948067 0.9126311
vt 0.6486026 0.89203393
vt 0.52414197 0.9180513
vt 0.5 0.89583325
vt 0.5 0.84375
vt 0.5 0.7916666
vt 0.6114519 0.8799629
vt 0.65625 0.84375
vt 0.5459207 0.90695447
vt 0.5 0.8828125
vt 0.5 0.8697916
vt 0.5 0.80468744
vt 0.5 0.73958325
vt 0.6171875 0.84375
vt 0.64860266 0.79546607
vt 0.51207095 0.8809006
vt 0.5 0.8697916
vt 0.5 0.84375
vt 0.5 0.76562494
vt 0.5 0.68749994
vt 0.5 0.8375
vt 0.52296036 0.87535226
vt 0.5 0.8375
vt 0.5316022 0.86671036
vt 0.5371506 0.855821
vt 0.5 0.8567708
vt 0.5 0.83750004
vt 0.56320447 0.8896707
vt 0.5 0.84375
vt 0.5 0.8375
vt 0.5743013 0.86789197
vt 0.5 0.81770825
vt 0.5 0.8307291
vt 0.5 0.8375
vt 0.578125 0.84375
vt 0.5 0.7916666
vt 0.5 0.8177083
vt 0.5 0.8375
vt 0.5 0.72656244
vt 0.5 0.8046875
vt 0.5 0.8375
vt 0.5 0.76562494
vt 0.5362129 0.732298
vt 0.54828393 0.69514734
vt 0.51207095 0.8065993
vt 0.52414197 0.76944864
vt 0.56888115 0.74894327
vt 0.5918415 0.717341
vt 0.52296036 0.81214774
vt 0.5459207 0.78054553
vt 0.53160226 0.82078964
vt 0.5371507 0.831679
vt 0.5390625 0.84375
vt 0.5632045 0.7978293
vt 0.59480673 0.77486885
vt 0.626409 0.7519085
vt 0.57430136 0.81960803
vt 0.611452 0.8075371
vt 0.64860266 0.79546607
vt 0.578125 0.84375
vt 0.6171875 0.84375
vt 0.65625 0.84375
vt 0.5371506 0.855821
vt 0.6114519 0.8799629
vt 0.6486026 0.89203393
vt 0.5743013 0.86789197
vt 0.5948067 0.9126311
vt 0.62640893 0.93559146
vt 0.5316022 0.86671036
vt 0.56320447 0.8896707
vt 0.5688811 0.9385567
vt 0.59184146 0.97015893
vt 0.52296036 0.87535226
vt 0.5459207 0.90695447
vt 0.5362129 0.955202
vt 0.5482839 0.9923526
vt 0.51207095 0.8809006
vt 0.52414197 0.9180513
vt 0.5 0.9609375
vt 0.5 1
vt 0.5 0.9479166
vt 0.5 0.8828125
vt 0.5 0.921875
vt 0.5 0.921875
vt 0.5 0.89583325
vt 0.5 0.8697916
vt 0.5 0.8375
vt 0.5 0.8958333
vt 0.5 0.88281244
vt 0.5 0.84375
vt 0.5 0.85677075
vt 0.5 0.8375
vt 0.5 0.8697916
vt 0.5 0.84374994
vt 0.5 0.7916666
vt 0.5 0.84375
vt 0.5 0.8375
vt 0.5 0.84375
vt 0.5 0.80468744
vt 0.5 0.7395833
vt 0.5 0.8307291
vt 0.5 0.83750004
vt 0.5 0.8177083
vt 0.5 0.76562494
vt 0.5 0.68749994
vt 0.5 0.8177083
vt 0.5 0.8375
vt 0.5 0.7916666
vt 0.5 0.72656244
vt 0.5 0.8046875
vt 0.5 0.76562494
vt 0.5362129 0.732298
vt 0.54828393 0.69514734
vt 0.51207095 0.8065993
vt 0.52414197 0.76944864
vt 0.56888115 0.74894327
vt 0.5918415 0.717341
vt 0.52296036 0.81214774
vt 0.5459207 0.78054553
vt 0.59480673 0.77486885
vt 0.626409 0.7519085
vt 0.53160226 0.82078964
vt 0.5632045 0.7978293
vt 0.611452 0.8075371
vt 0.57430136 0.81960803
vt 0.5371507 0.831679
vt 0.5390625 0.84375
vn -0 1 0
vn 0.056522977 0.9557158 0.288812
vn -0 1 0
vn -0 1 0
vn -0.05439024 0.95302564 0.29796597
vn -0 1 0
vn 0.121968046 0.9487229 0.29163095
vn -0 1 0
vn -0.14771114 0.9506188 0.27295664
vn -0 1 0
vn 0.09350182 0.9049661 0.41508266
vn 0.14771058 0.93293864 0.3283398
vn -0 1 0
vn -0.22376639 0.9539373 0.19983062
vn -0 1 0
vn -0.057815395 0.9088946 0.4129989
vn 0.15755245 0.8888919 0.4301724
vn 0.049553413 0.9163133 0.39738438
vn -0 1 0
vn -0.27110034 0.9580955 0.09250713
vn -0 1 0
vn -0.18285428 0.9101776 0.37167338
vn 0.12252403 0.8611423 0.493378
vn 0.15893334 0.8415452 0.51627684
vn -0.06977416 0.91477436 0.39789376
vn -0 1 0
vn -0.28048787 0.95961064 -0.021774063
vn -0 1 0
vn -0.021691218 0.8883395 0.45867464
vn 0.14755635 0.8335001 0.53245175
vn 0.023648882 0.7722612 0.63486487
vn -0.09287755 0.9325509 0.34888747
vn -0 1 0
vn 0.018418457 0.9990847 0.03860861
vn -0.1525081 0.89857274 0.41147083
vn 0.12001614 0.8094618 0.5747761
vn -0.28214788 0.9088791 0.30713412
vn -0.38779068 0.9130952 0.12599896
vn 0.09575491 0.7605884 0.64213413
vn 0.037434418 0.7300462 0.6823717
vn -0.29178002 0.9158203 0.2759305
vn -0.018719755 0.6825844 0.730567
vn -0.036227033 0.6733704 0.73841715
vn -0.36933178 0.92078084 0.12552574
vn -0.08502298 0.75959045 0.64482045
vn -0.075770326 0.6701076 0.7383865
vn -0.063188665 0.66844213 0.74107504
vn -0.38821647 0.920645 -0.041239973
vn -0.11077928 0.80871445 0.57767546
vn -0.10180738 0.6945159 0.712238
vn -0.09311625 0.6658457 0.74025595
vn -0.04719159 0.94842815 0.3134598
vn -0.09341693 0.72320676 0.68428445
vn 0.07443287 0.99352384 0.085849345
vn -0.07619291 0.8502637 0.5208131
vn 0.06748741 0.9558535 0.28598854
vn -0 1 0
vn 0.11112139 0.7705817 0.6275794
vn 0.09555849 0.87807566 0.4688836
vn 0.16893181 0.9547717 0.24468984
vn -0 1 0
vn 0.327987 0.7757649 0.53908575
vn 0.26074216 0.8782326 0.40090036
vn 0.5018558 0.7718361 0.39039686
vn 0.6132604 0.7636976 0.20168723
vn 0.6557111 0.7549819 -0.0067381896
vn 0.38774484 0.874909 0.29015204
vn 0.24348721 0.95351386 0.1775533
vn -0 1 0
vn 0.46497428 0.87249076 0.15019603
vn 0.286763 0.9535374 0.09237618
vn -0 1 0
vn 0.49019328 0.8716041 -0.004111856
vn 0.29987878 0.9539766 -0.0011681753
vn -0 1 0
vn 0.6335337 0.74592173 -0.20551366
vn 0.28336602 0.95445526 -0.09337506
vn -0 1 0
vn 0.467319 0.870536 -0.15420763
vn 0.24100387 0.9546031 -0.17507161
vn -0 1 0
vn 0.5587821 0.73770815 -0.37887898
vn 0.40549928 0.86796856 -0.28670695
vn 0.1826905 0.9534406 -0.23994802
vn -0 1 0
vn 0.44147053 0.73201376 -0.5189024
vn 0.31552148 0.8640373 -0.39228272
vn 0.117703155 0.95181346 -0.28319106
vn -0 1 0
vn 0.28966418 0.73340964 -0.6149837
vn 0.20632046 0.8622874 -0.46248487
vn 0.061042827 0.94247043 -0.32866886
vn -0 1 0
vn -0 1 0
vn 0.16561535 0.7038706 -0.69075155
vn 0.12002589 0.8310661 -0.543068
vn 0.033574186 0.93111855 -0.3631681
vn -0 1 0
vn 0.1445189 0.6895233 -0.70969844
vn 0.15963177 0.66823244 -0.7266245
vn 0.096102506 0.79716796 -0.59606
vn 0.010958704 0.91530657 -0.40260875
vn -0 1 0
vn 0.08742215 0.6669927 -0.7399177
vn 0.10466649 0.6776771 -0.7278728
vn 0.050042916 0.7516491 -0.65766203
vn -0.004610027 0.91093045 -0.41253418
vn -0 1 0
vn -0.042661775 0.65969014 -0.75032586
vn -0.046874076 0.66846377 -0.74226606
vn -0.022863923 0.74609184 -0.66545045
vn -0.018852921 0.9271396 -0.37424153
vn -0 1 0
vn -0.13579275 0.6912014 -0.7097893
vn -0.16440688 0.67278206 -0.72134227
vn -0.07571763 0.7947034 -0.60225683
vn -0.02886964 0.94501233 -0.32575792
vn -0 1 0
vn -0.112815544 0.7405019 -0.6625177
vn -0.12943198 0.70785254 -0.6944006
vn -0.071993954 0.845518 -0.5290711
vn -0.03795671 0.94948417 -0.311511
vn -0.09593278 0.75931364 -0.64361453
vn -0.06429528 0.860827 -0.50481975
vn -0.08152641 0.94676757 -0.31142333
vn -0 1 0
vn -0.17856188 0.80059266 -0.5719852
vn -0.12519665 0.87834746 -0.46133667
vn -0.14494134 0.9435517 -0.29782897
vn -0 1 0
vn -0.26779878 0.8234704 -0.5001804
vn -0.20965953 0.8838986 -0.41805047
vn -0.20481798 0.94885224 -0.24026895
vn -0 1 0
vn -0.3421691 0.8528025 -0.3945227
vn -0.2863929 0.8988231 -0.33180743
vn -0.2526477 0.95766085 -0.13803954
vn -0.35319692 0.91374874 -0.20078656
vn -0.3997394 0.88221383 -0.24881141
vn -0.42124712 0.9040016 -0.07301966
g valley_ramp02_COL_0
f 3/3/3 2/2/2 1/1/1
f 3/3/3 4/4/4 2/2/2
f 2/2/2 5/5/5 1/1/1
f 1/1/1 5/5/5 6/6/6
f 4/4/4 7/7/7 2/2/2
f 4/4/4 8/8/8 7/7/7
f 5/5/5 9/9/9 6/6/6
f 6/6/6 9/9/9 10/10/10
f 2/2/2 11/11/11 5/5/5
f 2/2/2 7/7/7 11/11/11
f 8/8/8 12/12/12 7/7/7
f 8/8/8 13/13/13 12/12/12
f 9/9/9 14/14/14 10/10/10
f 10/10/10 14/14/14 15/15/15
f 5/5/5 16/16/16 9/9/9
f 11/11/11 16/16/16 5/5/5
f 7/7/7 17/17/17 11/11/11
f 7/7/7 12/12/12 17/17/17
f 13/13/13 18/18/18 12/12/12
f 13/13/13 19/19/19 18/18/18
f 14/14/14 20/20/20 15/15/15
f 15/15/15 20/20/20 21/21/21
f 9/9/9 22/22/22 14/14/14
f 16/16/16 22/22/22 9/9/9
f 11/11/11 23/23/23 16/16/16
f 11/11/11 17/17/17 23/23/23
f 12/12/12 24/24/24 17/17/17
f 12/12/12 18/18/18 24/24/24
f 19/19/19 25/25/25 18/18/18
f 19/19/19 26/26/26 25/25/25
f 20/20/20 27/27/27 21/21/21
f 21/21/21 27/27/27 28/28/28
f 16/16/16 29/29/29 22/22/22
f 23/23/23 29/29/29 16/16/16
f 17/17/17 30/30/30 23/23/23
f 17/17/17 24/24/24 30/30/30
f 18/18/18 31/31/31 24/24/24
f 18/18/18 25/25/25 31/31/31
f 26/26/26 32/32/32 25/25/25
f 26/26/26 33/33/33 32/32/32
f 23/23/23 34/34/34 29/29/29
f 23/23/23 30/30/30 34/34/34
f 29/29/29 35/35/35 22/22/22
f 29/29/29 34/34/34 35/35/35
f 30/30/30 36/36/36 34/34/34
f 35/35/35 34/34/34 37/37/37
f 37/37/37 34/34/34 38/38/38
f 24/24/24 39/39/39 30/30/30
f 30/30/30 39/39/39 36/36/36
f 39/39/39 40/40/40 36/36/36
f 24/24/24 31/31/31 39/39/39
f 22/22/22 35/35/35 41/41/41
f 35/35/35 37/37/37 41/41/41
f 22/22/22 41/41/41 14/14/14
f 14/14/14 41/41/41 20/20/20
f 39/39/39 42/42/42 40/40/40
f 31/31/31 42/42/42 39/39/39
f 42/42/42 43/43/43 40/40/40
f 41/41/41 37/37/37 44/44/44
f 41/41/41 44/44/44 20/20/20
f 37/37/37 38/38/38 44/44/44
f 20/20/20 44/44/44 27/27/27
f 31/31/31 45/45/45 42/42/42
f 25/25/25 45/45/45 31/31/31
f 25/25/25 32/32/32 45/45/45
f 42/42/42 46/46/46 43/43/43
f 45/45/45 46/46/46 42/42/42
f 46/46/46 47/47/47 43/43/43
f 44/44/44 38/38/38 48/48/48
f 44/44/44 48/48/48 27/27/27
f 32/32/32 49/49/49 45/45/45
f 45/45/45 49/49/49 46/46/46
f 46/46/46 50/50/50 47/47/47
f 49/49/49 50/50/50 46/46/46
f 50/50/50 51/51/51 47/47/47
f 32/32/32 52/52/52 49/49/49
f 33/33/33 52/52/52 32/32/32
f 50/50/50 53/53/53 51/51/51
f 53/53/53 54/54/54 51/51/51
f 49/49/49 55/55/55 50/50/50
f 55/55/55 53/53/53 50/50/50
f 52/52/52 55/55/55 49/49/49
f 56/56/56 52/52/52 33/33/33
f 57/57/57 56/56/56 33/33/33
f 58/58/58 53/53/53 55/55/55
f 58/58/58 54/54/54 53/53/53
f 59/59/59 55/55/55 52/52/52
f 59/59/59 58/58/58 55/55/55
f 56/56/56 59/59/59 52/52/52
f 60/60/60 56/56/56 57/57/57
f 61/61/61 60/60/60 57/57/57
f 62/62/62 54/54/54 58/58/58
f 62/62/62 58/58/58 59/59/59
f 63/63/63 59/59/59 56/56/56
f 63/63/63 62/62/62 59/59/59
f 60/60/60 63/63/63 56/56/56
f 64/64/64 54/54/54 62/62/62
f 64/64/64 62/62/62 63/63/63
f 65/65/65 54/54/54 64/64/64
f 66/66/66 54/54/54 65/65/65
f 67/67/67 64/64/64 63/63/63
f 67/67/67 63/63/63 60/60/60
f 65/65/65 64/64/64 67/67/67
f 68/68/68 60/60/60 61/61/61
f 68/68/68 67/67/67 60/60/60
f 69/69/69 68/68/68 61/61/61
f 70/70/70 65/65/65 67/67/67
f 70/70/70 67/67/67 68/68/68
f 66/66/66 65/65/65 70/70/70
f 71/71/71 68/68/68 69/69/69
f 71/71/71 70/70/70 68/68/68
f 72/72/72 71/71/71 69/69/69
f 73/73/73 66/66/66 70/70/70
f 73/73/73 70/70/70 71/71/71
f 74/74/74 71/71/71 72/72/72
f 74/74/74 73/73/73 71/71/71
f 75/75/75 74/74/74 72/72/72
f 76/76/76 66/66/66 73/73/73
f 76/76/76 54/54/54 66/66/66
f 77/77/77 74/74/74 75/75/75
f 78/78/78 77/77/77 75/75/75
f 79/79/79 73/73/73 74/74/74
f 79/79/79 76/76/76 73/73/73
f 77/77/77 79/79/79 74/74/74
f 80/80/80 77/77/77 78/78/78
f 81/81/81 80/80/80 78/78/78
f 82/82/82 76/76/76 79/79/79
f 82/82/82 54/54/54 76/76/76
f 83/83/83 79/79/79 77/77/77
f 83/83/83 82/82/82 79/79/79
f 80/80/80 83/83/83 77/77/77
f 84/84/84 80/80/80 81/81/81
f 85/85/85 84/84/84 81/81/81
f 86/86/86 82/82/82 83/83/83
f 86/86/86 54/54/54 82/82/82
f 87/87/87 83/83/83 80/80/80
f 87/87/87 86/86/86 83/83/83
f 84/84/84 87/87/87 80/80/80
f 88/88/88 84/84/84 85/85/85
f 89/89/89 88/88/88 85/85/85
f 90/90/90 86/86/86 87/87/87
f 90/90/90 54/54/54 86/86/86
f 91/91/91 87/87/87 84/84/84
f 91/91/91 90/90/90 87/87/87
f 88/88/88 91/91/91 84/84/84
f 92/92/92 88/88/88 89/89/89
f 93/93/93 92/92/92 89/89/89
f 92/92/92 93/93/93 94/94/94
f 95/95/95 54/54/54 90/90/90
f 95/95/95 90/90/90 91/91/91
f 96/96/96 91/91/91 88/88/88
f 92/92/92 96/96/96 88/88/88
f 96/96/96 95/95/95 91/91/91
f 97/97/97 92/92/92 94/94/94
f 96/96/96 92/92/92 97/97/97
f 97/97/97 94/94/94 98/98/98
f 54/54/54 95/95/95 99/99/99
f 100/100/100 54/54/54 99/99/99
f 95/95/95 96/96/96 101/101/101
f 101/101/101 96/96/96 97/97/97
f 99/99/99 95/95/95 101/101/101
f 102/102/102 97/97/97 98/98/98
f 101/101/101 97/97/97 102/102/102
f 102/102/102 98/98/98 103/103/103
f 100/100/100 99/99/99 104/104/104
f 105/105/105 100/100/100 104/104/104
f 99/99/99 101/101/101 106/106/106
f 106/106/106 101/101/101 102/102/102
f 104/104/104 99/99/99 106/106/106
f 107/107/107 102/102/102 103/103/103
f 106/106/106 102/102/102 107/107/107
f 107/107/107 103/103/103 108/108/108
f 105/105/105 104/104/104 109/109/109
f 110/110/110 105/105/105 109/109/109
f 104/104/104 106/106/106 111/111/111
f 111/111/111 106/106/106 107/107/107
f 109/109/109 104/104/104 111/111/111
f 112/112/112 107/107/107 108/108/108
f 111/111/111 107/107/107 112/112/112
f 112/112/112 108/108/108 113/113/113
f 110/110/110 109/109/109 114/114/114
f 115/115/115 110/110/110 114/114/114
f 109/109/109 111/111/111 116/116/116
f 116/116/116 111/111/111 112/112/112
f 114/114/114 109/109/109 116/116/116
f 117/117/117 112/112/112 113/113/113
f 116/116/116 112/112/112 117/117/117
f 117/117/117 113/113/113 118/118/118
f 115/115/115 114/114/114 119/119/119
f 120/120/120 115/115/115 119/119/119
f 114/114/114 116/116/116 121/121/121
f 121/121/121 116/116/116 117/117/117
f 119/119/119 114/114/114 121/121/121
f 122/122/122 117/117/117 118/118/118
f 121/121/121 117/117/117 122/122/122
f 120/120/120 119/119/119 123/123/123
f 34/34/34 120/120/120 123/123/123
f 119/119/119 121/121/121 124/124/124
f 123/123/123 119/119/119 124/124/124
f 124/124/124 121/121/121 122/122/122
f 125/125/125 122/122/122 118/118/118
f 126/126/126 125/125/125 118/118/118
f 127/127/127 123/123/123 124/124/124
f 127/127/127 34/34/34 123/123/123
f 128/128/128 124/124/124 122/122/122
f 128/128/128 127/127/127 124/124/124
f 125/125/125 128/128/128 122/122/122
f 129/129/129 125/125/125 126/126/126
f 130/130/130 129/129/129 126/126/126
f 131/131/131 127/127/127 128/128/128
f 131/131/131 34/34/34 127/127/127
f 132/132/132 128/128/128 125/125/125
f 132/132/132 131/131/131 128/128/128
f 129/129/129 132/132/132 125/125/125
f 133/133/133 129/129/129 130/130/130
f 134/134/134 133/133/133 130/130/130
f 135/135/135 131/131/131 132/132/132
f 135/135/135 34/34/34 131/131/131
f 136/136/136 132/132/132 129/129/129
f 136/136/136 135/135/135 132/132/132
f 133/133/133 136/136/136 129/129/129
f 137/137/137 133/133/133 134/134/134
f 28/28/28 137/137/137 134/134/134
f 27/27/27 137/137/137 28/28/28
f 27/27/27 48/48/48 137/137/137
f 137/137/137 138/138/138 133/133/133
f 138/138/138 136/136/136 133/133/133
f 48/48/48 138/138/138 137/137/137
f 139/139/139 135/135/135 136/136/136
f 139/139/139 34/34/34 135/135/135
f 138/138/138 139/139/139 136/136/136
f 48/48/48 140/140/140 138/138/138
f 140/140/140 139/139/139 138/138/138
f 140/140/140 34/34/34 139/139/139
f 38/38/38 140/140/140 48/48/48
f 38/38/38 34/34/34 140/140/140
