g valley_rockPillar01_COL
v 2.862078 12.319929 -0.9172958
v 3.1450064 14.360071 -1.9954511
v 1.8283653 13.717016 -1.7931671
v 1.0569191 13.694295 -2.5373726
v 1.222101 11.835059 -1.5105703
v 0.03330612 11.82004 -1.281311
v 0.98529184 10.135677 -1.533577
v 3.2700434 13.470644 -1.0534405
v 3.819431 15.25544 -1.8176434
v 1.4085174 15.416491 -2.8589044
v 3.20656 12.188625 0.2704589
v 4.5354347 14.678252 -0.49424744
v 2.1416132 9.868084 -1.070359
v 3.282909 11.179842 -0.07834753
v 4.752693 15.663635 0.15866852
v 4.3451366 14.349403 1.1907873
v 3.158699 10.961263 1.1945572
v 2.840252 12.222102 1.5703087
v 2.718441 9.306819 0.8028488
v 2.752348 9.63201 -0.066114426
v 3.2115498 8.359407 0.2859764
v 2.4780426 11.08768 2.0251427
v 1.9670167 8.1422615 2.0719519
v 2.7576103 8.646897 1.4608688
v 2.2802238 5.5216293 0.65047836
v 4.131214 15.127031 2.4473686
v 3.393814 14.116937 2.553032
v 0.8744278 11.236081 2.0349045
v 2.0403843 13.993319 2.7657032
v 2.8603325 15.220706 2.7604942
v 1.2824621 9.381441 2.121046
v 3.7303505 16.384531 1.5694618
v 3.9558945 16.521591 0.4079857
v 3.955207 16.307682 -0.91299003
v 2.9813957 16.674263 -1.0236946
v 1.905135 16.358646 -1.9999384
v 0.54055405 16.668184 -2.14122
v 0.23993683 17.081621 -0.7772827
v -0.4969597 15.477874 -3.492962
v 1.4907722 16.599281 2.1875763
v -0.1035614 17.044336 1.5494766
v 1.1636238 15.113463 3.5171242
v -1.2359428 16.481527 2.2886238
v -1.3462982 16.640951 -2.313221
v -1.5382357 17.121515 -1.095561
v -2.273697 16.570276 0.96949005
v -0.4921379 15.112433 3.6670113
v -1.0098534 13.260931 3.1412787
v -1.4967788 15.689288 -2.58226
v -1.7813606 16.672056 -1.6213303
v -2.3610306 16.492378 -0.14409637
v -3.0198898 14.9444065 -0.023750305
v -2.3439636 15.029487 2.6035728
v -2.6489525 15.029648 -1.1153336
v -1.5720444 14.06349 -2.5257683
v -1.6019173 14.622373 3.3093739
v -2.2250793 13.3741255 2.2672093
v -2.5372849 13.274048 0.25221634
v -2.1388435 13.39573 -1.1502914
v -0.62079144 12.238546 2.3902388
v -0.73719025 14.121692 -3.207016
v -0.1981303 13.446025 -2.3749924
v -0.70412445 12.539572 -1.8409004
v -0.63871765 11.932436 1.3685837
v -0.7773895 11.511944 0.4587021
v -0.13191605 9.303446 1.0702362
v -0.39500046 10.833119 -0.6985283
v -0.55303764 8.939232 -0.23791122
v 0.3469162 8.125959 2.204342
v 0.26429558 9.963503 -1.124918
v 1.4510155 8.670627 -2.1987648
v -0.9649078 7.4124207 0.16491394
v 0.01600647 5.5992436 0.9928398
v 0.7360878 7.117715 2.0992432
v 1.6284549 6.0018897 1.4982402
v 0.23149109 8.523218 -1.9729424
v 2.5825844 8.543288 -1.4062004
v -0.6538429 6.7549186 -0.7769661
v 1.6362343 7.615757 -2.1063843
v 2.934147 7.6308684 -0.9377556
v 2.5031319 5.6743937 -0.3590622
v -0.58478546 6.2619414 -0.058856964
v 0.5264374 5.7799373 -1.4574264
v 1.4728574 5.632677 -1.4421039
v -0.34626755 2.9089577 -0.83284277
v 0.8203974 2.8843048 -1.4627446
v 1.8028042 3.2452521 -1.2549539
v 0.19433716 1.2003739 -2.8389473
v 2.4425104 3.1428185 -0.062251262
v -0.5091858 4.658186 -0.015598297
v -0.61924 2.3385115 1.2970415
v -0.25949436 2.156577 -1.6518807
v -0.9218183 2.1741536 -0.016671099
v -1.9927796 1.6941776 0.022014484
v 3.0218074 1.237411 -2.2464995
v 1.2786558 4.5926814 1.240682
v 2.0657947 3.1044092 0.80622286
v -2.9962769 0.40433526 -0.81002045
v 0.49506658 2.8644092 1.4589043
v 0.8279983 2.0027297 2.8126197
v -0.6594976 1.7474455 2.5319748
v 3.0816407 2.1679974 0.66978955
v 2.9503746 1.4098196 1.8251381
v 3.2430232 1.5499688 -0.051883034
v 1.5489197 1.1413183 3.3447227
v 3.7599792 0.81323814 0.80737305
v 3.791954 0.53826505 -1.1574249
v 3.0214386 0.1602336 2.7552567
v -2.2833102 1.1007441 2.007828
v -2.8631477 0.8218574 0.336277
v -3.0299492 -0.08307921 2.0729675
v -2.2624671 0.57481104 2.914357
v -0.67061937 0.54526913 3.9664397
v 0.64362335 -0.019528264 4.1813393
v -2.0425034 -0.4638117 3.2540092
v -0.74432373 -0.5370356 3.9096146
v -1.2672825 -0.88825077 3.2696943
v 3.7951431 -0.58821946 1.5098915
v 2.5174675 -1.3497674 2.2660131
v 3.7498627 -1.8542247 0.7508316
v 4.1533318 -0.76462233 0.31736755
v 1.1994591 -1.1606805 2.983612
v -0.89726067 -1.7642945 2.8102837
v 3.7899399 -0.91568726 -1.3218894
v 3.2518845 -2.1137433 -1.3200035
v 3.242073 -0.50645274 -2.5256805
v 2.1365166 -2.2319183 2.1339073
v 1.7815018 0.742019 -3.3792381
v -2.9113045 -0.6841954 2.2009506
v -2.336628 -2.6798847 0.84625244
v 0.30316162 -2.4694486 2.4091187
v 2.1529846 -0.4272316 -3.333191
v -3.0912743 -1.0557287 -1.0172234
v -2.140396 0.3473723 -2.067047
v 0.038708862 0.48827776 -3.7406418
v 0.98926544 -0.58517325 -3.5502968
v 0.16950607 -3.2894373 1.7439728
v -0.7231903 -0.4135189 -3.4713593
v -1.0466805 -0.9010965 -2.8656693
v -2.2498627 -0.7251774 -2.1284523
v -2.156147 -2.5740373 -0.6749153
v 0.3001747 -1.2465097 -2.8397522
v 0.5953598 -2.330884 -2.4752808
v 0.070568085 -3.4295988 -1.4652672
v -0.72323227 -3.3129961 0.9442177
v 0.9904747 -4.0174336 0.48825455
v 1.7143784 -3.6668212 -1.1459694
v 3.1417198 -3.5733466 -0.007900238
v 2.7850075 -3.4620407 0.87683487
vn 0.6000252 -0.24193707 -0.7625197
vn 0.41793635 -0.33541572 -0.84429
vn 0.3823938 -0.50828713 -0.77163404
vn 0.29808703 -0.3842824 -0.87376827
vn 0.17672355 -0.20743799 -0.9621529
vn -0.473752 -0.5203003 -0.7105255
vn 0.024080833 0.1131303 -0.99328834
vn 0.75193876 -0.45784408 -0.47430667
vn 0.61241573 0.19940673 -0.7649731
vn 0.3341029 0.14229049 -0.9317342
vn 0.9445768 -0.32821813 -0.006893627
vn 0.8931233 -0.34728456 -0.28587466
vn 0.6404473 0.11058064 -0.7599995
vn 0.9286346 -0.15366092 -0.33767745
vn 0.97093683 0.2393361 -1.8739252E-05
vn 0.8961638 -0.39051256 0.2106903
vn 0.9193488 -0.16724493 0.35612765
vn 0.63130826 -0.34836835 0.69288486
vn 0.9425973 -0.06488689 0.32756698
vn 0.9353857 -0.08532348 -0.3431816
vn 0.9903438 -0.059364628 0.12527975
vn 0.43537027 0.037528373 0.8994689
vn 0.54050153 -0.17436466 0.8230765
vn 0.79754746 -0.05432337 0.6008054
vn 0.86485463 -0.1802491 0.4685475
vn 0.7428764 0.16768532 0.64808655
vn 0.51719064 -0.42236555 0.7443932
vn -0.11706205 -0.22457735 0.96739936
vn 0.2428193 -0.37842578 0.8932148
vn 0.35966197 0.46360072 0.80976397
vn -0.22112228 0.055063065 0.97369045
vn 0.28562307 0.8709683 0.39979222
vn 0.3518317 0.920722 0.16877598
vn 0.56746536 0.6313076 -0.52861506
vn 0.28198898 0.8849732 -0.37054634
vn 0.3212777 0.63286287 -0.7044609
vn 0.10101456 0.85452354 -0.50949544
vn 0.09585575 0.993238 -0.065497786
vn -0.06791536 0.31567827 -0.9464326
vn 0.21098256 0.8130266 0.54265463
vn 0.013356395 0.9806724 0.19520083
vn 0.18881829 0.18979135 0.9634973
vn -0.35310093 0.67620695 0.6465787
vn -0.106253766 0.7040891 -0.70211715
vn -0.17906722 0.9809986 -0.0746776
vn -0.62681293 0.72427154 0.28729126
vn -0.089458935 0.32408032 0.9417903
vn -0.081679605 -0.4859411 0.87016654
vn -0.6335244 0.29720464 -0.7143642
vn -0.81203574 0.41949594 -0.40573514
vn -0.85154635 0.5062124 -0.13644704
vn -0.9992667 0.03719751 0.009076299
vn -0.7892536 0.3235305 0.521926
vn -0.899951 0.045965225 -0.4335613
vn -0.6615569 -0.3916394 -0.6395006
vn -0.50360256 -0.063440375 0.8616031
vn -0.80418205 -0.4936784 0.3310179
vn -0.83457893 -0.54882133 -0.047677297
vn -0.73685014 -0.5352845 -0.41294348
vn -0.20389433 -0.64393103 0.7374144
vn -0.10389303 -0.41080168 -0.905786
vn -0.18237172 -0.6445703 -0.74247533
vn -0.42452 -0.6518488 -0.6283915
vn -0.6878064 -0.5583945 0.46380818
vn -0.8771641 -0.47439072 -0.074408166
vn -0.8118744 0.019773556 0.5834972
vn -0.83988863 -0.029637497 -0.5419488
vn -0.9789065 0.11604097 -0.16815618
vn -0.61887705 0.04105656 0.7844142
vn -0.6524797 0.15925112 -0.7408842
vn 0.18579212 0.26590478 -0.945926
vn -0.95234627 -0.024647681 0.30402133
vn -0.6262512 -0.08106508 0.7753954
vn -0.11096065 -0.33258876 0.9365215
vn 0.3028501 -0.35647163 0.8838608
vn -0.6031772 0.106022 -0.7905293
vn 0.7883625 0.22957192 -0.5707726
vn -0.808465 -0.16628517 -0.5645649
vn 0.23845488 -0.23650452 -0.9419155
vn 0.8641734 -0.21161194 -0.45653555
vn 0.932522 -0.17765553 -0.3143902
vn -0.9599135 -0.15748557 -0.23187144
vn -0.5031123 -0.08324867 -0.86020213
vn 0.45435026 -0.13126457 -0.881099
vn -0.6984001 0.22793517 -0.6784414
vn -0.25337017 0.3598433 -0.8979512
vn 0.5274077 0.34873736 -0.7747409
vn -0.21715148 0.6884794 -0.69198364
vn 0.95011616 0.27921885 -0.13898198
vn -0.981105 0.11322894 0.15688261
vn -0.6758201 0.54925895 0.4915096
vn -0.4807222 0.63098 -0.6089092
vn -0.8027543 0.59025306 -0.08477541
vn -0.58259785 0.799649 -0.14540054
vn 0.5597616 0.5091676 -0.6537701
vn 0.14141268 0.009684255 0.98990333
vn 0.60047626 0.39215705 0.69687957
vn -0.86887956 0.38861784 -0.30663413
vn -0.0662197 0.5658107 0.8218718
vn 0.12607312 0.7047366 0.69817764
vn -0.29847753 0.8105364 0.5039266
vn 0.8562293 0.46483496 0.22538795
vn 0.63396347 0.55807036 0.53539515
vn 0.86876523 0.4876198 -0.08645108
vn 0.34607047 0.5458672 0.7630625
vn 0.9008209 0.39539593 0.17939875
vn 0.92183673 0.30875865 -0.23427601
vn 0.6732111 -0.02264348 0.73910356
vn -0.5912785 0.7632282 0.2605236
vn -0.8469598 0.5301389 0.0401457
vn -0.97948724 0.013130572 0.20107786
vn -0.5970449 0.4930362 0.63281333
vn -0.21704887 0.54839534 0.8075594
vn 0.2158697 -0.20587587 0.95447123
vn -0.59648085 -0.28358078 0.7508612
vn -0.19071764 -0.42087922 0.88684124
vn -0.09481458 -0.63003737 0.7707549
vn 0.84935784 -0.11969162 0.5140674
vn 0.5480054 -0.4094759 0.7293968
vn 0.8867977 -0.37671423 0.26772422
vn 0.99859375 -0.05289691 0.003513008
vn 0.16454516 -0.583834 0.79502374
vn -0.2710256 -0.6355374 0.72293663
vn 0.92910916 -0.20440818 -0.3081777
vn 0.6340894 -0.53157246 -0.5615704
vn 0.7168103 -0.14792414 -0.6813967
vn 0.3815266 -0.5374076 0.75208414
vn 0.28786007 0.5461991 -0.78664047
vn -0.7021552 -0.49053735 0.5160921
vn -0.7376145 -0.6214542 0.26404437
vn -0.0590872 -0.61101353 0.7894119
vn 0.38696238 -0.3978263 -0.8318619
vn -0.9518223 -0.2465885 -0.18228681
vn -0.60679996 0.5741052 -0.54972446
vn -0.2398149 0.42842808 -0.8711706
vn 0.12443906 -0.39394844 -0.91066986
vn -0.07276738 -0.74969107 0.6577752
vn -0.47806123 -0.16302967 -0.86306363
vn -0.46218985 -0.50821316 -0.7267049
vn -0.61965996 -0.3052841 -0.723065
vn -0.55676657 -0.72858393 -0.39896914
vn -0.08912633 -0.46027145 -0.8832931
vn 0.12604104 -0.6330182 -0.76380736
vn -0.24644028 -0.8123268 -0.5285757
vn -0.37541562 -0.92454505 0.06541847
vn -0.048998427 -0.9790469 0.19765185
vn 0.19735414 -0.74998206 -0.63133055
vn 0.68257767 -0.7041962 -0.19543631
vn 0.41812232 -0.67722917 0.6054208
g valley_rockPillar01_COL_0
f 3/3/3 2/2/2 1/1/1
f 2/2/2 3/3/3 4/4/4
f 5/5/5 4/4/4 3/3/3
f 5/5/5 3/3/3 1/1/1
f 6/6/6 4/4/4 5/5/5
f 7/7/7 5/5/5 1/1/1
f 7/7/7 6/6/6 5/5/5
f 2/2/2 8/8/8 1/1/1
f 8/8/8 2/2/2 9/9/9
f 4/4/4 10/10/10 2/2/2
f 9/9/9 2/2/2 10/10/10
f 11/11/11 1/1/1 8/8/8
f 8/8/8 9/9/9 12/12/12
f 11/11/11 8/8/8 12/12/12
f 1/1/1 13/13/13 7/7/7
f 1/1/1 11/11/11 14/14/14
f 1/1/1 14/14/14 13/13/13
f 15/15/15 12/12/12 9/9/9
f 16/16/16 11/11/11 12/12/12
f 12/12/12 15/15/15 16/16/16
f 14/14/14 11/11/11 17/17/17
f 16/16/16 18/18/18 11/11/11
f 11/11/11 18/18/18 17/17/17
f 17/17/17 19/19/19 14/14/14
f 20/20/20 13/13/13 14/14/14
f 20/20/20 14/14/14 19/19/19
f 21/21/21 13/13/13 20/20/20
f 20/20/20 19/19/19 21/21/21
f 22/22/22 17/17/17 18/18/18
f 22/22/22 19/19/19 17/17/17
f 23/23/23 19/19/19 22/22/22
f 21/21/21 19/19/19 24/24/24
f 23/23/23 24/24/24 19/19/19
f 21/21/21 24/24/24 25/25/25
f 24/24/24 23/23/23 25/25/25
f 16/16/16 15/15/15 26/26/26
f 27/27/27 18/18/18 16/16/16
f 27/27/27 16/16/16 26/26/26
f 22/22/22 18/18/18 28/28/28
f 27/27/27 29/29/29 18/18/18
f 29/29/29 28/28/28 18/18/18
f 27/27/27 26/26/26 30/30/30
f 27/27/27 30/30/30 29/29/29
f 31/31/31 23/23/23 22/22/22
f 22/22/22 28/28/28 31/31/31
f 32/32/32 26/26/26 15/15/15
f 30/30/30 26/26/26 32/32/32
f 33/33/33 32/32/32 15/15/15
f 30/30/30 32/32/32 33/33/33
f 34/34/34 33/33/33 15/15/15
f 15/15/15 9/9/9 34/34/34
f 34/34/34 9/9/9 35/35/35
f 34/34/34 35/35/35 33/33/33
f 9/9/9 36/36/36 35/35/35
f 10/10/10 36/36/36 9/9/9
f 37/37/37 35/35/35 36/36/36
f 36/36/36 10/10/10 37/37/37
f 38/38/38 33/33/33 35/35/35
f 35/35/35 37/37/37 38/38/38
f 10/10/10 39/39/39 37/37/37
f 10/10/10 4/4/4 39/39/39
f 33/33/33 40/40/40 30/30/30
f 38/38/38 41/41/41 33/33/33
f 41/41/41 40/40/40 33/33/33
f 42/42/42 30/30/30 40/40/40
f 42/42/42 29/29/29 30/30/30
f 40/40/40 41/41/41 43/43/43
f 43/43/43 42/42/42 40/40/40
f 37/37/37 44/44/44 38/38/38
f 41/41/41 38/38/38 45/45/45
f 44/44/44 45/45/45 38/38/38
f 41/41/41 46/46/46 43/43/43
f 46/46/46 41/41/41 45/45/45
f 43/43/43 47/47/47 42/42/42
f 43/43/43 46/46/46 47/47/47
f 29/29/29 42/42/42 48/48/48
f 48/48/48 42/42/42 47/47/47
f 44/44/44 37/37/37 49/49/49
f 37/37/37 39/39/39 49/49/49
f 44/44/44 50/50/50 45/45/45
f 44/44/44 49/49/49 50/50/50
f 45/45/45 51/51/51 46/46/46
f 51/51/51 45/45/45 50/50/50
f 52/52/52 46/46/46 51/51/51
f 52/52/52 51/51/51 50/50/50
f 47/47/47 46/46/46 53/53/53
f 46/46/46 52/52/52 53/53/53
f 49/49/49 54/54/54 50/50/50
f 50/50/50 54/54/54 52/52/52
f 39/39/39 55/55/55 49/49/49
f 54/54/54 49/49/49 55/55/55
f 53/53/53 56/56/56 47/47/47
f 56/56/56 48/48/48 47/47/47
f 57/57/57 56/56/56 53/53/53
f 56/56/56 57/57/57 48/48/48
f 53/53/53 52/52/52 57/57/57
f 57/57/57 52/52/52 58/58/58
f 59/59/59 52/52/52 54/54/54
f 59/59/59 54/54/54 55/55/55
f 59/59/59 58/58/58 52/52/52
f 57/57/57 60/60/60 48/48/48
f 58/58/58 60/60/60 57/57/57
f 48/48/48 60/60/60 29/29/29
f 60/60/60 28/28/28 29/29/29
f 55/55/55 39/39/39 61/61/61
f 39/39/39 4/4/4 61/61/61
f 61/61/61 62/62/62 55/55/55
f 62/62/62 59/59/59 55/55/55
f 62/62/62 61/61/61 4/4/4
f 62/62/62 63/63/63 59/59/59
f 62/62/62 4/4/4 63/63/63
f 58/58/58 59/59/59 63/63/63
f 4/4/4 6/6/6 63/63/63
f 63/63/63 6/6/6 58/58/58
f 28/28/28 60/60/60 64/64/64
f 64/64/64 60/60/60 58/58/58
f 65/65/65 58/58/58 6/6/6
f 65/65/65 64/64/64 58/58/58
f 66/66/66 28/28/28 64/64/64
f 64/64/64 65/65/65 66/66/66
f 31/31/31 28/28/28 66/66/66
f 6/6/6 67/67/67 65/65/65
f 7/7/7 67/67/67 6/6/6
f 65/65/65 67/67/67 68/68/68
f 66/66/66 65/65/65 68/68/68
f 31/31/31 66/66/66 69/69/69
f 31/31/31 69/69/69 23/23/23
f 67/67/67 7/7/7 70/70/70
f 68/68/68 67/67/67 70/70/70
f 70/70/70 7/7/7 71/71/71
f 7/7/7 13/13/13 71/71/71
f 69/69/69 66/66/66 72/72/72
f 72/72/72 66/66/66 68/68/68
f 72/72/72 73/73/73 69/69/69
f 23/23/23 69/69/69 74/74/74
f 74/74/74 69/69/69 73/73/73
f 75/75/75 23/23/23 74/74/74
f 75/75/75 74/74/74 73/73/73
f 25/25/25 23/23/23 75/75/75
f 76/76/76 68/68/68 70/70/70
f 76/76/76 70/70/70 71/71/71
f 71/71/71 13/13/13 77/77/77
f 21/21/21 77/77/77 13/13/13
f 68/68/68 78/78/78 72/72/72
f 78/78/78 68/68/68 76/76/76
f 71/71/71 77/77/77 79/79/79
f 79/79/79 76/76/76 71/71/71
f 80/80/80 77/77/77 21/21/21
f 80/80/80 79/79/79 77/77/77
f 80/80/80 21/21/21 81/81/81
f 25/25/25 81/81/81 21/21/21
f 80/80/80 81/81/81 79/79/79
f 82/82/82 72/72/72 78/78/78
f 82/82/82 73/73/73 72/72/72
f 76/76/76 83/83/83 78/78/78
f 76/76/76 79/79/79 83/83/83
f 82/82/82 78/78/78 83/83/83
f 84/84/84 79/79/79 81/81/81
f 84/84/84 83/83/83 79/79/79
f 83/83/83 85/85/85 82/82/82
f 84/84/84 86/86/86 83/83/83
f 86/86/86 85/85/85 83/83/83
f 87/87/87 84/84/84 81/81/81
f 84/84/84 87/87/87 86/86/86
f 87/87/87 88/88/88 86/86/86
f 87/87/87 81/81/81 89/89/89
f 81/81/81 25/25/25 89/89/89
f 90/90/90 73/73/73 82/82/82
f 82/82/82 85/85/85 90/90/90
f 73/73/73 90/90/90 91/91/91
f 85/85/85 86/86/86 92/92/92
f 86/86/86 88/88/88 92/92/92
f 90/90/90 85/85/85 93/93/93
f 93/93/93 91/91/91 90/90/90
f 92/92/92 93/93/93 85/85/85
f 93/93/93 92/92/92 94/94/94
f 93/93/93 94/94/94 91/91/91
f 87/87/87 89/89/89 95/95/95
f 87/87/87 95/95/95 88/88/88
f 73/73/73 91/91/91 96/96/96
f 96/96/96 75/75/75 73/73/73
f 96/96/96 25/25/25 75/75/75
f 25/25/25 96/96/96 97/97/97
f 25/25/25 97/97/97 89/89/89
f 88/88/88 98/98/98 92/92/92
f 92/92/92 98/98/98 94/94/94
f 91/91/91 99/99/99 96/96/96
f 99/99/99 97/97/97 96/96/96
f 99/99/99 91/91/91 100/100/100
f 100/100/100 97/97/97 99/99/99
f 91/91/91 94/94/94 101/101/101
f 101/101/101 100/100/100 91/91/91
f 97/97/97 102/102/102 89/89/89
f 103/103/103 97/97/97 100/100/100
f 103/103/103 102/102/102 97/97/97
f 102/102/102 104/104/104 89/89/89
f 104/104/104 102/102/102 103/103/103
f 95/95/95 89/89/89 104/104/104
f 105/105/105 100/100/100 101/101/101
f 100/100/100 105/105/105 103/103/103
f 104/104/104 103/103/103 106/106/106
f 95/95/95 104/104/104 107/107/107
f 106/106/106 107/107/107 104/104/104
f 105/105/105 108/108/108 103/103/103
f 108/108/108 106/106/106 103/103/103
f 109/109/109 101/101/101 94/94/94
f 109/109/109 94/94/94 110/110/110
f 110/110/110 111/111/111 109/109/109
f 98/98/98 110/110/110 94/94/94
f 110/110/110 98/98/98 111/111/111
f 101/101/101 109/109/109 112/112/112
f 109/109/109 111/111/111 112/112/112
f 105/105/105 101/101/101 113/113/113
f 113/113/113 101/101/101 112/112/112
f 108/108/108 105/105/105 114/114/114
f 114/114/114 105/105/105 113/113/113
f 112/112/112 115/115/115 113/113/113
f 112/112/112 111/111/111 115/115/115
f 114/114/114 113/113/113 116/116/116
f 115/115/115 116/116/116 113/113/113
f 114/114/114 116/116/116 117/117/117
f 116/116/116 115/115/115 117/117/117
f 118/118/118 106/106/106 108/108/108
f 119/119/119 108/108/108 114/114/114
f 108/108/108 119/119/119 118/118/118
f 118/118/118 119/119/119 120/120/120
f 106/106/106 118/118/118 121/121/121
f 120/120/120 121/121/121 118/118/118
f 121/121/121 107/107/107 106/106/106
f 117/117/117 122/122/122 114/114/114
f 119/119/119 114/114/114 122/122/122
f 117/117/117 115/115/115 123/123/123
f 117/117/117 123/123/123 122/122/122
f 124/124/124 107/107/107 121/121/121
f 124/124/124 121/121/121 120/120/120
f 120/120/120 125/125/125 124/124/124
f 124/124/124 126/126/126 107/107/107
f 124/124/124 125/125/125 126/126/126
f 95/95/95 107/107/107 126/126/126
f 119/119/119 122/122/122 127/127/127
f 127/127/127 120/120/120 119/119/119
f 95/95/95 126/126/126 128/128/128
f 95/95/95 128/128/128 88/88/88
f 129/129/129 123/123/123 115/115/115
f 123/123/123 129/129/129 130/130/130
f 115/115/115 111/111/111 129/129/129
f 130/130/130 129/129/129 111/111/111
f 131/131/131 122/122/122 123/123/123
f 131/131/131 127/127/127 122/122/122
f 130/130/130 131/131/131 123/123/123
f 126/126/126 132/132/132 128/128/128
f 125/125/125 132/132/132 126/126/126
f 133/133/133 130/130/130 111/111/111
f 111/111/111 98/98/98 133/133/133
f 98/98/98 88/88/88 134/134/134
f 98/98/98 134/134/134 133/133/133
f 128/128/128 135/135/135 88/88/88
f 134/134/134 88/88/88 135/135/135
f 128/128/128 136/136/136 135/135/135
f 136/136/136 128/128/128 132/132/132
f 131/131/131 137/137/137 127/127/127
f 130/130/130 137/137/137 131/131/131
f 135/135/135 138/138/138 134/134/134
f 136/136/136 138/138/138 135/135/135
f 139/139/139 134/134/134 138/138/138
f 136/136/136 139/139/139 138/138/138
f 134/134/134 140/140/140 133/133/133
f 139/139/139 140/140/140 134/134/134
f 133/133/133 140/140/140 141/141/141
f 130/130/130 133/133/133 141/141/141
f 139/139/139 141/141/141 140/140/140
f 132/132/132 142/142/142 136/136/136
f 136/136/136 142/142/142 139/139/139
f 132/132/132 143/143/143 142/142/142
f 142/142/142 143/143/143 139/139/139
f 132/132/132 125/125/125 143/143/143
f 143/143/143 144/144/144 139/139/139
f 141/141/141 139/139/139 144/144/144
f 143/143/143 125/125/125 144/144/144
f 141/141/141 145/145/145 130/130/130
f 130/130/130 145/145/145 137/137/137
f 144/144/144 145/145/145 141/141/141
f 137/137/137 145/145/145 146/146/146
f 146/146/146 145/145/145 144/144/144
f 127/127/127 137/137/137 146/146/146
f 144/144/144 125/125/125 147/147/147
f 146/146/146 144/144/144 147/147/147
f 147/147/147 125/125/125 148/148/148
f 146/146/146 147/147/147 148/148/148
f 148/148/148 125/125/125 120/120/120
f 149/149/149 120/120/120 127/127/127
f 149/149/149 127/127/127 146/146/146
f 148/148/148 120/120/120 149/149/149
f 146/146/146 148/148/148 149/149/149
