g valley_ramp01
v -6.48065 5.5558115E-07 -1.6257244
v -6.4430604 0.21424475 -0.9827651
v -6.818902 5.5557564E-07 -0.7918969
v -6.0538654 5.555879E-07 -1.2320007
v -7.1096725 5.55581E-07 -0.2199976
v -5.712048 0.34196085 -1.1367587
v -5.425489 5.555965E-07 -1.4790578
v -6.3072557 0.46049497 -0.21653546
v -4.690064 0.51514566 -0.8581212
v -4.484882 5.5669807E-07 -1.6321349
v -3.6215277 0.67686874 -1.0018669
v -4.00433 5.5560224E-07 -1.8551371
v -3.8972182 5.5558303E-07 -2.4183342
v -3.1175225 5.555822E-07 -2.2372117
v -5.233554 0.855729 -0.19033316
v -6.8825626 0.19645968 -0.011401647
v -7.489337 5.555804E-07 0.3227433
v -6.901667 5.5558263E-07 0.550384
v -5.7320933 0.6434585 0.22749513
v -6.181516 0.12650077 1.0632446
v -6.6895084 5.555822E-07 1.0883286
v -5.9882627 5.555737E-07 1.2551589
v -5.3588176 0.29161537 1.2243694
v -5.5671644 5.555805E-07 1.473981
v -5.1692696 5.555804E-07 2.0688236
v -4.1951885 1.1524351 -0.286499
v -4.817925 1.0013835 0.09242896
v -4.784408 0.50315917 0.72387254
v -4.146616 0.5734782 1.0124028
v -2.7886865 0.37837148 1.7308121
v -3.81002 5.555755E-07 2.185705
v -3.574368 5.555761E-07 2.3906696
v -2.3205168 5.555777E-07 2.2373009
v -1.5921413 5.555755E-07 2.0318403
v -1.3019181 5.555826E-07 1.7244467
v -4.0552144 1.2691926 0.061237488
v -3.379734 0.6844259 0.5886213
v -2.5126112 0.672592 0.8017826
v -2.049626 1.4131095 0.035627164
v -3.4873593 1.3980246 -0.0016593292
v -1.4721376 0.65932375 0.46611577
v -0.62293595 5.555809E-07 1.6848645
v 0.40738285 5.555828E-07 1.7794795
v -3.1491082 1.3670565 -0.13193072
v -2.412647 0.6268669 -0.5042442
v -2.2472048 0.21154653 -1.5594733
v -2.6553278 5.5558E-07 -2.011291
v -2.010022 5.555687E-07 -1.773319
v -1.3574824 5.5557825E-07 -1.8265955
v -1.6278442 0.46416363 -1.2647985
v -1.1202961 0.84452605 -0.7608327
v -0.97682357 5.555786E-07 -1.7387493
v -1.3646854 1.323037 -0.21595314
v -0.61463654 1.1835337 -0.015342665
v -0.334741 0.6241448 0.6112778
v 0.0792968 1.0316303 -0.023547309
v 0.80756897 0.44758105 0.4014683
v 1.7713852 5.555768E-07 1.6581042
v -0.041103173 0.47377628 -1.2375069
v -0.09431882 5.555761E-07 -1.8442378
v 0.54848653 5.5558337E-07 -2.3865876
v 0.21693553 0.73899376 -0.4893009
v 0.8693296 0.5957056 -0.5289937
v 0.72407603 1.1454628 -0.17552067
v 0.67852765 1.069423 -0.04688418
v 1.5483954 1.2259011 -0.25074974
v 1.5156258 0.41232565 -1.4512286
v 1.1255326 5.555779E-07 -2.1435134
v 1.916505 5.555753E-07 -1.8741137
v 2.393469 5.555763E-07 -1.7398958
v 2.119295 0.72206926 -1.0637041
v 3.2113173 0.6167494 -1.1231215
v 3.1443803 5.5557825E-07 -1.927442
v 3.6986847 5.5558024E-07 -2.1608884
v 1.5414267 1.3098545 0.025211083
v 2.36918 1.4176142 -0.1594679
v 3.9467797 0.22172338 -1.9261075
v 4.474838 5.555807E-07 -2.4020774
v 5.1713676 5.555744E-07 -2.1161408
v 4.8711147 0.20948696 -1.1804289
v 5.382915 5.5558115E-07 -1.8343905
v 3.9226234 0.59334517 -1.1719806
v 3.7816045 1.1651957 -0.002128262
v 5.563868 0.36549917 -0.8639925
v 6.0542383 5.555779E-07 -1.680964
v 6.1896286 5.5558974E-07 -1.0665224
v 6.442887 5.556052E-07 -0.75334954
v 4.656983 0.9074249 -0.27471626
v 5.566325 0.41232663 -0.27625012
v 2.7617912 1.249649 0.16163284
v 2.3621352 0.60852474 0.44639644
v 4.901421 0.8515554 0.42682585
v 5.981301 0.47135624 0.43010774
v 6.8055406 0.32583353 -0.38603246
v 6.8242526 5.5559303E-07 -0.56071377
v 3.1498895 0.8652311 0.6089532
v 7.2537794 0.16382486 -0.37791234
v 6.950849 5.5558604E-07 -0.76615506
v 7.2971325 5.5558456E-07 -0.6026564
v 7.389941 5.5558115E-07 -0.32514003
v 7.1178823 5.555786E-07 0.52475464
v 6.558275 5.555793E-07 0.78556204
v 6.156843 5.55577E-07 0.97655404
v 5.977279 5.5558024E-07 1.3481447
v 4.8841286 0.7118536 1.1713176
v 3.133996 0.38125187 1.7082549
v 5.0452123 0.35480806 1.788929
v 5.7258887 5.5558047E-07 1.8491675
v 5.4297543 5.5558246E-07 2.1780684
v 4.845441 5.555794E-07 2.5504768
v 3.4826648 5.555794E-07 2.3398612
v 2.6528416 5.5558803E-07 2.1250412
v 2.181966 5.555787E-07 2.0338006
v 1.4936306 0.5964738 0.45888078
vn -0 1 0
vn -0.33905283 0.89396596 -0.2930327
vn -0 1 0
vn -0 1 0
vn -0 1 0
vn -0.16990036 0.8440557 -0.5086294
vn -0 1 0
vn -0.37346733 0.9145477 -0.1553217
vn -0.14595455 0.80089647 -0.58074266
vn -0 1 0
vn 0.02615687 0.8393726 -0.5429268
vn -0 1 0
vn -0 1 0
vn -0 1 0
vn -0.2553704 0.90992916 -0.3268253
vn -0.39172623 0.9084969 0.14554736
vn -0 1 0
vn -0 1 0
vn -0.3008207 0.9013046 0.3117
vn -0.31854048 0.86611474 0.38519764
vn -0 1 0
vn -0 1 0
vn -0.18855844 0.90848345 0.37296578
vn -0 1 0
vn -0 1 0
vn -0.19633141 0.81905764 -0.53907204
vn -0.28085077 0.8726562 0.39949206
vn -0.20244762 0.8759325 0.43790075
vn -0.07631227 0.9040789 0.4204971
vn 0.061023377 0.912594 0.4042874
vn -0 1 0
vn -0 1 0
vn -0 1 0
vn -0 1 0
vn -0 1 0
vn -0.1323902 0.87271434 0.46993878
vn 0.0059761517 0.8434663 0.53714883
vn 0.075016156 0.8636508 0.49847752
vn 0.045803737 0.97716457 0.20748867
vn -0.059327785 0.78886867 0.61169136
vn 0.10332522 0.7715769 0.62768865
vn -0 1 0
vn -0 1 0
vn 0.1210766 0.73812324 -0.66371274
vn 0.06645653 0.7987158 -0.59802735
vn 0.0741233 0.89359426 -0.44271332
vn -0 1 0
vn -0 1 0
vn -0 1 0
vn -0.09044829 0.84410447 -0.5284949
vn -0.02383092 0.80976355 -0.58627206
vn -0 1 0
vn -0.028601378 0.83601874 -0.54795486
vn 0.15221174 0.9482851 0.27854413
vn 0.06874084 0.8547864 0.5144073
vn 0.15348715 0.97486633 0.16148429
vn 0.030104535 0.86141986 0.5070006
vn -0 1 0
vn 0.05600265 0.88991475 -0.4526758
vn -0 1 0
vn -0 1 0
vn 0.11450456 0.86674297 -0.48543316
vn -0.09000024 0.85563666 -0.5096919
vn -0.10700119 0.74628067 -0.6569748
vn -0.1273263 0.6359196 0.7611796
vn -0.23753728 0.76359487 -0.6004156
vn -0.07639632 0.9048981 -0.41871613
vn -0 1 0
vn -0 1 0
vn -0 1 0
vn -0.06289682 0.7751374 -0.62865394
vn 0.04422594 0.8252883 -0.56297714
vn -0 1 0
vn -0 1 0
vn -0.14846846 0.7359955 0.6605057
vn 0.064113975 0.92403805 -0.37688592
vn 0.06530044 0.9093423 -0.41089225
vn -0 1 0
vn -0 1 0
vn 0.1693541 0.895886 -0.4107402
vn -0 1 0
vn 0.16238615 0.87471455 -0.45662352
vn 0.15116055 0.9855365 -0.07660443
vn 0.24157825 0.9208853 -0.30595762
vn -0 1 0
vn -0 1 0
vn -0 1 0
vn 0.28087234 0.90830004 -0.31000257
vn 0.3064262 0.9348473 -0.17934196
vn -0.018001007 0.74404097 0.66789144
vn -0.16401431 0.7649161 0.6228986
vn 0.22722402 0.96792376 0.10720466
vn 0.32413748 0.9350835 0.14336537
vn 0.2458521 0.9595075 -0.13748428
vn -0 1 0
vn -0.10304454 0.88706416 0.44999903
vn 0.43428183 0.90066844 0.013984686
vn -0 1 0
vn -0 1 0
vn -0 1 0
vn -0 1 0
vn -0 1 0
vn -0 1 0
vn -0 1 0
vn 0.14329611 0.9212705 0.3615619
vn -0.15855594 0.8875341 0.43260068
vn 0.14373465 0.88910776 0.43454325
vn -0 1 0
vn -0 1 0
vn -0 1 0
vn -0 1 0
vn -0 1 0
vn -0 1 0
vn -0.10883749 0.764173 0.6357626
g valley_ramp01_0
f 3/3/3 2/2/2 1/1/1
f 2/2/2 4/4/4 1/1/1
f 3/3/3 5/5/5 2/2/2
f 4/4/4 2/2/2 6/6/6
f 7/7/7 4/4/4 6/6/6
f 2/2/2 5/5/5 8/8/8
f 2/2/2 8/8/8 6/6/6
f 6/6/6 9/9/9 7/7/7
f 10/10/10 7/7/7 9/9/9
f 11/11/11 10/10/10 9/9/9
f 10/10/10 11/11/11 12/12/12
f 11/11/11 13/13/13 12/12/12
f 11/11/11 14/14/14 13/13/13
f 6/6/6 15/15/15 9/9/9
f 15/15/15 6/6/6 8/8/8
f 5/5/5 16/16/16 8/8/8
f 5/5/5 17/17/17 16/16/16
f 18/18/18 16/16/16 17/17/17
f 8/8/8 16/16/16 19/19/19
f 8/8/8 19/19/19 15/15/15
f 16/16/16 18/18/18 20/20/20
f 19/19/19 16/16/16 20/20/20
f 20/20/20 18/18/18 21/21/21
f 21/21/21 22/22/22 20/20/20
f 22/22/22 23/23/23 20/20/20
f 19/19/19 20/20/20 23/23/23
f 24/24/24 23/23/23 22/22/22
f 24/24/24 25/25/25 23/23/23
f 26/26/26 9/9/9 15/15/15
f 11/11/11 9/9/9 26/26/26
f 15/15/15 19/19/19 27/27/27
f 15/15/15 27/27/27 26/26/26
f 19/19/19 23/23/23 28/28/28
f 19/19/19 28/28/28 27/27/27
f 28/28/28 23/23/23 29/29/29
f 29/29/29 23/23/23 25/25/25
f 29/29/29 27/27/27 28/28/28
f 25/25/25 30/30/30 29/29/29
f 25/25/25 31/31/31 30/30/30
f 31/31/31 32/32/32 30/30/30
f 30/30/30 32/32/32 33/33/33
f 34/34/34 30/30/30 33/33/33
f 34/34/34 35/35/35 30/30/30
f 29/29/29 36/36/36 27/27/27
f 36/36/36 26/26/26 27/27/27
f 37/37/37 29/29/29 30/30/30
f 36/36/36 29/29/29 37/37/37
f 38/38/38 30/30/30 35/35/35
f 38/38/38 37/37/37 30/30/30
f 39/39/39 37/37/37 38/38/38
f 36/36/36 37/37/37 40/40/40
f 26/26/26 36/36/36 40/40/40
f 37/37/37 39/39/39 40/40/40
f 41/41/41 38/38/38 35/35/35
f 39/39/39 38/38/38 41/41/41
f 41/41/41 35/35/35 42/42/42
f 41/41/41 42/42/42 43/43/43
f 44/44/44 26/26/26 40/40/40
f 44/44/44 40/40/40 39/39/39
f 44/44/44 11/11/11 26/26/26
f 44/44/44 45/45/45 11/11/11
f 44/44/44 39/39/39 45/45/45
f 45/45/45 46/46/46 11/11/11
f 46/46/46 14/14/14 11/11/11
f 47/47/47 14/14/14 46/46/46
f 48/48/48 47/47/47 46/46/46
f 49/49/49 48/48/48 46/46/46
f 46/46/46 50/50/50 49/49/49
f 45/45/45 50/50/50 46/46/46
f 45/45/45 51/51/51 50/50/50
f 49/49/49 50/50/50 52/52/52
f 51/51/51 52/52/52 50/50/50
f 39/39/39 53/53/53 45/45/45
f 45/45/45 53/53/53 51/51/51
f 54/54/54 53/53/53 39/39/39
f 53/53/53 54/54/54 51/51/51
f 41/41/41 54/54/54 39/39/39
f 55/55/55 54/54/54 41/41/41
f 41/41/41 43/43/43 55/55/55
f 55/55/55 56/56/56 54/54/54
f 51/51/51 54/54/54 56/56/56
f 55/55/55 43/43/43 57/57/57
f 56/56/56 55/55/55 57/57/57
f 57/57/57 43/43/43 58/58/58
f 51/51/51 59/59/59 52/52/52
f 60/60/60 52/52/52 59/59/59
f 60/60/60 59/59/59 61/61/61
f 62/62/62 59/59/59 51/51/51
f 56/56/56 62/62/62 51/51/51
f 59/59/59 63/63/63 61/61/61
f 59/59/59 62/62/62 63/63/63
f 64/64/64 62/62/62 56/56/56
f 63/63/63 62/62/62 64/64/64
f 64/64/64 56/56/56 65/65/65
f 56/56/56 57/57/57 65/65/65
f 65/65/65 66/66/66 64/64/64
f 63/63/63 64/64/64 66/66/66
f 61/61/61 63/63/63 67/67/67
f 61/61/61 67/67/67 68/68/68
f 69/69/69 68/68/68 67/67/67
f 69/69/69 67/67/67 70/70/70
f 71/71/71 67/67/67 63/63/63
f 70/70/70 67/67/67 71/71/71
f 63/63/63 66/66/66 71/71/71
f 70/70/70 71/71/71 72/72/72
f 70/70/70 72/72/72 73/73/73
f 72/72/72 74/74/74 73/73/73
f 65/65/65 57/57/57 75/75/75
f 75/75/75 66/66/66 65/65/65
f 71/71/71 66/66/66 76/76/76
f 72/72/72 71/71/71 76/76/76
f 66/66/66 75/75/75 76/76/76
f 74/74/74 72/72/72 77/77/77
f 78/78/78 74/74/74 77/77/77
f 78/78/78 77/77/77 79/79/79
f 80/80/80 79/79/79 77/77/77
f 81/81/81 79/79/79 80/80/80
f 77/77/77 72/72/72 82/82/82
f 77/77/77 82/82/82 80/80/80
f 83/83/83 72/72/72 76/76/76
f 72/72/72 83/83/83 82/82/82
f 80/80/80 84/84/84 81/81/81
f 85/85/85 81/81/81 84/84/84
f 86/86/86 85/85/85 84/84/84
f 84/84/84 87/87/87 86/86/86
f 80/80/80 82/82/82 88/88/88
f 88/88/88 84/84/84 80/80/80
f 88/88/88 82/82/82 83/83/83
f 84/84/84 89/89/89 87/87/87
f 89/89/89 84/84/84 88/88/88
f 83/83/83 76/76/76 90/90/90
f 75/75/75 90/90/90 76/76/76
f 91/91/91 90/90/90 75/75/75
f 92/92/92 88/88/88 83/83/83
f 89/89/89 88/88/88 92/92/92
f 92/92/92 93/93/93 89/89/89
f 89/89/89 94/94/94 87/87/87
f 93/93/93 94/94/94 89/89/89
f 94/94/94 95/95/95 87/87/87
f 83/83/83 90/90/90 96/96/96
f 83/83/83 96/96/96 92/92/92
f 96/96/96 90/90/90 91/91/91
f 97/97/97 95/95/95 94/94/94
f 98/98/98 95/95/95 97/97/97
f 99/99/99 98/98/98 97/97/97
f 100/100/100 99/99/99 97/97/97
f 101/101/101 100/100/100 97/97/97
f 97/97/97 94/94/94 101/101/101
f 93/93/93 101/101/101 94/94/94
f 93/93/93 102/102/102 101/101/101
f 93/93/93 103/103/103 102/102/102
f 103/103/103 93/93/93 104/104/104
f 92/92/92 105/105/105 93/93/93
f 105/105/105 92/92/92 96/96/96
f 105/105/105 104/104/104 93/93/93
f 96/96/96 106/106/106 105/105/105
f 96/96/96 91/91/91 106/106/106
f 107/107/107 104/104/104 105/105/105
f 107/107/107 105/105/105 106/106/106
f 104/104/104 107/107/107 108/108/108
f 108/108/108 107/107/107 109/109/109
f 110/110/110 109/109/109 107/107/107
f 106/106/106 110/110/110 107/107/107
f 111/111/111 110/110/110 106/106/106
f 111/111/111 106/106/106 112/112/112
f 106/106/106 91/91/91 112/112/112
f 113/113/113 112/112/112 91/91/91
f 113/113/113 91/91/91 58/58/58
f 91/91/91 114/114/114 58/58/58
f 114/114/114 57/57/57 58/58/58
f 91/91/91 75/75/75 114/114/114
f 114/114/114 75/75/75 57/57/57
