g veggieDirtClod01
v 0.8784598 -0.31782028 -0.20586348
v -0.101911254 -0.4963969 -0.48610762
v 0.37503207 -0.4517047 0.71451
v 0.5144266 -0.41563782 -0.7544792
v 0.60839146 -0.20747447 -0.88294846
v 1.0304178 0.114752434 -0.47531173
v 1.1410037 0.058217973 0.11101641
v 1.0089334 0.2679189 0.29952958
v 0.66663367 0.44120505 -0.048729684
v 0.27583775 0.29906005 -0.87583417
v 0.66663367 0.44120505 -0.048729684
v 0.26587194 -0.08340224 -0.966613
v 0.5144266 -0.41563782 -0.7544792
v -0.5187521 -0.1727011 -0.8803801
v -0.101911254 -0.4963969 -0.48610762
v -0.20250207 0.35740295 -0.847321
v -0.032687627 0.5048272 0.08253252
v 0.66663367 0.44120505 -0.048729684
v -0.8486983 -0.28707054 -0.5232219
v -0.8612081 0.1312188 -0.7589396
v -0.9670577 -0.3609524 0.13679765
v -0.36586148 -0.5048272 0.60336745
v -1.141003 -0.08312167 -0.1163542
v -0.7913058 0.35432488 -0.54627365
v -0.032687627 0.5048272 0.08253252
v -0.9969405 0.2844161 0.18960282
v 0.66663367 0.44120505 -0.048729684
v 0.06554479 0.3493901 0.87380445
v -0.032687627 0.5048272 0.08253252
v 0.6480985 0.36023772 0.6792146
v 0.66663367 0.44120505 -0.048729684
v 0.19564244 0.060504768 0.96661204
v -0.3601632 0.26023367 0.8732576
v -0.75258505 0.31234458 0.5467952
v -0.032687627 0.5048272 0.08253252
v 0.809163 0.05114293 0.86135817
v 0.24626745 -0.27247992 0.9487166
v -0.73569053 -0.2830006 0.70041823
v 1.0089334 0.2679189 0.29952958
v 0.66663367 0.44120505 -0.048729684
v 1.1410037 0.058217973 0.11101641
v 0.8804374 -0.16314003 0.5696834
v 0.8784598 -0.31782028 -0.20586348
v 0.37503207 -0.4517047 0.71451
v -0.36586148 -0.5048272 0.60336745
v 0.37503207 -0.4517047 0.71451
v -0.9969405 0.2844161 0.18960282
v -0.032687627 0.5048272 0.08253252
v -0.7913058 0.35432488 -0.54627365
v -1.141003 -0.08312167 -0.1163542
v -0.9670577 -0.3609524 0.13679765
v -0.36586148 -0.5048272 0.60336745
v 0.5144266 -0.41563782 -0.7544792
v -0.101911254 -0.4963969 -0.48610762
v -0.36586148 -0.5048272 0.60336745
vt 0.8849497 0.18521869
vt 0.45534134 0.008349657
vt 0.6643429 0.05261451
vt 0.7254267 0.08833653
vt 0.76660347 0.2945094
vt 0.95154 0.6136551
vt 1 0.5576613
vt 0.9421253 0.765357
vt 0.7921257 0.9369862
vt 0.6208744 0.7962004
vt 0.7921257 0.9369862
vt 0.61650753 0.41739523
vt 0.7254267 0.08833653
vt 0.27267647 0.32895023
vt 0.45534134 0.008349657
vt 0.4112606 0.8539853
vt 0.4856758 1
vt 0.7921257 0.9369862
vt 0.12809086 0.2156744
vt 0.12260914 0.6299641
vt 0.07622433 0.14249897
vt 0.33967495 -2.9802322E-08
vt 0 0.4176731
vt 0.15324116 0.8509368
vt 0.4856758 1
vt 0.063129425 0.78169656
vt 0.7921257 0.9369862
vt 0.5287218 0.8460492
vt 0.4856758 1
vt 0.78400326 0.85679305
vt 0.7921257 0.9369862
vt 0.58573246 0.55992615
vt 0.34217262 0.75774527
vt 0.17020893 0.8093579
vt 0.4856758 1
vt 0.85458374 0.55065393
vt 0.60791683 0.23012555
vt 0.1776123 0.21970546
vt 0.9421253 0.765357
vt 0.7921257 0.9369862
vt 1 0.5576613
vt 0.8858166 0.3384199
vt 0.8849497 0.18521869
vt 0.6643429 0.05261451
vt 0.33967495 -2.9802322E-08
vt 0.6643429 0.05261451
vt 0.063129425 0.78169656
vt 0.4856758 1
vt 0.15324116 0.8509368
vt 0 0.4176731
vt 0.07622433 0.14249897
vt 0.33967495 -2.9802322E-08
vt 0.7254267 0.08833653
vt 0.45534134 0.008349657
vt 0.33967495 -2.9802322E-08
vn 0.5808383 -0.81009734 -0.07980728
vn -0.07214614 -0.969456 -0.2344139
vn 0.25034657 -0.8824847 0.3981802
vn 0.34593332 -0.8686331 -0.35469234
vn 0.52423364 -0.32820684 -0.78578585
vn 0.8448317 0.18833382 -0.50078905
vn 0.9966659 -0.058841046 0.056521576
vn 0.7793511 0.6195194 0.09384807
vn 0.302596 0.9456925 -0.11874946
vn 0.19080532 0.65872383 -0.72778857
vn 0.302596 0.9456925 -0.11874946
vn 0.07089674 -0.11514999 -0.99081486
vn 0.34593332 -0.8686331 -0.35469234
vn -0.28251985 -0.41787422 -0.86346024
vn -0.07214614 -0.969456 -0.2344139
vn -0.08008262 0.76008296 -0.64487255
vn -0.02893182 0.9995517 -0.0076907375
vn 0.302596 0.9456925 -0.11874946
vn -0.5450716 -0.7168638 -0.43474498
vn -0.6618975 0.21708213 -0.7174727
vn -0.70179325 -0.695018 0.1563203
vn -0.16562685 -0.92542905 0.34080616
vn -0.99792707 -0.06289879 -0.013611286
vn -0.43670312 0.870629 -0.22648501
vn -0.02893182 0.9995517 -0.0076907375
vn -0.7874063 0.56220204 0.25282457
vn 0.302596 0.9456925 -0.11874946
vn 0.0140083 0.76655 0.64203185
vn -0.02893182 0.9995517 -0.0076907375
vn 0.27977118 0.85603815 0.43465698
vn 0.302596 0.9456925 -0.11874946
vn 0.026429866 0.13031815 0.9911199
vn -0.3583503 0.33192113 0.87259007
vn -0.6156365 0.5866737 0.5261232
vn -0.02893182 0.9995517 -0.0076907375
vn 0.63387877 0.011261495 0.77335036
vn 0.063143276 -0.50462735 0.86102515
vn -0.6268323 -0.40233362 0.6672397
vn 0.7793511 0.6195194 0.09384807
vn 0.302596 0.9456925 -0.11874946
vn 0.9966659 -0.058841046 0.056521576
vn 0.69320893 -0.5932897 0.40922946
vn 0.5808383 -0.81009734 -0.07980728
vn 0.25034657 -0.8824847 0.3981802
vn -0.16562685 -0.92542905 0.34080616
vn 0.25034657 -0.8824847 0.3981802
vn -0.7874063 0.56220204 0.25282457
vn -0.02893182 0.9995517 -0.0076907375
vn -0.43670312 0.870629 -0.22648501
vn -0.99792707 -0.06289879 -0.013611286
vn -0.70179325 -0.695018 0.1563203
vn -0.16562685 -0.92542905 0.34080616
vn 0.34593332 -0.8686331 -0.35469234
vn -0.07214614 -0.969456 -0.2344139
vn -0.16562685 -0.92542905 0.34080616
g veggieDirtClod01_0
f 3/3/3 2/2/2 1/1/1
f 5/5/5 1/1/1 4/4/4
f 5/5/5 6/6/6 1/1/1
f 7/7/7 1/1/1 6/6/6
f 8/8/8 7/7/7 6/6/6
f 9/9/9 8/8/8 6/6/6
f 10/10/10 6/6/6 5/5/5
f 6/6/6 10/10/10 11/11/11
f 10/10/10 5/5/5 12/12/12
f 12/12/12 5/5/5 13/13/13
f 14/14/14 12/12/12 13/13/13
f 12/12/12 14/14/14 10/10/10
f 13/13/13 15/15/15 14/14/14
f 10/10/10 14/14/14 16/16/16
f 16/16/16 17/17/17 10/10/10
f 17/17/17 18/18/18 10/10/10
f 19/19/19 14/14/14 15/15/15
f 14/14/14 20/20/20 16/16/16
f 14/14/14 19/19/19 20/20/20
f 21/21/21 19/19/19 15/15/15
f 15/15/15 22/22/22 21/21/21
f 23/23/23 19/19/19 21/21/21
f 20/20/20 19/19/19 23/23/23
f 24/24/24 16/16/16 20/20/20
f 23/23/23 24/24/24 20/20/20
f 16/16/16 24/24/24 25/25/25
f 26/26/26 24/24/24 23/23/23
f 29/29/29 28/28/28 27/27/27
f 31/31/31 28/28/28 30/30/30
f 30/30/30 28/28/28 32/32/32
f 33/33/33 32/32/32 28/28/28
f 28/28/28 34/34/34 33/33/33
f 28/28/28 35/35/35 34/34/34
f 32/32/32 36/36/36 30/30/30
f 33/33/33 37/37/37 32/32/32
f 37/37/37 36/36/36 32/32/32
f 33/33/33 34/34/34 38/38/38
f 33/33/33 38/38/38 37/37/37
f 39/39/39 30/30/30 36/36/36
f 39/39/39 40/40/40 30/30/30
f 36/36/36 41/41/41 39/39/39
f 36/36/36 42/42/42 41/41/41
f 42/42/42 36/36/36 37/37/37
f 42/42/42 43/43/43 41/41/41
f 43/43/43 42/42/42 44/44/44
f 37/37/37 44/44/44 42/42/42
f 45/45/45 37/37/37 38/38/38
f 37/37/37 45/45/45 46/46/46
f 34/34/34 47/47/47 38/38/38
f 34/34/34 48/48/48 47/47/47
f 47/47/47 48/48/48 49/49/49
f 47/47/47 50/50/50 38/38/38
f 38/38/38 50/50/50 51/51/51
f 52/52/52 38/38/38 51/51/51
f 43/43/43 54/54/54 53/53/53
f 54/54/54 44/44/44 55/55/55
