g veggieCarrot
v -0.02272705 -3.8655162 0
v 0.28288573 -3.499562 -0.3056126
v -0.02272705 -3.499562 -0.43220192
v 0.50424314 -2.7409892 -0.52697
v -0.02272705 -2.7409892 -0.7452484
v 0.71659666 -1.0339798 -0.7393233
v -0.02272705 -1.0339798 -1.0455611
v -0.02272705 0.49201202 -1.0682817
v 0.72252196 -2.7409892 0
v 1.0228344 -1.0339798 0
v 0.7326611 0.49201202 -0.75538933
v 0.60706544 0.83586913 -0.6297932
v -0.02272705 0.8358682 -0.89066213
v 0.8679345 0.83586913 0
v 1.0455542 0.49201202 0
v 0.60706544 0.83586913 0.6297932
v 0.71659666 -1.0339798 0.7393232
v 0.7326611 0.49201202 0.75538915
v -0.02272705 0.8358682 0.89066213
v -0.02272705 0.49201202 1.0682814
v -0.02272705 -1.0339798 1.0455611
v 0.50424314 -2.7409892 0.5269703
v -0.02272705 -2.7409892 0.7452484
v 0.4094751 -3.499562 0
v -0.02272705 -3.8655162 0
v 0.28288573 -3.499562 0.3056129
v -0.02272705 -3.8655162 0
v -0.02272705 -3.499562 0.43220192
v -0.02272705 -3.8655162 0
v -0.02272705 -3.8655162 0
v -0.02272705 -3.499562 -0.43220192
v -0.32833984 -3.499562 -0.3056126
v -0.02272705 -2.7409892 -0.7452484
v -0.5496973 -2.7409892 -0.52697
v -0.02272705 -1.0339798 -1.0455611
v -0.4549292 -3.499562 0
v -0.02272705 -3.8655162 0
v -0.76205075 -1.0339798 -0.7393233
v -0.76797605 -2.7409892 0
v -0.7781152 0.49201202 -0.75538915
v -0.02272705 0.49201202 -1.0682817
v -0.02272705 0.8358682 -0.89066213
v -0.6525195 0.8358682 -0.6297932
v -1.0910083 0.49201202 0
v -0.9133911 0.83586913 -2.8204727E-07
v -1.0682886 -1.0339798 0
v -0.7781152 0.49201202 0.75538915
v -0.6525195 0.8358682 0.6297932
v -0.32833984 -3.499562 0.3056129
v -0.02272705 -3.8655162 0
v -0.5496973 -2.7409892 0.5269703
v -0.02272705 0.49201202 1.0682814
v -0.02272705 0.8358682 0.89066213
v -0.76205075 -1.0339798 0.7393232
v -0.02272705 -1.0339798 1.0455611
v -0.02272705 -2.7409892 0.7452484
v -0.02272705 -3.499562 0.43220192
v -0.02272705 -3.8655162 0
v -0.79261476 3.9975078 -1.6925753
v -0.02272705 3.9975078 -2.0490496
v -0.6339136 2.2232802 0.018404502
v -0.02272705 2.2232802 -0.26458806
v 0.58845943 2.2232802 0.018404502
v 0.7471606 3.9975078 -1.6925753
v -0.02272705 0.20733428 -0.054738156
v -0.6339136 0.20733428 0.2282544
v 0.58845943 0.20733428 0.2282544
v -0.02272705 3.9975078 -2.0490496
v -0.79261476 3.9975078 -1.6925753
v -0.6339136 2.2232802 0.018404502
v -0.02272705 2.2232802 -0.26458806
v 0.58845943 2.2232802 0.018404502
v 0.7471606 3.9975078 -1.6925753
v -0.02272705 0.20733428 -0.054738156
v -0.6339136 0.20733428 0.2282544
v 0.58845943 0.20733428 0.2282544
v 1.0223461 3.358781 -1.6210366
v 1.7436743 3.358781 -1.1743972
v -0.3171533 1.9975522 -0.54324913
v 0.25548095 1.9975522 -0.18867823
v 0.3555493 1.9975522 0.4773691
v 1.8697265 3.358781 -0.33540335
v 0.016262207 0.33387694 -0.044306487
v -0.55637205 0.33387694 -0.3988774
v 0.116330564 0.33387694 0.6217409
v 1.7436743 3.358781 -1.1743972
v 1.0223461 3.358781 -1.6210366
v -0.3171533 1.9975522 -0.54324913
v 0.25548095 1.9975522 -0.18867823
v 0.3555493 1.9975522 0.4773691
v 1.8697265 3.358781 -0.33540335
v 0.016262207 0.33387694 -0.044306487
v -0.55637205 0.33387694 -0.3988774
v 0.116330564 0.33387694 0.6217409
v -1.9339111 3.2131543 -0.4529445
v -1.7543066 3.2131543 -1.2821268
v -0.46794188 1.7916573 0.44970977
v -0.32536376 1.7916573 -0.20854829
v 0.26883546 1.7916573 -0.5256619
v -1.0058203 3.2131543 -1.6815825
v -0.08590332 0.33387694 -0.025305785
v -0.22848144 0.33387694 0.6329523
v 0.5082959 0.33387694 -0.34241942
v -1.7543066 3.2131543 -1.2821268
v -1.9339111 3.2131543 -0.4529445
v -0.46794188 1.7916573 0.44970977
v -0.32536376 1.7916573 -0.20854829
v 0.26883546 1.7916573 -0.5256619
v -1.0058203 3.2131543 -1.6815825
v -0.08590332 0.33387694 -0.025305785
v -0.22848144 0.33387694 0.6329523
v 0.5082959 0.33387694 -0.34241942
v 0.7471606 3.9975078 1.7384423
v -0.02272705 3.9975078 2.094917
v 0.58845943 2.2232802 0.027462672
v -0.02272705 2.2232802 0.31045523
v -0.6339136 2.2232802 0.027462672
v -0.79261476 3.9975078 1.7384423
v -0.02272705 0.20733428 0.054738156
v 0.58845943 0.20733428 -0.2282544
v -0.6339136 0.20733428 -0.2282544
v -0.02272705 3.9975078 2.094917
v 0.7471606 3.9975078 1.7384423
v 0.58845943 2.2232802 0.027462672
v -0.02272705 2.2232802 0.31045523
v -0.6339136 2.2232802 0.027462672
v -0.79261476 3.9975078 1.7384423
v -0.02272705 0.20733428 0.054738156
v 0.58845943 0.20733428 -0.2282544
v -0.6339136 0.20733428 -0.2282544
v -1.0069457 3.358781 1.6241189
v -1.7282739 3.358781 1.1774796
v 0.3325537 1.9975522 0.5463315
v -0.24008057 1.9975522 0.1917606
v -0.34014893 1.9975522 -0.47428676
v -1.8543212 3.358781 0.33848566
v -0.061716307 0.33387694 0.044306487
v 0.51091796 0.33387694 0.3988774
v -0.16178466 0.33387694 -0.6217409
v -1.7282739 3.358781 1.1774796
v -1.0069457 3.358781 1.6241189
v 0.3325537 1.9975522 0.5463315
v -0.24008057 1.9975522 0.1917606
v -0.34014893 1.9975522 -0.47428676
v -1.8543212 3.358781 0.33848566
v -0.061716307 0.33387694 0.044306487
v 0.51091796 0.33387694 0.3988774
v -0.16178466 0.33387694 -0.6217409
v 1.9339087 3.2131543 0.42839304
v 1.7543066 3.2131543 1.2575754
v 0.46793944 1.7916573 -0.47426128
v 0.3253613 1.7916573 0.18399677
v -0.2688379 1.7916573 0.50111043
v 1.0058179 3.2131543 1.6570309
v 0.040449217 0.33387694 0.025305785
v 0.18302734 0.33387694 -0.6329523
v -0.55375 0.33387694 0.34241942
v 1.7543066 3.2131543 1.2575754
v 1.9339087 3.2131543 0.428393
v 0.46793944 1.7916573 -0.47426128
v 0.3253613 1.7916573 0.18399677
v -0.2688379 1.7916573 0.50111043
v 1.0058179 3.2131543 1.6570309
v 0.040449217 0.33387694 0.025305785
v 0.18302734 0.33387694 -0.6329523
v -0.55375 0.33387694 0.34241942
v 0.60706544 0.83586913 -0.6297932
v 0.41065916 0.92781764 -0.43338707
v -0.02272705 0.92781764 -0.612902
v -0.02272705 0.8358682 -0.89066213
v 0.8679345 0.83586913 0
v -0.45611572 0.92781764 -0.43338737
v -0.6525195 0.8358682 -0.6297932
v 0.5901733 0.92781764 0
v 0.60706544 0.83586913 0.6297932
v -0.6356299 0.92781764 -5.6409453E-07
v -0.9133911 0.83586913 -2.8204727E-07
v 0.41065916 0.92781764 0.4333868
v -0.02272705 0.8358682 0.89066213
v -0.45611572 0.92781764 0.43338647
v -0.6525195 0.8358682 0.6297932
v -0.02272705 0.92781764 0.6129017
v 0.24323241 0.8596609 -0.2659607
v -0.02272705 0.8596603 -0.37612525
v -0.02272705 0.8596609 2.8204727E-07
v 0.35339844 0.8596612 0
v -0.2886865 0.8596603 -0.265961
v 0.24323241 0.8596609 0.2659607
v -0.39885253 0.8596609 -2.8204727E-07
v -0.02272705 0.8596603 0.37612525
v -0.2886865 0.8596603 0.26596043
vt 0.74874014 0.003220439
vt 0.62856513 0.07783967
vt 0.5084802 0.07783967
vt 0.62856513 0.23919058
vt 0.5084802 0.23919058
vt 0.62856513 0.60227704
vt 0.5084802 0.60227704
vt 0.5084802 0.9268606
vt 0.7486501 0.23919058
vt 0.7486501 0.60227704
vt 0.62856513 0.9268606
vt 0.62856513 0.9935591
vt 0.5084802 0.993559
vt 0.7486501 0.9935591
vt 0.7486501 0.9268606
vt 0.868735 0.9935591
vt 0.868735 0.60227704
vt 0.868735 0.9268606
vt 0.9888202 0.993559
vt 0.98881996 0.9268606
vt 0.98881996 0.60227704
vt 0.868735 0.23919058
vt 0.98881996 0.23919058
vt 0.7486501 0.07783967
vt 0.74874014 0.003220439
vt 0.868735 0.07783967
vt 0.74874014 0.003220439
vt 0.98881996 0.07783967
vt 0.74874014 0.003220439
vt 0.7487483 0.003220439
vt 0.5084884 0.07783967
vt 0.62857336 0.07783967
vt 0.5084884 0.23919058
vt 0.62857336 0.23919058
vt 0.5084884 0.60227704
vt 0.74865854 0.07783967
vt 0.7487483 0.003220439
vt 0.62857336 0.60227704
vt 0.74865854 0.23919058
vt 0.62857336 0.9268606
vt 0.5084884 0.9268606
vt 0.5084884 0.993559
vt 0.62857336 0.993559
vt 0.74865854 0.9268606
vt 0.74865854 0.9935591
vt 0.74865854 0.60227704
vt 0.86874324 0.9268606
vt 0.86874324 0.993559
vt 0.8687435 0.07783967
vt 0.7487483 0.003220439
vt 0.8687435 0.23919058
vt 0.9888282 0.9268606
vt 0.9888282 0.993559
vt 0.86874324 0.60227704
vt 0.9888282 0.60227704
vt 0.9888282 0.23919058
vt 0.9888282 0.07783967
vt 0.7487483 0.003220439
vt 0.019483175 0.49199665
vt 0.2474041 0.49199665
vt 0.019483175 0.063706726
vt 0.2474041 0.063706756
vt 0.47532502 0.063706756
vt 0.47532502 0.49199665
vt 0.24740407 0.004499942
vt 0.019483175 0.004499942
vt 0.47532496 0.004499942
vt 0.2474041 0.49199665
vt 0.019483175 0.49199665
vt 0.019483175 0.063706726
vt 0.2474041 0.063706756
vt 0.47532502 0.063706756
vt 0.47532502 0.49199665
vt 0.24740407 0.004499942
vt 0.019483175 0.004499942
vt 0.47532496 0.004499942
vt 0.019483175 0.49199665
vt 0.2474041 0.49199665
vt 0.019483175 0.063706726
vt 0.2474041 0.063706756
vt 0.47532502 0.063706756
vt 0.47532502 0.49199665
vt 0.24740407 0.004499942
vt 0.019483175 0.004499942
vt 0.47532496 0.004499942
vt 0.2474041 0.49199665
vt 0.019483175 0.49199665
vt 0.019483175 0.063706726
vt 0.2474041 0.063706756
vt 0.47532502 0.063706756
vt 0.47532502 0.49199665
vt 0.24740407 0.004499942
vt 0.019483175 0.004499942
vt 0.47532496 0.004499942
vt 0.019483175 0.49199665
vt 0.2474041 0.49199665
vt 0.019483175 0.063706726
vt 0.2474041 0.063706756
vt 0.47532502 0.063706756
vt 0.47532502 0.49199665
vt 0.24740407 0.004499942
vt 0.019483175 0.004499942
vt 0.47532496 0.004499942
vt 0.2474041 0.49199665
vt 0.019483175 0.49199665
vt 0.019483175 0.063706726
vt 0.2474041 0.063706756
vt 0.47532502 0.063706756
vt 0.47532502 0.49199665
vt 0.24740407 0.004499942
vt 0.019483175 0.004499942
vt 0.47532496 0.004499942
vt 0.019483175 0.49199665
vt 0.2474041 0.49199665
vt 0.019483175 0.063706726
vt 0.2474041 0.063706756
vt 0.47532502 0.063706756
vt 0.47532502 0.49199665
vt 0.24740407 0.004499942
vt 0.019483175 0.004499942
vt 0.47532496 0.004499942
vt 0.2474041 0.49199665
vt 0.019483175 0.49199665
vt 0.019483175 0.063706726
vt 0.2474041 0.063706756
vt 0.47532502 0.063706756
vt 0.47532502 0.49199665
vt 0.24740407 0.004499942
vt 0.019483175 0.004499942
vt 0.47532496 0.004499942
vt 0.019483175 0.49199665
vt 0.2474041 0.49199665
vt 0.019483175 0.063706726
vt 0.2474041 0.063706756
vt 0.47532502 0.063706756
vt 0.47532502 0.49199665
vt 0.24740407 0.004499942
vt 0.019483175 0.004499942
vt 0.47532496 0.004499942
vt 0.2474041 0.49199665
vt 0.019483175 0.49199665
vt 0.019483175 0.063706726
vt 0.2474041 0.063706756
vt 0.47532502 0.063706756
vt 0.47532502 0.49199665
vt 0.24740407 0.004499942
vt 0.019483175 0.004499942
vt 0.47532496 0.004499942
vt 0.019483175 0.49199665
vt 0.2474041 0.49199665
vt 0.019483175 0.063706726
vt 0.2474041 0.063706756
vt 0.47532502 0.063706756
vt 0.47532502 0.49199665
vt 0.24740407 0.004499942
vt 0.019483175 0.004499942
vt 0.47532496 0.004499942
vt 0.2474041 0.49199665
vt 0.019483175 0.49199665
vt 0.019483175 0.063706726
vt 0.2474041 0.063706756
vt 0.47532502 0.063706756
vt 0.47532502 0.49199665
vt 0.24740407 0.004499942
vt 0.019483175 0.004499942
vt 0.47532496 0.004499942
vt 0.34842575 0.52696025
vt 0.3182198 0.5996692
vt 0.4121451 0.69379056
vt 0.48491687 0.6637362
vt 0.15519658 0.5267589
vt 0.41200674 0.8267594
vt 0.48471564 0.8569652
vt 0.18525076 0.5995307
vt 0.018420592 0.6632502
vt 0.3178856 0.92068464
vt 0.34793958 0.9934566
vt 0.09112954 0.69345605
vt 0.018219277 0.85647917
vt 0.18491656 0.9205462
vt 0.15471065 0.993255
vt 0.09099117 0.8264251
vt 0.29247096 0.66164994
vt 0.3501109 0.7194102
vt 0.25156796 0.7601076
vt 0.21087046 0.6615648
vt 0.3500258 0.80101043
vt 0.1531103 0.71920496
vt 0.29226565 0.85865057
vt 0.1530253 0.8008052
vt 0.2106654 0.8585654
vn -2.4361356E-07 -1 -2.4361356E-07
vn 0.6319687 -0.44858727 -0.63196915
vn -0 -0.44858658 -0.89373934
vn 0.6900204 -0.21850167 -0.69002086
vn -0 -0.21850158 -0.97583663
vn 0.70417374 -0.0909861 -0.7041738
vn -0 -0.09098653 -0.9958521
vn -0 0.06830641 -0.99766433
vn 0.9758364 -0.21850212 0
vn 0.99585223 -0.09098544 0
vn 0.70545506 0.06830703 -0.70545536
vn 0.54525626 0.6367036 -0.5452561
vn 1.01616806E-07 0.6367033 -0.7711088
vn 0.7711097 0.6367023 1.239229E-07
vn 0.99766433 0.06830735 0
vn 0.54525685 0.6367028 0.5452563
vn 0.7041737 -0.090985805 0.7041739
vn 0.70545506 0.068306915 0.70545536
vn -1.9084129E-07 0.6367038 0.77110845
vn -0 0.06830684 0.99766433
vn -0 -0.09098634 0.9958521
vn 0.69002026 -0.21850206 0.6900208
vn -0 -0.21850176 0.9758365
vn 0.8937378 -0.44858965 0
vn -2.4361356E-07 -1 -2.4361356E-07
vn 0.63196826 -0.4485884 0.6319688
vn -2.4361356E-07 -1 -2.4361356E-07
vn -0 -0.44858643 0.89373946
vn -2.4361356E-07 -1 -2.4361356E-07
vn -2.4361356E-07 -1 -2.4361356E-07
vn -0 -0.44858658 -0.89373934
vn -0.63196874 -0.44858733 -0.6319691
vn -0 -0.21850158 -0.97583663
vn -0.6900205 -0.21850146 -0.6900208
vn -0 -0.09098653 -0.9958521
vn -0.8937387 -0.44858807 0
vn -2.4361356E-07 -1 -2.4361356E-07
vn -0.70417386 -0.090985894 -0.7041738
vn -0.9758365 -0.21850166 0
vn -0.70545506 0.06830714 -0.7054553
vn -0 0.06830641 -0.99766433
vn 1.01616806E-07 0.6367033 -0.7711088
vn -0.5452572 0.6367012 -0.54525775
vn -0.99766433 0.06830792 0
vn -0.77111137 0.63670033 0
vn -0.99585223 -0.09098552 0
vn -0.705455 0.06830734 0.70545536
vn -0.5452566 0.63670236 0.54525715
vn -0.6319687 -0.44858742 0.6319691
vn -2.4361356E-07 -1 -2.4361356E-07
vn -0.6900204 -0.2185018 0.6900209
vn -0 0.06830684 0.99766433
vn -1.9084129E-07 0.6367038 0.77110845
vn -0.7041737 -0.09098594 0.7041739
vn -0 -0.09098634 0.9958521
vn -0 -0.21850176 0.9758365
vn -0 -0.44858643 0.89373946
vn -2.4361356E-07 -1 -2.4361356E-07
vn 0.310343 0.67412406 0.6702567
vn -0 0.7091372 0.70507056
vn 0.38307205 0.41082773 0.82733095
vn 1.29963E-07 0.49662447 0.8679655
vn -0.38307202 0.41082817 0.8273307
vn -0.31034362 0.6741224 0.670258
vn -0 0.10353598 0.9946256
vn 0.41830528 0.09404287 0.903425
vn -0.41830528 0.0940423 0.903425
vn 1.0326464E-07 -0.70913714 -0.7050706
vn -0.310343 -0.67412406 -0.6702567
vn -0.3830721 -0.41082764 -0.82733095
vn 1.299629E-07 -0.49662474 -0.86796534
vn 0.38307187 -0.41082847 -0.8273305
vn 0.31034362 -0.6741224 -0.670258
vn -0 -0.103535734 -0.99462575
vn -0.41830528 -0.094042294 -0.903425
vn 0.41830528 -0.0940423 -0.903425
vn -0.3384805 0.76590097 0.5466503
vn -0.5060781 0.79517335 0.33404222
vn -0.4562846 0.49877715 0.7369027
vn -0.66803885 0.60065836 0.43924212
vn -0.85582685 0.5010261 0.12858137
vn -0.6366017 0.7652387 0.09564439
vn -0.8225189 0.16548708 0.5441292
vn -0.52065927 0.14783405 0.84086806
vn -0.97721946 0.15325187 0.14681952
vn 0.5060781 -0.79517335 -0.33404222
vn 0.3384805 -0.76590097 -0.5466503
vn 0.4562846 -0.49877727 -0.73690265
vn 0.66803885 -0.6006585 -0.43924192
vn 0.85582674 -0.5010264 -0.12858137
vn 0.6366017 -0.7652387 -0.09564439
vn 0.8225189 -0.16548733 -0.5441292
vn 0.52065927 -0.14783473 -0.8408679
vn 0.97721946 -0.15325187 -0.14681952
vn 0.6437433 0.7524306 0.13943753
vn 0.4969628 0.7826489 0.37481818
vn 0.8314359 0.52562565 0.1800888
vn 0.6257278 0.6202106 0.47307882
vn 0.40072307 0.524999 0.75086415
vn 0.31054512 0.7516429 0.5818889
vn 0.7815848 0.20254949 0.58999914
vn 0.9606577 0.18395804 0.20807767
vn 0.46270186 0.1849881 0.86699843
vn -0.49696276 -0.7826489 -0.37481827
vn -0.6437432 -0.7524307 -0.13943753
vn -0.83143574 -0.5256259 -0.18008876
vn -0.62572753 -0.6202108 -0.47307876
vn -0.40072313 -0.524999 -0.75086427
vn -0.31054512 -0.7516429 -0.5818889
vn -0.7815848 -0.20254911 -0.5899992
vn -0.9606579 -0.18395653 -0.20807774
vn -0.46270186 -0.18498811 -0.86699843
vn -0.3103434 0.6741236 -0.6702569
vn -0 0.7091378 -0.7050699
vn -0.3815533 0.41875696 -0.8240508
vn 1.2965545E-07 0.50459945 -0.8633536
vn 0.38155356 0.41875604 -0.8240512
vn 0.3103432 0.674124 -0.6702567
vn -0 0.12583917 -0.9920507
vn -0.4174112 0.11435183 -0.9014941
vn 0.41741115 0.11435297 -0.90149397
vn -0 -0.70913786 0.70506984
vn 0.3103434 -0.6741236 0.6702569
vn 0.38155335 -0.41875687 0.8240508
vn -2.701156E-07 -0.50459945 0.8633536
vn -0.38155353 -0.41875604 0.8240512
vn -0.31034327 -0.674124 0.6702567
vn -0 -0.12583919 0.9920507
vn 0.4174112 -0.11435183 0.9014941
vn -0.41741115 -0.11435297 0.90149397
vn 0.3384806 0.76590073 -0.5466507
vn 0.5060783 0.7951737 -0.3340412
vn 0.4573671 0.49518704 -0.7386509
vn 0.6721193 0.59198433 -0.4447586
vn 0.8640825 0.48632082 -0.12982105
vn 0.63660204 0.76523906 -0.09564051
vn 0.8291725 0.13693112 -0.54196197
vn 0.52193046 0.130663 -0.84292096
vn 0.98195076 0.11835327 -0.14753035
vn -0.5060783 -0.79517365 0.33404124
vn -0.3384806 -0.76590073 0.5466507
vn -0.4573671 -0.49518687 0.738651
vn -0.6721193 -0.5919842 0.44475865
vn -0.8640825 -0.48632076 0.12982105
vn -0.63660204 -0.76523906 0.09564051
vn -0.8291725 -0.13693102 0.541962
vn -0.52193046 -0.130663 0.84292096
vn -0.98195076 -0.11835326 0.14753035
vn -0.6437492 0.7524256 -0.13943692
vn -0.49696496 0.7826466 -0.37482014
vn -0.82473946 0.5365569 -0.17863826
vn -0.6252664 0.6238873 -0.46883544
vn -0.40160838 0.5219382 -0.7525232
vn -0.3105455 0.7516406 -0.58189154
vn -0.7745467 0.216092 -0.59445906
vn -0.9556868 0.2093165 -0.20700099
vn -0.46271673 0.18481898 -0.86702657
vn 0.49696496 -0.7826466 0.3748202
vn 0.6437492 -0.7524256 0.13943689
vn 0.82473946 -0.5365569 0.17863825
vn 0.62526625 -0.6238873 0.46883553
vn 0.40160838 -0.5219382 0.7525232
vn 0.3105455 -0.7516406 0.58189154
vn 0.7745468 -0.21609178 0.5944592
vn 0.9556869 -0.20931576 0.20700097
vn 0.46271673 -0.18481898 0.86702657
vn 0.54525626 0.6367036 -0.5452561
vn 0.120124325 0.9854645 -0.12012497
vn -3.3917493E-07 0.98546416 -0.16988327
vn 1.01616806E-07 0.6367033 -0.7711088
vn 0.7711097 0.6367023 1.239229E-07
vn -0.12012601 0.98546404 -0.12012668
vn -0.5452572 0.6367012 -0.54525775
vn 0.16988075 0.98546463 0
vn 0.54525685 0.6367028 0.5452563
vn -0.16988307 0.9854643 -1.2865272E-07
vn -0.77111137 0.63670033 0
vn 0.12012386 0.98546463 0.12012416
vn -1.9084129E-07 0.6367038 0.77110845
vn -0.120125405 0.98546416 0.12012606
vn -0.5452566 0.63670236 0.54525715
vn -7.2123197E-07 0.9854643 0.16988257
vn -0.14585933 0.9784939 0.14585835
vn -4.7796897E-07 0.9784939 0.20627543
vn -7.765652E-07 1 0
vn -0.20627688 0.9784937 0
vn 0.14585806 0.97849417 0.14585835
vn -0.14586003 0.9784937 -0.14585912
vn 0.20627563 0.9784939 -1.7209528E-07
vn 1.1981665E-07 0.9784938 -0.20627643
vn 0.14585896 0.9784939 -0.14585923
g veggieCarrot_0
f 3/3/3 2/2/2 1/1/1
f 4/4/4 2/2/2 3/3/3
f 5/5/5 4/4/4 3/3/3
f 4/4/4 5/5/5 6/6/6
f 5/5/5 7/7/7 6/6/6
f 7/7/7 8/8/8 6/6/6
f 4/4/4 9/9/9 2/2/2
f 4/4/4 6/6/6 10/10/10
f 9/9/9 4/4/4 10/10/10
f 8/8/8 11/11/11 6/6/6
f 6/6/6 11/11/11 10/10/10
f 11/11/11 8/8/8 12/12/12
f 8/8/8 13/13/13 12/12/12
f 11/11/11 12/12/12 14/14/14
f 15/15/15 11/11/11 14/14/14
f 11/11/11 15/15/15 10/10/10
f 15/15/15 14/14/14 16/16/16
f 10/10/10 15/15/15 17/17/17
f 9/9/9 10/10/10 17/17/17
f 18/18/18 15/15/15 16/16/16
f 15/15/15 18/18/18 17/17/17
f 18/18/18 16/16/16 19/19/19
f 20/20/20 18/18/18 19/19/19
f 18/18/18 20/20/20 21/21/21
f 17/17/17 18/18/18 21/21/21
f 22/22/22 17/17/17 21/21/21
f 22/22/22 9/9/9 17/17/17
f 23/23/23 22/22/22 21/21/21
f 9/9/9 22/22/22 24/24/24
f 9/9/9 24/24/24 2/2/2
f 2/2/2 24/24/24 25/25/25
f 22/22/22 23/23/23 26/26/26
f 22/22/22 26/26/26 24/24/24
f 24/24/24 26/26/26 27/27/27
f 23/23/23 28/28/28 26/26/26
f 26/26/26 28/28/28 29/29/29
f 32/32/32 31/31/31 30/30/30
f 33/33/33 31/31/31 32/32/32
f 34/34/34 33/33/33 32/32/32
f 33/33/33 34/34/34 35/35/35
f 34/34/34 32/32/32 36/36/36
f 36/36/36 32/32/32 37/37/37
f 34/34/34 38/38/38 35/35/35
f 39/39/39 34/34/34 36/36/36
f 34/34/34 39/39/39 38/38/38
f 38/38/38 40/40/40 35/35/35
f 40/40/40 41/41/41 35/35/35
f 41/41/41 40/40/40 42/42/42
f 40/40/40 43/43/43 42/42/42
f 40/40/40 44/44/44 43/43/43
f 44/44/44 40/40/40 38/38/38
f 44/44/44 45/45/45 43/43/43
f 46/46/46 44/44/44 38/38/38
f 39/39/39 46/46/46 38/38/38
f 44/44/44 47/47/47 45/45/45
f 47/47/47 44/44/44 46/46/46
f 47/47/47 48/48/48 45/45/45
f 39/39/39 36/36/36 49/49/49
f 49/49/49 36/36/36 50/50/50
f 39/39/39 51/51/51 46/46/46
f 51/51/51 39/39/39 49/49/49
f 47/47/47 52/52/52 48/48/48
f 52/52/52 53/53/53 48/48/48
f 54/54/54 47/47/47 46/46/46
f 52/52/52 47/47/47 54/54/54
f 51/51/51 54/54/54 46/46/46
f 55/55/55 52/52/52 54/54/54
f 56/56/56 55/55/55 54/54/54
f 51/51/51 56/56/56 54/54/54
f 56/56/56 51/51/51 57/57/57
f 51/51/51 49/49/49 57/57/57
f 57/57/57 49/49/49 58/58/58
f 61/61/61 60/60/60 59/59/59
f 61/61/61 62/62/62 60/60/60
f 60/60/60 62/62/62 63/63/63
f 60/60/60 63/63/63 64/64/64
f 65/65/65 62/62/62 61/61/61
f 63/63/63 62/62/62 65/65/65
f 65/65/65 61/61/61 66/66/66
f 63/63/63 65/65/65 67/67/67
f 70/70/70 69/69/69 68/68/68
f 70/70/70 68/68/68 71/71/71
f 68/68/68 72/72/72 71/71/71
f 68/68/68 73/73/73 72/72/72
f 70/70/70 71/71/71 74/74/74
f 72/72/72 74/74/74 71/71/71
f 70/70/70 74/74/74 75/75/75
f 72/72/72 76/76/76 74/74/74
f 79/79/79 78/78/78 77/77/77
f 79/79/79 80/80/80 78/78/78
f 78/78/78 80/80/80 81/81/81
f 78/78/78 81/81/81 82/82/82
f 83/83/83 80/80/80 79/79/79
f 81/81/81 80/80/80 83/83/83
f 83/83/83 79/79/79 84/84/84
f 81/81/81 83/83/83 85/85/85
f 88/88/88 87/87/87 86/86/86
f 88/88/88 86/86/86 89/89/89
f 86/86/86 90/90/90 89/89/89
f 86/86/86 91/91/91 90/90/90
f 88/88/88 89/89/89 92/92/92
f 90/90/90 92/92/92 89/89/89
f 88/88/88 92/92/92 93/93/93
f 90/90/90 94/94/94 92/92/92
f 97/97/97 96/96/96 95/95/95
f 97/97/97 98/98/98 96/96/96
f 96/96/96 98/98/98 99/99/99
f 96/96/96 99/99/99 100/100/100
f 101/101/101 98/98/98 97/97/97
f 99/99/99 98/98/98 101/101/101
f 101/101/101 97/97/97 102/102/102
f 99/99/99 101/101/101 103/103/103
f 106/106/106 105/105/105 104/104/104
f 106/106/106 104/104/104 107/107/107
f 104/104/104 108/108/108 107/107/107
f 104/104/104 109/109/109 108/108/108
f 106/106/106 107/107/107 110/110/110
f 108/108/108 110/110/110 107/107/107
f 106/106/106 110/110/110 111/111/111
f 108/108/108 112/112/112 110/110/110
f 115/115/115 114/114/114 113/113/113
f 115/115/115 116/116/116 114/114/114
f 114/114/114 116/116/116 117/117/117
f 114/114/114 117/117/117 118/118/118
f 119/119/119 116/116/116 115/115/115
f 117/117/117 116/116/116 119/119/119
f 119/119/119 115/115/115 120/120/120
f 117/117/117 119/119/119 121/121/121
f 124/124/124 123/123/123 122/122/122
f 124/124/124 122/122/122 125/125/125
f 122/122/122 126/126/126 125/125/125
f 122/122/122 127/127/127 126/126/126
f 124/124/124 125/125/125 128/128/128
f 126/126/126 128/128/128 125/125/125
f 124/124/124 128/128/128 129/129/129
f 126/126/126 130/130/130 128/128/128
f 133/133/133 132/132/132 131/131/131
f 133/133/133 134/134/134 132/132/132
f 132/132/132 134/134/134 135/135/135
f 132/132/132 135/135/135 136/136/136
f 137/137/137 134/134/134 133/133/133
f 135/135/135 134/134/134 137/137/137
f 137/137/137 133/133/133 138/138/138
f 135/135/135 137/137/137 139/139/139
f 142/142/142 141/141/141 140/140/140
f 142/142/142 140/140/140 143/143/143
f 140/140/140 144/144/144 143/143/143
f 140/140/140 145/145/145 144/144/144
f 142/142/142 143/143/143 146/146/146
f 144/144/144 146/146/146 143/143/143
f 142/142/142 146/146/146 147/147/147
f 144/144/144 148/148/148 146/146/146
f 151/151/151 150/150/150 149/149/149
f 151/151/151 152/152/152 150/150/150
f 150/150/150 152/152/152 153/153/153
f 150/150/150 153/153/153 154/154/154
f 155/155/155 152/152/152 151/151/151
f 153/153/153 152/152/152 155/155/155
f 155/155/155 151/151/151 156/156/156
f 153/153/153 155/155/155 157/157/157
f 160/160/160 159/159/159 158/158/158
f 160/160/160 158/158/158 161/161/161
f 158/158/158 162/162/162 161/161/161
f 158/158/158 163/163/163 162/162/162
f 160/160/160 161/161/161 164/164/164
f 162/162/162 164/164/164 161/161/161
f 160/160/160 164/164/164 165/165/165
f 162/162/162 166/166/166 164/164/164
f 169/169/169 168/168/168 167/167/167
f 170/170/170 169/169/169 167/167/167
f 167/167/167 168/168/168 171/171/171
f 172/172/172 169/169/169 170/170/170
f 173/173/173 172/172/172 170/170/170
f 168/168/168 174/174/174 171/171/171
f 171/171/171 174/174/174 175/175/175
f 176/176/176 172/172/172 173/173/173
f 177/177/177 176/176/176 173/173/173
f 174/174/174 178/178/178 175/175/175
f 175/175/175 178/178/178 179/179/179
f 180/180/180 176/176/176 177/177/177
f 181/181/181 180/180/180 177/177/177
f 179/179/179 182/182/182 181/181/181
f 178/178/178 182/182/182 179/179/179
f 182/182/182 180/180/180 181/181/181
f 168/168/168 169/169/169 183/183/183
f 169/169/169 172/172/172 184/184/184
f 169/169/169 184/184/184 183/183/183
f 183/183/183 184/184/184 185/185/185
f 168/168/168 183/183/183 186/186/186
f 174/174/174 168/168/168 186/186/186
f 186/186/186 183/183/183 185/185/185
f 172/172/172 187/187/187 184/184/184
f 172/172/172 176/176/176 187/187/187
f 184/184/184 187/187/187 185/185/185
f 174/174/174 186/186/186 188/188/188
f 178/178/178 174/174/174 188/188/188
f 188/188/188 186/186/186 185/185/185
f 176/176/176 189/189/189 187/187/187
f 176/176/176 180/180/180 189/189/189
f 187/187/187 189/189/189 185/185/185
f 178/178/178 188/188/188 190/190/190
f 182/182/182 178/178/178 190/190/190
f 190/190/190 188/188/188 185/185/185
f 180/180/180 191/191/191 189/189/189
f 180/180/180 182/182/182 191/191/191
f 189/189/189 191/191/191 185/185/185
f 182/182/182 190/190/190 191/191/191
f 191/191/191 190/190/190 185/185/185
