g voxFX_rimFade_collection2
v -0.5 -0.5 0.5
v -0.5 0.5 0.5
v 0.5 0.5 0.5
v 0.5 -0.5 0.5
v -0.5 0.5 0.5
v -0.5 0.5 -0.5
v 0.5 0.5 -0.5
v 0.5 0.5 0.5
v -0.5 0.5 -0.5
v -0.5 -0.5 -0.5
v 0.5 -0.5 -0.5
v 0.5 0.5 -0.5
v -0.5 -0.5 -0.5
v -0.5 -0.5 0.5
v 0.5 -0.5 0.5
v 0.5 -0.5 -0.5
v 0.5 -0.5 0.5
v 0.5 0.5 0.5
v 0.5 0.5 -0.5
v 0.5 -0.5 -0.5
v -0.5 -0.5 -0.5
v -0.5 0.5 -0.5
v -0.5 0.5 0.5
v -0.5 -0.5 0.5
v 0.21688253 0.98243004 -0.027403265
v 0.21688253 0.98243004 -0.5216883
v 0.21688253 0.15349312 -0.5216883
v 0.21688253 0.15349312 -0.027403265
v 0.21688253 0.98243004 -1.0159733
v 0.21688253 -0.6754438 -0.027403265
v 0.21688253 0.15349312 -1.0159733
v 0.21688253 -0.6754438 -0.5216883
v 0.21688253 -0.6754438 -1.0159733
v -0.88174385 -0.2958974 0.702451
v -0.88174385 -0.2958974 -0.12648596
v -0.052806906 -0.2958974 -0.12648596
v -0.052806906 -0.2958974 0.702451
v -0.88174385 -0.2958974 -0.9554229
v 0.77613 -0.2958974 0.702451
v -0.052806906 -0.2958974 -0.9554229
v 0.77613 -0.2958974 -0.12648596
v 0.77613 -0.2958974 -0.9554229
v -0.95035535 0.27100748 0.8979206
v -0.95035535 0.27100748 0.3379769
v -0.39041162 0.27100748 0.3379769
v -0.39041162 0.27100748 0.8979206
v -0.95035535 0.27100748 -0.22196683
v 0.16953212 0.27100748 0.8979206
v -0.39041162 0.27100748 -0.22196683
v 0.16953212 0.27100748 0.3379769
v 0.16953212 0.27100748 -0.22196683
v 0.14953867 0.54078496 -0.025500908
v -0.34474635 0.54078496 -0.025500908
v -0.34474635 -0.28815198 -0.025500908
v 0.14953867 -0.28815198 -0.025500908
v -0.83903134 0.54078496 -0.025500908
v 0.14953867 -0.74669677 -0.025500908
v -0.83903134 -0.28815198 -0.025500908
v -0.34474635 -0.74669677 -0.025500908
v -0.83903134 -0.74669677 -0.025500908
vt 0.375 0
vt 0.375 0.25
vt 0.625 0.25
vt 0.625 0
vt 0.375 0.25
vt 0.375 0.5
vt 0.625 0.5
vt 0.625 0.25
vt 0.375 0.5
vt 0.375 0.75
vt 0.625 0.75
vt 0.625 0.5
vt 0.375 0.75
vt 0.375 1
vt 0.625 1
vt 0.625 0.75
vt 0.625 0
vt 0.625 0.25
vt 0.875 0.25
vt 0.875 0
vt 0.125 0
vt 0.125 0.25
vt 0.375 0.25
vt 0.375 0
vt 0 0
vt 0 0.5
vt 0.5 0.5
vt 0.5 0
vt 0 1
vt 1 0
vt 0.5 1
vt 1 0.5
vt 1 1
vt 0 0
vt 0 0.5
vt 0.5 0.5
vt 0.5 0
vt 0 1
vt 1 0
vt 0.5 1
vt 1 0.5
vt 1 1
vt 0 0
vt 0 0.5
vt 0.5 0.5
vt 0.5 0
vt 0 1
vt 1 0
vt 0.5 1
vt 1 0.5
vt 1 1
vt 0 0
vt 0 0.5
vt 0.5 0.5
vt 0.5 0
vt 0 1
vt 1 0
vt 0.5 1
vt 1 0.5
vt 1 1
vn -0 0 1
vn -0 0 1
vn -0 0 1
vn -0 0 1
vn -0 1 0
vn -0 1 0
vn -0 1 0
vn -0 1 0
vn -0 0 -1
vn -0 0 -1
vn -0 0 -1
vn -0 0 -1
vn -0 -1 0
vn -0 -1 0
vn -0 -1 0
vn -0 -1 0
vn 1 0 0
vn 1 0 0
vn 1 0 0
vn 1 0 0
vn -1 0 0
vn -1 0 0
vn -1 0 0
vn -1 0 0
vn 1 0 0
vn 1 0 0
vn 1 0 0
vn 1 0 0
vn 1 0 0
vn 1 0 0
vn 1 0 0
vn 1 0 0
vn 1 0 0
vn -0 1 0
vn -0 1 0
vn -0 1 0
vn -0 1 0
vn -0 1 0
vn -0 1 0
vn -0 1 0
vn -0 1 0
vn -0 1 0
vn -0 1 0
vn -0 1 0
vn -0 1 0
vn -0 1 0
vn -0 1 0
vn -0 1 0
vn -0 1 0
vn -0 1 0
vn -0 1 0
vn -0 0 -1
vn -0 0 -1
vn -0 0 -1
vn -0 0 -1
vn -0 0 -1
vn -0 0 -1
vn -0 0 -1
vn -0 0 -1
vn -0 0 -1
g voxFX_rimFade_collection2_0
f 3/3/3 2/2/2 1/1/1
f 4/4/4 3/3/3 1/1/1
f 7/7/7 6/6/6 5/5/5
f 8/8/8 7/7/7 5/5/5
f 11/11/11 10/10/10 9/9/9
f 12/12/12 11/11/11 9/9/9
f 15/15/15 14/14/14 13/13/13
f 16/16/16 15/15/15 13/13/13
f 19/19/19 18/18/18 17/17/17
f 20/20/20 19/19/19 17/17/17
f 23/23/23 22/22/22 21/21/21
f 24/24/24 23/23/23 21/21/21
f 27/27/27 26/26/26 25/25/25
f 28/28/28 27/27/27 25/25/25
f 27/27/27 29/29/29 26/26/26
f 30/30/30 27/27/27 28/28/28
f 27/27/27 31/31/31 29/29/29
f 30/30/30 32/32/32 27/27/27
f 33/33/33 31/31/31 27/27/27
f 32/32/32 33/33/33 27/27/27
f 36/36/36 35/35/35 34/34/34
f 37/37/37 36/36/36 34/34/34
f 36/36/36 38/38/38 35/35/35
f 39/39/39 36/36/36 37/37/37
f 36/36/36 40/40/40 38/38/38
f 39/39/39 41/41/41 36/36/36
f 42/42/42 40/40/40 36/36/36
f 41/41/41 42/42/42 36/36/36
f 45/45/45 44/44/44 43/43/43
f 46/46/46 45/45/45 43/43/43
f 45/45/45 47/47/47 44/44/44
f 48/48/48 45/45/45 46/46/46
f 45/45/45 49/49/49 47/47/47
f 48/48/48 50/50/50 45/45/45
f 51/51/51 49/49/49 45/45/45
f 50/50/50 51/51/51 45/45/45
f 54/54/54 53/53/53 52/52/52
f 55/55/55 54/54/54 52/52/52
f 54/54/54 56/56/56 53/53/53
f 57/57/57 54/54/54 55/55/55
f 54/54/54 58/58/58 56/56/56
f 57/57/57 59/59/59 54/54/54
f 60/60/60 58/58/58 54/54/54
f 59/59/59 60/60/60 54/54/54
