g voxFX_hole
v -0.845847 0.015202602 -0.85332304
v -1.196768 0.007545071 -1.196768
v -0 0.007545071 -1.1967679
v -1.196768 0.007545071 0
v -0 0.015202602 -0.853323
v 1.196768 0.007545071 -1.196768
v -0.845847 0.015202602 0
v -1.196768 0.007545071 1.196768
v 0.845847 0.015202602 -0.853323
v 1.196768 0.007545071 1.069994E-07
v 0.845847 0.015202602 8.940697E-08
v 1.196768 0.007545071 1.196768
v 0.845847 0.015202602 0.85332304
v -0 0.007545071 1.196768
v -0 0.015202602 0.85332304
v 0.56555796 0.007545071 0.5768099
v 0.56555796 0.007545071 7.130744E-08
v 0.56555796 0.007545071 -0.5768099
v -0 0.007545071 -0.5768099
v -0.56555796 0.007545071 -0.5768099
v -0.56555796 0.007545071 0
v -0 0.007545071 0.5768099
v -0.56555796 0.007545071 0.5768099
v -0.845847 0.015202602 0.85332304
v -0 -2.220446E-16 1
v 0.70911014 0.0055959695 0.7232176
v 1 -7.401487E-17 1
v 1 0 8.940697E-08
v -0 0.0055959695 0.7232176
v -1 -7.401487E-17 1
v 0.70911014 0.0055959695 8.940697E-08
v 1 7.401487E-17 -1
v -0.70911014 0.0055959695 0.7232176
v -0 0.0055959695 0
v -0.70911014 0.0055959695 0
v -1 0 0
v 0.70911014 0.0055959695 -0.72321755
v -0 0.0055959695 -0.72321755
v -0 2.220446E-16 -0.99999994
v -0.70911014 0.0055959695 -0.7232176
v -1 7.401487E-17 -1
vt 0.07333842 0.077076495
vt -5.9604645E-08 -2.9802322E-08
vt -2.9802322E-08 0.5
vt 0.49999994 0
vt 0.07333843 0.5
vt -5.9604645E-08 1
vt 0.49999994 0.07707651
vt 1 0
vt 0.07333841 0.9229235
vt 0.5 1
vt 0.5 0.9229235
vt 1 1
vt 0.9266615 0.92292356
vt 1 0.5
vt 0.9266615 0.5
vt 0.86160874 0.85455513
vt 0.5 0.85455513
vt 0.13839114 0.85455513
vt 0.13839114 0.5
vt 0.13839114 0.14544493
vt 0.49999994 0.14544493
vt 0.86160874 0.5
vt 0.86160874 0.14544493
vt 0.9266615 0.07707651
vt 1 0.5
vt 0.86160874 0.85455513
vt 1 1
vt 0.5 1
vt 0.86160874 0.5
vt 1 0
vt 0.5 0.85455513
vt -5.9604645E-08 1
vt 0.86160874 0.14544493
vt 0.49999994 0.5
vt 0.49999994 0.14544493
vt 0.49999994 0
vt 0.13839114 0.85455513
vt 0.13839114 0.5
vt -2.9802322E-08 0.5
vt 0.13839114 0.14544493
vt -5.9604645E-08 -2.9802322E-08
vn -0.007089362 0.999949 -0.0072059073
vn -0.0111961095 0.9998784 -0.010853702
vn -0 0.9997515 -0.022290697
vn -0.021816041 0.999762 0
vn -0 0.9999902 -0.0044270693
vn 0.011196108 0.9998784 -0.0108536985
vn -0.0042376393 0.99999106 0
vn -0.01119611 0.9998784 0.010853701
vn 0.0070893615 0.999949 -0.007205904
vn 0.021816041 0.999762 0
vn 0.0042376425 0.99999106 0
vn 0.0111961095 0.9998784 0.010853703
vn 0.0070893625 0.999949 0.0072059063
vn -0 0.9997515 0.022290697
vn -0 0.9999902 0.0044270665
vn -0.013800809 0.999811 -0.013698685
vn -0.027309923 0.999627 0
vn -0.01380081 0.999811 0.013698686
vn -0 0.99961674 0.027682576
vn 0.013800813 0.999811 0.013698686
vn 0.027309934 0.999627 0
vn -0 0.99961674 -0.027682574
vn 0.013800811 0.999811 -0.013698686
vn -0.0070893625 0.999949 0.0072059054
vn -0 1 0
vn -0 1 0
vn -0 1 0
vn -0 1 0
vn -0 1 0
vn -0 1 0
vn -0 1 0
vn -0 1 0
vn -0 1 0
vn -0 1 0
vn -0 1 0
vn -0 1 0
vn -0 1 0
vn -0 1 0
vn -0 1 0
vn -0 1 0
vn -0 1 0
g voxFX_hole_0
f 3/3/3 2/2/2 1/1/1
f 1/1/1 2/2/2 4/4/4
f 5/5/5 3/3/3 1/1/1
f 6/6/6 3/3/3 5/5/5
f 7/7/7 1/1/1 4/4/4
f 7/7/7 4/4/4 8/8/8
f 9/9/9 6/6/6 5/5/5
f 10/10/10 6/6/6 9/9/9
f 11/11/11 10/10/10 9/9/9
f 12/12/12 10/10/10 11/11/11
f 13/13/13 12/12/12 11/11/11
f 12/12/12 13/13/13 14/14/14
f 14/14/14 15/15/15 8/8/8
f 13/13/13 15/15/15 14/14/14
f 13/13/13 11/11/11 16/16/16
f 13/13/13 16/16/16 15/15/15
f 11/11/11 17/17/17 16/16/16
f 11/11/11 9/9/9 17/17/17
f 9/9/9 18/18/18 17/17/17
f 18/18/18 9/9/9 19/19/19
f 9/9/9 5/5/5 19/19/19
f 19/19/19 5/5/5 20/20/20
f 5/5/5 1/1/1 20/20/20
f 21/21/21 20/20/20 1/1/1
f 7/7/7 21/21/21 1/1/1
f 16/16/16 22/22/22 15/15/15
f 23/23/23 21/21/21 7/7/7
f 15/15/15 22/22/22 24/24/24
f 22/22/22 23/23/23 24/24/24
f 24/24/24 23/23/23 7/7/7
f 15/15/15 24/24/24 8/8/8
f 24/24/24 7/7/7 8/8/8
g voxFX_hole_1
f 27/27/27 26/26/26 25/25/25
f 27/27/27 28/28/28 26/26/26
f 26/26/26 29/29/29 25/25/25
f 25/25/25 29/29/29 30/30/30
f 28/28/28 31/31/31 26/26/26
f 26/26/26 31/31/31 29/29/29
f 28/28/28 32/32/32 31/31/31
f 29/29/29 33/33/33 30/30/30
f 31/31/31 34/34/34 29/29/29
f 29/29/29 34/34/34 33/33/33
f 33/33/33 35/35/35 30/30/30
f 34/34/34 35/35/35 33/33/33
f 35/35/35 36/36/36 30/30/30
f 32/32/32 37/37/37 31/31/31
f 31/31/31 37/37/37 34/34/34
f 37/37/37 32/32/32 38/38/38
f 37/37/37 38/38/38 34/34/34
f 34/34/34 38/38/38 35/35/35
f 32/32/32 39/39/39 38/38/38
f 35/35/35 40/40/40 36/36/36
f 38/38/38 40/40/40 35/35/35
f 38/38/38 39/39/39 40/40/40
f 40/40/40 41/41/41 36/36/36
f 39/39/39 41/41/41 40/40/40
