g voxPlatform01
v -1.6411389 -1.5756531 1.0033435
v -1.058778 -1.5422473 0.96993774
v -1.03487 -1.5913639 0.31144774
v -1.6568494 -1.5913639 0.31144774
v -1.0191596 -1.5756533 -0.24061523
v -1.6807574 -1.5422474 -0.274021
v -1.6568494 -0.63815904 1.0190539
v -1.6411389 0.05373685 0.24153076
v -1.6411389 0.053737003 1.0033435
v -1.6807574 -0.2672895 0.27493653
v -1.6411389 -1.5756531 1.0033435
v -1.6568494 -1.5913639 0.31144774
v -1.6568494 -0.21817285 -0.3105322
v -1.6807574 -1.5422474 -0.274021
v -1.6411389 -0.23388356 -1.0024279
v -1.6568494 -1.2601385 -1.0181384
v -1.6411389 -1.9520342 -0.24061523
v -1.6411389 -1.9520342 -1.0024279
v -1.03487 -0.6381589 1.6410327
v -1.0191596 0.05373708 1.6253222
v -0.32726377 0.06944784 1.6410327
v -0.32726377 -0.6381589 1.6765051
v -1.03487 -1.260138 1.6410339
v 0.29471558 0.06944784 1.6410327
v -0.32726377 -1.260138 1.6765051
v -1.0191596 -1.952034 1.6253222
v -0.32726377 -1.9677446 1.6410339
v 0.29471558 -0.6381589 1.6765051
v 0.91669554 0.06944784 1.6410327
v 0.29471558 -1.260138 1.6765051
v 0.29471558 -1.9677446 1.6410339
v 0.91669554 -0.6381589 1.6765051
v 1.608591 0.05373708 1.6253222
v 1.6243014 -0.6381589 1.6410327
v 0.9532055 -1.5422472 1.6649413
v 0.9866119 -1.952034 1.6253222
v 1.608591 -1.5756531 1.6253222
v -1.6568494 -0.63815904 1.0190539
v -1.6411389 0.053737003 1.0033435
v -0.9857538 0.09335553 0.9699365
v -1.03487 -0.63815904 1.0190539
v -1.6411389 -1.5756531 1.0033435
v -1.058778 -1.5422473 0.96993774
v -1.6411389 0.05373685 0.24153076
v -1.6807574 -0.2672895 0.27493653
v -1.0191596 -0.23388334 0.24153076
v -0.9857538 0.09335538 0.27493653
v -0.9857538 0.09335553 0.9699365
v -1.6411389 0.053737003 1.0033435
v -1.6411389 0.05373685 0.24153076
v -0.9857538 0.09335538 0.27493653
v -0.32726377 0.10491971 0.9334265
v -0.32726377 0.06944784 1.6410327
v -1.0191596 0.05373708 1.6253222
v 0.29471558 0.06944784 1.6410327
v -0.32726377 0.10491955 0.31144774
v -1.0191596 0.053736776 -0.38044798
v -0.3637738 0.0933553 -0.34704223
v 0.29471558 0.10491971 0.9334265
v 0.91669554 0.06944784 1.6410327
v 0.29471558 0.10491955 0.31144774
v 0.91669554 0.10491971 0.9334265
v 1.608591 0.05373708 1.6253222
v 1.6243014 0.069447756 0.9334265
v 0.91669554 0.10491955 0.31144774
v 1.6243014 0.06944761 0.31144774
v 0.29471558 0.10491948 -0.3105322
v -0.39718017 0.0537367 -1.0024279
v 0.25820494 0.09335522 -0.9690222
v 0.91669554 0.10491948 -0.3105322
v 1.6243014 0.06944753 -0.3105322
v 0.9532055 0.09335522 -0.9690222
v 1.608591 0.0537367 -1.0024279
v 0.22479919 0.05373655 -1.6244067
v 0.9866119 0.05373655 -1.6244067
v -1.03487 -0.6381589 1.6410327
v -0.9857538 0.09335553 0.9699365
v -1.0191596 0.05373708 1.6253222
v -1.03487 -0.63815904 1.0190539
v -1.03487 -1.260138 1.6410339
v -1.058778 -1.5422473 0.96993774
v -1.0191596 -1.952034 1.6253222
v -1.03487 -1.9677447 0.9334265
v -1.03487 -1.5913639 0.31144774
v -1.03487 -1.9677447 0.31144774
v -1.0191596 -1.5756533 -0.24061523
v -0.9857538 -1.9916526 -0.274021
v -0.9857538 -1.5422475 -1.0420458
v -0.3637738 -1.9916528 -0.9690222
v -0.39718017 -1.5756533 -1.0024279
v -0.9492431 -1.9677451 -1.0181384
v -1.6568494 -1.2601385 -1.0181384
v -1.6411389 -1.9520342 -1.0024279
v -1.6411389 -0.23388356 -1.0024279
v -0.9857538 -0.19426511 -0.9690222
v -1.6411389 -1.9520342 -0.24061523
v -1.6807574 -1.5422474 -0.274021
v -1.0191596 -1.5756533 -0.24061523
v -0.9857538 -1.9916526 -0.274021
v -1.6411389 -1.9520342 -0.24061523
v -0.9492431 -1.9677451 -1.0181384
v -1.6411389 -1.9520342 -1.0024279
v -0.9857538 -1.9916526 -0.274021
v -0.3637738 -1.9916528 -0.9690222
v -0.32726377 -2.0032167 -0.3105322
v -1.03487 -1.9677447 0.31144774
v -0.32726377 -2.0032167 0.31144774
v -1.03487 -1.9677447 0.9334265
v -0.32726377 -2.0032165 0.9334265
v -1.0191596 -1.952034 1.6253222
v -0.32726377 -1.9677446 1.6410339
v 0.29471558 -2.0032165 0.9334265
v 0.29471558 -1.9677446 1.6410339
v 0.29471558 -2.0032167 0.31144774
v 1.0023223 -1.9677447 0.9334265
v 0.9866119 -1.952034 1.6253222
v 0.9532055 -1.9916525 0.34795776
v 0.29471558 -2.0032167 -0.3105322
v 0.29471558 -2.0032167 -0.932511
v 0.91669554 -2.0032167 -0.3105322
v 0.29471558 -1.9677451 -1.6401172
v -0.39718017 -1.9520344 -1.6244067
v 0.9866119 -1.9520344 -1.6244067
v 0.9532055 -1.9916528 -0.9690222
v 1.608591 -1.9520342 -1.0024279
v 1.6243014 -1.9677448 -0.3105322
v 1.608591 -1.952034 0.3813635
v -0.3637738 -1.9916528 -0.9690222
v -0.39718017 -1.9520344 -1.6244067
v -0.3637738 -1.5422475 -1.6640258
v -0.39718017 -1.5756533 -1.0024279
v -0.9857538 -1.5422475 -1.0420458
v -0.39718017 -1.5756533 -1.0024279
v -0.3637738 -1.5422475 -1.6640258
v -1.0191596 -1.5756537 -1.6244067
v -0.39718017 -0.23388346 -0.38044798
v -0.3637738 -0.19426511 -0.9690222
v -0.39718017 0.0537367 -1.0024279
v -0.3637738 0.0933553 -0.34704223
v -1.0191596 0.053736776 -0.38044798
v -0.9857538 -0.194265 -0.34704223
v -0.39718017 -0.23388346 -0.38044798
v -0.3637738 0.0933553 -0.34704223
v 0.9532055 -1.9916525 0.34795776
v 1.0023223 -1.5913638 0.9334265
v 0.9866119 -1.5756532 0.3813635
v 1.0023223 -1.9677447 0.9334265
v 0.9532055 -1.5422472 1.6649413
v 0.9866119 -1.952034 1.6253222
v 0.9532055 -1.9916525 0.34795776
v 0.9866119 -1.5756532 0.3813635
v 1.6482092 -1.5422473 0.34795776
v 1.608591 -1.952034 0.3813635
v 1.0023223 -1.5913638 0.9334265
v 1.6482092 -1.5422473 0.34795776
v 0.9866119 -1.5756532 0.3813635
v 1.6243014 -1.5913638 0.9334265
v 0.9532055 -1.5422472 1.6649413
v 1.608591 -1.5756531 1.6253222
v 1.0023223 -1.2601385 -1.0181384
v 0.9532055 -1.9916528 -0.9690222
v 1.608591 -1.9520342 -1.0024279
v 1.6243014 -1.2601385 -1.0181384
v 1.0023223 -0.63815933 -1.0181384
v 1.6243014 -0.63815933 -1.0181384
v 0.9532055 0.09335522 -0.9690222
v 1.608591 0.0537367 -1.0024279
v 0.9866119 -1.9520344 -1.6244067
v 0.9532055 -1.9916528 -0.9690222
v 1.0023223 -1.2601385 -1.0181384
v 1.0023223 -1.2601386 -1.6401172
v 1.0023223 -0.63815933 -1.0181384
v 1.0023223 -0.63815945 -1.6401172
v 0.9532055 0.09335522 -0.9690222
v 0.9866119 0.05373655 -1.6244067
v 0.22479919 0.05373655 -1.6244067
v 1.0023223 -0.63815945 -1.6401172
v 0.9866119 0.05373655 -1.6244067
v 0.25820494 -0.26728982 -1.6640258
v 1.0023223 -1.2601386 -1.6401172
v 0.29471558 -1.2601386 -1.6755896
v 0.9866119 -1.9520344 -1.6244067
v -0.32726377 -0.21817309 -1.6401172
v 0.29471558 -1.9677451 -1.6401172
v -0.3637738 -1.5422475 -1.6640258
v -0.39718017 -1.9520344 -1.6244067
v -1.0191596 -0.23388365 -1.6244067
v -1.0191596 -1.5756537 -1.6244067
v 1.6243014 -0.63815933 -1.0181384
v 1.6243014 0.06944753 -0.3105322
v 1.608591 0.0537367 -1.0024279
v 1.6597735 -0.6381592 -0.3105322
v 1.6243014 -1.2601385 -1.0181384
v 1.6243014 0.06944761 0.31144774
v 1.6597735 -1.2601384 -0.3105322
v 1.608591 -1.9520342 -1.0024279
v 1.6243014 -1.9677448 -0.3105322
v 1.6597735 -0.63815916 0.31144774
v 1.6243014 0.069447756 0.9334265
v 1.6482092 -1.5422473 0.34795776
v 1.608591 -1.952034 0.3813635
v 1.6597735 -0.63815904 0.9334265
v 1.608591 0.05373708 1.6253222
v 1.6243014 -1.5913638 0.9334265
v 1.6243014 -0.6381589 1.6410327
v 1.608591 -1.5756531 1.6253222
v 0.22479919 -0.23388356 -1.0024279
v 0.25820494 -0.26728982 -1.6640258
v 0.22479919 0.05373655 -1.6244067
v 0.25820494 0.09335522 -0.9690222
v -0.39718017 0.0537367 -1.0024279
v -0.3637738 -0.19426511 -0.9690222
v 0.22479919 -0.23388356 -1.0024279
v 0.25820494 0.09335522 -0.9690222
v 0.22479919 -0.23388356 -1.0024279
v -0.32726377 -0.21817309 -1.6401172
v 0.25820494 -0.26728982 -1.6640258
v -0.3637738 -0.19426511 -0.9690222
v -1.0191596 -0.23388365 -1.6244067
v -0.9857538 -0.19426511 -0.9690222
v -0.39718017 -0.23388346 -0.38044798
v -0.9857538 -0.194265 -0.34704223
v -1.6411389 -0.23388356 -1.0024279
v -1.6568494 -0.21817285 -0.3105322
v -1.0191596 -0.23388334 0.24153076
v -1.6807574 -0.2672895 0.27493653
v -1.0191596 -0.23388334 0.24153076
v -0.9857538 -0.194265 -0.34704223
v -1.0191596 0.053736776 -0.38044798
v -0.9857538 0.09335538 0.27493653
v -0.9857538 -1.5422475 -1.0420458
v -1.0191596 -1.5756537 -1.6244067
v -1.0191596 -0.23388365 -1.6244067
v -0.9857538 -0.19426511 -0.9690222
vn 0.029028522 -0.99842024 0.04810703
vn 0.029028522 -0.99842024 0.04810703
vn 0.029028522 -0.99842024 0.04810703
vn 0.029028522 -0.99842024 0.04810703
vn -0.024500227 -0.9980903 -0.05670387
vn -0.024500227 -0.9980903 -0.05670387
vn -0.99899024 0.04164065 0.016869353
vn -0.99899024 0.04164065 0.016869353
vn -0.99899024 0.04164065 0.016869353
vn -0.99899024 0.04164065 0.016869353
vn -0.9992612 -0.02717522 0.027175205
vn -0.9992612 -0.02717522 0.027175205
vn -0.9992612 0.027175218 -0.027175026
vn -0.99899024 -0.041640665 -0.016869353
vn -0.9992612 0.027175218 -0.027175026
vn -0.99899024 -0.041640665 -0.016869353
vn -0.99899024 -0.041640665 -0.016869353
vn -0.99899024 -0.041640665 -0.016869353
vn -0.03693665 0.03693659 0.99863476
vn -0.03693665 0.03693659 0.99863476
vn -0.03693665 0.03693659 0.99863476
vn -0.03693665 0.03693659 0.99863476
vn -0.03693666 -0.036936276 0.99863476
vn -0 0.050066795 0.9987459
vn -0.03693666 -0.036936276 0.99863476
vn -0.03693666 -0.036936276 0.99863476
vn -0.03693666 -0.036936276 0.99863476
vn -0 0.050066795 0.9987459
vn -0 0.050066795 0.9987459
vn 0.019323926 -0.054526236 0.9983253
vn 0.019323926 -0.054526236 0.9983253
vn -0 0.050066795 0.9987459
vn 0.036936667 0.03693678 0.99863476
vn 0.036936667 0.03693678 0.99863476
vn 0.019323926 -0.054526236 0.9983253
vn 0.019323926 -0.054526236 0.9983253
vn 0.054526504 -0.019323623 0.9983253
vn 0.024742687 0.044358175 0.9987093
vn 0.024742687 0.044358175 0.9987093
vn 0.024742687 0.044358175 0.9987093
vn 0.024742687 0.044358175 0.9987093
vn 0.029028527 -0.048106674 0.99842024
vn 0.029028527 -0.048106674 0.99842024
vn -0 -1.7555864E-07 -1
vn -0 -1.7555864E-07 -1
vn -0 -1.7555864E-07 -1
vn -0 -1.7555864E-07 -1
vn -0.01755873 0.99984586 -1.6289557E-07
vn -0.060340513 0.9981779 -1.6262383E-07
vn -0.060340513 0.9981779 -1.6262383E-07
vn -0.01755873 0.99984586 -1.6289557E-07
vn -0.01755873 0.99984586 -1.6289557E-07
vn -0.019324144 0.9983253 0.054526296
vn -0.019324144 0.9983253 0.054526296
vn -0 0.9987459 0.050066397
vn -0.01755873 0.99984586 -1.6289557E-07
vn -0.03693669 0.99863476 -0.036936887
vn -0.03693687 0.99863476 -0.036936853
vn -0 1 -1.6292068E-07
vn -0 0.9987459 0.050066397
vn -0 1 -1.6292068E-07
vn -0 1 -1.6292068E-07
vn 0.03693681 0.99863476 0.03693653
vn 0.0500666 0.9987459 -1.6271638E-07
vn -0 1 -1.6292068E-07
vn 0.0500666 0.9987459 -1.6271638E-07
vn -0 0.99984586 -0.017558914
vn -0.03693687 0.99863476 -0.036936853
vn -0 0.99984586 -0.017558914
vn -0 0.99984586 -0.017558914
vn 0.05452651 0.9983253 -0.019324189
vn -0 0.99984586 -0.017558914
vn 0.05452651 0.9983253 -0.019324189
vn -0 0.99817777 -0.06034077
vn -0 0.99817777 -0.06034077
vn -0.9987093 0.044357993 -0.024742661
vn -0.9987093 0.044357993 -0.024742661
vn -0.9987093 0.044357993 -0.024742661
vn -0.9987093 0.044357993 -0.024742661
vn -0.9990877 -0.03019779 0.030197812
vn -0.9996768 -0.017975623 -0.01797557
vn -0.9990877 -0.03019779 0.030197812
vn -0.9996768 -0.017975623 -0.01797557
vn -0.9996768 -0.017975623 -0.01797557
vn -0.9996768 -0.017975623 -0.01797557
vn -0.9980903 -0.024500206 -0.056703962
vn -0.9980903 -0.024500206 -0.056703962
vn 0.073415056 -0.039005823 -0.9965384
vn 0.073415056 -0.039005823 -0.9965384
vn 0.073415056 -0.039005823 -0.9965384
vn 0.073415056 -0.039005823 -0.9965384
vn -0.03019779 -0.030198062 -0.9990877
vn -0.03019779 -0.030198062 -0.9990877
vn 0.0070050578 0.060592156 -0.99813807
vn 0.0070050578 0.060592156 -0.99813807
vn -0 1.6292068E-07 1
vn -0 1.6292068E-07 1
vn -0 1.6292068E-07 1
vn -0 1.6292068E-07 1
vn -0.04164071 -0.99899024 -0.016869176
vn -0.028238732 -0.9992817 -0.025271643
vn -0.04164071 -0.99899024 -0.016869176
vn -0.028238732 -0.9992817 -0.025271643
vn -0.028238732 -0.9992817 -0.025271643
vn -0.028238732 -0.9992817 -0.025271643
vn -0.050066583 -0.9987459 1.6271638E-07
vn -0.050066583 -0.9987459 1.6271638E-07
vn -0.050066583 -0.9987459 1.6271638E-07
vn -0.050066583 -0.9987459 1.6271638E-07
vn -0.03693671 -0.99863476 0.03693687
vn -0.03693671 -0.99863476 0.03693687
vn 0.033913445 -0.99925524 0.018406197
vn 0.036936685 -0.99863476 0.036936864
vn 0.033913445 -0.99925524 0.018406197
vn 0.033913445 -0.99925524 0.018406197
vn 0.036936685 -0.99863476 0.036936864
vn 0.033913445 -0.99925524 0.018406197
vn 0.008780056 -0.9999229 -0.00877989
vn 0.008780056 -0.9999229 -0.00877989
vn 0.008780056 -0.9999229 -0.00877989
vn 0.01932396 -0.9983253 -0.05452634
vn -0.019323975 -0.9983253 -0.05452634
vn 0.01932396 -0.9983253 -0.05452634
vn 0.008780056 -0.9999229 -0.00877989
vn 0.05452642 -0.9983253 -0.019323858
vn 0.05452642 -0.9983253 -0.019323858
vn 0.054526385 -0.9983253 0.019324202
vn -1 0 0
vn -1 0 0
vn -1 0 0
vn -1 0 0
vn -0 -1 1.664511E-07
vn -0 -1 1.664511E-07
vn -0 -1 1.664511E-07
vn -0 -1 1.664511E-07
vn -1 0 0
vn -1 0 0
vn -1 0 0
vn -1 0 0
vn -0 -2.1940761E-07 -1
vn -0 -2.1940761E-07 -1
vn -0 -2.1940761E-07 -1
vn -0 -2.1940761E-07 -1
vn 0.9980903 -0.02450021 -0.05670394
vn 0.9980903 -0.02450021 -0.05670394
vn 0.9980903 -0.02450021 -0.05670394
vn 0.9980903 -0.02450021 -0.05670394
vn 0.9987093 0.024742693 0.044357836
vn 0.9987093 0.024742693 0.044357836
vn -0 1.6292068E-07 1
vn -0 1.6292068E-07 1
vn -0 1.6292068E-07 1
vn -0 1.6292068E-07 1
vn 0.024500193 -0.9980903 -0.056703843
vn 0.024500193 -0.9980903 -0.056703843
vn 0.024500193 -0.9980903 -0.056703843
vn 0.024500193 -0.9980903 -0.056703843
vn -0.024742674 -0.9987093 0.04435815
vn -0.024742674 -0.9987093 0.04435815
vn -0.024742698 -0.04435801 -0.9987093
vn -0.024742698 -0.04435801 -0.9987093
vn -0.024742698 -0.04435801 -0.9987093
vn -0.024742698 -0.04435801 -0.9987093
vn -0.0247427 0.04435768 -0.9987093
vn -0.0247427 0.04435768 -0.9987093
vn -0.0247427 0.04435768 -0.9987093
vn -0.0247427 0.04435768 -0.9987093
vn 0.9987093 -0.044358 0.024742775
vn 0.9987093 -0.044358 0.024742775
vn 0.9987093 -0.044358 0.024742775
vn 0.9987093 -0.044358 0.024742775
vn 0.9987093 0.044357978 0.024742747
vn 0.9987093 0.044357978 0.024742747
vn 0.9987093 0.044357978 0.024742747
vn 0.9987093 0.044357978 0.024742747
vn 0.016869385 0.041640528 -0.99899024
vn 0.016869385 0.041640528 -0.99899024
vn 0.016869385 0.041640528 -0.99899024
vn 0.016869385 0.041640528 -0.99899024
vn 0.03693664 -0.036936767 -0.99863476
vn 0.03693664 -0.036936767 -0.99863476
vn 0.03693664 -0.036936767 -0.99863476
vn -0.04164067 0.01686921 -0.99899024
vn 0.03693664 -0.036936767 -0.99863476
vn -0.019323941 -0.054526426 -0.9983253
vn -0.019323941 -0.054526426 -0.9983253
vn -0.04164067 0.01686921 -0.99899024
vn -0.04164067 0.01686921 -0.99899024
vn 0.99863476 0.03693663 -0.036936596
vn 0.99863476 0.03693663 -0.036936596
vn 0.99863476 0.03693663 -0.036936596
vn 0.99863476 0.03693663 -0.036936596
vn 0.99863476 -0.036936663 -0.03693642
vn 0.9987459 0.050066635 0
vn 0.99863476 -0.036936663 -0.03693642
vn 0.99863476 -0.036936663 -0.03693642
vn 0.99863476 -0.036936663 -0.03693642
vn 0.9987459 0.050066635 0
vn 0.9987459 0.050066635 0
vn 0.9983253 -0.054526463 0.019323783
vn 0.9983253 -0.054526463 0.019323783
vn 0.9987459 0.050066635 0
vn 0.99863476 0.03693665 0.036936596
vn 0.99925524 -0.03391341 0.018405989
vn 0.99863476 0.03693665 0.036936596
vn 0.99863476 -0.036936663 0.036936637
vn -1 0 0
vn -1 0 0
vn -1 0 0
vn -1 0 0
vn -0 -2.7589456E-07 -1
vn -0 -2.7589456E-07 -1
vn -0 -2.7589456E-07 -1
vn -0 -2.7589456E-07 -1
vn 0.07341507 0.9965384 -0.039005764
vn -0.012515166 0.99877554 -0.04786172
vn 0.07341507 0.9965384 -0.039005764
vn 0.033618335 0.9988691 0.033618156
vn -0.012515166 0.99877554 -0.04786172
vn 0.033618335 0.9988691 0.033618156
vn 0.033618335 0.9988691 0.033618156
vn 0.033618335 0.9988691 0.033618156
vn -0.04786161 0.99877554 -0.012515333
vn -0.04786161 0.99877554 -0.012515333
vn -0.03900557 0.9965384 0.07341494
vn -0.03900557 0.9965384 0.07341494
vn -1 0 -1.12973886E-07
vn -1 0 -1.12973886E-07
vn -1 0 -1.12973886E-07
vn -1 0 -1.12973886E-07
vn -0.9985348 -0.0025800786 0.054051824
vn -0.9985348 -0.0025800786 0.054051824
vn -0.9985348 -0.0025800786 0.054051824
vn -0.9985348 -0.0025800786 0.054051824
g voxPlatform01_0
f 3/3/3 2/2/2 1/1/1
f 4/4/4 3/3/3 1/1/1
f 5/5/5 3/3/3 4/4/4
f 6/6/6 5/5/5 4/4/4
f 9/9/9 8/8/8 7/7/7
f 8/8/8 10/10/10 7/7/7
f 7/7/7 10/10/10 11/11/11
f 10/10/10 12/12/12 11/11/11
f 10/10/10 13/13/13 12/12/12
f 13/13/13 14/14/14 12/12/12
f 13/13/13 15/15/15 14/14/14
f 15/15/15 16/16/16 14/14/14
f 14/14/14 16/16/16 17/17/17
f 16/16/16 18/18/18 17/17/17
f 21/21/21 20/20/20 19/19/19
f 22/22/22 21/21/21 19/19/19
f 22/22/22 19/19/19 23/23/23
f 24/24/24 21/21/21 22/22/22
f 25/25/25 22/22/22 23/23/23
f 25/25/25 23/23/23 26/26/26
f 27/27/27 25/25/25 26/26/26
f 28/28/28 24/24/24 22/22/22
f 28/28/28 22/22/22 25/25/25
f 29/29/29 24/24/24 28/28/28
f 30/30/30 25/25/25 27/27/27
f 30/30/30 28/28/28 25/25/25
f 31/31/31 30/30/30 27/27/27
f 32/32/32 29/29/29 28/28/28
f 32/32/32 28/28/28 30/30/30
f 33/33/33 29/29/29 32/32/32
f 34/34/34 33/33/33 32/32/32
f 35/35/35 30/30/30 31/31/31
f 35/35/35 32/32/32 30/30/30
f 34/34/34 32/32/32 35/35/35
f 36/36/36 35/35/35 31/31/31
f 37/37/37 34/34/34 35/35/35
f 40/40/40 39/39/39 38/38/38
f 41/41/41 40/40/40 38/38/38
f 41/41/41 38/38/38 42/42/42
f 43/43/43 41/41/41 42/42/42
f 46/46/46 45/45/45 44/44/44
f 47/47/47 46/46/46 44/44/44
f 50/50/50 49/49/49 48/48/48
f 51/51/51 50/50/50 48/48/48
f 51/51/51 48/48/48 52/52/52
f 52/52/52 48/48/48 53/53/53
f 48/48/48 54/54/54 53/53/53
f 52/52/52 53/53/53 55/55/55
f 56/56/56 51/51/51 52/52/52
f 57/57/57 51/51/51 56/56/56
f 58/58/58 57/57/57 56/56/56
f 59/59/59 52/52/52 55/55/55
f 56/56/56 52/52/52 59/59/59
f 59/59/59 55/55/55 60/60/60
f 58/58/58 56/56/56 61/61/61
f 61/61/61 56/56/56 59/59/59
f 62/62/62 59/59/59 60/60/60
f 61/61/61 59/59/59 62/62/62
f 62/62/62 60/60/60 63/63/63
f 64/64/64 62/62/62 63/63/63
f 65/65/65 62/62/62 64/64/64
f 65/65/65 61/61/61 62/62/62
f 66/66/66 65/65/65 64/64/64
f 67/67/67 58/58/58 61/61/61
f 67/67/67 61/61/61 65/65/65
f 68/68/68 58/58/58 67/67/67
f 69/69/69 68/68/68 67/67/67
f 70/70/70 65/65/65 66/66/66
f 70/70/70 67/67/67 65/65/65
f 69/69/69 67/67/67 70/70/70
f 71/71/71 70/70/70 66/66/66
f 72/72/72 69/69/69 70/70/70
f 72/72/72 70/70/70 71/71/71
f 73/73/73 72/72/72 71/71/71
f 74/74/74 69/69/69 72/72/72
f 75/75/75 74/74/74 72/72/72
f 78/78/78 77/77/77 76/76/76
f 77/77/77 79/79/79 76/76/76
f 76/76/76 79/79/79 80/80/80
f 79/79/79 81/81/81 80/80/80
f 80/80/80 81/81/81 82/82/82
f 81/81/81 83/83/83 82/82/82
f 81/81/81 84/84/84 83/83/83
f 84/84/84 85/85/85 83/83/83
f 84/84/84 86/86/86 85/85/85
f 86/86/86 87/87/87 85/85/85
f 90/90/90 89/89/89 88/88/88
f 89/89/89 91/91/91 88/88/88
f 88/88/88 91/91/91 92/92/92
f 91/91/91 93/93/93 92/92/92
f 88/88/88 92/92/92 94/94/94
f 95/95/95 88/88/88 94/94/94
f 98/98/98 97/97/97 96/96/96
f 99/99/99 98/98/98 96/96/96
f 102/102/102 101/101/101 100/100/100
f 101/101/101 103/103/103 100/100/100
f 101/101/101 104/104/104 103/103/103
f 104/104/104 105/105/105 103/103/103
f 103/103/103 105/105/105 106/106/106
f 105/105/105 107/107/107 106/106/106
f 106/106/106 107/107/107 108/108/108
f 107/107/107 109/109/109 108/108/108
f 108/108/108 109/109/109 110/110/110
f 109/109/109 111/111/111 110/110/110
f 109/109/109 112/112/112 111/111/111
f 112/112/112 113/113/113 111/111/111
f 107/107/107 114/114/114 109/109/109
f 114/114/114 112/112/112 109/109/109
f 112/112/112 115/115/115 113/113/113
f 115/115/115 116/116/116 113/113/113
f 117/117/117 115/115/115 112/112/112
f 114/114/114 117/117/117 112/112/112
f 105/105/105 118/118/118 107/107/107
f 118/118/118 114/114/114 107/107/107
f 104/104/104 119/119/119 105/105/105
f 119/119/119 118/118/118 105/105/105
f 120/120/120 117/117/117 114/114/114
f 118/118/118 120/120/120 114/114/114
f 121/121/121 119/119/119 104/104/104
f 122/122/122 121/121/121 104/104/104
f 121/121/121 123/123/123 119/119/119
f 123/123/123 124/124/124 119/119/119
f 119/119/119 124/124/124 118/118/118
f 124/124/124 120/120/120 118/118/118
f 124/124/124 125/125/125 120/120/120
f 125/125/125 126/126/126 120/120/120
f 120/120/120 126/126/126 117/117/117
f 126/126/126 127/127/127 117/117/117
f 130/130/130 129/129/129 128/128/128
f 131/131/131 130/130/130 128/128/128
f 134/134/134 133/133/133 132/132/132
f 135/135/135 134/134/134 132/132/132
f 138/138/138 137/137/137 136/136/136
f 139/139/139 138/138/138 136/136/136
f 142/142/142 141/141/141 140/140/140
f 143/143/143 142/142/142 140/140/140
f 146/146/146 145/145/145 144/144/144
f 145/145/145 147/147/147 144/144/144
f 145/145/145 148/148/148 147/147/147
f 148/148/148 149/149/149 147/147/147
f 152/152/152 151/151/151 150/150/150
f 153/153/153 152/152/152 150/150/150
f 156/156/156 155/155/155 154/154/154
f 155/155/155 157/157/157 154/154/154
f 154/154/154 157/157/157 158/158/158
f 157/157/157 159/159/159 158/158/158
f 162/162/162 161/161/161 160/160/160
f 163/163/163 162/162/162 160/160/160
f 163/163/163 160/160/160 164/164/164
f 165/165/165 163/163/163 164/164/164
f 165/165/165 164/164/164 166/166/166
f 167/167/167 165/165/165 166/166/166
f 170/170/170 169/169/169 168/168/168
f 171/171/171 170/170/170 168/168/168
f 172/172/172 170/170/170 171/171/171
f 173/173/173 172/172/172 171/171/171
f 174/174/174 172/172/172 173/173/173
f 175/175/175 174/174/174 173/173/173
f 178/178/178 177/177/177 176/176/176
f 177/177/177 179/179/179 176/176/176
f 177/177/177 180/180/180 179/179/179
f 180/180/180 181/181/181 179/179/179
f 180/180/180 182/182/182 181/181/181
f 179/179/179 181/181/181 183/183/183
f 182/182/182 184/184/184 181/181/181
f 181/181/181 185/185/185 183/183/183
f 181/181/181 184/184/184 185/185/185
f 184/184/184 186/186/186 185/185/185
f 183/183/183 185/185/185 187/187/187
f 185/185/185 188/188/188 187/187/187
f 191/191/191 190/190/190 189/189/189
f 190/190/190 192/192/192 189/189/189
f 189/189/189 192/192/192 193/193/193
f 190/190/190 194/194/194 192/192/192
f 192/192/192 195/195/195 193/193/193
f 193/193/193 195/195/195 196/196/196
f 195/195/195 197/197/197 196/196/196
f 194/194/194 198/198/198 192/192/192
f 192/192/192 198/198/198 195/195/195
f 194/194/194 199/199/199 198/198/198
f 195/195/195 200/200/200 197/197/197
f 198/198/198 200/200/200 195/195/195
f 200/200/200 201/201/201 197/197/197
f 199/199/199 202/202/202 198/198/198
f 198/198/198 202/202/202 200/200/200
f 199/199/199 203/203/203 202/202/202
f 202/202/202 204/204/204 200/200/200
f 203/203/203 205/205/205 202/202/202
f 202/202/202 205/205/205 204/204/204
f 205/205/205 206/206/206 204/204/204
f 209/209/209 208/208/208 207/207/207
f 210/210/210 209/209/209 207/207/207
f 213/213/213 212/212/212 211/211/211
f 214/214/214 213/213/213 211/211/211
f 217/217/217 216/216/216 215/215/215
f 216/216/216 218/218/218 215/215/215
f 216/216/216 219/219/219 218/218/218
f 219/219/219 220/220/220 218/218/218
f 218/218/218 220/220/220 221/221/221
f 220/220/220 222/222/222 221/221/221
f 220/220/220 223/223/223 222/222/222
f 223/223/223 224/224/224 222/222/222
f 222/222/222 224/224/224 225/225/225
f 224/224/224 226/226/226 225/225/225
f 229/229/229 228/228/228 227/227/227
f 230/230/230 229/229/229 227/227/227
f 233/233/233 232/232/232 231/231/231
f 234/234/234 233/233/233 231/231/231
