g voxPlatform03_VOL
v 2.5246518 -0.34344217 -4.3799405
v 2.4765205 -0.44117677 -6.565136
v 2.4765205 -2.0689619 -6.565136
v 2.5246518 -2.299197 -4.379941
v 2.588827 0.090713196 -3.353144
v 2.588827 -2.299197 -3.353144
v 3.182445 0.090713196 -1.764815
v 3.182445 -1.8244387 -1.7648144
v 3.182445 -0.14952059 0.2887851
v 3.182445 -1.8244387 0.28878564
v 2.4765208 0.090713196 1.6845878
v 2.4765208 -2.8524525 1.6845884
v 3.182445 0.090713196 3.0001764
v 3.182445 -2.338777 3.0001764
v 3.182445 -1.5787451 6.5651336
v 3.182445 0.090713196 6.5651336
v -0.6979038 0.090713196 6.5651336
v -0.6979038 -1.5787451 6.5651336
v -2.5246518 -1.5787451 6.5651336
v -2.4300115 0.090713196 5.170201
v 3.182445 0.090713196 3.0001764
v -2.5246518 0.090713196 6.5651336
v -3.182445 -0.43516532 5.16608
v -3.182445 -1.7456828 5.16608
v -3.182445 0.090713196 2.4487975
v -3.182445 -1.815123 2.4487982
v -3.182445 0.090713196 0.2887851
v -3.182445 -1.815123 0.28878564
v -2.508608 0.090713196 -1.0588908
v -2.508608 -1.815123 -1.0588902
v -2.508608 0.090713196 -3.641931
v -2.508608 -1.716883 -3.641931
v -3.182445 0.090713196 -4.3799405
v -3.182445 -1.716883 -4.379941
v -3.182445 -1.8371234 -6.565136
v -3.182445 0.090713196 -6.565136
v -3.182445 -0.43516532 5.16608
v -2.4300115 0.090713196 2.5188622
v -3.182445 0.090713196 2.4487975
v 2.4765208 0.090713196 1.6845878
v -0.6979038 0.090713196 0.2887851
v -3.182445 0.090713196 0.2887851
v 3.182445 -0.14952059 0.2887851
v -0.6979038 0.090713196 -1.0588908
v -2.508608 0.090713196 -1.0588908
v 3.182445 0.090713196 -1.764815
v -0.6979038 0.090713196 -3.641931
v -2.508608 0.090713196 -3.641931
v 2.588827 0.090713196 -3.353144
v -0.6979038 0.090713196 -4.3799405
v -3.182445 0.090713196 -4.3799405
v 2.5246518 -0.34344217 -4.3799405
v -0.6979038 0.090713196 -6.420742
v -3.182445 0.090713196 -6.565136
v 2.4765205 -0.44117677 -6.565136
v -0.6979038 -1.8371234 -6.420742
v -3.182445 -1.8371234 -6.565136
v 2.4765205 -2.0689619 -6.565136
v -0.6979038 -2.1767263 -4.379941
v -3.182445 -1.716883 -4.379941
v 2.5246518 -2.299197 -4.379941
v -0.6979038 -2.1767263 -3.641931
v -2.508608 -1.716883 -3.641931
v 2.588827 -2.299197 -3.353144
v -0.6979038 -2.8524525 -1.0588902
v -2.508608 -1.815123 -1.0588902
v 3.182445 -1.8244387 -1.7648144
v -0.6979038 -2.8524525 0.28878564
v -3.182445 -1.815123 0.28878564
v 3.182445 -1.8244387 0.28878564
v 0.13745888 -3.0250292 2.1349378
v -3.182445 -1.815123 2.4487982
v 2.4765208 -2.8524525 1.6845884
v 0.13745888 -2.835833 4.236668
v -3.182445 -1.7456828 5.16608
v 3.182445 -2.338777 3.0001764
v -0.6979038 -1.5787451 6.5651336
v -2.5246518 -1.5787451 6.5651336
v 3.182445 -1.5787451 6.5651336
vt 0.833394 0.25
vt 0.875 0.25
vt 0.875 0
vt 0.83339393 0
vt 0.81934226 0.25
vt 0.81934226 0
vt 0.7701612 0.25
vt 0.77016115 0
vt 0.7445015 0.25
vt 0.7445014 0
vt 0.6916548 0.25
vt 0.6916548 0
vt 0.6516379 0.25
vt 0.6516379 0
vt 0.625 0
vt 0.625 0.25
vt 0.47258776 0.25
vt 0.47258776 0
vt 0.375 0
vt 0.47258776 0.27663794
vt 0.625 0.27663794
vt 0.375 0.25
vt 0.34836206 0.25
vt 0.34836206 0
vt 0.30834514 0.25
vt 0.30834517 0
vt 0.25549847 0.25
vt 0.2554985 0
vt 0.22983876 0.25
vt 0.22983877 0
vt 0.18065774 0.25
vt 0.18065776 0
vt 0.16660605 0.25
vt 0.16660607 0
vt 0.125 0
vt 0.125 0.25
vt 0.375 0.27663794
vt 0.47258776 0.31665483
vt 0.375 0.31665483
vt 0.625 0.31665483
vt 0.47258776 0.3695015
vt 0.375 0.3695015
vt 0.625 0.3695015
vt 0.47258776 0.3951612
vt 0.375 0.3951612
vt 0.625 0.3951612
vt 0.47258776 0.44434226
vt 0.375 0.44434226
vt 0.625 0.44434226
vt 0.47258776 0.45839393
vt 0.375 0.45839393
vt 0.625 0.45839393
vt 0.47258776 0.5
vt 0.375 0.5
vt 0.625 0.5
vt 0.47258776 0.75
vt 0.375 0.75
vt 0.625 0.75
vt 0.47258776 0.79160607
vt 0.375 0.79160607
vt 0.625 0.79160607
vt 0.47258776 0.80565774
vt 0.375 0.80565774
vt 0.625 0.80565774
vt 0.47258776 0.8548387
vt 0.375 0.8548387
vt 0.625 0.8548387
vt 0.47258776 0.88049847
vt 0.375 0.88049847
vt 0.625 0.88049847
vt 0.47258776 0.93334514
vt 0.375 0.93334514
vt 0.625 0.93334514
vt 0.47258776 0.9733621
vt 0.375 0.9733621
vt 0.625 0.9733621
vt 0.47258776 1
vt 0.375 1
vt 0.625 1
vn 0.6307505 0.7705299 -0.09185655
vn 0.4549376 0.63620156 -0.62312055
vn 0.35783032 -0.67630714 -0.6438681
vn 0.48556063 -0.8684738 -0.0999196
vn 0.39069965 0.90817773 -0.15022306
vn 0.44691032 -0.8847024 -0.13256256
vn 0.48945358 0.86996067 -0.06002941
vn 0.6284391 -0.7685136 -0.12021299
vn 0.5493915 0.82395506 0.13880607
vn 0.72113216 -0.6895266 0.06724254
vn 0.27144974 0.9616644 -0.03894493
vn 0.4755794 -0.86815315 -0.14189574
vn 0.47808093 0.8743251 -0.08363222
vn 0.7116781 -0.6987328 0.07271081
vn 0.56282794 -0.58069956 0.5882284
vn 0.45583877 0.793007 0.40416694
vn -0.0069453167 0.90863883 0.4175251
vn 0.013689622 -0.6850581 0.72835976
vn -0.33223635 -0.65069526 0.68279916
vn -0.057790425 0.9983006 0.007503453
vn 0.47808093 0.8743251 -0.08363222
vn -0.43106836 0.46389288 0.77394015
vn -0.9279261 0.340921 0.15075178
vn -0.6302203 -0.7506315 0.19843058
vn -0.834368 0.5509133 0.018020703
vn -0.69021624 -0.72279924 0.034098957
vn -0.7571423 0.63685167 -0.1454492
vn -0.7761836 -0.6220714 -0.102792054
vn -0.6538042 0.748025 -0.11401163
vn -0.7828862 -0.59741986 -0.17372021
vn -0.65278184 0.74635905 0.12970716
vn -0.77806824 -0.62458855 0.067073986
vn -0.6573113 0.73897517 0.14784302
vn -0.7104657 -0.693801 0.11780774
vn -0.499426 -0.61284083 -0.6123723
vn -0.47925758 0.63714564 -0.60362047
vn -0.9279261 0.340921 0.15075178
vn -0.029914577 0.9995516 0.0012969
vn -0.834368 0.5509133 0.018020703
vn 0.27144974 0.9616644 -0.03894493
vn 0.021871101 0.9997551 -0.0033912063
vn -0.7571423 0.63685167 -0.1454492
vn 0.5493915 0.82395506 0.13880607
vn 0.01272408 0.99963 0.02404259
vn -0.6538042 0.748025 -0.11401163
vn 0.48945358 0.86996067 -0.06002941
vn 0.014328551 0.99884486 -0.04586508
vn -0.65278184 0.74635905 0.12970716
vn 0.39069965 0.90817773 -0.15022306
vn 0.07500399 0.99575704 -0.05331372
vn -0.6573113 0.73897517 0.14784302
vn 0.6307505 0.7705299 -0.09185655
vn 0.06855315 0.7761941 -0.6267562
vn -0.47925758 0.63714564 -0.60362047
vn 0.4549376 0.63620156 -0.62312055
vn -0.05175855 -0.7188266 -0.69325995
vn -0.499426 -0.61284083 -0.6123723
vn 0.35783032 -0.67630714 -0.6438681
vn -0.079687946 -0.99489826 -0.06186469
vn -0.7104657 -0.693801 0.11780774
vn 0.48556063 -0.8684738 -0.0999196
vn -0.09573949 -0.99347043 -0.06205156
vn -0.77806824 -0.62458855 0.067073986
vn 0.44691032 -0.8847024 -0.13256256
vn -0.021348352 -0.997498 -0.067394145
vn -0.7828862 -0.59741986 -0.17372021
vn 0.6284391 -0.7685136 -0.12021299
vn -0.090494916 -0.99327636 -0.07220029
vn -0.7761836 -0.6220714 -0.102792054
vn 0.72113216 -0.6895266 0.06724254
vn -0.099801734 -0.9945714 -0.029448733
vn -0.69021624 -0.72279924 0.034098957
vn 0.4755794 -0.86815315 -0.14189574
vn -0.03566397 -0.9720282 0.23214087
vn -0.6302203 -0.7506315 0.19843058
vn 0.7116781 -0.6987328 0.07271081
vn 0.013689622 -0.6850581 0.72835976
vn -0.33223635 -0.65069526 0.68279916
vn 0.56282794 -0.58069956 0.5882284
g voxPlatform03_VOL_0
f 3/3/3 2/2/2 1/1/1
f 4/4/4 3/3/3 1/1/1
f 4/4/4 1/1/1 5/5/5
f 6/6/6 4/4/4 5/5/5
f 6/6/6 5/5/5 7/7/7
f 8/8/8 6/6/6 7/7/7
f 8/8/8 7/7/7 9/9/9
f 10/10/10 8/8/8 9/9/9
f 10/10/10 9/9/9 11/11/11
f 12/12/12 10/10/10 11/11/11
f 12/12/12 11/11/11 13/13/13
f 14/14/14 12/12/12 13/13/13
f 14/14/14 13/13/13 15/15/15
f 13/13/13 16/16/16 15/15/15
f 15/15/15 16/16/16 17/17/17
f 18/18/18 15/15/15 17/17/17
f 18/18/18 17/17/17 19/19/19
f 17/17/17 16/16/16 20/20/20
f 16/16/16 21/21/21 20/20/20
f 17/17/17 22/22/22 19/19/19
f 17/17/17 20/20/20 22/22/22
f 19/19/19 22/22/22 23/23/23
f 24/24/24 19/19/19 23/23/23
f 24/24/24 23/23/23 25/25/25
f 26/26/26 24/24/24 25/25/25
f 26/26/26 25/25/25 27/27/27
f 28/28/28 26/26/26 27/27/27
f 28/28/28 27/27/27 29/29/29
f 30/30/30 28/28/28 29/29/29
f 30/30/30 29/29/29 31/31/31
f 32/32/32 30/30/30 31/31/31
f 32/32/32 31/31/31 33/33/33
f 34/34/34 32/32/32 33/33/33
f 34/34/34 33/33/33 35/35/35
f 33/33/33 36/36/36 35/35/35
f 20/20/20 37/37/37 22/22/22
f 20/20/20 38/38/38 37/37/37
f 20/20/20 21/21/21 38/38/38
f 38/38/38 39/39/39 37/37/37
f 21/21/21 40/40/40 38/38/38
f 38/38/38 41/41/41 39/39/39
f 38/38/38 40/40/40 41/41/41
f 41/41/41 42/42/42 39/39/39
f 40/40/40 43/43/43 41/41/41
f 41/41/41 44/44/44 42/42/42
f 41/41/41 43/43/43 44/44/44
f 44/44/44 45/45/45 42/42/42
f 43/43/43 46/46/46 44/44/44
f 44/44/44 47/47/47 45/45/45
f 44/44/44 46/46/46 47/47/47
f 47/47/47 48/48/48 45/45/45
f 46/46/46 49/49/49 47/47/47
f 47/47/47 50/50/50 48/48/48
f 47/47/47 49/49/49 50/50/50
f 50/50/50 51/51/51 48/48/48
f 49/49/49 52/52/52 50/50/50
f 50/50/50 53/53/53 51/51/51
f 50/50/50 52/52/52 53/53/53
f 53/53/53 54/54/54 51/51/51
f 52/52/52 55/55/55 53/53/53
f 53/53/53 56/56/56 54/54/54
f 53/53/53 55/55/55 56/56/56
f 56/56/56 57/57/57 54/54/54
f 55/55/55 58/58/58 56/56/56
f 56/56/56 59/59/59 57/57/57
f 56/56/56 58/58/58 59/59/59
f 59/59/59 60/60/60 57/57/57
f 58/58/58 61/61/61 59/59/59
f 59/59/59 62/62/62 60/60/60
f 59/59/59 61/61/61 62/62/62
f 62/62/62 63/63/63 60/60/60
f 61/61/61 64/64/64 62/62/62
f 62/62/62 65/65/65 63/63/63
f 62/62/62 64/64/64 65/65/65
f 65/65/65 66/66/66 63/63/63
f 64/64/64 67/67/67 65/65/65
f 65/65/65 68/68/68 66/66/66
f 65/65/65 67/67/67 68/68/68
f 68/68/68 69/69/69 66/66/66
f 67/67/67 70/70/70 68/68/68
f 68/68/68 71/71/71 69/69/69
f 68/68/68 70/70/70 71/71/71
f 71/71/71 72/72/72 69/69/69
f 70/70/70 73/73/73 71/71/71
f 71/71/71 74/74/74 72/72/72
f 71/71/71 73/73/73 74/74/74
f 74/74/74 75/75/75 72/72/72
f 73/73/73 76/76/76 74/74/74
f 74/74/74 77/77/77 75/75/75
f 74/74/74 76/76/76 77/77/77
f 77/77/77 78/78/78 75/75/75
f 76/76/76 79/79/79 77/77/77
