g voxTree01_COL
v -1.3195593 1.6842381 0.9198495
v -1.3415093 2.3286662 0.34459046
v -1.2825738 2.2420824 0.8702774
v -0.9191702 2.4214416 1.0998245
v -0.9625534 1.6721367 1.2713085
v -1.1563281 2.6763675 0.37763458
v -0.6550177 1.675188 1.4100299
v -1.4391848 1.6901234 0.3189691
v -1.2912332 2.346213 -0.1983081
v -1.3181168 1.6006898 -0.23819976
v -1.2448614 1.1706274 0.3237268
v -1.213779 1.2028192 0.8000183
v -0.749414 1.128931 1.0065848
v -0.53387177 1.2879977 1.3340728
v -0.7852185 0.9477736 0.34064087
v -0.8843463 1.0699264 -0.24345276
v -0.3113562 0.8455523 -0.32775968
v -0.3057901 0.8057434 0.42386472
v -1.2063364 1.2199486 -0.054826964
v -0.19729766 0.96026677 0.96331054
v 0.470892 0.78284115 0.43301392
v 0.5145511 1.0415872 1.0539956
v 1.0776864 1.053721 0.4157324
v 0.9300824 1.1757442 0.910444
v -0.19875182 1.2117596 1.4007449
v -0.29565215 0.60920835 0.35753143
v 1.0063819 1.7272155 1.0706298
v -0.19310607 1.6915513 1.5829059
v -0.21602692 2.3374124 1.4882627
v -0.68438536 2.1359713 1.4160211
v 0.34533447 1.2074702 1.4186175
v 0.50958616 1.7283912 1.5004288
v 0.37894347 2.3255515 1.47147
v 0.81212646 1.7217318 1.3160291
v 0.98113096 2.3376348 0.92893463
v 0.73605436 2.3412526 1.2286334
v 0.2507428 2.7098117 1.3532254
v 1.3095261 1.6862724 0.648537
v 0.8664941 2.7634406 0.80972654
v 0.47332886 2.8948228 1.010383
v -0.22693206 2.920929 1.0517831
v -0.27969116 3.2501798 0.4754599
v 0.4870651 3.2218814 0.4680731
v -0.0139971925 2.7166398 1.3565042
v 1.2707422 2.400585 0.47513884
v -0.45114288 2.5887446 1.2935531
v 0.9790808 2.882373 0.41113615
v -0.7257587 2.8226705 0.86803555
v -0.84369564 2.9391751 0.399451
v -0.8658096 2.9803293 -0.16948761
v -1.1694052 2.6448257 -0.20194335
v -1.24729 2.1879914 -0.74357265
v -0.75117916 2.8645334 -0.75152314
v -0.5267972 3.2809715 -0.19959167
v -0.9580145 2.415583 -0.9709457
v -1.1522739 1.6412396 -0.9599054
v -1.251861 1.835153 -0.8250265
v -1.1783746 1.2949066 -0.42578825
v -0.51960754 2.6180053 -1.1868832
v -0.2980664 3.0127819 -0.91170776
v -0.7379358 2.189036 -1.31203
v -0.77623445 1.1057419 -0.8246283
v -0.8544794 1.727059 -1.3160837
v -0.1953305 0.9538585 -0.81251067
v -0.25159454 2.3655608 -1.3877627
v -0.07167206 2.7395334 -1.2592971
v 0.45456144 2.334848 -1.3704382
v 0.25746673 2.7392747 -1.2551937
v 0.46402067 2.9809966 -0.8880841
v -0.06675445 3.3096566 -0.6212216
v 0.7000793 2.5660088 -1.1385553
v -0.1871939 1.6950125 -1.5221323
v 1.0942398 2.3817372 -0.9175412
v 0.86397094 2.1324315 -1.291733
v 0.87290555 1.6908724 -1.3047411
v 0.9184182 2.8078012 -0.71912354
v 0.41861877 1.6925497 -1.4804416
v -0.23203185 3.3494458 -0.1901654
v 1.0283487 2.9095502 -0.23828949
v -0.18541351 1.1529385 -1.3040762
v 0.4127194 1.1951284 -1.286423
v 0.7902035 1.2762886 -1.2293106
v -0.6572571 1.2042987 -1.2331582
v 0.39544615 0.967197 -0.8327078
v 1.1808889 1.6966941 -1.0613294
v 0.99192744 1.1147575 -0.8757477
v 0.46028715 0.79655796 -0.32462463
v 1.4235709 1.2266226 -0.6716925
v 1.497749 1.7027677 -0.73469174
v 0.994053 0.8896366 -0.22583862
v 0.40686187 0.60920334 -0.29803252
v -0.29452544 0.62373817 -0.29610077
v 1.4625348 1.1640887 -0.20871857
v 0.4077536 0.5943894 0.358627
v 1.6448601 1.7004936 -0.20779419
v 0.38686767 0.055076215 -0.31808683
v -0.35622528 0.05098444 0.38056242
v -0.35593933 0.04665433 -0.3175424
v 0.41109008 0.121874884 0.3550711
v 0.29607818 -0.22900556 -0.20327666
v -0.22341003 -0.23071085 0.29506958
v -0.22042358 -0.23509261 -0.19927979
v 0.2989798 -0.22430195 0.29900786
v 1.5388919 2.2906091 -0.22062011
v 1.4588928 2.1895707 -0.68274474
v 1.3146282 2.620669 -0.23069488
v 1.5028888 2.218873 0.2972113
v 1.5226223 1.6875032 0.33520293
v 1.4267774 1.2240542 0.22907928
v 0.65522885 3.208162 -0.24356964
v 0.2709082 3.3499377 0.28237915
v 0.30730286 3.3524458 -0.22948456
v -0.08834229 3.351125 0.28817353
v 0.21664886 3.307136 -0.619942
vn -0.9835666 0.12156244 0.13348922
vn -0.9835666 0.12156244 0.13348922
vn -0.9835666 0.12156244 0.13348922
vn -0.61952674 0.17538747 0.76513124
vn -0.61952674 0.17538747 0.76513124
vn -0.7111004 0.61797744 0.33532113
vn -0.26544905 0.065596975 0.96189076
vn -0.9835666 0.12156244 0.13348922
vn -0.9963463 0.028492726 -0.080512054
vn -0.9963463 0.028492726 -0.080512054
vn -0.27444652 -0.9459125 0.17299932
vn -0.27444652 -0.9459125 0.17299932
vn -0.2753952 -0.91852546 0.28366977
vn -0.24023099 -0.8496425 0.46946427
vn -0.2753952 -0.91852546 0.28366977
vn -0.31549484 -0.92942005 -0.19141923
vn -0.31549484 -0.92942005 -0.19141923
vn -0.2753952 -0.91852546 0.28366977
vn -0.4049865 -0.90355456 -0.13991107
vn -0.2753952 -0.91852546 0.28366977
vn 0.3681066 -0.8773704 0.30776393
vn 0.3681066 -0.8773704 0.30776393
vn 0.3681066 -0.8773704 0.30776393
vn 0.3681066 -0.8773704 0.30776393
vn -0.24023099 -0.8496425 0.46946427
vn -0.011629619 -0.3947823 0.91870105
vn 0.8082006 0.1815439 0.5602265
vn -0.26544905 0.065596975 0.96189076
vn -0.26544905 0.065596975 0.96189076
vn -0.26544905 0.065596975 0.96189076
vn -0.0052034133 -0.91369003 0.40637845
vn 0.53825665 0.18750829 0.8216571
vn 0.53825665 0.18750829 0.8216571
vn 0.77326447 0.19580469 0.60309416
vn 0.8082006 0.1815439 0.5602265
vn 0.77326447 0.19580469 0.60309416
vn 0.5658175 0.46847913 0.67851156
vn 0.8082006 0.1815439 0.5602265
vn 0.5168382 0.74490285 0.4218982
vn 0.5168382 0.74490285 0.4218982
vn -0.4164884 0.8094711 0.4138766
vn -0.4164884 0.8094711 0.4138766
vn 0.5168382 0.74490285 0.4218982
vn -0.292233 0.5750104 0.76417464
vn 0.8082006 0.1815439 0.5602265
vn -0.3972527 0.43572968 0.8076694
vn 0.5168382 0.74490285 0.4218982
vn -0.4164884 0.8094711 0.4138766
vn -0.4164884 0.8094711 0.4138766
vn -0.5396974 0.7562875 -0.36980522
vn -0.8038518 0.5130161 -0.30105954
vn -0.9963463 0.028492726 -0.080512054
vn -0.5396974 0.7562875 -0.36980522
vn -0.3943777 0.84061843 -0.37125036
vn -0.6646268 0.19858491 -0.7203022
vn -0.6646268 0.19858491 -0.7203022
vn -0.9963463 0.028492726 -0.080512054
vn -0.93715733 -0.27905548 -0.20943746
vn -0.4270609 0.45495716 -0.78143007
vn -0.3943777 0.84061843 -0.37125036
vn -0.2281688 0.14172465 -0.9632513
vn -0.31549484 -0.92942005 -0.19141923
vn -0.2281688 0.14172465 -0.9632513
vn -0.31549484 -0.92942005 -0.19141923
vn -0.2281688 0.14172465 -0.9632513
vn -0.28683847 0.5567231 -0.7796045
vn 0.28843406 0.10166392 -0.9520873
vn 0.42682877 0.5445545 -0.72199565
vn 0.49980944 0.7937265 -0.34668246
vn -0.3943777 0.84061843 -0.37125036
vn 0.49889275 0.46404263 -0.73196346
vn -0.2281688 0.14172465 -0.9632513
vn 0.6386191 0.19667944 -0.7439643
vn 0.28843406 0.10166392 -0.9520873
vn 0.28843406 0.10166392 -0.9520873
vn 0.5198458 0.770201 -0.36952785
vn 0.28843406 0.10166392 -0.9520873
vn -0.3943777 0.84061843 -0.37125036
vn 0.5198458 0.770201 -0.36952785
vn -0.17692801 -0.9478739 -0.26501256
vn 0.1810101 -0.89189523 -0.41443732
vn 0.1810101 -0.89189523 -0.41443732
vn -0.17692801 -0.9478739 -0.26501256
vn 0.1885468 -0.92733353 -0.3232689
vn 0.6386191 0.19667944 -0.7439643
vn 0.1885468 -0.92733353 -0.3232689
vn 0.1885468 -0.92733353 -0.3232689
vn 0.37008706 -0.90016836 -0.22963524
vn 0.9652659 0.13695888 -0.2224945
vn 0.1885468 -0.92733353 -0.3232689
vn -0.013255051 -0.29289773 -0.95605195
vn -0.013255051 -0.29289773 -0.95605195
vn 0.37008706 -0.90016836 -0.22963524
vn -0.011629619 -0.3947823 0.91870105
vn 0.9652659 0.13695888 -0.2224945
vn -0 -0.16073507 -0.9869976
vn -0 -0.07936105 0.9968459
vn -0 -0.16073507 -0.9869976
vn -0 -0.07936105 0.9968459
vn -0 -0.16073507 -0.9869976
vn -0 -0.07936105 0.9968459
vn -0 -0.16073507 -0.9869976
vn -0 -0.07936105 0.9968459
vn 0.9652659 0.13695888 -0.2224945
vn 0.9652659 0.13695888 -0.2224945
vn 0.67923206 0.6308263 -0.3751027
vn 0.7479195 0.13717894 0.64946
vn 0.7479195 0.13717894 0.64946
vn 0.45628083 -0.8759494 0.15659036
vn 0.49980944 0.7937265 -0.34668246
vn 0.021578632 0.8498815 0.52653193
vn 0.49980944 0.7937265 -0.34668246
vn 0.021578632 0.8498815 0.52653193
vn 0.49980944 0.7937265 -0.34668246
g voxTree01_COL_0
f 3/3/3 2/2/2 1/1/1
f 4/4/4 3/3/3 1/1/1
f 2/2/2 3/3/3 4/4/4
f 5/5/5 4/4/4 1/1/1
f 6/6/6 2/2/2 4/4/4
f 4/4/4 5/5/5 7/7/7
f 2/2/2 8/8/8 1/1/1
f 9/9/9 2/2/2 6/6/6
f 2/2/2 9/9/9 8/8/8
f 9/9/9 10/10/10 8/8/8
f 8/8/8 10/10/10 11/11/11
f 1/1/1 8/8/8 12/12/12
f 5/5/5 1/1/1 12/12/12
f 8/8/8 11/11/11 12/12/12
f 13/13/13 5/5/5 12/12/12
f 7/7/7 5/5/5 14/14/14
f 5/5/5 13/13/13 14/14/14
f 11/11/11 15/15/15 12/12/12
f 15/15/15 13/13/13 12/12/12
f 16/16/16 15/15/15 11/11/11
f 16/16/16 17/17/17 15/15/15
f 17/17/17 18/18/18 15/15/15
f 15/15/15 18/18/18 13/13/13
f 10/10/10 19/19/19 11/11/11
f 19/19/19 16/16/16 11/11/11
f 16/16/16 19/19/19 10/10/10
f 13/13/13 20/20/20 14/14/14
f 18/18/18 20/20/20 13/13/13
f 18/18/18 21/21/21 20/20/20
f 21/21/21 22/22/22 20/20/20
f 21/21/21 23/23/23 22/22/22
f 23/23/23 24/24/24 22/22/22
f 20/20/20 25/25/25 14/14/14
f 20/20/20 22/22/22 25/25/25
f 18/18/18 17/17/17 26/26/26
f 21/21/21 18/18/18 26/26/26
f 27/27/27 24/24/24 23/23/23
f 24/24/24 27/27/27 22/22/22
f 25/25/25 28/28/28 14/14/14
f 28/28/28 7/7/7 14/14/14
f 28/28/28 29/29/29 7/7/7
f 29/29/29 30/30/30 7/7/7
f 30/30/30 4/4/4 7/7/7
f 4/4/4 30/30/30 29/29/29
f 22/22/22 31/31/31 25/25/25
f 31/31/31 32/32/32 25/25/25
f 32/32/32 28/28/28 25/25/25
f 32/32/32 31/31/31 22/22/22
f 32/32/32 33/33/33 28/28/28
f 33/33/33 29/29/29 28/28/28
f 34/34/34 32/32/32 22/22/22
f 27/27/27 34/34/34 22/22/22
f 33/33/33 32/32/32 34/34/34
f 27/27/27 35/35/35 34/34/34
f 36/36/36 33/33/33 34/34/34
f 35/35/35 36/36/36 34/34/34
f 33/33/33 37/37/37 29/29/29
f 37/37/37 33/33/33 36/36/36
f 35/35/35 27/27/27 38/38/38
f 38/38/38 27/27/27 23/23/23
f 35/35/35 39/39/39 36/36/36
f 40/40/40 37/37/37 36/36/36
f 39/39/39 40/40/40 36/36/36
f 40/40/40 41/41/41 37/37/37
f 42/42/42 41/41/41 40/40/40
f 43/43/43 42/42/42 40/40/40
f 43/43/43 40/40/40 39/39/39
f 37/37/37 44/44/44 29/29/29
f 41/41/41 44/44/44 37/37/37
f 44/44/44 41/41/41 29/29/29
f 39/39/39 35/35/35 45/45/45
f 45/45/45 35/35/35 38/38/38
f 41/41/41 46/46/46 29/29/29
f 46/46/46 4/4/4 29/29/29
f 46/46/46 41/41/41 4/4/4
f 47/47/47 43/43/43 39/39/39
f 47/47/47 39/39/39 45/45/45
f 41/41/41 48/48/48 4/4/4
f 48/48/48 49/49/49 4/4/4
f 49/49/49 48/48/48 41/41/41
f 42/42/42 49/49/49 41/41/41
f 49/49/49 6/6/6 4/4/4
f 49/49/49 50/50/50 6/6/6
f 50/50/50 49/49/49 42/42/42
f 50/50/50 51/51/51 6/6/6
f 51/51/51 9/9/9 6/6/6
f 52/52/52 9/9/9 51/51/51
f 9/9/9 52/52/52 10/10/10
f 50/50/50 53/53/53 51/51/51
f 54/54/54 50/50/50 42/42/42
f 53/53/53 50/50/50 54/54/54
f 55/55/55 52/52/52 51/51/51
f 53/53/53 55/55/55 51/51/51
f 55/55/55 56/56/56 52/52/52
f 56/56/56 57/57/57 52/52/52
f 52/52/52 57/57/57 10/10/10
f 57/57/57 56/56/56 10/10/10
f 56/56/56 58/58/58 10/10/10
f 58/58/58 16/16/16 10/10/10
f 58/58/58 56/56/56 16/16/16
f 59/59/59 55/55/55 53/53/53
f 60/60/60 53/53/53 54/54/54
f 60/60/60 59/59/59 53/53/53
f 55/55/55 61/61/61 56/56/56
f 61/61/61 55/55/55 59/59/59
f 56/56/56 62/62/62 16/16/16
f 61/61/61 63/63/63 56/56/56
f 56/56/56 63/63/63 62/62/62
f 62/62/62 64/64/64 16/16/16
f 64/64/64 17/17/17 16/16/16
f 65/65/65 61/61/61 59/59/59
f 60/60/60 66/66/66 59/59/59
f 66/66/66 65/65/65 59/59/59
f 67/67/67 65/65/65 66/66/66
f 68/68/68 67/67/67 66/66/66
f 68/68/68 66/66/66 69/69/69
f 66/66/66 60/60/60 69/69/69
f 68/68/68 69/69/69 67/67/67
f 69/69/69 60/60/60 70/70/70
f 69/69/69 71/71/71 67/67/67
f 70/70/70 60/60/60 54/54/54
f 65/65/65 72/72/72 61/61/61
f 72/72/72 63/63/63 61/61/61
f 67/67/67 71/71/71 73/73/73
f 73/73/73 71/71/71 69/69/69
f 74/74/74 67/67/67 73/73/73
f 74/74/74 73/73/73 75/75/75
f 74/74/74 75/75/75 67/67/67
f 76/76/76 73/73/73 69/69/69
f 67/67/67 77/77/77 65/65/65
f 77/77/77 72/72/72 65/65/65
f 75/75/75 77/77/77 67/67/67
f 78/78/78 70/70/70 54/54/54
f 78/78/78 54/54/54 42/42/42
f 76/76/76 69/69/69 79/79/79
f 76/76/76 79/79/79 73/73/73
f 72/72/72 80/80/80 63/63/63
f 77/77/77 81/81/81 72/72/72
f 81/81/81 80/80/80 72/72/72
f 75/75/75 82/82/82 77/77/77
f 82/82/82 81/81/81 77/77/77
f 80/80/80 83/83/83 63/63/63
f 63/63/63 83/83/83 62/62/62
f 83/83/83 80/80/80 62/62/62
f 80/80/80 64/64/64 62/62/62
f 80/80/80 81/81/81 64/64/64
f 81/81/81 84/84/84 64/64/64
f 81/81/81 82/82/82 84/84/84
f 64/64/64 84/84/84 17/17/17
f 75/75/75 85/85/85 82/82/82
f 73/73/73 85/85/85 75/75/75
f 82/82/82 86/86/86 84/84/84
f 85/85/85 86/86/86 82/82/82
f 84/84/84 87/87/87 17/17/17
f 84/84/84 86/86/86 87/87/87
f 88/88/88 86/86/86 85/85/85
f 89/89/89 85/85/85 73/73/73
f 89/89/89 88/88/88 85/85/85
f 86/86/86 90/90/90 87/87/87
f 86/86/86 88/88/88 90/90/90
f 87/87/87 91/91/91 17/17/17
f 87/87/87 90/90/90 21/21/21
f 87/87/87 21/21/21 91/91/91
f 91/91/91 92/92/92 17/17/17
f 17/17/17 92/92/92 26/26/26
f 88/88/88 93/93/93 90/90/90
f 90/90/90 23/23/23 21/21/21
f 90/90/90 93/93/93 23/23/23
f 21/21/21 94/94/94 91/91/91
f 94/94/94 21/21/21 26/26/26
f 89/89/89 95/95/95 88/88/88
f 95/95/95 93/93/93 88/88/88
f 91/91/91 96/96/96 92/92/92
f 91/91/91 94/94/94 96/96/96
f 94/94/94 26/26/26 97/97/97
f 26/26/26 92/92/92 97/97/97
f 96/96/96 98/98/98 92/92/92
f 92/92/92 98/98/98 97/97/97
f 99/99/99 94/94/94 97/97/97
f 94/94/94 99/99/99 96/96/96
f 96/96/96 100/100/100 98/98/98
f 96/96/96 99/99/99 100/100/100
f 99/99/99 97/97/97 101/101/101
f 97/97/97 98/98/98 101/101/101
f 100/100/100 102/102/102 98/98/98
f 98/98/98 102/102/102 101/101/101
f 102/102/102 100/100/100 101/101/101
f 103/103/103 99/99/99 101/101/101
f 99/99/99 103/103/103 100/100/100
f 100/100/100 103/103/103 101/101/101
f 104/104/104 95/95/95 89/89/89
f 105/105/105 104/104/104 89/89/89
f 105/105/105 89/89/89 73/73/73
f 105/105/105 73/73/73 104/104/104
f 73/73/73 106/106/106 104/104/104
f 79/79/79 106/106/106 73/73/73
f 104/104/104 107/107/107 95/95/95
f 104/104/104 106/106/106 107/107/107
f 107/107/107 108/108/108 95/95/95
f 95/95/95 108/108/108 93/93/93
f 108/108/108 109/109/109 93/93/93
f 93/93/93 109/109/109 23/23/23
f 109/109/109 108/108/108 23/23/23
f 108/108/108 38/38/38 23/23/23
f 108/108/108 107/107/107 38/38/38
f 107/107/107 45/45/45 38/38/38
f 106/106/106 45/45/45 107/107/107
f 47/47/47 45/45/45 106/106/106
f 79/79/79 47/47/47 106/106/106
f 79/79/79 110/110/110 47/47/47
f 110/110/110 43/43/43 47/47/47
f 69/69/69 110/110/110 79/79/79
f 111/111/111 43/43/43 110/110/110
f 43/43/43 111/111/111 42/42/42
f 112/112/112 110/110/110 69/69/69
f 112/112/112 111/111/111 110/110/110
f 111/111/111 113/113/113 42/42/42
f 113/113/113 78/78/78 42/42/42
f 78/78/78 113/113/113 111/111/111
f 112/112/112 78/78/78 111/111/111
f 70/70/70 78/78/78 112/112/112
f 114/114/114 112/112/112 69/69/69
f 114/114/114 69/69/69 70/70/70
f 114/114/114 70/70/70 112/112/112
