g voxTree04_leaves01_COL
v -2.4161446 -0.3667228 2.6133504
v -2.430727 0.09077835 2.627992
v -1.7166791 0.49325782 2.9305773
v -2.5946596 0.39836752 1.8201716
v -1.9708141 0.8184701 2.1620107
v -1.6143801 1.0902637 1.8597162
v -1.1947151 1.001199 2.4833603
v -0.5701467 1.0759002 2.5998282
v -2.3445768 0.9378641 1.4498826
v -2.5276005 1.0326551 0.8556047
v -1.6487528 1.5114763 0.8377613
v -0.56337845 1.346994 1.9388491
v -2.9527764 0.28537396 0.80997646
v -2.5632675 -0.5226269 1.8269535
v -2.7070162 1.1533318 -0.26061815
v -1.7457365 -0.575241 2.9323196
v -1.5713 -0.8073256 1.7760637
v -2.6489894 -0.6020621 0.7679303
v -3.0849407 0.24268486 -0.29343504
v -1.5474474 -0.861637 0.7318582
v 0.5829664 1.0908418 2.6530817
v -0.58363825 0.86617583 3.1475098
v -0.55964196 1.6929319 1.10818
v 0.57120436 1.3922724 1.9387912
v -0.49307203 -0.8260069 1.750016
v -0.47769696 -0.82322335 0.72166187
v -1.5468214 -0.86511827 -0.29711738
v -0.47614577 -0.8202369 -0.2893419
v -2.6104388 -0.62080353 -0.30576777
v 1.3330042 0.99691427 2.5583594
v 0.61145115 0.89354557 3.2016659
v 0.576156 1.7240622 1.1223246
v 1.7200099 1.1221949 1.9237949
v 0.530361 -0.8209919 0.72706985
v 0.52340657 -0.8144233 -0.28925914
v -2.9187078 0.23076643 -1.4012599
v -2.6435375 1.0976222 -1.4057841
v -1.9826747 1.6619546 -0.23916821
v 2.2023437 0.3053697 2.3041215
v 1.6897274 0.45506683 2.9428325
v 1.8401636 -0.6344538 1.9425415
v 2.5898898 0.2754762 1.7369025
v 2.456024 0.9273086 1.5434053
v 1.6990051 1.5415683 0.8150372
v 1.4582189 0.14800066 3.6503713
v 1.6580389 -0.51302606 2.8932495
v 0.6278788 0.31786126 3.9576433
v -0.57517993 0.29153144 4.001788
v 1.4488403 -0.36655018 3.6189444
v 0.6152974 -0.49775997 3.8934667
v -0.54397744 -0.52018064 3.9425128
v 0.57359827 -0.7647216 2.8085191
v -1.4641485 0.12175844 3.7229316
v -1.4584184 -0.38660896 3.7030973
v -0.5117034 -0.7934377 2.8110802
v 0.5536513 -0.8182824 1.7543277
v 1.6013685 -0.81795293 0.7442604
v 1.5917376 -0.82544845 -0.29384848
v 2.5853631 -0.5591666 0.77898675
v 2.5042236 -0.45258984 1.671481
v 2.6358228 -0.5764705 -0.29512677
v 2.8738892 0.2617773 0.79648024
v 2.574663 1.0196904 0.8142638
v 2.9990377 0.25889912 -0.29488114
v 2.585073 -0.5359353 -1.3756152
v 1.6077636 -0.7952051 -1.3312694
v 0.5380293 -0.8273792 -1.3076625
v -0.491898 -0.83822775 -1.3088145
v -1.5689688 -0.82807595 -1.3354367
v -2.5274112 -0.5731426 -1.3807424
v -1.7454696 -0.6330856 -2.4883933
v -0.5116321 -0.8285367 -2.3751197
v 0.55749726 -0.8175343 -2.376294
v 1.7818764 -0.60054994 -2.5158129
v 2.4691494 -0.41585234 -2.2078228
v 1.862597 0.41377234 -2.8923848
v 1.478995 -0.42597967 -3.27231
v 0.6025353 -0.5489968 -3.4420276
v 0.7252722 0.41560996 -3.5808926
v 1.504467 0.11301262 -3.3264155
v 2.8493216 0.26561123 -1.3936151
v -0.5264807 -0.5670379 -3.4870775
v 2.5253773 0.28434062 -2.2588077
v 2.646953 1.0537479 -0.29702774
v -0.52391094 0.2867815 -3.8239284
v 2.5548925 0.9765429 -1.4091663
v 1.7537005 1.4907384 -1.4347494
v 1.9750704 1.546783 -0.29161996
v 1.2791702 1.8728524 0.4304053
v 1.3702692 1.9048084 -0.2783765
v 0.5718338 1.930055 0.55769986
v 0.574749 2.0649154 -0.26257956
v 0.6166007 1.9695345 -1.4168221
v 1.3421012 1.8858392 -1.0433974
v -0.53962195 1.9256004 0.5482764
v -0.5247057 2.0884051 -0.2518811
v -0.51516527 2.040742 -1.3732593
v -1.22726 1.8674885 0.43854308
v -1.3738027 1.9375046 -0.24226116
v -1.3273857 1.9178168 -1.3837367
v -1.9407806 1.6183772 -1.3995407
v -1.1556281 1.8318672 -2.0265434
v -2.47705 0.9453385 -2.2056231
v -0.5096169 1.8598509 -2.0710428
v -1.6718392 1.2972603 -2.5033243
v -2.5601742 0.23762785 -2.3080823
v -2.4251459 -0.46102974 -2.1651804
v -2.1671536 0.2518055 -2.8830025
v -0.5084141 1.5028687 -2.6486564
v -1.3750926 0.9681525 -3.2709656
v -1.5735949 0.2695742 -3.4363432
v -1.4462103 -0.47419474 -3.3249218
v -0.5149835 1.0286382 -3.3893194
v 0.717209 1.3619229 -2.602403
v 0.24489965 1.8556514 -2.0772135
v 0.39144316 0.9832878 -3.3379006
v 1.1853831 0.86289823 -3.1257231
v 1.0372565 1.7174084 -1.842607
v 1.7816399 1.0819007 -2.352128
v 2.4201913 0.88634926 -2.1062922
vn -0.4994057 0.09431148 0.8612197
vn -0.4994057 0.09431148 0.8612197
vn -0.9078106 0.08973002 0.40966856
vn -0.9723354 -0.09534709 0.21324356
vn -0.6367333 0.6153477 0.46466985
vn -0.28437057 0.8532482 0.43715099
vn -0.2557983 0.88535315 0.38822284
vn -0.2557983 0.88535315 0.38822284
vn -0.4520249 0.80531204 0.38359606
vn -0.4520249 0.80531204 0.38359606
vn -0.24259451 0.822928 0.51374835
vn -0.28437057 0.8532482 0.43715099
vn -0.9723354 -0.09534709 0.21324356
vn -0.9723354 -0.09534709 0.21324356
vn -0.64645994 0.7599778 -0.067255445
vn -0.9078106 0.08973002 0.40966856
vn 0.017263079 -0.999453 0.028208498
vn -0.9723354 -0.09534709 0.21324356
vn -0.9188506 -0.3763787 -0.11854355
vn 0.017263079 -0.999453 0.028208498
vn 0.21366294 0.88810885 0.40695322
vn -0.36970043 0.7662127 0.525585
vn -0.24259451 0.822928 0.51374835
vn 0.26379314 0.87246656 0.4113578
vn 0.017263079 -0.999453 0.028208498
vn 0.017263079 -0.999453 0.028208498
vn 0.02571899 -0.99962485 -0.009414369
vn 0.02571899 -0.99962485 -0.009414369
vn -0.9188506 -0.3763787 -0.11854355
vn 0.21366294 0.88810885 0.40695322
vn 0.4217933 0.7230559 0.5470654
vn 0.23924062 0.843745 0.48047718
vn 0.26379314 0.87246656 0.4113578
vn 0.060763586 -0.9960685 0.06446257
vn 0.007342619 -0.99993646 -0.008559919
vn -0.9188506 -0.3763787 -0.11854355
vn -0.64645994 0.7599778 -0.067255445
vn -0.50040257 0.8644559 -0.04809658
vn 0.666665 -0.2621962 0.69771844
vn 0.950683 0.016806366 0.3097088
vn 0.060763586 -0.9960685 0.06446257
vn 0.9681653 -0.14008161 0.20744434
vn 0.47388482 0.82682514 0.3029742
vn 0.23924062 0.843745 0.48047718
vn 0.950683 0.016806366 0.3097088
vn 0.950683 0.016806366 0.3097088
vn 0.33166674 1.536988E-07 0.94339657
vn -0.28406605 1.5620908E-07 0.95880467
vn 0.950683 0.016806366 0.3097088
vn 0.33166674 1.536988E-07 0.94339657
vn -0.28406605 1.5620908E-07 0.95880467
vn 0.17265241 -0.9686497 0.17863065
vn -0.9078106 0.08973002 0.40966856
vn -0.9078106 0.08973002 0.40966856
vn -0.13676059 -0.97348535 0.18336545
vn 0.060763586 -0.9960685 0.06446257
vn 0.060763586 -0.9960685 0.06446257
vn 0.007342619 -0.99993646 -0.008559919
vn 0.9681653 -0.14008161 0.20744434
vn 0.9681653 -0.14008161 0.20744434
vn 0.96022433 -0.26108837 -0.09900594
vn 0.9681653 -0.14008161 0.20744434
vn 0.47388482 0.82682514 0.3029742
vn 0.96022433 -0.26108837 -0.09900594
vn 0.96022433 -0.26108837 -0.09900594
vn 0.007342619 -0.99993646 -0.008559919
vn 0.007342619 -0.99993646 -0.008559919
vn 0.02571899 -0.99962485 -0.009414369
vn 0.02571899 -0.99962485 -0.009414369
vn -0.9188506 -0.3763787 -0.11854355
vn -0.7629334 -0.33438608 -0.5532799
vn -0.13224229 -0.9723085 -0.19268706
vn 0.14124458 -0.9694762 -0.20041409
vn 0.8466024 -0.10374634 -0.5220163
vn 0.60594535 -0.14546162 -0.78209406
vn 0.8466024 -0.10374634 -0.5220163
vn 0.8466024 -0.10374634 -0.5220163
vn 0.25023818 -0.05039006 -0.96687204
vn 0.25023818 -0.05039006 -0.96687204
vn 0.8466024 -0.10374634 -0.5220163
vn 0.96022433 -0.26108837 -0.09900594
vn -0.27915683 -0.19173795 -0.94090813
vn 0.60594535 -0.14546162 -0.78209406
vn 0.62389845 0.76848 -0.14208825
vn -0.27915683 -0.19173795 -0.94090813
vn 0.62389845 0.76848 -0.14208825
vn 0.6533673 0.7472794 -0.12118057
vn 0.6533673 0.7472794 -0.12118057
vn 0.23924062 0.843745 0.48047718
vn 0.6533673 0.7472794 -0.12118057
vn 0.23924062 0.843745 0.48047718
vn 0.19210495 0.97922564 -0.06490556
vn 0.4267818 0.8190799 -0.38336077
vn 0.6533673 0.7472794 -0.12118057
vn -0.24259451 0.822928 0.51374835
vn -0.1919456 0.98058987 -0.04000549
vn -0.1919456 0.98058987 -0.04000549
vn -0.24259451 0.822928 0.51374835
vn -0.50040257 0.8644559 -0.04809658
vn -0.50040257 0.8644559 -0.04809658
vn -0.50040257 0.8644559 -0.04809658
vn -0.16962197 0.72387964 -0.66875017
vn -0.56365615 0.74802774 -0.3503516
vn -0.16962197 0.72387964 -0.66875017
vn -0.16962197 0.72387964 -0.66875017
vn -0.6625685 -0.3532101 -0.6604889
vn -0.6625685 -0.3532101 -0.6604889
vn -0.7629334 -0.33438608 -0.5532799
vn -0.16962197 0.72387964 -0.66875017
vn -0.1852705 0.8156527 -0.5480743
vn -0.7629334 -0.33438608 -0.5532799
vn -0.7629334 -0.33438608 -0.5532799
vn -0.1852705 0.8156527 -0.5480743
vn 0.32588533 0.8076299 -0.4914598
vn 0.32588533 0.8076299 -0.4914598
vn 0.115874805 0.80738103 -0.5785404
vn 0.48947462 0.35861126 -0.7948664
vn 0.4267818 0.8190799 -0.38336077
vn 0.43923798 0.74984425 -0.49477643
vn 0.50343853 0.8006022 -0.3249397
g voxTree04_leaves01_COL_0
f 3/3/3 2/2/2 1/1/1
f 4/4/4 2/2/2 3/3/3
f 2/2/2 4/4/4 1/1/1
f 5/5/5 4/4/4 3/3/3
f 6/6/6 5/5/5 3/3/3
f 5/5/5 6/6/6 4/4/4
f 7/7/7 6/6/6 3/3/3
f 8/8/8 7/7/7 3/3/3
f 6/6/6 7/7/7 8/8/8
f 6/6/6 9/9/9 4/4/4
f 9/9/9 10/10/10 4/4/4
f 10/10/10 9/9/9 6/6/6
f 11/11/11 10/10/10 6/6/6
f 11/11/11 6/6/6 12/12/12
f 12/12/12 6/6/6 8/8/8
f 10/10/10 13/13/13 4/4/4
f 4/4/4 14/14/14 1/1/1
f 4/4/4 13/13/13 14/14/14
f 15/15/15 10/10/10 11/11/11
f 10/10/10 15/15/15 13/13/13
f 16/16/16 3/3/3 1/1/1
f 14/14/14 17/17/17 1/1/1
f 17/17/17 16/16/16 1/1/1
f 13/13/13 18/18/18 14/14/14
f 15/15/15 19/19/19 13/13/13
f 13/13/13 19/19/19 18/18/18
f 20/20/20 17/17/17 14/14/14
f 18/18/18 20/20/20 14/14/14
f 12/12/12 8/8/8 21/21/21
f 22/22/22 8/8/8 3/3/3
f 21/21/21 8/8/8 22/22/22
f 23/23/23 11/11/11 12/12/12
f 24/24/24 12/12/12 21/21/21
f 23/23/23 12/12/12 24/24/24
f 17/17/17 25/25/25 16/16/16
f 20/20/20 26/26/26 17/17/17
f 26/26/26 25/25/25 17/17/17
f 27/27/27 20/20/20 18/18/18
f 28/28/28 26/26/26 20/20/20
f 27/27/27 28/28/28 20/20/20
f 29/29/29 27/27/27 18/18/18
f 19/19/19 29/29/29 18/18/18
f 24/24/24 21/21/21 30/30/30
f 30/30/30 21/21/21 31/31/31
f 31/31/31 21/21/21 22/22/22
f 32/32/32 23/23/23 24/24/24
f 33/33/33 24/24/24 30/30/30
f 32/32/32 24/24/24 33/33/33
f 26/26/26 34/34/34 25/25/25
f 28/28/28 35/35/35 26/26/26
f 35/35/35 34/34/34 26/26/26
f 19/19/19 36/36/36 29/29/29
f 37/37/37 36/36/36 19/19/19
f 15/15/15 37/37/37 19/19/19
f 37/37/37 15/15/15 38/38/38
f 38/38/38 15/15/15 11/11/11
f 33/33/33 30/30/30 39/39/39
f 30/30/30 40/40/40 39/39/39
f 39/39/39 40/40/40 41/41/41
f 42/42/42 39/39/39 41/41/41
f 40/40/40 30/30/30 31/31/31
f 43/43/43 33/33/33 39/39/39
f 42/42/42 43/43/43 39/39/39
f 44/44/44 33/33/33 43/43/43
f 44/44/44 32/32/32 33/33/33
f 40/40/40 31/31/31 45/45/45
f 40/40/40 46/46/46 41/41/41
f 40/40/40 45/45/45 46/46/46
f 31/31/31 47/47/47 45/45/45
f 31/31/31 22/22/22 47/47/47
f 22/22/22 48/48/48 47/47/47
f 22/22/22 3/3/3 48/48/48
f 45/45/45 49/49/49 46/46/46
f 49/49/49 45/45/45 50/50/50
f 45/45/45 47/47/47 50/50/50
f 46/46/46 49/49/49 50/50/50
f 50/50/50 47/47/47 51/51/51
f 47/47/47 48/48/48 51/51/51
f 52/52/52 46/46/46 50/50/50
f 41/41/41 46/46/46 52/52/52
f 52/52/52 50/50/50 51/51/51
f 3/3/3 53/53/53 48/48/48
f 48/48/48 53/53/53 54/54/54
f 53/53/53 3/3/3 54/54/54
f 51/51/51 48/48/48 54/54/54
f 3/3/3 16/16/16 54/54/54
f 55/55/55 51/51/51 54/54/54
f 16/16/16 55/55/55 54/54/54
f 55/55/55 52/52/52 51/51/51
f 25/25/25 55/55/55 16/16/16
f 56/56/56 52/52/52 55/55/55
f 25/25/25 56/56/56 55/55/55
f 56/56/56 41/41/41 52/52/52
f 34/34/34 56/56/56 25/25/25
f 34/34/34 57/57/57 56/56/56
f 57/57/57 41/41/41 56/56/56
f 58/58/58 57/57/57 34/34/34
f 35/35/35 58/58/58 34/34/34
f 57/57/57 59/59/59 41/41/41
f 59/59/59 60/60/60 41/41/41
f 60/60/60 42/42/42 41/41/41
f 42/42/42 60/60/60 59/59/59
f 61/61/61 59/59/59 57/57/57
f 58/58/58 61/61/61 57/57/57
f 62/62/62 42/42/42 59/59/59
f 62/62/62 59/59/59 61/61/61
f 43/43/43 42/42/42 62/62/62
f 63/63/63 43/43/43 62/62/62
f 63/63/63 44/44/44 43/43/43
f 64/64/64 62/62/62 61/61/61
f 63/63/63 62/62/62 64/64/64
f 65/65/65 61/61/61 58/58/58
f 64/64/64 61/61/61 65/65/65
f 66/66/66 58/58/58 35/35/35
f 66/66/66 65/65/65 58/58/58
f 67/67/67 66/66/66 35/35/35
f 67/67/67 35/35/35 28/28/28
f 68/68/68 67/67/67 28/28/28
f 68/68/68 28/28/28 27/27/27
f 69/69/69 68/68/68 27/27/27
f 69/69/69 27/27/27 29/29/29
f 70/70/70 69/69/69 29/29/29
f 71/71/71 69/69/69 70/70/70
f 71/71/71 72/72/72 69/69/69
f 72/72/72 68/68/68 69/69/69
f 36/36/36 70/70/70 29/29/29
f 73/73/73 67/67/67 68/68/68
f 72/72/72 73/73/73 68/68/68
f 74/74/74 66/66/66 67/67/67
f 73/73/73 74/74/74 67/67/67
f 75/75/75 65/65/65 66/66/66
f 74/74/74 75/75/75 66/66/66
f 75/75/75 74/74/74 76/76/76
f 76/76/76 74/74/74 77/77/77
f 77/77/77 74/74/74 73/73/73
f 78/78/78 73/73/73 72/72/72
f 78/78/78 77/77/77 73/73/73
f 77/77/77 78/78/78 79/79/79
f 80/80/80 77/77/77 79/79/79
f 80/80/80 76/76/76 77/77/77
f 80/80/80 79/79/79 76/76/76
f 81/81/81 65/65/65 75/75/75
f 81/81/81 64/64/64 65/65/65
f 82/82/82 78/78/78 72/72/72
f 82/82/82 72/72/72 71/71/71
f 83/83/83 75/75/75 76/76/76
f 83/83/83 81/81/81 75/75/75
f 84/84/84 64/64/64 81/81/81
f 84/84/84 63/63/63 64/64/64
f 79/79/79 78/78/78 85/85/85
f 78/78/78 82/82/82 85/85/85
f 86/86/86 81/81/81 83/83/83
f 86/86/86 84/84/84 81/81/81
f 86/86/86 87/87/87 84/84/84
f 87/87/87 88/88/88 84/84/84
f 84/84/84 88/88/88 63/63/63
f 88/88/88 44/44/44 63/63/63
f 89/89/89 44/44/44 88/88/88
f 44/44/44 89/89/89 32/32/32
f 90/90/90 88/88/88 87/87/87
f 90/90/90 89/89/89 88/88/88
f 89/89/89 91/91/91 32/32/32
f 32/32/32 91/91/91 23/23/23
f 90/90/90 92/92/92 89/89/89
f 92/92/92 91/91/91 89/89/89
f 93/93/93 92/92/92 90/90/90
f 94/94/94 93/93/93 90/90/90
f 94/94/94 90/90/90 87/87/87
f 94/94/94 87/87/87 93/93/93
f 91/91/91 95/95/95 23/23/23
f 23/23/23 95/95/95 11/11/11
f 92/92/92 96/96/96 91/91/91
f 96/96/96 95/95/95 91/91/91
f 93/93/93 97/97/97 92/92/92
f 97/97/97 96/96/96 92/92/92
f 95/95/95 98/98/98 11/11/11
f 98/98/98 99/99/99 11/11/11
f 99/99/99 98/98/98 95/95/95
f 96/96/96 99/99/99 95/95/95
f 99/99/99 38/38/38 11/11/11
f 100/100/100 99/99/99 96/96/96
f 99/99/99 100/100/100 38/38/38
f 97/97/97 100/100/100 96/96/96
f 100/100/100 101/101/101 38/38/38
f 101/101/101 37/37/37 38/38/38
f 102/102/102 100/100/100 97/97/97
f 100/100/100 102/102/102 101/101/101
f 103/103/103 37/37/37 101/101/101
f 37/37/37 103/103/103 36/36/36
f 104/104/104 97/97/97 93/93/93
f 104/104/104 102/102/102 97/97/97
f 102/102/102 105/105/105 101/101/101
f 105/105/105 103/103/103 101/101/101
f 103/103/103 106/106/106 36/36/36
f 36/36/36 106/106/106 70/70/70
f 106/106/106 107/107/107 70/70/70
f 107/107/107 71/71/71 70/70/70
f 71/71/71 107/107/107 106/106/106
f 108/108/108 106/106/106 103/103/103
f 105/105/105 108/108/108 103/103/103
f 108/108/108 71/71/71 106/106/106
f 109/109/109 105/105/105 102/102/102
f 104/104/104 109/109/109 102/102/102
f 105/105/105 110/110/110 108/108/108
f 110/110/110 105/105/105 109/109/109
f 108/108/108 111/111/111 71/71/71
f 110/110/110 111/111/111 108/108/108
f 111/111/111 112/112/112 71/71/71
f 112/112/112 82/82/82 71/71/71
f 82/82/82 112/112/112 111/111/111
f 85/85/85 82/82/82 111/111/111
f 85/85/85 111/111/111 110/110/110
f 113/113/113 85/85/85 110/110/110
f 113/113/113 110/110/110 109/109/109
f 79/79/79 85/85/85 113/113/113
f 114/114/114 109/109/109 104/104/104
f 113/113/113 109/109/109 114/114/114
f 115/115/115 114/114/114 104/104/104
f 116/116/116 113/113/113 114/114/114
f 116/116/116 114/114/114 79/79/79
f 116/116/116 79/79/79 113/113/113
f 115/115/115 104/104/104 93/93/93
f 115/115/115 93/93/93 114/114/114
f 114/114/114 117/117/117 79/79/79
f 79/79/79 117/117/117 76/76/76
f 76/76/76 117/117/117 114/114/114
f 93/93/93 118/118/118 114/114/114
f 87/87/87 118/118/118 93/93/93
f 114/114/114 118/118/118 87/87/87
f 119/119/119 76/76/76 114/114/114
f 119/119/119 114/114/114 87/87/87
f 83/83/83 76/76/76 119/119/119
f 119/119/119 87/87/87 86/86/86
f 120/120/120 86/86/86 83/83/83
f 120/120/120 119/119/119 86/86/86
f 120/120/120 83/83/83 119/119/119
