g wall_y16_bend45_COL
v -4.8624954 14.180223 24.447449
v -0.114234924 14.18022 24.993456
v -0.114234924 -1.5337822E-07 24.993454
v -4.862488 -1.3275891E-07 24.44745
v -9.568848 14.18022 23.103373
v -9.568855 -4.0594705E-07 23.103367
v -13.847305 14.180234 20.726118
v -13.847282 -3.4790543E-07 20.72613
v -17.591072 14.180227 17.754898
v -17.59108 0 17.754896
v -4.704178 16.351166 23.65155
v -0.107048035 16.349106 24.180948
v -0.114234924 14.18022 24.993456
v -4.8624954 14.180223 24.447449
v -9.257042 16.353153 22.350536
v -9.568848 14.18022 23.103373
v -13.3965225 16.35117 20.051353
v -13.847305 14.180234 20.726118
v -17.021675 16.349108 17.175251
v -17.591072 14.180227 17.754898
v -4.6667557 14 23.46337
v -0 0 24
v -0 14 24.000002
v -4.6667557 0 23.463367
v -9.183678 14 22.173391
v -9.183678 0 22.17339
v -13.289909 14 19.891834
v -13.289902 0 19.89183
v -16.969429 14 16.971603
v -16.969429 0 16.971603
v -4.52092 16 22.730139
v -0 14 24.000002
v -0 16 23.25
v -4.6667557 14 23.46337
v -8.896683 16 21.48047
v -9.183678 14 22.173391
v -12.874588 16 19.270214
v -13.289909 14 19.891834
v -16.439133 16 16.441242
v -16.969429 14 16.971603
v -0 14 24.000002
v -0 0 24
v -0.114234924 -1.5337822E-07 24.993454
v -0.114234924 14.18022 24.993456
v -0 0 24
v -4.862488 -1.3275891E-07 24.44745
v -0.114234924 -1.5337822E-07 24.993454
v -4.6667557 0 23.463367
v -9.568855 -4.0594705E-07 23.103367
v -9.183678 0 22.17339
v -13.847282 -3.4790543E-07 20.72613
v -13.289902 0 19.89183
v -17.59108 0 17.754896
v -16.969429 0 16.971603
v -4.52092 16 22.730139
v -0 16 23.25
v -0.107048035 16.349106 24.180948
v -4.704178 16.351166 23.65155
v -8.896683 16 21.48047
v -9.257042 16.353153 22.350536
v -12.874588 16 19.270214
v -13.3965225 16.35117 20.051353
v -16.439133 16 16.441242
v -17.021675 16.349108 17.175251
v -0 16 23.25
v -0 14 24.000002
v -0.114234924 14.18022 24.993456
v -0.107048035 16.349106 24.180948
v -16.969429 0 16.971603
v -16.969429 14 16.971603
v -17.591072 14.180227 17.754898
v -17.59108 0 17.754896
v -16.969429 14 16.971603
v -16.439133 16 16.441242
v -17.021675 16.349108 17.175251
v -17.591072 14.180227 17.754898
vt 0.04940115 0.23921299
vt 0.0035187092 0.23921299
vt 0.32595652 0.12190022
vt 0.4037745 0.12190017
vt 0.09528359 0.23921299
vt 0.48159254 0.12190011
vt 0.14116603 0.23921299
vt 0.5594106 0.12190005
vt 0.18704847 0.23921299
vt 0.63722855 0.12189999
vt 0.24999996 0.3673688
vt 0 0.36736876
vt 0 0.24828963
vt 0.25000003 0.24828947
vt 0.49999994 0.36736876
vt 0.50000006 0.24828929
vt 0.7499998 0.3673688
vt 0.7500002 0.24828912
vt 0.9999999 0.36736876
vt 1.0000001 0.24828896
vt 0.04940115 0.23921299
vt 0.32595652 0.12190022
vt 0.0035187092 0.23921299
vt 0.4037745 0.12190017
vt 0.09528359 0.23921299
vt 0.48159254 0.12190011
vt 0.14116603 0.23921299
vt 0.5594106 0.12190005
vt 0.18704847 0.23921299
vt 0.63722855 0.12189999
vt 0.24999996 0.3673688
vt 0 0.24828963
vt 0 0.36736876
vt 0.25000003 0.24828947
vt 0.49999994 0.36736876
vt 0.50000006 0.24828929
vt 0.7499998 0.3673688
vt 0.7500002 0.24828912
vt 0.9999999 0.36736876
vt 1.0000001 0.24828896
vt 0.0035187092 0.23921299
vt 0.32595652 0.12190022
vt 0.32595652 0.12190022
vt 0.0035187092 0.23921299
vt 0.32595652 0.12190022
vt 0.4037745 0.12190017
vt 0.32595652 0.12190022
vt 0.4037745 0.12190017
vt 0.48159254 0.12190011
vt 0.48159254 0.12190011
vt 0.5594106 0.12190005
vt 0.5594106 0.12190005
vt 0.63722855 0.12189999
vt 0.63722855 0.12189999
vt 0.24999996 0.3673688
vt 0 0.36736876
vt 0 0.36736876
vt 0.24999996 0.3673688
vt 0.49999994 0.36736876
vt 0.49999994 0.36736876
vt 0.7499998 0.3673688
vt 0.7499998 0.3673688
vt 0.9999999 0.36736876
vt 0.9999999 0.36736876
vt 0 0.36736876
vt 0 0.24828963
vt 0 0.24828963
vt 0 0.36736876
vt 0.63722855 0.12189999
vt 0.18704847 0.23921299
vt 0.18704847 0.23921299
vt 0.63722855 0.12189999
vt 1.0000001 0.24828896
vt 0.9999999 0.36736876
vt 0.9999999 0.36736876
vt 1.0000001 0.24828896
vn -0.19603235 0 0.98059744
vn -0.11423774 0 0.9934535
vn -0.11423775 0 0.9934535
vn -0.19603229 0 0.98059744
vn -0.38265705 0 0.92389053
vn -0.3826571 0 0.92389053
vn -0.55472344 0 0.8320349
vn -0.5547233 0 0.83203495
vn -0.62165385 0 0.78329206
vn -0.62165385 0 0.78329206
vn -0.18366542 0.35013524 0.9185164
vn -0.107050225 0.34910598 0.93094856
vn -0.10705022 0.349106 0.93094856
vn -0.18364431 0.3501352 0.9185206
vn -0.35829273 0.35112435 0.86506534
vn -0.35829243 0.35112432 0.86506546
vn -0.51957357 0.35013443 0.7793903
vn -0.51959085 0.35013452 0.7793788
vn -0.58254313 0.34910434 0.73400927
vn -0.58254313 0.34910437 0.73400927
vn 0.19507623 0 -0.9807881
vn 0.114237584 0 -0.9934535
vn 0.114237584 0 -0.9934535
vn 0.19507623 0 -0.9807881
vn 0.38265687 0 -0.92389053
vn 0.38265687 0 -0.92389053
vn 0.55553436 0 -0.8314935
vn 0.55553436 0 -0.8314936
vn 0.6216543 0 -0.78329176
vn 0.6216543 0 -0.78329176
vn 0.18272778 -0.35013536 -0.91870326
vn 0.107049875 -0.34910622 -0.93094856
vn 0.10704988 -0.34910622 -0.93094856
vn 0.1827277 -0.3501354 -0.91870326
vn 0.35829264 -0.3511247 -0.86506516
vn 0.3582927 -0.3511247 -0.86506516
vn 0.52036816 -0.35013613 -0.7788592
vn 0.52036834 -0.35013613 -0.7788591
vn 0.58254164 -0.3491065 -0.7340094
vn 0.58254164 -0.34910652 -0.73400944
vn 0.9935987 0.0050859405 0.11285273
vn 0.99345374 0 0.114235
vn 0.99345374 0 0.114235
vn 0.9935987 0.005086659 0.112852514
vn -0 -1 0
vn -0 -1 0
vn -0 -1 0
vn -0 -1 0
vn -0 -1 0
vn -0 -1 0
vn -0 -1 0
vn -0 -1 0
vn -0 -1 0
vn -0 -1 0
vn 0.06877375 0.93670624 -0.34329534
vn 0.040235423 0.9367025 -0.34780678
vn 0.040235423 0.9367025 -0.34780678
vn 0.06877346 0.93670624 -0.34329537
vn 0.13399027 0.9366913 -0.32350603
vn 0.1339901 0.9366913 -0.32350606
vn 0.19409958 0.9367057 -0.2913894
vn 0.19410063 0.9367057 -0.29138866
vn 0.21747078 0.93670154 -0.2744025
vn 0.21747078 0.93670154 -0.2744025
vn 0.9938753 0.03727734 0.10402999
vn 0.9935987 0.0050859405 0.11285273
vn 0.9935987 0.005086659 0.112852514
vn 0.9938753 0.037277337 0.10402999
vn -0.78329647 0 -0.62164825
vn -0.78242147 0.005085889 -0.6227286
vn -0.78242123 0.0050867144 -0.6227287
vn -0.78329647 0 -0.6216483
vn -0.78242147 0.005085889 -0.6227286
vn -0.7763772 0.03727562 -0.62916535
vn -0.77637726 0.037275624 -0.6291653
vn -0.78242123 0.0050867144 -0.6227287
g wall_y16_bend45_COL_0
f 3/3/3 2/2/2 1/1/1
f 4/4/4 3/3/3 1/1/1
f 4/4/4 1/1/1 5/5/5
f 6/6/6 4/4/4 5/5/5
f 6/6/6 5/5/5 7/7/7
f 8/8/8 6/6/6 7/7/7
f 8/8/8 7/7/7 9/9/9
f 10/10/10 8/8/8 9/9/9
f 13/13/13 12/12/12 11/11/11
f 14/14/14 13/13/13 11/11/11
f 14/14/14 11/11/11 15/15/15
f 16/16/16 14/14/14 15/15/15
f 16/16/16 15/15/15 17/17/17
f 18/18/18 16/16/16 17/17/17
f 18/18/18 17/17/17 19/19/19
f 20/20/20 18/18/18 19/19/19
f 23/23/23 22/22/22 21/21/21
f 22/22/22 24/24/24 21/21/21
f 21/21/21 24/24/24 25/25/25
f 24/24/24 26/26/26 25/25/25
f 25/25/25 26/26/26 27/27/27
f 26/26/26 28/28/28 27/27/27
f 27/27/27 28/28/28 29/29/29
f 28/28/28 30/30/30 29/29/29
f 33/33/33 32/32/32 31/31/31
f 32/32/32 34/34/34 31/31/31
f 31/31/31 34/34/34 35/35/35
f 34/34/34 36/36/36 35/35/35
f 35/35/35 36/36/36 37/37/37
f 36/36/36 38/38/38 37/37/37
f 37/37/37 38/38/38 39/39/39
f 38/38/38 40/40/40 39/39/39
f 43/43/43 42/42/42 41/41/41
f 44/44/44 43/43/43 41/41/41
f 47/47/47 46/46/46 45/45/45
f 46/46/46 48/48/48 45/45/45
f 46/46/46 49/49/49 48/48/48
f 49/49/49 50/50/50 48/48/48
f 49/49/49 51/51/51 50/50/50
f 51/51/51 52/52/52 50/50/50
f 51/51/51 53/53/53 52/52/52
f 53/53/53 54/54/54 52/52/52
f 57/57/57 56/56/56 55/55/55
f 58/58/58 57/57/57 55/55/55
f 58/58/58 55/55/55 59/59/59
f 60/60/60 58/58/58 59/59/59
f 60/60/60 59/59/59 61/61/61
f 62/62/62 60/60/60 61/61/61
f 62/62/62 61/61/61 63/63/63
f 64/64/64 62/62/62 63/63/63
f 67/67/67 66/66/66 65/65/65
f 68/68/68 67/67/67 65/65/65
f 71/71/71 70/70/70 69/69/69
f 72/72/72 71/71/71 69/69/69
f 75/75/75 74/74/74 73/73/73
f 76/76/76 75/75/75 73/73/73
