g wall_y6_x16_COL
v -0 6 3.8146973E-06
v -16 6 3.8146973E-06
v -16 0 0
v -0 0 0
v -0 0 0
v -0 -5.7220456E-07 0.9649191
v -0 5.9999995 0.96492267
v -0 6 3.8146973E-06
v -16 0 0
v -16 -5.7220456E-07 0.9649191
v -0 -5.7220456E-07 0.9649191
v -0 0 0
v -0 6 3.8146973E-06
v -0 5.9999995 0.96492267
v -16 5.9999995 0.96492267
v -16 6 3.8146973E-06
v -16 6 3.8146973E-06
v -16 5.9999995 0.96492267
v -16 -5.7220456E-07 0.9649191
v -16 0 0
v -0 5.9999995 0.96492267
v -0 -5.7220456E-07 0.9649191
v -16 -5.7220456E-07 0.9649191
v -16 5.9999995 0.96492267
vt 0.96854407 0.21853074
vt 1.0418965 0.21853074
vt 1.6030955 0.21961518
vt 1.6609179 0.2196152
vt 0 0
vt 0 1
vt 1 1
vt 1 0
vt 0 0
vt 0 1
vt 1 1
vt 1 0
vt 0 0
vt 0 1
vt 1 1
vt 1 0
vt 0 0
vt 0 1
vt 1 1
vt 1 0
vt 0 1
vt 0 1
vt 0 1
vt 0 1
vn -0 0 -1
vn -0 0 -1
vn -0 0 -1
vn -0 0 -1
vn 1 0 0
vn 1 0 0
vn 1 0 0
vn 1 0 0
vn -0 -1 0
vn -0 -1 0
vn -0 -1 0
vn -0 -1 0
vn -0 1 0
vn -0 1 0
vn -0 1 0
vn -0 1 0
vn -1 0 0
vn -1 0 0
vn -1 0 0
vn -1 0 0
vn -0 0 1
vn -0 0 1
vn -0 0 1
vn -0 0 1
g wall_y6_x16_COL_0
f 3/3/3 2/2/2 1/1/1
f 4/4/4 3/3/3 1/1/1
f 7/7/7 6/6/6 5/5/5
f 8/8/8 7/7/7 5/5/5
f 11/11/11 10/10/10 9/9/9
f 12/12/12 11/11/11 9/9/9
f 15/15/15 14/14/14 13/13/13
f 16/16/16 15/15/15 13/13/13
f 19/19/19 18/18/18 17/17/17
f 20/20/20 19/19/19 17/17/17
f 23/23/23 22/22/22 21/21/21
f 24/24/24 23/23/23 21/21/21
