g wall_y6_A_x16
v -2 6.0938597 0.65732956
v -2.1944885 6.09981 0.5767689
v -2.1122894 6.184176 0.49456596
v -2 6.1800084 0.54107857
v -2 6.229989 0.38227844
v -1.8055115 6.09981 0.5767689
v -1.8877106 6.184176 0.49456596
v -2 6.229989 0.38227844
v -1.7249527 6.1180067 0.38227844
v -1.8412018 6.196016 0.38227844
v -1.8055115 6.099811 0.18778801
v -1.8877106 6.184176 0.269989
v -2 6.0938597 0.107227325
v -2 6.229989 0.38227844
v -2 6.1800084 0.22347641
v -2.1944885 6.099811 0.18778801
v -2.1122894 6.184176 0.269989
v -2.2750473 6.1180067 0.38227844
v -2.1587982 6.196016 0.38227844
v -2.1944885 6.09981 0.5767689
v -2.1122894 6.184176 0.49456596
v -2 6.229989 0.38227844
v -14 6.0938597 0.65732956
v -14.194489 6.09981 0.5767689
v -14.112289 6.184176 0.49456596
v -14 6.1800084 0.54107857
v -14 6.229989 0.38227844
v -13.805511 6.09981 0.5767689
v -13.887711 6.184176 0.49456596
v -14 6.229989 0.38227844
v -13.724953 6.1180067 0.38227844
v -13.841202 6.196016 0.38227844
v -13.805511 6.099811 0.18778801
v -13.887711 6.184176 0.269989
v -14 6.0938597 0.107227325
v -14 6.229989 0.38227844
v -14 6.1800084 0.22347641
v -14.194489 6.099811 0.18778801
v -14.112289 6.184176 0.269989
v -14.275047 6.1180067 0.38227844
v -14.158798 6.196016 0.38227844
v -14.194489 6.09981 0.5767689
v -14.112289 6.184176 0.49456596
v -14 6.229989 0.38227844
v -10 6.0938597 0.65732956
v -10.194489 6.09981 0.5767689
v -10.112289 6.184176 0.49456596
v -10 6.1800084 0.54107857
v -10 6.229989 0.38227844
v -9.805511 6.09981 0.5767689
v -9.887711 6.184176 0.49456596
v -10 6.229989 0.38227844
v -9.724953 6.1180067 0.38227844
v -9.841202 6.196016 0.38227844
v -9.805511 6.099811 0.18778801
v -9.887711 6.184176 0.269989
v -10 6.0938597 0.107227325
v -10 6.229989 0.38227844
v -10 6.1800084 0.22347641
v -10.194489 6.099811 0.18778801
v -10.112289 6.184176 0.269989
v -10.275047 6.1180067 0.38227844
v -10.158798 6.196016 0.38227844
v -10.194489 6.09981 0.5767689
v -10.112289 6.184176 0.49456596
v -10 6.229989 0.38227844
v -6 6.0938597 0.65732956
v -6.1944885 6.09981 0.5767689
v -6.1122894 6.184176 0.49456596
v -6 6.1800084 0.54107857
v -6 6.229989 0.38227844
v -5.8055115 6.09981 0.5767689
v -5.8877106 6.184176 0.49456596
v -6 6.229989 0.38227844
v -5.7249527 6.1180067 0.38227844
v -5.841202 6.196016 0.38227844
v -5.8055115 6.099811 0.18778801
v -5.8877106 6.184176 0.269989
v -6 6.0938597 0.107227325
v -6 6.229989 0.38227844
v -6 6.1800084 0.22347641
v -6.1944885 6.099811 0.18778801
v -6.1122894 6.184176 0.269989
v -6.2750473 6.1180067 0.38227844
v -6.158798 6.196016 0.38227844
v -6.1944885 6.09981 0.5767689
v -6.1122894 6.184176 0.49456596
v -6 6.229989 0.38227844
v -12 6 0.75
v -16 6 0.75
v -16 6.09728 0.6813717
v -12 6.09728 0.6813717
v -8 6 0.75
v -16 6.121196 0.38227844
v -8 6.0972795 0.6813717
v -4 6 0.75
v -12 6.121196 0.38227844
v -16 6.09728 0.08318329
v -12 6.09728 0.08318329
v -16 6 0.022953033
v -12 6 0.022953033
v -8 6.121196 0.38227844
v -8 6.0972795 0.08318329
v -8 6 0.022953033
v -4 6.0972795 0.6813717
v -4 6.121196 0.38227844
v -4 6.0972795 0.08318329
v -4 6 0.022953033
v -0 6 0.022953033
v -0 6.0972795 0.08318329
v -0 6.1211953 0.38227844
v -0 6.0972795 0.6813717
v -0 6 0.75
v -4 0 0
v -0 0 0
v -0 0.25 -0.25
v -4 0.25 -0.25
v -8 0 0
v -0 0.75 -0.25
v -8 0.25 -0.25
v -12 0 0
v -4 0.75 -0.25
v -0 1.0366955 -0.17660904
v -4 1.0366955 -0.17660904
v -0 1.25 0
v -4 1.25 0
v -8 0.75 -0.25
v -8 1.0366955 -0.17660904
v -8 1.25 0
v -12 0.25 -0.25
v -12 0.75 -0.25
v -12 1.0366955 -0.17660904
v -12 1.25 0
v -16 1.25 0
v -16 1.0366955 -0.17660904
v -16 0.75 -0.25
v -16 0.25 -0.25
v -16 0 0
v -4 1.25 0
v -0 1.25 0
v -0 2.3881588 0
v -4 2.3881588 0
v -8 1.25 0
v -8 2.3881588 0
v -12 1.25 0
v -12 2.3881588 0
v -16 2.3881588 0
v -16 1.25 0
v -16 5.7806716 1.9073486E-06
v -16 2.3881588 0
v -12 2.3881588 0
v -12 5.7806716 1.9073486E-06
v -8 2.3881588 0
v -8 5.7806716 0
v -4 2.3881588 0
v -4 5.7806716 0
v -0 2.3881588 0
v -0 5.7806716 0
v -0 6 0
v -0 6.0972805 0.25
v -4 6.0972805 0.25
v -4 6 0
v -0 5.7806716 0
v -8 6.0972805 0.25
v -4 5.7806716 0
v -8 6 1.9073486E-06
v -12 6.0972805 0.25
v -8 5.7806716 0
v -12 6 1.9073486E-06
v -16 6.0972805 0.25
v -12 5.7806716 1.9073486E-06
v -16 6 1.9073486E-06
v -16 5.7806716 1.9073486E-06
vt 0.52890575 0.3821129
vt 0.50658154 0.3821129
vt 0.50658154 0.3566545
vt 0.5289057 0.3566545
vt 0.5958781 0.31928387
vt 0.55122983 0.3821129
vt 0.55122983 0.3566545
vt 0.5958781 0.3192838
vt 0.57355404 0.3821129
vt 0.57355404 0.3566545
vt 0.59587824 0.3821129
vt 0.59587824 0.3566545
vt 0.6182023 0.3821129
vt 0.5958781 0.31928387
vt 0.6182023 0.3566545
vt 0.64052653 0.3821129
vt 0.64052653 0.3566545
vt 0.6628506 0.3821129
vt 0.6628506 0.3566545
vt 0.6851748 0.38211283
vt 0.6851748 0.3566545
vt 0.5958781 0.3192838
vt 0.52890575 0.3821129
vt 0.50658154 0.3821129
vt 0.50658154 0.34881455
vt 0.5289057 0.34881455
vt 0.5958781 0.24765545
vt 0.55122983 0.3821129
vt 0.55122983 0.34881455
vt 0.5958781 0.24765539
vt 0.57355404 0.3821129
vt 0.57355404 0.34881455
vt 0.59587824 0.3821129
vt 0.59587824 0.34881455
vt 0.6182023 0.3821129
vt 0.5958781 0.24765545
vt 0.6182023 0.34881455
vt 0.64052653 0.3821129
vt 0.64052653 0.34881455
vt 0.6628506 0.3821129
vt 0.6628506 0.34881455
vt 0.6851748 0.38211283
vt 0.6851748 0.34881455
vt 0.5958781 0.24765539
vt 0.52890575 0.3821129
vt 0.50658154 0.3821129
vt 0.50658154 0.3566545
vt 0.5289057 0.3566545
vt 0.5958781 0.31928387
vt 0.55122983 0.3821129
vt 0.55122983 0.3566545
vt 0.5958781 0.3192838
vt 0.57355404 0.3821129
vt 0.57355404 0.3566545
vt 0.59587824 0.3821129
vt 0.59587824 0.3566545
vt 0.6182023 0.3821129
vt 0.5958781 0.31928387
vt 0.6182023 0.3566545
vt 0.64052653 0.3821129
vt 0.64052653 0.3566545
vt 0.6628506 0.3821129
vt 0.6628506 0.3566545
vt 0.6851748 0.38211283
vt 0.6851748 0.3566545
vt 0.5958781 0.3192838
vt 0.52890575 0.3821129
vt 0.50658154 0.3821129
vt 0.50658154 0.3566545
vt 0.5289057 0.3566545
vt 0.5958781 0.31928387
vt 0.55122983 0.3821129
vt 0.55122983 0.3566545
vt 0.5958781 0.3192838
vt 0.57355404 0.3821129
vt 0.57355404 0.3566545
vt 0.59587824 0.3821129
vt 0.59587824 0.3566545
vt 0.6182023 0.3821129
vt 0.5958781 0.31928387
vt 0.6182023 0.3566545
vt 0.64052653 0.3821129
vt 0.64052653 0.3566545
vt 0.6628506 0.3821129
vt 0.6628506 0.3566545
vt 0.6851748 0.38211283
vt 0.6851748 0.3566545
vt 0.5958781 0.3192838
vt -0.24999997 0.37723908
vt 0 0.37723908
vt 0 0.36736876
vt -0.25 0.36736876
vt -0.49999994 0.37723908
vt 0 0.31313133
vt -0.5 0.36736876
vt -0.7499999 0.37723908
vt -0.24999997 0.31313133
vt 0 0.25986603
vt -0.24999997 0.25986603
vt 0 0.2467506
vt -0.24999999 0.24675088
vt -0.49999994 0.31313133
vt -0.49999994 0.25986603
vt -0.49999997 0.24675116
vt -0.75 0.36736876
vt -0.7499999 0.31313133
vt -0.7499999 0.25986603
vt -0.74999994 0.24675144
vt -0.99999994 0.24675173
vt -0.9999999 0.25986603
vt -0.9999999 0.31313133
vt -1 0.36736876
vt -0.9999999 0.37723908
vt -0.24999997 0.40000004
vt 0 0.40000004
vt 0 0.36736876
vt -0.25 0.36736876
vt -0.49999994 0.40000004
vt 0 0.28727263
vt -0.5 0.36736876
vt -0.7499999 0.40000004
vt -0.24999997 0.28727263
vt 0 0.2712465
vt -0.24999997 0.2712465
vt 0 0.24587518
vt -0.24999999 0.24587546
vt -0.49999994 0.28727263
vt -0.49999994 0.2712465
vt -0.49999997 0.24587575
vt -0.75 0.36736876
vt -0.7499999 0.28727263
vt -0.7499999 0.2712465
vt -0.74999994 0.24587603
vt -0.99999994 0.24587631
vt -0.9999999 0.2712465
vt -0.9999999 0.28727263
vt -1 0.36736876
vt -0.9999999 0.40000004
vt 1.1216617 0.39825606
vt 1.1994796 0.3982561
vt 1.1994796 0.37437567
vt 1.1216615 0.37437576
vt 1.0438436 0.39825612
vt 1.0438436 0.37437573
vt 0.9660256 0.3982562
vt 0.9660256 0.37437582
vt 0.88820755 0.37437585
vt 0.88820755 0.3982562
vt 0.88820755 0.3543163
vt 0.88820755 0.37437585
vt 0.9660256 0.37437582
vt 0.96602553 0.3543162
vt 1.0438436 0.37437573
vt 1.0438437 0.35431612
vt 1.1216615 0.37437576
vt 1.1216615 0.354316
vt 1.1994796 0.37437567
vt 1.1994796 0.35431603
vt 0.604632 0.3717932
vt 0.604632 0.3815527
vt 0.68245006 0.3815525
vt 0.6824501 0.37179303
vt 0.604632 0.3652869
vt 0.760268 0.38155234
vt 0.68245006 0.36528677
vt 0.760268 0.37179297
vt 0.838086 0.38155216
vt 0.760268 0.36528677
vt 0.838086 0.3717928
vt 0.91590405 0.38155204
vt 0.838086 0.36528647
vt 0.915904 0.3717926
vt 0.915904 0.36528635
vn -0 0.8019001 0.59745806
vn -0.374827 0.80744153 0.4555686
vn -0.33693105 0.8475235 0.41009927
vn -0 0.84117377 0.54076487
vn -0 1 0
vn 0.37482688 0.8074412 0.45556948
vn 0.33693087 0.8475233 0.41009986
vn -0 1 0
vn 0.55303425 0.8331585 0
vn 0.48341626 0.8753906 0
vn 0.37482956 0.8074397 -0.45556986
vn 0.33693102 0.8475229 -0.41010055
vn -0 0.80189544 -0.5974643
vn -0 1 0
vn -0 0.8411715 -0.54076856
vn -0.37482935 0.8074393 -0.4555708
vn -0.33693084 0.8475227 -0.41010118
vn -0.5530342 0.83315855 0
vn -0.4834162 0.87539065 0
vn -0.374827 0.80744153 0.4555686
vn -0.33693105 0.8475235 0.41009927
vn -0 1 0
vn -0 0.8019008 0.5974572
vn -0.3748279 0.80744094 0.45556903
vn -0.33693162 0.8475233 0.4100993
vn -0 0.8411747 0.5407634
vn -0 1 0
vn 0.37482774 0.8074407 0.45556968
vn 0.3369311 0.8475233 0.41009974
vn -0 1 0
vn 0.55303717 0.8331566 0
vn 0.48341835 0.8753895 0
vn 0.37483025 0.8074393 -0.45557016
vn 0.33693144 0.84752274 -0.41010055
vn -0 0.8018969 -0.59746236
vn -0 1 0
vn -0 0.8411727 -0.54076654
vn -0.37482932 0.8074391 -0.45557135
vn -0.3369308 0.8475225 -0.4101016
vn -0.55303705 0.8331566 0
vn -0.48341835 0.8753895 0
vn -0.3748279 0.80744094 0.45556903
vn -0.33693162 0.8475233 0.4100993
vn -0 1 0
vn -0 0.8019008 0.59745723
vn -0.37482685 0.8074419 0.45556843
vn -0.3369308 0.84752375 0.4100989
vn -0 0.84117436 0.54076403
vn -0 1 0
vn 0.3748266 0.80744153 0.45556894
vn 0.3369306 0.84752357 0.4100994
vn -0 1 0
vn 0.55303454 0.83315825 0
vn 0.48341665 0.8753904 0
vn 0.37482983 0.8074397 -0.45556968
vn 0.3369313 0.8475229 -0.41010037
vn -0 0.8018955 -0.59746426
vn -0 1 0
vn -0 0.8411717 -0.5407682
vn -0.37482983 0.8074389 -0.45557097
vn -0.33693117 0.8475225 -0.41010126
vn -0.5530345 0.8331583 0
vn -0.48341653 0.87539047 0
vn -0.37482685 0.8074419 0.45556843
vn -0.3369308 0.84752375 0.4100989
vn -0 1 0
vn -0 0.8019008 0.59745723
vn -0.3748271 0.8074419 0.4555682
vn -0.3369312 0.8475235 0.41009897
vn -0 0.8411741 0.5407644
vn -0 1 0
vn 0.37482667 0.80744153 0.4555689
vn 0.33693075 0.8475235 0.41009954
vn -0 1 0
vn 0.55303454 0.8331583 0
vn 0.48341623 0.8753906 0
vn 0.37482938 0.8074399 -0.45556968
vn 0.3369308 0.8475231 -0.41010022
vn -0 0.80189604 -0.59746367
vn -0 1 0
vn -0 0.84117174 -0.5407681
vn -0.37482968 0.8074392 -0.4555706
vn -0.33693096 0.84752274 -0.410101
vn -0.5530345 0.8331583 0
vn -0.4834162 0.87539065 0
vn -0.3748271 0.8074419 0.4555682
vn -0.3369312 0.8475235 0.41009897
vn -0 1 0
vn -0 0.5764602 0.81712526
vn -0 0.5764593 0.8171259
vn -0 0.9497456 0.31302264
vn -0 0.9497456 0.31302264
vn -0 0.57646114 0.81712455
vn -0 1 0
vn -0 0.9497457 0.31302264
vn -0 0.57646114 0.81712455
vn -0 1 0
vn -0 0.9475534 -0.31959745
vn -0 0.9475534 -0.31959745
vn -0 0.52641326 -0.8502288
vn -0 0.5264142 -0.85022825
vn -0 1 0
vn -0 0.9475534 -0.31959748
vn -0 0.52641517 -0.85022765
vn -0 0.9497457 0.31302264
vn -0 1 0
vn -0 0.9475534 -0.31959748
vn -0 0.52641517 -0.85022765
vn -0 0.52641517 -0.85022765
vn -0 0.9475534 -0.31959748
vn -0 1 0
vn -0 0.9497457 0.31302264
vn -0 1 0
vn -0 -0.70710677 -0.70710677
vn -0 -0.70710677 -0.70710677
vn -0 -0.3162278 -0.9486833
vn -0 -0.3162278 -0.9486833
vn -0 -0.70710677 -0.70710677
vn -0 0.09288686 -0.9956767
vn -0 -0.3162278 -0.9486833
vn -0 -0.70710677 -0.70710677
vn -0 0.09288686 -0.9956767
vn -0 0.4472136 -0.8944272
vn -0 0.4472136 -0.8944272
vn -0 0.6377416 -0.7702503
vn -0 0.6377416 -0.7702503
vn -0 0.09288686 -0.9956767
vn -0 0.4472136 -0.8944272
vn -0 0.6377416 -0.7702503
vn -0 -0.3162278 -0.9486833
vn -0 0.09288686 -0.9956767
vn -0 0.4472136 -0.8944272
vn -0 0.6377416 -0.7702503
vn -0 0.6377416 -0.7702503
vn -0 0.4472136 -0.8944272
vn -0 0.09288686 -0.9956767
vn -0 -0.3162278 -0.9486833
vn -0 0 -1
vn -0 0 -1
vn -0 0 -1
vn -0 0 -1
vn -0 0 -1
vn -0 0 -1
vn -0 0 -1
vn -0 0 -1
vn -0 0 -1
vn -0 0 -1
vn -0 0 -1
vn -0 0 -1
vn -0 0 -1
vn -0 0 -1
vn -0 0 -1
vn -0 0 -1
vn -0 0 -1
vn -0 0 -1
vn -0 0 -1
vn -0 0 -1
vn -0 0 -1
vn -0 0.6197139 -0.7848278
vn -0 0.93193126 -0.36263496
vn -0 0.93193096 -0.36263552
vn -0 0.61971384 -0.7848278
vn -0 0 -1
vn -0 0.93193054 -0.36263677
vn -0 0 -1
vn -0 0.6197132 -0.78482836
vn -0 0.93193036 -0.36263737
vn -0 0 -1
vn -0 0.6197117 -0.7848295
vn -0 0.93193036 -0.36263737
vn -0 0 -1
vn -0 0.619711 -0.7848301
vn -0 0 -1
g wall_y6_A_x16_0
f 3/3/3 2/2/2 1/1/1
f 4/4/4 3/3/3 1/1/1
f 5/5/5 3/3/3 4/4/4
f 4/4/4 1/1/1 6/6/6
f 7/7/7 4/4/4 6/6/6
f 8/8/8 4/4/4 7/7/7
f 7/7/7 6/6/6 9/9/9
f 8/8/8 7/7/7 10/10/10
f 10/10/10 7/7/7 9/9/9
f 10/10/10 9/9/9 11/11/11
f 12/12/12 10/10/10 11/11/11
f 12/12/12 11/11/11 13/13/13
f 14/14/14 10/10/10 12/12/12
f 15/15/15 12/12/12 13/13/13
f 14/14/14 12/12/12 15/15/15
f 15/15/15 13/13/13 16/16/16
f 14/14/14 15/15/15 17/17/17
f 17/17/17 15/15/15 16/16/16
f 17/17/17 16/16/16 18/18/18
f 14/14/14 17/17/17 19/19/19
f 19/19/19 17/17/17 18/18/18
f 19/19/19 18/18/18 20/20/20
f 21/21/21 19/19/19 20/20/20
f 22/22/22 19/19/19 21/21/21
f 25/25/25 24/24/24 23/23/23
f 26/26/26 25/25/25 23/23/23
f 27/27/27 25/25/25 26/26/26
f 26/26/26 23/23/23 28/28/28
f 29/29/29 26/26/26 28/28/28
f 30/30/30 26/26/26 29/29/29
f 29/29/29 28/28/28 31/31/31
f 30/30/30 29/29/29 32/32/32
f 32/32/32 29/29/29 31/31/31
f 32/32/32 31/31/31 33/33/33
f 34/34/34 32/32/32 33/33/33
f 34/34/34 33/33/33 35/35/35
f 36/36/36 32/32/32 34/34/34
f 37/37/37 34/34/34 35/35/35
f 36/36/36 34/34/34 37/37/37
f 37/37/37 35/35/35 38/38/38
f 36/36/36 37/37/37 39/39/39
f 39/39/39 37/37/37 38/38/38
f 39/39/39 38/38/38 40/40/40
f 36/36/36 39/39/39 41/41/41
f 41/41/41 39/39/39 40/40/40
f 41/41/41 40/40/40 42/42/42
f 43/43/43 41/41/41 42/42/42
f 44/44/44 41/41/41 43/43/43
f 47/47/47 46/46/46 45/45/45
f 48/48/48 47/47/47 45/45/45
f 49/49/49 47/47/47 48/48/48
f 48/48/48 45/45/45 50/50/50
f 51/51/51 48/48/48 50/50/50
f 52/52/52 48/48/48 51/51/51
f 51/51/51 50/50/50 53/53/53
f 52/52/52 51/51/51 54/54/54
f 54/54/54 51/51/51 53/53/53
f 54/54/54 53/53/53 55/55/55
f 56/56/56 54/54/54 55/55/55
f 56/56/56 55/55/55 57/57/57
f 58/58/58 54/54/54 56/56/56
f 59/59/59 56/56/56 57/57/57
f 58/58/58 56/56/56 59/59/59
f 59/59/59 57/57/57 60/60/60
f 58/58/58 59/59/59 61/61/61
f 61/61/61 59/59/59 60/60/60
f 61/61/61 60/60/60 62/62/62
f 58/58/58 61/61/61 63/63/63
f 63/63/63 61/61/61 62/62/62
f 63/63/63 62/62/62 64/64/64
f 65/65/65 63/63/63 64/64/64
f 66/66/66 63/63/63 65/65/65
f 69/69/69 68/68/68 67/67/67
f 70/70/70 69/69/69 67/67/67
f 71/71/71 69/69/69 70/70/70
f 70/70/70 67/67/67 72/72/72
f 73/73/73 70/70/70 72/72/72
f 74/74/74 70/70/70 73/73/73
f 73/73/73 72/72/72 75/75/75
f 74/74/74 73/73/73 76/76/76
f 76/76/76 73/73/73 75/75/75
f 76/76/76 75/75/75 77/77/77
f 78/78/78 76/76/76 77/77/77
f 78/78/78 77/77/77 79/79/79
f 80/80/80 76/76/76 78/78/78
f 81/81/81 78/78/78 79/79/79
f 80/80/80 78/78/78 81/81/81
f 81/81/81 79/79/79 82/82/82
f 80/80/80 81/81/81 83/83/83
f 83/83/83 81/81/81 82/82/82
f 83/83/83 82/82/82 84/84/84
f 80/80/80 83/83/83 85/85/85
f 85/85/85 83/83/83 84/84/84
f 85/85/85 84/84/84 86/86/86
f 87/87/87 85/85/85 86/86/86
f 88/88/88 85/85/85 87/87/87
f 91/91/91 90/90/90 89/89/89
f 92/92/92 91/91/91 89/89/89
f 92/92/92 89/89/89 93/93/93
f 94/94/94 91/91/91 92/92/92
f 95/95/95 92/92/92 93/93/93
f 95/95/95 93/93/93 96/96/96
f 97/97/97 94/94/94 92/92/92
f 97/97/97 92/92/92 95/95/95
f 98/98/98 94/94/94 97/97/97
f 99/99/99 98/98/98 97/97/97
f 100/100/100 98/98/98 99/99/99
f 101/101/101 100/100/100 99/99/99
f 102/102/102 97/97/97 95/95/95
f 99/99/99 97/97/97 102/102/102
f 101/101/101 99/99/99 103/103/103
f 103/103/103 99/99/99 102/102/102
f 104/104/104 101/101/101 103/103/103
f 105/105/105 95/95/95 96/96/96
f 102/102/102 95/95/95 105/105/105
f 103/103/103 102/102/102 106/106/106
f 106/106/106 102/102/102 105/105/105
f 104/104/104 103/103/103 107/107/107
f 107/107/107 103/103/103 106/106/106
f 108/108/108 104/104/104 107/107/107
f 108/108/108 107/107/107 109/109/109
f 107/107/107 110/110/110 109/109/109
f 107/107/107 106/106/106 110/110/110
f 106/106/106 111/111/111 110/110/110
f 106/106/106 105/105/105 111/111/111
f 105/105/105 112/112/112 111/111/111
f 105/105/105 96/96/96 112/112/112
f 96/96/96 113/113/113 112/112/112
f 116/116/116 115/115/115 114/114/114
f 117/117/117 116/116/116 114/114/114
f 117/117/117 114/114/114 118/118/118
f 119/119/119 116/116/116 117/117/117
f 120/120/120 117/117/117 118/118/118
f 120/120/120 118/118/118 121/121/121
f 122/122/122 119/119/119 117/117/117
f 122/122/122 117/117/117 120/120/120
f 123/123/123 119/119/119 122/122/122
f 124/124/124 123/123/123 122/122/122
f 125/125/125 123/123/123 124/124/124
f 126/126/126 125/125/125 124/124/124
f 127/127/127 122/122/122 120/120/120
f 124/124/124 122/122/122 127/127/127
f 126/126/126 124/124/124 128/128/128
f 128/128/128 124/124/124 127/127/127
f 129/129/129 126/126/126 128/128/128
f 130/130/130 120/120/120 121/121/121
f 127/127/127 120/120/120 130/130/130
f 128/128/128 127/127/127 131/131/131
f 131/131/131 127/127/127 130/130/130
f 129/129/129 128/128/128 132/132/132
f 132/132/132 128/128/128 131/131/131
f 133/133/133 129/129/129 132/132/132
f 133/133/133 132/132/132 134/134/134
f 132/132/132 135/135/135 134/134/134
f 132/132/132 131/131/131 135/135/135
f 131/131/131 136/136/136 135/135/135
f 131/131/131 130/130/130 136/136/136
f 130/130/130 137/137/137 136/136/136
f 130/130/130 121/121/121 137/137/137
f 121/121/121 138/138/138 137/137/137
f 141/141/141 140/140/140 139/139/139
f 142/142/142 141/141/141 139/139/139
f 142/142/142 139/139/139 143/143/143
f 144/144/144 142/142/142 143/143/143
f 144/144/144 143/143/143 145/145/145
f 146/146/146 144/144/144 145/145/145
f 146/146/146 145/145/145 147/147/147
f 145/145/145 148/148/148 147/147/147
f 151/151/151 150/150/150 149/149/149
f 152/152/152 151/151/151 149/149/149
f 151/151/151 152/152/152 153/153/153
f 152/152/152 154/154/154 153/153/153
f 153/153/153 154/154/154 155/155/155
f 154/154/154 156/156/156 155/155/155
f 155/155/155 156/156/156 157/157/157
f 156/156/156 158/158/158 157/157/157
f 161/161/161 160/160/160 159/159/159
f 162/162/162 161/161/161 159/159/159
f 162/162/162 159/159/159 163/163/163
f 164/164/164 161/161/161 162/162/162
f 165/165/165 162/162/162 163/163/163
f 166/166/166 164/164/164 162/162/162
f 166/166/166 162/162/162 165/165/165
f 167/167/167 164/164/164 166/166/166
f 168/168/168 166/166/166 165/165/165
f 169/169/169 167/167/167 166/166/166
f 169/169/169 166/166/166 168/168/168
f 167/167/167 169/169/169 170/170/170
f 171/171/171 169/169/169 168/168/168
f 169/169/169 172/172/172 170/170/170
f 169/169/169 171/171/171 172/172/172
f 171/171/171 173/173/173 172/172/172
