g wall_y22_A_rampL
v -6 3 0
v -0 0 0
v -0 0.25 -0.25
v -6 3.25 -0.25
v -12 6 0
v -12 6.25 -0.25
v -0 0.75 -0.25
v -6 3.75 -0.25
v -0 1.0366955 -0.17660904
v -12 6.25 -0.25
v -6 4.0366955 -0.17660904
v -0 1.25 0
v -6 4.25 0
v -11.847084 6.6353135 -0.25
v -11.855499 6.9283204 -0.17660904
v -11.855217 7.1414123 0
v -12.00403 7.2221503 0
v -12.004021 7.0089006 -0.17660904
v -12.160494 7.25 0
v -12.000671 6.720611 -0.25
v -12.160179 7.0366955 -0.17660904
v -12.155539 6.75 -0.25
v -16 6.25 -0.25
v -16 7.0366955 -0.17660904
v -16 7.25 0
v -20 7.25 0
v -20 7.0366955 -0.17660904
v -16 6.75 -0.25
v -20 6.75 -0.25
v -20 6.25 -0.25
v -16 6 0
v -20 6 0
v -12 6.25 -0.25
v -12 6 0
v -6 4.25 0
v -0 1.25 0
v -0 2.39 0
v -6 5.3900003 0
v -11.855217 7.1414123 0
v -12.014387 8.346843 0
v -12.00403 7.2221503 0
v -12 11.05 0
v -6 11.05 0
v -12 12 3.8146973E-06
v -0 11.05 0
v -6 12 3.8146973E-06
v -0 12 3.8146973E-06
v -0 12 3.8146973E-06
v -0 20 3.8146973E-06
v -6 20 3.8146973E-06
v -6 12 3.8146973E-06
v -12 12 3.8146973E-06
v -12 20 3.8146973E-06
v -0 22 -0.5
v -0 22 0
v -6 22 0
v -6 22 -0.5
v -0 21.75 -0.75
v -12 22 -0.5
v -12 22 0
v -16 22 -0.5
v -16 22 0
v -6 21.75 -0.75
v -0 20.5 -0.5
v -20 22 -0.5
v -20 22 0
v -20 21.75 -0.75
v -16 21.75 -0.75
v -12 22 -0.5
v -20 20.5 -0.5
v -12 21.75 -0.75
v -16 20.5 -0.5
v -12 21.75 -0.75
v -20 20.18829 -0.31171036
v -12 20.5 -0.5
v -16 20.18829 -0.31171036
v -20 20 3.8146973E-06
v -16 20 3.8146973E-06
v -12 20.18829 -0.31171036
v -12 20 3.8146973E-06
v -6 20.5 -0.5
v -6 20.18829 -0.31171036
v -6 20 3.8146973E-06
v -0 20.18829 -0.31171036
v -0 20 3.8146973E-06
v -20 8.39 0
v -20 7.25 0
v -16 7.25 0
v -16 8.39 0
v -20 11.05 3.8146973E-06
v -12.014387 8.346843 0
v -12.160494 7.25 0
v -12.00403 7.2221503 0
v -16 11.05 0
v -20 12 3.8146973E-06
v -12 11.05 0
v -16 12 3.8146973E-06
v -12 12 3.8146973E-06
v -16 20 3.8146973E-06
v -20 20 3.8146973E-06
v -20 12 3.8146973E-06
v -16 12 3.8146973E-06
v -12 20 3.8146973E-06
v -12 12 3.8146973E-06
vt -0.24999997 0.40000004
vt 0 0.40000004
vt 0 0.36736876
vt -0.25 0.36736876
vt -0.49560302 0.40000004
vt -0.5 0.36202955
vt 0 0.28727263
vt -0.24999997 0.28727263
vt 0 0.2712465
vt -0.5 0.36202955
vt -0.24999997 0.27124646
vt 0 0.24587518
vt -0.24999999 0.24587546
vt -0.49044272 0.2872726
vt -0.49096864 0.27124646
vt -0.49095103 0.24587578
vt -0.49999997 0.24587575
vt -0.49999994 0.2712465
vt -0.5100308 0.24587576
vt -0.49999994 0.28727263
vt -0.51001114 0.2712465
vt -0.5097211 0.28727263
vt -0.75 0.36736876
vt -0.7499999 0.2712465
vt -0.74999994 0.24587603
vt -0.99999994 0.24587631
vt -0.9999999 0.2712465
vt -0.7499999 0.28727263
vt -0.9999999 0.28727263
vt -1 0.36736876
vt -0.7499999 0.40000004
vt -0.9999999 0.40000004
vt -0.5 0.36202955
vt -0.5099539 0.40000004
vt 0.40377453 0.12190017
vt 0.32595652 0.12190022
vt 0.3259565 0.14578065
vt 0.4037745 0.1457806
vt 0.47877583 0.12190011
vt 0.4825948 0.14578053
vt 0.48159254 0.12190011
vt 0.48150277 0.20150158
vt 0.4037745 0.2015016
vt 0.48159254 0.22140193
vt 0.32595646 0.20150165
vt 0.4037745 0.22140196
vt 0.32595646 0.221402
vt 0.0035187053 0.22821265
vt 0.0035187092 0.23921299
vt 0.04940115 0.23921299
vt 0.049401138 0.22821265
vt 0.09439716 0.22821265
vt 0.09439719 0.23921299
vt 0 0.381358
vt 0 0.40000004
vt 0.24999997 0.40000004
vt 0.24999997 0.3813579
vt 0 0.36736876
vt 0.49999967 0.38135782
vt 0.49908754 0.40000004
vt 0.7499999 0.3813578
vt 0.7499999 0.40000004
vt 0.24999997 0.36736876
vt 0 0.28727263
vt 0.9999999 0.3813577
vt 0.9999999 0.40000004
vt 0.9999999 0.36736876
vt 0.7499999 0.36736876
vt 0.49999967 0.38135782
vt 1.0000001 0.28727263
vt 0.4999999 0.3673688
vt 0.7500001 0.28727263
vt 0.4999999 0.3673688
vt 1.0000001 0.2712465
vt 0.50000006 0.28727263
vt 0.7500001 0.2712465
vt 1.0000001 0.24828896
vt 0.7500001 0.24828912
vt 0.5 0.2712465
vt 0.50000006 0.24828929
vt 0.25000003 0.28727263
vt 0.25000003 0.27124655
vt 0.25000003 0.24828947
vt 0 0.2712465
vt 0 0.24828963
vt 0.63722855 0.14578044
vt 0.63722855 0.12189999
vt 0.5594106 0.12190005
vt 0.5594106 0.14578049
vt 0.63722855 0.20150149
vt 0.4825948 0.14578053
vt 0.48471487 0.12190011
vt 0.48159254 0.12190011
vt 0.5594105 0.20150153
vt 0.63722855 0.22140186
vt 0.48150277 0.20150158
vt 0.5594105 0.2214019
vt 0.48159254 0.22140193
vt 0.14116603 0.23921299
vt 0.18704847 0.23921299
vt 0.18704844 0.22821265
vt 0.141166 0.22821265
vt 0.097056404 0.23921299
vt 0.09705638 0.22821265
vn -0.33333334 -0.6666667 -0.6666667
vn -0.33333334 -0.6666667 -0.6666667
vn -0.20482619 -0.40965238 -0.88894945
vn -0.15783218 -0.31566435 -0.93565226
vn -0.22193417 -0.68947273 -0.68947273
vn -0.18885528 -0.69438237 -0.69438237
vn 0.030693188 0.061386377 -0.99764204
vn 0.0469757 0.09437431 -0.9944279
vn 0.19497685 0.3899537 -0.89995563
vn -0 0 -1
vn 0.2172396 0.43697384 -0.8728465
vn 0.3037997 0.6075994 -0.7338452
vn 0.3017512 0.6080512 -0.73431593
vn 0.055954434 0.113182336 -0.9919974
vn 0.23915511 0.4832315 -0.8421948
vn 0.30146167 0.6081352 -0.73436534
vn 0.2022176 0.62466687 -0.7542542
vn 0.16769709 0.45695207 -0.87354016
vn 0.0040653814 0.63773894 -0.7702418
vn 0.060257223 0.15040304 -0.9867867
vn 0.0032056677 0.44694203 -0.8945572
vn 0.0006718379 0.08306116 -0.9965442
vn -0 -0.3180824 -0.9480631
vn -0 0.44718182 -0.8944431
vn -0 0.63774127 -0.77025074
vn -0 0.6377416 -0.7702503
vn -0 0.4472136 -0.8944272
vn -0 0.09229292 -0.9957319
vn -0 0.09288686 -0.9956767
vn -0 -0.3162278 -0.9486833
vn -0 -0.70710677 -0.70710677
vn -0 0 -1
vn -0.18885528 -0.69438237 -0.69438237
vn -0.22193417 -0.68947273 -0.68947273
vn -0 0 -1
vn -0 0 -1
vn -0 0 -1
vn -0 0 -1
vn -0 0 -1
vn -0 0 -1
vn -0 0 -1
vn -0 0 -1
vn -0 0 -1
vn -0 0 -1
vn -0 0 -1
vn -0 0 -1
vn -0 0 -1
vn -0 0 -1
vn -0 0 -1
vn -0 0 -1
vn -0 0 -1
vn -0 0 -1
vn -0 0 -1
vn -0 0.9486833 -0.31622776
vn -0 1 0
vn -0 1 0
vn -0 0.9486833 -0.31622776
vn -0 0 -1
vn -0 1 0
vn -0 1 0
vn -0 0.9486833 -0.3162278
vn -0 1 0
vn -0 0 -1
vn -0 -0.27020767 -0.962802
vn -0 0.9486833 -0.3162278
vn -0 1 0
vn -0 0 -1
vn -0 0 -1
vn -0 0.70710677 -0.70710677
vn -0 -0.27020767 -0.962802
vn -0 0.70710677 -0.70710677
vn -0 -0.27020767 -0.962802
vn -0 -0.19611613 -0.9805807
vn -0 -0.70710945 -0.7071041
vn -0 -0.2702077 -0.962802
vn -0 -0.70710945 -0.7071041
vn -0 -0.85596126 -0.51703984
vn -0 -0.85596126 -0.51703984
vn -0 -0.70710945 -0.7071041
vn -0 -0.85596126 -0.51703984
vn -0 -0.27020767 -0.962802
vn -0 -0.70710945 -0.7071041
vn -0 -0.85596126 -0.51703984
vn -0 -0.70710945 -0.7071041
vn -0 -0.85596126 -0.51703984
vn -0 0 -1
vn -0 0 -1
vn -0 0 -1
vn -0 0 -1
vn -0 0 -1
vn -0 0 -1
vn -0 0 -1
vn -0 0 -1
vn -0 0 -1
vn -0 0 -1
vn -0 0 -1
vn -0 0 -1
vn -0 0 -1
vn -0 0 -1
vn -0 0 -1
vn -0 0 -1
vn -0 0 -1
vn -0 0 -1
vn -0 0 -1
g wall_y22_A_rampL_0
f 3/3/3 2/2/2 1/1/1
f 4/4/4 3/3/3 1/1/1
f 4/4/4 1/1/1 5/5/5
f 6/6/6 4/4/4 5/5/5
f 7/7/7 3/3/3 4/4/4
f 8/8/8 7/7/7 4/4/4
f 9/9/9 7/7/7 8/8/8
f 8/8/8 4/4/4 10/10/10
f 11/11/11 9/9/9 8/8/8
f 12/12/12 9/9/9 11/11/11
f 13/13/13 12/12/12 11/11/11
f 11/11/11 8/8/8 14/14/14
f 14/14/14 8/8/8 10/10/10
f 13/13/13 11/11/11 15/15/15
f 15/15/15 11/11/11 14/14/14
f 16/16/16 13/13/13 15/15/15
f 17/17/17 16/16/16 15/15/15
f 18/18/18 17/17/17 15/15/15
f 18/18/18 15/15/15 14/14/14
f 19/19/19 17/17/17 18/18/18
f 20/20/20 14/14/14 10/10/10
f 20/20/20 18/18/18 14/14/14
f 21/21/21 19/19/19 18/18/18
f 21/21/21 18/18/18 20/20/20
f 22/22/22 20/20/20 10/10/10
f 22/22/22 21/21/21 20/20/20
f 22/22/22 10/10/10 23/23/23
f 19/19/19 21/21/21 24/24/24
f 25/25/25 19/19/19 24/24/24
f 25/25/25 24/24/24 26/26/26
f 24/24/24 27/27/27 26/26/26
f 21/21/21 22/22/22 28/28/28
f 24/24/24 21/21/21 28/28/28
f 24/24/24 28/28/28 27/27/27
f 28/28/28 22/22/22 23/23/23
f 28/28/28 29/29/29 27/27/27
f 28/28/28 23/23/23 29/29/29
f 23/23/23 30/30/30 29/29/29
f 23/23/23 31/31/31 30/30/30
f 31/31/31 32/32/32 30/30/30
f 23/23/23 33/33/33 31/31/31
f 33/33/33 34/34/34 31/31/31
f 37/37/37 36/36/36 35/35/35
f 38/38/38 37/37/37 35/35/35
f 38/38/38 35/35/35 39/39/39
f 40/40/40 38/38/38 39/39/39
f 41/41/41 40/40/40 39/39/39
f 40/40/40 42/42/42 38/38/38
f 38/38/38 43/43/43 37/37/37
f 42/42/42 43/43/43 38/38/38
f 42/42/42 44/44/44 43/43/43
f 43/43/43 45/45/45 37/37/37
f 44/44/44 46/46/46 43/43/43
f 43/43/43 46/46/46 45/45/45
f 46/46/46 47/47/47 45/45/45
f 50/50/50 49/49/49 48/48/48
f 51/51/51 50/50/50 48/48/48
f 51/51/51 52/52/52 50/50/50
f 52/52/52 53/53/53 50/50/50
f 56/56/56 55/55/55 54/54/54
f 57/57/57 56/56/56 54/54/54
f 57/57/57 54/54/54 58/58/58
f 57/57/57 59/59/59 56/56/56
f 59/59/59 60/60/60 56/56/56
f 59/59/59 61/61/61 60/60/60
f 61/61/61 62/62/62 60/60/60
f 63/63/63 57/57/57 58/58/58
f 63/63/63 58/58/58 64/64/64
f 61/61/61 65/65/65 62/62/62
f 65/65/65 66/66/66 62/62/62
f 67/67/67 65/65/65 61/61/61
f 68/68/68 67/67/67 61/61/61
f 68/68/68 61/61/61 69/69/69
f 70/70/70 67/67/67 68/68/68
f 71/71/71 69/69/69 57/57/57
f 71/71/71 68/68/68 69/69/69
f 63/63/63 71/71/71 57/57/57
f 72/72/72 70/70/70 68/68/68
f 72/72/72 68/68/68 73/73/73
f 70/70/70 72/72/72 74/74/74
f 75/75/75 73/73/73 63/63/63
f 75/75/75 72/72/72 73/73/73
f 72/72/72 76/76/76 74/74/74
f 72/72/72 75/75/75 76/76/76
f 77/77/77 74/74/74 76/76/76
f 78/78/78 77/77/77 76/76/76
f 78/78/78 76/76/76 79/79/79
f 75/75/75 79/79/79 76/76/76
f 80/80/80 78/78/78 79/79/79
f 81/81/81 75/75/75 63/63/63
f 75/75/75 81/81/81 79/79/79
f 81/81/81 63/63/63 64/64/64
f 80/80/80 79/79/79 82/82/82
f 81/81/81 82/82/82 79/79/79
f 81/81/81 64/64/64 82/82/82
f 83/83/83 80/80/80 82/82/82
f 64/64/64 84/84/84 82/82/82
f 83/83/83 82/82/82 85/85/85
f 82/82/82 84/84/84 85/85/85
f 88/88/88 87/87/87 86/86/86
f 89/89/89 88/88/88 86/86/86
f 89/89/89 86/86/86 90/90/90
f 89/89/89 91/91/91 88/88/88
f 91/91/91 92/92/92 88/88/88
f 92/92/92 91/91/91 93/93/93
f 94/94/94 89/89/89 90/90/90
f 89/89/89 94/94/94 91/91/91
f 94/94/94 90/90/90 95/95/95
f 94/94/94 96/96/96 91/91/91
f 97/97/97 94/94/94 95/95/95
f 94/94/94 97/97/97 96/96/96
f 97/97/97 98/98/98 96/96/96
f 101/101/101 100/100/100 99/99/99
f 102/102/102 101/101/101 99/99/99
f 102/102/102 99/99/99 103/103/103
f 104/104/104 102/102/102 103/103/103
