g wall_y16_B_cIN
v -0.839 0 2.9802322E-08
v -1.8629542E-16 0 -9.25204E-17
v -1.8629542E-16 0.25 -0.24999988
v -0.839 0.25 -0.24999985
v -1.6722435 -3.3566505E-18 -0.07628662
v -1.8629542E-16 0.75 -0.25000012
v -1.6162244 0.25 -0.31992942
v -2.4531755 1.5005864E-17 -0.37543622
v -0.839 0.75 -0.2500001
v -1.8629542E-16 1.0366952 -0.17660952
v -2.3320804 0.25 -0.5941505
v -3.1211936 1.1101424E-16 -0.8785235
v -0.839 1.0366952 -0.17660949
v -1.8629542E-16 1.25 1.5311644E-16
v -0.839 1.25 2.9802322E-08
v -1.6162244 0.75 -0.31992966
v -1.6326694 1.0366952 -0.24840526
v -1.6722435 1.25 -0.07628662
v -2.9444318 0.25 -1.0553149
v -3.624392 3.3511014E-16 -1.5464579
v -2.3320801 0.75 -0.5941507
v -2.3676293 1.0366952 -0.5299444
v -2.4531755 1.25 -0.37543622
v -3.4056983 0.25 -1.6675893
v -3.9236722 7.277826E-16 -2.32734
v -2.9444315 0.75 -1.055315
v -2.9963224 1.0366952 -1.0034157
v -3.1211936 1.25 -0.8785235
v -3.6800385 0.25 -2.3833995
v -4.000071 1.3126013E-15 -3.1605706
v -3.4056978 0.75 -1.6675894
v -3.4698985 1.0366952 -1.6320298
v -3.624392 1.25 -1.5464579
v -3.6800385 0.75 -2.3833995
v -3.75156 1.0366952 -2.3669426
v -3.9236722 1.25 -2.32734
v -3.750071 0.25 -3.1605706
v -3.7500706 0.75 -3.1605706
v -3.8234615 1.0366952 -3.1605706
v -4.000071 1.25 -3.1605706
v -4 1.25 -4
v -3.8233902 1.0366952 -4
v -3.7499998 0.75 -4
v -3.75 0.25 -4
v -4 0 -4
v -0.839 1.25 2.9802322E-08
v -1.8629542E-16 1.25 1.5311644E-16
v -1.8629542E-16 6 2.1457672E-06
v -0.839 6 2.1755695E-06
v -1.6722435 1.25 -0.07628662
v -1.672244 6 -0.07628453
v -2.4531755 1.25 -0.37543622
v -2.4531765 6 -0.37543434
v -3.1211936 1.25 -0.8785235
v -3.121195 6 -0.878522
v -3.624392 1.25 -1.5464579
v -3.6243942 6 -1.5464568
v -3.9236722 1.25 -2.32734
v -3.923674 6 -2.3273394
v -4.000071 1.25 -3.1605706
v -4.000073 6 -3.1605706
v -4.0000043 6 -4.0000095
v -4 1.25 -4
v -1.8629542E-16 14 2.1457672E-06
v -0.839 14 2.1755695E-06
v -0.839 6 2.1755695E-06
v -1.8629542E-16 6 2.1457672E-06
v -1.8629542E-16 14.188289 -0.31171095
v -0.839 14 2.1755695E-06
v -1.8629542E-16 14 2.1457672E-06
v -0.839 14.188289 -0.31171095
v -0 14.5 -0.5
v -1.672244 14 -0.07628453
v -0.839 14.5 -0.49999997
v -1.8629542E-16 15.75 -0.75
v -1.6023965 14.188289 -0.38007134
v -2.4531765 14 -0.37543434
v -0.839 15.75 -0.75
v -1.8629542E-16 16 -0.5
v -2.3021886 14.188289 -0.648139
v -3.121195 14 -0.878522
v -1.5602055 14.5 -0.56357247
v -0.839 16 -0.5
v -1.8629542E-16 16 7.450581E-09
v -0.839 16 8.381903E-09
v -2.9007988 14.188289 -1.0989549
v -3.6243942 14 -1.5464568
v -2.2109852 14.5 -0.81286496
v -1.5041866 15.75 -0.8072154
v -1.5602055 16 -0.5635725
v -1.6722435 16 -0.076286666
v -3.3517146 14.188289 -1.6974901
v -3.923674 14 -2.3273394
v -2.0898902 15.75 -1.0315794
v -2.2109852 16 -0.8128651
v -2.4531755 16 -0.3754363
v -2.7676697 14.5 -1.2321063
v -3.619899 14.188289 -2.3972375
v -4.000073 14 -3.1605706
v -2.7676697 16 -1.2321064
v -3.1211936 16 -0.8785236
v -2.5909076 15.75 -1.4088978
v -3.187004 14.5 -1.788721
v -3.6883595 14.188289 -3.1605706
v -4.000002 14 -4
v -3.688289 14.188289 -4
v -3.1870039 16 -1.7887211
v -3.624392 16 -1.546458
v -2.9683096 15.75 -1.9098525
v -3.436405 14.5 -2.439459
v -3.5000706 14.5 -3.1605706
v -3.4999998 14.5 -4
v -3.1927714 15.75 -2.4955187
v -3.436405 16 -2.439459
v -3.9236717 16 -2.32734
v -3.2500708 15.75 -3.1605706
v -3.25 15.75 -4
v -3.5000706 16 -3.1605706
v -4.000071 16 -3.1605706
v -3.4999998 16 -4
v -4 16 -4
v -3.923674 14 -2.3273394
v -4.000073 14 -3.1605706
v -4.000073 6 -3.1605706
v -3.923674 6 -2.3273394
v -3.6243942 14 -1.5464568
v -3.6243942 6 -1.5464568
v -3.121195 14 -0.878522
v -3.121195 6 -0.878522
v -2.4531765 14 -0.37543434
v -2.4531765 6 -0.37543434
v -1.672244 14 -0.07628453
v -1.672244 6 -0.07628453
v -0.839 14 2.1755695E-06
v -0.839 6 2.1755695E-06
v -4.000073 14 -3.1605706
v -4.000002 14 -4
v -4.0000043 6 -4.0000095
v -4.000073 6 -3.1605706
vt -0.5624999 0.40000004
vt -0.49999994 0.40000004
vt -0.5 0.36736876
vt -0.5625 0.36736876
vt -0.6249999 0.40000004
vt -0.49999994 0.28727263
vt -0.625 0.36736876
vt -0.6874999 0.40000004
vt -0.5624999 0.28727263
vt -0.49999994 0.2712465
vt -0.6875 0.36736876
vt -0.7499999 0.40000004
vt -0.5624999 0.2712465
vt -0.49999997 0.24587575
vt -0.56249994 0.24587582
vt -0.6249999 0.28727263
vt -0.6249999 0.2712465
vt -0.62499994 0.2458759
vt -0.75 0.36736876
vt -0.8124999 0.40000004
vt -0.6874999 0.28727263
vt -0.6874999 0.2712465
vt -0.68749994 0.24587595
vt -0.8125 0.36736876
vt -0.8749999 0.40000004
vt -0.7499999 0.28727263
vt -0.7499999 0.2712465
vt -0.74999994 0.24587603
vt -0.875 0.36736876
vt -0.9374999 0.40000004
vt -0.8124999 0.28727263
vt -0.8124999 0.2712465
vt -0.81249994 0.2458761
vt -0.8749999 0.28727263
vt -0.8749999 0.2712465
vt -0.87499994 0.24587616
vt -0.9375 0.36736876
vt -0.9374999 0.28727263
vt -0.9374999 0.2712465
vt -0.93749994 0.24587624
vt -0.99999994 0.24587631
vt -0.9999999 0.2712465
vt -0.9999999 0.28727263
vt -1 0.36736876
vt -0.9999999 0.40000004
vt 1.4421519 0.2196152
vt 1.4608407 0.2196152
vt 1.4608407 0.12402943
vt 1.4421519 0.12402943
vt 1.4234631 0.2196152
vt 1.4234631 0.12402941
vt 1.4047743 0.21961506
vt 1.4047743 0.12402941
vt 1.3860854 0.21961518
vt 1.3860854 0.1240294
vt 1.3673966 0.2196152
vt 1.3673966 0.1240294
vt 1.348708 0.21961518
vt 1.3487079 0.12402953
vt 1.330019 0.2196152
vt 1.330019 0.1240294
vt 1.3113301 0.1240294
vt 1.3113301 0.21961518
vt 0.96854407 0.21853074
vt 0.98688203 0.21853074
vt 0.98688203 0.1240817
vt 0.96854395 0.1240817
vt 0.50000006 0.2712465
vt 0.5625001 0.24828924
vt 0.50000006 0.24828929
vt 0.5625001 0.2712465
vt 0.50000006 0.28727263
vt 0.6250001 0.2482892
vt 0.5625001 0.28727263
vt 0.49999994 0.36736876
vt 0.6250001 0.2712465
vt 0.6875001 0.24828917
vt 0.5624999 0.36736876
vt 0.49999994 0.38135785
vt 0.6875001 0.2712465
vt 0.7500001 0.24828912
vt 0.6250001 0.28727263
vt 0.5624999 0.38135785
vt 0.49999994 0.40000004
vt 0.5624999 0.40000004
vt 0.7500001 0.2712465
vt 0.8125001 0.24828908
vt 0.6875001 0.28727263
vt 0.6249999 0.36736876
vt 0.6249999 0.38135782
vt 0.6249999 0.40000004
vt 0.8125001 0.2712465
vt 0.8750001 0.24828905
vt 0.6874999 0.36736876
vt 0.6874999 0.3813578
vt 0.6874999 0.40000004
vt 0.7500001 0.28727263
vt 0.8750001 0.2712465
vt 0.9375001 0.248289
vt 0.7499999 0.3813578
vt 0.7499999 0.40000004
vt 0.7499999 0.36736876
vt 0.8125001 0.28727263
vt 0.9375001 0.2712465
vt 1.0000001 0.24828896
vt 1.0000001 0.2712465
vt 0.8124999 0.38135776
vt 0.8124999 0.40000004
vt 0.8124999 0.36736876
vt 0.8750001 0.28727263
vt 0.9375001 0.28727263
vt 1.0000001 0.28727263
vt 0.8749999 0.36736876
vt 0.8749999 0.38135773
vt 0.8749999 0.40000004
vt 0.9374999 0.36736876
vt 0.9999999 0.36736876
vt 0.9374999 0.38135773
vt 0.9374999 0.40000004
vt 0.9999999 0.3813577
vt 0.9999999 0.40000004
vt 1.0785725 0.21853074
vt 1.0969106 0.21853074
vt 1.0969105 0.1240817
vt 1.0785725 0.1240817
vt 1.0602344 0.21853074
vt 1.0602344 0.1240817
vt 1.0418965 0.21853074
vt 1.0418963 0.1240817
vt 1.0235583 0.21853074
vt 1.0235583 0.1240817
vt 1.0052202 0.21853074
vt 1.0052202 0.1240817
vt 0.98688203 0.21853074
vt 0.98688203 0.1240817
vt 1.0969106 0.21853074
vt 1.1152487 0.21853074
vt 1.1152487 0.1240817
vt 1.0969105 0.1240817
vn 0.030772062 -0.70634085 -0.70720273
vn -0 -0.7071066 -0.7071069
vn -0 -0.31622788 -0.9486833
vn 0.0415912 -0.3225713 -0.94563097
vn 0.15931249 -0.7075603 -0.6884606
vn -0 0.09288615 -0.9956768
vn 0.21194229 -0.33572492 -0.9178068
vn 0.34250864 -0.70710665 -0.61861765
vn 0.043282907 0.093377866 -0.9946896
vn -0 0.44721386 -0.89442706
vn 0.45615998 -0.33634374 -0.8238877
vn 0.49995863 -0.70710635 -0.50004196
vn 0.039522905 0.4505965 -0.89185244
vn -0 0.63774234 -0.7702498
vn 0.033848662 0.6369171 -0.7701889
vn 0.22371846 0.09497311 -0.9700155
vn 0.20020857 0.4592418 -0.8654556
vn 0.17378952 0.6382223 -0.74997973
vn 0.6658548 -0.33634353 -0.6659658
vn 0.61856097 -0.70710623 -0.342612
vn 0.4821921 0.094945095 -0.8709054
vn 0.43026075 0.4593208 -0.7771101
vn 0.37309387 0.63774234 -0.6738588
vn 0.8238117 -0.33634338 -0.45629737
vn 0.68843675 -0.7075595 -0.15941894
vn 0.7038538 0.0949452 -0.70397115
vn 0.62804973 0.4593206 -0.62815446
vn 0.5446039 0.6377416 -0.5446946
vn 0.9177728 -0.33572805 -0.21208397
vn 0.7072019 -0.70634145 -0.03077814
vn 0.87082493 0.094945095 -0.48233733
vn 0.7770387 0.45932034 -0.43039033
vn 0.67379713 0.6377416 -0.3732064
vn 0.96998066 0.09497356 -0.22386923
vn 0.86542416 0.45924312 -0.20034158
vn 0.74995404 0.6382209 -0.17390501
vn 0.94562703 -0.3225817 -0.041601654
vn 0.994689 0.09337924 -0.043293007
vn 0.8918484 0.45060351 -0.039532986
vn 0.7701883 0.6369174 -0.033855915
vn 0.77025014 0.6377419 6.525519E-05
vn 0.8944297 0.4472086 7.5735676E-05
vn 0.9956768 0.0928852 8.418437E-05
vn 0.94868577 -0.31622037 8.02063E-05
vn -0 0 -1
vn 0.045571942 0 -0.9989611
vn -0 0 -1
vn -0 0 -1
vn 0.045571942 0 -0.9989611
vn 0.22654018 0 -0.9740018
vn 0.22654021 0 -0.9740018
vn 0.4843804 0 -0.8748575
vn 0.48438036 0 -0.8748575
vn 0.7070479 0 -0.70716566
vn 0.7070479 0 -0.70716566
vn 0.87477666 0 -0.48452622
vn 0.8747768 0 -0.4845262
vn 0.97396755 0 -0.22668734
vn 0.97396755 0 -0.22668725
vn 0.9989605 0 -0.045585718
vn 0.9989605 0 -0.045585718
vn 1 0 8.321873E-05
vn 1 0 8.321873E-05
vn -0 0 -1
vn 0.045571946 0 -0.9989611
vn 0.045571942 0 -0.9989611
vn -0 0 -1
vn -0 -0.70710874 -0.7071048
vn 0.022256494 -0.85547173 -0.51737106
vn -0 -0.85596305 -0.5170371
vn 0.029934414 -0.7126059 -0.70092565
vn -0 -0.27020717 -0.96280223
vn 0.11630995 -0.8562581 -0.5032833
vn 0.038298003 -0.27259308 -0.9613669
vn -0 0 -1
vn 0.15441087 -0.72487086 -0.67135644
vn 0.25044358 -0.85596174 -0.45233575
vn 0.039714165 0.0020813611 -0.999209
vn -0 0.9486832 -0.31622803
vn 0.3334498 -0.7253265 -0.60225636
vn 0.36557138 -0.85596234 -0.36563095
vn 0.21272507 -0.2789834 -0.936438
vn 0.011491163 0.9544635 -0.29810625
vn -0 1 0
vn -0 1 0
vn 0.48673517 -0.7253267 -0.4868163
vn 0.45229352 -0.855962 -0.25051892
vn 0.4651114 -0.27924684 -0.8400551
vn 0.22102246 0.007409435 -0.9752406
vn 0.05837844 0.964472 -0.2576543
vn -0 1 0
vn 0.6022003 -0.7253266 -0.3335507
vn 0.5032658 -0.85625774 -0.11638854
vn 0.48436722 0.0073888353 -0.8748336
vn 0.1266651 0.96520376 -0.22877435
vn -0 1 0
vn 0.6789208 -0.27924666 -0.6790345
vn 0.67132956 -0.7248734 -0.15451577
vn 0.5173717 -0.85547125 -0.02226015
vn 0.18489248 0.96520364 -0.18492332
vn -0 1 0
vn 0.70702845 0.0073885024 -0.70714647
vn 0.8399774 -0.2792468 -0.46525177
vn 0.7009164 -0.7126147 -0.029940348
vn 0.51703936 -0.85596156 4.3468117E-05
vn 0.7071117 -0.70710176 5.90461E-05
vn 0.22875358 0.96520364 -0.1267034
vn -0 1 0
vn 0.87475276 0.0073883724 -0.4845132
vn 0.9364029 -0.27898502 -0.21287782
vn 0.9613656 -0.27259704 -0.038302027
vn 0.96280277 -0.27020484 8.090029E-05
vn 0.9752043 0.007409754 -0.22118236
vn 0.2576336 0.9644751 -0.058418497
vn -0 1 0
vn 0.99920875 0.0020866548 -0.0397188
vn 1 0 8.421329E-05
vn 0.29808056 0.9544715 -0.011490557
vn -0 1 0
vn 0.31624523 0.9486774 2.6587139E-05
vn -0 1 0
vn 0.9739677 0 -0.22668721
vn 0.9989605 0 -0.045585714
vn 0.9989605 0 -0.045585718
vn 0.97396755 0 -0.22668725
vn 0.8747768 0 -0.48452613
vn 0.8747768 0 -0.4845262
vn 0.7070478 0 -0.7071657
vn 0.7070479 0 -0.70716566
vn 0.48438036 0 -0.8748575
vn 0.48438036 0 -0.8748575
vn 0.2265402 0 -0.9740018
vn 0.22654021 0 -0.9740018
vn 0.045571946 0 -0.9989611
vn 0.045571942 0 -0.9989611
vn 0.9989605 0 -0.045585714
vn 1 0 8.321873E-05
vn 1 0 8.321873E-05
vn 0.9989605 0 -0.045585718
g wall_y16_B_cIN_0
f 3/3/3 2/2/2 1/1/1
f 4/4/4 3/3/3 1/1/1
f 4/4/4 1/1/1 5/5/5
f 6/6/6 3/3/3 4/4/4
f 7/7/7 4/4/4 5/5/5
f 7/7/7 5/5/5 8/8/8
f 9/9/9 6/6/6 4/4/4
f 9/9/9 4/4/4 7/7/7
f 10/10/10 6/6/6 9/9/9
f 11/11/11 7/7/7 8/8/8
f 11/11/11 8/8/8 12/12/12
f 13/13/13 10/10/10 9/9/9
f 14/14/14 10/10/10 13/13/13
f 15/15/15 14/14/14 13/13/13
f 16/16/16 9/9/9 7/7/7
f 13/13/13 9/9/9 16/16/16
f 16/16/16 7/7/7 11/11/11
f 15/15/15 13/13/13 17/17/17
f 17/17/17 13/13/13 16/16/16
f 18/18/18 15/15/15 17/17/17
f 19/19/19 11/11/11 12/12/12
f 19/19/19 12/12/12 20/20/20
f 21/21/21 16/16/16 11/11/11
f 17/17/17 16/16/16 21/21/21
f 21/21/21 11/11/11 19/19/19
f 18/18/18 17/17/17 22/22/22
f 22/22/22 17/17/17 21/21/21
f 23/23/23 18/18/18 22/22/22
f 24/24/24 19/19/19 20/20/20
f 24/24/24 20/20/20 25/25/25
f 26/26/26 21/21/21 19/19/19
f 22/22/22 21/21/21 26/26/26
f 26/26/26 19/19/19 24/24/24
f 23/23/23 22/22/22 27/27/27
f 27/27/27 22/22/22 26/26/26
f 28/28/28 23/23/23 27/27/27
f 29/29/29 24/24/24 25/25/25
f 29/29/29 25/25/25 30/30/30
f 31/31/31 26/26/26 24/24/24
f 27/27/27 26/26/26 31/31/31
f 31/31/31 24/24/24 29/29/29
f 28/28/28 27/27/27 32/32/32
f 32/32/32 27/27/27 31/31/31
f 33/33/33 28/28/28 32/32/32
f 34/34/34 31/31/31 29/29/29
f 32/32/32 31/31/31 34/34/34
f 33/33/33 32/32/32 35/35/35
f 35/35/35 32/32/32 34/34/34
f 36/36/36 33/33/33 35/35/35
f 37/37/37 29/29/29 30/30/30
f 34/34/34 29/29/29 37/37/37
f 35/35/35 34/34/34 38/38/38
f 38/38/38 34/34/34 37/37/37
f 36/36/36 35/35/35 39/39/39
f 39/39/39 35/35/35 38/38/38
f 40/40/40 36/36/36 39/39/39
f 40/40/40 39/39/39 41/41/41
f 39/39/39 42/42/42 41/41/41
f 39/39/39 38/38/38 42/42/42
f 38/38/38 43/43/43 42/42/42
f 38/38/38 37/37/37 43/43/43
f 37/37/37 44/44/44 43/43/43
f 37/37/37 30/30/30 44/44/44
f 30/30/30 45/45/45 44/44/44
f 48/48/48 47/47/47 46/46/46
f 49/49/49 48/48/48 46/46/46
f 49/49/49 46/46/46 50/50/50
f 51/51/51 49/49/49 50/50/50
f 51/51/51 50/50/50 52/52/52
f 53/53/53 51/51/51 52/52/52
f 53/53/53 52/52/52 54/54/54
f 55/55/55 53/53/53 54/54/54
f 55/55/55 54/54/54 56/56/56
f 57/57/57 55/55/55 56/56/56
f 57/57/57 56/56/56 58/58/58
f 59/59/59 57/57/57 58/58/58
f 59/59/59 58/58/58 60/60/60
f 61/61/61 59/59/59 60/60/60
f 61/61/61 60/60/60 62/62/62
f 60/60/60 63/63/63 62/62/62
f 66/66/66 65/65/65 64/64/64
f 67/67/67 66/66/66 64/64/64
f 70/70/70 69/69/69 68/68/68
f 69/69/69 71/71/71 68/68/68
f 72/72/72 68/68/68 71/71/71
f 69/69/69 73/73/73 71/71/71
f 74/74/74 72/72/72 71/71/71
f 72/72/72 74/74/74 75/75/75
f 73/73/73 76/76/76 71/71/71
f 74/74/74 71/71/71 76/76/76
f 73/73/73 77/77/77 76/76/76
f 74/74/74 78/78/78 75/75/75
f 75/75/75 78/78/78 79/79/79
f 77/77/77 80/80/80 76/76/76
f 77/77/77 81/81/81 80/80/80
f 82/82/82 74/74/74 76/76/76
f 74/74/74 82/82/82 78/78/78
f 82/82/82 76/76/76 80/80/80
f 78/78/78 83/83/83 79/79/79
f 79/79/79 83/83/83 84/84/84
f 83/83/83 85/85/85 84/84/84
f 81/81/81 86/86/86 80/80/80
f 81/81/81 87/87/87 86/86/86
f 88/88/88 82/82/82 80/80/80
f 88/88/88 80/80/80 86/86/86
f 82/82/82 89/89/89 78/78/78
f 78/78/78 89/89/89 83/83/83
f 82/82/82 88/88/88 89/89/89
f 83/83/83 90/90/90 85/85/85
f 89/89/89 90/90/90 83/83/83
f 90/90/90 91/91/91 85/85/85
f 87/87/87 92/92/92 86/86/86
f 87/87/87 93/93/93 92/92/92
f 88/88/88 94/94/94 89/89/89
f 89/89/89 94/94/94 90/90/90
f 90/90/90 95/95/95 91/91/91
f 94/94/94 95/95/95 90/90/90
f 95/95/95 96/96/96 91/91/91
f 97/97/97 88/88/88 86/86/86
f 88/88/88 97/97/97 94/94/94
f 97/97/97 86/86/86 92/92/92
f 93/93/93 98/98/98 92/92/92
f 93/93/93 99/99/99 98/98/98
f 95/95/95 100/100/100 96/96/96
f 100/100/100 101/101/101 96/96/96
f 94/94/94 102/102/102 95/95/95
f 97/97/97 102/102/102 94/94/94
f 102/102/102 100/100/100 95/95/95
f 103/103/103 97/97/97 92/92/92
f 97/97/97 103/103/103 102/102/102
f 103/103/103 92/92/92 98/98/98
f 99/99/99 104/104/104 98/98/98
f 99/99/99 105/105/105 104/104/104
f 105/105/105 106/106/106 104/104/104
f 100/100/100 107/107/107 101/101/101
f 107/107/107 108/108/108 101/101/101
f 102/102/102 109/109/109 100/100/100
f 103/103/103 109/109/109 102/102/102
f 109/109/109 107/107/107 100/100/100
f 110/110/110 103/103/103 98/98/98
f 110/110/110 98/98/98 104/104/104
f 103/103/103 110/110/110 109/109/109
f 111/111/111 104/104/104 106/106/106
f 111/111/111 110/110/110 104/104/104
f 112/112/112 111/111/111 106/106/106
f 110/110/110 113/113/113 109/109/109
f 109/109/109 113/113/113 107/107/107
f 110/110/110 111/111/111 113/113/113
f 107/107/107 114/114/114 108/108/108
f 113/113/113 114/114/114 107/107/107
f 114/114/114 115/115/115 108/108/108
f 111/111/111 112/112/112 116/116/116
f 111/111/111 116/116/116 113/113/113
f 113/113/113 116/116/116 114/114/114
f 112/112/112 117/117/117 116/116/116
f 114/114/114 118/118/118 115/115/115
f 116/116/116 118/118/118 114/114/114
f 116/116/116 117/117/117 118/118/118
f 118/118/118 119/119/119 115/115/115
f 117/117/117 120/120/120 118/118/118
f 118/118/118 120/120/120 119/119/119
f 120/120/120 121/121/121 119/119/119
f 124/124/124 123/123/123 122/122/122
f 125/125/125 124/124/124 122/122/122
f 125/125/125 122/122/122 126/126/126
f 127/127/127 125/125/125 126/126/126
f 127/127/127 126/126/126 128/128/128
f 129/129/129 127/127/127 128/128/128
f 129/129/129 128/128/128 130/130/130
f 131/131/131 129/129/129 130/130/130
f 131/131/131 130/130/130 132/132/132
f 133/133/133 131/131/131 132/132/132
f 133/133/133 132/132/132 134/134/134
f 135/135/135 133/133/133 134/134/134
f 138/138/138 137/137/137 136/136/136
f 139/139/139 138/138/138 136/136/136
