g wall_y6_angled1_COL
v -0.5 6 3.8146973E-06
v 3.0517578E-05 5.999998 6.000004
v -7.568283 6 6.0000076
v -0 6 3.8146973E-06
v 3.0517578E-05 5.999998 6.000004
v -0.5 6 3.8146973E-06
v -0 6 3.8146973E-06
v -0.5 0 3.8146973E-06
v -0 0 0
v -0.5 6 3.8146973E-06
v -7.568283 6 6.0000076
v -7.568283 0 6.000004
v -0.5 0 3.8146973E-06
v -7.568283 6 6.0000076
v -8 0 6
v -8 6 6.000004
v -8 0 6
v -8.000001 -1.907349E-06 6.964937
v -7.568283 -1.907349E-06 6.964939
v -7.568283 0 6.000004
v -7.568283 6 6.0000076
v -7.568283 5.999998 6.964943
v -8.000001 5.999998 6.964941
v -8 6 6.000004
v -8 6 6.000004
v -8.000001 5.999998 6.964941
v -8.000001 -1.907349E-06 6.964937
v -8 0 6
v 3.0517578E-05 5.999998 6.000004
v 3.0517578E-05 5.999998 6.964941
v -7.568283 5.999998 6.964943
v -7.568283 6 6.0000076
v -0 0 0
v 6.1035156E-05 -3.814698E-06 6
v 3.0517578E-05 5.999998 6.000004
v -0 6 3.8146973E-06
v 6.1035156E-05 -3.814698E-06 6
v 6.1035156E-05 -3.814698E-06 6.964958
v 3.0517578E-05 5.999998 6.964941
v 3.0517578E-05 5.999998 6.000004
v 6.1035156E-05 -3.814698E-06 6.964958
v -7.568283 -1.907349E-06 6.964939
v -7.568283 5.999998 6.964943
v 3.0517578E-05 5.999998 6.964941
v -7.568283 -1.907349E-06 6.964939
v -8.000001 -1.907349E-06 6.964937
v -8.000001 5.999998 6.964941
v -7.568283 5.999998 6.964943
v 6.1035156E-05 -3.814698E-06 6
v -0 0 0
v -0.5 0 3.8146973E-06
v -7.568283 0 6.000004
v 6.1035156E-05 -3.814698E-06 6.964958
v -7.568283 -1.907349E-06 6.964939
vt 0 0
vt 0.5 1
vt 1 0
vt 0 0
vt 0.5 1
vt 1 0
vt 0.96854407 0.21853074
vt 1.657863 0.2196152
vt 1.6609179 0.2196152
vt 0.9724194 0.21853074
vt 1.0378764 0.21853074
vt 1.6062646 0.21961518
vt 1.657863 0.2196152
vt 1.0378764 0.21853074
vt 1.6030955 0.21961518
vt 1.0418965 0.21853074
vt 0 0
vt 0 1
vt 1 1
vt 1 0
vt 0 0
vt 0 1
vt 1 1
vt 1 0
vt 0 0
vt 0 1
vt 1 1
vt 1 0
vt 0 0
vt 0 1
vt 1 1
vt 1 0
vt 0 0
vt 0 1
vt 1 1
vt 1 0
vt 0 0
vt 0 1
vt 1 1
vt 1 0
vt 0 0
vt 0 1
vt 1 1
vt 1 0
vt 0 0
vt 0 1
vt 1 1
vt 1 0
vt 0 0
vt 0 0
vt 1.657863 0.2196152
vt 1.6062646 0.21961518
vt 0 0
vt 1 1
vn -0 1 0
vn -0 1 0
vn -0 1 0
vn -0 1 0
vn -0 1 0
vn -0 1 0
vn -0 0 -1
vn -0.62124044 0 -0.78362
vn -0 0 -1
vn -0.62124044 0 -0.78362
vn -0.6246949 0 -0.7808689
vn -0.624695 0 -0.7808689
vn -0.62124044 0 -0.78362
vn -0.6246949 0 -0.7808689
vn -0 0 -1
vn -0 0 -1
vn -0 -1 0
vn -0 -1 0
vn -0 -1 0
vn -0 -1 0
vn -0 1 0
vn -0 1 0
vn -0 1 0
vn -0 1 0
vn -1 0 0
vn -1 0 0
vn -1 0 0
vn -1 0 0
vn -0 1 0
vn -0 1 0
vn -0 1 0
vn -0 1 0
vn 1 0 0
vn 1 0 0
vn 1 0 0
vn 1 0 0
vn 1 0 0
vn 1 0 0
vn 1 0 0
vn 1 0 0
vn -0 0 1
vn -0 0 1
vn -0 0 1
vn -0 0 1
vn -0 0 1
vn -0 0 1
vn -0 0 1
vn -0 0 1
vn -0 -1 0
vn -0 -1 0
vn -0 -1 0
vn -0 -1 0
vn -0 -1 0
vn -0 -1 0
g wall_y6_angled1_COL_0
f 3/3/3 2/2/2 1/1/1
f 6/6/6 5/5/5 4/4/4
f 9/9/9 8/8/8 7/7/7
f 8/8/8 10/10/10 7/7/7
f 12/12/12 11/11/11 10/10/10
f 13/13/13 12/12/12 10/10/10
f 12/12/12 15/15/15 14/14/14
f 15/15/15 16/16/16 14/14/14
f 19/19/19 18/18/18 17/17/17
f 20/20/20 19/19/19 17/17/17
f 23/23/23 22/22/22 21/21/21
f 24/24/24 23/23/23 21/21/21
f 27/27/27 26/26/26 25/25/25
f 28/28/28 27/27/27 25/25/25
f 31/31/31 30/30/30 29/29/29
f 32/32/32 31/31/31 29/29/29
f 35/35/35 34/34/34 33/33/33
f 36/36/36 35/35/35 33/33/33
f 39/39/39 38/38/38 37/37/37
f 40/40/40 39/39/39 37/37/37
f 43/43/43 42/42/42 41/41/41
f 44/44/44 43/43/43 41/41/41
f 47/47/47 46/46/46 45/45/45
f 48/48/48 47/47/47 45/45/45
f 51/51/51 50/50/50 49/49/49
f 49/49/49 52/52/52 51/51/51
f 49/49/49 53/53/53 52/52/52
f 53/53/53 54/54/54 52/52/52
