g waxLump_ld
v 0.20682913 0.45293438 -0.055064388
v 0.21770209 0.41010758 -0.11829757
v 0.30853328 0.2884386 -0.041346356
v 0.15763606 0.5050518 -0.062793724
v 0.23798473 0.26328504 -0.21198462
v 0.29136428 0.18859977 -0.152211
v 0.17543676 0.43163735 -0.17558898
v 0.104954615 0.5210397 -0.123466864
v 0.060027655 0.5535785 0.00693798
v 0.24774225 0.15159072 -0.24525145
v 0.27168673 0.08842177 -0.21868971
v 0.30513752 0.114614435 -0.10652446
v 0.27132323 0.041292068 -0.18425545
v 0.27611718 0.048654802 -0.08546876
v 0.19266099 -0.04943782 -0.17524405
v 0.2174031 -0.010467434 -0.0664158
v 0.12332989 -0.046157256 -0.061565347
v 0.14706115 0.39888838 -0.23215483
v 0.18286742 0.2154064 -0.2922798
v 0.19301948 0.08682518 -0.31223086
v 0.20297784 0.018981742 -0.27636507
v 0.16534902 -0.040054176 -0.2541412
v 0.09124846 -0.08165273 -0.1838601
v 0.07805707 0.46139944 -0.2320999
v 0.10264377 0.36126935 -0.2844406
v 0.13091125 0.05188694 -0.33667773
v 0.07401294 0.20514248 -0.360381
v 0.001012802 -0.06717349 -0.13063973
v -0.044977423 -0.056467164 -0.0098623745
v 0.020823311 0.40208128 -0.29188725
v 0.027407454 0.5030914 -0.19800796
v 0.05406854 -0.067868076 -0.24595334
v 0.0416517 -0.016182803 -0.32138956
v 0.024386214 0.54795283 -0.10967273
v 0.008068227 0.13555612 -0.37913248
v 0.01935439 0.21655883 -0.36727065
v -0.058493037 0.21796873 -0.35963172
v -0.093588635 0.42306975 -0.25563237
v -0.06421165 0.51981634 -0.1554634
v -0.04553289 0.08425598 -0.3738218
v -0.08899383 0.124332756 -0.3692848
v -0.14492568 0.03439636 -0.32769468
v -0.033935737 0.55573547 -0.048375316
v -0.15401 0.23878783 -0.3178459
v -0.111435406 -0.012248611 -0.3039316
v -0.15208238 0.50673807 -0.0927967
v -0.16787224 0.4437698 -0.18631896
v -0.21358751 0.3441261 -0.2309738
v -0.09456002 0.546526 0.03200483
v -0.24256952 0.42251328 -0.11388702
v -0.2087242 0.06190824 -0.30499876
v -0.20435199 -0.007789564 -0.26264188
v -0.19533232 0.15742378 -0.31883925
v -0.27151334 0.17630623 -0.26120108
v -0.3087656 0.22274436 -0.1813465
v -0.27461013 0.052952096 -0.23907164
v -0.117029496 -0.04851794 -0.24449843
v -0.16215305 -0.05507999 -0.19354333
v -0.32821223 0.10477981 -0.17677115
v -0.27918002 -0.011443626 -0.15523165
v -0.1476638 -0.059186466 -0.056895014
v -0.23553385 -0.044050667 -0.084878825
v -0.32534134 0.034715936 -0.1268137
v -0.13037018 -0.09551219 0.10614774
v -0.34347165 0.1941593 -0.09401893
v -0.36515978 0.08485363 0.028156469
v -0.33800167 -0.00030775665 0.0491611
v -0.2859616 -0.052967116 0.07677047
v -0.21667603 -0.08653355 0.12394312
v -0.2769709 -0.03409853 0.17731875
v -0.3449202 0.057613846 0.15701407
v -0.31883666 0.31088015 -0.051987074
v -0.36474234 0.1474064 0.11387872
v -0.2655988 0.43103123 0.01140747
v -0.33855447 0.27980503 0.040978
v -0.19534734 0.49269474 0.026864432
v -0.17628135 -0.030988596 0.2649313
v -0.2693424 0.03614702 0.24379233
v -0.11350067 -0.08350603 0.1934801
v 0.04120304 -0.058356572 0.13020173
v 0.15894453 -0.04031589 -0.016511105
v 0.12332989 -0.046157256 -0.061565347
v 0.2174031 -0.010467434 -0.0664158
v -0.2533141 0.41648597 0.10330467
v -0.14462242 0.4959274 0.114660636
v -0.29256174 0.3488731 0.10599288
v -0.2662136 0.26679152 0.24271658
v -0.32336044 0.25374183 0.1630989
v -0.33708742 0.15576498 0.19496498
v -0.29978484 0.12906402 0.24369735
v -0.21979293 0.0828598 0.29859465
v -0.19613113 0.1641323 0.31513938
v -0.18092078 0.34911802 0.2507366
v -0.15222472 0.07423324 0.32342604
v -0.13567199 0.2760063 0.32078016
v -0.09268741 0.40603405 0.24866408
v -0.07460289 -0.014991759 0.28975266
v -0.07136421 0.20726916 0.35546347
v -0.065102 0.5189392 0.12361106
v 0.035173558 -0.038234137 0.21237773
v -0.039479826 0.09198303 0.34478244
v 0.034559008 0.52301383 0.11383666
v 0.06684723 0.030704783 0.2992381
v 0.13632816 0.5031658 0.06839218
v 0.15763606 0.5050518 -0.062793724
v 0.20106563 0.46392214 0.02080593
v 0.20682913 0.45293438 -0.055064388
v 0.15418163 -0.04891598 0.20090917
v 0.17479162 -0.008543014 0.25927046
v 0.20333692 -0.062036023 0.107834354
v 0.2555381 -0.027185725 0.19023111
v 0.25101897 -0.039667938 0.047560498
v 0.32026246 0.021562384 0.020919798
v 0.27611718 0.048654802 -0.08546876
v 0.30513752 0.114614435 -0.10652446
v 0.28136218 -0.03424996 0.10449853
v 0.34099743 0.025166057 0.12618956
v 0.28529862 0.027104186 0.23042162
v 0.17816862 0.04529571 0.2976236
v 0.19703807 0.09663791 0.3105294
v 0.30902708 0.117125124 0.2559242
v 0.3557579 0.11607756 0.19897555
v 0.3504697 0.20211723 0.18904266
v 0.37867346 0.11946 0.118867196
v 0.3573129 0.053118072 0.08880801
v 0.36798817 0.10726945 0.026431559
v 0.36642033 0.15787667 0.017305754
v 0.29136428 0.18859977 -0.152211
v 0.37299848 0.18865964 0.07417316
v 0.3333286 0.25730607 0.022159193
v 0.30853328 0.2884386 -0.041346356
v 0.33376634 0.2701246 0.10759963
v 0.20163801 0.43725127 0.09377746
v 0.31458518 0.27508277 0.16527785
v 0.14984421 0.43067318 0.18707198
v 0.076567836 0.4149925 0.2409851
v 0.21570356 0.3128025 0.2557491
v 0.26449355 0.18917713 0.28348845
v 0.17628478 0.27867964 0.29753265
v 0.13453215 0.21986273 0.32874525
v 0.005004358 0.48555675 0.1711803
v -0.01013478 0.48214012 0.17628191
v -0.016878318 0.40619656 0.2596687
v 0.0105577465 0.3148773 0.3270069
v -0.0064773555 0.23823507 0.35561797
v 0.005940628 0.16569214 0.3571804
vt 0.33756617 0.015625
vt 0.35761854 0.038442373
vt 0.4262052 0.041107863
vt 0.2921585 0.016674409
vt 0.4072772 0.09554935
vt 0.44543982 0.11009616
vt 0.34234476 0.049844805
vt 0.28554022 0.03751126
vt 0.19104029 0.051587462
vt 0.42680392 0.13899837
vt 0.44097376 0.16293852
vt 0.47136962 0.1559177
vt 0.44814652 0.18568854
vt 0.4728355 0.1989664
vt 0.42892095 0.23370633
vt 0.4568981 0.24260378
vt 0.41620353 0.28869712
vt 0.3500703 0.07053905
vt 0.4004072 0.12402885
vt 0.41365653 0.1678314
vt 0.42104644 0.19250675
vt 0.41508746 0.21996157
vt 0.3963291 0.25795797
vt 0.31933326 0.06725741
vt 0.35270938 0.09170543
vt 0.40236324 0.1844727
vt 0.37810427 0.14073248
vt 0.35890538 0.28660604
vt 0.29356146 0.3286847
vt 0.33059058 0.09295362
vt 0.29399872 0.06450672
vt 0.38783288 0.24467756
vt 0.38676158 0.2153751
vt 0.2576819 0.05347837
vt 0.3723841 0.16728467
vt 0.36611503 0.14371672
vt 0.35205114 0.15060724
vt 0.30574837 0.102018714
vt 0.27045387 0.07614165
vt 0.3666966 0.18653423
vt 0.35639334 0.17873318
vt 0.34974468 0.21003604
vt 0.23128217 0.06611799
vt 0.33123615 0.15483944
vt 0.35597226 0.22397754
vt 0.25483197 0.0945719
vt 0.28348416 0.10824685
vt 0.30015573 0.13605161
vt 0.21554984 0.08677983
vt 0.2696394 0.12431201
vt 0.33710527 0.20745417
vt 0.33712393 0.23122527
vt 0.33385116 0.18009685
vt 0.3171988 0.18243477
vt 0.29860243 0.17584422
vt 0.32255372 0.2175238
vt 0.3502517 0.24435194
vt 0.33588147 0.25899658
vt 0.30607143 0.20803179
vt 0.31445262 0.24481301
vt 0.3056671 0.29305202
vt 0.30680737 0.26629484
vt 0.30399188 0.2297014
vt 0.26209748 0.303058
vt 0.28537992 0.18813789
vt 0.27307346 0.22119011
vt 0.27375194 0.244148
vt 0.2712304 0.26342806
vt 0.25996554 0.28231585
vt 0.25122172 0.2598082
vt 0.2517381 0.23232387
vt 0.26794773 0.1599238
vt 0.25399217 0.20908087
vt 0.24415718 0.13155761
vt 0.25473097 0.17305474
vt 0.23098685 0.111842014
vt 0.22623208 0.26635426
vt 0.23421812 0.24341714
vt 0.23668747 0.29191923
vt 0.2151528 0.32017177
vt 0.16537468 0.35598943
vt 0.1842337 0.3678319
vt 0.11847962 0.35476002
vt 0.2271576 0.14025384
vt 0.2067997 0.11411243
vt 0.23515925 0.15820397
vt 0.21653892 0.18654346
vt 0.23543741 0.18580382
vt 0.23850046 0.21062793
vt 0.22983594 0.21968466
vt 0.21728472 0.23529115
vt 0.20598306 0.21642162
vt 0.1990205 0.16519512
vt 0.20609882 0.2416295
vt 0.18922551 0.189156
vt 0.18203071 0.14827673
vt 0.20700338 0.2715592
vt 0.18088144 0.21036214
vt 0.19047779 0.10314455
vt 0.19907308 0.2981007
vt 0.18581092 0.24328889
vt 0.16905993 0.08961434
vt 0.17567731 0.26740712
vt 0.13710214 0.089176
vt 0.10534737 0.06700792
vt 0.098198555 0.103829205
vt 0.075436585 0.098318964
vt 0.16906618 0.3013612
vt 0.15850885 0.28257826
vt 0.15386842 0.32052416
vt 0.13932496 0.29440036
vt 0.1313418 0.32654092
vt 0.09509212 0.30853444
vt 0.07229739 0.32392812
vt 0.041811872 0.29249114
vt 0.12739511 0.30935076
vt 0.10793842 0.28685343
vt 0.12951669 0.27485085
vt 0.15215586 0.2645445
vt 0.14388195 0.24990651
vt 0.11755154 0.24841897
vt 0.10370809 0.2530058
vt 0.09348761 0.22729729
vt 0.08802481 0.25890982
vt 0.09561816 0.2833596
vt 0.07410819 0.27277452
vt 0.06377286 0.25512668
vt 0.015625 0.26382157
vt 0.071371995 0.23872976
vt 0.05345183 0.20943555
vt 0.040480368 0.19537058
vt 0.07448012 0.2051841
vt 0.10884929 0.12289105
vt 0.089219816 0.20175238
vt 0.1287256 0.13377431
vt 0.14580826 0.14334114
vt 0.11945304 0.18462522
vt 0.12112297 0.2259244
vt 0.13134411 0.1948708
vt 0.1438237 0.21175064
vt 0.16983645 0.113307476
vt 0.1727491 0.11598559
vt 0.16598192 0.14765665
vt 0.16140603 0.17962351
vt 0.16814812 0.20272814
vt 0.17118554 0.22352849
vn 0.81043154 0.5739179 -0.11755411
vn 0.81804836 0.46084148 -0.3441251
vn 0.8861052 0.37251508 -0.27577192
vn 0.5699099 0.8136573 -0.114736564
vn 0.7849897 0.33153236 -0.52333295
vn 0.90117836 0.17952408 -0.3945233
vn 0.68119794 0.55428535 -0.47826484
vn 0.43112236 0.8387007 -0.3327382
vn 0.22401181 0.9657386 0.13102609
vn 0.7808263 0.15937613 -0.60407746
vn 0.8760796 -0.102138124 -0.47122425
vn 0.9151902 -0.20724677 -0.34565234
vn 0.83626264 -0.51292366 -0.19384056
vn 0.76485264 -0.60614336 -0.21815303
vn 0.5329277 -0.8457007 -0.02790028
vn 0.521873 -0.8478075 -0.09418588
vn 0.16947626 -0.9745163 0.14695483
vn 0.60902977 0.43116128 -0.66571957
vn 0.5854603 0.2635085 -0.76668084
vn 0.5786729 -0.017933918 -0.8153625
vn 0.6438702 -0.4609311 -0.6107156
vn 0.42695332 -0.7436368 -0.5145049
vn 0.10486718 -0.99400914 0.03080193
vn 0.3454626 0.66858536 -0.65852046
vn 0.4188815 0.38695502 -0.82146466
vn 0.30568802 -0.2974176 -0.9044875
vn 0.37131765 0.20488372 -0.905619
vn -0.018204913 -0.998111 0.05867658
vn 0.10936129 -0.9922273 -0.059372447
vn -0.020364745 0.4992135 -0.86623967
vn 0.01642536 0.7891512 -0.6139792
vn -0.005230684 -0.9399797 -0.3411904
vn 0.066779606 -0.6270142 -0.7761402
vn 0.092426784 0.95903474 -0.26778644
vn 0.13465394 -0.058389075 -0.98917085
vn 0.031143844 0.3130983 -0.94921
vn -0.21566172 0.32126722 -0.92210484
vn -0.28957516 0.54696953 -0.7854748
vn -0.25721726 0.84246755 -0.47337908
vn -0.055192135 -0.3768644 -0.9246226
vn -0.3080659 0.026634427 -0.9509921
vn -0.2879682 -0.42775708 -0.8567953
vn -0.15256807 0.9834719 -0.09749926
vn -0.41487297 0.33982494 -0.84403753
vn -0.16126865 -0.7196663 -0.6753318
vn -0.4900294 0.83704007 -0.24338244
vn -0.5163722 0.6557144 -0.5508161
vn -0.6244489 0.4265249 -0.6543241
vn -0.26144537 0.95888436 0.11039526
vn -0.75913423 0.5603096 -0.33131295
vn -0.56059796 -0.2067737 -0.80185694
vn -0.48855904 -0.6988317 -0.52244073
vn -0.49376768 0.09262376 -0.8646469
vn -0.71081793 0.18057375 -0.6798021
vn -0.84771967 0.30962488 -0.43070152
vn -0.74015206 -0.31524292 -0.593967
vn -0.16116992 -0.9021823 -0.4001144
vn -0.20098335 -0.9693347 -0.14140688
vn -0.9285897 -0.07152108 -0.36415088
vn -0.5989035 -0.7491835 -0.28291115
vn -0.048705 -0.99402267 -0.09770772
vn -0.28629926 -0.946532 -0.14869376
vn -0.88319886 -0.40416998 -0.23792082
vn 0.06311226 -0.9939932 -0.08941045
vn -0.9746026 0.13388574 -0.1795117
vn -0.9915855 -0.10788376 -0.071550235
vn -0.83539075 -0.5490239 -0.026361331
vn -0.54878443 -0.8345744 -0.048178
vn -0.27411312 -0.95898575 0.07216791
vn -0.6097263 -0.6706884 0.4223872
vn -0.8820169 -0.33067662 0.33570686
vn -0.900125 0.38188377 -0.20961812
vn -0.99070215 0.09938479 0.09290796
vn -0.7945029 0.6059345 -0.040105507
vn -0.9559235 0.29301786 0.01873078
vn -0.5751396 0.815302 0.06706033
vn -0.2787089 -0.68421507 0.6739221
vn -0.6333132 -0.38702983 0.6701659
vn 0.042209312 -0.9347476 0.35279644
vn 0.10010506 -0.9949667 0.0044998666
vn 0.09765732 -0.9866665 -0.1302004
vn 0.16947626 -0.9745163 0.14695483
vn 0.521873 -0.8478075 -0.09418588
vn -0.6463499 0.62435347 0.43865073
vn -0.44857943 0.7516239 0.48356795
vn -0.8403021 0.46268046 0.28252298
vn -0.6373312 0.3760711 0.6725917
vn -0.86491925 0.36307552 0.3465412
vn -0.86723876 0.10506775 0.48668024
vn -0.6962502 -0.008568482 0.717748
vn -0.4919172 -0.21894649 0.8426624
vn -0.46164906 0.09162678 0.8823178
vn -0.49499878 0.5752459 0.6512053
vn -0.22922659 -0.27187592 0.9346329
vn -0.33741966 0.3714044 0.86498946
vn -0.25802284 0.6493932 0.715341
vn 0.05968995 -0.6725432 0.7376468
vn -0.20825142 0.060014263 0.9762324
vn -0.15707672 0.85857874 0.48802617
vn 0.124854684 -0.885321 0.447904
vn 0.0065985946 -0.3169394 0.9484228
vn 0.17067574 0.8935836 0.4151844
vn 0.10596366 -0.59450704 0.79707783
vn 0.46433493 0.8332204 0.30022806
vn 0.5699099 0.8136573 -0.114736564
vn 0.7514982 0.6546716 0.081581324
vn 0.81043154 0.5739179 -0.11755411
vn 0.05949071 -0.9403038 0.3350967
vn 0.15788145 -0.72428894 0.6711774
vn 0.08585466 -0.9961243 -0.019111615
vn 0.4383768 -0.8087621 0.39208388
vn 0.39057416 -0.8804953 -0.26866335
vn 0.71786696 -0.6103728 -0.3348314
vn 0.76485264 -0.60614336 -0.21815303
vn 0.9151902 -0.20724677 -0.34565234
vn 0.5658632 -0.82391804 0.030949704
vn 0.7896443 -0.57830906 0.2049888
vn 0.58847266 -0.5085571 0.62854564
vn 0.25804383 -0.4380355 0.8611262
vn 0.29694477 -0.16458544 0.94060373
vn 0.6263251 -0.124116994 0.76961803
vn 0.87044835 -0.19646637 0.45135432
vn 0.821619 0.3294808 0.46517184
vn 0.98722434 -0.08461767 0.13501064
vn 0.8936291 -0.43912697 -0.09270688
vn 0.9077647 -0.2738646 -0.3177445
vn 0.9319285 0.1597123 -0.32557836
vn 0.90117836 0.17952408 -0.3945233
vn 0.96272445 0.26979053 -0.019355044
vn 0.8889269 0.42127237 -0.17982917
vn 0.8861052 0.37251508 -0.27577192
vn 0.8468202 0.5279158 0.06481296
vn 0.68367445 0.6552056 0.32139534
vn 0.7171283 0.5820741 0.38329732
vn 0.4855103 0.7012471 0.5220462
vn 0.24006447 0.648703 0.72218657
vn 0.56251305 0.5552718 0.6125784
vn 0.54761964 0.20610337 0.81094646
vn 0.33216316 0.4177823 0.845651
vn 0.26244426 0.11772054 0.9577394
vn 0.11397051 0.7933968 0.59794
vn -0.051370706 0.7479133 0.66180575
vn -0.017930012 0.67035997 0.7418194
vn 0.06755196 0.47799084 0.87576336
vn 0.053481314 0.2414735 0.9689325
vn 0.12595864 -0.11677095 0.9851391
g waxLump_ld_0
f 3/3/3 2/2/2 1/1/1
f 4/4/4 1/1/1 2/2/2
f 3/3/3 5/5/5 2/2/2
f 6/6/6 5/5/5 3/3/3
f 2/2/2 7/7/7 4/4/4
f 2/2/2 5/5/5 7/7/7
f 7/7/7 8/8/8 4/4/4
f 8/8/8 9/9/9 4/4/4
f 6/6/6 10/10/10 5/5/5
f 10/10/10 6/6/6 11/11/11
f 6/6/6 12/12/12 11/11/11
f 11/11/11 12/12/12 13/13/13
f 14/14/14 13/13/13 12/12/12
f 14/14/14 15/15/15 13/13/13
f 15/15/15 14/14/14 16/16/16
f 16/16/16 17/17/17 15/15/15
f 7/7/7 5/5/5 18/18/18
f 10/10/10 19/19/19 5/5/5
f 18/18/18 5/5/5 19/19/19
f 20/20/20 10/10/10 11/11/11
f 20/20/20 19/19/19 10/10/10
f 11/11/11 13/13/13 21/21/21
f 11/11/11 21/21/21 20/20/20
f 15/15/15 22/22/22 13/13/13
f 13/13/13 22/22/22 21/21/21
f 15/15/15 17/17/17 23/23/23
f 23/23/23 22/22/22 15/15/15
f 24/24/24 7/7/7 18/18/18
f 24/24/24 8/8/8 7/7/7
f 19/19/19 25/25/25 18/18/18
f 25/25/25 24/24/24 18/18/18
f 20/20/20 21/21/21 26/26/26
f 26/26/26 21/21/21 22/22/22
f 19/19/19 20/20/20 27/27/27
f 27/27/27 25/25/25 19/19/19
f 20/20/20 26/26/26 27/27/27
f 28/28/28 23/23/23 17/17/17
f 28/28/28 17/17/17 29/29/29
f 30/30/30 24/24/24 25/25/25
f 30/30/30 25/25/25 27/27/27
f 31/31/31 8/8/8 24/24/24
f 31/31/31 24/24/24 30/30/30
f 23/23/23 32/32/32 22/22/22
f 32/32/32 23/23/23 28/28/28
f 26/26/26 22/22/22 33/33/33
f 33/33/33 22/22/22 32/32/32
f 31/31/31 34/34/34 8/8/8
f 34/34/34 9/9/9 8/8/8
f 27/27/27 26/26/26 35/35/35
f 30/30/30 27/27/27 36/36/36
f 36/36/36 27/27/27 35/35/35
f 30/30/30 36/36/36 37/37/37
f 37/37/37 36/36/36 35/35/35
f 30/30/30 38/38/38 31/31/31
f 38/38/38 30/30/30 37/37/37
f 39/39/39 34/34/34 31/31/31
f 39/39/39 31/31/31 38/38/38
f 35/35/35 26/26/26 40/40/40
f 40/40/40 26/26/26 33/33/33
f 35/35/35 41/41/41 37/37/37
f 35/35/35 40/40/40 41/41/41
f 40/40/40 33/33/33 42/42/42
f 42/42/42 41/41/41 40/40/40
f 9/9/9 34/34/34 43/43/43
f 43/43/43 34/34/34 39/39/39
f 37/37/37 44/44/44 38/38/38
f 37/37/37 41/41/41 44/44/44
f 42/42/42 33/33/33 45/45/45
f 45/45/45 33/33/33 32/32/32
f 43/43/43 39/39/39 46/46/46
f 47/47/47 39/39/39 38/38/38
f 46/46/46 39/39/39 47/47/47
f 38/38/38 48/48/48 47/47/47
f 48/48/48 38/38/38 44/44/44
f 43/43/43 49/49/49 9/9/9
f 49/49/49 43/43/43 46/46/46
f 47/47/47 48/48/48 50/50/50
f 50/50/50 46/46/46 47/47/47
f 42/42/42 51/51/51 41/41/41
f 52/52/52 42/42/42 45/45/45
f 51/51/51 42/42/42 52/52/52
f 53/53/53 44/44/44 41/41/41
f 41/41/41 51/51/51 53/53/53
f 54/54/54 44/44/44 53/53/53
f 54/54/54 48/48/48 44/44/44
f 54/54/54 53/53/53 51/51/51
f 48/48/48 55/55/55 50/50/50
f 48/48/48 54/54/54 55/55/55
f 56/56/56 54/54/54 51/51/51
f 56/56/56 51/51/51 52/52/52
f 52/52/52 45/45/45 57/57/57
f 45/45/45 32/32/32 57/57/57
f 58/58/58 57/57/57 32/32/32
f 58/58/58 52/52/52 57/57/57
f 58/58/58 32/32/32 28/28/28
f 55/55/55 54/54/54 59/59/59
f 59/59/59 54/54/54 56/56/56
f 56/56/56 52/52/52 60/60/60
f 52/52/52 58/58/58 60/60/60
f 61/61/61 58/58/58 28/28/28
f 28/28/28 29/29/29 61/61/61
f 62/62/62 58/58/58 61/61/61
f 62/62/62 60/60/60 58/58/58
f 56/56/56 63/63/63 59/59/59
f 60/60/60 63/63/63 56/56/56
f 29/29/29 64/64/64 61/61/61
f 64/64/64 62/62/62 61/61/61
f 55/55/55 59/59/59 65/65/65
f 59/59/59 63/63/63 66/66/66
f 66/66/66 65/65/65 59/59/59
f 60/60/60 67/67/67 63/63/63
f 67/67/67 66/66/66 63/63/63
f 68/68/68 60/60/60 62/62/62
f 68/68/68 67/67/67 60/60/60
f 68/68/68 62/62/62 69/69/69
f 62/62/62 64/64/64 69/69/69
f 70/70/70 67/67/67 68/68/68
f 69/69/69 70/70/70 68/68/68
f 67/67/67 71/71/71 66/66/66
f 67/67/67 70/70/70 71/71/71
f 55/55/55 65/65/65 72/72/72
f 72/72/72 50/50/50 55/55/55
f 73/73/73 65/65/65 66/66/66
f 71/71/71 73/73/73 66/66/66
f 74/74/74 50/50/50 72/72/72
f 50/50/50 74/74/74 46/46/46
f 75/75/75 72/72/72 65/65/65
f 73/73/73 75/75/75 65/65/65
f 75/75/75 74/74/74 72/72/72
f 76/76/76 46/46/46 74/74/74
f 76/76/76 49/49/49 46/46/46
f 69/69/69 77/77/77 70/70/70
f 78/78/78 71/71/71 70/70/70
f 77/77/77 78/78/78 70/70/70
f 79/79/79 77/77/77 69/69/69
f 79/79/79 69/69/69 64/64/64
f 80/80/80 79/79/79 64/64/64
f 80/80/80 64/64/64 29/29/29
f 80/80/80 29/29/29 81/81/81
f 81/81/81 29/29/29 82/82/82
f 82/82/82 83/83/83 81/81/81
f 84/84/84 76/76/76 74/74/74
f 76/76/76 85/85/85 49/49/49
f 85/85/85 76/76/76 84/84/84
f 84/84/84 74/74/74 86/86/86
f 87/87/87 84/84/84 86/86/86
f 86/86/86 74/74/74 75/75/75
f 75/75/75 88/88/88 86/86/86
f 87/87/87 86/86/86 88/88/88
f 75/75/75 73/73/73 88/88/88
f 88/88/88 73/73/73 89/89/89
f 88/88/88 89/89/89 87/87/87
f 73/73/73 71/71/71 89/89/89
f 89/89/89 71/71/71 90/90/90
f 90/90/90 87/87/87 89/89/89
f 90/90/90 71/71/71 78/78/78
f 90/90/90 78/78/78 91/91/91
f 77/77/77 91/91/91 78/78/78
f 92/92/92 90/90/90 91/91/91
f 92/92/92 87/87/87 90/90/90
f 93/93/93 84/84/84 87/87/87
f 84/84/84 93/93/93 85/85/85
f 94/94/94 91/91/91 77/77/77
f 92/92/92 91/91/91 94/94/94
f 93/93/93 87/87/87 95/95/95
f 95/95/95 87/87/87 92/92/92
f 96/96/96 85/85/85 93/93/93
f 95/95/95 96/96/96 93/93/93
f 77/77/77 97/97/97 94/94/94
f 97/97/97 77/77/77 79/79/79
f 94/94/94 98/98/98 92/92/92
f 92/92/92 98/98/98 95/95/95
f 96/96/96 99/99/99 85/85/85
f 99/99/99 49/49/49 85/85/85
f 97/97/97 79/79/79 100/100/100
f 100/100/100 79/79/79 80/80/80
f 94/94/94 97/97/97 101/101/101
f 94/94/94 101/101/101 98/98/98
f 102/102/102 49/49/49 99/99/99
f 102/102/102 9/9/9 49/49/49
f 97/97/97 100/100/100 103/103/103
f 97/97/97 103/103/103 101/101/101
f 102/102/102 104/104/104 9/9/9
f 104/104/104 105/105/105 9/9/9
f 106/106/106 105/105/105 104/104/104
f 106/106/106 107/107/107 105/105/105
f 100/100/100 80/80/80 108/108/108
f 109/109/109 103/103/103 100/100/100
f 109/109/109 100/100/100 108/108/108
f 110/110/110 108/108/108 80/80/80
f 110/110/110 80/80/80 81/81/81
f 111/111/111 109/109/109 108/108/108
f 111/111/111 108/108/108 110/110/110
f 110/110/110 81/81/81 112/112/112
f 112/112/112 81/81/81 83/83/83
f 83/83/83 113/113/113 112/112/112
f 113/113/113 83/83/83 114/114/114
f 115/115/115 113/113/113 114/114/114
f 110/110/110 112/112/112 116/116/116
f 110/110/110 116/116/116 111/111/111
f 112/112/112 113/113/113 116/116/116
f 111/111/111 116/116/116 117/117/117
f 117/117/117 116/116/116 113/113/113
f 109/109/109 111/111/111 118/118/118
f 118/118/118 111/111/111 117/117/117
f 109/109/109 119/119/119 103/103/103
f 109/109/109 118/118/118 119/119/119
f 120/120/120 103/103/103 119/119/119
f 103/103/103 120/120/120 101/101/101
f 121/121/121 119/119/119 118/118/118
f 120/120/120 119/119/119 121/121/121
f 122/122/122 118/118/118 117/117/117
f 121/121/121 118/118/118 122/122/122
f 123/123/123 121/121/121 122/122/122
f 124/124/124 122/122/122 117/117/117
f 123/123/123 122/122/122 124/124/124
f 125/125/125 117/117/117 113/113/113
f 125/125/125 124/124/124 117/117/117
f 113/113/113 126/126/126 125/125/125
f 124/124/124 125/125/125 126/126/126
f 115/115/115 126/126/126 113/113/113
f 115/115/115 127/127/127 126/126/126
f 126/126/126 127/127/127 124/124/124
f 115/115/115 128/128/128 127/127/127
f 124/124/124 127/127/127 129/129/129
f 123/123/123 124/124/124 129/129/129
f 128/128/128 130/130/130 127/127/127
f 129/129/129 127/127/127 130/130/130
f 128/128/128 131/131/131 130/130/130
f 107/107/107 130/130/130 131/131/131
f 129/129/129 130/130/130 132/132/132
f 132/132/132 130/130/130 107/107/107
f 132/132/132 123/123/123 129/129/129
f 106/106/106 132/132/132 107/107/107
f 132/132/132 106/106/106 133/133/133
f 104/104/104 133/133/133 106/106/106
f 133/133/133 134/134/134 132/132/132
f 132/132/132 134/134/134 123/123/123
f 135/135/135 133/133/133 104/104/104
f 134/134/134 133/133/133 135/135/135
f 135/135/135 104/104/104 102/102/102
f 102/102/102 136/136/136 135/135/135
f 135/135/135 137/137/137 134/134/134
f 137/137/137 123/123/123 134/134/134
f 137/137/137 135/135/135 136/136/136
f 123/123/123 137/137/137 138/138/138
f 123/123/123 138/138/138 121/121/121
f 121/121/121 138/138/138 120/120/120
f 137/137/137 139/139/139 138/138/138
f 137/137/137 136/136/136 139/139/139
f 138/138/138 140/140/140 120/120/120
f 138/138/138 139/139/139 140/140/140
f 141/141/141 136/136/136 102/102/102
f 141/141/141 102/102/102 99/99/99
f 141/141/141 99/99/99 142/142/142
f 141/141/141 142/142/142 136/136/136
f 142/142/142 99/99/99 143/143/143
f 142/142/142 143/143/143 136/136/136
f 96/96/96 143/143/143 99/99/99
f 144/144/144 139/139/139 136/136/136
f 144/144/144 136/136/136 143/143/143
f 143/143/143 96/96/96 144/144/144
f 140/140/140 139/139/139 144/144/144
f 144/144/144 96/96/96 95/95/95
f 144/144/144 95/95/95 145/145/145
f 144/144/144 145/145/145 140/140/140
f 145/145/145 95/95/95 98/98/98
f 120/120/120 140/140/140 146/146/146
f 140/140/140 145/145/145 146/146/146
f 146/146/146 145/145/145 98/98/98
f 101/101/101 120/120/120 146/146/146
f 98/98/98 101/101/101 146/146/146
