g wing_l
v 0.030396365 0.17159447 -0.18989235
v -7.455613E-05 0.10843485 -0.016495053
v 0.013826315 0.18433505 -0.18795262
v 0.08544566 0.22075352 -0.3833864
v 0.0655592 0.23926668 -0.3935056
v 0.09628666 0.21971273 -0.4453737
v 0.074571475 0.23853476 -0.45901188
v 0.098766536 0.1871233 -0.49446565
v 0.07526565 0.20410596 -0.51089585
v 0.050945546 -0.0054760748 -0.37896177
v 0.018813472 -0.0020719958 -0.19019842
v 0.088345185 0.101294294 -0.5287097
v 0.07526565 0.20410596 -0.51089585
v 0.06312187 0.11285434 -0.547098
v 0.07209298 -0.0046696756 -0.53883713
v 0.045632172 1.1743162E-09 -0.55781776
v 0.056821417 -0.1105408 -0.53270334
v 0.029533556 -0.11285434 -0.5513531
v 0.0417533 -0.19599716 -0.50168836
v 0.014518488 -0.20410596 -0.51859164
v 0.029656375 -0.22803289 -0.45381477
v 0.014518488 -0.20410596 -0.51859164
v 0.0035773783 -0.23853476 -0.46800575
v 0.018610908 -0.22836593 -0.39185336
v -0.0056527313 -0.23926668 -0.40252706
v 0.0034886452 -0.17438819 -0.19164972
v -0.014173878 -0.18433505 -0.18977739
v 0.008883667 -0.10191942 -0.027992183
v -0.0020194766 -0.10843485 -0.016509028
v 0.0097471215 -0.000195761 -0.042669173
v 0.0095463535 -0.050928358 0.025958663
v -0.0020194766 -0.10843485 -0.016509028
v 0.011578121 0.10161057 -0.027963093
v -7.455613E-05 0.10843485 -0.016495053
v -1.9542218E-05 0.05424689 0.040249553
v 0.009711029 0.05089653 0.025958888
v 0.009163404 6.4997186E-17 0.04383579
v -5.0025923E-05 -0.05424689 0.04024955
v -5.782072E-18 6.7075295E-17 0.05902431
v -0.010104534 -0.05089653 0.025931722
v -0.014704815 -0.10161057 -0.028253555
v -0.009163404 6.320188E-17 0.04383579
v -0.00993986 0.050928358 0.025931949
v -0.01495621 0.00019576124 -0.043000497
v -0.012157938 0.10191942 -0.028224465
v -7.455613E-05 0.10843485 -0.016495053
v -0.005723128 0.17438819 -0.19225039
v -7.455613E-05 0.10843485 -0.016495053
v -0.029496096 0.0020719976 -0.19369416
v -0.03214036 -0.17159446 -0.19400777
v -0.014173878 -0.18433505 -0.18977739
v -0.0020194766 -0.10843485 -0.016509028
v -0.0056527313 -0.23926668 -0.40252706
v -0.031735335 -0.22075352 -0.39823148
v 0.0035773783 -0.23853476 -0.46800575
v -0.021488726 0.0054760748 -0.3881381
v 0.03509942 0.22836593 -0.38976452
v -0.02537083 -0.21971273 -0.4607859
v 0.014518488 -0.20410596 -0.51859164
v -0.016935842 -0.1871233 -0.5091234
v 0.013826315 0.18433505 -0.18795262
v -7.455613E-05 0.10843485 -0.016495053
v 0.0655592 0.23926668 -0.3935056
v 0.04125945 0.22803292 -0.4523448
v 0.074571475 0.23853476 -0.45901188
v 0.0400774 0.19599716 -0.5019006
v 0.07526565 0.20410596 -0.51089585
v 0.027191544 0.1105408 -0.536457
v 0.07526565 0.20410596 -0.51089585
v 0.06312187 0.11285434 -0.547098
v 0.010325212 0.00466968 -0.5466622
v 0.045632172 1.1743162E-09 -0.55781776
v -0.004332233 -0.101294294 -0.5404506
v 0.029533556 -0.11285434 -0.5513531
v 0.014518488 -0.20410596 -0.51859164
vt 0.13111603 0.40800625
vt 0.23031458 0.13796896
vt 0.11379278 0.4032312
vt 0.049465656 0.71821463
vt 0.026794791 0.7294884
vt 0.050524414 0.8156182
vt 0.027923048 0.83193123
vt 0.10033423 0.8918174
vt 0.08099496 0.9120726
vt 0.3956234 0.70686007
vt 0.3956234 0.4078379
vt 0.23235184 0.9431006
vt 0.08099496 0.9120726
vt 0.22165889 0.9660088
vt 0.39562345 0.9558792
vt 0.39562333 0.9794487
vt 0.5588948 0.9431005
vt 0.56958795 0.96600866
vt 0.6909127 0.8918174
vt 0.7102518 0.9120726
vt 0.7407223 0.8156182
vt 0.7102518 0.9120726
vt 0.76332366 0.8319313
vt 0.74178123 0.7182146
vt 0.76445186 0.7294884
vt 0.6601306 0.40800628
vt 0.6774539 0.40323114
vt 0.5507712 0.15579242
vt 0.56093216 0.13796896
vt 0.3956234 0.17852747
vt 0.47323656 0.07241696
vt 0.56093216 0.13796896
vt 0.24047562 0.15579236
vt 0.23031458 0.13796896
vt 0.31292725 0.050279975
vt 0.31801027 0.0724169
vt 0.3956234 0.044727623
vt 0.4783196 0.050279975
vt 0.3956234 0.021158159
vt 0.47323656 0.07241696
vt 0.5507712 0.15579242
vt 0.3956234 0.044727623
vt 0.31801027 0.0724169
vt 0.3956234 0.17852747
vt 0.24047562 0.15579236
vt 0.23031458 0.13796896
vt 0.13111603 0.40800625
vt 0.23031458 0.13796896
vt 0.3956234 0.4078379
vt 0.6601306 0.40800628
vt 0.6774539 0.40323114
vt 0.56093216 0.13796896
vt 0.76445186 0.7294884
vt 0.74178123 0.7182146
vt 0.76332366 0.8319313
vt 0.3956234 0.70686007
vt 0.049465656 0.71821463
vt 0.7407223 0.8156182
vt 0.7102518 0.9120726
vt 0.6909127 0.8918174
vt 0.11379278 0.4032312
vt 0.23031458 0.13796896
vt 0.026794791 0.7294884
vt 0.050524414 0.8156182
vt 0.027923048 0.83193123
vt 0.10033423 0.8918174
vt 0.08099496 0.9120726
vt 0.23235184 0.9431006
vt 0.08099496 0.9120726
vt 0.22165889 0.9660088
vt 0.39562345 0.9558792
vt 0.39562333 0.9794487
vt 0.5588948 0.9431005
vt 0.56958795 0.96600866
vt 0.7102518 0.9120726
vn 0.9780838 0.010633149 0.20793967
vn -0.00622669 0.85817665 0.51331687
vn 0.03236296 0.94468963 0.32636485
vn 0.97221696 0.029069893 0.23226944
vn 0.1223395 0.9734491 0.19346814
vn 0.99200904 0.084725335 0.09348628
vn 0.18038237 0.9362243 -0.3015731
vn 0.99351764 0.007158081 -0.11345316
vn 0.18782584 0.56309235 -0.804766
vn 0.97833234 -0.12193426 0.16732563
vn 0.9869119 -0.09496294 0.13033411
vn 0.9784347 -0.099076435 -0.1812438
vn 0.18782584 0.56309235 -0.804766
vn 0.1510188 0.21263902 -0.96539
vn 0.9717319 -0.14123194 -0.18918371
vn 0.120765895 0.0012603662 -0.9926803
vn 0.96554214 -0.18438378 -0.18366003
vn 0.08799434 -0.21119267 -0.9734755
vn 0.94831645 -0.29410195 -0.11916339
vn 0.020264307 -0.5637325 -0.8257088
vn 0.92277 -0.37605077 0.084151186
vn 0.020264307 -0.5637325 -0.8257088
vn -0.09794111 -0.93597454 -0.33817035
vn 0.9460204 -0.27738965 0.16763172
vn -0.16385993 -0.97466415 0.15224917
vn 0.96916246 -0.20565432 0.13575889
vn -0.12999964 -0.94194233 0.3095879
vn 0.9830511 -0.16658579 0.07654938
vn -0.03555585 -0.8575052 0.5132452
vn 0.9975592 -0.050952226 0.047743864
vn 0.975047 -0.13949423 0.17269862
vn -0.03555585 -0.8575052 0.5132452
vn 0.9889831 0.068381034 0.13128796
vn -0.00622669 0.85817665 0.51331687
vn -0.00095101167 0.53560865 0.8444658
vn 0.9740543 0.12623763 0.18783595
vn 0.97597957 -0.0010339055 0.21785964
vn 0.0013569263 -0.5355984 0.84447163
vn -0.00032254405 0 1
vn -0.9622772 -0.13477485 0.23634395
vn -0.98244137 -0.1076808 0.15236092
vn -0.9664982 0.0010092552 0.25667155
vn -0.9635611 0.14780238 0.2229448
vn -0.9961551 0.049238972 0.072460204
vn -0.9738299 0.20322588 0.10175695
vn -0.00622669 0.85817665 0.51331687
vn -0.9631113 0.26806647 -0.023603022
vn -0.00622669 0.85817665 0.51331687
vn -0.99555355 0.093458965 -0.011770544
vn -0.9959382 -0.07992286 0.041466538
vn -0.12999964 -0.94194233 0.3095879
vn -0.03555585 -0.8575052 0.5132452
vn -0.16385993 -0.97466415 0.15224917
vn -0.9926363 -0.12076528 -0.009425513
vn -0.09794111 -0.93597454 -0.33817035
vn -0.98968047 0.12146402 -0.07602024
vn -0.92996705 0.36281788 -0.0593657
vn -0.96203315 -0.19737302 -0.18851006
vn 0.020264307 -0.5637325 -0.8257088
vn -0.9053661 -0.10769573 -0.41074803
vn 0.03236296 0.94468963 0.32636485
vn -0.00622669 0.85817665 0.51331687
vn 0.1223395 0.9734491 0.19346814
vn -0.8643081 0.47151726 -0.17505105
vn 0.18038237 0.9362243 -0.3015731
vn -0.8343212 0.37830347 -0.40099207
vn 0.18782584 0.56309235 -0.804766
vn -0.8393112 0.24285805 -0.4863915
vn 0.18782584 0.56309235 -0.804766
vn 0.1510188 0.21263902 -0.96539
vn -0.8488452 0.13584618 -0.5108892
vn 0.120765895 0.0012603662 -0.9926803
vn -0.870222 0.028432664 -0.49183863
vn 0.08799434 -0.21119267 -0.9734755
vn 0.020264307 -0.5637325 -0.8257088
g wing_l_0
f 3/3/3 2/2/2 1/1/1
f 3/3/3 1/1/1 4/4/4
f 5/5/5 3/3/3 4/4/4
f 5/5/5 4/4/4 6/6/6
f 7/7/7 5/5/5 6/6/6
f 7/7/7 6/6/6 8/8/8
f 9/9/9 7/7/7 8/8/8
f 6/6/6 4/4/4 10/10/10
f 8/8/8 6/6/6 10/10/10
f 10/10/10 4/4/4 11/11/11
f 4/4/4 1/1/1 11/11/11
f 12/12/12 8/8/8 10/10/10
f 13/13/13 8/8/8 12/12/12
f 14/14/14 13/13/13 12/12/12
f 14/14/14 12/12/12 15/15/15
f 15/15/15 12/12/12 10/10/10
f 16/16/16 14/14/14 15/15/15
f 16/16/16 15/15/15 17/17/17
f 15/15/15 10/10/10 17/17/17
f 18/18/18 16/16/16 17/17/17
f 18/18/18 17/17/17 19/19/19
f 17/17/17 10/10/10 19/19/19
f 20/20/20 18/18/18 19/19/19
f 19/19/19 10/10/10 21/21/21
f 22/22/22 19/19/19 21/21/21
f 23/23/23 22/22/22 21/21/21
f 23/23/23 21/21/21 24/24/24
f 21/21/21 10/10/10 24/24/24
f 25/25/25 23/23/23 24/24/24
f 24/24/24 10/10/10 26/26/26
f 25/25/25 24/24/24 26/26/26
f 27/27/27 25/25/25 26/26/26
f 10/10/10 11/11/11 26/26/26
f 27/27/27 26/26/26 28/28/28
f 26/26/26 11/11/11 28/28/28
f 29/29/29 27/27/27 28/28/28
f 11/11/11 30/30/30 28/28/28
f 11/11/11 1/1/1 30/30/30
f 28/28/28 30/30/30 31/31/31
f 32/32/32 28/28/28 31/31/31
f 1/1/1 33/33/33 30/30/30
f 34/34/34 33/33/33 1/1/1
f 34/34/34 35/35/35 33/33/33
f 33/33/33 36/36/36 30/30/30
f 35/35/35 36/36/36 33/33/33
f 31/31/31 30/30/30 37/37/37
f 30/30/30 36/36/36 37/37/37
f 38/38/38 32/32/32 31/31/31
f 38/38/38 31/31/31 37/37/37
f 39/39/39 37/37/37 36/36/36
f 35/35/35 39/39/39 36/36/36
f 39/39/39 38/38/38 37/37/37
f 32/32/32 38/38/38 40/40/40
f 41/41/41 32/32/32 40/40/40
f 38/38/38 39/39/39 42/42/42
f 40/40/40 38/38/38 42/42/42
f 39/39/39 35/35/35 43/43/43
f 42/42/42 39/39/39 43/43/43
f 44/44/44 40/40/40 42/42/42
f 43/43/43 44/44/44 42/42/42
f 44/44/44 41/41/41 40/40/40
f 43/43/43 35/35/35 45/45/45
f 43/43/43 45/45/45 44/44/44
f 35/35/35 46/46/46 45/45/45
f 45/45/45 47/47/47 44/44/44
f 45/45/45 48/48/48 47/47/47
f 44/44/44 49/49/49 41/41/41
f 47/47/47 49/49/49 44/44/44
f 49/49/49 50/50/50 41/41/41
f 50/50/50 51/51/51 41/41/41
f 51/51/51 52/52/52 41/41/41
f 53/53/53 51/51/51 50/50/50
f 54/54/54 53/53/53 50/50/50
f 55/55/55 53/53/53 54/54/54
f 49/49/49 56/56/56 50/50/50
f 56/56/56 54/54/54 50/50/50
f 57/57/57 56/56/56 49/49/49
f 47/47/47 57/57/57 49/49/49
f 56/56/56 58/58/58 54/54/54
f 58/58/58 55/55/55 54/54/54
f 59/59/59 55/55/55 58/58/58
f 60/60/60 59/59/59 58/58/58
f 56/56/56 60/60/60 58/58/58
f 47/47/47 61/61/61 57/57/57
f 62/62/62 61/61/61 47/47/47
f 61/61/61 63/63/63 57/57/57
f 57/57/57 63/63/63 64/64/64
f 57/57/57 64/64/64 56/56/56
f 63/63/63 65/65/65 64/64/64
f 64/64/64 65/65/65 66/66/66
f 64/64/64 66/66/66 56/56/56
f 65/65/65 67/67/67 66/66/66
f 66/66/66 68/68/68 56/56/56
f 66/66/66 69/69/69 68/68/68
f 69/69/69 70/70/70 68/68/68
f 68/68/68 70/70/70 71/71/71
f 68/68/68 71/71/71 56/56/56
f 70/70/70 72/72/72 71/71/71
f 56/56/56 71/71/71 73/73/73
f 71/71/71 72/72/72 73/73/73
f 56/56/56 73/73/73 60/60/60
f 72/72/72 74/74/74 73/73/73
f 73/73/73 74/74/74 60/60/60
f 74/74/74 75/75/75 60/60/60
